G04*
G04 #@! TF.GenerationSoftware,Altium Limited,Altium Designer,22.10.1 (41)*
G04*
G04 Layer_Color=32896*
%FSLAX25Y25*%
%MOIN*%
G70*
G04*
G04 #@! TF.SameCoordinates,8BF85E7B-6BD0-4BB0-81CB-12CC6FA11C7D*
G04*
G04*
G04 #@! TF.FilePolarity,Positive*
G04*
G01*
G75*
%ADD10C,0.00984*%
%ADD11C,0.00787*%
%ADD12C,0.00394*%
%ADD17C,0.00500*%
%ADD18C,0.00591*%
%ADD107C,0.01732*%
%ADD108C,0.00472*%
G36*
X-27756Y-2362D02*
Y-394D01*
X-28346D01*
X-29528Y-1575D01*
Y-2362D01*
X-27756D01*
D02*
G37*
G36*
X-21850Y37008D02*
Y35039D01*
X-21260D01*
X-20079Y36220D01*
Y37008D01*
X-21850D01*
D02*
G37*
D10*
X-26378Y-5709D02*
X-27116Y-5283D01*
Y-6135D01*
X-26378Y-5709D01*
X-22244Y40354D02*
X-22982Y40780D01*
Y39928D01*
X-22244Y40354D01*
D11*
X-27756Y-394D02*
X-28642Y-631D01*
X-29290Y-1280D01*
X-29528Y-2165D01*
X-25343Y4858D02*
X-26131D01*
X-25343D01*
X-26131D01*
X-25343D01*
X-21850Y35039D02*
X-20965Y35277D01*
X-20316Y35925D01*
X-20079Y36811D01*
X-41071Y44043D02*
X-38071D01*
X-41071D02*
Y55543D01*
X-36134Y63543D02*
X-22197D01*
X-17197Y44043D02*
Y55543D01*
X-20197Y44043D02*
X-17197D01*
X44437Y-35559D02*
Y-32559D01*
Y-35559D02*
X55937D01*
X63937Y-30559D02*
Y-16622D01*
X44437Y-11685D02*
X55937D01*
X44437Y-14685D02*
Y-11685D01*
X32120Y-871D02*
X40472Y7480D01*
Y8594D01*
X33234Y15832D02*
X40472Y8594D01*
X24326Y6923D02*
X33234Y15832D01*
X24326Y6923D02*
X32120Y-871D01*
X-44437Y10898D02*
Y13898D01*
X-55937Y10898D02*
X-44437D01*
X-63937Y15803D02*
Y33709D01*
X-55937Y38709D02*
X-44437D01*
Y35709D02*
Y38709D01*
X-39961Y1575D02*
X-27756D01*
X-39961Y-2362D02*
X-27756D01*
X-39961D02*
Y1575D01*
X-27756Y-2362D02*
Y1575D01*
X-29528Y-2362D02*
Y-2165D01*
X11280Y51279D02*
Y63681D01*
X-11280Y51279D02*
X11280D01*
X-11280D02*
Y63681D01*
X11280D01*
X26772Y27756D02*
X30315D01*
Y30610D01*
X26772Y39173D02*
X30315D01*
Y36319D02*
Y39173D01*
X24803Y32283D02*
Y34646D01*
X44437Y33740D02*
Y36740D01*
X55937D01*
X63937Y17866D02*
Y31803D01*
X44437Y12866D02*
X55937D01*
X44437D02*
Y15866D01*
X55905Y-9252D02*
X59449D01*
Y-6398D01*
X55905Y2165D02*
X59449D01*
Y-689D02*
Y2165D01*
X53937Y-4724D02*
Y-2362D01*
X33465Y49213D02*
X35827D01*
X37500Y43701D02*
X40354D01*
Y47244D01*
X28937Y43701D02*
X31791D01*
X28937D02*
Y47244D01*
X-20079Y36811D02*
Y37008D01*
X-21850Y33071D02*
Y37008D01*
X-9646Y33071D02*
Y37008D01*
X-21850D02*
X-9646D01*
X-21850Y33071D02*
X-9646D01*
X-44437Y-14685D02*
Y-11685D01*
X-55937D02*
X-44437D01*
X-63937Y-30622D02*
Y-16685D01*
X-55937Y-35559D02*
X-44437D01*
Y-32559D01*
X-11280Y-63681D02*
X11280D01*
Y-51279D01*
X-11280D02*
X11280D01*
X-11280Y-63681D02*
Y-51279D01*
X57219Y-39142D02*
X57973Y-38387D01*
X59482D01*
X60236Y-39142D01*
Y-42159D01*
X59482Y-42913D01*
X57973D01*
X57219Y-42159D01*
Y-40650D01*
X58728D01*
X55710Y-42913D02*
Y-38387D01*
X53447D01*
X52693Y-39142D01*
Y-40650D01*
X53447Y-41405D01*
X55710D01*
X48167Y-39142D02*
X48921Y-38387D01*
X50430D01*
X51184Y-39142D01*
Y-39896D01*
X50430Y-40650D01*
X48921D01*
X48167Y-41405D01*
Y-42159D01*
X48921Y-42913D01*
X50430D01*
X51184Y-42159D01*
X59842Y10038D02*
Y5512D01*
X56825D01*
X52299Y10038D02*
X55316D01*
Y5512D01*
X52299D01*
X55316Y7775D02*
X53808D01*
X50790Y10038D02*
Y5512D01*
X48527D01*
X47773Y6266D01*
Y9284D01*
X48527Y10038D01*
X50790D01*
X-47244Y-37994D02*
X-48753D01*
X-47998D01*
Y-42520D01*
X-47244D01*
X-48753D01*
X-54033D02*
X-51016D01*
X-54033Y-39502D01*
Y-38748D01*
X-53279Y-37994D01*
X-51770D01*
X-51016Y-38748D01*
X-58559D02*
X-57805Y-37994D01*
X-56296D01*
X-55542Y-38748D01*
Y-41765D01*
X-56296Y-42520D01*
X-57805D01*
X-58559Y-41765D01*
X-44488Y8069D02*
X-45997D01*
X-45243D01*
Y3543D01*
X-44488D01*
X-45997D01*
X-51277Y7315D02*
X-50523Y8069D01*
X-49014D01*
X-48260Y7315D01*
Y4298D01*
X-49014Y3543D01*
X-50523D01*
X-51277Y4298D01*
X-55803Y7315D02*
X-55049Y8069D01*
X-53540D01*
X-52786Y7315D01*
Y6561D01*
X-53540Y5806D01*
X-55049D01*
X-55803Y5052D01*
Y4298D01*
X-55049Y3543D01*
X-53540D01*
X-52786Y4298D01*
X-57312Y3543D02*
Y8069D01*
X-59575D01*
X-60330Y7315D01*
Y5806D01*
X-59575Y5052D01*
X-57312D01*
D12*
X41783Y8037D02*
D03*
D17*
X-25055Y0D02*
X-24220Y835D01*
X-835Y24220D02*
X0Y25055D01*
Y-25055D02*
X835Y-24220D01*
X24220Y-835D02*
X25055Y0D01*
X-25055D02*
X-24220Y-835D01*
X0Y25055D02*
X835Y24220D01*
X-835Y-24220D02*
X0Y-25055D01*
X24220Y835D02*
X25055Y0D01*
X-51181Y64961D02*
X-52164Y64925D01*
X-53142Y64820D01*
X-54110Y64646D01*
X-55063Y64403D01*
X-55997Y64092D01*
X-56905Y63715D01*
X-57785Y63275D01*
X-58631Y62773D01*
X-59439Y62212D01*
X-60205Y61595D01*
X-60925Y60925D01*
X-61595Y60205D01*
X-62212Y59439D01*
X-62773Y58631D01*
X-63275Y57785D01*
X-63715Y56905D01*
X-64092Y55997D01*
X-64403Y55063D01*
X-64646Y54110D01*
X-64820Y53142D01*
X-64925Y52164D01*
X-64961Y51181D01*
X64961D02*
X64925Y52164D01*
X64820Y53142D01*
X64646Y54110D01*
X64403Y55063D01*
X64092Y55997D01*
X63715Y56905D01*
X63275Y57785D01*
X62773Y58631D01*
X62212Y59439D01*
X61595Y60205D01*
X60925Y60925D01*
X60205Y61595D01*
X59439Y62212D01*
X58631Y62773D01*
X57785Y63275D01*
X56905Y63715D01*
X55997Y64092D01*
X55063Y64403D01*
X54110Y64646D01*
X53142Y64820D01*
X52164Y64925D01*
X51181Y64961D01*
Y-64961D02*
X52164Y-64925D01*
X53142Y-64820D01*
X54110Y-64646D01*
X55063Y-64403D01*
X55997Y-64092D01*
X56905Y-63715D01*
X57785Y-63275D01*
X58631Y-62773D01*
X59439Y-62212D01*
X60205Y-61595D01*
X60925Y-60925D01*
X61595Y-60205D01*
X62212Y-59439D01*
X62773Y-58631D01*
X63275Y-57785D01*
X63715Y-56905D01*
X64092Y-55997D01*
X64403Y-55063D01*
X64646Y-54110D01*
X64820Y-53142D01*
X64925Y-52164D01*
X64961Y-51181D01*
X-64961D02*
X-64925Y-52164D01*
X-64820Y-53142D01*
X-64646Y-54110D01*
X-64403Y-55063D01*
X-64092Y-55997D01*
X-63715Y-56905D01*
X-63275Y-57785D01*
X-62773Y-58631D01*
X-62212Y-59439D01*
X-61595Y-60205D01*
X-60925Y-60925D01*
X-60205Y-61595D01*
X-59439Y-62212D01*
X-58631Y-62773D01*
X-57785Y-63275D01*
X-56905Y-63715D01*
X-55997Y-64092D01*
X-55063Y-64403D01*
X-54110Y-64646D01*
X-53142Y-64820D01*
X-52164Y-64925D01*
X-51181Y-64961D01*
Y-64961D02*
X51181D01*
X-64961Y-51181D02*
Y51181D01*
X64961Y-51181D02*
Y51181D01*
X-51181Y64961D02*
X51181D01*
D18*
X27953Y23622D02*
X33465D01*
X27953Y28622D02*
X28709D01*
X27953Y18622D02*
Y28622D01*
Y18622D02*
X28709D01*
X32709D02*
X33465D01*
Y28622D01*
X32709D02*
X33465D01*
X33465Y23622D02*
X38976D01*
X33465Y28622D02*
X34220D01*
X33465Y18622D02*
Y28622D01*
Y18622D02*
X34220D01*
X38221D02*
X38976D01*
Y28622D01*
X38221D02*
X38976D01*
X44488Y-4724D02*
Y787D01*
X49488Y32D02*
Y787D01*
X39488D02*
X49488D01*
X39488Y32D02*
Y787D01*
Y-4724D02*
Y-3968D01*
Y-4724D02*
X49488D01*
Y-3968D01*
X-38189Y11024D02*
Y11811D01*
X-30315D01*
Y11024D02*
Y11811D01*
Y7874D02*
Y8661D01*
X-38189Y7874D02*
X-30315D01*
X-38189D02*
Y8661D01*
X4055Y33890D02*
Y34646D01*
X14055D01*
Y33890D02*
Y34646D01*
Y29134D02*
Y29890D01*
X4055Y29134D02*
X14055D01*
X4055D02*
Y29890D01*
X9055Y29134D02*
Y34646D01*
Y34646D02*
Y40157D01*
X14567Y38976D02*
Y40157D01*
X3543D02*
X14567D01*
X3543Y38976D02*
Y40157D01*
Y34646D02*
Y35827D01*
Y34646D02*
X14567D01*
Y35827D01*
X9055Y40276D02*
X9811D01*
X9055D02*
Y50276D01*
X9811D01*
X13811D02*
X14567D01*
Y40276D02*
Y50276D01*
X13811Y40276D02*
X14567D01*
X9055Y45276D02*
X14567D01*
X31572Y16516D02*
X32129Y15959D01*
X26561Y10391D02*
X32129Y15959D01*
X26004Y10948D02*
X26561Y10391D01*
X23777Y13175D02*
X24334Y12618D01*
X23777Y13175D02*
X29345Y18743D01*
X29901Y18186D01*
X16504Y30146D02*
X17004D01*
X16504D02*
Y39146D01*
X17004D01*
X20004D02*
X20504D01*
Y30146D02*
Y39146D01*
X20004Y30146D02*
X20504D01*
X16504Y34646D02*
X20504D01*
X37571Y52724D02*
Y53224D01*
X28571Y52724D02*
X37571D01*
X28571D02*
Y53224D01*
Y56224D02*
Y56724D01*
X37571D01*
Y56224D02*
Y56724D01*
X33071Y52724D02*
Y56724D01*
X49382Y-9480D02*
Y-8980D01*
X40382Y-9480D02*
X49382D01*
X40382D02*
Y-8980D01*
Y-5980D02*
Y-5480D01*
X49382D01*
Y-5980D02*
Y-5480D01*
X44882Y-9480D02*
Y-5480D01*
X23304Y-18090D02*
X23861Y-17534D01*
X18293Y-11966D02*
X23861Y-17534D01*
X17736Y-12523D02*
X18293Y-11966D01*
X15509Y-14750D02*
X16066Y-14193D01*
X15509Y-14750D02*
X21077Y-20318D01*
X21634Y-19761D01*
X14980Y17792D02*
X15537Y18349D01*
X21105Y12781D01*
X20548Y12224D02*
X21105Y12781D01*
X18321Y9997D02*
X18878Y10554D01*
X12753Y15565D02*
X18321Y9997D01*
X12753Y15565D02*
X13310Y16122D01*
X-31102Y34646D02*
X-30315D01*
X-31102Y26772D02*
Y34646D01*
Y26772D02*
X-30315D01*
X-27953D02*
X-27165D01*
Y34646D01*
X-27953D02*
X-27165D01*
X-26378D02*
X-25591D01*
X-26378Y26772D02*
Y34646D01*
Y26772D02*
X-25591D01*
X-23228D02*
X-22441D01*
Y34646D01*
X-23228D02*
X-22441D01*
X-11811Y42882D02*
Y46882D01*
X-7311Y46382D02*
Y46882D01*
X-16311D02*
X-7311D01*
X-16311Y46382D02*
Y46882D01*
Y42882D02*
Y43382D01*
Y42882D02*
X-7311D01*
Y43382D01*
X-23228Y33858D02*
X-22441D01*
Y41732D01*
X-23228D02*
X-22441D01*
X-26378D02*
X-25591D01*
X-26378Y33858D02*
Y41732D01*
Y33858D02*
X-25591D01*
X-27953D02*
X-27165D01*
Y41732D01*
X-27953D02*
X-27165D01*
X-31102D02*
X-30315D01*
X-31102Y33858D02*
Y41732D01*
Y33858D02*
X-30315D01*
X21415Y-8085D02*
X21971Y-8642D01*
X21415Y-8085D02*
X26983Y-2517D01*
X27539Y-3074D01*
X29210Y-4744D02*
X29766Y-5301D01*
X24199Y-10869D02*
X29766Y-5301D01*
X23642Y-10312D02*
X24199Y-10869D01*
X-27798Y17534D02*
X-27241Y18090D01*
X-27798Y17534D02*
X-22230Y11966D01*
X-21673Y12523D01*
X-20003Y14193D02*
X-19446Y14750D01*
X-25014Y20318D02*
X-19446Y14750D01*
X-25571Y19761D02*
X-25014Y20318D01*
X31657Y-10076D02*
X34485Y-7247D01*
X37314Y-10783D02*
X37667Y-10429D01*
X31303Y-4065D02*
X37667Y-10429D01*
X30950Y-4419D02*
X31303Y-4065D01*
X28475Y-6894D02*
X28828Y-6540D01*
X28475Y-6894D02*
X34839Y-13258D01*
X35192Y-12904D01*
X28507Y-13940D02*
X31335Y-16769D01*
X27800Y-19597D02*
X28153Y-19951D01*
X34517Y-13587D01*
X34164Y-13233D02*
X34517Y-13587D01*
X31689Y-10758D02*
X32043Y-11112D01*
X25325Y-17122D02*
X31689Y-10758D01*
X25325Y-17122D02*
X25679Y-17476D01*
X-19131Y20706D02*
X-16302Y17877D01*
X-15949Y23888D02*
X-15595Y23534D01*
X-22313Y17524D02*
X-15949Y23888D01*
X-22313Y17524D02*
X-21959Y17170D01*
X-19838Y15049D02*
X-19484Y14695D01*
X-13120Y21059D01*
X-13474Y21413D02*
X-13120Y21059D01*
X-19272Y10554D02*
X-18715Y9997D01*
X-13147Y15565D01*
X-13704Y16122D02*
X-13147Y15565D01*
X-15931Y18349D02*
X-15374Y17792D01*
X-21499Y12781D02*
X-15931Y18349D01*
X-21499Y12781D02*
X-20942Y12224D01*
X-16066Y-12972D02*
X-15509Y-12416D01*
X-21077Y-6848D02*
X-15509Y-12416D01*
X-21634Y-7405D02*
X-21077Y-6848D01*
X-23861Y-9632D02*
X-23304Y-9075D01*
X-23861Y-9632D02*
X-18293Y-15199D01*
X-17736Y-14643D01*
X-17168Y-16325D02*
X-16611Y-15768D01*
X-17168Y-16325D02*
X-11600Y-21892D01*
X-11043Y-21336D01*
X-9373Y-19665D02*
X-8816Y-19108D01*
X-14384Y-13541D02*
X-8816Y-19108D01*
X-14941Y-14097D02*
X-14384Y-13541D01*
X13462Y21673D02*
X14018Y22230D01*
X8451Y27798D02*
X14018Y22230D01*
X7894Y27241D02*
X8451Y27798D01*
X5667Y25014D02*
X6224Y25571D01*
X5667Y25014D02*
X11235Y19446D01*
X11791Y20003D01*
X-9055Y33465D02*
X-1969D01*
X-9055Y26772D02*
X-7480D01*
X-9055D02*
Y40157D01*
X-7480D01*
X-3543D02*
X-1969D01*
Y26772D02*
Y40157D01*
X-3543Y26772D02*
X-1969D01*
X-15551Y-54921D02*
X-12927D01*
X-15551Y-60170D02*
X-12927D01*
X-14239Y-61482D02*
Y-58858D01*
X15551Y60170D02*
X12927D01*
X14239Y61482D02*
Y58858D01*
X15551Y54921D02*
X12927D01*
D107*
X56339Y-51181D02*
X56239Y-50175D01*
X55946Y-49207D01*
X55469Y-48316D01*
X54828Y-47534D01*
X54046Y-46893D01*
X53155Y-46416D01*
X52187Y-46123D01*
X51181Y-46024D01*
X50175Y-46123D01*
X49207Y-46416D01*
X48316Y-46893D01*
X47534Y-47534D01*
X46893Y-48316D01*
X46416Y-49207D01*
X46123Y-50175D01*
X46024Y-51181D01*
X46123Y-52187D01*
X46416Y-53155D01*
X46893Y-54046D01*
X47534Y-54828D01*
X48316Y-55469D01*
X49207Y-55946D01*
X50175Y-56239D01*
X51181Y-56339D01*
X52187Y-56239D01*
X53155Y-55946D01*
X54046Y-55469D01*
X54828Y-54828D01*
X55469Y-54046D01*
X55946Y-53155D01*
X56239Y-52187D01*
X56339Y-51181D01*
X-46024D02*
X-46123Y-50175D01*
X-46416Y-49207D01*
X-46893Y-48316D01*
X-47534Y-47534D01*
X-48316Y-46893D01*
X-49207Y-46416D01*
X-50175Y-46123D01*
X-51181Y-46024D01*
X-52187Y-46123D01*
X-53155Y-46416D01*
X-54046Y-46893D01*
X-54828Y-47534D01*
X-55469Y-48316D01*
X-55946Y-49207D01*
X-56239Y-50175D01*
X-56339Y-51181D01*
X-56239Y-52187D01*
X-55946Y-53155D01*
X-55469Y-54046D01*
X-54828Y-54828D01*
X-54046Y-55469D01*
X-53155Y-55946D01*
X-52187Y-56239D01*
X-51181Y-56339D01*
X-50175Y-56239D01*
X-49207Y-55946D01*
X-48316Y-55469D01*
X-47534Y-54828D01*
X-46893Y-54046D01*
X-46416Y-53155D01*
X-46123Y-52187D01*
X-46024Y-51181D01*
X56339Y51181D02*
X56239Y52187D01*
X55946Y53155D01*
X55469Y54046D01*
X54828Y54828D01*
X54046Y55469D01*
X53155Y55946D01*
X52187Y56239D01*
X51181Y56339D01*
X50175Y56239D01*
X49207Y55946D01*
X48316Y55469D01*
X47534Y54828D01*
X46893Y54046D01*
X46416Y53155D01*
X46123Y52187D01*
X46024Y51181D01*
X46123Y50175D01*
X46416Y49207D01*
X46893Y48316D01*
X47534Y47534D01*
X48316Y46893D01*
X49207Y46416D01*
X50175Y46123D01*
X51181Y46024D01*
X52187Y46123D01*
X53155Y46416D01*
X54046Y46893D01*
X54828Y47534D01*
X55469Y48316D01*
X55946Y49207D01*
X56239Y50175D01*
X56339Y51181D01*
X-46024D02*
X-46123Y52187D01*
X-46416Y53155D01*
X-46893Y54046D01*
X-47534Y54828D01*
X-48316Y55469D01*
X-49207Y55946D01*
X-50175Y56239D01*
X-51181Y56339D01*
X-52187Y56239D01*
X-53155Y55946D01*
X-54046Y55469D01*
X-54828Y54828D01*
X-55469Y54046D01*
X-55946Y53155D01*
X-56239Y52187D01*
X-56339Y51181D01*
X-56239Y50175D01*
X-55946Y49207D01*
X-55469Y48316D01*
X-54828Y47534D01*
X-54046Y46893D01*
X-53155Y46416D01*
X-52187Y46123D01*
X-51181Y46024D01*
X-50175Y46123D01*
X-49207Y46416D01*
X-48316Y46893D01*
X-47534Y47534D01*
X-46893Y48316D01*
X-46416Y49207D01*
X-46123Y50175D01*
X-46024Y51181D01*
D108*
X40211Y23634D02*
X40670Y24094D01*
X41588D01*
X42047Y23634D01*
Y21798D01*
X41588Y21339D01*
X40670D01*
X40211Y21798D01*
Y22716D01*
X41129D01*
X42047Y28424D02*
Y25669D01*
X40670D01*
X40211Y26129D01*
Y26588D01*
X40670Y27047D01*
X42047D01*
X40670D01*
X40211Y27506D01*
Y27965D01*
X40670Y28424D01*
X42047D01*
X40211Y32361D02*
X42047D01*
Y30984D01*
X41129Y31443D01*
X40670D01*
X40211Y30984D01*
Y30066D01*
X40670Y29606D01*
X41588D01*
X42047Y30066D01*
X39292Y32361D02*
Y30525D01*
X38374Y29606D01*
X37455Y30525D01*
Y32361D01*
X42047Y17402D02*
Y20157D01*
X40670D01*
X40211Y19697D01*
Y18779D01*
X40670Y18320D01*
X42047D01*
X41129D02*
X40211Y17402D01*
X-34724Y15433D02*
Y18188D01*
X-36102D01*
X-36561Y17729D01*
Y16811D01*
X-36102Y16351D01*
X-34724D01*
X-39316Y17729D02*
X-38857Y18188D01*
X-37939D01*
X-37479Y17729D01*
Y15892D01*
X-37939Y15433D01*
X-38857D01*
X-39316Y15892D01*
Y16811D01*
X-38398D01*
X-42071Y17729D02*
X-41612Y18188D01*
X-40694D01*
X-40234Y17729D01*
Y15892D01*
X-40694Y15433D01*
X-41612D01*
X-42071Y15892D01*
X-34724Y19370D02*
Y22125D01*
X-36102D01*
X-36561Y21666D01*
Y20748D01*
X-36102Y20288D01*
X-34724D01*
X-39316Y21666D02*
X-38857Y22125D01*
X-37939D01*
X-37479Y21666D01*
Y19829D01*
X-37939Y19370D01*
X-38857D01*
X-39316Y19829D01*
Y20748D01*
X-38398D01*
X-40234Y22125D02*
Y19370D01*
X-41612D01*
X-42071Y19829D01*
Y21666D01*
X-41612Y22125D01*
X-40234D01*
X-36561Y25603D02*
X-36102Y26062D01*
X-35184D01*
X-34724Y25603D01*
Y23766D01*
X-35184Y23307D01*
X-36102D01*
X-36561Y23766D01*
Y24685D01*
X-35643D01*
X-37479Y23307D02*
Y26062D01*
X-39316Y23307D01*
Y26062D01*
X-40234D02*
Y23307D01*
X-41612D01*
X-42071Y23766D01*
Y25603D01*
X-41612Y26062D01*
X-40234D01*
X-34724Y29540D02*
X-35184Y29999D01*
X-36102D01*
X-36561Y29540D01*
Y29081D01*
X-36102Y28622D01*
X-35643D01*
X-36102D01*
X-36561Y28162D01*
Y27703D01*
X-36102Y27244D01*
X-35184D01*
X-34724Y27703D01*
X-37479Y29999D02*
Y28162D01*
X-38398Y27244D01*
X-39316Y28162D01*
Y29999D01*
X-40234Y29540D02*
X-40694Y29999D01*
X-41612D01*
X-42071Y29540D01*
Y29081D01*
X-41612Y28622D01*
X-41153D01*
X-41612D01*
X-42071Y28162D01*
Y27703D01*
X-41612Y27244D01*
X-40694D01*
X-40234Y27703D01*
X-31969Y31181D02*
Y33936D01*
X-32887Y33018D01*
X-33805Y33936D01*
Y31181D01*
X-36560Y33477D02*
X-36101Y33936D01*
X-35183D01*
X-34723Y33477D01*
Y31640D01*
X-35183Y31181D01*
X-36101D01*
X-36560Y31640D01*
X-37479Y33936D02*
Y31181D01*
X-39315D01*
X-40234D02*
Y33936D01*
X-41611D01*
X-42070Y33477D01*
Y32559D01*
X-41611Y32099D01*
X-40234D01*
X-41152D02*
X-42070Y31181D01*
X40211Y-28269D02*
X42047D01*
Y-29646D01*
X41129Y-29187D01*
X40670D01*
X40211Y-29646D01*
Y-30564D01*
X40670Y-31024D01*
X41588D01*
X42047Y-30564D01*
X39292Y-28269D02*
Y-30105D01*
X38374Y-31024D01*
X37455Y-30105D01*
Y-28269D01*
X40211Y-24791D02*
X40670Y-24332D01*
X41588D01*
X42047Y-24791D01*
Y-26627D01*
X41588Y-27087D01*
X40670D01*
X40211Y-26627D01*
Y-25709D01*
X41129D01*
X39292Y-27087D02*
Y-24332D01*
X37455Y-27087D01*
Y-24332D01*
X36537D02*
Y-27087D01*
X35160D01*
X34701Y-26627D01*
Y-24791D01*
X35160Y-24332D01*
X36537D01*
X42047Y-23150D02*
Y-20395D01*
X40670D01*
X40211Y-20854D01*
Y-21772D01*
X40670Y-22231D01*
X42047D01*
X41129D02*
X40211Y-23150D01*
X39292Y-20395D02*
X37455Y-23150D01*
Y-20395D02*
X39292Y-23150D01*
X42047Y-16064D02*
X40211D01*
X41129D01*
Y-18819D01*
X39292Y-16064D02*
X37455Y-18819D01*
Y-16064D02*
X39292Y-18819D01*
X-38136Y-16458D02*
X-36299D01*
Y-17835D01*
X-37218Y-17376D01*
X-37677D01*
X-38136Y-17835D01*
Y-18753D01*
X-37677Y-19213D01*
X-36758D01*
X-36299Y-18753D01*
X-39054Y-16458D02*
Y-18294D01*
X-39973Y-19213D01*
X-40891Y-18294D01*
Y-16458D01*
X-35380Y-29122D02*
X-34921Y-28662D01*
X-34003D01*
X-33543Y-29122D01*
Y-29581D01*
X-34003Y-30040D01*
X-34921D01*
X-35380Y-30499D01*
Y-30958D01*
X-34921Y-31417D01*
X-34003D01*
X-33543Y-30958D01*
X-36298Y-28662D02*
Y-31417D01*
X-37676D01*
X-38135Y-30958D01*
Y-29122D01*
X-37676Y-28662D01*
X-36298D01*
X-39053Y-31417D02*
Y-29581D01*
X-39972Y-28662D01*
X-40890Y-29581D01*
Y-31417D01*
Y-30040D01*
X-39053D01*
X-35380Y-25185D02*
X-34921Y-24725D01*
X-34003D01*
X-33543Y-25185D01*
Y-25644D01*
X-34003Y-26103D01*
X-34921D01*
X-35380Y-26562D01*
Y-27021D01*
X-34921Y-27480D01*
X-34003D01*
X-33543Y-27021D01*
X-38135Y-25185D02*
X-37676Y-24725D01*
X-36757D01*
X-36298Y-25185D01*
Y-27021D01*
X-36757Y-27480D01*
X-37676D01*
X-38135Y-27021D01*
X-39053Y-24725D02*
Y-27480D01*
X-40890D01*
X-35380Y-21248D02*
X-34921Y-20788D01*
X-34003D01*
X-33543Y-21248D01*
Y-23084D01*
X-34003Y-23543D01*
X-34921D01*
X-35380Y-23084D01*
Y-22166D01*
X-34462D01*
X-36298Y-23543D02*
Y-20788D01*
X-38135Y-23543D01*
Y-20788D01*
X-39053D02*
Y-23543D01*
X-40431D01*
X-40890Y-23084D01*
Y-21248D01*
X-40431Y-20788D01*
X-39053D01*
M02*
