M48
;Layer_Color=9474304
;FILE_FORMAT=4:4
METRIC,LZ
;TYPE=PLATED
T01F00S00C0.3000
T02F00S00C0.3500
T03F00S00C3.0000
%
T01
X-0096175Y-00013
X-00955001Y-000155
X-00935001
X-00915001
X-00895001
X-00875001
X-00855001
X-00855Y00016
X-00835
X-00815
X-00795
X-00775
X-00755
X-00735
X-00735Y-000155
X-00755
X-00755Y000405
X-007485
X-006625Y000445
X-00649Y00052
X-00643Y0005486
X-006415Y000685
Y00077
X-0062Y00075
X-0061
X-00669Y000685
X-006715Y001015
X-00675Y00016
X-00655
X-00635
Y-000155
X-00655
X-00675
X-00685Y-00037
X-00615Y-0001575
X-0062Y-000735
X-0061
X-006
X-00875Y00016
X-00895
X-00915
X-00935
X-00955
X-0096175Y00013
X-008545Y000775
X-00595002Y00016
X-00575002
Y-000155
X-00595002
X-0053035Y-000155
X-0053585Y-00021
X-0053435Y-0004
X-00529Y-00047
X-005555Y-00051
X-0049Y-000615
X-0048253Y-0005778
X-0047395Y-00058
X-0045275
X-0043785
X-0041Y-000695
X-004094Y-000198
X-004006Y-0002
X-004205Y-000125
X-004555Y-00024
X-00475Y-000235
X-004955
X-00495Y000155
X-00475
X-00455
X-0045165Y000585
X-004604Y000585
X-004735Y000675
X-00481Y000649
Y000561
X-00497Y00052
X-0050285Y000535
X-0052375Y00057
X-00541Y00067
X-005275Y00033
X-00537Y00021
X-00542Y000155
X-004905Y000835
X-00478Y00102
X-00465
X-004515
X-00439Y000905
X-004295Y000915
X-0044Y00061
X-0042935Y000415
X-004075Y0002236
X-00375Y00016
X-00355
X-003465Y000155
X-00335Y00016
X-0032175Y00013
X-00315Y00016
X-00295
X-00275
X-00255
X-00235
X-00215
X-00215001Y-000155
X-00235001
X-00255002
X-00275002
X-00295002
X-00315002
X-0032175Y-00013
X-00335002Y-000155
X-00355002
X-003575Y-000236
X-00357807Y-000327
X-003711Y-000385
X-003799
X-00375002Y-000155
X-003505Y00033
X-0033825Y0004225
X-003405Y0006586
X-00334
X-00351Y00062
X-00368Y00053
X-0036Y000815
X-00379Y000845
X-00378731Y0009705
X-003316Y-00046
X-003175Y-000965
X-003105
X-003695Y-0010588
X-00195001Y-000155
X-00175001
X-00155001
X-00135001
X-00115001
X-00095001Y-0001575
X-00075002Y-000155
X-00055002
X-00035002
X-00015002
X00004998
X00024998
X00044998
X00064998
X00084998
X00104998
X00124998
X00144998
X00164998
X00184998
X00184999Y00016
X00164999
X00144999
X00124999
X00104999
X00084999
X00064998
X00044998
X00024998
X00004998
X-00015002
X-00035002
X-00055002
X-00075002
X-00095001
X-00115001
X-00135001
X-00155001
X-00175001
X-00195
X00204999
X00204998Y-000155
X002665Y-000155
X00309Y-000415
X003335Y-00025
X00345Y-000155
X00358Y-000425
X00358875Y-00059875
X00350375
X00349875Y-00076875
X00358375
X00347875Y-00094875
X00353Y-00104
X003285
X00332625Y-00071625
X003255Y000185
X003097Y000229
X003135Y00063
X003135Y00073
X003265
X003265Y00063
X003395
X003395Y00073
X002695Y000715
X00211Y001055
X00215Y-000985
X003655Y0001575
X00373Y00027
X00394
X00399Y00018
X003855Y0001575
X003965Y-000125
X004455Y-0001575
Y-000245
X0046
X00465Y-00015749
X00475Y-000245
X00485Y-00015749
X00505
X00524999Y-0001575
X00544999Y-0001575
X00564999
X00584999
X00584999Y0001575
X00564999
X00544999
X00524999
X00504999
X00484999
X00464999
X004495Y00087
Y001
X004365
Y00087
X00605Y0001575
X00625
X00645
X00665
X00685
X00705
X00725
X00745
X00765
X00785
X00805
X00825
X00845
X00865
X00885
X00905
X00925
X00945
Y-00016
X00925Y-0001575
X00905
X00885
X00865
X00845
X00825
X00805
X00784999
X00764999
X00744999
X00724999
X00704999
X00684999
X00664999
X00644999
X00624999
X00604999
T02
X-0088Y-001025
X-00891Y-000855
X-008805Y00067
X-008285Y00035
X-00805Y000225
X-007805Y00035
X-00725Y000575
X-006835Y000455
X-006715Y00038
X00245Y000255
X002585
X002515Y00016
X00246Y-00022
X002575
T03
X-0006915Y-0006915
Y0006915
X00069147Y00069147
X0006915Y-0006915
M30
