M48
;Layer_Color=9474304
;FILE_FORMAT=2:4
INCH,LZ
;TYPE=PLATED
T01F00S00C0.0118
%
T01
X000551Y000394
X000906
X00126
Y000748
Y001102
X000906
X000551
Y000748
X000906
X002165
X00252
Y000394
X002165
Y001102
X00252
X002874
Y000748
Y000394
X00378
Y000748
X004134
Y000394
X004488
Y000748
Y001102
X004134
X00378
X003504Y001678
X003106Y001765
X003059Y002067
Y002382
Y002899
X002832
X002559Y002795
Y003031
X002323
Y002795
X002087
Y003031
X001445Y002899
X001218
X000945Y002795
Y003031
X000709
Y002795
X000472
Y003031
X000591Y003976
X000205
X000197Y004449
Y004961
X000209Y005447
X000433Y006063
X000669
X000906
X001142
X002047
X002283
X00252
X002756
X002699Y006715
X002441Y006654
X002165
X001654Y006647
X00181Y006417
X000787Y006654
X000551
X000512Y00689
X000945Y007283
X001181Y007165
X000787Y00752
X001688Y007629
X001459Y007884
X001946Y00826
X000868Y008465
X000787Y008701
Y009213
X001071Y009331
X000945Y009976
X000709Y010039
X000625Y00976
X002323Y009291
X003114Y0093
X003105Y010092
X003906Y009309
X003087Y008496
X003386Y008189
X003392Y006727
X003424Y006417
X003661Y006063
X003898
X004134
X00437
X004016Y006654
X00378
X004921Y006693
X004938Y007526
X00472Y007752
X004488Y007598
X004931Y007971
X005039Y008307
X005235Y008463
X005491Y008568
X005551Y008819
X005551Y009252
X005488Y010064
X006142Y010118
X006759Y009895
X00677Y009409
X007087Y009646
X007372Y009961
X007904
Y009562
X008031Y009291
X007717
X007165Y009016
X006457Y008992
X006445Y008634
X006693Y008346
X006087Y008228
X006207Y007323
X005872
Y007087
X005581Y006142
X006447
X00686
X007313
X007638Y005827
X008031Y005866
Y004921
Y00437
Y003819
Y003268
X007835Y002244
X007826Y001881
X007402Y002078
X007165Y001466
X00689Y001616
X006732Y001276
Y000929
X006299Y001329
X005945Y001417
X005057Y001321
X005Y001024
X005157Y001772
Y002008
X005039Y002395
X005315
X004673Y002382
Y002067
X004721Y001765
X004673Y002899
Y003228
X004408Y002993
X004981Y002933
X005236Y004094
X0047Y004302
X004751Y004524
X004765Y004998
X004765Y005225
X005315Y004911
X005709
X006102
X006417Y005246
X007205
X007165Y004449
Y004134
X006732
Y004449
X005862Y00378
X006575Y002795
X00685
X007126
X006618Y002511
X006614Y002283
X00622
X007992Y001329
X007559Y006654
X008129Y007008
X006968Y007323
X006979Y007782
X008071Y008425
X00563Y005246
X00315Y005225
Y004998
X003137Y004524
X003085Y004302
X003433Y004016
X003292Y003774
X003826Y004
X003606Y002992
X003059Y003228
X001445
X00167Y003779
X001811Y004016
X002205Y003995
X001471Y004302
X001509Y004526
X001536Y004998
Y005225
X001445Y002382
Y002067
X001492Y001765
X001772Y001678
X000236
X000945Y010276
X001219Y010309
X001008Y010787
X001535Y010787
X001614Y01122
X001378Y011417
X001614Y011693
X001693Y012087
X001378Y011968
X000512Y012008
X000276
Y012283
X000512
Y012559
X000276
Y012835
X000512
Y01311
X000276
X000276Y013701
X000669
Y014094
Y014488
X001063
X001063Y014094
Y013701
X000866Y013268
X001102Y013048
X000787Y012559
Y012323
X000512Y011732
X000276
Y011457
Y01122
X000512
Y011457
X003019Y011542
X003689Y011886
X003973Y01142
X004134Y01126
X004405Y011146
X0043Y011505
X004665Y011467
X00465Y010901
X004961Y011063
X005059Y010777
X005079Y010551
X005243Y010309
X005433Y011496
X005188Y012126
X005236Y012795
X004921
X004443Y012893
X004094Y012992
X004056Y013247
X00374Y013425
X003465
Y013701
X00374
Y013976
X003465
Y014252
X00374
X004646
X004882
Y014016
Y01378
Y013543
X004646
Y01378
Y014016
X005748Y013622
X00563Y01315
X006142Y013071
X006417Y013543
Y013976
Y01437
X006693Y012717
X007047Y012402
X007677Y012323
Y012717
X007953Y013189
X007362
X006378Y012165
X005512Y01252
X00377Y012559
X003602Y012691
X003098Y01326
X002823Y01324
X002677Y013701
X002283Y013701
Y014094
X00189
Y014488
X002283Y014488
X002677
X002677Y014094
X00189Y013701
X001937Y013268
X001871Y012863
X000276Y014094
Y014488
X007126Y010827
X007931Y010846
X007969Y010433
X007622
X006772Y010354
M30
