M48
;Layer_Color=9474304
;FILE_FORMAT=2:4
INCH,LZ
;TYPE=PLATED
T01F00S00C0.0118
%
T01
X000551Y000394
X000906
X00126
Y000748
Y001102
X000906
X000551
Y000748
X000906
X001181Y001732
X001492Y001765
X001445Y002067
Y002382
Y002899
Y003228
X001672Y003777
X001811Y004016
X002205Y003995
X001471Y004302
X001509Y004526
X001536Y004998
Y005225
X001142Y006063
X000906
X000669
X000433
X000551Y006654
X000787
X000512Y00689
X000945Y007283
X001181Y007165
X000787Y00752
X001688Y007629
X001443Y007874
X001946Y00826
X000866Y008504
X000748Y00874
X000787Y009213
X001071Y009331
X000945Y009976
X000709Y010039
X000625Y00976
X002323Y009291
X003114Y0093
X003105Y010092
X003906Y009309
X003123Y008509
X003386Y008189
X003392Y006727
X003424Y006417
X003661Y006063
X003898
X004134
X00437
X004016Y006654
X00378
X002699Y006715
X002441Y006654
X002165
X001654Y006647
X00181Y006417
X002047Y006063
X002283
X00252
X002756
X00315Y005225
Y004998
X003137Y004524
X003085Y004302
X003433Y004016
X003292Y003774
X003826Y004
X0047Y004302
X004751Y004524
X004765Y004998
X004765Y005225
X005315Y004911
X005709
X006102
X006417Y005246
X007205
X007165Y004449
Y004134
X006732
Y004449
X008031Y004291
Y004843
Y005866
X007638Y005827
X007313Y006142
X00686
X006447
X005581
X00563Y005246
X005236Y004094
X005862Y00378
X006575Y002795
X00685
X007126
X006618Y002511
X006614Y002283
X00622
X005315Y002395
X005039
X004673Y002382
Y002067
X004721Y001765
X005157Y001772
Y002008
X005057Y001321
X005Y001024
X004488Y001102
Y000748
X004134
X00378
Y001102
X004134
Y000394
X00378
X004488
X002874
X00252
Y000748
X002165
Y001102
X00252
X002874
Y000748
X002795Y001732
X003106Y001765
X003059Y002067
Y002382
Y002899
Y003228
X003606Y002992
X004408Y002993
X004673Y002899
Y003228
X004981Y002933
X005945Y001417
X006299Y001329
X006732Y001276
Y000929
X00689Y001616
X007165Y001466
X007402Y002078
X007835Y002244
X007826Y001881
X007992Y001329
X008031Y003189
Y00374
X008129Y007008
X007559Y006654
X006968Y007323
X006979Y007782
X006693Y008346
X006445Y008634
X006087Y008228
X005491Y008568
X005551Y008819
X005551Y009252
X005488Y010064
X006142Y010118
X006748Y01
X00677Y009685
Y009409
X007132Y009685
X007165Y009016
X008071Y008425
X005235Y008463
X005039Y008307
X004931Y007971
X00472Y007752
X004488Y007598
X004938Y007526
X004921Y006693
X005872Y007087
Y007323
X006207
X000209Y005447
X000197Y004961
Y004449
X000205Y003976
X000591
X000378Y002992
X00063Y002569
Y002333
X000866
Y002569
X002244Y002598
Y002362
X00248
Y002598
X001992Y002992
X002165Y000394
X003504Y001678
X004134Y01126
X003973Y01142
X0043Y011505
X004665Y011467
X004405Y011146
X00465Y010901
X004961Y011063
X005059Y010777
X005079Y010551
X005243Y010309
X005591Y011181
X005906
X006757Y010729
X006772Y010394
X007323Y011181
X007323Y01253
X006811Y012677
X006575
Y012362
X006811
X006598Y011976
X005561Y012165
X005512Y01252
X005276Y012874
X004921Y012795
X004882Y013425
X004646
Y013701
X004882
Y013976
X004646
Y014252
X004882
X00374
X003465
Y013976
X00374
Y013701
X003465
Y013425
X00374
X004056Y013247
X004094Y012992
X00377Y012559
X003602Y012691
X003689Y011886
X003019Y011542
X001614Y011693
X001693Y012087
X001378Y011968
Y011417
X001614Y01122
X001535Y010787
X001008Y010787
X000945Y010276
X001219Y010309
X000512Y01122
X000276
Y011457
X000512
Y011732
X000276
Y012008
X000512
Y012283
X000276
Y012559
X000512
X000787
Y012323
X001181Y01252
X001569Y01295
X001614Y013228
X001937Y013268
X00189Y013701
X00189Y014094
X002283
Y013701
X002677Y013701
Y014094
X002677Y014488
X002283
X00189Y014488
X001063Y014488
X000669
Y014094
X001063
Y013701
X000669Y013701
X000276
X000276Y014094
Y014488
Y01311
X000512
Y012835
X000276
X002823Y01324
X003098Y01326
X00689Y01315
X007126Y012992
X007362Y013189
X007638Y013032
X007953Y013189
X007913Y012825
X005906Y01437
M30
