G04*
G04 #@! TF.GenerationSoftware,Altium Limited,Altium Designer,24.6.1 (21)*
G04*
G04 Layer_Color=65535*
%FSLAX44Y44*%
%MOMM*%
G71*
G04*
G04 #@! TF.SameCoordinates,29A4E78F-5DBC-4D08-8976-EEF5966CA2B1*
G04*
G04*
G04 #@! TF.FilePolarity,Positive*
G04*
G01*
G75*
%ADD10C,0.2000*%
%ADD11C,0.1500*%
%ADD12C,0.1000*%
%ADD13C,0.1270*%
%ADD14C,0.1200*%
%ADD15C,0.2540*%
G36*
X204000Y178000D02*
X150147D01*
Y209750D01*
X204000D01*
Y178000D01*
D02*
G37*
%LPC*%
G36*
X177717Y202833D02*
X177295D01*
X176674Y202810D01*
X176119Y202766D01*
X175608Y202699D01*
X175186Y202633D01*
X174986Y202588D01*
X174831Y202544D01*
X174676Y202500D01*
X174565Y202477D01*
X174476Y202455D01*
X174409Y202433D01*
X174365Y202411D01*
X174343D01*
X173899Y202233D01*
X173499Y202056D01*
X173144Y201878D01*
X172855Y201700D01*
X172611Y201567D01*
X172456Y201434D01*
X172345Y201345D01*
X172300Y201323D01*
X172034Y201057D01*
X171790Y200790D01*
X171590Y200546D01*
X171435Y200302D01*
X171301Y200080D01*
X171213Y199924D01*
X171168Y199813D01*
X171146Y199769D01*
X171035Y199436D01*
X170946Y199125D01*
X170880Y198837D01*
X170835Y198570D01*
X170813Y198348D01*
X170791Y198171D01*
Y198060D01*
Y198015D01*
X170813Y197638D01*
X170857Y197305D01*
X170902Y197016D01*
X170991Y196750D01*
X171057Y196528D01*
X171102Y196373D01*
X171146Y196284D01*
X171168Y196239D01*
X171324Y195973D01*
X171501Y195729D01*
X171679Y195507D01*
X171834Y195329D01*
X171990Y195174D01*
X172101Y195040D01*
X172189Y194974D01*
X172212Y194952D01*
X172722Y194574D01*
X172966Y194397D01*
X173188Y194263D01*
X173388Y194130D01*
X173543Y194042D01*
X173632Y193997D01*
X173677Y193975D01*
X174276Y193686D01*
X174565Y193553D01*
X174809Y193442D01*
X175031Y193353D01*
X175208Y193287D01*
X175297Y193242D01*
X175342Y193220D01*
X175963Y192976D01*
X176230Y192865D01*
X176496Y192754D01*
X176696Y192687D01*
X176873Y192621D01*
X176962Y192576D01*
X177007Y192554D01*
X177295Y192421D01*
X177584Y192310D01*
X177828Y192177D01*
X178050Y192066D01*
X178228Y191977D01*
X178361Y191888D01*
X178450Y191844D01*
X178472Y191821D01*
X178694Y191666D01*
X178916Y191533D01*
X179093Y191378D01*
X179227Y191244D01*
X179360Y191111D01*
X179449Y191022D01*
X179493Y190956D01*
X179515Y190934D01*
X179648Y190734D01*
X179737Y190534D01*
X179826Y190334D01*
X179870Y190157D01*
X179893Y189979D01*
X179915Y189846D01*
Y189757D01*
Y189735D01*
Y189491D01*
X179870Y189291D01*
X179848Y189091D01*
X179804Y188913D01*
X179759Y188780D01*
X179715Y188669D01*
X179693Y188603D01*
X179671Y188580D01*
X179560Y188403D01*
X179449Y188225D01*
X179315Y188092D01*
X179204Y187959D01*
X179093Y187848D01*
X179005Y187781D01*
X178938Y187737D01*
X178916Y187715D01*
X178716Y187581D01*
X178494Y187493D01*
X178272Y187382D01*
X178050Y187315D01*
X177873Y187248D01*
X177717Y187226D01*
X177628Y187182D01*
X177584D01*
X177273Y187115D01*
X176940Y187071D01*
X176629Y187049D01*
X176318Y187026D01*
X176052Y187004D01*
X175075D01*
X174543Y187026D01*
X174054Y187071D01*
X173632Y187115D01*
X173299Y187137D01*
X173144Y187160D01*
X173033Y187182D01*
X172944D01*
X172878Y187204D01*
X172811D01*
X172367Y187293D01*
X171945Y187382D01*
X171546Y187493D01*
X171235Y187581D01*
X170946Y187670D01*
X170746Y187737D01*
X170613Y187781D01*
X170591Y187803D01*
X170569D01*
Y185517D01*
X170924Y185428D01*
X171235Y185339D01*
X171368Y185317D01*
X171479Y185295D01*
X171546Y185273D01*
X171568D01*
X171990Y185206D01*
X172189Y185184D01*
X172367Y185162D01*
X172545Y185140D01*
X172656D01*
X172744Y185117D01*
X172767D01*
X173255Y185051D01*
X173477Y185028D01*
X173677D01*
X173854Y185006D01*
X173988Y184984D01*
X174098D01*
X174609Y184940D01*
X174831D01*
X175053Y184918D01*
X175475D01*
X176030Y184940D01*
X176563Y184962D01*
X177029Y185006D01*
X177451Y185073D01*
X177784Y185117D01*
X177939Y185140D01*
X178050Y185162D01*
X178139Y185184D01*
X178206D01*
X178250Y185206D01*
X178272D01*
X178738Y185339D01*
X179160Y185495D01*
X179537Y185628D01*
X179848Y185783D01*
X180115Y185916D01*
X180314Y186027D01*
X180425Y186116D01*
X180470Y186138D01*
X180803Y186383D01*
X181069Y186649D01*
X181313Y186893D01*
X181513Y187160D01*
X181691Y187359D01*
X181802Y187537D01*
X181868Y187648D01*
X181891Y187692D01*
X182068Y188048D01*
X182179Y188425D01*
X182268Y188780D01*
X182335Y189135D01*
X182379Y189424D01*
X182401Y189668D01*
Y189868D01*
X182379Y190245D01*
X182335Y190601D01*
X182268Y190889D01*
X182201Y191155D01*
X182135Y191378D01*
X182068Y191533D01*
X182024Y191622D01*
X182002Y191666D01*
X181846Y191933D01*
X181669Y192199D01*
X181491Y192421D01*
X181336Y192598D01*
X181180Y192754D01*
X181069Y192887D01*
X180980Y192954D01*
X180958Y192976D01*
X180448Y193375D01*
X180203Y193553D01*
X179981Y193686D01*
X179782Y193820D01*
X179626Y193908D01*
X179537Y193953D01*
X179493Y193975D01*
X178894Y194263D01*
X178605Y194397D01*
X178361Y194508D01*
X178139Y194597D01*
X177983Y194663D01*
X177873Y194708D01*
X177828Y194730D01*
X177206Y194974D01*
X176940Y195107D01*
X176674Y195196D01*
X176474Y195285D01*
X176296Y195351D01*
X176208Y195373D01*
X176163Y195396D01*
X175875Y195529D01*
X175586Y195662D01*
X175342Y195773D01*
X175120Y195884D01*
X174942Y195995D01*
X174809Y196062D01*
X174720Y196106D01*
X174698Y196128D01*
X174476Y196284D01*
X174254Y196439D01*
X174076Y196595D01*
X173943Y196728D01*
X173810Y196861D01*
X173721Y196950D01*
X173677Y197016D01*
X173654Y197038D01*
X173521Y197238D01*
X173433Y197438D01*
X173366Y197660D01*
X173321Y197838D01*
X173299Y198015D01*
X173277Y198148D01*
Y198237D01*
Y198259D01*
X173299Y198459D01*
X173321Y198659D01*
X173433Y199014D01*
X173588Y199325D01*
X173766Y199591D01*
X173921Y199813D01*
X174076Y199947D01*
X174187Y200058D01*
X174232Y200080D01*
X174431Y200191D01*
X174631Y200302D01*
X175098Y200479D01*
X175608Y200590D01*
X176096Y200679D01*
X176541Y200724D01*
X176718Y200746D01*
X176896Y200768D01*
X177229D01*
X177961Y200746D01*
X178294Y200724D01*
X178605Y200701D01*
X178849Y200657D01*
X179049Y200635D01*
X179182Y200613D01*
X179227D01*
X179604Y200546D01*
X179981Y200479D01*
X180337Y200413D01*
X180647Y200324D01*
X180914Y200280D01*
X181114Y200213D01*
X181247Y200191D01*
X181269Y200169D01*
X181291D01*
Y202300D01*
X180958Y202366D01*
X180647Y202433D01*
X180514Y202455D01*
X180403D01*
X180337Y202477D01*
X180314D01*
X179937Y202544D01*
X179759Y202588D01*
X179604Y202610D01*
X179471Y202633D01*
X179360D01*
X179293Y202655D01*
X179271D01*
X178894Y202722D01*
X178716Y202744D01*
X178561Y202766D01*
X178428D01*
X178316Y202788D01*
X178228D01*
X177873Y202810D01*
X177717Y202833D01*
D02*
G37*
G36*
X193545Y202810D02*
X193101D01*
X192458Y202788D01*
X191858Y202722D01*
X191303Y202610D01*
X190837Y202500D01*
X190615Y202433D01*
X190437Y202366D01*
X190282Y202322D01*
X190127Y202278D01*
X190038Y202233D01*
X189949Y202189D01*
X189905Y202167D01*
X189882D01*
X189372Y201900D01*
X188883Y201612D01*
X188462Y201301D01*
X188106Y201012D01*
X187818Y200746D01*
X187596Y200524D01*
X187529Y200435D01*
X187463Y200368D01*
X187440Y200346D01*
X187418Y200324D01*
X187063Y199858D01*
X186752Y199392D01*
X186486Y198903D01*
X186264Y198459D01*
X186086Y198060D01*
X186020Y197882D01*
X185975Y197749D01*
X185931Y197616D01*
X185886Y197527D01*
X185864Y197482D01*
Y197460D01*
X185687Y196816D01*
X185553Y196150D01*
X185465Y195529D01*
X185398Y194930D01*
X185376Y194663D01*
X185354Y194419D01*
Y194197D01*
X185331Y194019D01*
Y193664D01*
X185354Y192887D01*
X185420Y192155D01*
X185509Y191466D01*
X185642Y190823D01*
X185798Y190245D01*
X185953Y189713D01*
X186131Y189224D01*
X186331Y188780D01*
X186508Y188403D01*
X186686Y188070D01*
X186841Y187781D01*
X186996Y187559D01*
X187130Y187382D01*
X187218Y187248D01*
X187285Y187160D01*
X187307Y187137D01*
X187707Y186760D01*
X188129Y186405D01*
X188573Y186116D01*
X189017Y185872D01*
X189505Y185650D01*
X189971Y185473D01*
X190437Y185339D01*
X190881Y185206D01*
X191303Y185117D01*
X191703Y185051D01*
X192058Y185006D01*
X192369Y184984D01*
X192613Y184962D01*
X192813Y184940D01*
X192968D01*
X193812Y184984D01*
X194611Y185073D01*
X195366Y185206D01*
X195699Y185295D01*
X196032Y185384D01*
X196320Y185450D01*
X196587Y185539D01*
X196809Y185606D01*
X197008Y185672D01*
X197164Y185717D01*
X197275Y185761D01*
X197341Y185805D01*
X197364D01*
Y188048D01*
X196653Y187737D01*
X196320Y187604D01*
X196010Y187515D01*
X195765Y187426D01*
X195565Y187359D01*
X195432Y187337D01*
X195410Y187315D01*
X195388D01*
X195011Y187226D01*
X194611Y187182D01*
X194256Y187137D01*
X193923Y187093D01*
X193656D01*
X193434Y187071D01*
X193235D01*
X192746Y187093D01*
X192302Y187137D01*
X191880Y187226D01*
X191503Y187337D01*
X191126Y187470D01*
X190793Y187604D01*
X190504Y187759D01*
X190238Y187937D01*
X189993Y188092D01*
X189794Y188247D01*
X189616Y188381D01*
X189483Y188514D01*
X189372Y188625D01*
X189283Y188714D01*
X189239Y188758D01*
X189216Y188780D01*
X188972Y189113D01*
X188773Y189491D01*
X188595Y189890D01*
X188440Y190312D01*
X188306Y190734D01*
X188195Y191155D01*
X188040Y191977D01*
X187973Y192376D01*
X187929Y192732D01*
X187907Y193043D01*
X187885Y193331D01*
X187862Y193553D01*
Y193731D01*
Y193842D01*
Y193886D01*
X187885Y194485D01*
X187929Y195018D01*
X187973Y195507D01*
X188040Y195928D01*
X188106Y196262D01*
X188129Y196417D01*
X188173Y196528D01*
X188195Y196617D01*
Y196683D01*
X188218Y196728D01*
Y196750D01*
X188373Y197216D01*
X188550Y197616D01*
X188728Y197971D01*
X188883Y198282D01*
X189039Y198548D01*
X189172Y198726D01*
X189261Y198837D01*
X189283Y198881D01*
X189550Y199192D01*
X189838Y199458D01*
X190127Y199702D01*
X190393Y199902D01*
X190615Y200035D01*
X190815Y200146D01*
X190926Y200213D01*
X190970Y200235D01*
X191348Y200391D01*
X191747Y200502D01*
X192102Y200590D01*
X192458Y200635D01*
X192746Y200679D01*
X192990Y200701D01*
X193190D01*
X193634Y200679D01*
X194034Y200657D01*
X194411Y200613D01*
X194744Y200568D01*
X195011Y200502D01*
X195210Y200457D01*
X195344Y200435D01*
X195388Y200413D01*
X195765Y200302D01*
X196120Y200191D01*
X196453Y200058D01*
X196764Y199924D01*
X197008Y199813D01*
X197208Y199725D01*
X197319Y199658D01*
X197364Y199636D01*
Y201967D01*
X196631Y202233D01*
X196298Y202344D01*
X195987Y202433D01*
X195721Y202500D01*
X195521Y202544D01*
X195388Y202588D01*
X195344D01*
X194567Y202722D01*
X194189Y202766D01*
X193834Y202788D01*
X193545Y202810D01*
D02*
G37*
G36*
X166684Y202588D02*
X156783D01*
Y185162D01*
X166684D01*
Y187182D01*
X159158D01*
Y193198D01*
X166373D01*
Y195196D01*
X159158D01*
Y200590D01*
X166684D01*
Y202588D01*
D02*
G37*
%LPD*%
D10*
X92445Y170855D02*
G03*
X92445Y170855I-1000J0D01*
G01*
D02*
G03*
X92445Y170855I-1000J0D01*
G01*
X102000Y331000D02*
X110000D01*
X102000Y371000D02*
X110000D01*
X132680Y56130D02*
X140300D01*
X132680Y26920D02*
Y56130D01*
X145140Y6600D02*
X190620D01*
X203320Y26920D02*
Y56130D01*
X195700D02*
X203320D01*
X156870Y284700D02*
Y292320D01*
X186080D01*
X206400Y234140D02*
Y279620D01*
X156870Y221680D02*
X186080D01*
X156870D02*
Y229300D01*
D11*
X77600Y311000D02*
G03*
X77600Y311000I-600J0D01*
G01*
X135570Y303920D02*
Y305190D01*
Y303920D02*
X158430D01*
Y305190D01*
Y312810D02*
Y314080D01*
X135570D02*
X158430D01*
X135570Y312810D02*
Y314080D01*
X147000Y303920D02*
Y314080D01*
X28430Y208810D02*
Y210080D01*
X5570D02*
X28430D01*
X5570Y208810D02*
Y210080D01*
Y199920D02*
Y201190D01*
Y199920D02*
X28430D01*
Y201190D01*
X17000Y199920D02*
Y210080D01*
X18000Y196500D02*
Y200000D01*
Y186000D02*
Y189500D01*
X31970Y195540D02*
X33240D01*
Y200000D01*
X31970D02*
X33240D01*
X31970Y190460D02*
X33240D01*
Y186000D02*
Y190460D01*
X31970Y186000D02*
X33240D01*
X2760Y198080D02*
Y200000D01*
X33000D01*
X31970Y195540D02*
Y200000D01*
Y186000D02*
Y190460D01*
X2760Y186000D02*
X33000D01*
X2760D02*
Y187920D01*
X146000Y314000D02*
Y317500D01*
Y324500D02*
Y328000D01*
X130760Y318460D02*
X132030D01*
X130760Y314000D02*
Y318460D01*
Y314000D02*
X132030D01*
X130760Y323540D02*
X132030D01*
X130760D02*
Y328000D01*
X132030D01*
X161240Y314000D02*
Y315920D01*
X131000Y314000D02*
X161240D01*
X132030D02*
Y318460D01*
Y323540D02*
Y328000D01*
X131000D02*
X161240D01*
Y326080D02*
Y328000D01*
X18000Y328000D02*
Y330000D01*
X38000D01*
Y328000D02*
Y330000D01*
Y320000D02*
Y322000D01*
X18000Y320000D02*
X38000D01*
X18000D02*
Y322000D01*
X143000Y286000D02*
X145000D01*
Y306000D01*
X143000D02*
X145000D01*
X135000D02*
X137000D01*
X135000Y286000D02*
Y306000D01*
Y286000D02*
X137000D01*
X135430Y294810D02*
Y296080D01*
X112570D02*
X135430D01*
X112570Y294810D02*
Y296080D01*
Y285920D02*
Y287190D01*
Y285920D02*
X135430D01*
Y287190D01*
X124000Y285920D02*
Y296080D01*
X133810Y295570D02*
X135080D01*
Y318430D01*
X133810D02*
X135080D01*
X124920D02*
X126190D01*
X124920Y295570D02*
Y318430D01*
Y295570D02*
X126190D01*
X124920Y307000D02*
X135080D01*
X118536Y269393D02*
X119950Y270808D01*
X104393Y283535D02*
X118536Y269393D01*
X104393Y283535D02*
X105808Y284950D01*
X110050Y289192D02*
X111465Y290607D01*
X125607Y276464D01*
X124192Y275050D02*
X125607Y276464D01*
X112393Y196465D02*
X113808Y195050D01*
X112393Y196465D02*
X126536Y210607D01*
X127950Y209192D01*
X132192Y204950D02*
X133607Y203535D01*
X119465Y189393D02*
X133607Y203535D01*
X118050Y190808D02*
X119465Y189393D01*
X103000Y316000D02*
Y318000D01*
Y316000D02*
X123000D01*
Y318000D01*
Y324000D02*
Y326000D01*
X103000D02*
X123000D01*
X103000Y324000D02*
Y326000D01*
X77000Y304000D02*
Y306000D01*
Y304000D02*
X97000D01*
Y306000D01*
Y312000D02*
Y314000D01*
X77000D02*
X97000D01*
X77000Y312000D02*
Y314000D01*
X24000Y278750D02*
Y311250D01*
X47750Y307500D02*
Y311250D01*
X250D02*
X47750D01*
X250Y307500D02*
Y311250D01*
Y278750D02*
Y282500D01*
Y278750D02*
X47750D01*
Y282500D01*
X160570Y300920D02*
Y302190D01*
Y300920D02*
X183430D01*
Y302190D01*
Y309810D02*
Y311080D01*
X160570D02*
X183430D01*
X160570Y309810D02*
Y311080D01*
X172000Y300920D02*
Y311080D01*
X52570Y297920D02*
Y299190D01*
Y297920D02*
X75430D01*
Y299190D01*
Y306810D02*
Y308080D01*
X52570D02*
X75430D01*
X52570Y306810D02*
Y308080D01*
X64000Y297920D02*
Y308080D01*
X101430Y322810D02*
Y324080D01*
X78570D02*
X101430D01*
X78570Y322810D02*
Y324080D01*
Y313920D02*
Y315190D01*
Y313920D02*
X101430D01*
Y315190D01*
X90000Y313920D02*
Y324080D01*
X101570Y305920D02*
Y307190D01*
Y305920D02*
X124430D01*
Y307190D01*
Y314810D02*
Y316080D01*
X101570D02*
X124430D01*
X101570Y314810D02*
Y316080D01*
X113000Y305920D02*
Y316080D01*
X124430Y304810D02*
Y306080D01*
X101570D02*
X124430D01*
X101570Y304810D02*
Y306080D01*
Y295920D02*
Y297190D01*
Y295920D02*
X124430D01*
Y297190D01*
X113000Y295920D02*
Y306080D01*
X154750Y100000D02*
X187250D01*
X183500Y76250D02*
X187250D01*
Y123750D01*
X183500D02*
X187250D01*
X154750D02*
X158500D01*
X154750Y76250D02*
Y123750D01*
Y76250D02*
X158500D01*
X5750Y144000D02*
X38250D01*
X5750Y167750D02*
X9500D01*
X5750Y120250D02*
Y167750D01*
Y120250D02*
X9500D01*
X34500D02*
X38250D01*
Y167750D01*
X34500D02*
X38250D01*
X121750Y100000D02*
X154250D01*
X150500Y76250D02*
X154250D01*
Y123750D01*
X150500D02*
X154250D01*
X121750D02*
X125500D01*
X121750Y76250D02*
Y123750D01*
Y76250D02*
X125500D01*
X87750Y144000D02*
X120250D01*
X87750Y167750D02*
X91500D01*
X87750Y120250D02*
Y167750D01*
Y120250D02*
X91500D01*
X116500D02*
X120250D01*
Y167750D01*
X116500D02*
X120250D01*
X46750Y144000D02*
X79250D01*
X46750Y167750D02*
X50500D01*
X46750Y120250D02*
Y167750D01*
Y120250D02*
X50500D01*
X75500D02*
X79250D01*
Y167750D01*
X75500D02*
X79250D01*
X137920Y139000D02*
X148080D01*
X146810Y150430D02*
X148080D01*
Y127570D02*
Y150430D01*
X146810Y127570D02*
X148080D01*
X137920D02*
X139190D01*
X137920D02*
Y150430D01*
X139190D01*
X136000Y150920D02*
Y161080D01*
X124570Y159810D02*
Y161080D01*
X147430D01*
Y159810D02*
Y161080D01*
Y150920D02*
Y152190D01*
X124570Y150920D02*
X147430D01*
X124570D02*
Y152190D01*
X140490Y210674D02*
X141388Y209776D01*
X124326Y194510D02*
X140490Y210674D01*
X124326Y194510D02*
X125224Y193612D01*
X130612Y188224D02*
X131510Y187326D01*
X147674Y203490D01*
X146776Y204388D02*
X147674Y203490D01*
X132408Y202592D02*
X139592Y195408D01*
X141000Y212000D02*
Y214000D01*
Y212000D02*
X161000Y212000D01*
Y214000D01*
Y220000D02*
Y222000D01*
X141000Y222000D02*
X161000Y222000D01*
X141000Y220000D02*
Y222000D01*
X29149Y200412D02*
X30563Y201827D01*
X29149Y200412D02*
X43291Y186270D01*
X44705Y187684D01*
X48948Y191927D02*
X50362Y193341D01*
X36220Y207484D02*
X50362Y193341D01*
X34806Y206069D02*
X36220Y207484D01*
X20000Y269000D02*
Y271000D01*
Y269000D02*
X40000Y269000D01*
Y271000D01*
Y277000D02*
Y279000D01*
X20000Y279000D02*
X40000Y279000D01*
X20000Y277000D02*
Y279000D01*
X125669Y262284D02*
X127084Y263699D01*
X125669Y262284D02*
X139811Y248142D01*
X141226Y249556D01*
X145468Y253799D02*
X146882Y255213D01*
X132740Y269355D02*
X146882Y255213D01*
X131326Y267941D02*
X132740Y269355D01*
X157920Y150430D02*
X159190D01*
X157920Y127570D02*
Y150430D01*
Y127570D02*
X159190D01*
X166810D02*
X168080D01*
Y150430D01*
X166810D02*
X168080D01*
X157920Y139000D02*
X168080D01*
X146570Y150920D02*
Y152190D01*
Y150920D02*
X169430D01*
Y152190D01*
Y159810D02*
Y161080D01*
X146570D02*
X169430D01*
X146570Y159810D02*
Y161080D01*
X158000Y150920D02*
Y161080D01*
X177920Y150430D02*
X179190D01*
X177920Y127570D02*
Y150430D01*
Y127570D02*
X179190D01*
X186810D02*
X188080D01*
Y150430D01*
X186810D02*
X188080D01*
X177920Y139000D02*
X188080D01*
X191430Y159810D02*
Y161080D01*
X168570D02*
X191430D01*
X168570Y159810D02*
Y161080D01*
Y150920D02*
Y152190D01*
Y150920D02*
X191430D01*
Y152190D01*
X180000Y150920D02*
Y161080D01*
X136810Y127570D02*
X138080D01*
Y150430D01*
X136810D02*
X138080D01*
X127920D02*
X129190D01*
X127920Y127570D02*
Y150430D01*
Y127570D02*
X129190D01*
X127920Y139000D02*
X138080D01*
X156810Y127570D02*
X158080D01*
Y150430D01*
X156810D02*
X158080D01*
X147920D02*
X149190D01*
X147920Y127570D02*
Y150430D01*
Y127570D02*
X149190D01*
X147920Y139000D02*
X158080D01*
X176810Y127570D02*
X178080D01*
Y150430D01*
X176810D02*
X178080D01*
X167920D02*
X169190D01*
X167920Y127570D02*
Y150430D01*
Y127570D02*
X169190D01*
X167920Y139000D02*
X178080D01*
X163500Y172165D02*
X165833Y167500D01*
X168165Y172165D01*
X170498Y173331D02*
X171664Y174498D01*
X173997D01*
X175163Y173331D01*
Y172165D01*
X173997Y170999D01*
X172830D01*
X173997D01*
X175163Y169833D01*
Y168666D01*
X173997Y167500D01*
X171664D01*
X170498Y168666D01*
X177495Y167500D02*
Y168666D01*
X178662D01*
Y167500D01*
X177495D01*
X183327Y173331D02*
X184493Y174498D01*
X186826D01*
X187992Y173331D01*
Y168666D01*
X186826Y167500D01*
X184493D01*
X183327Y168666D01*
Y173331D01*
D12*
X16250Y190500D02*
X19750Y193000D01*
X16250Y190500D02*
Y193000D01*
X19750Y190750D02*
Y193000D01*
Y195250D01*
X16250Y193000D02*
Y195500D01*
X19750Y193000D01*
X144250Y321000D02*
X147750Y323500D01*
Y321000D02*
Y323500D01*
X144250Y321000D02*
Y323250D01*
Y318750D02*
Y321000D01*
X147750Y318500D02*
Y321000D01*
X144250D02*
X147750Y318500D01*
D13*
X79106Y172588D02*
X81228Y174709D01*
X140625Y234106D02*
X142746Y236227D01*
X15467D02*
X17588Y238349D01*
X76985Y297746D02*
X79106Y299867D01*
X76985Y174709D02*
X79106Y172588D01*
X140625Y238349D02*
X142746Y236227D01*
X15467D02*
X17588Y234106D01*
X79106Y299867D02*
X81228Y297746D01*
X6250Y84950D02*
Y93700D01*
Y107700D02*
Y116450D01*
X37750Y107700D02*
Y116450D01*
Y84950D02*
Y93700D01*
X70000Y73750D02*
X78750D01*
X47250D02*
X56000D01*
X47250Y42250D02*
X56000D01*
X70000D02*
X78750D01*
X29000Y73750D02*
X37750D01*
X6250D02*
X15000D01*
X6250Y42250D02*
X15000D01*
X29000D02*
X37750D01*
X78750Y84950D02*
Y93700D01*
Y107700D02*
Y116450D01*
X47250Y107700D02*
Y116450D01*
Y84950D02*
Y93700D01*
X119750Y84950D02*
Y93700D01*
Y107700D02*
Y116450D01*
X88250Y107700D02*
Y116450D01*
Y84950D02*
Y93700D01*
X111000Y73750D02*
X119750D01*
X88250D02*
X97000D01*
X88250Y42250D02*
X97000D01*
X111000D02*
X119750D01*
D14*
X186253Y69719D02*
X185086Y70885D01*
X182754D01*
X181588Y69719D01*
Y65054D01*
X182754Y63888D01*
X185086D01*
X186253Y65054D01*
Y67386D01*
X183920D01*
X194802Y325200D02*
Y329865D01*
Y327533D01*
X201800D01*
X194802Y332198D02*
X201800Y336863D01*
X194802D02*
X201800Y332198D01*
X183800Y325200D02*
X176802D01*
Y328699D01*
X177969Y329865D01*
X180301D01*
X181467Y328699D01*
Y325200D01*
Y327533D02*
X183800Y329865D01*
X176802Y332198D02*
X183800Y336863D01*
X176802D02*
X183800Y332198D01*
X160968Y334865D02*
X159802Y333699D01*
Y331366D01*
X160968Y330200D01*
X165634D01*
X166800Y331366D01*
Y333699D01*
X165634Y334865D01*
X163301D01*
Y332533D01*
D15*
X53540Y334540D02*
X61871D01*
X13540Y334705D02*
X21871D01*
X17705Y338871D02*
Y330540D01*
M02*
