G04*
G04 #@! TF.GenerationSoftware,Altium Limited,Altium Designer,25.0.2 (28)*
G04*
G04 Layer_Color=16711935*
%FSLAX44Y44*%
%MOMM*%
G71*
G04*
G04 #@! TF.SameCoordinates,503A90CA-BBE8-423F-B6A3-9968D9645D90*
G04*
G04*
G04 #@! TF.FilePolarity,Negative*
G04*
G01*
G75*
G04:AMPARAMS|DCode=43|XSize=1.7032mm|YSize=1.2032mm|CornerRadius=0.3516mm|HoleSize=0mm|Usage=FLASHONLY|Rotation=0.000|XOffset=0mm|YOffset=0mm|HoleType=Round|Shape=RoundedRectangle|*
%AMROUNDEDRECTD43*
21,1,1.7032,0.5000,0,0,0.0*
21,1,1.0000,1.2032,0,0,0.0*
1,1,0.7032,0.5000,-0.2500*
1,1,0.7032,-0.5000,-0.2500*
1,1,0.7032,-0.5000,0.2500*
1,1,0.7032,0.5000,0.2500*
%
%ADD43ROUNDEDRECTD43*%
%ADD44R,0.8032X0.9532*%
%ADD45R,0.9532X0.8032*%
%ADD46R,0.8432X0.8032*%
%ADD49R,0.8032X0.8432*%
%ADD50R,3.2032X3.2032*%
G04:AMPARAMS|DCode=52|XSize=1.4532mm|YSize=3.2032mm|CornerRadius=0.4141mm|HoleSize=0mm|Usage=FLASHONLY|Rotation=0.000|XOffset=0mm|YOffset=0mm|HoleType=Round|Shape=RoundedRectangle|*
%AMROUNDEDRECTD52*
21,1,1.4532,2.3750,0,0,0.0*
21,1,0.6250,3.2032,0,0,0.0*
1,1,0.8282,0.3125,-1.1875*
1,1,0.8282,-0.3125,-1.1875*
1,1,0.8282,-0.3125,1.1875*
1,1,0.8282,0.3125,1.1875*
%
%ADD52ROUNDEDRECTD52*%
%ADD57R,1.5032X2.9032*%
%ADD63R,0.5432X1.0032*%
%ADD64R,0.6232X0.8632*%
%ADD65R,2.9032X1.5032*%
%ADD105R,1.4032X1.8532*%
%ADD106R,1.8532X1.4032*%
%ADD107R,1.6032X1.5032*%
%ADD108R,1.5032X1.6032*%
%ADD109R,1.9532X1.4032*%
%ADD110R,1.6032X1.5032*%
%ADD111R,1.2032X0.9032*%
%ADD112R,1.1032X1.2032*%
%ADD113R,0.6032X0.9032*%
%ADD114R,0.5532X1.0532*%
%ADD115R,0.9032X0.6032*%
G04:AMPARAMS|DCode=116|XSize=1.0432mm|YSize=0.4632mm|CornerRadius=0.1341mm|HoleSize=0mm|Usage=FLASHONLY|Rotation=180.000|XOffset=0mm|YOffset=0mm|HoleType=Round|Shape=RoundedRectangle|*
%AMROUNDEDRECTD116*
21,1,1.0432,0.1950,0,0,180.0*
21,1,0.7750,0.4632,0,0,180.0*
1,1,0.2682,-0.3875,0.0975*
1,1,0.2682,0.3875,0.0975*
1,1,0.2682,0.3875,-0.0975*
1,1,0.2682,-0.3875,-0.0975*
%
%ADD116ROUNDEDRECTD116*%
G04:AMPARAMS|DCode=117|XSize=1.0432mm|YSize=0.4632mm|CornerRadius=0.1341mm|HoleSize=0mm|Usage=FLASHONLY|Rotation=90.000|XOffset=0mm|YOffset=0mm|HoleType=Round|Shape=RoundedRectangle|*
%AMROUNDEDRECTD117*
21,1,1.0432,0.1950,0,0,90.0*
21,1,0.7750,0.4632,0,0,90.0*
1,1,0.2682,0.0975,0.3875*
1,1,0.2682,0.0975,-0.3875*
1,1,0.2682,-0.0975,-0.3875*
1,1,0.2682,-0.0975,0.3875*
%
%ADD117ROUNDEDRECTD117*%
G04:AMPARAMS|DCode=118|XSize=0.7032mm|YSize=0.4532mm|CornerRadius=0.1329mm|HoleSize=0mm|Usage=FLASHONLY|Rotation=270.000|XOffset=0mm|YOffset=0mm|HoleType=Round|Shape=RoundedRectangle|*
%AMROUNDEDRECTD118*
21,1,0.7032,0.1875,0,0,270.0*
21,1,0.4375,0.4532,0,0,270.0*
1,1,0.2657,-0.0938,-0.2188*
1,1,0.2657,-0.0938,0.2188*
1,1,0.2657,0.0938,0.2188*
1,1,0.2657,0.0938,-0.2188*
%
%ADD118ROUNDEDRECTD118*%
%ADD119P,0.8627X4X180.0*%
G04:AMPARAMS|DCode=120|XSize=0.7032mm|YSize=0.4532mm|CornerRadius=0.1329mm|HoleSize=0mm|Usage=FLASHONLY|Rotation=180.000|XOffset=0mm|YOffset=0mm|HoleType=Round|Shape=RoundedRectangle|*
%AMROUNDEDRECTD120*
21,1,0.7032,0.1875,0,0,180.0*
21,1,0.4375,0.4532,0,0,180.0*
1,1,0.2657,-0.2188,0.0938*
1,1,0.2657,0.2188,0.0938*
1,1,0.2657,0.2188,-0.0938*
1,1,0.2657,-0.2188,-0.0938*
%
%ADD120ROUNDEDRECTD120*%
G04:AMPARAMS|DCode=121|XSize=1.1032mm|YSize=1.8032mm|CornerRadius=0.1241mm|HoleSize=0mm|Usage=FLASHONLY|Rotation=180.000|XOffset=0mm|YOffset=0mm|HoleType=Round|Shape=RoundedRectangle|*
%AMROUNDEDRECTD121*
21,1,1.1032,1.5550,0,0,180.0*
21,1,0.8550,1.8032,0,0,180.0*
1,1,0.2482,-0.4275,0.7775*
1,1,0.2482,0.4275,0.7775*
1,1,0.2482,0.4275,-0.7775*
1,1,0.2482,-0.4275,-0.7775*
%
%ADD121ROUNDEDRECTD121*%
G04:AMPARAMS|DCode=122|XSize=1.1032mm|YSize=1.8032mm|CornerRadius=0.1241mm|HoleSize=0mm|Usage=FLASHONLY|Rotation=270.000|XOffset=0mm|YOffset=0mm|HoleType=Round|Shape=RoundedRectangle|*
%AMROUNDEDRECTD122*
21,1,1.1032,1.5550,0,0,270.0*
21,1,0.8550,1.8032,0,0,270.0*
1,1,0.2482,-0.7775,-0.4275*
1,1,0.2482,-0.7775,0.4275*
1,1,0.2482,0.7775,0.4275*
1,1,0.2482,0.7775,-0.4275*
%
%ADD122ROUNDEDRECTD122*%
G36*
X106983Y364010D02*
X107114Y363983D01*
X107240Y363941D01*
X107359Y363882D01*
X107470Y363808D01*
X107570Y363720D01*
X107658Y363620D01*
X107732Y363509D01*
X107791Y363390D01*
X107833Y363264D01*
X107859Y363133D01*
X107868Y363000D01*
Y348518D01*
X112300D01*
X112433Y348509D01*
X112563Y348484D01*
X112690Y348441D01*
X112809Y348382D01*
X112920Y348308D01*
X113020Y348220D01*
X113108Y348120D01*
X113182Y348009D01*
X113241Y347890D01*
X113284Y347763D01*
X113309Y347633D01*
X113318Y347500D01*
Y341800D01*
X113309Y341667D01*
X113284Y341536D01*
X113241Y341410D01*
X113182Y341291D01*
X113108Y341180D01*
X113020Y341080D01*
X112920Y340992D01*
X112809Y340918D01*
X112690Y340859D01*
X112563Y340816D01*
X112433Y340790D01*
X112300Y340782D01*
X107868D01*
Y340000D01*
X107859Y339867D01*
X107833Y339737D01*
X107791Y339610D01*
X107732Y339491D01*
X107658Y339380D01*
X107570Y339280D01*
X107470Y339192D01*
X107359Y339118D01*
X107240Y339059D01*
X107114Y339016D01*
X106983Y338991D01*
X106850Y338982D01*
X83150D01*
X83017Y338991D01*
X82886Y339016D01*
X82760Y339059D01*
X82641Y339118D01*
X82530Y339192D01*
X82430Y339280D01*
X82342Y339380D01*
X82268Y339491D01*
X82209Y339610D01*
X82167Y339737D01*
X82141Y339867D01*
X82132Y340000D01*
Y340782D01*
X77700D01*
X77567Y340790D01*
X77436Y340816D01*
X77310Y340859D01*
X77191Y340918D01*
X77080Y340992D01*
X76980Y341080D01*
X76892Y341180D01*
X76818Y341291D01*
X76759Y341410D01*
X76716Y341536D01*
X76691Y341667D01*
X76682Y341800D01*
Y347500D01*
X76691Y347633D01*
X76716Y347763D01*
X76759Y347890D01*
X76818Y348009D01*
X76892Y348120D01*
X76980Y348220D01*
X77080Y348308D01*
X77191Y348382D01*
X77310Y348441D01*
X77436Y348484D01*
X77567Y348509D01*
X77700Y348518D01*
X82132D01*
Y363000D01*
X82141Y363133D01*
X82167Y363264D01*
X82209Y363390D01*
X82268Y363509D01*
X82342Y363620D01*
X82430Y363720D01*
X82530Y363808D01*
X82641Y363882D01*
X82760Y363941D01*
X82886Y363983D01*
X83017Y364010D01*
X83150Y364018D01*
X87350D01*
X87483Y364010D01*
X87613Y363983D01*
X87740Y363941D01*
X87859Y363882D01*
X87970Y363808D01*
X88070Y363720D01*
X88158Y363620D01*
X88232Y363509D01*
X88291Y363390D01*
X88334Y363264D01*
X88359Y363133D01*
X88368Y363000D01*
Y359318D01*
X88632D01*
Y363000D01*
X88640Y363133D01*
X88666Y363264D01*
X88709Y363390D01*
X88768Y363509D01*
X88842Y363620D01*
X88930Y363720D01*
X89030Y363808D01*
X89141Y363882D01*
X89260Y363941D01*
X89387Y363983D01*
X89517Y364010D01*
X89650Y364018D01*
X93850D01*
X93983Y364010D01*
X94114Y363983D01*
X94240Y363941D01*
X94359Y363882D01*
X94470Y363808D01*
X94570Y363720D01*
X94658Y363620D01*
X94732Y363509D01*
X94791Y363390D01*
X94833Y363264D01*
X94859Y363133D01*
X94868Y363000D01*
Y359318D01*
X95132D01*
Y363000D01*
X95140Y363133D01*
X95167Y363264D01*
X95209Y363390D01*
X95268Y363509D01*
X95342Y363620D01*
X95430Y363720D01*
X95530Y363808D01*
X95641Y363882D01*
X95760Y363941D01*
X95886Y363983D01*
X96017Y364010D01*
X96150Y364018D01*
X100350D01*
X100483Y364010D01*
X100613Y363983D01*
X100740Y363941D01*
X100859Y363882D01*
X100970Y363808D01*
X101070Y363720D01*
X101158Y363620D01*
X101232Y363509D01*
X101291Y363390D01*
X101334Y363264D01*
X101360Y363133D01*
X101368Y363000D01*
Y359318D01*
X101632D01*
Y363000D01*
X101641Y363133D01*
X101666Y363264D01*
X101709Y363390D01*
X101768Y363509D01*
X101842Y363620D01*
X101930Y363720D01*
X102030Y363808D01*
X102141Y363882D01*
X102260Y363941D01*
X102387Y363983D01*
X102517Y364010D01*
X102650Y364018D01*
X106850D01*
X106983Y364010D01*
D02*
G37*
G36*
X157402Y230744D02*
X157501Y230720D01*
X157596Y230681D01*
X157683Y230627D01*
X157761Y230561D01*
X157828Y230483D01*
X157881Y230396D01*
X157920Y230301D01*
X157944Y230202D01*
X157952Y230100D01*
Y226500D01*
X157944Y226398D01*
X157920Y226299D01*
X157881Y226204D01*
X157828Y226117D01*
X157761Y226039D01*
X157683Y225972D01*
X157596Y225919D01*
X157501Y225880D01*
X157402Y225856D01*
X157300Y225848D01*
X157000D01*
X156934Y225853D01*
X156899Y225856D01*
X156898Y225856D01*
X156898Y225856D01*
X156845Y225869D01*
X156799Y225880D01*
X156799Y225880D01*
X156798Y225880D01*
X156756Y225897D01*
X156705Y225919D01*
X156704Y225919D01*
X156704Y225919D01*
X156672Y225939D01*
X156617Y225972D01*
X156617Y225972D01*
X156617Y225972D01*
X156594Y225992D01*
X156539Y226038D01*
X154736Y227838D01*
X154735Y227838D01*
X154735Y227839D01*
X154715Y227863D01*
X154669Y227916D01*
X154669Y227916D01*
X154669Y227917D01*
X154653Y227942D01*
X154616Y228003D01*
X154615Y228003D01*
X154615Y228004D01*
X154598Y228047D01*
X154576Y228097D01*
X154576Y228098D01*
X154576Y228098D01*
X154563Y228154D01*
X154552Y228197D01*
X154552Y228197D01*
X154552Y228198D01*
X154547Y228267D01*
X154544Y228299D01*
X154544Y228299D01*
X154544Y228300D01*
Y230100D01*
X154552Y230202D01*
X154576Y230301D01*
X154615Y230396D01*
X154669Y230483D01*
X154735Y230561D01*
X154813Y230627D01*
X154900Y230681D01*
X154995Y230720D01*
X155094Y230744D01*
X155196Y230752D01*
X157300D01*
X157402Y230744D01*
D02*
G37*
G36*
X150906D02*
X151005Y230720D01*
X151100Y230681D01*
X151187Y230627D01*
X151265Y230561D01*
X151331Y230483D01*
X151385Y230396D01*
X151424Y230301D01*
X151448Y230202D01*
X151456Y230100D01*
Y228300D01*
X151456Y228299D01*
X151456Y228299D01*
X151453Y228267D01*
X151448Y228198D01*
X151448Y228197D01*
X151448Y228197D01*
X151437Y228154D01*
X151424Y228098D01*
X151424Y228098D01*
X151424Y228097D01*
X151403Y228047D01*
X151385Y228004D01*
X151385Y228003D01*
X151384Y228003D01*
X151347Y227942D01*
X151331Y227917D01*
X151331Y227916D01*
X151331Y227916D01*
X151285Y227863D01*
X151265Y227839D01*
X151265Y227838D01*
X151264Y227838D01*
X149461Y226038D01*
X149406Y225992D01*
X149383Y225972D01*
X149383Y225972D01*
X149383Y225972D01*
X149328Y225939D01*
X149296Y225919D01*
X149296Y225919D01*
X149295Y225919D01*
X149244Y225897D01*
X149201Y225880D01*
X149201Y225880D01*
X149201Y225880D01*
X149155Y225869D01*
X149102Y225856D01*
X149102Y225856D01*
X149101Y225856D01*
X149066Y225853D01*
X149000Y225848D01*
X148700D01*
X148598Y225856D01*
X148499Y225880D01*
X148404Y225919D01*
X148317Y225972D01*
X148239Y226039D01*
X148173Y226117D01*
X148119Y226204D01*
X148080Y226299D01*
X148056Y226398D01*
X148048Y226500D01*
Y230100D01*
X148056Y230202D01*
X148080Y230301D01*
X148119Y230396D01*
X148173Y230483D01*
X148239Y230561D01*
X148317Y230627D01*
X148404Y230681D01*
X148499Y230720D01*
X148598Y230744D01*
X148700Y230752D01*
X150804D01*
X150906Y230744D01*
D02*
G37*
G36*
X157402Y222144D02*
X157501Y222120D01*
X157596Y222081D01*
X157683Y222027D01*
X157761Y221961D01*
X157828Y221883D01*
X157881Y221796D01*
X157920Y221702D01*
X157944Y221602D01*
X157952Y221500D01*
Y217900D01*
X157944Y217798D01*
X157920Y217698D01*
X157881Y217604D01*
X157828Y217517D01*
X157761Y217439D01*
X157683Y217372D01*
X157596Y217319D01*
X157501Y217280D01*
X157402Y217256D01*
X157300Y217248D01*
X155196D01*
X155094Y217256D01*
X154995Y217280D01*
X154900Y217319D01*
X154813Y217372D01*
X154735Y217439D01*
X154669Y217517D01*
X154615Y217604D01*
X154576Y217698D01*
X154552Y217798D01*
X154544Y217900D01*
Y219700D01*
X154544Y219701D01*
X154544Y219701D01*
X154547Y219733D01*
X154552Y219802D01*
X154552Y219803D01*
X154552Y219803D01*
X154563Y219846D01*
X154576Y219902D01*
X154576Y219902D01*
X154576Y219902D01*
X154598Y219953D01*
X154615Y219996D01*
X154615Y219997D01*
X154616Y219997D01*
X154653Y220058D01*
X154669Y220084D01*
X154669Y220084D01*
X154669Y220084D01*
X154715Y220137D01*
X154735Y220161D01*
X154735Y220161D01*
X154736Y220162D01*
X156539Y221962D01*
X156594Y222008D01*
X156617Y222027D01*
X156617Y222028D01*
X156617Y222028D01*
X156672Y222061D01*
X156704Y222081D01*
X156704Y222081D01*
X156705Y222081D01*
X156756Y222103D01*
X156798Y222120D01*
X156799Y222120D01*
X156799Y222120D01*
X156845Y222131D01*
X156898Y222144D01*
X156898Y222144D01*
X156899Y222144D01*
X156934Y222147D01*
X157000Y222152D01*
X157300D01*
X157402Y222144D01*
D02*
G37*
G36*
X149066Y222147D02*
X149101Y222144D01*
X149102Y222144D01*
X149102Y222144D01*
X149155Y222131D01*
X149201Y222120D01*
X149201Y222120D01*
X149201Y222120D01*
X149244Y222103D01*
X149295Y222081D01*
X149296Y222081D01*
X149296Y222081D01*
X149328Y222061D01*
X149383Y222028D01*
X149383Y222028D01*
X149383Y222027D01*
X149406Y222008D01*
X149461Y221962D01*
X151264Y220162D01*
X151265Y220161D01*
X151265Y220161D01*
X151285Y220137D01*
X151331Y220084D01*
X151331Y220084D01*
X151331Y220084D01*
X151347Y220058D01*
X151384Y219997D01*
X151385Y219997D01*
X151385Y219996D01*
X151403Y219953D01*
X151424Y219902D01*
X151424Y219902D01*
X151424Y219902D01*
X151437Y219846D01*
X151448Y219803D01*
X151448Y219803D01*
X151448Y219802D01*
X151453Y219733D01*
X151456Y219701D01*
X151456Y219701D01*
X151456Y219700D01*
Y217900D01*
X151448Y217798D01*
X151424Y217698D01*
X151385Y217604D01*
X151331Y217517D01*
X151265Y217439D01*
X151187Y217372D01*
X151100Y217319D01*
X151005Y217280D01*
X150906Y217256D01*
X150804Y217248D01*
X148700D01*
X148598Y217256D01*
X148499Y217280D01*
X148404Y217319D01*
X148317Y217372D01*
X148239Y217439D01*
X148173Y217517D01*
X148119Y217604D01*
X148080Y217698D01*
X148056Y217798D01*
X148048Y217900D01*
Y221500D01*
X148056Y221602D01*
X148080Y221702D01*
X148119Y221796D01*
X148173Y221883D01*
X148239Y221961D01*
X148317Y222027D01*
X148404Y222081D01*
X148499Y222120D01*
X148598Y222144D01*
X148700Y222152D01*
X149000D01*
X149066Y222147D01*
D02*
G37*
G36*
X113900Y159300D02*
X110100D01*
Y166700D01*
X113900D01*
Y159300D01*
D02*
G37*
G36*
X108900D02*
X105100D01*
Y166700D01*
X108900D01*
Y159300D01*
D02*
G37*
G36*
X103900D02*
X100100D01*
Y166700D01*
X103900D01*
Y159300D01*
D02*
G37*
G36*
X98900D02*
X95100D01*
Y166700D01*
X98900D01*
Y159300D01*
D02*
G37*
G36*
X93900D02*
X90100D01*
Y166700D01*
X93900D01*
Y159300D01*
D02*
G37*
G36*
X72900D02*
X69100D01*
Y166700D01*
X72900D01*
Y159300D01*
D02*
G37*
G36*
X67900D02*
X64100D01*
Y166700D01*
X67900D01*
Y159300D01*
D02*
G37*
G36*
X62900D02*
X59100D01*
Y166700D01*
X62900D01*
Y159300D01*
D02*
G37*
G36*
X57900D02*
X54100D01*
Y166700D01*
X57900D01*
Y159300D01*
D02*
G37*
G36*
X52900D02*
X49100D01*
Y166700D01*
X52900D01*
Y159300D01*
D02*
G37*
G36*
X31900D02*
X28100D01*
Y166700D01*
X31900D01*
Y159300D01*
D02*
G37*
G36*
X26900D02*
X23100D01*
Y166700D01*
X26900D01*
Y159300D01*
D02*
G37*
G36*
X21900D02*
X18100D01*
Y166700D01*
X21900D01*
Y159300D01*
D02*
G37*
G36*
X16900D02*
X13100D01*
Y166700D01*
X16900D01*
Y159300D01*
D02*
G37*
G36*
X11900D02*
X8100D01*
Y166700D01*
X11900D01*
Y159300D01*
D02*
G37*
G36*
X114700Y153450D02*
X119700D01*
Y149550D01*
X114700D01*
Y148450D01*
X119700D01*
Y144550D01*
X114700D01*
Y140050D01*
X89300D01*
Y144550D01*
X84300D01*
Y148450D01*
X89300D01*
Y149550D01*
X84300D01*
Y153450D01*
X89300D01*
Y157950D01*
X114700D01*
Y153450D01*
D02*
G37*
G36*
X73700D02*
X78700D01*
Y149550D01*
X73700D01*
Y148450D01*
X78700D01*
Y144550D01*
X73700D01*
Y140050D01*
X48300D01*
Y144550D01*
X43300D01*
Y148450D01*
X48300D01*
Y149550D01*
X43300D01*
Y153450D01*
X48300D01*
Y157950D01*
X73700D01*
Y153450D01*
D02*
G37*
G36*
X32700D02*
X37700D01*
Y149550D01*
X32700D01*
Y148450D01*
X37700D01*
Y144550D01*
X32700D01*
Y140050D01*
X7300D01*
Y144550D01*
X2300D01*
Y148450D01*
X7300D01*
Y149550D01*
X2300D01*
Y153450D01*
X7300D01*
Y157950D01*
X32700D01*
Y153450D01*
D02*
G37*
G36*
X113900Y131300D02*
X110100D01*
Y138700D01*
X113900D01*
Y131300D01*
D02*
G37*
G36*
X108900D02*
X105100D01*
Y138700D01*
X108900D01*
Y131300D01*
D02*
G37*
G36*
X103900D02*
X100100D01*
Y138700D01*
X103900D01*
Y131300D01*
D02*
G37*
G36*
X98900D02*
X95100D01*
Y138700D01*
X98900D01*
Y131300D01*
D02*
G37*
G36*
X93900D02*
X90100D01*
Y138700D01*
X93900D01*
Y131300D01*
D02*
G37*
G36*
X72900D02*
X69100D01*
Y138700D01*
X72900D01*
Y131300D01*
D02*
G37*
G36*
X67900D02*
X64100D01*
Y138700D01*
X67900D01*
Y131300D01*
D02*
G37*
G36*
X62900D02*
X59100D01*
Y138700D01*
X62900D01*
Y131300D01*
D02*
G37*
G36*
X57900D02*
X54100D01*
Y138700D01*
X57900D01*
Y131300D01*
D02*
G37*
G36*
X52900D02*
X49100D01*
Y138700D01*
X52900D01*
Y131300D01*
D02*
G37*
G36*
X31900D02*
X28100D01*
Y138700D01*
X31900D01*
Y131300D01*
D02*
G37*
G36*
X26900D02*
X23100D01*
Y138700D01*
X26900D01*
Y131300D01*
D02*
G37*
G36*
X21900D02*
X18100D01*
Y138700D01*
X21900D01*
Y131300D01*
D02*
G37*
G36*
X16900D02*
X13100D01*
Y138700D01*
X16900D01*
Y131300D01*
D02*
G37*
G36*
X11900D02*
X8100D01*
Y138700D01*
X11900D01*
Y131300D01*
D02*
G37*
G36*
X141402Y84744D02*
X141501Y84720D01*
X141596Y84681D01*
X141683Y84628D01*
X141761Y84561D01*
X141827Y84483D01*
X141881Y84396D01*
X141920Y84302D01*
X141944Y84202D01*
X141952Y84100D01*
Y80500D01*
X141944Y80398D01*
X141920Y80299D01*
X141881Y80204D01*
X141827Y80117D01*
X141761Y80039D01*
X141683Y79973D01*
X141596Y79919D01*
X141501Y79880D01*
X141402Y79856D01*
X141300Y79848D01*
X141000D01*
X140934Y79853D01*
X140899Y79856D01*
X140898Y79856D01*
X140898Y79856D01*
X140845Y79869D01*
X140799Y79880D01*
X140799Y79880D01*
X140799Y79880D01*
X140756Y79897D01*
X140705Y79919D01*
X140704Y79919D01*
X140704Y79919D01*
X140672Y79939D01*
X140617Y79972D01*
X140617Y79972D01*
X140617Y79973D01*
X140594Y79992D01*
X140539Y80038D01*
X138736Y81838D01*
X138735Y81839D01*
X138735Y81839D01*
X138715Y81863D01*
X138669Y81916D01*
X138669Y81916D01*
X138669Y81917D01*
X138653Y81942D01*
X138616Y82003D01*
X138615Y82003D01*
X138615Y82004D01*
X138597Y82047D01*
X138576Y82098D01*
X138576Y82098D01*
X138576Y82098D01*
X138563Y82154D01*
X138552Y82197D01*
X138552Y82197D01*
X138552Y82198D01*
X138547Y82267D01*
X138544Y82299D01*
X138544Y82299D01*
X138544Y82300D01*
Y84100D01*
X138552Y84202D01*
X138576Y84302D01*
X138615Y84396D01*
X138669Y84483D01*
X138735Y84561D01*
X138813Y84628D01*
X138900Y84681D01*
X138995Y84720D01*
X139094Y84744D01*
X139196Y84752D01*
X141300D01*
X141402Y84744D01*
D02*
G37*
G36*
X134906D02*
X135005Y84720D01*
X135100Y84681D01*
X135187Y84628D01*
X135265Y84561D01*
X135331Y84483D01*
X135385Y84396D01*
X135424Y84302D01*
X135448Y84202D01*
X135456Y84100D01*
Y82300D01*
X135456Y82299D01*
X135456Y82299D01*
X135453Y82267D01*
X135448Y82198D01*
X135448Y82197D01*
X135448Y82197D01*
X135437Y82154D01*
X135424Y82098D01*
X135424Y82098D01*
X135424Y82098D01*
X135402Y82047D01*
X135385Y82004D01*
X135385Y82003D01*
X135384Y82003D01*
X135347Y81942D01*
X135331Y81917D01*
X135331Y81916D01*
X135331Y81916D01*
X135285Y81863D01*
X135265Y81839D01*
X135265Y81839D01*
X135264Y81838D01*
X133461Y80038D01*
X133406Y79992D01*
X133383Y79973D01*
X133383Y79972D01*
X133383Y79972D01*
X133328Y79939D01*
X133296Y79919D01*
X133296Y79919D01*
X133295Y79919D01*
X133244Y79897D01*
X133202Y79880D01*
X133201Y79880D01*
X133201Y79880D01*
X133155Y79869D01*
X133102Y79856D01*
X133102Y79856D01*
X133101Y79856D01*
X133066Y79853D01*
X133000Y79848D01*
X132700D01*
X132598Y79856D01*
X132499Y79880D01*
X132404Y79919D01*
X132317Y79973D01*
X132239Y80039D01*
X132172Y80117D01*
X132119Y80204D01*
X132080Y80299D01*
X132056Y80398D01*
X132048Y80500D01*
Y84100D01*
X132056Y84202D01*
X132080Y84302D01*
X132119Y84396D01*
X132172Y84483D01*
X132239Y84561D01*
X132317Y84628D01*
X132404Y84681D01*
X132499Y84720D01*
X132598Y84744D01*
X132700Y84752D01*
X134804D01*
X134906Y84744D01*
D02*
G37*
G36*
X141402Y76144D02*
X141501Y76120D01*
X141596Y76081D01*
X141683Y76027D01*
X141761Y75961D01*
X141827Y75883D01*
X141881Y75796D01*
X141920Y75701D01*
X141944Y75602D01*
X141952Y75500D01*
Y71900D01*
X141944Y71798D01*
X141920Y71698D01*
X141881Y71604D01*
X141827Y71517D01*
X141761Y71439D01*
X141683Y71372D01*
X141596Y71319D01*
X141501Y71280D01*
X141402Y71256D01*
X141300Y71248D01*
X139196D01*
X139094Y71256D01*
X138995Y71280D01*
X138900Y71319D01*
X138813Y71372D01*
X138735Y71439D01*
X138669Y71517D01*
X138615Y71604D01*
X138576Y71698D01*
X138552Y71798D01*
X138544Y71900D01*
Y73700D01*
X138544Y73701D01*
X138544Y73701D01*
X138547Y73733D01*
X138552Y73802D01*
X138552Y73803D01*
X138552Y73803D01*
X138563Y73846D01*
X138576Y73902D01*
X138576Y73902D01*
X138576Y73903D01*
X138597Y73953D01*
X138615Y73996D01*
X138615Y73997D01*
X138616Y73997D01*
X138653Y74058D01*
X138669Y74083D01*
X138669Y74084D01*
X138669Y74084D01*
X138715Y74137D01*
X138735Y74161D01*
X138735Y74162D01*
X138736Y74162D01*
X140539Y75962D01*
X140594Y76008D01*
X140617Y76027D01*
X140617Y76028D01*
X140617Y76028D01*
X140672Y76061D01*
X140704Y76081D01*
X140704Y76081D01*
X140705Y76081D01*
X140756Y76103D01*
X140799Y76120D01*
X140799Y76120D01*
X140799Y76120D01*
X140845Y76131D01*
X140898Y76144D01*
X140898Y76144D01*
X140899Y76144D01*
X140934Y76147D01*
X141000Y76152D01*
X141300D01*
X141402Y76144D01*
D02*
G37*
G36*
X133066Y76147D02*
X133101Y76144D01*
X133102Y76144D01*
X133102Y76144D01*
X133155Y76131D01*
X133201Y76120D01*
X133201Y76120D01*
X133202Y76120D01*
X133244Y76103D01*
X133295Y76081D01*
X133296Y76081D01*
X133296Y76081D01*
X133328Y76061D01*
X133383Y76028D01*
X133383Y76028D01*
X133383Y76027D01*
X133406Y76008D01*
X133461Y75962D01*
X135264Y74162D01*
X135265Y74162D01*
X135265Y74161D01*
X135285Y74137D01*
X135331Y74084D01*
X135331Y74084D01*
X135331Y74083D01*
X135347Y74058D01*
X135384Y73997D01*
X135385Y73997D01*
X135385Y73996D01*
X135402Y73953D01*
X135424Y73903D01*
X135424Y73902D01*
X135424Y73902D01*
X135437Y73846D01*
X135448Y73803D01*
X135448Y73803D01*
X135448Y73802D01*
X135453Y73733D01*
X135456Y73701D01*
X135456Y73701D01*
X135456Y73700D01*
Y71900D01*
X135448Y71798D01*
X135424Y71698D01*
X135385Y71604D01*
X135331Y71517D01*
X135265Y71439D01*
X135187Y71372D01*
X135100Y71319D01*
X135005Y71280D01*
X134906Y71256D01*
X134804Y71248D01*
X132700D01*
X132598Y71256D01*
X132499Y71280D01*
X132404Y71319D01*
X132317Y71372D01*
X132239Y71439D01*
X132172Y71517D01*
X132119Y71604D01*
X132080Y71698D01*
X132056Y71798D01*
X132048Y71900D01*
Y75500D01*
X132056Y75602D01*
X132080Y75701D01*
X132119Y75796D01*
X132172Y75883D01*
X132239Y75961D01*
X132317Y76027D01*
X132404Y76081D01*
X132499Y76120D01*
X132598Y76144D01*
X132700Y76152D01*
X133000D01*
X133066Y76147D01*
D02*
G37*
D43*
X199000Y196000D02*
D03*
Y168000D02*
D03*
Y182000D02*
D03*
D44*
X135000Y124750D02*
D03*
Y113250D02*
D03*
X155000Y124750D02*
D03*
Y113250D02*
D03*
X145000Y124750D02*
D03*
Y113250D02*
D03*
X160000Y33750D02*
D03*
Y22250D02*
D03*
X203000Y33750D02*
D03*
Y22250D02*
D03*
X104000Y90250D02*
D03*
Y101750D02*
D03*
X77000Y90250D02*
D03*
Y101750D02*
D03*
X67000Y90250D02*
D03*
Y101750D02*
D03*
X114000Y90250D02*
D03*
Y101750D02*
D03*
X36193Y90290D02*
D03*
Y101790D02*
D03*
X26193Y90290D02*
D03*
Y101790D02*
D03*
D45*
X43750Y222000D02*
D03*
X32250D02*
D03*
X191250Y64000D02*
D03*
X202750D02*
D03*
X158250Y49000D02*
D03*
X169750D02*
D03*
X124750Y318000D02*
D03*
X113250D02*
D03*
X124750Y308000D02*
D03*
X113250D02*
D03*
X192750Y13000D02*
D03*
X181250D02*
D03*
X149750D02*
D03*
X138250D02*
D03*
D46*
X197000Y83400D02*
D03*
Y74600D02*
D03*
X181000Y66400D02*
D03*
Y57600D02*
D03*
X131000Y154600D02*
D03*
Y163400D02*
D03*
X176000Y176400D02*
D03*
Y167600D02*
D03*
Y187600D02*
D03*
Y196400D02*
D03*
X89000Y48600D02*
D03*
X148000Y82400D02*
D03*
Y73600D02*
D03*
X89000Y57400D02*
D03*
X164000Y228400D02*
D03*
Y219600D02*
D03*
X128000Y24600D02*
D03*
Y33400D02*
D03*
X171000Y32400D02*
D03*
Y23600D02*
D03*
X64000Y279400D02*
D03*
Y270600D02*
D03*
D49*
X15400Y90000D02*
D03*
X6600D02*
D03*
X47600D02*
D03*
X56400D02*
D03*
X193600Y265000D02*
D03*
X202400D02*
D03*
X18400Y208000D02*
D03*
X9600D02*
D03*
X40600Y267000D02*
D03*
X49400D02*
D03*
X123400Y298000D02*
D03*
X114600D02*
D03*
X160600Y149000D02*
D03*
X169400D02*
D03*
X138600Y63000D02*
D03*
X147400D02*
D03*
X162600Y249000D02*
D03*
X171400D02*
D03*
X162600Y259000D02*
D03*
X171400D02*
D03*
X178600Y305000D02*
D03*
X187400D02*
D03*
X154600Y209000D02*
D03*
X163400D02*
D03*
X77400Y116000D02*
D03*
X68600D02*
D03*
X77400Y126000D02*
D03*
X68600D02*
D03*
X36400Y116000D02*
D03*
X27600D02*
D03*
X118400D02*
D03*
X109600D02*
D03*
X36400Y126000D02*
D03*
X27600D02*
D03*
X118400D02*
D03*
X109600D02*
D03*
X100400Y76000D02*
D03*
X91600D02*
D03*
D50*
X58000Y358000D02*
D03*
X17000D02*
D03*
X105000Y19000D02*
D03*
X64000D02*
D03*
X23000D02*
D03*
D52*
X199000Y355000D02*
D03*
X181000D02*
D03*
X163000D02*
D03*
D57*
X38000Y302000D02*
D03*
X10000D02*
D03*
D63*
X85250Y358000D02*
D03*
X91750D02*
D03*
X98250D02*
D03*
X104750D02*
D03*
D64*
X91750Y330300D02*
D03*
X98250D02*
D03*
X85250D02*
D03*
X104750D02*
D03*
D65*
X73000Y208000D02*
D03*
Y180000D02*
D03*
X40000Y208000D02*
D03*
Y180000D02*
D03*
X106000Y208000D02*
D03*
Y180000D02*
D03*
X176000Y81000D02*
D03*
Y109000D02*
D03*
D105*
X10000Y329000D02*
D03*
X38000D02*
D03*
D106*
X59000Y74000D02*
D03*
Y46000D02*
D03*
X18000Y74000D02*
D03*
Y46000D02*
D03*
D107*
X123000Y332000D02*
D03*
Y348000D02*
D03*
D108*
X184000Y232000D02*
D03*
X200000D02*
D03*
D109*
X160000Y298750D02*
D03*
Y273250D02*
D03*
D110*
X143000Y360500D02*
D03*
Y331500D02*
D03*
D111*
X179000Y275500D02*
D03*
Y285000D02*
D03*
Y294500D02*
D03*
X201000Y275500D02*
D03*
Y285000D02*
D03*
Y294500D02*
D03*
D112*
X187250Y253000D02*
D03*
X200750D02*
D03*
D113*
X11500Y196000D02*
D03*
X18500D02*
D03*
X140500Y244000D02*
D03*
X133500D02*
D03*
X116500Y236000D02*
D03*
X109500D02*
D03*
X116500Y249000D02*
D03*
X109500D02*
D03*
X116500Y224000D02*
D03*
X109500D02*
D03*
X112500Y268000D02*
D03*
X105500D02*
D03*
D114*
X37500Y256000D02*
D03*
X44000D02*
D03*
X50500D02*
D03*
Y234000D02*
D03*
X37500D02*
D03*
X44000D02*
D03*
X150500Y23000D02*
D03*
X144000D02*
D03*
X137500D02*
D03*
Y45000D02*
D03*
X150500D02*
D03*
X144000D02*
D03*
X193500Y23000D02*
D03*
X187000D02*
D03*
X180500D02*
D03*
Y45000D02*
D03*
X193500D02*
D03*
X187000D02*
D03*
D115*
X124000Y266000D02*
D03*
Y259000D02*
D03*
X122000Y283500D02*
D03*
Y290500D02*
D03*
X135000Y208500D02*
D03*
Y201500D02*
D03*
D116*
X136650Y187500D02*
D03*
Y182500D02*
D03*
Y177500D02*
D03*
Y172500D02*
D03*
X165350D02*
D03*
Y177500D02*
D03*
Y182500D02*
D03*
Y187500D02*
D03*
D117*
X158500Y194350D02*
D03*
X153500D02*
D03*
X148500D02*
D03*
X143500D02*
D03*
Y165650D02*
D03*
X148500D02*
D03*
X153500D02*
D03*
X158500D02*
D03*
D118*
X97500Y43500D02*
D03*
X102500D02*
D03*
X107500D02*
D03*
X112500D02*
D03*
Y62500D02*
D03*
X107500D02*
D03*
X102500D02*
D03*
X97500D02*
D03*
D119*
X137000Y78000D02*
D03*
X153000Y224000D02*
D03*
D120*
X92000Y282000D02*
D03*
Y277000D02*
D03*
Y272000D02*
D03*
Y267000D02*
D03*
X73000D02*
D03*
Y272000D02*
D03*
Y277000D02*
D03*
Y282000D02*
D03*
D121*
X82500Y274500D02*
D03*
D122*
X105000Y53000D02*
D03*
M02*
