M48
;Layer_Color=9474304
;FILE_FORMAT=2:4
INCH,TZ
;TYPE=PLATED
T1F00S00C0.0138
T2F00S00C0.0315
;TYPE=NON_PLATED
T3F00S00C0.0827
T4F00S00C0.1181
%
T01
X551Y-4449
X1181
X1063Y-3780
X1181Y-2411
Y-1762
X1811Y-1220
Y-2598
X3003Y-2835
X3031Y-3228
X2812Y-2053
X3560Y-1102
X0Y-2118
X-990Y-1477
X-1742Y-1811
X-2274
X-1742Y-2441
X-1986Y-3425
X-1969Y-3937
X-2598Y-3425
X-2480Y-787
X-2087Y-827
X-1326Y-527
X-2953Y-433
X-472Y-4567
X-866Y1037
X-1575Y866
X-2085Y1416
X-2480Y2283
X-2476Y2820
X-2874Y3110
X-2323Y3553
X-945Y2205
X-2323Y-39
X-581Y5472
X394Y5354
X1576Y5315
X1850Y4961
X2165Y4646
X2113Y3296
X906Y2244
X0Y3150
Y4134
X175Y952
X984Y207
X1693
X3386Y1890
X5157Y-157
T02
X2465Y-4545
X3125Y-4116
X4885Y1634
X4528Y2335
X4170Y3037
T03
X-4134Y0
X4134
T04
X0Y0
M30
