G04*
G04 #@! TF.GenerationSoftware,Altium Limited,Altium Designer,22.0.2 (36)*
G04*
G04 Layer_Color=32896*
%FSLAX25Y25*%
%MOIN*%
G70*
G04*
G04 #@! TF.SameCoordinates,88A3576D-DDBD-4DCA-BD86-A28AD9FD0996*
G04*
G04*
G04 #@! TF.FilePolarity,Positive*
G04*
G01*
G75*
%ADD10C,0.00500*%
%ADD11C,0.00787*%
%ADD12C,0.00591*%
%ADD13C,0.01000*%
%ADD64C,0.00984*%
%ADD65C,0.00394*%
G36*
X1378Y-46850D02*
Y-44882D01*
X787D01*
X-394Y-46063D01*
Y-46850D01*
X1378D01*
D02*
G37*
D10*
X-27795Y-4272D02*
Y3602D01*
X-18268Y-4272D02*
Y3602D01*
X23356Y-24468D02*
Y-16594D01*
X32884Y-24468D02*
Y-16594D01*
X17717Y13780D02*
Y14961D01*
X-17717Y13780D02*
Y14961D01*
X17717Y48031D02*
Y49213D01*
X-17717Y48031D02*
Y49213D01*
X16535Y13780D02*
X17717D01*
X-17717D02*
X-16535D01*
X16535Y49213D02*
X17717D01*
X-17717D02*
X-16535D01*
X6102Y-15748D02*
Y-14764D01*
X5118D02*
X6102D01*
X5118Y-26969D02*
X6102D01*
Y-25984D01*
X-6102Y-26969D02*
X-5118D01*
X-6102D02*
Y-25984D01*
Y-15748D02*
Y-14764D01*
X-5118D01*
D11*
X-19685Y-7913D02*
X-20472D01*
X-19685D01*
X1378Y-44882D02*
X492Y-45119D01*
X-156Y-45768D01*
X-394Y-46654D01*
X31466Y-28110D02*
X30679D01*
X31466D01*
X-14370Y53130D02*
X-15157D01*
X-14370D01*
X-15157D01*
X-14370D01*
X-10827Y-42913D02*
X1378D01*
X-10827Y-46850D02*
X1378D01*
X-10827D02*
Y-42913D01*
X1378Y-46850D02*
Y-42913D01*
X-394Y-46850D02*
Y-46654D01*
D12*
X24016Y32677D02*
X29528D01*
X28346Y27165D02*
X29528D01*
Y38189D01*
X28346D02*
X29528D01*
X24016D02*
X25197D01*
X24016Y27165D02*
Y38189D01*
Y27165D02*
X25197D01*
X-20079Y-20866D02*
Y-15354D01*
X-14567Y-16535D02*
Y-15354D01*
X-25591D02*
X-14567D01*
X-25591Y-16535D02*
Y-15354D01*
Y-20866D02*
Y-19685D01*
Y-20866D02*
X-14567D01*
Y-19685D01*
X-23110Y10661D02*
Y11417D01*
X-13110D01*
Y10661D02*
Y11417D01*
Y5906D02*
Y6661D01*
X-23110Y5906D02*
X-13110D01*
X-23110D02*
Y6661D01*
X-18110Y5906D02*
Y11417D01*
X-20079Y-27165D02*
Y-21654D01*
X-25591Y-27165D02*
Y-25984D01*
Y-27165D02*
X-14567D01*
Y-25984D01*
Y-22835D02*
Y-21654D01*
X-25591D02*
X-14567D01*
X-25591Y-22835D02*
Y-21654D01*
X24016Y44094D02*
X29528D01*
X28772Y39094D02*
X29528D01*
Y49095D01*
X28772D02*
X29528D01*
X24016D02*
X24772D01*
X24016Y39094D02*
Y49095D01*
Y39094D02*
X24772D01*
X15354Y-34252D02*
X16535D01*
X15354D02*
Y-23228D01*
X16535D01*
X19685D02*
X20866D01*
Y-34252D02*
Y-23228D01*
X19685Y-34252D02*
X20866D01*
X15354Y-28740D02*
X20866D01*
X-17323Y-48031D02*
X-11811D01*
X-17323Y-43031D02*
X-16567D01*
X-17323Y-53031D02*
Y-43031D01*
Y-53031D02*
X-16567D01*
X-12567D02*
X-11811D01*
Y-43031D01*
X-12567D02*
X-11811D01*
X-11417Y-42126D02*
Y-40945D01*
X-22441Y-42126D02*
X-11417D01*
X-22441D02*
Y-40945D01*
Y-37795D02*
Y-36614D01*
X-11417D01*
Y-37795D02*
Y-36614D01*
X-16929Y-42126D02*
Y-36614D01*
X9055Y-52567D02*
X10236D01*
X9055D02*
Y-41543D01*
X10236D01*
X13386D02*
X14567D01*
Y-52567D02*
Y-41543D01*
X13386Y-52567D02*
X14567D01*
X9055Y-47055D02*
X14567D01*
X7087Y-41543D02*
X8268D01*
Y-52567D02*
Y-41543D01*
X7087Y-52567D02*
X8268D01*
X2756D02*
X3937D01*
X2756D02*
Y-41543D01*
X3937D01*
X2756Y-47055D02*
X8268D01*
X13386Y-40551D02*
Y-39370D01*
X2362Y-40551D02*
X13386D01*
X2362D02*
Y-39370D01*
Y-36220D02*
Y-35039D01*
X13386D01*
Y-36220D02*
Y-35039D01*
X7874Y-40551D02*
Y-35039D01*
X28041Y-9024D02*
Y-8268D01*
X38041D01*
Y-9024D02*
Y-8268D01*
Y-13780D02*
Y-13024D01*
X28041Y-13780D02*
X38041D01*
X28041D02*
Y-13024D01*
X33041Y-13780D02*
Y-8268D01*
X38750Y-20138D02*
Y-14626D01*
X44262Y-15807D02*
Y-14626D01*
X33238D02*
X44262D01*
X33238Y-15807D02*
Y-14626D01*
Y-20138D02*
Y-18957D01*
Y-20138D02*
X44262D01*
Y-18957D01*
X38750Y-26437D02*
Y-20925D01*
X33238Y-26437D02*
Y-25256D01*
Y-26437D02*
X44262D01*
Y-25256D01*
Y-22106D02*
Y-20925D01*
X33238D02*
X44262D01*
X33238Y-22106D02*
Y-20925D01*
X14173Y4724D02*
X19685D01*
X14173Y10236D02*
X15354D01*
X14173Y-787D02*
Y10236D01*
Y-787D02*
X15354D01*
X18504D02*
X19685D01*
Y10236D01*
X18504D02*
X19685D01*
X-25984Y38189D02*
X-20472D01*
X-25984Y43701D02*
X-24803D01*
X-25984Y32677D02*
Y43701D01*
Y32677D02*
X-24803D01*
X-21654D02*
X-20472D01*
Y43701D01*
X-21654D02*
X-20472D01*
X-3150Y51968D02*
Y57480D01*
X2362Y56299D02*
Y57480D01*
X-8661D02*
X2362D01*
X-8661Y56299D02*
Y57480D01*
Y51968D02*
Y53150D01*
Y51968D02*
X2362D01*
Y53150D01*
X7087Y4724D02*
X12598D01*
X7087Y10236D02*
X8268D01*
X7087Y-787D02*
Y10236D01*
Y-787D02*
X8268D01*
X11417D02*
X12598D01*
Y10236D01*
X11417D02*
X12598D01*
X-27559Y25591D02*
X-22047D01*
X-23228Y20079D02*
X-22047D01*
Y31102D01*
X-23228D02*
X-22047D01*
X-27559D02*
X-26378D01*
X-27559Y20079D02*
Y31102D01*
Y20079D02*
X-26378D01*
X9055Y-14961D02*
X14567D01*
X13386Y-20472D02*
X14567D01*
Y-9449D01*
X13386D02*
X14567D01*
X9055D02*
X10236D01*
X9055Y-20472D02*
Y-9449D01*
Y-20472D02*
X10236D01*
X9055Y-26772D02*
X14567D01*
X13386Y-32283D02*
X14567D01*
Y-21260D01*
X13386D02*
X14567D01*
X9055D02*
X10236D01*
X9055Y-32283D02*
Y-21260D01*
Y-32283D02*
X10236D01*
X20110Y-4646D02*
X20866D01*
Y-14646D02*
Y-4646D01*
X20110Y-14646D02*
X20866D01*
X15354D02*
X16110D01*
X15354D02*
Y-4646D01*
X16110D01*
X15354Y-9646D02*
X20866D01*
X-9024Y-19803D02*
X-8268D01*
Y-29803D02*
Y-19803D01*
X-9024Y-29803D02*
X-8268D01*
X-13780D02*
X-13024D01*
X-13780D02*
Y-19803D01*
X-13024D01*
X-13780Y-24803D02*
X-8268D01*
X0Y-34252D02*
Y-28740D01*
X-5512Y-34252D02*
Y-33071D01*
Y-34252D02*
X5512D01*
Y-33071D01*
Y-29921D02*
Y-28740D01*
X-5512D02*
X5512D01*
X-5512Y-29921D02*
Y-28740D01*
D13*
X59055Y0D02*
X59047Y1000D01*
X59021Y2000D01*
X58979Y2999D01*
X58920Y3997D01*
X58843Y4995D01*
X58750Y5991D01*
X58641Y6985D01*
X58514Y7977D01*
X58371Y8967D01*
X58210Y9954D01*
X58033Y10938D01*
X57840Y11919D01*
X57630Y12897D01*
X57403Y13871D01*
X57160Y14841D01*
X56900Y15807D01*
X56624Y16769D01*
X56332Y17725D01*
X56024Y18677D01*
X55700Y19623D01*
X55359Y20563D01*
X55003Y21498D01*
X54631Y22426D01*
X54244Y23348D01*
X53841Y24263D01*
X53422Y25172D01*
X52988Y26073D01*
X52539Y26966D01*
X52075Y27852D01*
X51595Y28730D01*
X51101Y29600D01*
X50593Y30461D01*
X50070Y31313D01*
X49532Y32157D01*
X48981Y32991D01*
X48415Y33816D01*
X47835Y34631D01*
X47242Y35436D01*
X46635Y36231D01*
X46015Y37015D01*
X45381Y37789D01*
X44735Y38552D01*
X44076Y39305D01*
X43404Y40045D01*
X42719Y40775D01*
X42023Y41492D01*
X41314Y42198D01*
X40593Y42892D01*
X39861Y43573D01*
X39118Y44242D01*
X38363Y44898D01*
X37597Y45541D01*
X36820Y46171D01*
X36033Y46788D01*
X35236Y47392D01*
X34428Y47982D01*
X33610Y48558D01*
X32783Y49120D01*
X31947Y49668D01*
X31101Y50202D01*
X30246Y50721D01*
X29383Y51226D01*
X28511Y51717D01*
X27631Y52192D01*
X26744Y52653D01*
X25848Y53098D01*
X24945Y53528D01*
X24035Y53943D01*
X23118Y54342D01*
X22195Y54726D01*
X21264Y55094D01*
X20328Y55446D01*
X19387Y55782D01*
X18439Y56103D01*
X17486Y56407D01*
X16529Y56695D01*
X15566Y56967D01*
X14599Y57222D01*
X13628Y57461D01*
X12653Y57684D01*
X11674Y57890D01*
X10692Y58079D01*
X9707Y58252D01*
X8719Y58408D01*
X7729Y58547D01*
X6736Y58670D01*
X5742Y58775D01*
X4746Y58864D01*
X3748Y58936D01*
X2749Y58991D01*
X1750Y59029D01*
X750Y59050D01*
X-250Y59055D01*
X-1250Y59042D01*
X-2250Y59012D01*
X-3249Y58966D01*
X-4247Y58902D01*
X-5244Y58822D01*
X-6239Y58725D01*
X-7233Y58610D01*
X-8224Y58480D01*
X-9214Y58332D01*
X-10200Y58167D01*
X-11184Y57986D01*
X-12164Y57789D01*
X-13141Y57574D01*
X-14114Y57344D01*
X-15083Y57096D01*
X-16048Y56833D01*
X-17008Y56553D01*
X-17964Y56257D01*
X-18914Y55944D01*
X-19858Y55616D01*
X-20797Y55272D01*
X-21731Y54912D01*
X-22657Y54536D01*
X-23578Y54144D01*
X-24491Y53737D01*
X-25398Y53315D01*
X-26297Y52877D01*
X-27189Y52424D01*
X-28073Y51956D01*
X-28948Y51473D01*
X-29816Y50976D01*
X-30675Y50463D01*
X-31525Y49937D01*
X-32366Y49396D01*
X-33198Y48840D01*
X-34021Y48271D01*
X-34833Y47688D01*
X-35636Y47091D01*
X-36428Y46481D01*
X-37210Y45858D01*
X-37981Y45221D01*
X-38742Y44571D01*
X-39491Y43909D01*
X-40229Y43234D01*
X-40955Y42546D01*
X-41670Y41846D01*
X-42373Y41135D01*
X-43063Y40411D01*
X-43741Y39676D01*
X-44407Y38930D01*
X-45060Y38172D01*
X-45700Y37404D01*
X-46327Y36624D01*
X-46940Y35835D01*
X-47541Y35034D01*
X-48127Y34224D01*
X-48700Y33404D01*
X-49258Y32575D01*
X-49803Y31736D01*
X-50333Y30888D01*
X-50849Y30031D01*
X-51350Y29166D01*
X-51837Y28292D01*
X-52309Y27410D01*
X-52765Y26520D01*
X-53207Y25623D01*
X-53633Y24718D01*
X-54044Y23806D01*
X-54440Y22888D01*
X-54819Y21962D01*
X-55183Y21031D01*
X-55532Y20093D01*
X-55864Y19150D01*
X-56180Y18201D01*
X-56480Y17247D01*
X-56764Y16288D01*
X-57032Y15325D01*
X-57284Y14357D01*
X-57518Y13384D01*
X-57737Y12408D01*
X-57939Y11429D01*
X-58124Y10446D01*
X-58293Y9460D01*
X-58444Y8472D01*
X-58579Y7481D01*
X-58698Y6488D01*
X-58799Y5493D01*
X-58884Y4496D01*
X-58951Y3498D01*
X-59002Y2499D01*
X-59036Y1500D01*
X-59053Y500D01*
X-59053Y-500D01*
X-59036Y-1500D01*
X-59002Y-2500D01*
X-58951Y-3499D01*
X-58884Y-4497D01*
X-58799Y-5493D01*
X-58698Y-6488D01*
X-58579Y-7481D01*
X-58444Y-8472D01*
X-58292Y-9461D01*
X-58124Y-10447D01*
X-57938Y-11429D01*
X-57737Y-12409D01*
X-57518Y-13385D01*
X-57283Y-14357D01*
X-57032Y-15325D01*
X-56764Y-16289D01*
X-56480Y-17248D01*
X-56180Y-18202D01*
X-55864Y-19151D01*
X-55532Y-20094D01*
X-55183Y-21031D01*
X-54819Y-21963D01*
X-54439Y-22888D01*
X-54044Y-23807D01*
X-53633Y-24719D01*
X-53207Y-25623D01*
X-52765Y-26521D01*
X-52308Y-27411D01*
X-51837Y-28292D01*
X-51350Y-29166D01*
X-50849Y-30032D01*
X-50333Y-30889D01*
X-49803Y-31736D01*
X-49258Y-32575D01*
X-48699Y-33405D01*
X-48127Y-34225D01*
X-47540Y-35035D01*
X-46940Y-35835D01*
X-46326Y-36625D01*
X-45700Y-37404D01*
X-45059Y-38173D01*
X-44407Y-38930D01*
X-43741Y-39677D01*
X-43063Y-40412D01*
X-42372Y-41135D01*
X-41669Y-41847D01*
X-40955Y-42546D01*
X-40229Y-43234D01*
X-39491Y-43909D01*
X-38741Y-44572D01*
X-37981Y-45221D01*
X-37210Y-45858D01*
X-36428Y-46481D01*
X-35635Y-47092D01*
X-34833Y-47688D01*
X-34020Y-48272D01*
X-33198Y-48841D01*
X-32366Y-49396D01*
X-31525Y-49937D01*
X-30674Y-50464D01*
X-29816Y-50976D01*
X-28948Y-51473D01*
X-28072Y-51956D01*
X-27188Y-52424D01*
X-26296Y-52877D01*
X-25397Y-53315D01*
X-24491Y-53737D01*
X-23577Y-54145D01*
X-22657Y-54536D01*
X-21730Y-54912D01*
X-20797Y-55272D01*
X-19858Y-55616D01*
X-18913Y-55945D01*
X-17963Y-56257D01*
X-17008Y-56553D01*
X-16048Y-56833D01*
X-15083Y-57097D01*
X-14114Y-57344D01*
X-13141Y-57575D01*
X-12164Y-57789D01*
X-11183Y-57986D01*
X-10200Y-58168D01*
X-9213Y-58332D01*
X-8224Y-58480D01*
X-7232Y-58611D01*
X-6239Y-58725D01*
X-5244Y-58822D01*
X-4247Y-58902D01*
X-3249Y-58966D01*
X-2249Y-59012D01*
X-1250Y-59042D01*
X-250Y-59055D01*
X750Y-59050D01*
X1750Y-59029D01*
X2750Y-58991D01*
X3748Y-58936D01*
X4746Y-58864D01*
X5742Y-58775D01*
X6736Y-58670D01*
X7729Y-58547D01*
X8719Y-58408D01*
X9707Y-58252D01*
X10692Y-58079D01*
X11674Y-57890D01*
X12653Y-57684D01*
X13628Y-57461D01*
X14599Y-57222D01*
X15566Y-56967D01*
X16529Y-56695D01*
X17486Y-56407D01*
X18439Y-56103D01*
X19387Y-55782D01*
X20328Y-55446D01*
X21264Y-55094D01*
X22195Y-54726D01*
X23118Y-54342D01*
X24035Y-53943D01*
X24945Y-53528D01*
X25848Y-53098D01*
X26744Y-52653D01*
X27631Y-52192D01*
X28511Y-51717D01*
X29383Y-51227D01*
X30246Y-50722D01*
X31101Y-50202D01*
X31947Y-49668D01*
X32783Y-49120D01*
X33610Y-48558D01*
X34428Y-47982D01*
X35235Y-47392D01*
X36033Y-46788D01*
X36820Y-46171D01*
X37597Y-45541D01*
X38363Y-44898D01*
X39117Y-44242D01*
X39861Y-43573D01*
X40593Y-42892D01*
X41314Y-42198D01*
X42022Y-41493D01*
X42719Y-40775D01*
X43403Y-40046D01*
X44075Y-39305D01*
X44735Y-38553D01*
X45381Y-37790D01*
X46014Y-37016D01*
X46635Y-36231D01*
X47242Y-35436D01*
X47835Y-34631D01*
X48415Y-33816D01*
X48980Y-32991D01*
X49532Y-32157D01*
X50069Y-31314D01*
X50593Y-30461D01*
X51101Y-29600D01*
X51595Y-28731D01*
X52074Y-27853D01*
X52539Y-26967D01*
X52988Y-26073D01*
X53422Y-25172D01*
X53840Y-24264D01*
X54243Y-23349D01*
X54631Y-22427D01*
X55003Y-21498D01*
X55359Y-20564D01*
X55699Y-19623D01*
X56024Y-18677D01*
X56332Y-17726D01*
X56624Y-16769D01*
X56900Y-15808D01*
X57160Y-14842D01*
X57403Y-13872D01*
X57629Y-12898D01*
X57840Y-11920D01*
X58033Y-10939D01*
X58210Y-9955D01*
X58370Y-8967D01*
X58514Y-7978D01*
X58640Y-6986D01*
X58750Y-5991D01*
X58843Y-4996D01*
X58920Y-3999D01*
X58979Y-3000D01*
X59021Y-2001D01*
X59047Y-1001D01*
X59055Y-1D01*
Y0D01*
D64*
X2756Y-50197D02*
X2018Y-49771D01*
Y-50623D01*
X2756Y-50197D01*
D65*
X-3740Y-12008D02*
D03*
M02*
