G04*
G04 #@! TF.GenerationSoftware,Altium Limited,Altium Designer,22.0.2 (36)*
G04*
G04 Layer_Physical_Order=2*
G04 Layer_Color=16711680*
%FSLAX25Y25*%
%MOIN*%
G70*
G04*
G04 #@! TF.SameCoordinates,88A3576D-DDBD-4DCA-BD86-A28AD9FD0996*
G04*
G04*
G04 #@! TF.FilePolarity,Positive*
G04*
G01*
G75*
%ADD13C,0.01000*%
%ADD29R,0.03937X0.03543*%
%ADD37R,0.03740X0.03347*%
%ADD38C,0.05118*%
%ADD39P,0.07238X4X78.0*%
%ADD40P,0.07238X4X342.0*%
%ADD41C,0.02756*%
%ADD42R,0.06299X0.03543*%
G04:AMPARAMS|DCode=43|XSize=29.13mil|YSize=11.02mil|CornerRadius=1.38mil|HoleSize=0mil|Usage=FLASHONLY|Rotation=90.000|XOffset=0mil|YOffset=0mil|HoleType=Round|Shape=RoundedRectangle|*
%AMROUNDEDRECTD43*
21,1,0.02913,0.00827,0,0,90.0*
21,1,0.02638,0.01102,0,0,90.0*
1,1,0.00276,0.00413,0.01319*
1,1,0.00276,0.00413,-0.01319*
1,1,0.00276,-0.00413,-0.01319*
1,1,0.00276,-0.00413,0.01319*
%
%ADD43ROUNDEDRECTD43*%
%ADD44R,0.03543X0.03937*%
%ADD45R,0.03347X0.03740*%
%ADD46R,0.02165X0.03937*%
%ADD47R,0.03386X0.01024*%
%ADD48R,0.01024X0.03386*%
%ADD49R,0.23622X0.23622*%
G04:AMPARAMS|DCode=50|XSize=25.2mil|YSize=8.66mil|CornerRadius=1.08mil|HoleSize=0mil|Usage=FLASHONLY|Rotation=0.000|XOffset=0mil|YOffset=0mil|HoleType=Round|Shape=RoundedRectangle|*
%AMROUNDEDRECTD50*
21,1,0.02520,0.00650,0,0,0.0*
21,1,0.02303,0.00866,0,0,0.0*
1,1,0.00217,0.01152,-0.00325*
1,1,0.00217,-0.01152,-0.00325*
1,1,0.00217,-0.01152,0.00325*
1,1,0.00217,0.01152,0.00325*
%
%ADD50ROUNDEDRECTD50*%
G04:AMPARAMS|DCode=51|XSize=25.2mil|YSize=8.66mil|CornerRadius=1.08mil|HoleSize=0mil|Usage=FLASHONLY|Rotation=90.000|XOffset=0mil|YOffset=0mil|HoleType=Round|Shape=RoundedRectangle|*
%AMROUNDEDRECTD51*
21,1,0.02520,0.00650,0,0,90.0*
21,1,0.02303,0.00866,0,0,90.0*
1,1,0.00217,0.00325,0.01152*
1,1,0.00217,0.00325,-0.01152*
1,1,0.00217,-0.00325,-0.01152*
1,1,0.00217,-0.00325,0.01152*
%
%ADD51ROUNDEDRECTD51*%
%ADD52R,0.06063X0.06693*%
G36*
X6705Y56648D02*
X11129Y55948D01*
X13534Y55370D01*
X13670Y54889D01*
X13592Y54810D01*
X13236Y54194D01*
X13051Y53506D01*
Y53026D01*
X12171Y52145D01*
X11839Y51650D01*
X6544D01*
X6256Y52150D01*
X6457Y52499D01*
X6642Y53187D01*
Y53899D01*
X6457Y54587D01*
X6101Y55204D01*
X5598Y55708D01*
X4981Y56064D01*
X4293Y56248D01*
X3581D01*
X2893Y56064D01*
X2791Y56005D01*
X2352Y56248D01*
X2328Y56612D01*
X2694Y56964D01*
X6705Y56648D01*
D02*
G37*
G36*
X31692Y47430D02*
X35315Y44798D01*
X38721Y41889D01*
X41889Y38721D01*
X44798Y35315D01*
X47430Y31692D01*
X49771Y27873D01*
X51804Y23882D01*
X53518Y19744D01*
X54902Y15484D01*
X55948Y11129D01*
X56648Y6705D01*
X57000Y2240D01*
Y-2240D01*
X56648Y-6705D01*
X55948Y-11129D01*
X54902Y-15484D01*
X53604Y-19479D01*
X53104Y-19400D01*
Y-3815D01*
X53236Y-3739D01*
X53739Y-3235D01*
X54095Y-2619D01*
X54280Y-1931D01*
Y-1219D01*
X54095Y-531D01*
X53739Y86D01*
X53236Y589D01*
X52619Y946D01*
X51931Y1130D01*
X51219D01*
X50531Y946D01*
X49914Y589D01*
X49411Y86D01*
X49054Y-531D01*
X48870Y-1219D01*
Y-1931D01*
X49054Y-2619D01*
X49411Y-3235D01*
X49914Y-3739D01*
X50045Y-3815D01*
Y-19445D01*
X44641Y-24850D01*
X44179Y-24658D01*
Y-24181D01*
X41407D01*
Y-23181D01*
X44179D01*
Y-20713D01*
X44179D01*
Y-20350D01*
X44179D01*
Y-17882D01*
X41407D01*
Y-17382D01*
X40907D01*
Y-14413D01*
X37130D01*
Y-13894D01*
X38274D01*
Y-11497D01*
X38305Y-11380D01*
Y-10667D01*
X38274Y-10550D01*
Y-8153D01*
X35956D01*
Y-7262D01*
X35840Y-6677D01*
X35509Y-6180D01*
X31844Y-2516D01*
Y24947D01*
X37641D01*
X38227Y25063D01*
X38723Y25395D01*
X39428Y26100D01*
X39922Y26022D01*
X40145Y25583D01*
X42848Y26961D01*
X43087Y27024D01*
X43905Y27497D01*
X43910Y27501D01*
X46488Y28815D01*
X45110Y31518D01*
X45047Y31756D01*
X44574Y32575D01*
X44570Y32579D01*
X43256Y35157D01*
X40553Y33780D01*
X40315Y33716D01*
X39496Y33244D01*
X39492Y33239D01*
X36914Y31926D01*
X38269Y29267D01*
X37008Y28006D01*
X30948D01*
X29740Y29214D01*
Y32563D01*
Y34835D01*
X23803D01*
Y32563D01*
Y30073D01*
X20154D01*
Y32937D01*
Y36874D01*
Y40793D01*
X23902D01*
Y38862D01*
X29642D01*
Y43980D01*
Y48175D01*
X30078Y48419D01*
X31692Y47430D01*
D02*
G37*
G36*
X-8579Y55967D02*
Y55224D01*
X-5807D01*
Y54224D01*
X-8579D01*
Y51756D01*
X-9035Y51650D01*
X-16276D01*
Y47772D01*
X-20154D01*
Y44074D01*
X-20260Y43618D01*
X-26197D01*
Y38075D01*
Y36031D01*
X-23228D01*
Y35032D01*
X-26197D01*
Y33055D01*
X-26697Y32884D01*
X-27079Y33267D01*
X-27696Y33623D01*
X-28384Y33807D01*
X-29096D01*
X-29784Y33623D01*
X-30401Y33267D01*
X-30904Y32763D01*
X-31261Y32146D01*
X-31445Y31458D01*
Y30746D01*
X-31261Y30058D01*
X-30904Y29442D01*
X-30401Y28938D01*
X-29784Y28582D01*
X-29096Y28398D01*
X-28384D01*
X-28168Y28455D01*
X-27772Y28151D01*
Y25476D01*
Y22324D01*
X-29167Y20929D01*
X-29499Y20433D01*
X-29615Y19847D01*
Y-1626D01*
X-29884D01*
X-30571Y-1810D01*
X-31188Y-2166D01*
X-31692Y-2670D01*
X-32048Y-3287D01*
X-32232Y-3975D01*
Y-4687D01*
X-32048Y-5375D01*
X-31692Y-5991D01*
X-31188Y-6495D01*
X-30571Y-6851D01*
X-29884Y-7035D01*
X-29615D01*
Y-18115D01*
X-29626Y-18124D01*
X-34488D01*
Y-17303D01*
X-34566Y-16913D01*
X-34787Y-16582D01*
X-35118Y-16361D01*
X-35508Y-16284D01*
X-38485D01*
X-38875Y-16361D01*
X-39206Y-16582D01*
X-39427Y-16913D01*
X-39505Y-17303D01*
Y-18124D01*
X-44393D01*
X-44783Y-18202D01*
X-45114Y-18423D01*
X-45335Y-18754D01*
X-45412Y-19144D01*
Y-20618D01*
X-45335Y-21009D01*
X-45114Y-21339D01*
X-44783Y-21560D01*
X-44393Y-21638D01*
X-39505D01*
Y-23045D01*
X-44398D01*
X-44789Y-23123D01*
X-45120Y-23344D01*
X-45340Y-23675D01*
X-45418Y-24065D01*
Y-25542D01*
X-45340Y-25932D01*
X-45120Y-26263D01*
X-44789Y-26484D01*
X-44398Y-26562D01*
X-39505D01*
Y-27967D01*
X-44400D01*
X-44790Y-28044D01*
X-45120Y-28265D01*
X-45342Y-28596D01*
X-45419Y-28986D01*
Y-30470D01*
X-45342Y-30860D01*
X-45120Y-31191D01*
X-44790Y-31412D01*
X-44400Y-31490D01*
X-39505D01*
Y-32421D01*
X-39427Y-32811D01*
X-39206Y-33142D01*
X-38875Y-33363D01*
X-38485Y-33440D01*
X-35508D01*
X-35118Y-33363D01*
X-34787Y-33142D01*
X-34566Y-32811D01*
X-34488Y-32421D01*
Y-31490D01*
X-29626D01*
X-29615Y-31499D01*
Y-33112D01*
X-29499Y-33697D01*
X-29167Y-34193D01*
X-28666Y-34695D01*
X-28505Y-35296D01*
X-28149Y-35913D01*
X-27645Y-36416D01*
X-27028Y-36772D01*
X-26340Y-36957D01*
X-25628D01*
X-24940Y-36772D01*
X-24766Y-36672D01*
X-24266Y-36960D01*
Y-42618D01*
X-24149Y-43203D01*
X-23818Y-43700D01*
X-17437Y-50080D01*
Y-53264D01*
X-13860D01*
X-12105Y-55018D01*
X-11609Y-55350D01*
X-11779Y-55792D01*
X-15484Y-54902D01*
X-19744Y-53518D01*
X-23882Y-51804D01*
X-27873Y-49771D01*
X-31692Y-47430D01*
X-35315Y-44798D01*
X-38721Y-41889D01*
X-41889Y-38721D01*
X-44798Y-35315D01*
X-47430Y-31692D01*
X-49771Y-27873D01*
X-51804Y-23882D01*
X-53518Y-19744D01*
X-54902Y-15484D01*
X-55948Y-11129D01*
X-56648Y-6705D01*
X-57000Y-2240D01*
Y2240D01*
X-56648Y6705D01*
X-55948Y11129D01*
X-54902Y15484D01*
X-53518Y19744D01*
X-51804Y23882D01*
X-49771Y27873D01*
X-47430Y31692D01*
X-44798Y35315D01*
X-41889Y38721D01*
X-38721Y41889D01*
X-35315Y44798D01*
X-31692Y47430D01*
X-27873Y49771D01*
X-23882Y51804D01*
X-19744Y53518D01*
X-15484Y54902D01*
X-11129Y55948D01*
X-8959Y56292D01*
X-8579Y55967D01*
D02*
G37*
G36*
X28786Y25843D02*
Y17490D01*
X28286Y17338D01*
X28217Y17440D01*
X21950Y23707D01*
X21454Y24039D01*
X20869Y24155D01*
X20780D01*
X20721Y24167D01*
X20154D01*
Y27014D01*
X25098D01*
X25684Y27130D01*
X25860Y27248D01*
X27380D01*
X28786Y25843D01*
D02*
G37*
G36*
X23638Y13963D02*
Y-14849D01*
X23511Y-14996D01*
X23497Y-15001D01*
X22910Y-14928D01*
X22735Y-14667D01*
X20980Y-12912D01*
Y-9760D01*
Y-4413D01*
X15240D01*
Y-5557D01*
X9055D01*
X8470Y-5674D01*
X7974Y-6005D01*
X6059Y-7919D01*
X2887D01*
X2787Y-7419D01*
X3752Y-7020D01*
X5049Y-6153D01*
X6153Y-5049D01*
X7020Y-3752D01*
X7617Y-2310D01*
X7921Y-780D01*
Y-705D01*
X9342D01*
Y2067D01*
X9843D01*
Y2567D01*
X12811D01*
Y4610D01*
Y9484D01*
X13273Y9675D01*
X13931Y9017D01*
Y8653D01*
X13961Y8506D01*
Y4610D01*
Y2567D01*
X16929D01*
X19898D01*
Y4610D01*
Y10153D01*
X16890D01*
X16874Y10236D01*
X16542Y10732D01*
X16404Y10870D01*
X16276Y11343D01*
X16276D01*
X16276Y11343D01*
Y15221D01*
X20154D01*
Y16740D01*
X20653Y16947D01*
X23638Y13963D01*
D02*
G37*
G36*
X20124Y-16382D02*
Y-23311D01*
X18610D01*
Y-26083D01*
X17610D01*
Y-23311D01*
X15142D01*
X14780Y-22978D01*
Y-21342D01*
X12311D01*
Y-24114D01*
X11311D01*
Y-21342D01*
X9403D01*
X8951Y-20890D01*
X9158Y-20390D01*
X11311D01*
Y-17618D01*
X11811D01*
Y-17118D01*
X14780D01*
Y-14973D01*
X15240Y-14878D01*
Y-14878D01*
X17637D01*
X17754Y-14909D01*
X18466D01*
X18584Y-14878D01*
X18621D01*
X20124Y-16382D01*
D02*
G37*
G36*
X8843Y-10169D02*
Y-12912D01*
X7761Y-13993D01*
X7430Y-14490D01*
X7313Y-15075D01*
Y-15410D01*
X7234Y-15474D01*
X5392D01*
Y-13632D01*
X5306Y-13200D01*
X5061Y-12833D01*
X4694Y-12588D01*
X4262Y-12502D01*
X3612D01*
X3180Y-12588D01*
X3150Y-12608D01*
X3119Y-12588D01*
X2687Y-12502D01*
X2037D01*
X1605Y-12588D01*
X1575Y-12608D01*
X1545Y-12588D01*
X1112Y-12502D01*
X463D01*
X30Y-12588D01*
X0Y-12608D01*
X-30Y-12588D01*
X-463Y-12502D01*
X-1112D01*
X-1545Y-12588D01*
X-1575Y-12608D01*
X-1605Y-12588D01*
X-2037Y-12502D01*
X-2687D01*
X-3119Y-12588D01*
X-3150Y-12608D01*
X-3180Y-12588D01*
X-3612Y-12502D01*
X-4262D01*
X-4694Y-12588D01*
X-5061Y-12833D01*
X-5306Y-13200D01*
X-5392Y-13632D01*
Y-15130D01*
X-5892Y-15438D01*
X-6083Y-15400D01*
X-6745D01*
X-7191Y-15131D01*
Y-14419D01*
X-7375Y-13731D01*
X-7731Y-13114D01*
X-8235Y-12610D01*
X-8707Y-12338D01*
Y-10978D01*
X6693D01*
X7278Y-10862D01*
X7774Y-10530D01*
X8343Y-9962D01*
X8843Y-10169D01*
D02*
G37*
G36*
X-12341Y-18562D02*
X-12437Y-18706D01*
X-12553Y-19291D01*
Y-19571D01*
X-13894D01*
Y-24917D01*
Y-30035D01*
X-12553D01*
Y-32681D01*
X-17642D01*
X-17694Y-32591D01*
X-18198Y-32088D01*
X-18814Y-31732D01*
X-19502Y-31547D01*
X-20214D01*
X-20707Y-31679D01*
X-21207Y-31383D01*
Y-27378D01*
X-17921D01*
Y-24409D01*
X-17421D01*
Y-23909D01*
X-14650D01*
Y-21579D01*
X-14650Y-21441D01*
X-14650D01*
Y-21079D01*
X-14650D01*
Y-18610D01*
X-17421D01*
Y-17610D01*
X-14650D01*
Y-16961D01*
X-14150Y-16753D01*
X-12341Y-18562D01*
D02*
G37*
G36*
X-7654Y-26175D02*
X-7234Y-26258D01*
X-5392D01*
Y-26449D01*
X-3937D01*
Y-27449D01*
X-5392D01*
Y-28100D01*
X-5331Y-28408D01*
X-5429Y-28528D01*
X-5429D01*
Y-30996D01*
X-2657D01*
Y-31996D01*
X-5429D01*
Y-34465D01*
X-5863Y-34625D01*
X-8504D01*
X-9494Y-33634D01*
Y-30035D01*
X-8153D01*
Y-26448D01*
X-7667Y-26172D01*
X-7654Y-26175D01*
D02*
G37*
G36*
X52626Y-21897D02*
X51804Y-23882D01*
X49771Y-27873D01*
X47430Y-31692D01*
X44798Y-35315D01*
X41889Y-38721D01*
X38721Y-41889D01*
X35315Y-44798D01*
X31692Y-47430D01*
X27873Y-49771D01*
X23882Y-51804D01*
X19744Y-53518D01*
X15484Y-54902D01*
X11129Y-55948D01*
X6705Y-56648D01*
X2240Y-57000D01*
X0Y-57000D01*
X-2240D01*
X-6705Y-56648D01*
X-11011Y-55966D01*
X-10972Y-55466D01*
X-2756D01*
X-2171Y-55350D01*
X-1674Y-55018D01*
X-485Y-53829D01*
X-154Y-53333D01*
X-121Y-53165D01*
X1098D01*
Y-51726D01*
X2543D01*
Y-52484D01*
X8480D01*
Y-52484D01*
X8843D01*
Y-52484D01*
X14780D01*
Y-51242D01*
X20390D01*
X20975Y-51126D01*
X21471Y-50794D01*
X22649Y-49616D01*
X23146Y-49669D01*
X23604Y-50375D01*
X26031Y-48799D01*
X26037Y-48797D01*
X26855Y-48324D01*
X27030Y-48150D01*
X29574Y-46498D01*
X27998Y-44071D01*
X27997Y-44065D01*
X27524Y-43247D01*
X27349Y-43072D01*
X26180Y-41272D01*
Y-39762D01*
X28524Y-37419D01*
X29642D01*
X29714Y-37873D01*
X31402Y-40471D01*
X33960Y-38810D01*
X33288Y-38204D01*
X32684Y-37897D01*
X32757Y-37372D01*
X33109Y-37302D01*
X33606Y-36971D01*
X36726Y-33850D01*
X39333D01*
X39918Y-33734D01*
X40414Y-33402D01*
X52202Y-21614D01*
X52626Y-21897D01*
D02*
G37*
G36*
X23934Y-26549D02*
X24310Y-26800D01*
X24754Y-26888D01*
X25581D01*
X25606Y-26910D01*
Y-29524D01*
X25723Y-30109D01*
X26054Y-30605D01*
X27610Y-32161D01*
Y-32640D01*
X27795Y-33327D01*
X28102Y-33860D01*
X27998Y-34168D01*
X27864Y-34365D01*
X27305Y-34476D01*
X26809Y-34808D01*
X23570Y-38047D01*
X23238Y-38543D01*
X23122Y-39129D01*
Y-42188D01*
X22446Y-42578D01*
X22272Y-42753D01*
X19728Y-44405D01*
X21226Y-46713D01*
X19756Y-48183D01*
X14780D01*
Y-44898D01*
X11811D01*
Y-44398D01*
X11311D01*
Y-41626D01*
X8843D01*
Y-41626D01*
X8480D01*
Y-41626D01*
X6012D01*
Y-44398D01*
X5512D01*
Y-44898D01*
X2543D01*
Y-47169D01*
Y-48667D01*
X1098D01*
Y-47228D01*
X-4224D01*
Y-50197D01*
X-5224D01*
Y-47228D01*
X-8899D01*
X-9047Y-47199D01*
X-9300D01*
X-10934Y-45564D01*
X-11430Y-45233D01*
X-11697Y-45180D01*
Y-42799D01*
X-11697D01*
X-11602Y-42339D01*
X-11500D01*
Y-40900D01*
X-10547D01*
Y-42535D01*
X-6382D01*
Y-37684D01*
X-4145D01*
X-3067Y-38761D01*
Y-42535D01*
X1098D01*
Y-39325D01*
X2445D01*
Y-40764D01*
X10031D01*
Y-37795D01*
X10531D01*
Y-37295D01*
X13303D01*
Y-34827D01*
X11256D01*
X10996Y-34327D01*
X11085Y-34199D01*
X16839D01*
X16986Y-34169D01*
X21079D01*
Y-30789D01*
X22735Y-29133D01*
X23066Y-28637D01*
X23183Y-28051D01*
Y-26226D01*
X23682Y-26172D01*
X23934Y-26549D01*
D02*
G37*
%LPC*%
G36*
X29740Y38106D02*
X27272D01*
Y35835D01*
X29740D01*
Y38106D01*
D02*
G37*
G36*
X26272D02*
X23803D01*
Y35835D01*
X26272D01*
Y38106D01*
D02*
G37*
G36*
X44994Y26933D02*
X44109Y26745D01*
X45494Y24027D01*
X48212Y25412D01*
X47607Y26084D01*
X46821Y26595D01*
X45930Y26884D01*
X44994Y26933D01*
D02*
G37*
G36*
X43218Y26291D02*
X42546Y25686D01*
X42035Y24900D01*
X41746Y24009D01*
X41697Y23073D01*
X41885Y22188D01*
X44603Y23573D01*
X43218Y26291D01*
D02*
G37*
G36*
X48666Y24521D02*
X45948Y23136D01*
X47333Y20418D01*
X48005Y21023D01*
X48516Y21809D01*
X48805Y22700D01*
X48854Y23636D01*
X48666Y24521D01*
D02*
G37*
G36*
X45057Y22682D02*
X42339Y21297D01*
X42944Y20625D01*
X43730Y20114D01*
X44621Y19825D01*
X45557Y19776D01*
X46442Y19964D01*
X45057Y22682D01*
D02*
G37*
G36*
X49323Y19929D02*
X48378D01*
X47464Y19685D01*
X46646Y19212D01*
X45977Y18543D01*
X45505Y17725D01*
X45260Y16811D01*
Y15866D01*
X45505Y14953D01*
X45977Y14134D01*
X46646Y13466D01*
X47464Y12993D01*
X48378Y12748D01*
X49323D01*
X50236Y12993D01*
X51055Y13466D01*
X51723Y14134D01*
X52196Y14953D01*
X52441Y15866D01*
Y16811D01*
X52196Y17725D01*
X51723Y18543D01*
X51055Y19212D01*
X50236Y19685D01*
X49323Y19929D01*
D02*
G37*
G36*
X41944Y6150D02*
X40733D01*
X39545Y5913D01*
X38426Y5450D01*
X37418Y4777D01*
X36562Y3920D01*
X35889Y2913D01*
X35425Y1794D01*
X35189Y606D01*
Y-606D01*
X35425Y-1794D01*
X35889Y-2913D01*
X36562Y-3920D01*
X37418Y-4777D01*
X38426Y-5450D01*
X39545Y-5913D01*
X40733Y-6150D01*
X41944D01*
X43132Y-5913D01*
X44251Y-5450D01*
X45259Y-4777D01*
X46115Y-3920D01*
X46788Y-2913D01*
X47252Y-1794D01*
X47488Y-606D01*
Y606D01*
X47252Y1794D01*
X46788Y2913D01*
X46115Y3920D01*
X45259Y4777D01*
X44251Y5450D01*
X43132Y5913D01*
X41944Y6150D01*
D02*
G37*
G36*
X44179Y-14413D02*
X41908D01*
Y-16882D01*
X44179D01*
Y-14413D01*
D02*
G37*
G36*
X-40733Y6150D02*
X-41944D01*
X-43132Y5913D01*
X-44251Y5450D01*
X-45259Y4777D01*
X-46115Y3920D01*
X-46788Y2913D01*
X-47252Y1794D01*
X-47488Y606D01*
Y-606D01*
X-47252Y-1794D01*
X-46788Y-2913D01*
X-46115Y-3920D01*
X-45259Y-4777D01*
X-44251Y-5450D01*
X-43132Y-5913D01*
X-41944Y-6150D01*
X-40733D01*
X-39545Y-5913D01*
X-38426Y-5450D01*
X-37418Y-4777D01*
X-36562Y-3920D01*
X-35889Y-2913D01*
X-35425Y-1794D01*
X-35189Y-606D01*
Y606D01*
X-35425Y1794D01*
X-35889Y2913D01*
X-36562Y3920D01*
X-37418Y4777D01*
X-38426Y5450D01*
X-39545Y5913D01*
X-40733Y6150D01*
D02*
G37*
G36*
X19898Y1567D02*
X17429D01*
Y-705D01*
X19898D01*
Y1567D01*
D02*
G37*
G36*
X16429D02*
X13961D01*
Y-705D01*
X16429D01*
Y1567D01*
D02*
G37*
G36*
X12811D02*
X10343D01*
Y-705D01*
X12811D01*
Y1567D01*
D02*
G37*
G36*
X14780Y-18118D02*
X12311D01*
Y-20390D01*
X14780D01*
Y-18118D01*
D02*
G37*
G36*
X-14650Y-24909D02*
X-16921D01*
Y-27378D01*
X-14650D01*
Y-24909D01*
D02*
G37*
G36*
X28901Y-38457D02*
X28296Y-39130D01*
X27871Y-39965D01*
X27676Y-40881D01*
X27725Y-41817D01*
X28005Y-42677D01*
X30563Y-41016D01*
X28901Y-38457D01*
D02*
G37*
G36*
X34505Y-39648D02*
X31946Y-41310D01*
X33608Y-43868D01*
X34213Y-43196D01*
X34639Y-42361D01*
X34833Y-41445D01*
X34784Y-40509D01*
X34505Y-39648D01*
D02*
G37*
G36*
X31108Y-41855D02*
X28549Y-43516D01*
X29221Y-44121D01*
X30056Y-44547D01*
X30973Y-44741D01*
X31909Y-44693D01*
X32769Y-44413D01*
X31108Y-41855D01*
D02*
G37*
G36*
X13303Y-38295D02*
X11032D01*
Y-40764D01*
X13303D01*
Y-38295D01*
D02*
G37*
G36*
X14780Y-41626D02*
X12311D01*
Y-43898D01*
X14780D01*
Y-41626D01*
D02*
G37*
G36*
X5012D02*
X2543D01*
Y-43898D01*
X5012D01*
Y-41626D01*
D02*
G37*
%LPD*%
D13*
X-29528Y-4331D02*
X-28086D01*
X-21996Y-6663D02*
Y-4264D01*
Y-6663D02*
X-20866Y-7793D01*
X-24803Y-7874D02*
Y-7658D01*
X-17988Y-9460D02*
Y-6303D01*
X-20733Y-12205D02*
X-17988Y-9460D01*
X-23228Y-12205D02*
X-20733D01*
X-26241Y-15217D02*
X-23228Y-12205D01*
X-22736Y-17913D02*
X-16142Y-11319D01*
X-13386Y-15354D02*
X-10236Y-18504D01*
X-13386Y-15354D02*
Y1575D01*
X-24803Y-7658D02*
X-24016Y-6871D01*
X-20866Y-8268D02*
Y-7793D01*
X-22047Y-4213D02*
X-21996Y-4264D01*
X30315Y26476D02*
X37641D01*
X41339Y30174D01*
X30315Y-3150D02*
Y26476D01*
X35600Y-16890D02*
X36092Y-17382D01*
X25098Y28543D02*
X25945Y29390D01*
X13488Y42323D02*
X17461D01*
X25984D01*
X21130Y32965D02*
X24205D01*
X26575Y35335D01*
X26772D01*
X19894Y30524D02*
X20794Y31424D01*
Y32629D01*
X21130Y32965D01*
X21239Y33074D02*
Y39372D01*
X21130Y32965D02*
X21239Y33074D01*
X20257Y40354D02*
X21239Y39372D01*
X51575Y-20079D02*
Y-1575D01*
X39333Y-32321D02*
X51575Y-20079D01*
X36092Y-32321D02*
X39333D01*
X24651Y-39129D02*
X27890Y-35889D01*
X24651Y-45451D02*
Y-39129D01*
X27890Y-35889D02*
X32524D01*
X20390Y-49713D02*
X24651Y-45451D01*
X32524Y-35889D02*
X36092Y-32321D01*
X11811Y-49713D02*
X20390D01*
X5512D02*
X11811D01*
X3543Y-37795D02*
X5217D01*
X2657Y-31496D02*
X3543Y-32382D01*
Y-37795D02*
Y-32382D01*
X-98Y-37795D02*
X3543D01*
X-984Y-38681D02*
X-98Y-37795D01*
X-22736Y-42618D02*
X-14764Y-50591D01*
X-14370D02*
X-11024Y-53937D01*
X-14764Y-50591D02*
X-14370D01*
X-22736Y-42618D02*
Y-24213D01*
X5217Y-37795D02*
Y-37598D01*
X10146Y-32669D01*
X16839D01*
X18110Y-31398D01*
X-11081Y-34210D02*
X-9137Y-36154D01*
X-3511D01*
X-984Y-38681D01*
X-19858Y-34252D02*
X-19816Y-34210D01*
X-8846Y10548D02*
Y14024D01*
Y10548D02*
X-8665Y10366D01*
X-8858Y14035D02*
X-8846Y14024D01*
X25984Y42323D02*
X26772Y41535D01*
X26043Y29291D02*
X26772Y30020D01*
X28240Y28551D02*
Y28748D01*
Y28551D02*
X30315Y26476D01*
X26969Y30020D02*
X28240Y28748D01*
X17461Y28543D02*
X25098D01*
X13488D02*
X17461D01*
X26772Y30020D02*
X26969D01*
X-24705Y22835D02*
X-24606Y22933D01*
X-16142Y8071D02*
X-15551Y8661D01*
X-24803Y22933D02*
X-24606D01*
X-24803Y22835D02*
X-24705D01*
X-25098D02*
X-24803D01*
X-28086Y-4331D02*
Y19847D01*
Y-33112D02*
Y-4331D01*
X-10236Y-14434D02*
Y-9449D01*
Y-14434D02*
X-7741Y-16929D01*
X-6083D01*
X-19685Y-39370D02*
X-19587D01*
X-1567Y-52748D02*
Y-50779D01*
X-11024Y-53937D02*
X-2756D01*
X-1567Y-50779D02*
X-984Y-50197D01*
X-2756Y-53937D02*
X-1567Y-52748D01*
X-20079Y3543D02*
X-16142D01*
Y8071D01*
Y-11319D02*
Y3543D01*
X-26320Y-33916D02*
X-25984Y-34252D01*
X-27282Y-33916D02*
X-26320D01*
X-28086Y-33112D02*
X-27282Y-33916D01*
X-28086Y19847D02*
X-25098Y22835D01*
X-24016Y-6871D02*
Y-4213D01*
X-24468Y-394D02*
X-23228D01*
X-24409Y-335D02*
X-23031D01*
X-26241Y-21881D02*
Y-15217D01*
X-24008Y-22941D02*
X-22736Y-24213D01*
X-25181Y-22941D02*
X-24008D01*
X-26241Y-21881D02*
X-25181Y-22941D01*
X-19122Y-5169D02*
X-17988Y-6303D01*
X-20028Y-5169D02*
X-19122D01*
X-20079Y-5118D02*
X-20028Y-5169D01*
X-20079Y-5118D02*
Y-4213D01*
X-24016Y3543D02*
Y15060D01*
X-20375Y18701D01*
X-25984Y3543D02*
Y16142D01*
X-21457Y20669D02*
X-17461D01*
X-25984Y16142D02*
X-21457Y20669D01*
X-22047Y3543D02*
Y7087D01*
X-20669Y8465D01*
X-25984Y-4213D02*
X-25933Y-4161D01*
Y-2789D01*
X-25681Y-2537D01*
Y-1606D01*
X-24409Y-335D01*
X-20669Y8465D02*
Y8661D01*
X-20375Y18701D02*
X-17461D01*
X-15748Y8661D02*
X-15551D01*
X-24606Y22933D02*
X-20965Y26575D01*
X-20849Y14156D02*
Y14525D01*
X-18642Y16732D02*
X-17461D01*
X-20849Y14525D02*
X-18642Y16732D01*
X-20583Y38398D02*
X-17472D01*
X-23031Y40846D02*
X-20583Y38398D01*
X-23228Y40846D02*
X-23031D01*
X-17472Y38398D02*
X-17461Y38386D01*
X-23228Y35531D02*
X-22835D01*
X-21949Y36417D01*
X-17461D01*
Y26575D02*
X-13397D01*
X-20669Y30512D02*
X-17461D01*
X-21260Y31102D02*
X-20669Y30512D01*
X-28740Y31102D02*
X-21260D01*
X-24758Y28203D02*
X-24417Y28545D01*
X-17462D01*
X-24803Y28248D02*
X-24758Y28203D01*
X-24803Y28248D02*
X-24803D01*
X-17462Y28545D02*
X-17461Y28543D01*
X-20965Y26575D02*
X-17461D01*
Y38386D02*
X-13397D01*
X-984Y48957D02*
Y54232D01*
X31073Y-24409D02*
X35364D01*
X36092Y-23681D01*
Y-32321D02*
Y-23681D01*
X-984Y-50197D02*
X5028D01*
X5512Y-49713D01*
X-22736Y-18110D02*
Y-17913D01*
X-984Y44893D02*
Y48957D01*
X-2965Y14024D02*
X-2953Y14035D01*
X-2965Y11996D02*
Y14024D01*
X-13386Y1575D02*
X-2965Y11996D01*
X27136Y-29524D02*
X29895Y-32283D01*
X27136Y-29524D02*
Y-24409D01*
X29895Y-32283D02*
X30315D01*
X30029Y-28346D02*
Y-27871D01*
X29155Y-26998D02*
X30029Y-27871D01*
X29155Y-26998D02*
Y-24461D01*
X14764Y49595D02*
X14776Y49606D01*
X14764Y48957D02*
Y49595D01*
X14776Y49606D02*
X18504D01*
X15338Y53150D02*
X15756D01*
X13252Y51064D02*
X15338Y53150D01*
X12795Y50138D02*
X13252Y50595D01*
Y51064D01*
X12795Y48957D02*
Y50138D01*
X17461Y30512D02*
X17472Y30524D01*
X19894D01*
X17461Y40354D02*
X20257D01*
X21654Y46457D02*
X26575D01*
X26772Y46654D01*
X3602Y53543D02*
X3937D01*
X996Y50937D02*
X3602Y53543D01*
X984Y48957D02*
X996Y48968D01*
Y50937D01*
X-984Y54232D02*
X-492Y54724D01*
X-5807Y54528D02*
Y54724D01*
Y54528D02*
X-4535Y53256D01*
X-4178D01*
X-2953Y52031D01*
Y48957D02*
Y52031D01*
X17815Y-25984D02*
X18110D01*
X15945Y-24114D02*
X17815Y-25984D01*
X11811Y-24114D02*
X15945D01*
X17472Y46272D02*
X21468D01*
X21654Y46457D01*
X17461Y46260D02*
X17472Y46272D01*
X13488Y28543D02*
Y42323D01*
X1746Y9522D02*
Y9672D01*
X-11024Y-34152D02*
Y-27362D01*
X-19816Y-34210D02*
X-11081D01*
X-11024Y-34152D01*
X-984Y-39567D02*
Y-38681D01*
X19480Y-13575D02*
Y-13378D01*
X21654Y-28051D02*
Y-15748D01*
X18110Y-12205D02*
X18307D01*
X19480Y-13378D01*
Y-13575D02*
X21654Y-15748D01*
X18110Y-31398D02*
X18307D01*
X21654Y-28051D01*
X34427Y-9850D02*
Y-7262D01*
X30315Y-3150D02*
X34427Y-7262D01*
Y-9850D02*
X35600Y-11024D01*
X18110Y-26083D02*
Y-25984D01*
X10531Y-37795D02*
X10630D01*
X11811Y-44488D02*
Y-44398D01*
X5512Y-44488D02*
X5512Y-44488D01*
Y-44398D01*
X-4724Y-50197D02*
Y-45669D01*
X-12016Y-46646D02*
X-9933Y-48728D01*
X-13394Y-46646D02*
X-12016D01*
X-14567Y-45472D02*
X-13394Y-46646D01*
X-8465Y-50197D02*
Y-49311D01*
X-9047Y-48728D02*
X-8465Y-49311D01*
X-9933Y-48728D02*
X-9047D01*
X-14272Y-39370D02*
X-8661D01*
X-8465Y-39567D01*
X29104Y-24409D02*
X29155Y-24461D01*
X27136Y12963D02*
Y16359D01*
X20733Y22626D02*
X20869D01*
X27136Y16359D01*
X17461Y22638D02*
X20721D01*
X20733Y22626D01*
X27136Y-16654D02*
Y12963D01*
X25167Y-16654D02*
Y14596D01*
X17461Y20669D02*
X19094D01*
X19551Y20213D01*
X19568D01*
X20154Y19627D01*
Y19610D02*
Y19627D01*
Y19610D02*
X25167Y14596D01*
X35364Y-16654D02*
X35600Y-16890D01*
X25195Y-22078D02*
X26801Y-20472D01*
X41407Y-23681D02*
Y-20531D01*
X31073Y-16654D02*
X35364D01*
X28120Y-20531D02*
X41407D01*
Y-17382D01*
X30482Y-11220D02*
Y-11024D01*
X29104Y-12598D02*
X30482Y-11220D01*
X29104Y-16654D02*
Y-12598D01*
X35600Y-16890D02*
Y-11024D01*
X25195Y-24382D02*
Y-22078D01*
X26801Y-20472D02*
X27529D01*
X25167Y-24409D02*
X25195Y-24382D01*
X-2362Y-23228D02*
X0Y-20866D01*
X-2657Y-31496D02*
Y-31299D01*
X-11024Y-19291D02*
X-10236Y-18504D01*
X-11024Y-22244D02*
Y-19291D01*
X-10236Y-9449D02*
X6693D01*
X9055Y-7087D01*
X18110D01*
X11811Y-12303D02*
X11909Y-12205D01*
X18110D01*
X-10236Y-9449D02*
Y1181D01*
X984Y10433D02*
X1746Y9672D01*
X984Y10433D02*
Y14035D01*
X-10236Y1181D02*
X-984Y10433D01*
Y14035D01*
X-10236Y-18504D02*
X-6083D01*
X2953Y14035D02*
X2965Y14024D01*
Y12373D02*
Y14024D01*
Y12373D02*
X4824Y10513D01*
X6514D01*
X9646Y7382D01*
X9843D01*
X10839Y11540D02*
Y14024D01*
Y11540D02*
X12225Y10153D01*
X10827Y14035D02*
X10839Y14024D01*
X12225Y10153D02*
X12225D01*
X13780Y8599D01*
Y2067D02*
Y8599D01*
X9843Y2067D02*
X13780D01*
X16929D01*
X12795Y14035D02*
X12807Y14024D01*
Y12304D02*
X15461Y9650D01*
X12807Y12304D02*
Y14024D01*
X12795Y14035D02*
Y17717D01*
X2953Y14035D02*
Y17717D01*
X15461Y8653D02*
Y9650D01*
Y8653D02*
X16732Y7382D01*
X16929D01*
X-24758Y28203D02*
Y28248D01*
X-24803D02*
X-24758D01*
X13488Y42323D02*
Y44307D01*
X12902Y44893D02*
X13488Y44307D01*
X-984Y44893D02*
X12902D01*
X13488Y18409D02*
Y28543D01*
X-13397Y38386D02*
Y44307D01*
Y26575D02*
Y38386D01*
X-12811Y44893D02*
X-984D01*
X-13397Y44307D02*
X-12811Y44893D01*
X-13397Y18302D02*
Y26575D01*
Y18302D02*
X-12811Y17717D01*
X2953D02*
X12795D01*
X-12811D02*
X2953D01*
X12795D02*
X13488Y18409D01*
X10343Y-28157D02*
Y-27961D01*
Y-28157D02*
X11614Y-29429D01*
X8366Y-25984D02*
X10343Y-27961D01*
X11614Y-29429D02*
X11811D01*
X6083Y-18504D02*
X7552D01*
X8843Y-17213D01*
X787Y-20079D02*
X6083D01*
X11417D01*
X11811Y-24114D02*
Y-20472D01*
Y-17618D01*
X11614Y-12303D02*
X11811D01*
X8843Y-15075D02*
X11614Y-12303D01*
X8843Y-17213D02*
Y-15075D01*
X11417Y-20079D02*
X11811Y-20472D01*
X-3823Y-25587D02*
Y-25004D01*
X-3870Y-25634D02*
X-3823Y-25587D01*
X-3870Y-26882D02*
Y-25634D01*
X-3937Y-26949D02*
X-3870Y-26882D01*
X-3823Y-25004D02*
X0Y-21181D01*
X-3937Y-30020D02*
Y-26949D01*
Y-30020D02*
X-2657Y-31299D01*
X0Y-20866D02*
X787Y-20079D01*
X0Y-21181D02*
Y-20866D01*
X-6083Y-23228D02*
X-2362D01*
X3937Y-30020D02*
Y-26949D01*
X2657Y-31299D02*
X3937Y-30020D01*
X7552Y-21654D02*
X8366Y-22468D01*
X6083Y-21654D02*
X7552D01*
X8366Y-25984D02*
Y-22468D01*
X59055Y0D02*
X59047Y1000D01*
X59021Y2000D01*
X58979Y2999D01*
X58920Y3997D01*
X58843Y4995D01*
X58750Y5991D01*
X58641Y6985D01*
X58514Y7977D01*
X58371Y8967D01*
X58210Y9954D01*
X58033Y10938D01*
X57840Y11919D01*
X57630Y12897D01*
X57403Y13871D01*
X57160Y14841D01*
X56900Y15807D01*
X56624Y16769D01*
X56332Y17725D01*
X56024Y18677D01*
X55700Y19623D01*
X55359Y20563D01*
X55003Y21498D01*
X54631Y22426D01*
X54244Y23348D01*
X53841Y24263D01*
X53422Y25172D01*
X52988Y26073D01*
X52539Y26966D01*
X52075Y27852D01*
X51595Y28730D01*
X51101Y29600D01*
X50593Y30461D01*
X50070Y31313D01*
X49532Y32157D01*
X48981Y32991D01*
X48415Y33816D01*
X47835Y34631D01*
X47242Y35436D01*
X46635Y36231D01*
X46015Y37015D01*
X45381Y37789D01*
X44735Y38552D01*
X44076Y39305D01*
X43404Y40045D01*
X42719Y40775D01*
X42023Y41492D01*
X41314Y42198D01*
X40593Y42892D01*
X39861Y43573D01*
X39118Y44242D01*
X38363Y44898D01*
X37597Y45541D01*
X36820Y46171D01*
X36033Y46788D01*
X35236Y47392D01*
X34428Y47982D01*
X33610Y48558D01*
X32783Y49120D01*
X31947Y49668D01*
X31101Y50202D01*
X30246Y50721D01*
X29383Y51226D01*
X28511Y51717D01*
X27631Y52192D01*
X26744Y52653D01*
X25848Y53098D01*
X24945Y53528D01*
X24035Y53943D01*
X23118Y54342D01*
X22195Y54726D01*
X21264Y55094D01*
X20328Y55446D01*
X19387Y55782D01*
X18439Y56103D01*
X17486Y56407D01*
X16529Y56695D01*
X15566Y56967D01*
X14599Y57222D01*
X13628Y57461D01*
X12653Y57684D01*
X11674Y57890D01*
X10692Y58079D01*
X9707Y58252D01*
X8719Y58408D01*
X7729Y58547D01*
X6736Y58670D01*
X5742Y58775D01*
X4746Y58864D01*
X3748Y58936D01*
X2749Y58991D01*
X1750Y59029D01*
X750Y59050D01*
X-250Y59055D01*
X-1250Y59042D01*
X-2250Y59012D01*
X-3249Y58966D01*
X-4247Y58902D01*
X-5244Y58822D01*
X-6239Y58725D01*
X-7233Y58610D01*
X-8224Y58480D01*
X-9214Y58332D01*
X-10200Y58167D01*
X-11184Y57986D01*
X-12164Y57789D01*
X-13141Y57574D01*
X-14114Y57344D01*
X-15083Y57096D01*
X-16048Y56833D01*
X-17008Y56553D01*
X-17964Y56257D01*
X-18914Y55944D01*
X-19858Y55616D01*
X-20797Y55272D01*
X-21731Y54912D01*
X-22657Y54536D01*
X-23578Y54144D01*
X-24491Y53737D01*
X-25398Y53315D01*
X-26297Y52877D01*
X-27189Y52424D01*
X-28073Y51956D01*
X-28948Y51473D01*
X-29816Y50976D01*
X-30675Y50463D01*
X-31525Y49937D01*
X-32366Y49396D01*
X-33198Y48840D01*
X-34021Y48271D01*
X-34833Y47688D01*
X-35636Y47091D01*
X-36428Y46481D01*
X-37210Y45858D01*
X-37981Y45221D01*
X-38742Y44571D01*
X-39491Y43909D01*
X-40229Y43234D01*
X-40955Y42546D01*
X-41670Y41846D01*
X-42373Y41135D01*
X-43063Y40411D01*
X-43741Y39676D01*
X-44407Y38930D01*
X-45060Y38172D01*
X-45700Y37404D01*
X-46327Y36624D01*
X-46940Y35835D01*
X-47541Y35034D01*
X-48127Y34224D01*
X-48700Y33404D01*
X-49258Y32575D01*
X-49803Y31736D01*
X-50333Y30888D01*
X-50849Y30031D01*
X-51350Y29166D01*
X-51837Y28292D01*
X-52309Y27410D01*
X-52765Y26520D01*
X-53207Y25623D01*
X-53633Y24718D01*
X-54044Y23806D01*
X-54440Y22888D01*
X-54819Y21962D01*
X-55183Y21031D01*
X-55532Y20093D01*
X-55864Y19150D01*
X-56180Y18201D01*
X-56480Y17247D01*
X-56764Y16288D01*
X-57032Y15325D01*
X-57284Y14357D01*
X-57518Y13384D01*
X-57737Y12408D01*
X-57939Y11429D01*
X-58124Y10446D01*
X-58293Y9460D01*
X-58444Y8472D01*
X-58579Y7481D01*
X-58698Y6488D01*
X-58799Y5493D01*
X-58884Y4496D01*
X-58951Y3498D01*
X-59002Y2499D01*
X-59036Y1500D01*
X-59053Y500D01*
X-59053Y-500D01*
X-59036Y-1500D01*
X-59002Y-2500D01*
X-58951Y-3499D01*
X-58884Y-4497D01*
X-58799Y-5493D01*
X-58698Y-6488D01*
X-58579Y-7481D01*
X-58444Y-8472D01*
X-58292Y-9461D01*
X-58124Y-10447D01*
X-57938Y-11429D01*
X-57737Y-12409D01*
X-57518Y-13385D01*
X-57283Y-14357D01*
X-57032Y-15325D01*
X-56764Y-16289D01*
X-56480Y-17248D01*
X-56180Y-18202D01*
X-55864Y-19151D01*
X-55532Y-20094D01*
X-55183Y-21031D01*
X-54819Y-21963D01*
X-54439Y-22888D01*
X-54044Y-23807D01*
X-53633Y-24719D01*
X-53207Y-25623D01*
X-52765Y-26521D01*
X-52308Y-27411D01*
X-51837Y-28292D01*
X-51350Y-29166D01*
X-50849Y-30032D01*
X-50333Y-30889D01*
X-49803Y-31736D01*
X-49258Y-32575D01*
X-48699Y-33405D01*
X-48127Y-34225D01*
X-47540Y-35035D01*
X-46940Y-35835D01*
X-46326Y-36625D01*
X-45700Y-37404D01*
X-45059Y-38173D01*
X-44407Y-38930D01*
X-43741Y-39677D01*
X-43063Y-40412D01*
X-42372Y-41135D01*
X-41669Y-41847D01*
X-40955Y-42546D01*
X-40229Y-43234D01*
X-39491Y-43909D01*
X-38741Y-44572D01*
X-37981Y-45221D01*
X-37210Y-45858D01*
X-36428Y-46481D01*
X-35635Y-47092D01*
X-34833Y-47688D01*
X-34020Y-48272D01*
X-33198Y-48841D01*
X-32366Y-49396D01*
X-31525Y-49937D01*
X-30674Y-50464D01*
X-29816Y-50976D01*
X-28948Y-51473D01*
X-28072Y-51956D01*
X-27188Y-52424D01*
X-26296Y-52877D01*
X-25397Y-53315D01*
X-24491Y-53737D01*
X-23577Y-54145D01*
X-22657Y-54536D01*
X-21730Y-54912D01*
X-20797Y-55272D01*
X-19858Y-55616D01*
X-18913Y-55945D01*
X-17963Y-56257D01*
X-17008Y-56553D01*
X-16048Y-56833D01*
X-15083Y-57097D01*
X-14114Y-57344D01*
X-13141Y-57575D01*
X-12164Y-57789D01*
X-11183Y-57986D01*
X-10200Y-58168D01*
X-9213Y-58332D01*
X-8224Y-58480D01*
X-7232Y-58611D01*
X-6239Y-58725D01*
X-5244Y-58822D01*
X-4247Y-58902D01*
X-3249Y-58966D01*
X-2249Y-59012D01*
X-1250Y-59042D01*
X-250Y-59055D01*
X750Y-59050D01*
X1750Y-59029D01*
X2750Y-58991D01*
X3748Y-58936D01*
X4746Y-58864D01*
X5742Y-58775D01*
X6736Y-58670D01*
X7729Y-58547D01*
X8719Y-58408D01*
X9707Y-58252D01*
X10692Y-58079D01*
X11674Y-57890D01*
X12653Y-57684D01*
X13628Y-57461D01*
X14599Y-57222D01*
X15566Y-56967D01*
X16529Y-56695D01*
X17486Y-56407D01*
X18439Y-56103D01*
X19387Y-55782D01*
X20328Y-55446D01*
X21264Y-55094D01*
X22195Y-54726D01*
X23118Y-54342D01*
X24035Y-53943D01*
X24945Y-53528D01*
X25848Y-53098D01*
X26744Y-52653D01*
X27631Y-52192D01*
X28511Y-51717D01*
X29383Y-51227D01*
X30246Y-50722D01*
X31101Y-50202D01*
X31947Y-49668D01*
X32783Y-49120D01*
X33610Y-48558D01*
X34428Y-47982D01*
X35235Y-47392D01*
X36033Y-46788D01*
X36820Y-46171D01*
X37597Y-45541D01*
X38363Y-44898D01*
X39117Y-44242D01*
X39861Y-43573D01*
X40593Y-42892D01*
X41314Y-42198D01*
X42022Y-41493D01*
X42719Y-40775D01*
X43403Y-40046D01*
X44075Y-39305D01*
X44735Y-38553D01*
X45381Y-37790D01*
X46014Y-37016D01*
X46635Y-36231D01*
X47242Y-35436D01*
X47835Y-34631D01*
X48415Y-33816D01*
X48980Y-32991D01*
X49532Y-32157D01*
X50069Y-31314D01*
X50593Y-30461D01*
X51101Y-29600D01*
X51595Y-28731D01*
X52074Y-27853D01*
X52539Y-26967D01*
X52988Y-26073D01*
X53422Y-25172D01*
X53840Y-24264D01*
X54243Y-23349D01*
X54631Y-22427D01*
X55003Y-21498D01*
X55359Y-20564D01*
X55699Y-19623D01*
X56024Y-18677D01*
X56332Y-17726D01*
X56624Y-16769D01*
X56900Y-15808D01*
X57160Y-14842D01*
X57403Y-13872D01*
X57629Y-12898D01*
X57840Y-11920D01*
X58033Y-10939D01*
X58210Y-9955D01*
X58370Y-8967D01*
X58514Y-7978D01*
X58640Y-6986D01*
X58750Y-5991D01*
X58843Y-4996D01*
X58920Y-3999D01*
X58979Y-3000D01*
X59021Y-2001D01*
X59047Y-1001D01*
X59055Y-1D01*
Y0D01*
D29*
X26772Y35335D02*
D03*
Y30020D02*
D03*
X18110Y-31398D02*
D03*
Y-26083D02*
D03*
X11811Y-49713D02*
D03*
Y-44398D02*
D03*
X5512D02*
D03*
Y-49713D02*
D03*
X16929Y2067D02*
D03*
Y7382D02*
D03*
X-23228Y35531D02*
D03*
Y40846D02*
D03*
X9843Y2067D02*
D03*
Y7382D02*
D03*
X-24803Y28248D02*
D03*
Y22933D02*
D03*
X11811Y-12303D02*
D03*
Y-17618D02*
D03*
Y-24114D02*
D03*
Y-29429D02*
D03*
D37*
X26772Y41535D02*
D03*
Y46654D02*
D03*
X-14567Y-45472D02*
D03*
Y-50591D02*
D03*
X18110Y-12205D02*
D03*
Y-7087D02*
D03*
X-11024Y-27362D02*
D03*
Y-22244D02*
D03*
D38*
X31255Y-41163D02*
D03*
X45276Y23355D02*
D03*
X48850Y16339D02*
D03*
D39*
X24651Y-45451D02*
D03*
D40*
X41701Y30370D02*
D03*
D41*
X-29528Y-4331D02*
D03*
X-24803Y-7874D02*
D03*
X21130Y32965D02*
D03*
X-8665Y10366D02*
D03*
X0Y41339D02*
D03*
X-9449Y22047D02*
D03*
X9055Y22441D02*
D03*
X0Y31496D02*
D03*
X-13264Y-5268D02*
D03*
X-9895Y-14775D02*
D03*
X-19685Y-39370D02*
D03*
X51575Y-1575D02*
D03*
X-23228Y-394D02*
D03*
X-15748Y8661D02*
D03*
X-20849Y14156D02*
D03*
X-28740Y31102D02*
D03*
X-17421Y-18110D02*
D03*
X-22736D02*
D03*
X-17421Y-24409D02*
D03*
X-20866Y-8268D02*
D03*
X-25984Y-34252D02*
D03*
X30315Y-32283D02*
D03*
X30029Y-28346D02*
D03*
X-24803Y22835D02*
D03*
X18504Y49606D02*
D03*
X15756Y53150D02*
D03*
X33858Y18898D02*
D03*
X3937Y53543D02*
D03*
X21654Y46457D02*
D03*
X1746Y9522D02*
D03*
X18110Y-12205D02*
D03*
X35600Y-11024D02*
D03*
X-19858Y-34252D02*
D03*
X18110Y-25984D02*
D03*
X10630Y-37795D02*
D03*
X11811Y-44488D02*
D03*
X5512D02*
D03*
X-4724Y-45669D02*
D03*
X28120Y-20531D02*
D03*
X11811Y-17618D02*
D03*
Y-24114D02*
D03*
X0Y-21181D02*
D03*
X16929Y2067D02*
D03*
X9843D02*
D03*
X-5807Y54724D02*
D03*
X-24758Y28203D02*
D03*
X-23228Y35531D02*
D03*
D42*
X-23031Y-335D02*
D03*
X28120Y-20531D02*
D03*
D43*
X-20079Y3543D02*
D03*
X-22047D02*
D03*
X-24016D02*
D03*
X-25984D02*
D03*
Y-4213D02*
D03*
X-24016D02*
D03*
X-22047D02*
D03*
X-20079D02*
D03*
X31073Y-16654D02*
D03*
X29104D02*
D03*
X27136D02*
D03*
X25167D02*
D03*
Y-24409D02*
D03*
X27136D02*
D03*
X29104D02*
D03*
X31073D02*
D03*
D44*
X-22736Y-18110D02*
D03*
X-17421D02*
D03*
Y-24409D02*
D03*
X-22736D02*
D03*
X-14272Y-39370D02*
D03*
X-19587D02*
D03*
X10531Y-37795D02*
D03*
X5217D02*
D03*
X36092Y-17382D02*
D03*
X41407D02*
D03*
Y-23681D02*
D03*
X36092D02*
D03*
X-5807Y54724D02*
D03*
X-492D02*
D03*
X2657Y-31496D02*
D03*
X-2657D02*
D03*
D45*
X-15551Y8661D02*
D03*
X-20669D02*
D03*
X35600Y-11024D02*
D03*
X30482D02*
D03*
D46*
X-984Y-39567D02*
D03*
X-8465D02*
D03*
Y-50197D02*
D03*
X-4724D02*
D03*
X-984D02*
D03*
D47*
X17461Y46260D02*
D03*
Y44291D02*
D03*
Y42323D02*
D03*
Y40354D02*
D03*
Y38386D02*
D03*
Y36417D02*
D03*
Y34449D02*
D03*
Y32480D02*
D03*
Y30512D02*
D03*
Y28543D02*
D03*
Y26575D02*
D03*
Y24606D02*
D03*
Y22638D02*
D03*
Y20669D02*
D03*
Y18701D02*
D03*
Y16732D02*
D03*
X-17461D02*
D03*
Y18701D02*
D03*
Y20669D02*
D03*
Y22638D02*
D03*
Y24606D02*
D03*
Y26575D02*
D03*
Y28543D02*
D03*
Y30512D02*
D03*
Y32480D02*
D03*
Y34449D02*
D03*
Y36417D02*
D03*
Y38386D02*
D03*
Y40354D02*
D03*
Y42323D02*
D03*
Y44291D02*
D03*
Y46260D02*
D03*
D48*
X-14764Y48957D02*
D03*
X-12795D02*
D03*
X-10827D02*
D03*
X-8858D02*
D03*
X-6890D02*
D03*
X-4921D02*
D03*
X-2953D02*
D03*
X-984D02*
D03*
X984D02*
D03*
X2953D02*
D03*
X4921D02*
D03*
X6890D02*
D03*
X8858D02*
D03*
X10827D02*
D03*
X12795D02*
D03*
X14764D02*
D03*
Y14035D02*
D03*
X12795D02*
D03*
X10827D02*
D03*
X8858D02*
D03*
X6890D02*
D03*
X4921D02*
D03*
X2953D02*
D03*
X984D02*
D03*
X-984D02*
D03*
X-2953D02*
D03*
X-4921D02*
D03*
X-6890D02*
D03*
X-8858D02*
D03*
X-10827D02*
D03*
X-12795D02*
D03*
X-14764D02*
D03*
D49*
X0Y31496D02*
D03*
D50*
X-6083Y-16929D02*
D03*
Y-18504D02*
D03*
Y-20079D02*
D03*
Y-21654D02*
D03*
Y-23228D02*
D03*
Y-24803D02*
D03*
X6083D02*
D03*
Y-23228D02*
D03*
Y-21654D02*
D03*
Y-20079D02*
D03*
Y-18504D02*
D03*
Y-16929D02*
D03*
D51*
X-3937Y-26949D02*
D03*
X-2362D02*
D03*
X-787D02*
D03*
X787D02*
D03*
X2362D02*
D03*
X3937D02*
D03*
Y-14784D02*
D03*
X2362D02*
D03*
X787D02*
D03*
X-787D02*
D03*
X-2362D02*
D03*
X-3937D02*
D03*
D52*
X0Y-20866D02*
D03*
M02*
