G04*
G04 #@! TF.GenerationSoftware,Altium Limited,Altium Designer,21.6.4 (81)*
G04*
G04 Layer_Color=8388736*
%FSLAX25Y25*%
%MOIN*%
G70*
G04*
G04 #@! TF.SameCoordinates,39ED8DF4-1AB1-48CE-A144-1D3AFD55C284*
G04*
G04*
G04 #@! TF.FilePolarity,Negative*
G04*
G01*
G75*
%ADD11C,0.01000*%
%ADD12R,0.02572X0.02965*%
%ADD13R,0.01981X0.03950*%
%ADD14R,0.01981X0.02965*%
%ADD15R,0.02965X0.02572*%
G36*
X589532Y4724D02*
X2362D01*
Y6854D01*
X589532D01*
Y4724D01*
D02*
G37*
G36*
Y-6854D02*
X2362D01*
Y-4724D01*
X589532D01*
Y-6854D01*
D02*
G37*
D11*
X590551Y-7874D02*
Y7874D01*
X-0Y-7874D02*
X590551D01*
X-0D02*
Y7874D01*
X590551D01*
D12*
X587303Y-2657D02*
D03*
Y2657D02*
D03*
X581988D02*
D03*
Y-2657D02*
D03*
X579482D02*
D03*
Y2657D02*
D03*
X574167D02*
D03*
Y-2657D02*
D03*
X571661D02*
D03*
Y2657D02*
D03*
X566346D02*
D03*
Y-2657D02*
D03*
X563840D02*
D03*
Y2657D02*
D03*
X558526D02*
D03*
Y-2657D02*
D03*
X556020D02*
D03*
Y2657D02*
D03*
X550705D02*
D03*
Y-2657D02*
D03*
X548199D02*
D03*
Y2657D02*
D03*
X542884D02*
D03*
Y-2657D02*
D03*
X540378D02*
D03*
Y2657D02*
D03*
X535063D02*
D03*
Y-2657D02*
D03*
X532557D02*
D03*
Y2657D02*
D03*
X527242D02*
D03*
Y-2657D02*
D03*
X524736D02*
D03*
Y2657D02*
D03*
X519421D02*
D03*
Y-2657D02*
D03*
X516916D02*
D03*
Y2657D02*
D03*
X511601D02*
D03*
Y-2657D02*
D03*
X509095D02*
D03*
Y2657D02*
D03*
X503780D02*
D03*
Y-2657D02*
D03*
X501274D02*
D03*
Y2657D02*
D03*
X495959D02*
D03*
Y-2657D02*
D03*
X493453D02*
D03*
Y2657D02*
D03*
X488138D02*
D03*
Y-2657D02*
D03*
X485632D02*
D03*
Y2657D02*
D03*
X480317D02*
D03*
Y-2657D02*
D03*
X477811D02*
D03*
Y2657D02*
D03*
X472497D02*
D03*
Y-2657D02*
D03*
X469991D02*
D03*
Y2657D02*
D03*
X464676D02*
D03*
Y-2657D02*
D03*
X462170D02*
D03*
Y2657D02*
D03*
X456855D02*
D03*
Y-2657D02*
D03*
X454349D02*
D03*
Y2657D02*
D03*
X449034D02*
D03*
Y-2657D02*
D03*
X446528D02*
D03*
Y2657D02*
D03*
X441213D02*
D03*
Y-2657D02*
D03*
X438707D02*
D03*
Y2657D02*
D03*
X433392D02*
D03*
Y-2657D02*
D03*
X430887D02*
D03*
Y2657D02*
D03*
X425572D02*
D03*
Y-2657D02*
D03*
X423066D02*
D03*
Y2657D02*
D03*
X417751D02*
D03*
Y-2657D02*
D03*
X415245D02*
D03*
Y2657D02*
D03*
X409930D02*
D03*
Y-2657D02*
D03*
X407424D02*
D03*
Y2657D02*
D03*
X402109D02*
D03*
Y-2657D02*
D03*
X399604D02*
D03*
Y2657D02*
D03*
X394288D02*
D03*
Y-2657D02*
D03*
X3248D02*
D03*
X8563D02*
D03*
X11069D02*
D03*
X16384D02*
D03*
X18890D02*
D03*
X24205D02*
D03*
X26711D02*
D03*
X32025D02*
D03*
X34531D02*
D03*
X39846D02*
D03*
X42352D02*
D03*
X47667D02*
D03*
X50173D02*
D03*
X55488D02*
D03*
X57994D02*
D03*
X63309D02*
D03*
X65815D02*
D03*
X71130D02*
D03*
X73635D02*
D03*
X78950D02*
D03*
X81456D02*
D03*
X86771D02*
D03*
X89277D02*
D03*
X94592D02*
D03*
X97098D02*
D03*
X102413D02*
D03*
X104919D02*
D03*
X110233D02*
D03*
X112739D02*
D03*
X118054D02*
D03*
X120560D02*
D03*
X125875D02*
D03*
X128381D02*
D03*
X133696D02*
D03*
X136202D02*
D03*
X141517D02*
D03*
X144023D02*
D03*
X149337D02*
D03*
X151843D02*
D03*
X157158D02*
D03*
X159664D02*
D03*
X164979D02*
D03*
X167485D02*
D03*
X172800D02*
D03*
X175306D02*
D03*
X180621D02*
D03*
X183127D02*
D03*
X188442D02*
D03*
X190947D02*
D03*
X196263D02*
D03*
X198768D02*
D03*
X204083D02*
D03*
X206589D02*
D03*
X211904D02*
D03*
X214410D02*
D03*
X222231D02*
D03*
X219725D02*
D03*
X227546D02*
D03*
X230051D02*
D03*
X235367D02*
D03*
X237872D02*
D03*
X243187D02*
D03*
X245693D02*
D03*
X251008D02*
D03*
X253514D02*
D03*
X258829D02*
D03*
X261335D02*
D03*
X266650D02*
D03*
X269156D02*
D03*
X274470D02*
D03*
X276976D02*
D03*
X282291D02*
D03*
X284797D02*
D03*
X290112D02*
D03*
X292618D02*
D03*
X297933D02*
D03*
X300439D02*
D03*
X305754D02*
D03*
X308260D02*
D03*
X313575D02*
D03*
X316080D02*
D03*
X321395D02*
D03*
X323901D02*
D03*
X329216D02*
D03*
X331722D02*
D03*
X337037D02*
D03*
X339543D02*
D03*
X344858D02*
D03*
X347364D02*
D03*
X352679D02*
D03*
X355185D02*
D03*
X360500D02*
D03*
X363005D02*
D03*
X368320D02*
D03*
X370826D02*
D03*
X376141D02*
D03*
X378647D02*
D03*
X383962D02*
D03*
X386468D02*
D03*
X391783D02*
D03*
X3248Y2657D02*
D03*
X8563D02*
D03*
X11069D02*
D03*
X16384D02*
D03*
X18890D02*
D03*
X24205D02*
D03*
X26711D02*
D03*
X32025D02*
D03*
X34531D02*
D03*
X39846D02*
D03*
X42352D02*
D03*
X47667D02*
D03*
X50173D02*
D03*
X55488D02*
D03*
X57994D02*
D03*
X63309D02*
D03*
X65815D02*
D03*
X71130D02*
D03*
X73635D02*
D03*
X78950D02*
D03*
X81456D02*
D03*
X86771D02*
D03*
X89277D02*
D03*
X94592D02*
D03*
X97098D02*
D03*
X102413D02*
D03*
X104919D02*
D03*
X110233D02*
D03*
X112739D02*
D03*
X118054D02*
D03*
X120560D02*
D03*
X125875D02*
D03*
X128381D02*
D03*
X133696D02*
D03*
X136202D02*
D03*
X141517D02*
D03*
X144023D02*
D03*
X149337D02*
D03*
X151843D02*
D03*
X157158D02*
D03*
X159664D02*
D03*
X164979D02*
D03*
X167485D02*
D03*
X172800D02*
D03*
X175306D02*
D03*
X180621D02*
D03*
X183127D02*
D03*
X188442D02*
D03*
X190947D02*
D03*
X196263D02*
D03*
X198768D02*
D03*
X204083D02*
D03*
X206589D02*
D03*
X211904D02*
D03*
X214410D02*
D03*
X222231D02*
D03*
X219725D02*
D03*
X227546D02*
D03*
X230051D02*
D03*
X235367D02*
D03*
X237872D02*
D03*
X243187D02*
D03*
X245693D02*
D03*
X251008D02*
D03*
X253514D02*
D03*
X258829D02*
D03*
X261335D02*
D03*
X266650D02*
D03*
X269156D02*
D03*
X274470D02*
D03*
X276976D02*
D03*
X282291D02*
D03*
X284797D02*
D03*
X290112D02*
D03*
X292618D02*
D03*
X297933D02*
D03*
X300439D02*
D03*
X305754D02*
D03*
X308260D02*
D03*
X313575D02*
D03*
X316080D02*
D03*
X321395D02*
D03*
X323901D02*
D03*
X329216D02*
D03*
X331722D02*
D03*
X337037D02*
D03*
X339543D02*
D03*
X344858D02*
D03*
X347364D02*
D03*
X352679D02*
D03*
X355185D02*
D03*
X360500D02*
D03*
X363005D02*
D03*
X368320D02*
D03*
X370826D02*
D03*
X376141D02*
D03*
X378647D02*
D03*
X383962D02*
D03*
X386468D02*
D03*
X391783D02*
D03*
D13*
X584646Y2165D02*
D03*
X576825D02*
D03*
X569004D02*
D03*
X561183D02*
D03*
X553362D02*
D03*
X545541D02*
D03*
X537720D02*
D03*
X529900D02*
D03*
X522079D02*
D03*
X514258D02*
D03*
X506437D02*
D03*
X498617D02*
D03*
X490796D02*
D03*
X482975D02*
D03*
X475154D02*
D03*
X467333D02*
D03*
X459513D02*
D03*
X451692D02*
D03*
X443871D02*
D03*
X436050D02*
D03*
X428229D02*
D03*
X420408D02*
D03*
X412588D02*
D03*
X404767D02*
D03*
X396946D02*
D03*
X389125D02*
D03*
X381304D02*
D03*
X373483D02*
D03*
X365663D02*
D03*
X357842D02*
D03*
X350021D02*
D03*
X342200D02*
D03*
X334380D02*
D03*
X326559D02*
D03*
X318738D02*
D03*
X310917D02*
D03*
X303096D02*
D03*
X295275D02*
D03*
X287455D02*
D03*
X279634D02*
D03*
X271813D02*
D03*
X263992D02*
D03*
X256171D02*
D03*
X248351D02*
D03*
X240530D02*
D03*
X232709D02*
D03*
X224888D02*
D03*
X217067D02*
D03*
X209246D02*
D03*
X201426D02*
D03*
X193605D02*
D03*
X185784D02*
D03*
X177963D02*
D03*
X170142D02*
D03*
X162322D02*
D03*
X13726D02*
D03*
X45009D02*
D03*
X146680D02*
D03*
X138859D02*
D03*
X131038D02*
D03*
X123218D02*
D03*
X115397D02*
D03*
X107576D02*
D03*
X99755D02*
D03*
X91934D02*
D03*
X84114D02*
D03*
X76293D02*
D03*
X68472D02*
D03*
X60651D02*
D03*
X52830D02*
D03*
X37189D02*
D03*
X29368D02*
D03*
X21547D02*
D03*
X5906D02*
D03*
X154501D02*
D03*
D14*
X584646Y-2657D02*
D03*
X576825D02*
D03*
X569004D02*
D03*
X561183D02*
D03*
X553362D02*
D03*
X545541D02*
D03*
X537720D02*
D03*
X529900D02*
D03*
X522079D02*
D03*
X514258D02*
D03*
X506437D02*
D03*
X498617D02*
D03*
X490796D02*
D03*
X482975D02*
D03*
X475154D02*
D03*
X467333D02*
D03*
X459513D02*
D03*
X451692D02*
D03*
X443871D02*
D03*
X436050D02*
D03*
X428229D02*
D03*
X420408D02*
D03*
X412588D02*
D03*
X404767D02*
D03*
X396946D02*
D03*
X389125D02*
D03*
X381304D02*
D03*
X373483D02*
D03*
X365663D02*
D03*
X357842D02*
D03*
X350021D02*
D03*
X342200D02*
D03*
X334380D02*
D03*
X326559D02*
D03*
X318738D02*
D03*
X310917D02*
D03*
X303096D02*
D03*
X295275D02*
D03*
X287455D02*
D03*
X279634D02*
D03*
X271813D02*
D03*
X263992D02*
D03*
X256171D02*
D03*
X248351D02*
D03*
X240530D02*
D03*
X232709D02*
D03*
X224888D02*
D03*
X217067D02*
D03*
X209246D02*
D03*
X201426D02*
D03*
X193605D02*
D03*
X185784D02*
D03*
X177963D02*
D03*
X170142D02*
D03*
X162322D02*
D03*
X13726D02*
D03*
X45009D02*
D03*
X146680D02*
D03*
X138859D02*
D03*
X131038D02*
D03*
X123218D02*
D03*
X115397D02*
D03*
X107576D02*
D03*
X99755D02*
D03*
X91934D02*
D03*
X84114D02*
D03*
X76293D02*
D03*
X68472D02*
D03*
X60651D02*
D03*
X52830D02*
D03*
X37189D02*
D03*
X29368D02*
D03*
X21547D02*
D03*
X5906D02*
D03*
X154501D02*
D03*
D15*
X589370Y-5906D02*
D03*
Y-1969D02*
D03*
Y1969D02*
D03*
Y5906D02*
D03*
X1181Y-5906D02*
D03*
Y-1969D02*
D03*
Y1969D02*
D03*
Y5906D02*
D03*
M02*
