G04*
G04 #@! TF.GenerationSoftware,Altium Limited,Altium Designer,21.6.4 (81)*
G04*
G04 Layer_Color=65535*
%FSLAX25Y25*%
%MOIN*%
G70*
G04*
G04 #@! TF.SameCoordinates,39ED8DF4-1AB1-48CE-A144-1D3AFD55C284*
G04*
G04*
G04 #@! TF.FilePolarity,Positive*
G04*
G01*
G75*
%ADD10C,0.00197*%
%ADD11C,0.01000*%
D10*
X580905Y6299D02*
X580709Y6496D01*
X580315D01*
X580118Y6299D01*
Y5512D01*
X580315Y5315D01*
X580709D01*
X580905Y5512D01*
Y5905D01*
X580512D01*
X581299Y5315D02*
Y6496D01*
X582086Y5315D01*
Y6496D01*
X582479D02*
Y5315D01*
X583070D01*
X583267Y5512D01*
Y6299D01*
X583070Y6496D01*
X582479D01*
X581299Y-5315D02*
X580512D01*
Y-5906D01*
X580905Y-5709D01*
X581102D01*
X581299Y-5906D01*
Y-6299D01*
X581102Y-6496D01*
X580709D01*
X580512Y-6299D01*
X581693Y-5315D02*
Y-6103D01*
X582086Y-6496D01*
X582480Y-6103D01*
Y-5315D01*
X586023Y-5118D02*
X585827Y-4922D01*
X585433D01*
X585236Y-5118D01*
Y-5906D01*
X585433Y-6102D01*
X585827D01*
X586023Y-5906D01*
X587007Y-4922D02*
X586614D01*
X586417Y-5118D01*
Y-5906D01*
X586614Y-6102D01*
X587007D01*
X587204Y-5906D01*
Y-5118D01*
X587007Y-4922D01*
X585342Y6118D02*
Y4937D01*
X585933D01*
X586129Y5134D01*
Y5921D01*
X585933Y6118D01*
X585342D01*
X587113D02*
X586720D01*
X586523Y5921D01*
Y5134D01*
X586720Y4937D01*
X587113D01*
X587310Y5134D01*
Y5921D01*
X587113Y6118D01*
X4248Y5921D02*
X4051Y6118D01*
X3657D01*
X3461Y5921D01*
Y5134D01*
X3657Y4937D01*
X4051D01*
X4248Y5134D01*
X4641Y6118D02*
X5035D01*
X4838D01*
Y4937D01*
X4641D01*
X5035D01*
X3461Y-5028D02*
Y-6209D01*
X4051D01*
X4248Y-6012D01*
Y-5225D01*
X4051Y-5028D01*
X3461D01*
X4641D02*
X5035D01*
X4838D01*
Y-6209D01*
X4641D01*
X5035D01*
X9252Y-5315D02*
X8465D01*
Y-5906D01*
X8858Y-5709D01*
X9055D01*
X9252Y-5906D01*
Y-6299D01*
X9055Y-6496D01*
X8661D01*
X8465Y-6299D01*
X9645Y-5315D02*
Y-6103D01*
X10039Y-6496D01*
X10432Y-6103D01*
Y-5315D01*
X8858Y6299D02*
X8661Y6496D01*
X8268D01*
X8071Y6299D01*
Y5512D01*
X8268Y5315D01*
X8661D01*
X8858Y5512D01*
Y5905D01*
X8464D01*
X9252Y5315D02*
Y6496D01*
X10039Y5315D01*
Y6496D01*
X10432D02*
Y5315D01*
X11023D01*
X11219Y5512D01*
Y6299D01*
X11023Y6496D01*
X10432D01*
D11*
X590551Y-7874D02*
Y7874D01*
X-0Y-7874D02*
X590551D01*
X-0D02*
Y7874D01*
X590551D01*
M02*
