G04*
G04 #@! TF.GenerationSoftware,Altium Limited,Altium Designer,22.10.1 (41)*
G04*
G04 Layer_Physical_Order=2*
G04 Layer_Color=36540*
%FSLAX25Y25*%
%MOIN*%
G70*
G04*
G04 #@! TF.SameCoordinates,8BF85E7B-6BD0-4BB0-81CB-12CC6FA11C7D*
G04*
G04*
G04 #@! TF.FilePolarity,Positive*
G04*
G01*
G75*
%ADD17C,0.00500*%
%ADD67O,0.05118X0.02559*%
%ADD68O,0.03051X0.06102*%
%ADD69C,0.03937*%
%ADD71C,0.01968*%
%ADD72C,0.01968*%
G36*
X11934Y33420D02*
Y31193D01*
X11845Y31128D01*
X11434Y31006D01*
X-4155Y46596D01*
X-4038Y47186D01*
X-3721Y47317D01*
X-3277Y47761D01*
X-2407D01*
X11934Y33420D01*
D02*
G37*
G36*
X17002Y21437D02*
X17500Y20939D01*
X18151Y20669D01*
X18856D01*
X19029Y20741D01*
X22729Y17041D01*
X22631Y16551D01*
X22435Y16469D01*
X21937Y15971D01*
X21667Y15320D01*
Y14615D01*
X21937Y13964D01*
X22312Y13590D01*
X21937Y13215D01*
X21667Y12564D01*
Y11859D01*
X21937Y11208D01*
X22435Y10710D01*
X23087Y10440D01*
X23706D01*
Y9833D01*
X23975Y9182D01*
X24474Y8684D01*
X25125Y8414D01*
X25830D01*
X26481Y8684D01*
X26789Y8992D01*
X27289Y8784D01*
Y1054D01*
X26844Y610D01*
X26575Y-41D01*
Y-58D01*
X26138Y-447D01*
X25813Y-420D01*
X25466Y-73D01*
X24815Y197D01*
X24110D01*
X23980Y143D01*
X23418Y405D01*
X23189Y748D01*
X10102Y13835D01*
X10294Y14297D01*
X12205D01*
X12609Y14377D01*
X12953Y14606D01*
X16083Y17737D01*
X16313Y18080D01*
X16393Y18485D01*
Y21601D01*
X16893Y21700D01*
X17002Y21437D01*
D02*
G37*
G36*
X-10362Y-23211D02*
X-10557Y-23406D01*
X-10827Y-24057D01*
Y-24762D01*
X-10557Y-25413D01*
X-10059Y-25911D01*
X-9408Y-26181D01*
X-8703D01*
X-8052Y-25911D01*
X-7607Y-25467D01*
X-6934D01*
X-197Y-32204D01*
Y-32833D01*
X73Y-33484D01*
X571Y-33982D01*
X834Y-34091D01*
X952Y-34681D01*
X-2680Y-38312D01*
X-15469D01*
X-15738Y-37812D01*
X-15551Y-37360D01*
Y-36656D01*
X-15821Y-36004D01*
X-16319Y-35506D01*
X-16970Y-35236D01*
X-17675D01*
X-18326Y-35506D01*
X-18825Y-36004D01*
X-19094Y-36656D01*
X-19594Y-36859D01*
X-20945Y-35509D01*
X-21288Y-35279D01*
X-21693Y-35199D01*
X-23148D01*
X-25141Y-33205D01*
Y-27217D01*
X-24697Y-26773D01*
X-24428Y-26122D01*
Y-25417D01*
X-24697Y-24766D01*
X-25196Y-24267D01*
X-25765Y-24031D01*
X-25977Y-23536D01*
X-25152Y-22711D01*
X-20018D01*
X-19811Y-23211D01*
X-20006Y-23406D01*
X-20276Y-24057D01*
Y-24762D01*
X-20006Y-25413D01*
X-19508Y-25911D01*
X-19249Y-26019D01*
X-19252Y-26026D01*
Y-26730D01*
X-18982Y-27382D01*
X-18484Y-27880D01*
X-17833Y-28150D01*
X-17128D01*
X-16477Y-27880D01*
X-15978Y-27382D01*
X-15709Y-26730D01*
Y-26026D01*
X-15978Y-25374D01*
X-16477Y-24876D01*
X-16735Y-24769D01*
X-16732Y-24762D01*
Y-24057D01*
X-17002Y-23406D01*
X-17197Y-23211D01*
X-16989Y-22711D01*
X-10570D01*
X-10362Y-23211D01*
D02*
G37*
G36*
X19322Y-21848D02*
X19665Y-22078D01*
X20070Y-22158D01*
X20480D01*
X20786Y-22559D01*
X20492Y-22853D01*
X20222Y-23504D01*
Y-24209D01*
X20492Y-24860D01*
X20936Y-25304D01*
Y-26780D01*
X14129Y-33588D01*
X3575D01*
X3241Y-33088D01*
X3347Y-32833D01*
Y-32128D01*
X3077Y-31477D01*
X2578Y-30978D01*
X1927Y-30709D01*
X1299D01*
X-5748Y-23662D01*
X-6091Y-23432D01*
X-6496Y-23352D01*
X-7607D01*
X-8052Y-22907D01*
X-8383Y-22770D01*
X-8486Y-22186D01*
X-6649Y-20349D01*
X17823D01*
X19322Y-21848D01*
D02*
G37*
G36*
X-29798Y-25648D02*
Y-31229D01*
X-30242Y-31674D01*
X-30512Y-32325D01*
Y-33030D01*
X-30242Y-33681D01*
X-29798Y-34125D01*
Y-45390D01*
X-30298Y-45660D01*
X-30750Y-45472D01*
X-31455D01*
X-32106Y-45742D01*
X-32604Y-46240D01*
X-32614Y-46265D01*
X-33114Y-46165D01*
Y-28311D01*
X-30260Y-25457D01*
X-29798Y-25648D01*
D02*
G37*
G36*
X-10130Y64158D02*
X-9923Y63658D01*
X-12559Y61022D01*
X-12788Y60679D01*
X-12869Y60274D01*
Y23101D01*
X-13313Y22657D01*
X-13583Y22006D01*
Y21301D01*
X-13313Y20650D01*
X-13184Y20521D01*
X-13208Y20400D01*
X-13707Y19901D01*
X-13976Y19250D01*
Y18545D01*
X-13707Y17894D01*
X-13208Y17396D01*
X-12557Y17126D01*
X-11852D01*
X-11201Y17396D01*
X-10757Y17840D01*
X-10456D01*
X-10015Y17399D01*
X-9672Y17170D01*
X-9268Y17089D01*
X-8409D01*
X-8004Y17170D01*
X-7661Y17399D01*
X-1766Y23294D01*
X-1176Y23177D01*
X-1108Y23012D01*
X-664Y22568D01*
Y20079D01*
X-583Y19674D01*
X-354Y19331D01*
X20096Y-1119D01*
Y-3437D01*
X20176Y-3842D01*
X20406Y-4185D01*
X20989Y-4769D01*
Y-17399D01*
X21070Y-17804D01*
X21299Y-18147D01*
X21981Y-18829D01*
X21774Y-19329D01*
X21642D01*
X20990Y-19599D01*
X20546Y-20043D01*
X20508D01*
X19009Y-18543D01*
X18666Y-18314D01*
X18261Y-18234D01*
X-7087D01*
X-7491Y-18314D01*
X-7835Y-18543D01*
X-9747Y-20456D01*
X-10030Y-20417D01*
X-10186Y-20106D01*
X-10242Y-19888D01*
X-9996Y-19294D01*
Y-18589D01*
X-10265Y-17938D01*
X-10764Y-17439D01*
X-11415Y-17170D01*
X-12120D01*
X-12771Y-17439D01*
X-13269Y-17938D01*
X-13539Y-18589D01*
Y-19294D01*
X-13269Y-19945D01*
X-13118Y-20096D01*
X-13326Y-20596D01*
X-16114D01*
X-16448Y-20096D01*
X-16339Y-19833D01*
Y-19128D01*
X-16608Y-18477D01*
X-17107Y-17978D01*
X-17758Y-17709D01*
X-18463D01*
X-19114Y-17978D01*
X-19558Y-18423D01*
X-25780D01*
X-26184Y-18503D01*
X-26527Y-18732D01*
X-34920Y-27125D01*
X-35149Y-27468D01*
X-35230Y-27873D01*
Y-50619D01*
X-35674Y-51063D01*
X-35944Y-51714D01*
Y-52419D01*
X-35674Y-53070D01*
X-35176Y-53569D01*
X-34525Y-53839D01*
X-33820D01*
X-33169Y-53569D01*
X-32670Y-53070D01*
X-32400Y-52419D01*
Y-51714D01*
X-32670Y-51063D01*
X-33114Y-50619D01*
Y-48323D01*
X-32614Y-48223D01*
X-32604Y-48248D01*
X-32106Y-48746D01*
X-31455Y-49016D01*
X-30750D01*
X-30298Y-48829D01*
X-29798Y-49098D01*
Y-59182D01*
X-30242Y-59626D01*
X-30512Y-60277D01*
Y-60982D01*
X-30242Y-61633D01*
X-29744Y-62132D01*
X-29093Y-62402D01*
X-28388D01*
X-27737Y-62132D01*
X-27238Y-61633D01*
X-26969Y-60982D01*
Y-60277D01*
X-27238Y-59626D01*
X-27682Y-59182D01*
Y-34586D01*
X-27492Y-34435D01*
X-26947Y-34391D01*
X-24236Y-37103D01*
X-24179Y-37141D01*
X-24032Y-37275D01*
X-24302Y-37926D01*
Y-38631D01*
X-24032Y-39282D01*
X-23534Y-39780D01*
X-22883Y-40050D01*
X-22178D01*
X-21636Y-39826D01*
X-21136Y-40043D01*
Y-50743D01*
X-22795Y-52402D01*
X-23024Y-52745D01*
X-23105Y-53150D01*
Y-56820D01*
X-23549Y-57264D01*
X-23819Y-57915D01*
Y-58620D01*
X-23549Y-59271D01*
X-23051Y-59770D01*
X-22400Y-60039D01*
X-21695D01*
X-21044Y-59770D01*
X-20545Y-59271D01*
X-20276Y-58620D01*
Y-57915D01*
X-20545Y-57264D01*
X-20989Y-56820D01*
Y-53588D01*
X-19331Y-51929D01*
X-19102Y-51586D01*
X-19021Y-51181D01*
Y-40428D01*
X-16225D01*
X-16018Y-40928D01*
X-16069Y-40979D01*
X-16339Y-41630D01*
Y-42335D01*
X-16069Y-42986D01*
X-15571Y-43484D01*
X-14919Y-43754D01*
X-14214D01*
X-13563Y-43484D01*
X-13065Y-42986D01*
X-12795Y-42335D01*
Y-41630D01*
X-13065Y-40979D01*
X-13116Y-40928D01*
X-12909Y-40428D01*
X-2242D01*
X-1837Y-40347D01*
X-1494Y-40118D01*
X523Y-38101D01*
X1072Y-38260D01*
X1255Y-38702D01*
X1753Y-39200D01*
X2405Y-39470D01*
X3109D01*
X3760Y-39200D01*
X4259Y-38702D01*
X4529Y-38050D01*
Y-37345D01*
X4259Y-36694D01*
X3768Y-36203D01*
X3769Y-36161D01*
X3878Y-35703D01*
X8028D01*
X8032Y-35709D01*
X8181Y-36203D01*
X7789Y-36595D01*
X7520Y-37246D01*
Y-37951D01*
X7789Y-38602D01*
X8288Y-39100D01*
X8939Y-39370D01*
X9644D01*
X10295Y-39100D01*
X10793Y-38602D01*
X11063Y-37951D01*
Y-37246D01*
X10793Y-36595D01*
X10402Y-36203D01*
X10551Y-35709D01*
X10555Y-35703D01*
X14567D01*
X14576Y-35702D01*
X14822Y-36162D01*
X7948Y-43037D01*
X1969D01*
X1564Y-43117D01*
X1221Y-43347D01*
X-2086Y-46654D01*
X-2715D01*
X-3366Y-46923D01*
X-3864Y-47422D01*
X-4134Y-48073D01*
Y-48778D01*
X-3864Y-49429D01*
X-3366Y-49927D01*
X-2715Y-50197D01*
X-2010D01*
X-1359Y-49927D01*
X-860Y-49429D01*
X-591Y-48778D01*
Y-48149D01*
X2407Y-45152D01*
X8386D01*
X8591Y-45111D01*
X8838Y-45572D01*
X7042Y-47368D01*
X3810D01*
X3366Y-46923D01*
X2715Y-46654D01*
X2010D01*
X1359Y-46923D01*
X860Y-47422D01*
X591Y-48073D01*
Y-48778D01*
X860Y-49429D01*
X1359Y-49927D01*
X2010Y-50197D01*
X2715D01*
X3366Y-49927D01*
X3810Y-49483D01*
X7480D01*
X7885Y-49402D01*
X8228Y-49173D01*
X25071Y-32331D01*
X25533Y-32522D01*
Y-37145D01*
X23662Y-39016D01*
X23432Y-39359D01*
X23352Y-39764D01*
Y-42520D01*
X23432Y-42924D01*
X23662Y-43268D01*
X24654Y-44260D01*
X24997Y-44489D01*
X25402Y-44570D01*
X27456D01*
X27663Y-45070D01*
X25079Y-47653D01*
X24451D01*
X23800Y-47923D01*
X23335Y-48388D01*
X23051Y-48104D01*
X22400Y-47835D01*
X21695D01*
X21044Y-48104D01*
X20545Y-48603D01*
X20276Y-49254D01*
Y-49959D01*
X20545Y-50610D01*
X21044Y-51108D01*
X21695Y-51378D01*
X22187D01*
X23155Y-52346D01*
X23498Y-52575D01*
X23903Y-52656D01*
X25703D01*
X26108Y-52575D01*
X26451Y-52346D01*
X32933Y-45864D01*
X33476Y-46029D01*
X33581Y-46559D01*
X34085Y-47313D01*
X34839Y-47817D01*
X35728Y-47993D01*
X36508D01*
Y-45669D01*
Y-43345D01*
X35728D01*
X34839Y-43522D01*
X34570Y-43702D01*
X34129Y-43466D01*
Y-39370D01*
X34048Y-38965D01*
X33819Y-38622D01*
X31873Y-36676D01*
Y-30701D01*
X32335Y-30509D01*
X32352Y-30527D01*
X33003Y-30796D01*
X33708D01*
X34359Y-30527D01*
X34857Y-30028D01*
X35127Y-29377D01*
Y-28672D01*
X34857Y-28021D01*
X34359Y-27523D01*
X33708Y-27253D01*
X33003D01*
X32352Y-27523D01*
X32335Y-27540D01*
X31873Y-27349D01*
Y-26424D01*
X32373Y-26217D01*
X32461Y-26305D01*
X33112Y-26575D01*
X33817D01*
X34468Y-26305D01*
X34966Y-25807D01*
X35236Y-25155D01*
Y-24451D01*
X34966Y-23800D01*
X34468Y-23301D01*
X33817Y-23031D01*
X33112D01*
X32461Y-23301D01*
X32373Y-23390D01*
X31873Y-23182D01*
Y-9555D01*
X31833Y-9358D01*
X31842Y-9090D01*
X32122Y-8745D01*
X32500Y-8589D01*
X32998Y-8090D01*
X33268Y-7439D01*
Y-6734D01*
X32998Y-6083D01*
X32500Y-5585D01*
X31848Y-5315D01*
X31144D01*
X30692Y-5502D01*
X30192Y-5232D01*
Y-4724D01*
X30111Y-4320D01*
X29882Y-3977D01*
X28533Y-2627D01*
X28755Y-2142D01*
X29350Y-1896D01*
X29848Y-1397D01*
X30118Y-746D01*
Y-41D01*
X29848Y610D01*
X29404Y1054D01*
Y12919D01*
X29324Y13324D01*
X29094Y13667D01*
X20276Y22486D01*
Y22793D01*
X20006Y23445D01*
X19508Y23943D01*
X18856Y24213D01*
X18151D01*
X17500Y23943D01*
X17002Y23445D01*
X16893Y23181D01*
X16393Y23281D01*
Y33401D01*
X18228Y35236D01*
X18856D01*
X19508Y35506D01*
X20006Y36004D01*
X20276Y36656D01*
Y37360D01*
X20006Y38011D01*
X19508Y38510D01*
X18856Y38780D01*
X18151D01*
X17500Y38510D01*
X17002Y38011D01*
X16732Y37360D01*
Y36732D01*
X14587Y34587D01*
X14448Y34378D01*
X14311Y34345D01*
X13984Y34352D01*
X13892Y34378D01*
X13740Y34606D01*
X-1221Y49567D01*
X-1564Y49796D01*
X-1969Y49877D01*
X-3277D01*
X-3721Y50321D01*
X-4372Y50591D01*
X-5077D01*
X-5728Y50321D01*
X-6110Y49939D01*
X-6561Y49966D01*
X-6684Y50018D01*
X-6766Y50216D01*
X-7264Y50714D01*
X-7915Y50984D01*
X-8620D01*
X-9271Y50714D01*
X-9770Y50216D01*
X-10039Y49565D01*
Y48860D01*
X-9770Y48209D01*
X-9271Y47711D01*
X-8620Y47441D01*
X-7992D01*
X9733Y29716D01*
Y25561D01*
X9439Y25266D01*
X8931Y25124D01*
X8280Y25394D01*
X7575D01*
X7379Y25313D01*
X6963Y25590D01*
Y26556D01*
X6883Y26961D01*
X6653Y27304D01*
X5257Y28701D01*
X4914Y28930D01*
X4509Y29010D01*
X1397D01*
X992Y28930D01*
X649Y28701D01*
X-6390Y21662D01*
X-6890Y21869D01*
Y22238D01*
X-7159Y22889D01*
X-7658Y23387D01*
X-8309Y23657D01*
X-9014D01*
X-9665Y23387D01*
X-10163Y22889D01*
X-10657Y23005D01*
X-10753Y23101D01*
Y53720D01*
X-10266Y53834D01*
X-9875Y53158D01*
X-9323Y52605D01*
X-8646Y52214D01*
X-8000Y52041D01*
Y54980D01*
X-7000D01*
Y52041D01*
X-6354Y52214D01*
X-5677Y52605D01*
X-5177Y53105D01*
X-5048Y53155D01*
X-4557Y53140D01*
X-4192Y52775D01*
X-3564Y52412D01*
X-2863Y52224D01*
X-2137D01*
X-1436Y52412D01*
X-808Y52775D01*
X-295Y53288D01*
X-250Y53366D01*
X250D01*
X295Y53288D01*
X808Y52775D01*
X1436Y52412D01*
X2137Y52224D01*
X2863D01*
X3564Y52412D01*
X4192Y52775D01*
X4557Y53140D01*
X5048Y53155D01*
X5177Y53105D01*
X5677Y52605D01*
X6354Y52214D01*
X7000Y52041D01*
Y54980D01*
X7500D01*
Y55480D01*
X10439D01*
X10266Y56126D01*
X9875Y56803D01*
X9375Y57303D01*
X9325Y57432D01*
X9340Y57923D01*
X9591Y58174D01*
X19193D01*
X36776Y40590D01*
Y26378D01*
X36914Y25687D01*
X37305Y25101D01*
X42190Y20216D01*
Y-33913D01*
X41690Y-34218D01*
X41297Y-34055D01*
X40593D01*
X39941Y-34325D01*
X39443Y-34823D01*
X39173Y-35474D01*
Y-36179D01*
X39443Y-36830D01*
X39941Y-37329D01*
X40593Y-37598D01*
X41297D01*
X41690Y-37436D01*
X42190Y-37741D01*
Y-46055D01*
X28929Y-59316D01*
X15958D01*
X15722Y-58875D01*
X15765Y-58810D01*
X15961Y-57825D01*
Y-56799D01*
X13386D01*
Y-56299D01*
X12886D01*
Y-52298D01*
X12400Y-52395D01*
X11565Y-52953D01*
X11007Y-53788D01*
X10907Y-54292D01*
X10393Y-54309D01*
X10266Y-53834D01*
X9875Y-53158D01*
X9323Y-52605D01*
X8646Y-52214D01*
X8000Y-52041D01*
Y-54980D01*
X7000D01*
Y-52041D01*
X6354Y-52214D01*
X5677Y-52605D01*
X5177Y-53105D01*
X5048Y-53155D01*
X4557Y-53140D01*
X4192Y-52775D01*
X3564Y-52412D01*
X2863Y-52224D01*
X2137D01*
X1436Y-52412D01*
X808Y-52775D01*
X295Y-53288D01*
X250Y-53366D01*
X-250D01*
X-295Y-53288D01*
X-808Y-52775D01*
X-1436Y-52412D01*
X-2137Y-52224D01*
X-2863D01*
X-3564Y-52412D01*
X-4192Y-52775D01*
X-4557Y-53140D01*
X-5048Y-53155D01*
X-5177Y-53105D01*
X-5677Y-52605D01*
X-6354Y-52214D01*
X-7000Y-52041D01*
Y-54980D01*
X-7500D01*
Y-55480D01*
X-10439D01*
X-10266Y-56126D01*
X-9875Y-56803D01*
X-9375Y-57303D01*
X-9325Y-57432D01*
X-9340Y-57923D01*
X-9705Y-58288D01*
X-10068Y-58917D01*
X-10256Y-59618D01*
Y-60343D01*
X-10068Y-61044D01*
X-9705Y-61673D01*
X-9192Y-62186D01*
X-8564Y-62548D01*
X-7863Y-62736D01*
X-7137D01*
X-6436Y-62548D01*
X-5808Y-62186D01*
X-5295Y-61673D01*
X-5250Y-61595D01*
X-4750D01*
X-4705Y-61673D01*
X-4192Y-62186D01*
X-3564Y-62548D01*
X-2863Y-62736D01*
X-2137D01*
X-1436Y-62548D01*
X-808Y-62186D01*
X-295Y-61673D01*
X-250Y-61595D01*
X250D01*
X295Y-61673D01*
X808Y-62186D01*
X1436Y-62548D01*
X2137Y-62736D01*
X2863D01*
X3564Y-62548D01*
X4192Y-62186D01*
X4705Y-61673D01*
X4750Y-61595D01*
X5250D01*
X5295Y-61673D01*
X5808Y-62186D01*
X6436Y-62548D01*
X7137Y-62736D01*
X7863D01*
X8564Y-62548D01*
X9192Y-62186D01*
X9214Y-62163D01*
X10507D01*
X10743Y-62399D01*
X11329Y-62791D01*
X12020Y-62928D01*
X29677D01*
X30369Y-62791D01*
X30955Y-62399D01*
X37908Y-55446D01*
X38370Y-55638D01*
Y-55799D01*
X40945D01*
X43520D01*
Y-54774D01*
X43324Y-53788D01*
X42766Y-52953D01*
X41930Y-52395D01*
X41641Y-52337D01*
X41496Y-51859D01*
X45273Y-48081D01*
X45665Y-47495D01*
X45802Y-46803D01*
Y20965D01*
X45665Y21656D01*
X45273Y22242D01*
X40389Y27126D01*
Y41339D01*
X40251Y42030D01*
X39860Y42616D01*
X21218Y61258D01*
X20632Y61649D01*
X19941Y61787D01*
X9591D01*
X9192Y62186D01*
X8564Y62548D01*
X7863Y62736D01*
X7137D01*
X6436Y62548D01*
X5808Y62186D01*
X5295Y61673D01*
X5250Y61595D01*
X4750D01*
X4705Y61673D01*
X4192Y62186D01*
X3564Y62548D01*
X2863Y62736D01*
X2137D01*
X1436Y62548D01*
X808Y62186D01*
X295Y61673D01*
X250Y61595D01*
X-250D01*
X-295Y61673D01*
X-808Y62186D01*
X-1436Y62548D01*
X-2137Y62736D01*
X-2863D01*
X-3564Y62548D01*
X-3569Y62545D01*
X-4682Y63658D01*
X-4475Y64158D01*
X51181Y64158D01*
X52032D01*
X53718Y63936D01*
X55361Y63496D01*
X56933Y62845D01*
X58406Y61994D01*
X59756Y60958D01*
X60958Y59756D01*
X61994Y58406D01*
X62845Y56933D01*
X63495Y55361D01*
X63936Y53718D01*
X64158Y52032D01*
X64158Y51181D01*
X64158Y-51181D01*
X64158Y-52032D01*
X63936Y-53718D01*
X63495Y-55361D01*
X62845Y-56933D01*
X61994Y-58406D01*
X60958Y-59756D01*
X59756Y-60958D01*
X58406Y-61994D01*
X56933Y-62845D01*
X55361Y-63496D01*
X53718Y-63936D01*
X52032Y-64158D01*
X51181D01*
X-51181Y-64158D01*
X-52032D01*
X-53718Y-63936D01*
X-55361Y-63496D01*
X-56933Y-62845D01*
X-58406Y-61994D01*
X-59756Y-60958D01*
X-60958Y-59756D01*
X-61994Y-58406D01*
X-62845Y-56933D01*
X-63496Y-55361D01*
X-63936Y-53718D01*
X-64158Y-52032D01*
X-64158Y-51181D01*
X-64158Y51181D01*
Y52032D01*
X-63936Y53718D01*
X-63496Y55361D01*
X-62845Y56933D01*
X-61994Y58406D01*
X-60958Y59756D01*
X-59756Y60958D01*
X-58406Y61994D01*
X-56933Y62845D01*
X-55361Y63495D01*
X-53718Y63936D01*
X-52032Y64158D01*
X-51181Y64158D01*
X-10130D01*
D02*
G37*
%LPC*%
G36*
X18576Y14790D02*
X17871D01*
X17220Y14520D01*
X16722Y14021D01*
X16452Y13370D01*
Y12665D01*
X16722Y12014D01*
X17220Y11516D01*
X17871Y11246D01*
X18576D01*
X19227Y11516D01*
X19726Y12014D01*
X19995Y12665D01*
Y13370D01*
X19726Y14021D01*
X19227Y14520D01*
X18576Y14790D01*
D02*
G37*
G36*
X-12246Y-28937D02*
X-12951D01*
X-13602Y-29207D01*
X-14100Y-29705D01*
X-14370Y-30356D01*
Y-31061D01*
X-14100Y-31712D01*
X-13602Y-32211D01*
X-12951Y-32480D01*
X-12246D01*
X-11595Y-32211D01*
X-11096Y-31712D01*
X-10827Y-31061D01*
Y-30356D01*
X-11096Y-29705D01*
X-11595Y-29207D01*
X-12246Y-28937D01*
D02*
G37*
G36*
X-4766Y-31299D02*
X-5471D01*
X-6122Y-31569D01*
X-6620Y-32067D01*
X-6890Y-32719D01*
Y-33423D01*
X-6620Y-34074D01*
X-6122Y-34573D01*
X-5471Y-34843D01*
X-4766D01*
X-4115Y-34573D01*
X-3616Y-34074D01*
X-3347Y-33423D01*
Y-32719D01*
X-3616Y-32067D01*
X-4115Y-31569D01*
X-4766Y-31299D01*
D02*
G37*
G36*
X10439Y54480D02*
X8000D01*
Y52041D01*
X8646Y52214D01*
X9323Y52605D01*
X9875Y53158D01*
X10266Y53834D01*
X10439Y54480D01*
D02*
G37*
G36*
X-34687Y51772D02*
X-35392D01*
X-36043Y51502D01*
X-36541Y51004D01*
X-36811Y50352D01*
Y49648D01*
X-36541Y48996D01*
X-36043Y48498D01*
X-35392Y48228D01*
X-34687D01*
X-34036Y48498D01*
X-33537Y48996D01*
X-33362Y49421D01*
X-33125Y49435D01*
X-32841Y49371D01*
X-32604Y48800D01*
X-32106Y48301D01*
X-31455Y48031D01*
X-30750D01*
X-30099Y48301D01*
X-29600Y48800D01*
X-29331Y49451D01*
Y50156D01*
X-29600Y50807D01*
X-30099Y51305D01*
X-30750Y51575D01*
X-31455D01*
X-32106Y51305D01*
X-32604Y50807D01*
X-32780Y50382D01*
X-33016Y50368D01*
X-33301Y50432D01*
X-33537Y51004D01*
X-34036Y51502D01*
X-34687Y51772D01*
D02*
G37*
G36*
X51855Y56299D02*
X50507D01*
X49206Y55950D01*
X48039Y55277D01*
X47086Y54324D01*
X46412Y53157D01*
X46063Y51855D01*
Y50507D01*
X46412Y49206D01*
X47086Y48039D01*
X48039Y47086D01*
X49206Y46412D01*
X50507Y46063D01*
X51855D01*
X53157Y46412D01*
X54324Y47086D01*
X55277Y48039D01*
X55950Y49206D01*
X56299Y50507D01*
Y51855D01*
X55950Y53157D01*
X55277Y54324D01*
X54324Y55277D01*
X53157Y55950D01*
X51855Y56299D01*
D02*
G37*
G36*
X-50507D02*
X-51855D01*
X-53157Y55950D01*
X-54324Y55277D01*
X-55277Y54324D01*
X-55950Y53157D01*
X-56299Y51855D01*
Y50507D01*
X-55950Y49206D01*
X-55277Y48039D01*
X-54324Y47086D01*
X-53157Y46412D01*
X-51855Y46063D01*
X-50507D01*
X-49206Y46412D01*
X-48039Y47086D01*
X-47086Y48039D01*
X-46412Y49206D01*
X-46063Y50507D01*
Y51855D01*
X-46412Y53157D01*
X-47086Y54324D01*
X-48039Y55277D01*
X-49206Y55950D01*
X-50507Y56299D01*
D02*
G37*
G36*
X31455Y43110D02*
X30750D01*
X30099Y42840D01*
X29600Y42342D01*
X29530Y42328D01*
X29165Y42693D01*
X28514Y42963D01*
X27809D01*
X27158Y42693D01*
X26895Y42430D01*
X26568Y42246D01*
X26241Y42430D01*
X25978Y42693D01*
X25327Y42963D01*
X24622D01*
X23971Y42693D01*
X23472Y42195D01*
X23203Y41543D01*
Y40839D01*
X23472Y40187D01*
X23971Y39689D01*
X24622Y39419D01*
X25327D01*
X25978Y39689D01*
X26241Y39952D01*
X26568Y40136D01*
X26895Y39952D01*
X27158Y39689D01*
X27809Y39419D01*
X28514D01*
X29165Y39689D01*
X29663Y40187D01*
X29734Y40201D01*
X30099Y39837D01*
X30750Y39567D01*
X31455D01*
X32106Y39837D01*
X32604Y40335D01*
X32874Y40986D01*
Y41691D01*
X32604Y42342D01*
X32106Y42840D01*
X31455Y43110D01*
D02*
G37*
G36*
X-19136D02*
X-19841D01*
X-20492Y42840D01*
X-20990Y42342D01*
X-21260Y41691D01*
Y40986D01*
X-20990Y40335D01*
X-20492Y39837D01*
X-19841Y39567D01*
X-19136D01*
X-18485Y39837D01*
X-17986Y40335D01*
X-17717Y40986D01*
Y41691D01*
X-17986Y42342D01*
X-18485Y42840D01*
X-19136Y43110D01*
D02*
G37*
G36*
X-28782Y41299D02*
X-29486D01*
X-30137Y41030D01*
X-30636Y40531D01*
X-30906Y39880D01*
Y39175D01*
X-30636Y38524D01*
X-30137Y38026D01*
X-29486Y37756D01*
X-28782D01*
X-28130Y38026D01*
X-27632Y38524D01*
X-27362Y39175D01*
Y39880D01*
X-27632Y40531D01*
X-28130Y41030D01*
X-28782Y41299D01*
D02*
G37*
G36*
X48384Y35236D02*
X47679D01*
X47028Y34966D01*
X46850Y34789D01*
X46673Y34966D01*
X46022Y35236D01*
X45317D01*
X44666Y34966D01*
X44167Y34468D01*
X43898Y33817D01*
Y33112D01*
X44167Y32461D01*
X44666Y31963D01*
X45317Y31693D01*
X46022D01*
X46673Y31963D01*
X46850Y32140D01*
X47028Y31963D01*
X47679Y31693D01*
X48384D01*
X49035Y31963D01*
X49533Y32461D01*
X49803Y33112D01*
Y33817D01*
X49533Y34468D01*
X49035Y34966D01*
X48384Y35236D01*
D02*
G37*
G36*
X-3585Y33661D02*
X-4289D01*
X-4941Y33392D01*
X-5185Y33147D01*
X-5512Y32940D01*
X-5838Y33147D01*
X-6083Y33392D01*
X-6734Y33661D01*
X-7439D01*
X-8090Y33392D01*
X-8589Y32893D01*
X-8858Y32242D01*
Y31537D01*
X-8589Y30886D01*
X-8344Y30642D01*
X-8136Y30315D01*
X-8344Y29988D01*
X-8589Y29744D01*
X-8858Y29093D01*
Y28388D01*
X-8589Y27737D01*
X-8090Y27238D01*
X-7439Y26969D01*
X-6734D01*
X-6083Y27238D01*
X-5838Y27483D01*
X-5512Y27690D01*
X-5185Y27483D01*
X-4941Y27238D01*
X-4289Y26969D01*
X-3585D01*
X-2933Y27238D01*
X-2435Y27737D01*
X-2165Y28388D01*
Y29093D01*
X-2435Y29744D01*
X-2680Y29988D01*
X-2887Y30315D01*
X-2680Y30642D01*
X-2435Y30886D01*
X-2165Y31537D01*
Y32242D01*
X-2435Y32893D01*
X-2933Y33392D01*
X-3585Y33661D01*
D02*
G37*
G36*
X-15002Y52165D02*
X-15707D01*
X-16358Y51896D01*
X-16856Y51397D01*
X-17126Y50746D01*
Y50041D01*
X-16856Y49390D01*
X-16412Y48946D01*
Y36992D01*
X-22800Y30604D01*
X-22904Y30448D01*
X-23314Y30280D01*
X-23532Y30294D01*
X-24057Y30512D01*
X-24762D01*
X-25413Y30242D01*
X-25911Y29744D01*
X-26181Y29093D01*
Y28388D01*
X-25911Y27737D01*
X-25413Y27238D01*
X-24762Y26969D01*
X-24057D01*
X-23610Y27154D01*
X-23110Y26881D01*
Y13389D01*
X-23583Y12917D01*
X-23812Y12573D01*
X-23892Y12169D01*
Y10540D01*
X-23812Y10135D01*
X-23775Y10080D01*
X-23824Y9963D01*
Y9259D01*
X-23554Y8608D01*
X-23056Y8109D01*
X-22404Y7840D01*
X-21700D01*
X-21048Y8109D01*
X-20550Y8608D01*
X-20280Y9259D01*
Y9963D01*
X-20550Y10615D01*
X-21048Y11113D01*
X-21555Y11323D01*
X-21653Y11800D01*
X-21647Y11861D01*
X-21304Y12203D01*
X-21075Y12547D01*
X-20994Y12951D01*
Y16207D01*
X-20494Y16414D01*
X-20295Y16215D01*
X-19644Y15945D01*
X-18939D01*
X-18288Y16215D01*
X-18170Y16333D01*
X-17746Y16050D01*
X-17870Y15751D01*
Y15046D01*
X-17600Y14395D01*
X-17101Y13896D01*
X-16450Y13626D01*
X-15745D01*
X-15094Y13896D01*
X-14596Y14395D01*
X-14326Y15046D01*
Y15751D01*
X-14596Y16402D01*
X-15094Y16900D01*
X-15745Y17170D01*
X-16450D01*
X-17101Y16900D01*
X-17220Y16782D01*
X-17643Y17065D01*
X-17520Y17364D01*
Y18069D01*
X-17789Y18720D01*
X-18288Y19218D01*
X-18939Y19488D01*
X-19644D01*
X-20295Y19218D01*
X-20494Y19019D01*
X-20994Y19226D01*
Y29418D01*
X-14606Y35806D01*
X-14377Y36149D01*
X-14297Y36554D01*
Y48946D01*
X-13852Y49390D01*
X-13583Y50041D01*
Y50746D01*
X-13852Y51397D01*
X-14351Y51896D01*
X-15002Y52165D01*
D02*
G37*
G36*
X-28782Y30512D02*
X-29486D01*
X-30137Y30242D01*
X-30636Y29744D01*
X-30906Y29093D01*
Y28388D01*
X-30636Y27737D01*
X-30137Y27238D01*
X-29486Y26969D01*
X-28782D01*
X-28130Y27238D01*
X-27632Y27737D01*
X-27362Y28388D01*
Y29093D01*
X-27632Y29744D01*
X-28130Y30242D01*
X-28782Y30512D01*
D02*
G37*
G36*
X35392Y17913D02*
X34687D01*
X34036Y17644D01*
X33537Y17145D01*
X33268Y16494D01*
Y15789D01*
X33537Y15138D01*
X34036Y14640D01*
X34687Y14370D01*
X35392D01*
X35630Y14211D01*
Y13821D01*
X35900Y13170D01*
X36398Y12671D01*
X37049Y12402D01*
X37754D01*
X38405Y12671D01*
X38903Y13170D01*
X39173Y13821D01*
Y14526D01*
X38903Y15177D01*
X38405Y15675D01*
X37754Y15945D01*
X37049D01*
X36811Y16104D01*
Y16494D01*
X36541Y17145D01*
X36043Y17644D01*
X35392Y17913D01*
D02*
G37*
G36*
X-26813Y5315D02*
X-27518D01*
X-28169Y5045D01*
X-28667Y4547D01*
X-28937Y3896D01*
Y3191D01*
X-28667Y2540D01*
X-28169Y2041D01*
X-27518Y1772D01*
X-26813D01*
X-26162Y2041D01*
X-25663Y2540D01*
X-25394Y3191D01*
Y3896D01*
X-25663Y4547D01*
X-26162Y5045D01*
X-26813Y5315D01*
D02*
G37*
G36*
X-32719Y6885D02*
X-33423D01*
X-34074Y6615D01*
X-34573Y6117D01*
X-34843Y5466D01*
Y4761D01*
X-34573Y4110D01*
X-34398Y3935D01*
X-34573Y3760D01*
X-34843Y3108D01*
Y2403D01*
X-34573Y1752D01*
X-34074Y1254D01*
X-33423Y984D01*
X-32719D01*
X-32067Y1254D01*
X-31569Y1752D01*
X-31299Y2403D01*
Y3108D01*
X-31569Y3760D01*
X-31744Y3935D01*
X-31569Y4110D01*
X-31299Y4761D01*
Y5466D01*
X-31569Y6117D01*
X-32067Y6615D01*
X-32719Y6885D01*
D02*
G37*
G36*
X-27600Y591D02*
X-28305D01*
X-28956Y321D01*
X-29455Y-178D01*
X-29724Y-829D01*
Y-1534D01*
X-29455Y-2185D01*
X-28956Y-2683D01*
X-28305Y-2953D01*
X-27600D01*
X-26949Y-2683D01*
X-26451Y-2185D01*
X-26181Y-1534D01*
Y-829D01*
X-26451Y-178D01*
X-26949Y321D01*
X-27600Y591D01*
D02*
G37*
G36*
X39329Y-197D02*
X38624D01*
X37973Y-467D01*
X37475Y-965D01*
X37205Y-1616D01*
Y-2321D01*
X37475Y-2972D01*
X37973Y-3470D01*
X38624Y-3740D01*
X39329D01*
X39980Y-3470D01*
X40478Y-2972D01*
X40748Y-2321D01*
Y-1616D01*
X40478Y-965D01*
X39980Y-467D01*
X39329Y-197D01*
D02*
G37*
G36*
X-44530Y-11614D02*
X-45234D01*
X-45885Y-11884D01*
X-46063Y-12061D01*
X-46240Y-11884D01*
X-46892Y-11614D01*
X-47596D01*
X-48248Y-11884D01*
X-48746Y-12382D01*
X-49016Y-13033D01*
Y-13738D01*
X-48746Y-14389D01*
X-48248Y-14888D01*
X-47596Y-15157D01*
X-46892D01*
X-46240Y-14888D01*
X-46063Y-14710D01*
X-45885Y-14888D01*
X-45234Y-15157D01*
X-44530D01*
X-43878Y-14888D01*
X-43380Y-14389D01*
X-43110Y-13738D01*
Y-13033D01*
X-43380Y-12382D01*
X-43878Y-11884D01*
X-44530Y-11614D01*
D02*
G37*
G36*
X-27600Y-8071D02*
X-28305D01*
X-28956Y-8341D01*
X-29455Y-8839D01*
X-29724Y-9490D01*
Y-10195D01*
X-29455Y-10846D01*
X-29277Y-11024D01*
X-29455Y-11201D01*
X-29724Y-11852D01*
Y-12557D01*
X-29455Y-13208D01*
X-28956Y-13707D01*
X-28305Y-13976D01*
X-27600D01*
X-26949Y-13707D01*
X-26451Y-13208D01*
X-26280Y-12795D01*
X-25632D01*
X-24981Y-12526D01*
X-24482Y-12027D01*
X-24213Y-11376D01*
Y-10671D01*
X-24482Y-10020D01*
X-24981Y-9522D01*
X-25632Y-9252D01*
X-26280D01*
X-26451Y-8839D01*
X-26949Y-8341D01*
X-27600Y-8071D01*
D02*
G37*
G36*
X18812Y-13145D02*
X18108D01*
X17457Y-13415D01*
X16958Y-13913D01*
X16689Y-14564D01*
Y-15269D01*
X16958Y-15920D01*
X17457Y-16419D01*
X18108Y-16689D01*
X18812D01*
X19464Y-16419D01*
X19962Y-15920D01*
X20232Y-15269D01*
Y-14564D01*
X19962Y-13913D01*
X19464Y-13415D01*
X18812Y-13145D01*
D02*
G37*
G36*
X51534Y-25394D02*
X50829D01*
X50178Y-25663D01*
X49679Y-26162D01*
X49409Y-26813D01*
Y-27518D01*
X49679Y-28169D01*
X50178Y-28667D01*
X50829Y-28937D01*
X51534D01*
X52185Y-28667D01*
X52683Y-28169D01*
X52953Y-27518D01*
Y-26813D01*
X52683Y-26162D01*
X52185Y-25663D01*
X51534Y-25394D01*
D02*
G37*
G36*
X38287Y-43345D02*
X37508D01*
Y-45169D01*
X40512D01*
X40435Y-44780D01*
X39931Y-44026D01*
X39177Y-43522D01*
X38287Y-43345D01*
D02*
G37*
G36*
X18602D02*
X17823D01*
Y-45169D01*
X20827D01*
X20750Y-44780D01*
X20246Y-44026D01*
X19492Y-43522D01*
X18602Y-43345D01*
D02*
G37*
G36*
X16823D02*
X16043D01*
X15154Y-43522D01*
X14400Y-44026D01*
X13896Y-44780D01*
X13819Y-45169D01*
X16823D01*
Y-43345D01*
D02*
G37*
G36*
X40512Y-46169D02*
X37508D01*
Y-47993D01*
X38287D01*
X39177Y-47817D01*
X39931Y-47313D01*
X40435Y-46559D01*
X40512Y-46169D01*
D02*
G37*
G36*
X20827D02*
X17823D01*
Y-47993D01*
X18602D01*
X19492Y-47817D01*
X20246Y-47313D01*
X20750Y-46559D01*
X20827Y-46169D01*
D02*
G37*
G36*
X16823D02*
X13819D01*
X13896Y-46559D01*
X14400Y-47313D01*
X15154Y-47817D01*
X16043Y-47993D01*
X16823D01*
Y-46169D01*
D02*
G37*
G36*
X-8000Y-52041D02*
X-8646Y-52214D01*
X-9323Y-52605D01*
X-9875Y-53158D01*
X-10266Y-53834D01*
X-10439Y-54480D01*
X-8000D01*
Y-52041D01*
D02*
G37*
G36*
X13886Y-52298D02*
Y-55799D01*
X15961D01*
Y-54774D01*
X15765Y-53788D01*
X15207Y-52953D01*
X14371Y-52395D01*
X13886Y-52298D01*
D02*
G37*
G36*
X51855Y-46063D02*
X50507D01*
X49206Y-46412D01*
X48039Y-47086D01*
X47086Y-48039D01*
X46412Y-49206D01*
X46063Y-50507D01*
Y-51855D01*
X46412Y-53157D01*
X47086Y-54324D01*
X48039Y-55277D01*
X49206Y-55950D01*
X50507Y-56299D01*
X51855D01*
X53157Y-55950D01*
X54324Y-55277D01*
X55277Y-54324D01*
X55950Y-53157D01*
X56299Y-51855D01*
Y-50507D01*
X55950Y-49206D01*
X55277Y-48039D01*
X54324Y-47086D01*
X53157Y-46412D01*
X51855Y-46063D01*
D02*
G37*
G36*
X-50507D02*
X-51855D01*
X-53157Y-46412D01*
X-54324Y-47086D01*
X-55277Y-48039D01*
X-55950Y-49206D01*
X-56299Y-50507D01*
Y-51855D01*
X-55950Y-53157D01*
X-55277Y-54324D01*
X-54324Y-55277D01*
X-53157Y-55950D01*
X-51855Y-56299D01*
X-50507D01*
X-49206Y-55950D01*
X-48039Y-55277D01*
X-47086Y-54324D01*
X-46412Y-53157D01*
X-46063Y-51855D01*
Y-50507D01*
X-46412Y-49206D01*
X-47086Y-48039D01*
X-48039Y-47086D01*
X-49206Y-46412D01*
X-50507Y-46063D01*
D02*
G37*
G36*
X43520Y-56799D02*
X41445D01*
Y-60300D01*
X41930Y-60204D01*
X42766Y-59646D01*
X43324Y-58810D01*
X43520Y-57825D01*
Y-56799D01*
D02*
G37*
G36*
X40445D02*
X38370D01*
Y-57825D01*
X38566Y-58810D01*
X39124Y-59646D01*
X39959Y-60204D01*
X40445Y-60300D01*
Y-56799D01*
D02*
G37*
%LPD*%
D17*
X21994Y-27218D02*
Y-23856D01*
X14567Y-34646D02*
X21994Y-27218D01*
X18261Y-19291D02*
X20070Y-21100D01*
X21994D01*
X-7087Y-19291D02*
X18261D01*
X-28740Y-60630D02*
Y-24803D01*
X10791Y25122D02*
Y30154D01*
X10187Y19089D02*
Y24518D01*
X10791Y25122D01*
X12939Y18949D02*
Y22242D01*
X12115Y23066D02*
X12939Y22242D01*
X26197Y-1787D02*
X29134Y-4724D01*
X24675Y-1787D02*
X26197D01*
X24463Y-1575D02*
X24675Y-1787D01*
X25644Y-15687D02*
Y-15290D01*
Y-15687D02*
X26591Y-16634D01*
Y-37583D02*
Y-16634D01*
X27165Y-13133D02*
Y-12992D01*
Y-13133D02*
X27953Y-13921D01*
Y-39764D02*
Y-13921D01*
X29528Y-37795D02*
Y-11127D01*
X28295Y-9894D02*
X29528Y-11127D01*
X18825Y22441D02*
X28346Y12919D01*
X18504Y22441D02*
X18825D01*
X28346Y-394D02*
Y12919D01*
X3543Y18898D02*
Y25931D01*
Y18898D02*
X22441Y0D01*
X-8409Y18147D02*
X1397Y27953D01*
X4509D01*
X5906Y26556D01*
X30815Y-37114D02*
Y-9555D01*
X29134Y-7874D02*
X30815Y-9555D01*
Y-37114D02*
X33071Y-39370D01*
Y-44231D02*
Y-39370D01*
X25703Y-51598D02*
X33071Y-44231D01*
X29528Y-37795D02*
X31784Y-40051D01*
X24409Y-39764D02*
X26591Y-37583D01*
X24409Y-42520D02*
Y-39764D01*
X26772Y-40945D02*
X27953Y-39764D01*
X26772Y-41339D02*
Y-40945D01*
X25402Y-43512D02*
X28065D01*
X24409Y-42520D02*
X25402Y-43512D01*
X28065D02*
X29568Y-42009D01*
Y-41281D01*
X29716Y-41133D01*
X31784Y-42445D02*
Y-40051D01*
X24803Y-49425D02*
X31784Y-42445D01*
X-2242Y-39370D02*
X2483Y-34646D01*
X-20079Y-39370D02*
Y-37870D01*
Y-39370D02*
X-2242D01*
X-20079Y-51181D02*
Y-39370D01*
X-23466Y-36355D02*
X-23368Y-36257D01*
X-21693D01*
X-20079Y-37870D01*
X-23488Y-36355D02*
X-23466D01*
X-26199Y-33643D02*
X-23488Y-36355D01*
X-25591Y-21654D02*
X-9449D01*
X-28740Y-24803D02*
X-25591Y-21654D01*
X-34172Y-27873D02*
X-25780Y-19480D01*
X-18110D01*
X-34172Y-52067D02*
Y-27873D01*
X15335Y18485D02*
Y33839D01*
X18504Y37008D01*
X5906Y18504D02*
X9055Y15354D01*
X5906Y18504D02*
Y26556D01*
X12115Y23066D02*
Y25959D01*
X9055Y15354D02*
X12205D01*
X15335Y18485D01*
X12115Y25959D02*
X12992Y26836D01*
Y33858D01*
X-10018Y18898D02*
X-9268Y18147D01*
X-12205Y18898D02*
X-10018D01*
X-9268Y18147D02*
X-8409D01*
X21154Y-3437D02*
X22047Y-4331D01*
X21154Y-3437D02*
Y-681D01*
X394Y20079D02*
X21154Y-681D01*
X22047Y-17399D02*
Y-4331D01*
X-26199Y-33643D02*
Y-25769D01*
X-9449Y-21654D02*
X-7087Y-19291D01*
X2483Y-34646D02*
X14567D01*
X29134Y-7874D02*
Y-4724D01*
X25303Y-30602D02*
Y-18127D01*
X7480Y-48425D02*
X25303Y-30602D01*
X23622Y-16446D02*
X25303Y-18127D01*
X8386Y-44094D02*
X24016Y-28465D01*
X22047Y-17399D02*
X24016Y-19367D01*
Y-28465D02*
Y-19367D01*
X394Y20079D02*
Y24016D01*
X22441Y-2756D02*
Y0D01*
Y-2756D02*
X23622Y-3937D01*
Y-16446D02*
Y-3937D01*
X-22835Y12169D02*
X-22052Y12951D01*
Y9611D02*
Y9757D01*
X-22835Y10540D02*
X-22052Y9757D01*
X-22835Y10540D02*
Y12169D01*
X-22052Y12951D02*
Y29856D01*
X-15354Y36554D01*
X23903Y-51598D02*
X25703D01*
X22047Y-49743D02*
Y-49606D01*
Y-49743D02*
X23903Y-51598D01*
X1969Y-44094D02*
X8386D01*
X-2362Y-48425D02*
X1969Y-44094D01*
X2362Y-48425D02*
X7480D01*
X-1969Y48819D02*
X12992Y33858D01*
X-8268Y49213D02*
X10791Y30154D01*
X-4724Y48819D02*
X-1969D01*
X-22047Y-53150D02*
X-20079Y-51181D01*
X-8849Y63236D02*
X-5756D01*
X-2500Y59980D01*
X-11811Y60274D02*
X-8849Y63236D01*
X-11811Y21654D02*
Y60274D01*
X-6496Y-24409D02*
X1575Y-32480D01*
X-9055Y-24409D02*
X-6496D01*
X-15354Y36554D02*
Y50394D01*
X-22047Y-58268D02*
Y-53150D01*
X-51181Y64961D02*
X-52164Y64925D01*
X-53142Y64820D01*
X-54110Y64646D01*
X-55063Y64403D01*
X-55997Y64092D01*
X-56905Y63715D01*
X-57785Y63275D01*
X-58631Y62773D01*
X-59439Y62212D01*
X-60205Y61595D01*
X-60925Y60925D01*
X-61595Y60205D01*
X-62212Y59439D01*
X-62773Y58631D01*
X-63275Y57785D01*
X-63715Y56905D01*
X-64092Y55997D01*
X-64403Y55063D01*
X-64646Y54110D01*
X-64820Y53142D01*
X-64925Y52164D01*
X-64961Y51181D01*
X64961D02*
X64925Y52164D01*
X64820Y53142D01*
X64646Y54110D01*
X64403Y55063D01*
X64092Y55997D01*
X63715Y56905D01*
X63275Y57785D01*
X62773Y58631D01*
X62212Y59439D01*
X61595Y60205D01*
X60925Y60925D01*
X60205Y61595D01*
X59439Y62212D01*
X58631Y62773D01*
X57785Y63275D01*
X56905Y63715D01*
X55997Y64092D01*
X55063Y64403D01*
X54110Y64646D01*
X53142Y64820D01*
X52164Y64925D01*
X51181Y64961D01*
Y-64961D02*
X52164Y-64925D01*
X53142Y-64820D01*
X54110Y-64646D01*
X55063Y-64403D01*
X55997Y-64092D01*
X56905Y-63715D01*
X57785Y-63275D01*
X58631Y-62773D01*
X59439Y-62212D01*
X60205Y-61595D01*
X60925Y-60925D01*
X61595Y-60205D01*
X62212Y-59439D01*
X62773Y-58631D01*
X63275Y-57785D01*
X63715Y-56905D01*
X64092Y-55997D01*
X64403Y-55063D01*
X64646Y-54110D01*
X64820Y-53142D01*
X64925Y-52164D01*
X64961Y-51181D01*
X-64961D02*
X-64925Y-52164D01*
X-64820Y-53142D01*
X-64646Y-54110D01*
X-64403Y-55063D01*
X-64092Y-55997D01*
X-63715Y-56905D01*
X-63275Y-57785D01*
X-62773Y-58631D01*
X-62212Y-59439D01*
X-61595Y-60205D01*
X-60925Y-60925D01*
X-60205Y-61595D01*
X-59439Y-62212D01*
X-58631Y-62773D01*
X-57785Y-63275D01*
X-56905Y-63715D01*
X-55997Y-64092D01*
X-55063Y-64403D01*
X-54110Y-64646D01*
X-53142Y-64820D01*
X-52164Y-64925D01*
X-51181Y-64961D01*
Y-64961D02*
X51181D01*
X-64961Y-51181D02*
Y51181D01*
X64961Y-51181D02*
Y51181D01*
X-51181Y64961D02*
X51181D01*
D67*
X17323Y-45669D02*
D03*
X37008D02*
D03*
D68*
X13386Y-56299D02*
D03*
X40945D02*
D03*
D69*
X7500Y54980D02*
D03*
Y59980D02*
D03*
X-7500Y54980D02*
D03*
X-2500Y59980D02*
D03*
X7500Y-59980D02*
D03*
Y-54980D02*
D03*
X-7500D02*
D03*
D71*
X21994Y-23856D02*
D03*
Y-21100D02*
D03*
X-28740Y-60630D02*
D03*
X10187Y19089D02*
D03*
X12939Y18949D02*
D03*
X24463Y-1575D02*
D03*
X-50689Y-23331D02*
D03*
X25644Y-15290D02*
D03*
X27165Y-12992D02*
D03*
X28295Y-9894D02*
D03*
X18504Y22441D02*
D03*
X3543Y25931D02*
D03*
X26772Y-41339D02*
D03*
X29716Y-41133D02*
D03*
X-12508Y-34409D02*
D03*
X-9449Y-3732D02*
D03*
X9843Y-3543D02*
D03*
X13386Y0D02*
D03*
X4331Y-10630D02*
D03*
X-7480Y6693D02*
D03*
X7087Y0D02*
D03*
X-6693D02*
D03*
X38386Y50394D02*
D03*
X18504Y37008D02*
D03*
X-12205Y18898D02*
D03*
X-38583Y41732D02*
D03*
Y-14173D02*
D03*
X-26199Y-25769D02*
D03*
X-28740Y-32677D02*
D03*
X8268Y-29134D02*
D03*
X12598Y-24016D02*
D03*
X50787Y-22835D02*
D03*
X-40945Y24803D02*
D03*
X-18460Y-12248D02*
D03*
X22047Y-49606D02*
D03*
X24803Y-49425D02*
D03*
X-4724Y48819D02*
D03*
X-8268Y49213D02*
D03*
X2362Y-48425D02*
D03*
X-2362D02*
D03*
X-18110Y-19480D02*
D03*
X26772Y18504D02*
D03*
X36220Y-2756D02*
D03*
X1181Y32283D02*
D03*
X53543Y0D02*
D03*
X-9055Y-24409D02*
D03*
X-34172Y-52067D02*
D03*
X-15354Y50394D02*
D03*
X394Y24016D02*
D03*
X28346Y-394D02*
D03*
X-22052Y9611D02*
D03*
X-11811Y21654D02*
D03*
X23622Y37008D02*
D03*
X-14161Y-16436D02*
D03*
X0Y-12992D02*
D03*
X-22047Y-58268D02*
D03*
X1575Y-32480D02*
D03*
X-12992Y0D02*
D03*
X0Y13386D02*
D03*
Y0D02*
D03*
X-14016Y-26378D02*
D03*
D72*
X29677Y-61122D02*
X43996Y-46803D01*
Y20965D01*
X38583Y26378D02*
X43996Y20965D01*
X38583Y26378D02*
Y41339D01*
X19941Y59980D02*
X38583Y41339D01*
X7877Y-60357D02*
X11255D01*
X12020Y-61122D01*
X29677D01*
X7500Y-59980D02*
X7877Y-60357D01*
X7500Y59980D02*
X19941D01*
M02*
