M48
;Layer_Color=9474304
;FILE_FORMAT=2:4
INCH,TZ
;TYPE=PLATED
T1F00S00C0.0079
T2F00S00C0.0118
T3F00S00C0.0276
T4F00S00C0.0866
%
T01
X-5987Y-5667
X-5995Y-5157
X-5667Y-5987
X-5108Y-6063
X-4656
X502Y-4921
X1202Y-4945
X1457Y-4921
X3927Y-4882
X4420Y-4893
X4442Y-5615
X4656Y-6063
X5108
X5709Y-6024
X6024Y-5709
X5956Y-5157
X3819Y-5522
X4213Y-6142
X3768Y-4413
X3268Y-4252
X3346Y-3543
X3307Y-3150
X2938Y-2598
X3007Y-2229
X3189Y-868
X3435Y-627
X3268Y-433
Y315
X3071Y591
X2697Y719
X2362Y709
X2264Y1095
X1496Y1378
X1228Y1654
X981Y1723
X974Y1979
X945Y2244
X753Y2413
X624Y1978
X686Y1730
X394Y1024
X79
X-472Y591
X-436Y145
Y-170
X-750
Y145
X-835Y1214
X-469Y1512
X-591Y2205
X-343Y2441
X-363Y2703
X-522Y2904
X-438Y3146
X-321Y3675
X-455Y4312
X-787Y4567
X-984Y4803
X183Y4811
X433Y4291
X748
X764Y4598
X1008Y4843
X1299Y4843
X1691Y4837
X1732Y5669
X1339Y5679
Y6132
X2126Y6014
X2520Y5551
X2913Y5817
X3233Y5049
X2819Y4606
X3412Y4248
X3297Y3858
X3268Y3110
X3268Y2722
X3007Y2432
X2992Y2165
Y1890
X3425Y1654
X4772Y1746
X4921Y1510
X5177Y1499
X5591Y1181
Y551
X5906Y866
X6220Y551
X6220Y0
X6220Y-551
X5906Y-866
X5591Y-551
Y-1181
X6220
X6220Y-1594
X6220Y-2008
Y-2638
X6220Y-3051
X6220Y-3465
X5591
X5906Y-3780
X5591Y-4094
X6220
X6220Y-4508
X5118Y-4449
X4409Y-3898
X4318Y-3031
X4922Y-2961
X5127Y-3144
X5333Y-2961
X5591Y-2638
Y-2008
X5906Y-2323
X5176Y-1690
X4920Y-1689
X4778Y-1476
X4488Y-630
Y-276
X4921Y-232
X5177Y-233
X5051Y232
X4646Y512
X4409Y315
X2677Y-276
X2126
X1417Y-315
X1102Y146
X157Y-236
X-39Y-906
X354
X-354Y-1654
Y-2008
Y-2323
X-787Y-2087
X-981Y-1325
X-2079Y-1223
X-2661Y-1306
X-2992Y-1260
X-3425
X-3435Y-1516
X-3074Y-1741
X-3144Y-2108
X-2759Y-2144
X-2480Y-2244
X-3281Y-2619
X-3268Y-3110
X-3179Y-3780
X-3224Y-4091
X-3290Y-4569
X-3007Y-4822
X-1502Y-4791
X-1243Y-4724
X-976Y-4670
X-685Y-4567
X-551Y-4252
X-354Y-4055
X-236Y-3622
X314Y-3576
X509Y-3218
X501Y-2953
X397Y-2719
X630Y-2181
X945Y-1969
X1220
X1496
X1929Y-1457
X2480Y-1063
X2421Y-837
X2697
X1890Y-3346
Y-3701
X1535
Y-3346
X1181
Y-3701
X787Y-4449
X502Y-4528
X433Y-4134
X-175Y-2944
X-433Y-2992
X-1181Y-3346
Y-3701
X-1535
Y-3346
X-1890
Y-3701
X-4183Y-3701
X-4449Y-2913
X-5035Y-2963
X-5295Y-2953
X-5591Y-2638
Y-2008
X-5906Y-2323
X-6220Y-2638
X-6220Y-3051
X-6220Y-3445
X-5591
X-5906Y-3760
X-6220Y-4075
X-6220Y-4508
X-5314Y-4414
X-5028Y-4413
X-5591Y-4075
X-6220Y-2008
X-6220Y-1594
X-6220Y-1181
X-5591
X-5295Y-1496
X-4999Y-1500
X-4795Y-1724
X-4488Y-472
Y-157
Y157
Y472
X-4961Y197
X-5236
X-5000Y-232
X-5591Y-551
X-5906Y-866
X-6220Y-551
X-6220Y0
X-6220Y551
X-5906Y866
X-5591Y551
Y1181
X-6220
X-6220Y1594
X-6220Y2008
X-5591
X-5276Y1693
X-5008Y1685
X-4776Y1466
X-3179Y1686
X-3386Y1909
X-2767Y2086
X-3100Y2559
X-3260Y3126
X-3297Y3543
X-3268Y4291
X-3268Y4685
X-3574Y4722
X-4310Y4911
X-4134Y5482
X-4213Y5763
X-4528Y5472
X-4724Y6220
X-5197
X-5669Y6024
X-6063Y5669
X-6220Y5157
X-6220Y4547
X-6220Y4094
X-5591
Y3465
X-5294Y3143
X-5107Y2964
X-4918Y3144
X-4567Y3268
X-4453Y3862
X-5157Y4449
X-5906Y3780
X-6220Y3465
X-6220Y3051
X-6220Y2638
X-5591
X-5906Y2323
X-3386Y906
X-3071Y945
X-2402Y1417
X-1496Y1969
X-1244Y2015
X-984Y1969
X-1181Y3346
Y3701
X-1535
Y3346
X-1890
Y3701
X-2165Y5118
X-2638Y4764
X-2520Y5591
X-2913Y5817
X-3283Y5465
X-1811Y5669
X-1339
X-1339Y6132
X-2126Y6014
X-4291Y6299
X214Y4001
X1181Y3701
Y3346
X1535
Y3701
X1890
Y3346
X4390Y3170
X4921Y2992
X5270Y2940
X5591Y2638
X6220
X6220Y3051
X6220Y3465
X5906Y3780
X5591Y3465
Y4094
X6220
X6220Y4547
X6220Y5157
X6063Y5669
X5669Y6024
X5197Y6220
X4724
X4409Y6299
X4449Y5748
X4488Y5472
X4850Y4441
X5236Y4409
X4173Y3740
X5906Y2323
X6220Y2008
X6220Y1594
X6220Y1181
X5591Y2008
X-1936Y255
X-2333Y-315
X-2402Y-787
X-2835Y-30
X2543Y-4606
T02
X-2835Y-6260
Y-5827
X-2283Y-5827
Y-6260
X-1732
Y-5827
X1732
Y-6260
X2283
X2283Y-5827
X2835Y-5827
Y-6260
T03
X-750Y-5998
Y-5498
X-250
X250
X750
Y-5998
X250
X-250
Y5498
X-750
Y5998
X-250
X250
Y5498
X750
Y5998
T04
X-5118Y-5118
X5118
Y5118
X-5118
M30
