G04*
G04 #@! TF.GenerationSoftware,Altium Limited,Altium Designer,22.11.1 (43)*
G04*
G04 Layer_Color=65535*
%FSLAX25Y25*%
%MOIN*%
G70*
G04*
G04 #@! TF.SameCoordinates,068BE47B-EC71-4F73-AC5B-A776348265D8*
G04*
G04*
G04 #@! TF.FilePolarity,Positive*
G04*
G01*
G75*
%ADD10C,0.00433*%
%ADD11C,0.00787*%
%ADD12C,0.00984*%
%ADD13C,0.01732*%
%ADD14C,0.00591*%
%ADD15C,0.00500*%
%ADD16C,0.01000*%
%ADD17C,0.01575*%
G36*
X18110Y-3347D02*
X17520D01*
X16339Y-2165D01*
Y-1378D01*
X18110D01*
Y-3347D01*
D02*
G37*
G36*
X3937Y-20472D02*
X-3937D01*
X0Y-14173D01*
X3937Y-20472D01*
D02*
G37*
G36*
X7874Y-26772D02*
X0D01*
X3937Y-20472D01*
X7874Y-26772D01*
D02*
G37*
G36*
X0D02*
X-7874D01*
X-3937Y-20472D01*
X0Y-26772D01*
D02*
G37*
D10*
X-13169Y7480D02*
D03*
D11*
X16339Y-1575D02*
X16576Y-2461D01*
X17224Y-3109D01*
X18110Y-3347D01*
X4036Y41929D02*
X3248D01*
X4036D01*
X-3248Y-41929D02*
X-4036D01*
X-3248D01*
X4035Y-32087D02*
X3248D01*
X4035D01*
X-3248Y32087D02*
X-4036D01*
X-3248D01*
X16339Y-1575D02*
Y-1378D01*
X18110Y-5315D02*
Y-1378D01*
X5906Y-5315D02*
Y-1378D01*
X18110D01*
X5906Y-5315D02*
X18110D01*
X-20387Y-13091D02*
Y-10728D01*
X-3150Y-13091D02*
Y-10728D01*
X-20387Y-13091D02*
X-3150D01*
Y-5807D02*
Y-3445D01*
X-20387D02*
X-3150D01*
X-20387Y-5807D02*
Y-3445D01*
X-10591Y-50492D02*
X10591D01*
X-10591Y-64468D02*
X10591D01*
Y-50492D01*
X-10591Y-64468D02*
Y-50492D01*
Y50492D02*
X10591D01*
X-10591Y64468D02*
X10591D01*
X-10591Y50492D02*
Y64468D01*
X10591Y50492D02*
Y64468D01*
X-41864Y56823D02*
X-42520Y57479D01*
X-43832D01*
X-44488Y56823D01*
Y54199D01*
X-43832Y53543D01*
X-42520D01*
X-41864Y54199D01*
Y55511D01*
X-43176D01*
X-40552Y53543D02*
Y57479D01*
X-37929Y53543D01*
Y57479D01*
X-36617D02*
Y53543D01*
X-34649D01*
X-33993Y54199D01*
Y56823D01*
X-34649Y57479D01*
X-36617D01*
X-41864Y62991D02*
X-44488D01*
Y61023D01*
X-43176Y61679D01*
X-42520D01*
X-41864Y61023D01*
Y59711D01*
X-42520Y59055D01*
X-43832D01*
X-44488Y59711D01*
X-40552Y62991D02*
Y60367D01*
X-39241Y59055D01*
X-37929Y60367D01*
Y62991D01*
X36482Y56823D02*
X35826Y57479D01*
X34514D01*
X33858Y56823D01*
Y54199D01*
X34514Y53543D01*
X35826D01*
X36482Y54199D01*
Y55511D01*
X35170D01*
X37794Y53543D02*
Y57479D01*
X40418Y53543D01*
Y57479D01*
X41730D02*
Y53543D01*
X43698D01*
X44354Y54199D01*
Y56823D01*
X43698Y57479D01*
X41730D01*
X40025Y62991D02*
X37402D01*
Y61023D01*
X38713Y61679D01*
X39369D01*
X40025Y61023D01*
Y59711D01*
X39369Y59055D01*
X38058D01*
X37402Y59711D01*
X41337Y62991D02*
Y60367D01*
X42649Y59055D01*
X43961Y60367D01*
Y62991D01*
D12*
X19488Y1969D02*
X18750Y2395D01*
Y1542D01*
X19488Y1969D01*
X-29725Y-17913D02*
Y-13191D01*
X-32087Y-15552D01*
X-28938D01*
X30118Y-13978D02*
X30905Y-13191D01*
X32480D01*
X33267Y-13978D01*
Y-14765D01*
X32480Y-15552D01*
X31692D01*
X32480D01*
X33267Y-16339D01*
Y-17126D01*
X32480Y-17913D01*
X30905D01*
X30118Y-17126D01*
X33660Y12402D02*
X30512D01*
X33660Y15550D01*
Y16337D01*
X32873Y17124D01*
X31299D01*
X30512Y16337D01*
X-31693Y12402D02*
X-30119D01*
X-30906D01*
Y17124D01*
X-31693Y16337D01*
D13*
X-46024Y-51181D02*
X-46123Y-50175D01*
X-46416Y-49207D01*
X-46893Y-48316D01*
X-47534Y-47534D01*
X-48316Y-46893D01*
X-49207Y-46416D01*
X-50175Y-46123D01*
X-51181Y-46024D01*
X-52187Y-46123D01*
X-53155Y-46416D01*
X-54046Y-46893D01*
X-54828Y-47534D01*
X-55469Y-48316D01*
X-55946Y-49207D01*
X-56239Y-50175D01*
X-56339Y-51181D01*
X-56239Y-52187D01*
X-55946Y-53155D01*
X-55469Y-54046D01*
X-54828Y-54828D01*
X-54046Y-55469D01*
X-53155Y-55946D01*
X-52187Y-56239D01*
X-51181Y-56339D01*
X-50175Y-56239D01*
X-49207Y-55946D01*
X-48316Y-55469D01*
X-47534Y-54828D01*
X-46893Y-54046D01*
X-46416Y-53155D01*
X-46123Y-52187D01*
X-46024Y-51181D01*
Y51181D02*
X-46123Y52187D01*
X-46416Y53155D01*
X-46893Y54046D01*
X-47534Y54828D01*
X-48316Y55469D01*
X-49207Y55946D01*
X-50175Y56239D01*
X-51181Y56339D01*
X-52187Y56239D01*
X-53155Y55946D01*
X-54046Y55469D01*
X-54828Y54828D01*
X-55469Y54046D01*
X-55946Y53155D01*
X-56239Y52187D01*
X-56339Y51181D01*
X-56239Y50175D01*
X-55946Y49207D01*
X-55469Y48316D01*
X-54828Y47534D01*
X-54046Y46893D01*
X-53155Y46416D01*
X-52187Y46123D01*
X-51181Y46024D01*
X-50175Y46123D01*
X-49207Y46416D01*
X-48316Y46893D01*
X-47534Y47534D01*
X-46893Y48316D01*
X-46416Y49207D01*
X-46123Y50175D01*
X-46024Y51181D01*
X56339D02*
X56239Y52187D01*
X55946Y53155D01*
X55469Y54046D01*
X54828Y54828D01*
X54046Y55469D01*
X53155Y55946D01*
X52187Y56239D01*
X51181Y56339D01*
X50175Y56239D01*
X49207Y55946D01*
X48316Y55469D01*
X47534Y54828D01*
X46893Y54046D01*
X46416Y53155D01*
X46123Y52187D01*
X46024Y51181D01*
X46123Y50175D01*
X46416Y49207D01*
X46893Y48316D01*
X47534Y47534D01*
X48316Y46893D01*
X49207Y46416D01*
X50175Y46123D01*
X51181Y46024D01*
X52187Y46123D01*
X53155Y46416D01*
X54046Y46893D01*
X54828Y47534D01*
X55469Y48316D01*
X55946Y49207D01*
X56239Y50175D01*
X56339Y51181D01*
Y-51181D02*
X56239Y-50175D01*
X55946Y-49207D01*
X55469Y-48316D01*
X54828Y-47534D01*
X54046Y-46893D01*
X53155Y-46416D01*
X52187Y-46123D01*
X51181Y-46024D01*
X50175Y-46123D01*
X49207Y-46416D01*
X48316Y-46893D01*
X47534Y-47534D01*
X46893Y-48316D01*
X46416Y-49207D01*
X46123Y-50175D01*
X46024Y-51181D01*
X46123Y-52187D01*
X46416Y-53155D01*
X46893Y-54046D01*
X47534Y-54828D01*
X48316Y-55469D01*
X49207Y-55946D01*
X50175Y-56239D01*
X51181Y-56339D01*
X52187Y-56239D01*
X53155Y-55946D01*
X54046Y-55469D01*
X54828Y-54828D01*
X55469Y-54046D01*
X55946Y-53155D01*
X56239Y-52187D01*
X56339Y-51181D01*
D14*
X-15185Y52287D02*
Y52787D01*
X-24185D02*
X-15185D01*
X-24185Y52287D02*
Y52787D01*
Y48787D02*
Y49287D01*
Y48787D02*
X-15185D01*
Y49287D01*
X-19685Y48787D02*
Y52787D01*
X-23846Y53469D02*
Y53969D01*
X-32847D02*
X-23846D01*
X-32847Y53469D02*
Y53969D01*
Y49968D02*
Y50468D01*
Y49968D02*
X-23846D01*
Y50468D01*
X-28346Y49968D02*
Y53969D01*
X34252Y53150D02*
X35039D01*
X34252Y45276D02*
Y53150D01*
Y45276D02*
X35039D01*
X37402D02*
X38189D01*
Y53150D01*
X37402D02*
X38189D01*
X30315Y28346D02*
Y29134D01*
X22441D02*
X30315D01*
X22441Y28346D02*
Y29134D01*
Y25197D02*
Y25984D01*
Y25197D02*
X30315D01*
Y25984D01*
X-29953Y27335D02*
X-29453D01*
X-29953Y18335D02*
Y27335D01*
Y18335D02*
X-29453D01*
X-26453D02*
X-25953D01*
Y27335D01*
X-26453D02*
X-25953D01*
X-29953Y22835D02*
X-25953D01*
X-25984Y26772D02*
X-25197D01*
X-25984Y18898D02*
Y26772D01*
Y18898D02*
X-25197D01*
X-22835D02*
X-22047D01*
Y26772D01*
X-22835D02*
X-22047D01*
X24803Y-33465D02*
Y-32677D01*
Y-33465D02*
X32677D01*
Y-32677D01*
Y-30315D02*
Y-29528D01*
X24803D02*
X32677D01*
X24803Y-30315D02*
Y-29528D01*
X24634Y-24047D02*
Y-23547D01*
Y-24047D02*
X33634D01*
Y-23547D01*
Y-20547D02*
Y-20047D01*
X24634D02*
X33634D01*
X24634Y-20547D02*
Y-20047D01*
X29134Y-24047D02*
Y-20047D01*
X-24947Y-36178D02*
Y-35678D01*
X-33947D02*
X-24947D01*
X-33947Y-36178D02*
Y-35678D01*
Y-39678D02*
Y-39178D01*
Y-39678D02*
X-24947D01*
Y-39178D01*
X-29447Y-39678D02*
Y-35678D01*
X-26567Y-39729D02*
Y-38942D01*
X-34441D02*
X-26567D01*
X-34441Y-39729D02*
Y-38942D01*
Y-42879D02*
Y-42092D01*
Y-42879D02*
X-26567D01*
Y-42092D01*
X-22272Y-46532D02*
Y-46031D01*
X-31272D02*
X-22272D01*
X-31272Y-46532D02*
Y-46031D01*
Y-50032D02*
Y-49531D01*
Y-50032D02*
X-22272D01*
Y-49531D01*
X-26772Y-50032D02*
Y-46031D01*
X-32677Y-47244D02*
Y-46457D01*
X-40551D02*
X-32677D01*
X-40551Y-47244D02*
Y-46457D01*
Y-50394D02*
Y-49606D01*
Y-50394D02*
X-32677D01*
Y-49606D01*
X-11098Y-26547D02*
X-10598D01*
Y-17547D01*
X-11098D02*
X-10598D01*
X-14598D02*
X-14098D01*
X-14598Y-26547D02*
Y-17547D01*
Y-26547D02*
X-14098D01*
X-14598Y-22047D02*
X-10598D01*
X35264Y-58693D02*
Y-58193D01*
Y-58693D02*
X44264D01*
Y-58193D01*
Y-55193D02*
Y-54693D01*
X35264D02*
X44264D01*
X35264Y-55193D02*
Y-54693D01*
X39764Y-58693D02*
Y-54693D01*
X10598Y26547D02*
X11098D01*
X10598Y17547D02*
Y26547D01*
Y17547D02*
X11098D01*
X14098D02*
X14598D01*
Y26547D01*
X14098D02*
X14598D01*
X10598Y22047D02*
X14598D01*
X-11492Y46681D02*
X-10992D01*
Y55681D01*
X-11492D02*
X-10992D01*
X-14992D02*
X-14492D01*
X-14992Y46681D02*
Y55681D01*
Y46681D02*
X-14492D01*
X-14992Y51181D02*
X-10992D01*
X-25815Y-29602D02*
Y-29102D01*
X-34815D02*
X-25815D01*
X-34815Y-29602D02*
Y-29102D01*
Y-33102D02*
Y-32602D01*
Y-33102D02*
X-25815D01*
Y-32602D01*
X-30315Y-33102D02*
Y-29102D01*
X25815Y-44520D02*
Y-44020D01*
Y-44520D02*
X34815D01*
Y-44020D01*
Y-41020D02*
Y-40520D01*
X25815D02*
X34815D01*
X25815Y-41020D02*
Y-40520D01*
X30315Y-44520D02*
Y-40520D01*
X25815Y29102D02*
Y29602D01*
Y29102D02*
X34815D01*
Y29602D01*
Y32602D02*
Y33102D01*
X25815D02*
X34815D01*
X25815Y32602D02*
Y33102D01*
X30315Y29102D02*
Y33102D01*
X-25815Y44413D02*
Y44913D01*
X-34815D02*
X-25815D01*
X-34815Y44413D02*
Y44913D01*
Y40913D02*
Y41413D01*
Y40913D02*
X-25815D01*
Y41413D01*
X-30315Y40913D02*
Y44913D01*
X-15036Y-26547D02*
X-14536D01*
Y-17547D01*
X-15036D02*
X-14536D01*
X-18536D02*
X-18036D01*
X-18536Y-26547D02*
Y-17547D01*
Y-26547D02*
X-18036D01*
X-18536Y-22047D02*
X-14536D01*
X35264Y-54362D02*
Y-53862D01*
Y-54362D02*
X44264D01*
Y-53862D01*
Y-50862D02*
Y-50362D01*
X35264D02*
X44264D01*
X35264Y-50862D02*
Y-50362D01*
X39764Y-54362D02*
Y-50362D01*
X14536Y26547D02*
X15035D01*
X14536Y17547D02*
Y26547D01*
Y17547D02*
X15035D01*
X18035D02*
X18535D01*
Y26547D01*
X18035D02*
X18535D01*
X14536Y22047D02*
X18535D01*
X26209Y-37433D02*
Y-36933D01*
Y-37433D02*
X35209D01*
Y-36933D01*
Y-33933D02*
Y-33433D01*
X26209D02*
X35209D01*
X26209Y-33933D02*
Y-33433D01*
X30709Y-37433D02*
Y-33433D01*
X26209Y36583D02*
Y37083D01*
Y36583D02*
X35209D01*
Y37083D01*
Y40083D02*
Y40583D01*
X26209D02*
X35209D01*
X26209Y40083D02*
Y40583D01*
X30709Y36583D02*
Y40583D01*
X-26209Y36933D02*
Y37433D01*
X-35209D02*
X-26209D01*
X-35209Y36933D02*
Y37433D01*
Y33433D02*
Y33933D01*
Y33433D02*
X-26209D01*
Y33933D01*
X-30709Y33433D02*
Y37433D01*
X-18972Y-26547D02*
X-18472D01*
Y-17547D01*
X-18972D02*
X-18472D01*
X-22472D02*
X-21972D01*
X-22472Y-26547D02*
Y-17547D01*
Y-26547D02*
X-21972D01*
X-22472Y-22047D02*
X-18472D01*
X32508Y-50819D02*
Y-50319D01*
Y-50819D02*
X41508D01*
Y-50319D01*
Y-47319D02*
Y-46819D01*
X32508D02*
X41508D01*
X32508Y-47319D02*
Y-46819D01*
X37008Y-50819D02*
Y-46819D01*
X18473Y26547D02*
X18972D01*
X18473Y17547D02*
Y26547D01*
Y17547D02*
X18972D01*
X21972D02*
X22472D01*
Y26547D01*
X21972D02*
X22472D01*
X18473Y22047D02*
X22472D01*
X-57949Y-54106D02*
X-57449D01*
Y-45106D01*
X-57949D02*
X-57449D01*
X-61449D02*
X-60949D01*
X-61449Y-54106D02*
Y-45106D01*
Y-54106D02*
X-60949D01*
X-61449Y-49606D02*
X-57449D01*
X60949Y-54106D02*
X61449D01*
Y-45106D01*
X60949D02*
X61449D01*
X57449D02*
X57949D01*
X57449Y-54106D02*
Y-45106D01*
Y-54106D02*
X57949D01*
X57449Y-49606D02*
X61449D01*
X-54025Y-60389D02*
X-53671Y-60036D01*
X-60036Y-53671D02*
X-53671Y-60036D01*
X-60389Y-54025D02*
X-60036Y-53671D01*
X-62864Y-56500D02*
X-62510Y-56146D01*
X-62864Y-56500D02*
X-56500Y-62864D01*
X-56146Y-62510D01*
X-59682Y-59682D02*
X-56853Y-56853D01*
X56146Y-62510D02*
X56500Y-62864D01*
X62864Y-56500D01*
X62510Y-56146D02*
X62864Y-56500D01*
X60036Y-53671D02*
X60389Y-54025D01*
X53671Y-60036D02*
X60036Y-53671D01*
X53671Y-60036D02*
X54025Y-60389D01*
X56853Y-56853D02*
X59682Y-59682D01*
X-44319Y-59130D02*
Y-58630D01*
X-53319D02*
X-44319D01*
X-53319Y-59130D02*
Y-58630D01*
Y-62630D02*
Y-62130D01*
Y-62630D02*
X-44319D01*
Y-62130D01*
X-48819Y-62630D02*
Y-58630D01*
X44319Y-62630D02*
Y-62130D01*
Y-62630D02*
X53319D01*
Y-62130D01*
Y-59130D02*
Y-58630D01*
X44319D02*
X53319D01*
X44319Y-59130D02*
Y-58630D01*
X48819Y-62630D02*
Y-58630D01*
X25028Y48394D02*
Y48894D01*
Y48394D02*
X34028D01*
Y48894D01*
Y51894D02*
Y52394D01*
X25028D02*
X34028D01*
X25028Y51894D02*
Y52394D01*
X29528Y48394D02*
Y52394D01*
X12008Y5709D02*
Y11220D01*
X7008Y10465D02*
Y11220D01*
X17008D01*
Y10465D02*
Y11220D01*
Y5709D02*
Y6465D01*
X7008Y5709D02*
X17008D01*
X7008D02*
Y6465D01*
X-1969Y-5906D02*
X5118D01*
X3543Y-12598D02*
X5118D01*
Y787D01*
X3543D02*
X5118D01*
X-1969D02*
X-394D01*
X-1969Y-12598D02*
Y787D01*
Y-12598D02*
X-394D01*
X-31102Y7874D02*
X-29921D01*
X-31102Y-3150D02*
Y7874D01*
Y-3150D02*
X-29921D01*
X-26772D02*
X-25591D01*
Y7874D01*
X-26772D02*
X-25591D01*
X-31102Y2362D02*
X-25591D01*
X-27165Y-11417D02*
Y-4331D01*
X-33858Y-11417D02*
Y-9843D01*
Y-11417D02*
X-20472D01*
Y-9843D01*
Y-5906D02*
Y-4331D01*
X-33858D02*
X-20472D01*
X-33858Y-5906D02*
Y-4331D01*
X-8268Y2756D02*
X-1181D01*
X-2756Y-3937D02*
X-1181D01*
Y9449D01*
X-2756D02*
X-1181D01*
X-8268D02*
X-6693D01*
X-8268Y-3937D02*
Y9449D01*
Y-3937D02*
X-6693D01*
X-13780Y13780D02*
X-12598D01*
X-13780Y2756D02*
Y13780D01*
Y2756D02*
X-12598D01*
X-9449D02*
X-8268D01*
Y13780D01*
X-9449D02*
X-8268D01*
X-13780Y8268D02*
X-8268D01*
X-10630Y-4724D02*
X-9843D01*
Y3150D01*
X-10630D02*
X-9843D01*
X-13780D02*
X-12992D01*
X-13780Y-4724D02*
Y3150D01*
Y-4724D02*
X-12992D01*
X18701Y-197D02*
X19882D01*
X18701Y-11220D02*
Y-197D01*
Y-11220D02*
X19882D01*
X23031D02*
X24213D01*
Y-197D01*
X23031D02*
X24213D01*
X18701Y-5709D02*
X24213D01*
X28543Y-11220D02*
X29724D01*
Y-197D01*
X28543D02*
X29724D01*
X24213D02*
X25394D01*
X24213Y-11220D02*
Y-197D01*
Y-11220D02*
X25394D01*
X24213Y-5709D02*
X29724D01*
X24213Y10039D02*
X25394D01*
X24213Y-984D02*
Y10039D01*
Y-984D02*
X25394D01*
X28543D02*
X29724D01*
Y10039D01*
X28543D02*
X29724D01*
X24213Y4528D02*
X29724D01*
X23031Y-984D02*
X24213D01*
Y10039D01*
X23031D02*
X24213D01*
X18701D02*
X19882D01*
X18701Y-984D02*
Y10039D01*
Y-984D02*
X19882D01*
X18701Y4528D02*
X24213D01*
X34646Y-24409D02*
Y-23622D01*
X26772D02*
X34646D01*
X26772Y-24409D02*
Y-23622D01*
Y-27559D02*
Y-26772D01*
Y-27559D02*
X34646D01*
Y-26772D01*
X26378Y40551D02*
Y41338D01*
Y40551D02*
X34252D01*
Y41338D01*
Y43701D02*
Y44488D01*
X26378D02*
X34252D01*
X26378Y43701D02*
Y44488D01*
X-27165Y32677D02*
Y33465D01*
X-35039D02*
X-27165D01*
X-35039Y32677D02*
Y33465D01*
Y29528D02*
Y30315D01*
Y29528D02*
X-27165D01*
Y30315D01*
X-31102Y-28740D02*
Y-27953D01*
Y-28740D02*
X-23228D01*
Y-27953D01*
Y-25591D02*
Y-24803D01*
X-31102D02*
X-23228D01*
X-31102Y-25591D02*
Y-24803D01*
X31102Y-44882D02*
Y-44094D01*
X23228D02*
X31102D01*
X23228Y-44882D02*
Y-44094D01*
Y-48031D02*
Y-47244D01*
Y-48031D02*
X31102D01*
Y-47244D01*
X-35039Y44882D02*
Y45669D01*
Y44882D02*
X-27165D01*
Y45669D01*
Y48031D02*
Y48819D01*
X-35039D02*
X-27165D01*
X-35039Y48031D02*
Y48819D01*
X-1181Y8661D02*
X5906D01*
X-1181Y15354D02*
X394D01*
X-1181Y1969D02*
Y15354D01*
Y1969D02*
X394D01*
X4331D02*
X5906D01*
Y15354D01*
X4331D02*
X5906D01*
D15*
X31102Y27165D02*
X35827D01*
X31102Y18504D02*
X35827D01*
Y27165D01*
X31102Y18504D02*
Y27165D01*
X37008Y-18898D02*
Y-14173D01*
X28346Y-18898D02*
Y-14173D01*
Y-18898D02*
X37008D01*
X28346Y-14173D02*
X37008D01*
X-37278Y-25039D02*
X-32554D01*
X-37278Y-16377D02*
X-32554D01*
X-37278Y-25039D02*
Y-16377D01*
X-32554Y-25039D02*
Y-16377D01*
X-31890Y-55118D02*
Y-50394D01*
X-40551Y-55118D02*
Y-50394D01*
Y-55118D02*
X-31890D01*
X-40551Y-50394D02*
X-31890D01*
X-50689Y-31594D02*
X-47244D01*
X-41732D02*
X-38287D01*
X-41732Y-43996D02*
X-38287D01*
X-50689D02*
X-47244D01*
X47244D02*
X50689D01*
X38287D02*
X41732D01*
X38287Y-31594D02*
X41732D01*
X47244D02*
X50689D01*
X47244Y31594D02*
X50689D01*
X38287D02*
X41732D01*
X38287Y43996D02*
X41732D01*
X47244D02*
X50689D01*
X-50689D02*
X-47244D01*
X-41732D02*
X-38287D01*
X-41732Y31594D02*
X-38287D01*
X-50689D02*
X-47244D01*
X-50689Y-17028D02*
X-47244D01*
X-41732D02*
X-38287D01*
X-41732Y-29429D02*
X-38287D01*
X-50689D02*
X-47244D01*
X47244D02*
X50689D01*
X38287D02*
X41732D01*
X38287Y-17028D02*
X41732D01*
X47244D02*
X50689D01*
X47244Y17028D02*
X50689D01*
X38287D02*
X41732D01*
X38287Y29429D02*
X41732D01*
X47244D02*
X50689D01*
X-50689D02*
X-47244D01*
X-41732D02*
X-38287D01*
X-41732Y17028D02*
X-38287D01*
X-50689D02*
X-47244D01*
X-50689Y-2461D02*
X-47244D01*
X-41732D02*
X-38287D01*
X-41732Y-14862D02*
X-38287D01*
X-50689D02*
X-47244D01*
X47244D02*
X50689D01*
X38287D02*
X41732D01*
X38287Y-2461D02*
X41732D01*
X47244D02*
X50689D01*
X47244Y2461D02*
X50689D01*
X38287D02*
X41732D01*
X38287Y14862D02*
X41732D01*
X47244D02*
X50689D01*
X-50689D02*
X-47244D01*
X-41732D02*
X-38287D01*
X-41732Y2461D02*
X-38287D01*
X-50689D02*
X-47244D01*
X-44882Y-46063D02*
X-40157D01*
X-44882Y-54724D02*
X-40157D01*
Y-46063D01*
X-44882Y-54724D02*
Y-46063D01*
X38189Y44488D02*
X42913D01*
X38189Y53150D02*
X42913D01*
X38189Y44488D02*
Y53150D01*
X42913Y44488D02*
Y53150D01*
X-36614Y29528D02*
X-31890D01*
X-36614Y20866D02*
X-31890D01*
Y29528D01*
X-36614Y20866D02*
Y29528D01*
X17323Y-25197D02*
X22047D01*
X17323Y-16535D02*
X22047D01*
X17323Y-25197D02*
Y-16535D01*
X22047Y-25197D02*
Y-16535D01*
X21654Y50000D02*
Y54724D01*
X12992Y50000D02*
Y54724D01*
Y50000D02*
X21654D01*
X12992Y54724D02*
X21654D01*
X-22047Y27165D02*
X-17323D01*
X-22047Y18504D02*
X-17323D01*
Y27165D01*
X-22047Y18504D02*
Y27165D01*
X22067Y29134D02*
X23228D01*
X22067Y44882D02*
X23228D01*
X7480Y29134D02*
X8642D01*
X7480Y44882D02*
X8642D01*
X23228Y29134D02*
Y30295D01*
Y43720D02*
Y44882D01*
X7480Y29134D02*
Y30295D01*
Y43720D02*
Y44882D01*
X-7480Y-44882D02*
Y-43720D01*
Y-30295D02*
Y-29134D01*
X-23228Y-44882D02*
Y-43720D01*
Y-30295D02*
Y-29134D01*
X-8642Y-44882D02*
X-7480D01*
X-8642Y-29134D02*
X-7480D01*
X-23228Y-44882D02*
X-22067D01*
X-23228Y-29134D02*
X-22067D01*
X7480Y-30295D02*
Y-29134D01*
Y-44882D02*
Y-43720D01*
X23228Y-30295D02*
Y-29134D01*
Y-44882D02*
Y-43720D01*
X7480Y-29134D02*
X8642D01*
X7480Y-44882D02*
X8642D01*
X22067Y-29134D02*
X23228D01*
X22067Y-44882D02*
X23228D01*
X-7480Y29134D02*
Y30295D01*
Y43720D02*
Y44882D01*
X-23228Y29134D02*
Y30295D01*
Y43720D02*
Y44882D01*
X-8642Y29134D02*
X-7480D01*
X-8642Y44882D02*
X-7480D01*
X-23228Y29134D02*
X-22067D01*
X-23228Y44882D02*
X-22067D01*
X-64961Y-51181D02*
X-64925Y-52164D01*
X-64820Y-53142D01*
X-64646Y-54110D01*
X-64403Y-55063D01*
X-64092Y-55997D01*
X-63715Y-56905D01*
X-63275Y-57785D01*
X-62773Y-58631D01*
X-62212Y-59439D01*
X-61595Y-60205D01*
X-60925Y-60925D01*
X-60205Y-61595D01*
X-59439Y-62212D01*
X-58631Y-62773D01*
X-57785Y-63275D01*
X-56905Y-63715D01*
X-55997Y-64092D01*
X-55063Y-64403D01*
X-54110Y-64646D01*
X-53142Y-64820D01*
X-52164Y-64925D01*
X-51181Y-64961D01*
X51181D02*
X52164Y-64925D01*
X53142Y-64820D01*
X54110Y-64646D01*
X55063Y-64403D01*
X55997Y-64092D01*
X56905Y-63715D01*
X57785Y-63275D01*
X58631Y-62773D01*
X59439Y-62212D01*
X60205Y-61595D01*
X60925Y-60925D01*
X61595Y-60205D01*
X62212Y-59439D01*
X62773Y-58631D01*
X63275Y-57785D01*
X63715Y-56905D01*
X64092Y-55997D01*
X64403Y-55063D01*
X64646Y-54110D01*
X64820Y-53142D01*
X64925Y-52164D01*
X64961Y-51181D01*
Y51181D02*
X64925Y52164D01*
X64820Y53142D01*
X64646Y54110D01*
X64403Y55063D01*
X64092Y55997D01*
X63715Y56905D01*
X63275Y57785D01*
X62773Y58631D01*
X62212Y59439D01*
X61595Y60205D01*
X60925Y60925D01*
X60205Y61595D01*
X59439Y62212D01*
X58631Y62773D01*
X57785Y63275D01*
X56905Y63715D01*
X55997Y64092D01*
X55063Y64403D01*
X54110Y64646D01*
X53142Y64820D01*
X52164Y64925D01*
X51181Y64961D01*
X-51181D02*
X-52164Y64925D01*
X-53142Y64820D01*
X-54110Y64646D01*
X-55063Y64403D01*
X-55997Y64092D01*
X-56905Y63715D01*
X-57785Y63275D01*
X-58631Y62773D01*
X-59439Y62212D01*
X-60205Y61595D01*
X-60925Y60925D01*
X-61595Y60205D01*
X-62212Y59439D01*
X-62773Y58631D01*
X-63275Y57785D01*
X-63715Y56905D01*
X-64092Y55997D01*
X-64403Y55063D01*
X-64646Y54110D01*
X-64820Y53142D01*
X-64925Y52164D01*
X-64961Y51181D01*
X-51181Y64961D02*
X51181D01*
X64961Y-51181D02*
Y51181D01*
X-51181Y-64961D02*
X51181D01*
X-64960Y-51181D02*
Y51181D01*
D16*
X-31890Y-51181D02*
X-13780D01*
X-64173Y-43701D02*
X-52362D01*
Y-2756D01*
X-64567D02*
X-52362D01*
X-64567Y2756D02*
X-52362D01*
X-51181Y-3937D02*
Y-2362D01*
X-13780Y-64961D02*
Y-51181D01*
X13780Y-64961D02*
Y-51181D01*
X-31890Y-64961D02*
Y-51181D01*
X31890Y-64961D02*
Y-51181D01*
X52362Y-43701D02*
Y-2756D01*
X-64567Y43701D02*
X-64173D01*
X-52362D01*
Y2756D02*
Y43701D01*
X52362D02*
X64173D01*
X52362Y-2756D02*
X64567D01*
X52362Y2756D02*
X64567D01*
X52362D02*
Y43701D01*
Y-43701D02*
X64173D01*
X13780Y-51181D02*
X31890D01*
D17*
X-38976Y-59581D02*
X-33729D01*
X-36353Y-56957D02*
Y-62205D01*
X34646Y-60236D02*
X39893D01*
M02*
