G04*
G04 #@! TF.GenerationSoftware,Altium Limited,Altium Designer,24.4.1 (13)*
G04*
G04 Layer_Physical_Order=1*
G04 Layer_Color=255*
%FSLAX44Y44*%
%MOMM*%
G71*
G04*
G04 #@! TF.SameCoordinates,620EA0B3-285C-493C-A982-72F243028F5E*
G04*
G04*
G04 #@! TF.FilePolarity,Positive*
G04*
G01*
G75*
%ADD11C,0.1270*%
%ADD13C,0.2540*%
%ADD15R,2.3000X2.3000*%
%ADD16R,0.6000X0.7500*%
%ADD17R,0.9000X1.0000*%
%ADD18R,1.3000X1.4000*%
%ADD19R,0.6000X0.6400*%
%ADD20R,1.4000X0.5700*%
%ADD21R,1.0000X1.0000*%
%ADD22R,3.0000X2.5000*%
%ADD23R,0.8000X0.3400*%
%ADD24R,0.6600X0.4200*%
%ADD25R,1.4000X1.3000*%
%ADD26R,0.3400X0.8000*%
%ADD27R,0.4200X0.6600*%
%AMCUSTOMSHAPE41*
4,1,5,1.5000,-1.2500,1.5000,1.2500,-1.5000,1.2500,-1.5000,-0.9000,-1.1500,-1.2500,1.5000,-1.2500,0.0*%
%ADD41CUSTOMSHAPE41*%

%AMCUSTOMSHAPE42*
4,1,5,-1.5000,-1.2500,-1.5000,1.2500,1.5000,1.2500,1.5000,-0.9000,1.1500,-1.2500,-1.5000,-1.2500,0.0*%
%ADD42CUSTOMSHAPE42*%

%ADD43C,0.4500*%
%ADD44C,1.2000*%
%ADD45C,0.8000*%
%ADD46C,0.5000*%
%ADD47C,0.6500*%
%ADD48C,0.4500*%
G36*
X-24000Y-62150D02*
Y-66350D01*
Y-68650D01*
Y-72850D01*
Y-75150D01*
Y-79350D01*
Y-81650D01*
Y-85850D01*
Y-85855D01*
X-24094Y-85894D01*
X-24463Y-85968D01*
X-24776Y-86177D01*
X-25124Y-86321D01*
X-25390Y-86587D01*
X-25704Y-86796D01*
X-27235Y-88328D01*
X-28063Y-89568D01*
X-28355Y-91031D01*
Y-91967D01*
X-29183Y-92796D01*
X-29393Y-93110D01*
X-29659Y-93376D01*
X-29803Y-93724D01*
X-30012Y-94037D01*
X-30086Y-94406D01*
X-30230Y-94754D01*
Y-95131D01*
X-30303Y-95500D01*
X-30230Y-95869D01*
Y-96246D01*
X-30086Y-96594D01*
X-30012Y-96963D01*
X-29803Y-97276D01*
X-29659Y-97624D01*
X-29393Y-97890D01*
X-29183Y-98204D01*
X-26823Y-100564D01*
Y-109000D01*
Y-115000D01*
X-26750Y-115369D01*
Y-115746D01*
X-26606Y-116094D01*
X-26532Y-116463D01*
X-26380Y-116691D01*
X-26447Y-116993D01*
X-26893Y-117771D01*
X-27102Y-117961D01*
X-57077D01*
X-59961Y-115077D01*
Y-87350D01*
X-57808D01*
X-57446Y-87500D01*
X-55954D01*
X-55592Y-87350D01*
X-51900D01*
Y-76186D01*
X-51857Y-75969D01*
Y-65583D01*
X-51900Y-65367D01*
Y-60650D01*
X-53878D01*
X-53908Y-60624D01*
X-54252Y-60058D01*
X-54508Y-59380D01*
X-54427Y-59185D01*
X-54218Y-58872D01*
X-54144Y-58503D01*
X-54000Y-58155D01*
Y-57778D01*
X-53927Y-57409D01*
Y-38000D01*
X-35850D01*
Y-47500D01*
X-28650D01*
Y-38000D01*
X-24000D01*
Y-62150D01*
D02*
G37*
G36*
X48150Y-47500D02*
X49748D01*
Y-51577D01*
X49748Y-51577D01*
X49963Y-52658D01*
X50575Y-53574D01*
X55753Y-58752D01*
X56669Y-59364D01*
X57750Y-59579D01*
X58691Y-59392D01*
X58970Y-59459D01*
X59961Y-60136D01*
Y-61150D01*
X60000D01*
Y-65350D01*
X59961D01*
Y-67650D01*
X60000D01*
Y-71850D01*
X59961D01*
Y-74150D01*
X60000D01*
Y-78350D01*
X59961D01*
Y-80650D01*
X60000D01*
Y-84850D01*
X59961D01*
Y-115077D01*
X57077Y-117961D01*
X24000D01*
Y-96666D01*
X25270Y-95818D01*
X25806Y-96040D01*
X27298D01*
X28677Y-95469D01*
X29731Y-94414D01*
X30302Y-93036D01*
Y-91544D01*
X29731Y-90166D01*
X28677Y-89111D01*
X27298Y-88540D01*
X25806D01*
X25270Y-88762D01*
X24000Y-87914D01*
Y-86350D01*
X32100D01*
Y-79850D01*
Y-73350D01*
Y-66850D01*
Y-59650D01*
X24000D01*
Y-51817D01*
X25270Y-51432D01*
X25492Y-51764D01*
X26408Y-52376D01*
X27489Y-52591D01*
X28570Y-52376D01*
X29486Y-51764D01*
X30098Y-50847D01*
X30313Y-49767D01*
Y-49236D01*
X30313Y-49236D01*
X30098Y-48155D01*
X29486Y-47239D01*
X29486Y-47239D01*
X24000Y-41753D01*
Y-38000D01*
X48150D01*
Y-47500D01*
D02*
G37*
G36*
X6150D02*
X13350D01*
Y-45599D01*
X19000D01*
Y-88540D01*
X18254D01*
X16876Y-89111D01*
X15821Y-90166D01*
X15250Y-91544D01*
Y-93036D01*
X15821Y-94414D01*
X16876Y-95469D01*
X18254Y-96040D01*
X19000D01*
Y-112000D01*
X17774D01*
X16396Y-112571D01*
X15341Y-113626D01*
X14770Y-115004D01*
Y-116496D01*
X14851Y-116691D01*
X14002Y-117961D01*
X-19000D01*
Y-97770D01*
X-17774D01*
X-16396Y-97199D01*
X-15341Y-96144D01*
X-14770Y-94766D01*
Y-93274D01*
X-15341Y-91896D01*
X-16396Y-90841D01*
X-17774Y-90270D01*
X-19000D01*
Y-87350D01*
X-15808D01*
X-15446Y-87500D01*
X-13954D01*
X-13592Y-87350D01*
X-9900D01*
Y-76186D01*
X-9857Y-75969D01*
Y-65583D01*
X-9900Y-65367D01*
Y-60650D01*
X-13592D01*
X-13954Y-60500D01*
X-15446D01*
X-15808Y-60650D01*
X-19000D01*
Y-48832D01*
X-18973Y-48791D01*
X-18757Y-47710D01*
X-18973Y-46629D01*
X-19000Y-46588D01*
Y-38000D01*
X6150D01*
Y-47500D01*
D02*
G37*
G36*
X-47230Y81960D02*
X-35500D01*
Y77000D01*
X-18500D01*
Y77000D01*
X-17500D01*
Y77000D01*
X-12865D01*
X-12160Y75944D01*
X-12250Y75726D01*
Y74234D01*
X-11679Y72856D01*
X-10624Y71801D01*
X-9246Y71230D01*
X-7754D01*
X-6376Y71801D01*
X-5321Y72856D01*
X-4750Y74234D01*
Y75726D01*
X-4840Y75944D01*
X-4135Y77000D01*
X-500D01*
Y77000D01*
X500D01*
Y77000D01*
X17500D01*
Y77000D01*
X18500Y77000D01*
Y77000D01*
X27212D01*
X27960Y76040D01*
Y67770D01*
X37000D01*
Y65230D01*
X27960D01*
Y58472D01*
X26690Y58219D01*
X26679Y58245D01*
X25624Y59300D01*
X24246Y59871D01*
X22754D01*
X21376Y59300D01*
X20321Y58245D01*
X19750Y56867D01*
Y55375D01*
X20321Y53997D01*
X21376Y52942D01*
X22754Y52371D01*
X24246D01*
X25624Y52942D01*
X26679Y53997D01*
X26690Y54022D01*
X27960Y53770D01*
Y49770D01*
X37000D01*
Y47230D01*
X27960D01*
Y39923D01*
X27726Y38750D01*
X26234D01*
X24856Y38179D01*
X23801Y37124D01*
X23230Y35746D01*
Y34254D01*
X23801Y32876D01*
X24856Y31821D01*
X26234Y31250D01*
X27726D01*
X27960Y31094D01*
Y28145D01*
X27726Y27989D01*
X26234D01*
X24856Y27418D01*
X23801Y26363D01*
X23230Y24985D01*
Y24040D01*
X15386D01*
X15230Y24274D01*
Y25766D01*
X14659Y27144D01*
X13604Y28199D01*
X12226Y28770D01*
X10734D01*
X9356Y28199D01*
X8301Y27144D01*
X7730Y25766D01*
Y24274D01*
X7574Y24040D01*
X4460D01*
Y16270D01*
X14000D01*
Y13730D01*
X4460D01*
Y12459D01*
X3771Y11999D01*
X2280D01*
X1770Y11788D01*
X1337Y12077D01*
X500Y13000D01*
Y14000D01*
X500D01*
Y24500D01*
X-1823D01*
Y34500D01*
X-1989Y35333D01*
X-2461Y36039D01*
X-5561Y39140D01*
X-5263Y40638D01*
X-4855Y40807D01*
X-3800Y41862D01*
X-3229Y43240D01*
Y44732D01*
X-3800Y46110D01*
X-4855Y47165D01*
X-6234Y47736D01*
X-7725D01*
X-8479Y48798D01*
X-8554Y48980D01*
X-7787Y50250D01*
X-7254D01*
X-5876Y50821D01*
X-4821Y51876D01*
X-4250Y53254D01*
Y54746D01*
X-4821Y56124D01*
X-5876Y57179D01*
X-7254Y57750D01*
X-8746D01*
X-10124Y57179D01*
X-11179Y56124D01*
X-11750Y54746D01*
Y54126D01*
X-13020Y53873D01*
X-13342Y54650D01*
X-14397Y55705D01*
X-15775Y56276D01*
X-17267D01*
X-18645Y55705D01*
X-19733Y56413D01*
X-19821Y56624D01*
X-20876Y57679D01*
X-22254Y58250D01*
X-23746D01*
X-25124Y57679D01*
X-26179Y56624D01*
X-26464Y55937D01*
X-27784Y56067D01*
X-27982Y57061D01*
X-28866Y58384D01*
X-28866Y58384D01*
X-29750Y59268D01*
Y64500D01*
X-41750D01*
X-42210Y65540D01*
X-47980D01*
Y58000D01*
X-50520D01*
Y65540D01*
X-56290D01*
Y61060D01*
X-56754Y60750D01*
X-58246D01*
X-58691Y60566D01*
X-59961Y61414D01*
Y81960D01*
X-49770D01*
Y96000D01*
X-47230D01*
Y81960D01*
D02*
G37*
G36*
X-58246Y53250D02*
X-56754D01*
X-56290Y52940D01*
Y50460D01*
X-49356D01*
X-48507Y49190D01*
X-48562Y49058D01*
Y47566D01*
X-47991Y46188D01*
X-46936Y45133D01*
X-45558Y44562D01*
X-44066D01*
X-42688Y45133D01*
X-41633Y46188D01*
X-41062Y47566D01*
Y49058D01*
X-41547Y50230D01*
X-41229Y51023D01*
X-40901Y51500D01*
X-35828D01*
Y47100D01*
X-35828Y47100D01*
X-35518Y45539D01*
X-34634Y44216D01*
X-32000Y41582D01*
Y39959D01*
X-33270Y39432D01*
X-33669Y39831D01*
X-34509Y40393D01*
X-35500Y40590D01*
X-59000Y40590D01*
X-59453Y40953D01*
X-59961Y41676D01*
Y52586D01*
X-58691Y53434D01*
X-58246Y53250D01*
D02*
G37*
G36*
X-32000Y16041D02*
Y11693D01*
X-32054Y11420D01*
X-32054Y11420D01*
Y11340D01*
X-37570Y5824D01*
X-44300D01*
X-44300Y5824D01*
X-45381Y5609D01*
X-46297Y4997D01*
X-46297Y4997D01*
X-47094Y4200D01*
X-50860D01*
Y5240D01*
X-55130D01*
Y-500D01*
X-57670D01*
Y5240D01*
X-59961D01*
Y14283D01*
X-59201Y15408D01*
X-59199Y15410D01*
X-59000Y15410D01*
X-35500D01*
X-34509Y15607D01*
X-33669Y16169D01*
X-33270Y16567D01*
X-32000Y16041D01*
D02*
G37*
G36*
X59961Y-35000D02*
X24823D01*
X24532Y-33537D01*
X23704Y-32296D01*
X22463Y-31468D01*
X21000Y-31177D01*
X17300D01*
Y-31200D01*
X15382D01*
X14037Y-31468D01*
X12796Y-32296D01*
X11968Y-33537D01*
X11677Y-35000D01*
X-54105D01*
X-54144Y-34906D01*
X-54218Y-34537D01*
X-54427Y-34224D01*
X-54571Y-33876D01*
X-54837Y-33610D01*
X-55047Y-33296D01*
X-55360Y-33087D01*
X-55626Y-32821D01*
X-55974Y-32677D01*
X-56287Y-32468D01*
X-56656Y-32394D01*
X-57004Y-32250D01*
X-57381D01*
X-57750Y-32177D01*
X-58119Y-32250D01*
X-58496D01*
X-58691Y-32331D01*
X-59168Y-32151D01*
X-59775Y-31696D01*
X-59961Y-31440D01*
Y-5200D01*
X-54259D01*
Y-6631D01*
X-53688Y-8009D01*
X-52633Y-9064D01*
X-51255Y-9635D01*
X-49763D01*
X-48385Y-9064D01*
X-47330Y-8009D01*
X-46759Y-6631D01*
Y-5396D01*
X-46628Y-5200D01*
X-43100D01*
Y-2000D01*
X-40900D01*
Y-5200D01*
X-23100D01*
Y-2000D01*
X-14322Y-2000D01*
X-13796Y-3270D01*
X-14093Y-3566D01*
X-14664Y-4945D01*
Y-6437D01*
X-14093Y-7815D01*
X-13038Y-8870D01*
X-11660Y-9441D01*
X-10168D01*
X-8789Y-8870D01*
X-8404Y-8485D01*
X-7278Y-8153D01*
X-6782Y-8521D01*
X-6124Y-9179D01*
X-4746Y-9750D01*
X-3254D01*
X-1876Y-9179D01*
X-821Y-8124D01*
X-250Y-6746D01*
Y-5254D01*
X-821Y-3876D01*
X-1427Y-3270D01*
X-901Y-2000D01*
X31000D01*
Y4000D01*
X45000D01*
Y21000D01*
X45000D01*
Y22000D01*
X45000D01*
Y39000D01*
X45000D01*
Y40000D01*
X45000D01*
Y57000D01*
X45000D01*
Y58000D01*
X45000D01*
Y75000D01*
X36992D01*
X36500Y75065D01*
X31000D01*
Y93000D01*
X35500D01*
Y107961D01*
X59961D01*
Y-35000D01*
D02*
G37*
%LPC*%
G36*
X12226Y39394D02*
X10734D01*
X9356Y38823D01*
X8301Y37768D01*
X7730Y36390D01*
Y34898D01*
X8301Y33520D01*
X9356Y32465D01*
X10734Y31894D01*
X12226D01*
X13604Y32465D01*
X14659Y33520D01*
X15230Y34898D01*
Y36390D01*
X14659Y37768D01*
X13604Y38823D01*
X12226Y39394D01*
D02*
G37*
%LPD*%
G36*
G01X-16500Y25150D02*
G01X-28350D01*
G01X-35500Y18000D01*
G01X-59000Y18000D01*
G02X-60000Y19000I0J1000D01*
G01Y37000D01*
G02X-59000Y38000I1000J0D01*
G01X-35500Y38000D01*
G01X-28350Y30850D01*
G01X-16500D01*
G01Y25150D01*
D02*
G37*
D11*
X-4000Y19250D02*
Y34500D01*
X-12000Y42500D02*
Y47500D01*
Y42500D02*
X-4000Y34500D01*
X-48500Y89500D02*
Y96000D01*
Y96500D01*
D13*
X3000Y19000D02*
X10000D01*
X14000Y15000D01*
X-44300Y3000D02*
X-36400D01*
X-27300Y3200D02*
X-27000Y3500D01*
X-27300Y-200D02*
Y3200D01*
X-27600Y-500D02*
X-27300Y-200D01*
X19641Y29585D02*
X36085D01*
X37000Y30500D01*
X19000Y10000D02*
X34500D01*
X37000Y12500D01*
X14000Y15000D02*
X19000Y10000D01*
X-11500Y8500D02*
X-10750Y7750D01*
X-4000D01*
X-11500Y18500D02*
X-10750Y17750D01*
X-36400Y3000D02*
X-29230Y10170D01*
Y11420D02*
X-27650Y13000D01*
X-29230Y10170D02*
Y11420D01*
X-27650Y13000D02*
X-23500D01*
X-47600Y-300D02*
X-44300Y3000D01*
X-47600Y-500D02*
Y-300D01*
X-36400Y-500D02*
Y3000D01*
X-49164Y-4010D02*
Y-2064D01*
X-47600Y-500D01*
X-50509Y-5355D02*
X-49164Y-4010D01*
X-50509Y-5885D02*
Y-5355D01*
X13630Y-3144D02*
X14000Y-2774D01*
Y-1000D01*
X-21957Y-48085D02*
X-21582Y-47710D01*
X-31000Y-50000D02*
X-28726D01*
X-26811Y-48085D01*
X-21957D01*
X27489Y-49767D02*
Y-49236D01*
X21028Y-42775D02*
X27489Y-49236D01*
X10580Y-42775D02*
X21028D01*
X10505Y-42700D02*
X10580Y-42775D01*
X9750Y-42700D02*
X10505D01*
X52573Y-51577D02*
X57750Y-56755D01*
X51750Y-42700D02*
X52573Y-43523D01*
Y-51577D02*
Y-43523D01*
D15*
X-48500Y96000D02*
D03*
X48500D02*
D03*
D16*
X-4000Y19250D02*
D03*
Y7750D02*
D03*
D17*
X-49250Y58000D02*
D03*
X-35750D02*
D03*
D18*
X37000Y66500D02*
D03*
X53000D02*
D03*
Y12500D02*
D03*
X37000D02*
D03*
X53000Y30500D02*
D03*
X37000D02*
D03*
X53000Y48500D02*
D03*
X37000D02*
D03*
D19*
X-56400Y-500D02*
D03*
X-47600D02*
D03*
X-36400D02*
D03*
X-27600D02*
D03*
D20*
X-23500Y13000D02*
D03*
Y43000D02*
D03*
D21*
X-45500Y28000D02*
D03*
D22*
X0Y-105500D02*
D03*
D23*
X-29000Y-83750D02*
D03*
Y-77250D02*
D03*
Y-70750D02*
D03*
Y-64250D02*
D03*
X55000Y-82750D02*
D03*
Y-76250D02*
D03*
Y-69750D02*
D03*
Y-63250D02*
D03*
X13000Y-64250D02*
D03*
Y-70750D02*
D03*
Y-77250D02*
D03*
Y-83750D02*
D03*
D24*
X-56700Y-77250D02*
D03*
Y-70750D02*
D03*
Y-83750D02*
D03*
Y-64250D02*
D03*
X27300Y-76250D02*
D03*
Y-69750D02*
D03*
Y-82750D02*
D03*
Y-63250D02*
D03*
X-14700Y-64250D02*
D03*
Y-83750D02*
D03*
Y-70750D02*
D03*
Y-77250D02*
D03*
D25*
X-27000Y85000D02*
D03*
Y101000D02*
D03*
X-9000Y85000D02*
D03*
Y101000D02*
D03*
X9000Y85000D02*
D03*
Y101000D02*
D03*
X27000Y85000D02*
D03*
Y101000D02*
D03*
X14000Y-1000D02*
D03*
Y15000D02*
D03*
D26*
X51750Y-15000D02*
D03*
X45250D02*
D03*
X38750D02*
D03*
X32250D02*
D03*
X9750D02*
D03*
X3250D02*
D03*
X-3250D02*
D03*
X-9750D02*
D03*
X-32250D02*
D03*
X-38750D02*
D03*
X-45250D02*
D03*
X-51750D02*
D03*
D27*
X45250Y-42700D02*
D03*
X38750D02*
D03*
X51750D02*
D03*
X32250D02*
D03*
X3250D02*
D03*
X-3250D02*
D03*
X9750D02*
D03*
X-9750D02*
D03*
X-38750D02*
D03*
X-45250D02*
D03*
X-32250D02*
D03*
X-51750D02*
D03*
D41*
X-45000Y-105500D02*
D03*
D42*
X45000D02*
D03*
D43*
X15500Y-35000D02*
X21000D01*
X-57750Y-57409D02*
Y-36000D01*
X-26480Y-95500D02*
X-24531Y-93551D01*
Y-91031D01*
X-23000Y-89500D01*
Y-109000D02*
Y-98980D01*
X-26480Y-95500D02*
X-23000Y-98980D01*
Y-115000D02*
Y-109000D01*
D44*
X23463Y67500D02*
X36500D01*
X20059Y68520D02*
X22443D01*
X36500Y66000D02*
Y67500D01*
X22443Y68520D02*
X23463Y67500D01*
X-8750Y100750D02*
X10547D01*
X9000Y101000D02*
X9600Y100400D01*
X-9000Y101000D02*
X-8750Y100750D01*
X14100Y101000D02*
X27000D01*
X13500Y100400D02*
X14100Y101000D01*
X9600Y100400D02*
X13500D01*
X10547Y100750D02*
X10797Y101000D01*
X37000Y49000D02*
Y66500D01*
X28500Y48000D02*
X36500D01*
X25000Y44500D02*
X28500Y48000D01*
X37000Y12500D02*
Y30500D01*
Y48500D01*
X36000Y49500D02*
Y53000D01*
Y49500D02*
X37000Y48500D01*
X36500Y48000D02*
X37000Y48500D01*
X-48500Y96000D02*
X-43500Y101000D01*
X-48500Y76000D02*
Y89500D01*
X-27000Y101000D02*
X-9000D01*
X-43500D02*
X-27000D01*
X53000Y30500D02*
Y66500D01*
Y12500D02*
Y30500D01*
X9000Y85000D02*
X27000D01*
X27000Y85000D01*
X-9000Y85000D02*
X9000D01*
X-27000D02*
X-9000D01*
D45*
X-49750Y57500D02*
X-48750Y58500D01*
Y71750D02*
X-47000Y73500D01*
X-48750Y58500D02*
Y71750D01*
X-54000Y15000D02*
Y49759D01*
X-49750Y54009D01*
Y57500D01*
D46*
X-35750Y58000D02*
X-35250Y57500D01*
X-33750D01*
X-31750Y55500D01*
Y47100D02*
Y55500D01*
Y47100D02*
X-27650Y43000D01*
X-23500D01*
X-19350D01*
X-23500D02*
X-19350D01*
X-11500Y18500D02*
Y35150D01*
Y8500D02*
Y18500D01*
X-19000Y-17056D02*
Y1000D01*
X-11500Y8500D01*
X-19350Y43000D02*
X-11500Y35150D01*
D47*
X-14700Y-75969D02*
Y-70750D01*
Y-65583D01*
X-56700Y-75969D02*
Y-70750D01*
Y-65583D01*
D48*
X-8000Y54000D02*
D03*
X-8500Y74980D02*
D03*
X3500Y100750D02*
D03*
X13500Y100400D02*
D03*
X-12000Y47500D02*
D03*
X35000Y65000D02*
D03*
X39500Y61500D02*
D03*
Y69000D02*
D03*
X30500Y97500D02*
D03*
X22500Y97000D02*
D03*
X31000Y105000D02*
D03*
X22000D02*
D03*
X-39500Y24500D02*
D03*
Y31000D02*
D03*
X-25500Y25000D02*
D03*
X27260Y5875D02*
D03*
X-25500Y31500D02*
D03*
X-27000Y3500D02*
D03*
X-23000Y-89500D02*
D03*
Y-102500D02*
D03*
Y-109000D02*
D03*
Y-115000D02*
D03*
X-26480Y-95500D02*
D03*
X36000Y53000D02*
D03*
X9400Y67000D02*
D03*
X-55500Y103500D02*
D03*
Y89500D02*
D03*
X-48500Y96500D02*
D03*
Y89500D02*
D03*
X-48000Y103500D02*
D03*
X-57750Y-42626D02*
D03*
Y-50000D02*
D03*
X-57750Y-36000D02*
D03*
Y-57409D02*
D03*
X-23000Y54500D02*
D03*
X-16521Y52526D02*
D03*
X41500Y104000D02*
D03*
X23500Y56121D02*
D03*
X3025Y8249D02*
D03*
X-4000Y-6000D02*
D03*
X-6979Y43986D02*
D03*
X-18520Y-94020D02*
D03*
X26980Y35000D02*
D03*
X11480Y35644D02*
D03*
Y25020D02*
D03*
X-50509Y-5885D02*
D03*
X-44812Y48312D02*
D03*
X13630Y-3144D02*
D03*
X26552Y-92290D02*
D03*
X18520Y-115750D02*
D03*
X-57500Y57000D02*
D03*
X19000Y-92290D02*
D03*
X26980Y24239D02*
D03*
X48500Y97000D02*
D03*
X41500Y90000D02*
D03*
X55500D02*
D03*
Y104000D02*
D03*
X-56700Y-83750D02*
D03*
X-14700Y-77250D02*
D03*
Y-83750D02*
D03*
X-10914Y-5691D02*
D03*
X-56700Y-77250D02*
D03*
Y-70750D02*
D03*
Y-64250D02*
D03*
X-14700D02*
D03*
Y-70750D02*
D03*
X13500Y-8000D02*
D03*
X23624Y-81850D02*
D03*
M02*
