G04*
G04 #@! TF.GenerationSoftware,Altium Limited,Altium Designer,24.4.1 (13)*
G04*
G04 Layer_Physical_Order=6*
G04 Layer_Color=16776960*
%FSLAX44Y44*%
%MOMM*%
G71*
G04*
G04 #@! TF.SameCoordinates,620EA0B3-285C-493C-A982-72F243028F5E*
G04*
G04*
G04 #@! TF.FilePolarity,Positive*
G04*
G01*
G75*
%ADD11C,0.1270*%
%ADD13C,0.2540*%
%ADD43C,0.4500*%
%ADD48C,0.4500*%
D11*
X-12155Y47655D02*
Y71325D01*
X-8500Y74980D01*
X-12155Y47655D02*
X-12000Y47500D01*
X-41148Y-42352D02*
Y-28352D01*
X-57500Y-12000D02*
Y57000D01*
Y-12000D02*
X-41148Y-28352D01*
Y-42352D02*
X-30500Y-53000D01*
X-13000D01*
X-1500Y-71790D02*
X19000Y-92290D01*
X-13000Y-53000D02*
X-1500Y-64500D01*
Y-71790D02*
Y-64500D01*
D13*
X-1000Y12793D02*
Y47530D01*
X-7470Y54000D02*
X-1000Y47530D01*
X-8000Y54000D02*
X-7470D01*
X48657Y-19093D02*
X51883D01*
X57496Y-13480D01*
X57750D01*
X42439Y-25311D02*
X48657Y-19093D01*
X57220Y-49981D02*
X57750D01*
X56207Y-50960D02*
X56240D01*
X52670Y-89331D02*
Y-54498D01*
X56240Y-50960D02*
X57220Y-49981D01*
X52670Y-54498D02*
X56207Y-50960D01*
X47272Y-83228D02*
Y-30478D01*
X32000Y-98500D02*
X47272Y-83228D01*
Y-30478D02*
X57750Y-20000D01*
X29954Y-82046D02*
X42439Y-69561D01*
Y-25311D01*
X18255Y58755D02*
X18500Y59000D01*
X15255Y58755D02*
X18255D01*
X12500Y56000D02*
X15255Y58755D01*
X12500Y44500D02*
Y56000D01*
Y44500D02*
X18000Y39000D01*
Y31540D02*
Y39000D01*
X11480Y25020D02*
X18000Y31540D01*
X3025Y8249D02*
Y8768D01*
X-1000Y12793D02*
X3025Y8768D01*
X8000Y-2000D02*
Y5259D01*
X-21582Y-31582D02*
X8000Y-2000D01*
Y5259D02*
X26980Y24239D01*
X-21582Y-47710D02*
Y-31582D01*
X50Y-98500D02*
X32000D01*
X-14700Y-83750D02*
X50Y-98500D01*
X443Y-106000D02*
X36000D01*
X52670Y-89331D01*
X23820Y-82046D02*
X29954D01*
X23624Y-81850D02*
X23820Y-82046D01*
X-21807Y-83750D02*
X443Y-106000D01*
X-56700Y-83750D02*
X-21807D01*
D43*
X-50509Y-5885D02*
X-10914D01*
X-23000Y54500D02*
Y54876D01*
Y41000D02*
Y54500D01*
Y41000D02*
X-10914Y28914D01*
Y-5691D02*
Y28914D01*
Y-5885D02*
Y-5691D01*
D48*
X-8000Y54000D02*
D03*
X-8500Y74980D02*
D03*
X3500Y100750D02*
D03*
X13500Y100400D02*
D03*
X-12000Y47500D02*
D03*
X35000Y65000D02*
D03*
X39500Y61500D02*
D03*
Y69000D02*
D03*
X30500Y97500D02*
D03*
X22500Y97000D02*
D03*
X31000Y105000D02*
D03*
X22000D02*
D03*
X-39500Y24500D02*
D03*
Y31000D02*
D03*
X-25500Y25000D02*
D03*
X27260Y5875D02*
D03*
X-25500Y31500D02*
D03*
X-27000Y3500D02*
D03*
X-23000Y-89500D02*
D03*
Y-102500D02*
D03*
Y-109000D02*
D03*
Y-115000D02*
D03*
X-26480Y-95500D02*
D03*
X36000Y53000D02*
D03*
X9400Y67000D02*
D03*
X-55500Y103500D02*
D03*
Y89500D02*
D03*
X-48500Y96500D02*
D03*
Y89500D02*
D03*
X-48000Y103500D02*
D03*
X-57750Y-42626D02*
D03*
Y-50000D02*
D03*
X-57750Y-36000D02*
D03*
Y-57409D02*
D03*
X-23000Y54500D02*
D03*
X-16521Y52526D02*
D03*
X41500Y104000D02*
D03*
X23500Y56121D02*
D03*
X3025Y8249D02*
D03*
X-4000Y-6000D02*
D03*
X-6979Y43986D02*
D03*
X-18520Y-94020D02*
D03*
X26980Y35000D02*
D03*
X11480Y35644D02*
D03*
Y25020D02*
D03*
X-50509Y-5885D02*
D03*
X-44812Y48312D02*
D03*
X13630Y-3144D02*
D03*
X26552Y-92290D02*
D03*
X18520Y-115750D02*
D03*
X-57500Y57000D02*
D03*
X19000Y-92290D02*
D03*
X26980Y24239D02*
D03*
X48500Y97000D02*
D03*
X41500Y90000D02*
D03*
X55500D02*
D03*
Y104000D02*
D03*
X-56700Y-83750D02*
D03*
X-14700Y-77250D02*
D03*
Y-83750D02*
D03*
X-10914Y-5691D02*
D03*
X-56700Y-77250D02*
D03*
Y-70750D02*
D03*
Y-64250D02*
D03*
X-14700D02*
D03*
Y-70750D02*
D03*
X13500Y-8000D02*
D03*
X23624Y-81850D02*
D03*
M02*
