G04*
G04 #@! TF.GenerationSoftware,Altium Limited,Altium Designer,24.4.1 (13)*
G04*
G04 Layer_Color=65535*
%FSLAX44Y44*%
%MOMM*%
G71*
G04*
G04 #@! TF.SameCoordinates,620EA0B3-285C-493C-A982-72F243028F5E*
G04*
G04*
G04 #@! TF.FilePolarity,Positive*
G04*
G01*
G75*
%ADD10C,0.1500*%
%ADD11C,0.1270*%
%ADD12C,0.1200*%
%ADD13C,0.2540*%
%ADD14R,1.1000X2.6500*%
D10*
X-9080Y24930D02*
X-7810D01*
X-9080Y2070D02*
Y24930D01*
Y2070D02*
X-7810D01*
X-190D02*
X1080D01*
Y24930D01*
X-190D02*
X1080D01*
X-9080Y13500D02*
X1080D01*
X-42500Y51000D02*
Y65000D01*
X-28500Y51000D02*
Y54000D01*
X-56500Y51000D02*
X-28500D01*
X-56500D02*
Y54000D01*
Y62000D02*
Y65000D01*
X-28500D01*
Y62000D02*
Y65000D01*
X45000Y57500D02*
Y75500D01*
X62000Y71500D02*
Y75500D01*
X28000D02*
X62000D01*
X28000Y71500D02*
Y75500D01*
Y57500D02*
Y61500D01*
Y57500D02*
X62000D01*
Y61500D01*
X-62000Y2500D02*
Y4500D01*
X-42000D01*
Y2500D02*
Y4500D01*
Y-5500D02*
Y-3500D01*
X-62000Y-5500D02*
X-42000D01*
X-62000D02*
Y-3500D01*
X-36000Y76000D02*
X-32000D01*
X-36000D02*
Y110000D01*
X-32000D01*
X-22000D02*
X-18000D01*
Y76000D02*
Y110000D01*
X-22000Y76000D02*
X-18000D01*
X-36000Y93000D02*
X-18000D01*
X-18000Y76000D02*
X-14000D01*
X-18000D02*
Y110000D01*
X-14000D01*
X-4000D02*
X0D01*
Y76000D02*
Y110000D01*
X-4000Y76000D02*
X0D01*
X-18000Y93000D02*
X0D01*
Y76000D02*
X4000D01*
X0D02*
Y110000D01*
X4000D01*
X14000D02*
X18000D01*
Y76000D02*
Y110000D01*
X14000Y76000D02*
X18000D01*
X0Y93000D02*
X18000D01*
X18000Y76000D02*
X22000D01*
X18000D02*
Y110000D01*
X22000D01*
X32000D02*
X36000D01*
Y76000D02*
Y110000D01*
X32000Y76000D02*
X36000D01*
X18000Y93000D02*
X36000D01*
X62000Y3500D02*
Y7500D01*
X28000Y3500D02*
X62000D01*
X28000D02*
Y7500D01*
Y17500D02*
Y21500D01*
X62000D01*
Y17500D02*
Y21500D01*
X45000Y3500D02*
Y21500D01*
X62000D02*
Y25500D01*
X28000Y21500D02*
X62000D01*
X28000D02*
Y25500D01*
Y35500D02*
Y39500D01*
X62000D01*
Y35500D02*
Y39500D01*
X45000Y21500D02*
Y39500D01*
X62000Y39500D02*
Y43500D01*
X28000Y39500D02*
X62000D01*
X28000D02*
Y43500D01*
Y53500D02*
Y57500D01*
X62000D01*
Y53500D02*
Y57500D01*
X45000Y39500D02*
Y57500D01*
X5000Y-10000D02*
X9000D01*
X5000D02*
Y24000D01*
X9000D01*
X19000D02*
X23000D01*
Y-10000D02*
Y24000D01*
X19000Y-10000D02*
X23000D01*
X5000Y7000D02*
X23000D01*
X-22000Y2500D02*
Y4500D01*
X-42000D02*
X-22000D01*
X-42000Y2500D02*
Y4500D01*
Y-5500D02*
Y-3500D01*
Y-5500D02*
X-22000D01*
Y-3500D01*
X42500Y82998D02*
Y78333D01*
X44833Y76000D01*
X47165Y78333D01*
Y82998D01*
X49498Y79499D02*
X54163D01*
X51830Y81831D02*
Y77166D01*
X-53335Y81331D02*
X-54501Y82498D01*
X-56834D01*
X-58000Y81331D01*
Y76666D01*
X-56834Y75500D01*
X-54501D01*
X-53335Y76666D01*
Y78999D01*
X-55668D01*
X-51002Y75500D02*
Y82498D01*
X-46337Y75500D01*
Y82498D01*
X-44005D02*
Y75500D01*
X-40506D01*
X-39339Y76666D01*
Y81331D01*
X-40506Y82498D01*
X-44005D01*
D11*
X-27000Y4500D02*
Y8500D01*
X-53500Y4500D02*
X-27000D01*
X-53500D02*
Y14000D01*
X-27000Y47500D02*
Y51500D01*
X-53500D02*
X-27000D01*
X-53500Y42000D02*
Y51500D01*
X-57750Y-58250D02*
X-49000D01*
X-35000D02*
X-26250D01*
X-35000Y-89750D02*
X-26250D01*
X-57750D02*
X-49000D01*
X26250Y-57250D02*
X35000D01*
X49000D02*
X57750D01*
X49000Y-88750D02*
X57750D01*
X26250D02*
X35000D01*
X-15750Y-89750D02*
X-7000D01*
X7000D02*
X15750D01*
X7000Y-58250D02*
X15750D01*
X-15750D02*
X-7000D01*
X26250Y-43750D02*
Y-35000D01*
Y-21000D02*
Y-12250D01*
X57750Y-21000D02*
Y-12250D01*
Y-43750D02*
Y-35000D01*
X-15750Y-43750D02*
Y-35000D01*
Y-21000D02*
Y-12250D01*
X15750Y-21000D02*
Y-12250D01*
Y-43750D02*
Y-35000D01*
X-57750Y-43750D02*
Y-35000D01*
Y-21000D02*
Y-12250D01*
X-26250Y-21000D02*
Y-12250D01*
Y-43750D02*
Y-35000D01*
D12*
X-247Y49833D02*
X1419Y46501D01*
X3085Y49833D01*
X8084Y46501D02*
X4751D01*
X8084Y49833D01*
Y50666D01*
X7250Y51499D01*
X5584D01*
X4751Y50666D01*
X9750Y46501D02*
Y47334D01*
X10583D01*
Y46501D01*
X9750D01*
X13915Y50666D02*
X14748Y51499D01*
X16414D01*
X17247Y50666D01*
Y47334D01*
X16414Y46501D01*
X14748D01*
X13915Y47334D01*
Y50666D01*
D13*
X-8630Y69535D02*
X-17960D01*
Y55540D01*
X-8630D01*
X-17960Y62538D02*
X-13295D01*
X5366Y67203D02*
X3033Y69535D01*
X-1632D01*
X-3965Y67203D01*
Y64870D01*
X-1632Y62538D01*
X3033D01*
X5366Y60205D01*
Y57873D01*
X3033Y55540D01*
X-1632D01*
X-3965Y57873D01*
X19361Y67203D02*
X17029Y69535D01*
X12364D01*
X10031Y67203D01*
Y57873D01*
X12364Y55540D01*
X17029D01*
X19361Y57873D01*
D14*
X22500Y-104750D02*
D03*
X-22500Y-104750D02*
D03*
M02*
