G04*
G04 #@! TF.GenerationSoftware,Altium Limited,Altium Designer,24.4.1 (13)*
G04*
G04 Layer_Color=128*
%FSLAX44Y44*%
%MOMM*%
G71*
G04*
G04 #@! TF.SameCoordinates,620EA0B3-285C-493C-A982-72F243028F5E*
G04*
G04*
G04 #@! TF.FilePolarity,Positive*
G04*
G01*
G75*
%ADD16R,0.6000X0.7500*%
%ADD18R,1.3000X1.4000*%
%ADD19R,0.6000X0.6400*%
%ADD25R,1.4000X1.3000*%
%ADD49R,1.3500X1.1500*%
%ADD50R,0.6400X0.6000*%
%ADD52C,0.6000*%
%ADD53O,1.5000X2.2000*%
G04:AMPARAMS|DCode=55|XSize=0.6mm|YSize=0.3mm|CornerRadius=0mm|HoleSize=0mm|Usage=FLASHONLY|Rotation=45.000|XOffset=0mm|YOffset=0mm|HoleType=Round|Shape=Rectangle|*
%AMROTATEDRECTD55*
4,1,4,-0.1061,-0.3182,-0.3182,-0.1061,0.1061,0.3182,0.3182,0.1061,-0.1061,-0.3182,0.0*
%
%ADD55ROTATEDRECTD55*%

G04:AMPARAMS|DCode=56|XSize=0.6mm|YSize=0.3mm|CornerRadius=0mm|HoleSize=0mm|Usage=FLASHONLY|Rotation=315.000|XOffset=0mm|YOffset=0mm|HoleType=Round|Shape=Rectangle|*
%AMROTATEDRECTD56*
4,1,4,-0.3182,0.1061,-0.1061,0.3182,0.3182,-0.1061,0.1061,-0.3182,-0.3182,0.1061,0.0*
%
%ADD56ROTATEDRECTD56*%

%ADD57P,4.8790X4X360.0*%
%ADD58R,0.7500X0.6000*%
G04:AMPARAMS|DCode=59|XSize=0.64mm|YSize=0.6mm|CornerRadius=0mm|HoleSize=0mm|Usage=FLASHONLY|Rotation=45.000|XOffset=0mm|YOffset=0mm|HoleType=Round|Shape=Rectangle|*
%AMROTATEDRECTD59*
4,1,4,-0.0141,-0.4384,-0.4384,-0.0141,0.0141,0.4384,0.4384,0.0141,-0.0141,-0.4384,0.0*
%
%ADD59ROTATEDRECTD59*%

G36*
X-23000Y-100500D02*
Y-115500D01*
X-25500Y-118000D01*
X-30500D01*
X-33000Y-115500D01*
Y-100500D01*
X-30500Y-98000D01*
X-25500D01*
X-23000Y-100500D01*
D02*
G37*
G36*
X-9000D02*
Y-115500D01*
X-11500Y-118000D01*
X-16500D01*
X-19000Y-115500D01*
Y-100500D01*
X-16500Y-98000D01*
X-11500D01*
X-9000Y-100500D01*
D02*
G37*
G36*
X5000D02*
Y-115500D01*
X2500Y-118000D01*
X-2500D01*
X-5000Y-115500D01*
Y-100500D01*
X-2500Y-98000D01*
X2500D01*
X5000Y-100500D01*
D02*
G37*
G36*
X19000D02*
Y-115500D01*
X16500Y-118000D01*
X11500D01*
X9000Y-115500D01*
Y-100500D01*
X11500Y-98000D01*
X16500D01*
X19000Y-100500D01*
D02*
G37*
G36*
X33000D02*
Y-115500D01*
X30500Y-118000D01*
X25500D01*
X23000Y-115500D01*
Y-100500D01*
X25500Y-98000D01*
X30500D01*
X33000Y-100500D01*
D02*
G37*
D16*
X3500Y100750D02*
D03*
Y89250D02*
D03*
X40500Y-112750D02*
D03*
Y-101250D02*
D03*
X20000Y68750D02*
D03*
Y80250D02*
D03*
X-57000Y60750D02*
D03*
Y49250D02*
D03*
X33500Y12250D02*
D03*
Y750D02*
D03*
D18*
X27500Y99000D02*
D03*
X43500D02*
D03*
D19*
X90900Y-49500D02*
D03*
X82100D02*
D03*
X39100Y-84000D02*
D03*
X47900D02*
D03*
X9400Y77000D02*
D03*
X600D02*
D03*
X-23100Y57500D02*
D03*
X-31900D02*
D03*
X13600Y5000D02*
D03*
X22400D02*
D03*
X9400Y67000D02*
D03*
X600D02*
D03*
D25*
X53000Y81000D02*
D03*
Y65000D02*
D03*
X35000D02*
D03*
Y81000D02*
D03*
D49*
X46500Y-60250D02*
D03*
Y-42750D02*
D03*
X-46000Y-67250D02*
D03*
Y-84750D02*
D03*
X-25000Y-67250D02*
D03*
Y-84750D02*
D03*
D50*
X13500Y91600D02*
D03*
Y100400D02*
D03*
X-47000Y68900D02*
D03*
Y60100D02*
D03*
X96500Y-54400D02*
D03*
Y-45600D02*
D03*
D52*
X-57000Y-22500D02*
D03*
Y-14500D02*
D03*
Y-6500D02*
D03*
Y1500D02*
D03*
D53*
X-52000Y97000D02*
D03*
X-12000D02*
D03*
X-32000D02*
D03*
D55*
X-45607Y5607D02*
D03*
X-12373Y38841D02*
D03*
X-38536Y-1464D02*
D03*
X-49142Y9142D02*
D03*
X-42071Y2071D02*
D03*
X-52678Y12678D02*
D03*
X-35000Y-5000D02*
D03*
X-15908Y42376D02*
D03*
X-5301Y31770D02*
D03*
X-1766Y28234D02*
D03*
X-19444Y45912D02*
D03*
X-8837Y35305D02*
D03*
X-56213Y16213D02*
D03*
X-31465Y-8536D02*
D03*
X1769Y24699D02*
D03*
X-22979Y49447D02*
D03*
D56*
X-42071Y38841D02*
D03*
X-38536Y42376D02*
D03*
X-35000Y45912D02*
D03*
X-49142Y31770D02*
D03*
X-45607Y35305D02*
D03*
X-1766Y12678D02*
D03*
X-8837Y5607D02*
D03*
X-19444Y-5000D02*
D03*
X-15908Y-1464D02*
D03*
X-5301Y9142D02*
D03*
X-12373Y2071D02*
D03*
X-52678Y28234D02*
D03*
X-56213Y24699D02*
D03*
X-22979Y-8536D02*
D03*
X1769Y16213D02*
D03*
X-31465Y49447D02*
D03*
D57*
X-27222Y20456D02*
D03*
D58*
X44250Y10000D02*
D03*
X55750D02*
D03*
X-20250Y67500D02*
D03*
X-31750D02*
D03*
X30250Y35000D02*
D03*
X18750D02*
D03*
Y25000D02*
D03*
X30250D02*
D03*
X44250Y30500D02*
D03*
X55750D02*
D03*
X44250Y20500D02*
D03*
X55750D02*
D03*
X44250Y40500D02*
D03*
X55750D02*
D03*
X22750Y15000D02*
D03*
X11250D02*
D03*
X44250Y50000D02*
D03*
X55750D02*
D03*
D59*
X127611Y-58111D02*
D03*
X121389Y-51889D02*
D03*
M02*
