G04*
G04 #@! TF.GenerationSoftware,Altium Limited,Altium Designer,24.4.1 (13)*
G04*
G04 Layer_Color=8388736*
%FSLAX44Y44*%
%MOMM*%
G71*
G04*
G04 #@! TF.SameCoordinates,620EA0B3-285C-493C-A982-72F243028F5E*
G04*
G04*
G04 #@! TF.FilePolarity,Negative*
G04*
G01*
G75*
%ADD28R,2.5032X2.5032*%
%ADD29R,0.8032X0.9532*%
%ADD30R,1.1032X1.2032*%
%ADD31R,1.5032X1.6032*%
%ADD32R,0.8032X0.8432*%
%ADD33R,1.6032X0.7732*%
%ADD34R,1.2032X1.2032*%
%ADD35R,3.2032X2.7032*%
%ADD36R,1.0032X0.5432*%
%ADD37R,0.8632X0.6232*%
%ADD38R,1.6032X1.5032*%
%ADD39R,0.5432X1.0032*%
%ADD40R,0.6232X0.8632*%
G36*
X-35500Y39018D02*
X-35367Y39009D01*
X-35236Y38984D01*
X-35110Y38941D01*
X-34991Y38882D01*
X-34880Y38808D01*
X-34780Y38720D01*
X-27928Y31868D01*
X-16500D01*
X-16367Y31860D01*
X-16236Y31834D01*
X-16110Y31791D01*
X-15991Y31732D01*
X-15880Y31658D01*
X-15780Y31570D01*
X-15692Y31470D01*
X-15618Y31359D01*
X-15559Y31240D01*
X-15517Y31114D01*
X-15490Y30983D01*
X-15482Y30850D01*
Y25150D01*
X-15490Y25017D01*
X-15517Y24887D01*
X-15559Y24760D01*
X-15618Y24641D01*
X-15692Y24530D01*
X-15780Y24430D01*
X-15880Y24342D01*
X-15991Y24268D01*
X-16110Y24209D01*
X-16236Y24167D01*
X-16367Y24141D01*
X-16500Y24132D01*
X-27928D01*
X-34780Y17280D01*
X-34880Y17192D01*
X-34991Y17118D01*
X-35110Y17059D01*
X-35236Y17017D01*
X-35367Y16990D01*
X-35500Y16982D01*
X-59000D01*
X-59199Y16982D01*
X-59199D01*
X-59199D01*
X-59260Y16986D01*
X-59332Y16990D01*
X-59332Y16990D01*
X-59332D01*
X-59383Y17001D01*
X-59462Y17017D01*
X-59462Y17017D01*
X-59462Y17017D01*
X-59510Y17033D01*
X-59588Y17059D01*
X-59588Y17059D01*
X-59589Y17059D01*
X-59956Y17211D01*
X-59956Y17212D01*
X-60036Y17251D01*
X-60075Y17270D01*
X-60149Y17320D01*
X-60186Y17344D01*
X-60286Y17432D01*
X-60567Y17713D01*
X-60568Y17714D01*
X-60620Y17773D01*
X-60655Y17814D01*
X-60729Y17924D01*
X-60729Y17924D01*
D01*
X-60788Y18044D01*
X-60941Y18411D01*
X-60941Y18412D01*
X-60968Y18493D01*
X-60983Y18538D01*
X-60984Y18538D01*
Y18538D01*
X-61009Y18668D01*
X-61016Y18766D01*
X-61018Y18801D01*
Y18801D01*
Y18801D01*
X-61018Y18998D01*
X-61018Y19000D01*
X-61018Y37000D01*
X-61018Y37199D01*
Y37199D01*
Y37199D01*
X-61015Y37242D01*
X-61009Y37332D01*
X-60984Y37462D01*
D01*
X-60984Y37462D01*
X-60954Y37550D01*
X-60941Y37588D01*
X-60941Y37588D01*
X-60941Y37589D01*
X-60788Y37956D01*
X-60729Y38075D01*
D01*
X-60729Y38076D01*
X-60655Y38186D01*
X-60585Y38267D01*
X-60568Y38286D01*
X-60568Y38286D01*
X-60568Y38286D01*
X-60286Y38568D01*
X-60186Y38656D01*
X-60075Y38730D01*
X-59956Y38788D01*
X-59588Y38941D01*
X-59588Y38941D01*
X-59588Y38941D01*
X-59530Y38961D01*
X-59462Y38984D01*
X-59462Y38984D01*
X-59462Y38984D01*
X-59408Y38994D01*
X-59332Y39009D01*
X-59332D01*
X-59331Y39009D01*
X-59268Y39014D01*
X-59199Y39018D01*
X-59199D01*
X-59199D01*
X-59002Y39018D01*
X-59000Y39018D01*
X-35500Y39018D01*
D02*
G37*
G36*
X53983Y-8990D02*
X54113Y-9017D01*
X54240Y-9059D01*
X54359Y-9118D01*
X54470Y-9192D01*
X54570Y-9280D01*
X54658Y-9380D01*
X54732Y-9491D01*
X54791Y-9610D01*
X54833Y-9736D01*
X54859Y-9867D01*
X54868Y-10000D01*
Y-24482D01*
X59300D01*
X59433Y-24490D01*
X59563Y-24516D01*
X59690Y-24559D01*
X59809Y-24618D01*
X59920Y-24692D01*
X60020Y-24780D01*
X60108Y-24880D01*
X60182Y-24991D01*
X60241Y-25110D01*
X60283Y-25236D01*
X60309Y-25367D01*
X60318Y-25500D01*
Y-31200D01*
X60309Y-31333D01*
X60283Y-31463D01*
X60241Y-31590D01*
X60182Y-31709D01*
X60108Y-31820D01*
X60020Y-31920D01*
X59920Y-32008D01*
X59809Y-32082D01*
X59690Y-32141D01*
X59563Y-32183D01*
X59433Y-32209D01*
X59300Y-32218D01*
X54868D01*
Y-33000D01*
X54859Y-33133D01*
X54833Y-33263D01*
X54791Y-33390D01*
X54732Y-33509D01*
X54658Y-33620D01*
X54570Y-33720D01*
X54470Y-33808D01*
X54359Y-33882D01*
X54240Y-33941D01*
X54113Y-33984D01*
X53983Y-34009D01*
X53850Y-34018D01*
X30150D01*
X30017Y-34009D01*
X29887Y-33984D01*
X29760Y-33941D01*
X29641Y-33882D01*
X29530Y-33808D01*
X29430Y-33720D01*
X29342Y-33620D01*
X29268Y-33509D01*
X29209Y-33390D01*
X29167Y-33263D01*
X29141Y-33133D01*
X29132Y-33000D01*
Y-32218D01*
X24700D01*
X24567Y-32209D01*
X24437Y-32183D01*
X24310Y-32141D01*
X24191Y-32082D01*
X24080Y-32008D01*
X23980Y-31920D01*
X23892Y-31820D01*
X23818Y-31709D01*
X23759Y-31590D01*
X23716Y-31463D01*
X23691Y-31333D01*
X23682Y-31200D01*
Y-25500D01*
X23691Y-25367D01*
X23716Y-25236D01*
X23759Y-25110D01*
X23818Y-24991D01*
X23892Y-24880D01*
X23980Y-24780D01*
X24080Y-24692D01*
X24191Y-24618D01*
X24310Y-24559D01*
X24437Y-24516D01*
X24567Y-24490D01*
X24700Y-24482D01*
X29132D01*
Y-10000D01*
X29141Y-9867D01*
X29167Y-9736D01*
X29209Y-9610D01*
X29268Y-9491D01*
X29342Y-9380D01*
X29430Y-9280D01*
X29530Y-9192D01*
X29641Y-9118D01*
X29760Y-9059D01*
X29887Y-9017D01*
X30017Y-8990D01*
X30150Y-8982D01*
X34350D01*
X34483Y-8990D01*
X34613Y-9017D01*
X34740Y-9059D01*
X34859Y-9118D01*
X34970Y-9192D01*
X35070Y-9280D01*
X35158Y-9380D01*
X35232Y-9491D01*
X35291Y-9610D01*
X35333Y-9736D01*
X35359Y-9867D01*
X35368Y-10000D01*
Y-13682D01*
X35632D01*
Y-10000D01*
X35640Y-9867D01*
X35666Y-9736D01*
X35709Y-9610D01*
X35768Y-9491D01*
X35842Y-9380D01*
X35930Y-9280D01*
X36030Y-9192D01*
X36141Y-9118D01*
X36260Y-9059D01*
X36386Y-9017D01*
X36517Y-8990D01*
X36650Y-8982D01*
X40850D01*
X40983Y-8990D01*
X41114Y-9017D01*
X41240Y-9059D01*
X41359Y-9118D01*
X41470Y-9192D01*
X41570Y-9280D01*
X41658Y-9380D01*
X41732Y-9491D01*
X41791Y-9610D01*
X41833Y-9736D01*
X41859Y-9867D01*
X41868Y-10000D01*
Y-13682D01*
X42132D01*
Y-10000D01*
X42140Y-9867D01*
X42167Y-9736D01*
X42209Y-9610D01*
X42268Y-9491D01*
X42342Y-9380D01*
X42430Y-9280D01*
X42530Y-9192D01*
X42641Y-9118D01*
X42760Y-9059D01*
X42887Y-9017D01*
X43017Y-8990D01*
X43150Y-8982D01*
X47350D01*
X47483Y-8990D01*
X47614Y-9017D01*
X47740Y-9059D01*
X47859Y-9118D01*
X47970Y-9192D01*
X48070Y-9280D01*
X48158Y-9380D01*
X48232Y-9491D01*
X48291Y-9610D01*
X48334Y-9736D01*
X48359Y-9867D01*
X48368Y-10000D01*
Y-13682D01*
X48632D01*
Y-10000D01*
X48640Y-9867D01*
X48667Y-9736D01*
X48709Y-9610D01*
X48768Y-9491D01*
X48842Y-9380D01*
X48930Y-9280D01*
X49030Y-9192D01*
X49141Y-9118D01*
X49260Y-9059D01*
X49386Y-9017D01*
X49517Y-8990D01*
X49650Y-8982D01*
X53850D01*
X53983Y-8990D01*
D02*
G37*
G36*
X11983D02*
X12113Y-9017D01*
X12240Y-9059D01*
X12359Y-9118D01*
X12470Y-9192D01*
X12570Y-9280D01*
X12658Y-9380D01*
X12732Y-9491D01*
X12791Y-9610D01*
X12833Y-9736D01*
X12859Y-9867D01*
X12868Y-10000D01*
Y-24482D01*
X17300D01*
X17433Y-24490D01*
X17564Y-24516D01*
X17690Y-24559D01*
X17809Y-24618D01*
X17920Y-24692D01*
X18020Y-24780D01*
X18108Y-24880D01*
X18182Y-24991D01*
X18241Y-25110D01*
X18283Y-25236D01*
X18310Y-25367D01*
X18318Y-25500D01*
Y-31200D01*
X18310Y-31333D01*
X18283Y-31463D01*
X18241Y-31590D01*
X18182Y-31709D01*
X18108Y-31820D01*
X18020Y-31920D01*
X17920Y-32008D01*
X17809Y-32082D01*
X17690Y-32141D01*
X17564Y-32183D01*
X17433Y-32209D01*
X17300Y-32218D01*
X12868D01*
Y-33000D01*
X12859Y-33133D01*
X12833Y-33263D01*
X12791Y-33390D01*
X12732Y-33509D01*
X12658Y-33620D01*
X12570Y-33720D01*
X12470Y-33808D01*
X12359Y-33882D01*
X12240Y-33941D01*
X12113Y-33984D01*
X11983Y-34009D01*
X11850Y-34018D01*
X-11850D01*
X-11983Y-34009D01*
X-12113Y-33984D01*
X-12240Y-33941D01*
X-12359Y-33882D01*
X-12470Y-33808D01*
X-12570Y-33720D01*
X-12658Y-33620D01*
X-12732Y-33509D01*
X-12791Y-33390D01*
X-12833Y-33263D01*
X-12859Y-33133D01*
X-12868Y-33000D01*
Y-32218D01*
X-17300D01*
X-17433Y-32209D01*
X-17564Y-32183D01*
X-17690Y-32141D01*
X-17809Y-32082D01*
X-17920Y-32008D01*
X-18020Y-31920D01*
X-18108Y-31820D01*
X-18182Y-31709D01*
X-18241Y-31590D01*
X-18283Y-31463D01*
X-18310Y-31333D01*
X-18318Y-31200D01*
Y-25500D01*
X-18310Y-25367D01*
X-18283Y-25236D01*
X-18241Y-25110D01*
X-18182Y-24991D01*
X-18108Y-24880D01*
X-18020Y-24780D01*
X-17920Y-24692D01*
X-17809Y-24618D01*
X-17690Y-24559D01*
X-17564Y-24516D01*
X-17433Y-24490D01*
X-17300Y-24482D01*
X-12868D01*
Y-10000D01*
X-12859Y-9867D01*
X-12833Y-9736D01*
X-12791Y-9610D01*
X-12732Y-9491D01*
X-12658Y-9380D01*
X-12570Y-9280D01*
X-12470Y-9192D01*
X-12359Y-9118D01*
X-12240Y-9059D01*
X-12113Y-9017D01*
X-11983Y-8990D01*
X-11850Y-8982D01*
X-7650D01*
X-7517Y-8990D01*
X-7387Y-9017D01*
X-7260Y-9059D01*
X-7141Y-9118D01*
X-7030Y-9192D01*
X-6930Y-9280D01*
X-6842Y-9380D01*
X-6768Y-9491D01*
X-6709Y-9610D01*
X-6666Y-9736D01*
X-6640Y-9867D01*
X-6632Y-10000D01*
Y-13682D01*
X-6368D01*
Y-10000D01*
X-6360Y-9867D01*
X-6334Y-9736D01*
X-6291Y-9610D01*
X-6232Y-9491D01*
X-6158Y-9380D01*
X-6070Y-9280D01*
X-5970Y-9192D01*
X-5859Y-9118D01*
X-5740Y-9059D01*
X-5613Y-9017D01*
X-5483Y-8990D01*
X-5350Y-8982D01*
X-1150D01*
X-1017Y-8990D01*
X-887Y-9017D01*
X-760Y-9059D01*
X-641Y-9118D01*
X-530Y-9192D01*
X-430Y-9280D01*
X-342Y-9380D01*
X-268Y-9491D01*
X-209Y-9610D01*
X-167Y-9736D01*
X-141Y-9867D01*
X-132Y-10000D01*
Y-13682D01*
X132D01*
Y-10000D01*
X141Y-9867D01*
X167Y-9736D01*
X209Y-9610D01*
X268Y-9491D01*
X342Y-9380D01*
X430Y-9280D01*
X530Y-9192D01*
X641Y-9118D01*
X760Y-9059D01*
X887Y-9017D01*
X1017Y-8990D01*
X1150Y-8982D01*
X5350D01*
X5483Y-8990D01*
X5613Y-9017D01*
X5740Y-9059D01*
X5859Y-9118D01*
X5970Y-9192D01*
X6070Y-9280D01*
X6158Y-9380D01*
X6232Y-9491D01*
X6291Y-9610D01*
X6334Y-9736D01*
X6360Y-9867D01*
X6368Y-10000D01*
Y-13682D01*
X6632D01*
Y-10000D01*
X6640Y-9867D01*
X6666Y-9736D01*
X6709Y-9610D01*
X6768Y-9491D01*
X6842Y-9380D01*
X6930Y-9280D01*
X7030Y-9192D01*
X7141Y-9118D01*
X7260Y-9059D01*
X7387Y-9017D01*
X7517Y-8990D01*
X7650Y-8982D01*
X11850D01*
X11983Y-8990D01*
D02*
G37*
G36*
X-30017D02*
X-29887Y-9017D01*
X-29760Y-9059D01*
X-29641Y-9118D01*
X-29530Y-9192D01*
X-29430Y-9280D01*
X-29342Y-9380D01*
X-29268Y-9491D01*
X-29209Y-9610D01*
X-29167Y-9736D01*
X-29141Y-9867D01*
X-29132Y-10000D01*
Y-24482D01*
X-24700D01*
X-24567Y-24490D01*
X-24437Y-24516D01*
X-24310Y-24559D01*
X-24191Y-24618D01*
X-24080Y-24692D01*
X-23980Y-24780D01*
X-23892Y-24880D01*
X-23818Y-24991D01*
X-23759Y-25110D01*
X-23716Y-25236D01*
X-23691Y-25367D01*
X-23682Y-25500D01*
Y-31200D01*
X-23691Y-31333D01*
X-23716Y-31463D01*
X-23759Y-31590D01*
X-23818Y-31709D01*
X-23892Y-31820D01*
X-23980Y-31920D01*
X-24080Y-32008D01*
X-24191Y-32082D01*
X-24310Y-32141D01*
X-24437Y-32183D01*
X-24567Y-32209D01*
X-24700Y-32218D01*
X-29132D01*
Y-33000D01*
X-29141Y-33133D01*
X-29167Y-33263D01*
X-29209Y-33390D01*
X-29268Y-33509D01*
X-29342Y-33620D01*
X-29430Y-33720D01*
X-29530Y-33808D01*
X-29641Y-33882D01*
X-29760Y-33941D01*
X-29887Y-33984D01*
X-30017Y-34009D01*
X-30150Y-34018D01*
X-53850D01*
X-53983Y-34009D01*
X-54113Y-33984D01*
X-54240Y-33941D01*
X-54359Y-33882D01*
X-54470Y-33808D01*
X-54570Y-33720D01*
X-54658Y-33620D01*
X-54732Y-33509D01*
X-54791Y-33390D01*
X-54833Y-33263D01*
X-54859Y-33133D01*
X-54868Y-33000D01*
Y-32218D01*
X-59300D01*
X-59433Y-32209D01*
X-59563Y-32183D01*
X-59690Y-32141D01*
X-59809Y-32082D01*
X-59920Y-32008D01*
X-60020Y-31920D01*
X-60108Y-31820D01*
X-60182Y-31709D01*
X-60241Y-31590D01*
X-60283Y-31463D01*
X-60310Y-31333D01*
X-60318Y-31200D01*
Y-25500D01*
X-60310Y-25367D01*
X-60283Y-25236D01*
X-60241Y-25110D01*
X-60182Y-24991D01*
X-60108Y-24880D01*
X-60020Y-24780D01*
X-59920Y-24692D01*
X-59809Y-24618D01*
X-59690Y-24559D01*
X-59563Y-24516D01*
X-59433Y-24490D01*
X-59300Y-24482D01*
X-54868D01*
Y-10000D01*
X-54859Y-9867D01*
X-54833Y-9736D01*
X-54791Y-9610D01*
X-54732Y-9491D01*
X-54658Y-9380D01*
X-54570Y-9280D01*
X-54470Y-9192D01*
X-54359Y-9118D01*
X-54240Y-9059D01*
X-54113Y-9017D01*
X-53983Y-8990D01*
X-53850Y-8982D01*
X-49650D01*
X-49517Y-8990D01*
X-49387Y-9017D01*
X-49260Y-9059D01*
X-49141Y-9118D01*
X-49030Y-9192D01*
X-48930Y-9280D01*
X-48842Y-9380D01*
X-48768Y-9491D01*
X-48709Y-9610D01*
X-48667Y-9736D01*
X-48640Y-9867D01*
X-48632Y-10000D01*
Y-13682D01*
X-48368D01*
Y-10000D01*
X-48359Y-9867D01*
X-48334Y-9736D01*
X-48291Y-9610D01*
X-48232Y-9491D01*
X-48158Y-9380D01*
X-48070Y-9280D01*
X-47970Y-9192D01*
X-47859Y-9118D01*
X-47740Y-9059D01*
X-47614Y-9017D01*
X-47483Y-8990D01*
X-47350Y-8982D01*
X-43150D01*
X-43017Y-8990D01*
X-42887Y-9017D01*
X-42760Y-9059D01*
X-42641Y-9118D01*
X-42530Y-9192D01*
X-42430Y-9280D01*
X-42342Y-9380D01*
X-42268Y-9491D01*
X-42209Y-9610D01*
X-42167Y-9736D01*
X-42140Y-9867D01*
X-42132Y-10000D01*
Y-13682D01*
X-41868D01*
Y-10000D01*
X-41859Y-9867D01*
X-41834Y-9736D01*
X-41791Y-9610D01*
X-41732Y-9491D01*
X-41658Y-9380D01*
X-41570Y-9280D01*
X-41470Y-9192D01*
X-41359Y-9118D01*
X-41240Y-9059D01*
X-41114Y-9017D01*
X-40983Y-8990D01*
X-40850Y-8982D01*
X-36650D01*
X-36517Y-8990D01*
X-36386Y-9017D01*
X-36260Y-9059D01*
X-36141Y-9118D01*
X-36030Y-9192D01*
X-35930Y-9280D01*
X-35842Y-9380D01*
X-35768Y-9491D01*
X-35709Y-9610D01*
X-35666Y-9736D01*
X-35640Y-9867D01*
X-35632Y-10000D01*
Y-13682D01*
X-35368D01*
Y-10000D01*
X-35359Y-9867D01*
X-35333Y-9736D01*
X-35291Y-9610D01*
X-35232Y-9491D01*
X-35158Y-9380D01*
X-35070Y-9280D01*
X-34970Y-9192D01*
X-34859Y-9118D01*
X-34740Y-9059D01*
X-34613Y-9017D01*
X-34483Y-8990D01*
X-34350Y-8982D01*
X-30150D01*
X-30017Y-8990D01*
D02*
G37*
G36*
X44633Y-54690D02*
X44763Y-54717D01*
X44890Y-54759D01*
X45009Y-54818D01*
X45120Y-54892D01*
X45220Y-54980D01*
X45308Y-55080D01*
X45382Y-55191D01*
X45441Y-55310D01*
X45483Y-55437D01*
X45509Y-55567D01*
X45518Y-55700D01*
Y-60132D01*
X60000D01*
X60133Y-60141D01*
X60264Y-60167D01*
X60390Y-60209D01*
X60509Y-60268D01*
X60620Y-60342D01*
X60720Y-60430D01*
X60808Y-60530D01*
X60882Y-60641D01*
X60941Y-60760D01*
X60983Y-60887D01*
X61009Y-61017D01*
X61018Y-61150D01*
Y-65350D01*
X61009Y-65483D01*
X60983Y-65613D01*
X60941Y-65740D01*
X60882Y-65859D01*
X60808Y-65970D01*
X60720Y-66070D01*
X60620Y-66158D01*
X60509Y-66232D01*
X60390Y-66291D01*
X60264Y-66333D01*
X60133Y-66360D01*
X60000Y-66368D01*
X56318D01*
Y-66632D01*
X60000D01*
X60133Y-66641D01*
X60264Y-66666D01*
X60390Y-66709D01*
X60509Y-66768D01*
X60620Y-66842D01*
X60720Y-66930D01*
X60808Y-67030D01*
X60882Y-67141D01*
X60941Y-67260D01*
X60983Y-67386D01*
X61009Y-67517D01*
X61018Y-67650D01*
Y-71850D01*
X61009Y-71983D01*
X60983Y-72113D01*
X60941Y-72240D01*
X60882Y-72359D01*
X60808Y-72470D01*
X60720Y-72570D01*
X60620Y-72658D01*
X60509Y-72732D01*
X60390Y-72791D01*
X60264Y-72833D01*
X60133Y-72860D01*
X60000Y-72868D01*
X56318D01*
Y-73132D01*
X60000D01*
X60133Y-73141D01*
X60264Y-73166D01*
X60390Y-73209D01*
X60509Y-73268D01*
X60620Y-73342D01*
X60720Y-73430D01*
X60808Y-73530D01*
X60882Y-73641D01*
X60941Y-73760D01*
X60983Y-73886D01*
X61009Y-74017D01*
X61018Y-74150D01*
Y-78350D01*
X61009Y-78483D01*
X60983Y-78614D01*
X60941Y-78740D01*
X60882Y-78859D01*
X60808Y-78970D01*
X60720Y-79070D01*
X60620Y-79158D01*
X60509Y-79232D01*
X60390Y-79291D01*
X60264Y-79334D01*
X60133Y-79359D01*
X60000Y-79368D01*
X56318D01*
Y-79632D01*
X60000D01*
X60133Y-79640D01*
X60264Y-79667D01*
X60390Y-79709D01*
X60509Y-79768D01*
X60620Y-79842D01*
X60720Y-79930D01*
X60808Y-80030D01*
X60882Y-80141D01*
X60941Y-80260D01*
X60983Y-80386D01*
X61009Y-80517D01*
X61018Y-80650D01*
Y-84850D01*
X61009Y-84983D01*
X60983Y-85113D01*
X60941Y-85240D01*
X60882Y-85359D01*
X60808Y-85470D01*
X60720Y-85570D01*
X60620Y-85658D01*
X60509Y-85732D01*
X60390Y-85791D01*
X60264Y-85834D01*
X60133Y-85859D01*
X60000Y-85868D01*
X45518D01*
Y-90300D01*
X45509Y-90433D01*
X45483Y-90563D01*
X45441Y-90690D01*
X45382Y-90809D01*
X45308Y-90920D01*
X45220Y-91020D01*
X45120Y-91108D01*
X45009Y-91182D01*
X44890Y-91241D01*
X44763Y-91284D01*
X44633Y-91309D01*
X44500Y-91318D01*
X38800D01*
X38667Y-91309D01*
X38536Y-91284D01*
X38410Y-91241D01*
X38291Y-91182D01*
X38180Y-91108D01*
X38080Y-91020D01*
X37992Y-90920D01*
X37918Y-90809D01*
X37859Y-90690D01*
X37817Y-90563D01*
X37791Y-90433D01*
X37782Y-90300D01*
Y-85868D01*
X37000D01*
X36867Y-85859D01*
X36737Y-85834D01*
X36610Y-85791D01*
X36491Y-85732D01*
X36380Y-85658D01*
X36280Y-85570D01*
X36192Y-85470D01*
X36118Y-85359D01*
X36059Y-85240D01*
X36016Y-85113D01*
X35991Y-84983D01*
X35982Y-84850D01*
Y-61150D01*
X35991Y-61017D01*
X36016Y-60887D01*
X36059Y-60760D01*
X36118Y-60641D01*
X36192Y-60530D01*
X36280Y-60430D01*
X36380Y-60342D01*
X36491Y-60268D01*
X36610Y-60209D01*
X36737Y-60167D01*
X36867Y-60141D01*
X37000Y-60132D01*
X37782D01*
Y-55700D01*
X37791Y-55567D01*
X37817Y-55437D01*
X37859Y-55310D01*
X37918Y-55191D01*
X37992Y-55080D01*
X38080Y-54980D01*
X38180Y-54892D01*
X38291Y-54818D01*
X38410Y-54759D01*
X38536Y-54717D01*
X38667Y-54690D01*
X38800Y-54682D01*
X44500D01*
X44633Y-54690D01*
D02*
G37*
G36*
X2633Y-55690D02*
X2763Y-55717D01*
X2890Y-55759D01*
X3009Y-55818D01*
X3120Y-55892D01*
X3220Y-55980D01*
X3308Y-56080D01*
X3382Y-56191D01*
X3441Y-56310D01*
X3483Y-56437D01*
X3510Y-56567D01*
X3518Y-56700D01*
Y-61132D01*
X18000D01*
X18133Y-61140D01*
X18263Y-61167D01*
X18390Y-61209D01*
X18509Y-61268D01*
X18620Y-61342D01*
X18720Y-61430D01*
X18808Y-61530D01*
X18882Y-61641D01*
X18941Y-61760D01*
X18984Y-61887D01*
X19009Y-62017D01*
X19018Y-62150D01*
Y-66350D01*
X19009Y-66483D01*
X18984Y-66613D01*
X18941Y-66740D01*
X18882Y-66859D01*
X18808Y-66970D01*
X18720Y-67070D01*
X18620Y-67158D01*
X18509Y-67232D01*
X18390Y-67291D01*
X18263Y-67333D01*
X18133Y-67359D01*
X18000Y-67368D01*
X14318D01*
Y-67632D01*
X18000D01*
X18133Y-67641D01*
X18263Y-67667D01*
X18390Y-67709D01*
X18509Y-67768D01*
X18620Y-67842D01*
X18720Y-67930D01*
X18808Y-68030D01*
X18882Y-68141D01*
X18941Y-68260D01*
X18984Y-68387D01*
X19009Y-68517D01*
X19018Y-68650D01*
Y-72850D01*
X19009Y-72983D01*
X18984Y-73113D01*
X18941Y-73240D01*
X18882Y-73359D01*
X18808Y-73470D01*
X18720Y-73570D01*
X18620Y-73658D01*
X18509Y-73732D01*
X18390Y-73791D01*
X18263Y-73833D01*
X18133Y-73860D01*
X18000Y-73868D01*
X14318D01*
Y-74132D01*
X18000D01*
X18133Y-74141D01*
X18263Y-74166D01*
X18390Y-74209D01*
X18509Y-74268D01*
X18620Y-74342D01*
X18720Y-74430D01*
X18808Y-74530D01*
X18882Y-74641D01*
X18941Y-74760D01*
X18984Y-74886D01*
X19009Y-75017D01*
X19018Y-75150D01*
Y-79350D01*
X19009Y-79483D01*
X18984Y-79613D01*
X18941Y-79740D01*
X18882Y-79859D01*
X18808Y-79970D01*
X18720Y-80070D01*
X18620Y-80158D01*
X18509Y-80232D01*
X18390Y-80291D01*
X18263Y-80333D01*
X18133Y-80359D01*
X18000Y-80368D01*
X14318D01*
Y-80632D01*
X18000D01*
X18133Y-80640D01*
X18263Y-80667D01*
X18390Y-80709D01*
X18509Y-80768D01*
X18620Y-80842D01*
X18720Y-80930D01*
X18808Y-81030D01*
X18882Y-81141D01*
X18941Y-81260D01*
X18984Y-81386D01*
X19009Y-81517D01*
X19018Y-81650D01*
Y-85850D01*
X19009Y-85983D01*
X18984Y-86114D01*
X18941Y-86240D01*
X18882Y-86359D01*
X18808Y-86470D01*
X18720Y-86570D01*
X18620Y-86658D01*
X18509Y-86732D01*
X18390Y-86791D01*
X18263Y-86833D01*
X18133Y-86860D01*
X18000Y-86868D01*
X3518D01*
Y-91300D01*
X3510Y-91433D01*
X3483Y-91564D01*
X3441Y-91690D01*
X3382Y-91809D01*
X3308Y-91920D01*
X3220Y-92020D01*
X3120Y-92108D01*
X3009Y-92182D01*
X2890Y-92241D01*
X2763Y-92283D01*
X2633Y-92310D01*
X2500Y-92318D01*
X-3200D01*
X-3333Y-92310D01*
X-3464Y-92283D01*
X-3590Y-92241D01*
X-3709Y-92182D01*
X-3820Y-92108D01*
X-3920Y-92020D01*
X-4008Y-91920D01*
X-4082Y-91809D01*
X-4141Y-91690D01*
X-4184Y-91564D01*
X-4209Y-91433D01*
X-4218Y-91300D01*
Y-86868D01*
X-5000D01*
X-5133Y-86860D01*
X-5264Y-86833D01*
X-5390Y-86791D01*
X-5509Y-86732D01*
X-5620Y-86658D01*
X-5720Y-86570D01*
X-5808Y-86470D01*
X-5882Y-86359D01*
X-5941Y-86240D01*
X-5983Y-86114D01*
X-6010Y-85983D01*
X-6018Y-85850D01*
Y-62150D01*
X-6010Y-62017D01*
X-5983Y-61887D01*
X-5941Y-61760D01*
X-5882Y-61641D01*
X-5808Y-61530D01*
X-5720Y-61430D01*
X-5620Y-61342D01*
X-5509Y-61268D01*
X-5390Y-61209D01*
X-5264Y-61167D01*
X-5133Y-61140D01*
X-5000Y-61132D01*
X-4218D01*
Y-56700D01*
X-4209Y-56567D01*
X-4184Y-56437D01*
X-4141Y-56310D01*
X-4082Y-56191D01*
X-4008Y-56080D01*
X-3920Y-55980D01*
X-3820Y-55892D01*
X-3709Y-55818D01*
X-3590Y-55759D01*
X-3464Y-55717D01*
X-3333Y-55690D01*
X-3200Y-55682D01*
X2500D01*
X2633Y-55690D01*
D02*
G37*
G36*
X60133Y-91990D02*
X60264Y-92016D01*
X60390Y-92059D01*
X60509Y-92118D01*
X60620Y-92192D01*
X60720Y-92280D01*
X60808Y-92380D01*
X60882Y-92491D01*
X60941Y-92610D01*
X60983Y-92737D01*
X61009Y-92867D01*
X61018Y-93000D01*
Y-114500D01*
X61009Y-114633D01*
X60983Y-114763D01*
X60941Y-114890D01*
X60882Y-115009D01*
X60808Y-115120D01*
X60720Y-115220D01*
X57220Y-118720D01*
X57120Y-118808D01*
X57009Y-118882D01*
X56890Y-118941D01*
X56764Y-118983D01*
X56633Y-119010D01*
X56500Y-119018D01*
X30000D01*
X29867Y-119010D01*
X29736Y-118983D01*
X29610Y-118941D01*
X29491Y-118882D01*
X29380Y-118808D01*
X29280Y-118720D01*
X29192Y-118620D01*
X29118Y-118509D01*
X29059Y-118390D01*
X29016Y-118264D01*
X28990Y-118133D01*
X28982Y-118000D01*
Y-93000D01*
X28990Y-92867D01*
X29016Y-92737D01*
X29059Y-92610D01*
X29118Y-92491D01*
X29192Y-92380D01*
X29280Y-92280D01*
X29380Y-92192D01*
X29491Y-92118D01*
X29610Y-92059D01*
X29736Y-92016D01*
X29867Y-91990D01*
X30000Y-91982D01*
X60000D01*
X60133Y-91990D01*
D02*
G37*
G36*
X-39367Y-55690D02*
X-39237Y-55717D01*
X-39110Y-55759D01*
X-38991Y-55818D01*
X-38880Y-55892D01*
X-38780Y-55980D01*
X-38692Y-56080D01*
X-38618Y-56191D01*
X-38559Y-56310D01*
X-38516Y-56437D01*
X-38491Y-56567D01*
X-38482Y-56700D01*
Y-61132D01*
X-24000D01*
X-23867Y-61140D01*
X-23737Y-61167D01*
X-23610Y-61209D01*
X-23491Y-61268D01*
X-23380Y-61342D01*
X-23280Y-61430D01*
X-23192Y-61530D01*
X-23118Y-61641D01*
X-23059Y-61760D01*
X-23017Y-61887D01*
X-22991Y-62017D01*
X-22982Y-62150D01*
Y-66350D01*
X-22991Y-66483D01*
X-23017Y-66613D01*
X-23059Y-66740D01*
X-23118Y-66859D01*
X-23192Y-66970D01*
X-23280Y-67070D01*
X-23380Y-67158D01*
X-23491Y-67232D01*
X-23610Y-67291D01*
X-23737Y-67333D01*
X-23867Y-67359D01*
X-24000Y-67368D01*
X-27682D01*
Y-67632D01*
X-24000D01*
X-23867Y-67641D01*
X-23737Y-67667D01*
X-23610Y-67709D01*
X-23491Y-67768D01*
X-23380Y-67842D01*
X-23280Y-67930D01*
X-23192Y-68030D01*
X-23118Y-68141D01*
X-23059Y-68260D01*
X-23017Y-68387D01*
X-22991Y-68517D01*
X-22982Y-68650D01*
Y-72850D01*
X-22991Y-72983D01*
X-23017Y-73113D01*
X-23059Y-73240D01*
X-23118Y-73359D01*
X-23192Y-73470D01*
X-23280Y-73570D01*
X-23380Y-73658D01*
X-23491Y-73732D01*
X-23610Y-73791D01*
X-23737Y-73833D01*
X-23867Y-73860D01*
X-24000Y-73868D01*
X-27682D01*
Y-74132D01*
X-24000D01*
X-23867Y-74141D01*
X-23737Y-74166D01*
X-23610Y-74209D01*
X-23491Y-74268D01*
X-23380Y-74342D01*
X-23280Y-74430D01*
X-23192Y-74530D01*
X-23118Y-74641D01*
X-23059Y-74760D01*
X-23017Y-74886D01*
X-22991Y-75017D01*
X-22982Y-75150D01*
Y-79350D01*
X-22991Y-79483D01*
X-23017Y-79613D01*
X-23059Y-79740D01*
X-23118Y-79859D01*
X-23192Y-79970D01*
X-23280Y-80070D01*
X-23380Y-80158D01*
X-23491Y-80232D01*
X-23610Y-80291D01*
X-23737Y-80333D01*
X-23867Y-80359D01*
X-24000Y-80368D01*
X-27682D01*
Y-80632D01*
X-24000D01*
X-23867Y-80640D01*
X-23737Y-80667D01*
X-23610Y-80709D01*
X-23491Y-80768D01*
X-23380Y-80842D01*
X-23280Y-80930D01*
X-23192Y-81030D01*
X-23118Y-81141D01*
X-23059Y-81260D01*
X-23017Y-81386D01*
X-22991Y-81517D01*
X-22982Y-81650D01*
Y-85850D01*
X-22991Y-85983D01*
X-23017Y-86114D01*
X-23059Y-86240D01*
X-23118Y-86359D01*
X-23192Y-86470D01*
X-23280Y-86570D01*
X-23380Y-86658D01*
X-23491Y-86732D01*
X-23610Y-86791D01*
X-23737Y-86833D01*
X-23867Y-86860D01*
X-24000Y-86868D01*
X-38482D01*
Y-91300D01*
X-38491Y-91433D01*
X-38516Y-91564D01*
X-38559Y-91690D01*
X-38618Y-91809D01*
X-38692Y-91920D01*
X-38747Y-91982D01*
X-30000D01*
X-29867Y-91990D01*
X-29736Y-92016D01*
X-29610Y-92059D01*
X-29491Y-92118D01*
X-29380Y-92192D01*
X-29280Y-92280D01*
X-29192Y-92380D01*
X-29118Y-92491D01*
X-29059Y-92610D01*
X-29016Y-92737D01*
X-28990Y-92867D01*
X-28982Y-93000D01*
Y-118000D01*
X-28990Y-118133D01*
X-29016Y-118264D01*
X-29059Y-118390D01*
X-29118Y-118509D01*
X-29192Y-118620D01*
X-29280Y-118720D01*
X-29380Y-118808D01*
X-29491Y-118882D01*
X-29610Y-118941D01*
X-29736Y-118983D01*
X-29867Y-119010D01*
X-30000Y-119018D01*
X-56500D01*
X-56633Y-119010D01*
X-56764Y-118983D01*
X-56890Y-118941D01*
X-57009Y-118882D01*
X-57120Y-118808D01*
X-57220Y-118720D01*
X-60720Y-115220D01*
X-60808Y-115120D01*
X-60882Y-115009D01*
X-60941Y-114890D01*
X-60983Y-114763D01*
X-61009Y-114633D01*
X-61018Y-114500D01*
Y-93000D01*
X-61009Y-92867D01*
X-60983Y-92737D01*
X-60941Y-92610D01*
X-60882Y-92491D01*
X-60808Y-92380D01*
X-60720Y-92280D01*
X-60620Y-92192D01*
X-60509Y-92118D01*
X-60390Y-92059D01*
X-60264Y-92016D01*
X-60133Y-91990D01*
X-60000Y-91982D01*
X-45953D01*
X-46008Y-91920D01*
X-46082Y-91809D01*
X-46141Y-91690D01*
X-46184Y-91564D01*
X-46210Y-91433D01*
X-46218Y-91300D01*
Y-86868D01*
X-47000D01*
X-47133Y-86860D01*
X-47263Y-86833D01*
X-47390Y-86791D01*
X-47509Y-86732D01*
X-47620Y-86658D01*
X-47720Y-86570D01*
X-47808Y-86470D01*
X-47882Y-86359D01*
X-47941Y-86240D01*
X-47983Y-86114D01*
X-48010Y-85983D01*
X-48018Y-85850D01*
Y-62150D01*
X-48010Y-62017D01*
X-47983Y-61887D01*
X-47941Y-61760D01*
X-47882Y-61641D01*
X-47808Y-61530D01*
X-47720Y-61430D01*
X-47620Y-61342D01*
X-47509Y-61268D01*
X-47390Y-61209D01*
X-47263Y-61167D01*
X-47133Y-61140D01*
X-47000Y-61132D01*
X-46218D01*
Y-56700D01*
X-46210Y-56567D01*
X-46184Y-56437D01*
X-46141Y-56310D01*
X-46082Y-56191D01*
X-46008Y-56080D01*
X-45920Y-55980D01*
X-45820Y-55892D01*
X-45709Y-55818D01*
X-45590Y-55759D01*
X-45464Y-55717D01*
X-45333Y-55690D01*
X-45200Y-55682D01*
X-39500D01*
X-39367Y-55690D01*
D02*
G37*
D28*
X-48500Y96000D02*
D03*
X48500D02*
D03*
D29*
X-4000Y19250D02*
D03*
Y7750D02*
D03*
D30*
X-49250Y58000D02*
D03*
X-35750D02*
D03*
D31*
X37000Y66500D02*
D03*
X53000D02*
D03*
Y12500D02*
D03*
X37000D02*
D03*
X53000Y30500D02*
D03*
X37000D02*
D03*
X53000Y48500D02*
D03*
X37000D02*
D03*
D32*
X-56400Y-500D02*
D03*
X-47600D02*
D03*
X-36400D02*
D03*
X-27600D02*
D03*
D33*
X-23500Y13000D02*
D03*
Y43000D02*
D03*
D34*
X-45500Y28000D02*
D03*
D35*
X0Y-105500D02*
D03*
D36*
X-29000Y-83750D02*
D03*
Y-77250D02*
D03*
Y-70750D02*
D03*
Y-64250D02*
D03*
X55000Y-82750D02*
D03*
Y-76250D02*
D03*
Y-69750D02*
D03*
Y-63250D02*
D03*
X13000Y-64250D02*
D03*
Y-70750D02*
D03*
Y-77250D02*
D03*
Y-83750D02*
D03*
D37*
X-56700Y-77250D02*
D03*
Y-70750D02*
D03*
Y-83750D02*
D03*
Y-64250D02*
D03*
X27300Y-76250D02*
D03*
Y-69750D02*
D03*
Y-82750D02*
D03*
Y-63250D02*
D03*
X-14700Y-64250D02*
D03*
Y-83750D02*
D03*
Y-70750D02*
D03*
Y-77250D02*
D03*
D38*
X-27000Y85000D02*
D03*
Y101000D02*
D03*
X-9000Y85000D02*
D03*
Y101000D02*
D03*
X9000Y85000D02*
D03*
Y101000D02*
D03*
X27000Y85000D02*
D03*
Y101000D02*
D03*
X14000Y-1000D02*
D03*
Y15000D02*
D03*
D39*
X51750Y-15000D02*
D03*
X45250D02*
D03*
X38750D02*
D03*
X32250D02*
D03*
X9750D02*
D03*
X3250D02*
D03*
X-3250D02*
D03*
X-9750D02*
D03*
X-32250D02*
D03*
X-38750D02*
D03*
X-45250D02*
D03*
X-51750D02*
D03*
D40*
X45250Y-42700D02*
D03*
X38750D02*
D03*
X51750D02*
D03*
X32250D02*
D03*
X3250D02*
D03*
X-3250D02*
D03*
X9750D02*
D03*
X-9750D02*
D03*
X-38750D02*
D03*
X-45250D02*
D03*
X-32250D02*
D03*
X-51750D02*
D03*
M02*
