G04*
G04 #@! TF.GenerationSoftware,Altium Limited,Altium Designer,24.4.1 (13)*
G04*
G04 Layer_Physical_Order=2*
G04 Layer_Color=6736896*
%FSLAX44Y44*%
%MOMM*%
G71*
G04*
G04 #@! TF.SameCoordinates,620EA0B3-285C-493C-A982-72F243028F5E*
G04*
G04*
G04 #@! TF.FilePolarity,Positive*
G04*
G01*
G75*
%ADD48C,0.4500*%
G36*
X59961Y-115077D02*
X57077Y-117961D01*
X23038D01*
X22189Y-116691D01*
X22270Y-116496D01*
Y-115004D01*
X21699Y-113626D01*
X20644Y-112571D01*
X19266Y-112000D01*
X17774D01*
X16396Y-112571D01*
X15341Y-113626D01*
X14770Y-115004D01*
Y-116496D01*
X14851Y-116691D01*
X14002Y-117961D01*
X-18998D01*
X-19641Y-116691D01*
X-19250Y-115746D01*
Y-114254D01*
X-19821Y-112876D01*
X-20697Y-112000D01*
X-19821Y-111124D01*
X-19250Y-109746D01*
Y-108254D01*
X-19821Y-106876D01*
X-20117Y-106580D01*
X-20816Y-105750D01*
X-20117Y-104920D01*
X-19821Y-104624D01*
X-19250Y-103246D01*
Y-101754D01*
X-19821Y-100376D01*
X-20876Y-99321D01*
X-22254Y-98750D01*
X-22631D01*
X-22997Y-98135D01*
X-23241Y-97480D01*
X-22730Y-96246D01*
Y-94754D01*
X-22827Y-94520D01*
X-22254Y-93250D01*
X-20876Y-92679D01*
X-19821Y-91624D01*
X-19250Y-90246D01*
Y-88754D01*
X-19821Y-87376D01*
X-20876Y-86321D01*
X-22254Y-85750D01*
X-23746D01*
X-25124Y-86321D01*
X-26179Y-87376D01*
X-26750Y-88754D01*
Y-90246D01*
X-26653Y-90480D01*
X-27226Y-91750D01*
X-28604Y-92321D01*
X-29659Y-93376D01*
X-30230Y-94754D01*
Y-96246D01*
X-29659Y-97624D01*
X-28604Y-98679D01*
X-27226Y-99250D01*
X-26849D01*
X-26483Y-99865D01*
X-26239Y-100520D01*
X-26750Y-101754D01*
Y-103246D01*
X-26179Y-104624D01*
X-25883Y-104920D01*
X-25184Y-105750D01*
X-25883Y-106580D01*
X-26179Y-106876D01*
X-26750Y-108254D01*
Y-109746D01*
X-26179Y-111124D01*
X-25303Y-112000D01*
X-26179Y-112876D01*
X-26750Y-114254D01*
Y-115746D01*
X-26358Y-116691D01*
X-27002Y-117961D01*
X-57077D01*
X-59961Y-115077D01*
Y-87588D01*
X-59316Y-87214D01*
X-58691Y-86984D01*
X-57446Y-87500D01*
X-55954D01*
X-54576Y-86929D01*
X-53521Y-85874D01*
X-52950Y-84496D01*
Y-83004D01*
X-53521Y-81626D01*
X-53817Y-81330D01*
X-54516Y-80500D01*
X-53817Y-79670D01*
X-53521Y-79374D01*
X-52950Y-77996D01*
Y-76504D01*
X-53521Y-75126D01*
X-53817Y-74830D01*
X-54516Y-74000D01*
X-53817Y-73170D01*
X-53521Y-72874D01*
X-52950Y-71496D01*
Y-70004D01*
X-53521Y-68626D01*
X-53817Y-68330D01*
X-54516Y-67500D01*
X-53817Y-66670D01*
X-53521Y-66374D01*
X-52950Y-64996D01*
Y-63504D01*
X-53521Y-62126D01*
X-54513Y-61134D01*
X-54576Y-61071D01*
X-54688Y-59650D01*
X-54571Y-59533D01*
X-54000Y-58155D01*
Y-56663D01*
X-54571Y-55285D01*
X-55397Y-54459D01*
X-55532Y-53704D01*
X-55397Y-52950D01*
X-54571Y-52124D01*
X-54000Y-50746D01*
Y-49254D01*
X-54571Y-47876D01*
X-55372Y-47075D01*
X-55524Y-46313D01*
X-55372Y-45552D01*
X-54571Y-44750D01*
X-54000Y-43372D01*
Y-41880D01*
X-54571Y-40502D01*
X-54930Y-40143D01*
X-55529Y-39313D01*
X-54930Y-38483D01*
X-54571Y-38124D01*
X-54000Y-36746D01*
Y-35254D01*
X-54571Y-33876D01*
X-55626Y-32821D01*
X-57004Y-32250D01*
X-58496D01*
X-58691Y-32331D01*
X-59961Y-31482D01*
Y52586D01*
X-58691Y53434D01*
X-58246Y53250D01*
X-56754D01*
X-55376Y53821D01*
X-54321Y54876D01*
X-53750Y56254D01*
Y57746D01*
X-54321Y59124D01*
X-55376Y60179D01*
X-56754Y60750D01*
X-58246D01*
X-58691Y60566D01*
X-59961Y61414D01*
Y87152D01*
X-58691Y87404D01*
X-58679Y87376D01*
X-57624Y86321D01*
X-56246Y85750D01*
X-54754D01*
X-53376Y86321D01*
X-52830Y86867D01*
X-52000Y87234D01*
X-51170Y86867D01*
X-50624Y86321D01*
X-49246Y85750D01*
X-47754D01*
X-46376Y86321D01*
X-45321Y87376D01*
X-44750Y88754D01*
Y90246D01*
X-45321Y91624D01*
X-45867Y92170D01*
X-46234Y93000D01*
X-45867Y93830D01*
X-45321Y94376D01*
X-44750Y95754D01*
Y97246D01*
X-45321Y98624D01*
X-45711Y99015D01*
X-45870Y100279D01*
X-45617Y100580D01*
X-44821Y101376D01*
X-44250Y102754D01*
Y104246D01*
X-44821Y105624D01*
X-45876Y106679D01*
X-45904Y106691D01*
X-45652Y107961D01*
X17998D01*
X18642Y106691D01*
X18250Y105746D01*
Y104254D01*
X18821Y102876D01*
X19876Y101821D01*
X20448Y101584D01*
Y100209D01*
X20376Y100179D01*
X19321Y99124D01*
X18750Y97746D01*
Y96254D01*
X19321Y94876D01*
X20376Y93821D01*
X21754Y93250D01*
X23246D01*
X24624Y93821D01*
X25679Y94876D01*
X25916Y95448D01*
X27291D01*
X27321Y95376D01*
X28376Y94321D01*
X29754Y93750D01*
X31246D01*
X32624Y94321D01*
X33679Y95376D01*
X34250Y96754D01*
Y98246D01*
X33679Y99624D01*
X32935Y100368D01*
X33015Y101572D01*
X33124Y101821D01*
X34179Y102876D01*
X34750Y104254D01*
Y105746D01*
X34358Y106691D01*
X35002Y107961D01*
X59961D01*
Y-115077D01*
D02*
G37*
%LPC*%
G36*
X4246Y104500D02*
X2754D01*
X1376Y103929D01*
X321Y102874D01*
X-250Y101496D01*
Y100004D01*
X321Y98626D01*
X1376Y97571D01*
X2754Y97000D01*
X4246D01*
X5624Y97571D01*
X6679Y98626D01*
X7250Y100004D01*
Y101496D01*
X6679Y102874D01*
X5624Y103929D01*
X4246Y104500D01*
D02*
G37*
G36*
X14246Y104150D02*
X12754D01*
X11376Y103579D01*
X10321Y102524D01*
X9750Y101146D01*
Y99654D01*
X10321Y98276D01*
X11376Y97221D01*
X12754Y96650D01*
X14246D01*
X15624Y97221D01*
X16679Y98276D01*
X17250Y99654D01*
Y101146D01*
X16679Y102524D01*
X15624Y103579D01*
X14246Y104150D01*
D02*
G37*
G36*
X-7754Y78730D02*
X-9246D01*
X-10624Y78159D01*
X-11679Y77104D01*
X-12250Y75726D01*
Y74234D01*
X-11679Y72856D01*
X-10624Y71801D01*
X-9246Y71230D01*
X-7754D01*
X-6376Y71801D01*
X-5321Y72856D01*
X-4750Y74234D01*
Y75726D01*
X-5321Y77104D01*
X-6376Y78159D01*
X-7754Y78730D01*
D02*
G37*
G36*
X10146Y70750D02*
X8654D01*
X7276Y70179D01*
X6221Y69124D01*
X5650Y67746D01*
Y66254D01*
X6221Y64876D01*
X7276Y63821D01*
X8654Y63250D01*
X10146D01*
X11524Y63821D01*
X12579Y64876D01*
X13150Y66254D01*
Y67746D01*
X12579Y69124D01*
X11524Y70179D01*
X10146Y70750D01*
D02*
G37*
G36*
X40246Y72750D02*
X38754D01*
X37376Y72179D01*
X36321Y71124D01*
X35824Y69923D01*
X35750Y69746D01*
X34505Y68750D01*
X34254D01*
X32876Y68179D01*
X31821Y67124D01*
X31250Y65746D01*
Y64254D01*
X31821Y62876D01*
X32876Y61821D01*
X34254Y61250D01*
X34487D01*
X35750Y60754D01*
X36031Y60077D01*
X36321Y59376D01*
X37376Y58321D01*
X38754Y57750D01*
X40246D01*
X41624Y58321D01*
X42679Y59376D01*
X43250Y60754D01*
Y62246D01*
X42679Y63624D01*
X41789Y64514D01*
X41696Y65250D01*
X41789Y65985D01*
X42679Y66876D01*
X43250Y68254D01*
Y69746D01*
X42679Y71124D01*
X41624Y72179D01*
X40246Y72750D01*
D02*
G37*
G36*
X24246Y59871D02*
X22754D01*
X21376Y59300D01*
X20321Y58245D01*
X19750Y56867D01*
Y55375D01*
X20321Y53997D01*
X21376Y52942D01*
X22754Y52371D01*
X24246D01*
X25624Y52942D01*
X26679Y53997D01*
X27250Y55375D01*
Y56867D01*
X26679Y58245D01*
X25624Y59300D01*
X24246Y59871D01*
D02*
G37*
G36*
X36746Y56750D02*
X35254D01*
X33876Y56179D01*
X32821Y55124D01*
X32250Y53746D01*
Y52254D01*
X32821Y50876D01*
X33876Y49821D01*
X35254Y49250D01*
X36746D01*
X38124Y49821D01*
X39179Y50876D01*
X39750Y52254D01*
Y53746D01*
X39179Y55124D01*
X38124Y56179D01*
X36746Y56750D01*
D02*
G37*
G36*
X-44066Y52062D02*
X-45558D01*
X-46936Y51491D01*
X-47991Y50436D01*
X-48562Y49058D01*
Y47566D01*
X-47991Y46188D01*
X-46936Y45133D01*
X-45558Y44562D01*
X-44066D01*
X-42688Y45133D01*
X-41633Y46188D01*
X-41062Y47566D01*
Y49058D01*
X-41633Y50436D01*
X-42688Y51491D01*
X-44066Y52062D01*
D02*
G37*
G36*
X-22254Y58250D02*
X-23746D01*
X-25124Y57679D01*
X-26179Y56624D01*
X-26750Y55246D01*
Y53754D01*
X-26179Y52376D01*
X-25124Y51321D01*
X-23746Y50750D01*
X-22254D01*
X-20876Y51321D01*
X-19787Y50613D01*
X-19700Y50402D01*
X-18645Y49347D01*
X-17267Y48776D01*
X-16905D01*
X-15764Y48252D01*
X-15750Y47603D01*
Y46754D01*
X-15179Y45376D01*
X-14124Y44321D01*
X-12746Y43750D01*
X-11254D01*
X-10501Y42688D01*
X-10158Y41862D01*
X-9104Y40807D01*
X-7725Y40236D01*
X-6234D01*
X-4855Y40807D01*
X-3800Y41862D01*
X-3229Y43240D01*
Y44732D01*
X-3800Y46110D01*
X-4855Y47165D01*
X-6234Y47736D01*
X-7725D01*
X-8479Y48798D01*
X-8554Y48980D01*
X-7787Y50250D01*
X-7254D01*
X-5876Y50821D01*
X-4821Y51876D01*
X-4250Y53254D01*
Y54746D01*
X-4821Y56124D01*
X-5876Y57179D01*
X-7254Y57750D01*
X-8746D01*
X-10124Y57179D01*
X-11179Y56124D01*
X-11750Y54746D01*
Y54126D01*
X-13020Y53873D01*
X-13342Y54650D01*
X-14397Y55705D01*
X-15775Y56276D01*
X-17267D01*
X-18645Y55705D01*
X-19733Y56413D01*
X-19821Y56624D01*
X-20876Y57679D01*
X-22254Y58250D01*
D02*
G37*
G36*
X12226Y39394D02*
X10734D01*
X9356Y38823D01*
X8301Y37768D01*
X7730Y36390D01*
Y34898D01*
X8301Y33520D01*
X9356Y32465D01*
X10734Y31894D01*
X12226D01*
X13604Y32465D01*
X14659Y33520D01*
X15230Y34898D01*
Y36390D01*
X14659Y37768D01*
X13604Y38823D01*
X12226Y39394D01*
D02*
G37*
G36*
X27726Y38750D02*
X26234D01*
X24856Y38179D01*
X23801Y37124D01*
X23230Y35746D01*
Y34254D01*
X23801Y32876D01*
X24856Y31821D01*
X26234Y31250D01*
X27726D01*
X29104Y31821D01*
X30159Y32876D01*
X30730Y34254D01*
Y35746D01*
X30159Y37124D01*
X29104Y38179D01*
X27726Y38750D01*
D02*
G37*
G36*
X12226Y28770D02*
X10734D01*
X9356Y28199D01*
X8301Y27144D01*
X7730Y25766D01*
Y24274D01*
X8301Y22896D01*
X9356Y21841D01*
X10734Y21270D01*
X12226D01*
X13604Y21841D01*
X14659Y22896D01*
X15230Y24274D01*
Y25766D01*
X14659Y27144D01*
X13604Y28199D01*
X12226Y28770D01*
D02*
G37*
G36*
X-24754Y35250D02*
X-26246D01*
X-27624Y34679D01*
X-28679Y33624D01*
X-29250Y32246D01*
Y30754D01*
X-28679Y29376D01*
X-28383Y29080D01*
X-27684Y28250D01*
X-28383Y27420D01*
X-28679Y27124D01*
X-29250Y25746D01*
Y24254D01*
X-28679Y22876D01*
X-27624Y21821D01*
X-26246Y21250D01*
X-24754D01*
X-23376Y21821D01*
X-22321Y22876D01*
X-21750Y24254D01*
Y25746D01*
X-22321Y27124D01*
X-22617Y27420D01*
X-23316Y28250D01*
X-22617Y29080D01*
X-22321Y29376D01*
X-21750Y30754D01*
Y32246D01*
X-22321Y33624D01*
X-23376Y34679D01*
X-24754Y35250D01*
D02*
G37*
G36*
X-38754Y34750D02*
X-40246D01*
X-41624Y34179D01*
X-42679Y33124D01*
X-43250Y31746D01*
Y30254D01*
X-42679Y28876D01*
X-42383Y28580D01*
X-41684Y27750D01*
X-42383Y26920D01*
X-42679Y26624D01*
X-43250Y25246D01*
Y23754D01*
X-42679Y22376D01*
X-41624Y21321D01*
X-40246Y20750D01*
X-38754D01*
X-37376Y21321D01*
X-36321Y22376D01*
X-35750Y23754D01*
Y25246D01*
X-36321Y26624D01*
X-36617Y26920D01*
X-37316Y27750D01*
X-36617Y28580D01*
X-36321Y28876D01*
X-35750Y30254D01*
Y31746D01*
X-36321Y33124D01*
X-37376Y34179D01*
X-38754Y34750D01*
D02*
G37*
G36*
X27726Y27989D02*
X26234D01*
X24856Y27418D01*
X23801Y26363D01*
X23230Y24985D01*
Y23493D01*
X23801Y22115D01*
X24856Y21060D01*
X26234Y20489D01*
X27726D01*
X29104Y21060D01*
X30159Y22115D01*
X30730Y23493D01*
Y24985D01*
X30159Y26363D01*
X29104Y27418D01*
X27726Y27989D01*
D02*
G37*
G36*
X3771Y11999D02*
X2280D01*
X901Y11428D01*
X-154Y10373D01*
X-724Y8995D01*
Y7503D01*
X-154Y6124D01*
X901Y5070D01*
X2280Y4499D01*
X3771D01*
X5150Y5070D01*
X6205Y6124D01*
X6776Y7503D01*
Y8995D01*
X6205Y10373D01*
X5150Y11428D01*
X3771Y11999D01*
D02*
G37*
G36*
X28006Y9625D02*
X26514D01*
X25136Y9054D01*
X24081Y8000D01*
X23510Y6621D01*
Y5129D01*
X24081Y3751D01*
X25136Y2696D01*
X26514Y2125D01*
X28006D01*
X29384Y2696D01*
X30439Y3751D01*
X31010Y5129D01*
Y6621D01*
X30439Y8000D01*
X29384Y9054D01*
X28006Y9625D01*
D02*
G37*
G36*
X-26254Y7250D02*
X-27746D01*
X-29124Y6679D01*
X-30179Y5624D01*
X-30750Y4246D01*
Y2754D01*
X-30179Y1376D01*
X-29124Y321D01*
X-27746Y-250D01*
X-26254D01*
X-24876Y321D01*
X-23821Y1376D01*
X-23250Y2754D01*
Y4246D01*
X-23821Y5624D01*
X-24876Y6679D01*
X-26254Y7250D01*
D02*
G37*
G36*
X-49763Y-2135D02*
X-51255D01*
X-52633Y-2706D01*
X-53688Y-3761D01*
X-54259Y-5139D01*
Y-6631D01*
X-53688Y-8009D01*
X-52633Y-9064D01*
X-51255Y-9635D01*
X-49763D01*
X-48385Y-9064D01*
X-47330Y-8009D01*
X-46759Y-6631D01*
Y-5139D01*
X-47330Y-3761D01*
X-48385Y-2706D01*
X-49763Y-2135D01*
D02*
G37*
G36*
X-10168Y-1941D02*
X-11660D01*
X-13038Y-2512D01*
X-14093Y-3566D01*
X-14664Y-4945D01*
Y-6437D01*
X-14093Y-7815D01*
X-13038Y-8870D01*
X-11660Y-9441D01*
X-10168D01*
X-8789Y-8870D01*
X-8404Y-8485D01*
X-7278Y-8153D01*
X-6782Y-8521D01*
X-6124Y-9179D01*
X-4746Y-9750D01*
X-3254D01*
X-1876Y-9179D01*
X-821Y-8124D01*
X-250Y-6746D01*
Y-5254D01*
X-821Y-3876D01*
X-1876Y-2821D01*
X-3254Y-2250D01*
X-4746D01*
X-6124Y-2821D01*
X-6509Y-3206D01*
X-7635Y-3537D01*
X-8132Y-3169D01*
X-8789Y-2512D01*
X-10168Y-1941D01*
D02*
G37*
G36*
X24370Y-78100D02*
X22878D01*
X21500Y-78671D01*
X20445Y-79726D01*
X19874Y-81104D01*
Y-82596D01*
X20445Y-83974D01*
X21500Y-85029D01*
X22878Y-85600D01*
X24370D01*
X25748Y-85029D01*
X26803Y-83974D01*
X27374Y-82596D01*
Y-81104D01*
X26803Y-79726D01*
X25748Y-78671D01*
X24370Y-78100D01*
D02*
G37*
G36*
X-13954Y-60500D02*
X-15446D01*
X-16824Y-61071D01*
X-17879Y-62126D01*
X-18450Y-63504D01*
Y-64996D01*
X-17879Y-66374D01*
X-17583Y-66670D01*
X-16884Y-67500D01*
X-17583Y-68330D01*
X-17879Y-68626D01*
X-18450Y-70004D01*
Y-71496D01*
X-17879Y-72874D01*
X-17583Y-73170D01*
X-16884Y-74000D01*
X-17583Y-74830D01*
X-17879Y-75126D01*
X-18450Y-76504D01*
Y-77996D01*
X-17879Y-79374D01*
X-17583Y-79670D01*
X-16884Y-80500D01*
X-17583Y-81330D01*
X-17879Y-81626D01*
X-18450Y-83004D01*
Y-84496D01*
X-17879Y-85874D01*
X-16824Y-86929D01*
X-15446Y-87500D01*
X-13954D01*
X-12576Y-86929D01*
X-11521Y-85874D01*
X-10950Y-84496D01*
Y-83004D01*
X-11521Y-81626D01*
X-11817Y-81330D01*
X-12516Y-80500D01*
X-11817Y-79670D01*
X-11521Y-79374D01*
X-10950Y-77996D01*
Y-76504D01*
X-11521Y-75126D01*
X-11817Y-74830D01*
X-12516Y-74000D01*
X-11817Y-73170D01*
X-11521Y-72874D01*
X-10950Y-71496D01*
Y-70004D01*
X-11521Y-68626D01*
X-11817Y-68330D01*
X-12516Y-67500D01*
X-11817Y-66670D01*
X-11521Y-66374D01*
X-10950Y-64996D01*
Y-63504D01*
X-11521Y-62126D01*
X-12576Y-61071D01*
X-13954Y-60500D01*
D02*
G37*
G36*
X27298Y-88540D02*
X25806D01*
X24428Y-89111D01*
X23501Y-90038D01*
X22776Y-90108D01*
X22051Y-90038D01*
X21124Y-89111D01*
X19746Y-88540D01*
X18254D01*
X16876Y-89111D01*
X15821Y-90166D01*
X15250Y-91544D01*
Y-93036D01*
X15821Y-94414D01*
X16876Y-95469D01*
X18254Y-96040D01*
X19746D01*
X21124Y-95469D01*
X22051Y-94542D01*
X22776Y-94472D01*
X23501Y-94542D01*
X24428Y-95469D01*
X25806Y-96040D01*
X27298D01*
X28677Y-95469D01*
X29731Y-94414D01*
X30302Y-93036D01*
Y-91544D01*
X29731Y-90166D01*
X28677Y-89111D01*
X27298Y-88540D01*
D02*
G37*
%LPD*%
D48*
X-8000Y54000D02*
D03*
X-8500Y74980D02*
D03*
X3500Y100750D02*
D03*
X13500Y100400D02*
D03*
X-12000Y47500D02*
D03*
X35000Y65000D02*
D03*
X39500Y61500D02*
D03*
Y69000D02*
D03*
X30500Y97500D02*
D03*
X22500Y97000D02*
D03*
X31000Y105000D02*
D03*
X22000D02*
D03*
X-39500Y24500D02*
D03*
Y31000D02*
D03*
X-25500Y25000D02*
D03*
X27260Y5875D02*
D03*
X-25500Y31500D02*
D03*
X-27000Y3500D02*
D03*
X-23000Y-89500D02*
D03*
Y-102500D02*
D03*
Y-109000D02*
D03*
Y-115000D02*
D03*
X-26480Y-95500D02*
D03*
X36000Y53000D02*
D03*
X9400Y67000D02*
D03*
X-55500Y103500D02*
D03*
Y89500D02*
D03*
X-48500Y96500D02*
D03*
Y89500D02*
D03*
X-48000Y103500D02*
D03*
X-57750Y-42626D02*
D03*
Y-50000D02*
D03*
X-57750Y-36000D02*
D03*
Y-57409D02*
D03*
X-23000Y54500D02*
D03*
X-16521Y52526D02*
D03*
X41500Y104000D02*
D03*
X23500Y56121D02*
D03*
X3025Y8249D02*
D03*
X-4000Y-6000D02*
D03*
X-6979Y43986D02*
D03*
X-18520Y-94020D02*
D03*
X26980Y35000D02*
D03*
X11480Y35644D02*
D03*
Y25020D02*
D03*
X-50509Y-5885D02*
D03*
X-44812Y48312D02*
D03*
X13630Y-3144D02*
D03*
X26552Y-92290D02*
D03*
X18520Y-115750D02*
D03*
X-57500Y57000D02*
D03*
X19000Y-92290D02*
D03*
X26980Y24239D02*
D03*
X48500Y97000D02*
D03*
X41500Y90000D02*
D03*
X55500D02*
D03*
Y104000D02*
D03*
X-56700Y-83750D02*
D03*
X-14700Y-77250D02*
D03*
Y-83750D02*
D03*
X-10914Y-5691D02*
D03*
X-56700Y-77250D02*
D03*
Y-70750D02*
D03*
Y-64250D02*
D03*
X-14700D02*
D03*
Y-70750D02*
D03*
X13500Y-8000D02*
D03*
X23624Y-81850D02*
D03*
M02*
