G04*
G04 #@! TF.GenerationSoftware,Altium Limited,Altium Designer,24.4.1 (13)*
G04*
G04 Layer_Color=16711935*
%FSLAX44Y44*%
%MOMM*%
G71*
G04*
G04 #@! TF.SameCoordinates,620EA0B3-285C-493C-A982-72F243028F5E*
G04*
G04*
G04 #@! TF.FilePolarity,Negative*
G04*
G01*
G75*
%ADD29R,0.8032X0.9532*%
%ADD31R,1.5032X1.6032*%
%ADD32R,0.8032X0.8432*%
%ADD38R,1.6032X1.5032*%
%ADD60R,1.5532X1.3532*%
%ADD61R,0.8432X0.8032*%
%ADD62C,0.8032*%
%ADD63O,1.7032X2.4032*%
G04:AMPARAMS|DCode=64|XSize=0.7016mm|YSize=0.4016mm|CornerRadius=0mm|HoleSize=0mm|Usage=FLASHONLY|Rotation=45.000|XOffset=0mm|YOffset=0mm|HoleType=Round|Shape=Rectangle|*
%AMROTATEDRECTD64*
4,1,4,-0.1061,-0.3900,-0.3900,-0.1061,0.1061,0.3900,0.3900,0.1061,-0.1061,-0.3900,0.0*
%
%ADD64ROTATEDRECTD64*%

G04:AMPARAMS|DCode=65|XSize=0.7016mm|YSize=0.4016mm|CornerRadius=0mm|HoleSize=0mm|Usage=FLASHONLY|Rotation=315.000|XOffset=0mm|YOffset=0mm|HoleType=Round|Shape=Rectangle|*
%AMROTATEDRECTD65*
4,1,4,-0.3900,0.1061,-0.1061,0.3900,0.3900,-0.1061,0.1061,-0.3900,-0.3900,0.1061,0.0*
%
%ADD65ROTATEDRECTD65*%

%ADD66P,5.0227X4X360.0*%
G04:AMPARAMS|DCode=67|XSize=0.702mm|YSize=0.402mm|CornerRadius=0mm|HoleSize=0mm|Usage=FLASHONLY|Rotation=45.000|XOffset=0mm|YOffset=0mm|HoleType=Round|Shape=Rectangle|*
%AMROTATEDRECTD67*
4,1,4,-0.1061,-0.3903,-0.3903,-0.1061,0.1061,0.3903,0.3903,0.1061,-0.1061,-0.3903,0.0*
%
%ADD67ROTATEDRECTD67*%

G04:AMPARAMS|DCode=68|XSize=0.702mm|YSize=0.402mm|CornerRadius=0mm|HoleSize=0mm|Usage=FLASHONLY|Rotation=315.000|XOffset=0mm|YOffset=0mm|HoleType=Round|Shape=Rectangle|*
%AMROTATEDRECTD68*
4,1,4,-0.3903,0.1061,-0.1061,0.3903,0.3903,-0.1061,0.1061,-0.3903,-0.3903,0.1061,0.0*
%
%ADD68ROTATEDRECTD68*%

%ADD69R,0.9532X0.8032*%
G04:AMPARAMS|DCode=70|XSize=0.8432mm|YSize=0.8032mm|CornerRadius=0mm|HoleSize=0mm|Usage=FLASHONLY|Rotation=45.000|XOffset=0mm|YOffset=0mm|HoleType=Round|Shape=Rectangle|*
%AMROTATEDRECTD70*
4,1,4,-0.0141,-0.5821,-0.5821,-0.0141,0.0141,0.5821,0.5821,0.0141,-0.0141,-0.5821,0.0*
%
%ADD70ROTATEDRECTD70*%

G36*
X-25367Y-96990D02*
X-25236Y-97016D01*
X-25110Y-97059D01*
X-24991Y-97118D01*
X-24880Y-97192D01*
X-24780Y-97280D01*
X-22280Y-99780D01*
X-22192Y-99880D01*
X-22118Y-99991D01*
X-22059Y-100110D01*
X-22016Y-100237D01*
X-21990Y-100367D01*
X-21982Y-100500D01*
Y-115500D01*
X-21990Y-115633D01*
X-22016Y-115764D01*
X-22059Y-115890D01*
X-22118Y-116009D01*
X-22192Y-116120D01*
X-22280Y-116220D01*
X-24780Y-118720D01*
X-24880Y-118808D01*
X-24991Y-118882D01*
X-25110Y-118941D01*
X-25236Y-118983D01*
X-25367Y-119010D01*
X-25500Y-119018D01*
X-30500D01*
X-30633Y-119010D01*
X-30763Y-118983D01*
X-30890Y-118941D01*
X-31009Y-118882D01*
X-31120Y-118808D01*
X-31220Y-118720D01*
X-33720Y-116220D01*
X-33808Y-116120D01*
X-33882Y-116009D01*
X-33941Y-115890D01*
X-33984Y-115764D01*
X-34009Y-115633D01*
X-34018Y-115500D01*
Y-100500D01*
X-34009Y-100367D01*
X-33984Y-100237D01*
X-33941Y-100110D01*
X-33882Y-99991D01*
X-33808Y-99880D01*
X-33720Y-99780D01*
X-31220Y-97280D01*
X-31120Y-97192D01*
X-31009Y-97118D01*
X-30890Y-97059D01*
X-30763Y-97016D01*
X-30633Y-96990D01*
X-30500Y-96982D01*
X-25500D01*
X-25367Y-96990D01*
D02*
G37*
G36*
X-11367D02*
X-11236Y-97016D01*
X-11110Y-97059D01*
X-10991Y-97118D01*
X-10880Y-97192D01*
X-10780Y-97280D01*
X-8280Y-99780D01*
X-8192Y-99880D01*
X-8118Y-99991D01*
X-8059Y-100110D01*
X-8016Y-100237D01*
X-7990Y-100367D01*
X-7982Y-100500D01*
Y-115500D01*
X-7990Y-115633D01*
X-8016Y-115764D01*
X-8059Y-115890D01*
X-8118Y-116009D01*
X-8192Y-116120D01*
X-8280Y-116220D01*
X-10780Y-118720D01*
X-10880Y-118808D01*
X-10991Y-118882D01*
X-11110Y-118941D01*
X-11236Y-118983D01*
X-11367Y-119010D01*
X-11500Y-119018D01*
X-16500D01*
X-16633Y-119010D01*
X-16763Y-118983D01*
X-16890Y-118941D01*
X-17009Y-118882D01*
X-17120Y-118808D01*
X-17220Y-118720D01*
X-19720Y-116220D01*
X-19808Y-116120D01*
X-19882Y-116009D01*
X-19941Y-115890D01*
X-19984Y-115764D01*
X-20010Y-115633D01*
X-20018Y-115500D01*
Y-100500D01*
X-20010Y-100367D01*
X-19984Y-100237D01*
X-19941Y-100110D01*
X-19882Y-99991D01*
X-19808Y-99880D01*
X-19720Y-99780D01*
X-17220Y-97280D01*
X-17120Y-97192D01*
X-17009Y-97118D01*
X-16890Y-97059D01*
X-16763Y-97016D01*
X-16633Y-96990D01*
X-16500Y-96982D01*
X-11500D01*
X-11367Y-96990D01*
D02*
G37*
G36*
X2633D02*
X2764Y-97016D01*
X2890Y-97059D01*
X3009Y-97118D01*
X3120Y-97192D01*
X3220Y-97280D01*
X5720Y-99780D01*
X5808Y-99880D01*
X5882Y-99991D01*
X5941Y-100110D01*
X5983Y-100237D01*
X6010Y-100367D01*
X6018Y-100500D01*
Y-115500D01*
X6010Y-115633D01*
X5983Y-115764D01*
X5941Y-115890D01*
X5882Y-116009D01*
X5808Y-116120D01*
X5720Y-116220D01*
X3220Y-118720D01*
X3120Y-118808D01*
X3009Y-118882D01*
X2890Y-118941D01*
X2764Y-118983D01*
X2633Y-119010D01*
X2500Y-119018D01*
X-2500D01*
X-2633Y-119010D01*
X-2763Y-118983D01*
X-2890Y-118941D01*
X-3009Y-118882D01*
X-3120Y-118808D01*
X-3220Y-118720D01*
X-5720Y-116220D01*
X-5808Y-116120D01*
X-5882Y-116009D01*
X-5941Y-115890D01*
X-5983Y-115764D01*
X-6010Y-115633D01*
X-6018Y-115500D01*
Y-100500D01*
X-6010Y-100367D01*
X-5983Y-100237D01*
X-5941Y-100110D01*
X-5882Y-99991D01*
X-5808Y-99880D01*
X-5720Y-99780D01*
X-3220Y-97280D01*
X-3120Y-97192D01*
X-3009Y-97118D01*
X-2890Y-97059D01*
X-2763Y-97016D01*
X-2633Y-96990D01*
X-2500Y-96982D01*
X2500D01*
X2633Y-96990D01*
D02*
G37*
G36*
X16633D02*
X16763Y-97016D01*
X16890Y-97059D01*
X17009Y-97118D01*
X17120Y-97192D01*
X17220Y-97280D01*
X19720Y-99780D01*
X19808Y-99880D01*
X19882Y-99991D01*
X19941Y-100110D01*
X19984Y-100237D01*
X20010Y-100367D01*
X20018Y-100500D01*
Y-115500D01*
X20010Y-115633D01*
X19984Y-115764D01*
X19941Y-115890D01*
X19882Y-116009D01*
X19808Y-116120D01*
X19720Y-116220D01*
X17220Y-118720D01*
X17120Y-118808D01*
X17009Y-118882D01*
X16890Y-118941D01*
X16763Y-118983D01*
X16633Y-119010D01*
X16500Y-119018D01*
X11500D01*
X11367Y-119010D01*
X11236Y-118983D01*
X11110Y-118941D01*
X10991Y-118882D01*
X10880Y-118808D01*
X10780Y-118720D01*
X8280Y-116220D01*
X8192Y-116120D01*
X8118Y-116009D01*
X8059Y-115890D01*
X8016Y-115764D01*
X7990Y-115633D01*
X7982Y-115500D01*
Y-100500D01*
X7990Y-100367D01*
X8016Y-100237D01*
X8059Y-100110D01*
X8118Y-99991D01*
X8192Y-99880D01*
X8280Y-99780D01*
X10780Y-97280D01*
X10880Y-97192D01*
X10991Y-97118D01*
X11110Y-97059D01*
X11236Y-97016D01*
X11367Y-96990D01*
X11500Y-96982D01*
X16500D01*
X16633Y-96990D01*
D02*
G37*
G36*
X30633D02*
X30763Y-97016D01*
X30890Y-97059D01*
X31009Y-97118D01*
X31120Y-97192D01*
X31220Y-97280D01*
X33720Y-99780D01*
X33808Y-99880D01*
X33882Y-99991D01*
X33941Y-100110D01*
X33984Y-100237D01*
X34009Y-100367D01*
X34018Y-100500D01*
Y-115500D01*
X34009Y-115633D01*
X33984Y-115764D01*
X33941Y-115890D01*
X33882Y-116009D01*
X33808Y-116120D01*
X33720Y-116220D01*
X31220Y-118720D01*
X31120Y-118808D01*
X31009Y-118882D01*
X30890Y-118941D01*
X30763Y-118983D01*
X30633Y-119010D01*
X30500Y-119018D01*
X25500D01*
X25367Y-119010D01*
X25236Y-118983D01*
X25110Y-118941D01*
X24991Y-118882D01*
X24880Y-118808D01*
X24780Y-118720D01*
X22280Y-116220D01*
X22192Y-116120D01*
X22118Y-116009D01*
X22059Y-115890D01*
X22016Y-115764D01*
X21990Y-115633D01*
X21982Y-115500D01*
Y-100500D01*
X21990Y-100367D01*
X22016Y-100237D01*
X22059Y-100110D01*
X22118Y-99991D01*
X22192Y-99880D01*
X22280Y-99780D01*
X24780Y-97280D01*
X24880Y-97192D01*
X24991Y-97118D01*
X25110Y-97059D01*
X25236Y-97016D01*
X25367Y-96990D01*
X25500Y-96982D01*
X30500D01*
X30633Y-96990D01*
D02*
G37*
D29*
X3500Y100750D02*
D03*
Y89250D02*
D03*
X40500Y-112750D02*
D03*
Y-101250D02*
D03*
X20000Y68750D02*
D03*
Y80250D02*
D03*
X-57000Y60750D02*
D03*
Y49250D02*
D03*
X33500Y12250D02*
D03*
Y750D02*
D03*
D31*
X27500Y99000D02*
D03*
X43500D02*
D03*
D32*
X90900Y-49500D02*
D03*
X82100D02*
D03*
X39100Y-84000D02*
D03*
X47900D02*
D03*
X9400Y77000D02*
D03*
X600D02*
D03*
X-23100Y57500D02*
D03*
X-31900D02*
D03*
X13600Y5000D02*
D03*
X22400D02*
D03*
X9400Y67000D02*
D03*
X600D02*
D03*
D38*
X53000Y81000D02*
D03*
Y65000D02*
D03*
X35000D02*
D03*
Y81000D02*
D03*
D60*
X46500Y-60250D02*
D03*
Y-42750D02*
D03*
X-46000Y-67250D02*
D03*
Y-84750D02*
D03*
X-25000Y-67250D02*
D03*
Y-84750D02*
D03*
D61*
X13500Y91600D02*
D03*
Y100400D02*
D03*
X-47000Y68900D02*
D03*
Y60100D02*
D03*
X96500Y-54400D02*
D03*
Y-45600D02*
D03*
D62*
X-57000Y-22500D02*
D03*
Y-14500D02*
D03*
Y-6500D02*
D03*
Y1500D02*
D03*
D63*
X-52000Y97000D02*
D03*
X-12000D02*
D03*
X-32000D02*
D03*
D64*
X-45607Y5607D02*
D03*
X-12373Y38841D02*
D03*
X-38536Y-1464D02*
D03*
X-49142Y9142D02*
D03*
X-42071Y2071D02*
D03*
X-52678Y12678D02*
D03*
X-35000Y-5000D02*
D03*
X-15908Y42376D02*
D03*
X-5301Y31770D02*
D03*
X-1766Y28234D02*
D03*
X-19444Y45912D02*
D03*
X-8837Y35305D02*
D03*
D65*
X-42071Y38841D02*
D03*
X-38536Y42376D02*
D03*
X-35000Y45912D02*
D03*
X-49142Y31770D02*
D03*
X-45607Y35305D02*
D03*
X-1766Y12678D02*
D03*
X-8837Y5607D02*
D03*
X-19444Y-5000D02*
D03*
X-15908Y-1464D02*
D03*
X-5301Y9142D02*
D03*
X-12373Y2071D02*
D03*
X-52678Y28234D02*
D03*
D66*
X-27222Y20456D02*
D03*
D67*
X-56213Y16213D02*
D03*
X-31465Y-8536D02*
D03*
X1769Y24699D02*
D03*
X-22979Y49447D02*
D03*
D68*
X-56213Y24699D02*
D03*
X-22979Y-8536D02*
D03*
X1769Y16213D02*
D03*
X-31465Y49447D02*
D03*
D69*
X44250Y10000D02*
D03*
X55750D02*
D03*
X-20250Y67500D02*
D03*
X-31750D02*
D03*
X30250Y35000D02*
D03*
X18750D02*
D03*
Y25000D02*
D03*
X30250D02*
D03*
X44250Y30500D02*
D03*
X55750D02*
D03*
X44250Y20500D02*
D03*
X55750D02*
D03*
X44250Y40500D02*
D03*
X55750D02*
D03*
X22750Y15000D02*
D03*
X11250D02*
D03*
X44250Y50000D02*
D03*
X55750D02*
D03*
D70*
X127611Y-58111D02*
D03*
X121389Y-51889D02*
D03*
M02*
