M48
;Layer_Color=9474304
;FILE_FORMAT=2:4
INCH,LZ
;TYPE=PLATED
T01F00S00C0.0079
%
T01
X-002232Y-003297
Y-003041
Y-002785
Y-00253
X-002274Y-00226
X-002274Y-001969
Y-001678
X-002274Y-001417
X-001989Y-000232
X-001063Y000138
X-001004Y000984
Y00124
X-001555Y00122
Y000965
X-001764Y001902
X-002264Y002244
X-000906Y002146
X-00065Y002068
X-000472Y00187
X-000275Y001732
X-000315Y002126
X000925Y002209
X001417Y002087
X001555Y002421
X001062Y001378
Y000954
X000452Y000985
Y001403
X000119Y000325
X-000157Y-000236
X-00043Y-000224
X000531Y-000315
X000537Y-000124
X001073Y000231
X00093Y-003222
X001045Y-003633
X000748
X000729Y-004557
X-000906Y-004528
Y-004291
Y-004035
X-001043Y-00376
X-000729Y-003702
X-000906Y-003524
X-000579Y-003297
Y-003041
Y-002785
Y-00253
X-000335Y002952
X00037Y002638
X001378Y002559
X001555Y002717
X001634Y003543
Y004094
X00122Y004134
X001201Y003839
X000886Y003819
X000866Y004134
X000531Y003953
X000138Y003967
X001909Y003819
X002185Y004094
Y003543
X-001909Y003524
Y003799
X-00189Y004075
X-002185Y004075
Y003524
M30
