G04*
G04 #@! TF.GenerationSoftware,Altium Limited,Altium Designer,24.4.1 (13)*
G04*
G04 Layer_Physical_Order=3*
G04 Layer_Color=37055*
%FSLAX44Y44*%
%MOMM*%
G71*
G04*
G04 #@! TF.SameCoordinates,620EA0B3-285C-493C-A982-72F243028F5E*
G04*
G04*
G04 #@! TF.FilePolarity,Positive*
G04*
G01*
G75*
%ADD11C,0.1270*%
%ADD13C,0.2540*%
%ADD48C,0.4500*%
D11*
X2500Y68000D02*
X7500Y73000D01*
X-31500Y68000D02*
X2500D01*
X7500Y73000D02*
X15500D01*
X30000Y58500D01*
X-44812Y54688D02*
X-31500Y68000D01*
X-22000Y49624D02*
X-21102Y50522D01*
X-19399D01*
X-17395Y52526D01*
X-16521D01*
X-22000Y38500D02*
Y49624D01*
Y38500D02*
X-17000Y33500D01*
Y7500D02*
Y33500D01*
Y7500D02*
X-4000Y-5500D01*
X-44812Y48312D02*
Y54688D01*
X30000Y50000D02*
Y58500D01*
X23500Y48946D02*
X32000Y40447D01*
X23500Y48946D02*
Y56121D01*
X-4000Y-6000D02*
Y-5500D01*
X500Y-66238D02*
X26552Y-92290D01*
X500Y-66238D02*
Y-39500D01*
X-5500Y-91730D02*
X18520Y-115750D01*
X-5500Y-91730D02*
Y-38500D01*
X30000Y50000D02*
X37000Y43000D01*
Y-3000D02*
Y43000D01*
X500Y-39500D02*
X37000Y-3000D01*
X29500Y29500D02*
X32000Y32000D01*
Y40447D01*
X19000Y24500D02*
X24000Y29500D01*
X29500D01*
X19000Y-14000D02*
Y24500D01*
X-5500Y-38500D02*
X19000Y-14000D01*
D13*
X13714Y52285D02*
X18940D01*
X6000Y60000D02*
X13714Y52285D01*
X-5000Y60000D02*
X6000D01*
X-26000Y64000D02*
X-9000D01*
X-5000Y60000D01*
X-33500Y56500D02*
X-26000Y64000D01*
X-33500Y-27000D02*
Y56500D01*
X-14700Y-64250D02*
Y-28200D01*
X1653Y-11847D02*
Y847D01*
X-14700Y-28200D02*
X1653Y-11847D01*
X27489Y-49767D02*
Y-41511D01*
X32000Y-37000D02*
X38000D01*
X27489Y-41511D02*
X32000Y-37000D01*
X-6979Y9479D02*
Y43986D01*
X26658Y35322D02*
X26980Y35000D01*
X11802Y35322D02*
X26658D01*
X11480Y35644D02*
X11802Y35322D01*
X-45000Y-38500D02*
X-33500Y-27000D01*
X-14700Y-70750D02*
Y-64250D01*
X-6979Y9479D02*
X1653Y847D01*
X-14700Y-77250D02*
Y-70750D01*
X-56700Y-64250D02*
X-45000Y-52550D01*
Y-38500D01*
X-56700Y-77250D02*
Y-70750D01*
Y-64250D01*
X42000Y-72620D02*
Y-41000D01*
X38000Y-37000D02*
X42000Y-41000D01*
Y-72620D02*
X57750Y-88370D01*
D48*
X-8000Y54000D02*
D03*
X-8500Y74980D02*
D03*
X3500Y100750D02*
D03*
X13500Y100400D02*
D03*
X-12000Y47500D02*
D03*
X35000Y65000D02*
D03*
X39500Y61500D02*
D03*
Y69000D02*
D03*
X30500Y97500D02*
D03*
X22500Y97000D02*
D03*
X31000Y105000D02*
D03*
X22000D02*
D03*
X-39500Y24500D02*
D03*
Y31000D02*
D03*
X-25500Y25000D02*
D03*
X27260Y5875D02*
D03*
X-25500Y31500D02*
D03*
X-27000Y3500D02*
D03*
X-23000Y-89500D02*
D03*
Y-102500D02*
D03*
Y-109000D02*
D03*
Y-115000D02*
D03*
X-26480Y-95500D02*
D03*
X36000Y53000D02*
D03*
X9400Y67000D02*
D03*
X-55500Y103500D02*
D03*
Y89500D02*
D03*
X-48500Y96500D02*
D03*
Y89500D02*
D03*
X-48000Y103500D02*
D03*
X-57750Y-42626D02*
D03*
Y-50000D02*
D03*
X-57750Y-36000D02*
D03*
Y-57409D02*
D03*
X-23000Y54500D02*
D03*
X-16521Y52526D02*
D03*
X41500Y104000D02*
D03*
X23500Y56121D02*
D03*
X3025Y8249D02*
D03*
X-4000Y-6000D02*
D03*
X-6979Y43986D02*
D03*
X-18520Y-94020D02*
D03*
X26980Y35000D02*
D03*
X11480Y35644D02*
D03*
Y25020D02*
D03*
X-50509Y-5885D02*
D03*
X-44812Y48312D02*
D03*
X13630Y-3144D02*
D03*
X26552Y-92290D02*
D03*
X18520Y-115750D02*
D03*
X-57500Y57000D02*
D03*
X19000Y-92290D02*
D03*
X26980Y24239D02*
D03*
X48500Y97000D02*
D03*
X41500Y90000D02*
D03*
X55500D02*
D03*
Y104000D02*
D03*
X-56700Y-83750D02*
D03*
X-14700Y-77250D02*
D03*
Y-83750D02*
D03*
X-10914Y-5691D02*
D03*
X-56700Y-77250D02*
D03*
Y-70750D02*
D03*
Y-64250D02*
D03*
X-14700D02*
D03*
Y-70750D02*
D03*
X13500Y-8000D02*
D03*
X23624Y-81850D02*
D03*
M02*
