G04*
G04 #@! TF.GenerationSoftware,Altium Limited,Altium Designer,20.1.14 (287)*
G04*
G04 Layer_Color=16711935*
%FSLAX25Y25*%
%MOIN*%
G70*
G04*
G04 #@! TF.SameCoordinates,B6366777-46FB-4962-93CD-1CBD7AC75519*
G04*
G04*
G04 #@! TF.FilePolarity,Negative*
G04*
G01*
G75*
%ADD10C,0.00787*%
%ADD12C,0.01000*%
%ADD13C,0.07099*%
%ADD14C,0.05918*%
%ADD15R,0.05918X0.05918*%
%ADD23R,0.04737X0.04343*%
%ADD24R,0.04343X0.04737*%
%ADD25R,0.02900X0.08600*%
D10*
X-37402Y37402D02*
X-11817D01*
X11818Y37402D02*
X37402D01*
Y17721D02*
Y37402D01*
Y-37401D02*
Y-17721D01*
X11818Y-37401D02*
X37402D01*
X-11817Y-37402D02*
Y-37401D01*
X-37402Y-37402D02*
X-11817D01*
X-37402D02*
Y-17721D01*
Y17721D02*
Y37402D01*
D12*
X11818Y-37401D02*
G03*
X-11817Y-37401I-11818J0D01*
G01*
Y37402D02*
G03*
X11818Y37402I11818J-0D01*
G01*
X37402Y17721D02*
G03*
X37402Y-17721I0J-17721D01*
G01*
X-37402D02*
G03*
X-37402Y17721I0J17721D01*
G01*
D13*
X28740Y-28740D02*
D03*
Y28740D02*
D03*
X-28740D02*
D03*
Y-28740D02*
D03*
D14*
X3937Y20866D02*
D03*
X-3937D02*
D03*
X-11811D02*
D03*
D15*
X11811D02*
D03*
D23*
X-7183Y-17212D02*
D03*
Y-22527D02*
D03*
D24*
X-579Y-17183D02*
D03*
X4736D02*
D03*
D25*
X7500Y-9700D02*
D03*
X2500D02*
D03*
X-2500D02*
D03*
X-7500D02*
D03*
Y9700D02*
D03*
X-2500D02*
D03*
X2500D02*
D03*
X7500D02*
D03*
M02*
