G04*
G04 #@! TF.GenerationSoftware,Altium Limited,Altium Designer,21.6.4 (81)*
G04*
G04 Layer_Color=32896*
%FSLAX25Y25*%
%MOIN*%
G70*
G04*
G04 #@! TF.SameCoordinates,C5927BB7-CAF9-4977-82FB-EE17E07953DF*
G04*
G04*
G04 #@! TF.FilePolarity,Positive*
G04*
G01*
G75*
%ADD10C,0.00787*%
%ADD11C,0.00602*%
%ADD12C,0.01000*%
%ADD27C,0.00591*%
D10*
X8957Y640D02*
X8317Y0D01*
X8957Y-640D01*
X-8957Y-5177D02*
X8957D01*
X-8957D02*
Y5177D01*
X8957D01*
Y640D02*
Y5177D01*
Y-5177D02*
Y-640D01*
X34331Y-34035D02*
Y-23445D01*
X23150Y-34035D02*
X34331D01*
X23150D02*
Y-23445D01*
X34331D01*
X-23150Y23445D02*
Y34035D01*
X-34331Y23445D02*
X-23150D01*
X-34331D02*
Y34035D01*
X-23150D01*
X34331Y23445D02*
Y34035D01*
X23150Y23445D02*
X34331D01*
X23150D02*
Y34035D01*
X34331D01*
X-23150Y-34035D02*
Y-23445D01*
X-34331Y-34035D02*
X-23150D01*
X-34331D02*
Y-23445D01*
X-23150D01*
X-37402Y37402D02*
X-11817D01*
X11818Y37402D02*
X37402D01*
Y17721D02*
Y37402D01*
Y-37401D02*
Y-17721D01*
X11818Y-37401D02*
X37402D01*
X-11817Y-37402D02*
Y-37401D01*
X-37402Y-37402D02*
X-11817D01*
X-37402D02*
Y-17721D01*
Y17721D02*
Y37402D01*
D11*
X15146Y30129D02*
X14096D01*
X14621D01*
Y26980D01*
X15146D01*
X14096D01*
X30500Y21467D02*
Y18319D01*
X28926D01*
X28401Y18844D01*
Y19368D01*
X28926Y19893D01*
X30500D01*
X28926D01*
X28401Y20418D01*
Y20943D01*
X28926Y21467D01*
X30500D01*
X-19106Y27768D02*
Y29867D01*
X-20156Y30916D01*
X-21205Y29867D01*
Y27768D01*
Y29342D01*
X-19106D01*
X19346Y-27483D02*
X19871Y-26958D01*
X20920D01*
X21445Y-27483D01*
Y-29581D01*
X20920Y-30106D01*
X19871D01*
X19346Y-29581D01*
Y-28532D01*
X20395D01*
X18296Y-30106D02*
Y-26958D01*
X16197Y-30106D01*
Y-26958D01*
X15148D02*
Y-30106D01*
X13573D01*
X13049Y-29581D01*
Y-27483D01*
X13573Y-26958D01*
X15148D01*
X-12413Y-27876D02*
X-12938Y-27351D01*
X-13988D01*
X-14512Y-27876D01*
Y-28401D01*
X-13988Y-28926D01*
X-13463D01*
X-13988D01*
X-14512Y-29451D01*
Y-29975D01*
X-13988Y-30500D01*
X-12938D01*
X-12413Y-29975D01*
X-15562Y-27351D02*
Y-29451D01*
X-16612Y-30500D01*
X-17661Y-29451D01*
Y-27351D01*
X-18711Y-27876D02*
X-19235Y-27351D01*
X-20285D01*
X-20810Y-27876D01*
Y-28401D01*
X-20285Y-28926D01*
X-19760D01*
X-20285D01*
X-20810Y-29451D01*
Y-29975D01*
X-20285Y-30500D01*
X-19235D01*
X-18711Y-29975D01*
D12*
X11818Y-37401D02*
X11775Y-36399D01*
X11648Y-35404D01*
X11436Y-34424D01*
X11143Y-33465D01*
X10769Y-32534D01*
X10317Y-31638D01*
X9791Y-30784D01*
X9195Y-29977D01*
X8532Y-29224D01*
X7808Y-28530D01*
X7027Y-27900D01*
X6196Y-27338D01*
X5320Y-26849D01*
X4406Y-26436D01*
X3461Y-26102D01*
X2490Y-25849D01*
X1501Y-25680D01*
X502Y-25594D01*
X-501D01*
X-1501Y-25680D01*
X-2490Y-25849D01*
X-3460Y-26102D01*
X-4406Y-26436D01*
X-5320Y-26849D01*
X-6196Y-27338D01*
X-7027Y-27900D01*
X-7807Y-28530D01*
X-8532Y-29224D01*
X-9194Y-29977D01*
X-9791Y-30784D01*
X-10317Y-31638D01*
X-10768Y-32534D01*
X-11142Y-33465D01*
X-11436Y-34424D01*
X-11647Y-35404D01*
X-11775Y-36399D01*
X-11817Y-37401D01*
Y37402D02*
X-11775Y36399D01*
X-11647Y35404D01*
X-11436Y34424D01*
X-11142Y33465D01*
X-10768Y32534D01*
X-10317Y31638D01*
X-9791Y30784D01*
X-9194Y29978D01*
X-8532Y29225D01*
X-7807Y28530D01*
X-7027Y27900D01*
X-6196Y27339D01*
X-5320Y26849D01*
X-4406Y26436D01*
X-3460Y26102D01*
X-2490Y25849D01*
X-1501Y25680D01*
X-501Y25595D01*
X502D01*
X1501Y25680D01*
X2490Y25849D01*
X3461Y26102D01*
X4406Y26436D01*
X5320Y26849D01*
X6196Y27339D01*
X7027Y27900D01*
X7808Y28530D01*
X8532Y29225D01*
X9195Y29978D01*
X9791Y30784D01*
X10317Y31638D01*
X10769Y32534D01*
X11143Y33465D01*
X11436Y34424D01*
X11648Y35404D01*
X11775Y36399D01*
X11818Y37402D01*
X37402Y17721D02*
X36408Y17693D01*
X35418Y17609D01*
X34433Y17470D01*
X33458Y17277D01*
X32496Y17028D01*
X31549Y16726D01*
X30620Y16372D01*
X29713Y15966D01*
X28830Y15510D01*
X27973Y15005D01*
X27147Y14453D01*
X26353Y13855D01*
X25593Y13214D01*
X24871Y12531D01*
X24188Y11808D01*
X23547Y11049D01*
X22949Y10255D01*
X22397Y9428D01*
X21892Y8572D01*
X21436Y7689D01*
X21030Y6781D01*
X20675Y5853D01*
X20373Y4906D01*
X20125Y3943D01*
X19931Y2968D01*
X19792Y1984D01*
X19708Y994D01*
X19681Y0D01*
X19708Y-994D01*
X19792Y-1984D01*
X19931Y-2968D01*
X20125Y-3943D01*
X20373Y-4906D01*
X20675Y-5853D01*
X21030Y-6781D01*
X21436Y-7689D01*
X21892Y-8572D01*
X22397Y-9428D01*
X22949Y-10255D01*
X23547Y-11049D01*
X24188Y-11808D01*
X24871Y-12530D01*
X25593Y-13213D01*
X26353Y-13855D01*
X27147Y-14452D01*
X27973Y-15005D01*
X28830Y-15510D01*
X29713Y-15966D01*
X30620Y-16372D01*
X31549Y-16726D01*
X32496Y-17028D01*
X33458Y-17277D01*
X34433Y-17470D01*
X35417Y-17609D01*
X36408Y-17693D01*
X37402Y-17721D01*
X-37402D02*
X-36408Y-17693D01*
X-35418Y-17609D01*
X-34433Y-17470D01*
X-33458Y-17277D01*
X-32496Y-17028D01*
X-31549Y-16726D01*
X-30620Y-16372D01*
X-29713Y-15966D01*
X-28830Y-15510D01*
X-27973Y-15005D01*
X-27147Y-14453D01*
X-26353Y-13855D01*
X-25593Y-13213D01*
X-24871Y-12530D01*
X-24188Y-11808D01*
X-23547Y-11049D01*
X-22949Y-10255D01*
X-22397Y-9428D01*
X-21892Y-8572D01*
X-21436Y-7689D01*
X-21030Y-6781D01*
X-20675Y-5853D01*
X-20373Y-4906D01*
X-20125Y-3943D01*
X-19931Y-2968D01*
X-19792Y-1984D01*
X-19708Y-993D01*
X-19681Y0D01*
X-19708Y994D01*
X-19792Y1984D01*
X-19931Y2968D01*
X-20125Y3943D01*
X-20373Y4906D01*
X-20675Y5853D01*
X-21030Y6782D01*
X-21436Y7689D01*
X-21892Y8572D01*
X-22397Y9428D01*
X-22949Y10255D01*
X-23547Y11049D01*
X-24188Y11808D01*
X-24871Y12531D01*
X-25593Y13214D01*
X-26353Y13855D01*
X-27147Y14453D01*
X-27974Y15005D01*
X-28830Y15510D01*
X-29713Y15966D01*
X-30620Y16372D01*
X-31549Y16726D01*
X-32496Y17028D01*
X-33458Y17277D01*
X-34433Y17471D01*
X-35418Y17609D01*
X-36408Y17693D01*
X-37402Y17721D01*
D27*
X14173Y-9055D02*
X15354D01*
Y-20079D02*
Y-9055D01*
X14173Y-20079D02*
X15354D01*
X9843D02*
X11024D01*
X9843D02*
Y-9055D01*
X11024D01*
X9843Y-14567D02*
X15354D01*
X787Y-21260D02*
Y-20079D01*
X-10236Y-21260D02*
X787D01*
X-10236D02*
Y-20079D01*
Y-16929D02*
Y-15748D01*
X787D01*
Y-16929D02*
Y-15748D01*
X-4724Y-21260D02*
Y-15748D01*
M02*
