G04*
G04 #@! TF.GenerationSoftware,Altium Limited,Altium Designer,20.1.14 (287)*
G04*
G04 Layer_Physical_Order=1*
G04 Layer_Color=255*
%FSLAX25Y25*%
%MOIN*%
G70*
G04*
G04 #@! TF.SameCoordinates,FE320BA5-E137-4908-8B73-75ADD51EA0EF*
G04*
G04*
G04 #@! TF.FilePolarity,Positive*
G04*
G01*
G75*
%ADD10C,0.00787*%
%ADD12C,0.01000*%
%ADD16C,0.06299*%
%ADD17C,0.05118*%
%ADD18R,0.05118X0.05118*%
%ADD19C,0.03937*%
G36*
X-12788Y36315D02*
X-12498Y34483D01*
X-12470Y34408D01*
X-12461Y34328D01*
X-11887Y32564D01*
X-11848Y32494D01*
X-11826Y32416D01*
X-10984Y30764D01*
X-10934Y30701D01*
X-10901Y30628D01*
X-9811Y29127D01*
X-9752Y29073D01*
X-9707Y29006D01*
X-8396Y27694D01*
X-8329Y27650D01*
X-8274Y27591D01*
X-6774Y26501D01*
X-6701Y26467D01*
X-6637Y26417D01*
X-4985Y25575D01*
X-4908Y25553D01*
X-4837Y25514D01*
X-3074Y24941D01*
X-2994Y24931D01*
X-2918Y24904D01*
X-1087Y24613D01*
X-1006Y24617D01*
X-927Y24601D01*
X927Y24601D01*
X1006Y24617D01*
X1087Y24613D01*
X2918Y24904D01*
X2994Y24931D01*
X3074Y24941D01*
X4838Y25514D01*
X4908Y25553D01*
X4985Y25575D01*
X6638Y26417D01*
X6701Y26467D01*
X6774Y26501D01*
X8274Y27591D01*
X8329Y27650D01*
X8396Y27694D01*
X9707Y29006D01*
X9752Y29073D01*
X9811Y29127D01*
X10901Y30628D01*
X10935Y30701D01*
X10985Y30764D01*
X11827Y32416D01*
X11848Y32494D01*
X11888Y32564D01*
X12461Y34328D01*
X12470Y34408D01*
X12498Y34483D01*
X12788Y36315D01*
X13286Y36382D01*
X36382D01*
Y19096D01*
X36110Y18694D01*
X33811Y18391D01*
X33748Y18370D01*
X33680Y18365D01*
X31442Y17765D01*
X31381Y17736D01*
X31315Y17722D01*
X29174Y16835D01*
X29118Y16798D01*
X29054Y16776D01*
X27047Y15617D01*
X26996Y15573D01*
X26936Y15543D01*
X25097Y14132D01*
X25052Y14082D01*
X24996Y14044D01*
X23357Y12405D01*
X23320Y12349D01*
X23269Y12305D01*
X21858Y10466D01*
X21829Y10406D01*
X21784Y10355D01*
X20625Y8348D01*
X20604Y8284D01*
X20566Y8228D01*
X19679Y6086D01*
X19666Y6020D01*
X19636Y5960D01*
X19036Y3721D01*
X19032Y3654D01*
X19010Y3590D01*
X18708Y1292D01*
X18712Y1225D01*
X18699Y1159D01*
Y-1159D01*
X18712Y-1225D01*
X18708Y-1292D01*
X19010Y-3590D01*
X19032Y-3654D01*
X19036Y-3721D01*
X19636Y-5960D01*
X19666Y-6020D01*
X19679Y-6086D01*
X20566Y-8228D01*
X20604Y-8284D01*
X20625Y-8348D01*
X21784Y-10355D01*
X21829Y-10406D01*
X21858Y-10466D01*
X23269Y-12305D01*
X23320Y-12349D01*
X23357Y-12405D01*
X24996Y-14044D01*
X25052Y-14082D01*
X25097Y-14132D01*
X26936Y-15543D01*
X26996Y-15573D01*
X27047Y-15617D01*
X29054Y-16776D01*
X29118Y-16798D01*
X29174Y-16835D01*
X31315Y-17722D01*
X31381Y-17736D01*
X31442Y-17765D01*
X33680Y-18365D01*
X33748Y-18370D01*
X33811Y-18391D01*
X36110Y-18694D01*
X36382Y-19096D01*
Y-36382D01*
X13286D01*
X12788Y-36315D01*
X12498Y-34483D01*
X12470Y-34408D01*
X12461Y-34328D01*
X11888Y-32564D01*
X11848Y-32494D01*
X11827Y-32416D01*
X10985Y-30764D01*
X10935Y-30701D01*
X10901Y-30628D01*
X9811Y-29127D01*
X9752Y-29073D01*
X9707Y-29006D01*
X8396Y-27694D01*
X8329Y-27650D01*
X8274Y-27591D01*
X6774Y-26500D01*
X6701Y-26467D01*
X6638Y-26417D01*
X4985Y-25575D01*
X4908Y-25553D01*
X4838Y-25514D01*
X3074Y-24941D01*
X2994Y-24931D01*
X2918Y-24903D01*
X1087Y-24613D01*
X1006Y-24617D01*
X927Y-24601D01*
X-927D01*
X-1006Y-24617D01*
X-1087Y-24613D01*
X-2918Y-24903D01*
X-2994Y-24931D01*
X-3074Y-24941D01*
X-4837Y-25514D01*
X-4908Y-25553D01*
X-4985Y-25575D01*
X-6637Y-26417D01*
X-6701Y-26467D01*
X-6774Y-26500D01*
X-8274Y-27591D01*
X-8329Y-27650D01*
X-8396Y-27694D01*
X-9707Y-29006D01*
X-9752Y-29073D01*
X-9811Y-29127D01*
X-10901Y-30628D01*
X-10934Y-30701D01*
X-10984Y-30764D01*
X-11826Y-32416D01*
X-11848Y-32494D01*
X-11887Y-32564D01*
X-12461Y-34328D01*
X-12470Y-34408D01*
X-12498Y-34483D01*
X-12788Y-36315D01*
X-13286Y-36382D01*
X-36382D01*
Y-19096D01*
X-36110Y-18694D01*
X-33811Y-18391D01*
X-33748Y-18370D01*
X-33680Y-18365D01*
X-31442Y-17765D01*
X-31381Y-17736D01*
X-31315Y-17722D01*
X-29174Y-16835D01*
X-29118Y-16798D01*
X-29054Y-16776D01*
X-27047Y-15617D01*
X-26996Y-15573D01*
X-26936Y-15543D01*
X-25097Y-14132D01*
X-25052Y-14082D01*
X-24996Y-14044D01*
X-23357Y-12405D01*
X-23320Y-12349D01*
X-23269Y-12305D01*
X-21858Y-10466D01*
X-21829Y-10406D01*
X-21784Y-10355D01*
X-20625Y-8348D01*
X-20604Y-8284D01*
X-20566Y-8228D01*
X-19679Y-6086D01*
X-19666Y-6020D01*
X-19636Y-5960D01*
X-19036Y-3721D01*
X-19032Y-3654D01*
X-19010Y-3590D01*
X-18708Y-1292D01*
X-18712Y-1225D01*
X-18699Y-1159D01*
Y1159D01*
X-18712Y1225D01*
X-18708Y1292D01*
X-19010Y3590D01*
X-19032Y3654D01*
X-19036Y3721D01*
X-19636Y5960D01*
X-19666Y6020D01*
X-19679Y6086D01*
X-20566Y8228D01*
X-20604Y8284D01*
X-20625Y8348D01*
X-21784Y10355D01*
X-21829Y10406D01*
X-21858Y10466D01*
X-23269Y12305D01*
X-23320Y12349D01*
X-23357Y12405D01*
X-24996Y14044D01*
X-25052Y14082D01*
X-25097Y14132D01*
X-26936Y15543D01*
X-26996Y15573D01*
X-27047Y15617D01*
X-29054Y16776D01*
X-29118Y16798D01*
X-29174Y16835D01*
X-31315Y17722D01*
X-31381Y17736D01*
X-31442Y17765D01*
X-33680Y18365D01*
X-33748Y18370D01*
X-33811Y18391D01*
X-36110Y18694D01*
X-36382Y19096D01*
Y36382D01*
X-13286D01*
X-12788Y36315D01*
D02*
G37*
%LPC*%
G36*
X28740Y32926D02*
X27657Y32783D01*
X26647Y32365D01*
X26181Y32007D01*
X28740Y29447D01*
X31300Y32007D01*
X30833Y32365D01*
X29823Y32783D01*
X28740Y32926D01*
D02*
G37*
G36*
X32007Y31300D02*
X29447Y28740D01*
X32007Y26181D01*
X32365Y26647D01*
X32783Y27657D01*
X32926Y28740D01*
X32783Y29823D01*
X32365Y30833D01*
X32007Y31300D01*
D02*
G37*
G36*
X25474D02*
X25115Y30833D01*
X24697Y29823D01*
X24555Y28740D01*
X24697Y27657D01*
X25115Y26647D01*
X25474Y26181D01*
X28033Y28740D01*
X25474Y31300D01*
D02*
G37*
G36*
X28740Y28033D02*
X26181Y25474D01*
X26647Y25115D01*
X27657Y24697D01*
X28740Y24555D01*
X29823Y24697D01*
X30833Y25115D01*
X31300Y25474D01*
X28740Y28033D01*
D02*
G37*
G36*
X500Y2928D02*
Y500D01*
X2928D01*
X2892Y775D01*
X2593Y1497D01*
X2117Y2117D01*
X1497Y2593D01*
X775Y2892D01*
X500Y2928D01*
D02*
G37*
G36*
X-500D02*
X-775Y2892D01*
X-1497Y2593D01*
X-2117Y2117D01*
X-2593Y1497D01*
X-2892Y775D01*
X-2928Y500D01*
X-500D01*
Y2928D01*
D02*
G37*
G36*
X2928Y-500D02*
X500D01*
Y-2928D01*
X775Y-2892D01*
X1497Y-2593D01*
X2117Y-2117D01*
X2593Y-1497D01*
X2892Y-775D01*
X2928Y-500D01*
D02*
G37*
G36*
X-500D02*
X-2928D01*
X-2892Y-775D01*
X-2593Y-1497D01*
X-2117Y-2117D01*
X-1497Y-2593D01*
X-775Y-2892D01*
X-500Y-2928D01*
Y-500D01*
D02*
G37*
G36*
X-28740Y32926D02*
X-29823Y32783D01*
X-30833Y32365D01*
X-31700Y31700D01*
X-32365Y30833D01*
X-32783Y29823D01*
X-32926Y28740D01*
X-32783Y27657D01*
X-32365Y26647D01*
X-31700Y25781D01*
X-30833Y25115D01*
X-29823Y24697D01*
X-28740Y24555D01*
X-27657Y24697D01*
X-27094Y24931D01*
X-17554Y15391D01*
Y49D01*
X-17438Y-536D01*
X-17106Y-1032D01*
X-7042Y-11096D01*
X-6546Y-11428D01*
X-5961Y-11544D01*
X326D01*
X6493Y-17711D01*
X6163Y-18088D01*
X5732Y-17757D01*
X4866Y-17399D01*
X4437Y-17342D01*
Y-20366D01*
X7461D01*
X7404Y-19937D01*
X7046Y-19071D01*
X6715Y-18640D01*
X7092Y-18310D01*
X8454Y-19672D01*
X8344Y-19937D01*
X8221Y-20866D01*
X8344Y-21795D01*
X8702Y-22661D01*
X9273Y-23404D01*
X10016Y-23975D01*
X10882Y-24334D01*
X11811Y-24456D01*
X12740Y-24334D01*
X13606Y-23975D01*
X14349Y-23404D01*
X14920Y-22661D01*
X15279Y-21795D01*
X15401Y-20866D01*
X15279Y-19937D01*
X14920Y-19071D01*
X14349Y-18328D01*
X13606Y-17757D01*
X12740Y-17399D01*
X11811Y-17276D01*
X10882Y-17399D01*
X10616Y-17509D01*
X2041Y-8933D01*
X1545Y-8602D01*
X959Y-8485D01*
X-5328D01*
X-14495Y683D01*
Y16025D01*
X-14612Y16610D01*
X-14943Y17106D01*
X-24931Y27094D01*
X-24697Y27657D01*
X-24555Y28740D01*
X-24697Y29823D01*
X-25115Y30833D01*
X-25781Y31700D01*
X-26647Y32365D01*
X-27657Y32783D01*
X-28740Y32926D01*
D02*
G37*
G36*
X3437Y-17342D02*
X3008Y-17399D01*
X2142Y-17757D01*
X1399Y-18328D01*
X828Y-19071D01*
X470Y-19937D01*
X413Y-20366D01*
X3437D01*
Y-17342D01*
D02*
G37*
G36*
X7461Y-21366D02*
X4437D01*
Y-24390D01*
X4866Y-24334D01*
X5732Y-23975D01*
X6475Y-23404D01*
X7046Y-22661D01*
X7404Y-21795D01*
X7461Y-21366D01*
D02*
G37*
G36*
X3437D02*
X413D01*
X470Y-21795D01*
X828Y-22661D01*
X1399Y-23404D01*
X2142Y-23975D01*
X3008Y-24334D01*
X3437Y-24390D01*
Y-21366D01*
D02*
G37*
G36*
X-8252Y-17307D02*
X-15370D01*
Y-24425D01*
X-8252D01*
Y-17307D01*
D02*
G37*
G36*
X-3937Y-17276D02*
X-4866Y-17399D01*
X-5732Y-17757D01*
X-6475Y-18328D01*
X-7046Y-19071D01*
X-7404Y-19937D01*
X-7527Y-20866D01*
X-7404Y-21795D01*
X-7046Y-22661D01*
X-6475Y-23404D01*
X-5732Y-23975D01*
X-4866Y-24334D01*
X-3937Y-24456D01*
X-3008Y-24334D01*
X-2142Y-23975D01*
X-1399Y-23404D01*
X-828Y-22661D01*
X-470Y-21795D01*
X-347Y-20866D01*
X-470Y-19937D01*
X-828Y-19071D01*
X-1399Y-18328D01*
X-2142Y-17757D01*
X-3008Y-17399D01*
X-3937Y-17276D01*
D02*
G37*
G36*
X28740Y-24555D02*
X27657Y-24697D01*
X26647Y-25115D01*
X25781Y-25781D01*
X25115Y-26647D01*
X24697Y-27657D01*
X24555Y-28740D01*
X24697Y-29823D01*
X25115Y-30833D01*
X25781Y-31700D01*
X26647Y-32365D01*
X27657Y-32783D01*
X28740Y-32926D01*
X29823Y-32783D01*
X30833Y-32365D01*
X31700Y-31700D01*
X32365Y-30833D01*
X32783Y-29823D01*
X32926Y-28740D01*
X32783Y-27657D01*
X32365Y-26647D01*
X31700Y-25781D01*
X30833Y-25115D01*
X29823Y-24697D01*
X28740Y-24555D01*
D02*
G37*
G36*
X-28740D02*
X-29823Y-24697D01*
X-30833Y-25115D01*
X-31700Y-25781D01*
X-32365Y-26647D01*
X-32783Y-27657D01*
X-32926Y-28740D01*
X-32783Y-29823D01*
X-32365Y-30833D01*
X-31700Y-31700D01*
X-30833Y-32365D01*
X-29823Y-32783D01*
X-28740Y-32926D01*
X-27657Y-32783D01*
X-26647Y-32365D01*
X-25781Y-31700D01*
X-25115Y-30833D01*
X-24697Y-29823D01*
X-24555Y-28740D01*
X-24697Y-27657D01*
X-25115Y-26647D01*
X-25781Y-25781D01*
X-26647Y-25115D01*
X-27657Y-24697D01*
X-28740Y-24555D01*
D02*
G37*
%LPD*%
D10*
X-37402Y37402D02*
X-11817D01*
X11818Y37402D02*
X37402D01*
Y17721D02*
Y37402D01*
Y-37401D02*
Y-17721D01*
X11818Y-37401D02*
X37402D01*
X-11817Y-37402D02*
Y-37401D01*
X-37402Y-37402D02*
X-11817D01*
X-37402D02*
Y-17721D01*
Y17721D02*
Y37402D01*
D12*
X959Y-10014D02*
X11811Y-20866D01*
X-5961Y-10014D02*
X959D01*
X-16025Y49D02*
X-5961Y-10014D01*
X-28740Y28740D02*
X-16025Y16025D01*
Y49D02*
Y16025D01*
X11818Y-37401D02*
G03*
X-11817Y-37401I-11818J0D01*
G01*
Y37402D02*
G03*
X11818Y37402I11818J-0D01*
G01*
X37402Y17721D02*
G03*
X37402Y-17721I0J-17721D01*
G01*
X-37402D02*
G03*
X-37402Y17721I0J17721D01*
G01*
D16*
X28740Y-28740D02*
D03*
Y28740D02*
D03*
X-28740D02*
D03*
Y-28740D02*
D03*
D17*
X-3937Y-20866D02*
D03*
X3937D02*
D03*
X11811D02*
D03*
D18*
X-11811D02*
D03*
D19*
X0Y0D02*
D03*
M02*
