G04*
G04 #@! TF.GenerationSoftware,Altium Limited,Altium Designer,21.6.4 (81)*
G04*
G04 Layer_Color=65535*
%FSLAX25Y25*%
%MOIN*%
G70*
G04*
G04 #@! TF.SameCoordinates,C5927BB7-CAF9-4977-82FB-EE17E07953DF*
G04*
G04*
G04 #@! TF.FilePolarity,Positive*
G04*
G01*
G75*
%ADD10C,0.00787*%
%ADD11C,0.00602*%
%ADD12C,0.01000*%
D10*
X-24409Y16240D02*
Y24705D01*
Y16240D02*
X24409D01*
Y24705D01*
X-24409D02*
X24409D01*
X-37402Y37402D02*
X-11817D01*
X11818Y37402D02*
X37402D01*
Y17721D02*
Y37402D01*
Y-37401D02*
Y-17721D01*
X11818Y-37401D02*
X37402D01*
X-11817Y-37402D02*
Y-37401D01*
X-37402Y-37402D02*
X-11817D01*
X-37402D02*
Y-17721D01*
Y17721D02*
Y37402D01*
D11*
X16852Y6114D02*
X16328Y6639D01*
Y7688D01*
X16852Y8213D01*
X17377D01*
X17902Y7688D01*
Y7164D01*
Y7688D01*
X18427Y8213D01*
X18952D01*
X19476Y7688D01*
Y6639D01*
X18952Y6114D01*
X16328Y9263D02*
X18427D01*
X19476Y10312D01*
X18427Y11362D01*
X16328D01*
X16852Y12411D02*
X16328Y12936D01*
Y13986D01*
X16852Y14510D01*
X17377D01*
X17902Y13986D01*
Y13461D01*
Y13986D01*
X18427Y14510D01*
X18952D01*
X19476Y13986D01*
Y12936D01*
X18952Y12411D01*
X-19368Y10969D02*
X-19893Y10444D01*
Y9395D01*
X-19368Y8870D01*
X-17269D01*
X-16744Y9395D01*
Y10444D01*
X-17269Y10969D01*
X-19368Y14118D02*
X-19893Y13593D01*
Y12543D01*
X-19368Y12019D01*
X-18843D01*
X-18318Y12543D01*
Y13593D01*
X-17794Y14118D01*
X-17269D01*
X-16744Y13593D01*
Y12543D01*
X-17269Y12019D01*
X-12675Y5064D02*
X-13200Y4539D01*
Y3489D01*
X-12675Y2965D01*
X-12150D01*
X-11626Y3489D01*
Y4539D01*
X-11101Y5064D01*
X-10576D01*
X-10051Y4539D01*
Y3489D01*
X-10576Y2965D01*
X-12675Y8212D02*
X-13200Y7687D01*
Y6638D01*
X-12675Y6113D01*
X-10576D01*
X-10051Y6638D01*
Y7687D01*
X-10576Y8212D01*
X-13200Y9262D02*
X-10051D01*
Y11361D01*
X-13200Y12410D02*
X-10051D01*
X-11101D01*
X-13200Y14509D01*
X-11626Y12935D01*
X-10051Y14509D01*
X-2177Y3752D02*
X-5326D01*
X-4276Y4801D01*
X-5326Y5851D01*
X-2177D01*
X-5326Y8475D02*
Y7425D01*
X-4801Y6901D01*
X-2702D01*
X-2177Y7425D01*
Y8475D01*
X-2702Y9000D01*
X-4801D01*
X-5326Y8475D01*
X-4801Y12148D02*
X-5326Y11624D01*
Y10574D01*
X-4801Y10049D01*
X-4276D01*
X-3751Y10574D01*
Y11624D01*
X-3227Y12148D01*
X-2702D01*
X-2177Y11624D01*
Y10574D01*
X-2702Y10049D01*
X-5326Y13198D02*
Y14247D01*
Y13723D01*
X-2177D01*
Y13198D01*
Y14247D01*
X5697Y3358D02*
X2548D01*
X3598Y4408D01*
X2548Y5457D01*
X5697D01*
X2548Y6507D02*
Y7556D01*
Y7032D01*
X5697D01*
Y6507D01*
Y7556D01*
X3073Y11230D02*
X2548Y10705D01*
Y9656D01*
X3073Y9131D01*
X3598D01*
X4123Y9656D01*
Y10705D01*
X4647Y11230D01*
X5172D01*
X5697Y10705D01*
Y9656D01*
X5172Y9131D01*
X2548Y13854D02*
Y12804D01*
X3073Y12279D01*
X5172D01*
X5697Y12804D01*
Y13854D01*
X5172Y14378D01*
X3073D01*
X2548Y13854D01*
X10553Y8213D02*
X10029Y7688D01*
Y6639D01*
X10553Y6114D01*
X12652D01*
X13177Y6639D01*
Y7688D01*
X12652Y8213D01*
X11603D01*
Y7164D01*
X13177Y9263D02*
X10029D01*
X13177Y11362D01*
X10029D01*
Y12411D02*
X13177D01*
Y13986D01*
X12652Y14510D01*
X10553D01*
X10029Y13986D01*
Y12411D01*
D12*
X11818Y-37401D02*
X11775Y-36399D01*
X11648Y-35404D01*
X11436Y-34424D01*
X11143Y-33465D01*
X10769Y-32534D01*
X10317Y-31638D01*
X9791Y-30784D01*
X9195Y-29977D01*
X8532Y-29224D01*
X7808Y-28530D01*
X7027Y-27900D01*
X6196Y-27338D01*
X5320Y-26849D01*
X4406Y-26436D01*
X3461Y-26102D01*
X2490Y-25849D01*
X1501Y-25680D01*
X502Y-25594D01*
X-501D01*
X-1501Y-25680D01*
X-2490Y-25849D01*
X-3460Y-26102D01*
X-4406Y-26436D01*
X-5320Y-26849D01*
X-6196Y-27338D01*
X-7027Y-27900D01*
X-7807Y-28530D01*
X-8532Y-29224D01*
X-9194Y-29977D01*
X-9791Y-30784D01*
X-10317Y-31638D01*
X-10768Y-32534D01*
X-11142Y-33465D01*
X-11436Y-34424D01*
X-11647Y-35404D01*
X-11775Y-36399D01*
X-11817Y-37401D01*
Y37402D02*
X-11775Y36399D01*
X-11647Y35404D01*
X-11436Y34424D01*
X-11142Y33465D01*
X-10768Y32534D01*
X-10317Y31638D01*
X-9791Y30784D01*
X-9194Y29978D01*
X-8532Y29225D01*
X-7807Y28530D01*
X-7027Y27900D01*
X-6196Y27339D01*
X-5320Y26849D01*
X-4406Y26436D01*
X-3460Y26102D01*
X-2490Y25849D01*
X-1501Y25680D01*
X-501Y25595D01*
X502D01*
X1501Y25680D01*
X2490Y25849D01*
X3461Y26102D01*
X4406Y26436D01*
X5320Y26849D01*
X6196Y27339D01*
X7027Y27900D01*
X7808Y28530D01*
X8532Y29225D01*
X9195Y29978D01*
X9791Y30784D01*
X10317Y31638D01*
X10769Y32534D01*
X11143Y33465D01*
X11436Y34424D01*
X11648Y35404D01*
X11775Y36399D01*
X11818Y37402D01*
X37402Y17721D02*
X36408Y17693D01*
X35418Y17609D01*
X34433Y17470D01*
X33458Y17277D01*
X32496Y17028D01*
X31549Y16726D01*
X30620Y16372D01*
X29713Y15966D01*
X28830Y15510D01*
X27973Y15005D01*
X27147Y14453D01*
X26353Y13855D01*
X25593Y13214D01*
X24871Y12531D01*
X24188Y11808D01*
X23547Y11049D01*
X22949Y10255D01*
X22397Y9428D01*
X21892Y8572D01*
X21436Y7689D01*
X21030Y6781D01*
X20675Y5853D01*
X20373Y4906D01*
X20125Y3943D01*
X19931Y2968D01*
X19792Y1984D01*
X19708Y994D01*
X19681Y0D01*
X19708Y-994D01*
X19792Y-1984D01*
X19931Y-2968D01*
X20125Y-3943D01*
X20373Y-4906D01*
X20675Y-5853D01*
X21030Y-6781D01*
X21436Y-7689D01*
X21892Y-8572D01*
X22397Y-9428D01*
X22949Y-10255D01*
X23547Y-11049D01*
X24188Y-11808D01*
X24871Y-12530D01*
X25593Y-13213D01*
X26353Y-13855D01*
X27147Y-14452D01*
X27973Y-15005D01*
X28830Y-15510D01*
X29713Y-15966D01*
X30620Y-16372D01*
X31549Y-16726D01*
X32496Y-17028D01*
X33458Y-17277D01*
X34433Y-17470D01*
X35417Y-17609D01*
X36408Y-17693D01*
X37402Y-17721D01*
X-37402D02*
X-36408Y-17693D01*
X-35418Y-17609D01*
X-34433Y-17470D01*
X-33458Y-17277D01*
X-32496Y-17028D01*
X-31549Y-16726D01*
X-30620Y-16372D01*
X-29713Y-15966D01*
X-28830Y-15510D01*
X-27973Y-15005D01*
X-27147Y-14453D01*
X-26353Y-13855D01*
X-25593Y-13213D01*
X-24871Y-12530D01*
X-24188Y-11808D01*
X-23547Y-11049D01*
X-22949Y-10255D01*
X-22397Y-9428D01*
X-21892Y-8572D01*
X-21436Y-7689D01*
X-21030Y-6781D01*
X-20675Y-5853D01*
X-20373Y-4906D01*
X-20125Y-3943D01*
X-19931Y-2968D01*
X-19792Y-1984D01*
X-19708Y-993D01*
X-19681Y0D01*
X-19708Y994D01*
X-19792Y1984D01*
X-19931Y2968D01*
X-20125Y3943D01*
X-20373Y4906D01*
X-20675Y5853D01*
X-21030Y6782D01*
X-21436Y7689D01*
X-21892Y8572D01*
X-22397Y9428D01*
X-22949Y10255D01*
X-23547Y11049D01*
X-24188Y11808D01*
X-24871Y12531D01*
X-25593Y13214D01*
X-26353Y13855D01*
X-27147Y14453D01*
X-27974Y15005D01*
X-28830Y15510D01*
X-29713Y15966D01*
X-30620Y16372D01*
X-31549Y16726D01*
X-32496Y17028D01*
X-33458Y17277D01*
X-34433Y17471D01*
X-35418Y17609D01*
X-36408Y17693D01*
X-37402Y17721D01*
M02*
