G04*
G04 #@! TF.GenerationSoftware,Altium Limited,Altium Designer,20.1.14 (287)*
G04*
G04 Layer_Color=32896*
%FSLAX25Y25*%
%MOIN*%
G70*
G04*
G04 #@! TF.SameCoordinates,FE320BA5-E137-4908-8B73-75ADD51EA0EF*
G04*
G04*
G04 #@! TF.FilePolarity,Positive*
G04*
G01*
G75*
%ADD10C,0.00787*%
%ADD12C,0.01000*%
%ADD26C,0.00598*%
%ADD27C,0.00591*%
%ADD28C,0.00600*%
D10*
X21043Y-28531D02*
X28531Y-21043D01*
X36438Y-28949D01*
X28949Y-36438D02*
X36438Y-28949D01*
X21043Y-28531D02*
X28949Y-36438D01*
X21043Y28949D02*
X28531Y36438D01*
X36438Y28531D01*
X28949Y21043D02*
X36438Y28531D01*
X21043Y28949D02*
X28949Y21043D01*
X-36438Y28949D02*
X-28949Y36438D01*
X-21043Y28531D01*
X-28531Y21043D02*
X-21043Y28531D01*
X-36438Y28949D02*
X-28531Y21043D01*
X-36438Y-28531D02*
X-28949Y-21043D01*
X-21043Y-28949D01*
X-28531Y-36438D02*
X-21043Y-28949D01*
X-36438Y-28531D02*
X-28531Y-36438D01*
X-37402Y37402D02*
X-11817D01*
X11818Y37402D02*
X37402D01*
Y17721D02*
Y37402D01*
Y-37401D02*
Y-17721D01*
X11818Y-37401D02*
X37402D01*
X-11817Y-37402D02*
Y-37401D01*
X-37402Y-37402D02*
X-11817D01*
X-37402D02*
Y-17721D01*
Y17721D02*
Y37402D01*
D12*
X11818Y-37401D02*
G03*
X-11817Y-37401I-11818J0D01*
G01*
Y37402D02*
G03*
X11818Y37402I11818J-0D01*
G01*
X37402Y17721D02*
G03*
X37402Y-17721I0J-17721D01*
G01*
X-37402D02*
G03*
X-37402Y17721I0J17721D01*
G01*
D26*
X-10400Y-1739D02*
G03*
X-10432Y1738I11J1739D01*
G01*
D27*
X-13812Y19887D02*
X-8300D01*
X-9481Y14376D02*
X-8300D01*
Y25399D01*
X-9481D02*
X-8300D01*
X-13812D02*
X-12631D01*
X-13812Y14376D02*
Y25399D01*
Y14376D02*
X-12631D01*
X-2079Y14427D02*
Y19939D01*
X-7591Y14427D02*
Y15608D01*
Y14427D02*
X3433D01*
Y15608D01*
Y18757D02*
Y19939D01*
X-7591D02*
X3433D01*
X-7591Y18757D02*
Y19939D01*
D28*
X-10400Y-8400D02*
Y-1739D01*
X10400Y-8400D02*
Y8400D01*
X-10432Y1738D02*
X-10400Y8400D01*
M02*
