G04*
G04 #@! TF.GenerationSoftware,Altium Limited,Altium Designer,20.1.14 (287)*
G04*
G04 Layer_Color=65535*
%FSLAX25Y25*%
%MOIN*%
G70*
G04*
G04 #@! TF.SameCoordinates,FE320BA5-E137-4908-8B73-75ADD51EA0EF*
G04*
G04*
G04 #@! TF.FilePolarity,Positive*
G04*
G01*
G75*
%ADD10C,0.00787*%
%ADD11C,0.00602*%
%ADD12C,0.01000*%
D10*
X-16535Y-16634D02*
X16535D01*
Y-25098D02*
Y-16634D01*
X-16535Y-25098D02*
X16535D01*
X-16535D02*
Y-16634D01*
X-37402Y37402D02*
X-11817D01*
X11818Y37402D02*
X37402D01*
Y17721D02*
Y37402D01*
Y-37401D02*
Y-17721D01*
X11818Y-37401D02*
X37402D01*
X-11817Y-37402D02*
Y-37401D01*
X-37402Y-37402D02*
X-11817D01*
X-37402D02*
Y-17721D01*
Y17721D02*
Y37402D01*
D11*
X12675Y-6508D02*
X13200Y-7033D01*
Y-8082D01*
X12675Y-8607D01*
X12150D01*
X11626Y-8082D01*
Y-7557D01*
Y-8082D01*
X11101Y-8607D01*
X10576D01*
X10051Y-8082D01*
Y-7033D01*
X10576Y-6508D01*
X13200Y-9656D02*
X11101D01*
X10051Y-10706D01*
X11101Y-11755D01*
X13200D01*
X12675Y-12805D02*
X13200Y-13330D01*
Y-14379D01*
X12675Y-14904D01*
X12150D01*
X11626Y-14379D01*
Y-13855D01*
Y-14379D01*
X11101Y-14904D01*
X10576D01*
X10051Y-14379D01*
Y-13330D01*
X10576Y-12805D01*
X4801Y-8607D02*
X5326Y-8082D01*
Y-7033D01*
X4801Y-6508D01*
X2702D01*
X2177Y-7033D01*
Y-8082D01*
X2702Y-8607D01*
X3751D01*
Y-7557D01*
X2177Y-9656D02*
X5326D01*
X2177Y-11755D01*
X5326D01*
Y-12805D02*
X2177D01*
Y-14379D01*
X2702Y-14904D01*
X4801D01*
X5326Y-14379D01*
Y-12805D01*
X-3467Y-8213D02*
X-2942Y-7688D01*
Y-6639D01*
X-3467Y-6114D01*
X-3991D01*
X-4516Y-6639D01*
Y-7688D01*
X-5041Y-8213D01*
X-5566D01*
X-6091Y-7688D01*
Y-6639D01*
X-5566Y-6114D01*
X-2942Y-9263D02*
X-6091D01*
Y-10837D01*
X-5566Y-11362D01*
X-3467D01*
X-2942Y-10837D01*
Y-9263D01*
X-6091Y-12411D02*
X-3991D01*
X-2942Y-13461D01*
X-3991Y-14510D01*
X-6091D01*
X-4516D01*
Y-12411D01*
X-10947Y-8607D02*
X-10422Y-8082D01*
Y-7033D01*
X-10947Y-6508D01*
X-11472D01*
X-11997Y-7033D01*
Y-8082D01*
X-12521Y-8607D01*
X-13046D01*
X-13571Y-8082D01*
Y-7033D01*
X-13046Y-6508D01*
X-10947Y-11755D02*
X-10422Y-11231D01*
Y-10181D01*
X-10947Y-9657D01*
X-13046D01*
X-13571Y-10181D01*
Y-11231D01*
X-13046Y-11755D01*
X-10422Y-12805D02*
X-13571D01*
Y-14904D01*
D12*
X11818Y-37401D02*
G03*
X-11817Y-37401I-11818J0D01*
G01*
Y37402D02*
G03*
X11818Y37402I11818J-0D01*
G01*
X37402Y17721D02*
G03*
X37402Y-17721I0J-17721D01*
G01*
X-37402D02*
G03*
X-37402Y17721I0J17721D01*
G01*
M02*
