G04*
G04 #@! TF.GenerationSoftware,Altium Limited,Altium Designer,24.4.1 (13)*
G04*
G04 Layer_Physical_Order=2*
G04 Layer_Color=16711680*
%FSLAX44Y44*%
%MOMM*%
G71*
G04*
G04 #@! TF.SameCoordinates,981E6EA0-C3E0-4720-A1E8-73D649FB2924*
G04*
G04*
G04 #@! TF.FilePolarity,Positive*
G04*
G01*
G75*
%ADD15C,0.2540*%
%ADD16C,1.3000*%
%ADD17R,1.3000X1.3000*%
%ADD18C,1.6000*%
%ADD19R,1.5240X1.5240*%
%ADD20R,1.0000X0.9000*%
%ADD21R,0.9000X1.0000*%
%ADD22R,0.4500X1.7000*%
G36*
X-32481Y92240D02*
X-31745Y87588D01*
X-31674Y87396D01*
X-31650Y87192D01*
X-30194Y82713D01*
X-30094Y82534D01*
X-30039Y82338D01*
X-27900Y78141D01*
X-27774Y77980D01*
X-27688Y77794D01*
X-24920Y73984D01*
X-24769Y73845D01*
X-24656Y73675D01*
X-21325Y70344D01*
X-21155Y70230D01*
X-21016Y70080D01*
X-17205Y67312D01*
X-17020Y67226D01*
X-16859Y67099D01*
X-12662Y64961D01*
X-12465Y64905D01*
X-12287Y64805D01*
X-7807Y63350D01*
X-7604Y63326D01*
X-7412Y63255D01*
X-2760Y62518D01*
X-2555Y62526D01*
X-2355Y62486D01*
X2355Y62486D01*
X2556Y62526D01*
X2761Y62518D01*
X7413Y63255D01*
X7605Y63326D01*
X7808Y63350D01*
X12287Y64805D01*
X12466Y64905D01*
X12663Y64961D01*
X16860Y67099D01*
X17020Y67226D01*
X17206Y67312D01*
X21017Y70080D01*
X21156Y70230D01*
X21326Y70344D01*
X24656Y73675D01*
X24770Y73845D01*
X24920Y73984D01*
X27689Y77794D01*
X27775Y77980D01*
X27901Y78141D01*
X30040Y82337D01*
X30095Y82534D01*
X30195Y82713D01*
X31651Y87192D01*
X31675Y87396D01*
X31745Y87588D01*
X32482Y92240D01*
X33747Y92410D01*
X92410D01*
Y48504D01*
X91718Y47482D01*
X85881Y46714D01*
X85719Y46659D01*
X85548Y46648D01*
X79861Y45124D01*
X79708Y45048D01*
X79541Y45015D01*
X74101Y42762D01*
X73959Y42667D01*
X73797Y42612D01*
X68698Y39668D01*
X68570Y39555D01*
X68417Y39480D01*
X63746Y35896D01*
X63633Y35767D01*
X63491Y35672D01*
X59328Y31509D01*
X59233Y31367D01*
X59104Y31254D01*
X55520Y26583D01*
X55445Y26430D01*
X55332Y26302D01*
X52388Y21203D01*
X52333Y21041D01*
X52238Y20899D01*
X49985Y15459D01*
X49952Y15292D01*
X49876Y15139D01*
X48352Y9452D01*
X48341Y9281D01*
X48286Y9119D01*
X47518Y3282D01*
X47529Y3111D01*
X47496Y2944D01*
Y-2944D01*
X47529Y-3111D01*
X47518Y-3282D01*
X48286Y-9119D01*
X48341Y-9281D01*
X48352Y-9452D01*
X49876Y-15139D01*
X49952Y-15292D01*
X49985Y-15459D01*
X52238Y-20899D01*
X52333Y-21041D01*
X52388Y-21203D01*
X55332Y-26302D01*
X55445Y-26430D01*
X55520Y-26583D01*
X59104Y-31254D01*
X59233Y-31367D01*
X59328Y-31509D01*
X63491Y-35672D01*
X63633Y-35767D01*
X63746Y-35896D01*
X68417Y-39480D01*
X68570Y-39555D01*
X68698Y-39668D01*
X73797Y-42612D01*
X73959Y-42667D01*
X74101Y-42762D01*
X79541Y-45015D01*
X79708Y-45048D01*
X79861Y-45124D01*
X85548Y-46648D01*
X85719Y-46659D01*
X85881Y-46714D01*
X91718Y-47482D01*
X92410Y-48504D01*
Y-92410D01*
X33747D01*
X32482Y-92239D01*
X31745Y-87587D01*
X31675Y-87395D01*
X31651Y-87192D01*
X30195Y-82713D01*
X30095Y-82534D01*
X30040Y-82337D01*
X27901Y-78140D01*
X27775Y-77980D01*
X27689Y-77794D01*
X24920Y-73983D01*
X24770Y-73844D01*
X24656Y-73674D01*
X21326Y-70344D01*
X21156Y-70230D01*
X21017Y-70080D01*
X17206Y-67311D01*
X17020Y-67225D01*
X16860Y-67099D01*
X12663Y-64961D01*
X12466Y-64905D01*
X12287Y-64805D01*
X7808Y-63350D01*
X7605Y-63326D01*
X7413Y-63255D01*
X2761Y-62518D01*
X2556Y-62526D01*
X2356Y-62486D01*
X-2355D01*
X-2555Y-62526D01*
X-2760Y-62518D01*
X-7412Y-63255D01*
X-7604Y-63326D01*
X-7807Y-63350D01*
X-12287Y-64805D01*
X-12465Y-64905D01*
X-12662Y-64961D01*
X-16859Y-67099D01*
X-17019Y-67226D01*
X-17205Y-67311D01*
X-21016Y-70080D01*
X-21155Y-70230D01*
X-21325Y-70344D01*
X-24656Y-73674D01*
X-24769Y-73844D01*
X-24920Y-73983D01*
X-27688Y-77794D01*
X-27774Y-77980D01*
X-27900Y-78140D01*
X-30039Y-82337D01*
X-30094Y-82534D01*
X-30194Y-82713D01*
X-31650Y-87192D01*
X-31674Y-87395D01*
X-31745Y-87587D01*
X-32481Y-92239D01*
X-33746Y-92410D01*
X-92410D01*
Y-48504D01*
X-91718Y-47482D01*
X-85881Y-46714D01*
X-85719Y-46659D01*
X-85548Y-46648D01*
X-79861Y-45124D01*
X-79708Y-45048D01*
X-79541Y-45015D01*
X-74101Y-42762D01*
X-73959Y-42667D01*
X-73797Y-42612D01*
X-68698Y-39668D01*
X-68570Y-39555D01*
X-68417Y-39480D01*
X-63746Y-35896D01*
X-63633Y-35767D01*
X-63491Y-35672D01*
X-59328Y-31509D01*
X-59233Y-31367D01*
X-59104Y-31254D01*
X-55520Y-26583D01*
X-55445Y-26430D01*
X-55332Y-26302D01*
X-52388Y-21203D01*
X-52333Y-21041D01*
X-52238Y-20899D01*
X-49985Y-15459D01*
X-49952Y-15292D01*
X-49876Y-15139D01*
X-48352Y-9452D01*
X-48341Y-9281D01*
X-48286Y-9119D01*
X-47518Y-3282D01*
X-47529Y-3111D01*
X-47496Y-2944D01*
Y2944D01*
X-47529Y3111D01*
X-47518Y3282D01*
X-48286Y9119D01*
X-48341Y9281D01*
X-48352Y9452D01*
X-49876Y15139D01*
X-49952Y15292D01*
X-49985Y15459D01*
X-52238Y20899D01*
X-52333Y21041D01*
X-52388Y21203D01*
X-55332Y26302D01*
X-55445Y26430D01*
X-55520Y26583D01*
X-59104Y31254D01*
X-59233Y31367D01*
X-59328Y31509D01*
X-63491Y35672D01*
X-63633Y35767D01*
X-63746Y35896D01*
X-68417Y39480D01*
X-68570Y39555D01*
X-68698Y39668D01*
X-73797Y42612D01*
X-73959Y42667D01*
X-74101Y42762D01*
X-79541Y45015D01*
X-79708Y45048D01*
X-79861Y45124D01*
X-85548Y46648D01*
X-85719Y46659D01*
X-85881Y46714D01*
X-91718Y47482D01*
X-92410Y48504D01*
Y92410D01*
X-33746D01*
X-32481Y92240D01*
D02*
G37*
%LPC*%
G36*
X73000Y82360D02*
X70577Y82041D01*
X68320Y81106D01*
X66381Y79619D01*
X64894Y77680D01*
X63959Y75423D01*
X63640Y73000D01*
X63959Y70577D01*
X64894Y68320D01*
X66381Y66381D01*
X68320Y64894D01*
X70400Y64032D01*
Y59077D01*
X31923Y20600D01*
X23030D01*
Y39780D01*
X22100D01*
Y45360D01*
X23370Y45791D01*
X23553Y45553D01*
X25441Y44104D01*
X27640Y43193D01*
X28730Y43049D01*
Y52000D01*
Y60951D01*
X27640Y60807D01*
X25441Y59896D01*
X25133Y59660D01*
X24294Y60617D01*
X34077Y70400D01*
X39100D01*
Y64100D01*
X56900D01*
Y81900D01*
X39100D01*
Y75600D01*
X33000D01*
X32005Y75402D01*
X31162Y74839D01*
X17661Y61338D01*
X17098Y60495D01*
X16900Y59500D01*
Y57874D01*
X15630Y57443D01*
X15549Y57549D01*
X13924Y58796D01*
X12031Y59580D01*
X10000Y59847D01*
X7969Y59580D01*
X6076Y58796D01*
X4451Y57549D01*
X3204Y55924D01*
X2420Y54031D01*
X2153Y52000D01*
X2420Y49969D01*
X2968Y48645D01*
X-1839Y43838D01*
X-2402Y42995D01*
X-2600Y42000D01*
Y39780D01*
X-3900D01*
Y45670D01*
X-4098Y46665D01*
X-4186Y46797D01*
X-3204Y48076D01*
X-2420Y49969D01*
X-2153Y52000D01*
X-2420Y54031D01*
X-3204Y55924D01*
X-4451Y57549D01*
X-6076Y58796D01*
X-7969Y59580D01*
X-10000Y59847D01*
X-12031Y59580D01*
X-13924Y58796D01*
X-15549Y57549D01*
X-16796Y55924D01*
X-17580Y54031D01*
X-17847Y52000D01*
X-17580Y49969D01*
X-17383Y49494D01*
X-18460Y48775D01*
X-21522Y51837D01*
X-22190Y52284D01*
X-22420Y54031D01*
X-23204Y55924D01*
X-24451Y57549D01*
X-26077Y58796D01*
X-27969Y59580D01*
X-30000Y59847D01*
X-32031Y59580D01*
X-33924Y58796D01*
X-35549Y57549D01*
X-36796Y55924D01*
X-37580Y54031D01*
X-37847Y52000D01*
X-37580Y49969D01*
X-36796Y48076D01*
X-35549Y46451D01*
X-33924Y45204D01*
X-32031Y44420D01*
X-30000Y44153D01*
X-27969Y44420D01*
X-26077Y45204D01*
X-24451Y46451D01*
X-23549Y46510D01*
X-17992Y40953D01*
X-18478Y39780D01*
X-23030D01*
Y32600D01*
X-26923D01*
X-42220Y47897D01*
Y59780D01*
X-57780D01*
Y46116D01*
X-58953Y45630D01*
X-70400Y57077D01*
Y64032D01*
X-68320Y64894D01*
X-66381Y66381D01*
X-64894Y68320D01*
X-63959Y70577D01*
X-63640Y73000D01*
X-63959Y75423D01*
X-64894Y77680D01*
X-66381Y79619D01*
X-68320Y81106D01*
X-70577Y82041D01*
X-73000Y82360D01*
X-75423Y82041D01*
X-77680Y81106D01*
X-79619Y79619D01*
X-81106Y77680D01*
X-82041Y75423D01*
X-82360Y73000D01*
X-82041Y70577D01*
X-81106Y68320D01*
X-79619Y66381D01*
X-77680Y64894D01*
X-75600Y64032D01*
Y56000D01*
X-75402Y55005D01*
X-74839Y54162D01*
X-36839Y16162D01*
X-35995Y15598D01*
X-35000Y15400D01*
X4000D01*
X4995Y15598D01*
X5838Y16162D01*
X7838Y18162D01*
X8402Y19005D01*
X8600Y20000D01*
Y20220D01*
X10946D01*
Y19488D01*
X11144Y18493D01*
X11708Y17649D01*
X13196Y16162D01*
X14039Y15598D01*
X15034Y15400D01*
X33000D01*
X33995Y15598D01*
X34838Y16162D01*
X74839Y56162D01*
X75402Y57005D01*
X75600Y58000D01*
Y64032D01*
X77680Y64894D01*
X79619Y66381D01*
X81106Y68320D01*
X82041Y70577D01*
X82360Y73000D01*
X82041Y75423D01*
X81106Y77680D01*
X79619Y79619D01*
X77680Y81106D01*
X75423Y82041D01*
X73000Y82360D01*
D02*
G37*
G36*
X31270Y60951D02*
Y53270D01*
X38951D01*
X38807Y54360D01*
X37896Y56559D01*
X36447Y58447D01*
X34559Y59896D01*
X32360Y60807D01*
X31270Y60951D01*
D02*
G37*
G36*
X50000Y59847D02*
X47969Y59580D01*
X46076Y58796D01*
X44451Y57549D01*
X43204Y55924D01*
X42420Y54031D01*
X42153Y52000D01*
X42420Y49969D01*
X43204Y48076D01*
X44451Y46451D01*
X46076Y45204D01*
X47969Y44420D01*
X50000Y44153D01*
X52031Y44420D01*
X53924Y45204D01*
X55549Y46451D01*
X56796Y48076D01*
X57580Y49969D01*
X57847Y52000D01*
X57580Y54031D01*
X56796Y55924D01*
X55549Y57549D01*
X53924Y58796D01*
X52031Y59580D01*
X50000Y59847D01*
D02*
G37*
G36*
X38951Y50730D02*
X31270D01*
Y43049D01*
X32360Y43193D01*
X34559Y44104D01*
X36447Y45553D01*
X37896Y47441D01*
X38807Y49640D01*
X38951Y50730D01*
D02*
G37*
G36*
X-20770Y-18960D02*
X-24290D01*
Y-28730D01*
X-20770D01*
Y-18960D01*
D02*
G37*
G36*
X11290D02*
X7770D01*
Y-30000D01*
X5230D01*
Y-18960D01*
X1710D01*
Y-20220D01*
X-1710D01*
Y-18960D01*
X-5230D01*
Y-30000D01*
X-7770D01*
Y-18960D01*
X-11730D01*
Y-30000D01*
X-14270D01*
Y-18960D01*
X-18230D01*
Y-30000D01*
X-19500D01*
Y-31270D01*
X-24290D01*
Y-39460D01*
X-25790D01*
Y-45730D01*
X-18750D01*
Y-47000D01*
X-17480D01*
Y-54540D01*
X-11710D01*
Y-54268D01*
X-11030Y-53280D01*
X-9616D01*
X-9130Y-54453D01*
X-11077Y-56400D01*
X-59000D01*
X-59995Y-56598D01*
X-60838Y-57162D01*
X-68497Y-64820D01*
X-70577Y-63959D01*
X-73000Y-63640D01*
X-75423Y-63959D01*
X-77680Y-64894D01*
X-79619Y-66381D01*
X-81106Y-68320D01*
X-82041Y-70577D01*
X-82360Y-73000D01*
X-82041Y-75423D01*
X-81106Y-77680D01*
X-79619Y-79619D01*
X-77680Y-81106D01*
X-75423Y-82041D01*
X-73000Y-82360D01*
X-70577Y-82041D01*
X-68320Y-81106D01*
X-66381Y-79619D01*
X-64894Y-77680D01*
X-63959Y-75423D01*
X-63640Y-73000D01*
X-63959Y-70577D01*
X-64820Y-68497D01*
X-57923Y-61600D01*
X-10000D01*
X-9005Y-61402D01*
X-8162Y-60838D01*
X-3484Y-56161D01*
X-2920Y-55317D01*
X-2722Y-54322D01*
Y-53280D01*
X530D01*
Y-50600D01*
X8000D01*
X8995Y-50402D01*
X9839Y-49839D01*
X14838Y-44839D01*
X15402Y-43995D01*
X15600Y-43000D01*
Y-39780D01*
X23030D01*
Y-32600D01*
X24822D01*
X25720Y-33498D01*
X25720Y-36030D01*
X24732Y-36710D01*
X24460D01*
Y-42480D01*
X32000D01*
X39540D01*
Y-36710D01*
X39268D01*
X38280Y-36030D01*
X38280Y-35440D01*
Y-24470D01*
X25720D01*
Y-27400D01*
X23030D01*
Y-20220D01*
X11290D01*
Y-18960D01*
D02*
G37*
G36*
X39540Y-45020D02*
X33270D01*
Y-50790D01*
X39540D01*
Y-45020D01*
D02*
G37*
G36*
X30730D02*
X24460D01*
Y-50790D01*
X30730D01*
Y-45020D01*
D02*
G37*
G36*
X-20020Y-48270D02*
X-25790D01*
Y-54540D01*
X-20020D01*
Y-48270D01*
D02*
G37*
G36*
X74270Y-62536D02*
Y-71730D01*
X83464D01*
X83269Y-70248D01*
X82207Y-67684D01*
X80517Y-65483D01*
X78316Y-63793D01*
X75752Y-62731D01*
X74270Y-62536D01*
D02*
G37*
G36*
X71730D02*
X70248Y-62731D01*
X67684Y-63793D01*
X65483Y-65483D01*
X63793Y-67684D01*
X62731Y-70248D01*
X62536Y-71730D01*
X71730D01*
Y-62536D01*
D02*
G37*
G36*
X83464Y-74270D02*
X74270D01*
Y-83464D01*
X75752Y-83269D01*
X78316Y-82207D01*
X80517Y-80517D01*
X82207Y-78316D01*
X83269Y-75752D01*
X83464Y-74270D01*
D02*
G37*
G36*
X71730D02*
X62536D01*
X62731Y-75752D01*
X63793Y-78316D01*
X65483Y-80517D01*
X67684Y-82207D01*
X70248Y-83269D01*
X71730Y-83464D01*
Y-74270D01*
D02*
G37*
%LPD*%
G36*
X-29839Y28162D02*
X-28995Y27598D01*
X-28000Y27400D01*
X-23030D01*
Y20600D01*
X-33923D01*
X-56370Y43047D01*
X-55884Y44220D01*
X-45897D01*
X-29839Y28162D01*
D02*
G37*
D15*
X33000Y73000D02*
X46000D01*
X19500Y59500D02*
X33000Y73000D01*
X19500Y30000D02*
Y59500D01*
X13000Y30000D02*
X13546Y29454D01*
Y19488D02*
X15034Y18000D01*
X13546Y19488D02*
Y29454D01*
X15034Y18000D02*
X33000D01*
X73000Y58000D01*
Y73000D01*
X6000Y29500D02*
X6500Y30000D01*
X-73000Y56000D02*
X-35000Y18000D01*
X-73000Y56000D02*
Y73000D01*
X-35000Y18000D02*
X4000D01*
X6000Y20000D01*
Y29500D01*
X19500Y-30000D02*
X31750D01*
X32000Y-30250D01*
X-13000Y-30000D02*
X-6500D01*
X-19500D02*
X-13000D01*
X-19500D02*
X-18750Y-30750D01*
Y-47000D02*
Y-30750D01*
X-73000Y-73000D02*
X-59000Y-59000D01*
X-10000D01*
X-5322Y-54322D01*
Y-47072D01*
X-5250Y-47000D01*
X-4250Y-48000D02*
X8000D01*
X-5250Y-47000D02*
X-4250Y-48000D01*
X13000Y-43000D02*
Y-30000D01*
X8000Y-48000D02*
X13000Y-43000D01*
X-50000Y52000D02*
X-28000Y30000D01*
X-19500D01*
X-27999Y49999D02*
X-23361D01*
X-30000Y52000D02*
X-27999Y49999D01*
X-23361D02*
X-13440Y40078D01*
X-0Y30000D02*
Y42000D01*
X10000Y52000D01*
X-10000Y49170D02*
Y52000D01*
X-6500Y30000D02*
Y45670D01*
X-10000Y49170D02*
X-6500Y45670D01*
X-13440Y30440D02*
Y40078D01*
Y30440D02*
X-13000Y30000D01*
D16*
X-10000Y52000D02*
D03*
X-30000D02*
D03*
X10000D02*
D03*
X30000D02*
D03*
X50000D02*
D03*
D17*
X-50000D02*
D03*
D18*
X73000Y-73000D02*
D03*
X-73000Y73000D02*
D03*
X73000D02*
D03*
X-73000Y-73000D02*
D03*
D19*
X48000Y73000D02*
D03*
D20*
X32000Y-30250D02*
D03*
Y-43750D02*
D03*
D21*
X-5250Y-47000D02*
D03*
X-18750D02*
D03*
D22*
X-19500Y30000D02*
D03*
X-13000D02*
D03*
X-6500D02*
D03*
X-0D02*
D03*
X6500D02*
D03*
X13000D02*
D03*
X19500D02*
D03*
X-19500Y-30000D02*
D03*
X-13000D02*
D03*
X-6500D02*
D03*
X-0D02*
D03*
X6500D02*
D03*
X13000D02*
D03*
X19500D02*
D03*
M02*
