G04*
G04 #@! TF.GenerationSoftware,Altium Limited,Altium Designer,24.5.2 (23)*
G04*
G04 Layer_Color=16711935*
%FSLAX44Y44*%
%MOMM*%
G71*
G04*
G04 #@! TF.SameCoordinates,E9FC05D7-2B72-4DC1-8FCA-AC280C2F8AC5*
G04*
G04*
G04 #@! TF.FilePolarity,Negative*
G04*
G01*
G75*
%ADD42R,0.8432X0.8032*%
%ADD43R,1.7532X0.8032*%
%ADD44R,2.0032X1.4032*%
%ADD47R,0.8032X0.8432*%
%ADD48R,0.8032X0.9532*%
%ADD50R,1.6032X1.5032*%
%ADD57R,1.1032X1.2032*%
%ADD60O,1.5032X0.8532*%
%ADD61O,0.9782X1.7532*%
%ADD62C,1.2032*%
%ADD63C,1.7272*%
%ADD90R,1.1532X1.0532*%
%ADD91R,1.0532X1.1532*%
G04:AMPARAMS|DCode=92|XSize=0.4632mm|YSize=1.0632mm|CornerRadius=0mm|HoleSize=0mm|Usage=FLASHONLY|Rotation=315.000|XOffset=0mm|YOffset=0mm|HoleType=Round|Shape=Rectangle|*
%AMROTATEDRECTD92*
4,1,4,-0.5397,-0.2121,0.2121,0.5397,0.5397,0.2121,-0.2121,-0.5397,-0.5397,-0.2121,0.0*
%
%ADD92ROTATEDRECTD92*%

%ADD93R,0.8032X1.7532*%
%ADD94R,1.4032X2.0032*%
G04:AMPARAMS|DCode=95|XSize=1.0032mm|YSize=1.1032mm|CornerRadius=0mm|HoleSize=0mm|Usage=FLASHONLY|Rotation=135.000|XOffset=0mm|YOffset=0mm|HoleType=Round|Shape=Rectangle|*
%AMROTATEDRECTD95*
4,1,4,0.7447,0.0354,-0.0354,-0.7447,-0.7447,-0.0354,0.0354,0.7447,0.7447,0.0354,0.0*
%
%ADD95ROTATEDRECTD95*%

%ADD96R,0.8032X1.2032*%
%ADD97R,1.1032X1.0032*%
G04:AMPARAMS|DCode=98|XSize=0.8432mm|YSize=0.8032mm|CornerRadius=0mm|HoleSize=0mm|Usage=FLASHONLY|Rotation=135.000|XOffset=0mm|YOffset=0mm|HoleType=Round|Shape=Rectangle|*
%AMROTATEDRECTD98*
4,1,4,0.5821,-0.0141,0.0141,-0.5821,-0.5821,0.0141,-0.0141,0.5821,0.5821,-0.0141,0.0*
%
%ADD98ROTATEDRECTD98*%

%ADD99P,8.7727X4X360.0*%
G04:AMPARAMS|DCode=100|XSize=1.0632mm|YSize=0.4632mm|CornerRadius=0mm|HoleSize=0mm|Usage=FLASHONLY|Rotation=315.000|XOffset=0mm|YOffset=0mm|HoleType=Round|Shape=Rectangle|*
%AMROTATEDRECTD100*
4,1,4,-0.5397,0.2121,-0.2121,0.5397,0.5397,-0.2121,0.2121,-0.5397,-0.5397,0.2121,0.0*
%
%ADD100ROTATEDRECTD100*%

%ADD101R,0.9532X0.8032*%
G04:AMPARAMS|DCode=102|XSize=0.8432mm|YSize=0.8032mm|CornerRadius=0mm|HoleSize=0mm|Usage=FLASHONLY|Rotation=45.000|XOffset=0mm|YOffset=0mm|HoleType=Round|Shape=Rectangle|*
%AMROTATEDRECTD102*
4,1,4,-0.0141,-0.5821,-0.5821,-0.0141,0.0141,0.5821,0.5821,0.0141,-0.0141,-0.5821,0.0*
%
%ADD102ROTATEDRECTD102*%

%ADD103R,1.0032X1.1032*%
%ADD104R,0.7532X1.2032*%
G04:AMPARAMS|DCode=105|XSize=0.8032mm|YSize=0.9532mm|CornerRadius=0mm|HoleSize=0mm|Usage=FLASHONLY|Rotation=45.000|XOffset=0mm|YOffset=0mm|HoleType=Round|Shape=Rectangle|*
%AMROTATEDRECTD105*
4,1,4,0.0530,-0.6210,-0.6210,0.0530,-0.0530,0.6210,0.6210,-0.0530,0.0530,-0.6210,0.0*
%
%ADD105ROTATEDRECTD105*%

G04:AMPARAMS|DCode=106|XSize=0.8032mm|YSize=0.9532mm|CornerRadius=0mm|HoleSize=0mm|Usage=FLASHONLY|Rotation=315.000|XOffset=0mm|YOffset=0mm|HoleType=Round|Shape=Rectangle|*
%AMROTATEDRECTD106*
4,1,4,-0.6210,-0.0530,0.0530,0.6210,0.6210,0.0530,-0.0530,-0.6210,-0.6210,-0.0530,0.0*
%
%ADD106ROTATEDRECTD106*%

D42*
X-74000Y82400D02*
D03*
Y73600D02*
D03*
X-62000Y82400D02*
D03*
Y73600D02*
D03*
Y91600D02*
D03*
Y100400D02*
D03*
X-74000Y91600D02*
D03*
Y100400D02*
D03*
D43*
X-116680Y53000D02*
D03*
Y83000D02*
D03*
Y73000D02*
D03*
Y63000D02*
D03*
Y43000D02*
D03*
X116680Y-45000D02*
D03*
Y-75000D02*
D03*
Y-65000D02*
D03*
Y-55000D02*
D03*
Y68000D02*
D03*
Y58000D02*
D03*
Y48000D02*
D03*
Y78000D02*
D03*
X-116680Y-75000D02*
D03*
Y-45000D02*
D03*
Y-55000D02*
D03*
Y-65000D02*
D03*
D44*
X-155430Y96000D02*
D03*
Y30000D02*
D03*
X155430Y-88000D02*
D03*
Y-32000D02*
D03*
Y91000D02*
D03*
Y35000D02*
D03*
X-155430Y-32000D02*
D03*
Y-88000D02*
D03*
D47*
X-82600Y25000D02*
D03*
X-91400D02*
D03*
D48*
X47000Y82250D02*
D03*
Y93750D02*
D03*
D50*
X-14000Y93000D02*
D03*
Y77000D02*
D03*
D57*
X16250Y95000D02*
D03*
X29750D02*
D03*
D60*
X44000Y-116000D02*
D03*
X94000D02*
D03*
D61*
X34000Y-143000D02*
D03*
X104000D02*
D03*
D62*
X19050Y139650D02*
D03*
Y152350D02*
D03*
X6350Y139650D02*
D03*
X-6350D02*
D03*
X-19050D02*
D03*
X6350Y152350D02*
D03*
X-6350D02*
D03*
X-19050D02*
D03*
X19050Y-152350D02*
D03*
X6350D02*
D03*
X-6350D02*
D03*
X19050Y-139650D02*
D03*
X6350D02*
D03*
X-6350D02*
D03*
X-19050Y-152350D02*
D03*
Y-139650D02*
D03*
D63*
X130000Y-130000D02*
D03*
X-130000D02*
D03*
X130000Y130000D02*
D03*
X-130000D02*
D03*
D90*
X78000Y66500D02*
D03*
Y53500D02*
D03*
X92000Y66500D02*
D03*
Y53500D02*
D03*
X30000Y121500D02*
D03*
Y108500D02*
D03*
D91*
X119500Y-5000D02*
D03*
X106500D02*
D03*
X29500Y81000D02*
D03*
X16500D02*
D03*
D92*
X50806Y11915D02*
D03*
X47270Y15450D02*
D03*
X-57877Y-4844D02*
D03*
X-54341Y-8379D02*
D03*
X-50806Y-11915D02*
D03*
X-47270Y-15450D02*
D03*
X-43735Y-18986D02*
D03*
X-40199Y-22521D02*
D03*
X-36663Y-26057D02*
D03*
X-33128Y-29592D02*
D03*
X-29592Y-33128D02*
D03*
X-26057Y-36663D02*
D03*
X-22521Y-40199D02*
D03*
X-18986Y-43735D02*
D03*
X-15450Y-47270D02*
D03*
X-11915Y-50806D02*
D03*
X-8379Y-54341D02*
D03*
X-4844Y-57877D02*
D03*
X57877Y4844D02*
D03*
X54341Y8379D02*
D03*
X43735Y18986D02*
D03*
X40199Y22521D02*
D03*
X36663Y26057D02*
D03*
X33128Y29592D02*
D03*
X29592Y33128D02*
D03*
X26057Y36663D02*
D03*
X22521Y40199D02*
D03*
X18986Y43735D02*
D03*
X15450Y47270D02*
D03*
X11915Y50806D02*
D03*
X8379Y54341D02*
D03*
X4844Y57877D02*
D03*
D93*
X-79000Y115680D02*
D03*
X-69000D02*
D03*
X-59000D02*
D03*
X-89000D02*
D03*
D94*
X-102000Y154430D02*
D03*
X-46000D02*
D03*
D95*
X93819Y20414D02*
D03*
X84414Y29819D02*
D03*
X81586Y8181D02*
D03*
X72181Y17586D02*
D03*
D96*
X-95500Y-15000D02*
D03*
X-86000D02*
D03*
X-76500D02*
D03*
X-95500Y13000D02*
D03*
X-76500D02*
D03*
D97*
X60000Y75500D02*
D03*
Y94500D02*
D03*
X80000Y85000D02*
D03*
X134000Y-18500D02*
D03*
Y500D02*
D03*
X154000Y-9000D02*
D03*
D98*
X67889Y33889D02*
D03*
X74111Y40111D02*
D03*
X68111Y-13889D02*
D03*
X61889Y-20111D02*
D03*
X-47111Y32889D02*
D03*
X-40889Y39111D02*
D03*
D99*
X0Y0D02*
D03*
D100*
X4844Y-57877D02*
D03*
X8379Y-54341D02*
D03*
X11915Y-50806D02*
D03*
X15450Y-47270D02*
D03*
X18986Y-43735D02*
D03*
X22521Y-40199D02*
D03*
X26057Y-36663D02*
D03*
X29592Y-33128D02*
D03*
X33128Y-29592D02*
D03*
X36663Y-26057D02*
D03*
X40199Y-22521D02*
D03*
X43735Y-18986D02*
D03*
X47270Y-15450D02*
D03*
X50806Y-11915D02*
D03*
X54341Y-8379D02*
D03*
X57877Y-4844D02*
D03*
X-4844Y57877D02*
D03*
X-8379Y54341D02*
D03*
X-11915Y50806D02*
D03*
X-15450Y47270D02*
D03*
X-18986Y43735D02*
D03*
X-22521Y40199D02*
D03*
X-26057Y36663D02*
D03*
X-29592Y33128D02*
D03*
X-33128Y29592D02*
D03*
X-36663Y26057D02*
D03*
X-40199Y22521D02*
D03*
X-43735Y18986D02*
D03*
X-47270Y15450D02*
D03*
X-50806Y11915D02*
D03*
X-54341Y8379D02*
D03*
X-57877Y4844D02*
D03*
D101*
X89750Y139000D02*
D03*
X78250D02*
D03*
X119750Y-19000D02*
D03*
X108250D02*
D03*
X-35750Y114000D02*
D03*
X-24250D02*
D03*
D102*
X53111Y-44111D02*
D03*
X46889Y-37889D02*
D03*
X46111Y32889D02*
D03*
X39889Y39111D02*
D03*
X-63111Y44111D02*
D03*
X-56889Y37889D02*
D03*
X-46889Y-31111D02*
D03*
X-53111Y-24889D02*
D03*
X-36111Y-41889D02*
D03*
X-29889Y-48111D02*
D03*
X28111Y56889D02*
D03*
X21889Y63111D02*
D03*
D103*
X88000Y108000D02*
D03*
X97500Y128000D02*
D03*
X78500D02*
D03*
D104*
X-49500Y102500D02*
D03*
X-40000D02*
D03*
X-30500D02*
D03*
Y75500D02*
D03*
X-49500D02*
D03*
D105*
X79934Y-17934D02*
D03*
X88066Y-26066D02*
D03*
D106*
X80066Y-34934D02*
D03*
X71934Y-43066D02*
D03*
X-49066Y44934D02*
D03*
X-40934Y53066D02*
D03*
M02*
