G04*
G04 #@! TF.GenerationSoftware,Altium Limited,Altium Designer,24.5.2 (23)*
G04*
G04 Layer_Color=8421504*
%FSLAX44Y44*%
%MOMM*%
G71*
G04*
G04 #@! TF.SameCoordinates,E9FC05D7-2B72-4DC1-8FCA-AC280C2F8AC5*
G04*
G04*
G04 #@! TF.FilePolarity,Positive*
G04*
G01*
G75*
%ADD19C,0.0001*%
%ADD20R,0.4500X0.2500*%
%ADD21R,0.2500X0.4500*%
%ADD22R,0.6400X0.6000*%
%ADD23R,1.1000X1.5000*%
%ADD24R,1.5500X0.6000*%
%ADD25R,1.8000X1.2000*%
%ADD26R,0.4000X1.3500*%
%ADD27R,1.5000X1.5500*%
%ADD28R,0.6000X0.6400*%
%ADD29R,0.6000X0.7500*%
%ADD30R,1.0000X0.5500*%
%ADD31R,1.4000X1.3000*%
%ADD32R,1.0000X0.7000*%
%ADD33R,1.7500X1.2000*%
%ADD34R,1.0000X0.9000*%
G04:AMPARAMS|DCode=35|XSize=0.8mm|YSize=0.35mm|CornerRadius=0.0438mm|HoleSize=0mm|Usage=FLASHONLY|Rotation=270.000|XOffset=0mm|YOffset=0mm|HoleType=Round|Shape=RoundedRectangle|*
%AMROUNDEDRECTD35*
21,1,0.8000,0.2625,0,0,270.0*
21,1,0.7125,0.3500,0,0,270.0*
1,1,0.0875,-0.1313,-0.3563*
1,1,0.0875,-0.1313,0.3563*
1,1,0.0875,0.1313,0.3563*
1,1,0.0875,0.1313,-0.3563*
%
%ADD35ROUNDEDRECTD35*%
G04:AMPARAMS|DCode=36|XSize=0.85mm|YSize=0.35mm|CornerRadius=0.0438mm|HoleSize=0mm|Usage=FLASHONLY|Rotation=0.000|XOffset=0mm|YOffset=0mm|HoleType=Round|Shape=RoundedRectangle|*
%AMROUNDEDRECTD36*
21,1,0.8500,0.2625,0,0,0.0*
21,1,0.7625,0.3500,0,0,0.0*
1,1,0.0875,0.3813,-0.1313*
1,1,0.0875,-0.3813,-0.1313*
1,1,0.0875,-0.3813,0.1313*
1,1,0.0875,0.3813,0.1313*
%
%ADD36ROUNDEDRECTD36*%
%ADD37R,0.9000X1.0000*%
%ADD38R,0.2500X0.2750*%
%ADD39R,0.2750X0.2500*%
G36*
X104262Y-135257D02*
X104523Y-135277D01*
X104782Y-135311D01*
X105040Y-135359D01*
X105294Y-135420D01*
X105545Y-135495D01*
X105792Y-135582D01*
X106034Y-135682D01*
X106270Y-135795D01*
X106500Y-135920D01*
X106723Y-136057D01*
X106939Y-136205D01*
X107147Y-136364D01*
X107346Y-136534D01*
X107535Y-136714D01*
X107716Y-136904D01*
X107886Y-137103D01*
X108045Y-137311D01*
X108193Y-137527D01*
X108330Y-137750D01*
X108455Y-137980D01*
X108568Y-138216D01*
X108668Y-138458D01*
X108755Y-138705D01*
X108830Y-138956D01*
X108891Y-139210D01*
X108939Y-139468D01*
X108973Y-139727D01*
X108993Y-139988D01*
X109000Y-140250D01*
Y-145750D01*
X108993Y-146012D01*
X108973Y-146273D01*
X108939Y-146532D01*
X108891Y-146790D01*
X108830Y-147044D01*
X108755Y-147295D01*
X108668Y-147542D01*
X108568Y-147784D01*
X108455Y-148020D01*
X108330Y-148250D01*
X108193Y-148473D01*
X108045Y-148689D01*
X107886Y-148897D01*
X107716Y-149096D01*
X107535Y-149285D01*
X107346Y-149466D01*
X107147Y-149636D01*
X106939Y-149795D01*
X106723Y-149943D01*
X106500Y-150080D01*
X106270Y-150205D01*
X106034Y-150318D01*
X105792Y-150418D01*
X105545Y-150505D01*
X105294Y-150580D01*
X105040Y-150641D01*
X104782Y-150688D01*
X104523Y-150723D01*
X104262Y-150743D01*
X104000Y-150750D01*
X92000D01*
Y-135250D01*
X104000D01*
X104262Y-135257D01*
D02*
G37*
G36*
X46000Y-150750D02*
X34000D01*
X33738Y-150743D01*
X33477Y-150723D01*
X33218Y-150688D01*
X32961Y-150641D01*
X32706Y-150580D01*
X32455Y-150505D01*
X32208Y-150418D01*
X31966Y-150318D01*
X31730Y-150205D01*
X31500Y-150080D01*
X31277Y-149943D01*
X31061Y-149795D01*
X30853Y-149636D01*
X30654Y-149466D01*
X30464Y-149285D01*
X30284Y-149096D01*
X30114Y-148897D01*
X29955Y-148689D01*
X29807Y-148473D01*
X29670Y-148250D01*
X29545Y-148020D01*
X29432Y-147784D01*
X29332Y-147542D01*
X29245Y-147295D01*
X29170Y-147044D01*
X29109Y-146790D01*
X29062Y-146532D01*
X29027Y-146273D01*
X29007Y-146012D01*
X29000Y-145750D01*
Y-140250D01*
X29007Y-139988D01*
X29027Y-139727D01*
X29062Y-139468D01*
X29109Y-139210D01*
X29170Y-138956D01*
X29245Y-138705D01*
X29332Y-138458D01*
X29432Y-138216D01*
X29545Y-137980D01*
X29670Y-137750D01*
X29807Y-137527D01*
X29955Y-137311D01*
X30114Y-137103D01*
X30284Y-136904D01*
X30464Y-136714D01*
X30654Y-136534D01*
X30853Y-136364D01*
X31061Y-136205D01*
X31277Y-136057D01*
X31500Y-135920D01*
X31730Y-135795D01*
X31966Y-135682D01*
X32208Y-135582D01*
X32455Y-135495D01*
X32706Y-135420D01*
X32961Y-135359D01*
X33218Y-135311D01*
X33477Y-135277D01*
X33738Y-135257D01*
X34000Y-135250D01*
X46000D01*
Y-150750D01*
D02*
G37*
G36*
X18780Y-74040D02*
Y-56960D01*
X35220D01*
Y-74040D01*
X18780D01*
D02*
G37*
%LPC*%
G36*
X104000Y-137250D02*
X103869Y-137253D01*
X103739Y-137264D01*
X103609Y-137281D01*
X103480Y-137305D01*
X103353Y-137335D01*
X103228Y-137372D01*
X103104Y-137416D01*
X102983Y-137466D01*
X102865Y-137522D01*
X102750Y-137585D01*
X102638Y-137653D01*
X102531Y-137727D01*
X102427Y-137807D01*
X102327Y-137892D01*
X102232Y-137982D01*
X102142Y-138077D01*
X102057Y-138177D01*
X101978Y-138280D01*
X101903Y-138388D01*
X101835Y-138500D01*
X101772Y-138615D01*
X101716Y-138733D01*
X101666Y-138854D01*
X101622Y-138977D01*
X101585Y-139103D01*
X101555Y-139230D01*
X101531Y-139359D01*
X101514Y-139489D01*
X101503Y-139619D01*
X101500Y-139750D01*
Y-146250D01*
X101503Y-146381D01*
X101514Y-146511D01*
X101531Y-146641D01*
X101555Y-146770D01*
X101585Y-146897D01*
X101622Y-147022D01*
X101666Y-147146D01*
X101716Y-147267D01*
X101772Y-147385D01*
X101835Y-147500D01*
X101903Y-147612D01*
X101978Y-147719D01*
X102057Y-147823D01*
X102142Y-147923D01*
X102232Y-148018D01*
X102327Y-148108D01*
X102427Y-148193D01*
X102531Y-148272D01*
X102638Y-148347D01*
X102750Y-148415D01*
X102865Y-148477D01*
X102983Y-148534D01*
X103104Y-148584D01*
X103228Y-148628D01*
X103353Y-148665D01*
X103480Y-148695D01*
X103609Y-148719D01*
X103739Y-148736D01*
X103869Y-148747D01*
X104000Y-148750D01*
X104131Y-148747D01*
X104261Y-148736D01*
X104391Y-148719D01*
X104520Y-148695D01*
X104647Y-148665D01*
X104773Y-148628D01*
X104896Y-148584D01*
X105017Y-148534D01*
X105135Y-148477D01*
X105250Y-148415D01*
X105362Y-148347D01*
X105470Y-148272D01*
X105573Y-148193D01*
X105673Y-148108D01*
X105768Y-148018D01*
X105858Y-147923D01*
X105943Y-147823D01*
X106023Y-147719D01*
X106097Y-147612D01*
X106165Y-147500D01*
X106228Y-147385D01*
X106284Y-147267D01*
X106334Y-147146D01*
X106378Y-147022D01*
X106415Y-146897D01*
X106445Y-146770D01*
X106469Y-146641D01*
X106486Y-146511D01*
X106497Y-146381D01*
X106500Y-146250D01*
Y-139750D01*
X106497Y-139619D01*
X106486Y-139489D01*
X106469Y-139359D01*
X106445Y-139230D01*
X106415Y-139103D01*
X106378Y-138977D01*
X106334Y-138854D01*
X106284Y-138733D01*
X106228Y-138615D01*
X106165Y-138500D01*
X106097Y-138388D01*
X106023Y-138280D01*
X105943Y-138177D01*
X105858Y-138077D01*
X105768Y-137982D01*
X105673Y-137892D01*
X105573Y-137807D01*
X105470Y-137727D01*
X105362Y-137653D01*
X105250Y-137585D01*
X105135Y-137522D01*
X105017Y-137466D01*
X104896Y-137416D01*
X104773Y-137372D01*
X104647Y-137335D01*
X104520Y-137305D01*
X104391Y-137281D01*
X104261Y-137264D01*
X104131Y-137253D01*
X104000Y-137250D01*
D02*
G37*
G36*
X34000D02*
X33869Y-137253D01*
X33739Y-137264D01*
X33609Y-137281D01*
X33480Y-137305D01*
X33353Y-137335D01*
X33228Y-137372D01*
X33104Y-137416D01*
X32983Y-137466D01*
X32865Y-137522D01*
X32750Y-137585D01*
X32638Y-137653D01*
X32531Y-137727D01*
X32427Y-137807D01*
X32327Y-137892D01*
X32232Y-137982D01*
X32142Y-138077D01*
X32057Y-138177D01*
X31978Y-138280D01*
X31903Y-138388D01*
X31835Y-138500D01*
X31772Y-138615D01*
X31716Y-138733D01*
X31666Y-138854D01*
X31622Y-138977D01*
X31585Y-139103D01*
X31555Y-139230D01*
X31531Y-139359D01*
X31514Y-139489D01*
X31503Y-139619D01*
X31500Y-139750D01*
Y-146250D01*
X31503Y-146381D01*
X31514Y-146511D01*
X31531Y-146641D01*
X31555Y-146770D01*
X31585Y-146897D01*
X31622Y-147022D01*
X31666Y-147146D01*
X31716Y-147267D01*
X31772Y-147385D01*
X31835Y-147500D01*
X31903Y-147612D01*
X31978Y-147719D01*
X32057Y-147823D01*
X32142Y-147923D01*
X32232Y-148018D01*
X32327Y-148108D01*
X32427Y-148193D01*
X32531Y-148272D01*
X32638Y-148347D01*
X32750Y-148415D01*
X32865Y-148477D01*
X32983Y-148534D01*
X33104Y-148584D01*
X33228Y-148628D01*
X33353Y-148665D01*
X33480Y-148695D01*
X33609Y-148719D01*
X33739Y-148736D01*
X33869Y-148747D01*
X34000Y-148750D01*
X34131Y-148747D01*
X34261Y-148736D01*
X34391Y-148719D01*
X34520Y-148695D01*
X34647Y-148665D01*
X34773Y-148628D01*
X34896Y-148584D01*
X35017Y-148534D01*
X35135Y-148477D01*
X35250Y-148415D01*
X35362Y-148347D01*
X35470Y-148272D01*
X35573Y-148193D01*
X35673Y-148108D01*
X35768Y-148018D01*
X35858Y-147923D01*
X35943Y-147823D01*
X36023Y-147719D01*
X36097Y-147612D01*
X36165Y-147500D01*
X36228Y-147385D01*
X36284Y-147267D01*
X36334Y-147146D01*
X36378Y-147022D01*
X36415Y-146897D01*
X36445Y-146770D01*
X36469Y-146641D01*
X36486Y-146511D01*
X36497Y-146381D01*
X36500Y-146250D01*
Y-139750D01*
X36497Y-139619D01*
X36486Y-139489D01*
X36469Y-139359D01*
X36445Y-139230D01*
X36415Y-139103D01*
X36378Y-138977D01*
X36334Y-138854D01*
X36284Y-138733D01*
X36228Y-138615D01*
X36165Y-138500D01*
X36097Y-138388D01*
X36023Y-138280D01*
X35943Y-138177D01*
X35858Y-138077D01*
X35768Y-137982D01*
X35673Y-137892D01*
X35573Y-137807D01*
X35470Y-137727D01*
X35362Y-137653D01*
X35250Y-137585D01*
X35135Y-137522D01*
X35017Y-137466D01*
X34896Y-137416D01*
X34773Y-137372D01*
X34647Y-137335D01*
X34520Y-137305D01*
X34391Y-137281D01*
X34261Y-137264D01*
X34131Y-137253D01*
X34000Y-137250D01*
D02*
G37*
%LPD*%
D19*
Y-137000D02*
Y-135300D01*
X104000Y-150700D02*
Y-149000D01*
D20*
X-129000Y45500D02*
D03*
Y50500D02*
D03*
Y55500D02*
D03*
Y60500D02*
D03*
X-147000D02*
D03*
Y55500D02*
D03*
Y50500D02*
D03*
Y45500D02*
D03*
D21*
X-135500Y62250D02*
D03*
X-140500D02*
D03*
Y43750D02*
D03*
X-135500D02*
D03*
D22*
X-121000Y53600D02*
D03*
Y62400D02*
D03*
X-155000Y51400D02*
D03*
Y42600D02*
D03*
X-16000Y114400D02*
D03*
Y105600D02*
D03*
X-6000Y-69100D02*
D03*
Y-77900D02*
D03*
X-34000Y-87400D02*
D03*
Y-78600D02*
D03*
D23*
X-7500Y-15000D02*
D03*
X7500D02*
D03*
Y15000D02*
D03*
X-7500D02*
D03*
D24*
X116680Y-71000D02*
D03*
Y-41000D02*
D03*
Y-51000D02*
D03*
Y-61000D02*
D03*
Y-81000D02*
D03*
X-116680Y-45000D02*
D03*
Y-75000D02*
D03*
Y-65000D02*
D03*
Y-55000D02*
D03*
D25*
X155430Y-28000D02*
D03*
Y-94000D02*
D03*
X-155430Y-88000D02*
D03*
Y-32000D02*
D03*
D26*
X56000Y-116000D02*
D03*
X62500D02*
D03*
X69000D02*
D03*
X75500D02*
D03*
X82000D02*
D03*
D27*
X59000Y-143000D02*
D03*
X79000D02*
D03*
D28*
X-71000Y-3000D02*
D03*
X-79800D02*
D03*
X-71000Y-15000D02*
D03*
X-79800D02*
D03*
X-99800Y-3000D02*
D03*
X-91000D02*
D03*
X-99800Y-15000D02*
D03*
X-91000D02*
D03*
X-133600Y71000D02*
D03*
X-142400D02*
D03*
X23600Y-95500D02*
D03*
X32400D02*
D03*
X-35600Y-67000D02*
D03*
X-44400D02*
D03*
D29*
X-64400Y24750D02*
D03*
Y13250D02*
D03*
D30*
X-102900Y9500D02*
D03*
Y28500D02*
D03*
X-75900D02*
D03*
Y19000D02*
D03*
Y9500D02*
D03*
D31*
X37000Y137000D02*
D03*
Y153000D02*
D03*
X80000Y121000D02*
D03*
Y105000D02*
D03*
D32*
X41000Y105500D02*
D03*
Y115000D02*
D03*
Y124500D02*
D03*
X19000Y105500D02*
D03*
Y115000D02*
D03*
Y124500D02*
D03*
D33*
X1000Y123750D02*
D03*
Y98250D02*
D03*
D34*
X53000Y151750D02*
D03*
Y138250D02*
D03*
X64000Y117750D02*
D03*
Y104250D02*
D03*
X60000Y-89250D02*
D03*
Y-75750D02*
D03*
D35*
X39500Y-45500D02*
D03*
X34500D02*
D03*
X29500D02*
D03*
X24500D02*
D03*
X19500D02*
D03*
X14500D02*
D03*
Y-85500D02*
D03*
X19500D02*
D03*
X24500D02*
D03*
X29500D02*
D03*
X34500D02*
D03*
X39500D02*
D03*
D36*
X7250Y-53000D02*
D03*
Y-58000D02*
D03*
Y-63000D02*
D03*
Y-68000D02*
D03*
Y-73000D02*
D03*
Y-78000D02*
D03*
X46750D02*
D03*
Y-73000D02*
D03*
Y-68000D02*
D03*
Y-63000D02*
D03*
Y-58000D02*
D03*
Y-53000D02*
D03*
D37*
X6750Y-93500D02*
D03*
X-6750D02*
D03*
D38*
X-54500Y-90625D02*
D03*
X-49500D02*
D03*
X-54500Y-75375D02*
D03*
X-49500D02*
D03*
D39*
X-44375Y-88000D02*
D03*
X-59625D02*
D03*
X-44375Y-83000D02*
D03*
Y-78000D02*
D03*
X-59625Y-83000D02*
D03*
Y-78000D02*
D03*
M02*
