G04*
G04 #@! TF.GenerationSoftware,Altium Limited,Altium Designer,24.5.2 (23)*
G04*
G04 Layer_Physical_Order=3*
G04 Layer_Color=16776960*
%FSLAX44Y44*%
%MOMM*%
G71*
G04*
G04 #@! TF.SameCoordinates,E9FC05D7-2B72-4DC1-8FCA-AC280C2F8AC5*
G04*
G04*
G04 #@! TF.FilePolarity,Positive*
G04*
G01*
G75*
%ADD65C,0.2540*%
%ADD67O,1.3000X0.6500*%
%ADD68O,0.7750X1.5500*%
%ADD69C,1.0000*%
%ADD70C,1.5240*%
%ADD71C,0.5000*%
G36*
X65573Y51427D02*
X65451Y50815D01*
X64185Y49549D01*
X63500Y47895D01*
Y46105D01*
X64185Y44451D01*
X65451Y43185D01*
X67105Y42500D01*
X68895D01*
X70549Y43185D01*
X71815Y44451D01*
X72427Y44573D01*
X87000Y30000D01*
Y-40000D01*
X58000Y-69000D01*
X12884D01*
X-1558Y-54558D01*
X-2220Y-54116D01*
X-3000Y-53961D01*
X-33155D01*
X-38788Y-48328D01*
X-39450Y-47886D01*
X-40230Y-47731D01*
X-41010Y-47886D01*
X-41675Y-48162D01*
X-42185Y-46931D01*
X-43451Y-45665D01*
X-44682Y-45155D01*
X-44406Y-44490D01*
X-44251Y-43710D01*
X-44406Y-42930D01*
X-44848Y-42268D01*
X-59772Y-27345D01*
Y-19329D01*
X-59927Y-18548D01*
X-60369Y-17887D01*
X-60369Y-17887D01*
X-63407Y-14848D01*
X-64069Y-14406D01*
X-64849Y-14251D01*
X-66000D01*
Y5636D01*
X-65185Y6451D01*
X-64500Y8105D01*
Y9895D01*
X-65185Y11549D01*
X-66000Y12364D01*
Y47000D01*
X-34507Y78493D01*
X-33334Y78007D01*
Y63589D01*
X-33080Y62313D01*
X-32357Y61231D01*
X-31677Y60551D01*
X-31975Y59053D01*
X-32549Y58815D01*
X-33815Y57549D01*
X-34500Y55895D01*
Y54105D01*
X-33815Y52451D01*
X-33488Y52124D01*
X-33549Y51815D01*
X-34815Y50549D01*
X-35500Y48895D01*
Y47105D01*
X-34815Y45451D01*
X-33549Y44185D01*
X-31895Y43500D01*
X-30105D01*
X-28451Y44185D01*
X-27185Y45451D01*
X-26500Y47105D01*
Y48895D01*
X-27185Y50549D01*
X-27512Y50876D01*
X-27451Y51185D01*
X-26185Y52451D01*
X-24932Y52157D01*
X-24549Y51774D01*
X-22895Y51089D01*
X-21105D01*
X-19451Y51774D01*
X-18185Y53040D01*
X-17500Y54694D01*
Y56484D01*
X-18185Y58138D01*
X-19451Y59404D01*
X-21105Y60089D01*
X-21785D01*
X-26666Y64970D01*
Y86334D01*
X-25000Y88000D01*
X29000D01*
X65573Y51427D01*
D02*
G37*
G36*
X-61811Y-19329D02*
Y-28189D01*
X-46290Y-43710D01*
X-46816Y-44980D01*
X-46895D01*
X-48549Y-45665D01*
X-49815Y-46931D01*
X-50500Y-48585D01*
Y-50375D01*
X-49815Y-52029D01*
X-48549Y-53295D01*
X-46895Y-53980D01*
X-45105D01*
X-43451Y-53295D01*
X-42185Y-52029D01*
X-41500Y-50375D01*
Y-50296D01*
X-40230Y-49770D01*
X-34000Y-56000D01*
X-3000D01*
X16928Y-75928D01*
X17185Y-76549D01*
X18451Y-77815D01*
X19072Y-78072D01*
X30039Y-89039D01*
Y-105845D01*
X11673Y-124211D01*
X11400Y-124137D01*
X10500Y-123588D01*
Y-122105D01*
X9815Y-120451D01*
X8549Y-119185D01*
X6895Y-118500D01*
X5105D01*
X3451Y-119185D01*
X2185Y-120451D01*
X1500Y-122105D01*
Y-123895D01*
X1537Y-123983D01*
X831Y-125039D01*
X-831D01*
X-1537Y-123983D01*
X-1500Y-123895D01*
Y-122105D01*
X-2185Y-120451D01*
X-3451Y-119185D01*
X-5105Y-118500D01*
X-6895D01*
X-8549Y-119185D01*
X-9815Y-120451D01*
X-10500Y-122105D01*
Y-123895D01*
X-10464Y-123983D01*
X-11169Y-125039D01*
X-67155D01*
X-80000Y-137884D01*
X-90000D01*
X-93000Y-134884D01*
Y-78000D01*
X-74819Y-59819D01*
Y-22358D01*
X-68751Y-16290D01*
X-64849D01*
X-61811Y-19329D01*
D02*
G37*
G36*
X-26509Y162961D02*
X-26023Y161788D01*
X-32357Y155453D01*
X-33080Y154371D01*
X-33334Y153096D01*
Y129399D01*
X-34604Y129146D01*
X-35185Y130549D01*
X-36451Y131815D01*
X-38105Y132500D01*
X-39895D01*
X-41549Y131815D01*
X-42815Y130549D01*
X-43500Y128895D01*
Y127105D01*
X-42815Y125451D01*
X-41549Y124185D01*
X-39895Y123500D01*
X-38105D01*
X-36451Y124185D01*
X-35185Y125451D01*
X-34604Y126854D01*
X-33334Y126601D01*
Y81525D01*
X-34507Y80532D01*
X-35288Y80377D01*
X-35949Y79935D01*
X-35949Y79935D01*
X-67442Y48442D01*
X-67884Y47780D01*
X-68039Y47000D01*
Y12364D01*
X-68039Y12364D01*
X-67884Y11584D01*
X-67442Y10922D01*
X-66914Y10394D01*
X-66539Y9489D01*
Y8511D01*
X-66914Y7606D01*
X-67442Y7078D01*
X-67884Y6416D01*
X-68039Y5636D01*
Y-14251D01*
X-68751D01*
X-69531Y-14406D01*
X-70193Y-14848D01*
X-70193Y-14848D01*
X-76261Y-20916D01*
X-76703Y-21577D01*
X-76858Y-22358D01*
Y-58974D01*
X-94442Y-76558D01*
X-94884Y-77220D01*
X-95039Y-78000D01*
Y-134884D01*
X-94884Y-135664D01*
X-94442Y-136326D01*
X-94442Y-136326D01*
X-91442Y-139326D01*
X-90780Y-139768D01*
X-90000Y-139923D01*
X-80000D01*
X-80000Y-139923D01*
X-79220Y-139768D01*
X-78558Y-139326D01*
X-66311Y-127078D01*
X-11169D01*
X-10972Y-127039D01*
X-10771D01*
X-10586Y-126962D01*
X-10389Y-126923D01*
X-10222Y-126812D01*
X-10036Y-126735D01*
X-9894Y-126593D01*
X-9727Y-126481D01*
X-8549Y-126815D01*
X-6895Y-127500D01*
X-5105D01*
X-3451Y-126815D01*
X-2273Y-126481D01*
X-2106Y-126593D01*
X-1964Y-126735D01*
X-1778Y-126812D01*
X-1611Y-126923D01*
X-1414Y-126962D01*
X-1229Y-127039D01*
X-1028D01*
X-831Y-127078D01*
X831D01*
X1028Y-127039D01*
X1229D01*
X1414Y-126962D01*
X1611Y-126923D01*
X1778Y-126812D01*
X1964Y-126735D01*
X2106Y-126593D01*
X2273Y-126481D01*
X3451Y-126815D01*
X5105Y-127500D01*
X6895D01*
X8549Y-126815D01*
X9809Y-125555D01*
X10338Y-125878D01*
X10610Y-125978D01*
X10870Y-126106D01*
X11144Y-126180D01*
X11411Y-126198D01*
X11673Y-126250D01*
X11804Y-126224D01*
X11938Y-126233D01*
X12191Y-126147D01*
X12454Y-126095D01*
X12565Y-126020D01*
X12691Y-125977D01*
X12893Y-125801D01*
X13115Y-125653D01*
X31481Y-107287D01*
X31923Y-106625D01*
X32078Y-105845D01*
Y-89039D01*
X32078Y-89039D01*
X31923Y-88259D01*
X31481Y-87597D01*
X31481Y-87597D01*
X23049Y-79165D01*
X23297Y-77920D01*
X23549Y-77815D01*
X24815Y-76549D01*
X25500Y-74895D01*
Y-73105D01*
X25170Y-72309D01*
X26019Y-71039D01*
X58000D01*
X58000Y-71039D01*
X58780Y-70884D01*
X59442Y-70442D01*
X88442Y-41442D01*
X88884Y-40780D01*
X89039Y-40000D01*
Y-12019D01*
X90309Y-11170D01*
X91105Y-11500D01*
X92895D01*
X94549Y-10815D01*
X95815Y-9549D01*
X97262Y-9151D01*
X98105Y-9500D01*
X99895D01*
X101549Y-8815D01*
X102815Y-7549D01*
X103500Y-5895D01*
Y-4105D01*
X102815Y-2451D01*
X101549Y-1185D01*
X99895Y-500D01*
X98105D01*
X96451Y-1185D01*
X95185Y-2451D01*
X93737Y-2849D01*
X92895Y-2500D01*
X91105D01*
X90309Y-2830D01*
X89039Y-1981D01*
Y30000D01*
X89039Y30000D01*
X88884Y30780D01*
X88442Y31442D01*
X88442Y31442D01*
X73869Y46015D01*
X73702Y46126D01*
X73560Y46268D01*
X73375Y46345D01*
X73208Y46457D01*
X73011Y46496D01*
X72825Y46573D01*
X72500Y47791D01*
Y47895D01*
X71815Y49549D01*
X70549Y50815D01*
X68895Y51500D01*
X68791D01*
X67573Y51825D01*
X67496Y52011D01*
X67457Y52208D01*
X67345Y52375D01*
X67268Y52560D01*
X67126Y52702D01*
X67015Y52869D01*
X30442Y89442D01*
X29780Y89884D01*
X29000Y90039D01*
X-25000D01*
X-25396Y89960D01*
X-26419Y90559D01*
X-26666Y90820D01*
Y123601D01*
X-25396Y123854D01*
X-24815Y122451D01*
X-23549Y121185D01*
X-21895Y120500D01*
X-20105D01*
X-18451Y121185D01*
X-17958Y121678D01*
X-16815Y121451D01*
X-15549Y120185D01*
X-13895Y119500D01*
X-12105D01*
X-10451Y120185D01*
X-9185Y121451D01*
X-8500Y123105D01*
Y124895D01*
X-9185Y126549D01*
X-10451Y127815D01*
X-12105Y128500D01*
X-13895D01*
X-15549Y127815D01*
X-16042Y127322D01*
X-17185Y127549D01*
X-18451Y128815D01*
X-20105Y129500D01*
X-21895D01*
X-23549Y128815D01*
X-24815Y127549D01*
X-25396Y126146D01*
X-26666Y126399D01*
Y136301D01*
X-25396Y136642D01*
X-24651Y135352D01*
X-23348Y134049D01*
X-21752Y133127D01*
X-19972Y132650D01*
X-18128D01*
X-16348Y133127D01*
X-14752Y134049D01*
X-13449Y135352D01*
X-13335Y135549D01*
X-12065D01*
X-11951Y135352D01*
X-10648Y134049D01*
X-9052Y133127D01*
X-7272Y132650D01*
X-5428D01*
X-3648Y133127D01*
X-2052Y134049D01*
X-749Y135352D01*
X-635Y135549D01*
X635D01*
X749Y135352D01*
X2052Y134049D01*
X3648Y133127D01*
X5428Y132650D01*
X7272D01*
X9052Y133127D01*
X10648Y134049D01*
X11951Y135352D01*
X12065Y135549D01*
X13335D01*
X13449Y135352D01*
X14752Y134049D01*
X16348Y133127D01*
X18128Y132650D01*
X19972D01*
X21752Y133127D01*
X23348Y134049D01*
X24651Y135352D01*
X25573Y136948D01*
X26050Y138728D01*
Y140572D01*
X25573Y142352D01*
X24651Y143948D01*
X23348Y145251D01*
X23151Y145365D01*
Y146635D01*
X23348Y146749D01*
X24651Y148052D01*
X25573Y149648D01*
X26050Y151428D01*
Y153272D01*
X25573Y155052D01*
X24651Y156648D01*
X23348Y157951D01*
X21752Y158873D01*
X19972Y159350D01*
X18128D01*
X16348Y158873D01*
X14752Y157951D01*
X13449Y156648D01*
X13335Y156451D01*
X12065D01*
X11951Y156648D01*
X10648Y157951D01*
X9052Y158873D01*
X7272Y159350D01*
X5428D01*
X4353Y159062D01*
X1628Y161788D01*
X2113Y162961D01*
X130000D01*
X132160D01*
X136444Y162397D01*
X140618Y161279D01*
X144610Y159625D01*
X148351Y157465D01*
X151779Y154834D01*
X154834Y151779D01*
X157465Y148351D01*
X159625Y144610D01*
X161279Y140618D01*
X162397Y136444D01*
X162961Y132160D01*
X162961Y130000D01*
X162961Y-130000D01*
X162961Y-132160D01*
X162397Y-136444D01*
X161279Y-140618D01*
X159625Y-144609D01*
X157465Y-148351D01*
X154834Y-151779D01*
X151779Y-154834D01*
X148351Y-157465D01*
X144610Y-159625D01*
X140618Y-161279D01*
X136444Y-162397D01*
X132160Y-162961D01*
X130000D01*
X14813D01*
X14327Y-161788D01*
X17053Y-159062D01*
X18128Y-159350D01*
X19972D01*
X21752Y-158873D01*
X23348Y-157951D01*
X24651Y-156648D01*
X25573Y-155052D01*
X26050Y-153272D01*
Y-151428D01*
X25573Y-149648D01*
X24651Y-148052D01*
X23348Y-146749D01*
X23151Y-146635D01*
Y-145365D01*
X23348Y-145251D01*
X24651Y-143948D01*
X25573Y-142352D01*
X26050Y-140572D01*
Y-138728D01*
X25573Y-136948D01*
X24651Y-135352D01*
X23348Y-134049D01*
X21752Y-133127D01*
X19972Y-132650D01*
X18128D01*
X16348Y-133127D01*
X14752Y-134049D01*
X13449Y-135352D01*
X13335Y-135549D01*
X12065D01*
X11951Y-135352D01*
X10648Y-134049D01*
X9052Y-133127D01*
X7272Y-132650D01*
X5428D01*
X3648Y-133127D01*
X2052Y-134049D01*
X749Y-135352D01*
X635Y-135549D01*
X-635D01*
X-749Y-135352D01*
X-2052Y-134049D01*
X-3648Y-133127D01*
X-5428Y-132650D01*
X-7272D01*
X-9052Y-133127D01*
X-10648Y-134049D01*
X-11951Y-135352D01*
X-12065Y-135549D01*
X-13335D01*
X-13449Y-135352D01*
X-14752Y-134049D01*
X-16348Y-133127D01*
X-18128Y-132650D01*
X-19972D01*
X-21752Y-133127D01*
X-23348Y-134049D01*
X-24651Y-135352D01*
X-25573Y-136948D01*
X-26050Y-138728D01*
Y-140572D01*
X-25573Y-142352D01*
X-24651Y-143948D01*
X-23348Y-145251D01*
X-23151Y-145365D01*
Y-146635D01*
X-23348Y-146749D01*
X-24651Y-148052D01*
X-25573Y-149648D01*
X-26050Y-151428D01*
Y-153272D01*
X-25573Y-155052D01*
X-24651Y-156648D01*
X-23348Y-157951D01*
X-21752Y-158873D01*
X-19972Y-159350D01*
X-18128D01*
X-17053Y-159062D01*
X-14327Y-161788D01*
X-14813Y-162961D01*
X-130000D01*
X-132160D01*
X-136444Y-162397D01*
X-140618Y-161279D01*
X-144610Y-159625D01*
X-148351Y-157465D01*
X-151779Y-154835D01*
X-154834Y-151779D01*
X-157465Y-148351D01*
X-159625Y-144610D01*
X-161279Y-140618D01*
X-162397Y-136444D01*
X-162961Y-132160D01*
X-162961Y-130000D01*
X-162961Y130000D01*
Y132160D01*
X-162397Y136444D01*
X-161279Y140618D01*
X-159625Y144610D01*
X-157465Y148351D01*
X-154835Y151779D01*
X-151779Y154834D01*
X-148351Y157465D01*
X-144610Y159625D01*
X-140618Y161279D01*
X-136444Y162397D01*
X-132160Y162961D01*
X-130000Y162961D01*
X-26509D01*
D02*
G37*
%LPC*%
G36*
X3895Y86500D02*
X2105D01*
X451Y85815D01*
X-815Y84549D01*
X-1500Y82895D01*
Y81105D01*
X-815Y79451D01*
X451Y78185D01*
X2105Y77500D01*
X3895D01*
X5549Y78185D01*
X6815Y79451D01*
X7500Y81105D01*
Y82895D01*
X6815Y84549D01*
X5549Y85815D01*
X3895Y86500D01*
D02*
G37*
G36*
X9895Y70365D02*
X8105D01*
X6451Y69680D01*
X5185Y68414D01*
X4500Y66760D01*
Y65660D01*
X4180Y65375D01*
X3241Y64942D01*
X1895Y65500D01*
X105D01*
X-1549Y64815D01*
X-2815Y63549D01*
X-3500Y61895D01*
Y60105D01*
X-2815Y58451D01*
X-1549Y57185D01*
X105Y56500D01*
X1895D01*
X3549Y57185D01*
X4815Y58451D01*
X5500Y60105D01*
Y61205D01*
X5820Y61490D01*
X6759Y61923D01*
X8105Y61365D01*
X9895D01*
X11549Y62050D01*
X12815Y63316D01*
X13500Y64970D01*
Y66760D01*
X12815Y68414D01*
X11549Y69680D01*
X9895Y70365D01*
D02*
G37*
G36*
X47895Y61500D02*
X46105D01*
X44451Y60815D01*
X43185Y59549D01*
X42500Y57895D01*
Y56105D01*
X43185Y54451D01*
X44451Y53185D01*
X46105Y52500D01*
X47895D01*
X49549Y53185D01*
X50815Y54451D01*
X51500Y56105D01*
Y57895D01*
X50815Y59549D01*
X49549Y60815D01*
X47895Y61500D01*
D02*
G37*
G36*
X26769Y52987D02*
X24979D01*
X23325Y52302D01*
X22059Y51036D01*
X21374Y49382D01*
Y47592D01*
X22059Y45938D01*
X23325Y44672D01*
X24979Y43987D01*
X26769D01*
X28423Y44672D01*
X29192Y45441D01*
X30316Y44316D01*
X31970Y43631D01*
X33760D01*
X35414Y44316D01*
X36680Y45582D01*
X37365Y47236D01*
Y49026D01*
X36680Y50680D01*
X35414Y51946D01*
X33760Y52631D01*
X31970D01*
X30316Y51946D01*
X29548Y51178D01*
X28423Y52302D01*
X26769Y52987D01*
D02*
G37*
G36*
X895Y38500D02*
X-895D01*
X-2549Y37815D01*
X-3815Y36549D01*
X-4500Y34895D01*
Y33105D01*
X-3815Y31451D01*
X-2549Y30185D01*
X-895Y29500D01*
X895D01*
X2549Y30185D01*
X3815Y31451D01*
X4500Y33105D01*
Y34895D01*
X3815Y36549D01*
X2549Y37815D01*
X895Y38500D01*
D02*
G37*
G36*
X60430Y35518D02*
X58640D01*
X56986Y34833D01*
X55720Y33567D01*
X55035Y31913D01*
Y30123D01*
X55720Y28469D01*
X56986Y27203D01*
X58640Y26518D01*
X60212D01*
Y24976D01*
X60897Y23322D01*
X62163Y22056D01*
X63817Y21371D01*
X65607D01*
X67261Y22056D01*
X68527Y23322D01*
X69212Y24976D01*
Y26766D01*
X68527Y28420D01*
X67261Y29686D01*
X65607Y30371D01*
X64035D01*
Y31913D01*
X63350Y33567D01*
X62084Y34833D01*
X60430Y35518D01*
D02*
G37*
G36*
X-55117Y28912D02*
X-56907D01*
X-58561Y28227D01*
X-59827Y26961D01*
X-60512Y25307D01*
Y23517D01*
X-59827Y21863D01*
X-58561Y20597D01*
X-56907Y19912D01*
X-55117D01*
X-53463Y20597D01*
X-52197Y21863D01*
X-51512Y23517D01*
Y25307D01*
X-52197Y26961D01*
X-53463Y28227D01*
X-55117Y28912D01*
D02*
G37*
G36*
X-18105Y21500D02*
X-19895D01*
X-21549Y20815D01*
X-22815Y19549D01*
X-23500Y17895D01*
Y16105D01*
X-22815Y14451D01*
X-21549Y13185D01*
X-19895Y12500D01*
X-18105D01*
X-16451Y13185D01*
X-15185Y14451D01*
X-14500Y16105D01*
Y17895D01*
X-15185Y19549D01*
X-16451Y20815D01*
X-18105Y21500D01*
D02*
G37*
G36*
X72895Y3500D02*
X71105D01*
X69451Y2815D01*
X68185Y1549D01*
X67500Y-105D01*
Y-1461D01*
X67500Y-1895D01*
X66327Y-2361D01*
X65950Y-1451D01*
X64684Y-185D01*
X63030Y500D01*
X61240D01*
X59586Y-185D01*
X58320Y-1451D01*
X57635Y-3105D01*
Y-4895D01*
X58320Y-6549D01*
X59586Y-7815D01*
X61240Y-8500D01*
X63030D01*
X64684Y-7815D01*
X65950Y-6549D01*
X66635Y-4895D01*
Y-3539D01*
X66635Y-3105D01*
X67808Y-2639D01*
X68185Y-3549D01*
X69451Y-4815D01*
X71105Y-5500D01*
X72895D01*
X74549Y-4815D01*
X75815Y-3549D01*
X76500Y-1895D01*
Y-105D01*
X75815Y1549D01*
X74549Y2815D01*
X72895Y3500D01*
D02*
G37*
G36*
X34895Y4500D02*
X33105D01*
X31451Y3815D01*
X30185Y2549D01*
X29500Y895D01*
Y-895D01*
X30185Y-2549D01*
X31451Y-3815D01*
X33105Y-4500D01*
X34895D01*
X36549Y-3815D01*
X37815Y-2549D01*
X38500Y-895D01*
Y895D01*
X37815Y2549D01*
X36549Y3815D01*
X34895Y4500D01*
D02*
G37*
G36*
X18895D02*
X17105D01*
X15451Y3815D01*
X14185Y2549D01*
X13500Y895D01*
Y-895D01*
X14185Y-2549D01*
X15451Y-3815D01*
X17105Y-4500D01*
X18895D01*
X20549Y-3815D01*
X21815Y-2549D01*
X22500Y-895D01*
Y895D01*
X21815Y2549D01*
X20549Y3815D01*
X18895Y4500D01*
D02*
G37*
G36*
X895D02*
X-895D01*
X-2549Y3815D01*
X-3815Y2549D01*
X-4500Y895D01*
Y-895D01*
X-3815Y-2549D01*
X-2549Y-3815D01*
X-895Y-4500D01*
X895D01*
X2549Y-3815D01*
X3815Y-2549D01*
X4500Y-895D01*
Y895D01*
X3815Y2549D01*
X2549Y3815D01*
X895Y4500D01*
D02*
G37*
G36*
X-16105D02*
X-17895D01*
X-19549Y3815D01*
X-20815Y2549D01*
X-21500Y895D01*
Y-895D01*
X-20815Y-2549D01*
X-19549Y-3815D01*
X-17895Y-4500D01*
X-16105D01*
X-14451Y-3815D01*
X-13185Y-2549D01*
X-12500Y-895D01*
Y895D01*
X-13185Y2549D01*
X-14451Y3815D01*
X-16105Y4500D01*
D02*
G37*
G36*
X-32105D02*
X-33895D01*
X-35549Y3815D01*
X-36815Y2549D01*
X-37500Y895D01*
Y-895D01*
X-36815Y-2549D01*
X-35549Y-3815D01*
X-33895Y-4500D01*
X-32105D01*
X-30451Y-3815D01*
X-29185Y-2549D01*
X-28500Y-895D01*
Y895D01*
X-29185Y2549D01*
X-30451Y3815D01*
X-32105Y4500D01*
D02*
G37*
G36*
X25895Y-4500D02*
X24105D01*
X22451Y-5185D01*
X21185Y-6451D01*
X20500Y-8105D01*
Y-9895D01*
X21185Y-11549D01*
X22451Y-12815D01*
X24105Y-13500D01*
X25895D01*
X27549Y-12815D01*
X28815Y-11549D01*
X29500Y-9895D01*
Y-8105D01*
X28815Y-6451D01*
X27549Y-5185D01*
X25895Y-4500D01*
D02*
G37*
G36*
X-23105Y-4980D02*
X-24895D01*
X-26549Y-5665D01*
X-27815Y-6931D01*
X-28500Y-8585D01*
Y-10375D01*
X-27815Y-12029D01*
X-26549Y-13295D01*
X-24895Y-13980D01*
X-23105D01*
X-21451Y-13295D01*
X-20185Y-12029D01*
X-19500Y-10375D01*
Y-8585D01*
X-20185Y-6931D01*
X-21451Y-5665D01*
X-23105Y-4980D01*
D02*
G37*
G36*
X11895Y-22500D02*
X10105D01*
X8451Y-23185D01*
X7185Y-24451D01*
X6500Y-26105D01*
Y-27895D01*
X7185Y-29549D01*
X8451Y-30815D01*
X10105Y-31500D01*
X11895D01*
X13549Y-30815D01*
X14815Y-29549D01*
X15500Y-27895D01*
Y-26105D01*
X14815Y-24451D01*
X13549Y-23185D01*
X11895Y-22500D01*
D02*
G37*
G36*
X-45994Y-26611D02*
X-47784D01*
X-49438Y-27296D01*
X-50704Y-28562D01*
X-51389Y-30216D01*
Y-32006D01*
X-50704Y-33660D01*
X-49438Y-34926D01*
X-47784Y-35611D01*
X-45994D01*
X-44340Y-34926D01*
X-43074Y-33660D01*
X-42389Y-32006D01*
Y-30216D01*
X-43074Y-28562D01*
X-44340Y-27296D01*
X-45994Y-26611D01*
D02*
G37*
G36*
X895Y-28500D02*
X-895D01*
X-2549Y-29185D01*
X-3815Y-30451D01*
X-4500Y-32105D01*
Y-33895D01*
X-3815Y-35549D01*
X-2549Y-36815D01*
X-895Y-37500D01*
X895D01*
X2549Y-36815D01*
X3815Y-35549D01*
X4500Y-33895D01*
Y-32105D01*
X3815Y-30451D01*
X2549Y-29185D01*
X895Y-28500D01*
D02*
G37*
G36*
X72764Y-20631D02*
X70974D01*
X69320Y-21316D01*
X68054Y-22582D01*
X67369Y-24236D01*
Y-26026D01*
X67902Y-27314D01*
X67985Y-27795D01*
X67379Y-28801D01*
X66451Y-29185D01*
X65185Y-30451D01*
X64500Y-32105D01*
Y-33895D01*
X63445Y-34666D01*
X62586Y-35021D01*
X61320Y-36287D01*
X60635Y-37941D01*
Y-39731D01*
X61320Y-41385D01*
X62586Y-42651D01*
X64240Y-43336D01*
X66030D01*
X67684Y-42651D01*
X68950Y-41385D01*
X69635Y-39731D01*
Y-37941D01*
X70690Y-37171D01*
X71549Y-36815D01*
X72815Y-35549D01*
X73500Y-33895D01*
Y-32105D01*
X72967Y-30817D01*
X72884Y-30336D01*
X73490Y-29330D01*
X74418Y-28946D01*
X75684Y-27680D01*
X76369Y-26026D01*
Y-24236D01*
X75684Y-22582D01*
X74418Y-21316D01*
X72764Y-20631D01*
D02*
G37*
G36*
X-35075Y-37247D02*
X-36865D01*
X-38519Y-37932D01*
X-39785Y-39198D01*
X-40470Y-40852D01*
Y-42642D01*
X-39785Y-44296D01*
X-38519Y-45562D01*
X-36865Y-46247D01*
X-35075D01*
X-33421Y-45562D01*
X-32155Y-44296D01*
X-31470Y-42642D01*
Y-40852D01*
X-32155Y-39198D01*
X-33421Y-37932D01*
X-35075Y-37247D01*
D02*
G37*
G36*
X56760Y-49095D02*
X54970D01*
X53316Y-49780D01*
X52050Y-51046D01*
X51365Y-52700D01*
Y-54490D01*
X52050Y-56144D01*
X53001Y-57095D01*
X52050Y-58046D01*
X51365Y-59700D01*
Y-61490D01*
X52050Y-63144D01*
X53316Y-64410D01*
X54970Y-65095D01*
X56760D01*
X58414Y-64410D01*
X59680Y-63144D01*
X60365Y-61490D01*
Y-59700D01*
X59680Y-58046D01*
X58729Y-57095D01*
X59680Y-56144D01*
X60365Y-54490D01*
Y-52700D01*
X59680Y-51046D01*
X58414Y-49780D01*
X56760Y-49095D01*
D02*
G37*
G36*
X32895Y-56500D02*
X31105D01*
X29451Y-57185D01*
X28185Y-58451D01*
X27500Y-60105D01*
Y-61895D01*
X28185Y-63549D01*
X29451Y-64815D01*
X31105Y-65500D01*
X32895D01*
X34549Y-64815D01*
X35815Y-63549D01*
X36500Y-61895D01*
Y-60105D01*
X35815Y-58451D01*
X34549Y-57185D01*
X32895Y-56500D01*
D02*
G37*
G36*
X-22105Y-57500D02*
X-23895D01*
X-25549Y-58185D01*
X-26815Y-59451D01*
X-27500Y-61105D01*
Y-62895D01*
X-26815Y-64549D01*
X-25549Y-65815D01*
X-23895Y-66500D01*
X-22105D01*
X-20451Y-65815D01*
X-19185Y-64549D01*
X-18500Y-62895D01*
Y-61105D01*
X-19185Y-59451D01*
X-20451Y-58185D01*
X-22105Y-57500D01*
D02*
G37*
G36*
X-65651Y-60954D02*
X-67441D01*
X-69095Y-61639D01*
X-70361Y-62905D01*
X-71046Y-64559D01*
Y-66349D01*
X-70361Y-68003D01*
X-69095Y-69269D01*
X-67441Y-69954D01*
X-65651D01*
X-63997Y-69269D01*
X-62731Y-68003D01*
X-62046Y-66349D01*
Y-64559D01*
X-62731Y-62905D01*
X-63997Y-61639D01*
X-65651Y-60954D01*
D02*
G37*
G36*
X-34705Y-62500D02*
X-36495D01*
X-38149Y-63185D01*
X-39415Y-64451D01*
X-40100Y-66105D01*
Y-67895D01*
X-39415Y-69549D01*
X-38149Y-70815D01*
X-36495Y-71500D01*
X-34705D01*
X-33051Y-70815D01*
X-31785Y-69549D01*
X-31100Y-67895D01*
Y-66105D01*
X-31785Y-64451D01*
X-33051Y-63185D01*
X-34705Y-62500D01*
D02*
G37*
G36*
X4895Y-78000D02*
X3105D01*
X1451Y-78685D01*
X185Y-79951D01*
X-500Y-81605D01*
Y-83395D01*
X185Y-85049D01*
X1451Y-86315D01*
X3105Y-87000D01*
X4895D01*
X6549Y-86315D01*
X7815Y-85049D01*
X8500Y-83395D01*
Y-81605D01*
X7815Y-79951D01*
X6549Y-78685D01*
X4895Y-78000D01*
D02*
G37*
G36*
X-72105Y-78500D02*
X-73895D01*
X-75549Y-79185D01*
X-76815Y-80451D01*
X-77500Y-82105D01*
Y-83895D01*
X-76815Y-85549D01*
X-75549Y-86815D01*
X-73895Y-87500D01*
X-72105D01*
X-70451Y-86815D01*
X-69185Y-85549D01*
X-68500Y-83895D01*
Y-82105D01*
X-69185Y-80451D01*
X-70451Y-79185D01*
X-72105Y-78500D01*
D02*
G37*
G36*
X-30875Y-82900D02*
X-32665D01*
X-34319Y-83585D01*
X-35585Y-84851D01*
X-36270Y-86505D01*
Y-88295D01*
X-35585Y-89949D01*
X-34319Y-91215D01*
X-32665Y-91900D01*
X-30875D01*
X-29221Y-91215D01*
X-27955Y-89949D01*
X-27270Y-88295D01*
Y-86505D01*
X-27955Y-84851D01*
X-29221Y-83585D01*
X-30875Y-82900D01*
D02*
G37*
G36*
X-43105Y-89500D02*
X-44895D01*
X-46549Y-90185D01*
X-47815Y-91451D01*
X-48500Y-93105D01*
Y-94895D01*
X-47815Y-96549D01*
X-46549Y-97815D01*
X-44895Y-98500D01*
X-43105D01*
X-41451Y-97815D01*
X-40185Y-96549D01*
X-39500Y-94895D01*
Y-93105D01*
X-40185Y-91451D01*
X-41451Y-90185D01*
X-43105Y-89500D01*
D02*
G37*
G36*
X-36105Y-102135D02*
X-37895D01*
X-39549Y-102820D01*
X-40815Y-104086D01*
X-41500Y-105740D01*
Y-107530D01*
X-40815Y-109184D01*
X-39549Y-110450D01*
X-37895Y-111135D01*
X-36105D01*
X-34451Y-110450D01*
X-33185Y-109184D01*
X-32500Y-107530D01*
Y-105740D01*
X-33185Y-104086D01*
X-34451Y-102820D01*
X-36105Y-102135D01*
D02*
G37*
G36*
X98395Y132500D02*
X96605D01*
X94951Y131815D01*
X93685Y130549D01*
X93000Y128895D01*
Y127105D01*
X93685Y125451D01*
X94951Y124185D01*
X96605Y123500D01*
X98395D01*
X100049Y124185D01*
X101315Y125451D01*
X102000Y127105D01*
Y128895D01*
X101315Y130549D01*
X100049Y131815D01*
X98395Y132500D01*
D02*
G37*
G36*
X-88105Y131500D02*
X-89895D01*
X-91549Y130815D01*
X-92815Y129549D01*
X-93500Y127895D01*
Y126105D01*
X-92815Y124451D01*
X-91549Y123185D01*
X-89895Y122500D01*
X-88105D01*
X-86451Y123185D01*
X-85185Y124451D01*
X-84739Y125529D01*
X-84139Y125566D01*
X-83416Y125403D01*
X-82815Y123951D01*
X-81549Y122685D01*
X-79895Y122000D01*
X-78105D01*
X-76451Y122685D01*
X-75185Y123951D01*
X-74500Y125605D01*
Y127395D01*
X-75185Y129049D01*
X-76451Y130315D01*
X-78105Y131000D01*
X-79895D01*
X-81549Y130315D01*
X-82815Y129049D01*
X-83261Y127971D01*
X-83861Y127934D01*
X-84584Y128097D01*
X-85185Y129549D01*
X-86451Y130815D01*
X-88105Y131500D01*
D02*
G37*
G36*
X131712Y143000D02*
X128288D01*
X124982Y142114D01*
X122018Y140403D01*
X119597Y137982D01*
X117886Y135018D01*
X117000Y131712D01*
Y128288D01*
X117886Y124982D01*
X119597Y122018D01*
X122018Y119597D01*
X124982Y117886D01*
X128288Y117000D01*
X131712D01*
X135018Y117886D01*
X137982Y119597D01*
X140403Y122018D01*
X142114Y124982D01*
X143000Y128288D01*
Y131712D01*
X142114Y135018D01*
X140403Y137982D01*
X137982Y140403D01*
X135018Y142114D01*
X131712Y143000D01*
D02*
G37*
G36*
X-128288D02*
X-131712D01*
X-135018Y142114D01*
X-137982Y140403D01*
X-140403Y137982D01*
X-142114Y135018D01*
X-143000Y131712D01*
Y128288D01*
X-142114Y124982D01*
X-140403Y122018D01*
X-137982Y119597D01*
X-135018Y117886D01*
X-131712Y117000D01*
X-128288D01*
X-124982Y117886D01*
X-122018Y119597D01*
X-119597Y122018D01*
X-117886Y124982D01*
X-117000Y128288D01*
Y131712D01*
X-117886Y135018D01*
X-119597Y137982D01*
X-122018Y140403D01*
X-124982Y142114D01*
X-128288Y143000D01*
D02*
G37*
G36*
X-97105Y110500D02*
X-98895D01*
X-100549Y109815D01*
X-101815Y108549D01*
X-102500Y106895D01*
Y105105D01*
X-101815Y103451D01*
X-100549Y102185D01*
X-98895Y101500D01*
X-97105D01*
X-95451Y102185D01*
X-94185Y103451D01*
X-93500Y105105D01*
Y106895D01*
X-94185Y108549D01*
X-95451Y109815D01*
X-97105Y110500D01*
D02*
G37*
G36*
X60895Y98500D02*
X59105D01*
X57451Y97815D01*
X56185Y96549D01*
X55500Y94895D01*
Y93105D01*
X56185Y91451D01*
X57451Y90185D01*
X59105Y89500D01*
X60895D01*
X62549Y90185D01*
X63815Y91451D01*
X64500Y93105D01*
Y94895D01*
X63815Y96549D01*
X62549Y97815D01*
X60895Y98500D01*
D02*
G37*
G36*
X47895D02*
X46105D01*
X44451Y97815D01*
X43185Y96549D01*
X42500Y94895D01*
Y93105D01*
X43185Y91451D01*
X44451Y90185D01*
X46105Y89500D01*
X47895D01*
X49549Y90185D01*
X50815Y91451D01*
X51500Y93105D01*
Y94895D01*
X50815Y96549D01*
X49549Y97815D01*
X47895Y98500D01*
D02*
G37*
G36*
X-61105Y77500D02*
X-62895D01*
X-64549Y76815D01*
X-65815Y75549D01*
X-66500Y73895D01*
Y72105D01*
X-65815Y70451D01*
X-64549Y69185D01*
X-62895Y68500D01*
X-61105D01*
X-59451Y69185D01*
X-58185Y70451D01*
X-57500Y72105D01*
Y73895D01*
X-58185Y75549D01*
X-59451Y76815D01*
X-61105Y77500D01*
D02*
G37*
G36*
X-73105D02*
X-74895D01*
X-76549Y76815D01*
X-77815Y75549D01*
X-78500Y73895D01*
Y72105D01*
X-77815Y70451D01*
X-76549Y69185D01*
X-74895Y68500D01*
X-73105D01*
X-71451Y69185D01*
X-70185Y70451D01*
X-69500Y72105D01*
Y73895D01*
X-70185Y75549D01*
X-71451Y76815D01*
X-73105Y77500D01*
D02*
G37*
G36*
X-103105Y67500D02*
X-104895D01*
X-106549Y66815D01*
X-107815Y65549D01*
X-108279Y64428D01*
X-109619Y64053D01*
X-109700Y64064D01*
X-110451Y64815D01*
X-112105Y65500D01*
X-113895D01*
X-115549Y64815D01*
X-116815Y63549D01*
X-117500Y61895D01*
Y60105D01*
X-116815Y58451D01*
X-115549Y57185D01*
X-113895Y56500D01*
X-112105D01*
X-110451Y57185D01*
X-109185Y58451D01*
X-108721Y59572D01*
X-107381Y59947D01*
X-107300Y59936D01*
X-106549Y59185D01*
X-104895Y58500D01*
X-103105D01*
X-101451Y59185D01*
X-100185Y60451D01*
X-99500Y62105D01*
Y63895D01*
X-100185Y65549D01*
X-101451Y66815D01*
X-103105Y67500D01*
D02*
G37*
G36*
X-153105Y63500D02*
X-154895D01*
X-156549Y62815D01*
X-157815Y61549D01*
X-158500Y59895D01*
Y58105D01*
X-157815Y56451D01*
X-156549Y55185D01*
X-154895Y54500D01*
X-153105D01*
X-151451Y55185D01*
X-150185Y56451D01*
X-149500Y58105D01*
Y59895D01*
X-150185Y61549D01*
X-151451Y62815D01*
X-153105Y63500D01*
D02*
G37*
G36*
X89895Y45500D02*
X88105D01*
X86451Y44815D01*
X85185Y43549D01*
X84500Y41895D01*
Y40105D01*
X85185Y38451D01*
X86451Y37185D01*
X88105Y36500D01*
X89895D01*
X90500Y36096D01*
Y35105D01*
X91185Y33451D01*
X92451Y32185D01*
X94105Y31500D01*
X95895D01*
X97549Y32185D01*
X98815Y33451D01*
X99500Y35105D01*
Y36895D01*
X98815Y38549D01*
X97549Y39815D01*
X95895Y40500D01*
X94105D01*
X93500Y40904D01*
Y41895D01*
X92815Y43549D01*
X91549Y44815D01*
X89895Y45500D01*
D02*
G37*
G36*
X-102105Y25500D02*
X-103895D01*
X-105549Y24815D01*
X-106815Y23549D01*
X-107500Y21895D01*
Y20105D01*
X-106815Y18451D01*
X-105549Y17185D01*
X-103895Y16500D01*
X-102105D01*
X-100451Y17185D01*
X-99185Y18451D01*
X-98500Y20105D01*
Y21895D01*
X-99185Y23549D01*
X-100451Y24815D01*
X-102105Y25500D01*
D02*
G37*
G36*
X-130105Y25500D02*
X-131895D01*
X-133549Y24815D01*
X-134815Y23549D01*
X-135500Y21895D01*
Y20105D01*
X-134815Y18451D01*
X-133549Y17185D01*
X-131895Y16500D01*
X-130105D01*
X-128451Y17185D01*
X-127961Y17675D01*
X-126998Y18287D01*
X-126301Y17675D01*
X-125680Y17054D01*
X-124026Y16369D01*
X-122236D01*
X-120582Y17054D01*
X-119316Y18320D01*
X-118631Y19974D01*
Y21764D01*
X-119316Y23418D01*
X-120582Y24684D01*
X-122236Y25369D01*
X-124026D01*
X-125680Y24684D01*
X-126170Y24194D01*
X-127133Y23582D01*
X-127830Y24194D01*
X-128451Y24815D01*
X-130105Y25500D01*
D02*
G37*
G36*
X136895Y4500D02*
X135105D01*
X133451Y3815D01*
X132185Y2549D01*
X131500Y895D01*
Y-895D01*
X132185Y-2549D01*
X133451Y-3815D01*
X135105Y-4500D01*
X136895D01*
X138549Y-3815D01*
X139815Y-2549D01*
X140500Y-895D01*
Y895D01*
X139815Y2549D01*
X138549Y3815D01*
X136895Y4500D01*
D02*
G37*
G36*
X-97105Y-31500D02*
X-98895D01*
X-100549Y-32185D01*
X-101815Y-33451D01*
X-102500Y-35105D01*
Y-36895D01*
X-101815Y-38549D01*
X-100549Y-39815D01*
X-98895Y-40500D01*
X-97105D01*
X-95451Y-39815D01*
X-94185Y-38549D01*
X-93500Y-36895D01*
Y-35105D01*
X-94185Y-33451D01*
X-95451Y-32185D01*
X-97105Y-31500D01*
D02*
G37*
G36*
X129895Y-53500D02*
X128105D01*
X126451Y-54185D01*
X125185Y-55451D01*
X124500Y-57105D01*
Y-58895D01*
X125185Y-60549D01*
X126451Y-61815D01*
X128105Y-62500D01*
X129895D01*
X131549Y-61815D01*
X132815Y-60549D01*
X133500Y-58895D01*
Y-57105D01*
X132815Y-55451D01*
X131549Y-54185D01*
X129895Y-53500D01*
D02*
G37*
G36*
X-127855Y-54761D02*
X-129645D01*
X-131299Y-55446D01*
X-132565Y-56712D01*
X-133250Y-58366D01*
Y-60156D01*
X-132565Y-61810D01*
X-131299Y-63076D01*
X-129645Y-63761D01*
X-127855D01*
X-126201Y-63076D01*
X-124935Y-61810D01*
X-124250Y-60156D01*
Y-58366D01*
X-124935Y-56712D01*
X-126201Y-55446D01*
X-127855Y-54761D01*
D02*
G37*
G36*
X85895Y-58500D02*
X84105D01*
X82451Y-59185D01*
X81185Y-60451D01*
X80500Y-62105D01*
Y-63895D01*
X81185Y-65549D01*
X82451Y-66815D01*
X84105Y-67500D01*
X85895D01*
X87549Y-66815D01*
X88815Y-65549D01*
X89500Y-63895D01*
Y-62105D01*
X88815Y-60451D01*
X87549Y-59185D01*
X85895Y-58500D01*
D02*
G37*
G36*
X85618Y-69223D02*
X83827D01*
X82174Y-69908D01*
X80908Y-71174D01*
X80223Y-72828D01*
Y-74618D01*
X80908Y-76272D01*
X82174Y-77537D01*
X83827Y-78223D01*
X85618D01*
X87272Y-77537D01*
X88538Y-76272D01*
X89223Y-74618D01*
Y-72828D01*
X88538Y-71174D01*
X87272Y-69908D01*
X85618Y-69223D01*
D02*
G37*
G36*
X76374Y-99979D02*
X74584D01*
X72930Y-100664D01*
X71664Y-101930D01*
X71355Y-101991D01*
X70549Y-101185D01*
X68895Y-100500D01*
X67105D01*
X65451Y-101185D01*
X64185Y-102451D01*
X63500Y-104105D01*
Y-105895D01*
X64185Y-107549D01*
X65451Y-108815D01*
X67105Y-109500D01*
X68895D01*
X70549Y-108815D01*
X71815Y-107549D01*
X72124Y-107488D01*
X72930Y-108294D01*
X74584Y-108979D01*
X76374D01*
X78028Y-108294D01*
X79294Y-107028D01*
X79979Y-105374D01*
Y-103584D01*
X79294Y-101930D01*
X78028Y-100664D01*
X76374Y-99979D01*
D02*
G37*
G36*
X97250Y-110647D02*
X90750D01*
X88702Y-111055D01*
X86965Y-112215D01*
X85805Y-113952D01*
X85397Y-116000D01*
X85805Y-118048D01*
X86965Y-119785D01*
X88702Y-120945D01*
X90750Y-121353D01*
X97250D01*
X99298Y-120945D01*
X101035Y-119785D01*
X102195Y-118048D01*
X102603Y-116000D01*
X102195Y-113952D01*
X101035Y-112215D01*
X99298Y-111055D01*
X97250Y-110647D01*
D02*
G37*
G36*
X47250D02*
X40750D01*
X38702Y-111055D01*
X36965Y-112215D01*
X35805Y-113952D01*
X35397Y-116000D01*
X35805Y-118048D01*
X36965Y-119785D01*
X38702Y-120945D01*
X40750Y-121353D01*
X47250D01*
X49298Y-120945D01*
X51035Y-119785D01*
X52195Y-118048D01*
X52603Y-116000D01*
X52195Y-113952D01*
X51035Y-112215D01*
X49298Y-111055D01*
X47250Y-110647D01*
D02*
G37*
G36*
X63895Y-121040D02*
X62105D01*
X60451Y-121725D01*
X59270Y-122906D01*
X58549Y-122185D01*
X56895Y-121500D01*
X55105D01*
X53451Y-122185D01*
X52185Y-123451D01*
X51500Y-125105D01*
Y-126895D01*
X52185Y-128549D01*
X53451Y-129815D01*
X55105Y-130500D01*
X56895D01*
X58549Y-129815D01*
X59730Y-128634D01*
X60451Y-129355D01*
X62105Y-130040D01*
X63895D01*
X65549Y-129355D01*
X66815Y-128089D01*
X67500Y-126435D01*
Y-124645D01*
X66815Y-122991D01*
X65549Y-121725D01*
X63895Y-121040D01*
D02*
G37*
G36*
X131712Y-117000D02*
X128288D01*
X124982Y-117886D01*
X122018Y-119597D01*
X119597Y-122018D01*
X117886Y-124982D01*
X117000Y-128288D01*
Y-131712D01*
X117886Y-135018D01*
X119597Y-137982D01*
X122018Y-140403D01*
X124982Y-142114D01*
X128288Y-143000D01*
X131712D01*
X135018Y-142114D01*
X137982Y-140403D01*
X140403Y-137982D01*
X142114Y-135018D01*
X143000Y-131712D01*
Y-128288D01*
X142114Y-124982D01*
X140403Y-122018D01*
X137982Y-119597D01*
X135018Y-117886D01*
X131712Y-117000D01*
D02*
G37*
G36*
X-128288D02*
X-131712D01*
X-135018Y-117886D01*
X-137982Y-119597D01*
X-140403Y-122018D01*
X-142114Y-124982D01*
X-143000Y-128288D01*
Y-131712D01*
X-142114Y-135018D01*
X-140403Y-137982D01*
X-137982Y-140403D01*
X-135018Y-142114D01*
X-131712Y-143000D01*
X-128288D01*
X-124982Y-142114D01*
X-122018Y-140403D01*
X-119597Y-137982D01*
X-117886Y-135018D01*
X-117000Y-131712D01*
Y-128288D01*
X-117886Y-124982D01*
X-119597Y-122018D01*
X-122018Y-119597D01*
X-124982Y-117886D01*
X-128288Y-117000D01*
D02*
G37*
G36*
X104000Y-133135D02*
X101708Y-133591D01*
X99764Y-134889D01*
X98466Y-136833D01*
X98010Y-139125D01*
Y-146875D01*
X98466Y-149167D01*
X99764Y-151111D01*
X101708Y-152409D01*
X104000Y-152865D01*
X106292Y-152409D01*
X108236Y-151111D01*
X109534Y-149167D01*
X109990Y-146875D01*
Y-139125D01*
X109534Y-136833D01*
X108236Y-134889D01*
X106292Y-133591D01*
X104000Y-133135D01*
D02*
G37*
G36*
X34000D02*
X31708Y-133591D01*
X29764Y-134889D01*
X28466Y-136833D01*
X28010Y-139125D01*
Y-146875D01*
X28466Y-149167D01*
X29764Y-151111D01*
X31708Y-152409D01*
X34000Y-152865D01*
X36292Y-152409D01*
X38236Y-151111D01*
X39534Y-149167D01*
X39990Y-146875D01*
Y-139125D01*
X39534Y-136833D01*
X38236Y-134889D01*
X36292Y-133591D01*
X34000Y-133135D01*
D02*
G37*
%LPD*%
D65*
X-30000Y63589D02*
Y153096D01*
Y63589D02*
X-22000Y55589D01*
X10780Y-160620D02*
X19050Y-152350D01*
X-10780Y-160620D02*
X10780D01*
X-19050Y-152350D02*
X-10780Y-160620D01*
X-22476Y160620D02*
X-1920D01*
X6350Y152350D01*
X-30000Y153096D02*
X-22476Y160620D01*
D67*
X44000Y-116000D02*
D03*
X94000D02*
D03*
D68*
X34000Y-143000D02*
D03*
X104000D02*
D03*
D69*
X19050Y139650D02*
D03*
Y152350D02*
D03*
X6350Y139650D02*
D03*
X-6350D02*
D03*
X-19050D02*
D03*
X6350Y152350D02*
D03*
X-6350D02*
D03*
X-19050D02*
D03*
X19050Y-152350D02*
D03*
X6350D02*
D03*
X-6350D02*
D03*
X19050Y-139650D02*
D03*
X6350D02*
D03*
X-6350D02*
D03*
X-19050Y-152350D02*
D03*
Y-139650D02*
D03*
D70*
X130000Y-130000D02*
D03*
X-130000D02*
D03*
X130000Y130000D02*
D03*
X-130000D02*
D03*
D71*
X-113000Y61000D02*
D03*
X-103000Y21000D02*
D03*
X-123131Y20869D02*
D03*
X-131000Y21000D02*
D03*
X-154000Y59000D02*
D03*
X-13000Y124000D02*
D03*
X-66000Y-28000D02*
D03*
X-114000Y-34000D02*
D03*
X55865Y-60595D02*
D03*
Y-53595D02*
D03*
X25874Y48487D02*
D03*
X32865Y48131D02*
D03*
X62135Y-4000D02*
D03*
X-128750Y-59261D02*
D03*
X65135Y-38836D02*
D03*
X69000Y-33000D02*
D03*
X71869Y-25131D02*
D03*
X-79000Y126500D02*
D03*
X-89000Y127000D02*
D03*
X79000Y105000D02*
D03*
X59535Y31018D02*
D03*
Y38018D02*
D03*
X46288Y33066D02*
D03*
X47000Y57000D02*
D03*
X20135Y60000D02*
D03*
X9000Y65865D02*
D03*
X-22000Y55589D02*
D03*
X-84000Y12988D02*
D03*
Y7000D02*
D03*
X-71000Y-3000D02*
D03*
X-69000Y9000D02*
D03*
X130000Y-69000D02*
D03*
X104000Y-91000D02*
D03*
X68000Y-105000D02*
D03*
X75479Y-104479D02*
D03*
X-31770Y-87400D02*
D03*
X-32000Y-78000D02*
D03*
X-24000Y-9480D02*
D03*
X25000Y-9000D02*
D03*
X34000Y0D02*
D03*
X11000Y-27000D02*
D03*
X-19000Y17000D02*
D03*
X18000Y0D02*
D03*
X-17000D02*
D03*
X97500Y128000D02*
D03*
X-74000Y100400D02*
D03*
X47000Y94000D02*
D03*
X64712Y25871D02*
D03*
X95000Y36000D02*
D03*
X89000Y41000D02*
D03*
X99000Y-5000D02*
D03*
X-40889Y39111D02*
D03*
X-31000Y48000D02*
D03*
X-13000Y-84000D02*
D03*
X-98000Y106000D02*
D03*
Y-36000D02*
D03*
X-120000Y-34000D02*
D03*
X-71000Y-31000D02*
D03*
Y-25000D02*
D03*
X-37000Y-106635D02*
D03*
X-66546Y-65454D02*
D03*
X-73000Y-83000D02*
D03*
X84723Y-73723D02*
D03*
X21000Y-74000D02*
D03*
X32000Y-61000D02*
D03*
X85000Y-63000D02*
D03*
X129000Y-58000D02*
D03*
X-104000Y63000D02*
D03*
X-46889Y-31111D02*
D03*
X80000Y-18000D02*
D03*
X68000Y-14000D02*
D03*
X56000Y-126000D02*
D03*
X63000Y-125540D02*
D03*
X-21000Y125000D02*
D03*
X6000Y-123000D02*
D03*
X-6000D02*
D03*
X-46000Y-49480D02*
D03*
X68000Y47000D02*
D03*
X92000Y-7000D02*
D03*
X3000Y82000D02*
D03*
X136000Y0D02*
D03*
X-74000Y73000D02*
D03*
X-62000D02*
D03*
X-23000Y-62000D02*
D03*
X-39000Y128000D02*
D03*
X1000Y61000D02*
D03*
X72000Y-1000D02*
D03*
X-56012Y24412D02*
D03*
X46889Y-37889D02*
D03*
X-30000Y55000D02*
D03*
X60000Y94000D02*
D03*
X122000Y85000D02*
D03*
X116000D02*
D03*
X-35970Y-41747D02*
D03*
X-47000Y-62000D02*
D03*
X-44400Y-67000D02*
D03*
X-29889Y-48111D02*
D03*
X-57227Y-97226D02*
D03*
X23600Y-95500D02*
D03*
X7003Y-95753D02*
D03*
X0Y-33000D02*
D03*
X-18000Y81000D02*
D03*
Y73000D02*
D03*
X-10000D02*
D03*
Y81000D02*
D03*
X-49500Y105000D02*
D03*
X71530Y104625D02*
D03*
X63435D02*
D03*
X-49000Y45000D02*
D03*
X4000Y-82500D02*
D03*
X-33000Y0D02*
D03*
X0Y34000D02*
D03*
Y0D02*
D03*
X-44000Y-94000D02*
D03*
X-35600Y-67000D02*
D03*
M02*
