M48
;Layer_Color=9474304
;FILE_FORMAT=2:4
INCH,LZ
;TYPE=PLATED
T01F00S00C0.0118
T04F00S00C0.0256
T05F00S00C0.0866
%
T01
X002205Y-004961
X00248Y-004943
X002677Y-004134
X002972Y-004113
X003336Y-002902
X003346Y-00248
X002199Y-002386
Y-00211
X002564Y-001529
X002717Y-001299
X002829Y-000989
X002677Y-000551
X002446Y-000157
X002835Y-000039
X00315Y-000709
X003622Y-000276
X003898Y-000197
X005354Y0
X005079Y-002283
X005118Y-002717
X004094Y-003583
X000929Y-00376
X000276Y-00377
X000157Y-003248
X-000512Y-003307
X-001251Y-003441
X-00126Y-003071
X-001402Y-002638
X-001748
X-00185Y-002441
X-001811Y-001948
X-001177Y-001894
X-001416Y-001644
X-001846Y-001225
X-002598Y-001102
X-002795Y-00122
Y-000984
Y-000118
X-002717Y000354
X-003307Y000276
Y000511
X-004055Y000827
X-004848Y000822
X-005157Y000827
X-004449Y002402
X-004094Y00248
X-002913Y002874
X-002441
X-002913Y003953
X-001949Y004134
X-001535Y005039
X-000827Y004921
X-000512Y004882
X-000394Y003189
X-000709
Y002874
X-000394
X000118Y003228
X000354Y002593
X000039Y002402
X000793Y002362
X001019Y001909
X001294Y001895
X00185Y002244
X001822Y001302
X002344Y001221
Y001497
X002548Y001019
X002677Y00185
X003504Y001614
X00374Y001417
X004567Y003346
X004803
X00311Y004134
X002816Y004119
X002497
X002362Y003701
X00185
X003839Y005039
X-00311Y00498
X-003504Y005
X-003858Y004173
X-006063Y002323
X-001929Y001772
X-00161Y00154
X-00122Y00189
X-001181Y002165
X-000866Y002189
X-000748Y000669
X-000669Y0
X-001299
X-000945Y-000373
X0Y0
X000709
X000984Y-000354
X001339Y0
X000433Y-001063
X0Y-001299
X001846Y-001492
X00126Y-002402
X000827Y-002913
X-000906Y-002441
X-00262Y-002577
X-002874Y-003268
X-002253Y-003828
X-001732Y-003701
X-001457Y-004198
X-000236Y-004843
X000236
X0Y001339
X-002205Y000961
X-003858Y-001417
X-004488Y-001339
X-004724
X-005069Y-002333
T04
X-00075Y-005998
X-00025
X00025
X00075
Y-005498
X00025
X-00025
X-00075
Y005498
X-00025
X00025
X00075
Y005998
X00025
X-00025
X-00075
T05
X-005118Y-005118
X005118
Y005118
X-005118
M30
