G04*
G04 #@! TF.GenerationSoftware,Altium Limited,Altium Designer,24.4.1 (13)*
G04*
G04 Layer_Color=65535*
%FSLAX44Y44*%
%MOMM*%
G71*
G04*
G04 #@! TF.SameCoordinates,D346328A-3EA5-4E80-806F-D0F93F3E7631*
G04*
G04*
G04 #@! TF.FilePolarity,Positive*
G04*
G01*
G75*
%ADD10C,1.1500*%
%ADD11C,0.2000*%
%ADD12C,0.2500*%
%ADD13C,0.0500*%
%ADD14C,0.5000*%
%ADD15C,0.2540*%
%ADD16C,0.3000*%
%ADD17C,0.1500*%
%ADD18C,0.1270*%
%ADD19C,0.1000*%
%ADD20C,0.3500*%
%ADD21C,0.1530*%
%ADD22R,0.5500X0.6750*%
D10*
X-59000Y-0D02*
G03*
X-59000Y-0I-21000J0D01*
G01*
X21000Y-95000D02*
G03*
X21000Y-95000I-21000J0D01*
G01*
X101000Y-0D02*
G03*
X101000Y-0I-21000J0D01*
G01*
X21000Y95000D02*
G03*
X21000Y95000I-21000J0D01*
G01*
D11*
X294500Y78250D02*
G03*
X294500Y78250I-1000J0D01*
G01*
Y113250D02*
G03*
X294500Y113250I-1000J0D01*
G01*
X173750Y122850D02*
G03*
X173750Y122850I-1000J0D01*
G01*
X267250Y267500D02*
G03*
X267250Y267500I-1000J0D01*
G01*
X213450Y162150D02*
G03*
X213450Y162150I-1000J0D01*
G01*
D02*
G03*
X213450Y162150I-1000J0D01*
G01*
X123000Y297000D02*
G03*
X123000Y297000I-1000J0D01*
G01*
X-35320Y179240D02*
X-27700D01*
X-35320D02*
Y196075D01*
X-22700Y215050D02*
X22860D01*
X35320Y179240D02*
Y196075D01*
X27700Y179240D02*
X35320D01*
X332000Y82000D02*
X392000D01*
Y34000D02*
Y82000D01*
X332000Y34000D02*
X392000D01*
X332000D02*
Y82000D01*
X393500Y89750D02*
X399000D01*
X393500Y83000D02*
Y89750D01*
Y122250D02*
Y129000D01*
Y122250D02*
X399000D01*
X323000D02*
Y129000D01*
X399000Y122250D02*
Y129000D01*
X323000Y83000D02*
Y89750D01*
X399000Y83000D02*
Y89750D01*
X323000Y129000D02*
X399000D01*
X323000Y83000D02*
X399000D01*
X-104782Y211250D02*
Y217250D01*
X-61000D01*
Y211250D02*
Y217250D01*
X-104782Y192750D02*
X-61000D01*
Y198750D01*
X-104782Y192750D02*
Y198750D01*
X170000Y312250D02*
Y333750D01*
Y312250D02*
X254000D01*
Y333750D01*
X170000D02*
X254000D01*
X394870Y273700D02*
Y281320D01*
X424080D01*
X444400Y223140D02*
Y268620D01*
X394870Y210680D02*
X424080D01*
X394870D02*
Y218300D01*
X-120000Y247250D02*
Y268750D01*
Y247250D02*
X-56000D01*
Y268750D01*
X-120000D02*
X-56000D01*
X-201250Y-83500D02*
X-159750D01*
Y-16500D01*
X-201250D02*
X-159750D01*
X-201250Y-83500D02*
Y-16500D01*
Y216500D02*
X-159750D01*
Y283500D01*
X-201250D02*
X-159750D01*
X-201250Y216500D02*
Y283500D01*
X219000Y-161300D02*
Y-119300D01*
Y-161300D02*
X281000D01*
Y-119300D01*
X219000D02*
X281000D01*
X232505Y-195318D02*
Y-161318D01*
X247000Y-195300D02*
Y-161300D01*
X252000Y-195300D02*
Y-161300D01*
X267656Y-195373D02*
Y-161373D01*
X272656Y-195373D02*
Y-161373D01*
X272001Y-199300D02*
X272656Y-195373D01*
X268310Y-199300D02*
X272001D01*
X267656Y-195373D02*
X268310Y-199300D01*
X231841D02*
X232505Y-195318D01*
X228169Y-199300D02*
X231841D01*
X227505Y-195318D02*
Y-161318D01*
Y-195318D02*
X228169Y-199300D01*
X251333D02*
X252000Y-195300D01*
X247000Y-195300D02*
X247667Y-199300D01*
X251333D01*
X-81000Y-161300D02*
Y-119300D01*
Y-161300D02*
X-19000D01*
Y-119300D01*
X-81000D02*
X-19000D01*
X-67495Y-195318D02*
Y-161318D01*
X-53000Y-195300D02*
Y-161300D01*
X-48000Y-195300D02*
Y-161300D01*
X-32344Y-195373D02*
Y-161373D01*
X-27344Y-195373D02*
Y-161373D01*
X-27999Y-199300D02*
X-27344Y-195373D01*
X-31690Y-199300D02*
X-27999D01*
X-32344Y-195373D02*
X-31690Y-199300D01*
X-68159D02*
X-67495Y-195318D01*
X-71831Y-199300D02*
X-68159D01*
X-72495Y-195318D02*
Y-161318D01*
Y-195318D02*
X-71831Y-199300D01*
X-48667D02*
X-48000Y-195300D01*
X-53000Y-195300D02*
X-52333Y-199300D01*
X-48667D01*
X47000Y224331D02*
X48666Y225997D01*
X51998D01*
X53664Y224331D01*
Y222665D01*
X51998Y220998D01*
X50332D01*
X51998D01*
X53664Y219332D01*
Y217666D01*
X51998Y216000D01*
X48666D01*
X47000Y217666D01*
X56997Y225997D02*
Y219332D01*
X60329Y216000D01*
X63661Y219332D01*
Y225997D01*
X66994Y224331D02*
X68660Y225997D01*
X71992D01*
X73658Y224331D01*
Y222665D01*
X71992Y220998D01*
X70326D01*
X71992D01*
X73658Y219332D01*
Y217666D01*
X71992Y216000D01*
X68660D01*
X66994Y217666D01*
D12*
X406750Y88250D02*
G03*
X406750Y88250I-1250J0D01*
G01*
D13*
X-95500Y193500D02*
G03*
X-95500Y193500I-1000J0D01*
G01*
D14*
X130000Y-0D02*
G03*
X130000Y-0I-130000J0D01*
G01*
D15*
X222082Y-170527D02*
G03*
X-205324Y190373I-222082J170527D01*
G01*
D16*
X339882Y-169941D02*
G03*
X-203819Y320715I-339882J169941D01*
G01*
D17*
X103000Y161000D02*
Y163000D01*
X83000D02*
X103000D01*
X83000Y161000D02*
Y163000D01*
Y153000D02*
Y155000D01*
Y153000D02*
X103000D01*
Y155000D01*
Y141000D02*
Y143000D01*
X83000D02*
X103000D01*
X83000Y141000D02*
Y143000D01*
Y133000D02*
Y135000D01*
Y133000D02*
X103000D01*
Y135000D01*
X81570Y162920D02*
Y164190D01*
Y162920D02*
X104430D01*
Y164190D01*
Y171810D02*
Y173080D01*
X81570D02*
X104430D01*
X81570Y171810D02*
Y173080D01*
X93000Y162920D02*
Y173080D01*
X298000Y84000D02*
X300000D01*
X298000D02*
Y104000D01*
X300000D01*
X306000D02*
X308000D01*
Y84000D02*
Y104000D01*
X306000Y84000D02*
X308000D01*
X305000Y49000D02*
X307000D01*
Y69000D01*
X305000D02*
X307000D01*
X297000D02*
X299000D01*
X297000Y49000D02*
Y69000D01*
Y49000D02*
X299000D01*
X231810Y252570D02*
X233080D01*
Y275430D01*
X231810D02*
X233080D01*
X222920D02*
X224190D01*
X222920Y252570D02*
Y275430D01*
Y252570D02*
X224190D01*
X222920Y264000D02*
X233080D01*
X273000Y261000D02*
Y263000D01*
X253000D02*
X273000D01*
X253000Y261000D02*
Y263000D01*
Y253000D02*
Y255000D01*
Y253000D02*
X273000D01*
Y255000D01*
X253000Y261000D02*
Y263000D01*
X233000D02*
X253000D01*
X233000Y261000D02*
Y263000D01*
Y253000D02*
Y255000D01*
Y253000D02*
X253000D01*
Y255000D01*
X53810Y282570D02*
X55080D01*
Y305430D01*
X53810D02*
X55080D01*
X44920D02*
X46190D01*
X44920Y282570D02*
Y305430D01*
Y282570D02*
X46190D01*
X44920Y294000D02*
X55080D01*
X83430Y252810D02*
Y254080D01*
X60570D02*
X83430D01*
X60570Y252810D02*
Y254080D01*
Y243920D02*
Y245190D01*
Y243920D02*
X83430D01*
Y245190D01*
X72000Y243920D02*
Y254080D01*
X83430Y242810D02*
Y244080D01*
X60570D02*
X83430D01*
X60570Y242810D02*
Y244080D01*
Y233920D02*
Y235190D01*
Y233920D02*
X83430D01*
Y235190D01*
X72000Y233920D02*
Y244080D01*
X172920Y71000D02*
X183080D01*
X181810Y82430D02*
X183080D01*
Y59570D02*
Y82430D01*
X181810Y59570D02*
X183080D01*
X172920D02*
X174190D01*
X172920D02*
Y82430D01*
X174190D01*
X182920D02*
X184190D01*
X182920Y59570D02*
Y82430D01*
Y59570D02*
X184190D01*
X191810D02*
X193080D01*
Y82430D01*
X191810D02*
X193080D01*
X182920Y71000D02*
X193080D01*
X-84000Y172000D02*
Y174000D01*
Y172000D02*
X-64000D01*
Y174000D01*
Y180000D02*
Y182000D01*
X-84000D02*
X-64000D01*
X-84000Y180000D02*
Y182000D01*
X-58000Y149000D02*
X-56000D01*
Y169000D01*
X-58000D02*
X-56000D01*
X-66000D02*
X-64000D01*
X-66000Y149000D02*
Y169000D01*
Y149000D02*
X-64000D01*
X-86080Y171180D02*
X-84810D01*
X-86080Y148320D02*
Y171180D01*
Y148320D02*
X-84810D01*
X-77190D02*
X-75920D01*
Y171180D01*
X-77190D02*
X-75920D01*
X-86080Y159750D02*
X-75920D01*
X-62320Y190810D02*
Y192080D01*
X-85180D02*
X-62320D01*
X-85180Y190810D02*
Y192080D01*
Y181920D02*
Y183190D01*
Y181920D02*
X-62320D01*
Y183190D01*
X-73750Y181920D02*
Y192080D01*
X-88000Y171000D02*
X-86000D01*
Y191000D01*
X-88000D02*
X-86000D01*
X-96000D02*
X-94000D01*
X-96000Y171000D02*
Y191000D01*
Y171000D02*
X-94000D01*
X-96080Y171180D02*
X-94810D01*
X-96080Y148320D02*
Y171180D01*
Y148320D02*
X-94810D01*
X-87190D02*
X-85920D01*
Y171180D01*
X-87190D02*
X-85920D01*
X-96080Y159750D02*
X-85920D01*
X-68000Y149000D02*
X-66000D01*
Y169000D01*
X-68000D02*
X-66000D01*
X-76000D02*
X-74000D01*
X-76000Y149000D02*
Y169000D01*
Y149000D02*
X-74000D01*
X-129000Y168000D02*
X-127000D01*
Y188000D01*
X-129000D02*
X-127000D01*
X-137000D02*
X-135000D01*
X-137000Y168000D02*
Y188000D01*
Y168000D02*
X-135000D01*
X152430Y279810D02*
Y281080D01*
X129570D02*
X152430D01*
X129570Y279810D02*
Y281080D01*
Y270920D02*
Y272190D01*
Y270920D02*
X152430D01*
Y272190D01*
X141000Y270920D02*
Y281080D01*
X81570Y142920D02*
Y144190D01*
Y142920D02*
X104430D01*
Y144190D01*
Y151810D02*
Y153080D01*
X81570D02*
X104430D01*
X81570Y151810D02*
Y153080D01*
X93000Y142920D02*
Y153080D01*
X81570Y184920D02*
Y186190D01*
Y184920D02*
X104430D01*
Y186190D01*
Y193810D02*
Y195080D01*
X81570D02*
X104430D01*
X81570Y193810D02*
Y195080D01*
X93000Y184920D02*
Y195080D01*
X152430Y269810D02*
Y271080D01*
X129570D02*
X152430D01*
X129570Y269810D02*
Y271080D01*
Y260920D02*
Y262190D01*
Y260920D02*
X152430D01*
Y262190D01*
X141000Y260920D02*
Y271080D01*
X-162114Y-87641D02*
X-161015Y-87006D01*
X-162114Y-87641D02*
X-150684Y-107439D01*
X-149585Y-106804D01*
X-142985Y-102994D02*
X-141886Y-102359D01*
X-153316Y-82561D02*
X-141886Y-102359D01*
X-154415Y-83196D02*
X-153316Y-82561D01*
X-156399Y-97540D02*
X-147601Y-92460D01*
X151585Y-100804D02*
X152684Y-101439D01*
X164114Y-81641D01*
X163015Y-81006D02*
X164114Y-81641D01*
X155316Y-76561D02*
X156415Y-77196D01*
X143886Y-96359D02*
X155316Y-76561D01*
X143886Y-96359D02*
X144985Y-96994D01*
X149601Y-86460D02*
X158399Y-91540D01*
X29810Y138570D02*
X31080D01*
Y161430D01*
X29810D02*
X31080D01*
X20920D02*
X22190D01*
X20920Y138570D02*
Y161430D01*
Y138570D02*
X22190D01*
X20920Y150000D02*
X31080D01*
X103000Y183000D02*
Y185000D01*
X83000D02*
X103000D01*
X83000Y183000D02*
Y185000D01*
Y175000D02*
Y177000D01*
Y175000D02*
X103000D01*
Y177000D01*
X68000Y279000D02*
Y281000D01*
Y279000D02*
X88000D01*
Y281000D01*
Y287000D02*
Y289000D01*
X68000D02*
X88000D01*
X68000Y287000D02*
Y289000D01*
X84000Y340000D02*
X86000D01*
Y360000D01*
X84000D02*
X86000D01*
X76000D02*
X78000D01*
X76000Y340000D02*
Y360000D01*
Y340000D02*
X78000D01*
X92000Y342000D02*
Y344000D01*
Y342000D02*
X112000D01*
Y344000D01*
Y350000D02*
Y352000D01*
X92000D02*
X112000D01*
X92000Y350000D02*
Y352000D01*
X63000Y305000D02*
X65000D01*
Y325000D01*
X63000D02*
X65000D01*
X55000D02*
X57000D01*
X55000Y305000D02*
Y325000D01*
Y305000D02*
X57000D01*
X-135330Y-59840D02*
X-133598Y-58840D01*
X-135330Y-59840D02*
X-125330Y-77160D01*
X-123598Y-76160D01*
X-118402Y-73160D02*
X-116670Y-72160D01*
X-126670Y-54840D02*
X-116670Y-72160D01*
X-128402Y-55840D02*
X-126670Y-54840D01*
X123598Y-75160D02*
X125330Y-76160D01*
X135330Y-58840D01*
X133598Y-57840D02*
X135330Y-58840D01*
X126670Y-53840D02*
X128402Y-54840D01*
X116670Y-71160D02*
X126670Y-53840D01*
X116670Y-71160D02*
X118402Y-72160D01*
X17000Y146000D02*
Y148000D01*
X-3000D02*
X17000D01*
X-3000Y146000D02*
Y148000D01*
Y138000D02*
Y140000D01*
Y138000D02*
X17000D01*
Y140000D01*
X155000Y103920D02*
Y114080D01*
X143570Y112810D02*
Y114080D01*
X166430D01*
Y112810D02*
Y114080D01*
Y103920D02*
Y105190D01*
X143570Y103920D02*
X166430D01*
X143570D02*
Y105190D01*
X74200Y196080D02*
Y198000D01*
X48800D02*
X74200D01*
X48800Y196080D02*
Y198000D01*
Y184000D02*
Y185920D01*
Y184000D02*
X74200D01*
Y185920D01*
X61500Y184000D02*
Y198000D01*
X61000Y208500D02*
Y212000D01*
Y198000D02*
Y201500D01*
X74970Y207540D02*
X76240D01*
Y212000D01*
X74970D02*
X76240D01*
X74970Y202460D02*
X76240D01*
Y198000D02*
Y202460D01*
X74970Y198000D02*
X76240D01*
X45760Y210080D02*
Y212000D01*
X76000D01*
X74970Y207540D02*
Y212000D01*
Y198000D02*
Y202460D01*
X45760Y198000D02*
X76000D01*
X45760D02*
Y199920D01*
X202920Y71000D02*
X213080D01*
X211810Y82430D02*
X213080D01*
Y59570D02*
Y82430D01*
X211810Y59570D02*
X213080D01*
X202920D02*
X204190D01*
X202920D02*
Y82430D01*
X204190D01*
X212920Y71000D02*
X223080D01*
X221810Y82430D02*
X223080D01*
Y59570D02*
Y82430D01*
X221810Y59570D02*
X223080D01*
X212920D02*
X214190D01*
X212920D02*
Y82430D01*
X214190D01*
X218570Y152920D02*
Y154190D01*
Y152920D02*
X241430D01*
Y154190D01*
Y161810D02*
Y163080D01*
X218570D02*
X241430D01*
X218570Y161810D02*
Y163080D01*
X230000Y152920D02*
Y163080D01*
X241430Y212810D02*
Y214080D01*
X218570D02*
X241430D01*
X218570Y212810D02*
Y214080D01*
Y203920D02*
Y205190D01*
Y203920D02*
X241430D01*
Y205190D01*
X230000Y203920D02*
Y214080D01*
X227000Y184000D02*
X229000D01*
Y204000D01*
X227000D02*
X229000D01*
X219000D02*
X221000D01*
X219000Y184000D02*
Y204000D01*
Y184000D02*
X221000D01*
X147000Y139000D02*
Y141000D01*
Y139000D02*
X167000D01*
Y141000D01*
Y147000D02*
Y149000D01*
X147000D02*
X167000D01*
X147000Y147000D02*
Y149000D01*
X104000Y195000D02*
X106000D01*
Y215000D01*
X104000D02*
X106000D01*
X96000D02*
X98000D01*
X96000Y195000D02*
Y215000D01*
Y195000D02*
X98000D01*
X163000Y259000D02*
Y261000D01*
X143000D02*
X163000D01*
X143000Y259000D02*
Y261000D01*
Y251000D02*
Y253000D01*
Y251000D02*
X163000D01*
Y253000D01*
X217000Y194000D02*
X219000D01*
Y214000D01*
X217000D02*
X219000D01*
X209000D02*
X211000D01*
X209000Y194000D02*
Y214000D01*
Y194000D02*
X211000D01*
X172000Y251000D02*
Y253000D01*
Y251000D02*
X192000D01*
Y253000D01*
Y259000D02*
Y261000D01*
X172000D02*
X192000D01*
X172000Y259000D02*
Y261000D01*
X251750Y-29000D02*
X284250D01*
X251750Y-5250D02*
X255500D01*
X251750Y-52750D02*
Y-5250D01*
Y-52750D02*
X255500D01*
X280500D02*
X284250D01*
Y-5250D01*
X280500D02*
X284250D01*
X176000Y92000D02*
X178000D01*
Y112000D01*
X176000D02*
X178000D01*
X168000D02*
X170000D01*
X168000Y92000D02*
Y112000D01*
Y92000D02*
X170000D01*
X206000Y139000D02*
Y141000D01*
Y139000D02*
X226000D01*
Y141000D01*
Y147000D02*
Y149000D01*
X206000D02*
X226000D01*
X206000Y147000D02*
Y149000D01*
X232000Y124000D02*
X234000D01*
X232000Y104000D02*
Y124000D01*
Y104000D02*
X234000D01*
X240000D02*
X242000D01*
Y124000D01*
X240000D02*
X242000D01*
X232000Y104000D02*
X234000D01*
X232000Y84000D02*
Y104000D01*
Y84000D02*
X234000D01*
X240000D02*
X242000D01*
Y104000D01*
X240000D02*
X242000D01*
X222920Y82430D02*
X224190D01*
X222920Y59570D02*
Y82430D01*
Y59570D02*
X224190D01*
X231810D02*
X233080D01*
Y82430D01*
X231810D02*
X233080D01*
X222920Y71000D02*
X233080D01*
X192920Y82430D02*
X194190D01*
X192920Y59570D02*
Y82430D01*
Y59570D02*
X194190D01*
X201810D02*
X203080D01*
Y82430D01*
X201810D02*
X203080D01*
X192920Y71000D02*
X203080D01*
X151920Y103430D02*
X153190D01*
X151920Y80570D02*
Y103430D01*
Y80570D02*
X153190D01*
X160810D02*
X162080D01*
Y103430D01*
X160810D02*
X162080D01*
X151920Y92000D02*
X162080D01*
X131920Y103430D02*
X133190D01*
X131920Y80570D02*
Y103430D01*
Y80570D02*
X133190D01*
X140810D02*
X142080D01*
Y103430D01*
X140810D02*
X142080D01*
X131920Y92000D02*
X142080D01*
X120570Y103920D02*
Y105190D01*
Y103920D02*
X143430D01*
Y105190D01*
Y112810D02*
Y114080D01*
X120570D02*
X143430D01*
X120570Y112810D02*
Y114080D01*
X132000Y103920D02*
Y114080D01*
X111920Y103430D02*
X113190D01*
X111920Y80570D02*
Y103430D01*
Y80570D02*
X113190D01*
X120810D02*
X122080D01*
Y103430D01*
X120810D02*
X122080D01*
X111920Y92000D02*
X122080D01*
X120680Y112810D02*
Y114080D01*
X97820D02*
X120680D01*
X97820Y112810D02*
Y114080D01*
Y103920D02*
Y105190D01*
Y103920D02*
X120680D01*
Y105190D01*
X109250Y103920D02*
Y114080D01*
X150810Y80570D02*
X152080D01*
Y103430D01*
X150810D02*
X152080D01*
X141920D02*
X143190D01*
X141920Y80570D02*
Y103430D01*
Y80570D02*
X143190D01*
X141920Y92000D02*
X152080D01*
X130810Y80570D02*
X132080D01*
Y103430D01*
X130810D02*
X132080D01*
X121920D02*
X123190D01*
X121920Y80570D02*
Y103430D01*
Y80570D02*
X123190D01*
X121920Y92000D02*
X132080D01*
X110810Y80570D02*
X112080D01*
Y103430D01*
X110810D02*
X112080D01*
X101920D02*
X103190D01*
X101920Y80570D02*
Y103430D01*
Y80570D02*
X103190D01*
X101920Y92000D02*
X112080D01*
X251750Y19000D02*
X284250D01*
X280500Y-4750D02*
X284250D01*
Y42750D01*
X280500D02*
X284250D01*
X251750D02*
X255500D01*
X251750Y-4750D02*
Y42750D01*
Y-4750D02*
X255500D01*
X257000Y161500D02*
Y165000D01*
Y151000D02*
Y154500D01*
X270970Y160540D02*
X272240D01*
Y165000D01*
X270970D02*
X272240D01*
X270970Y155460D02*
X272240D01*
Y151000D02*
Y155460D01*
X270970Y151000D02*
X272240D01*
X241760Y163080D02*
Y165000D01*
X272000D01*
X270970Y160540D02*
Y165000D01*
Y151000D02*
Y155460D01*
X241760Y151000D02*
X272000D01*
X241760D02*
Y152920D01*
X-155000Y179000D02*
X-137000D01*
X-155000Y196000D02*
X-151000D01*
X-155000Y162000D02*
Y196000D01*
Y162000D02*
X-151000D01*
X-141000D02*
X-137000D01*
Y196000D01*
X-141000D02*
X-137000D01*
D18*
X298100Y49000D02*
Y69000D01*
X273900Y49000D02*
Y69000D01*
Y84000D02*
Y104000D01*
X298100Y84000D02*
Y104000D01*
X219550Y90350D02*
X222500D01*
X219550Y130350D02*
X222500D01*
X182500Y90350D02*
X185450D01*
X182500Y130350D02*
X185450D01*
X222500Y90350D02*
Y93300D01*
Y127400D02*
Y130350D01*
X182500Y90350D02*
Y93300D01*
Y127400D02*
Y130350D01*
X171250Y-61750D02*
Y-53000D01*
Y-39000D02*
Y-30250D01*
X202750Y-39000D02*
Y-30250D01*
Y-61750D02*
Y-53000D01*
X171250Y20250D02*
Y29000D01*
Y43000D02*
Y51750D01*
X202750Y43000D02*
Y51750D01*
Y20250D02*
Y29000D01*
X171250Y-20750D02*
Y-12000D01*
Y2000D02*
Y10750D01*
X202750Y2000D02*
Y10750D01*
Y-20750D02*
Y-12000D01*
X213950Y-30250D02*
X222700D01*
X236700D02*
X245450D01*
X236700Y-61750D02*
X245450D01*
X213950D02*
X222700D01*
X213950Y51750D02*
X222700D01*
X236700D02*
X245450D01*
X236700Y20250D02*
X245450D01*
X213950D02*
X222700D01*
X213950Y10750D02*
X222700D01*
X236700D02*
X245450D01*
X236700Y-20750D02*
X245450D01*
X213950D02*
X222700D01*
X228000Y124000D02*
Y136000D01*
X250000Y124000D02*
Y136000D01*
X228000D02*
X250000D01*
X228000Y124000D02*
X250000D01*
X242000D02*
X254000D01*
X242000Y102000D02*
X254000D01*
Y124000D01*
X242000Y102000D02*
Y124000D01*
Y102000D02*
X254000D01*
X242000Y80000D02*
X254000D01*
Y102000D01*
X242000Y80000D02*
Y102000D01*
X237000Y262900D02*
X257000D01*
X237000Y287100D02*
X257000D01*
X112500Y244650D02*
X115500D01*
X112500Y154650D02*
X115500D01*
X199500Y244650D02*
X202500D01*
X199500Y154650D02*
X202500D01*
X112500Y241650D02*
Y244650D01*
Y154650D02*
Y157650D01*
X202500Y241650D02*
Y244650D01*
Y154650D02*
Y157650D01*
X112000Y294500D02*
Y297115D01*
X109385Y294500D02*
X112000D01*
X109385Y334500D02*
X112000D01*
Y331885D02*
Y334500D01*
X72000Y331885D02*
Y334500D01*
X74615D01*
X72000Y294500D02*
X74615D01*
X72000D02*
Y297115D01*
D19*
X59250Y202500D02*
X62750Y205000D01*
X59250Y202500D02*
Y205000D01*
X62750Y202750D02*
Y205000D01*
Y207250D01*
X59250Y205000D02*
Y207500D01*
X62750Y205000D01*
X255250Y155500D02*
X258750Y158000D01*
X255250Y155500D02*
Y158000D01*
X258750Y155750D02*
Y158000D01*
Y160250D01*
X255250Y158000D02*
Y160500D01*
X258750Y158000D01*
D20*
X395500Y32500D02*
X405497D01*
X360500Y33498D02*
X370497D01*
X365498Y38497D02*
Y28500D01*
D21*
X198805Y347862D02*
X197473Y346529D01*
Y343863D01*
X198805Y342530D01*
X200138D01*
X201471Y343863D01*
Y346529D01*
X202804Y347862D01*
X204137D01*
X205470Y346529D01*
Y343863D01*
X204137Y342530D01*
X197473Y350527D02*
X205470D01*
Y354526D01*
X204137Y355859D01*
X198805D01*
X197473Y354526D01*
Y350527D01*
X205470Y358525D02*
X200138D01*
X197473Y361191D01*
X200138Y363857D01*
X205470D01*
X201471D01*
Y358525D01*
X239806Y341530D02*
X238473Y342863D01*
Y345529D01*
X239806Y346862D01*
X241138D01*
X242471Y345529D01*
Y344196D01*
Y345529D01*
X243804Y346862D01*
X245137D01*
X246470Y345529D01*
Y342863D01*
X245137Y341530D01*
X238473Y349528D02*
X243804D01*
X246470Y352193D01*
X243804Y354859D01*
X238473D01*
X239806Y357525D02*
X238473Y358858D01*
Y361524D01*
X239806Y362856D01*
X241138D01*
X242471Y361524D01*
Y360191D01*
Y361524D01*
X243804Y362856D01*
X245137D01*
X246470Y361524D01*
Y358858D01*
X245137Y357525D01*
X219806Y346862D02*
X218473Y345529D01*
Y342863D01*
X219806Y341530D01*
X225137D01*
X226470Y342863D01*
Y345529D01*
X225137Y346862D01*
X222471D01*
Y344196D01*
X226470Y349528D02*
X218473D01*
X226470Y354859D01*
X218473D01*
Y357525D02*
X226470D01*
Y361524D01*
X225137Y362856D01*
X219806D01*
X218473Y361524D01*
Y357525D01*
X179806Y346862D02*
X178473Y345529D01*
Y342863D01*
X179806Y341530D01*
X181138D01*
X182471Y342863D01*
Y345529D01*
X183804Y346862D01*
X185137D01*
X186470Y345529D01*
Y342863D01*
X185137Y341530D01*
X179806Y354859D02*
X178473Y353526D01*
Y350860D01*
X179806Y349527D01*
X185137D01*
X186470Y350860D01*
Y353526D01*
X185137Y354859D01*
X178473Y357525D02*
X186470D01*
Y362856D01*
X-92528Y277530D02*
X-84530D01*
Y281529D01*
X-85863Y282862D01*
X-91195D01*
X-92528Y281529D01*
Y277530D01*
Y285527D02*
Y288193D01*
Y286860D01*
X-84530D01*
Y285527D01*
Y288193D01*
Y292192D02*
X-92528D01*
X-84530Y297524D01*
X-92528D01*
X-71527Y280529D02*
Y277863D01*
X-70195Y276530D01*
X-64863D01*
X-63530Y277863D01*
Y280529D01*
X-64863Y281862D01*
X-70195D01*
X-71527Y280529D01*
Y284527D02*
X-64863D01*
X-63530Y285860D01*
Y288526D01*
X-64863Y289859D01*
X-71527D01*
Y292525D02*
Y297857D01*
Y295191D01*
X-63530D01*
X-113195Y281862D02*
X-114527Y280529D01*
Y277863D01*
X-113195Y276530D01*
X-107863D01*
X-106530Y277863D01*
Y280529D01*
X-107863Y281862D01*
X-110529D01*
Y279196D01*
X-106530Y284527D02*
X-114527D01*
X-106530Y289859D01*
X-114527D01*
Y292525D02*
X-106530D01*
Y296524D01*
X-107863Y297857D01*
X-113195D01*
X-114527Y296524D01*
Y292525D01*
D22*
X396250Y86375D02*
D03*
X396250Y125625D02*
D03*
M02*
