G04*
G04 #@! TF.GenerationSoftware,Altium Limited,Altium Designer,24.4.1 (13)*
G04*
G04 Layer_Physical_Order=2*
G04 Layer_Color=37055*
%FSLAX44Y44*%
%MOMM*%
G71*
G04*
G04 #@! TF.SameCoordinates,D346328A-3EA5-4E80-806F-D0F93F3E7631*
G04*
G04*
G04 #@! TF.FilePolarity,Positive*
G04*
G01*
G75*
%ADD11C,0.2000*%
%ADD15C,0.2540*%
%ADD18C,0.1270*%
%ADD116C,0.4500*%
G04:AMPARAMS|DCode=117|XSize=2.14mm|YSize=1.07mm|CornerRadius=0mm|HoleSize=0mm|Usage=FLASHONLY|Rotation=330.000|XOffset=0mm|YOffset=0mm|HoleType=Round|Shape=Round|*
%AMOVALD117*
21,1,1.0700,1.0700,0.0000,0.0000,330.0*
1,1,1.0700,-0.4633,0.2675*
1,1,1.0700,0.4633,-0.2675*
%
%ADD117OVALD117*%

%ADD118R,1.3000X1.3000*%
%ADD119C,1.3000*%
G04:AMPARAMS|DCode=120|XSize=2.14mm|YSize=1.07mm|CornerRadius=0mm|HoleSize=0mm|Usage=FLASHONLY|Rotation=210.000|XOffset=0mm|YOffset=0mm|HoleType=Round|Shape=Round|*
%AMOVALD120*
21,1,1.0700,1.0700,0.0000,0.0000,210.0*
1,1,1.0700,0.4633,0.2675*
1,1,1.0700,-0.4633,-0.2675*
%
%ADD120OVALD120*%

%ADD121O,1.0700X2.1400*%
%ADD122C,5.0000*%
%ADD123R,1.3000X1.3000*%
%ADD124C,0.4500*%
%ADD125C,0.7000*%
G36*
X317638Y443315D02*
X329263Y439246D01*
X340602Y434441D01*
X351612Y428919D01*
X362243Y422704D01*
X372456Y415821D01*
X382207Y408297D01*
X391455Y400164D01*
X400164Y391455D01*
X408297Y382207D01*
X415821Y372456D01*
X422704Y362243D01*
X428919Y351612D01*
X434441Y340602D01*
X439246Y329263D01*
X443315Y317638D01*
X444780Y312397D01*
X444780Y14701D01*
X443510Y14343D01*
X442349Y16238D01*
X439534Y19534D01*
X436237Y22349D01*
X432541Y24614D01*
X428536Y26273D01*
X424321Y27285D01*
X421270Y27525D01*
Y0D01*
Y-27525D01*
X424321Y-27285D01*
X428536Y-26273D01*
X432541Y-24614D01*
X436237Y-22349D01*
X439534Y-19534D01*
X442349Y-16238D01*
X443510Y-14343D01*
X444780Y-14701D01*
Y-163180D01*
X-196780D01*
Y-76576D01*
X-195510Y-75950D01*
X-194419Y-76787D01*
X-192528Y-77570D01*
X-190500Y-77837D01*
X-188472Y-77570D01*
X-186581Y-76787D01*
X-184958Y-75542D01*
X-183713Y-73918D01*
X-182930Y-72028D01*
X-182663Y-70000D01*
X-182930Y-67972D01*
X-183713Y-66082D01*
X-184958Y-64458D01*
X-186581Y-63213D01*
X-188472Y-62430D01*
X-190500Y-62163D01*
X-192528Y-62430D01*
X-194419Y-63213D01*
X-195510Y-64050D01*
X-196780Y-63424D01*
Y-56576D01*
X-195510Y-55950D01*
X-194419Y-56787D01*
X-192528Y-57570D01*
X-190500Y-57837D01*
X-188472Y-57570D01*
X-186581Y-56787D01*
X-184958Y-55542D01*
X-183713Y-53918D01*
X-182930Y-52028D01*
X-182663Y-50000D01*
X-182930Y-47972D01*
X-183713Y-46082D01*
X-184958Y-44458D01*
X-186581Y-43213D01*
X-188472Y-42430D01*
X-190500Y-42163D01*
X-192528Y-42430D01*
X-194419Y-43213D01*
X-195510Y-44050D01*
X-196780Y-43424D01*
Y-36576D01*
X-195510Y-35950D01*
X-194419Y-36787D01*
X-192528Y-37570D01*
X-190500Y-37837D01*
X-188472Y-37570D01*
X-186581Y-36787D01*
X-184958Y-35542D01*
X-183713Y-33918D01*
X-182930Y-32028D01*
X-182663Y-30000D01*
X-182930Y-27972D01*
X-183713Y-26082D01*
X-184958Y-24458D01*
X-186581Y-23213D01*
X-188472Y-22430D01*
X-190500Y-22163D01*
X-192528Y-22430D01*
X-194419Y-23213D01*
X-195510Y-24050D01*
X-196780Y-23424D01*
X-196780Y223424D01*
X-195510Y224050D01*
X-194419Y223213D01*
X-192528Y222430D01*
X-190500Y222163D01*
X-188472Y222430D01*
X-186581Y223213D01*
X-184958Y224458D01*
X-183713Y226082D01*
X-182930Y227972D01*
X-182663Y230000D01*
X-182930Y232028D01*
X-183713Y233918D01*
X-184958Y235542D01*
X-186581Y236787D01*
X-188472Y237570D01*
X-190500Y237837D01*
X-192528Y237570D01*
X-194419Y236787D01*
X-195510Y235950D01*
X-196780Y236576D01*
Y243424D01*
X-195510Y244050D01*
X-194419Y243213D01*
X-192528Y242430D01*
X-190500Y242163D01*
X-188472Y242430D01*
X-186581Y243213D01*
X-184958Y244458D01*
X-183713Y246082D01*
X-182930Y247972D01*
X-182663Y250000D01*
X-182930Y252028D01*
X-183713Y253918D01*
X-184958Y255542D01*
X-186581Y256787D01*
X-188472Y257570D01*
X-190500Y257837D01*
X-192528Y257570D01*
X-194419Y256787D01*
X-195510Y255950D01*
X-196780Y256576D01*
Y263424D01*
X-195510Y264050D01*
X-194419Y263213D01*
X-192528Y262430D01*
X-190500Y262163D01*
X-188472Y262430D01*
X-186581Y263213D01*
X-184958Y264458D01*
X-183713Y266082D01*
X-182930Y267972D01*
X-182663Y270000D01*
X-182930Y272028D01*
X-183713Y273919D01*
X-184958Y275542D01*
X-186581Y276787D01*
X-188472Y277570D01*
X-190500Y277837D01*
X-192528Y277570D01*
X-194419Y276787D01*
X-195510Y275950D01*
X-196780Y276576D01*
X-196780Y444780D01*
X-14701D01*
X-14343Y443510D01*
X-16238Y442349D01*
X-19534Y439534D01*
X-22349Y436237D01*
X-24614Y432541D01*
X-26273Y428536D01*
X-27285Y424321D01*
X-27525Y421270D01*
X27525D01*
X27285Y424321D01*
X26273Y428536D01*
X24614Y432541D01*
X22349Y436237D01*
X19534Y439534D01*
X16238Y442349D01*
X14343Y443510D01*
X14701Y444780D01*
X312397D01*
X317638Y443315D01*
D02*
G37*
%LPC*%
G36*
X27525Y418730D02*
X1270D01*
Y392474D01*
X4322Y392715D01*
X8537Y393727D01*
X12542Y395386D01*
X16238Y397650D01*
X19534Y400466D01*
X22349Y403762D01*
X24614Y407458D01*
X26273Y411463D01*
X27285Y415678D01*
X27525Y418730D01*
D02*
G37*
G36*
X-1270D02*
X-27525D01*
X-27285Y415678D01*
X-26273Y411463D01*
X-24614Y407458D01*
X-22349Y403762D01*
X-19534Y400466D01*
X-16238Y397650D01*
X-12542Y395386D01*
X-8537Y393727D01*
X-4322Y392715D01*
X-1270Y392474D01*
Y418730D01*
D02*
G37*
G36*
X371270Y397525D02*
Y371270D01*
X397525D01*
X397285Y374321D01*
X396273Y378536D01*
X394614Y382541D01*
X392349Y386237D01*
X389534Y389534D01*
X386237Y392349D01*
X382541Y394614D01*
X378536Y396273D01*
X374321Y397285D01*
X371270Y397525D01*
D02*
G37*
G36*
X368730D02*
X365678Y397285D01*
X361463Y396273D01*
X357458Y394614D01*
X353762Y392349D01*
X350466Y389534D01*
X347650Y386237D01*
X345386Y382541D01*
X343727Y378536D01*
X342715Y374321D01*
X342475Y371270D01*
X368730D01*
Y397525D01*
D02*
G37*
G36*
X106400Y350589D02*
X105027Y350316D01*
X103862Y349538D01*
X103084Y348373D01*
X102811Y347000D01*
X103084Y345627D01*
X103862Y344462D01*
X105027Y343684D01*
X106400Y343411D01*
X107773Y343684D01*
X108938Y344462D01*
X109716Y345627D01*
X109989Y347000D01*
X109716Y348373D01*
X108938Y349538D01*
X107773Y350316D01*
X106400Y350589D01*
D02*
G37*
G36*
X397525Y368730D02*
X371270D01*
Y342475D01*
X374321Y342715D01*
X378536Y343727D01*
X382541Y345386D01*
X386237Y347650D01*
X389534Y350466D01*
X392349Y353762D01*
X394614Y357458D01*
X396273Y361463D01*
X397285Y365678D01*
X397525Y368730D01*
D02*
G37*
G36*
X368730D02*
X342475D01*
X342715Y365678D01*
X343727Y361463D01*
X345386Y357458D01*
X347650Y353762D01*
X350466Y350466D01*
X353762Y347650D01*
X357458Y345386D01*
X361463Y343727D01*
X365678Y342715D01*
X368730Y342475D01*
Y368730D01*
D02*
G37*
G36*
X74000Y337589D02*
X72627Y337316D01*
X71462Y336538D01*
X70684Y335373D01*
X70411Y334000D01*
X70684Y332627D01*
X71462Y331462D01*
X72627Y330684D01*
X74000Y330411D01*
X75373Y330684D01*
X76538Y331462D01*
X77316Y332627D01*
X77589Y334000D01*
X77316Y335373D01*
X76538Y336538D01*
X75373Y337316D01*
X74000Y337589D01*
D02*
G37*
G36*
X223270Y331951D02*
Y324270D01*
X230951D01*
X230807Y325360D01*
X229896Y327559D01*
X228447Y329447D01*
X226559Y330896D01*
X224360Y331807D01*
X223270Y331951D01*
D02*
G37*
G36*
X220730D02*
X219640Y331807D01*
X217441Y330896D01*
X215553Y329447D01*
X214104Y327559D01*
X213193Y325360D01*
X213049Y324270D01*
X220730D01*
Y331951D01*
D02*
G37*
G36*
X60000Y322989D02*
X58627Y322716D01*
X57462Y321938D01*
X56684Y320774D01*
X56411Y319400D01*
X56684Y318027D01*
X57462Y316862D01*
X58627Y316084D01*
X60000Y315811D01*
X61373Y316084D01*
X62538Y316862D01*
X63316Y318027D01*
X63589Y319400D01*
X63316Y320774D01*
X62538Y321938D01*
X61373Y322716D01*
X60000Y322989D01*
D02*
G37*
G36*
X189770Y330770D02*
X174230D01*
Y315230D01*
X189770D01*
Y330770D01*
D02*
G37*
G36*
X242000Y330837D02*
X239972Y330570D01*
X238081Y329787D01*
X236458Y328542D01*
X235213Y326918D01*
X234430Y325028D01*
X234163Y323000D01*
X234430Y320972D01*
X235213Y319081D01*
X236458Y317458D01*
X238081Y316213D01*
X239972Y315430D01*
X242000Y315163D01*
X244028Y315430D01*
X245919Y316213D01*
X247542Y317458D01*
X248787Y319081D01*
X249570Y320972D01*
X249837Y323000D01*
X249570Y325028D01*
X248787Y326918D01*
X247542Y328542D01*
X245919Y329787D01*
X244028Y330570D01*
X242000Y330837D01*
D02*
G37*
G36*
X202000D02*
X199972Y330570D01*
X198081Y329787D01*
X196458Y328542D01*
X195213Y326918D01*
X194430Y325028D01*
X194163Y323000D01*
X194430Y320972D01*
X195213Y319081D01*
X196458Y317458D01*
X198081Y316213D01*
X199972Y315430D01*
X202000Y315163D01*
X204028Y315430D01*
X205919Y316213D01*
X207542Y317458D01*
X208787Y319081D01*
X209570Y320972D01*
X209837Y323000D01*
X209570Y325028D01*
X208787Y326918D01*
X207542Y328542D01*
X205919Y329787D01*
X204028Y330570D01*
X202000Y330837D01*
D02*
G37*
G36*
X230951Y321730D02*
X223270D01*
Y314049D01*
X224360Y314193D01*
X226559Y315104D01*
X228447Y316553D01*
X229896Y318441D01*
X230807Y320640D01*
X230951Y321730D01*
D02*
G37*
G36*
X220730D02*
X213049D01*
X213193Y320640D01*
X214104Y318441D01*
X215553Y316553D01*
X217441Y315104D01*
X219640Y314193D01*
X220730Y314049D01*
Y321730D01*
D02*
G37*
G36*
X319000Y319339D02*
X317627Y319066D01*
X316462Y318288D01*
X315684Y317123D01*
X315411Y315750D01*
X315684Y314377D01*
X316462Y313212D01*
X317627Y312434D01*
X319000Y312161D01*
X320373Y312434D01*
X321538Y313212D01*
X322316Y314377D01*
X322589Y315750D01*
X322316Y317123D01*
X321538Y318288D01*
X320373Y319066D01*
X319000Y319339D01*
D02*
G37*
G36*
X50000Y303339D02*
X48627Y303066D01*
X47462Y302288D01*
X46684Y301123D01*
X46411Y299750D01*
X46684Y298377D01*
X47462Y297212D01*
X48627Y296434D01*
X50000Y296161D01*
X51373Y296434D01*
X52538Y297212D01*
X53316Y298377D01*
X53589Y299750D01*
X53316Y301123D01*
X52538Y302288D01*
X51373Y303066D01*
X50000Y303339D01*
D02*
G37*
G36*
X94000Y289589D02*
X92627Y289316D01*
X91462Y288538D01*
X90684Y287373D01*
X90411Y286000D01*
X90684Y284627D01*
X91462Y283462D01*
X92627Y282684D01*
X94000Y282411D01*
X95373Y282684D01*
X96538Y283462D01*
X97316Y284627D01*
X97589Y286000D01*
X97316Y287373D01*
X96538Y288538D01*
X95373Y289316D01*
X94000Y289589D01*
D02*
G37*
G36*
X146750Y279589D02*
X145377Y279316D01*
X144212Y278538D01*
X143434Y277373D01*
X143161Y276000D01*
X143434Y274627D01*
X144212Y273462D01*
X145377Y272684D01*
X146750Y272411D01*
X148123Y272684D01*
X149288Y273462D01*
X150066Y274627D01*
X150339Y276000D01*
X150066Y277373D01*
X149288Y278538D01*
X148123Y279316D01*
X146750Y279589D01*
D02*
G37*
G36*
X-169230Y278951D02*
Y271270D01*
X-161549D01*
X-161693Y272360D01*
X-162604Y274559D01*
X-164053Y276447D01*
X-165941Y277896D01*
X-168140Y278807D01*
X-169230Y278951D01*
D02*
G37*
G36*
X-171770Y278951D02*
X-172860Y278807D01*
X-175059Y277896D01*
X-176947Y276447D01*
X-178396Y274559D01*
X-179307Y272360D01*
X-179451Y271270D01*
X-171770D01*
Y278951D01*
D02*
G37*
G36*
X146750Y269589D02*
X145377Y269316D01*
X144212Y268538D01*
X143434Y267373D01*
X143161Y266000D01*
X143434Y264627D01*
X144212Y263462D01*
X145377Y262684D01*
X146750Y262411D01*
X148123Y262684D01*
X149288Y263462D01*
X150066Y264627D01*
X150339Y266000D01*
X150066Y267373D01*
X149288Y268538D01*
X148123Y269316D01*
X146750Y269589D01*
D02*
G37*
G36*
X135000Y269339D02*
X133627Y269066D01*
X132462Y268288D01*
X131684Y267123D01*
X131411Y265750D01*
X131684Y264377D01*
X132462Y263212D01*
X133627Y262434D01*
X135000Y262161D01*
X136373Y262434D01*
X137538Y263212D01*
X138316Y264377D01*
X138589Y265750D01*
X138316Y267123D01*
X137538Y268288D01*
X136373Y269066D01*
X135000Y269339D01*
D02*
G37*
G36*
X-171770Y268730D02*
X-179451D01*
X-179307Y267640D01*
X-178396Y265441D01*
X-176947Y263553D01*
X-175059Y262104D01*
X-172860Y261193D01*
X-171770Y261049D01*
Y268730D01*
D02*
G37*
G36*
X-161549D02*
X-169230D01*
Y261049D01*
X-168140Y261193D01*
X-165941Y262104D01*
X-164053Y263553D01*
X-162604Y265441D01*
X-161693Y267640D01*
X-161549Y268730D01*
D02*
G37*
G36*
X-98960Y267040D02*
X-106730D01*
Y259270D01*
X-98960D01*
Y267040D01*
D02*
G37*
G36*
X-109270D02*
X-117040D01*
Y259270D01*
X-109270D01*
Y267040D01*
D02*
G37*
G36*
X228000Y261839D02*
X226627Y261566D01*
X225462Y260788D01*
X224684Y259623D01*
X224411Y258250D01*
X224684Y256877D01*
X225462Y255712D01*
X226627Y254934D01*
X228000Y254661D01*
X229373Y254934D01*
X230538Y255712D01*
X231316Y256877D01*
X231589Y258250D01*
X231316Y259623D01*
X230538Y260788D01*
X229373Y261566D01*
X228000Y261839D01*
D02*
G37*
G36*
X267400Y261589D02*
X266027Y261316D01*
X264862Y260538D01*
X264084Y259373D01*
X263811Y258000D01*
X264084Y256627D01*
X264862Y255462D01*
X266027Y254684D01*
X267400Y254411D01*
X268773Y254684D01*
X269938Y255462D01*
X270716Y256627D01*
X270989Y258000D01*
X270716Y259373D01*
X269938Y260538D01*
X268773Y261316D01*
X267400Y261589D01*
D02*
G37*
G36*
X238600D02*
X237227Y261316D01*
X236062Y260538D01*
X235284Y259373D01*
X235011Y258000D01*
X235284Y256627D01*
X236062Y255462D01*
X237227Y254684D01*
X238600Y254411D01*
X239973Y254684D01*
X241138Y255462D01*
X241916Y256627D01*
X242189Y258000D01*
X241916Y259373D01*
X241138Y260538D01*
X239973Y261316D01*
X238600Y261589D01*
D02*
G37*
G36*
X186400Y259589D02*
X185027Y259316D01*
X183862Y258538D01*
X183084Y257373D01*
X182811Y256000D01*
X183084Y254627D01*
X183862Y253462D01*
X185027Y252684D01*
X186400Y252411D01*
X187773Y252684D01*
X188938Y253462D01*
X189716Y254627D01*
X189989Y256000D01*
X189716Y257373D01*
X188938Y258538D01*
X187773Y259316D01*
X186400Y259589D01*
D02*
G37*
G36*
X148600D02*
X147227Y259316D01*
X146062Y258538D01*
X145284Y257373D01*
X145011Y256000D01*
X145284Y254627D01*
X146062Y253462D01*
X147227Y252684D01*
X148600Y252411D01*
X149973Y252684D01*
X151138Y253462D01*
X151916Y254627D01*
X152189Y256000D01*
X151916Y257373D01*
X151138Y258538D01*
X149973Y259316D01*
X148600Y259589D01*
D02*
G37*
G36*
X398680Y259589D02*
X397307Y259316D01*
X396142Y258538D01*
X395364Y257373D01*
X395091Y256000D01*
X395364Y254627D01*
X396142Y253462D01*
X397307Y252684D01*
X398680Y252411D01*
X400053Y252684D01*
X401218Y253462D01*
X401996Y254627D01*
X402269Y256000D01*
X401996Y257373D01*
X401218Y258538D01*
X400053Y259316D01*
X398680Y259589D01*
D02*
G37*
G36*
X-169230Y258951D02*
Y251270D01*
X-161549D01*
X-161693Y252360D01*
X-162604Y254559D01*
X-164053Y256447D01*
X-165941Y257896D01*
X-168140Y258807D01*
X-169230Y258951D01*
D02*
G37*
G36*
X-171770D02*
X-172860Y258807D01*
X-175059Y257896D01*
X-176947Y256447D01*
X-178396Y254559D01*
X-179307Y252360D01*
X-179451Y251270D01*
X-171770D01*
Y258951D01*
D02*
G37*
G36*
X-68000Y265837D02*
X-70028Y265570D01*
X-71919Y264787D01*
X-73542Y263542D01*
X-74787Y261919D01*
X-75570Y260028D01*
X-75837Y258000D01*
X-75570Y255972D01*
X-74787Y254081D01*
X-73542Y252458D01*
X-71919Y251213D01*
X-70028Y250430D01*
X-68000Y250163D01*
X-65972Y250430D01*
X-64082Y251213D01*
X-62458Y252458D01*
X-61213Y254081D01*
X-60430Y255972D01*
X-60163Y258000D01*
X-60430Y260028D01*
X-61213Y261919D01*
X-62458Y263542D01*
X-64082Y264787D01*
X-65972Y265570D01*
X-68000Y265837D01*
D02*
G37*
G36*
X-88000D02*
X-90028Y265570D01*
X-91918Y264787D01*
X-93542Y263542D01*
X-94787Y261919D01*
X-95570Y260028D01*
X-95837Y258000D01*
X-95570Y255972D01*
X-94787Y254081D01*
X-93542Y252458D01*
X-91918Y251213D01*
X-90028Y250430D01*
X-88000Y250163D01*
X-85972Y250430D01*
X-84081Y251213D01*
X-82458Y252458D01*
X-81213Y254081D01*
X-80430Y255972D01*
X-80163Y258000D01*
X-80430Y260028D01*
X-81213Y261919D01*
X-82458Y263542D01*
X-84081Y264787D01*
X-85972Y265570D01*
X-88000Y265837D01*
D02*
G37*
G36*
X-98960Y256730D02*
X-106730D01*
Y248960D01*
X-98960D01*
Y256730D01*
D02*
G37*
G36*
X-109270D02*
X-117040D01*
Y248960D01*
X-109270D01*
Y256730D01*
D02*
G37*
G36*
X319000Y255839D02*
X317627Y255566D01*
X316462Y254788D01*
X315684Y253623D01*
X315411Y252250D01*
X315684Y250877D01*
X316462Y249712D01*
X317627Y248934D01*
X319000Y248661D01*
X320373Y248934D01*
X321538Y249712D01*
X322316Y250877D01*
X322589Y252250D01*
X322316Y253623D01*
X321538Y254788D01*
X320373Y255566D01*
X319000Y255839D01*
D02*
G37*
G36*
X170080Y259669D02*
X168706Y259396D01*
X167542Y258618D01*
X166764Y257453D01*
X166626Y256759D01*
X166171Y255909D01*
X165321Y255454D01*
X164627Y255316D01*
X163462Y254538D01*
X162684Y253373D01*
X162411Y252000D01*
X162684Y250627D01*
X163462Y249462D01*
X164627Y248684D01*
X166000Y248411D01*
X167373Y248684D01*
X168538Y249462D01*
X169316Y250627D01*
X169454Y251321D01*
X169909Y252171D01*
X170759Y252626D01*
X171453Y252764D01*
X172618Y253542D01*
X173396Y254707D01*
X173669Y256080D01*
X173396Y257453D01*
X172618Y258618D01*
X171453Y259396D01*
X170080Y259669D01*
D02*
G37*
G36*
X-161549Y248730D02*
X-169230D01*
Y241049D01*
X-168140Y241193D01*
X-165941Y242104D01*
X-164053Y243553D01*
X-162604Y245441D01*
X-161693Y247640D01*
X-161549Y248730D01*
D02*
G37*
G36*
X-171770D02*
X-179451D01*
X-179307Y247640D01*
X-178396Y245441D01*
X-176947Y243553D01*
X-175059Y242104D01*
X-172860Y241193D01*
X-171770Y241049D01*
Y248730D01*
D02*
G37*
G36*
X-20000Y244589D02*
X-21373Y244316D01*
X-22538Y243538D01*
X-23316Y242373D01*
X-23589Y241000D01*
X-23316Y239627D01*
X-22538Y238462D01*
X-21373Y237684D01*
X-20000Y237411D01*
X-18627Y237684D01*
X-17462Y238462D01*
X-16684Y239627D01*
X-16411Y241000D01*
X-16684Y242373D01*
X-17462Y243538D01*
X-18627Y244316D01*
X-20000Y244589D01*
D02*
G37*
G36*
X-161460Y239040D02*
X-169230D01*
Y231270D01*
X-161460D01*
Y239040D01*
D02*
G37*
G36*
X-171770D02*
X-179540D01*
Y231270D01*
X-171770D01*
Y239040D01*
D02*
G37*
G36*
X-161460Y228730D02*
X-169230D01*
Y220960D01*
X-161460D01*
Y228730D01*
D02*
G37*
G36*
X-171770D02*
X-179540D01*
Y220960D01*
X-171770D01*
Y228730D01*
D02*
G37*
G36*
X257000Y219589D02*
X255627Y219316D01*
X254462Y218538D01*
X253684Y217373D01*
X253411Y216000D01*
X253684Y214627D01*
X254462Y213462D01*
X255627Y212684D01*
X257000Y212411D01*
X258373Y212684D01*
X259538Y213462D01*
X260316Y214627D01*
X260589Y216000D01*
X260316Y217373D01*
X259538Y218538D01*
X258373Y219316D01*
X257000Y219589D01*
D02*
G37*
G36*
X101000Y212989D02*
X99627Y212716D01*
X98462Y211938D01*
X97684Y210773D01*
X97411Y209400D01*
X97684Y208027D01*
X98462Y206862D01*
X99627Y206084D01*
X101000Y205811D01*
X102373Y206084D01*
X103538Y206862D01*
X104316Y208027D01*
X104589Y209400D01*
X104316Y210773D01*
X103538Y211938D01*
X102373Y212716D01*
X101000Y212989D01*
D02*
G37*
G36*
X224250Y212589D02*
X222877Y212316D01*
X221712Y211538D01*
X220934Y210373D01*
X220661Y209000D01*
X220934Y207627D01*
X221712Y206462D01*
X222877Y205684D01*
X224250Y205411D01*
X225623Y205684D01*
X226788Y206462D01*
X227566Y207627D01*
X227839Y209000D01*
X227566Y210373D01*
X226788Y211538D01*
X225623Y212316D01*
X224250Y212589D01*
D02*
G37*
G36*
X199000Y266589D02*
X197627Y266316D01*
X196462Y265538D01*
X195684Y264373D01*
X195411Y263000D01*
X195684Y261627D01*
X196394Y260564D01*
X196441Y260314D01*
X196259Y259070D01*
X195462Y258538D01*
X194684Y257373D01*
X194411Y256000D01*
X194684Y254627D01*
X195462Y253462D01*
X196058Y253064D01*
Y171805D01*
X182195Y157942D01*
X148000D01*
X147257Y157795D01*
X146627Y157373D01*
X138702Y149449D01*
X138000Y149589D01*
X136627Y149316D01*
X135462Y148538D01*
X135264Y148241D01*
X133736D01*
X133538Y148538D01*
X132373Y149316D01*
X131000Y149589D01*
X130298Y149449D01*
X103373Y176373D01*
X102743Y176794D01*
X102000Y176942D01*
X84718D01*
X84039Y178212D01*
X84316Y178627D01*
X84589Y180000D01*
X84316Y181373D01*
X83538Y182538D01*
X82373Y183316D01*
X81000Y183589D01*
X79627Y183316D01*
X78462Y182538D01*
X77684Y181373D01*
X77411Y180000D01*
X77684Y178627D01*
X77961Y178212D01*
X77282Y176942D01*
X58726D01*
X50920Y184748D01*
X50290Y185170D01*
X49546Y185317D01*
X2936D01*
X2538Y185913D01*
X1373Y186691D01*
X0Y186964D01*
X-1373Y186691D01*
X-2538Y185913D01*
X-3316Y184748D01*
X-3589Y183375D01*
X-3316Y182002D01*
X-2538Y180837D01*
X-1373Y180059D01*
X0Y179786D01*
X1373Y180059D01*
X2538Y180837D01*
X2936Y181433D01*
X6649D01*
X6723Y181351D01*
X7212Y180163D01*
X6684Y179373D01*
X6411Y178000D01*
X6684Y176627D01*
X7462Y175462D01*
X8627Y174684D01*
X10000Y174411D01*
X11373Y174684D01*
X12538Y175462D01*
X12936Y176058D01*
X48196D01*
X53471Y170782D01*
X53471Y170782D01*
X54102Y170361D01*
X54845Y170213D01*
X54845Y170213D01*
X83084D01*
X83849Y168943D01*
X83679Y168092D01*
X55177Y139590D01*
X14766D01*
X14726Y139632D01*
X14203Y140860D01*
X14716Y141627D01*
X14989Y143000D01*
X14716Y144373D01*
X13938Y145538D01*
X12773Y146316D01*
X11400Y146589D01*
X10027Y146316D01*
X8862Y145538D01*
X8084Y144373D01*
X7811Y143000D01*
X8084Y141627D01*
X8597Y140860D01*
X8074Y139632D01*
X8034Y139590D01*
X-45000D01*
X-45991Y139393D01*
X-46831Y138831D01*
X-116831Y68831D01*
X-117393Y67991D01*
X-117590Y67000D01*
Y-74670D01*
X-124760Y-81840D01*
X-126107Y-81550D01*
X-126690Y-80462D01*
X-126244Y-79385D01*
X-125973Y-77325D01*
X-126244Y-75265D01*
X-126549Y-74529D01*
X-137929Y-81100D01*
X-149309Y-87670D01*
X-148825Y-88302D01*
X-147176Y-89567D01*
X-145257Y-90362D01*
X-144080Y-90517D01*
X-143264Y-91866D01*
X-143297Y-91945D01*
X-143525Y-93673D01*
X-143297Y-95402D01*
X-142630Y-97012D01*
X-141569Y-98395D01*
X-140186Y-99456D01*
X-138575Y-100123D01*
X-136847Y-100351D01*
X-135119Y-100123D01*
X-133509Y-99456D01*
X-124242Y-94106D01*
X-122859Y-93045D01*
X-121798Y-91662D01*
X-121131Y-90052D01*
X-120904Y-88323D01*
X-121131Y-86595D01*
X-121441Y-85847D01*
X-113169Y-77574D01*
X-112607Y-76734D01*
X-112410Y-75743D01*
Y65927D01*
X-43927Y134410D01*
X56250D01*
X57241Y134607D01*
X58081Y135169D01*
X87342Y164429D01*
X88623Y164684D01*
X89788Y165462D01*
X90566Y166627D01*
X90839Y168000D01*
X90651Y168943D01*
X91416Y170213D01*
X97040D01*
X120551Y146702D01*
X120411Y146000D01*
X120684Y144627D01*
X121462Y143462D01*
X122627Y142684D01*
X124000Y142411D01*
X125373Y142684D01*
X126538Y143462D01*
X126736Y143759D01*
X128264D01*
X128462Y143462D01*
X129627Y142684D01*
X131000Y142411D01*
X132373Y142684D01*
X133538Y143462D01*
X133736Y143759D01*
X135264D01*
X135462Y143462D01*
X136627Y142684D01*
X138000Y142411D01*
X139373Y142684D01*
X140538Y143462D01*
X140736Y143759D01*
X142264D01*
X142462Y143462D01*
X143627Y142684D01*
X145000Y142411D01*
X146373Y142684D01*
X147538Y143462D01*
X148316Y144627D01*
X148589Y146000D01*
X148449Y146702D01*
X152804Y151058D01*
X172451D01*
X172836Y149788D01*
X172462Y149538D01*
X171684Y148373D01*
X171411Y147000D01*
X171684Y145627D01*
X171961Y145212D01*
X171282Y143942D01*
X169000D01*
X169000Y143942D01*
X168257Y143794D01*
X167627Y143373D01*
X159195Y134942D01*
X152250D01*
X152250Y134942D01*
X151507Y134794D01*
X150877Y134373D01*
X150877Y134373D01*
X117702Y101199D01*
X117000Y101339D01*
X115627Y101066D01*
X114462Y100288D01*
X113684Y99123D01*
X113411Y97750D01*
X113684Y96377D01*
X114462Y95212D01*
X115627Y94434D01*
X117000Y94161D01*
X118373Y94434D01*
X119538Y95212D01*
X120316Y96377D01*
X120589Y97750D01*
X120449Y98452D01*
X153055Y131058D01*
X157652D01*
X158138Y129884D01*
X135627Y107373D01*
X135205Y106743D01*
X135058Y106000D01*
Y100686D01*
X134462Y100288D01*
X133684Y99123D01*
X133411Y97750D01*
X133684Y96377D01*
X134462Y95212D01*
X135627Y94434D01*
X137000Y94161D01*
X138373Y94434D01*
X139538Y95212D01*
X140316Y96377D01*
X140589Y97750D01*
X140316Y99123D01*
X139538Y100288D01*
X138942Y100686D01*
Y105196D01*
X144984Y111237D01*
X145970Y110427D01*
X145934Y110373D01*
X145661Y109000D01*
X145934Y107627D01*
X146712Y106462D01*
X147877Y105684D01*
X149250Y105411D01*
X150623Y105684D01*
X151788Y106462D01*
X152566Y107627D01*
X152839Y109000D01*
X152566Y110373D01*
X151788Y111538D01*
X150623Y112316D01*
X149250Y112589D01*
X147877Y112316D01*
X147823Y112280D01*
X147013Y113266D01*
X171264Y137518D01*
X180102D01*
X180594Y136596D01*
X180659Y136248D01*
X180411Y135000D01*
X180684Y133627D01*
X181217Y132829D01*
X181148Y132433D01*
X180795Y131665D01*
X180678Y131525D01*
X179627Y131316D01*
X178462Y130538D01*
X177684Y129373D01*
X177411Y128000D01*
X177684Y126627D01*
X178462Y125462D01*
X179627Y124684D01*
X181000Y124411D01*
X182373Y124684D01*
X183538Y125462D01*
X184316Y126627D01*
X184589Y128000D01*
X184316Y129373D01*
X183783Y130171D01*
X183852Y130567D01*
X184205Y131334D01*
X184322Y131475D01*
X185373Y131684D01*
X186538Y132462D01*
X187316Y133627D01*
X187589Y135000D01*
X187341Y136248D01*
X187406Y136596D01*
X187898Y137518D01*
X188460D01*
X189203Y137666D01*
X189833Y138087D01*
X190208Y138461D01*
X191021Y138149D01*
X191433Y137890D01*
X191684Y136627D01*
X192462Y135462D01*
X193627Y134684D01*
X195000Y134411D01*
X196373Y134684D01*
X197538Y135462D01*
X198316Y136627D01*
X198589Y138000D01*
X198316Y139373D01*
X197538Y140538D01*
X196373Y141316D01*
X195110Y141567D01*
X194851Y141979D01*
X194539Y142792D01*
X200459Y148713D01*
X203442D01*
X204185Y148861D01*
X204816Y149282D01*
X210657Y155123D01*
X211078Y155754D01*
X211226Y156497D01*
Y171446D01*
X212496Y171572D01*
X212566Y171223D01*
X212684Y170627D01*
X213462Y169462D01*
X214627Y168684D01*
X216000Y168411D01*
X217373Y168684D01*
X218538Y169462D01*
X219316Y170627D01*
X219589Y172000D01*
X219316Y173373D01*
X218538Y174538D01*
X217373Y175316D01*
X216000Y175589D01*
X214627Y175316D01*
X213462Y174538D01*
X212684Y173373D01*
X212566Y172777D01*
X212496Y172428D01*
X211226Y172554D01*
Y187026D01*
X212285Y187400D01*
X212496Y187439D01*
X213627Y186684D01*
X215000Y186411D01*
X216373Y186684D01*
X217538Y187462D01*
X218316Y188627D01*
X218589Y190000D01*
X218316Y191373D01*
X217538Y192538D01*
X216373Y193316D01*
X215000Y193589D01*
X213627Y193316D01*
X212496Y192561D01*
X212285Y192600D01*
X211226Y192974D01*
Y204492D01*
X212496Y205171D01*
X212627Y205084D01*
X214000Y204811D01*
X215373Y205084D01*
X216538Y205862D01*
X217316Y207027D01*
X217589Y208400D01*
X217316Y209773D01*
X216538Y210938D01*
X215373Y211716D01*
X214000Y211989D01*
X212627Y211716D01*
X212496Y211629D01*
X211226Y212308D01*
Y214479D01*
X215373Y218626D01*
X215373Y218627D01*
X215795Y219257D01*
X215942Y220000D01*
Y225000D01*
X215795Y225743D01*
X215373Y226374D01*
X208252Y233495D01*
Y238064D01*
X208848Y238462D01*
X209626Y239627D01*
X209899Y241000D01*
X209626Y242373D01*
X208848Y243538D01*
X207684Y244316D01*
X206310Y244589D01*
X205367Y244401D01*
X204097Y245166D01*
Y259845D01*
X204097Y259845D01*
X203950Y260588D01*
X203528Y261218D01*
X202449Y262298D01*
X202589Y263000D01*
X202316Y264373D01*
X201538Y265538D01*
X200373Y266316D01*
X199000Y266589D01*
D02*
G37*
G36*
X68000Y194589D02*
X66627Y194316D01*
X65462Y193538D01*
X64684Y192373D01*
X64411Y191000D01*
X64684Y189627D01*
X65462Y188462D01*
X66627Y187684D01*
X68000Y187411D01*
X69373Y187684D01*
X70538Y188462D01*
X71316Y189627D01*
X71589Y191000D01*
X71316Y192373D01*
X70538Y193538D01*
X69373Y194316D01*
X68000Y194589D01*
D02*
G37*
G36*
X-68000Y190589D02*
X-69373Y190316D01*
X-70538Y189538D01*
X-71316Y188373D01*
X-71589Y187000D01*
X-71316Y185627D01*
X-70538Y184462D01*
X-69373Y183684D01*
X-68000Y183411D01*
X-66627Y183684D01*
X-65462Y184462D01*
X-64684Y185627D01*
X-64411Y187000D01*
X-64684Y188373D01*
X-65462Y189538D01*
X-66627Y190316D01*
X-68000Y190589D01*
D02*
G37*
G36*
X-146000Y191863D02*
X-147861Y191493D01*
X-149439Y190439D01*
X-150493Y188861D01*
X-150863Y187000D01*
X-150493Y185139D01*
X-149439Y183561D01*
X-147861Y182507D01*
X-146000Y182136D01*
X-144139Y182507D01*
X-142561Y183561D01*
X-141507Y185139D01*
X-141137Y187000D01*
X-141507Y188861D01*
X-142561Y190439D01*
X-144139Y191493D01*
X-146000Y191863D01*
D02*
G37*
G36*
X-121500Y188439D02*
X-122873Y188166D01*
X-124038Y187388D01*
X-124816Y186223D01*
X-125089Y184850D01*
X-124816Y183477D01*
X-124038Y182312D01*
X-122873Y181534D01*
X-121500Y181261D01*
X-120127Y181534D01*
X-118962Y182312D01*
X-118184Y183477D01*
X-117911Y184850D01*
X-118184Y186223D01*
X-118962Y187388D01*
X-120127Y188166D01*
X-121500Y188439D01*
D02*
G37*
G36*
X-132000Y185989D02*
X-133373Y185716D01*
X-134538Y184938D01*
X-135316Y183773D01*
X-135589Y182400D01*
X-135316Y181027D01*
X-134538Y179862D01*
X-133373Y179084D01*
X-132000Y178811D01*
X-130627Y179084D01*
X-129462Y179862D01*
X-128684Y181027D01*
X-128411Y182400D01*
X-128684Y183773D01*
X-129462Y184938D01*
X-130627Y185716D01*
X-132000Y185989D01*
D02*
G37*
G36*
X-69600Y180589D02*
X-70973Y180316D01*
X-72138Y179538D01*
X-72916Y178373D01*
X-73189Y177000D01*
X-72916Y175627D01*
X-72138Y174462D01*
X-70973Y173684D01*
X-69600Y173411D01*
X-68227Y173684D01*
X-67062Y174462D01*
X-66284Y175627D01*
X-66011Y177000D01*
X-66284Y178373D01*
X-67062Y179538D01*
X-68227Y180316D01*
X-69600Y180589D01*
D02*
G37*
G36*
X-1270Y173141D02*
X-2060Y173037D01*
X-3979Y172242D01*
X-5627Y170977D01*
X-6350Y170035D01*
X-7926Y170003D01*
X-7979Y170072D01*
X-9361Y171133D01*
X-10972Y171800D01*
X-12700Y172027D01*
X-14428Y171800D01*
X-16039Y171133D01*
X-17421Y170072D01*
X-18483Y168689D01*
X-19150Y167078D01*
X-19377Y165350D01*
Y154650D01*
X-19150Y152922D01*
X-18483Y151312D01*
X-17421Y149929D01*
X-16039Y148867D01*
X-14428Y148200D01*
X-12700Y147973D01*
X-10972Y148200D01*
X-9361Y148867D01*
X-7979Y149929D01*
X-7926Y149997D01*
X-6350Y149965D01*
X-5627Y149023D01*
X-3979Y147758D01*
X-2060Y146963D01*
X-1270Y146859D01*
Y160000D01*
Y173141D01*
D02*
G37*
G36*
X-61000Y166989D02*
X-62373Y166716D01*
X-63538Y165938D01*
X-64316Y164773D01*
X-64589Y163400D01*
X-64316Y162027D01*
X-63538Y160862D01*
X-62373Y160084D01*
X-61000Y159811D01*
X-59627Y160084D01*
X-58462Y160862D01*
X-57684Y162027D01*
X-57411Y163400D01*
X-57684Y164773D01*
X-58462Y165938D01*
X-59627Y166716D01*
X-61000Y166989D01*
D02*
G37*
G36*
X-71000D02*
X-72373Y166716D01*
X-73538Y165938D01*
X-74316Y164773D01*
X-74589Y163400D01*
X-74316Y162027D01*
X-73538Y160862D01*
X-72373Y160084D01*
X-71000Y159811D01*
X-69627Y160084D01*
X-68462Y160862D01*
X-67684Y162027D01*
X-67411Y163400D01*
X-67684Y164773D01*
X-68462Y165938D01*
X-69627Y166716D01*
X-71000Y166989D01*
D02*
G37*
G36*
X224250Y161589D02*
X222877Y161316D01*
X221712Y160538D01*
X220934Y159373D01*
X220661Y158000D01*
X220934Y156627D01*
X221712Y155462D01*
X222877Y154684D01*
X224250Y154411D01*
X225623Y154684D01*
X226788Y155462D01*
X227566Y156627D01*
X227839Y158000D01*
X227566Y159373D01*
X226788Y160538D01*
X225623Y161316D01*
X224250Y161589D01*
D02*
G37*
G36*
X1270Y173141D02*
Y160000D01*
Y146859D01*
X2060Y146963D01*
X3979Y147758D01*
X5627Y149023D01*
X6350Y149965D01*
X7926Y149997D01*
X7979Y149929D01*
X9361Y148867D01*
X10972Y148200D01*
X12700Y147973D01*
X14428Y148200D01*
X16039Y148867D01*
X17421Y149929D01*
X18483Y151312D01*
X19150Y152922D01*
X19377Y154650D01*
Y165350D01*
X19150Y167078D01*
X18483Y168689D01*
X17421Y170072D01*
X16039Y171133D01*
X14428Y171800D01*
X12700Y172027D01*
X10972Y171800D01*
X9361Y171133D01*
X7979Y170072D01*
X7926Y170003D01*
X6350Y170035D01*
X5627Y170977D01*
X3979Y172242D01*
X2060Y173037D01*
X1270Y173141D01*
D02*
G37*
G36*
X-112000Y154589D02*
X-113373Y154316D01*
X-114538Y153538D01*
X-115316Y152373D01*
X-115589Y151000D01*
X-115316Y149627D01*
X-114538Y148462D01*
X-113373Y147684D01*
X-112000Y147411D01*
X-110627Y147684D01*
X-109462Y148462D01*
X-108684Y149627D01*
X-108411Y151000D01*
X-108684Y152373D01*
X-109462Y153538D01*
X-110627Y154316D01*
X-112000Y154589D01*
D02*
G37*
G36*
X220400Y147589D02*
X219027Y147316D01*
X217940Y146590D01*
X212000D01*
X211009Y146393D01*
X210169Y145831D01*
X195927Y131590D01*
X193000D01*
X192009Y131393D01*
X191169Y130831D01*
X181169Y120831D01*
X180607Y119991D01*
X180410Y119000D01*
Y98073D01*
X171177Y88840D01*
X159460D01*
X158373Y89566D01*
X157000Y89839D01*
X155627Y89566D01*
X154462Y88788D01*
X153684Y87623D01*
X153411Y86250D01*
X153684Y84877D01*
X154410Y83790D01*
Y70073D01*
X149169Y64831D01*
X148607Y63991D01*
X148410Y63000D01*
Y43460D01*
X147684Y42373D01*
X147411Y41000D01*
X147684Y39627D01*
X148462Y38462D01*
X149627Y37684D01*
X151000Y37411D01*
X152373Y37684D01*
X153538Y38462D01*
X154316Y39627D01*
X154589Y41000D01*
X154316Y42373D01*
X153590Y43460D01*
Y61927D01*
X158831Y67169D01*
X159393Y68009D01*
X159590Y69000D01*
Y83660D01*
X172250D01*
X173241Y83857D01*
X174081Y84419D01*
X184831Y95169D01*
X185393Y96009D01*
X185590Y97000D01*
Y117927D01*
X194073Y126410D01*
X197000D01*
X197991Y126607D01*
X198831Y127169D01*
X212878Y141216D01*
X213550Y141124D01*
X213855Y139800D01*
X213462Y139538D01*
X212684Y138373D01*
X212411Y137000D01*
X212684Y135627D01*
X213462Y134462D01*
X214627Y133684D01*
X216000Y133411D01*
X217373Y133684D01*
X218538Y134462D01*
X219316Y135627D01*
X219589Y137000D01*
X219316Y138373D01*
X218538Y139538D01*
X218437Y139605D01*
X219027Y140684D01*
X220400Y140411D01*
X221773Y140684D01*
X222938Y141462D01*
X223716Y142627D01*
X223989Y144000D01*
X223716Y145373D01*
X222938Y146538D01*
X221773Y147316D01*
X220400Y147589D01*
D02*
G37*
G36*
X161400D02*
X160027Y147316D01*
X158862Y146538D01*
X158084Y145373D01*
X157811Y144000D01*
X158084Y142627D01*
X158862Y141462D01*
X160027Y140684D01*
X161400Y140411D01*
X162773Y140684D01*
X163938Y141462D01*
X164716Y142627D01*
X164989Y144000D01*
X164716Y145373D01*
X163938Y146538D01*
X162773Y147316D01*
X161400Y147589D01*
D02*
G37*
G36*
X229000Y116589D02*
X227627Y116316D01*
X226462Y115538D01*
X225684Y114373D01*
X225411Y113000D01*
X225684Y111627D01*
X226462Y110462D01*
X227627Y109684D01*
X229000Y109411D01*
X230373Y109684D01*
X231538Y110462D01*
X232316Y111627D01*
X232589Y113000D01*
X232316Y114373D01*
X231538Y115538D01*
X230373Y116316D01*
X229000Y116589D01*
D02*
G37*
G36*
X399000Y118863D02*
X397139Y118493D01*
X395561Y117439D01*
X394507Y115861D01*
X394137Y114000D01*
X394507Y112139D01*
X395561Y110561D01*
X397139Y109507D01*
X399000Y109137D01*
X400861Y109507D01*
X402439Y110561D01*
X403493Y112139D01*
X403863Y114000D01*
X403493Y115861D01*
X402439Y117439D01*
X400861Y118493D01*
X399000Y118863D01*
D02*
G37*
G36*
X383000D02*
X381139Y118493D01*
X379561Y117439D01*
X378507Y115861D01*
X378137Y114000D01*
X378507Y112139D01*
X379561Y110561D01*
X381139Y109507D01*
X383000Y109137D01*
X384861Y109507D01*
X386439Y110561D01*
X387493Y112139D01*
X387864Y114000D01*
X387493Y115861D01*
X386439Y117439D01*
X384861Y118493D01*
X383000Y118863D01*
D02*
G37*
G36*
X283500Y114589D02*
X282127Y114316D01*
X280962Y113538D01*
X280813Y113315D01*
X272000D01*
X271114Y113138D01*
X270363Y112637D01*
X231363Y73637D01*
X230862Y72886D01*
X230686Y72000D01*
Y61959D01*
X229041Y60314D01*
X198000D01*
X197114Y60138D01*
X196363Y59637D01*
X185363Y48637D01*
X184862Y47886D01*
X184685Y47000D01*
Y23987D01*
X184462Y23838D01*
X183684Y22673D01*
X183411Y21300D01*
X183684Y19927D01*
X184462Y18762D01*
X185627Y17984D01*
X187000Y17711D01*
X188373Y17984D01*
X189415Y18680D01*
X189987Y18540D01*
X190686Y18194D01*
Y-12741D01*
X187263Y-16164D01*
X187000Y-16111D01*
X185627Y-16384D01*
X184462Y-17162D01*
X183684Y-18327D01*
X183411Y-19700D01*
X183684Y-21074D01*
X184462Y-22238D01*
X185627Y-23016D01*
X187000Y-23289D01*
X187801Y-23130D01*
X188427Y-24300D01*
X185363Y-27363D01*
X184862Y-28114D01*
X184685Y-29000D01*
Y-58013D01*
X184462Y-58162D01*
X183684Y-59327D01*
X183411Y-60700D01*
X183684Y-62073D01*
X184462Y-63238D01*
X185627Y-64016D01*
X187000Y-64289D01*
X188373Y-64016D01*
X189538Y-63238D01*
X190316Y-62073D01*
X190589Y-60700D01*
X190316Y-59327D01*
X189538Y-58162D01*
X189314Y-58013D01*
Y-29959D01*
X198637Y-20637D01*
X199138Y-19886D01*
X199195Y-19601D01*
X200411Y-19700D01*
X200487Y-20084D01*
X200684Y-21074D01*
X201462Y-22238D01*
X202627Y-23016D01*
X204000Y-23289D01*
X205373Y-23016D01*
X206538Y-22238D01*
X207316Y-21074D01*
X207589Y-19700D01*
X207316Y-18327D01*
X206538Y-17162D01*
X205373Y-16384D01*
X204000Y-16111D01*
X202627Y-16384D01*
X201462Y-17162D01*
X200684Y-18327D01*
X200585Y-18828D01*
X199314Y-18703D01*
X199314Y-18336D01*
Y20303D01*
X200585Y20428D01*
X200684Y19927D01*
X201462Y18762D01*
X202627Y17984D01*
X204000Y17711D01*
X205373Y17984D01*
X206538Y18762D01*
X207316Y19927D01*
X207589Y21300D01*
X207549Y21504D01*
X208629Y22584D01*
X208790Y22552D01*
X210163Y22825D01*
X211328Y23603D01*
X212106Y24767D01*
X212379Y26140D01*
X212106Y27514D01*
X211328Y28678D01*
X210163Y29456D01*
X208790Y29729D01*
X207417Y29456D01*
X206252Y28678D01*
X205474Y27514D01*
X205201Y26140D01*
X205242Y25937D01*
X204161Y24857D01*
X204000Y24889D01*
X202627Y24616D01*
X201462Y23838D01*
X200684Y22673D01*
X200585Y22172D01*
X199314Y22297D01*
Y40041D01*
X206959Y47685D01*
X224198D01*
X224877Y46416D01*
X224507Y45861D01*
X224137Y44000D01*
X224507Y42139D01*
X225561Y40561D01*
X227139Y39507D01*
X229000Y39137D01*
X230861Y39507D01*
X232439Y40561D01*
X233493Y42139D01*
X233863Y44000D01*
X233493Y45861D01*
X233123Y46416D01*
X233802Y47685D01*
X234000D01*
X234886Y47862D01*
X235637Y48363D01*
X242637Y55363D01*
X243138Y56114D01*
X243314Y57000D01*
Y64253D01*
X244585Y64378D01*
X244684Y63877D01*
X245462Y62712D01*
X246627Y61934D01*
X248000Y61661D01*
X249373Y61934D01*
X250538Y62712D01*
X251316Y63877D01*
X251589Y65250D01*
X251316Y66623D01*
X250538Y67788D01*
X249373Y68566D01*
X248693Y68701D01*
X248818Y69971D01*
X257182D01*
X257307Y68701D01*
X256627Y68566D01*
X255462Y67788D01*
X254684Y66623D01*
X254411Y65250D01*
X254684Y63877D01*
X255462Y62712D01*
X256627Y61934D01*
X257301Y61800D01*
X257440Y61772D01*
Y60478D01*
X257301Y60450D01*
X256627Y60316D01*
X255462Y59538D01*
X254684Y58373D01*
X254411Y57000D01*
X254684Y55627D01*
X255462Y54462D01*
X256627Y53684D01*
X258000Y53411D01*
X259373Y53684D01*
X260538Y54462D01*
X261316Y55627D01*
X261589Y57000D01*
X261316Y58373D01*
X260538Y59538D01*
X259373Y60316D01*
X258699Y60450D01*
X258560Y60478D01*
Y61772D01*
X258699Y61800D01*
X259373Y61934D01*
X260538Y62712D01*
X261316Y63877D01*
X261589Y65250D01*
X261316Y66623D01*
X260538Y67788D01*
X259373Y68566D01*
X258693Y68701D01*
X258818Y69971D01*
X279286D01*
X280171Y70147D01*
X280922Y70649D01*
X282820Y72546D01*
X283500Y72411D01*
X284873Y72684D01*
X286038Y73462D01*
X286816Y74627D01*
X287089Y76000D01*
X286816Y77373D01*
X286038Y78538D01*
X284873Y79316D01*
X283500Y79589D01*
X282127Y79316D01*
X280962Y78538D01*
X280184Y77373D01*
X279957Y76230D01*
X278327Y74600D01*
X246669D01*
X246142Y75585D01*
X246105Y75832D01*
X251959Y81685D01*
X274313D01*
X274462Y81462D01*
X275627Y80684D01*
X277000Y80411D01*
X278373Y80684D01*
X279538Y81462D01*
X280316Y82627D01*
X280589Y84000D01*
X280316Y85373D01*
X279538Y86538D01*
X278373Y87316D01*
X277000Y87589D01*
X275627Y87316D01*
X274462Y86538D01*
X274313Y86314D01*
X252384D01*
X251858Y87584D01*
X272959Y108686D01*
X280813D01*
X280962Y108462D01*
X282127Y107684D01*
X283500Y107411D01*
X284873Y107684D01*
X286038Y108462D01*
X286816Y109627D01*
X287089Y111000D01*
X286816Y112373D01*
X286038Y113538D01*
X284873Y114316D01*
X283500Y114589D01*
D02*
G37*
G36*
X237000Y113189D02*
X235627Y112916D01*
X234462Y112138D01*
X233684Y110973D01*
X233411Y109600D01*
X233684Y108227D01*
X234462Y107062D01*
X235627Y106284D01*
X237000Y106011D01*
X238373Y106284D01*
X239538Y107062D01*
X240316Y108227D01*
X240589Y109600D01*
X240316Y110973D01*
X239538Y112138D01*
X238373Y112916D01*
X237000Y113189D01*
D02*
G37*
G36*
X173000Y115589D02*
X171627Y115316D01*
X170462Y114538D01*
X169684Y113373D01*
X169411Y112000D01*
Y106400D01*
X169684Y105027D01*
X170462Y103862D01*
X171627Y103084D01*
X173000Y102811D01*
X174373Y103084D01*
X175538Y103862D01*
X176316Y105027D01*
X176589Y106400D01*
Y112000D01*
X176316Y113373D01*
X175538Y114538D01*
X174373Y115316D01*
X173000Y115589D01*
D02*
G37*
G36*
X391250Y110863D02*
X389389Y110493D01*
X387811Y109439D01*
X386757Y107861D01*
X386387Y106000D01*
X386757Y104139D01*
X387811Y102561D01*
X389389Y101507D01*
X391250Y101137D01*
X393111Y101507D01*
X394689Y102561D01*
X395743Y104139D01*
X396114Y106000D01*
X395743Y107861D01*
X394689Y109439D01*
X393111Y110493D01*
X391250Y110863D01*
D02*
G37*
G36*
X157000Y101339D02*
X155627Y101066D01*
X154462Y100288D01*
X153684Y99123D01*
X153411Y97750D01*
X153684Y96377D01*
X154462Y95212D01*
X155627Y94434D01*
X157000Y94161D01*
X158373Y94434D01*
X159538Y95212D01*
X160316Y96377D01*
X160589Y97750D01*
X160316Y99123D01*
X159538Y100288D01*
X158373Y101066D01*
X157000Y101339D01*
D02*
G37*
G36*
X399000Y102863D02*
X397139Y102493D01*
X395561Y101439D01*
X394507Y99861D01*
X394137Y98000D01*
X394507Y96139D01*
X395561Y94561D01*
X397139Y93507D01*
X399000Y93137D01*
X400861Y93507D01*
X402439Y94561D01*
X403493Y96139D01*
X403863Y98000D01*
X403493Y99861D01*
X402439Y101439D01*
X400861Y102493D01*
X399000Y102863D01*
D02*
G37*
G36*
X383000D02*
X381139Y102493D01*
X379561Y101439D01*
X378507Y99861D01*
X378137Y98000D01*
X378507Y96139D01*
X379561Y94561D01*
X381139Y93507D01*
X383000Y93137D01*
X384861Y93507D01*
X386439Y94561D01*
X387493Y96139D01*
X387864Y98000D01*
X387493Y99861D01*
X386439Y101439D01*
X384861Y102493D01*
X383000Y102863D01*
D02*
G37*
G36*
X229000Y99589D02*
X227627Y99316D01*
X226462Y98538D01*
X225684Y97373D01*
X225411Y96000D01*
X225684Y94627D01*
X226462Y93462D01*
X227627Y92684D01*
X229000Y92411D01*
X230373Y92684D01*
X231538Y93462D01*
X232316Y94627D01*
X232589Y96000D01*
X232316Y97373D01*
X231538Y98538D01*
X230373Y99316D01*
X229000Y99589D01*
D02*
G37*
G36*
X303000Y93189D02*
X301627Y92916D01*
X300462Y92138D01*
X299684Y90973D01*
X299411Y89600D01*
X299684Y88227D01*
X300462Y87062D01*
X301627Y86284D01*
X303000Y86011D01*
X304373Y86284D01*
X305538Y87062D01*
X306316Y88227D01*
X306589Y89600D01*
X306316Y90973D01*
X305538Y92138D01*
X304373Y92916D01*
X303000Y93189D01*
D02*
G37*
G36*
X221000Y92589D02*
X219627Y92316D01*
X218462Y91538D01*
X217684Y90373D01*
X217411Y89000D01*
X217684Y87627D01*
X218462Y86462D01*
X219627Y85684D01*
X221000Y85411D01*
X222373Y85684D01*
X223538Y86462D01*
X224316Y87627D01*
X224589Y89000D01*
X224316Y90373D01*
X223538Y91538D01*
X222373Y92316D01*
X221000Y92589D01*
D02*
G37*
G36*
X0Y111348D02*
X-3189Y111034D01*
X-6256Y110104D01*
X-9083Y108593D01*
X-11560Y106560D01*
X-13593Y104082D01*
X-15104Y101256D01*
X-16035Y98189D01*
X-16349Y95000D01*
X-16035Y91810D01*
X-15104Y88743D01*
X-13593Y85917D01*
X-11560Y83439D01*
X-9083Y81406D01*
X-6256Y79895D01*
X-3189Y78965D01*
X0Y78651D01*
X3189Y78965D01*
X6256Y79895D01*
X9083Y81406D01*
X11560Y83439D01*
X13593Y85917D01*
X15104Y88743D01*
X16035Y91810D01*
X16349Y95000D01*
X16035Y98189D01*
X15104Y101256D01*
X13593Y104082D01*
X11560Y106560D01*
X9083Y108593D01*
X6256Y110104D01*
X3189Y111034D01*
X0Y111348D01*
D02*
G37*
G36*
X137000Y89839D02*
X135627Y89566D01*
X134462Y88788D01*
X133684Y87623D01*
X133411Y86250D01*
X133684Y84877D01*
X134410Y83790D01*
Y74298D01*
X133140Y73772D01*
X120571Y86342D01*
X120316Y87623D01*
X119538Y88788D01*
X118373Y89566D01*
X117000Y89839D01*
X115627Y89566D01*
X114462Y88788D01*
X113684Y87623D01*
X113411Y86250D01*
X113684Y84877D01*
X114462Y83712D01*
X115627Y82934D01*
X116908Y82679D01*
X129410Y70177D01*
Y-22000D01*
X129607Y-22991D01*
X130169Y-23831D01*
X147429Y-41092D01*
X147684Y-42373D01*
X148462Y-43538D01*
X149627Y-44316D01*
X151000Y-44589D01*
X152373Y-44316D01*
X153538Y-43538D01*
X154316Y-42373D01*
X154589Y-41000D01*
X154316Y-39627D01*
X153538Y-38462D01*
X152373Y-37684D01*
X151092Y-37429D01*
X134590Y-20927D01*
Y10952D01*
X135860Y11478D01*
X147429Y-92D01*
X147684Y-1373D01*
X148462Y-2538D01*
X149627Y-3316D01*
X151000Y-3589D01*
X152373Y-3316D01*
X153538Y-2538D01*
X154316Y-1373D01*
X154589Y0D01*
X154316Y1373D01*
X153538Y2538D01*
X152373Y3316D01*
X151092Y3571D01*
X139590Y15073D01*
Y83790D01*
X140316Y84877D01*
X140589Y86250D01*
X140316Y87623D01*
X139538Y88788D01*
X138373Y89566D01*
X137000Y89839D01*
D02*
G37*
G36*
X361040Y73040D02*
X353270D01*
Y65270D01*
X361040D01*
Y73040D01*
D02*
G37*
G36*
X350730D02*
X342960D01*
Y65270D01*
X350730D01*
Y73040D01*
D02*
G37*
G36*
X218000Y68839D02*
X216626Y68566D01*
X215462Y67788D01*
X214684Y66623D01*
X214411Y65250D01*
X214684Y63877D01*
X215462Y62712D01*
X216626Y61934D01*
X218000Y61661D01*
X219373Y61934D01*
X220538Y62712D01*
X221316Y63877D01*
X221589Y65250D01*
X221316Y66623D01*
X220538Y67788D01*
X219373Y68566D01*
X218000Y68839D01*
D02*
G37*
G36*
X208000D02*
X206627Y68566D01*
X205462Y67788D01*
X204684Y66623D01*
X204411Y65250D01*
X204684Y63877D01*
X205462Y62712D01*
X206627Y61934D01*
X208000Y61661D01*
X209373Y61934D01*
X210538Y62712D01*
X211316Y63877D01*
X211589Y65250D01*
X211316Y66623D01*
X210538Y67788D01*
X209373Y68566D01*
X208000Y68839D01*
D02*
G37*
G36*
X188000D02*
X186627Y68566D01*
X185462Y67788D01*
X184684Y66623D01*
X184411Y65250D01*
X184684Y63877D01*
X185462Y62712D01*
X186627Y61934D01*
X188000Y61661D01*
X189373Y61934D01*
X190538Y62712D01*
X191316Y63877D01*
X191589Y65250D01*
X191316Y66623D01*
X190538Y67788D01*
X189373Y68566D01*
X188000Y68839D01*
D02*
G37*
G36*
X69000Y80872D02*
X65927Y80467D01*
X63064Y79281D01*
X60606Y77394D01*
X58719Y74936D01*
X57533Y72073D01*
X57128Y69000D01*
X57533Y65927D01*
X58719Y63064D01*
X60606Y60606D01*
X63064Y58719D01*
X65927Y57533D01*
X69000Y57128D01*
X72073Y57533D01*
X74936Y58719D01*
X77394Y60606D01*
X79281Y63064D01*
X80467Y65927D01*
X80872Y69000D01*
X80467Y72073D01*
X79281Y74936D01*
X77394Y77394D01*
X74936Y79281D01*
X72073Y80467D01*
X69000Y80872D01*
D02*
G37*
G36*
X-69000D02*
X-72073Y80467D01*
X-74936Y79281D01*
X-77394Y77394D01*
X-79281Y74936D01*
X-80467Y72073D01*
X-80872Y69000D01*
X-80467Y65927D01*
X-79281Y63064D01*
X-77394Y60606D01*
X-74936Y58719D01*
X-72073Y57533D01*
X-69000Y57128D01*
X-65927Y57533D01*
X-63064Y58719D01*
X-60606Y60606D01*
X-58719Y63064D01*
X-57533Y65927D01*
X-57128Y69000D01*
X-57533Y72073D01*
X-58719Y74936D01*
X-60606Y77394D01*
X-63064Y79281D01*
X-65927Y80467D01*
X-69000Y80872D01*
D02*
G37*
G36*
X361040Y62730D02*
X353270D01*
Y54960D01*
X361040D01*
Y62730D01*
D02*
G37*
G36*
X350730D02*
X342960D01*
Y54960D01*
X350730D01*
Y62730D01*
D02*
G37*
G36*
X302000Y58189D02*
X300627Y57916D01*
X299462Y57138D01*
X298684Y55973D01*
X298411Y54600D01*
X298684Y53227D01*
X299462Y52062D01*
X300627Y51284D01*
X302000Y51011D01*
X303373Y51284D01*
X304538Y52062D01*
X305316Y53227D01*
X305589Y54600D01*
X305316Y55973D01*
X304538Y57138D01*
X303373Y57916D01*
X302000Y58189D01*
D02*
G37*
G36*
X372000Y71837D02*
X369972Y71570D01*
X368082Y70787D01*
X366458Y69542D01*
X365213Y67919D01*
X364430Y66028D01*
X364163Y64000D01*
X364430Y61972D01*
X365213Y60082D01*
X366458Y58458D01*
X367370Y57759D01*
X367054Y56401D01*
X366627Y56316D01*
X365462Y55538D01*
X364684Y54373D01*
X364411Y53000D01*
X364684Y51627D01*
X365462Y50462D01*
X366627Y49684D01*
X366812Y49647D01*
Y48353D01*
X366627Y48316D01*
X365462Y47538D01*
X364684Y46373D01*
X364411Y45000D01*
X364684Y43627D01*
X365462Y42462D01*
X366627Y41684D01*
X368000Y41411D01*
X369373Y41684D01*
X370538Y42462D01*
X371316Y43627D01*
X371353Y43812D01*
X372647D01*
X372684Y43627D01*
X373462Y42462D01*
X374627Y41684D01*
X376000Y41411D01*
X377373Y41684D01*
X378538Y42462D01*
X379316Y43627D01*
X379589Y45000D01*
X379316Y46373D01*
X378538Y47538D01*
X377373Y48316D01*
X377188Y48353D01*
Y49647D01*
X377373Y49684D01*
X378538Y50462D01*
X379316Y51627D01*
X379589Y53000D01*
X379316Y54373D01*
X378538Y55538D01*
X377373Y56316D01*
X376946Y56401D01*
X376630Y57759D01*
X377542Y58458D01*
X378787Y60082D01*
X379570Y61972D01*
X379837Y64000D01*
X379570Y66028D01*
X378787Y67919D01*
X377542Y69542D01*
X375919Y70787D01*
X374028Y71570D01*
X372000Y71837D01*
D02*
G37*
G36*
X244000Y48863D02*
X242139Y48493D01*
X240561Y47439D01*
X239507Y45861D01*
X239137Y44000D01*
X239507Y42139D01*
X240561Y40561D01*
X242139Y39507D01*
X244000Y39137D01*
X245861Y39507D01*
X247439Y40561D01*
X248493Y42139D01*
X248863Y44000D01*
X248493Y45861D01*
X247439Y47439D01*
X245861Y48493D01*
X244000Y48863D01*
D02*
G37*
G36*
X276000Y37863D02*
X274139Y37493D01*
X272561Y36439D01*
X271439D01*
X269861Y37493D01*
X268000Y37863D01*
X266139Y37493D01*
X264561Y36439D01*
X263439D01*
X261861Y37493D01*
X260000Y37863D01*
X258139Y37493D01*
X256561Y36439D01*
X255507Y34861D01*
X255137Y33000D01*
X255507Y31139D01*
X256561Y29561D01*
X258139Y28507D01*
X260000Y28136D01*
X261861Y28507D01*
X263439Y29561D01*
X264561D01*
X266139Y28507D01*
X268000Y28136D01*
X269861Y28507D01*
X271439Y29561D01*
X272561D01*
X274139Y28507D01*
X276000Y28136D01*
X277861Y28507D01*
X279439Y29561D01*
X280493Y31139D01*
X280863Y33000D01*
X280493Y34861D01*
X279439Y36439D01*
X277861Y37493D01*
X276000Y37863D01*
D02*
G37*
G36*
X244000Y33863D02*
X242139Y33493D01*
X240561Y32439D01*
X239507Y30861D01*
X239137Y29000D01*
X239507Y27139D01*
X240561Y25561D01*
X242139Y24507D01*
X244000Y24137D01*
X245861Y24507D01*
X247439Y25561D01*
X248493Y27139D01*
X248863Y29000D01*
X248493Y30861D01*
X247439Y32439D01*
X245861Y33493D01*
X244000Y33863D01*
D02*
G37*
G36*
X229000D02*
X227139Y33493D01*
X225561Y32439D01*
X224507Y30861D01*
X224137Y29000D01*
X224507Y27139D01*
X225561Y25561D01*
X227139Y24507D01*
X229000Y24137D01*
X230861Y24507D01*
X232439Y25561D01*
X233493Y27139D01*
X233863Y29000D01*
X233493Y30861D01*
X232439Y32439D01*
X230861Y33493D01*
X229000Y33863D01*
D02*
G37*
G36*
X177250Y24889D02*
X175877Y24616D01*
X174712Y23838D01*
X173934Y22673D01*
X173800Y21999D01*
X173772Y21860D01*
X172478D01*
X172450Y21999D01*
X172316Y22673D01*
X171538Y23838D01*
X170373Y24616D01*
X169000Y24889D01*
X167627Y24616D01*
X166462Y23838D01*
X165684Y22673D01*
X165411Y21300D01*
X165684Y19927D01*
X166462Y18762D01*
X167627Y17984D01*
X169000Y17711D01*
X170373Y17984D01*
X171538Y18762D01*
X172316Y19927D01*
X172450Y20601D01*
X172478Y20740D01*
X173772D01*
X173800Y20601D01*
X173934Y19927D01*
X174712Y18762D01*
X175877Y17984D01*
X177250Y17711D01*
X178623Y17984D01*
X179788Y18762D01*
X180566Y19927D01*
X180839Y21300D01*
X180566Y22673D01*
X179788Y23838D01*
X178623Y24616D01*
X177250Y24889D01*
D02*
G37*
G36*
X418730Y27525D02*
X415678Y27285D01*
X411463Y26273D01*
X407458Y24614D01*
X403762Y22349D01*
X400466Y19534D01*
X397650Y16238D01*
X395386Y12542D01*
X393727Y8537D01*
X392715Y4322D01*
X392474Y1270D01*
X418730D01*
Y27525D01*
D02*
G37*
G36*
X244000Y7863D02*
X242139Y7493D01*
X240561Y6439D01*
X239507Y4861D01*
X239137Y3000D01*
X239507Y1139D01*
X240561Y-439D01*
X242139Y-1493D01*
X244000Y-1863D01*
X245861Y-1493D01*
X247439Y-439D01*
X248493Y1139D01*
X248863Y3000D01*
X248493Y4861D01*
X247439Y6439D01*
X245861Y7493D01*
X244000Y7863D01*
D02*
G37*
G36*
X229000D02*
X227139Y7493D01*
X225561Y6439D01*
X224507Y4861D01*
X224137Y3000D01*
X224507Y1139D01*
X225561Y-439D01*
X227139Y-1493D01*
X229000Y-1863D01*
X230861Y-1493D01*
X232439Y-439D01*
X233493Y1139D01*
X233863Y3000D01*
X233493Y4861D01*
X232439Y6439D01*
X230861Y7493D01*
X229000Y7863D01*
D02*
G37*
G36*
X80000Y16349D02*
X76810Y16035D01*
X73744Y15104D01*
X70917Y13593D01*
X68440Y11560D01*
X66406Y9083D01*
X64896Y6256D01*
X63965Y3189D01*
X63651Y0D01*
X63965Y-3189D01*
X64896Y-6256D01*
X66406Y-9083D01*
X68440Y-11560D01*
X70917Y-13593D01*
X73744Y-15104D01*
X76810Y-16035D01*
X80000Y-16349D01*
X83189Y-16035D01*
X86256Y-15104D01*
X89083Y-13593D01*
X91560Y-11560D01*
X93593Y-9083D01*
X95104Y-6256D01*
X96034Y-3189D01*
X96348Y0D01*
X96034Y3189D01*
X95104Y6256D01*
X93593Y9083D01*
X91560Y11560D01*
X89083Y13593D01*
X86256Y15104D01*
X83189Y16035D01*
X80000Y16349D01*
D02*
G37*
G36*
X-80000D02*
X-83190Y16035D01*
X-86257Y15104D01*
X-89083Y13593D01*
X-91561Y11560D01*
X-93594Y9083D01*
X-95105Y6256D01*
X-96035Y3189D01*
X-96349Y0D01*
X-96035Y-3189D01*
X-95105Y-6256D01*
X-93594Y-9083D01*
X-91561Y-11560D01*
X-89083Y-13593D01*
X-86257Y-15104D01*
X-83190Y-16035D01*
X-80000Y-16349D01*
X-76811Y-16035D01*
X-73744Y-15104D01*
X-70918Y-13593D01*
X-68440Y-11560D01*
X-66407Y-9083D01*
X-64896Y-6256D01*
X-63966Y-3189D01*
X-63652Y0D01*
X-63966Y3189D01*
X-64896Y6256D01*
X-66407Y9083D01*
X-68440Y11560D01*
X-70918Y13593D01*
X-73744Y15104D01*
X-76811Y16035D01*
X-80000Y16349D01*
D02*
G37*
G36*
X244000Y-7137D02*
X242139Y-7507D01*
X240561Y-8561D01*
X239507Y-10139D01*
X239137Y-12000D01*
X239507Y-13861D01*
X240561Y-15439D01*
X242139Y-16493D01*
X244000Y-16863D01*
X245861Y-16493D01*
X247439Y-15439D01*
X248493Y-13861D01*
X248863Y-12000D01*
X248493Y-10139D01*
X247439Y-8561D01*
X245861Y-7507D01*
X244000Y-7137D01*
D02*
G37*
G36*
X229000D02*
X227139Y-7507D01*
X225561Y-8561D01*
X224507Y-10139D01*
X224137Y-12000D01*
X224507Y-13861D01*
X225561Y-15439D01*
X227139Y-16493D01*
X229000Y-16863D01*
X230861Y-16493D01*
X232439Y-15439D01*
X233493Y-13861D01*
X233863Y-12000D01*
X233493Y-10139D01*
X232439Y-8561D01*
X230861Y-7507D01*
X229000Y-7137D01*
D02*
G37*
G36*
X177250Y-16111D02*
X175877Y-16384D01*
X174712Y-17162D01*
X173934Y-18327D01*
X173800Y-19001D01*
X173772Y-19140D01*
X172478D01*
X172450Y-19001D01*
X172316Y-18327D01*
X171538Y-17162D01*
X170373Y-16384D01*
X169000Y-16111D01*
X167627Y-16384D01*
X166462Y-17162D01*
X165684Y-18327D01*
X165411Y-19700D01*
X165684Y-21074D01*
X166462Y-22238D01*
X167627Y-23016D01*
X169000Y-23289D01*
X170373Y-23016D01*
X171538Y-22238D01*
X172316Y-21074D01*
X172450Y-20399D01*
X172478Y-20260D01*
X173772D01*
X173800Y-20399D01*
X173934Y-21074D01*
X174712Y-22238D01*
X175877Y-23016D01*
X177250Y-23289D01*
X178623Y-23016D01*
X179788Y-22238D01*
X180566Y-21074D01*
X180839Y-19700D01*
X180566Y-18327D01*
X179788Y-17162D01*
X178623Y-16384D01*
X177250Y-16111D01*
D02*
G37*
G36*
X215000Y-18411D02*
X213627Y-18684D01*
X212462Y-19462D01*
X211684Y-20627D01*
X211411Y-22000D01*
X211684Y-23373D01*
X212462Y-24538D01*
X213627Y-25316D01*
X215000Y-25589D01*
X216373Y-25316D01*
X217538Y-24538D01*
X218316Y-23373D01*
X218589Y-22000D01*
X218316Y-20627D01*
X217538Y-19462D01*
X216373Y-18684D01*
X215000Y-18411D01*
D02*
G37*
G36*
X418730Y-1270D02*
X392474D01*
X392715Y-4322D01*
X393727Y-8537D01*
X395386Y-12542D01*
X397650Y-16238D01*
X400466Y-19534D01*
X403762Y-22349D01*
X407458Y-24614D01*
X411463Y-26273D01*
X415678Y-27285D01*
X418730Y-27525D01*
Y-1270D01*
D02*
G37*
G36*
X-169230Y-21049D02*
Y-28730D01*
X-161549D01*
X-161693Y-27640D01*
X-162604Y-25441D01*
X-164053Y-23553D01*
X-165941Y-22104D01*
X-168140Y-21193D01*
X-169230Y-21049D01*
D02*
G37*
G36*
X-171770Y-21049D02*
X-172860Y-21193D01*
X-175059Y-22104D01*
X-176947Y-23553D01*
X-178396Y-25441D01*
X-179307Y-27640D01*
X-179451Y-28730D01*
X-171770D01*
Y-21049D01*
D02*
G37*
G36*
Y-31270D02*
X-179451D01*
X-179307Y-32360D01*
X-178396Y-34559D01*
X-176947Y-36447D01*
X-175059Y-37896D01*
X-172860Y-38807D01*
X-171770Y-38951D01*
Y-31270D01*
D02*
G37*
G36*
X-161549D02*
X-169230D01*
Y-38951D01*
X-168140Y-38807D01*
X-165941Y-37896D01*
X-164053Y-36447D01*
X-162604Y-34559D01*
X-161693Y-32360D01*
X-161549Y-31270D01*
D02*
G37*
G36*
X276000Y-38137D02*
X274139Y-38507D01*
X272561Y-39561D01*
X271439D01*
X269861Y-38507D01*
X268000Y-38137D01*
X266139Y-38507D01*
X264561Y-39561D01*
X263439D01*
X261861Y-38507D01*
X260000Y-38137D01*
X258139Y-38507D01*
X256561Y-39561D01*
X255507Y-41139D01*
X255137Y-43000D01*
X255507Y-44861D01*
X256561Y-46439D01*
X258139Y-47493D01*
X260000Y-47863D01*
X261861Y-47493D01*
X263439Y-46439D01*
X264561D01*
X266139Y-47493D01*
X268000Y-47863D01*
X269861Y-47493D01*
X271439Y-46439D01*
X272561D01*
X274139Y-47493D01*
X276000Y-47863D01*
X277861Y-47493D01*
X279439Y-46439D01*
X280493Y-44861D01*
X280863Y-43000D01*
X280493Y-41139D01*
X279439Y-39561D01*
X277861Y-38507D01*
X276000Y-38137D01*
D02*
G37*
G36*
X0Y41358D02*
X-5398Y41005D01*
X-10704Y39949D01*
X-15827Y38210D01*
X-20679Y35818D01*
X-25178Y32812D01*
X-29245Y29245D01*
X-32812Y25178D01*
X-35818Y20679D01*
X-38210Y15827D01*
X-39949Y10704D01*
X-41005Y5398D01*
X-41358Y0D01*
X-41005Y-5398D01*
X-39949Y-10704D01*
X-38210Y-15827D01*
X-35818Y-20679D01*
X-32812Y-25178D01*
X-29245Y-29245D01*
X-25178Y-32812D01*
X-20679Y-35818D01*
X-15827Y-38210D01*
X-10704Y-39949D01*
X-5398Y-41005D01*
X0Y-41358D01*
X5398Y-41005D01*
X10704Y-39949D01*
X15827Y-38210D01*
X20679Y-35818D01*
X25178Y-32812D01*
X29245Y-29245D01*
X32812Y-25178D01*
X35818Y-20679D01*
X38210Y-15827D01*
X39949Y-10704D01*
X41005Y-5398D01*
X41358Y0D01*
X41005Y5398D01*
X39949Y10704D01*
X38210Y15827D01*
X35818Y20679D01*
X32812Y25178D01*
X29245Y29245D01*
X25178Y32812D01*
X20679Y35818D01*
X15827Y38210D01*
X10704Y39949D01*
X5398Y41005D01*
X0Y41358D01*
D02*
G37*
G36*
X244000Y-33137D02*
X242139Y-33507D01*
X240561Y-34561D01*
X239507Y-36139D01*
X239137Y-38000D01*
X239507Y-39861D01*
X240561Y-41439D01*
X242139Y-42493D01*
X244000Y-42863D01*
X245861Y-42493D01*
X247439Y-41439D01*
X248493Y-39861D01*
X248863Y-38000D01*
X248493Y-36139D01*
X247439Y-34561D01*
X245861Y-33507D01*
X244000Y-33137D01*
D02*
G37*
G36*
X229000D02*
X227139Y-33507D01*
X225561Y-34561D01*
X224507Y-36139D01*
X224137Y-38000D01*
X224507Y-39861D01*
X225561Y-41439D01*
X227139Y-42493D01*
X229000Y-42863D01*
X230861Y-42493D01*
X232439Y-41439D01*
X233493Y-39861D01*
X233863Y-38000D01*
X233493Y-36139D01*
X232439Y-34561D01*
X230861Y-33507D01*
X229000Y-33137D01*
D02*
G37*
G36*
X-169230Y-41049D02*
Y-48730D01*
X-161549D01*
X-161693Y-47640D01*
X-162604Y-45441D01*
X-164053Y-43553D01*
X-165941Y-42104D01*
X-168140Y-41193D01*
X-169230Y-41049D01*
D02*
G37*
G36*
X-171770D02*
X-172860Y-41193D01*
X-175059Y-42104D01*
X-176947Y-43553D01*
X-178396Y-45441D01*
X-179307Y-47640D01*
X-179451Y-48730D01*
X-171770D01*
Y-41049D01*
D02*
G37*
G36*
X244000Y-48137D02*
X242139Y-48507D01*
X240561Y-49561D01*
X239507Y-51139D01*
X239137Y-53000D01*
X239507Y-54861D01*
X240561Y-56439D01*
X242139Y-57493D01*
X244000Y-57863D01*
X245861Y-57493D01*
X247439Y-56439D01*
X248493Y-54861D01*
X248863Y-53000D01*
X248493Y-51139D01*
X247439Y-49561D01*
X245861Y-48507D01*
X244000Y-48137D01*
D02*
G37*
G36*
X229000D02*
X227139Y-48507D01*
X225561Y-49561D01*
X224507Y-51139D01*
X224137Y-53000D01*
X224507Y-54861D01*
X225561Y-56439D01*
X227139Y-57493D01*
X229000Y-57863D01*
X230861Y-57493D01*
X232439Y-56439D01*
X233493Y-54861D01*
X233863Y-53000D01*
X233493Y-51139D01*
X232439Y-49561D01*
X230861Y-48507D01*
X229000Y-48137D01*
D02*
G37*
G36*
X-161549Y-51270D02*
X-169230D01*
Y-58951D01*
X-168140Y-58807D01*
X-165941Y-57896D01*
X-164053Y-56447D01*
X-162604Y-54559D01*
X-161693Y-52360D01*
X-161549Y-51270D01*
D02*
G37*
G36*
X-171770D02*
X-179451D01*
X-179307Y-52360D01*
X-178396Y-54559D01*
X-176947Y-56447D01*
X-175059Y-57896D01*
X-172860Y-58807D01*
X-171770Y-58951D01*
Y-51270D01*
D02*
G37*
G36*
X177250Y-57111D02*
X175877Y-57384D01*
X174712Y-58162D01*
X173934Y-59327D01*
X173800Y-60002D01*
X173772Y-60140D01*
X172478D01*
X172450Y-60002D01*
X172316Y-59327D01*
X171538Y-58162D01*
X170373Y-57384D01*
X169000Y-57111D01*
X167627Y-57384D01*
X166462Y-58162D01*
X165684Y-59327D01*
X165411Y-60700D01*
X165684Y-62073D01*
X166462Y-63238D01*
X167627Y-64016D01*
X169000Y-64289D01*
X170373Y-64016D01*
X171538Y-63238D01*
X172316Y-62073D01*
X172450Y-61399D01*
X172478Y-61260D01*
X173772D01*
X173800Y-61399D01*
X173934Y-62073D01*
X174712Y-63238D01*
X175877Y-64016D01*
X177250Y-64289D01*
X178623Y-64016D01*
X179788Y-63238D01*
X180566Y-62073D01*
X180839Y-60700D01*
X180566Y-59327D01*
X179788Y-58162D01*
X178623Y-57384D01*
X177250Y-57111D01*
D02*
G37*
G36*
X204000Y-57111D02*
X202627Y-57384D01*
X201462Y-58162D01*
X200684Y-59327D01*
X200411Y-60700D01*
X200684Y-62073D01*
X201462Y-63238D01*
X202627Y-64016D01*
X204000Y-64289D01*
X205373Y-64016D01*
X206538Y-63238D01*
X207316Y-62073D01*
X207589Y-60700D01*
X207316Y-59327D01*
X206538Y-58162D01*
X205373Y-57384D01*
X204000Y-57111D01*
D02*
G37*
G36*
X215000Y-59411D02*
X213627Y-59684D01*
X212462Y-60462D01*
X211684Y-61627D01*
X211411Y-63000D01*
X211684Y-64373D01*
X212462Y-65538D01*
X213627Y-66316D01*
X215000Y-66589D01*
X216373Y-66316D01*
X217538Y-65538D01*
X218316Y-64373D01*
X218589Y-63000D01*
X218316Y-61627D01*
X217538Y-60462D01*
X216373Y-59684D01*
X215000Y-59411D01*
D02*
G37*
G36*
X-161460Y-60960D02*
X-169230D01*
Y-68730D01*
X-161460D01*
Y-60960D01*
D02*
G37*
G36*
X-171770D02*
X-179540D01*
Y-68730D01*
X-171770D01*
Y-60960D01*
D02*
G37*
G36*
X-161460Y-71270D02*
X-169230D01*
Y-79040D01*
X-161460D01*
Y-71270D01*
D02*
G37*
G36*
X-171770D02*
X-179540D01*
Y-79040D01*
X-171770D01*
Y-71270D01*
D02*
G37*
G36*
X69000Y-57128D02*
X65927Y-57533D01*
X63064Y-58719D01*
X60606Y-60606D01*
X58719Y-63064D01*
X57533Y-65927D01*
X57128Y-69000D01*
X57533Y-72073D01*
X58719Y-74936D01*
X60606Y-77394D01*
X63064Y-79281D01*
X65927Y-80467D01*
X69000Y-80872D01*
X72073Y-80467D01*
X74936Y-79281D01*
X77394Y-77394D01*
X79281Y-74936D01*
X80467Y-72073D01*
X80872Y-69000D01*
X80467Y-65927D01*
X79281Y-63064D01*
X77394Y-60606D01*
X74936Y-58719D01*
X72073Y-57533D01*
X69000Y-57128D01*
D02*
G37*
G36*
X-69000D02*
X-72073Y-57533D01*
X-74936Y-58719D01*
X-77394Y-60606D01*
X-79281Y-63064D01*
X-80467Y-65927D01*
X-80872Y-69000D01*
X-80467Y-72073D01*
X-79281Y-74936D01*
X-77394Y-77394D01*
X-74936Y-79281D01*
X-72073Y-80467D01*
X-69000Y-80872D01*
X-65927Y-80467D01*
X-63064Y-79281D01*
X-60606Y-77394D01*
X-58719Y-74936D01*
X-57533Y-72073D01*
X-57128Y-69000D01*
X-57533Y-65927D01*
X-58719Y-63064D01*
X-60606Y-60606D01*
X-63064Y-58719D01*
X-65927Y-57533D01*
X-69000Y-57128D01*
D02*
G37*
G36*
X-140281Y-59649D02*
X-142009Y-59877D01*
X-143619Y-60544D01*
X-152886Y-65894D01*
X-154269Y-66955D01*
X-155330Y-68338D01*
X-155997Y-69948D01*
X-156224Y-71677D01*
X-155997Y-73405D01*
X-155330Y-75015D01*
X-154269Y-76398D01*
X-152886Y-77459D01*
X-151276Y-78126D01*
X-151190Y-78137D01*
X-150430Y-79518D01*
X-150884Y-80615D01*
X-151155Y-82675D01*
X-150884Y-84735D01*
X-150579Y-85471D01*
X-139199Y-78900D01*
X-127819Y-72330D01*
X-128304Y-71698D01*
X-129952Y-70433D01*
X-131871Y-69638D01*
X-133048Y-69483D01*
X-133864Y-68134D01*
X-133831Y-68055D01*
X-133604Y-66326D01*
X-133831Y-64598D01*
X-134498Y-62988D01*
X-135559Y-61605D01*
X-136942Y-60544D01*
X-138553Y-59877D01*
X-140281Y-59649D01*
D02*
G37*
G36*
X140281Y-59649D02*
X138553Y-59877D01*
X136942Y-60544D01*
X135559Y-61605D01*
X134498Y-62988D01*
X133831Y-64598D01*
X133604Y-66326D01*
X133831Y-68055D01*
X133864Y-68134D01*
X133048Y-69483D01*
X131871Y-69638D01*
X129952Y-70433D01*
X128304Y-71698D01*
X127819Y-72330D01*
X139199Y-78900D01*
X150579Y-85471D01*
X150884Y-84735D01*
X151155Y-82675D01*
X150884Y-80615D01*
X150430Y-79518D01*
X151190Y-78137D01*
X151276Y-78126D01*
X152886Y-77459D01*
X154269Y-76398D01*
X155330Y-75015D01*
X155997Y-73405D01*
X156224Y-71677D01*
X155997Y-69948D01*
X155330Y-68338D01*
X154269Y-66955D01*
X152886Y-65894D01*
X143619Y-60544D01*
X142009Y-59877D01*
X140281Y-59649D01*
D02*
G37*
G36*
X98168Y-58788D02*
X97853Y-58875D01*
X97525D01*
X96879Y-59143D01*
X96204Y-59328D01*
X95946Y-59529D01*
X95644Y-59655D01*
X95149Y-60149D01*
X94596Y-60579D01*
X94435Y-60863D01*
X94203Y-61095D01*
X92551Y-63567D01*
X89076Y-68350D01*
X85377Y-72919D01*
X81444Y-77287D01*
X77287Y-81443D01*
X72919Y-85377D01*
X68351Y-89076D01*
X63567Y-92551D01*
X61095Y-94203D01*
X60863Y-94435D01*
X60579Y-94596D01*
X60149Y-95149D01*
X59654Y-95644D01*
X59529Y-95946D01*
X59328Y-96204D01*
X59143Y-96879D01*
X58875Y-97525D01*
Y-97853D01*
X58788Y-98168D01*
X58875Y-98862D01*
Y-99562D01*
X59000Y-99865D01*
X59041Y-100189D01*
X59387Y-100798D01*
X59654Y-101444D01*
X59886Y-101675D01*
X60048Y-101960D01*
X78182Y-122914D01*
X78760Y-123365D01*
X79286Y-123876D01*
X79558Y-123985D01*
X79789Y-124165D01*
X80496Y-124359D01*
X81178Y-124631D01*
X81471Y-124627D01*
X81753Y-124705D01*
X82481Y-124614D01*
X83214Y-124605D01*
X83483Y-124489D01*
X83774Y-124452D01*
X84412Y-124090D01*
X85086Y-123800D01*
X87824Y-121919D01*
X87908Y-121832D01*
X88018Y-121779D01*
X93315Y-117769D01*
X93396Y-117678D01*
X93503Y-117620D01*
X98611Y-113371D01*
X98687Y-113277D01*
X98791Y-113214D01*
X103700Y-108736D01*
X103772Y-108638D01*
X103873Y-108571D01*
X108571Y-103873D01*
X108638Y-103772D01*
X108736Y-103700D01*
X113214Y-98791D01*
X113277Y-98687D01*
X113371Y-98611D01*
X117620Y-93503D01*
X117678Y-93396D01*
X117769Y-93315D01*
X119958Y-90423D01*
X121379Y-90650D01*
X121798Y-91662D01*
X122859Y-93045D01*
X124242Y-94106D01*
X133509Y-99456D01*
X135119Y-100123D01*
X136847Y-100351D01*
X138575Y-100123D01*
X140186Y-99456D01*
X141569Y-98395D01*
X142630Y-97012D01*
X143297Y-95402D01*
X143524Y-93673D01*
X143297Y-91945D01*
X143264Y-91866D01*
X144080Y-90517D01*
X145257Y-90362D01*
X147176Y-89567D01*
X148825Y-88302D01*
X149309Y-87670D01*
X137929Y-81100D01*
X126549Y-74529D01*
X126244Y-75265D01*
X125973Y-77325D01*
X126244Y-79385D01*
X126445Y-79871D01*
X125724Y-81166D01*
X124820Y-81311D01*
X124776Y-81280D01*
X124572Y-81030D01*
X124428Y-80669D01*
X124321Y-80131D01*
X124215Y-79973D01*
X124165Y-79789D01*
X123985Y-79558D01*
X123876Y-79286D01*
X123494Y-78893D01*
X123190Y-78438D01*
X123031Y-78332D01*
X122914Y-78182D01*
X101960Y-60048D01*
X101675Y-59886D01*
X101444Y-59655D01*
X100798Y-59387D01*
X100189Y-59041D01*
X99865Y-59000D01*
X99562Y-58875D01*
X98862D01*
X98168Y-58788D01*
D02*
G37*
G36*
X0Y-78651D02*
X-3189Y-78966D01*
X-6256Y-79896D01*
X-9083Y-81407D01*
X-11560Y-83440D01*
X-13593Y-85917D01*
X-15104Y-88744D01*
X-16035Y-91811D01*
X-16349Y-95000D01*
X-16035Y-98189D01*
X-15104Y-101256D01*
X-13593Y-104083D01*
X-11560Y-106560D01*
X-9083Y-108594D01*
X-6256Y-110104D01*
X-3189Y-111035D01*
X0Y-111349D01*
X3189Y-111035D01*
X6256Y-110104D01*
X9083Y-108594D01*
X11560Y-106560D01*
X13593Y-104083D01*
X15104Y-101256D01*
X16035Y-98189D01*
X16349Y-95000D01*
X16035Y-91811D01*
X15104Y-88744D01*
X13593Y-85917D01*
X11560Y-83440D01*
X9083Y-81407D01*
X6256Y-79896D01*
X3189Y-78966D01*
X0Y-78651D01*
D02*
G37*
G36*
X271270Y-117349D02*
Y-125030D01*
X278951D01*
X278807Y-123940D01*
X277896Y-121741D01*
X276447Y-119853D01*
X274559Y-118404D01*
X272360Y-117493D01*
X271270Y-117349D01*
D02*
G37*
G36*
X268730D02*
X267640Y-117493D01*
X265441Y-118404D01*
X263553Y-119853D01*
X262104Y-121741D01*
X261193Y-123940D01*
X261049Y-125030D01*
X268730D01*
Y-117349D01*
D02*
G37*
G36*
X251270D02*
Y-125030D01*
X258951D01*
X258807Y-123940D01*
X257896Y-121741D01*
X256447Y-119853D01*
X254559Y-118404D01*
X252360Y-117493D01*
X251270Y-117349D01*
D02*
G37*
G36*
X248730D02*
X247640Y-117493D01*
X245441Y-118404D01*
X243553Y-119853D01*
X242104Y-121741D01*
X241193Y-123940D01*
X241049Y-125030D01*
X248730D01*
Y-117349D01*
D02*
G37*
G36*
X231270D02*
Y-125030D01*
X238951D01*
X238807Y-123940D01*
X237896Y-121741D01*
X236447Y-119853D01*
X234559Y-118404D01*
X232360Y-117493D01*
X231270Y-117349D01*
D02*
G37*
G36*
X228730D02*
X227640Y-117493D01*
X225441Y-118404D01*
X223553Y-119853D01*
X222104Y-121741D01*
X221193Y-123940D01*
X221049Y-125030D01*
X228730D01*
Y-117349D01*
D02*
G37*
G36*
X-28730D02*
Y-125030D01*
X-21049D01*
X-21193Y-123940D01*
X-22104Y-121741D01*
X-23553Y-119853D01*
X-25441Y-118404D01*
X-27640Y-117493D01*
X-28730Y-117349D01*
D02*
G37*
G36*
X-31270D02*
X-32360Y-117493D01*
X-34559Y-118404D01*
X-36447Y-119853D01*
X-37896Y-121741D01*
X-38807Y-123940D01*
X-38951Y-125030D01*
X-31270D01*
Y-117349D01*
D02*
G37*
G36*
X-48730D02*
Y-125030D01*
X-41049D01*
X-41193Y-123940D01*
X-42104Y-121741D01*
X-43553Y-119853D01*
X-45441Y-118404D01*
X-47640Y-117493D01*
X-48730Y-117349D01*
D02*
G37*
G36*
X-51270D02*
X-52360Y-117493D01*
X-54559Y-118404D01*
X-56447Y-119853D01*
X-57896Y-121741D01*
X-58807Y-123940D01*
X-58951Y-125030D01*
X-51270D01*
Y-117349D01*
D02*
G37*
G36*
X-68730D02*
Y-125030D01*
X-61049D01*
X-61193Y-123940D01*
X-62104Y-121741D01*
X-63553Y-119853D01*
X-65441Y-118404D01*
X-67640Y-117493D01*
X-68730Y-117349D01*
D02*
G37*
G36*
X-71270D02*
X-72360Y-117493D01*
X-74559Y-118404D01*
X-76447Y-119853D01*
X-77896Y-121741D01*
X-78807Y-123940D01*
X-78951Y-125030D01*
X-71270D01*
Y-117349D01*
D02*
G37*
G36*
X278951Y-127570D02*
X271270D01*
Y-135251D01*
X272360Y-135107D01*
X274559Y-134196D01*
X276447Y-132747D01*
X277896Y-130859D01*
X278807Y-128660D01*
X278951Y-127570D01*
D02*
G37*
G36*
X268730D02*
X261049D01*
X261193Y-128660D01*
X262104Y-130859D01*
X263553Y-132747D01*
X265441Y-134196D01*
X267640Y-135107D01*
X268730Y-135251D01*
Y-127570D01*
D02*
G37*
G36*
X258951D02*
X251270D01*
Y-135251D01*
X252360Y-135107D01*
X254559Y-134196D01*
X256447Y-132747D01*
X257896Y-130859D01*
X258807Y-128660D01*
X258951Y-127570D01*
D02*
G37*
G36*
X248730D02*
X241049D01*
X241193Y-128660D01*
X242104Y-130859D01*
X243553Y-132747D01*
X245441Y-134196D01*
X247640Y-135107D01*
X248730Y-135251D01*
Y-127570D01*
D02*
G37*
G36*
X238951D02*
X231270D01*
Y-135251D01*
X232360Y-135107D01*
X234559Y-134196D01*
X236447Y-132747D01*
X237896Y-130859D01*
X238807Y-128660D01*
X238951Y-127570D01*
D02*
G37*
G36*
X228730D02*
X221049D01*
X221193Y-128660D01*
X222104Y-130859D01*
X223553Y-132747D01*
X225441Y-134196D01*
X227640Y-135107D01*
X228730Y-135251D01*
Y-127570D01*
D02*
G37*
G36*
X-21049D02*
X-28730D01*
Y-135251D01*
X-27640Y-135107D01*
X-25441Y-134196D01*
X-23553Y-132747D01*
X-22104Y-130859D01*
X-21193Y-128660D01*
X-21049Y-127570D01*
D02*
G37*
G36*
X-31270D02*
X-38951D01*
X-38807Y-128660D01*
X-37896Y-130859D01*
X-36447Y-132747D01*
X-34559Y-134196D01*
X-32360Y-135107D01*
X-31270Y-135251D01*
Y-127570D01*
D02*
G37*
G36*
X-41049D02*
X-48730D01*
Y-135251D01*
X-47640Y-135107D01*
X-45441Y-134196D01*
X-43553Y-132747D01*
X-42104Y-130859D01*
X-41193Y-128660D01*
X-41049Y-127570D01*
D02*
G37*
G36*
X-51270D02*
X-58951D01*
X-58807Y-128660D01*
X-57896Y-130859D01*
X-56447Y-132747D01*
X-54559Y-134196D01*
X-52360Y-135107D01*
X-51270Y-135251D01*
Y-127570D01*
D02*
G37*
G36*
X-61049D02*
X-68730D01*
Y-135251D01*
X-67640Y-135107D01*
X-65441Y-134196D01*
X-63553Y-132747D01*
X-62104Y-130859D01*
X-61193Y-128660D01*
X-61049Y-127570D01*
D02*
G37*
G36*
X-71270D02*
X-78951D01*
X-78807Y-128660D01*
X-77896Y-130859D01*
X-76447Y-132747D01*
X-74559Y-134196D01*
X-72360Y-135107D01*
X-71270Y-135251D01*
Y-127570D01*
D02*
G37*
G36*
X237770Y-138530D02*
X222230D01*
Y-154070D01*
X237770D01*
Y-138530D01*
D02*
G37*
G36*
X-62230D02*
X-77770D01*
Y-154070D01*
X-62230D01*
Y-138530D01*
D02*
G37*
G36*
X270000Y-138463D02*
X267972Y-138730D01*
X266082Y-139513D01*
X264458Y-140758D01*
X263213Y-142381D01*
X262430Y-144272D01*
X262163Y-146300D01*
X262430Y-148328D01*
X263213Y-150218D01*
X264458Y-151842D01*
X266082Y-153087D01*
X267972Y-153870D01*
X270000Y-154137D01*
X272028Y-153870D01*
X273919Y-153087D01*
X275542Y-151842D01*
X276787Y-150218D01*
X277570Y-148328D01*
X277837Y-146300D01*
X277570Y-144272D01*
X276787Y-142381D01*
X275542Y-140758D01*
X273919Y-139513D01*
X272028Y-138730D01*
X270000Y-138463D01*
D02*
G37*
G36*
X250000D02*
X247972Y-138730D01*
X246082Y-139513D01*
X244458Y-140758D01*
X243213Y-142381D01*
X242430Y-144272D01*
X242163Y-146300D01*
X242430Y-148328D01*
X243213Y-150218D01*
X244458Y-151842D01*
X246082Y-153087D01*
X247972Y-153870D01*
X250000Y-154137D01*
X252028Y-153870D01*
X253918Y-153087D01*
X255542Y-151842D01*
X256787Y-150218D01*
X257570Y-148328D01*
X257837Y-146300D01*
X257570Y-144272D01*
X256787Y-142381D01*
X255542Y-140758D01*
X253918Y-139513D01*
X252028Y-138730D01*
X250000Y-138463D01*
D02*
G37*
G36*
X-30000D02*
X-32028Y-138730D01*
X-33918Y-139513D01*
X-35542Y-140758D01*
X-36787Y-142381D01*
X-37570Y-144272D01*
X-37837Y-146300D01*
X-37570Y-148328D01*
X-36787Y-150218D01*
X-35542Y-151842D01*
X-33918Y-153087D01*
X-32028Y-153870D01*
X-30000Y-154137D01*
X-27972Y-153870D01*
X-26082Y-153087D01*
X-24458Y-151842D01*
X-23213Y-150218D01*
X-22430Y-148328D01*
X-22163Y-146300D01*
X-22430Y-144272D01*
X-23213Y-142381D01*
X-24458Y-140758D01*
X-26082Y-139513D01*
X-27972Y-138730D01*
X-30000Y-138463D01*
D02*
G37*
G36*
X-50000D02*
X-52028Y-138730D01*
X-53918Y-139513D01*
X-55542Y-140758D01*
X-56787Y-142381D01*
X-57570Y-144272D01*
X-57837Y-146300D01*
X-57570Y-148328D01*
X-56787Y-150218D01*
X-55542Y-151842D01*
X-53918Y-153087D01*
X-52028Y-153870D01*
X-50000Y-154137D01*
X-47972Y-153870D01*
X-46082Y-153087D01*
X-44458Y-151842D01*
X-43213Y-150218D01*
X-42430Y-148328D01*
X-42163Y-146300D01*
X-42430Y-144272D01*
X-43213Y-142381D01*
X-44458Y-140758D01*
X-46082Y-139513D01*
X-47972Y-138730D01*
X-50000Y-138463D01*
D02*
G37*
%LPD*%
D11*
X198000Y58000D02*
X230000D01*
X233000Y61000D01*
Y72000D01*
X272000Y111000D01*
X187000Y47000D02*
X198000Y58000D01*
X237000Y59000D02*
Y70000D01*
X201730Y53730D02*
X231730D01*
X237000Y59000D01*
X234000Y50000D02*
X241000Y57000D01*
Y67000D01*
X206000Y50000D02*
X234000D01*
X193000Y45000D02*
X201730Y53730D01*
X193000Y-13700D02*
Y45000D01*
X187000Y21300D02*
Y47000D01*
X197000Y-19000D02*
Y41000D01*
X206000Y50000D01*
X272000Y111000D02*
X283500D01*
X251000Y84000D02*
X277000D01*
X237000Y70000D02*
X251000Y84000D01*
X279286Y72286D02*
X283000Y76000D01*
X246286Y72286D02*
X279286D01*
X241000Y67000D02*
X246286Y72286D01*
X187000Y-19700D02*
X193000Y-13700D01*
X187000Y-60700D02*
Y-29000D01*
X197000Y-19000D01*
D15*
X-115000Y67000D02*
X-45000Y137000D01*
X56250D01*
X87250Y168000D01*
X-130256Y-90998D02*
X-115000Y-75743D01*
X-132214Y-90998D02*
X-130256D01*
X-115000Y-75743D02*
Y67000D01*
X151000Y63000D02*
X157000Y69000D01*
Y86250D02*
X172250D01*
X157000Y69000D02*
Y86250D01*
X172250D02*
X183000Y97000D01*
Y119000D01*
X193000Y129000D01*
X151000Y41000D02*
Y63000D01*
X132000Y-22000D02*
X151000Y-41000D01*
X132000Y-22000D02*
Y71250D01*
X117000Y86250D02*
X132000Y71250D01*
X137000Y14000D02*
Y86250D01*
Y14000D02*
X151000Y0D01*
X197000Y129000D02*
X212000Y144000D01*
X220400D01*
X193000Y129000D02*
X197000D01*
D18*
X206310Y232690D02*
Y241000D01*
X214000Y220000D02*
Y225000D01*
X206310Y232690D02*
X214000Y225000D01*
X209284Y215284D02*
X214000Y220000D01*
X209284Y156497D02*
Y215284D01*
X203442Y150655D02*
X209284Y156497D01*
X199655Y150655D02*
X203442D01*
X170460Y139460D02*
X188460D01*
X199655Y150655D01*
X152250Y133000D02*
X160000D01*
X169000Y142000D02*
X185876D01*
X160000Y133000D02*
X169000Y142000D01*
X117000Y97750D02*
X152250Y133000D01*
X137000Y97750D02*
Y106000D01*
X170460Y139460D01*
X185876Y142000D02*
X195845Y151969D01*
X206000Y169000D02*
Y219000D01*
X209000Y222000D01*
X195845Y158845D02*
X206000Y169000D01*
X195845Y151969D02*
Y158845D01*
X0Y183375D02*
X49546D01*
X57921Y175000D01*
X49000Y178000D02*
X54845Y172155D01*
X97845D01*
X10000Y178000D02*
X49000D01*
X57921Y175000D02*
X102000D01*
X131000Y146000D01*
X97845Y172155D02*
X124000Y146000D01*
X152000Y153000D02*
X185000D01*
X145000Y146000D02*
X152000Y153000D01*
X185000D02*
X202155Y170155D01*
Y259845D01*
X199000Y263000D02*
X202155Y259845D01*
X183000Y156000D02*
X198000Y171000D01*
Y256000D01*
X148000Y156000D02*
X183000D01*
X138000Y146000D02*
X148000Y156000D01*
D116*
X173000Y106400D02*
Y112000D01*
D117*
X144914Y-69001D02*
D03*
X132214Y-90998D02*
D03*
X138564Y-80000D02*
D03*
D118*
X352000Y64000D02*
D03*
X182000Y323000D02*
D03*
X-108000Y258000D02*
D03*
X230000Y-146300D02*
D03*
X-70000D02*
D03*
D119*
X372000Y64000D02*
D03*
X242000Y323000D02*
D03*
X222000D02*
D03*
X202000D02*
D03*
X-88000Y258000D02*
D03*
X-68000D02*
D03*
X-190500Y-30000D02*
D03*
Y-50000D02*
D03*
X-170500Y-30000D02*
D03*
Y-50000D02*
D03*
X-190500Y-70000D02*
D03*
Y270000D02*
D03*
Y250000D02*
D03*
X-170500Y270000D02*
D03*
Y250000D02*
D03*
X-190500Y230000D02*
D03*
X270000Y-126300D02*
D03*
X250000D02*
D03*
X270000Y-146300D02*
D03*
X250000D02*
D03*
X230000Y-126300D02*
D03*
X-30000D02*
D03*
X-50000D02*
D03*
X-30000Y-146300D02*
D03*
X-50000D02*
D03*
X-70000Y-126300D02*
D03*
D120*
X-132214Y-90998D02*
D03*
X-144914Y-69001D02*
D03*
X-138564Y-80000D02*
D03*
D121*
X0Y160000D02*
D03*
X12700D02*
D03*
X-12700D02*
D03*
D122*
X0Y420000D02*
D03*
X420000Y0D02*
D03*
X370000Y370000D02*
D03*
D123*
X-170500Y-70000D02*
D03*
Y230000D02*
D03*
D124*
X398680Y256000D02*
D03*
X161400Y144000D02*
D03*
X50000Y299750D02*
D03*
X60000Y319400D02*
D03*
X106400Y347000D02*
D03*
X302000Y54600D02*
D03*
X303000Y89600D02*
D03*
X214000Y208400D02*
D03*
X224250Y209000D02*
D03*
X238600Y258000D02*
D03*
X228000Y258250D02*
D03*
X186400Y256000D02*
D03*
X146750Y276000D02*
D03*
Y266000D02*
D03*
X148600Y256000D02*
D03*
X101000Y209400D02*
D03*
X68000Y191000D02*
D03*
X11400Y143000D02*
D03*
X-68000Y187000D02*
D03*
X-69600Y177000D02*
D03*
X-71000Y163400D02*
D03*
X-61000D02*
D03*
X216000Y172000D02*
D03*
X209000Y222000D02*
D03*
X206310Y241000D02*
D03*
X170080Y256080D02*
D03*
X166000Y252000D02*
D03*
X368000Y53000D02*
D03*
Y45000D02*
D03*
X376000D02*
D03*
X0Y183375D02*
D03*
X-10000D02*
D03*
X-20000Y241000D02*
D03*
X10000Y178000D02*
D03*
X87250Y168000D02*
D03*
X88600Y158000D02*
D03*
X214000Y237000D02*
D03*
X217000Y166000D02*
D03*
X219000Y220000D02*
D03*
X145000Y146000D02*
D03*
X138000D02*
D03*
X199000Y263000D02*
D03*
X198000Y256000D02*
D03*
X131000Y146000D02*
D03*
X124000D02*
D03*
X319000Y252250D02*
D03*
Y315750D02*
D03*
X257000Y216000D02*
D03*
X283500Y76000D02*
D03*
Y111000D02*
D03*
X302000Y63400D02*
D03*
X303000Y98400D02*
D03*
X290001Y93998D02*
D03*
X281001D02*
D03*
X280751Y59748D02*
D03*
X289751D02*
D03*
X277000Y84000D02*
D03*
X258600Y258000D02*
D03*
X247400D02*
D03*
X267400D02*
D03*
X247000Y275000D02*
D03*
X224200Y198400D02*
D03*
X188000Y65250D02*
D03*
X178000D02*
D03*
X-132000Y173600D02*
D03*
X173000Y112000D02*
D03*
Y97600D02*
D03*
Y106400D02*
D03*
X376000Y53000D02*
D03*
X81000Y180000D02*
D03*
X-61000Y154700D02*
D03*
X-71000D02*
D03*
X-81000Y154100D02*
D03*
X-117000Y173100D02*
D03*
X-110500D02*
D03*
X-112000Y151000D02*
D03*
X-121500Y184850D02*
D03*
X-102500Y179775D02*
D03*
X-132000Y182400D02*
D03*
X135000Y265750D02*
D03*
X100000Y305838D02*
D03*
X82838Y305838D02*
D03*
X82838Y323000D02*
D03*
X100000Y323000D02*
D03*
X91419Y314419D02*
D03*
X74000Y334000D02*
D03*
X94000Y286000D02*
D03*
X97600Y347000D02*
D03*
X81000Y345600D02*
D03*
X60000Y310600D02*
D03*
X73600Y284000D02*
D03*
X88600Y180000D02*
D03*
X264500Y158000D02*
D03*
X224250D02*
D03*
X200000Y155000D02*
D03*
X215000Y190000D02*
D03*
X398680Y246000D02*
D03*
X178850Y220150D02*
D03*
X178000Y178300D02*
D03*
X136150Y179150D02*
D03*
X137000Y221000D02*
D03*
X157500Y199650D02*
D03*
X157400Y256000D02*
D03*
X177600D02*
D03*
X214000Y199600D02*
D03*
X152600Y144000D02*
D03*
X101000Y200600D02*
D03*
X149250Y109000D02*
D03*
X157000Y97750D02*
D03*
X137000D02*
D03*
X117000D02*
D03*
X215000Y-22000D02*
D03*
X208790Y26140D02*
D03*
X258000Y65250D02*
D03*
Y57000D02*
D03*
X248000Y65250D02*
D03*
X157000Y86250D02*
D03*
X147000D02*
D03*
X137000D02*
D03*
X127000D02*
D03*
X117000D02*
D03*
X107000D02*
D03*
X229000Y113000D02*
D03*
X216000Y137000D02*
D03*
X185000Y147000D02*
D03*
X195000Y138000D02*
D03*
X184000Y135000D02*
D03*
X181000Y128000D02*
D03*
X175000Y147000D02*
D03*
X204000Y-79000D02*
D03*
Y-70000D02*
D03*
X186000Y-79000D02*
D03*
Y-70000D02*
D03*
X195000Y-79000D02*
D03*
Y-70000D02*
D03*
X210150Y117850D02*
D03*
X210000Y102700D02*
D03*
X194850Y102850D02*
D03*
X195000Y118000D02*
D03*
X202500Y110350D02*
D03*
X151000Y-41000D02*
D03*
Y0D02*
D03*
Y41000D02*
D03*
X220400Y144000D02*
D03*
X237000Y109600D02*
D03*
X229000Y96000D02*
D03*
X218000Y65250D02*
D03*
X228000D02*
D03*
X198000D02*
D03*
X221000Y89000D02*
D03*
X208000Y65250D02*
D03*
X142000Y21000D02*
D03*
Y-20000D02*
D03*
X215000Y-63000D02*
D03*
X204000Y-60700D02*
D03*
X169000Y-60700D02*
D03*
X177250D02*
D03*
X187000Y-60700D02*
D03*
X204000Y-19700D02*
D03*
Y21300D02*
D03*
X177250Y-19700D02*
D03*
X187000Y-19700D02*
D03*
X169000Y-19700D02*
D03*
Y21300D02*
D03*
X177250D02*
D03*
X187000Y21300D02*
D03*
X151000Y21000D02*
D03*
X160000D02*
D03*
Y-20000D02*
D03*
X151000D02*
D03*
D125*
X50000Y50000D02*
D03*
Y-50000D02*
D03*
X-50000D02*
D03*
X399000Y98000D02*
D03*
Y114000D02*
D03*
X383000D02*
D03*
Y98000D02*
D03*
X391250Y106000D02*
D03*
X268000Y-43000D02*
D03*
X260000D02*
D03*
X276000D02*
D03*
X268000Y33000D02*
D03*
X260000D02*
D03*
X276000D02*
D03*
X268000Y-15000D02*
D03*
X260000D02*
D03*
X276000D02*
D03*
Y5000D02*
D03*
X260000D02*
D03*
X268000D02*
D03*
X-121000Y114000D02*
D03*
X-114000Y126000D02*
D03*
X-106000Y112000D02*
D03*
X-117000Y99000D02*
D03*
X-97000Y126000D02*
D03*
X-50000Y50000D02*
D03*
X47000Y0D02*
D03*
X0Y-53000D02*
D03*
X-47000Y0D02*
D03*
X0Y53000D02*
D03*
X229000Y-38000D02*
D03*
Y-53000D02*
D03*
X244000Y-38000D02*
D03*
Y-53000D02*
D03*
X229000Y3000D02*
D03*
Y-12000D02*
D03*
X244000Y3000D02*
D03*
Y-12000D02*
D03*
Y29000D02*
D03*
Y44000D02*
D03*
X229000Y29000D02*
D03*
Y44000D02*
D03*
X370000Y390000D02*
D03*
Y350000D02*
D03*
X350000Y369000D02*
D03*
X390000D02*
D03*
X384000Y383000D02*
D03*
X355000Y382000D02*
D03*
X357000Y355000D02*
D03*
X384000Y356000D02*
D03*
X420000Y20000D02*
D03*
Y-20000D02*
D03*
X400000Y-1000D02*
D03*
X440000D02*
D03*
X434000Y13000D02*
D03*
X405000Y12000D02*
D03*
X407000Y-15000D02*
D03*
X434000Y-14000D02*
D03*
X14000Y406000D02*
D03*
X-13000Y405000D02*
D03*
X-15000Y432000D02*
D03*
X14000Y433000D02*
D03*
X20000Y419000D02*
D03*
X-20000D02*
D03*
X0Y400000D02*
D03*
Y440000D02*
D03*
X-146000Y171000D02*
D03*
Y187000D02*
D03*
M02*
