G04*
G04 #@! TF.GenerationSoftware,Altium Limited,Altium Designer,24.4.1 (13)*
G04*
G04 Layer_Color=32896*
%FSLAX44Y44*%
%MOMM*%
G71*
G04*
G04 #@! TF.SameCoordinates,D346328A-3EA5-4E80-806F-D0F93F3E7631*
G04*
G04*
G04 #@! TF.FilePolarity,Positive*
G04*
G01*
G75*
%ADD11C,0.2000*%
%ADD14C,0.5000*%
%ADD16C,0.3000*%
%ADD17C,0.1500*%
%ADD18C,0.1270*%
D11*
X331500Y241000D02*
X339500D01*
Y327000D01*
X331500D02*
X339500D01*
X298500D02*
X306500D01*
X298500Y241000D02*
Y327000D01*
Y241000D02*
X306500D01*
X298500Y284000D02*
X339500D01*
D14*
X130000Y-0D02*
G03*
X130000Y-0I-130000J0D01*
G01*
D16*
X121959Y-95986D02*
G03*
X121959Y-95986I-707J0D01*
G01*
X-143045Y-57014D02*
G03*
X-143045Y-57014I-707J0D01*
G01*
X23207Y153000D02*
G03*
X23207Y153000I-707J0D01*
G01*
X339682Y-170342D02*
G03*
X-203558Y320880I-339682J170342D01*
G01*
X222306Y-170235D02*
G03*
X-203867Y191933I-222306J170235D01*
G01*
D17*
X363000Y40000D02*
Y54000D01*
X377000Y51000D02*
Y54000D01*
X349000D02*
X377000D01*
X349000Y51000D02*
Y54000D01*
Y40000D02*
Y43000D01*
Y40000D02*
X377000D01*
Y43000D01*
X-106570Y154920D02*
Y156190D01*
X-129430Y154920D02*
X-106570D01*
X-129430D02*
Y156190D01*
Y163810D02*
Y165080D01*
X-106570D01*
Y163810D02*
Y165080D01*
X-118000Y154920D02*
Y165080D01*
X252920Y71000D02*
X263080D01*
X252920Y82430D02*
X254190D01*
X252920Y59570D02*
Y82430D01*
Y59570D02*
X254190D01*
X261810D02*
X263080D01*
Y82430D01*
X261810D02*
X263080D01*
X242920Y71000D02*
X253080D01*
X242920Y82430D02*
X244190D01*
X242920Y59570D02*
Y82430D01*
Y59570D02*
X244190D01*
X251810D02*
X253080D01*
Y82430D01*
X251810D02*
X253080D01*
X232920Y71000D02*
X243080D01*
X232920Y82430D02*
X234190D01*
X232920Y59570D02*
Y82430D01*
Y59570D02*
X234190D01*
X241810D02*
X243080D01*
Y82430D01*
X241810D02*
X243080D01*
X203000Y-41000D02*
Y-39000D01*
X169000D02*
X203000D01*
X169000Y-41000D02*
Y-39000D01*
X203000Y-57000D02*
Y-55000D01*
X169000Y-57000D02*
X203000D01*
X169000D02*
Y-55000D01*
X186000Y-57000D02*
Y-39000D01*
Y-16000D02*
Y2000D01*
X169000Y-16000D02*
Y-14000D01*
Y-16000D02*
X203000D01*
Y-14000D01*
X169000Y-0D02*
Y2000D01*
X203000D01*
Y-0D02*
Y2000D01*
X186000Y26000D02*
Y44000D01*
X169000Y26000D02*
Y28000D01*
Y26000D02*
X203000D01*
Y28000D01*
X169000Y42000D02*
Y44000D01*
X203000D01*
Y42000D02*
Y44000D01*
X-194500Y214000D02*
Y217000D01*
X-166500D01*
Y214000D02*
Y217000D01*
Y203000D02*
Y206000D01*
X-194500Y203000D02*
X-166500D01*
X-194500D02*
Y206000D01*
X-180500Y203000D02*
Y217000D01*
X205000Y-150300D02*
X208000D01*
X205000D02*
Y-122300D01*
X208000D01*
X216000D02*
X219000D01*
Y-150300D02*
Y-122300D01*
X216000Y-150300D02*
X219000D01*
X205000Y-136300D02*
X219000D01*
X-96000D02*
X-82000D01*
X-96000Y-122300D02*
X-93000D01*
X-96000Y-150300D02*
Y-122300D01*
Y-150300D02*
X-93000D01*
X-85000D02*
X-82000D01*
Y-122300D01*
X-85000D02*
X-82000D01*
X-180500Y-16000D02*
Y-2000D01*
X-166500Y-5000D02*
Y-2000D01*
X-194500D02*
X-166500D01*
X-194500Y-5000D02*
Y-2000D01*
Y-16000D02*
Y-13000D01*
Y-16000D02*
X-166500D01*
Y-13000D01*
D18*
X146909Y-61146D02*
X153512Y-64959D01*
X126409Y-96654D02*
X133012Y-100466D01*
X-133012Y-100466D02*
X-126409Y-96653D01*
X-153512Y-64959D02*
X-146909Y-61146D01*
X20500Y157800D02*
Y165425D01*
X-20500Y157800D02*
Y165425D01*
M02*
