G04*
G04 #@! TF.GenerationSoftware,Altium Limited,Altium Designer,24.4.1 (13)*
G04*
G04 Layer_Physical_Order=3*
G04 Layer_Color=16776960*
%FSLAX44Y44*%
%MOMM*%
G71*
G04*
G04 #@! TF.SameCoordinates,D346328A-3EA5-4E80-806F-D0F93F3E7631*
G04*
G04*
G04 #@! TF.FilePolarity,Positive*
G04*
G01*
G75*
%ADD15C,0.2540*%
%ADD18C,0.1270*%
%ADD115C,0.4000*%
%ADD116C,0.4500*%
G04:AMPARAMS|DCode=117|XSize=2.14mm|YSize=1.07mm|CornerRadius=0mm|HoleSize=0mm|Usage=FLASHONLY|Rotation=330.000|XOffset=0mm|YOffset=0mm|HoleType=Round|Shape=Round|*
%AMOVALD117*
21,1,1.0700,1.0700,0.0000,0.0000,330.0*
1,1,1.0700,-0.4633,0.2675*
1,1,1.0700,0.4633,-0.2675*
%
%ADD117OVALD117*%

%ADD118R,1.3000X1.3000*%
%ADD119C,1.3000*%
G04:AMPARAMS|DCode=120|XSize=2.14mm|YSize=1.07mm|CornerRadius=0mm|HoleSize=0mm|Usage=FLASHONLY|Rotation=210.000|XOffset=0mm|YOffset=0mm|HoleType=Round|Shape=Round|*
%AMOVALD120*
21,1,1.0700,1.0700,0.0000,0.0000,210.0*
1,1,1.0700,0.4633,0.2675*
1,1,1.0700,-0.4633,-0.2675*
%
%ADD120OVALD120*%

%ADD121O,1.0700X2.1400*%
%ADD122C,5.0000*%
%ADD123R,1.3000X1.3000*%
%ADD124C,0.4500*%
%ADD125C,0.7000*%
G36*
X317638Y443315D02*
X329263Y439246D01*
X340602Y434441D01*
X351612Y428919D01*
X362243Y422704D01*
X372456Y415821D01*
X382207Y408297D01*
X391455Y400164D01*
X400164Y391455D01*
X408297Y382207D01*
X415821Y372456D01*
X422704Y362243D01*
X428919Y351612D01*
X434441Y340602D01*
X439246Y329263D01*
X443315Y317638D01*
X444780Y312397D01*
Y123548D01*
X444780Y122375D01*
X416584D01*
Y263750D01*
X416330Y265026D01*
X415607Y266108D01*
X407357Y274357D01*
X406276Y275080D01*
X405000Y275334D01*
X281400D01*
X280124Y275080D01*
X279042Y274357D01*
X269212Y264528D01*
X267416D01*
X257375Y274569D01*
Y329000D01*
X256972Y329972D01*
X249972Y336972D01*
X249000Y337375D01*
X249000Y337375D01*
X236000D01*
X236000Y337375D01*
X235028Y336972D01*
X228028Y329972D01*
X227832Y329920D01*
X226559Y330896D01*
X224360Y331807D01*
X223270Y331951D01*
Y323000D01*
Y314049D01*
X224360Y314193D01*
X226355Y315019D01*
X227625Y314511D01*
X227625Y287569D01*
X212431Y272375D01*
X149946D01*
X149617Y272919D01*
X149410Y273645D01*
X150066Y274627D01*
X150339Y276000D01*
X150066Y277373D01*
X149288Y278538D01*
X148123Y279316D01*
X146750Y279589D01*
X145377Y279316D01*
X144212Y278538D01*
X143434Y277373D01*
X143161Y276000D01*
X143434Y274627D01*
X144090Y273645D01*
X143883Y272919D01*
X143554Y272375D01*
X136942D01*
Y275196D01*
X176977Y315230D01*
X189770D01*
Y330770D01*
X174230D01*
Y317977D01*
X133627Y277374D01*
X133206Y276743D01*
X133058Y276000D01*
Y272375D01*
X128334D01*
Y332000D01*
X128080Y333276D01*
X127358Y334357D01*
X104358Y357357D01*
X103276Y358080D01*
X102000Y358334D01*
X70000D01*
X68724Y358080D01*
X67642Y357357D01*
X57642Y347357D01*
X56920Y346276D01*
X56666Y345000D01*
Y320781D01*
X47642Y311758D01*
X46920Y310676D01*
X46666Y309400D01*
Y301031D01*
X46411Y299750D01*
X46684Y298377D01*
X47462Y297212D01*
X48627Y296434D01*
X50000Y296161D01*
X51373Y296434D01*
X52538Y297212D01*
X53316Y298377D01*
X53589Y299750D01*
X53334Y301031D01*
Y308019D01*
X61451Y316136D01*
X62538Y316862D01*
X63316Y318027D01*
X63589Y319400D01*
X63334Y320681D01*
Y343619D01*
X71381Y351666D01*
X100619D01*
X103416Y348869D01*
X103084Y348373D01*
X102811Y347000D01*
X103084Y345627D01*
X103862Y344462D01*
X105027Y343684D01*
X106400Y343411D01*
X107773Y343684D01*
X108269Y344016D01*
X121666Y330619D01*
Y272375D01*
X118000D01*
X118000Y272375D01*
X117028Y271972D01*
X107028Y261972D01*
X107028Y261972D01*
X83431Y238375D01*
X-15993D01*
X-16684Y239627D01*
X-16411Y241000D01*
X-16684Y242373D01*
X-17462Y243538D01*
X-18627Y244316D01*
X-20000Y244589D01*
X-21373Y244316D01*
X-22460Y243590D01*
X-65350D01*
X-66341Y243393D01*
X-67181Y242831D01*
X-114759Y195254D01*
X-115932Y195740D01*
Y196000D01*
X-116335Y196972D01*
X-117307Y197375D01*
X-147625D01*
Y286000D01*
X-148028Y286972D01*
X-149000Y287375D01*
X-196780D01*
X-196780Y288548D01*
X-196780Y444780D01*
X-14701D01*
X-14343Y443510D01*
X-16238Y442349D01*
X-19534Y439534D01*
X-22349Y436237D01*
X-24614Y432541D01*
X-26273Y428536D01*
X-27285Y424321D01*
X-27525Y421270D01*
X27525D01*
X27285Y424321D01*
X26273Y428536D01*
X24614Y432541D01*
X22349Y436237D01*
X19534Y439534D01*
X16238Y442349D01*
X14343Y443510D01*
X14701Y444780D01*
X312397D01*
X317638Y443315D01*
D02*
G37*
G36*
X256000Y329000D02*
Y274000D01*
X267342Y262658D01*
X265949Y261264D01*
X264862Y260538D01*
X264084Y259373D01*
X263811Y258000D01*
X264084Y256627D01*
X264862Y255462D01*
X266027Y254684D01*
X267400Y254411D01*
X268773Y254684D01*
X269938Y255462D01*
X270664Y256549D01*
X276115Y262000D01*
X405000Y262000D01*
X408000Y259000D01*
Y253000D01*
X406000Y251000D01*
X323341Y251000D01*
X322536Y251982D01*
X322589Y252250D01*
X322316Y253623D01*
X321538Y254788D01*
X320373Y255566D01*
X319000Y255839D01*
X317627Y255566D01*
X316462Y254788D01*
X315684Y253623D01*
X315411Y252250D01*
X315464Y251982D01*
X314659Y251000D01*
X286799D01*
X272092Y236293D01*
X251293D01*
X220000Y205000D01*
Y191942D01*
X217936D01*
X217538Y192538D01*
X216373Y193316D01*
X215000Y193589D01*
X213627Y193316D01*
X212462Y192538D01*
X211684Y191373D01*
X211411Y190000D01*
X211684Y188627D01*
X212462Y187462D01*
X213627Y186684D01*
X215000Y186411D01*
X216373Y186684D01*
X217538Y187462D01*
X217936Y188058D01*
X220000D01*
Y174635D01*
X218730Y174250D01*
X218538Y174538D01*
X217373Y175316D01*
X216000Y175589D01*
X214627Y175316D01*
X213462Y174538D01*
X213165Y174092D01*
X206150D01*
X205407Y173944D01*
X204777Y173523D01*
X192627Y161373D01*
X192206Y160743D01*
X192058Y160000D01*
Y147810D01*
X192206Y147067D01*
X192627Y146437D01*
X196472Y142591D01*
X195847Y141420D01*
X195000Y141589D01*
X193881Y141366D01*
X188532Y146715D01*
X188589Y147000D01*
X188316Y148373D01*
X187538Y149538D01*
X186373Y150316D01*
X185000Y150589D01*
X183627Y150316D01*
X182462Y149538D01*
X181684Y148373D01*
X181411Y147000D01*
X181684Y145627D01*
X182462Y144462D01*
X183627Y143684D01*
X185000Y143411D01*
X186119Y143634D01*
X191468Y138285D01*
X191411Y138000D01*
X191415Y137982D01*
X190609Y137000D01*
X186897D01*
X186538Y137538D01*
X185373Y138316D01*
X185324Y138618D01*
X185176Y139361D01*
X184755Y139992D01*
X184755Y139992D01*
X178449Y146298D01*
X178589Y147000D01*
X178316Y148373D01*
X177538Y149538D01*
X176373Y150316D01*
X175000Y150589D01*
X173627Y150316D01*
X172462Y149538D01*
X171684Y148373D01*
X171411Y147000D01*
X171684Y145627D01*
X172462Y144462D01*
X173627Y143684D01*
X175000Y143411D01*
X175702Y143551D01*
X180983Y138270D01*
X180457Y137000D01*
X143000Y137000D01*
X131000Y125000D01*
Y88885D01*
X129730Y88500D01*
X129538Y88788D01*
X128373Y89566D01*
X127000Y89839D01*
X125627Y89566D01*
X124462Y88788D01*
X123684Y87623D01*
X123411Y86250D01*
X123684Y84877D01*
X124462Y83712D01*
X125627Y82934D01*
X127000Y82661D01*
X128373Y82934D01*
X129538Y83712D01*
X129730Y84000D01*
X131000Y83615D01*
Y49662D01*
X128169Y46831D01*
X127607Y45991D01*
X127410Y45000D01*
Y-20000D01*
X127607Y-20991D01*
X128169Y-21831D01*
X131000Y-24662D01*
Y-35000D01*
X162000Y-66000D01*
Y-87000D01*
X149544Y-99456D01*
X143956Y-99456D01*
X143810Y-99160D01*
X131579Y-92098D01*
X132849Y-89899D01*
X144229Y-96469D01*
X144534Y-95733D01*
X144805Y-93673D01*
X144534Y-91614D01*
X144080Y-90517D01*
X144840Y-89136D01*
X144925Y-89125D01*
X146536Y-88458D01*
X147919Y-87396D01*
X148980Y-86014D01*
X149647Y-84403D01*
X149874Y-82675D01*
X149647Y-80947D01*
X149078Y-79573D01*
X149341Y-78890D01*
X149801Y-78320D01*
X151276Y-78126D01*
X152886Y-77459D01*
X154269Y-76398D01*
X155330Y-75015D01*
X155997Y-73405D01*
X156224Y-71677D01*
X155997Y-69948D01*
X155330Y-68338D01*
X154269Y-66955D01*
X152886Y-65894D01*
X143619Y-60544D01*
X142009Y-59877D01*
X140281Y-59649D01*
X138553Y-59877D01*
X136942Y-60544D01*
X135559Y-61605D01*
X134498Y-62988D01*
X133920Y-64384D01*
X123131D01*
X104000Y-45253D01*
Y82494D01*
X105270Y83173D01*
X105627Y82934D01*
X107000Y82661D01*
X108373Y82934D01*
X109538Y83712D01*
X110316Y84877D01*
X110589Y86250D01*
X110316Y87623D01*
X109538Y88788D01*
X108373Y89566D01*
X107000Y89839D01*
X105627Y89566D01*
X105270Y89327D01*
X104000Y90006D01*
Y146000D01*
Y173000D01*
X93000Y184000D01*
X66000D01*
X41000Y159000D01*
X20658D01*
Y165350D01*
X20387Y167410D01*
X19592Y169329D01*
X18327Y170977D01*
X16679Y172242D01*
X14760Y173037D01*
X13970Y173141D01*
Y160000D01*
X11430D01*
Y173141D01*
X10640Y173037D01*
X8721Y172242D01*
X7073Y170977D01*
X6350Y170035D01*
X4774Y170003D01*
X4721Y170072D01*
X3339Y171133D01*
X1728Y171800D01*
X0Y172027D01*
X-1728Y171800D01*
X-3339Y171133D01*
X-4721Y170072D01*
X-5627Y168892D01*
X-6350Y168778D01*
X-7073Y168892D01*
X-7979Y170072D01*
X-9361Y171133D01*
X-10972Y171800D01*
X-12700Y172027D01*
X-14428Y171800D01*
X-16039Y171133D01*
X-17421Y170072D01*
X-18483Y168689D01*
X-19150Y167078D01*
X-19377Y165350D01*
Y159000D01*
X-80000D01*
X-81388Y157612D01*
X-82373Y157416D01*
X-83538Y156638D01*
X-84316Y155473D01*
X-84512Y154488D01*
X-105000Y134000D01*
Y117666D01*
X-105982Y116860D01*
X-106000Y116863D01*
X-107861Y116493D01*
X-109439Y115439D01*
X-110493Y113861D01*
X-110863Y112000D01*
X-110493Y110139D01*
X-109439Y108561D01*
X-107861Y107507D01*
X-106000Y107137D01*
X-105982Y107140D01*
X-105000Y106334D01*
Y-92000D01*
X-119000Y-106000D01*
X-138000D01*
X-144000Y-100000D01*
Y-97023D01*
X-142730Y-96770D01*
X-142630Y-97012D01*
X-141569Y-98395D01*
X-140186Y-99456D01*
X-138575Y-100123D01*
X-136847Y-100351D01*
X-135119Y-100123D01*
X-133509Y-99456D01*
X-124242Y-94106D01*
X-122859Y-93045D01*
X-121798Y-91662D01*
X-121131Y-90052D01*
X-120904Y-88323D01*
X-121131Y-86595D01*
X-121798Y-84985D01*
X-122859Y-83602D01*
X-124242Y-82541D01*
X-125853Y-81874D01*
X-127327Y-81680D01*
X-127787Y-81110D01*
X-128050Y-80427D01*
X-127481Y-79053D01*
X-127254Y-77325D01*
X-127481Y-75597D01*
X-128148Y-73986D01*
X-129209Y-72604D01*
X-130592Y-71542D01*
X-132203Y-70875D01*
X-132288Y-70864D01*
X-133048Y-69483D01*
X-132594Y-68386D01*
X-132323Y-66326D01*
X-132594Y-64267D01*
X-132899Y-63531D01*
X-144279Y-70101D01*
X-145549Y-67902D01*
X-134169Y-61331D01*
X-134654Y-60699D01*
X-136302Y-59435D01*
X-138221Y-58639D01*
X-140281Y-58368D01*
X-140617Y-58413D01*
X-141210Y-57210D01*
X-128000Y-44000D01*
Y172000D01*
X-63000Y237000D01*
X84000D01*
X108000Y261000D01*
X118000Y271000D01*
X133058D01*
Y268686D01*
X132462Y268288D01*
X131684Y267123D01*
X131411Y265750D01*
X131684Y264377D01*
X132462Y263212D01*
X133627Y262434D01*
X135000Y262161D01*
X136373Y262434D01*
X137538Y263212D01*
X138316Y264377D01*
X138589Y265750D01*
X138316Y267123D01*
X137538Y268288D01*
X136942Y268686D01*
Y271000D01*
X213000D01*
X229000Y287000D01*
X229000Y319595D01*
X229570Y320972D01*
X229837Y323000D01*
X229570Y325028D01*
X229000Y326405D01*
Y329000D01*
X236000Y336000D01*
X249000D01*
X256000Y329000D01*
D02*
G37*
G36*
X-149000Y196000D02*
X-117307D01*
X-117307Y184693D01*
X-127000Y175000D01*
X-128702D01*
X-129462Y176138D01*
X-130627Y176916D01*
X-132000Y177189D01*
X-133373Y176916D01*
X-134538Y176138D01*
X-135298Y175000D01*
X-143401D01*
X-144139Y175493D01*
X-146000Y175863D01*
X-147861Y175493D01*
X-148599Y175000D01*
X-149000D01*
Y174732D01*
X-149439Y174439D01*
X-150493Y172861D01*
X-150863Y171000D01*
X-150493Y169139D01*
X-149439Y167561D01*
X-149000Y167268D01*
Y-63650D01*
X-152886Y-65894D01*
X-154269Y-66955D01*
X-155330Y-68338D01*
X-155997Y-69948D01*
X-156224Y-71677D01*
X-155997Y-73405D01*
X-155330Y-75015D01*
X-154269Y-76398D01*
X-152886Y-77459D01*
X-151276Y-78126D01*
X-149619Y-78344D01*
X-149398Y-78740D01*
X-149078Y-79573D01*
X-149647Y-80947D01*
X-149874Y-82675D01*
X-149647Y-84403D01*
X-149000Y-85965D01*
Y-109000D01*
X-8322D01*
X-6256Y-110104D01*
X-3189Y-111035D01*
X0Y-111349D01*
X3189Y-111035D01*
X6256Y-110104D01*
X8322Y-109000D01*
X66140D01*
X78182Y-122914D01*
X78760Y-123365D01*
X79286Y-123876D01*
X79558Y-123985D01*
X79789Y-124165D01*
X80496Y-124359D01*
X81178Y-124631D01*
X81471Y-124627D01*
X81753Y-124705D01*
X82481Y-124614D01*
X83214Y-124605D01*
X83483Y-124489D01*
X83774Y-124452D01*
X84412Y-124090D01*
X85086Y-123800D01*
X87824Y-121919D01*
X87908Y-121832D01*
X88018Y-121779D01*
X93315Y-117769D01*
X93396Y-117678D01*
X93503Y-117620D01*
X98611Y-113371D01*
X98687Y-113277D01*
X98791Y-113214D01*
X103411Y-109000D01*
X190000D01*
X220000Y-79000D01*
Y-30162D01*
X221831Y-28331D01*
X222393Y-27491D01*
X222590Y-26500D01*
Y43927D01*
X228073Y49410D01*
X240138D01*
X241129Y49607D01*
X241969Y50169D01*
X246211Y54410D01*
X255540D01*
X256627Y53684D01*
X258000Y53411D01*
X259373Y53684D01*
X260538Y54462D01*
X261316Y55627D01*
X261390Y56000D01*
X292172Y56000D01*
X297395D01*
X298437Y54730D01*
X298411Y54600D01*
X298684Y53227D01*
X299462Y52062D01*
X300627Y51284D01*
X302000Y51011D01*
X303373Y51284D01*
X304538Y52062D01*
X305264Y53149D01*
X308115Y56000D01*
X344000D01*
X344230Y56230D01*
X359770D01*
Y71770D01*
X368000Y80000D01*
Y106000D01*
X383000Y121000D01*
X383000D01*
X383000Y121000D01*
X383000Y121000D01*
X444780Y121000D01*
X444780Y12077D01*
X443534Y11829D01*
X443479Y11963D01*
X441318Y15489D01*
X438633Y18633D01*
X435489Y21319D01*
X431963Y23479D01*
X428143Y25062D01*
X424122Y26027D01*
X420000Y26351D01*
X415877Y26027D01*
X411857Y25062D01*
X408036Y23479D01*
X404511Y21319D01*
X401367Y18633D01*
X398681Y15489D01*
X396521Y11963D01*
X394938Y8143D01*
X393973Y4122D01*
X393648Y0D01*
X393973Y-4122D01*
X394938Y-8143D01*
X396521Y-11963D01*
X398681Y-15489D01*
X401367Y-18633D01*
X404511Y-21319D01*
X408036Y-23479D01*
X411857Y-25062D01*
X415877Y-26027D01*
X420000Y-26351D01*
X424122Y-26027D01*
X428143Y-25062D01*
X431963Y-23479D01*
X435489Y-21319D01*
X438633Y-18633D01*
X441318Y-15489D01*
X443479Y-11963D01*
X443534Y-11829D01*
X444780Y-12077D01*
Y-163180D01*
X-196780D01*
Y-78012D01*
X-195641Y-77450D01*
X-195059Y-77896D01*
X-192860Y-78807D01*
X-191770Y-78951D01*
Y-70000D01*
Y-61049D01*
X-192860Y-61193D01*
X-195059Y-62104D01*
X-195641Y-62550D01*
X-196780Y-61988D01*
Y-58012D01*
X-195641Y-57450D01*
X-195059Y-57896D01*
X-192860Y-58807D01*
X-191770Y-58951D01*
Y-50000D01*
Y-41049D01*
X-192860Y-41193D01*
X-195059Y-42104D01*
X-195641Y-42550D01*
X-196780Y-41988D01*
Y-38012D01*
X-195641Y-37450D01*
X-195059Y-37896D01*
X-192860Y-38807D01*
X-191770Y-38951D01*
Y-30000D01*
Y-21049D01*
X-192860Y-21193D01*
X-195059Y-22104D01*
X-195641Y-22550D01*
X-196780Y-21988D01*
X-196780Y221988D01*
X-195641Y222550D01*
X-195059Y222104D01*
X-192860Y221193D01*
X-191770Y221049D01*
Y230000D01*
Y238951D01*
X-192860Y238807D01*
X-195059Y237896D01*
X-195641Y237450D01*
X-196780Y238012D01*
Y241988D01*
X-195641Y242550D01*
X-195059Y242104D01*
X-192860Y241193D01*
X-191770Y241049D01*
Y250000D01*
Y258951D01*
X-192860Y258807D01*
X-195059Y257896D01*
X-195641Y257450D01*
X-196780Y258012D01*
Y261988D01*
X-195641Y262550D01*
X-195059Y262104D01*
X-192860Y261193D01*
X-191770Y261049D01*
Y270000D01*
Y278951D01*
X-192860Y278807D01*
X-195059Y277896D01*
X-195641Y277450D01*
X-196780Y278012D01*
Y286000D01*
X-149000D01*
Y196000D01*
D02*
G37*
G36*
X409916Y262369D02*
Y260759D01*
X408646Y260298D01*
X405972Y262972D01*
X405000Y263375D01*
X405000Y263375D01*
X279149Y263375D01*
X278663Y264548D01*
X282781Y268666D01*
X403619D01*
X409916Y262369D01*
D02*
G37*
G36*
Y251241D02*
Y122375D01*
X383000D01*
X382028Y121972D01*
X382028Y121972D01*
Y121972D01*
X367028Y106972D01*
X366625Y106000D01*
X366625Y106000D01*
Y80569D01*
X359096Y73040D01*
X353270D01*
Y64000D01*
X352000D01*
Y62730D01*
X342960D01*
Y57375D01*
X311149D01*
X310663Y58548D01*
X313358Y61242D01*
X314080Y62324D01*
X314334Y63600D01*
Y89000D01*
Y103000D01*
X314080Y104276D01*
X313358Y105358D01*
X236357Y182358D01*
X235276Y183080D01*
X234000Y183334D01*
X221375D01*
Y188058D01*
X228000D01*
X228743Y188206D01*
X229373Y188627D01*
X254232Y213485D01*
X254462Y213462D01*
X255627Y212684D01*
X257000Y212411D01*
X258373Y212684D01*
X259538Y213462D01*
X260316Y214627D01*
X260589Y216000D01*
X260316Y217373D01*
X259538Y218538D01*
X258373Y219316D01*
X257000Y219589D01*
X255627Y219316D01*
X254462Y218538D01*
X253952Y217774D01*
X253832D01*
X253089Y217626D01*
X252459Y217205D01*
X227195Y191942D01*
X221375D01*
Y204431D01*
X222728Y205784D01*
X222877Y205684D01*
X224250Y205411D01*
X225623Y205684D01*
X226788Y206462D01*
X227566Y207627D01*
X227839Y209000D01*
X227566Y210373D01*
X227466Y210522D01*
X251862Y234918D01*
X272092D01*
X272092Y234918D01*
X273064Y235321D01*
X273064Y235321D01*
X287368Y249625D01*
X314659D01*
X314725Y249653D01*
X314793Y249632D01*
X315202Y249851D01*
X315631Y250028D01*
X316769Y249507D01*
X317627Y248934D01*
X319000Y248661D01*
X320373Y248934D01*
X321231Y249507D01*
X322369Y250028D01*
X322798Y249851D01*
X323206Y249632D01*
X323275Y249653D01*
X323341Y249625D01*
X406000Y249625D01*
X406972Y250028D01*
X406972Y250028D01*
X408646Y251702D01*
X409916Y251241D01*
D02*
G37*
G36*
X-131163Y175621D02*
X-130453Y175147D01*
X-129845Y174236D01*
X-129728Y174158D01*
X-129674Y174028D01*
X-129528Y173808D01*
X-129119Y172788D01*
X-129162Y172541D01*
X-129187Y172452D01*
X-129375Y172000D01*
X-129375Y172000D01*
Y-43431D01*
X-142182Y-56238D01*
X-142303Y-56530D01*
X-142511Y-56768D01*
X-142496Y-56997D01*
X-142584Y-57210D01*
X-142463Y-57502D01*
X-142443Y-57818D01*
X-142056Y-58602D01*
X-142047Y-58832D01*
X-142372Y-59830D01*
X-142526Y-60069D01*
X-142570Y-60109D01*
X-143619Y-60544D01*
X-146525Y-62222D01*
X-147625Y-61587D01*
Y167268D01*
X-147679Y167398D01*
X-147652Y167536D01*
X-147874Y167869D01*
X-148028Y168240D01*
X-148158Y168294D01*
X-148236Y168411D01*
X-148448Y168552D01*
X-149198Y169675D01*
X-149462Y171000D01*
X-149198Y172325D01*
X-148448Y173448D01*
X-148236Y173589D01*
X-148158Y173706D01*
X-148028Y173760D01*
X-148002Y173824D01*
X-147836Y173857D01*
X-147325Y174198D01*
X-146000Y174462D01*
X-144675Y174198D01*
X-144164Y173857D01*
X-143771Y173779D01*
X-143401Y173625D01*
X-135298D01*
X-135168Y173679D01*
X-135030Y173652D01*
X-134696Y173874D01*
X-134326Y174028D01*
X-134272Y174158D01*
X-134155Y174236D01*
X-133547Y175147D01*
X-132837Y175621D01*
X-132000Y175787D01*
X-131163Y175621D01*
D02*
G37*
G36*
X307666Y101619D02*
Y92934D01*
X304281D01*
X303000Y93189D01*
X301627Y92916D01*
X300462Y92138D01*
X299684Y90973D01*
X299411Y89600D01*
X299684Y88227D01*
X300462Y87062D01*
X301627Y86284D01*
X303000Y86011D01*
X304281Y86266D01*
X307666D01*
Y64981D01*
X300549Y57864D01*
X299567Y57208D01*
X298367Y56972D01*
X297938Y57149D01*
X297529Y57368D01*
X297461Y57347D01*
X297395Y57375D01*
X292172D01*
X273589Y57375D01*
Y80635D01*
X273632Y80676D01*
X274859Y81197D01*
X275627Y80684D01*
X277000Y80411D01*
X278373Y80684D01*
X279538Y81462D01*
X280316Y82627D01*
X280589Y84000D01*
X280316Y85373D01*
X279538Y86538D01*
X278373Y87316D01*
X277000Y87589D01*
X275627Y87316D01*
X274859Y86803D01*
X273632Y87324D01*
X273589Y87365D01*
Y93000D01*
X273316Y94373D01*
X272538Y95538D01*
X236748Y131328D01*
X235583Y132106D01*
X234210Y132379D01*
X217321D01*
X217196Y133649D01*
X217373Y133684D01*
X218538Y134462D01*
X219316Y135627D01*
X219589Y137000D01*
X219316Y138373D01*
X218538Y139538D01*
X218437Y139605D01*
X219027Y140684D01*
X220400Y140411D01*
X221773Y140684D01*
X222938Y141462D01*
X223716Y142627D01*
X223989Y144000D01*
X223716Y145373D01*
X222938Y146538D01*
X221909Y147225D01*
X221760Y147353D01*
X221256Y148714D01*
X221375Y149000D01*
X221375Y149000D01*
Y154160D01*
X222645Y154839D01*
X222877Y154684D01*
X224250Y154411D01*
X225623Y154684D01*
X226788Y155462D01*
X227566Y156627D01*
X227839Y158000D01*
X227566Y159373D01*
X226788Y160538D01*
X225623Y161316D01*
X224250Y161589D01*
X222877Y161316D01*
X221712Y160538D01*
X221314Y159942D01*
X203000D01*
X203000Y159942D01*
X202257Y159794D01*
X201627Y159373D01*
X200702Y158449D01*
X200000Y158589D01*
X198627Y158316D01*
X197462Y157538D01*
X197212Y157164D01*
X195942Y157549D01*
Y159195D01*
X206955Y170208D01*
X212964D01*
X213462Y169462D01*
X214627Y168684D01*
X216000Y168411D01*
X217373Y168684D01*
X218538Y169462D01*
X219316Y170627D01*
X219589Y172000D01*
X219387Y173013D01*
X220399Y173320D01*
X220660Y173534D01*
X220972Y173663D01*
X221052Y173855D01*
X221212Y173987D01*
X221245Y174323D01*
X221375Y174635D01*
Y176666D01*
X232619D01*
X307666Y101619D01*
D02*
G37*
G36*
X102625Y172431D02*
Y146000D01*
Y90006D01*
X102705Y89814D01*
X102684Y89607D01*
X102899Y89346D01*
X103028Y89034D01*
X103220Y88955D01*
X103352Y88794D01*
X104622Y88115D01*
X104829Y88095D01*
X105002Y87979D01*
X105333Y88045D01*
X105669Y88012D01*
X105830Y88144D01*
X106034Y88184D01*
X106163Y88271D01*
X107000Y88437D01*
X107837Y88271D01*
X108547Y87797D01*
X109021Y87087D01*
X109187Y86250D01*
X109021Y85413D01*
X108547Y84703D01*
X107837Y84229D01*
X107000Y84063D01*
X106163Y84229D01*
X106034Y84316D01*
X105830Y84356D01*
X105669Y84488D01*
X105333Y84455D01*
X105002Y84521D01*
X104829Y84405D01*
X104622Y84385D01*
X103352Y83706D01*
X103220Y83545D01*
X103028Y83466D01*
X102899Y83154D01*
X102684Y82893D01*
X102705Y82686D01*
X102625Y82494D01*
Y78781D01*
X101452Y78295D01*
X82942Y96805D01*
Y165825D01*
X84212Y166210D01*
X84712Y165462D01*
X85877Y164684D01*
X87250Y164411D01*
X88623Y164684D01*
X89788Y165462D01*
X90566Y166627D01*
X90839Y168000D01*
X90566Y169373D01*
X89788Y170538D01*
X88623Y171316D01*
X87250Y171589D01*
X85877Y171316D01*
X84712Y170538D01*
X84212Y169790D01*
X82942Y170175D01*
Y177064D01*
X83538Y177462D01*
X84316Y178627D01*
X84589Y180000D01*
X84316Y181373D01*
X85007Y182625D01*
X92431D01*
X102625Y172431D01*
D02*
G37*
G36*
X77684Y181373D02*
X77411Y180000D01*
X77684Y178627D01*
X78462Y177462D01*
X79058Y177064D01*
Y96000D01*
X79205Y95257D01*
X79627Y94627D01*
X100058Y74195D01*
Y-46000D01*
X100205Y-46743D01*
X100627Y-47373D01*
X103409Y-50156D01*
X103028Y-51434D01*
X102923Y-51687D01*
X102730Y-51880D01*
Y-52154D01*
X102625Y-52406D01*
Y-58992D01*
X102374Y-59228D01*
X101444Y-59655D01*
X100798Y-59387D01*
X100189Y-59041D01*
X99865Y-59000D01*
X99562Y-58875D01*
X98862D01*
X98168Y-58788D01*
X97853Y-58875D01*
X97525D01*
X96879Y-59143D01*
X96204Y-59328D01*
X95946Y-59529D01*
X95644Y-59655D01*
X95149Y-60149D01*
X94596Y-60579D01*
X94435Y-60863D01*
X94203Y-61095D01*
X92551Y-63567D01*
X89076Y-68350D01*
X85377Y-72919D01*
X81444Y-77287D01*
X77287Y-81443D01*
X72919Y-85377D01*
X68351Y-89076D01*
X63567Y-92551D01*
X61095Y-94203D01*
X60863Y-94435D01*
X60579Y-94596D01*
X60149Y-95149D01*
X59654Y-95644D01*
X59529Y-95946D01*
X59328Y-96204D01*
X59143Y-96879D01*
X58875Y-97525D01*
Y-97853D01*
X58788Y-98168D01*
X58875Y-98862D01*
Y-99562D01*
X59000Y-99865D01*
X59041Y-100189D01*
X59387Y-100798D01*
X59654Y-101444D01*
X59886Y-101675D01*
X60048Y-101960D01*
X63951Y-106470D01*
X63423Y-107625D01*
X12057D01*
X11729Y-106355D01*
X13593Y-104083D01*
X15104Y-101256D01*
X16035Y-98189D01*
X16349Y-95000D01*
X16035Y-91811D01*
X15104Y-88744D01*
X13593Y-85917D01*
X11560Y-83440D01*
X9083Y-81407D01*
X6256Y-79896D01*
X3189Y-78966D01*
X0Y-78651D01*
X-3189Y-78966D01*
X-6256Y-79896D01*
X-9083Y-81407D01*
X-11560Y-83440D01*
X-13593Y-85917D01*
X-15104Y-88744D01*
X-16035Y-91811D01*
X-16349Y-95000D01*
X-16035Y-98189D01*
X-15104Y-101256D01*
X-13593Y-104083D01*
X-11729Y-106355D01*
X-12057Y-107625D01*
X-116885D01*
X-117411Y-106355D01*
X-104028Y-92972D01*
X-103625Y-92000D01*
X-103625Y-92000D01*
Y106334D01*
X-103653Y106401D01*
X-103632Y106469D01*
X-103851Y106878D01*
X-104028Y107306D01*
X-104094Y107334D01*
X-104128Y107397D01*
X-105110Y108203D01*
X-105178Y108224D01*
X-105218Y108283D01*
X-105520Y108343D01*
X-105732Y108485D01*
X-107325Y108802D01*
X-108448Y109552D01*
X-109198Y110675D01*
X-109462Y112000D01*
X-109198Y113325D01*
X-108448Y114448D01*
X-107325Y115198D01*
X-105732Y115515D01*
X-105520Y115657D01*
X-105218Y115717D01*
X-105178Y115776D01*
X-105110Y115797D01*
X-104128Y116603D01*
X-104094Y116666D01*
X-104028Y116693D01*
X-103850Y117122D01*
X-103632Y117531D01*
X-103653Y117599D01*
X-103625Y117666D01*
Y133431D01*
X-83540Y153516D01*
X-83386Y153887D01*
X-83163Y154220D01*
X-83021Y154937D01*
X-82547Y155647D01*
X-81837Y156121D01*
X-81120Y156264D01*
X-80787Y156486D01*
X-80416Y156640D01*
X-79431Y157625D01*
X-19377D01*
Y154650D01*
X-19150Y152922D01*
X-18483Y151312D01*
X-17421Y149929D01*
X-16039Y148867D01*
X-14428Y148200D01*
X-12700Y147973D01*
X-10972Y148200D01*
X-9361Y148867D01*
X-7979Y149929D01*
X-7926Y149997D01*
X-6350Y149965D01*
X-5627Y149023D01*
X-3979Y147758D01*
X-2060Y146963D01*
X-1270Y146859D01*
Y160000D01*
X1270D01*
Y146859D01*
X2060Y146963D01*
X3979Y147758D01*
X5627Y149023D01*
X6350Y149965D01*
X7926Y149997D01*
X7979Y149929D01*
X9361Y148867D01*
X10972Y148200D01*
X12700Y147973D01*
X14428Y148200D01*
X16039Y148867D01*
X17421Y149929D01*
X18483Y151312D01*
X19150Y152922D01*
X19377Y154650D01*
Y156781D01*
X20647Y157630D01*
X20658Y157625D01*
X41000D01*
X41972Y158028D01*
X66569Y182625D01*
X76993D01*
X77684Y181373D01*
D02*
G37*
G36*
X220000Y149000D02*
X208000Y137000D01*
X202942D01*
Y140810D01*
X202942Y140810D01*
X202794Y141553D01*
X202373Y142183D01*
X202373Y142184D01*
X195942Y148615D01*
Y152451D01*
X197212Y152836D01*
X197462Y152462D01*
X198627Y151684D01*
X200000Y151411D01*
X201373Y151684D01*
X202538Y152462D01*
X203316Y153627D01*
X203589Y155000D01*
X204623Y156058D01*
X220000D01*
Y149000D01*
D02*
G37*
G36*
X235604Y114108D02*
X235251Y112665D01*
X234473Y112145D01*
X233714D01*
X233317Y112355D01*
X232589Y113000D01*
X232316Y114373D01*
X231538Y115538D01*
X230373Y116316D01*
X229000Y116589D01*
X227627Y116316D01*
X226462Y115538D01*
X225684Y114373D01*
X225411Y113000D01*
X225684Y111627D01*
X226462Y110462D01*
X227627Y109684D01*
X228126Y109585D01*
X228544Y108207D01*
X220837Y100500D01*
X190958D01*
X190859Y100608D01*
X190345Y101682D01*
X210073Y121410D01*
X228301D01*
X235604Y114108D01*
D02*
G37*
G36*
X180411Y135000D02*
X180520Y134452D01*
X180684Y133627D01*
X181217Y132829D01*
X181148Y132433D01*
X180795Y131665D01*
X180678Y131525D01*
X179627Y131316D01*
X178462Y130538D01*
X177684Y129373D01*
X177411Y128000D01*
X177684Y126627D01*
X178462Y125462D01*
X179627Y124684D01*
X181000Y124411D01*
X182373Y124684D01*
X183538Y125462D01*
X184048Y126226D01*
X184168D01*
X184911Y126374D01*
X185541Y126795D01*
X189804Y131058D01*
X191323D01*
X191809Y129884D01*
X177513Y115589D01*
X173000D01*
X171627Y115316D01*
X170462Y114538D01*
X169684Y113373D01*
X169411Y112000D01*
Y106400D01*
X169684Y105027D01*
X170462Y103862D01*
X171627Y103084D01*
X173000Y102811D01*
X174373Y103084D01*
X175538Y103862D01*
X176316Y105027D01*
X176589Y106400D01*
Y108411D01*
X179000D01*
X180373Y108684D01*
X181538Y109462D01*
X197277Y125201D01*
X204879D01*
X205365Y124028D01*
X185169Y103831D01*
X185169Y103831D01*
X133548Y52210D01*
X132375Y52696D01*
Y83615D01*
X132245Y83926D01*
X132212Y84263D01*
X132052Y84395D01*
X131972Y84587D01*
X131660Y84716D01*
X131399Y84930D01*
X130129Y85315D01*
X129793Y85282D01*
X129462Y85348D01*
X129289Y85232D01*
X129082Y85212D01*
X128868Y84951D01*
X128587Y84764D01*
X128547Y84703D01*
X127837Y84229D01*
X127000Y84063D01*
X126163Y84229D01*
X125453Y84703D01*
X124979Y85413D01*
X124813Y86250D01*
X124979Y87087D01*
X125453Y87797D01*
X126163Y88271D01*
X127000Y88437D01*
X127837Y88271D01*
X128547Y87797D01*
X128587Y87736D01*
X128868Y87549D01*
X129082Y87288D01*
X129289Y87267D01*
X129462Y87152D01*
X129793Y87218D01*
X130129Y87185D01*
X131399Y87570D01*
X131660Y87784D01*
X131972Y87913D01*
X132052Y88105D01*
X132212Y88237D01*
X132245Y88574D01*
X132375Y88885D01*
Y96451D01*
X133645Y96576D01*
X133684Y96377D01*
X134462Y95212D01*
X135627Y94434D01*
X137000Y94161D01*
X138373Y94434D01*
X139538Y95212D01*
X140316Y96377D01*
X140589Y97750D01*
X140316Y99123D01*
X139538Y100288D01*
X138373Y101066D01*
X137000Y101339D01*
X135627Y101066D01*
X134462Y100288D01*
X133684Y99123D01*
X133645Y98924D01*
X132375Y99049D01*
Y124431D01*
X143569Y135625D01*
X179240Y135625D01*
X180411Y135000D01*
D02*
G37*
G36*
X266411Y91513D02*
Y57375D01*
X261514D01*
X261316Y58373D01*
X260538Y59538D01*
X259373Y60316D01*
X258560Y60478D01*
Y61772D01*
X259373Y61934D01*
X260538Y62712D01*
X261316Y63877D01*
X261589Y65250D01*
X261316Y66623D01*
X260538Y67788D01*
X259373Y68566D01*
X258092Y68821D01*
X255041Y71871D01*
X254201Y72433D01*
X253210Y72630D01*
X243040D01*
X242049Y72433D01*
X241209Y71871D01*
X231927Y62590D01*
X221983D01*
X221304Y63860D01*
X221316Y63877D01*
X221589Y65250D01*
X221316Y66623D01*
X220538Y67788D01*
X219373Y68566D01*
X218000Y68839D01*
X216626Y68566D01*
X215462Y67788D01*
X214684Y66623D01*
X214429Y65342D01*
X212951Y63863D01*
X212614Y63893D01*
X211589Y65250D01*
X211316Y66623D01*
X210538Y67788D01*
X209373Y68566D01*
X208000Y68839D01*
X206627Y68566D01*
X205462Y67788D01*
X204684Y66623D01*
X204429Y65342D01*
X196860Y57772D01*
X195590Y58298D01*
Y60250D01*
X195393Y61241D01*
X194831Y62081D01*
X191571Y65342D01*
X191316Y66623D01*
X190538Y67788D01*
X189373Y68566D01*
X188000Y68839D01*
X186627Y68566D01*
X185462Y67788D01*
X184684Y66623D01*
X184411Y65250D01*
X184684Y63877D01*
X185462Y62712D01*
X186627Y61934D01*
X187908Y61679D01*
X190410Y59177D01*
Y24666D01*
X190368Y24626D01*
X189140Y24103D01*
X188373Y24616D01*
X187000Y24889D01*
X185627Y24616D01*
X184462Y23838D01*
X183684Y22673D01*
X183411Y21300D01*
X183684Y19927D01*
X184462Y18762D01*
X185627Y17984D01*
X187000Y17711D01*
X188373Y17984D01*
X189140Y18497D01*
X190368Y17974D01*
X190410Y17934D01*
Y-16334D01*
X190368Y-16374D01*
X189140Y-16897D01*
X188373Y-16384D01*
X187000Y-16111D01*
X185627Y-16384D01*
X184462Y-17162D01*
X183684Y-18327D01*
X183411Y-19700D01*
X183684Y-21074D01*
X184462Y-22238D01*
X185627Y-23016D01*
X187000Y-23289D01*
X188373Y-23016D01*
X189140Y-22503D01*
X190368Y-23026D01*
X190410Y-23066D01*
Y-49700D01*
X190607Y-50691D01*
X191169Y-51531D01*
X200429Y-60792D01*
X200684Y-62073D01*
X201462Y-63238D01*
X202627Y-64016D01*
X204000Y-64289D01*
X205373Y-64016D01*
X206538Y-63238D01*
X207316Y-62073D01*
X207589Y-60700D01*
X207316Y-59327D01*
X206538Y-58162D01*
X205373Y-57384D01*
X204092Y-57129D01*
X195590Y-48627D01*
Y-16748D01*
X196860Y-16222D01*
X200429Y-19792D01*
X200684Y-21074D01*
X201462Y-22238D01*
X202627Y-23016D01*
X204000Y-23289D01*
X205373Y-23016D01*
X206538Y-22238D01*
X207316Y-21074D01*
X207589Y-19700D01*
X207316Y-18327D01*
X206538Y-17162D01*
X205373Y-16384D01*
X204092Y-16129D01*
X200590Y-12627D01*
Y17934D01*
X200632Y17974D01*
X201860Y18497D01*
X202627Y17984D01*
X204000Y17711D01*
X205373Y17984D01*
X206538Y18762D01*
X207316Y19927D01*
X207589Y21300D01*
X207549Y21504D01*
X208629Y22584D01*
X208790Y22552D01*
X210163Y22825D01*
X211140Y23477D01*
X211877Y23265D01*
X212410Y22937D01*
Y-19540D01*
X211684Y-20627D01*
X211411Y-22000D01*
X211684Y-23373D01*
X212462Y-24538D01*
X213627Y-25316D01*
X215000Y-25589D01*
X215565Y-25477D01*
X216190Y-26647D01*
X213169Y-29669D01*
X212607Y-30509D01*
X212410Y-31500D01*
Y-60540D01*
X211684Y-61627D01*
X211411Y-63000D01*
X211684Y-64373D01*
X212462Y-65538D01*
X213627Y-66316D01*
X215000Y-66589D01*
X216373Y-66316D01*
X217355Y-65660D01*
X218081Y-65867D01*
X218625Y-66196D01*
Y-78431D01*
X189431Y-107625D01*
X106478D01*
X105992Y-106452D01*
X108571Y-103873D01*
X108638Y-103772D01*
X108736Y-103700D01*
X113214Y-98791D01*
X113277Y-98687D01*
X113371Y-98611D01*
X117620Y-93503D01*
X117678Y-93396D01*
X117769Y-93315D01*
X119958Y-90423D01*
X121379Y-90650D01*
X121798Y-91662D01*
X122859Y-93045D01*
X124242Y-94106D01*
X133509Y-99456D01*
X135119Y-100123D01*
X136847Y-100351D01*
X138575Y-100123D01*
X140186Y-99456D01*
X140782Y-98999D01*
X142898Y-100221D01*
X142984Y-100428D01*
X143276Y-100549D01*
X143514Y-100758D01*
X143744Y-100743D01*
X143956Y-100831D01*
X149544Y-100831D01*
X150516Y-100428D01*
X150516Y-100428D01*
X162972Y-87972D01*
X163375Y-87000D01*
X163375Y-87000D01*
Y-66000D01*
X162972Y-65028D01*
X162972Y-65028D01*
X132375Y-34431D01*
Y-27696D01*
X133548Y-27211D01*
X147429Y-41092D01*
X147684Y-42373D01*
X148462Y-43538D01*
X149627Y-44316D01*
X151000Y-44589D01*
X152373Y-44316D01*
X153538Y-43538D01*
X154316Y-42373D01*
X154589Y-41000D01*
X154316Y-39627D01*
X153538Y-38462D01*
X152373Y-37684D01*
X151092Y-37429D01*
X132590Y-18927D01*
Y12952D01*
X133860Y13478D01*
X147429Y-92D01*
X147684Y-1373D01*
X148462Y-2538D01*
X149627Y-3316D01*
X151000Y-3589D01*
X152373Y-3316D01*
X153538Y-2538D01*
X154316Y-1373D01*
X154589Y0D01*
X154316Y1373D01*
X153538Y2538D01*
X152373Y3316D01*
X151092Y3571D01*
X137590Y17073D01*
Y40927D01*
X191983Y95320D01*
X221910D01*
X222901Y95517D01*
X223741Y96079D01*
X224229Y96566D01*
X225243Y96080D01*
X225419Y95960D01*
X225684Y94627D01*
X226462Y93462D01*
X227251Y92935D01*
X227302Y92782D01*
X226737Y91590D01*
X223460D01*
X222373Y92316D01*
X221000Y92589D01*
X219627Y92316D01*
X218462Y91538D01*
X217684Y90373D01*
X217411Y89000D01*
X217684Y87627D01*
X218462Y86462D01*
X219627Y85684D01*
X221000Y85411D01*
X222373Y85684D01*
X223460Y86410D01*
X228774D01*
X229765Y86607D01*
X230605Y87169D01*
X243621Y100185D01*
X244182Y101025D01*
X244380Y102016D01*
Y111584D01*
X244339Y111790D01*
X245509Y112415D01*
X266411Y91513D01*
D02*
G37*
G36*
X120953Y-67700D02*
X121583Y-68121D01*
X122326Y-68269D01*
X133920D01*
X134400Y-69429D01*
X134137Y-70112D01*
X133677Y-70681D01*
X132203Y-70875D01*
X130592Y-71543D01*
X129209Y-72604D01*
X128148Y-73986D01*
X127481Y-75597D01*
X127254Y-77325D01*
X127481Y-79053D01*
X127514Y-79133D01*
X126698Y-80482D01*
X125521Y-80637D01*
X124467Y-80193D01*
X124173Y-79820D01*
X124165Y-79789D01*
X123985Y-79558D01*
X123876Y-79286D01*
X123494Y-78893D01*
X123190Y-78438D01*
X123031Y-78332D01*
X122914Y-78182D01*
X104000Y-61813D01*
Y-52406D01*
X105173Y-51920D01*
X120953Y-67700D01*
D02*
G37*
%LPC*%
G36*
X27525Y418730D02*
X1270D01*
Y392474D01*
X4322Y392715D01*
X8537Y393727D01*
X12542Y395386D01*
X16238Y397650D01*
X19534Y400466D01*
X22349Y403762D01*
X24614Y407458D01*
X26273Y411463D01*
X27285Y415678D01*
X27525Y418730D01*
D02*
G37*
G36*
X-1270D02*
X-27525D01*
X-27285Y415678D01*
X-26273Y411463D01*
X-24614Y407458D01*
X-22349Y403762D01*
X-19534Y400466D01*
X-16238Y397650D01*
X-12542Y395386D01*
X-8537Y393727D01*
X-4322Y392715D01*
X-1270Y392474D01*
Y418730D01*
D02*
G37*
G36*
X371270Y397525D02*
Y371270D01*
X397525D01*
X397285Y374321D01*
X396273Y378536D01*
X394614Y382541D01*
X392349Y386237D01*
X389534Y389534D01*
X386237Y392349D01*
X382541Y394614D01*
X378536Y396273D01*
X374321Y397285D01*
X371270Y397525D01*
D02*
G37*
G36*
X368730D02*
X365678Y397285D01*
X361463Y396273D01*
X357458Y394614D01*
X353762Y392349D01*
X350466Y389534D01*
X347650Y386237D01*
X345386Y382541D01*
X343727Y378536D01*
X342715Y374321D01*
X342475Y371270D01*
X368730D01*
Y397525D01*
D02*
G37*
G36*
X397525Y368730D02*
X371270D01*
Y342475D01*
X374321Y342715D01*
X378536Y343727D01*
X382541Y345386D01*
X386237Y347650D01*
X389534Y350466D01*
X392349Y353762D01*
X394614Y357458D01*
X396273Y361463D01*
X397285Y365678D01*
X397525Y368730D01*
D02*
G37*
G36*
X368730D02*
X342475D01*
X342715Y365678D01*
X343727Y361463D01*
X345386Y357458D01*
X347650Y353762D01*
X350466Y350466D01*
X353762Y347650D01*
X357458Y345386D01*
X361463Y343727D01*
X365678Y342715D01*
X368730Y342475D01*
Y368730D01*
D02*
G37*
G36*
X220730Y331951D02*
X219640Y331807D01*
X217441Y330896D01*
X215553Y329447D01*
X214104Y327559D01*
X213193Y325360D01*
X213049Y324270D01*
X220730D01*
Y331951D01*
D02*
G37*
G36*
X202000Y330837D02*
X199972Y330570D01*
X198081Y329787D01*
X196458Y328542D01*
X195213Y326918D01*
X194430Y325028D01*
X194163Y323000D01*
X194430Y320972D01*
X195213Y319081D01*
X196458Y317458D01*
X198081Y316213D01*
X199972Y315430D01*
X202000Y315163D01*
X204028Y315430D01*
X205919Y316213D01*
X207542Y317458D01*
X208787Y319081D01*
X209570Y320972D01*
X209837Y323000D01*
X209570Y325028D01*
X208787Y326918D01*
X207542Y328542D01*
X205919Y329787D01*
X204028Y330570D01*
X202000Y330837D01*
D02*
G37*
G36*
X220730Y321730D02*
X213049D01*
X213193Y320640D01*
X214104Y318441D01*
X215553Y316553D01*
X217441Y315104D01*
X219640Y314193D01*
X220730Y314049D01*
Y321730D01*
D02*
G37*
G36*
X319000Y319339D02*
X317627Y319066D01*
X316462Y318288D01*
X315684Y317123D01*
X315411Y315750D01*
X315684Y314377D01*
X316462Y313212D01*
X317627Y312434D01*
X319000Y312161D01*
X320373Y312434D01*
X321538Y313212D01*
X322316Y314377D01*
X322589Y315750D01*
X322316Y317123D01*
X321538Y318288D01*
X320373Y319066D01*
X319000Y319339D01*
D02*
G37*
G36*
X74000Y337589D02*
X72627Y337316D01*
X71462Y336538D01*
X70684Y335373D01*
X70411Y334000D01*
X70684Y332627D01*
X71462Y331462D01*
X72058Y331064D01*
Y299000D01*
X72206Y298257D01*
X72627Y297627D01*
X85626Y284627D01*
X85626Y284627D01*
X86257Y284206D01*
X87000Y284058D01*
X87000Y284058D01*
X91064D01*
X91462Y283462D01*
X92627Y282684D01*
X94000Y282411D01*
X95373Y282684D01*
X96538Y283462D01*
X97316Y284627D01*
X97589Y286000D01*
X97316Y287373D01*
X96538Y288538D01*
X95373Y289316D01*
X94000Y289589D01*
X92627Y289316D01*
X91462Y288538D01*
X91064Y287942D01*
X87804D01*
X75942Y299804D01*
Y331064D01*
X76538Y331462D01*
X77316Y332627D01*
X77589Y334000D01*
X77316Y335373D01*
X76538Y336538D01*
X75373Y337316D01*
X74000Y337589D01*
D02*
G37*
G36*
X-98960Y267040D02*
X-106730D01*
Y259270D01*
X-98960D01*
Y267040D01*
D02*
G37*
G36*
X-109270D02*
X-117040D01*
Y259270D01*
X-109270D01*
Y267040D01*
D02*
G37*
G36*
X-68000Y265837D02*
X-70028Y265570D01*
X-71919Y264787D01*
X-73542Y263542D01*
X-74787Y261919D01*
X-75570Y260028D01*
X-75837Y258000D01*
X-75570Y255972D01*
X-74787Y254081D01*
X-73542Y252458D01*
X-71919Y251213D01*
X-70028Y250430D01*
X-68000Y250163D01*
X-65972Y250430D01*
X-64082Y251213D01*
X-62458Y252458D01*
X-61213Y254081D01*
X-60430Y255972D01*
X-60163Y258000D01*
X-60430Y260028D01*
X-61213Y261919D01*
X-62458Y263542D01*
X-64082Y264787D01*
X-65972Y265570D01*
X-68000Y265837D01*
D02*
G37*
G36*
X-88000D02*
X-90028Y265570D01*
X-91918Y264787D01*
X-93542Y263542D01*
X-94787Y261919D01*
X-95570Y260028D01*
X-95837Y258000D01*
X-95570Y255972D01*
X-94787Y254081D01*
X-93542Y252458D01*
X-91918Y251213D01*
X-90028Y250430D01*
X-88000Y250163D01*
X-85972Y250430D01*
X-84081Y251213D01*
X-82458Y252458D01*
X-81213Y254081D01*
X-80430Y255972D01*
X-80163Y258000D01*
X-80430Y260028D01*
X-81213Y261919D01*
X-82458Y263542D01*
X-84081Y264787D01*
X-85972Y265570D01*
X-88000Y265837D01*
D02*
G37*
G36*
X-98960Y256730D02*
X-106730D01*
Y248960D01*
X-98960D01*
Y256730D01*
D02*
G37*
G36*
X-109270D02*
X-117040D01*
Y248960D01*
X-109270D01*
Y256730D01*
D02*
G37*
G36*
X243270Y331951D02*
Y324270D01*
X250951D01*
X250807Y325360D01*
X249896Y327559D01*
X248447Y329447D01*
X246559Y330896D01*
X244360Y331807D01*
X243270Y331951D01*
D02*
G37*
G36*
X240730D02*
X239640Y331807D01*
X237441Y330896D01*
X235553Y329447D01*
X234104Y327559D01*
X233193Y325360D01*
X233049Y324270D01*
X240730D01*
Y331951D01*
D02*
G37*
G36*
X250951Y321730D02*
X243270D01*
Y314049D01*
X244360Y314193D01*
X246559Y315104D01*
X248447Y316553D01*
X249896Y318441D01*
X250807Y320640D01*
X250951Y321730D01*
D02*
G37*
G36*
X240730D02*
X233049D01*
X233193Y320640D01*
X234104Y318441D01*
X235553Y316553D01*
X237441Y315104D01*
X239640Y314193D01*
X240730Y314049D01*
Y321730D01*
D02*
G37*
G36*
X247000Y278589D02*
X245627Y278316D01*
X244462Y277538D01*
X243684Y276373D01*
X243411Y275000D01*
X243684Y273627D01*
X244462Y272462D01*
X245627Y271684D01*
X247000Y271411D01*
X248373Y271684D01*
X249538Y272462D01*
X250316Y273627D01*
X250589Y275000D01*
X250316Y276373D01*
X249538Y277538D01*
X248373Y278316D01*
X247000Y278589D01*
D02*
G37*
G36*
X258600Y261589D02*
X257227Y261316D01*
X256062Y260538D01*
X255284Y259373D01*
X255011Y258000D01*
X255284Y256627D01*
X256062Y255462D01*
X257227Y254684D01*
X258600Y254411D01*
X259973Y254684D01*
X261138Y255462D01*
X261916Y256627D01*
X262189Y258000D01*
X261916Y259373D01*
X261138Y260538D01*
X259973Y261316D01*
X258600Y261589D01*
D02*
G37*
G36*
X247400D02*
X246027Y261316D01*
X244862Y260538D01*
X244084Y259373D01*
X243811Y258000D01*
X244084Y256627D01*
X244862Y255462D01*
X246027Y254684D01*
X247400Y254411D01*
X248773Y254684D01*
X249938Y255462D01*
X250716Y256627D01*
X250989Y258000D01*
X250716Y259373D01*
X249938Y260538D01*
X248773Y261316D01*
X247400Y261589D01*
D02*
G37*
G36*
X199000Y266589D02*
X197627Y266316D01*
X196462Y265538D01*
X195684Y264373D01*
X195411Y263000D01*
X195684Y261627D01*
X196394Y260564D01*
X196441Y260314D01*
X196259Y259070D01*
X195462Y258538D01*
X194684Y257373D01*
X194411Y256000D01*
X194684Y254627D01*
X195462Y253462D01*
X196627Y252684D01*
X198000Y252411D01*
X199373Y252684D01*
X200538Y253462D01*
X201316Y254627D01*
X201589Y256000D01*
X201316Y257373D01*
X200606Y258436D01*
X200559Y258686D01*
X200741Y259930D01*
X201538Y260462D01*
X202316Y261627D01*
X202589Y263000D01*
X202316Y264373D01*
X201538Y265538D01*
X200373Y266316D01*
X199000Y266589D01*
D02*
G37*
G36*
X170080Y259669D02*
X168706Y259396D01*
X167542Y258618D01*
X166764Y257453D01*
X166626Y256759D01*
X166171Y255909D01*
X165321Y255454D01*
X164627Y255316D01*
X163462Y254538D01*
X162684Y253373D01*
X162411Y252000D01*
X162684Y250627D01*
X163462Y249462D01*
X164627Y248684D01*
X166000Y248411D01*
X167373Y248684D01*
X168538Y249462D01*
X169316Y250627D01*
X169454Y251321D01*
X169909Y252171D01*
X170759Y252626D01*
X171453Y252764D01*
X172618Y253542D01*
X173108Y254275D01*
X173286Y254329D01*
X174479Y254291D01*
X174519Y254275D01*
X175062Y253462D01*
X176227Y252684D01*
X177600Y252411D01*
X178973Y252684D01*
X180138Y253462D01*
X180916Y254627D01*
X181189Y256000D01*
X180916Y257373D01*
X180138Y258538D01*
X178973Y259316D01*
X177600Y259589D01*
X176227Y259316D01*
X175062Y258538D01*
X174572Y257805D01*
X174394Y257751D01*
X173201Y257789D01*
X173161Y257805D01*
X172618Y258618D01*
X171453Y259396D01*
X170080Y259669D01*
D02*
G37*
G36*
X157400Y259589D02*
X156027Y259316D01*
X154862Y258538D01*
X154084Y257373D01*
X153811Y256000D01*
X154084Y254627D01*
X154862Y253462D01*
X156027Y252684D01*
X157400Y252411D01*
X158773Y252684D01*
X159938Y253462D01*
X160716Y254627D01*
X160989Y256000D01*
X160716Y257373D01*
X159938Y258538D01*
X158773Y259316D01*
X157400Y259589D01*
D02*
G37*
G36*
X206310Y244589D02*
X204937Y244316D01*
X203772Y243538D01*
X202994Y242373D01*
X202721Y241000D01*
X202994Y239627D01*
X203772Y238462D01*
X204937Y237684D01*
X206310Y237411D01*
X207684Y237684D01*
X208848Y238462D01*
X209626Y239627D01*
X209899Y241000D01*
X209626Y242373D01*
X208848Y243538D01*
X207684Y244316D01*
X206310Y244589D01*
D02*
G37*
G36*
X214000Y240589D02*
X212627Y240316D01*
X211462Y239538D01*
X210684Y238373D01*
X210411Y237000D01*
X210684Y235627D01*
X211462Y234462D01*
X212627Y233684D01*
X214000Y233411D01*
X215373Y233684D01*
X216538Y234462D01*
X217316Y235627D01*
X217589Y237000D01*
X217316Y238373D01*
X216538Y239538D01*
X215373Y240316D01*
X214000Y240589D01*
D02*
G37*
G36*
X209000Y225589D02*
X207627Y225316D01*
X206462Y224538D01*
X205684Y223373D01*
X205411Y222000D01*
X205684Y220627D01*
X206462Y219462D01*
X207627Y218684D01*
X209000Y218411D01*
X210373Y218684D01*
X211538Y219462D01*
X212316Y220627D01*
X212589Y222000D01*
X212316Y223373D01*
X211538Y224538D01*
X210373Y225316D01*
X209000Y225589D01*
D02*
G37*
G36*
X137000Y224589D02*
X135627Y224316D01*
X134462Y223538D01*
X133684Y222373D01*
X133411Y221000D01*
X133684Y219627D01*
X134462Y218462D01*
X135627Y217684D01*
X137000Y217411D01*
X138373Y217684D01*
X139538Y218462D01*
X140316Y219627D01*
X140589Y221000D01*
X140316Y222373D01*
X139538Y223538D01*
X138373Y224316D01*
X137000Y224589D01*
D02*
G37*
G36*
X178850Y223739D02*
X177477Y223466D01*
X176312Y222688D01*
X175534Y221523D01*
X175261Y220150D01*
X175534Y218777D01*
X176312Y217612D01*
X177477Y216834D01*
X178850Y216561D01*
X180223Y216834D01*
X181388Y217612D01*
X182166Y218777D01*
X182439Y220150D01*
X182166Y221523D01*
X181388Y222688D01*
X180223Y223466D01*
X178850Y223739D01*
D02*
G37*
G36*
X219000Y223589D02*
X217627Y223316D01*
X216462Y222538D01*
X215684Y221373D01*
X215411Y220000D01*
X215684Y218627D01*
X216462Y217462D01*
X217627Y216684D01*
X219000Y216411D01*
X220373Y216684D01*
X221538Y217462D01*
X222316Y218627D01*
X222589Y220000D01*
X222316Y221373D01*
X221538Y222538D01*
X220373Y223316D01*
X219000Y223589D01*
D02*
G37*
G36*
X101000Y204189D02*
X99627Y203916D01*
X98462Y203138D01*
X97684Y201973D01*
X97411Y200600D01*
X97684Y199227D01*
X98462Y198062D01*
X99627Y197284D01*
X101000Y197011D01*
X102373Y197284D01*
X103538Y198062D01*
X104316Y199227D01*
X104589Y200600D01*
X104316Y201973D01*
X103538Y203138D01*
X102373Y203916D01*
X101000Y204189D01*
D02*
G37*
G36*
X157500Y203239D02*
X156127Y202966D01*
X154962Y202188D01*
X154184Y201023D01*
X153911Y199650D01*
X154184Y198277D01*
X154962Y197112D01*
X156127Y196334D01*
X157500Y196061D01*
X158873Y196334D01*
X160038Y197112D01*
X160816Y198277D01*
X161089Y199650D01*
X160816Y201023D01*
X160038Y202188D01*
X158873Y202966D01*
X157500Y203239D01*
D02*
G37*
G36*
X214000Y203189D02*
X212627Y202916D01*
X211462Y202138D01*
X210684Y200973D01*
X210411Y199600D01*
X210684Y198227D01*
X211462Y197062D01*
X212627Y196284D01*
X214000Y196011D01*
X215373Y196284D01*
X216538Y197062D01*
X217316Y198227D01*
X217589Y199600D01*
X217316Y200973D01*
X216538Y202138D01*
X215373Y202916D01*
X214000Y203189D01*
D02*
G37*
G36*
X0Y186964D02*
X-1373Y186691D01*
X-2538Y185913D01*
X-3316Y184748D01*
X-3589Y183375D01*
X-3316Y182002D01*
X-2538Y180837D01*
X-1373Y180059D01*
X0Y179786D01*
X1373Y180059D01*
X2538Y180837D01*
X3316Y182002D01*
X3589Y183375D01*
X3316Y184748D01*
X2538Y185913D01*
X1373Y186691D01*
X0Y186964D01*
D02*
G37*
G36*
X-10000D02*
X-11373Y186691D01*
X-12538Y185913D01*
X-13316Y184748D01*
X-13589Y183375D01*
X-13316Y182002D01*
X-12538Y180837D01*
X-11373Y180059D01*
X-10000Y179786D01*
X-8626Y180059D01*
X-7462Y180837D01*
X-6684Y182002D01*
X-6411Y183375D01*
X-6684Y184748D01*
X-7462Y185913D01*
X-8626Y186691D01*
X-10000Y186964D01*
D02*
G37*
G36*
X-102500Y183364D02*
X-103873Y183091D01*
X-105038Y182313D01*
X-105816Y181148D01*
X-106089Y179775D01*
X-105816Y178402D01*
X-105038Y177237D01*
X-103873Y176459D01*
X-102500Y176186D01*
X-101126Y176459D01*
X-99962Y177237D01*
X-99184Y178402D01*
X-98911Y179775D01*
X-99184Y181148D01*
X-99962Y182313D01*
X-101126Y183091D01*
X-102500Y183364D01*
D02*
G37*
G36*
X136150Y182739D02*
X134777Y182466D01*
X133612Y181688D01*
X132834Y180523D01*
X132561Y179150D01*
X132834Y177777D01*
X133612Y176612D01*
X134777Y175834D01*
X136150Y175561D01*
X137523Y175834D01*
X138688Y176612D01*
X139466Y177777D01*
X139739Y179150D01*
X139466Y180523D01*
X138688Y181688D01*
X137523Y182466D01*
X136150Y182739D01*
D02*
G37*
G36*
X-110500Y176689D02*
X-111873Y176416D01*
X-113038Y175638D01*
X-113115Y175522D01*
X-114385D01*
X-114462Y175638D01*
X-115627Y176416D01*
X-117000Y176689D01*
X-118373Y176416D01*
X-119538Y175638D01*
X-120316Y174473D01*
X-120589Y173100D01*
X-120316Y171727D01*
X-119538Y170562D01*
X-118373Y169784D01*
X-117000Y169511D01*
X-115627Y169784D01*
X-114462Y170562D01*
X-114385Y170678D01*
X-113115D01*
X-113038Y170562D01*
X-111873Y169784D01*
X-110500Y169511D01*
X-109127Y169784D01*
X-107962Y170562D01*
X-107184Y171727D01*
X-106911Y173100D01*
X-107184Y174473D01*
X-107962Y175638D01*
X-109127Y176416D01*
X-110500Y176689D01*
D02*
G37*
G36*
X178000Y181889D02*
X176627Y181616D01*
X175462Y180838D01*
X174684Y179673D01*
X174411Y178300D01*
X174684Y176927D01*
X175462Y175762D01*
X176627Y174984D01*
X178000Y174711D01*
X179373Y174984D01*
X180538Y175762D01*
X181316Y176927D01*
X181589Y178300D01*
X181316Y179673D01*
X180538Y180838D01*
X179373Y181616D01*
X178000Y181889D01*
D02*
G37*
G36*
X10000Y181589D02*
X8627Y181316D01*
X7462Y180538D01*
X6684Y179373D01*
X6411Y178000D01*
X6684Y176627D01*
X7462Y175462D01*
X8627Y174684D01*
X10000Y174411D01*
X11373Y174684D01*
X12538Y175462D01*
X13316Y176627D01*
X13589Y178000D01*
X13316Y179373D01*
X12538Y180538D01*
X11373Y181316D01*
X10000Y181589D01*
D02*
G37*
G36*
X145000Y149589D02*
X143627Y149316D01*
X142462Y148538D01*
X142264Y148241D01*
X140736D01*
X140538Y148538D01*
X139373Y149316D01*
X138000Y149589D01*
X136627Y149316D01*
X135462Y148538D01*
X135264Y148241D01*
X133736D01*
X133538Y148538D01*
X132373Y149316D01*
X131000Y149589D01*
X129627Y149316D01*
X128462Y148538D01*
X128264Y148241D01*
X126736D01*
X126538Y148538D01*
X125373Y149316D01*
X124000Y149589D01*
X122627Y149316D01*
X121462Y148538D01*
X120684Y147373D01*
X120411Y146000D01*
X120684Y144627D01*
X121462Y143462D01*
X122627Y142684D01*
X124000Y142411D01*
X125373Y142684D01*
X126538Y143462D01*
X126736Y143759D01*
X128264D01*
X128462Y143462D01*
X129627Y142684D01*
X131000Y142411D01*
X132373Y142684D01*
X133538Y143462D01*
X133736Y143759D01*
X135264D01*
X135462Y143462D01*
X136627Y142684D01*
X138000Y142411D01*
X139373Y142684D01*
X140538Y143462D01*
X140736Y143759D01*
X142264D01*
X142462Y143462D01*
X143627Y142684D01*
X145000Y142411D01*
X146373Y142684D01*
X147538Y143462D01*
X147780Y143825D01*
X149106Y143523D01*
X149284Y142627D01*
X150062Y141462D01*
X151227Y140684D01*
X152600Y140411D01*
X153973Y140684D01*
X155138Y141462D01*
X155916Y142627D01*
X156189Y144000D01*
X155916Y145373D01*
X155138Y146538D01*
X153973Y147316D01*
X152600Y147589D01*
X151227Y147316D01*
X150062Y146538D01*
X149820Y146175D01*
X148494Y146477D01*
X148316Y147373D01*
X147538Y148538D01*
X146373Y149316D01*
X145000Y149589D01*
D02*
G37*
G36*
X-112000Y154589D02*
X-113373Y154316D01*
X-114538Y153538D01*
X-115316Y152373D01*
X-115589Y151000D01*
X-115316Y149627D01*
X-114538Y148462D01*
X-113373Y147684D01*
X-112000Y147411D01*
X-110627Y147684D01*
X-109462Y148462D01*
X-108684Y149627D01*
X-108411Y151000D01*
X-108684Y152373D01*
X-109462Y153538D01*
X-110627Y154316D01*
X-112000Y154589D01*
D02*
G37*
G36*
X-114000Y130863D02*
X-115861Y130493D01*
X-117439Y129439D01*
X-118493Y127861D01*
X-118863Y126000D01*
X-118493Y124139D01*
X-117439Y122561D01*
X-115861Y121507D01*
X-114000Y121137D01*
X-112139Y121507D01*
X-110561Y122561D01*
X-109507Y124139D01*
X-109137Y126000D01*
X-109507Y127861D01*
X-110561Y129439D01*
X-112139Y130493D01*
X-114000Y130863D01*
D02*
G37*
G36*
X-121000Y118863D02*
X-122861Y118493D01*
X-124439Y117439D01*
X-125493Y115861D01*
X-125864Y114000D01*
X-125493Y112139D01*
X-124439Y110561D01*
X-122861Y109507D01*
X-121000Y109137D01*
X-119139Y109507D01*
X-117561Y110561D01*
X-116507Y112139D01*
X-116137Y114000D01*
X-116507Y115861D01*
X-117561Y117439D01*
X-119139Y118493D01*
X-121000Y118863D01*
D02*
G37*
G36*
X117000Y101339D02*
X115627Y101066D01*
X114462Y100288D01*
X113684Y99123D01*
X113411Y97750D01*
X113684Y96377D01*
X114462Y95212D01*
X115627Y94434D01*
X117000Y94161D01*
X118373Y94434D01*
X119538Y95212D01*
X120316Y96377D01*
X120589Y97750D01*
X120316Y99123D01*
X119538Y100288D01*
X118373Y101066D01*
X117000Y101339D01*
D02*
G37*
G36*
X-117000Y103863D02*
X-118861Y103493D01*
X-120439Y102439D01*
X-121493Y100861D01*
X-121863Y99000D01*
X-121493Y97139D01*
X-120439Y95561D01*
X-118861Y94507D01*
X-117000Y94137D01*
X-115139Y94507D01*
X-113561Y95561D01*
X-112507Y97139D01*
X-112137Y99000D01*
X-112507Y100861D01*
X-113561Y102439D01*
X-115139Y103493D01*
X-117000Y103863D01*
D02*
G37*
G36*
X117000Y89839D02*
X115627Y89566D01*
X114462Y88788D01*
X113684Y87623D01*
X113411Y86250D01*
X113684Y84877D01*
X114462Y83712D01*
X115627Y82934D01*
X117000Y82661D01*
X118373Y82934D01*
X119538Y83712D01*
X120316Y84877D01*
X120589Y86250D01*
X120316Y87623D01*
X119538Y88788D01*
X118373Y89566D01*
X117000Y89839D01*
D02*
G37*
G36*
X-189230Y278951D02*
Y271270D01*
X-181549D01*
X-181693Y272360D01*
X-182604Y274559D01*
X-184053Y276447D01*
X-185941Y277896D01*
X-188140Y278807D01*
X-189230Y278951D01*
D02*
G37*
G36*
X-170500Y277837D02*
X-172528Y277570D01*
X-174419Y276787D01*
X-176042Y275542D01*
X-177287Y273919D01*
X-178070Y272028D01*
X-178337Y270000D01*
X-178070Y267972D01*
X-177287Y266082D01*
X-176042Y264458D01*
X-174419Y263213D01*
X-172528Y262430D01*
X-170500Y262163D01*
X-168472Y262430D01*
X-166581Y263213D01*
X-164958Y264458D01*
X-163713Y266082D01*
X-162930Y267972D01*
X-162663Y270000D01*
X-162930Y272028D01*
X-163713Y273919D01*
X-164958Y275542D01*
X-166581Y276787D01*
X-168472Y277570D01*
X-170500Y277837D01*
D02*
G37*
G36*
X-181549Y268730D02*
X-189230D01*
Y261049D01*
X-188140Y261193D01*
X-185941Y262104D01*
X-184053Y263553D01*
X-182604Y265441D01*
X-181693Y267640D01*
X-181549Y268730D01*
D02*
G37*
G36*
X-189230Y258951D02*
Y251270D01*
X-181549D01*
X-181693Y252360D01*
X-182604Y254559D01*
X-184053Y256447D01*
X-185941Y257896D01*
X-188140Y258807D01*
X-189230Y258951D01*
D02*
G37*
G36*
X-170500Y257837D02*
X-172528Y257570D01*
X-174419Y256787D01*
X-176042Y255542D01*
X-177287Y253918D01*
X-178070Y252028D01*
X-178337Y250000D01*
X-178070Y247972D01*
X-177287Y246082D01*
X-176042Y244458D01*
X-174419Y243213D01*
X-172528Y242430D01*
X-170500Y242163D01*
X-168472Y242430D01*
X-166581Y243213D01*
X-164958Y244458D01*
X-163713Y246082D01*
X-162930Y247972D01*
X-162663Y250000D01*
X-162930Y252028D01*
X-163713Y253918D01*
X-164958Y255542D01*
X-166581Y256787D01*
X-168472Y257570D01*
X-170500Y257837D01*
D02*
G37*
G36*
X-181549Y248730D02*
X-189230D01*
Y241049D01*
X-188140Y241193D01*
X-185941Y242104D01*
X-184053Y243553D01*
X-182604Y245441D01*
X-181693Y247640D01*
X-181549Y248730D01*
D02*
G37*
G36*
X-189230Y238951D02*
Y231270D01*
X-181549D01*
X-181693Y232360D01*
X-182604Y234559D01*
X-184053Y236447D01*
X-185941Y237896D01*
X-188140Y238807D01*
X-189230Y238951D01*
D02*
G37*
G36*
X-162730Y237770D02*
X-178270D01*
Y222230D01*
X-162730D01*
Y237770D01*
D02*
G37*
G36*
X-181549Y228730D02*
X-189230D01*
Y221049D01*
X-188140Y221193D01*
X-185941Y222104D01*
X-184053Y223553D01*
X-182604Y225441D01*
X-181693Y227640D01*
X-181549Y228730D01*
D02*
G37*
G36*
X373270Y72951D02*
Y65270D01*
X380951D01*
X380807Y66360D01*
X379896Y68559D01*
X378447Y70447D01*
X376559Y71896D01*
X374360Y72807D01*
X373270Y72951D01*
D02*
G37*
G36*
X370730D02*
X369640Y72807D01*
X367441Y71896D01*
X365553Y70447D01*
X364104Y68559D01*
X363193Y66360D01*
X363049Y65270D01*
X370730D01*
Y72951D01*
D02*
G37*
G36*
X380951Y62730D02*
X373270D01*
Y55049D01*
X374360Y55193D01*
X376559Y56104D01*
X378447Y57553D01*
X379896Y59441D01*
X380807Y61640D01*
X380951Y62730D01*
D02*
G37*
G36*
X370730D02*
X363049D01*
X363193Y61640D01*
X364104Y59441D01*
X365553Y57553D01*
X367441Y56104D01*
X369640Y55193D01*
X370730Y55049D01*
Y62730D01*
D02*
G37*
G36*
X276000Y9863D02*
X274139Y9493D01*
X272561Y8439D01*
X271439D01*
X269861Y9493D01*
X268000Y9863D01*
X266139Y9493D01*
X264561Y8439D01*
X263439D01*
X261861Y9493D01*
X260000Y9863D01*
X258139Y9493D01*
X256561Y8439D01*
X255507Y6861D01*
X255137Y5000D01*
X255507Y3139D01*
X256561Y1561D01*
X258139Y507D01*
X260000Y137D01*
X261861Y507D01*
X263439Y1561D01*
X264561D01*
X266139Y507D01*
X268000Y137D01*
X269861Y507D01*
X271439Y1561D01*
X272561D01*
X274139Y507D01*
X276000Y137D01*
X277861Y507D01*
X279439Y1561D01*
X280493Y3139D01*
X280863Y5000D01*
X280493Y6861D01*
X279439Y8439D01*
X277861Y9493D01*
X276000Y9863D01*
D02*
G37*
G36*
Y-10137D02*
X274139Y-10507D01*
X272561Y-11561D01*
X271439D01*
X269861Y-10507D01*
X268000Y-10137D01*
X266139Y-10507D01*
X264561Y-11561D01*
X263439D01*
X261861Y-10507D01*
X260000Y-10137D01*
X258139Y-10507D01*
X256561Y-11561D01*
X255507Y-13139D01*
X255137Y-15000D01*
X255507Y-16861D01*
X256561Y-18439D01*
X258139Y-19493D01*
X260000Y-19863D01*
X261861Y-19493D01*
X263439Y-18439D01*
X264561D01*
X266139Y-19493D01*
X268000Y-19863D01*
X269861Y-19493D01*
X271439Y-18439D01*
X272561D01*
X274139Y-19493D01*
X276000Y-19863D01*
X277861Y-19493D01*
X279439Y-18439D01*
X280493Y-16861D01*
X280863Y-15000D01*
X280493Y-13139D01*
X279439Y-11561D01*
X277861Y-10507D01*
X276000Y-10137D01*
D02*
G37*
G36*
X-189230Y-21049D02*
Y-28730D01*
X-181549D01*
X-181693Y-27640D01*
X-182604Y-25441D01*
X-184053Y-23553D01*
X-185941Y-22104D01*
X-188140Y-21193D01*
X-189230Y-21049D01*
D02*
G37*
G36*
X-170500Y-22163D02*
X-172528Y-22430D01*
X-174419Y-23213D01*
X-176042Y-24458D01*
X-177287Y-26082D01*
X-178070Y-27972D01*
X-178337Y-30000D01*
X-178070Y-32028D01*
X-177287Y-33918D01*
X-176042Y-35542D01*
X-174419Y-36787D01*
X-172528Y-37570D01*
X-170500Y-37837D01*
X-168472Y-37570D01*
X-166581Y-36787D01*
X-164958Y-35542D01*
X-163713Y-33918D01*
X-162930Y-32028D01*
X-162663Y-30000D01*
X-162930Y-27972D01*
X-163713Y-26082D01*
X-164958Y-24458D01*
X-166581Y-23213D01*
X-168472Y-22430D01*
X-170500Y-22163D01*
D02*
G37*
G36*
X-181549Y-31270D02*
X-189230D01*
Y-38951D01*
X-188140Y-38807D01*
X-185941Y-37896D01*
X-184053Y-36447D01*
X-182604Y-34559D01*
X-181693Y-32360D01*
X-181549Y-31270D01*
D02*
G37*
G36*
X-189230Y-41049D02*
Y-48730D01*
X-181549D01*
X-181693Y-47640D01*
X-182604Y-45441D01*
X-184053Y-43553D01*
X-185941Y-42104D01*
X-188140Y-41193D01*
X-189230Y-41049D01*
D02*
G37*
G36*
X-170500Y-42163D02*
X-172528Y-42430D01*
X-174419Y-43213D01*
X-176042Y-44458D01*
X-177287Y-46082D01*
X-178070Y-47972D01*
X-178337Y-50000D01*
X-178070Y-52028D01*
X-177287Y-53918D01*
X-176042Y-55542D01*
X-174419Y-56787D01*
X-172528Y-57570D01*
X-170500Y-57837D01*
X-168472Y-57570D01*
X-166581Y-56787D01*
X-164958Y-55542D01*
X-163713Y-53918D01*
X-162930Y-52028D01*
X-162663Y-50000D01*
X-162930Y-47972D01*
X-163713Y-46082D01*
X-164958Y-44458D01*
X-166581Y-43213D01*
X-168472Y-42430D01*
X-170500Y-42163D01*
D02*
G37*
G36*
X-181549Y-51270D02*
X-189230D01*
Y-58951D01*
X-188140Y-58807D01*
X-185941Y-57896D01*
X-184053Y-56447D01*
X-182604Y-54559D01*
X-181693Y-52360D01*
X-181549Y-51270D01*
D02*
G37*
G36*
X-189230Y-61049D02*
Y-68730D01*
X-181549D01*
X-181693Y-67640D01*
X-182604Y-65441D01*
X-184053Y-63553D01*
X-185941Y-62104D01*
X-188140Y-61193D01*
X-189230Y-61049D01*
D02*
G37*
G36*
X-162730Y-62230D02*
X-178270D01*
Y-77770D01*
X-162730D01*
Y-62230D01*
D02*
G37*
G36*
X-181549Y-71270D02*
X-189230D01*
Y-78951D01*
X-188140Y-78807D01*
X-185941Y-77896D01*
X-184053Y-76447D01*
X-182604Y-74559D01*
X-181693Y-72360D01*
X-181549Y-71270D01*
D02*
G37*
G36*
X270000Y-118463D02*
X267972Y-118730D01*
X266082Y-119513D01*
X264458Y-120758D01*
X263213Y-122381D01*
X262430Y-124272D01*
X262163Y-126300D01*
X262430Y-128328D01*
X263213Y-130218D01*
X264458Y-131842D01*
X266082Y-133087D01*
X267972Y-133870D01*
X270000Y-134137D01*
X272028Y-133870D01*
X273919Y-133087D01*
X275542Y-131842D01*
X276787Y-130218D01*
X277570Y-128328D01*
X277837Y-126300D01*
X277570Y-124272D01*
X276787Y-122381D01*
X275542Y-120758D01*
X273919Y-119513D01*
X272028Y-118730D01*
X270000Y-118463D01*
D02*
G37*
G36*
X250000D02*
X247972Y-118730D01*
X246082Y-119513D01*
X244458Y-120758D01*
X243213Y-122381D01*
X242430Y-124272D01*
X242163Y-126300D01*
X242430Y-128328D01*
X243213Y-130218D01*
X244458Y-131842D01*
X246082Y-133087D01*
X247972Y-133870D01*
X250000Y-134137D01*
X252028Y-133870D01*
X253918Y-133087D01*
X255542Y-131842D01*
X256787Y-130218D01*
X257570Y-128328D01*
X257837Y-126300D01*
X257570Y-124272D01*
X256787Y-122381D01*
X255542Y-120758D01*
X253918Y-119513D01*
X252028Y-118730D01*
X250000Y-118463D01*
D02*
G37*
G36*
X230000D02*
X227972Y-118730D01*
X226082Y-119513D01*
X224458Y-120758D01*
X223213Y-122381D01*
X222430Y-124272D01*
X222163Y-126300D01*
X222430Y-128328D01*
X223213Y-130218D01*
X224458Y-131842D01*
X226082Y-133087D01*
X227972Y-133870D01*
X230000Y-134137D01*
X232028Y-133870D01*
X233918Y-133087D01*
X235542Y-131842D01*
X236787Y-130218D01*
X237570Y-128328D01*
X237837Y-126300D01*
X237570Y-124272D01*
X236787Y-122381D01*
X235542Y-120758D01*
X233918Y-119513D01*
X232028Y-118730D01*
X230000Y-118463D01*
D02*
G37*
G36*
X-30000D02*
X-32028Y-118730D01*
X-33918Y-119513D01*
X-35542Y-120758D01*
X-36787Y-122381D01*
X-37570Y-124272D01*
X-37837Y-126300D01*
X-37570Y-128328D01*
X-36787Y-130218D01*
X-35542Y-131842D01*
X-33918Y-133087D01*
X-32028Y-133870D01*
X-30000Y-134137D01*
X-27972Y-133870D01*
X-26082Y-133087D01*
X-24458Y-131842D01*
X-23213Y-130218D01*
X-22430Y-128328D01*
X-22163Y-126300D01*
X-22430Y-124272D01*
X-23213Y-122381D01*
X-24458Y-120758D01*
X-26082Y-119513D01*
X-27972Y-118730D01*
X-30000Y-118463D01*
D02*
G37*
G36*
X-50000D02*
X-52028Y-118730D01*
X-53918Y-119513D01*
X-55542Y-120758D01*
X-56787Y-122381D01*
X-57570Y-124272D01*
X-57837Y-126300D01*
X-57570Y-128328D01*
X-56787Y-130218D01*
X-55542Y-131842D01*
X-53918Y-133087D01*
X-52028Y-133870D01*
X-50000Y-134137D01*
X-47972Y-133870D01*
X-46082Y-133087D01*
X-44458Y-131842D01*
X-43213Y-130218D01*
X-42430Y-128328D01*
X-42163Y-126300D01*
X-42430Y-124272D01*
X-43213Y-122381D01*
X-44458Y-120758D01*
X-46082Y-119513D01*
X-47972Y-118730D01*
X-50000Y-118463D01*
D02*
G37*
G36*
X-70000D02*
X-72028Y-118730D01*
X-73918Y-119513D01*
X-75542Y-120758D01*
X-76787Y-122381D01*
X-77570Y-124272D01*
X-77837Y-126300D01*
X-77570Y-128328D01*
X-76787Y-130218D01*
X-75542Y-131842D01*
X-73918Y-133087D01*
X-72028Y-133870D01*
X-70000Y-134137D01*
X-67972Y-133870D01*
X-66082Y-133087D01*
X-64458Y-131842D01*
X-63213Y-130218D01*
X-62430Y-128328D01*
X-62163Y-126300D01*
X-62430Y-124272D01*
X-63213Y-122381D01*
X-64458Y-120758D01*
X-66082Y-119513D01*
X-67972Y-118730D01*
X-70000Y-118463D01*
D02*
G37*
G36*
X271270Y-137349D02*
Y-145030D01*
X278951D01*
X278807Y-143940D01*
X277896Y-141741D01*
X276447Y-139853D01*
X274559Y-138404D01*
X272360Y-137493D01*
X271270Y-137349D01*
D02*
G37*
G36*
X268730D02*
X267640Y-137493D01*
X265441Y-138404D01*
X263553Y-139853D01*
X262104Y-141741D01*
X261193Y-143940D01*
X261049Y-145030D01*
X268730D01*
Y-137349D01*
D02*
G37*
G36*
X251270D02*
Y-145030D01*
X258951D01*
X258807Y-143940D01*
X257896Y-141741D01*
X256447Y-139853D01*
X254559Y-138404D01*
X252360Y-137493D01*
X251270Y-137349D01*
D02*
G37*
G36*
X248730D02*
X247640Y-137493D01*
X245441Y-138404D01*
X243553Y-139853D01*
X242104Y-141741D01*
X241193Y-143940D01*
X241049Y-145030D01*
X248730D01*
Y-137349D01*
D02*
G37*
G36*
X239040Y-137260D02*
X231270D01*
Y-145030D01*
X239040D01*
Y-137260D01*
D02*
G37*
G36*
X228730D02*
X220960D01*
Y-145030D01*
X228730D01*
Y-137260D01*
D02*
G37*
G36*
X-28730Y-137349D02*
Y-145030D01*
X-21049D01*
X-21193Y-143940D01*
X-22104Y-141741D01*
X-23553Y-139853D01*
X-25441Y-138404D01*
X-27640Y-137493D01*
X-28730Y-137349D01*
D02*
G37*
G36*
X-31270D02*
X-32360Y-137493D01*
X-34559Y-138404D01*
X-36447Y-139853D01*
X-37896Y-141741D01*
X-38807Y-143940D01*
X-38951Y-145030D01*
X-31270D01*
Y-137349D01*
D02*
G37*
G36*
X-48730D02*
Y-145030D01*
X-41049D01*
X-41193Y-143940D01*
X-42104Y-141741D01*
X-43553Y-139853D01*
X-45441Y-138404D01*
X-47640Y-137493D01*
X-48730Y-137349D01*
D02*
G37*
G36*
X-51270D02*
X-52360Y-137493D01*
X-54559Y-138404D01*
X-56447Y-139853D01*
X-57896Y-141741D01*
X-58807Y-143940D01*
X-58951Y-145030D01*
X-51270D01*
Y-137349D01*
D02*
G37*
G36*
X-60960Y-137260D02*
X-68730D01*
Y-145030D01*
X-60960D01*
Y-137260D01*
D02*
G37*
G36*
X-71270D02*
X-79040D01*
Y-145030D01*
X-71270D01*
Y-137260D01*
D02*
G37*
G36*
X278951Y-147570D02*
X271270D01*
Y-155251D01*
X272360Y-155107D01*
X274559Y-154196D01*
X276447Y-152747D01*
X277896Y-150859D01*
X278807Y-148660D01*
X278951Y-147570D01*
D02*
G37*
G36*
X268730D02*
X261049D01*
X261193Y-148660D01*
X262104Y-150859D01*
X263553Y-152747D01*
X265441Y-154196D01*
X267640Y-155107D01*
X268730Y-155251D01*
Y-147570D01*
D02*
G37*
G36*
X258951D02*
X251270D01*
Y-155251D01*
X252360Y-155107D01*
X254559Y-154196D01*
X256447Y-152747D01*
X257896Y-150859D01*
X258807Y-148660D01*
X258951Y-147570D01*
D02*
G37*
G36*
X248730D02*
X241049D01*
X241193Y-148660D01*
X242104Y-150859D01*
X243553Y-152747D01*
X245441Y-154196D01*
X247640Y-155107D01*
X248730Y-155251D01*
Y-147570D01*
D02*
G37*
G36*
X-21049D02*
X-28730D01*
Y-155251D01*
X-27640Y-155107D01*
X-25441Y-154196D01*
X-23553Y-152747D01*
X-22104Y-150859D01*
X-21193Y-148660D01*
X-21049Y-147570D01*
D02*
G37*
G36*
X-31270D02*
X-38951D01*
X-38807Y-148660D01*
X-37896Y-150859D01*
X-36447Y-152747D01*
X-34559Y-154196D01*
X-32360Y-155107D01*
X-31270Y-155251D01*
Y-147570D01*
D02*
G37*
G36*
X-41049D02*
X-48730D01*
Y-155251D01*
X-47640Y-155107D01*
X-45441Y-154196D01*
X-43553Y-152747D01*
X-42104Y-150859D01*
X-41193Y-148660D01*
X-41049Y-147570D01*
D02*
G37*
G36*
X-51270D02*
X-58951D01*
X-58807Y-148660D01*
X-57896Y-150859D01*
X-56447Y-152747D01*
X-54559Y-154196D01*
X-52360Y-155107D01*
X-51270Y-155251D01*
Y-147570D01*
D02*
G37*
G36*
X239040D02*
X231270D01*
Y-155340D01*
X239040D01*
Y-147570D01*
D02*
G37*
G36*
X228730D02*
X220960D01*
Y-155340D01*
X228730D01*
Y-147570D01*
D02*
G37*
G36*
X-60960D02*
X-68730D01*
Y-155340D01*
X-60960D01*
Y-147570D01*
D02*
G37*
G36*
X-71270D02*
X-79040D01*
Y-155340D01*
X-71270D01*
Y-147570D01*
D02*
G37*
G36*
X350730Y73040D02*
X342960D01*
Y65270D01*
X350730D01*
Y73040D01*
D02*
G37*
G36*
X283500Y114589D02*
X282127Y114316D01*
X280962Y113538D01*
X280184Y112373D01*
X279911Y111000D01*
X280184Y109627D01*
X280962Y108462D01*
X282127Y107684D01*
X283500Y107411D01*
X284873Y107684D01*
X286038Y108462D01*
X286816Y109627D01*
X287089Y111000D01*
X286816Y112373D01*
X286038Y113538D01*
X284873Y114316D01*
X283500Y114589D01*
D02*
G37*
G36*
Y79589D02*
X282127Y79316D01*
X280962Y78538D01*
X280184Y77373D01*
X279911Y76000D01*
X280184Y74627D01*
X280962Y73462D01*
X282127Y72684D01*
X283500Y72411D01*
X284873Y72684D01*
X286038Y73462D01*
X286816Y74627D01*
X287089Y76000D01*
X286816Y77373D01*
X286038Y78538D01*
X284873Y79316D01*
X283500Y79589D01*
D02*
G37*
G36*
X11400Y146589D02*
X10027Y146316D01*
X8862Y145538D01*
X8084Y144373D01*
X7811Y143000D01*
X8084Y141627D01*
X8862Y140462D01*
X10027Y139684D01*
X11400Y139411D01*
X12773Y139684D01*
X13938Y140462D01*
X14716Y141627D01*
X14989Y143000D01*
X14716Y144373D01*
X13938Y145538D01*
X12773Y146316D01*
X11400Y146589D01*
D02*
G37*
G36*
X0Y111348D02*
X-3189Y111034D01*
X-6256Y110104D01*
X-9083Y108593D01*
X-11560Y106560D01*
X-13593Y104082D01*
X-15104Y101256D01*
X-16035Y98189D01*
X-16349Y95000D01*
X-16035Y91810D01*
X-15104Y88743D01*
X-13593Y85917D01*
X-11560Y83439D01*
X-9083Y81406D01*
X-6256Y79895D01*
X-3189Y78965D01*
X0Y78651D01*
X3189Y78965D01*
X6256Y79895D01*
X9083Y81406D01*
X11560Y83439D01*
X13593Y85917D01*
X15104Y88743D01*
X16035Y91810D01*
X16349Y95000D01*
X16035Y98189D01*
X15104Y101256D01*
X13593Y104082D01*
X11560Y106560D01*
X9083Y108593D01*
X6256Y110104D01*
X3189Y111034D01*
X0Y111348D01*
D02*
G37*
G36*
X69000Y80872D02*
X65927Y80467D01*
X63064Y79281D01*
X60606Y77394D01*
X58719Y74936D01*
X57533Y72073D01*
X57128Y69000D01*
X57533Y65927D01*
X58719Y63064D01*
X60606Y60606D01*
X63064Y58719D01*
X65927Y57533D01*
X69000Y57128D01*
X72073Y57533D01*
X74936Y58719D01*
X77394Y60606D01*
X79281Y63064D01*
X80467Y65927D01*
X80872Y69000D01*
X80467Y72073D01*
X79281Y74936D01*
X77394Y77394D01*
X74936Y79281D01*
X72073Y80467D01*
X69000Y80872D01*
D02*
G37*
G36*
X-69000D02*
X-72073Y80467D01*
X-74936Y79281D01*
X-77394Y77394D01*
X-79281Y74936D01*
X-80467Y72073D01*
X-80872Y69000D01*
X-80467Y65927D01*
X-79281Y63064D01*
X-77394Y60606D01*
X-74936Y58719D01*
X-72073Y57533D01*
X-69000Y57128D01*
X-65927Y57533D01*
X-63064Y58719D01*
X-60606Y60606D01*
X-58719Y63064D01*
X-57533Y65927D01*
X-57128Y69000D01*
X-57533Y72073D01*
X-58719Y74936D01*
X-60606Y77394D01*
X-63064Y79281D01*
X-65927Y80467D01*
X-69000Y80872D01*
D02*
G37*
G36*
X80000Y16349D02*
X76810Y16035D01*
X73744Y15104D01*
X70917Y13593D01*
X68440Y11560D01*
X66406Y9083D01*
X64896Y6256D01*
X63965Y3189D01*
X63651Y0D01*
X63965Y-3189D01*
X64896Y-6256D01*
X66406Y-9083D01*
X68440Y-11560D01*
X70917Y-13593D01*
X73744Y-15104D01*
X76810Y-16035D01*
X80000Y-16349D01*
X83189Y-16035D01*
X86256Y-15104D01*
X89083Y-13593D01*
X91560Y-11560D01*
X93593Y-9083D01*
X95104Y-6256D01*
X96034Y-3189D01*
X96348Y0D01*
X96034Y3189D01*
X95104Y6256D01*
X93593Y9083D01*
X91560Y11560D01*
X89083Y13593D01*
X86256Y15104D01*
X83189Y16035D01*
X80000Y16349D01*
D02*
G37*
G36*
X-80000D02*
X-83190Y16035D01*
X-86257Y15104D01*
X-89083Y13593D01*
X-91561Y11560D01*
X-93594Y9083D01*
X-95105Y6256D01*
X-96035Y3189D01*
X-96349Y0D01*
X-96035Y-3189D01*
X-95105Y-6256D01*
X-93594Y-9083D01*
X-91561Y-11560D01*
X-89083Y-13593D01*
X-86257Y-15104D01*
X-83190Y-16035D01*
X-80000Y-16349D01*
X-76811Y-16035D01*
X-73744Y-15104D01*
X-70918Y-13593D01*
X-68440Y-11560D01*
X-66407Y-9083D01*
X-64896Y-6256D01*
X-63966Y-3189D01*
X-63652Y0D01*
X-63966Y3189D01*
X-64896Y6256D01*
X-66407Y9083D01*
X-68440Y11560D01*
X-70918Y13593D01*
X-73744Y15104D01*
X-76811Y16035D01*
X-80000Y16349D01*
D02*
G37*
G36*
X0Y41358D02*
X-5398Y41005D01*
X-10704Y39949D01*
X-15827Y38210D01*
X-20679Y35818D01*
X-25178Y32812D01*
X-29245Y29245D01*
X-32812Y25178D01*
X-35818Y20679D01*
X-38210Y15827D01*
X-39949Y10704D01*
X-41005Y5398D01*
X-41358Y0D01*
X-41005Y-5398D01*
X-39949Y-10704D01*
X-38210Y-15827D01*
X-35818Y-20679D01*
X-32812Y-25178D01*
X-29245Y-29245D01*
X-25178Y-32812D01*
X-20679Y-35818D01*
X-15827Y-38210D01*
X-10704Y-39949D01*
X-5398Y-41005D01*
X0Y-41358D01*
X5398Y-41005D01*
X10704Y-39949D01*
X15827Y-38210D01*
X20679Y-35818D01*
X25178Y-32812D01*
X29245Y-29245D01*
X32812Y-25178D01*
X35818Y-20679D01*
X38210Y-15827D01*
X39949Y-10704D01*
X41005Y-5398D01*
X41358Y0D01*
X41005Y5398D01*
X39949Y10704D01*
X38210Y15827D01*
X35818Y20679D01*
X32812Y25178D01*
X29245Y29245D01*
X25178Y32812D01*
X20679Y35818D01*
X15827Y38210D01*
X10704Y39949D01*
X5398Y41005D01*
X0Y41358D01*
D02*
G37*
G36*
X69000Y-57128D02*
X65927Y-57533D01*
X63064Y-58719D01*
X60606Y-60606D01*
X58719Y-63064D01*
X57533Y-65927D01*
X57128Y-69000D01*
X57533Y-72073D01*
X58719Y-74936D01*
X60606Y-77394D01*
X63064Y-79281D01*
X65927Y-80467D01*
X69000Y-80872D01*
X72073Y-80467D01*
X74936Y-79281D01*
X77394Y-77394D01*
X79281Y-74936D01*
X80467Y-72073D01*
X80872Y-69000D01*
X80467Y-65927D01*
X79281Y-63064D01*
X77394Y-60606D01*
X74936Y-58719D01*
X72073Y-57533D01*
X69000Y-57128D01*
D02*
G37*
G36*
X-69000D02*
X-72073Y-57533D01*
X-74936Y-58719D01*
X-77394Y-60606D01*
X-79281Y-63064D01*
X-80467Y-65927D01*
X-80872Y-69000D01*
X-80467Y-72073D01*
X-79281Y-74936D01*
X-77394Y-77394D01*
X-74936Y-79281D01*
X-72073Y-80467D01*
X-69000Y-80872D01*
X-65927Y-80467D01*
X-63064Y-79281D01*
X-60606Y-77394D01*
X-58719Y-74936D01*
X-57533Y-72073D01*
X-57128Y-69000D01*
X-57533Y-65927D01*
X-58719Y-63064D01*
X-60606Y-60606D01*
X-63064Y-58719D01*
X-65927Y-57533D01*
X-69000Y-57128D01*
D02*
G37*
G36*
X149250Y112589D02*
X147877Y112316D01*
X146712Y111538D01*
X145934Y110373D01*
X145661Y109000D01*
X145934Y107627D01*
X146712Y106462D01*
X147877Y105684D01*
X149250Y105411D01*
X150623Y105684D01*
X151788Y106462D01*
X152566Y107627D01*
X152839Y109000D01*
X152566Y110373D01*
X151788Y111538D01*
X150623Y112316D01*
X149250Y112589D01*
D02*
G37*
G36*
X157000Y101339D02*
X155627Y101066D01*
X154462Y100288D01*
X153684Y99123D01*
X153411Y97750D01*
X153684Y96377D01*
X154462Y95212D01*
X155627Y94434D01*
X157000Y94161D01*
X158373Y94434D01*
X159538Y95212D01*
X160316Y96377D01*
X160589Y97750D01*
X160316Y99123D01*
X159538Y100288D01*
X158373Y101066D01*
X157000Y101339D01*
D02*
G37*
G36*
Y89839D02*
X155627Y89566D01*
X154462Y88788D01*
X153684Y87623D01*
X153411Y86250D01*
X153684Y84877D01*
X154462Y83712D01*
X155627Y82934D01*
X157000Y82661D01*
X158373Y82934D01*
X159538Y83712D01*
X160316Y84877D01*
X160589Y86250D01*
X160316Y87623D01*
X159538Y88788D01*
X158373Y89566D01*
X157000Y89839D01*
D02*
G37*
G36*
X137000D02*
X135627Y89566D01*
X134462Y88788D01*
X133684Y87623D01*
X133411Y86250D01*
X133684Y84877D01*
X134462Y83712D01*
X135627Y82934D01*
X137000Y82661D01*
X138373Y82934D01*
X139538Y83712D01*
X140316Y84877D01*
X140589Y86250D01*
X140316Y87623D01*
X139538Y88788D01*
X138373Y89566D01*
X137000Y89839D01*
D02*
G37*
G36*
X151000Y44589D02*
X149627Y44316D01*
X148462Y43538D01*
X147684Y42373D01*
X147411Y41000D01*
X147684Y39627D01*
X148462Y38462D01*
X149627Y37684D01*
X151000Y37411D01*
X152373Y37684D01*
X153538Y38462D01*
X154316Y39627D01*
X154589Y41000D01*
X154316Y42373D01*
X153538Y43538D01*
X152373Y44316D01*
X151000Y44589D01*
D02*
G37*
G36*
X177250Y24889D02*
X175877Y24616D01*
X174712Y23838D01*
X173934Y22673D01*
X173800Y21999D01*
X173772Y21860D01*
X172478D01*
X172450Y21999D01*
X172316Y22673D01*
X171538Y23838D01*
X170373Y24616D01*
X169000Y24889D01*
X167627Y24616D01*
X166462Y23838D01*
X165684Y22673D01*
X165411Y21300D01*
X165684Y19927D01*
X166462Y18762D01*
X167627Y17984D01*
X169000Y17711D01*
X170373Y17984D01*
X171538Y18762D01*
X172316Y19927D01*
X172450Y20601D01*
X172478Y20740D01*
X173772D01*
X173800Y20601D01*
X173934Y19927D01*
X174712Y18762D01*
X175877Y17984D01*
X177250Y17711D01*
X178623Y17984D01*
X179788Y18762D01*
X180566Y19927D01*
X180839Y21300D01*
X180566Y22673D01*
X179788Y23838D01*
X178623Y24616D01*
X177250Y24889D01*
D02*
G37*
G36*
Y-16111D02*
X175877Y-16384D01*
X174712Y-17162D01*
X173934Y-18327D01*
X173800Y-19001D01*
X173772Y-19140D01*
X172478D01*
X172450Y-19001D01*
X172316Y-18327D01*
X171538Y-17162D01*
X170373Y-16384D01*
X169000Y-16111D01*
X167627Y-16384D01*
X166462Y-17162D01*
X165684Y-18327D01*
X165411Y-19700D01*
X165684Y-21074D01*
X166462Y-22238D01*
X167627Y-23016D01*
X169000Y-23289D01*
X170373Y-23016D01*
X171538Y-22238D01*
X172316Y-21074D01*
X172450Y-20399D01*
X172478Y-20260D01*
X173772D01*
X173800Y-20399D01*
X173934Y-21074D01*
X174712Y-22238D01*
X175877Y-23016D01*
X177250Y-23289D01*
X178623Y-23016D01*
X179788Y-22238D01*
X180566Y-21074D01*
X180839Y-19700D01*
X180566Y-18327D01*
X179788Y-17162D01*
X178623Y-16384D01*
X177250Y-16111D01*
D02*
G37*
G36*
Y-57111D02*
X175877Y-57384D01*
X174712Y-58162D01*
X173934Y-59327D01*
X173800Y-60002D01*
X173772Y-60140D01*
X172478D01*
X172450Y-60002D01*
X172316Y-59327D01*
X171538Y-58162D01*
X170373Y-57384D01*
X169000Y-57111D01*
X167627Y-57384D01*
X166462Y-58162D01*
X165684Y-59327D01*
X165411Y-60700D01*
X165684Y-62073D01*
X166462Y-63238D01*
X167627Y-64016D01*
X169000Y-64289D01*
X170373Y-64016D01*
X171538Y-63238D01*
X172316Y-62073D01*
X172450Y-61399D01*
X172478Y-61260D01*
X173772D01*
X173800Y-61399D01*
X173934Y-62073D01*
X174712Y-63238D01*
X175877Y-64016D01*
X177250Y-64289D01*
X178623Y-64016D01*
X179788Y-63238D01*
X180566Y-62073D01*
X180839Y-60700D01*
X180566Y-59327D01*
X179788Y-58162D01*
X178623Y-57384D01*
X177250Y-57111D01*
D02*
G37*
G36*
X187000Y-57111D02*
X185627Y-57384D01*
X184462Y-58162D01*
X183684Y-59327D01*
X183411Y-60700D01*
X183684Y-62073D01*
X184462Y-63238D01*
X185627Y-64016D01*
X187000Y-64289D01*
X188373Y-64016D01*
X189538Y-63238D01*
X190316Y-62073D01*
X190589Y-60700D01*
X190316Y-59327D01*
X189538Y-58162D01*
X188373Y-57384D01*
X187000Y-57111D01*
D02*
G37*
%LPD*%
D15*
X-65350Y241000D02*
X-20000D01*
X-121500Y184850D02*
X-65350Y241000D01*
X188000Y65250D02*
X193000Y60250D01*
Y-49700D02*
Y60250D01*
Y-49700D02*
X204000Y-60700D01*
X190910Y97910D02*
X221910D01*
X135000Y42000D02*
X190910Y97910D01*
X135000Y16000D02*
Y42000D01*
X187000Y102000D02*
Y102000D01*
X130000Y45000D02*
X187000Y102000D01*
X130000Y-20000D02*
Y45000D01*
X187000Y102000D02*
X209000Y124000D01*
X229374D01*
X240138Y52000D02*
X245138Y57000D01*
X227000Y52000D02*
X240138D01*
X220000Y45000D02*
X227000Y52000D01*
X236000Y56000D02*
X244880Y64880D01*
X224000Y56000D02*
X236000D01*
X215000Y47000D02*
X224000Y56000D01*
X244880Y64880D02*
X247630D01*
X248000Y65250D01*
X220000Y-26500D02*
Y45000D01*
X215000Y-22000D02*
Y47000D01*
X221000Y60000D02*
X233000D01*
X208790Y47790D02*
X221000Y60000D01*
X208790Y26140D02*
Y47790D01*
X215000Y-31500D02*
X220000Y-26500D01*
X245138Y57000D02*
X258000D01*
X215000Y-63000D02*
Y-31500D01*
X233000Y60000D02*
X243040Y70040D01*
X253210D02*
X258000Y65250D01*
X243040Y70040D02*
X253210D01*
X229374Y124000D02*
X241790Y111584D01*
X236955Y109555D02*
X237000Y109600D01*
X233555Y109555D02*
X236955D01*
X221910Y97910D02*
X233555Y109555D01*
X135000Y16000D02*
X151000Y0D01*
X130000Y-20000D02*
X151000Y-41000D01*
X241790Y102016D02*
Y111584D01*
X228774Y89000D02*
X241790Y102016D01*
X221000Y89000D02*
X228774D01*
X204000Y21300D02*
Y51250D01*
X218000Y65250D01*
X198000Y55250D02*
X208000Y65250D01*
X198000Y-13700D02*
X204000Y-19700D01*
X198000Y-13700D02*
Y55250D01*
D18*
X102000Y-46000D02*
Y75000D01*
X81000Y96000D02*
X102000Y75000D01*
X81000Y96000D02*
Y180000D01*
X122326Y-66326D02*
X142239D01*
X102000Y-46000D02*
X122326Y-66326D01*
X142239D02*
X144914Y-69001D01*
X206150Y172150D02*
X215850D01*
X216000Y172000D01*
X194000Y160000D02*
X206150Y172150D01*
X256832Y215832D02*
X257000Y216000D01*
X253832Y215832D02*
X256832D01*
X228000Y190000D02*
X253832Y215832D01*
X215000Y190000D02*
X228000D01*
X181000Y128000D02*
X181168Y128168D01*
X184168D02*
X189000Y133000D01*
X181168Y128168D02*
X184168D01*
X189000Y133000D02*
X198000D01*
X201000Y136000D02*
Y140810D01*
X198000Y133000D02*
X201000Y136000D01*
X135000Y276000D02*
X182000Y323000D01*
X135000Y265750D02*
Y276000D01*
X87000Y286000D02*
X94000D01*
X74000Y299000D02*
X87000Y286000D01*
X74000Y299000D02*
Y334000D01*
X203000Y158000D02*
X224250D01*
X200000Y155000D02*
X203000Y158000D01*
X194000Y147810D02*
X201000Y140810D01*
X194000Y147810D02*
Y160000D01*
X194500Y138000D02*
X195000D01*
X185000Y147000D02*
X185500D01*
X194500Y138000D01*
X183382Y135618D02*
X184000Y135000D01*
X175000Y147000D02*
X183382Y138618D01*
Y135618D02*
Y138618D01*
D115*
X212000Y180000D02*
X234000D01*
X311000Y89000D02*
Y103000D01*
X234000Y180000D02*
X311000Y103000D01*
Y63600D02*
Y89000D01*
X303000Y89600D02*
X310400D01*
X311000Y89000D01*
X302000Y54600D02*
X311000Y63600D01*
X70000Y355000D02*
X102000D01*
X125000Y262000D02*
Y332000D01*
X102000Y355000D02*
X125000Y332000D01*
X60000Y345000D02*
X70000Y355000D01*
X60000Y319400D02*
Y345000D01*
X50000Y309400D02*
X60000Y319400D01*
X50000Y299750D02*
Y309400D01*
X281400Y272000D02*
X405000D01*
X267400Y258000D02*
X281400Y272000D01*
X413250Y114000D02*
Y263750D01*
X405000Y272000D02*
X413250Y263750D01*
D116*
X234210Y128790D02*
X270000Y93000D01*
X195790Y128790D02*
X234210D01*
X270000Y51000D02*
Y93000D01*
X179000Y112000D02*
X195790Y128790D01*
X173000Y112000D02*
X179000D01*
X173000Y106400D02*
Y112000D01*
D117*
X144914Y-69001D02*
D03*
X132214Y-90998D02*
D03*
X138564Y-80000D02*
D03*
D118*
X352000Y64000D02*
D03*
X182000Y323000D02*
D03*
X-108000Y258000D02*
D03*
X230000Y-146300D02*
D03*
X-70000D02*
D03*
D119*
X372000Y64000D02*
D03*
X242000Y323000D02*
D03*
X222000D02*
D03*
X202000D02*
D03*
X-88000Y258000D02*
D03*
X-68000D02*
D03*
X-190500Y-30000D02*
D03*
Y-50000D02*
D03*
X-170500Y-30000D02*
D03*
Y-50000D02*
D03*
X-190500Y-70000D02*
D03*
Y270000D02*
D03*
Y250000D02*
D03*
X-170500Y270000D02*
D03*
Y250000D02*
D03*
X-190500Y230000D02*
D03*
X270000Y-126300D02*
D03*
X250000D02*
D03*
X270000Y-146300D02*
D03*
X250000D02*
D03*
X230000Y-126300D02*
D03*
X-30000D02*
D03*
X-50000D02*
D03*
X-30000Y-146300D02*
D03*
X-50000D02*
D03*
X-70000Y-126300D02*
D03*
D120*
X-132214Y-90998D02*
D03*
X-144914Y-69001D02*
D03*
X-138564Y-80000D02*
D03*
D121*
X0Y160000D02*
D03*
X12700D02*
D03*
X-12700D02*
D03*
D122*
X0Y420000D02*
D03*
X420000Y0D02*
D03*
X370000Y370000D02*
D03*
D123*
X-170500Y-70000D02*
D03*
Y230000D02*
D03*
D124*
X398680Y256000D02*
D03*
X161400Y144000D02*
D03*
X50000Y299750D02*
D03*
X60000Y319400D02*
D03*
X106400Y347000D02*
D03*
X302000Y54600D02*
D03*
X303000Y89600D02*
D03*
X214000Y208400D02*
D03*
X224250Y209000D02*
D03*
X238600Y258000D02*
D03*
X228000Y258250D02*
D03*
X186400Y256000D02*
D03*
X146750Y276000D02*
D03*
Y266000D02*
D03*
X148600Y256000D02*
D03*
X101000Y209400D02*
D03*
X68000Y191000D02*
D03*
X11400Y143000D02*
D03*
X-68000Y187000D02*
D03*
X-69600Y177000D02*
D03*
X-71000Y163400D02*
D03*
X-61000D02*
D03*
X216000Y172000D02*
D03*
X209000Y222000D02*
D03*
X206310Y241000D02*
D03*
X170080Y256080D02*
D03*
X166000Y252000D02*
D03*
X368000Y53000D02*
D03*
Y45000D02*
D03*
X376000D02*
D03*
X0Y183375D02*
D03*
X-10000D02*
D03*
X-20000Y241000D02*
D03*
X10000Y178000D02*
D03*
X87250Y168000D02*
D03*
X88600Y158000D02*
D03*
X214000Y237000D02*
D03*
X217000Y166000D02*
D03*
X219000Y220000D02*
D03*
X145000Y146000D02*
D03*
X138000D02*
D03*
X199000Y263000D02*
D03*
X198000Y256000D02*
D03*
X131000Y146000D02*
D03*
X124000D02*
D03*
X319000Y252250D02*
D03*
Y315750D02*
D03*
X257000Y216000D02*
D03*
X283500Y76000D02*
D03*
Y111000D02*
D03*
X302000Y63400D02*
D03*
X303000Y98400D02*
D03*
X290001Y93998D02*
D03*
X281001D02*
D03*
X280751Y59748D02*
D03*
X289751D02*
D03*
X277000Y84000D02*
D03*
X258600Y258000D02*
D03*
X247400D02*
D03*
X267400D02*
D03*
X247000Y275000D02*
D03*
X224200Y198400D02*
D03*
X188000Y65250D02*
D03*
X178000D02*
D03*
X-132000Y173600D02*
D03*
X173000Y112000D02*
D03*
Y97600D02*
D03*
Y106400D02*
D03*
X376000Y53000D02*
D03*
X81000Y180000D02*
D03*
X-61000Y154700D02*
D03*
X-71000D02*
D03*
X-81000Y154100D02*
D03*
X-117000Y173100D02*
D03*
X-110500D02*
D03*
X-112000Y151000D02*
D03*
X-121500Y184850D02*
D03*
X-102500Y179775D02*
D03*
X-132000Y182400D02*
D03*
X135000Y265750D02*
D03*
X100000Y305838D02*
D03*
X82838Y305838D02*
D03*
X82838Y323000D02*
D03*
X100000Y323000D02*
D03*
X91419Y314419D02*
D03*
X74000Y334000D02*
D03*
X94000Y286000D02*
D03*
X97600Y347000D02*
D03*
X81000Y345600D02*
D03*
X60000Y310600D02*
D03*
X73600Y284000D02*
D03*
X88600Y180000D02*
D03*
X264500Y158000D02*
D03*
X224250D02*
D03*
X200000Y155000D02*
D03*
X215000Y190000D02*
D03*
X398680Y246000D02*
D03*
X178850Y220150D02*
D03*
X178000Y178300D02*
D03*
X136150Y179150D02*
D03*
X137000Y221000D02*
D03*
X157500Y199650D02*
D03*
X157400Y256000D02*
D03*
X177600D02*
D03*
X214000Y199600D02*
D03*
X152600Y144000D02*
D03*
X101000Y200600D02*
D03*
X149250Y109000D02*
D03*
X157000Y97750D02*
D03*
X137000D02*
D03*
X117000D02*
D03*
X215000Y-22000D02*
D03*
X208790Y26140D02*
D03*
X258000Y65250D02*
D03*
Y57000D02*
D03*
X248000Y65250D02*
D03*
X157000Y86250D02*
D03*
X147000D02*
D03*
X137000D02*
D03*
X127000D02*
D03*
X117000D02*
D03*
X107000D02*
D03*
X229000Y113000D02*
D03*
X216000Y137000D02*
D03*
X185000Y147000D02*
D03*
X195000Y138000D02*
D03*
X184000Y135000D02*
D03*
X181000Y128000D02*
D03*
X175000Y147000D02*
D03*
X204000Y-79000D02*
D03*
Y-70000D02*
D03*
X186000Y-79000D02*
D03*
Y-70000D02*
D03*
X195000Y-79000D02*
D03*
Y-70000D02*
D03*
X210150Y117850D02*
D03*
X210000Y102700D02*
D03*
X194850Y102850D02*
D03*
X195000Y118000D02*
D03*
X202500Y110350D02*
D03*
X151000Y-41000D02*
D03*
Y0D02*
D03*
Y41000D02*
D03*
X220400Y144000D02*
D03*
X237000Y109600D02*
D03*
X229000Y96000D02*
D03*
X218000Y65250D02*
D03*
X228000D02*
D03*
X198000D02*
D03*
X221000Y89000D02*
D03*
X208000Y65250D02*
D03*
X142000Y21000D02*
D03*
Y-20000D02*
D03*
X215000Y-63000D02*
D03*
X204000Y-60700D02*
D03*
X169000Y-60700D02*
D03*
X177250D02*
D03*
X187000Y-60700D02*
D03*
X204000Y-19700D02*
D03*
Y21300D02*
D03*
X177250Y-19700D02*
D03*
X187000Y-19700D02*
D03*
X169000Y-19700D02*
D03*
Y21300D02*
D03*
X177250D02*
D03*
X187000Y21300D02*
D03*
X151000Y21000D02*
D03*
X160000D02*
D03*
Y-20000D02*
D03*
X151000D02*
D03*
D125*
X50000Y50000D02*
D03*
Y-50000D02*
D03*
X-50000D02*
D03*
X399000Y98000D02*
D03*
Y114000D02*
D03*
X383000D02*
D03*
Y98000D02*
D03*
X391250Y106000D02*
D03*
X268000Y-43000D02*
D03*
X260000D02*
D03*
X276000D02*
D03*
X268000Y33000D02*
D03*
X260000D02*
D03*
X276000D02*
D03*
X268000Y-15000D02*
D03*
X260000D02*
D03*
X276000D02*
D03*
Y5000D02*
D03*
X260000D02*
D03*
X268000D02*
D03*
X-121000Y114000D02*
D03*
X-114000Y126000D02*
D03*
X-106000Y112000D02*
D03*
X-117000Y99000D02*
D03*
X-97000Y126000D02*
D03*
X-50000Y50000D02*
D03*
X47000Y0D02*
D03*
X0Y-53000D02*
D03*
X-47000Y0D02*
D03*
X0Y53000D02*
D03*
X229000Y-38000D02*
D03*
Y-53000D02*
D03*
X244000Y-38000D02*
D03*
Y-53000D02*
D03*
X229000Y3000D02*
D03*
Y-12000D02*
D03*
X244000Y3000D02*
D03*
Y-12000D02*
D03*
Y29000D02*
D03*
Y44000D02*
D03*
X229000Y29000D02*
D03*
Y44000D02*
D03*
X370000Y390000D02*
D03*
Y350000D02*
D03*
X350000Y369000D02*
D03*
X390000D02*
D03*
X384000Y383000D02*
D03*
X355000Y382000D02*
D03*
X357000Y355000D02*
D03*
X384000Y356000D02*
D03*
X420000Y20000D02*
D03*
Y-20000D02*
D03*
X400000Y-1000D02*
D03*
X440000D02*
D03*
X434000Y13000D02*
D03*
X405000Y12000D02*
D03*
X407000Y-15000D02*
D03*
X434000Y-14000D02*
D03*
X14000Y406000D02*
D03*
X-13000Y405000D02*
D03*
X-15000Y432000D02*
D03*
X14000Y433000D02*
D03*
X20000Y419000D02*
D03*
X-20000D02*
D03*
X0Y400000D02*
D03*
Y440000D02*
D03*
X-146000Y171000D02*
D03*
Y187000D02*
D03*
M02*
