G04*
G04 #@! TF.GenerationSoftware,Altium Limited,Altium Designer,24.4.1 (13)*
G04*
G04 Layer_Physical_Order=1*
G04 Layer_Color=255*
%FSLAX44Y44*%
%MOMM*%
G71*
G04*
G04 #@! TF.SameCoordinates,D346328A-3EA5-4E80-806F-D0F93F3E7631*
G04*
G04*
G04 #@! TF.FilePolarity,Positive*
G04*
G01*
G75*
%ADD15C,0.2540*%
%ADD18C,0.1270*%
%ADD23R,0.6000X1.5500*%
%ADD24R,1.2000X1.8000*%
%ADD25R,0.6000X0.6400*%
%ADD26R,0.7500X0.6000*%
G04:AMPARAMS|DCode=27|XSize=0.74mm|YSize=0.28mm|CornerRadius=0.035mm|HoleSize=0mm|Usage=FLASHONLY|Rotation=270.000|XOffset=0mm|YOffset=0mm|HoleType=Round|Shape=RoundedRectangle|*
%AMROUNDEDRECTD27*
21,1,0.7400,0.2100,0,0,270.0*
21,1,0.6700,0.2800,0,0,270.0*
1,1,0.0700,-0.1050,-0.3350*
1,1,0.0700,-0.1050,0.3350*
1,1,0.0700,0.1050,0.3350*
1,1,0.0700,0.1050,-0.3350*
%
%ADD27ROUNDEDRECTD27*%
%ADD28R,0.6400X0.6000*%
%ADD29R,0.6000X0.7500*%
%ADD30R,2.5500X2.4500*%
%ADD31R,1.2000X1.7500*%
%ADD32R,0.6000X1.3500*%
G04:AMPARAMS|DCode=33|XSize=0.6mm|YSize=0.75mm|CornerRadius=0mm|HoleSize=0mm|Usage=FLASHONLY|Rotation=30.000|XOffset=0mm|YOffset=0mm|HoleType=Round|Shape=Rectangle|*
%AMROTATEDRECTD33*
4,1,4,-0.0723,-0.4748,-0.4473,0.1748,0.0723,0.4748,0.4473,-0.1748,-0.0723,-0.4748,0.0*
%
%ADD33ROTATEDRECTD33*%

G04:AMPARAMS|DCode=34|XSize=0.6mm|YSize=0.75mm|CornerRadius=0mm|HoleSize=0mm|Usage=FLASHONLY|Rotation=150.000|XOffset=0mm|YOffset=0mm|HoleType=Round|Shape=Rectangle|*
%AMROTATEDRECTD34*
4,1,4,0.4473,0.1748,0.0723,-0.4748,-0.4473,-0.1748,-0.0723,0.4748,0.4473,0.1748,0.0*
%
%ADD34ROTATEDRECTD34*%

G04:AMPARAMS|DCode=35|XSize=0.64mm|YSize=0.6mm|CornerRadius=0mm|HoleSize=0mm|Usage=FLASHONLY|Rotation=30.000|XOffset=0mm|YOffset=0mm|HoleType=Round|Shape=Rectangle|*
%AMROTATEDRECTD35*
4,1,4,-0.1271,-0.4198,-0.4271,0.0998,0.1271,0.4198,0.4271,-0.0998,-0.1271,-0.4198,0.0*
%
%ADD35ROTATEDRECTD35*%

G04:AMPARAMS|DCode=36|XSize=0.64mm|YSize=0.6mm|CornerRadius=0mm|HoleSize=0mm|Usage=FLASHONLY|Rotation=150.000|XOffset=0mm|YOffset=0mm|HoleType=Round|Shape=Rectangle|*
%AMROTATEDRECTD36*
4,1,4,0.4271,0.0998,0.1271,-0.4198,-0.4271,-0.0998,-0.1271,0.4198,0.4271,0.0998,0.0*
%
%ADD36ROTATEDRECTD36*%

%ADD37R,0.8500X0.9500*%
%ADD38R,0.8000X0.8000*%
G04:AMPARAMS|DCode=39|XSize=0.86mm|YSize=0.27mm|CornerRadius=0.0338mm|HoleSize=0mm|Usage=FLASHONLY|Rotation=90.000|XOffset=0mm|YOffset=0mm|HoleType=Round|Shape=RoundedRectangle|*
%AMROUNDEDRECTD39*
21,1,0.8600,0.2025,0,0,90.0*
21,1,0.7925,0.2700,0,0,90.0*
1,1,0.0675,0.1013,0.3963*
1,1,0.0675,0.1013,-0.3963*
1,1,0.0675,-0.1013,-0.3963*
1,1,0.0675,-0.1013,0.3963*
%
%ADD39ROUNDEDRECTD39*%
G04:AMPARAMS|DCode=40|XSize=0.86mm|YSize=0.27mm|CornerRadius=0.0338mm|HoleSize=0mm|Usage=FLASHONLY|Rotation=0.000|XOffset=0mm|YOffset=0mm|HoleType=Round|Shape=RoundedRectangle|*
%AMROUNDEDRECTD40*
21,1,0.8600,0.2025,0,0,0.0*
21,1,0.7925,0.2700,0,0,0.0*
1,1,0.0675,0.3963,-0.1013*
1,1,0.0675,-0.3963,-0.1013*
1,1,0.0675,-0.3963,0.1013*
1,1,0.0675,0.3963,0.1013*
%
%ADD40ROUNDEDRECTD40*%
%ADD42R,0.3400X0.8000*%
%ADD43R,0.4200X0.6600*%
G04:AMPARAMS|DCode=44|XSize=3mm|YSize=3mm|CornerRadius=0.75mm|HoleSize=0mm|Usage=FLASHONLY|Rotation=0.000|XOffset=0mm|YOffset=0mm|HoleType=Round|Shape=RoundedRectangle|*
%AMROUNDEDRECTD44*
21,1,3.0000,1.5000,0,0,0.0*
21,1,1.5000,3.0000,0,0,0.0*
1,1,1.5000,0.7500,-0.7500*
1,1,1.5000,-0.7500,-0.7500*
1,1,1.5000,-0.7500,0.7500*
1,1,1.5000,0.7500,0.7500*
%
%ADD44ROUNDEDRECTD44*%
%ADD45R,0.8000X0.3400*%
%ADD46R,0.6600X0.4200*%
%ADD47R,2.7000X1.3000*%
%ADD48R,1.0500X0.8000*%
%ADD49R,0.6500X0.8000*%
%ADD50R,0.8000X1.0500*%
%ADD51R,0.8000X0.6500*%
%ADD52R,1.5500X0.6000*%
%ADD53R,1.8000X1.2000*%
G04:AMPARAMS|DCode=54|XSize=0.74mm|YSize=0.28mm|CornerRadius=0.035mm|HoleSize=0mm|Usage=FLASHONLY|Rotation=180.000|XOffset=0mm|YOffset=0mm|HoleType=Round|Shape=RoundedRectangle|*
%AMROUNDEDRECTD54*
21,1,0.7400,0.2100,0,0,180.0*
21,1,0.6700,0.2800,0,0,180.0*
1,1,0.0700,-0.3350,0.1050*
1,1,0.0700,0.3350,0.1050*
1,1,0.0700,0.3350,-0.1050*
1,1,0.0700,-0.3350,-0.1050*
%
%ADD54ROUNDEDRECTD54*%
%ADD55R,0.2600X0.8600*%
%ADD56R,0.8600X0.2600*%
%ADD57R,6.0000X6.0000*%
G04:AMPARAMS|DCode=58|XSize=0.8mm|YSize=0.35mm|CornerRadius=0.0438mm|HoleSize=0mm|Usage=FLASHONLY|Rotation=180.000|XOffset=0mm|YOffset=0mm|HoleType=Round|Shape=RoundedRectangle|*
%AMROUNDEDRECTD58*
21,1,0.8000,0.2625,0,0,180.0*
21,1,0.7125,0.3500,0,0,180.0*
1,1,0.0875,-0.3563,0.1313*
1,1,0.0875,0.3563,0.1313*
1,1,0.0875,0.3563,-0.1313*
1,1,0.0875,-0.3563,-0.1313*
%
%ADD58ROUNDEDRECTD58*%
G04:AMPARAMS|DCode=59|XSize=0.85mm|YSize=0.35mm|CornerRadius=0.0438mm|HoleSize=0mm|Usage=FLASHONLY|Rotation=270.000|XOffset=0mm|YOffset=0mm|HoleType=Round|Shape=RoundedRectangle|*
%AMROUNDEDRECTD59*
21,1,0.8500,0.2625,0,0,270.0*
21,1,0.7625,0.3500,0,0,270.0*
1,1,0.0875,-0.1313,-0.3813*
1,1,0.0875,-0.1313,0.3813*
1,1,0.0875,0.1313,0.3813*
1,1,0.0875,0.1313,-0.3813*
%
%ADD59ROUNDEDRECTD59*%
%ADD60R,1.4000X1.3000*%
%ADD111R,1.6000X0.9000*%
%ADD112R,2.4500X2.4500*%
%ADD113R,0.9000X1.6000*%
%ADD114R,2.7000X2.6000*%
%ADD115C,0.4000*%
%ADD116C,0.4500*%
G04:AMPARAMS|DCode=117|XSize=2.14mm|YSize=1.07mm|CornerRadius=0mm|HoleSize=0mm|Usage=FLASHONLY|Rotation=330.000|XOffset=0mm|YOffset=0mm|HoleType=Round|Shape=Round|*
%AMOVALD117*
21,1,1.0700,1.0700,0.0000,0.0000,330.0*
1,1,1.0700,-0.4633,0.2675*
1,1,1.0700,0.4633,-0.2675*
%
%ADD117OVALD117*%

%ADD118R,1.3000X1.3000*%
%ADD119C,1.3000*%
G04:AMPARAMS|DCode=120|XSize=2.14mm|YSize=1.07mm|CornerRadius=0mm|HoleSize=0mm|Usage=FLASHONLY|Rotation=210.000|XOffset=0mm|YOffset=0mm|HoleType=Round|Shape=Round|*
%AMOVALD120*
21,1,1.0700,1.0700,0.0000,0.0000,210.0*
1,1,1.0700,0.4633,0.2675*
1,1,1.0700,-0.4633,-0.2675*
%
%ADD120OVALD120*%

%ADD121O,1.0700X2.1400*%
%ADD122C,5.0000*%
%ADD123R,1.3000X1.3000*%
%ADD124C,0.4500*%
%ADD125C,0.7000*%
G36*
X317638Y443315D02*
X329263Y439246D01*
X340602Y434441D01*
X351612Y428919D01*
X362243Y422704D01*
X372456Y415821D01*
X382207Y408297D01*
X391455Y400164D01*
X400164Y391455D01*
X408297Y382207D01*
X415821Y372456D01*
X422704Y362243D01*
X428919Y351612D01*
X434441Y340602D01*
X439246Y329263D01*
X443315Y317638D01*
X444780Y312397D01*
Y286270D01*
X427160D01*
Y271730D01*
X444780D01*
Y220270D01*
X427160D01*
Y205730D01*
X444780D01*
X444780Y14701D01*
X443510Y14343D01*
X442349Y16238D01*
X439534Y19534D01*
X436237Y22349D01*
X432541Y24614D01*
X428536Y26273D01*
X424321Y27285D01*
X421270Y27525D01*
Y0D01*
Y-27525D01*
X424321Y-27285D01*
X428536Y-26273D01*
X432541Y-24614D01*
X436237Y-22349D01*
X439534Y-19534D01*
X442349Y-16238D01*
X443510Y-14343D01*
X444780Y-14701D01*
Y-163180D01*
X-196780D01*
Y-76576D01*
X-195510Y-75950D01*
X-194419Y-76787D01*
X-192528Y-77570D01*
X-190500Y-77837D01*
X-188472Y-77570D01*
X-186581Y-76787D01*
X-184958Y-75542D01*
X-183713Y-73918D01*
X-182930Y-72028D01*
X-182663Y-70000D01*
X-182930Y-67972D01*
X-183713Y-66082D01*
X-184958Y-64458D01*
X-186581Y-63213D01*
X-188472Y-62430D01*
X-190500Y-62163D01*
X-192528Y-62430D01*
X-194419Y-63213D01*
X-195510Y-64050D01*
X-196780Y-63424D01*
Y-56576D01*
X-195510Y-55950D01*
X-194419Y-56787D01*
X-192528Y-57570D01*
X-190500Y-57837D01*
X-188472Y-57570D01*
X-186581Y-56787D01*
X-184958Y-55542D01*
X-183713Y-53918D01*
X-182930Y-52028D01*
X-182663Y-50000D01*
X-182930Y-47972D01*
X-183713Y-46082D01*
X-184958Y-44458D01*
X-186581Y-43213D01*
X-188472Y-42430D01*
X-190500Y-42163D01*
X-192528Y-42430D01*
X-194419Y-43213D01*
X-195510Y-44050D01*
X-196780Y-43424D01*
Y-36576D01*
X-195510Y-35950D01*
X-194419Y-36787D01*
X-192528Y-37570D01*
X-190500Y-37837D01*
X-188472Y-37570D01*
X-186581Y-36787D01*
X-184958Y-35542D01*
X-183713Y-33918D01*
X-182930Y-32028D01*
X-182663Y-30000D01*
X-182930Y-27972D01*
X-183713Y-26082D01*
X-184958Y-24458D01*
X-186581Y-23213D01*
X-188472Y-22430D01*
X-190500Y-22163D01*
X-192528Y-22430D01*
X-194419Y-23213D01*
X-195510Y-24050D01*
X-196780Y-23424D01*
X-196780Y223424D01*
X-195510Y224050D01*
X-194419Y223213D01*
X-192528Y222430D01*
X-190500Y222163D01*
X-188472Y222430D01*
X-186581Y223213D01*
X-184958Y224458D01*
X-183713Y226082D01*
X-182930Y227972D01*
X-182663Y230000D01*
X-182930Y232028D01*
X-183713Y233918D01*
X-184958Y235542D01*
X-186581Y236787D01*
X-188472Y237570D01*
X-190500Y237837D01*
X-192528Y237570D01*
X-194419Y236787D01*
X-195510Y235950D01*
X-196780Y236576D01*
Y243424D01*
X-195510Y244050D01*
X-194419Y243213D01*
X-192528Y242430D01*
X-190500Y242163D01*
X-188472Y242430D01*
X-186581Y243213D01*
X-184958Y244458D01*
X-183713Y246082D01*
X-182930Y247972D01*
X-182663Y250000D01*
X-182930Y252028D01*
X-183713Y253918D01*
X-184958Y255542D01*
X-186581Y256787D01*
X-188472Y257570D01*
X-190500Y257837D01*
X-192528Y257570D01*
X-194419Y256787D01*
X-195510Y255950D01*
X-196780Y256576D01*
Y263424D01*
X-195510Y264050D01*
X-194419Y263213D01*
X-192528Y262430D01*
X-190500Y262163D01*
X-188472Y262430D01*
X-186581Y263213D01*
X-184958Y264458D01*
X-183713Y266082D01*
X-182930Y267972D01*
X-182663Y270000D01*
X-182930Y272028D01*
X-183713Y273919D01*
X-184958Y275542D01*
X-186581Y276787D01*
X-188472Y277570D01*
X-190500Y277837D01*
X-192528Y277570D01*
X-194419Y276787D01*
X-195510Y275950D01*
X-196780Y276576D01*
X-196780Y444780D01*
X-14701D01*
X-14343Y443510D01*
X-16238Y442349D01*
X-19534Y439534D01*
X-22349Y436237D01*
X-24614Y432541D01*
X-26273Y428536D01*
X-27285Y424321D01*
X-27525Y421270D01*
X27525D01*
X27285Y424321D01*
X26273Y428536D01*
X24614Y432541D01*
X22349Y436237D01*
X19534Y439534D01*
X16238Y442349D01*
X14343Y443510D01*
X14701Y444780D01*
X312397D01*
X317638Y443315D01*
D02*
G37*
%LPC*%
G36*
X27525Y418730D02*
X1270D01*
Y392474D01*
X4322Y392715D01*
X8537Y393727D01*
X12542Y395386D01*
X16238Y397650D01*
X19534Y400466D01*
X22349Y403762D01*
X24614Y407458D01*
X26273Y411463D01*
X27285Y415678D01*
X27525Y418730D01*
D02*
G37*
G36*
X-1270D02*
X-27525D01*
X-27285Y415678D01*
X-26273Y411463D01*
X-24614Y407458D01*
X-22349Y403762D01*
X-19534Y400466D01*
X-16238Y397650D01*
X-12542Y395386D01*
X-8537Y393727D01*
X-4322Y392715D01*
X-1270Y392474D01*
Y418730D01*
D02*
G37*
G36*
X371270Y397525D02*
Y371270D01*
X397525D01*
X397285Y374321D01*
X396273Y378536D01*
X394614Y382541D01*
X392349Y386237D01*
X389534Y389534D01*
X386237Y392349D01*
X382541Y394614D01*
X378536Y396273D01*
X374321Y397285D01*
X371270Y397525D01*
D02*
G37*
G36*
X368730D02*
X365678Y397285D01*
X361463Y396273D01*
X357458Y394614D01*
X353762Y392349D01*
X350466Y389534D01*
X347650Y386237D01*
X345386Y382541D01*
X343727Y378536D01*
X342715Y374321D01*
X342475Y371270D01*
X368730D01*
Y397525D01*
D02*
G37*
G36*
X397525Y368730D02*
X371270D01*
Y342475D01*
X374321Y342715D01*
X378536Y343727D01*
X382541Y345386D01*
X386237Y347650D01*
X389534Y350466D01*
X392349Y353762D01*
X394614Y357458D01*
X396273Y361463D01*
X397285Y365678D01*
X397525Y368730D01*
D02*
G37*
G36*
X368730D02*
X342475D01*
X342715Y365678D01*
X343727Y361463D01*
X345386Y357458D01*
X347650Y353762D01*
X350466Y350466D01*
X353762Y347650D01*
X357458Y345386D01*
X361463Y343727D01*
X365678Y342715D01*
X368730Y342475D01*
Y368730D01*
D02*
G37*
G36*
X85470Y358670D02*
X76530D01*
Y351140D01*
X75260D01*
Y346870D01*
X81000D01*
Y344330D01*
X75260D01*
Y340060D01*
X75728D01*
X76417Y338966D01*
X76032Y337746D01*
X75177Y337355D01*
X74000Y337589D01*
X72627Y337316D01*
X71462Y336538D01*
X70684Y335373D01*
X70411Y334000D01*
X70684Y332627D01*
X71462Y331462D01*
X71670Y331323D01*
X71285Y330053D01*
X68438D01*
X67771Y329921D01*
X67276Y329590D01*
X63418D01*
X62427Y329393D01*
X61587Y328831D01*
X60099Y327343D01*
X59537Y326503D01*
X59340Y325512D01*
Y323670D01*
X55530D01*
Y320260D01*
X53670D01*
X52679Y320063D01*
X51839Y319501D01*
X48169Y315831D01*
X47607Y314991D01*
X47410Y314000D01*
Y304770D01*
X45730D01*
Y294730D01*
X54270D01*
X54270Y303794D01*
X54270Y304770D01*
X55420Y305060D01*
X55530Y305060D01*
X58730D01*
Y310600D01*
X61270D01*
Y305060D01*
X64553D01*
X64649Y305008D01*
X65497Y303790D01*
X65402Y303312D01*
Y303270D01*
X72000D01*
Y302000D01*
X73270D01*
Y297652D01*
X75563D01*
X76447Y296926D01*
Y290938D01*
X75523Y289740D01*
X74870D01*
Y284000D01*
Y278260D01*
X79140D01*
Y279530D01*
X86670D01*
Y285480D01*
X86720Y285730D01*
Y286168D01*
X86893Y286427D01*
X87090Y287418D01*
Y288206D01*
X88188Y289197D01*
X90375D01*
X91005Y288272D01*
X91072Y287953D01*
X90684Y287373D01*
X90411Y286000D01*
X90684Y284627D01*
X91462Y283462D01*
X92627Y282684D01*
X94000Y282411D01*
X94702Y282551D01*
X105626Y271627D01*
X105627Y271627D01*
X106257Y271206D01*
X107000Y271058D01*
X108195D01*
X113070Y266183D01*
X112515Y264942D01*
X76055D01*
X54488Y286508D01*
X54270Y286654D01*
Y293270D01*
X45730D01*
Y283230D01*
X52177D01*
X52297Y283206D01*
X73877Y261627D01*
X74507Y261206D01*
X75250Y261058D01*
X112196D01*
X122413Y250840D01*
X121887Y249570D01*
X120177D01*
X119373Y250373D01*
X118743Y250795D01*
X118000Y250942D01*
X82770D01*
Y253270D01*
X72730D01*
Y244730D01*
X82770D01*
Y247058D01*
X117196D01*
X117430Y246823D01*
Y239720D01*
X107580D01*
Y239092D01*
X82770D01*
Y243270D01*
X72730D01*
Y234730D01*
X82770D01*
Y235208D01*
X102868D01*
X103266Y234125D01*
X103275Y233938D01*
X99169Y229831D01*
X98607Y228991D01*
X98410Y228000D01*
Y213670D01*
X96530D01*
Y206140D01*
X95260D01*
Y201870D01*
X101000D01*
Y199330D01*
X95260D01*
Y195060D01*
X94317Y194270D01*
X93730D01*
Y185740D01*
X92270D01*
Y194270D01*
X82230D01*
Y188477D01*
X80032Y186278D01*
X79611Y185648D01*
X79463Y184905D01*
Y183206D01*
X78462Y182538D01*
X77684Y181373D01*
X77411Y180000D01*
X77481Y179646D01*
X77466Y179611D01*
X76381Y178668D01*
X76247Y178695D01*
X24270D01*
Y192395D01*
X15730D01*
Y174355D01*
X24270D01*
Y174810D01*
X75443D01*
X77627Y172627D01*
X78257Y172206D01*
X79000Y172058D01*
X82230D01*
Y163730D01*
X83060D01*
Y159270D01*
X88600D01*
Y156730D01*
X83060D01*
Y152270D01*
X82230D01*
Y148942D01*
X60805D01*
X51212Y158534D01*
X50582Y158955D01*
X49839Y159103D01*
X30270D01*
Y160770D01*
X21730D01*
Y150730D01*
X30270D01*
Y155219D01*
X32058D01*
Y142235D01*
X31540Y141837D01*
X30270Y142463D01*
Y149270D01*
X21730D01*
Y146215D01*
X15706D01*
X15670Y147452D01*
X15670Y147485D01*
X15701Y148727D01*
X16039Y148867D01*
X17421Y149929D01*
X18483Y151312D01*
X19150Y152922D01*
X19377Y154650D01*
Y165350D01*
X19150Y167078D01*
X18483Y168689D01*
X17421Y170072D01*
X16039Y171133D01*
X14428Y171800D01*
X12700Y172027D01*
X10972Y171800D01*
X9361Y171133D01*
X7979Y170072D01*
X7926Y170003D01*
X6350Y170035D01*
X5627Y170977D01*
X3979Y172242D01*
X2060Y173037D01*
X1694Y173085D01*
X1778Y174355D01*
X4270D01*
Y192395D01*
X-4270Y192395D01*
X-4460Y193586D01*
Y193665D01*
X-8730D01*
Y183375D01*
X-11270D01*
Y193665D01*
X-15540D01*
Y193586D01*
X-15594Y193245D01*
X-16947Y192830D01*
X-17410Y193293D01*
Y238540D01*
X-16684Y239627D01*
X-16411Y241000D01*
X-16684Y242373D01*
X-17462Y243538D01*
X-18627Y244316D01*
X-20000Y244589D01*
X-21373Y244316D01*
X-22538Y243538D01*
X-23316Y242373D01*
X-23589Y241000D01*
X-23316Y239627D01*
X-22590Y238540D01*
Y192395D01*
X-24270D01*
Y174355D01*
X-15730Y174355D01*
X-15540Y173164D01*
Y173085D01*
X-14395D01*
X-14311Y171815D01*
X-14428Y171800D01*
X-16039Y171133D01*
X-17421Y170072D01*
X-18483Y168689D01*
X-19150Y167078D01*
X-19377Y165350D01*
Y154650D01*
X-19150Y152922D01*
X-18483Y151312D01*
X-17421Y149929D01*
X-16039Y148867D01*
X-14642Y148289D01*
Y143700D01*
X-14495Y142957D01*
X-14073Y142327D01*
X-6899Y135153D01*
X-6899Y135153D01*
X-6269Y134732D01*
X-5526Y134584D01*
X29526D01*
X30269Y134732D01*
X30900Y135153D01*
X35373Y139627D01*
X35373Y139627D01*
X35794Y140257D01*
X35942Y141000D01*
X35942Y141000D01*
Y155219D01*
X49034D01*
X58626Y145627D01*
X58627Y145627D01*
X59257Y145205D01*
X60000Y145058D01*
X82230D01*
Y143730D01*
X83060D01*
Y139270D01*
X88600D01*
Y138000D01*
X89870D01*
Y132260D01*
X94140D01*
Y133530D01*
X101670D01*
Y142470D01*
X101670D01*
X101694Y143730D01*
X103770D01*
Y146944D01*
X106386D01*
X107129Y147092D01*
X107759Y147513D01*
X114523Y154277D01*
X114944Y154907D01*
X115092Y155650D01*
Y159580D01*
X117430D01*
Y149730D01*
X120961D01*
X121320Y148876D01*
X121410Y148460D01*
X120684Y147373D01*
X120411Y146000D01*
X120684Y144627D01*
X121462Y143462D01*
X122627Y142684D01*
X124000Y142411D01*
X125373Y142684D01*
X126538Y143462D01*
X126736Y143759D01*
X128264D01*
X128462Y143462D01*
X129627Y142684D01*
X131000Y142411D01*
X132373Y142684D01*
X133538Y143462D01*
X133736Y143759D01*
X135264D01*
X135462Y143462D01*
X136627Y142684D01*
X138000Y142411D01*
X139373Y142684D01*
X140538Y143462D01*
X140736Y143759D01*
X142264D01*
X142462Y143462D01*
X143627Y142684D01*
X145000Y142411D01*
X145790Y142568D01*
X147060Y141732D01*
Y138260D01*
X151330D01*
Y144000D01*
X153870D01*
Y138260D01*
X158140D01*
Y139530D01*
X165670D01*
Y148470D01*
X165670D01*
X165694Y149730D01*
X171063D01*
X171742Y148460D01*
X171684Y148373D01*
X171411Y147000D01*
X171684Y145627D01*
X172462Y144462D01*
X173627Y143684D01*
X175000Y143411D01*
X176084Y143627D01*
X176828Y142589D01*
X176832Y142579D01*
X171627Y137373D01*
X171206Y136743D01*
X171058Y136000D01*
Y119000D01*
X171206Y118257D01*
X171627Y117627D01*
X172474Y116779D01*
X172056Y115401D01*
X171627Y115316D01*
X170462Y114538D01*
X169684Y113373D01*
X169411Y112000D01*
Y110670D01*
X168530D01*
Y103140D01*
X167260D01*
Y98870D01*
X173000D01*
Y97600D01*
X174270D01*
Y92060D01*
X178740D01*
Y93536D01*
X179188Y93904D01*
X181880D01*
Y97850D01*
X184420D01*
Y93904D01*
X187113D01*
X187348Y93710D01*
Y87037D01*
X187473Y86410D01*
X187829Y85879D01*
X188360Y85523D01*
X188587Y85478D01*
X189139Y84544D01*
X189212Y84129D01*
X189147Y84031D01*
X188950Y83040D01*
Y82113D01*
X188608Y81770D01*
X183730D01*
Y79340D01*
X182270D01*
Y81770D01*
X173730D01*
X173730Y71730D01*
X172539Y71540D01*
X172460D01*
Y66520D01*
X178000D01*
Y63980D01*
X172460D01*
Y59645D01*
X171432Y58375D01*
X140056Y58375D01*
X140056Y58375D01*
X139084Y57972D01*
X135028Y53916D01*
X134625Y52944D01*
X134625Y52944D01*
X134625Y33000D01*
X134625Y33000D01*
X134764Y32664D01*
X134956Y31211D01*
X135839Y29077D01*
X137245Y27245D01*
X139077Y25839D01*
X141211Y24956D01*
X143500Y24654D01*
X158500D01*
X160789Y24956D01*
X162923Y25839D01*
X164755Y27245D01*
X165814Y28625D01*
X204880Y28625D01*
X205280Y27877D01*
X205443Y27355D01*
X205201Y26140D01*
X205242Y25937D01*
X204161Y24857D01*
X204000Y24889D01*
X202627Y24616D01*
X201540Y23890D01*
X200120D01*
Y25870D01*
X173880D01*
Y24634D01*
X170281D01*
X169000Y24889D01*
X167627Y24616D01*
X166462Y23838D01*
X165684Y22673D01*
X165411Y21300D01*
X165684Y19927D01*
X166462Y18762D01*
X166638Y18645D01*
X166253Y17375D01*
X140056Y17375D01*
X140056Y17375D01*
X139084Y16972D01*
X135028Y12916D01*
X134625Y11944D01*
X134625Y11944D01*
Y-8000D01*
X134764Y-8336D01*
X134956Y-9789D01*
X135839Y-11923D01*
X137245Y-13755D01*
X139077Y-15161D01*
X141211Y-16044D01*
X143500Y-16346D01*
X158500D01*
X160789Y-16044D01*
X162923Y-15161D01*
X164755Y-13755D01*
X165814Y-12375D01*
X210430Y-12375D01*
Y-18120D01*
X212410D01*
Y-19540D01*
X211684Y-20627D01*
X211411Y-22000D01*
X211482Y-22355D01*
X210441Y-23626D01*
X206747D01*
X206362Y-22355D01*
X206538Y-22238D01*
X207316Y-21074D01*
X207589Y-19700D01*
X207316Y-18327D01*
X206538Y-17162D01*
X205373Y-16384D01*
X204000Y-16111D01*
X202627Y-16384D01*
X201540Y-17110D01*
X200120D01*
Y-15130D01*
X173880D01*
Y-16366D01*
X170281D01*
X169000Y-16111D01*
X167627Y-16384D01*
X166462Y-17162D01*
X165684Y-18327D01*
X165411Y-19700D01*
X165684Y-21074D01*
X166462Y-22238D01*
X166638Y-22355D01*
X166253Y-23626D01*
X140056Y-23625D01*
X140056Y-23625D01*
X139084Y-24028D01*
X135028Y-28084D01*
X134625Y-29056D01*
X134625Y-29056D01*
X134625Y-49000D01*
X134764Y-49336D01*
X134956Y-50789D01*
X135839Y-52923D01*
X137245Y-54755D01*
X139077Y-56161D01*
X141211Y-57044D01*
X143500Y-57346D01*
X158500D01*
X160789Y-57044D01*
X162923Y-56161D01*
X164755Y-54755D01*
X165814Y-53375D01*
X210430Y-53375D01*
Y-59120D01*
X212410D01*
Y-60540D01*
X211684Y-61627D01*
X211411Y-63000D01*
X211684Y-64373D01*
X212462Y-65538D01*
X213627Y-66316D01*
X215000Y-66589D01*
X216373Y-66316D01*
X217407Y-65625D01*
X217544Y-65611D01*
X218069Y-65703D01*
X218803Y-65930D01*
X219028Y-66472D01*
X220000Y-66875D01*
X251000Y-66875D01*
X251972Y-66472D01*
X252375Y-65500D01*
Y-54375D01*
X281000D01*
X281000Y-54375D01*
X281972Y-53972D01*
X281972Y-53972D01*
X284972Y-50972D01*
X285375Y-50000D01*
X285375Y-50000D01*
Y-36000D01*
X285375Y-36000D01*
X284972Y-35028D01*
X284972Y-35028D01*
X281972Y-32028D01*
X281000Y-31625D01*
X281000Y-31625D01*
X252375D01*
Y-24040D01*
X266730D01*
Y-15000D01*
Y-5960D01*
X252375D01*
Y-4040D01*
X266730D01*
Y5000D01*
Y14040D01*
X252375D01*
Y21625D01*
X281000D01*
X281000Y21625D01*
X281972Y22028D01*
X281972Y22028D01*
X284972Y25028D01*
X285375Y26000D01*
X285375Y26000D01*
Y40000D01*
X285375Y40000D01*
X284972Y40972D01*
X284972D01*
X284557Y41767D01*
X285148Y42972D01*
X285678Y43078D01*
X286634Y43716D01*
X286984Y44241D01*
X287450Y44148D01*
X289550D01*
X290182Y44274D01*
X290718Y44632D01*
X291282D01*
X291818Y44274D01*
X292450Y44148D01*
X294550D01*
X295182Y44274D01*
X295718Y44632D01*
X296076Y45168D01*
X296202Y45800D01*
Y47432D01*
X297222D01*
X298213Y47629D01*
X299053Y48191D01*
X301192Y50330D01*
X306470D01*
Y57860D01*
X307740D01*
Y62130D01*
X302000D01*
Y64670D01*
X307740D01*
Y68940D01*
X302346D01*
X301860Y70113D01*
X313373Y81627D01*
X313794Y82257D01*
X313942Y83000D01*
Y153000D01*
X313794Y153743D01*
X313373Y154374D01*
X256539Y211208D01*
X256850Y212021D01*
X257110Y212433D01*
X258373Y212684D01*
X259538Y213462D01*
X260316Y214627D01*
X260589Y216000D01*
X260449Y216702D01*
X261805Y218058D01*
X410000D01*
X410743Y218206D01*
X411373Y218627D01*
X414373Y221627D01*
X414795Y222257D01*
X414942Y223000D01*
Y261000D01*
X414795Y261743D01*
X414373Y262373D01*
X409374Y267373D01*
X408743Y267794D01*
X408000Y267942D01*
X407700D01*
Y270270D01*
X389660D01*
Y261730D01*
X407700D01*
Y261894D01*
X408873Y262380D01*
X411058Y260196D01*
Y223805D01*
X409195Y221942D01*
X407700D01*
Y230270D01*
X389660D01*
Y230054D01*
X244692D01*
X241981Y232766D01*
X242283Y234129D01*
X242357Y234186D01*
X243000Y234058D01*
X389660D01*
Y231730D01*
X407700D01*
X407700Y240270D01*
X408891Y240460D01*
X408970D01*
Y244730D01*
X388390D01*
Y240460D01*
X388469D01*
X389660Y240270D01*
X389660Y238840D01*
X388762Y237942D01*
X243805D01*
X229787Y251960D01*
X230313Y253230D01*
X232270D01*
Y255535D01*
X234330D01*
Y253530D01*
X241860D01*
Y252260D01*
X246130D01*
Y258000D01*
X248670D01*
Y252260D01*
X252940D01*
Y252260D01*
X253060D01*
Y252260D01*
X257330D01*
Y258000D01*
X259870D01*
Y252260D01*
X264140D01*
Y253530D01*
X271670D01*
Y262470D01*
X269068D01*
Y263522D01*
X268871Y264513D01*
X268309Y265353D01*
X265022Y268640D01*
X265548Y269910D01*
X297677D01*
X315429Y252158D01*
X315684Y250877D01*
X316462Y249712D01*
X317627Y248934D01*
X319000Y248661D01*
X320373Y248934D01*
X321538Y249712D01*
X322316Y250877D01*
X322589Y252250D01*
X322316Y253623D01*
X321538Y254788D01*
X320373Y255566D01*
X319092Y255821D01*
X300581Y274331D01*
X299741Y274893D01*
X298750Y275090D01*
X283798D01*
X283272Y276360D01*
X319092Y312179D01*
X320373Y312434D01*
X321538Y313212D01*
X322316Y314377D01*
X322589Y315750D01*
X322316Y317123D01*
X321538Y318288D01*
X320373Y319066D01*
X319000Y319339D01*
X317627Y319066D01*
X316462Y318288D01*
X315684Y317123D01*
X315429Y315842D01*
X279677Y280090D01*
X264171D01*
X263235Y281230D01*
X256850D01*
Y282500D01*
X255580D01*
Y286497D01*
X253500D01*
X252372Y286272D01*
X251416Y285634D01*
X251354Y285540D01*
X248270D01*
Y275000D01*
X245730D01*
Y285540D01*
X239960D01*
Y285202D01*
X233800D01*
X233168Y285076D01*
X232632Y284718D01*
X232448Y284442D01*
X218500D01*
X218500Y284442D01*
X217757Y284294D01*
X217127Y283873D01*
X199702Y266449D01*
X199000Y266589D01*
X197627Y266316D01*
X196462Y265538D01*
X195684Y264373D01*
X195411Y263000D01*
X195684Y261627D01*
X196394Y260564D01*
X196441Y260314D01*
X196259Y259070D01*
X195462Y258538D01*
X194684Y257373D01*
X194411Y256000D01*
X194684Y254627D01*
X194961Y254212D01*
X194282Y252942D01*
X192000D01*
X191940Y252930D01*
X190670Y253814D01*
Y260470D01*
X183140D01*
Y261740D01*
X178870D01*
Y256000D01*
X176330D01*
Y261740D01*
X172060D01*
Y260402D01*
X170790Y259528D01*
X170080Y259669D01*
X168706Y259396D01*
X167542Y258618D01*
X166764Y257453D01*
X166626Y256759D01*
X166171Y255909D01*
X165321Y255454D01*
X164627Y255316D01*
X164210Y255037D01*
X162940Y255716D01*
Y261740D01*
X158670D01*
Y256000D01*
X156130D01*
Y261740D01*
X153036D01*
X151860Y261740D01*
X151770Y262973D01*
Y270270D01*
X149340D01*
Y271730D01*
X151770D01*
Y280270D01*
X141730D01*
Y275998D01*
X140460Y275319D01*
X140270Y275446D01*
Y280270D01*
X138813D01*
X138287Y281540D01*
X157804Y301058D01*
X182000D01*
X182743Y301206D01*
X183373Y301627D01*
X198013Y316266D01*
X198081Y316213D01*
X199972Y315430D01*
X202000Y315163D01*
X204028Y315430D01*
X205919Y316213D01*
X207542Y317458D01*
X208787Y319081D01*
X209570Y320972D01*
X209837Y323000D01*
X209570Y325028D01*
X208787Y326918D01*
X207542Y328542D01*
X205919Y329787D01*
X204028Y330570D01*
X202000Y330837D01*
X199972Y330570D01*
X198081Y329787D01*
X196458Y328542D01*
X195213Y326918D01*
X194430Y325028D01*
X194163Y323000D01*
X194430Y320972D01*
X195213Y319081D01*
X195266Y319013D01*
X190727Y314473D01*
X189770Y315313D01*
X189770Y316466D01*
Y330770D01*
X174230D01*
Y315230D01*
X188503D01*
X189687Y315230D01*
X190527Y314273D01*
X181195Y304942D01*
X157000D01*
X157000Y304942D01*
X156257Y304795D01*
X155627Y304373D01*
X133877Y282623D01*
X133455Y281993D01*
X133308Y281250D01*
Y280270D01*
X130230D01*
Y277942D01*
X121554D01*
X107553Y291943D01*
Y296926D01*
X108438Y297652D01*
X110730D01*
Y302000D01*
X112000D01*
Y303270D01*
X118598D01*
Y303312D01*
X118367Y304474D01*
X117709Y305459D01*
X117303Y305730D01*
Y308312D01*
X117171Y308979D01*
X116823Y309500D01*
X117171Y310021D01*
X117303Y310688D01*
Y313312D01*
X117171Y313979D01*
X116823Y314500D01*
X117171Y315021D01*
X117303Y315688D01*
Y318312D01*
X117171Y318979D01*
X116823Y319500D01*
X117171Y320021D01*
X117303Y320687D01*
Y323312D01*
X117171Y323979D01*
X116823Y324500D01*
X117171Y325021D01*
X117303Y325687D01*
Y328312D01*
X117171Y328979D01*
X116793Y329543D01*
X116229Y329921D01*
X115562Y330053D01*
X108772D01*
X108310Y330199D01*
X107553Y331060D01*
Y338063D01*
X107421Y338729D01*
X107044Y339294D01*
X106479Y339671D01*
X105813Y339804D01*
X105432D01*
X105389Y339908D01*
X105076Y341073D01*
X105533Y341757D01*
X105660Y342398D01*
X105793Y342530D01*
X110670D01*
Y351470D01*
X103140D01*
Y352740D01*
X98870D01*
Y347000D01*
X96330D01*
Y352740D01*
X92060D01*
Y351399D01*
X90790Y350872D01*
X87161Y354501D01*
X86321Y355063D01*
X85470Y355232D01*
Y358670D01*
D02*
G37*
G36*
X223270Y331951D02*
Y324270D01*
X230951D01*
X230807Y325360D01*
X229896Y327559D01*
X228447Y329447D01*
X226559Y330896D01*
X224360Y331807D01*
X223270Y331951D01*
D02*
G37*
G36*
X220730D02*
X219640Y331807D01*
X217441Y330896D01*
X215553Y329447D01*
X214104Y327559D01*
X213193Y325360D01*
X213049Y324270D01*
X220730D01*
Y331951D01*
D02*
G37*
G36*
X242000Y330837D02*
X239972Y330570D01*
X238081Y329787D01*
X236458Y328542D01*
X235213Y326918D01*
X234430Y325028D01*
X234163Y323000D01*
X234430Y320972D01*
X235213Y319081D01*
X236458Y317458D01*
X238081Y316213D01*
X239972Y315430D01*
X242000Y315163D01*
X244028Y315430D01*
X245919Y316213D01*
X247542Y317458D01*
X248787Y319081D01*
X249570Y320972D01*
X249837Y323000D01*
X249570Y325028D01*
X248787Y326918D01*
X247542Y328542D01*
X245919Y329787D01*
X244028Y330570D01*
X242000Y330837D01*
D02*
G37*
G36*
X230951Y321730D02*
X223270D01*
Y314049D01*
X224360Y314193D01*
X226559Y315104D01*
X228447Y316553D01*
X229896Y318441D01*
X230807Y320640D01*
X230951Y321730D01*
D02*
G37*
G36*
X220730D02*
X213049D01*
X213193Y320640D01*
X214104Y318441D01*
X215553Y316553D01*
X217441Y315104D01*
X219640Y314193D01*
X220730Y314049D01*
Y321730D01*
D02*
G37*
G36*
X118598Y300730D02*
X113270D01*
Y297652D01*
X115562D01*
X116724Y297883D01*
X117709Y298541D01*
X118367Y299526D01*
X118598Y300688D01*
Y300730D01*
D02*
G37*
G36*
X70730Y300730D02*
X65402D01*
Y300688D01*
X65633Y299526D01*
X66291Y298541D01*
X67276Y297883D01*
X68438Y297652D01*
X70730D01*
Y300730D01*
D02*
G37*
G36*
X72330Y289740D02*
X68060D01*
Y285270D01*
X72330D01*
Y289740D01*
D02*
G37*
G36*
X260200Y286497D02*
X258120D01*
Y283770D01*
X263103D01*
X262922Y284678D01*
X262283Y285634D01*
X261328Y286272D01*
X260200Y286497D01*
D02*
G37*
G36*
X72330Y282730D02*
X68060D01*
Y278260D01*
X72330D01*
Y282730D01*
D02*
G37*
G36*
X-169230Y278951D02*
Y271270D01*
X-161549D01*
X-161693Y272360D01*
X-162604Y274559D01*
X-164053Y276447D01*
X-165941Y277896D01*
X-168140Y278807D01*
X-169230Y278951D01*
D02*
G37*
G36*
X-171770Y278951D02*
X-172860Y278807D01*
X-175059Y277896D01*
X-176947Y276447D01*
X-178396Y274559D01*
X-179307Y272360D01*
X-179451Y271270D01*
X-171770D01*
Y278951D01*
D02*
G37*
G36*
Y268730D02*
X-179451D01*
X-179307Y267640D01*
X-178396Y265441D01*
X-176947Y263553D01*
X-175059Y262104D01*
X-172860Y261193D01*
X-171770Y261049D01*
Y268730D01*
D02*
G37*
G36*
X-161549D02*
X-169230D01*
Y261049D01*
X-168140Y261193D01*
X-165941Y262104D01*
X-164053Y263553D01*
X-162604Y265441D01*
X-161693Y267640D01*
X-161549Y268730D01*
D02*
G37*
G36*
X-98960Y267040D02*
X-106730D01*
Y259270D01*
X-98960D01*
Y267040D01*
D02*
G37*
G36*
X-109270D02*
X-117040D01*
Y259270D01*
X-109270D01*
Y267040D01*
D02*
G37*
G36*
X-169230Y258951D02*
Y251270D01*
X-161549D01*
X-161693Y252360D01*
X-162604Y254559D01*
X-164053Y256447D01*
X-165941Y257896D01*
X-168140Y258807D01*
X-169230Y258951D01*
D02*
G37*
G36*
X-171770D02*
X-172860Y258807D01*
X-175059Y257896D01*
X-176947Y256447D01*
X-178396Y254559D01*
X-179307Y252360D01*
X-179451Y251270D01*
X-171770D01*
Y258951D01*
D02*
G37*
G36*
X-98960Y256730D02*
X-106730D01*
Y248960D01*
X-98960D01*
Y256730D01*
D02*
G37*
G36*
X-109270D02*
X-117040D01*
Y248960D01*
X-109270D01*
Y256730D01*
D02*
G37*
G36*
X407700Y260270D02*
X389660D01*
X389660Y251730D01*
X388469Y251540D01*
X388390D01*
Y247270D01*
X408970D01*
Y251540D01*
X408891D01*
X407700Y251730D01*
X407700Y252810D01*
Y260270D01*
D02*
G37*
G36*
X46500Y269942D02*
X-78000D01*
X-78743Y269795D01*
X-79373Y269373D01*
X-84013Y264734D01*
X-84081Y264787D01*
X-85972Y265570D01*
X-88000Y265837D01*
X-90028Y265570D01*
X-91918Y264787D01*
X-93542Y263542D01*
X-94787Y261919D01*
X-95570Y260028D01*
X-95837Y258000D01*
X-95570Y255972D01*
X-94787Y254081D01*
X-93542Y252458D01*
X-91918Y251213D01*
X-90028Y250430D01*
X-88000Y250163D01*
X-85972Y250430D01*
X-84081Y251213D01*
X-82458Y252458D01*
X-81213Y254081D01*
X-80430Y255972D01*
X-80163Y258000D01*
X-80430Y260028D01*
X-81213Y261919D01*
X-81266Y261987D01*
X-77196Y266058D01*
X-72170D01*
X-71917Y264788D01*
X-71919Y264787D01*
X-73542Y263542D01*
X-74787Y261919D01*
X-75570Y260028D01*
X-75837Y258000D01*
X-75570Y255972D01*
X-74787Y254081D01*
X-73542Y252458D01*
X-71919Y251213D01*
X-70028Y250430D01*
X-68000Y250163D01*
X-65972Y250430D01*
X-64082Y251213D01*
X-62458Y252458D01*
X-61213Y254081D01*
X-60430Y255972D01*
X-60419Y256058D01*
X41196D01*
X59627Y237627D01*
X59627Y237627D01*
X60257Y237206D01*
X61000Y237058D01*
X61230Y235816D01*
Y234730D01*
X71270D01*
Y243270D01*
X61230D01*
Y243176D01*
X60057Y242690D01*
X43373Y259373D01*
X42743Y259795D01*
X42000Y259942D01*
X-60419D01*
X-60430Y260028D01*
X-61213Y261919D01*
X-62458Y263542D01*
X-64082Y264787D01*
X-64083Y264788D01*
X-63830Y266058D01*
X45696D01*
X61230Y250523D01*
Y244730D01*
X71270D01*
Y253270D01*
X63977D01*
X47873Y269373D01*
X47243Y269795D01*
X46500Y269942D01*
D02*
G37*
G36*
X-161549Y248730D02*
X-169230D01*
Y241049D01*
X-168140Y241193D01*
X-165941Y242104D01*
X-164053Y243553D01*
X-162604Y245441D01*
X-161693Y247640D01*
X-161549Y248730D01*
D02*
G37*
G36*
X-171770D02*
X-179451D01*
X-179307Y247640D01*
X-178396Y245441D01*
X-176947Y243553D01*
X-175059Y242104D01*
X-172860Y241193D01*
X-171770Y241049D01*
Y248730D01*
D02*
G37*
G36*
X-161460Y239040D02*
X-169230D01*
Y231270D01*
X-161460D01*
Y239040D01*
D02*
G37*
G36*
X-171770D02*
X-179540D01*
Y231270D01*
X-171770D01*
Y239040D01*
D02*
G37*
G36*
X-161460Y228730D02*
X-169230D01*
Y220960D01*
X-161460D01*
Y228730D01*
D02*
G37*
G36*
X-171770D02*
X-179540D01*
Y220960D01*
X-171770D01*
Y228730D01*
D02*
G37*
G36*
X-60500Y215875D02*
X-60500Y215875D01*
X-79500Y215875D01*
X-80472Y215472D01*
X-80875Y214500D01*
Y195500D01*
X-80472Y194528D01*
X-80472Y194528D01*
X-78387Y192443D01*
X-78873Y191270D01*
X-84520D01*
Y182730D01*
X-82840D01*
Y170520D01*
X-85270D01*
Y168090D01*
X-86730D01*
Y170520D01*
X-91016D01*
X-91639Y171790D01*
X-91222Y172330D01*
X-86530D01*
Y179860D01*
X-86530Y180870D01*
X-86530Y182140D01*
Y189670D01*
X-88410D01*
Y197500D01*
X-88480Y197851D01*
Y215020D01*
X-103020D01*
Y203170D01*
X-106830D01*
X-107821Y202973D01*
X-108661Y202411D01*
X-113831Y197241D01*
X-114393Y196401D01*
X-114590Y195410D01*
Y193768D01*
X-115070Y193288D01*
X-116481Y193538D01*
X-116625Y193993D01*
Y196000D01*
X-117028Y196972D01*
X-118000Y197375D01*
X-154000Y197375D01*
X-154972Y196972D01*
X-155375Y196000D01*
Y180040D01*
X-155540D01*
Y172270D01*
X-146000D01*
Y171000D01*
X-144730D01*
Y161960D01*
X-136460D01*
Y168060D01*
X-133270D01*
Y173600D01*
X-132000D01*
Y174870D01*
X-126260D01*
Y175763D01*
X-125770Y176830D01*
X-117540D01*
X-117230Y176830D01*
X-116270D01*
X-115960Y176830D01*
X-108040D01*
Y175560D01*
X-103770D01*
Y184850D01*
X-101230D01*
Y175560D01*
X-97499D01*
X-96973Y174290D01*
X-102093Y169170D01*
X-106460D01*
X-106770Y169170D01*
X-107730D01*
X-108040Y169170D01*
X-116270D01*
Y169170D01*
X-117230D01*
Y169170D01*
X-125770Y169170D01*
X-126260Y170237D01*
Y172330D01*
X-130730D01*
Y168060D01*
X-126260D01*
X-125770Y166993D01*
Y153130D01*
X-124090D01*
Y148988D01*
X-123893Y147997D01*
X-123331Y147157D01*
X-119343Y143169D01*
X-118503Y142607D01*
X-117512Y142410D01*
X-99250D01*
X-98259Y142607D01*
X-97419Y143169D01*
X-91608Y148980D01*
X-86730Y148980D01*
X-86540Y147789D01*
Y147710D01*
X-82270D01*
Y154000D01*
X-79730D01*
Y147710D01*
X-75460D01*
Y149060D01*
X-72270D01*
Y154600D01*
X-69730D01*
Y149060D01*
X-62270D01*
Y154600D01*
X-61000D01*
Y155870D01*
X-55260D01*
Y159796D01*
X-55028Y160028D01*
X-54625Y161000D01*
X-54625Y161000D01*
X-54626Y210000D01*
X-54625Y210000D01*
X-55028Y210972D01*
X-55028Y210972D01*
X-59528Y215472D01*
X-59528Y215472D01*
X-60500Y215875D01*
D02*
G37*
G36*
X75040Y211540D02*
X69770D01*
Y206270D01*
X75040D01*
Y211540D01*
D02*
G37*
G36*
X67230D02*
X61960D01*
Y206270D01*
X67230D01*
Y211540D01*
D02*
G37*
G36*
X75040Y203730D02*
X69770D01*
Y198460D01*
X75040D01*
Y203730D01*
D02*
G37*
G36*
X67230D02*
X61960D01*
Y198460D01*
X67230D01*
Y203730D01*
D02*
G37*
G36*
X40270Y218895D02*
X25730D01*
Y198355D01*
X40270D01*
Y218895D01*
D02*
G37*
G36*
X-25730D02*
X-40270D01*
Y198355D01*
X-25730D01*
Y218895D01*
D02*
G37*
G36*
X73520Y197020D02*
X62480D01*
Y184980D01*
X73520D01*
Y197020D01*
D02*
G37*
G36*
X58770Y210270D02*
X48230D01*
Y199730D01*
X52410D01*
Y197020D01*
X49480D01*
Y184980D01*
X60520D01*
Y197020D01*
X57590D01*
Y199730D01*
X58770D01*
Y210270D01*
D02*
G37*
G36*
X14270Y192395D02*
X5730D01*
Y174355D01*
X14270D01*
Y192395D01*
D02*
G37*
G36*
X-147270Y169730D02*
X-155540D01*
Y161960D01*
X-147270D01*
Y169730D01*
D02*
G37*
G36*
X-55260Y153330D02*
X-59730D01*
Y149060D01*
X-55260D01*
Y153330D01*
D02*
G37*
G36*
X87330Y136730D02*
X83060D01*
Y132260D01*
X87330D01*
Y136730D01*
D02*
G37*
G36*
X142552Y117942D02*
X132948D01*
X132205Y117795D01*
X131574Y117373D01*
X127992Y113791D01*
X127644Y113270D01*
X121230D01*
Y113270D01*
X120020D01*
Y113270D01*
X109980D01*
Y104730D01*
X120020D01*
Y104730D01*
X121230D01*
Y104730D01*
X131270D01*
Y110606D01*
X131460Y110758D01*
X132730Y110148D01*
Y104730D01*
X135808D01*
Y102770D01*
X132730D01*
Y99692D01*
X131270D01*
Y102770D01*
X122730D01*
X122730Y93542D01*
X122600Y93455D01*
X121851Y93607D01*
X121270Y94091D01*
Y102770D01*
X112730D01*
Y99692D01*
X111270D01*
Y102770D01*
X105477D01*
X105442Y102805D01*
Y104730D01*
X108520D01*
Y113270D01*
X98480D01*
Y104730D01*
X101558D01*
Y102000D01*
X101706Y101257D01*
X102127Y100627D01*
X102730Y100023D01*
X102730Y92730D01*
X101539Y92540D01*
X101460D01*
Y87520D01*
X107000D01*
Y86250D01*
X108270D01*
Y79960D01*
X112540D01*
Y80039D01*
X112730Y81230D01*
X113810Y81230D01*
X121270Y81230D01*
X121460Y80039D01*
Y79960D01*
X125730D01*
Y86250D01*
X128270D01*
Y79960D01*
X132540D01*
Y80039D01*
X132730Y81230D01*
X133810Y81230D01*
X141270Y81230D01*
X141460Y80039D01*
Y79960D01*
X145730D01*
Y86250D01*
X148270D01*
Y79960D01*
X152540D01*
Y80039D01*
X152730Y81230D01*
X153810Y81230D01*
X161270D01*
Y91270D01*
X154157Y91270D01*
X153610Y92187D01*
X154030Y92730D01*
X161270D01*
Y100023D01*
X162123Y100877D01*
X162544Y101507D01*
X162692Y102250D01*
Y104730D01*
X165770D01*
Y113270D01*
X155730D01*
Y104730D01*
X158808D01*
Y103055D01*
X158523Y102770D01*
X152730D01*
Y99692D01*
X151270D01*
Y102770D01*
X142730D01*
X142730Y93542D01*
X142600Y93455D01*
X141851Y93607D01*
X141270Y94091D01*
Y102770D01*
X139692D01*
Y104730D01*
X142770D01*
Y110148D01*
X144040Y110758D01*
X144230Y110606D01*
Y104730D01*
X154270D01*
Y113270D01*
X147856D01*
X147508Y113791D01*
X143926Y117373D01*
X143295Y117795D01*
X142552Y117942D01*
D02*
G37*
G36*
X346040Y120790D02*
X332020D01*
Y107270D01*
X346040D01*
Y120790D01*
D02*
G37*
G36*
X329480D02*
X315460D01*
Y107270D01*
X329480D01*
Y120790D01*
D02*
G37*
G36*
X171730Y96330D02*
X167260D01*
Y92060D01*
X171730D01*
Y96330D01*
D02*
G37*
G36*
X346040Y104730D02*
X332020D01*
Y91210D01*
X346040D01*
Y104730D01*
D02*
G37*
G36*
X329480D02*
X315460D01*
Y91210D01*
X329480D01*
Y104730D01*
D02*
G37*
G36*
X105730Y84980D02*
X101460D01*
Y79960D01*
X105730D01*
Y84980D01*
D02*
G37*
G36*
X0Y111348D02*
X-3189Y111034D01*
X-6256Y110104D01*
X-9083Y108593D01*
X-11560Y106560D01*
X-13593Y104082D01*
X-15104Y101256D01*
X-16035Y98189D01*
X-16349Y95000D01*
X-16035Y91810D01*
X-15104Y88743D01*
X-13593Y85917D01*
X-11560Y83439D01*
X-9083Y81406D01*
X-6256Y79895D01*
X-3189Y78965D01*
X0Y78651D01*
X3189Y78965D01*
X6256Y79895D01*
X9083Y81406D01*
X11560Y83439D01*
X13593Y85917D01*
X15104Y88743D01*
X16035Y91810D01*
X16349Y95000D01*
X16035Y98189D01*
X15104Y101256D01*
X13593Y104082D01*
X11560Y106560D01*
X9083Y108593D01*
X6256Y110104D01*
X3189Y111034D01*
X0Y111348D01*
D02*
G37*
G36*
X350730Y73040D02*
X342960D01*
Y65270D01*
X350730D01*
Y73040D01*
D02*
G37*
G36*
X69000Y80872D02*
X65927Y80467D01*
X63064Y79281D01*
X60606Y77394D01*
X58719Y74936D01*
X57533Y72073D01*
X57128Y69000D01*
X57533Y65927D01*
X58719Y63064D01*
X60606Y60606D01*
X63064Y58719D01*
X65927Y57533D01*
X69000Y57128D01*
X72073Y57533D01*
X74936Y58719D01*
X77394Y60606D01*
X79281Y63064D01*
X80467Y65927D01*
X80872Y69000D01*
X80467Y72073D01*
X79281Y74936D01*
X77394Y77394D01*
X74936Y79281D01*
X72073Y80467D01*
X69000Y80872D01*
D02*
G37*
G36*
X-69000D02*
X-72073Y80467D01*
X-74936Y79281D01*
X-77394Y77394D01*
X-79281Y74936D01*
X-80467Y72073D01*
X-80872Y69000D01*
X-80467Y65927D01*
X-79281Y63064D01*
X-77394Y60606D01*
X-74936Y58719D01*
X-72073Y57533D01*
X-69000Y57128D01*
X-65927Y57533D01*
X-63064Y58719D01*
X-60606Y60606D01*
X-58719Y63064D01*
X-57533Y65927D01*
X-57128Y69000D01*
X-57533Y72073D01*
X-58719Y74936D01*
X-60606Y77394D01*
X-63064Y79281D01*
X-65927Y80467D01*
X-69000Y80872D01*
D02*
G37*
G36*
X350730Y62730D02*
X342960D01*
Y54960D01*
X350730D01*
Y62730D01*
D02*
G37*
G36*
X405000Y120375D02*
X378000Y120375D01*
X377028Y119972D01*
X361028Y103972D01*
X360625Y103000D01*
X360625Y103000D01*
Y73040D01*
X353270D01*
Y64000D01*
Y54960D01*
X360625D01*
Y43000D01*
X360625Y43000D01*
X361028Y42028D01*
X361028Y42028D01*
X365028Y38028D01*
X366000Y37625D01*
X366000Y37625D01*
X377000D01*
X377000Y37625D01*
X377972Y38028D01*
X382972Y43028D01*
X383375Y44000D01*
X383375Y44000D01*
Y58431D01*
X405972Y81028D01*
X406375Y82000D01*
X406375Y82000D01*
Y119000D01*
X405972Y119972D01*
X405000Y120375D01*
D02*
G37*
G36*
X284040Y14040D02*
X269270D01*
Y6270D01*
X284040D01*
Y14040D01*
D02*
G37*
G36*
X418730Y27525D02*
X415678Y27285D01*
X411463Y26273D01*
X407458Y24614D01*
X403762Y22349D01*
X400466Y19534D01*
X397650Y16238D01*
X395386Y12542D01*
X393727Y8537D01*
X392715Y4322D01*
X392474Y1270D01*
X418730D01*
Y27525D01*
D02*
G37*
G36*
X284040Y3730D02*
X269270D01*
Y-4040D01*
X284040D01*
Y3730D01*
D02*
G37*
G36*
Y-5960D02*
X269270D01*
Y-13730D01*
X284040D01*
Y-5960D01*
D02*
G37*
G36*
X80000Y16349D02*
X76810Y16035D01*
X73744Y15104D01*
X70917Y13593D01*
X68440Y11560D01*
X66406Y9083D01*
X64896Y6256D01*
X63965Y3189D01*
X63651Y0D01*
X63965Y-3189D01*
X64896Y-6256D01*
X66406Y-9083D01*
X68440Y-11560D01*
X70917Y-13593D01*
X73744Y-15104D01*
X76810Y-16035D01*
X80000Y-16349D01*
X83189Y-16035D01*
X86256Y-15104D01*
X89083Y-13593D01*
X91560Y-11560D01*
X93593Y-9083D01*
X95104Y-6256D01*
X96034Y-3189D01*
X96348Y0D01*
X96034Y3189D01*
X95104Y6256D01*
X93593Y9083D01*
X91560Y11560D01*
X89083Y13593D01*
X86256Y15104D01*
X83189Y16035D01*
X80000Y16349D01*
D02*
G37*
G36*
X-80000D02*
X-83190Y16035D01*
X-86257Y15104D01*
X-89083Y13593D01*
X-91561Y11560D01*
X-93594Y9083D01*
X-95105Y6256D01*
X-96035Y3189D01*
X-96349Y0D01*
X-96035Y-3189D01*
X-95105Y-6256D01*
X-93594Y-9083D01*
X-91561Y-11560D01*
X-89083Y-13593D01*
X-86257Y-15104D01*
X-83190Y-16035D01*
X-80000Y-16349D01*
X-76811Y-16035D01*
X-73744Y-15104D01*
X-70918Y-13593D01*
X-68440Y-11560D01*
X-66407Y-9083D01*
X-64896Y-6256D01*
X-63966Y-3189D01*
X-63652Y0D01*
X-63966Y3189D01*
X-64896Y6256D01*
X-66407Y9083D01*
X-68440Y11560D01*
X-70918Y13593D01*
X-73744Y15104D01*
X-76811Y16035D01*
X-80000Y16349D01*
D02*
G37*
G36*
X284040Y-16270D02*
X269270D01*
Y-24040D01*
X284040D01*
Y-16270D01*
D02*
G37*
G36*
X418730Y-1270D02*
X392474D01*
X392715Y-4322D01*
X393727Y-8537D01*
X395386Y-12542D01*
X397650Y-16238D01*
X400466Y-19534D01*
X403762Y-22349D01*
X407458Y-24614D01*
X411463Y-26273D01*
X415678Y-27285D01*
X418730Y-27525D01*
Y-1270D01*
D02*
G37*
G36*
X-169230Y-21049D02*
Y-28730D01*
X-161549D01*
X-161693Y-27640D01*
X-162604Y-25441D01*
X-164053Y-23553D01*
X-165941Y-22104D01*
X-168140Y-21193D01*
X-169230Y-21049D01*
D02*
G37*
G36*
X-171770Y-21049D02*
X-172860Y-21193D01*
X-175059Y-22104D01*
X-176947Y-23553D01*
X-178396Y-25441D01*
X-179307Y-27640D01*
X-179451Y-28730D01*
X-171770D01*
Y-21049D01*
D02*
G37*
G36*
Y-31270D02*
X-179451D01*
X-179307Y-32360D01*
X-178396Y-34559D01*
X-176947Y-36447D01*
X-175059Y-37896D01*
X-172860Y-38807D01*
X-171770Y-38951D01*
Y-31270D01*
D02*
G37*
G36*
X-161549D02*
X-169230D01*
Y-38951D01*
X-168140Y-38807D01*
X-165941Y-37896D01*
X-164053Y-36447D01*
X-162604Y-34559D01*
X-161693Y-32360D01*
X-161549Y-31270D01*
D02*
G37*
G36*
X0Y41358D02*
X-5398Y41005D01*
X-10704Y39949D01*
X-15827Y38210D01*
X-20679Y35818D01*
X-25178Y32812D01*
X-29245Y29245D01*
X-32812Y25178D01*
X-35818Y20679D01*
X-38210Y15827D01*
X-39949Y10704D01*
X-41005Y5398D01*
X-41358Y0D01*
X-41005Y-5398D01*
X-39949Y-10704D01*
X-38210Y-15827D01*
X-35818Y-20679D01*
X-32812Y-25178D01*
X-29245Y-29245D01*
X-25178Y-32812D01*
X-20679Y-35818D01*
X-15827Y-38210D01*
X-10704Y-39949D01*
X-5398Y-41005D01*
X0Y-41358D01*
X5398Y-41005D01*
X10704Y-39949D01*
X15827Y-38210D01*
X20679Y-35818D01*
X25178Y-32812D01*
X29245Y-29245D01*
X32812Y-25178D01*
X35818Y-20679D01*
X38210Y-15827D01*
X39949Y-10704D01*
X41005Y-5398D01*
X41358Y0D01*
X41005Y5398D01*
X39949Y10704D01*
X38210Y15827D01*
X35818Y20679D01*
X32812Y25178D01*
X29245Y29245D01*
X25178Y32812D01*
X20679Y35818D01*
X15827Y38210D01*
X10704Y39949D01*
X5398Y41005D01*
X0Y41358D01*
D02*
G37*
G36*
X-169230Y-41049D02*
Y-48730D01*
X-161549D01*
X-161693Y-47640D01*
X-162604Y-45441D01*
X-164053Y-43553D01*
X-165941Y-42104D01*
X-168140Y-41193D01*
X-169230Y-41049D01*
D02*
G37*
G36*
X-171770D02*
X-172860Y-41193D01*
X-175059Y-42104D01*
X-176947Y-43553D01*
X-178396Y-45441D01*
X-179307Y-47640D01*
X-179451Y-48730D01*
X-171770D01*
Y-41049D01*
D02*
G37*
G36*
X200120Y-56130D02*
X173880D01*
Y-57366D01*
X170281D01*
X169000Y-57111D01*
X167627Y-57384D01*
X166462Y-58162D01*
X165684Y-59327D01*
X165411Y-60700D01*
X165684Y-62073D01*
X166462Y-63238D01*
X167627Y-64016D01*
X169000Y-64289D01*
X170282Y-64034D01*
X173880D01*
Y-65270D01*
X200120D01*
Y-63290D01*
X201540D01*
X202627Y-64016D01*
X204000Y-64289D01*
X205373Y-64016D01*
X206538Y-63238D01*
X207316Y-62073D01*
X207589Y-60700D01*
X207316Y-59327D01*
X206538Y-58162D01*
X205373Y-57384D01*
X204000Y-57111D01*
X202627Y-57384D01*
X201540Y-58110D01*
X200120D01*
Y-56130D01*
D02*
G37*
G36*
X-161549Y-51270D02*
X-169230D01*
Y-58951D01*
X-168140Y-58807D01*
X-165941Y-57896D01*
X-164053Y-56447D01*
X-162604Y-54559D01*
X-161693Y-52360D01*
X-161549Y-51270D01*
D02*
G37*
G36*
X-171770D02*
X-179451D01*
X-179307Y-52360D01*
X-178396Y-54559D01*
X-176947Y-56447D01*
X-175059Y-57896D01*
X-172860Y-58807D01*
X-171770Y-58951D01*
Y-51270D01*
D02*
G37*
G36*
X125999Y-53522D02*
X123864Y-57220D01*
X127735Y-59455D01*
X129870Y-55757D01*
X125999Y-53522D01*
D02*
G37*
G36*
X-126464Y-56257D02*
X-134206Y-60726D01*
Y-60726D01*
X-134347Y-61104D01*
X-134975Y-61364D01*
X-135701Y-61496D01*
X-136942Y-60544D01*
X-138553Y-59877D01*
X-140281Y-59649D01*
X-142009Y-59877D01*
X-143619Y-60544D01*
X-152886Y-65894D01*
X-154269Y-66955D01*
X-155330Y-68338D01*
X-155997Y-69948D01*
X-156224Y-71677D01*
X-155997Y-73405D01*
X-155330Y-75015D01*
X-155187Y-75202D01*
X-157081Y-77097D01*
X-157643Y-77937D01*
X-157840Y-78928D01*
Y-85935D01*
X-161083Y-87808D01*
X-156063Y-96503D01*
X-148667Y-92233D01*
X-152660Y-85316D01*
Y-80001D01*
X-151540Y-78881D01*
X-150464Y-79600D01*
X-150884Y-80615D01*
X-151155Y-82675D01*
X-150884Y-84735D01*
X-150579Y-85471D01*
X-139199Y-78900D01*
X-137929Y-81100D01*
X-149309Y-87670D01*
X-148825Y-88302D01*
X-147176Y-89567D01*
X-145257Y-90362D01*
X-144080Y-90517D01*
X-143264Y-91866D01*
X-143297Y-91945D01*
X-143525Y-93673D01*
X-143419Y-94477D01*
X-146383Y-96189D01*
X-147937Y-93497D01*
X-155333Y-97767D01*
X-150313Y-106462D01*
X-142917Y-102192D01*
X-143793Y-100674D01*
X-140829Y-98963D01*
X-140186Y-99456D01*
X-138575Y-100123D01*
X-136847Y-100351D01*
X-135119Y-100123D01*
X-133509Y-99456D01*
X-124242Y-94106D01*
X-122859Y-93045D01*
X-121798Y-91662D01*
X-121131Y-90052D01*
X-120904Y-88323D01*
X-121131Y-86595D01*
X-121798Y-84985D01*
X-122859Y-83602D01*
X-124242Y-82541D01*
X-125853Y-81874D01*
X-125938Y-81863D01*
X-126698Y-80482D01*
X-126244Y-79385D01*
X-125992Y-77473D01*
X-122130Y-75243D01*
X-124900Y-70445D01*
X-123800Y-69811D01*
X-124435Y-68711D01*
X-119464Y-65841D01*
X-121599Y-62143D01*
X-122699Y-62778D01*
X-126464Y-56257D01*
D02*
G37*
G36*
X132070Y-57027D02*
X129300Y-61824D01*
X128200Y-61189D01*
X127565Y-62289D01*
X122594Y-59419D01*
X120459Y-63117D01*
X121559Y-63752D01*
X117794Y-70273D01*
X121210Y-72246D01*
Y-75179D01*
X120055Y-75707D01*
X101960Y-60048D01*
X101675Y-59886D01*
X101444Y-59655D01*
X100798Y-59387D01*
X100189Y-59041D01*
X99865Y-59000D01*
X99562Y-58875D01*
X98862D01*
X98168Y-58788D01*
X97853Y-58875D01*
X97525D01*
X96879Y-59143D01*
X96204Y-59328D01*
X95946Y-59529D01*
X95644Y-59655D01*
X95149Y-60149D01*
X94596Y-60579D01*
X94435Y-60863D01*
X94203Y-61095D01*
X92551Y-63567D01*
X89076Y-68350D01*
X85377Y-72919D01*
X81444Y-77287D01*
X77287Y-81443D01*
X72919Y-85377D01*
X68351Y-89076D01*
X63567Y-92551D01*
X61095Y-94203D01*
X60863Y-94435D01*
X60579Y-94596D01*
X60149Y-95149D01*
X59654Y-95644D01*
X59529Y-95946D01*
X59328Y-96204D01*
X59143Y-96879D01*
X58875Y-97525D01*
Y-97853D01*
X58788Y-98168D01*
X58875Y-98862D01*
Y-99562D01*
X59000Y-99865D01*
X59041Y-100189D01*
X59387Y-100798D01*
X59654Y-101444D01*
X59886Y-101675D01*
X60048Y-101960D01*
X78182Y-122914D01*
X78760Y-123365D01*
X79286Y-123876D01*
X79558Y-123985D01*
X79789Y-124165D01*
X80496Y-124359D01*
X81178Y-124631D01*
X81471Y-124627D01*
X81753Y-124705D01*
X82481Y-124614D01*
X83214Y-124605D01*
X83483Y-124489D01*
X83774Y-124452D01*
X84412Y-124090D01*
X85086Y-123800D01*
X87824Y-121919D01*
X87908Y-121832D01*
X88018Y-121779D01*
X93315Y-117769D01*
X93396Y-117678D01*
X93503Y-117620D01*
X98611Y-113371D01*
X98687Y-113277D01*
X98791Y-113214D01*
X103700Y-108736D01*
X103772Y-108638D01*
X103873Y-108571D01*
X108571Y-103873D01*
X108638Y-103772D01*
X108736Y-103700D01*
X113214Y-98791D01*
X113277Y-98687D01*
X113371Y-98611D01*
X117620Y-93503D01*
X117678Y-93396D01*
X117769Y-93315D01*
X119958Y-90423D01*
X121379Y-90650D01*
X121798Y-91662D01*
X122859Y-93045D01*
X124242Y-94106D01*
X133509Y-99456D01*
X135119Y-100123D01*
X136847Y-100351D01*
X138575Y-100123D01*
X140186Y-99456D01*
X141569Y-98395D01*
X142630Y-97012D01*
X142799Y-96604D01*
X145630D01*
X152313Y-100462D01*
X157333Y-91767D01*
X151803Y-88574D01*
X151354Y-86848D01*
X151394Y-86781D01*
X151535Y-86734D01*
X158063Y-90503D01*
X163083Y-81808D01*
X158469Y-79144D01*
X154900Y-75575D01*
X155330Y-75015D01*
X155997Y-73405D01*
X156224Y-71677D01*
X155997Y-69948D01*
X155330Y-68338D01*
X154269Y-66955D01*
X152886Y-65894D01*
X143619Y-60544D01*
X142009Y-59877D01*
X140281Y-59649D01*
X138553Y-59877D01*
X136942Y-60544D01*
X136448Y-60923D01*
X135475Y-60069D01*
X135941Y-59262D01*
X132070Y-57027D01*
D02*
G37*
G36*
X-161460Y-60960D02*
X-169230D01*
Y-68730D01*
X-161460D01*
Y-60960D01*
D02*
G37*
G36*
X-171770D02*
X-179540D01*
Y-68730D01*
X-171770D01*
Y-60960D01*
D02*
G37*
G36*
X-118194Y-68040D02*
X-122065Y-70275D01*
X-119930Y-73973D01*
X-116059Y-71738D01*
X-118194Y-68040D01*
D02*
G37*
G36*
X-161460Y-71270D02*
X-169230D01*
Y-79040D01*
X-161460D01*
Y-71270D01*
D02*
G37*
G36*
X-171770D02*
X-179540D01*
Y-79040D01*
X-171770D01*
Y-71270D01*
D02*
G37*
G36*
X69000Y-57128D02*
X65927Y-57533D01*
X63064Y-58719D01*
X60606Y-60606D01*
X58719Y-63064D01*
X57533Y-65927D01*
X57128Y-69000D01*
X57533Y-72073D01*
X58719Y-74936D01*
X60606Y-77394D01*
X63064Y-79281D01*
X65927Y-80467D01*
X69000Y-80872D01*
X72073Y-80467D01*
X74936Y-79281D01*
X77394Y-77394D01*
X79281Y-74936D01*
X80467Y-72073D01*
X80872Y-69000D01*
X80467Y-65927D01*
X79281Y-63064D01*
X77394Y-60606D01*
X74936Y-58719D01*
X72073Y-57533D01*
X69000Y-57128D01*
D02*
G37*
G36*
X-69000D02*
X-72073Y-57533D01*
X-74936Y-58719D01*
X-77394Y-60606D01*
X-79281Y-63064D01*
X-80467Y-65927D01*
X-80872Y-69000D01*
X-80467Y-72073D01*
X-79281Y-74936D01*
X-77394Y-77394D01*
X-74936Y-79281D01*
X-72073Y-80467D01*
X-69000Y-80872D01*
X-65927Y-80467D01*
X-63064Y-79281D01*
X-60606Y-77394D01*
X-58719Y-74936D01*
X-57533Y-72073D01*
X-57128Y-69000D01*
X-57533Y-65927D01*
X-58719Y-63064D01*
X-60606Y-60606D01*
X-63064Y-58719D01*
X-65927Y-57533D01*
X-69000Y-57128D01*
D02*
G37*
G36*
X0Y-78651D02*
X-3189Y-78966D01*
X-6256Y-79896D01*
X-9083Y-81407D01*
X-11560Y-83440D01*
X-13593Y-85917D01*
X-15104Y-88744D01*
X-16035Y-91811D01*
X-16349Y-95000D01*
X-16035Y-98189D01*
X-15104Y-101256D01*
X-13593Y-104083D01*
X-11560Y-106560D01*
X-9083Y-108594D01*
X-6256Y-110104D01*
X-3189Y-111035D01*
X0Y-111349D01*
X3189Y-111035D01*
X6256Y-110104D01*
X9083Y-108594D01*
X11560Y-106560D01*
X13593Y-104083D01*
X15104Y-101256D01*
X16035Y-98189D01*
X16349Y-95000D01*
X16035Y-91811D01*
X15104Y-88744D01*
X13593Y-85917D01*
X11560Y-83440D01*
X9083Y-81407D01*
X6256Y-79896D01*
X3189Y-78966D01*
X0Y-78651D01*
D02*
G37*
G36*
X271270Y-117349D02*
Y-125030D01*
X278951D01*
X278807Y-123940D01*
X277896Y-121741D01*
X276447Y-119853D01*
X274559Y-118404D01*
X272360Y-117493D01*
X271270Y-117349D01*
D02*
G37*
G36*
X268730D02*
X267640Y-117493D01*
X265441Y-118404D01*
X263553Y-119853D01*
X262104Y-121741D01*
X261193Y-123940D01*
X261049Y-125030D01*
X268730D01*
Y-117349D01*
D02*
G37*
G36*
X251270D02*
Y-125030D01*
X258951D01*
X258807Y-123940D01*
X257896Y-121741D01*
X256447Y-119853D01*
X254559Y-118404D01*
X252360Y-117493D01*
X251270Y-117349D01*
D02*
G37*
G36*
X248730D02*
X247640Y-117493D01*
X245441Y-118404D01*
X243553Y-119853D01*
X242104Y-121741D01*
X241193Y-123940D01*
X241049Y-125030D01*
X248730D01*
Y-117349D01*
D02*
G37*
G36*
X231270D02*
Y-125030D01*
X238951D01*
X238807Y-123940D01*
X237896Y-121741D01*
X236447Y-119853D01*
X234559Y-118404D01*
X232360Y-117493D01*
X231270Y-117349D01*
D02*
G37*
G36*
X228730D02*
X227640Y-117493D01*
X225441Y-118404D01*
X223553Y-119853D01*
X222104Y-121741D01*
X221193Y-123940D01*
X221049Y-125030D01*
X228730D01*
Y-117349D01*
D02*
G37*
G36*
X-28730D02*
Y-125030D01*
X-21049D01*
X-21193Y-123940D01*
X-22104Y-121741D01*
X-23553Y-119853D01*
X-25441Y-118404D01*
X-27640Y-117493D01*
X-28730Y-117349D01*
D02*
G37*
G36*
X-31270D02*
X-32360Y-117493D01*
X-34559Y-118404D01*
X-36447Y-119853D01*
X-37896Y-121741D01*
X-38807Y-123940D01*
X-38951Y-125030D01*
X-31270D01*
Y-117349D01*
D02*
G37*
G36*
X-48730D02*
Y-125030D01*
X-41049D01*
X-41193Y-123940D01*
X-42104Y-121741D01*
X-43553Y-119853D01*
X-45441Y-118404D01*
X-47640Y-117493D01*
X-48730Y-117349D01*
D02*
G37*
G36*
X-51270D02*
X-52360Y-117493D01*
X-54559Y-118404D01*
X-56447Y-119853D01*
X-57896Y-121741D01*
X-58807Y-123940D01*
X-58951Y-125030D01*
X-51270D01*
Y-117349D01*
D02*
G37*
G36*
X-68730D02*
Y-125030D01*
X-61049D01*
X-61193Y-123940D01*
X-62104Y-121741D01*
X-63553Y-119853D01*
X-65441Y-118404D01*
X-67640Y-117493D01*
X-68730Y-117349D01*
D02*
G37*
G36*
X-71270D02*
X-72360Y-117493D01*
X-74559Y-118404D01*
X-76447Y-119853D01*
X-77896Y-121741D01*
X-78807Y-123940D01*
X-78951Y-125030D01*
X-71270D01*
Y-117349D01*
D02*
G37*
G36*
X278951Y-127570D02*
X271270D01*
Y-135251D01*
X272360Y-135107D01*
X274559Y-134196D01*
X276447Y-132747D01*
X277896Y-130859D01*
X278807Y-128660D01*
X278951Y-127570D01*
D02*
G37*
G36*
X268730D02*
X261049D01*
X261193Y-128660D01*
X262104Y-130859D01*
X263553Y-132747D01*
X265441Y-134196D01*
X267640Y-135107D01*
X268730Y-135251D01*
Y-127570D01*
D02*
G37*
G36*
X258951D02*
X251270D01*
Y-135251D01*
X252360Y-135107D01*
X254559Y-134196D01*
X256447Y-132747D01*
X257896Y-130859D01*
X258807Y-128660D01*
X258951Y-127570D01*
D02*
G37*
G36*
X248730D02*
X241049D01*
X241193Y-128660D01*
X242104Y-130859D01*
X243553Y-132747D01*
X245441Y-134196D01*
X247640Y-135107D01*
X248730Y-135251D01*
Y-127570D01*
D02*
G37*
G36*
X238951D02*
X231270D01*
Y-135251D01*
X232360Y-135107D01*
X234559Y-134196D01*
X236447Y-132747D01*
X237896Y-130859D01*
X238807Y-128660D01*
X238951Y-127570D01*
D02*
G37*
G36*
X228730D02*
X221049D01*
X221193Y-128660D01*
X222104Y-130859D01*
X223553Y-132747D01*
X225441Y-134196D01*
X227640Y-135107D01*
X228730Y-135251D01*
Y-127570D01*
D02*
G37*
G36*
X-21049D02*
X-28730D01*
Y-135251D01*
X-27640Y-135107D01*
X-25441Y-134196D01*
X-23553Y-132747D01*
X-22104Y-130859D01*
X-21193Y-128660D01*
X-21049Y-127570D01*
D02*
G37*
G36*
X-31270D02*
X-38951D01*
X-38807Y-128660D01*
X-37896Y-130859D01*
X-36447Y-132747D01*
X-34559Y-134196D01*
X-32360Y-135107D01*
X-31270Y-135251D01*
Y-127570D01*
D02*
G37*
G36*
X-41049D02*
X-48730D01*
Y-135251D01*
X-47640Y-135107D01*
X-45441Y-134196D01*
X-43553Y-132747D01*
X-42104Y-130859D01*
X-41193Y-128660D01*
X-41049Y-127570D01*
D02*
G37*
G36*
X-51270D02*
X-58951D01*
X-58807Y-128660D01*
X-57896Y-130859D01*
X-56447Y-132747D01*
X-54559Y-134196D01*
X-52360Y-135107D01*
X-51270Y-135251D01*
Y-127570D01*
D02*
G37*
G36*
X-61049D02*
X-68730D01*
Y-135251D01*
X-67640Y-135107D01*
X-65441Y-134196D01*
X-63553Y-132747D01*
X-62104Y-130859D01*
X-61193Y-128660D01*
X-61049Y-127570D01*
D02*
G37*
G36*
X-71270D02*
X-78951D01*
X-78807Y-128660D01*
X-77896Y-130859D01*
X-76447Y-132747D01*
X-74559Y-134196D01*
X-72360Y-135107D01*
X-71270Y-135251D01*
Y-127570D01*
D02*
G37*
G36*
X237770Y-138530D02*
X222230D01*
Y-154070D01*
X237770D01*
Y-138530D01*
D02*
G37*
G36*
X-62230D02*
X-77770D01*
Y-154070D01*
X-62230D01*
Y-138530D01*
D02*
G37*
G36*
X270000Y-138463D02*
X267972Y-138730D01*
X266082Y-139513D01*
X264458Y-140758D01*
X263213Y-142381D01*
X262430Y-144272D01*
X262163Y-146300D01*
X262430Y-148328D01*
X263213Y-150218D01*
X264458Y-151842D01*
X266082Y-153087D01*
X267972Y-153870D01*
X270000Y-154137D01*
X272028Y-153870D01*
X273919Y-153087D01*
X275542Y-151842D01*
X276787Y-150218D01*
X277570Y-148328D01*
X277837Y-146300D01*
X277570Y-144272D01*
X276787Y-142381D01*
X275542Y-140758D01*
X273919Y-139513D01*
X272028Y-138730D01*
X270000Y-138463D01*
D02*
G37*
G36*
X250000D02*
X247972Y-138730D01*
X246082Y-139513D01*
X244458Y-140758D01*
X243213Y-142381D01*
X242430Y-144272D01*
X242163Y-146300D01*
X242430Y-148328D01*
X243213Y-150218D01*
X244458Y-151842D01*
X246082Y-153087D01*
X247972Y-153870D01*
X250000Y-154137D01*
X252028Y-153870D01*
X253918Y-153087D01*
X255542Y-151842D01*
X256787Y-150218D01*
X257570Y-148328D01*
X257837Y-146300D01*
X257570Y-144272D01*
X256787Y-142381D01*
X255542Y-140758D01*
X253918Y-139513D01*
X252028Y-138730D01*
X250000Y-138463D01*
D02*
G37*
G36*
X-30000D02*
X-32028Y-138730D01*
X-33918Y-139513D01*
X-35542Y-140758D01*
X-36787Y-142381D01*
X-37570Y-144272D01*
X-37837Y-146300D01*
X-37570Y-148328D01*
X-36787Y-150218D01*
X-35542Y-151842D01*
X-33918Y-153087D01*
X-32028Y-153870D01*
X-30000Y-154137D01*
X-27972Y-153870D01*
X-26082Y-153087D01*
X-24458Y-151842D01*
X-23213Y-150218D01*
X-22430Y-148328D01*
X-22163Y-146300D01*
X-22430Y-144272D01*
X-23213Y-142381D01*
X-24458Y-140758D01*
X-26082Y-139513D01*
X-27972Y-138730D01*
X-30000Y-138463D01*
D02*
G37*
G36*
X-50000D02*
X-52028Y-138730D01*
X-53918Y-139513D01*
X-55542Y-140758D01*
X-56787Y-142381D01*
X-57570Y-144272D01*
X-57837Y-146300D01*
X-57570Y-148328D01*
X-56787Y-150218D01*
X-55542Y-151842D01*
X-53918Y-153087D01*
X-52028Y-153870D01*
X-50000Y-154137D01*
X-47972Y-153870D01*
X-46082Y-153087D01*
X-44458Y-151842D01*
X-43213Y-150218D01*
X-42430Y-148328D01*
X-42163Y-146300D01*
X-42430Y-144272D01*
X-43213Y-142381D01*
X-44458Y-140758D01*
X-46082Y-139513D01*
X-47972Y-138730D01*
X-50000Y-138463D01*
D02*
G37*
%LPD*%
G36*
X156270Y237160D02*
X158840D01*
Y238430D01*
X176160D01*
Y237160D01*
X178730D01*
Y244000D01*
X181270D01*
Y237160D01*
X183840D01*
Y238430D01*
X196280D01*
Y234580D01*
Y229580D01*
Y224580D01*
Y219580D01*
Y214580D01*
Y209580D01*
Y205990D01*
X195010D01*
Y203420D01*
X201850D01*
Y200880D01*
X195010D01*
Y198310D01*
X196280D01*
Y194580D01*
Y189580D01*
Y184580D01*
Y179580D01*
Y174580D01*
Y169580D01*
Y164580D01*
Y160870D01*
X158840D01*
Y162140D01*
X156270D01*
Y155300D01*
X153730D01*
Y162140D01*
X151160D01*
Y160870D01*
X118720D01*
Y164580D01*
Y169580D01*
Y174580D01*
Y179580D01*
Y184580D01*
Y189580D01*
Y193310D01*
X119990D01*
Y195880D01*
X113150D01*
Y198420D01*
X119990D01*
Y200990D01*
X118720D01*
Y204580D01*
Y209580D01*
Y214580D01*
Y219580D01*
Y224580D01*
Y229580D01*
Y234580D01*
Y238430D01*
X151160D01*
Y237160D01*
X153730D01*
Y244000D01*
X156270D01*
Y237160D01*
D02*
G37*
G36*
X233869Y235384D02*
X233567Y234021D01*
X233493Y233965D01*
X232850Y234092D01*
X207420D01*
Y237627D01*
X207421Y237632D01*
X207684Y237684D01*
X208848Y238462D01*
X209626Y239627D01*
X209899Y241000D01*
X209626Y242373D01*
X209349Y242788D01*
X210028Y244058D01*
X225196D01*
X233869Y235384D01*
D02*
G37*
G36*
X241232Y217021D02*
X240746Y215847D01*
X220023D01*
X217347Y218523D01*
X216717Y218944D01*
X215974Y219092D01*
X212818D01*
X212139Y220362D01*
X212316Y220627D01*
X212589Y222000D01*
X212316Y223373D01*
X211939Y223938D01*
X212618Y225208D01*
X233046D01*
X241232Y217021D01*
D02*
G37*
G36*
X291558Y162511D02*
Y110745D01*
X290288Y110000D01*
X289770Y110103D01*
Y103850D01*
X287230D01*
Y110893D01*
X287089Y111000D01*
X286816Y112373D01*
X286038Y113538D01*
X284873Y114316D01*
X283500Y114589D01*
X282127Y114316D01*
X280962Y113538D01*
X280184Y112373D01*
X279911Y111000D01*
X279770Y110893D01*
Y103850D01*
X278500D01*
Y102580D01*
X274503D01*
Y100500D01*
X274728Y99372D01*
X275366Y98416D01*
X275460Y98354D01*
Y95270D01*
X286000D01*
Y92730D01*
X275460D01*
Y87205D01*
X274462Y86538D01*
X273684Y85373D01*
X273411Y84000D01*
X273684Y82627D01*
X274462Y81462D01*
X275627Y80684D01*
X275829Y80644D01*
X275924Y80168D01*
X276282Y79632D01*
X276818Y79274D01*
X277450Y79148D01*
X279550D01*
X280016Y79241D01*
X280366Y78717D01*
X280530Y77892D01*
X280184Y77373D01*
X279911Y76000D01*
X279770Y75893D01*
Y68850D01*
X278500D01*
Y67580D01*
X274503D01*
Y65500D01*
X274728Y64372D01*
X275366Y63416D01*
X275460Y63354D01*
Y60270D01*
X286000D01*
Y57730D01*
X275460D01*
Y54646D01*
X275366Y54584D01*
X274728Y53628D01*
X274503Y52500D01*
Y50420D01*
X278500D01*
Y47880D01*
X274503D01*
Y45800D01*
X274534Y45645D01*
X273515Y44375D01*
X252375D01*
Y56000D01*
X251972Y56972D01*
X251000Y57375D01*
X242334Y57375D01*
Y75119D01*
X247445Y80230D01*
X253270D01*
Y82494D01*
X254657D01*
X255933Y82748D01*
X257014Y83471D01*
X259357Y85814D01*
X260080Y86896D01*
X260334Y88172D01*
Y107000D01*
Y125000D01*
X260080Y126276D01*
X259357Y127358D01*
X254357Y132358D01*
X253276Y133080D01*
X252000Y133334D01*
X249770D01*
Y135270D01*
X233360D01*
Y143422D01*
X233163Y144413D01*
X232601Y145253D01*
X225395Y152460D01*
X225920Y153730D01*
X229270D01*
Y162270D01*
X219230D01*
X219230Y153730D01*
X218018Y153590D01*
X213088D01*
X212895Y153552D01*
X212873Y153561D01*
X211918Y154652D01*
X211942Y154775D01*
Y165000D01*
X211942Y165000D01*
X211794Y165743D01*
X211373Y166373D01*
X211373Y166374D01*
X209223Y168523D01*
X209421Y169919D01*
X209579Y170133D01*
X213014D01*
X213462Y169462D01*
X214627Y168684D01*
X216000Y168411D01*
X217373Y168684D01*
X218538Y169462D01*
X219316Y170627D01*
X219589Y172000D01*
X219316Y173373D01*
X218538Y174538D01*
X217373Y175316D01*
X216000Y175589D01*
X214627Y175316D01*
X213462Y174538D01*
X213114Y174017D01*
X207420D01*
Y179580D01*
Y190208D01*
X211241D01*
X211411Y190000D01*
X211684Y188627D01*
X212462Y187462D01*
X213627Y186684D01*
X215000Y186411D01*
X216373Y186684D01*
X217538Y187462D01*
X218260Y188543D01*
X218353Y188556D01*
X219530Y187822D01*
Y185330D01*
X228470D01*
Y187658D01*
X228600D01*
X229343Y187806D01*
X229973Y188227D01*
X237123Y195376D01*
X237123Y195377D01*
X237544Y196007D01*
X237692Y196750D01*
Y204730D01*
X240770D01*
Y211963D01*
X242106D01*
X291558Y162511D01*
D02*
G37*
G36*
X307058Y151195D02*
Y103940D01*
X304270D01*
Y98400D01*
X301730D01*
Y103940D01*
X297260D01*
X296202Y104451D01*
Y107200D01*
X296076Y107832D01*
X295718Y108368D01*
X295442Y108552D01*
Y161152D01*
X296616Y161637D01*
X307058Y151195D01*
D02*
G37*
G36*
X232530Y85330D02*
X241319D01*
X242110Y84325D01*
X236642Y78857D01*
X235920Y77776D01*
X235666Y76500D01*
Y57375D01*
X220000Y57375D01*
X219436Y57141D01*
X218656Y57952D01*
X218643Y57958D01*
X218637Y57972D01*
X218163Y58168D01*
X217693Y58374D01*
X217679Y58369D01*
X217665Y58375D01*
X204568Y58375D01*
X203540Y58960D01*
Y59039D01*
X203730Y60230D01*
X204810Y60230D01*
X212270D01*
Y70270D01*
X205157Y70270D01*
X204634Y71146D01*
X205030Y71730D01*
X212270D01*
Y76586D01*
X213540Y77265D01*
X213730Y77138D01*
Y71730D01*
X220970D01*
X221366Y71146D01*
X220843Y70270D01*
X213730D01*
Y60230D01*
X222270Y60230D01*
X222460Y59039D01*
Y58960D01*
X226730D01*
Y65250D01*
X228000D01*
Y66520D01*
X233540D01*
Y71540D01*
X233461D01*
X232270Y71730D01*
X232270Y72810D01*
Y81770D01*
X223730D01*
Y79340D01*
X222270D01*
Y81770D01*
X217393D01*
X215034Y84129D01*
X215560Y85399D01*
X216012D01*
X216640Y85523D01*
X217171Y85879D01*
X217527Y86410D01*
X218540D01*
X219627Y85684D01*
X221000Y85411D01*
X222373Y85684D01*
X223538Y86462D01*
X223703Y86710D01*
X232530D01*
Y85330D01*
D02*
G37*
G36*
X217665Y57000D02*
X218625Y56000D01*
Y30000D01*
X139000Y30000D01*
X136000Y33000D01*
X136000Y52944D01*
X140056Y57000D01*
X217665Y57000D01*
D02*
G37*
G36*
X218625Y16000D02*
Y-11000D01*
X139000Y-11000D01*
X136000Y-8000D01*
Y11944D01*
X140056Y16000D01*
X218625Y16000D01*
D02*
G37*
G36*
X213154Y-25000D02*
X213627Y-25316D01*
X215000Y-25589D01*
X216373Y-25316D01*
X216846Y-25000D01*
X218625D01*
Y-52000D01*
X139000Y-52000D01*
X136000Y-49000D01*
X136000Y-29056D01*
X140056Y-25000D01*
X213154Y-25000D01*
D02*
G37*
G36*
X251000Y56000D02*
Y43000D01*
X281000D01*
X284000Y40000D01*
Y26000D01*
X281000Y23000D01*
X251000D01*
X251000Y-33000D01*
X281000D01*
X284000Y-36000D01*
Y-50000D01*
X281000Y-53000D01*
X251000D01*
Y-65500D01*
X220000Y-65500D01*
Y56000D01*
X251000Y56000D01*
D02*
G37*
%LPC*%
G36*
X190040Y232190D02*
X158770D01*
Y200920D01*
X190040D01*
Y232190D01*
D02*
G37*
G36*
X156230D02*
X124960D01*
Y200920D01*
X156230D01*
Y232190D01*
D02*
G37*
G36*
X190040Y198380D02*
X158770D01*
Y167110D01*
X190040D01*
Y198380D01*
D02*
G37*
G36*
X156230D02*
X124960D01*
Y167110D01*
X156230D01*
Y198380D01*
D02*
G37*
G36*
X254770Y163270D02*
X244230D01*
Y159942D01*
X240770D01*
Y162270D01*
X230730D01*
Y153730D01*
X240770D01*
Y156058D01*
X244230D01*
Y152730D01*
X254770D01*
Y163270D01*
D02*
G37*
G36*
X271040Y164540D02*
X265770D01*
Y159270D01*
X271040D01*
Y164540D01*
D02*
G37*
G36*
X263230D02*
X257960D01*
Y159270D01*
X263230D01*
Y164540D01*
D02*
G37*
G36*
X271040Y156730D02*
X265770D01*
Y151460D01*
X271040D01*
Y156730D01*
D02*
G37*
G36*
X263230D02*
X257960D01*
Y151460D01*
X263230D01*
Y156730D01*
D02*
G37*
G36*
X277230Y110103D02*
X276322Y109922D01*
X275366Y109284D01*
X274728Y108328D01*
X274503Y107200D01*
Y105120D01*
X277230D01*
Y110103D01*
D02*
G37*
G36*
Y75103D02*
X276322Y74922D01*
X275366Y74284D01*
X274728Y73328D01*
X274503Y72200D01*
Y70120D01*
X277230D01*
Y75103D01*
D02*
G37*
G36*
X248000Y68839D02*
X246627Y68566D01*
X245462Y67788D01*
X244684Y66623D01*
X244411Y65250D01*
X244684Y63877D01*
X245462Y62712D01*
X246627Y61934D01*
X248000Y61661D01*
X249373Y61934D01*
X250538Y62712D01*
X251316Y63877D01*
X251589Y65250D01*
X251316Y66623D01*
X250538Y67788D01*
X249373Y68566D01*
X248000Y68839D01*
D02*
G37*
G36*
X258000D02*
X256627Y68566D01*
X255462Y67788D01*
X254684Y66623D01*
X254411Y65250D01*
X254684Y63877D01*
X255462Y62712D01*
X256627Y61934D01*
X257301Y61800D01*
X257440Y61772D01*
Y60478D01*
X257301Y60450D01*
X256627Y60316D01*
X255462Y59538D01*
X254684Y58373D01*
X254411Y57000D01*
X254684Y55627D01*
X255462Y54462D01*
X256627Y53684D01*
X258000Y53411D01*
X259373Y53684D01*
X260538Y54462D01*
X261316Y55627D01*
X261589Y57000D01*
X261316Y58373D01*
X260538Y59538D01*
X259373Y60316D01*
X258699Y60450D01*
X258560Y60478D01*
Y61772D01*
X258699Y61800D01*
X259373Y61934D01*
X260538Y62712D01*
X261316Y63877D01*
X261589Y65250D01*
X261316Y66623D01*
X260538Y67788D01*
X259373Y68566D01*
X258000Y68839D01*
D02*
G37*
G36*
X233540Y63980D02*
X229270D01*
Y58960D01*
X233540D01*
Y63980D01*
D02*
G37*
%LPD*%
G36*
X-118000Y179000D02*
X-153102Y179000D01*
X-154000Y179898D01*
Y196000D01*
X-118000Y196000D01*
Y179000D01*
D02*
G37*
G36*
X-60500Y214500D02*
X-56000Y210000D01*
X-56000Y161000D01*
X-58130Y158870D01*
X-65470D01*
Y158870D01*
X-66530D01*
Y158870D01*
X-74230D01*
X-75500Y160128D01*
Y172530D01*
X-74130D01*
Y181470D01*
X-74456D01*
X-74480Y182730D01*
X-74480D01*
Y191270D01*
X-75500D01*
Y191500D01*
X-79500Y195500D01*
Y214500D01*
X-60500Y214500D01*
D02*
G37*
G36*
X405000Y82000D02*
X382000Y59000D01*
Y44000D01*
X377000Y39000D01*
X366000D01*
X362000Y43000D01*
Y103000D01*
X378000Y119000D01*
X405000Y119000D01*
Y82000D01*
D02*
G37*
D15*
X92500Y314500D02*
G03*
X91419Y314419I0J-7243D01*
G01*
D02*
G03*
X87379Y312379I1081J-7161D01*
G01*
X237875Y258725D02*
X238475Y258125D01*
X228125D02*
X238475D01*
X238600Y258000D01*
X228000Y258250D02*
X228125Y258125D01*
X237745Y267500D02*
X237875Y267370D01*
X237150Y267500D02*
X237745D01*
X237875Y258725D02*
Y267370D01*
X99980Y334730D02*
Y339588D01*
X103140Y342748D02*
Y343540D01*
X106400Y346800D01*
Y347000D01*
X99500Y334250D02*
X99980Y334730D01*
Y339588D02*
X103140Y342748D01*
X63418Y327000D02*
X72000D01*
X61930Y321130D02*
Y325512D01*
X63418Y327000D01*
X60200Y319400D02*
X61930Y321130D01*
X60000Y319400D02*
X60200D01*
X50000Y314000D02*
X53670Y317670D01*
X58270D02*
X60000Y319400D01*
X53670Y317670D02*
X58270D01*
X50000Y299750D02*
Y314000D01*
X101000Y214000D02*
Y228000D01*
Y209400D02*
Y214000D01*
X102850Y212150D01*
X113150D01*
X101000Y228000D02*
X101850Y227150D01*
X113150D01*
X105150Y232150D02*
X113150D01*
X101000Y228000D02*
X105150Y232150D01*
X146750Y266000D02*
Y276000D01*
Y259418D02*
X146870Y259298D01*
Y257730D02*
X148600Y256000D01*
X146870Y257730D02*
Y259298D01*
X146750Y259418D02*
Y266000D01*
X148600Y256000D02*
X149970Y254630D01*
Y244030D02*
X150000Y244000D01*
X149970Y244030D02*
Y254630D01*
X185030Y254630D02*
X186400Y256000D01*
X185000Y244000D02*
X185030Y244030D01*
Y254630D01*
X214300Y208700D02*
X223950D01*
X224250Y209000D01*
X214000Y208400D02*
X214300Y208700D01*
X201880Y207180D02*
X212780D01*
X214000Y208400D01*
X201850Y207150D02*
X201880Y207180D01*
X160000Y145400D02*
X161400Y144000D01*
X160000Y145400D02*
Y155300D01*
X293500Y49150D02*
Y49892D01*
X293630Y50022D01*
X297222D01*
X301800Y54600D01*
X297550Y84150D02*
X301070Y87670D01*
Y87870D01*
X302800Y89600D02*
X303000D01*
X293500Y84150D02*
X297550D01*
X301070Y87870D02*
X302800Y89600D01*
X301800Y54600D02*
X302000D01*
X12025Y143625D02*
X12050Y143650D01*
X25375Y143625D02*
X26000Y144250D01*
X11400Y143000D02*
X12025Y143625D01*
X25375D01*
X12050Y143650D02*
Y159350D01*
X12700Y160000D01*
X0Y145800D02*
Y166625D01*
X2600Y143000D02*
Y143200D01*
X0Y145800D02*
X2600Y143200D01*
X128200Y-61189D02*
X128898Y-61307D01*
X128898Y-61307D02*
X133931Y-77325D01*
X138564Y-80000D01*
X123800Y-82335D02*
Y-68811D01*
Y-82335D02*
X132214Y-90749D01*
Y-90998D02*
Y-90749D01*
X135230Y-94014D02*
X151091D01*
X151125Y-93980D01*
X132214Y-90998D02*
X135230Y-94014D01*
X-123800Y-71087D02*
Y-69811D01*
X-133931Y-77325D02*
X-124547Y-71814D01*
X-138564Y-80000D02*
X-133931Y-77325D01*
X-144914Y-69001D02*
X-142956D01*
X-140281Y-66326D01*
X-128359Y-62348D02*
X-128200Y-62189D01*
X-128359Y-62946D02*
Y-62348D01*
X-129736Y-62656D02*
X-128359Y-62946D01*
X-140281Y-66326D02*
X-129736Y-62656D01*
X-144914Y-69001D02*
X-140281Y-66326D01*
X-147288Y-99701D02*
X-136847Y-93673D01*
X-132214Y-90998D01*
X-149125Y-99980D02*
X-147288Y-99701D01*
X-155250Y-78928D02*
X-145323Y-69001D01*
X-155250Y-89645D02*
X-154875Y-90020D01*
X-155250Y-89645D02*
Y-78928D01*
X-145323Y-69001D02*
X-144914D01*
X156875Y-84020D02*
Y-81212D01*
X144914Y-69251D02*
X156875Y-81212D01*
X144914Y-69251D02*
Y-69001D01*
X-1275Y166625D02*
X0D01*
X-8270Y173620D02*
Y181645D01*
Y173620D02*
X-1275Y166625D01*
X-10000Y183375D02*
X-8270Y181645D01*
X-20000Y183375D02*
Y241000D01*
Y183375D02*
X-20000Y183375D01*
X-20000Y241000D02*
X-20000Y241000D01*
X53500Y205000D02*
X55000Y203500D01*
Y191000D02*
Y203500D01*
X280750Y277500D02*
X319000Y315750D01*
X256850Y277500D02*
X280750D01*
X298750Y272500D02*
X319000Y252250D01*
X256850Y272500D02*
X298750D01*
X283500Y68850D02*
Y76000D01*
X288500Y60999D02*
X289751Y59748D01*
X288250Y61249D02*
X288500Y60999D01*
X285750Y59750D02*
X288250Y62250D01*
X288500Y60999D02*
Y68850D01*
X283500Y103850D02*
Y111000D01*
Y103850D02*
X283500Y103850D01*
X301830Y97230D02*
X303000Y98400D01*
X292730Y97230D02*
X301830D01*
X290001Y94501D02*
X292730Y97230D01*
X292233Y62230D02*
X300830D01*
X302000Y63400D01*
X289751Y59748D02*
X292233Y62230D01*
X283500Y57500D02*
X285750Y59750D01*
X283500Y49150D02*
Y57500D01*
X278500Y49150D02*
Y55000D01*
X280751Y57251D01*
Y59748D01*
X279270Y62230D02*
X281002Y60498D01*
X278500Y69350D02*
X278571Y69279D01*
X281502Y60498D02*
X282250Y59750D01*
X281002Y60498D02*
X281502D01*
X279270Y62230D02*
Y63019D01*
X278571Y63718D02*
Y69279D01*
Y63718D02*
X279270Y63019D01*
X282250Y59750D02*
X285750D01*
X288250Y61249D02*
Y62250D01*
X288500Y96500D02*
Y103850D01*
X290001Y93998D02*
Y94501D01*
X283500Y91500D02*
X286000Y94000D01*
X283500Y84150D02*
Y91500D01*
X278630Y97870D02*
Y103720D01*
X278500Y103850D02*
X278630Y103720D01*
Y97870D02*
X281001Y95499D01*
Y93998D02*
Y95499D01*
X286000Y94000D02*
X288500Y96500D01*
X247400Y258000D02*
X249122D01*
X262500Y267500D02*
X266478Y263522D01*
X250870Y282370D02*
X256720D01*
X247000Y278500D02*
X250870Y282370D01*
X247000Y275000D02*
Y278500D01*
X256720Y282370D02*
X256850Y282500D01*
X266478Y258922D02*
X267400Y258000D01*
X256850Y267500D02*
X262500D01*
X249122Y258000D02*
X258600D01*
X266478Y258922D02*
Y263522D01*
X246000Y274794D02*
X249122Y271672D01*
Y258000D02*
Y271672D01*
X228000Y269750D02*
Y270500D01*
X229870Y272370D01*
X237020D01*
X237150Y272500D01*
X223600Y199000D02*
X224200Y198400D01*
X190000Y97850D02*
X202500Y110350D01*
X183150Y97850D02*
X190000D01*
X173250D02*
X183150D01*
X84500Y322000D02*
Y334250D01*
X-71000Y154600D02*
X-61000D01*
X-117000Y173000D02*
X-104000D01*
X-81000Y154000D02*
X-80700Y154300D01*
X214000Y199600D02*
X214600Y199000D01*
X223600D01*
X178000Y76750D02*
X188000D01*
X191540Y81040D02*
Y83040D01*
X188000Y77500D02*
X191540Y81040D01*
X188000Y76750D02*
Y77500D01*
X200011Y90957D02*
X200027Y90973D01*
X200011Y85228D02*
Y90957D01*
X197823Y83040D02*
X200011Y85228D01*
X191540Y83040D02*
X197823D01*
X-132000Y182400D02*
X-123230D01*
X-141400D02*
X-132000D01*
X-146000Y187000D02*
X-141400Y182400D01*
X-146000Y171000D02*
X-143400Y173600D01*
X-132000D01*
X-131500Y173100D01*
X-102500Y179775D02*
Y184850D01*
X-131500Y173100D02*
X-117000D01*
X173000Y106400D02*
X174450Y107850D01*
X183150D01*
X173000Y97600D02*
X173250Y97850D01*
X-80700Y154300D02*
X-71300D01*
X-71000Y154600D01*
X-92930Y174870D02*
X-91200Y176600D01*
X-91000Y165500D02*
X-81000D01*
X-92930Y174670D02*
Y174870D01*
X-91200Y176600D02*
X-91000D01*
X-100770Y166830D02*
X-92930Y174670D01*
X-102500Y161150D02*
X-100770Y162880D01*
X-117512Y145000D02*
X-99250D01*
X-100770Y162880D02*
Y166830D01*
X-99250Y145000D02*
X-91000Y153250D01*
Y154000D01*
X-81000Y165500D02*
X-80250Y166250D01*
Y186250D02*
X-79500Y187000D01*
X-80250Y166250D02*
Y186250D01*
X-91000Y185400D02*
Y197500D01*
X-95750Y202250D02*
Y205000D01*
Y202250D02*
X-91000Y197500D01*
X-100170Y200580D02*
X-95750Y205000D01*
X-106830Y200580D02*
X-100170D01*
X-112000Y184850D02*
Y195410D01*
X-104000Y173000D02*
X-102500Y174500D01*
Y179775D01*
X-112000Y151000D02*
X-112000Y151000D01*
Y161150D01*
X-123230Y182400D02*
X-121500Y184130D01*
Y184850D01*
X-112000Y195410D02*
X-106830Y200580D01*
X-121500Y148988D02*
X-117512Y145000D01*
X-121500Y148988D02*
Y161150D01*
X94500Y334250D02*
Y343700D01*
X72480Y302480D02*
X79480D01*
X81000Y354400D02*
X82730Y352670D01*
X89500Y334250D02*
Y348500D01*
X82730Y352670D02*
X85330D01*
X89500Y348500D01*
X81000Y345600D02*
X81200D01*
X84500Y342300D01*
Y334250D02*
Y342300D01*
X94500Y343700D02*
X97600Y346800D01*
Y347000D01*
X94500Y317000D02*
Y334250D01*
X104520Y302480D02*
X111520D01*
X112000Y302000D01*
X72000D02*
X72480Y302480D01*
X73120Y302000D02*
X73600Y301520D01*
Y284000D02*
Y301520D01*
X72000Y302000D02*
X73120D01*
X84500Y287418D02*
Y294750D01*
X84130Y287048D02*
X84500Y287418D01*
X84130Y285730D02*
Y287048D01*
X82400Y284000D02*
X84130Y285730D01*
X61938Y304062D02*
Y307382D01*
X60200Y310600D02*
X61930Y308870D01*
Y307390D02*
X61938Y307382D01*
X61930Y307390D02*
Y308870D01*
X61938Y304062D02*
X64000Y302000D01*
X60000Y310600D02*
X60200D01*
X64000Y302000D02*
X72000D01*
X215000Y-22000D02*
Y-14750D01*
X208790Y26140D02*
X208845Y26195D01*
X214945D02*
X215000Y26250D01*
X208845Y26195D02*
X214945D01*
X240418Y96250D02*
X247000D01*
X248000Y95250D01*
X239998Y96670D02*
X240418Y96250D01*
X238730Y96670D02*
X239998D01*
X237000Y98400D02*
X238730Y96670D01*
X248000Y117250D02*
Y118250D01*
X247850Y118400D02*
X248000Y118250D01*
X237000Y118400D02*
X247850D01*
X213088Y151000D02*
X223192D01*
X230770Y143422D01*
Y132730D02*
Y143422D01*
Y132730D02*
X233500Y130000D01*
X234750D01*
X211600Y149512D02*
X213088Y151000D01*
X211600Y144000D02*
Y149512D01*
X236530Y117930D02*
X237000Y118400D01*
X228925Y112925D02*
X229000Y113000D01*
X221850Y112850D02*
X221925Y112925D01*
X228925D01*
X215000Y129700D02*
X215080Y129780D01*
Y135550D01*
X216000Y136470D01*
Y137000D01*
X152600Y144200D02*
X155000Y146600D01*
X152600Y144000D02*
Y144200D01*
X155000Y146600D02*
Y155300D01*
X213800Y199600D02*
X214000D01*
X201850Y202150D02*
X211250D01*
X213800Y199600D01*
X180000Y244000D02*
Y253400D01*
X177600Y255800D02*
Y256000D01*
Y255800D02*
X180000Y253400D01*
X155000Y244000D02*
X155030Y244030D01*
Y249030D01*
X156478Y250478D01*
Y254878D01*
X157400Y255800D01*
X101200Y200600D02*
X104650Y197150D01*
X101000Y200600D02*
X101200D01*
X104650Y197150D02*
X113150D01*
X220400Y144000D02*
X221850Y142550D01*
Y122850D02*
Y142550D01*
X210000Y129700D02*
X210080Y129780D01*
Y142480D01*
X211600Y144000D01*
X221930Y117930D02*
X236530D01*
X221850Y117850D02*
X221930Y117930D01*
X235330Y107930D02*
X237000Y109600D01*
X221930Y107930D02*
X235330D01*
X221850Y107850D02*
X221930Y107930D01*
X225988Y96662D02*
X228338D01*
X221850Y97850D02*
X224800D01*
X225988Y96662D01*
X228338D02*
X229000Y96000D01*
X236700Y89300D02*
X237000Y89600D01*
X221300Y89300D02*
X236700D01*
X221000Y89000D02*
X221300Y89300D01*
X236800Y98400D02*
X237000D01*
X221850Y102850D02*
X232350D01*
X236800Y98400D01*
X218000Y76750D02*
X228000D01*
X210000Y91000D02*
X210080Y90920D01*
Y85420D02*
Y90920D01*
Y85420D02*
X218000Y77500D01*
Y76750D02*
Y77500D01*
X205000Y77000D02*
Y91000D01*
X208000Y76750D02*
Y77500D01*
X198000Y76750D02*
X208000D01*
X215080Y89000D02*
X221000D01*
X215000Y89080D02*
X215080Y89000D01*
X215000Y89080D02*
Y91000D01*
X196750Y21300D02*
X204000D01*
X196750Y-19700D02*
X204000D01*
X215000Y-63000D02*
Y-55750D01*
X196750Y-60700D02*
X204000D01*
D18*
X34000Y157161D02*
X49839D01*
X27411D02*
X34000D01*
Y141000D02*
Y157161D01*
X29526Y136526D02*
X34000Y141000D01*
X-5526Y136526D02*
X29526D01*
X-12700Y143700D02*
X-5526Y136526D01*
X-12700Y143700D02*
Y160000D01*
X215974Y217150D02*
X219219Y213905D01*
X242911D01*
X201850Y217150D02*
X215974D01*
X242911Y213905D02*
X293500Y163316D01*
X201925Y172075D02*
X215925D01*
X201850Y172150D02*
X201925Y172075D01*
X215925D02*
X216000Y172000D01*
X126250Y109000D02*
X127000D01*
X115000D02*
X126250D01*
X201850Y222150D02*
X201925Y222075D01*
X208925D01*
X209000Y222000D01*
X206310Y240126D02*
Y241000D01*
X201850Y237150D02*
X204850D01*
X205515Y237815D01*
Y239331D01*
X206310Y240126D01*
X171063Y253512D02*
X175000Y249576D01*
X171063Y253512D02*
Y254223D01*
X175000Y244000D02*
Y249576D01*
X170080Y255206D02*
X171063Y254223D01*
X170080Y255206D02*
Y256080D01*
X168183Y251382D02*
X170000Y249564D01*
X166618Y251382D02*
X168183D01*
X166000Y252000D02*
X166618Y251382D01*
X170000Y244000D02*
Y249564D01*
X20000Y179118D02*
Y183375D01*
Y179118D02*
X22365Y176753D01*
X76247D01*
X79000Y174000D01*
X102000D01*
X104000Y176000D01*
Y180000D01*
X105626Y181626D01*
X112626D01*
X113150Y182150D01*
X99636Y148886D02*
X106386D01*
X98750Y148000D02*
X99636Y148886D01*
X97400Y138000D02*
X98750Y139350D01*
Y148000D02*
X100636Y149886D01*
X113150Y155650D02*
Y162150D01*
X106386Y148886D02*
X113150Y155650D01*
X60000Y147000D02*
X86250D01*
X87250Y148000D01*
X49839Y157161D02*
X60000Y147000D01*
X26000Y155750D02*
X27411Y157161D01*
X104252Y171460D02*
X104942Y172150D01*
X102960Y171460D02*
X104252D01*
X99500Y168000D02*
X102960Y171460D01*
X98750Y168000D02*
X99500D01*
X104942Y172150D02*
X113150D01*
X97400Y158000D02*
X98750Y159350D01*
Y148000D02*
X100636Y149886D01*
X97400Y138000D02*
X98750Y139350D01*
X97400Y158000D02*
X98750Y159350D01*
Y168000D01*
X97400Y158000D02*
X98750Y159350D01*
X97400Y138000D02*
X98750Y139350D01*
Y148000D01*
X145000Y146000D02*
Y155300D01*
X145000Y155300D01*
X138000Y146000D02*
Y146874D01*
X140000Y148874D01*
Y155300D01*
X219500Y277500D02*
X237150D01*
X198000Y256000D02*
X219500Y277500D01*
X130000Y147874D02*
X131000Y146874D01*
X130000Y147874D02*
Y155300D01*
X131000Y146000D02*
Y146874D01*
X125000Y147874D02*
Y155300D01*
X124000Y146000D02*
Y146874D01*
X125000Y147874D01*
X26000Y155750D02*
Y156500D01*
X410000Y220000D02*
X413000Y223000D01*
X261000Y220000D02*
X410000D01*
X257000Y216000D02*
X261000Y220000D01*
X228000Y251000D02*
X243000Y236000D01*
X398680D01*
X192000Y251000D02*
X228000D01*
X195665Y246000D02*
X226000D01*
X243888Y228112D02*
X396568D01*
X226000Y246000D02*
X243888Y228112D01*
X215000Y192150D02*
X221250D01*
X201850D02*
X215000D01*
X413000Y223000D02*
Y261000D01*
X408000Y266000D02*
X413000Y261000D01*
X398680Y266000D02*
X408000D01*
X312000Y83000D02*
Y153000D01*
X232850Y232150D02*
X312000Y153000D01*
X201850Y232150D02*
X232850D01*
X309000Y85000D02*
Y152000D01*
X233850Y227150D02*
X309000Y152000D01*
X201850Y227150D02*
X233850D01*
X293500Y103850D02*
Y163316D01*
X301000Y77000D02*
X309000Y85000D01*
X297850Y68850D02*
X312000Y83000D01*
X288500Y79162D02*
Y84150D01*
Y79162D02*
X290662Y77000D01*
X301000D01*
X293500Y68850D02*
X297850D01*
X199000Y263000D02*
X218500Y282500D01*
X237150D01*
X224000Y189600D02*
X228600D01*
X235750Y196750D01*
Y209000D01*
X125000Y244000D02*
Y251000D01*
X113000Y263000D02*
X125000Y251000D01*
X75250Y263000D02*
X113000D01*
X50000Y287500D02*
X52365Y285135D01*
X53115D01*
X75250Y263000D01*
X50000Y287500D02*
Y288250D01*
X-88000Y258000D02*
X-78000Y268000D01*
X46500D02*
X65500Y249000D01*
X-78000Y268000D02*
X46500D01*
X-68000Y258000D02*
X42000D01*
X61000Y239000D02*
X66250D01*
X42000Y258000D02*
X61000Y239000D01*
X65500Y249000D02*
X66250D01*
X120000Y244000D02*
Y247000D01*
X77750Y249000D02*
X118000D01*
X120000Y247000D01*
X79600Y237150D02*
X113150D01*
X77750Y239000D02*
X79600Y237150D01*
X178435Y113565D02*
X182435D01*
X173000Y119000D02*
Y136000D01*
X182435Y113565D02*
X183150Y112850D01*
X173000Y119000D02*
X178435Y113565D01*
X81405Y180405D02*
Y184905D01*
X86500Y190000D01*
X87250D01*
X81000Y180000D02*
X81405Y180405D01*
X135000Y265750D02*
X135250Y266000D01*
Y281250D02*
X157000Y303000D01*
X182000D01*
X135250Y276000D02*
Y281250D01*
X182000Y303000D02*
X202000Y323000D01*
X135250Y276000D02*
X136000D01*
X74000Y334000D02*
X79250D01*
X79500Y334250D01*
X94000Y286000D02*
X107000Y273000D01*
X109000D01*
X130000Y244000D02*
Y252000D01*
X109000Y273000D02*
X130000Y252000D01*
X104500Y292250D02*
Y294750D01*
X120750Y276000D02*
X135250D01*
X104500Y292250D02*
X120750Y276000D01*
X122250Y265750D02*
X135000D01*
X99500Y288500D02*
X122250Y265750D01*
X99500Y288500D02*
Y294750D01*
X140905Y259832D02*
Y271095D01*
X140000Y244000D02*
Y258927D01*
X136000Y276000D02*
X140905Y271095D01*
X140000Y258927D02*
X140905Y259832D01*
X135000Y244000D02*
Y265750D01*
X104583Y190000D02*
X106945Y187638D01*
X98750Y190000D02*
X104583D01*
X106945Y187638D02*
X112662D01*
X113150Y187150D01*
X98750Y181350D02*
Y190000D01*
X97400Y180000D02*
X98750Y181350D01*
X235750Y158000D02*
X249500D01*
X195300Y155000D02*
X200000D01*
X195000Y155300D02*
X195300Y155000D01*
X396568Y228112D02*
X398680Y226000D01*
X215000Y190000D02*
Y192150D01*
X223800Y189600D02*
X224000D01*
X221250Y192150D02*
X223800Y189600D01*
X195000Y245335D02*
X195665Y246000D01*
X195000Y244000D02*
Y245335D01*
X190000Y249000D02*
X192000Y251000D01*
X190000Y244000D02*
X190000Y244000D01*
X190000Y244000D02*
Y249000D01*
X190000Y244000D02*
X190665Y244665D01*
X157000Y98500D02*
X160750Y102250D01*
Y109000D01*
X157000Y97750D02*
Y98500D01*
X137750Y98500D02*
Y109000D01*
X137000Y97750D02*
X137750Y98500D01*
X147000Y97750D02*
X157000D01*
X127000D02*
X137000D01*
X107000D02*
X117000D01*
X103500Y102000D02*
X107000Y98500D01*
Y97750D02*
Y98500D01*
X103500Y102000D02*
Y109000D01*
X142552Y116000D02*
X146135Y112417D01*
X132948Y116000D02*
X142552D01*
X129365Y112417D02*
X132948Y116000D01*
X146135Y111365D02*
Y112417D01*
Y111365D02*
X147089Y110411D01*
X129365Y111365D02*
Y112417D01*
X127000Y109000D02*
X129365Y111365D01*
X147089Y110411D02*
X147839D01*
X149250Y109000D01*
X185000Y147000D02*
Y155300D01*
X188000Y141000D02*
X190000Y143000D01*
Y155300D01*
X183000Y141000D02*
X188000D01*
X176150Y134150D02*
X183000Y141000D01*
X195000Y131006D02*
Y138000D01*
X194347Y130353D02*
X195000Y131006D01*
X194347Y130353D02*
X195000Y129700D01*
X207850Y167150D02*
X210000Y165000D01*
X201850Y167150D02*
X207850D01*
X210000Y154775D02*
Y165000D01*
X200000Y144775D02*
X210000Y154775D01*
X200000Y129700D02*
Y144775D01*
X184000Y135000D02*
X184874D01*
X186745Y133129D02*
X189285D01*
X184874Y135000D02*
X186745Y133129D01*
X190000Y129700D02*
Y132414D01*
X189285Y133129D02*
X190000Y132414D01*
X181000Y127914D02*
X183150Y125764D01*
X181000Y127914D02*
Y128000D01*
X183150Y122850D02*
Y125764D01*
X175000Y147000D02*
Y155300D01*
X173000Y136000D02*
X180000Y143000D01*
Y155300D01*
X176150Y120850D02*
X179000Y118000D01*
X176150Y120850D02*
Y134150D01*
X179000Y118000D02*
X183000D01*
X183150Y117850D01*
D23*
X20000Y183375D02*
D03*
X0D02*
D03*
X-20000D02*
D03*
X-10000D02*
D03*
X10000D02*
D03*
D24*
X33000Y208625D02*
D03*
X-33000D02*
D03*
D25*
X88600Y158000D02*
D03*
X97400D02*
D03*
X88600Y138000D02*
D03*
X97400D02*
D03*
X258600Y258000D02*
D03*
X267400D02*
D03*
X238600D02*
D03*
X247400D02*
D03*
X-69600Y177000D02*
D03*
X-78400D02*
D03*
X88600Y180000D02*
D03*
X97400D02*
D03*
X82400Y284000D02*
D03*
X73600D02*
D03*
X106400Y347000D02*
D03*
X97600D02*
D03*
X2600Y143000D02*
D03*
X11400D02*
D03*
X161400Y144000D02*
D03*
X152600D02*
D03*
X148600Y256000D02*
D03*
X157400D02*
D03*
X186400D02*
D03*
X177600D02*
D03*
X220400Y144000D02*
D03*
X211600D02*
D03*
D26*
X87250Y168000D02*
D03*
X98750D02*
D03*
X77750Y249000D02*
D03*
X66250D02*
D03*
X77750Y239000D02*
D03*
X66250D02*
D03*
X-68000Y187000D02*
D03*
X-79500D02*
D03*
X146750Y276000D02*
D03*
X135250D02*
D03*
X87250Y148000D02*
D03*
X98750D02*
D03*
X87250Y190000D02*
D03*
X98750D02*
D03*
X146750Y266000D02*
D03*
X135250D02*
D03*
X160750Y109000D02*
D03*
X149250D02*
D03*
X224250Y158000D02*
D03*
X235750D02*
D03*
Y209000D02*
D03*
X224250D02*
D03*
X126250Y109000D02*
D03*
X137750D02*
D03*
X115000D02*
D03*
X103500D02*
D03*
D27*
X283500Y68850D02*
D03*
X293500D02*
D03*
X288500D02*
D03*
X278500D02*
D03*
Y49150D02*
D03*
X283500D02*
D03*
X288500D02*
D03*
X293500D02*
D03*
Y84150D02*
D03*
X288500D02*
D03*
X283500D02*
D03*
X278500D02*
D03*
Y103850D02*
D03*
X283500D02*
D03*
X288500D02*
D03*
X293500D02*
D03*
D28*
X303000Y89600D02*
D03*
Y98400D02*
D03*
X302000Y63400D02*
D03*
Y54600D02*
D03*
X-61000Y163400D02*
D03*
Y154600D02*
D03*
X-91000Y185400D02*
D03*
Y176600D02*
D03*
X-71000Y163400D02*
D03*
Y154600D02*
D03*
X-132000Y182400D02*
D03*
Y173600D02*
D03*
X81000Y354400D02*
D03*
Y345600D02*
D03*
X60000Y319400D02*
D03*
Y310600D02*
D03*
X224000Y198400D02*
D03*
Y189600D02*
D03*
X101000Y209400D02*
D03*
Y200600D02*
D03*
X214000Y208400D02*
D03*
Y199600D02*
D03*
X173000Y106400D02*
D03*
Y97600D02*
D03*
X237000Y109600D02*
D03*
Y118400D02*
D03*
Y89600D02*
D03*
Y98400D02*
D03*
D29*
X228000Y258250D02*
D03*
Y269750D02*
D03*
X50000Y288250D02*
D03*
Y299750D02*
D03*
X178000Y65250D02*
D03*
Y76750D02*
D03*
X188000D02*
D03*
Y65250D02*
D03*
X-81000Y165500D02*
D03*
Y154000D02*
D03*
X-91000Y165500D02*
D03*
Y154000D02*
D03*
X26000Y144250D02*
D03*
Y155750D02*
D03*
X208000Y65250D02*
D03*
Y76750D02*
D03*
X218000Y65250D02*
D03*
Y76750D02*
D03*
X228000D02*
D03*
Y65250D02*
D03*
X198000Y76750D02*
D03*
Y65250D02*
D03*
X157000Y97750D02*
D03*
Y86250D02*
D03*
X137000Y97750D02*
D03*
Y86250D02*
D03*
X117000Y97750D02*
D03*
Y86250D02*
D03*
X147000D02*
D03*
Y97750D02*
D03*
X127000Y86250D02*
D03*
Y97750D02*
D03*
X107000Y86250D02*
D03*
Y97750D02*
D03*
D30*
X330750Y106000D02*
D03*
X391250D02*
D03*
D31*
X-70250Y205000D02*
D03*
X-95750D02*
D03*
D32*
X-121500Y161150D02*
D03*
X-112000D02*
D03*
X-102500D02*
D03*
X-121500Y184850D02*
D03*
X-112000D02*
D03*
X-102500D02*
D03*
D33*
X-154875Y-90020D02*
D03*
X-149125Y-99980D02*
D03*
D34*
X151125Y-93980D02*
D03*
X156875Y-84020D02*
D03*
D35*
X-123800Y-69811D02*
D03*
X-128200Y-62189D02*
D03*
D36*
X128200Y-61189D02*
D03*
X123800Y-68811D02*
D03*
D37*
X55000Y191000D02*
D03*
X68000D02*
D03*
D38*
X53500Y205000D02*
D03*
X68500D02*
D03*
X249500Y158000D02*
D03*
X264500D02*
D03*
D39*
X190000Y91000D02*
D03*
X195000D02*
D03*
X200000D02*
D03*
X205000D02*
D03*
X210000D02*
D03*
X215000D02*
D03*
Y129700D02*
D03*
X210000D02*
D03*
X205000D02*
D03*
X200000D02*
D03*
X195000D02*
D03*
X190000D02*
D03*
D40*
X183150Y122850D02*
D03*
Y117850D02*
D03*
Y112850D02*
D03*
Y107850D02*
D03*
Y102850D02*
D03*
Y97850D02*
D03*
X221850D02*
D03*
Y102850D02*
D03*
Y107850D02*
D03*
Y112850D02*
D03*
Y117850D02*
D03*
Y122850D02*
D03*
D42*
X196750Y-33000D02*
D03*
X190250D02*
D03*
X183750D02*
D03*
X177250D02*
D03*
X196750Y49000D02*
D03*
X190250D02*
D03*
X183750D02*
D03*
X177250D02*
D03*
X196750Y8000D02*
D03*
X190250D02*
D03*
X183750D02*
D03*
X177250D02*
D03*
D43*
X190250Y-60700D02*
D03*
X183750D02*
D03*
X196750D02*
D03*
X177250D02*
D03*
X190250Y21300D02*
D03*
X183750D02*
D03*
X196750D02*
D03*
X177250D02*
D03*
X190250Y-19700D02*
D03*
X183750D02*
D03*
X196750D02*
D03*
X177250D02*
D03*
D44*
X151000Y-41000D02*
D03*
Y0D02*
D03*
Y41000D02*
D03*
D45*
X242700Y-55750D02*
D03*
Y-49250D02*
D03*
Y-42750D02*
D03*
Y-36250D02*
D03*
Y26250D02*
D03*
Y32750D02*
D03*
Y39250D02*
D03*
Y45750D02*
D03*
Y-14750D02*
D03*
Y-8250D02*
D03*
Y-1750D02*
D03*
Y4750D02*
D03*
D46*
X215000Y-49250D02*
D03*
Y-42750D02*
D03*
Y-55750D02*
D03*
Y-36250D02*
D03*
Y32750D02*
D03*
Y39250D02*
D03*
Y26250D02*
D03*
Y45750D02*
D03*
Y-8250D02*
D03*
Y-1750D02*
D03*
Y-14750D02*
D03*
Y4750D02*
D03*
D47*
X268000Y-15000D02*
D03*
Y-43000D02*
D03*
Y5000D02*
D03*
Y33000D02*
D03*
D48*
X234750Y130000D02*
D03*
D49*
X245250D02*
D03*
D50*
X248000Y117250D02*
D03*
Y95250D02*
D03*
D51*
Y106750D02*
D03*
Y84750D02*
D03*
D52*
X398680Y236000D02*
D03*
Y266000D02*
D03*
Y256000D02*
D03*
Y246000D02*
D03*
Y226000D02*
D03*
D53*
X437430Y279000D02*
D03*
Y213000D02*
D03*
D54*
X256850Y267500D02*
D03*
Y272500D02*
D03*
Y277500D02*
D03*
Y282500D02*
D03*
X237150D02*
D03*
Y277500D02*
D03*
Y272500D02*
D03*
Y267500D02*
D03*
D55*
X145000Y244000D02*
D03*
X195000D02*
D03*
X190000D02*
D03*
X185000D02*
D03*
X180000D02*
D03*
X175000D02*
D03*
X170000D02*
D03*
X165000D02*
D03*
X160000D02*
D03*
X155000D02*
D03*
X150000D02*
D03*
X140000D02*
D03*
X135000D02*
D03*
X130000D02*
D03*
X125000D02*
D03*
X120000D02*
D03*
Y155300D02*
D03*
X125000D02*
D03*
X130000D02*
D03*
X135000D02*
D03*
X140000D02*
D03*
X145000D02*
D03*
X150000D02*
D03*
X155000D02*
D03*
X160000D02*
D03*
X165000D02*
D03*
X170000D02*
D03*
X175000D02*
D03*
X180000D02*
D03*
X185000D02*
D03*
X190000D02*
D03*
X195000D02*
D03*
D56*
X201850Y237150D02*
D03*
Y162150D02*
D03*
Y167150D02*
D03*
Y172150D02*
D03*
Y177150D02*
D03*
Y182150D02*
D03*
Y187150D02*
D03*
Y192150D02*
D03*
Y197150D02*
D03*
Y202150D02*
D03*
Y207150D02*
D03*
Y212150D02*
D03*
Y217150D02*
D03*
Y222150D02*
D03*
Y227150D02*
D03*
Y232150D02*
D03*
X113150Y237150D02*
D03*
Y232150D02*
D03*
Y227150D02*
D03*
Y222150D02*
D03*
Y217150D02*
D03*
Y212150D02*
D03*
Y207150D02*
D03*
Y202150D02*
D03*
Y197150D02*
D03*
Y192150D02*
D03*
Y187150D02*
D03*
Y182150D02*
D03*
Y177150D02*
D03*
Y172150D02*
D03*
Y167150D02*
D03*
Y162150D02*
D03*
D57*
X157500Y199650D02*
D03*
D58*
X112000Y302000D02*
D03*
Y307000D02*
D03*
Y312000D02*
D03*
Y317000D02*
D03*
Y322000D02*
D03*
Y327000D02*
D03*
X72000D02*
D03*
Y322000D02*
D03*
Y317000D02*
D03*
Y312000D02*
D03*
Y307000D02*
D03*
Y302000D02*
D03*
D59*
X104500Y334250D02*
D03*
X99500D02*
D03*
X94500D02*
D03*
X89500D02*
D03*
X84500D02*
D03*
X79500D02*
D03*
Y294750D02*
D03*
X84500D02*
D03*
X89500D02*
D03*
X94500D02*
D03*
X99500D02*
D03*
X104500D02*
D03*
D60*
X-146000Y171000D02*
D03*
Y187000D02*
D03*
D111*
X286000Y59000D02*
D03*
Y94000D02*
D03*
D112*
X202500Y110350D02*
D03*
D113*
X247000Y275000D02*
D03*
D114*
X92000Y314500D02*
D03*
D115*
X239000Y41209D02*
Y76500D01*
X257000Y88172D02*
Y107000D01*
X248000Y84750D02*
X249079Y85829D01*
X254657D02*
X257000Y88172D01*
X249079Y85829D02*
X254657D01*
X252000Y130000D02*
X257000Y125000D01*
X256750Y106750D02*
X257000Y107000D01*
X248000Y106750D02*
X256750D01*
X257000Y107000D02*
Y125000D01*
X245250Y130000D02*
X252000D01*
X239000Y76500D02*
X247250Y84750D01*
X183750Y-60700D02*
X187000D01*
X190250D01*
X187000Y-19700D02*
X190250D01*
X183750D02*
X187000D01*
X183750Y21300D02*
X187000D01*
X190250D01*
X177250Y-19700D02*
X183750D01*
X177250Y21300D02*
X183750D01*
X169000Y-60700D02*
X177250D01*
X183750D01*
X169000Y21300D02*
X177250D01*
X169000Y-19700D02*
X177250D01*
D116*
X173000Y106400D02*
Y112000D01*
D117*
X144914Y-69001D02*
D03*
X132214Y-90998D02*
D03*
X138564Y-80000D02*
D03*
D118*
X352000Y64000D02*
D03*
X182000Y323000D02*
D03*
X-108000Y258000D02*
D03*
X230000Y-146300D02*
D03*
X-70000D02*
D03*
D119*
X372000Y64000D02*
D03*
X242000Y323000D02*
D03*
X222000D02*
D03*
X202000D02*
D03*
X-88000Y258000D02*
D03*
X-68000D02*
D03*
X-190500Y-30000D02*
D03*
Y-50000D02*
D03*
X-170500Y-30000D02*
D03*
Y-50000D02*
D03*
X-190500Y-70000D02*
D03*
Y270000D02*
D03*
Y250000D02*
D03*
X-170500Y270000D02*
D03*
Y250000D02*
D03*
X-190500Y230000D02*
D03*
X270000Y-126300D02*
D03*
X250000D02*
D03*
X270000Y-146300D02*
D03*
X250000D02*
D03*
X230000Y-126300D02*
D03*
X-30000D02*
D03*
X-50000D02*
D03*
X-30000Y-146300D02*
D03*
X-50000D02*
D03*
X-70000Y-126300D02*
D03*
D120*
X-132214Y-90998D02*
D03*
X-144914Y-69001D02*
D03*
X-138564Y-80000D02*
D03*
D121*
X0Y160000D02*
D03*
X12700D02*
D03*
X-12700D02*
D03*
D122*
X0Y420000D02*
D03*
X420000Y0D02*
D03*
X370000Y370000D02*
D03*
D123*
X-170500Y-70000D02*
D03*
Y230000D02*
D03*
D124*
X398680Y256000D02*
D03*
X161400Y144000D02*
D03*
X50000Y299750D02*
D03*
X60000Y319400D02*
D03*
X106400Y347000D02*
D03*
X302000Y54600D02*
D03*
X303000Y89600D02*
D03*
X214000Y208400D02*
D03*
X224250Y209000D02*
D03*
X238600Y258000D02*
D03*
X228000Y258250D02*
D03*
X186400Y256000D02*
D03*
X146750Y276000D02*
D03*
Y266000D02*
D03*
X148600Y256000D02*
D03*
X101000Y209400D02*
D03*
X68000Y191000D02*
D03*
X11400Y143000D02*
D03*
X-68000Y187000D02*
D03*
X-69600Y177000D02*
D03*
X-71000Y163400D02*
D03*
X-61000D02*
D03*
X216000Y172000D02*
D03*
X209000Y222000D02*
D03*
X206310Y241000D02*
D03*
X170080Y256080D02*
D03*
X166000Y252000D02*
D03*
X368000Y53000D02*
D03*
Y45000D02*
D03*
X376000D02*
D03*
X0Y183375D02*
D03*
X-10000D02*
D03*
X-20000Y241000D02*
D03*
X10000Y178000D02*
D03*
X87250Y168000D02*
D03*
X88600Y158000D02*
D03*
X214000Y237000D02*
D03*
X217000Y166000D02*
D03*
X219000Y220000D02*
D03*
X145000Y146000D02*
D03*
X138000D02*
D03*
X199000Y263000D02*
D03*
X198000Y256000D02*
D03*
X131000Y146000D02*
D03*
X124000D02*
D03*
X319000Y252250D02*
D03*
Y315750D02*
D03*
X257000Y216000D02*
D03*
X283500Y76000D02*
D03*
Y111000D02*
D03*
X302000Y63400D02*
D03*
X303000Y98400D02*
D03*
X290001Y93998D02*
D03*
X281001D02*
D03*
X280751Y59748D02*
D03*
X289751D02*
D03*
X277000Y84000D02*
D03*
X258600Y258000D02*
D03*
X247400D02*
D03*
X267400D02*
D03*
X247000Y275000D02*
D03*
X224200Y198400D02*
D03*
X188000Y65250D02*
D03*
X178000D02*
D03*
X-132000Y173600D02*
D03*
X173000Y112000D02*
D03*
Y97600D02*
D03*
Y106400D02*
D03*
X376000Y53000D02*
D03*
X81000Y180000D02*
D03*
X-61000Y154700D02*
D03*
X-71000D02*
D03*
X-81000Y154100D02*
D03*
X-117000Y173100D02*
D03*
X-110500D02*
D03*
X-112000Y151000D02*
D03*
X-121500Y184850D02*
D03*
X-102500Y179775D02*
D03*
X-132000Y182400D02*
D03*
X135000Y265750D02*
D03*
X100000Y305838D02*
D03*
X82838Y305838D02*
D03*
X82838Y323000D02*
D03*
X100000Y323000D02*
D03*
X91419Y314419D02*
D03*
X74000Y334000D02*
D03*
X94000Y286000D02*
D03*
X97600Y347000D02*
D03*
X81000Y345600D02*
D03*
X60000Y310600D02*
D03*
X73600Y284000D02*
D03*
X88600Y180000D02*
D03*
X264500Y158000D02*
D03*
X224250D02*
D03*
X200000Y155000D02*
D03*
X215000Y190000D02*
D03*
X398680Y246000D02*
D03*
X178850Y220150D02*
D03*
X178000Y178300D02*
D03*
X136150Y179150D02*
D03*
X137000Y221000D02*
D03*
X157500Y199650D02*
D03*
X157400Y256000D02*
D03*
X177600D02*
D03*
X214000Y199600D02*
D03*
X152600Y144000D02*
D03*
X101000Y200600D02*
D03*
X149250Y109000D02*
D03*
X157000Y97750D02*
D03*
X137000D02*
D03*
X117000D02*
D03*
X215000Y-22000D02*
D03*
X208790Y26140D02*
D03*
X258000Y65250D02*
D03*
Y57000D02*
D03*
X248000Y65250D02*
D03*
X157000Y86250D02*
D03*
X147000D02*
D03*
X137000D02*
D03*
X127000D02*
D03*
X117000D02*
D03*
X107000D02*
D03*
X229000Y113000D02*
D03*
X216000Y137000D02*
D03*
X185000Y147000D02*
D03*
X195000Y138000D02*
D03*
X184000Y135000D02*
D03*
X181000Y128000D02*
D03*
X175000Y147000D02*
D03*
X204000Y-79000D02*
D03*
Y-70000D02*
D03*
X186000Y-79000D02*
D03*
Y-70000D02*
D03*
X195000Y-79000D02*
D03*
Y-70000D02*
D03*
X210150Y117850D02*
D03*
X210000Y102700D02*
D03*
X194850Y102850D02*
D03*
X195000Y118000D02*
D03*
X202500Y110350D02*
D03*
X151000Y-41000D02*
D03*
Y0D02*
D03*
Y41000D02*
D03*
X220400Y144000D02*
D03*
X237000Y109600D02*
D03*
X229000Y96000D02*
D03*
X218000Y65250D02*
D03*
X228000D02*
D03*
X198000D02*
D03*
X221000Y89000D02*
D03*
X208000Y65250D02*
D03*
X142000Y21000D02*
D03*
Y-20000D02*
D03*
X215000Y-63000D02*
D03*
X204000Y-60700D02*
D03*
X169000Y-60700D02*
D03*
X177250D02*
D03*
X187000Y-60700D02*
D03*
X204000Y-19700D02*
D03*
Y21300D02*
D03*
X177250Y-19700D02*
D03*
X187000Y-19700D02*
D03*
X169000Y-19700D02*
D03*
Y21300D02*
D03*
X177250D02*
D03*
X187000Y21300D02*
D03*
X151000Y21000D02*
D03*
X160000D02*
D03*
Y-20000D02*
D03*
X151000D02*
D03*
D125*
X50000Y50000D02*
D03*
Y-50000D02*
D03*
X-50000D02*
D03*
X399000Y98000D02*
D03*
Y114000D02*
D03*
X383000D02*
D03*
Y98000D02*
D03*
X391250Y106000D02*
D03*
X268000Y-43000D02*
D03*
X260000D02*
D03*
X276000D02*
D03*
X268000Y33000D02*
D03*
X260000D02*
D03*
X276000D02*
D03*
X268000Y-15000D02*
D03*
X260000D02*
D03*
X276000D02*
D03*
Y5000D02*
D03*
X260000D02*
D03*
X268000D02*
D03*
X-121000Y114000D02*
D03*
X-114000Y126000D02*
D03*
X-106000Y112000D02*
D03*
X-117000Y99000D02*
D03*
X-97000Y126000D02*
D03*
X-50000Y50000D02*
D03*
X47000Y0D02*
D03*
X0Y-53000D02*
D03*
X-47000Y0D02*
D03*
X0Y53000D02*
D03*
X229000Y-38000D02*
D03*
Y-53000D02*
D03*
X244000Y-38000D02*
D03*
Y-53000D02*
D03*
X229000Y3000D02*
D03*
Y-12000D02*
D03*
X244000Y3000D02*
D03*
Y-12000D02*
D03*
Y29000D02*
D03*
Y44000D02*
D03*
X229000Y29000D02*
D03*
Y44000D02*
D03*
X370000Y390000D02*
D03*
Y350000D02*
D03*
X350000Y369000D02*
D03*
X390000D02*
D03*
X384000Y383000D02*
D03*
X355000Y382000D02*
D03*
X357000Y355000D02*
D03*
X384000Y356000D02*
D03*
X420000Y20000D02*
D03*
Y-20000D02*
D03*
X400000Y-1000D02*
D03*
X440000D02*
D03*
X434000Y13000D02*
D03*
X405000Y12000D02*
D03*
X407000Y-15000D02*
D03*
X434000Y-14000D02*
D03*
X14000Y406000D02*
D03*
X-13000Y405000D02*
D03*
X-15000Y432000D02*
D03*
X14000Y433000D02*
D03*
X20000Y419000D02*
D03*
X-20000D02*
D03*
X0Y400000D02*
D03*
Y440000D02*
D03*
X-146000Y171000D02*
D03*
Y187000D02*
D03*
M02*
