G04*
G04 #@! TF.GenerationSoftware,Altium Limited,Altium Designer,24.4.1 (13)*
G04*
G04 Layer_Color=8388736*
%FSLAX44Y44*%
%MOMM*%
G71*
G04*
G04 #@! TF.SameCoordinates,D346328A-3EA5-4E80-806F-D0F93F3E7631*
G04*
G04*
G04 #@! TF.FilePolarity,Negative*
G04*
G01*
G75*
%ADD61R,0.8032X1.7532*%
%ADD62R,1.4032X2.0032*%
%ADD63R,0.8032X0.8432*%
%ADD64R,0.9532X0.8032*%
G04:AMPARAMS|DCode=65|XSize=0.9432mm|YSize=0.4832mm|CornerRadius=0.1366mm|HoleSize=0mm|Usage=FLASHONLY|Rotation=270.000|XOffset=0mm|YOffset=0mm|HoleType=Round|Shape=RoundedRectangle|*
%AMROUNDEDRECTD65*
21,1,0.9432,0.2100,0,0,270.0*
21,1,0.6700,0.4832,0,0,270.0*
1,1,0.2732,-0.1050,-0.3350*
1,1,0.2732,-0.1050,0.3350*
1,1,0.2732,0.1050,0.3350*
1,1,0.2732,0.1050,-0.3350*
%
%ADD65ROUNDEDRECTD65*%
%ADD66R,1.8032X1.1032*%
%ADD67R,0.8432X0.8032*%
%ADD68R,0.8032X0.9532*%
%ADD69R,2.7532X2.6532*%
%ADD70R,1.4032X1.9532*%
%ADD71R,0.8032X1.5532*%
G04:AMPARAMS|DCode=72|XSize=0.8032mm|YSize=0.9532mm|CornerRadius=0mm|HoleSize=0mm|Usage=FLASHONLY|Rotation=30.000|XOffset=0mm|YOffset=0mm|HoleType=Round|Shape=Rectangle|*
%AMROTATEDRECTD72*
4,1,4,-0.1095,-0.6136,-0.5861,0.2120,0.1095,0.6136,0.5861,-0.2120,-0.1095,-0.6136,0.0*
%
%ADD72ROTATEDRECTD72*%

G04:AMPARAMS|DCode=73|XSize=0.8032mm|YSize=0.9532mm|CornerRadius=0mm|HoleSize=0mm|Usage=FLASHONLY|Rotation=150.000|XOffset=0mm|YOffset=0mm|HoleType=Round|Shape=Rectangle|*
%AMROTATEDRECTD73*
4,1,4,0.5861,0.2120,0.1095,-0.6136,-0.5861,-0.2120,-0.1095,0.6136,0.5861,0.2120,0.0*
%
%ADD73ROTATEDRECTD73*%

G04:AMPARAMS|DCode=74|XSize=0.8432mm|YSize=0.8032mm|CornerRadius=0mm|HoleSize=0mm|Usage=FLASHONLY|Rotation=30.000|XOffset=0mm|YOffset=0mm|HoleType=Round|Shape=Rectangle|*
%AMROTATEDRECTD74*
4,1,4,-0.1643,-0.5586,-0.5659,0.1370,0.1643,0.5586,0.5659,-0.1370,-0.1643,-0.5586,0.0*
%
%ADD74ROTATEDRECTD74*%

G04:AMPARAMS|DCode=75|XSize=0.8432mm|YSize=0.8032mm|CornerRadius=0mm|HoleSize=0mm|Usage=FLASHONLY|Rotation=150.000|XOffset=0mm|YOffset=0mm|HoleType=Round|Shape=Rectangle|*
%AMROTATEDRECTD75*
4,1,4,0.5659,0.1370,0.1643,-0.5586,-0.5659,-0.1370,-0.1643,0.5586,0.5659,0.1370,0.0*
%
%ADD75ROTATEDRECTD75*%

%ADD76R,1.0532X1.1532*%
%ADD77R,1.0032X1.0032*%
G04:AMPARAMS|DCode=78|XSize=1.0632mm|YSize=0.4732mm|CornerRadius=0.1354mm|HoleSize=0mm|Usage=FLASHONLY|Rotation=90.000|XOffset=0mm|YOffset=0mm|HoleType=Round|Shape=RoundedRectangle|*
%AMROUNDEDRECTD78*
21,1,1.0632,0.2025,0,0,90.0*
21,1,0.7925,0.4732,0,0,90.0*
1,1,0.2707,0.1013,0.3963*
1,1,0.2707,0.1013,-0.3963*
1,1,0.2707,-0.1013,-0.3963*
1,1,0.2707,-0.1013,0.3963*
%
%ADD78ROUNDEDRECTD78*%
G04:AMPARAMS|DCode=79|XSize=1.0632mm|YSize=0.4732mm|CornerRadius=0.1354mm|HoleSize=0mm|Usage=FLASHONLY|Rotation=0.000|XOffset=0mm|YOffset=0mm|HoleType=Round|Shape=RoundedRectangle|*
%AMROUNDEDRECTD79*
21,1,1.0632,0.2025,0,0,0.0*
21,1,0.7925,0.4732,0,0,0.0*
1,1,0.2707,0.3963,-0.1013*
1,1,0.2707,-0.3963,-0.1013*
1,1,0.2707,-0.3963,0.1013*
1,1,0.2707,0.3963,0.1013*
%
%ADD79ROUNDEDRECTD79*%
%ADD80R,2.6532X2.6532*%
%ADD81R,0.5432X1.0032*%
%ADD82R,0.6232X0.8632*%
G04:AMPARAMS|DCode=83|XSize=3.2032mm|YSize=3.2032mm|CornerRadius=0.8516mm|HoleSize=0mm|Usage=FLASHONLY|Rotation=0.000|XOffset=0mm|YOffset=0mm|HoleType=Round|Shape=RoundedRectangle|*
%AMROUNDEDRECTD83*
21,1,3.2032,1.5000,0,0,0.0*
21,1,1.5000,3.2032,0,0,0.0*
1,1,1.7032,0.7500,-0.7500*
1,1,1.7032,-0.7500,-0.7500*
1,1,1.7032,-0.7500,0.7500*
1,1,1.7032,0.7500,0.7500*
%
%ADD83ROUNDEDRECTD83*%
%ADD84R,1.0032X0.5432*%
%ADD85R,0.8632X0.6232*%
%ADD86R,2.9032X1.5032*%
%ADD87R,1.2532X1.0032*%
%ADD88R,0.8532X1.0032*%
%ADD89R,1.0032X1.2532*%
%ADD90R,1.0032X0.8532*%
%ADD91R,1.7532X0.8032*%
%ADD92R,2.0032X1.4032*%
G04:AMPARAMS|DCode=93|XSize=0.9432mm|YSize=0.4832mm|CornerRadius=0.1366mm|HoleSize=0mm|Usage=FLASHONLY|Rotation=180.000|XOffset=0mm|YOffset=0mm|HoleType=Round|Shape=RoundedRectangle|*
%AMROUNDEDRECTD93*
21,1,0.9432,0.2100,0,0,180.0*
21,1,0.6700,0.4832,0,0,180.0*
1,1,0.2732,-0.3350,0.1050*
1,1,0.2732,0.3350,0.1050*
1,1,0.2732,0.3350,-0.1050*
1,1,0.2732,-0.3350,-0.1050*
%
%ADD93ROUNDEDRECTD93*%
%ADD94R,1.1032X1.8032*%
%ADD95R,0.4632X1.0632*%
%ADD96R,1.0632X0.4632*%
%ADD97R,6.2032X6.2032*%
G04:AMPARAMS|DCode=98|XSize=1.0032mm|YSize=0.5532mm|CornerRadius=0.1454mm|HoleSize=0mm|Usage=FLASHONLY|Rotation=180.000|XOffset=0mm|YOffset=0mm|HoleType=Round|Shape=RoundedRectangle|*
%AMROUNDEDRECTD98*
21,1,1.0032,0.2625,0,0,180.0*
21,1,0.7125,0.5532,0,0,180.0*
1,1,0.2907,-0.3563,0.1313*
1,1,0.2907,0.3563,0.1313*
1,1,0.2907,0.3563,-0.1313*
1,1,0.2907,-0.3563,-0.1313*
%
%ADD98ROUNDEDRECTD98*%
%ADD99R,2.9032X2.8032*%
G04:AMPARAMS|DCode=100|XSize=1.0532mm|YSize=0.5532mm|CornerRadius=0.1454mm|HoleSize=0mm|Usage=FLASHONLY|Rotation=270.000|XOffset=0mm|YOffset=0mm|HoleType=Round|Shape=RoundedRectangle|*
%AMROUNDEDRECTD100*
21,1,1.0532,0.2625,0,0,270.0*
21,1,0.7625,0.5532,0,0,270.0*
1,1,0.2907,-0.1313,-0.3813*
1,1,0.2907,-0.1313,0.3813*
1,1,0.2907,0.1313,0.3813*
1,1,0.2907,0.1313,-0.3813*
%
%ADD100ROUNDEDRECTD100*%
%ADD101R,1.6032X1.5032*%
G04:AMPARAMS|DCode=102|XSize=2.3432mm|YSize=1.2732mm|CornerRadius=0mm|HoleSize=0mm|Usage=FLASHONLY|Rotation=330.000|XOffset=0mm|YOffset=0mm|HoleType=Round|Shape=Round|*
%AMOVALD102*
21,1,1.0700,1.2732,0.0000,0.0000,330.0*
1,1,1.2732,-0.4633,0.2675*
1,1,1.2732,0.4633,-0.2675*
%
%ADD102OVALD102*%

%ADD103C,0.2032*%
%ADD104R,1.5032X1.5032*%
%ADD105C,1.5032*%
G04:AMPARAMS|DCode=106|XSize=2.3432mm|YSize=1.2732mm|CornerRadius=0mm|HoleSize=0mm|Usage=FLASHONLY|Rotation=210.000|XOffset=0mm|YOffset=0mm|HoleType=Round|Shape=Round|*
%AMOVALD106*
21,1,1.0700,1.2732,0.0000,0.0000,210.0*
1,1,1.2732,0.4633,0.2675*
1,1,1.2732,-0.4633,-0.2675*
%
%ADD106OVALD106*%

%ADD107O,1.2732X2.3432*%
%ADD108C,5.2032*%
%ADD109R,1.5032X1.5032*%
%ADD110C,0.9032*%
G36*
X198983Y55009D02*
X199114Y54983D01*
X199240Y54941D01*
X199359Y54882D01*
X199470Y54808D01*
X199570Y54720D01*
X199658Y54620D01*
X199732Y54509D01*
X199791Y54390D01*
X199834Y54264D01*
X199860Y54133D01*
X199868Y54000D01*
Y39518D01*
X204300D01*
X204433Y39509D01*
X204564Y39483D01*
X204690Y39441D01*
X204809Y39382D01*
X204920Y39308D01*
X205020Y39220D01*
X205108Y39120D01*
X205182Y39009D01*
X205241Y38890D01*
X205284Y38763D01*
X205310Y38633D01*
X205318Y38500D01*
Y32800D01*
X205310Y32667D01*
X205284Y32536D01*
X205241Y32410D01*
X205182Y32291D01*
X205108Y32180D01*
X205020Y32080D01*
X204920Y31992D01*
X204809Y31918D01*
X204690Y31859D01*
X204564Y31816D01*
X204433Y31790D01*
X204300Y31782D01*
X199868D01*
Y31000D01*
X199860Y30867D01*
X199834Y30736D01*
X199791Y30610D01*
X199732Y30491D01*
X199658Y30380D01*
X199570Y30280D01*
X199470Y30192D01*
X199359Y30118D01*
X199240Y30059D01*
X199114Y30017D01*
X198983Y29990D01*
X198850Y29982D01*
X175150D01*
X175017Y29990D01*
X174886Y30017D01*
X174760Y30059D01*
X174641Y30118D01*
X174530Y30192D01*
X174430Y30280D01*
X174342Y30380D01*
X174268Y30491D01*
X174209Y30610D01*
X174167Y30736D01*
X174140Y30867D01*
X174132Y31000D01*
Y31782D01*
X169700D01*
X169567Y31790D01*
X169436Y31816D01*
X169310Y31859D01*
X169191Y31918D01*
X169080Y31992D01*
X168980Y32080D01*
X168892Y32180D01*
X168818Y32291D01*
X168759Y32410D01*
X168717Y32536D01*
X168690Y32667D01*
X168682Y32800D01*
Y38500D01*
X168690Y38633D01*
X168717Y38763D01*
X168759Y38890D01*
X168818Y39009D01*
X168892Y39120D01*
X168980Y39220D01*
X169080Y39308D01*
X169191Y39382D01*
X169310Y39441D01*
X169436Y39483D01*
X169567Y39509D01*
X169700Y39518D01*
X174132D01*
Y54000D01*
X174140Y54133D01*
X174167Y54264D01*
X174209Y54390D01*
X174268Y54509D01*
X174342Y54620D01*
X174430Y54720D01*
X174530Y54808D01*
X174641Y54882D01*
X174760Y54941D01*
X174886Y54983D01*
X175017Y55009D01*
X175150Y55018D01*
X179350D01*
X179483Y55009D01*
X179613Y54983D01*
X179740Y54941D01*
X179859Y54882D01*
X179970Y54808D01*
X180070Y54720D01*
X180158Y54620D01*
X180232Y54509D01*
X180291Y54390D01*
X180333Y54264D01*
X180359Y54133D01*
X180368Y54000D01*
Y50318D01*
X180632D01*
Y54000D01*
X180641Y54133D01*
X180667Y54264D01*
X180709Y54390D01*
X180768Y54509D01*
X180842Y54620D01*
X180930Y54720D01*
X181030Y54808D01*
X181141Y54882D01*
X181260Y54941D01*
X181387Y54983D01*
X181517Y55009D01*
X181650Y55018D01*
X185850D01*
X185983Y55009D01*
X186113Y54983D01*
X186240Y54941D01*
X186359Y54882D01*
X186470Y54808D01*
X186570Y54720D01*
X186658Y54620D01*
X186732Y54509D01*
X186791Y54390D01*
X186833Y54264D01*
X186859Y54133D01*
X186868Y54000D01*
Y50318D01*
X187132D01*
Y54000D01*
X187141Y54133D01*
X187167Y54264D01*
X187209Y54390D01*
X187268Y54509D01*
X187342Y54620D01*
X187430Y54720D01*
X187530Y54808D01*
X187641Y54882D01*
X187760Y54941D01*
X187887Y54983D01*
X188017Y55009D01*
X188150Y55018D01*
X192350D01*
X192483Y55009D01*
X192614Y54983D01*
X192740Y54941D01*
X192859Y54882D01*
X192970Y54808D01*
X193070Y54720D01*
X193158Y54620D01*
X193232Y54509D01*
X193291Y54390D01*
X193333Y54264D01*
X193360Y54133D01*
X193368Y54000D01*
Y50318D01*
X193632D01*
Y54000D01*
X193640Y54133D01*
X193666Y54264D01*
X193709Y54390D01*
X193768Y54509D01*
X193842Y54620D01*
X193930Y54720D01*
X194030Y54808D01*
X194141Y54882D01*
X194260Y54941D01*
X194387Y54983D01*
X194517Y55009D01*
X194650Y55018D01*
X198850D01*
X198983Y55009D01*
D02*
G37*
G36*
X232333Y54309D02*
X232463Y54283D01*
X232590Y54241D01*
X232709Y54182D01*
X232820Y54108D01*
X232920Y54020D01*
X233008Y53920D01*
X233082Y53809D01*
X233141Y53690D01*
X233183Y53563D01*
X233209Y53433D01*
X233218Y53300D01*
Y48868D01*
X247700D01*
X247833Y48859D01*
X247964Y48833D01*
X248090Y48791D01*
X248209Y48732D01*
X248320Y48658D01*
X248420Y48570D01*
X248508Y48470D01*
X248582Y48359D01*
X248641Y48240D01*
X248683Y48113D01*
X248710Y47983D01*
X248718Y47850D01*
Y43650D01*
X248710Y43517D01*
X248683Y43386D01*
X248641Y43260D01*
X248582Y43141D01*
X248508Y43030D01*
X248420Y42930D01*
X248320Y42842D01*
X248209Y42768D01*
X248090Y42709D01*
X247964Y42667D01*
X247833Y42641D01*
X247700Y42632D01*
X244018D01*
Y42368D01*
X247700D01*
X247833Y42359D01*
X247964Y42333D01*
X248090Y42291D01*
X248209Y42232D01*
X248320Y42158D01*
X248420Y42070D01*
X248508Y41970D01*
X248582Y41859D01*
X248641Y41740D01*
X248683Y41613D01*
X248710Y41483D01*
X248718Y41350D01*
Y37150D01*
X248710Y37017D01*
X248683Y36886D01*
X248641Y36760D01*
X248582Y36641D01*
X248508Y36530D01*
X248420Y36430D01*
X248320Y36342D01*
X248209Y36268D01*
X248090Y36209D01*
X247964Y36167D01*
X247833Y36140D01*
X247700Y36132D01*
X244018D01*
Y35868D01*
X247700D01*
X247833Y35859D01*
X247964Y35833D01*
X248090Y35791D01*
X248209Y35732D01*
X248320Y35658D01*
X248420Y35570D01*
X248508Y35470D01*
X248582Y35359D01*
X248641Y35240D01*
X248683Y35113D01*
X248710Y34983D01*
X248718Y34850D01*
Y30650D01*
X248710Y30517D01*
X248683Y30386D01*
X248641Y30260D01*
X248582Y30141D01*
X248508Y30030D01*
X248420Y29930D01*
X248320Y29842D01*
X248209Y29768D01*
X248090Y29709D01*
X247964Y29667D01*
X247833Y29641D01*
X247700Y29632D01*
X244018D01*
Y29368D01*
X247700D01*
X247833Y29359D01*
X247964Y29333D01*
X248090Y29291D01*
X248209Y29232D01*
X248320Y29158D01*
X248420Y29070D01*
X248508Y28970D01*
X248582Y28859D01*
X248641Y28740D01*
X248683Y28614D01*
X248710Y28483D01*
X248718Y28350D01*
Y24150D01*
X248710Y24017D01*
X248683Y23886D01*
X248641Y23760D01*
X248582Y23641D01*
X248508Y23530D01*
X248420Y23430D01*
X248320Y23342D01*
X248209Y23268D01*
X248090Y23209D01*
X247964Y23166D01*
X247833Y23140D01*
X247700Y23132D01*
X233218D01*
Y18700D01*
X233209Y18567D01*
X233183Y18436D01*
X233141Y18310D01*
X233082Y18191D01*
X233008Y18080D01*
X232920Y17980D01*
X232820Y17892D01*
X232709Y17818D01*
X232590Y17759D01*
X232463Y17716D01*
X232333Y17691D01*
X232200Y17682D01*
X226500D01*
X226367Y17691D01*
X226236Y17716D01*
X226110Y17759D01*
X225991Y17818D01*
X225880Y17892D01*
X225780Y17980D01*
X225692Y18080D01*
X225618Y18191D01*
X225559Y18310D01*
X225516Y18436D01*
X225490Y18567D01*
X225482Y18700D01*
Y23132D01*
X224700D01*
X224567Y23140D01*
X224436Y23166D01*
X224310Y23209D01*
X224191Y23268D01*
X224080Y23342D01*
X223980Y23430D01*
X223892Y23530D01*
X223818Y23641D01*
X223759Y23760D01*
X223717Y23886D01*
X223690Y24017D01*
X223682Y24150D01*
Y47850D01*
X223690Y47983D01*
X223717Y48113D01*
X223759Y48240D01*
X223818Y48359D01*
X223892Y48470D01*
X223980Y48570D01*
X224080Y48658D01*
X224191Y48732D01*
X224310Y48791D01*
X224436Y48833D01*
X224567Y48859D01*
X224700Y48868D01*
X225482D01*
Y53300D01*
X225490Y53433D01*
X225516Y53563D01*
X225559Y53690D01*
X225618Y53809D01*
X225692Y53920D01*
X225780Y54020D01*
X225880Y54108D01*
X225991Y54182D01*
X226110Y54241D01*
X226236Y54283D01*
X226367Y54309D01*
X226500Y54318D01*
X232200D01*
X232333Y54309D01*
D02*
G37*
G36*
X198983Y14009D02*
X199114Y13983D01*
X199240Y13941D01*
X199359Y13882D01*
X199470Y13808D01*
X199570Y13720D01*
X199658Y13620D01*
X199732Y13509D01*
X199791Y13390D01*
X199834Y13263D01*
X199860Y13133D01*
X199868Y13000D01*
Y-1482D01*
X204300D01*
X204433Y-1491D01*
X204564Y-1517D01*
X204690Y-1559D01*
X204809Y-1618D01*
X204920Y-1692D01*
X205020Y-1780D01*
X205108Y-1880D01*
X205182Y-1991D01*
X205241Y-2110D01*
X205284Y-2236D01*
X205310Y-2367D01*
X205318Y-2500D01*
Y-8200D01*
X205310Y-8333D01*
X205284Y-8464D01*
X205241Y-8590D01*
X205182Y-8709D01*
X205108Y-8820D01*
X205020Y-8920D01*
X204920Y-9008D01*
X204809Y-9082D01*
X204690Y-9141D01*
X204564Y-9183D01*
X204433Y-9209D01*
X204300Y-9218D01*
X199868D01*
Y-10000D01*
X199860Y-10133D01*
X199834Y-10264D01*
X199791Y-10390D01*
X199732Y-10509D01*
X199658Y-10620D01*
X199570Y-10720D01*
X199470Y-10808D01*
X199359Y-10882D01*
X199240Y-10941D01*
X199114Y-10984D01*
X198983Y-11010D01*
X198850Y-11018D01*
X175150D01*
X175017Y-11010D01*
X174886Y-10984D01*
X174760Y-10941D01*
X174641Y-10882D01*
X174530Y-10808D01*
X174430Y-10720D01*
X174342Y-10620D01*
X174268Y-10509D01*
X174209Y-10390D01*
X174167Y-10264D01*
X174140Y-10133D01*
X174132Y-10000D01*
Y-9218D01*
X169700D01*
X169567Y-9209D01*
X169436Y-9183D01*
X169310Y-9141D01*
X169191Y-9082D01*
X169080Y-9008D01*
X168980Y-8920D01*
X168892Y-8820D01*
X168818Y-8709D01*
X168759Y-8590D01*
X168717Y-8464D01*
X168690Y-8333D01*
X168682Y-8200D01*
Y-2500D01*
X168690Y-2367D01*
X168717Y-2236D01*
X168759Y-2110D01*
X168818Y-1991D01*
X168892Y-1880D01*
X168980Y-1780D01*
X169080Y-1692D01*
X169191Y-1618D01*
X169310Y-1559D01*
X169436Y-1517D01*
X169567Y-1491D01*
X169700Y-1482D01*
X174132D01*
Y13000D01*
X174140Y13133D01*
X174167Y13263D01*
X174209Y13390D01*
X174268Y13509D01*
X174342Y13620D01*
X174430Y13720D01*
X174530Y13808D01*
X174641Y13882D01*
X174760Y13941D01*
X174886Y13983D01*
X175017Y14009D01*
X175150Y14018D01*
X179350D01*
X179483Y14009D01*
X179613Y13983D01*
X179740Y13941D01*
X179859Y13882D01*
X179970Y13808D01*
X180070Y13720D01*
X180158Y13620D01*
X180232Y13509D01*
X180291Y13390D01*
X180333Y13263D01*
X180359Y13133D01*
X180368Y13000D01*
Y9318D01*
X180632D01*
Y13000D01*
X180641Y13133D01*
X180667Y13263D01*
X180709Y13390D01*
X180768Y13509D01*
X180842Y13620D01*
X180930Y13720D01*
X181030Y13808D01*
X181141Y13882D01*
X181260Y13941D01*
X181387Y13983D01*
X181517Y14009D01*
X181650Y14018D01*
X185850D01*
X185983Y14009D01*
X186113Y13983D01*
X186240Y13941D01*
X186359Y13882D01*
X186470Y13808D01*
X186570Y13720D01*
X186658Y13620D01*
X186732Y13509D01*
X186791Y13390D01*
X186833Y13263D01*
X186859Y13133D01*
X186868Y13000D01*
Y9318D01*
X187132D01*
Y13000D01*
X187141Y13133D01*
X187167Y13263D01*
X187209Y13390D01*
X187268Y13509D01*
X187342Y13620D01*
X187430Y13720D01*
X187530Y13808D01*
X187641Y13882D01*
X187760Y13941D01*
X187887Y13983D01*
X188017Y14009D01*
X188150Y14018D01*
X192350D01*
X192483Y14009D01*
X192614Y13983D01*
X192740Y13941D01*
X192859Y13882D01*
X192970Y13808D01*
X193070Y13720D01*
X193158Y13620D01*
X193232Y13509D01*
X193291Y13390D01*
X193333Y13263D01*
X193360Y13133D01*
X193368Y13000D01*
Y9318D01*
X193632D01*
Y13000D01*
X193640Y13133D01*
X193666Y13263D01*
X193709Y13390D01*
X193768Y13509D01*
X193842Y13620D01*
X193930Y13720D01*
X194030Y13808D01*
X194141Y13882D01*
X194260Y13941D01*
X194387Y13983D01*
X194517Y14009D01*
X194650Y14018D01*
X198850D01*
X198983Y14009D01*
D02*
G37*
G36*
X232333Y13309D02*
X232463Y13283D01*
X232590Y13241D01*
X232709Y13182D01*
X232820Y13108D01*
X232920Y13020D01*
X233008Y12920D01*
X233082Y12809D01*
X233141Y12690D01*
X233183Y12564D01*
X233209Y12433D01*
X233218Y12300D01*
Y7868D01*
X247700D01*
X247833Y7859D01*
X247964Y7833D01*
X248090Y7791D01*
X248209Y7732D01*
X248320Y7658D01*
X248420Y7570D01*
X248508Y7470D01*
X248582Y7359D01*
X248641Y7240D01*
X248683Y7114D01*
X248710Y6983D01*
X248718Y6850D01*
Y2650D01*
X248710Y2517D01*
X248683Y2386D01*
X248641Y2260D01*
X248582Y2141D01*
X248508Y2030D01*
X248420Y1930D01*
X248320Y1842D01*
X248209Y1768D01*
X248090Y1709D01*
X247964Y1666D01*
X247833Y1640D01*
X247700Y1632D01*
X244018D01*
Y1368D01*
X247700D01*
X247833Y1359D01*
X247964Y1333D01*
X248090Y1291D01*
X248209Y1232D01*
X248320Y1158D01*
X248420Y1070D01*
X248508Y970D01*
X248582Y859D01*
X248641Y740D01*
X248683Y613D01*
X248710Y483D01*
X248718Y350D01*
Y-3850D01*
X248710Y-3983D01*
X248683Y-4114D01*
X248641Y-4240D01*
X248582Y-4359D01*
X248508Y-4470D01*
X248420Y-4570D01*
X248320Y-4658D01*
X248209Y-4732D01*
X248090Y-4791D01*
X247964Y-4834D01*
X247833Y-4859D01*
X247700Y-4868D01*
X244018D01*
Y-5132D01*
X247700D01*
X247833Y-5141D01*
X247964Y-5167D01*
X248090Y-5209D01*
X248209Y-5268D01*
X248320Y-5342D01*
X248420Y-5430D01*
X248508Y-5530D01*
X248582Y-5641D01*
X248641Y-5760D01*
X248683Y-5886D01*
X248710Y-6017D01*
X248718Y-6150D01*
Y-10350D01*
X248710Y-10483D01*
X248683Y-10614D01*
X248641Y-10740D01*
X248582Y-10859D01*
X248508Y-10970D01*
X248420Y-11070D01*
X248320Y-11158D01*
X248209Y-11232D01*
X248090Y-11291D01*
X247964Y-11334D01*
X247833Y-11359D01*
X247700Y-11368D01*
X244018D01*
Y-11632D01*
X247700D01*
X247833Y-11641D01*
X247964Y-11667D01*
X248090Y-11709D01*
X248209Y-11768D01*
X248320Y-11842D01*
X248420Y-11930D01*
X248508Y-12030D01*
X248582Y-12141D01*
X248641Y-12260D01*
X248683Y-12386D01*
X248710Y-12517D01*
X248718Y-12650D01*
Y-16850D01*
X248710Y-16983D01*
X248683Y-17114D01*
X248641Y-17240D01*
X248582Y-17359D01*
X248508Y-17470D01*
X248420Y-17570D01*
X248320Y-17658D01*
X248209Y-17732D01*
X248090Y-17791D01*
X247964Y-17833D01*
X247833Y-17859D01*
X247700Y-17868D01*
X233218D01*
Y-22300D01*
X233209Y-22433D01*
X233183Y-22564D01*
X233141Y-22690D01*
X233082Y-22809D01*
X233008Y-22920D01*
X232920Y-23020D01*
X232820Y-23108D01*
X232709Y-23182D01*
X232590Y-23241D01*
X232463Y-23284D01*
X232333Y-23310D01*
X232200Y-23318D01*
X226500D01*
X226367Y-23310D01*
X226236Y-23284D01*
X226110Y-23241D01*
X225991Y-23182D01*
X225880Y-23108D01*
X225780Y-23020D01*
X225692Y-22920D01*
X225618Y-22809D01*
X225559Y-22690D01*
X225516Y-22564D01*
X225490Y-22433D01*
X225482Y-22300D01*
Y-17868D01*
X224700D01*
X224567Y-17859D01*
X224436Y-17833D01*
X224310Y-17791D01*
X224191Y-17732D01*
X224080Y-17658D01*
X223980Y-17570D01*
X223892Y-17470D01*
X223818Y-17359D01*
X223759Y-17240D01*
X223717Y-17114D01*
X223690Y-16983D01*
X223682Y-16850D01*
Y6850D01*
X223690Y6983D01*
X223717Y7114D01*
X223759Y7240D01*
X223818Y7359D01*
X223892Y7470D01*
X223980Y7570D01*
X224080Y7658D01*
X224191Y7732D01*
X224310Y7791D01*
X224436Y7833D01*
X224567Y7859D01*
X224700Y7868D01*
X225482D01*
Y12300D01*
X225490Y12433D01*
X225516Y12564D01*
X225559Y12690D01*
X225618Y12809D01*
X225692Y12920D01*
X225780Y13020D01*
X225880Y13108D01*
X225991Y13182D01*
X226110Y13241D01*
X226236Y13283D01*
X226367Y13309D01*
X226500Y13318D01*
X232200D01*
X232333Y13309D01*
D02*
G37*
G36*
X198983Y-26991D02*
X199114Y-27017D01*
X199240Y-27059D01*
X199359Y-27118D01*
X199470Y-27192D01*
X199570Y-27280D01*
X199658Y-27380D01*
X199732Y-27491D01*
X199791Y-27610D01*
X199834Y-27737D01*
X199860Y-27867D01*
X199868Y-28000D01*
Y-42482D01*
X204300D01*
X204433Y-42491D01*
X204564Y-42517D01*
X204690Y-42559D01*
X204809Y-42618D01*
X204920Y-42692D01*
X205020Y-42780D01*
X205108Y-42880D01*
X205182Y-42991D01*
X205241Y-43110D01*
X205284Y-43237D01*
X205310Y-43367D01*
X205318Y-43500D01*
Y-49200D01*
X205310Y-49333D01*
X205284Y-49464D01*
X205241Y-49590D01*
X205182Y-49709D01*
X205108Y-49820D01*
X205020Y-49920D01*
X204920Y-50008D01*
X204809Y-50082D01*
X204690Y-50141D01*
X204564Y-50184D01*
X204433Y-50210D01*
X204300Y-50218D01*
X199868D01*
Y-51000D01*
X199860Y-51133D01*
X199834Y-51264D01*
X199791Y-51390D01*
X199732Y-51509D01*
X199658Y-51620D01*
X199570Y-51720D01*
X199470Y-51808D01*
X199359Y-51882D01*
X199240Y-51941D01*
X199114Y-51984D01*
X198983Y-52010D01*
X198850Y-52018D01*
X175150D01*
X175017Y-52010D01*
X174886Y-51984D01*
X174760Y-51941D01*
X174641Y-51882D01*
X174530Y-51808D01*
X174430Y-51720D01*
X174342Y-51620D01*
X174268Y-51509D01*
X174209Y-51390D01*
X174167Y-51264D01*
X174140Y-51133D01*
X174132Y-51000D01*
Y-50218D01*
X169700D01*
X169567Y-50210D01*
X169436Y-50184D01*
X169310Y-50141D01*
X169191Y-50082D01*
X169080Y-50008D01*
X168980Y-49920D01*
X168892Y-49820D01*
X168818Y-49709D01*
X168759Y-49590D01*
X168717Y-49464D01*
X168690Y-49333D01*
X168682Y-49200D01*
Y-43500D01*
X168690Y-43367D01*
X168717Y-43237D01*
X168759Y-43110D01*
X168818Y-42991D01*
X168892Y-42880D01*
X168980Y-42780D01*
X169080Y-42692D01*
X169191Y-42618D01*
X169310Y-42559D01*
X169436Y-42517D01*
X169567Y-42491D01*
X169700Y-42482D01*
X174132D01*
Y-28000D01*
X174140Y-27867D01*
X174167Y-27737D01*
X174209Y-27610D01*
X174268Y-27491D01*
X174342Y-27380D01*
X174430Y-27280D01*
X174530Y-27192D01*
X174641Y-27118D01*
X174760Y-27059D01*
X174886Y-27017D01*
X175017Y-26991D01*
X175150Y-26982D01*
X179350D01*
X179483Y-26991D01*
X179613Y-27017D01*
X179740Y-27059D01*
X179859Y-27118D01*
X179970Y-27192D01*
X180070Y-27280D01*
X180158Y-27380D01*
X180232Y-27491D01*
X180291Y-27610D01*
X180333Y-27737D01*
X180359Y-27867D01*
X180368Y-28000D01*
Y-31682D01*
X180632D01*
Y-28000D01*
X180641Y-27867D01*
X180667Y-27737D01*
X180709Y-27610D01*
X180768Y-27491D01*
X180842Y-27380D01*
X180930Y-27280D01*
X181030Y-27192D01*
X181141Y-27118D01*
X181260Y-27059D01*
X181387Y-27017D01*
X181517Y-26991D01*
X181650Y-26982D01*
X185850D01*
X185983Y-26991D01*
X186113Y-27017D01*
X186240Y-27059D01*
X186359Y-27118D01*
X186470Y-27192D01*
X186570Y-27280D01*
X186658Y-27380D01*
X186732Y-27491D01*
X186791Y-27610D01*
X186833Y-27737D01*
X186859Y-27867D01*
X186868Y-28000D01*
Y-31682D01*
X187132D01*
Y-28000D01*
X187141Y-27867D01*
X187167Y-27737D01*
X187209Y-27610D01*
X187268Y-27491D01*
X187342Y-27380D01*
X187430Y-27280D01*
X187530Y-27192D01*
X187641Y-27118D01*
X187760Y-27059D01*
X187887Y-27017D01*
X188017Y-26991D01*
X188150Y-26982D01*
X192350D01*
X192483Y-26991D01*
X192614Y-27017D01*
X192740Y-27059D01*
X192859Y-27118D01*
X192970Y-27192D01*
X193070Y-27280D01*
X193158Y-27380D01*
X193232Y-27491D01*
X193291Y-27610D01*
X193333Y-27737D01*
X193360Y-27867D01*
X193368Y-28000D01*
Y-31682D01*
X193632D01*
Y-28000D01*
X193640Y-27867D01*
X193666Y-27737D01*
X193709Y-27610D01*
X193768Y-27491D01*
X193842Y-27380D01*
X193930Y-27280D01*
X194030Y-27192D01*
X194141Y-27118D01*
X194260Y-27059D01*
X194387Y-27017D01*
X194517Y-26991D01*
X194650Y-26982D01*
X198850D01*
X198983Y-26991D01*
D02*
G37*
G36*
X232333Y-27691D02*
X232463Y-27717D01*
X232590Y-27759D01*
X232709Y-27818D01*
X232820Y-27892D01*
X232920Y-27980D01*
X233008Y-28080D01*
X233082Y-28191D01*
X233141Y-28310D01*
X233183Y-28437D01*
X233209Y-28567D01*
X233218Y-28700D01*
Y-33132D01*
X247700D01*
X247833Y-33141D01*
X247964Y-33167D01*
X248090Y-33209D01*
X248209Y-33268D01*
X248320Y-33342D01*
X248420Y-33430D01*
X248508Y-33530D01*
X248582Y-33641D01*
X248641Y-33760D01*
X248683Y-33887D01*
X248710Y-34017D01*
X248718Y-34150D01*
Y-38350D01*
X248710Y-38483D01*
X248683Y-38614D01*
X248641Y-38740D01*
X248582Y-38859D01*
X248508Y-38970D01*
X248420Y-39070D01*
X248320Y-39158D01*
X248209Y-39232D01*
X248090Y-39291D01*
X247964Y-39334D01*
X247833Y-39360D01*
X247700Y-39368D01*
X244018D01*
Y-39632D01*
X247700D01*
X247833Y-39641D01*
X247964Y-39667D01*
X248090Y-39709D01*
X248209Y-39768D01*
X248320Y-39842D01*
X248420Y-39930D01*
X248508Y-40030D01*
X248582Y-40141D01*
X248641Y-40260D01*
X248683Y-40387D01*
X248710Y-40517D01*
X248718Y-40650D01*
Y-44850D01*
X248710Y-44983D01*
X248683Y-45114D01*
X248641Y-45240D01*
X248582Y-45359D01*
X248508Y-45470D01*
X248420Y-45570D01*
X248320Y-45658D01*
X248209Y-45732D01*
X248090Y-45791D01*
X247964Y-45834D01*
X247833Y-45859D01*
X247700Y-45868D01*
X244018D01*
Y-46132D01*
X247700D01*
X247833Y-46141D01*
X247964Y-46167D01*
X248090Y-46209D01*
X248209Y-46268D01*
X248320Y-46342D01*
X248420Y-46430D01*
X248508Y-46530D01*
X248582Y-46641D01*
X248641Y-46761D01*
X248683Y-46887D01*
X248710Y-47017D01*
X248718Y-47150D01*
Y-51350D01*
X248710Y-51483D01*
X248683Y-51614D01*
X248641Y-51740D01*
X248582Y-51859D01*
X248508Y-51970D01*
X248420Y-52070D01*
X248320Y-52158D01*
X248209Y-52232D01*
X248090Y-52291D01*
X247964Y-52334D01*
X247833Y-52360D01*
X247700Y-52368D01*
X244018D01*
Y-52632D01*
X247700D01*
X247833Y-52641D01*
X247964Y-52667D01*
X248090Y-52709D01*
X248209Y-52768D01*
X248320Y-52842D01*
X248420Y-52930D01*
X248508Y-53030D01*
X248582Y-53141D01*
X248641Y-53260D01*
X248683Y-53387D01*
X248710Y-53517D01*
X248718Y-53650D01*
Y-57850D01*
X248710Y-57983D01*
X248683Y-58114D01*
X248641Y-58240D01*
X248582Y-58359D01*
X248508Y-58470D01*
X248420Y-58570D01*
X248320Y-58658D01*
X248209Y-58732D01*
X248090Y-58791D01*
X247964Y-58834D01*
X247833Y-58860D01*
X247700Y-58868D01*
X233218D01*
Y-63300D01*
X233209Y-63433D01*
X233183Y-63564D01*
X233141Y-63690D01*
X233082Y-63809D01*
X233008Y-63920D01*
X232920Y-64020D01*
X232820Y-64108D01*
X232709Y-64182D01*
X232590Y-64241D01*
X232463Y-64284D01*
X232333Y-64310D01*
X232200Y-64318D01*
X226500D01*
X226367Y-64310D01*
X226236Y-64284D01*
X226110Y-64241D01*
X225991Y-64182D01*
X225880Y-64108D01*
X225780Y-64020D01*
X225692Y-63920D01*
X225618Y-63809D01*
X225559Y-63690D01*
X225516Y-63564D01*
X225490Y-63433D01*
X225482Y-63300D01*
Y-58868D01*
X224700D01*
X224567Y-58860D01*
X224436Y-58834D01*
X224310Y-58791D01*
X224191Y-58732D01*
X224080Y-58658D01*
X223980Y-58570D01*
X223892Y-58470D01*
X223818Y-58359D01*
X223759Y-58240D01*
X223717Y-58114D01*
X223690Y-57983D01*
X223682Y-57850D01*
Y-34150D01*
X223690Y-34017D01*
X223717Y-33887D01*
X223759Y-33760D01*
X223818Y-33641D01*
X223892Y-33530D01*
X223980Y-33430D01*
X224080Y-33342D01*
X224191Y-33268D01*
X224310Y-33209D01*
X224436Y-33167D01*
X224567Y-33141D01*
X224700Y-33132D01*
X225482D01*
Y-28700D01*
X225490Y-28567D01*
X225516Y-28437D01*
X225559Y-28310D01*
X225618Y-28191D01*
X225692Y-28080D01*
X225780Y-27980D01*
X225880Y-27892D01*
X225991Y-27818D01*
X226110Y-27759D01*
X226236Y-27717D01*
X226367Y-27691D01*
X226500Y-27682D01*
X232200D01*
X232333Y-27691D01*
D02*
G37*
D61*
X20000Y183375D02*
D03*
X0D02*
D03*
X-20000D02*
D03*
X-10000D02*
D03*
X10000D02*
D03*
D62*
X33000Y208625D02*
D03*
X-33000D02*
D03*
D63*
X88600Y158000D02*
D03*
X97400D02*
D03*
X88600Y138000D02*
D03*
X97400D02*
D03*
X258600Y258000D02*
D03*
X267400D02*
D03*
X238600D02*
D03*
X247400D02*
D03*
X-69600Y177000D02*
D03*
X-78400D02*
D03*
X88600Y180000D02*
D03*
X97400D02*
D03*
X82400Y284000D02*
D03*
X73600D02*
D03*
X106400Y347000D02*
D03*
X97600D02*
D03*
X2600Y143000D02*
D03*
X11400D02*
D03*
X161400Y144000D02*
D03*
X152600D02*
D03*
X148600Y256000D02*
D03*
X157400D02*
D03*
X186400D02*
D03*
X177600D02*
D03*
X220400Y144000D02*
D03*
X211600D02*
D03*
D64*
X87250Y168000D02*
D03*
X98750D02*
D03*
X77750Y249000D02*
D03*
X66250D02*
D03*
X77750Y239000D02*
D03*
X66250D02*
D03*
X-68000Y187000D02*
D03*
X-79500D02*
D03*
X146750Y276000D02*
D03*
X135250D02*
D03*
X87250Y148000D02*
D03*
X98750D02*
D03*
X87250Y190000D02*
D03*
X98750D02*
D03*
X146750Y266000D02*
D03*
X135250D02*
D03*
X160750Y109000D02*
D03*
X149250D02*
D03*
X224250Y158000D02*
D03*
X235750D02*
D03*
Y209000D02*
D03*
X224250D02*
D03*
X126250Y109000D02*
D03*
X137750D02*
D03*
X115000D02*
D03*
X103500D02*
D03*
D65*
X283500Y68850D02*
D03*
X293500D02*
D03*
X288500D02*
D03*
X278500D02*
D03*
Y49150D02*
D03*
X283500D02*
D03*
X288500D02*
D03*
X293500D02*
D03*
Y84150D02*
D03*
X288500D02*
D03*
X283500D02*
D03*
X278500D02*
D03*
Y103850D02*
D03*
X283500D02*
D03*
X288500D02*
D03*
X293500D02*
D03*
D66*
X286000Y59000D02*
D03*
Y94000D02*
D03*
D67*
X303000Y89600D02*
D03*
Y98400D02*
D03*
X302000Y63400D02*
D03*
Y54600D02*
D03*
X-61000Y163400D02*
D03*
Y154600D02*
D03*
X-91000Y185400D02*
D03*
Y176600D02*
D03*
X-71000Y163400D02*
D03*
Y154600D02*
D03*
X-132000Y182400D02*
D03*
Y173600D02*
D03*
X81000Y354400D02*
D03*
Y345600D02*
D03*
X60000Y319400D02*
D03*
Y310600D02*
D03*
X224000Y198400D02*
D03*
Y189600D02*
D03*
X101000Y209400D02*
D03*
Y200600D02*
D03*
X214000Y208400D02*
D03*
Y199600D02*
D03*
X173000Y106400D02*
D03*
Y97600D02*
D03*
X237000Y109600D02*
D03*
Y118400D02*
D03*
Y89600D02*
D03*
Y98400D02*
D03*
D68*
X228000Y258250D02*
D03*
Y269750D02*
D03*
X50000Y288250D02*
D03*
Y299750D02*
D03*
X178000Y65250D02*
D03*
Y76750D02*
D03*
X188000D02*
D03*
Y65250D02*
D03*
X-81000Y165500D02*
D03*
Y154000D02*
D03*
X-91000Y165500D02*
D03*
Y154000D02*
D03*
X26000Y144250D02*
D03*
Y155750D02*
D03*
X208000Y65250D02*
D03*
Y76750D02*
D03*
X218000Y65250D02*
D03*
Y76750D02*
D03*
X228000D02*
D03*
Y65250D02*
D03*
X198000Y76750D02*
D03*
Y65250D02*
D03*
X157000Y97750D02*
D03*
Y86250D02*
D03*
X137000Y97750D02*
D03*
Y86250D02*
D03*
X117000Y97750D02*
D03*
Y86250D02*
D03*
X147000D02*
D03*
Y97750D02*
D03*
X127000Y86250D02*
D03*
Y97750D02*
D03*
X107000Y86250D02*
D03*
Y97750D02*
D03*
D69*
X330750Y106000D02*
D03*
X391250D02*
D03*
D70*
X-70250Y205000D02*
D03*
X-95750D02*
D03*
D71*
X-121500Y161150D02*
D03*
X-112000D02*
D03*
X-102500D02*
D03*
X-121500Y184850D02*
D03*
X-112000D02*
D03*
X-102500D02*
D03*
D72*
X-154875Y-90020D02*
D03*
X-149125Y-99980D02*
D03*
D73*
X151125Y-93980D02*
D03*
X156875Y-84020D02*
D03*
D74*
X-123800Y-69811D02*
D03*
X-128200Y-62189D02*
D03*
D75*
X128200Y-61189D02*
D03*
X123800Y-68811D02*
D03*
D76*
X55000Y191000D02*
D03*
X68000D02*
D03*
D77*
X53500Y205000D02*
D03*
X68500D02*
D03*
X249500Y158000D02*
D03*
X264500D02*
D03*
D78*
X190000Y91000D02*
D03*
X195000D02*
D03*
X200000D02*
D03*
X205000D02*
D03*
X210000D02*
D03*
X215000D02*
D03*
Y129700D02*
D03*
X210000D02*
D03*
X205000D02*
D03*
X200000D02*
D03*
X195000D02*
D03*
X190000D02*
D03*
D79*
X183150Y122850D02*
D03*
Y117850D02*
D03*
Y112850D02*
D03*
Y107850D02*
D03*
Y102850D02*
D03*
Y97850D02*
D03*
X221850D02*
D03*
Y102850D02*
D03*
Y107850D02*
D03*
Y112850D02*
D03*
Y117850D02*
D03*
Y122850D02*
D03*
D80*
X202500Y110350D02*
D03*
D81*
X196750Y-33000D02*
D03*
X190250D02*
D03*
X183750D02*
D03*
X177250D02*
D03*
X196750Y49000D02*
D03*
X190250D02*
D03*
X183750D02*
D03*
X177250D02*
D03*
X196750Y8000D02*
D03*
X190250D02*
D03*
X183750D02*
D03*
X177250D02*
D03*
D82*
X190250Y-60700D02*
D03*
X183750D02*
D03*
X196750D02*
D03*
X177250D02*
D03*
X190250Y21300D02*
D03*
X183750D02*
D03*
X196750D02*
D03*
X177250D02*
D03*
X190250Y-19700D02*
D03*
X183750D02*
D03*
X196750D02*
D03*
X177250D02*
D03*
D83*
X151000Y-41000D02*
D03*
Y0D02*
D03*
Y41000D02*
D03*
D84*
X242700Y-55750D02*
D03*
Y-49250D02*
D03*
Y-42750D02*
D03*
Y-36250D02*
D03*
Y26250D02*
D03*
Y32750D02*
D03*
Y39250D02*
D03*
Y45750D02*
D03*
Y-14750D02*
D03*
Y-8250D02*
D03*
Y-1750D02*
D03*
Y4750D02*
D03*
D85*
X215000Y-49250D02*
D03*
Y-42750D02*
D03*
Y-55750D02*
D03*
Y-36250D02*
D03*
Y32750D02*
D03*
Y39250D02*
D03*
Y26250D02*
D03*
Y45750D02*
D03*
Y-8250D02*
D03*
Y-1750D02*
D03*
Y-14750D02*
D03*
Y4750D02*
D03*
D86*
X268000Y-15000D02*
D03*
Y-43000D02*
D03*
Y5000D02*
D03*
Y33000D02*
D03*
D87*
X234750Y130000D02*
D03*
D88*
X245250D02*
D03*
D89*
X248000Y117250D02*
D03*
Y95250D02*
D03*
D90*
Y106750D02*
D03*
Y84750D02*
D03*
D91*
X398680Y236000D02*
D03*
Y266000D02*
D03*
Y256000D02*
D03*
Y246000D02*
D03*
Y226000D02*
D03*
D92*
X437430Y279000D02*
D03*
Y213000D02*
D03*
D93*
X256850Y267500D02*
D03*
Y272500D02*
D03*
Y277500D02*
D03*
Y282500D02*
D03*
X237150D02*
D03*
Y277500D02*
D03*
Y272500D02*
D03*
Y267500D02*
D03*
D94*
X247000Y275000D02*
D03*
D95*
X145000Y244000D02*
D03*
X195000D02*
D03*
X190000D02*
D03*
X185000D02*
D03*
X180000D02*
D03*
X175000D02*
D03*
X170000D02*
D03*
X165000D02*
D03*
X160000D02*
D03*
X155000D02*
D03*
X150000D02*
D03*
X140000D02*
D03*
X135000D02*
D03*
X130000D02*
D03*
X125000D02*
D03*
X120000D02*
D03*
Y155300D02*
D03*
X125000D02*
D03*
X130000D02*
D03*
X135000D02*
D03*
X140000D02*
D03*
X145000D02*
D03*
X150000D02*
D03*
X155000D02*
D03*
X160000D02*
D03*
X165000D02*
D03*
X170000D02*
D03*
X175000D02*
D03*
X180000D02*
D03*
X185000D02*
D03*
X190000D02*
D03*
X195000D02*
D03*
D96*
X201850Y237150D02*
D03*
Y162150D02*
D03*
Y167150D02*
D03*
Y172150D02*
D03*
Y177150D02*
D03*
Y182150D02*
D03*
Y187150D02*
D03*
Y192150D02*
D03*
Y197150D02*
D03*
Y202150D02*
D03*
Y207150D02*
D03*
Y212150D02*
D03*
Y217150D02*
D03*
Y222150D02*
D03*
Y227150D02*
D03*
Y232150D02*
D03*
X113150Y237150D02*
D03*
Y232150D02*
D03*
Y227150D02*
D03*
Y222150D02*
D03*
Y217150D02*
D03*
Y212150D02*
D03*
Y207150D02*
D03*
Y202150D02*
D03*
Y197150D02*
D03*
Y192150D02*
D03*
Y187150D02*
D03*
Y182150D02*
D03*
Y177150D02*
D03*
Y172150D02*
D03*
Y167150D02*
D03*
Y162150D02*
D03*
D97*
X157500Y199650D02*
D03*
D98*
X112000Y302000D02*
D03*
Y307000D02*
D03*
Y312000D02*
D03*
Y317000D02*
D03*
Y322000D02*
D03*
Y327000D02*
D03*
X72000D02*
D03*
Y322000D02*
D03*
Y317000D02*
D03*
Y312000D02*
D03*
Y307000D02*
D03*
Y302000D02*
D03*
D99*
X92000Y314500D02*
D03*
D100*
X104500Y334250D02*
D03*
X99500D02*
D03*
X94500D02*
D03*
X89500D02*
D03*
X84500D02*
D03*
X79500D02*
D03*
Y294750D02*
D03*
X84500D02*
D03*
X89500D02*
D03*
X94500D02*
D03*
X99500D02*
D03*
X104500D02*
D03*
D101*
X-146000Y171000D02*
D03*
Y187000D02*
D03*
D102*
X144914Y-69001D02*
D03*
X132214Y-90998D02*
D03*
X138564Y-80000D02*
D03*
D103*
X-69000Y69000D02*
D03*
X69000D02*
D03*
Y-69000D02*
D03*
X-69000D02*
D03*
X0Y0D02*
D03*
Y-95000D02*
D03*
Y95000D02*
D03*
X-80000Y0D02*
D03*
X80000D02*
D03*
D104*
X352000Y64000D02*
D03*
X182000Y323000D02*
D03*
X-108000Y258000D02*
D03*
X230000Y-146300D02*
D03*
X-70000D02*
D03*
D105*
X372000Y64000D02*
D03*
X242000Y323000D02*
D03*
X222000D02*
D03*
X202000D02*
D03*
X-88000Y258000D02*
D03*
X-68000D02*
D03*
X-190500Y-30000D02*
D03*
Y-50000D02*
D03*
X-170500Y-30000D02*
D03*
Y-50000D02*
D03*
X-190500Y-70000D02*
D03*
Y270000D02*
D03*
Y250000D02*
D03*
X-170500Y270000D02*
D03*
Y250000D02*
D03*
X-190500Y230000D02*
D03*
X270000Y-126300D02*
D03*
X250000D02*
D03*
X270000Y-146300D02*
D03*
X250000D02*
D03*
X230000Y-126300D02*
D03*
X-30000D02*
D03*
X-50000D02*
D03*
X-30000Y-146300D02*
D03*
X-50000D02*
D03*
X-70000Y-126300D02*
D03*
D106*
X-132214Y-90998D02*
D03*
X-144914Y-69001D02*
D03*
X-138564Y-80000D02*
D03*
D107*
X0Y160000D02*
D03*
X12700D02*
D03*
X-12700D02*
D03*
D108*
X0Y420000D02*
D03*
X420000Y0D02*
D03*
X370000Y370000D02*
D03*
D109*
X-170500Y-70000D02*
D03*
Y230000D02*
D03*
D110*
X370000Y390000D02*
D03*
Y350000D02*
D03*
X350000Y369000D02*
D03*
X390000D02*
D03*
X384000Y383000D02*
D03*
X355000Y382000D02*
D03*
X357000Y355000D02*
D03*
X384000Y356000D02*
D03*
X420000Y20000D02*
D03*
Y-20000D02*
D03*
X400000Y-1000D02*
D03*
X440000D02*
D03*
X434000Y13000D02*
D03*
X405000Y12000D02*
D03*
X407000Y-15000D02*
D03*
X434000Y-14000D02*
D03*
X14000Y406000D02*
D03*
X-13000Y405000D02*
D03*
X-15000Y432000D02*
D03*
X14000Y433000D02*
D03*
X20000Y419000D02*
D03*
X-20000D02*
D03*
X0Y400000D02*
D03*
Y440000D02*
D03*
M02*
