G04*
G04 #@! TF.GenerationSoftware,Altium Limited,Altium Designer,24.4.1 (13)*
G04*
G04 Layer_Physical_Order=4*
G04 Layer_Color=16711680*
%FSLAX44Y44*%
%MOMM*%
G71*
G04*
G04 #@! TF.SameCoordinates,D346328A-3EA5-4E80-806F-D0F93F3E7631*
G04*
G04*
G04 #@! TF.FilePolarity,Positive*
G04*
G01*
G75*
%ADD15C,0.2540*%
%ADD18C,0.1270*%
%ADD26R,0.7500X0.6000*%
%ADD29R,0.6000X0.7500*%
%ADD116C,0.4500*%
G04:AMPARAMS|DCode=117|XSize=2.14mm|YSize=1.07mm|CornerRadius=0mm|HoleSize=0mm|Usage=FLASHONLY|Rotation=330.000|XOffset=0mm|YOffset=0mm|HoleType=Round|Shape=Round|*
%AMOVALD117*
21,1,1.0700,1.0700,0.0000,0.0000,330.0*
1,1,1.0700,-0.4633,0.2675*
1,1,1.0700,0.4633,-0.2675*
%
%ADD117OVALD117*%

%ADD118R,1.3000X1.3000*%
%ADD119C,1.3000*%
G04:AMPARAMS|DCode=120|XSize=2.14mm|YSize=1.07mm|CornerRadius=0mm|HoleSize=0mm|Usage=FLASHONLY|Rotation=210.000|XOffset=0mm|YOffset=0mm|HoleType=Round|Shape=Round|*
%AMOVALD120*
21,1,1.0700,1.0700,0.0000,0.0000,210.0*
1,1,1.0700,0.4633,0.2675*
1,1,1.0700,-0.4633,-0.2675*
%
%ADD120OVALD120*%

%ADD121O,1.0700X2.1400*%
%ADD122C,5.0000*%
%ADD123R,1.3000X1.3000*%
%ADD124C,0.4500*%
%ADD125C,0.7000*%
%ADD126R,0.9000X1.0000*%
%ADD127R,1.1500X1.3500*%
%ADD128R,3.6500X1.6000*%
%ADD129R,1.0000X0.9000*%
%ADD130C,0.8000*%
G36*
X317638Y443315D02*
X329263Y439246D01*
X340602Y434441D01*
X351612Y428919D01*
X362243Y422704D01*
X372456Y415821D01*
X382207Y408297D01*
X391455Y400164D01*
X400164Y391455D01*
X408297Y382207D01*
X415821Y372456D01*
X422704Y362243D01*
X428919Y351612D01*
X434441Y340602D01*
X439246Y329263D01*
X443315Y317638D01*
X444780Y312397D01*
Y123548D01*
X444780Y122375D01*
X381000Y122375D01*
X380028Y121972D01*
X380028Y121972D01*
X363028Y104972D01*
X362625Y104000D01*
X362625Y104000D01*
Y70510D01*
X362746Y70218D01*
X362767Y69902D01*
X362940Y69750D01*
X363028Y69538D01*
X363320Y69417D01*
X363558Y69208D01*
X364386Y68927D01*
X364634Y68625D01*
X364993Y67830D01*
X365045Y67531D01*
X365044Y67510D01*
X364430Y66028D01*
X364163Y64000D01*
X364430Y61972D01*
X365213Y60082D01*
X366351Y58598D01*
Y56132D01*
X365462Y55538D01*
X364684Y54373D01*
X364673Y54318D01*
X364560Y54306D01*
X363290Y54540D01*
Y54540D01*
X362136D01*
X361040Y54960D01*
X361040Y55810D01*
Y62730D01*
X342960D01*
Y54960D01*
X348114D01*
X349210Y54540D01*
X349210Y53690D01*
Y48270D01*
X356250D01*
Y45730D01*
X349210D01*
Y39460D01*
X351125D01*
X351125Y-25062D01*
X351125Y-52931D01*
X310431Y-93625D01*
X143518D01*
X143297Y-91945D01*
X143264Y-91866D01*
X144080Y-90517D01*
X145257Y-90362D01*
X147176Y-89567D01*
X148825Y-88302D01*
X149309Y-87670D01*
X137929Y-81100D01*
X126549Y-74529D01*
X126244Y-75265D01*
X125973Y-77325D01*
X126244Y-79385D01*
X126445Y-79871D01*
X125724Y-81166D01*
X124820Y-81311D01*
X124776Y-81280D01*
X124572Y-81030D01*
X124428Y-80669D01*
X124321Y-80131D01*
X124215Y-79973D01*
X124165Y-79789D01*
X123985Y-79558D01*
X123876Y-79286D01*
X123494Y-78893D01*
X123190Y-78438D01*
X123031Y-78332D01*
X122914Y-78182D01*
X101960Y-60048D01*
X101675Y-59886D01*
X101444Y-59655D01*
X100798Y-59387D01*
X100189Y-59041D01*
X99865Y-59000D01*
X99562Y-58875D01*
X98862D01*
X98168Y-58788D01*
X97853Y-58875D01*
X97525D01*
X96879Y-59143D01*
X96204Y-59328D01*
X95946Y-59529D01*
X95644Y-59655D01*
X95149Y-60149D01*
X94596Y-60579D01*
X94435Y-60863D01*
X94203Y-61095D01*
X92551Y-63567D01*
X89076Y-68350D01*
X85377Y-72919D01*
X81444Y-77287D01*
X77287Y-81443D01*
X72919Y-85377D01*
X68351Y-89076D01*
X63567Y-92551D01*
X61217Y-94121D01*
X60897Y-94194D01*
X59930Y-94149D01*
X59611Y-94028D01*
X59142Y-93834D01*
X58680Y-93626D01*
X58659Y-93634D01*
X58639Y-93625D01*
X16349D01*
X16205Y-93539D01*
X16035Y-91811D01*
X15104Y-88744D01*
X13593Y-85917D01*
X11560Y-83440D01*
X9083Y-81407D01*
X6256Y-79896D01*
X3189Y-78966D01*
X0Y-78651D01*
X-3189Y-78966D01*
X-6256Y-79896D01*
X-9083Y-81407D01*
X-11560Y-83440D01*
X-13593Y-85917D01*
X-15104Y-88744D01*
X-16035Y-91811D01*
X-16205Y-93539D01*
X-16349Y-93625D01*
X-121704D01*
X-122330Y-92355D01*
X-121798Y-91662D01*
X-121131Y-90052D01*
X-120904Y-88323D01*
X-121131Y-86595D01*
X-121798Y-84985D01*
X-122859Y-83602D01*
X-124242Y-82541D01*
X-125853Y-81874D01*
X-125938Y-81863D01*
X-126698Y-80482D01*
X-126244Y-79385D01*
X-125973Y-77325D01*
X-126244Y-75265D01*
X-126549Y-74529D01*
X-137929Y-81100D01*
X-139199Y-78900D01*
X-127819Y-72330D01*
X-128304Y-71698D01*
X-129952Y-70433D01*
X-131871Y-69638D01*
X-133048Y-69483D01*
X-133864Y-68134D01*
X-133831Y-68055D01*
X-133604Y-66326D01*
X-133831Y-64598D01*
X-134498Y-62988D01*
X-135559Y-61605D01*
X-136942Y-60544D01*
X-138553Y-59877D01*
X-140281Y-59649D01*
X-141355Y-59791D01*
X-142625Y-58878D01*
Y165240D01*
X-142653Y165306D01*
X-142632Y165374D01*
X-142851Y165783D01*
X-143028Y166211D01*
X-143094Y166239D01*
X-143128Y166302D01*
X-144398Y167344D01*
X-144466Y167365D01*
X-144506Y167425D01*
X-144961Y167515D01*
X-145405Y167650D01*
X-145468Y167616D01*
X-145538Y167630D01*
X-146000Y167538D01*
X-147325Y167802D01*
X-148448Y168552D01*
X-149198Y169675D01*
X-149462Y171000D01*
X-149198Y172325D01*
X-148448Y173448D01*
X-147325Y174198D01*
X-146000Y174462D01*
X-145538Y174370D01*
X-145468Y174384D01*
X-145405Y174350D01*
X-144961Y174485D01*
X-144506Y174575D01*
X-144466Y174635D01*
X-144398Y174656D01*
X-143216Y175625D01*
X-132950D01*
X-132820Y175679D01*
X-132682Y175652D01*
X-132000Y175787D01*
X-131318Y175652D01*
X-131180Y175679D01*
X-131050Y175625D01*
X-126340D01*
Y164270D01*
X-128770D01*
Y155730D01*
X-118730D01*
Y164270D01*
X-121160D01*
Y175625D01*
X-116000D01*
X-115028Y176028D01*
X-114625Y177000D01*
Y197000D01*
X-115028Y197972D01*
X-116000Y198375D01*
X-142625D01*
Y285000D01*
X-143028Y285972D01*
X-144000Y286375D01*
X-196780D01*
X-196780Y287548D01*
X-196780Y444780D01*
X-14701D01*
X-14343Y443510D01*
X-16238Y442349D01*
X-19534Y439534D01*
X-22349Y436237D01*
X-24614Y432541D01*
X-26273Y428536D01*
X-27285Y424321D01*
X-27525Y421270D01*
X27525D01*
X27285Y424321D01*
X26273Y428536D01*
X24614Y432541D01*
X22349Y436237D01*
X19534Y439534D01*
X16238Y442349D01*
X14343Y443510D01*
X14701Y444780D01*
X312397D01*
X317638Y443315D01*
D02*
G37*
G36*
X-144000Y197000D02*
X-116000D01*
Y177000D01*
X-131050D01*
X-132000Y177189D01*
X-132950Y177000D01*
X-144000D01*
Y176761D01*
X-145270Y175718D01*
X-146000Y175863D01*
X-147861Y175493D01*
X-149439Y174439D01*
X-150493Y172861D01*
X-150863Y171000D01*
X-150493Y169139D01*
X-149439Y167561D01*
X-147861Y166507D01*
X-146000Y166136D01*
X-145270Y166282D01*
X-144000Y165240D01*
Y-60764D01*
X-152886Y-65894D01*
X-154269Y-66955D01*
X-155330Y-68338D01*
X-155997Y-69948D01*
X-156224Y-71677D01*
X-155997Y-73405D01*
X-155330Y-75015D01*
X-154269Y-76398D01*
X-152886Y-77459D01*
X-151276Y-78126D01*
X-149801Y-78320D01*
X-149341Y-78890D01*
X-149078Y-79573D01*
X-149647Y-80947D01*
X-149874Y-82675D01*
X-149647Y-84403D01*
X-148980Y-86014D01*
X-147919Y-87396D01*
X-146536Y-88458D01*
X-144925Y-89125D01*
X-144000Y-89247D01*
Y-95000D01*
X-143350D01*
X-143297Y-95402D01*
X-142630Y-97012D01*
X-141569Y-98395D01*
X-140186Y-99456D01*
X-138575Y-100123D01*
X-136847Y-100351D01*
X-135119Y-100123D01*
X-133509Y-99456D01*
X-125791Y-95000D01*
X-16349D01*
X-16349Y-95000D01*
X-16035Y-98189D01*
X-15104Y-101256D01*
X-13593Y-104083D01*
X-11560Y-106560D01*
X-9083Y-108594D01*
X-6256Y-110104D01*
X-3189Y-111035D01*
X0Y-111349D01*
X3189Y-111035D01*
X6256Y-110104D01*
X9083Y-108594D01*
X11560Y-106560D01*
X13593Y-104083D01*
X15104Y-101256D01*
X16035Y-98189D01*
X16349Y-95000D01*
X16349Y-95000D01*
X58639D01*
X58966Y-95348D01*
X59322Y-96190D01*
X59310Y-96270D01*
X59143Y-96879D01*
X58875Y-97525D01*
Y-97853D01*
X58788Y-98168D01*
X58875Y-98862D01*
Y-99562D01*
X59000Y-99865D01*
X59041Y-100189D01*
X59387Y-100798D01*
X59654Y-101444D01*
X59886Y-101675D01*
X60048Y-101960D01*
X78182Y-122914D01*
X78760Y-123365D01*
X79286Y-123876D01*
X79558Y-123985D01*
X79789Y-124165D01*
X80496Y-124359D01*
X81178Y-124631D01*
X81471Y-124627D01*
X81753Y-124705D01*
X82481Y-124614D01*
X83214Y-124605D01*
X83483Y-124489D01*
X83774Y-124452D01*
X84412Y-124090D01*
X85086Y-123800D01*
X87824Y-121919D01*
X87908Y-121832D01*
X88018Y-121779D01*
X93315Y-117769D01*
X93396Y-117678D01*
X93503Y-117620D01*
X98611Y-113371D01*
X98687Y-113277D01*
X98791Y-113214D01*
X103700Y-108736D01*
X103772Y-108638D01*
X103873Y-108571D01*
X108571Y-103873D01*
X108638Y-103772D01*
X108736Y-103700D01*
X113214Y-98791D01*
X113277Y-98687D01*
X113371Y-98611D01*
X116375Y-95000D01*
X125791D01*
X133509Y-99456D01*
X135119Y-100123D01*
X136847Y-100351D01*
X138575Y-100123D01*
X140186Y-99456D01*
X141569Y-98395D01*
X142630Y-97012D01*
X143297Y-95402D01*
X143350Y-95000D01*
X311000D01*
X352500Y-53500D01*
X352500Y-25062D01*
X352500Y40730D01*
X362020D01*
X362710Y39746D01*
Y39460D01*
X368480D01*
Y47000D01*
X369750D01*
Y48270D01*
X376790D01*
Y54540D01*
X376103D01*
X375850Y55810D01*
X376559Y56104D01*
X378447Y57553D01*
X379896Y59441D01*
X380807Y61640D01*
X380951Y62730D01*
X372000D01*
Y64000D01*
X370730D01*
Y72951D01*
X369640Y72807D01*
X367441Y71896D01*
X365553Y70447D01*
X365270Y70079D01*
X364000Y70510D01*
Y104000D01*
X381000Y121000D01*
X444780Y121000D01*
X444780Y12077D01*
X443534Y11829D01*
X443479Y11963D01*
X441318Y15489D01*
X438633Y18633D01*
X435489Y21319D01*
X431963Y23479D01*
X428143Y25062D01*
X424122Y26027D01*
X420000Y26351D01*
X415877Y26027D01*
X411857Y25062D01*
X408036Y23479D01*
X404511Y21319D01*
X401367Y18633D01*
X398681Y15489D01*
X396521Y11963D01*
X394938Y8143D01*
X393973Y4122D01*
X393648Y0D01*
X393973Y-4122D01*
X394938Y-8143D01*
X396521Y-11963D01*
X398681Y-15489D01*
X401367Y-18633D01*
X404511Y-21319D01*
X408036Y-23479D01*
X411857Y-25062D01*
X415877Y-26027D01*
X420000Y-26351D01*
X424122Y-26027D01*
X428143Y-25062D01*
X431963Y-23479D01*
X435489Y-21319D01*
X438633Y-18633D01*
X441318Y-15489D01*
X443479Y-11963D01*
X443534Y-11829D01*
X444780Y-12077D01*
Y-163180D01*
X-196780D01*
Y-78012D01*
X-195641Y-77450D01*
X-195059Y-77896D01*
X-192860Y-78807D01*
X-191770Y-78951D01*
Y-70000D01*
Y-61049D01*
X-192860Y-61193D01*
X-195059Y-62104D01*
X-195641Y-62550D01*
X-196780Y-61988D01*
Y-58012D01*
X-195641Y-57450D01*
X-195059Y-57896D01*
X-192860Y-58807D01*
X-191770Y-58951D01*
Y-50000D01*
Y-41049D01*
X-192860Y-41193D01*
X-195059Y-42104D01*
X-195641Y-42550D01*
X-196780Y-41988D01*
Y-38012D01*
X-195641Y-37450D01*
X-195059Y-37896D01*
X-192860Y-38807D01*
X-191770Y-38951D01*
Y-30000D01*
Y-21049D01*
X-192860Y-21193D01*
X-195059Y-22104D01*
X-195641Y-22550D01*
X-196780Y-21988D01*
X-196780Y221988D01*
X-195641Y222550D01*
X-195059Y222104D01*
X-192860Y221193D01*
X-191770Y221049D01*
Y230000D01*
Y238951D01*
X-192860Y238807D01*
X-195059Y237896D01*
X-195641Y237450D01*
X-196780Y238012D01*
Y241988D01*
X-195641Y242550D01*
X-195059Y242104D01*
X-192860Y241193D01*
X-191770Y241049D01*
Y250000D01*
Y258951D01*
X-192860Y258807D01*
X-195059Y257896D01*
X-195641Y257450D01*
X-196780Y258012D01*
Y261988D01*
X-195641Y262550D01*
X-195059Y262104D01*
X-192860Y261193D01*
X-191770Y261049D01*
Y270000D01*
Y278951D01*
X-192860Y278807D01*
X-195059Y277896D01*
X-195641Y277450D01*
X-196780Y278012D01*
Y285000D01*
X-144000D01*
Y197000D01*
D02*
G37*
%LPC*%
G36*
X27525Y418730D02*
X1270D01*
Y392474D01*
X4322Y392715D01*
X8537Y393727D01*
X12542Y395386D01*
X16238Y397650D01*
X19534Y400466D01*
X22349Y403762D01*
X24614Y407458D01*
X26273Y411463D01*
X27285Y415678D01*
X27525Y418730D01*
D02*
G37*
G36*
X-1270D02*
X-27525D01*
X-27285Y415678D01*
X-26273Y411463D01*
X-24614Y407458D01*
X-22349Y403762D01*
X-19534Y400466D01*
X-16238Y397650D01*
X-12542Y395386D01*
X-8537Y393727D01*
X-4322Y392715D01*
X-1270Y392474D01*
Y418730D01*
D02*
G37*
G36*
X371270Y397525D02*
Y371270D01*
X397525D01*
X397285Y374321D01*
X396273Y378536D01*
X394614Y382541D01*
X392349Y386237D01*
X389534Y389534D01*
X386237Y392349D01*
X382541Y394614D01*
X378536Y396273D01*
X374321Y397285D01*
X371270Y397525D01*
D02*
G37*
G36*
X368730D02*
X365678Y397285D01*
X361463Y396273D01*
X357458Y394614D01*
X353762Y392349D01*
X350466Y389534D01*
X347650Y386237D01*
X345386Y382541D01*
X343727Y378536D01*
X342715Y374321D01*
X342475Y371270D01*
X368730D01*
Y397525D01*
D02*
G37*
G36*
X106400Y350589D02*
X105027Y350316D01*
X103862Y349538D01*
X103084Y348373D01*
X102811Y347000D01*
X103084Y345627D01*
X103862Y344462D01*
X105027Y343684D01*
X106400Y343411D01*
X107773Y343684D01*
X108938Y344462D01*
X109716Y345627D01*
X109989Y347000D01*
X109716Y348373D01*
X108938Y349538D01*
X107773Y350316D01*
X106400Y350589D01*
D02*
G37*
G36*
X397525Y368730D02*
X371270D01*
Y342475D01*
X374321Y342715D01*
X378536Y343727D01*
X382541Y345386D01*
X386237Y347650D01*
X389534Y350466D01*
X392349Y353762D01*
X394614Y357458D01*
X396273Y361463D01*
X397285Y365678D01*
X397525Y368730D01*
D02*
G37*
G36*
X368730D02*
X342475D01*
X342715Y365678D01*
X343727Y361463D01*
X345386Y357458D01*
X347650Y353762D01*
X350466Y350466D01*
X353762Y347650D01*
X357458Y345386D01*
X361463Y343727D01*
X365678Y342715D01*
X368730Y342475D01*
Y368730D01*
D02*
G37*
G36*
X74000Y337589D02*
X72627Y337316D01*
X71462Y336538D01*
X70684Y335373D01*
X70411Y334000D01*
X70684Y332627D01*
X71462Y331462D01*
X72627Y330684D01*
X74000Y330411D01*
X75373Y330684D01*
X76538Y331462D01*
X77316Y332627D01*
X77589Y334000D01*
X77316Y335373D01*
X76538Y336538D01*
X75373Y337316D01*
X74000Y337589D01*
D02*
G37*
G36*
X223270Y331951D02*
Y324270D01*
X230951D01*
X230807Y325360D01*
X229896Y327559D01*
X228447Y329447D01*
X226559Y330896D01*
X224360Y331807D01*
X223270Y331951D01*
D02*
G37*
G36*
X220730D02*
X219640Y331807D01*
X217441Y330896D01*
X215553Y329447D01*
X214104Y327559D01*
X213193Y325360D01*
X213049Y324270D01*
X220730D01*
Y331951D01*
D02*
G37*
G36*
X60000Y322989D02*
X58627Y322716D01*
X57462Y321938D01*
X56684Y320774D01*
X56411Y319400D01*
X56684Y318027D01*
X57462Y316862D01*
X58627Y316084D01*
X60000Y315811D01*
X61373Y316084D01*
X62538Y316862D01*
X63316Y318027D01*
X63589Y319400D01*
X63316Y320774D01*
X62538Y321938D01*
X61373Y322716D01*
X60000Y322989D01*
D02*
G37*
G36*
X189770Y330770D02*
X174230D01*
Y315230D01*
X189770D01*
Y330770D01*
D02*
G37*
G36*
X242000Y330837D02*
X239972Y330570D01*
X238081Y329787D01*
X236458Y328542D01*
X235213Y326918D01*
X234430Y325028D01*
X234163Y323000D01*
X234430Y320972D01*
X235213Y319081D01*
X236458Y317458D01*
X238081Y316213D01*
X239972Y315430D01*
X242000Y315163D01*
X244028Y315430D01*
X245919Y316213D01*
X247542Y317458D01*
X248787Y319081D01*
X249570Y320972D01*
X249837Y323000D01*
X249570Y325028D01*
X248787Y326918D01*
X247542Y328542D01*
X245919Y329787D01*
X244028Y330570D01*
X242000Y330837D01*
D02*
G37*
G36*
X202000D02*
X199972Y330570D01*
X198081Y329787D01*
X196458Y328542D01*
X195213Y326918D01*
X194430Y325028D01*
X194163Y323000D01*
X194430Y320972D01*
X195213Y319081D01*
X196458Y317458D01*
X198081Y316213D01*
X199972Y315430D01*
X202000Y315163D01*
X204028Y315430D01*
X205919Y316213D01*
X207542Y317458D01*
X208787Y319081D01*
X209570Y320972D01*
X209837Y323000D01*
X209570Y325028D01*
X208787Y326918D01*
X207542Y328542D01*
X205919Y329787D01*
X204028Y330570D01*
X202000Y330837D01*
D02*
G37*
G36*
X230951Y321730D02*
X223270D01*
Y314049D01*
X224360Y314193D01*
X226559Y315104D01*
X228447Y316553D01*
X229896Y318441D01*
X230807Y320640D01*
X230951Y321730D01*
D02*
G37*
G36*
X220730D02*
X213049D01*
X213193Y320640D01*
X214104Y318441D01*
X215553Y316553D01*
X217441Y315104D01*
X219640Y314193D01*
X220730Y314049D01*
Y321730D01*
D02*
G37*
G36*
X338520Y325020D02*
X299480D01*
Y306480D01*
X338520D01*
Y325020D01*
D02*
G37*
G36*
X50000Y303339D02*
X48627Y303066D01*
X47462Y302288D01*
X46684Y301123D01*
X46411Y299750D01*
X46684Y298377D01*
X47462Y297212D01*
X48627Y296434D01*
X50000Y296161D01*
X51373Y296434D01*
X52538Y297212D01*
X53316Y298377D01*
X53589Y299750D01*
X53316Y301123D01*
X52538Y302288D01*
X51373Y303066D01*
X50000Y303339D01*
D02*
G37*
G36*
X94000Y289589D02*
X92627Y289316D01*
X91462Y288538D01*
X90684Y287373D01*
X90411Y286000D01*
X90684Y284627D01*
X91462Y283462D01*
X92627Y282684D01*
X94000Y282411D01*
X95373Y282684D01*
X96538Y283462D01*
X97316Y284627D01*
X97589Y286000D01*
X97316Y287373D01*
X96538Y288538D01*
X95373Y289316D01*
X94000Y289589D01*
D02*
G37*
G36*
X146750Y279589D02*
X145377Y279316D01*
X144212Y278538D01*
X143434Y277373D01*
X143161Y276000D01*
X143434Y274627D01*
X144212Y273462D01*
X145377Y272684D01*
X146750Y272411D01*
X148123Y272684D01*
X149288Y273462D01*
X150066Y274627D01*
X150339Y276000D01*
X150066Y277373D01*
X149288Y278538D01*
X148123Y279316D01*
X146750Y279589D01*
D02*
G37*
G36*
Y269589D02*
X145377Y269316D01*
X144212Y268538D01*
X143434Y267373D01*
X143161Y266000D01*
X143434Y264627D01*
X144212Y263462D01*
X145377Y262684D01*
X146750Y262411D01*
X148123Y262684D01*
X149288Y263462D01*
X150066Y264627D01*
X150339Y266000D01*
X150066Y267373D01*
X149288Y268538D01*
X148123Y269316D01*
X146750Y269589D01*
D02*
G37*
G36*
X135000Y269339D02*
X133627Y269066D01*
X132462Y268288D01*
X131684Y267123D01*
X131411Y265750D01*
X131684Y264377D01*
X132462Y263212D01*
X133627Y262434D01*
X135000Y262161D01*
X136373Y262434D01*
X137538Y263212D01*
X138316Y264377D01*
X138589Y265750D01*
X138316Y267123D01*
X137538Y268288D01*
X136373Y269066D01*
X135000Y269339D01*
D02*
G37*
G36*
X-98960Y267040D02*
X-106730D01*
Y259270D01*
X-98960D01*
Y267040D01*
D02*
G37*
G36*
X-109270D02*
X-117040D01*
Y259270D01*
X-109270D01*
Y267040D01*
D02*
G37*
G36*
X170080Y259669D02*
X168706Y259396D01*
X167542Y258618D01*
X167194Y258097D01*
X164279D01*
X164279Y258097D01*
X163536Y257949D01*
X162906Y257528D01*
X160472Y255095D01*
X160051Y254464D01*
X159903Y253721D01*
Y250279D01*
X160051Y249536D01*
X160472Y248906D01*
X164518Y244860D01*
Y147678D01*
X163248Y146999D01*
X162773Y147316D01*
X161400Y147589D01*
X160027Y147316D01*
X158862Y146538D01*
X158084Y145373D01*
X157811Y144000D01*
X158084Y142627D01*
X158862Y141462D01*
X160027Y140684D01*
X161400Y140411D01*
X162773Y140684D01*
X163248Y141001D01*
X164518Y140322D01*
Y127015D01*
X149952Y112449D01*
X149250Y112589D01*
X147877Y112316D01*
X146712Y111538D01*
X145934Y110373D01*
X145661Y109000D01*
X145934Y107627D01*
X146712Y106462D01*
X147877Y105684D01*
X149250Y105411D01*
X150623Y105684D01*
X151788Y106462D01*
X152566Y107627D01*
X152839Y109000D01*
X152699Y109702D01*
X153953Y110956D01*
X155124Y110330D01*
X155058Y110000D01*
Y100686D01*
X154462Y100288D01*
X153684Y99123D01*
X153411Y97750D01*
X153684Y96377D01*
X154462Y95212D01*
X155627Y94434D01*
X157000Y94161D01*
X158373Y94434D01*
X159538Y95212D01*
X160316Y96377D01*
X160589Y97750D01*
X160316Y99123D01*
X159538Y100288D01*
X158942Y100686D01*
Y109195D01*
X170373Y120627D01*
X170795Y121257D01*
X170942Y122000D01*
Y144451D01*
X172212Y144836D01*
X172462Y144462D01*
X173627Y143684D01*
X175000Y143411D01*
X176373Y143684D01*
X177538Y144462D01*
X178316Y145627D01*
X178589Y147000D01*
X178316Y148373D01*
X177538Y149538D01*
X176373Y150316D01*
X175000Y150589D01*
X173627Y150316D01*
X172462Y149538D01*
X172212Y149164D01*
X170942Y149549D01*
Y249000D01*
X170942Y249000D01*
X170795Y249743D01*
X170373Y250373D01*
X169769Y250978D01*
X170126Y252287D01*
X170759Y252626D01*
X171453Y252764D01*
X172618Y253542D01*
X173396Y254707D01*
X173669Y256080D01*
X173396Y257453D01*
X172618Y258618D01*
X171453Y259396D01*
X170080Y259669D01*
D02*
G37*
G36*
X228000Y261839D02*
X226627Y261566D01*
X225462Y260788D01*
X224684Y259623D01*
X224411Y258250D01*
X224684Y256877D01*
X225462Y255712D01*
X226627Y254934D01*
X228000Y254661D01*
X229373Y254934D01*
X230538Y255712D01*
X231316Y256877D01*
X231589Y258250D01*
X231316Y259623D01*
X230538Y260788D01*
X229373Y261566D01*
X228000Y261839D01*
D02*
G37*
G36*
X267400Y261589D02*
X266027Y261316D01*
X264862Y260538D01*
X264084Y259373D01*
X263811Y258000D01*
X264084Y256627D01*
X264862Y255462D01*
X266027Y254684D01*
X267400Y254411D01*
X268773Y254684D01*
X269938Y255462D01*
X270716Y256627D01*
X270989Y258000D01*
X270716Y259373D01*
X269938Y260538D01*
X268773Y261316D01*
X267400Y261589D01*
D02*
G37*
G36*
X238600D02*
X237227Y261316D01*
X236062Y260538D01*
X235284Y259373D01*
X235011Y258000D01*
X235284Y256627D01*
X236062Y255462D01*
X237227Y254684D01*
X238600Y254411D01*
X239973Y254684D01*
X241138Y255462D01*
X241916Y256627D01*
X242189Y258000D01*
X241916Y259373D01*
X241138Y260538D01*
X239973Y261316D01*
X238600Y261589D01*
D02*
G37*
G36*
X199000Y266589D02*
X197627Y266316D01*
X196462Y265538D01*
X195684Y264373D01*
X195411Y263000D01*
X195684Y261627D01*
X196394Y260564D01*
X196441Y260314D01*
X196259Y259070D01*
X195462Y258538D01*
X194684Y257373D01*
X194411Y256000D01*
X194684Y254627D01*
X195462Y253462D01*
X196627Y252684D01*
X198000Y252411D01*
X199373Y252684D01*
X200538Y253462D01*
X201316Y254627D01*
X201589Y256000D01*
X201316Y257373D01*
X200606Y258436D01*
X200559Y258686D01*
X200741Y259930D01*
X201538Y260462D01*
X202316Y261627D01*
X202589Y263000D01*
X202316Y264373D01*
X201538Y265538D01*
X200373Y266316D01*
X199000Y266589D01*
D02*
G37*
G36*
X186400Y259589D02*
X185027Y259316D01*
X183862Y258538D01*
X183084Y257373D01*
X182811Y256000D01*
X183084Y254627D01*
X183862Y253462D01*
X185027Y252684D01*
X186400Y252411D01*
X187773Y252684D01*
X188938Y253462D01*
X189716Y254627D01*
X189989Y256000D01*
X189716Y257373D01*
X188938Y258538D01*
X187773Y259316D01*
X186400Y259589D01*
D02*
G37*
G36*
X148600D02*
X147227Y259316D01*
X146062Y258538D01*
X145284Y257373D01*
X145011Y256000D01*
X145284Y254627D01*
X146062Y253462D01*
X147227Y252684D01*
X148600Y252411D01*
X149973Y252684D01*
X151138Y253462D01*
X151916Y254627D01*
X152189Y256000D01*
X151916Y257373D01*
X151138Y258538D01*
X149973Y259316D01*
X148600Y259589D01*
D02*
G37*
G36*
X398680Y259589D02*
X397307Y259316D01*
X396142Y258538D01*
X395364Y257373D01*
X395091Y256000D01*
X395364Y254627D01*
X396142Y253462D01*
X397307Y252684D01*
X398680Y252411D01*
X400053Y252684D01*
X401218Y253462D01*
X401996Y254627D01*
X402269Y256000D01*
X401996Y257373D01*
X401218Y258538D01*
X400053Y259316D01*
X398680Y259589D01*
D02*
G37*
G36*
X-68000Y265837D02*
X-70028Y265570D01*
X-71919Y264787D01*
X-73542Y263542D01*
X-74787Y261919D01*
X-75570Y260028D01*
X-75837Y258000D01*
X-75570Y255972D01*
X-74787Y254081D01*
X-73542Y252458D01*
X-71919Y251213D01*
X-70028Y250430D01*
X-68000Y250163D01*
X-65972Y250430D01*
X-64082Y251213D01*
X-62458Y252458D01*
X-61213Y254081D01*
X-60430Y255972D01*
X-60163Y258000D01*
X-60430Y260028D01*
X-61213Y261919D01*
X-62458Y263542D01*
X-64082Y264787D01*
X-65972Y265570D01*
X-68000Y265837D01*
D02*
G37*
G36*
X-88000D02*
X-90028Y265570D01*
X-91918Y264787D01*
X-93542Y263542D01*
X-94787Y261919D01*
X-95570Y260028D01*
X-95837Y258000D01*
X-95570Y255972D01*
X-94787Y254081D01*
X-93542Y252458D01*
X-91918Y251213D01*
X-90028Y250430D01*
X-88000Y250163D01*
X-85972Y250430D01*
X-84081Y251213D01*
X-82458Y252458D01*
X-81213Y254081D01*
X-80430Y255972D01*
X-80163Y258000D01*
X-80430Y260028D01*
X-81213Y261919D01*
X-82458Y263542D01*
X-84081Y264787D01*
X-85972Y265570D01*
X-88000Y265837D01*
D02*
G37*
G36*
X-98960Y256730D02*
X-106730D01*
Y248960D01*
X-98960D01*
Y256730D01*
D02*
G37*
G36*
X-109270D02*
X-117040D01*
Y248960D01*
X-109270D01*
Y256730D01*
D02*
G37*
G36*
X338520Y261520D02*
X299480D01*
Y242980D01*
X338520D01*
Y261520D01*
D02*
G37*
G36*
X206310Y244589D02*
X204937Y244316D01*
X203772Y243538D01*
X202994Y242373D01*
X202721Y241000D01*
X202994Y239627D01*
X203772Y238462D01*
X204937Y237684D01*
X206310Y237411D01*
X207684Y237684D01*
X208848Y238462D01*
X209626Y239627D01*
X209899Y241000D01*
X209626Y242373D01*
X208848Y243538D01*
X207684Y244316D01*
X206310Y244589D01*
D02*
G37*
G36*
X-20000D02*
X-21373Y244316D01*
X-22538Y243538D01*
X-23316Y242373D01*
X-23589Y241000D01*
X-23316Y239627D01*
X-22538Y238462D01*
X-21373Y237684D01*
X-20000Y237411D01*
X-18627Y237684D01*
X-17462Y238462D01*
X-16684Y239627D01*
X-16411Y241000D01*
X-16684Y242373D01*
X-17462Y243538D01*
X-18627Y244316D01*
X-20000Y244589D01*
D02*
G37*
G36*
X209000Y225589D02*
X207627Y225316D01*
X206462Y224538D01*
X205684Y223373D01*
X205411Y222000D01*
X205684Y220627D01*
X206462Y219462D01*
X207627Y218684D01*
X209000Y218411D01*
X210373Y218684D01*
X211538Y219462D01*
X212316Y220627D01*
X212589Y222000D01*
X212316Y223373D01*
X211538Y224538D01*
X210373Y225316D01*
X209000Y225589D01*
D02*
G37*
G36*
X257000Y219589D02*
X255627Y219316D01*
X254462Y218538D01*
X253684Y217373D01*
X253411Y216000D01*
X253684Y214627D01*
X254462Y213462D01*
X255627Y212684D01*
X257000Y212411D01*
X258373Y212684D01*
X259538Y213462D01*
X260316Y214627D01*
X260589Y216000D01*
X260316Y217373D01*
X259538Y218538D01*
X258373Y219316D01*
X257000Y219589D01*
D02*
G37*
G36*
X101000Y212989D02*
X99627Y212716D01*
X98462Y211938D01*
X97684Y210773D01*
X97411Y209400D01*
X97684Y208027D01*
X98462Y206862D01*
X99627Y206084D01*
X101000Y205811D01*
X102373Y206084D01*
X103538Y206862D01*
X104316Y208027D01*
X104589Y209400D01*
X104316Y210773D01*
X103538Y211938D01*
X102373Y212716D01*
X101000Y212989D01*
D02*
G37*
G36*
X224250Y212589D02*
X222877Y212316D01*
X221712Y211538D01*
X220934Y210373D01*
X220661Y209000D01*
X220934Y207627D01*
X221712Y206462D01*
X222877Y205684D01*
X224250Y205411D01*
X225623Y205684D01*
X226788Y206462D01*
X227566Y207627D01*
X227839Y209000D01*
X227566Y210373D01*
X226788Y211538D01*
X225623Y212316D01*
X224250Y212589D01*
D02*
G37*
G36*
X214000Y211989D02*
X212627Y211716D01*
X211462Y210938D01*
X210684Y209773D01*
X210411Y208400D01*
X210684Y207027D01*
X211462Y205862D01*
X212627Y205084D01*
X214000Y204811D01*
X215373Y205084D01*
X216538Y205862D01*
X217316Y207027D01*
X217589Y208400D01*
X217316Y209773D01*
X216538Y210938D01*
X215373Y211716D01*
X214000Y211989D01*
D02*
G37*
G36*
X68000Y194589D02*
X66627Y194316D01*
X65462Y193538D01*
X64684Y192373D01*
X64411Y191000D01*
X64684Y189627D01*
X65462Y188462D01*
X66627Y187684D01*
X68000Y187411D01*
X69373Y187684D01*
X70538Y188462D01*
X71316Y189627D01*
X71589Y191000D01*
X71316Y192373D01*
X70538Y193538D01*
X69373Y194316D01*
X68000Y194589D01*
D02*
G37*
G36*
X215000Y193589D02*
X213627Y193316D01*
X212462Y192538D01*
X211684Y191373D01*
X211411Y190000D01*
X211684Y188627D01*
X212462Y187462D01*
X213627Y186684D01*
X215000Y186411D01*
X216373Y186684D01*
X217538Y187462D01*
X218316Y188627D01*
X218589Y190000D01*
X218316Y191373D01*
X217538Y192538D01*
X216373Y193316D01*
X215000Y193589D01*
D02*
G37*
G36*
X-68000Y190589D02*
X-69373Y190316D01*
X-70538Y189538D01*
X-71316Y188373D01*
X-71589Y187000D01*
X-71316Y185627D01*
X-70538Y184462D01*
X-69373Y183684D01*
X-68000Y183411D01*
X-66627Y183684D01*
X-65462Y184462D01*
X-64684Y185627D01*
X-64411Y187000D01*
X-64684Y188373D01*
X-65462Y189538D01*
X-66627Y190316D01*
X-68000Y190589D01*
D02*
G37*
G36*
X0Y186964D02*
X-1373Y186691D01*
X-2538Y185913D01*
X-3316Y184748D01*
X-3589Y183375D01*
X-3316Y182002D01*
X-2538Y180837D01*
X-1373Y180059D01*
X0Y179786D01*
X1373Y180059D01*
X2538Y180837D01*
X3316Y182002D01*
X3589Y183375D01*
X3316Y184748D01*
X2538Y185913D01*
X1373Y186691D01*
X0Y186964D01*
D02*
G37*
G36*
X81000Y183589D02*
X79627Y183316D01*
X78462Y182538D01*
X77684Y181373D01*
X77411Y180000D01*
X77684Y178627D01*
X78462Y177462D01*
X79627Y176684D01*
X81000Y176411D01*
X82373Y176684D01*
X83538Y177462D01*
X84316Y178627D01*
X84589Y180000D01*
X84316Y181373D01*
X83538Y182538D01*
X82373Y183316D01*
X81000Y183589D01*
D02*
G37*
G36*
X10000Y181589D02*
X8627Y181316D01*
X7462Y180538D01*
X6684Y179373D01*
X6411Y178000D01*
X6684Y176627D01*
X7462Y175462D01*
X8627Y174684D01*
X10000Y174411D01*
X11373Y174684D01*
X12538Y175462D01*
X13316Y176627D01*
X13589Y178000D01*
X13316Y179373D01*
X12538Y180538D01*
X11373Y181316D01*
X10000Y181589D01*
D02*
G37*
G36*
X-69600Y180589D02*
X-70973Y180316D01*
X-72138Y179538D01*
X-72916Y178373D01*
X-73189Y177000D01*
X-72916Y175627D01*
X-72138Y174462D01*
X-70973Y173684D01*
X-69600Y173411D01*
X-68227Y173684D01*
X-67062Y174462D01*
X-66284Y175627D01*
X-66011Y177000D01*
X-66284Y178373D01*
X-67062Y179538D01*
X-68227Y180316D01*
X-69600Y180589D01*
D02*
G37*
G36*
X-1270Y173141D02*
X-2060Y173037D01*
X-3979Y172242D01*
X-5627Y170977D01*
X-6350Y170035D01*
X-7926Y170003D01*
X-7979Y170072D01*
X-9361Y171133D01*
X-10972Y171800D01*
X-12700Y172027D01*
X-14428Y171800D01*
X-16039Y171133D01*
X-17421Y170072D01*
X-18483Y168689D01*
X-19150Y167078D01*
X-19377Y165350D01*
Y154650D01*
X-19150Y152922D01*
X-18483Y151312D01*
X-17421Y149929D01*
X-16039Y148867D01*
X-14428Y148200D01*
X-12700Y147973D01*
X-10972Y148200D01*
X-9361Y148867D01*
X-7979Y149929D01*
X-7926Y149997D01*
X-6350Y149965D01*
X-5627Y149023D01*
X-3979Y147758D01*
X-2060Y146963D01*
X-1270Y146859D01*
Y160000D01*
Y173141D01*
D02*
G37*
G36*
X216000Y175589D02*
X214627Y175316D01*
X213462Y174538D01*
X212684Y173373D01*
X212411Y172000D01*
X212684Y170627D01*
X213462Y169462D01*
X214627Y168684D01*
X216000Y168411D01*
X217373Y168684D01*
X218538Y169462D01*
X219316Y170627D01*
X219589Y172000D01*
X219316Y173373D01*
X218538Y174538D01*
X217373Y175316D01*
X216000Y175589D01*
D02*
G37*
G36*
X87250Y171589D02*
X85877Y171316D01*
X84712Y170538D01*
X83934Y169373D01*
X83661Y168000D01*
X83934Y166627D01*
X84712Y165462D01*
X85877Y164684D01*
X87250Y164411D01*
X88623Y164684D01*
X89788Y165462D01*
X90566Y166627D01*
X90839Y168000D01*
X90566Y169373D01*
X89788Y170538D01*
X88623Y171316D01*
X87250Y171589D01*
D02*
G37*
G36*
X-61000Y166989D02*
X-62373Y166716D01*
X-63538Y165938D01*
X-64316Y164773D01*
X-64589Y163400D01*
X-64316Y162027D01*
X-63538Y160862D01*
X-62373Y160084D01*
X-61000Y159811D01*
X-59627Y160084D01*
X-58462Y160862D01*
X-57684Y162027D01*
X-57411Y163400D01*
X-57684Y164773D01*
X-58462Y165938D01*
X-59627Y166716D01*
X-61000Y166989D01*
D02*
G37*
G36*
X-71000D02*
X-72373Y166716D01*
X-73538Y165938D01*
X-74316Y164773D01*
X-74589Y163400D01*
X-74316Y162027D01*
X-73538Y160862D01*
X-72373Y160084D01*
X-71000Y159811D01*
X-69627Y160084D01*
X-68462Y160862D01*
X-67684Y162027D01*
X-67411Y163400D01*
X-67684Y164773D01*
X-68462Y165938D01*
X-69627Y166716D01*
X-71000Y166989D01*
D02*
G37*
G36*
X224250Y161589D02*
X222877Y161316D01*
X221712Y160538D01*
X220934Y159373D01*
X220661Y158000D01*
X220934Y156627D01*
X221712Y155462D01*
X222877Y154684D01*
X224250Y154411D01*
X225623Y154684D01*
X226788Y155462D01*
X227566Y156627D01*
X227839Y158000D01*
X227566Y159373D01*
X226788Y160538D01*
X225623Y161316D01*
X224250Y161589D01*
D02*
G37*
G36*
X200000Y158589D02*
X198627Y158316D01*
X197462Y157538D01*
X196684Y156373D01*
X196411Y155000D01*
X196684Y153627D01*
X197462Y152462D01*
X198627Y151684D01*
X200000Y151411D01*
X201373Y151684D01*
X202538Y152462D01*
X203316Y153627D01*
X203589Y155000D01*
X203316Y156373D01*
X202538Y157538D01*
X201373Y158316D01*
X200000Y158589D01*
D02*
G37*
G36*
X145000Y149589D02*
X143627Y149316D01*
X142462Y148538D01*
X142264Y148241D01*
X140736D01*
X140538Y148538D01*
X139373Y149316D01*
X138000Y149589D01*
X136627Y149316D01*
X135462Y148538D01*
X135264Y148241D01*
X133736D01*
X133538Y148538D01*
X132373Y149316D01*
X131000Y149589D01*
X129627Y149316D01*
X128462Y148538D01*
X128264Y148241D01*
X126736D01*
X126538Y148538D01*
X125373Y149316D01*
X124000Y149589D01*
X122627Y149316D01*
X121462Y148538D01*
X120684Y147373D01*
X120411Y146000D01*
X120684Y144627D01*
X121462Y143462D01*
X122627Y142684D01*
X124000Y142411D01*
X125373Y142684D01*
X126538Y143462D01*
X126736Y143759D01*
X128264D01*
X128462Y143462D01*
X129627Y142684D01*
X131000Y142411D01*
X132373Y142684D01*
X133538Y143462D01*
X133736Y143759D01*
X135264D01*
X135462Y143462D01*
X136627Y142684D01*
X138000Y142411D01*
X139373Y142684D01*
X140538Y143462D01*
X140736Y143759D01*
X142264D01*
X142462Y143462D01*
X143627Y142684D01*
X145000Y142411D01*
X146373Y142684D01*
X147538Y143462D01*
X148316Y144627D01*
X148589Y146000D01*
X148316Y147373D01*
X147538Y148538D01*
X146373Y149316D01*
X145000Y149589D01*
D02*
G37*
G36*
X1270Y173141D02*
Y160000D01*
Y146859D01*
X2060Y146963D01*
X3979Y147758D01*
X5627Y149023D01*
X6350Y149965D01*
X7926Y149997D01*
X7979Y149929D01*
X9361Y148867D01*
X10972Y148200D01*
X12700Y147973D01*
X14428Y148200D01*
X16039Y148867D01*
X17421Y149929D01*
X18483Y151312D01*
X19150Y152922D01*
X19377Y154650D01*
Y165350D01*
X19150Y167078D01*
X18483Y168689D01*
X17421Y170072D01*
X16039Y171133D01*
X14428Y171800D01*
X12700Y172027D01*
X10972Y171800D01*
X9361Y171133D01*
X7979Y170072D01*
X7926Y170003D01*
X6350Y170035D01*
X5627Y170977D01*
X3979Y172242D01*
X2060Y173037D01*
X1270Y173141D01*
D02*
G37*
G36*
X-107230Y164270D02*
X-117270D01*
Y155730D01*
X-114715D01*
Y153273D01*
X-115316Y152373D01*
X-115589Y151000D01*
X-115316Y149627D01*
X-114538Y148462D01*
X-113373Y147684D01*
X-112000Y147411D01*
X-110627Y147684D01*
X-109462Y148462D01*
X-108684Y149627D01*
X-108411Y151000D01*
X-108684Y152373D01*
X-109462Y153538D01*
X-109535Y153587D01*
Y155730D01*
X-107230D01*
Y164270D01*
D02*
G37*
G36*
X185000Y150589D02*
X183627Y150316D01*
X182462Y149538D01*
X181684Y148373D01*
X181411Y147000D01*
X181684Y145627D01*
X182462Y144462D01*
X183627Y143684D01*
X185000Y143411D01*
X186373Y143684D01*
X187538Y144462D01*
X188316Y145627D01*
X188589Y147000D01*
X188316Y148373D01*
X187538Y149538D01*
X186373Y150316D01*
X185000Y150589D01*
D02*
G37*
G36*
X220400Y147589D02*
X219027Y147316D01*
X217862Y146538D01*
X217084Y145373D01*
X216811Y144000D01*
X217084Y142627D01*
X217862Y141462D01*
X217963Y141395D01*
X217373Y140316D01*
X216000Y140589D01*
X214627Y140316D01*
X213462Y139538D01*
X212684Y138373D01*
X212411Y137000D01*
X212684Y135627D01*
X213462Y134462D01*
X214627Y133684D01*
X215908Y133429D01*
X231169Y118169D01*
X232009Y117607D01*
X233000Y117410D01*
X236927D01*
X249979Y104359D01*
X249979Y104359D01*
X255410Y98927D01*
Y81770D01*
X253730D01*
Y71730D01*
X262270D01*
Y81770D01*
X260590D01*
Y100000D01*
X260393Y100991D01*
X259831Y101831D01*
X253641Y108021D01*
X253641Y108021D01*
X239831Y121831D01*
X238991Y122393D01*
X238000Y122590D01*
X234073D01*
X219571Y137092D01*
X219316Y138373D01*
X218538Y139538D01*
X218437Y139605D01*
X219027Y140684D01*
X220400Y140411D01*
X221773Y140684D01*
X222938Y141462D01*
X223716Y142627D01*
X223989Y144000D01*
X223716Y145373D01*
X222938Y146538D01*
X221773Y147316D01*
X220400Y147589D01*
D02*
G37*
G36*
X11400Y146589D02*
X10027Y146316D01*
X8862Y145538D01*
X8084Y144373D01*
X7811Y143000D01*
X8084Y141627D01*
X8862Y140462D01*
X10027Y139684D01*
X11400Y139411D01*
X12773Y139684D01*
X13938Y140462D01*
X14716Y141627D01*
X14989Y143000D01*
X14716Y144373D01*
X13938Y145538D01*
X12773Y146316D01*
X11400Y146589D01*
D02*
G37*
G36*
X195000Y141589D02*
X193627Y141316D01*
X192462Y140538D01*
X191684Y139373D01*
X191411Y138000D01*
X191684Y136627D01*
X192462Y135462D01*
X193627Y134684D01*
X195000Y134411D01*
X196373Y134684D01*
X197538Y135462D01*
X198316Y136627D01*
X198589Y138000D01*
X198316Y139373D01*
X197538Y140538D01*
X196373Y141316D01*
X195000Y141589D01*
D02*
G37*
G36*
X184000Y138589D02*
X182627Y138316D01*
X181462Y137538D01*
X180684Y136373D01*
X180411Y135000D01*
X180684Y133627D01*
X181217Y132829D01*
X181148Y132433D01*
X180795Y131665D01*
X180678Y131525D01*
X179627Y131316D01*
X178462Y130538D01*
X177684Y129373D01*
X177411Y128000D01*
X177684Y126627D01*
X178462Y125462D01*
X179627Y124684D01*
X181000Y124411D01*
X182373Y124684D01*
X183538Y125462D01*
X184316Y126627D01*
X184589Y128000D01*
X184316Y129373D01*
X183783Y130171D01*
X183852Y130567D01*
X184205Y131334D01*
X184322Y131475D01*
X185373Y131684D01*
X186538Y132462D01*
X187316Y133627D01*
X187589Y135000D01*
X187316Y136373D01*
X186538Y137538D01*
X185373Y138316D01*
X184000Y138589D01*
D02*
G37*
G36*
X283500Y114589D02*
X282127Y114316D01*
X280962Y113538D01*
X280184Y112373D01*
X279911Y111000D01*
X280184Y109627D01*
X280962Y108462D01*
X282127Y107684D01*
X283500Y107411D01*
X284873Y107684D01*
X286038Y108462D01*
X286816Y109627D01*
X287089Y111000D01*
X286816Y112373D01*
X286038Y113538D01*
X284873Y114316D01*
X283500Y114589D01*
D02*
G37*
G36*
X237000Y113189D02*
X235627Y112916D01*
X234462Y112138D01*
X233684Y110973D01*
X233411Y109600D01*
X233684Y108227D01*
X234462Y107062D01*
X235627Y106284D01*
X237000Y106011D01*
X238373Y106284D01*
X239538Y107062D01*
X240316Y108227D01*
X240589Y109600D01*
X240316Y110973D01*
X239538Y112138D01*
X238373Y112916D01*
X237000Y113189D01*
D02*
G37*
G36*
X137000Y101339D02*
X135627Y101066D01*
X134462Y100288D01*
X133684Y99123D01*
X133411Y97750D01*
X133684Y96377D01*
X134462Y95212D01*
X135627Y94434D01*
X137000Y94161D01*
X138373Y94434D01*
X139538Y95212D01*
X140316Y96377D01*
X140589Y97750D01*
X140316Y99123D01*
X139538Y100288D01*
X138373Y101066D01*
X137000Y101339D01*
D02*
G37*
G36*
X117000D02*
X115627Y101066D01*
X114462Y100288D01*
X113684Y99123D01*
X113411Y97750D01*
X113684Y96377D01*
X114462Y95212D01*
X115627Y94434D01*
X117000Y94161D01*
X118373Y94434D01*
X119538Y95212D01*
X120316Y96377D01*
X120589Y97750D01*
X120316Y99123D01*
X119538Y100288D01*
X118373Y101066D01*
X117000Y101339D01*
D02*
G37*
G36*
X303000Y93189D02*
X301627Y92916D01*
X300462Y92138D01*
X299684Y90973D01*
X299411Y89600D01*
X299684Y88227D01*
X300462Y87062D01*
X301627Y86284D01*
X303000Y86011D01*
X304373Y86284D01*
X305538Y87062D01*
X306316Y88227D01*
X306589Y89600D01*
X306316Y90973D01*
X305538Y92138D01*
X304373Y92916D01*
X303000Y93189D01*
D02*
G37*
G36*
X221000Y92589D02*
X219627Y92316D01*
X218462Y91538D01*
X217684Y90373D01*
X217411Y89000D01*
X217684Y87627D01*
X218462Y86462D01*
X219627Y85684D01*
X221000Y85411D01*
X222373Y85684D01*
X223538Y86462D01*
X224316Y87627D01*
X224589Y89000D01*
X224316Y90373D01*
X223538Y91538D01*
X222373Y92316D01*
X221000Y92589D01*
D02*
G37*
G36*
X157000Y89839D02*
X155627Y89566D01*
X154462Y88788D01*
X153684Y87623D01*
X153411Y86250D01*
X153684Y84877D01*
X154462Y83712D01*
X155627Y82934D01*
X157000Y82661D01*
X158373Y82934D01*
X159538Y83712D01*
X160316Y84877D01*
X160589Y86250D01*
X160316Y87623D01*
X159538Y88788D01*
X158373Y89566D01*
X157000Y89839D01*
D02*
G37*
G36*
X137000D02*
X135627Y89566D01*
X134462Y88788D01*
X133684Y87623D01*
X133411Y86250D01*
X133684Y84877D01*
X134462Y83712D01*
X135627Y82934D01*
X137000Y82661D01*
X138373Y82934D01*
X139538Y83712D01*
X140316Y84877D01*
X140589Y86250D01*
X140316Y87623D01*
X139538Y88788D01*
X138373Y89566D01*
X137000Y89839D01*
D02*
G37*
G36*
X117000D02*
X115627Y89566D01*
X114462Y88788D01*
X113684Y87623D01*
X113411Y86250D01*
X113684Y84877D01*
X114462Y83712D01*
X115627Y82934D01*
X117000Y82661D01*
X118373Y82934D01*
X119538Y83712D01*
X120316Y84877D01*
X120589Y86250D01*
X120316Y87623D01*
X119538Y88788D01*
X118373Y89566D01*
X117000Y89839D01*
D02*
G37*
G36*
X277000Y87589D02*
X275627Y87316D01*
X274462Y86538D01*
X273684Y85373D01*
X273411Y84000D01*
X273684Y82627D01*
X274462Y81462D01*
X275627Y80684D01*
X277000Y80411D01*
X278373Y80684D01*
X279538Y81462D01*
X280316Y82627D01*
X280589Y84000D01*
X280316Y85373D01*
X279538Y86538D01*
X278373Y87316D01*
X277000Y87589D01*
D02*
G37*
G36*
X0Y111348D02*
X-3189Y111034D01*
X-6256Y110104D01*
X-9083Y108593D01*
X-11560Y106560D01*
X-13593Y104082D01*
X-15104Y101256D01*
X-16035Y98189D01*
X-16349Y95000D01*
X-16035Y91810D01*
X-15104Y88743D01*
X-13593Y85917D01*
X-11560Y83439D01*
X-9083Y81406D01*
X-6256Y79895D01*
X-3189Y78965D01*
X0Y78651D01*
X3189Y78965D01*
X6256Y79895D01*
X9083Y81406D01*
X11560Y83439D01*
X13593Y85917D01*
X15104Y88743D01*
X16035Y91810D01*
X16349Y95000D01*
X16035Y98189D01*
X15104Y101256D01*
X13593Y104082D01*
X11560Y106560D01*
X9083Y108593D01*
X6256Y110104D01*
X3189Y111034D01*
X0Y111348D01*
D02*
G37*
G36*
X283500Y79589D02*
X282127Y79316D01*
X280962Y78538D01*
X280184Y77373D01*
X279911Y76000D01*
X280184Y74627D01*
X280962Y73462D01*
X282127Y72684D01*
X283500Y72411D01*
X284873Y72684D01*
X286038Y73462D01*
X286816Y74627D01*
X287089Y76000D01*
X286816Y77373D01*
X286038Y78538D01*
X284873Y79316D01*
X283500Y79589D01*
D02*
G37*
G36*
X229000Y116589D02*
X227627Y116316D01*
X226462Y115538D01*
X225684Y114373D01*
X225411Y113000D01*
X225684Y111627D01*
X226410Y110540D01*
Y105000D01*
X226607Y104009D01*
X227169Y103169D01*
X229566Y100771D01*
X229080Y99757D01*
X228960Y99581D01*
X227627Y99316D01*
X226462Y98538D01*
X225684Y97373D01*
X225411Y96000D01*
X225684Y94627D01*
X226462Y93462D01*
X227627Y92684D01*
X228908Y92429D01*
X235410Y85927D01*
Y81770D01*
X233730D01*
Y71730D01*
X242270D01*
Y81770D01*
X240590D01*
Y87000D01*
X240393Y87991D01*
X240075Y88467D01*
X241061Y89276D01*
X245410Y84927D01*
Y81770D01*
X243730D01*
Y71730D01*
X252270D01*
Y81770D01*
X250590D01*
Y86000D01*
X250393Y86991D01*
X249831Y87831D01*
X231590Y106073D01*
Y110540D01*
X232316Y111627D01*
X232589Y113000D01*
X232316Y114373D01*
X231538Y115538D01*
X230373Y116316D01*
X229000Y116589D01*
D02*
G37*
G36*
X361040Y73040D02*
X353270D01*
Y65270D01*
X361040D01*
Y73040D01*
D02*
G37*
G36*
X350730D02*
X342960D01*
Y65270D01*
X350730D01*
Y73040D01*
D02*
G37*
G36*
X218000Y68839D02*
X216626Y68566D01*
X215462Y67788D01*
X214684Y66623D01*
X214411Y65250D01*
X214684Y63877D01*
X215462Y62712D01*
X216626Y61934D01*
X218000Y61661D01*
X219373Y61934D01*
X220538Y62712D01*
X221316Y63877D01*
X221589Y65250D01*
X221316Y66623D01*
X220538Y67788D01*
X219373Y68566D01*
X218000Y68839D01*
D02*
G37*
G36*
X208000D02*
X206627Y68566D01*
X205462Y67788D01*
X204684Y66623D01*
X204411Y65250D01*
X204684Y63877D01*
X205462Y62712D01*
X206627Y61934D01*
X208000Y61661D01*
X209373Y61934D01*
X210538Y62712D01*
X211316Y63877D01*
X211589Y65250D01*
X211316Y66623D01*
X210538Y67788D01*
X209373Y68566D01*
X208000Y68839D01*
D02*
G37*
G36*
X188000D02*
X186627Y68566D01*
X185462Y67788D01*
X184684Y66623D01*
X184411Y65250D01*
X184684Y63877D01*
X185462Y62712D01*
X186627Y61934D01*
X188000Y61661D01*
X189373Y61934D01*
X190538Y62712D01*
X191316Y63877D01*
X191589Y65250D01*
X191316Y66623D01*
X190538Y67788D01*
X189373Y68566D01*
X188000Y68839D01*
D02*
G37*
G36*
X262270Y70270D02*
X253730D01*
Y61320D01*
X253000Y60898D01*
X252270Y61320D01*
Y70270D01*
X243730D01*
Y65414D01*
X242460Y64735D01*
X242270Y64862D01*
Y70270D01*
X233730D01*
Y60230D01*
X238608D01*
X243669Y55169D01*
X244509Y54607D01*
X245500Y54410D01*
X255540D01*
X256627Y53684D01*
X258000Y53411D01*
X259373Y53684D01*
X260538Y54462D01*
X261316Y55627D01*
X261589Y57000D01*
X261316Y58373D01*
X260924Y58960D01*
X261603Y60230D01*
X262270D01*
Y70270D01*
D02*
G37*
G36*
X69000Y80872D02*
X65927Y80467D01*
X63064Y79281D01*
X60606Y77394D01*
X58719Y74936D01*
X57533Y72073D01*
X57128Y69000D01*
X57533Y65927D01*
X58719Y63064D01*
X60606Y60606D01*
X63064Y58719D01*
X65927Y57533D01*
X69000Y57128D01*
X72073Y57533D01*
X74936Y58719D01*
X77394Y60606D01*
X79281Y63064D01*
X80467Y65927D01*
X80872Y69000D01*
X80467Y72073D01*
X79281Y74936D01*
X77394Y77394D01*
X74936Y79281D01*
X72073Y80467D01*
X69000Y80872D01*
D02*
G37*
G36*
X-69000D02*
X-72073Y80467D01*
X-74936Y79281D01*
X-77394Y77394D01*
X-79281Y74936D01*
X-80467Y72073D01*
X-80872Y69000D01*
X-80467Y65927D01*
X-79281Y63064D01*
X-77394Y60606D01*
X-74936Y58719D01*
X-72073Y57533D01*
X-69000Y57128D01*
X-65927Y57533D01*
X-63064Y58719D01*
X-60606Y60606D01*
X-58719Y63064D01*
X-57533Y65927D01*
X-57128Y69000D01*
X-57533Y72073D01*
X-58719Y74936D01*
X-60606Y77394D01*
X-63064Y79281D01*
X-65927Y80467D01*
X-69000Y80872D01*
D02*
G37*
G36*
X302000Y58189D02*
X300627Y57916D01*
X299462Y57138D01*
X298684Y55973D01*
X298411Y54600D01*
X298684Y53227D01*
X299462Y52062D01*
X300627Y51284D01*
X302000Y51011D01*
X303373Y51284D01*
X304538Y52062D01*
X305316Y53227D01*
X305589Y54600D01*
X305316Y55973D01*
X304538Y57138D01*
X303373Y57916D01*
X302000Y58189D01*
D02*
G37*
G36*
X184000Y44375D02*
X184000Y44375D01*
X171000D01*
X171000Y44375D01*
X170028Y43972D01*
X164028Y37972D01*
X163625Y37000D01*
X163625Y37000D01*
Y19000D01*
X164028Y18028D01*
X164028Y18028D01*
X166028Y16028D01*
X167000Y15625D01*
X167000Y15625D01*
X188000Y15625D01*
X188000Y15625D01*
X188972Y16028D01*
X188972Y16028D01*
X190972Y18028D01*
X190972Y18028D01*
X191375Y19000D01*
X191375Y19000D01*
Y24000D01*
X191375Y24000D01*
X191192Y24440D01*
X191894Y25710D01*
X193480D01*
Y35000D01*
Y44290D01*
X186460D01*
Y44280D01*
X185190Y43754D01*
X184972Y43972D01*
X184000Y44375D01*
D02*
G37*
G36*
X173000Y115589D02*
X171627Y115316D01*
X170462Y114538D01*
X163462Y107538D01*
X162684Y106373D01*
X162411Y105000D01*
Y64000D01*
X162684Y62627D01*
X163462Y61462D01*
X173462Y51462D01*
X174627Y50684D01*
X176000Y50411D01*
X196513D01*
X201461Y45463D01*
X200975Y44290D01*
X196020D01*
Y36270D01*
X203040D01*
Y42225D01*
X204213Y42711D01*
X205462Y41462D01*
X206627Y40684D01*
X208000Y40411D01*
X225786D01*
X227139Y39507D01*
X229000Y39137D01*
X230861Y39507D01*
X232215Y40411D01*
X240785D01*
X242139Y39507D01*
X244000Y39137D01*
X245861Y39507D01*
X247439Y40561D01*
X248493Y42139D01*
X248863Y44000D01*
X248493Y45861D01*
X247439Y47439D01*
X245861Y48493D01*
X244000Y48863D01*
X242139Y48493D01*
X240785Y47589D01*
X232215D01*
X230861Y48493D01*
X229000Y48863D01*
X227139Y48493D01*
X225786Y47589D01*
X209487D01*
X200538Y56538D01*
X199373Y57316D01*
X198000Y57589D01*
X177487D01*
X169589Y65487D01*
Y102811D01*
X173000D01*
X174373Y103084D01*
X175538Y103862D01*
X176316Y105027D01*
X176589Y106400D01*
Y112000D01*
X176316Y113373D01*
X175538Y114538D01*
X174373Y115316D01*
X173000Y115589D01*
D02*
G37*
G36*
X151000Y44589D02*
X149627Y44316D01*
X148462Y43538D01*
X147684Y42373D01*
X147411Y41000D01*
X147684Y39627D01*
X148462Y38462D01*
X149627Y37684D01*
X151000Y37411D01*
X152373Y37684D01*
X153538Y38462D01*
X154316Y39627D01*
X154589Y41000D01*
X154316Y42373D01*
X153538Y43538D01*
X152373Y44316D01*
X151000Y44589D01*
D02*
G37*
G36*
X276000Y37863D02*
X274139Y37493D01*
X272561Y36439D01*
X271439D01*
X269861Y37493D01*
X268000Y37863D01*
X266139Y37493D01*
X264561Y36439D01*
X263439D01*
X261861Y37493D01*
X260000Y37863D01*
X258139Y37493D01*
X256561Y36439D01*
X255507Y34861D01*
X255137Y33000D01*
X255507Y31139D01*
X256561Y29561D01*
X258139Y28507D01*
X260000Y28136D01*
X261861Y28507D01*
X263439Y29561D01*
X264561D01*
X266139Y28507D01*
X268000Y28136D01*
X269861Y28507D01*
X271439Y29561D01*
X272561D01*
X274139Y28507D01*
X276000Y28136D01*
X277861Y28507D01*
X279439Y29561D01*
X280493Y31139D01*
X280863Y33000D01*
X280493Y34861D01*
X279439Y36439D01*
X277861Y37493D01*
X276000Y37863D01*
D02*
G37*
G36*
X244000Y33863D02*
X242139Y33493D01*
X240561Y32439D01*
X239507Y30861D01*
X239137Y29000D01*
X239507Y27139D01*
X240561Y25561D01*
X242139Y24507D01*
X244000Y24137D01*
X245861Y24507D01*
X247439Y25561D01*
X248493Y27139D01*
X248863Y29000D01*
X248493Y30861D01*
X247439Y32439D01*
X245861Y33493D01*
X244000Y33863D01*
D02*
G37*
G36*
X229000D02*
X227139Y33493D01*
X225561Y32439D01*
X224507Y30861D01*
X224137Y29000D01*
X224507Y27139D01*
X225561Y25561D01*
X227139Y24507D01*
X229000Y24137D01*
X230861Y24507D01*
X232439Y25561D01*
X233493Y27139D01*
X233863Y29000D01*
X233493Y30861D01*
X232439Y32439D01*
X230861Y33493D01*
X229000Y33863D01*
D02*
G37*
G36*
X203040Y33730D02*
X196020D01*
Y25710D01*
X201887D01*
X201899Y25710D01*
X201899Y25710D01*
X202113Y25710D01*
X202265Y24939D01*
X201619Y23942D01*
X201462Y23838D01*
X200684Y22673D01*
X200411Y21300D01*
X200684Y19927D01*
X201462Y18762D01*
X202627Y17984D01*
X204000Y17711D01*
X205373Y17984D01*
X206538Y18762D01*
X207316Y19927D01*
X207589Y21300D01*
X207549Y21504D01*
X208629Y22584D01*
X208790Y22552D01*
X210163Y22825D01*
X211328Y23603D01*
X212106Y24767D01*
X212379Y26140D01*
X212106Y27514D01*
X211328Y28678D01*
X210163Y29456D01*
X208790Y29729D01*
X207417Y29456D01*
X206252Y28678D01*
X205474Y27514D01*
X205201Y26140D01*
X203994Y25699D01*
X203404Y25728D01*
X203255Y25735D01*
X203040Y25993D01*
X203040Y26436D01*
X203040Y26539D01*
Y33730D01*
D02*
G37*
G36*
X184000Y3375D02*
X184000Y3375D01*
X171000D01*
X171000Y3375D01*
X170028Y2972D01*
X164028Y-3028D01*
X163625Y-4000D01*
X163625Y-4000D01*
Y-22000D01*
X164028Y-22972D01*
X164028Y-22972D01*
X166028Y-24972D01*
X167000Y-25375D01*
X167000Y-25375D01*
X188000D01*
X188000Y-25375D01*
X188972Y-24972D01*
X188972Y-24972D01*
X190972Y-22972D01*
X190972Y-22972D01*
X191375Y-22000D01*
X191375Y-22000D01*
Y-17000D01*
X191849Y-16290D01*
X193480D01*
Y-7000D01*
Y2290D01*
X186460D01*
X186460Y2290D01*
Y2290D01*
X186460Y2290D01*
X185326Y2618D01*
X184972Y2972D01*
X184000Y3375D01*
D02*
G37*
G36*
X244000Y7863D02*
X242139Y7493D01*
X240561Y6439D01*
X239507Y4861D01*
X239137Y3000D01*
X239507Y1139D01*
X240561Y-439D01*
X242139Y-1493D01*
X244000Y-1863D01*
X245861Y-1493D01*
X247439Y-439D01*
X248493Y1139D01*
X248863Y3000D01*
X248493Y4861D01*
X247439Y6439D01*
X245861Y7493D01*
X244000Y7863D01*
D02*
G37*
G36*
X229000D02*
X227139Y7493D01*
X225561Y6439D01*
X224507Y4861D01*
X224137Y3000D01*
X224507Y1139D01*
X225561Y-439D01*
X227139Y-1493D01*
X229000Y-1863D01*
X230861Y-1493D01*
X232439Y-439D01*
X233493Y1139D01*
X233863Y3000D01*
X233493Y4861D01*
X232439Y6439D01*
X230861Y7493D01*
X229000Y7863D01*
D02*
G37*
G36*
X151000Y3589D02*
X149627Y3316D01*
X148462Y2538D01*
X147684Y1373D01*
X147411Y0D01*
X147684Y-1373D01*
X148462Y-2538D01*
X149627Y-3316D01*
X151000Y-3589D01*
X152373Y-3316D01*
X153538Y-2538D01*
X154316Y-1373D01*
X154589Y0D01*
X154316Y1373D01*
X153538Y2538D01*
X152373Y3316D01*
X151000Y3589D01*
D02*
G37*
G36*
X203040Y2290D02*
X196020D01*
Y-5730D01*
X203040D01*
Y2290D01*
D02*
G37*
G36*
X80000Y16349D02*
X76810Y16035D01*
X73744Y15104D01*
X70917Y13593D01*
X68440Y11560D01*
X66406Y9083D01*
X64896Y6256D01*
X63965Y3189D01*
X63651Y0D01*
X63965Y-3189D01*
X64896Y-6256D01*
X66406Y-9083D01*
X68440Y-11560D01*
X70917Y-13593D01*
X73744Y-15104D01*
X76810Y-16035D01*
X80000Y-16349D01*
X83189Y-16035D01*
X86256Y-15104D01*
X89083Y-13593D01*
X91560Y-11560D01*
X93593Y-9083D01*
X95104Y-6256D01*
X96034Y-3189D01*
X96348Y0D01*
X96034Y3189D01*
X95104Y6256D01*
X93593Y9083D01*
X91560Y11560D01*
X89083Y13593D01*
X86256Y15104D01*
X83189Y16035D01*
X80000Y16349D01*
D02*
G37*
G36*
X-80000D02*
X-83190Y16035D01*
X-86257Y15104D01*
X-89083Y13593D01*
X-91561Y11560D01*
X-93594Y9083D01*
X-95105Y6256D01*
X-96035Y3189D01*
X-96349Y0D01*
X-96035Y-3189D01*
X-95105Y-6256D01*
X-93594Y-9083D01*
X-91561Y-11560D01*
X-89083Y-13593D01*
X-86257Y-15104D01*
X-83190Y-16035D01*
X-80000Y-16349D01*
X-76811Y-16035D01*
X-73744Y-15104D01*
X-70918Y-13593D01*
X-68440Y-11560D01*
X-66407Y-9083D01*
X-64896Y-6256D01*
X-63966Y-3189D01*
X-63652Y0D01*
X-63966Y3189D01*
X-64896Y6256D01*
X-66407Y9083D01*
X-68440Y11560D01*
X-70918Y13593D01*
X-73744Y15104D01*
X-76811Y16035D01*
X-80000Y16349D01*
D02*
G37*
G36*
X244000Y-7137D02*
X242139Y-7507D01*
X240561Y-8561D01*
X239507Y-10139D01*
X239137Y-12000D01*
X239507Y-13861D01*
X240561Y-15439D01*
X242139Y-16493D01*
X244000Y-16863D01*
X245861Y-16493D01*
X247439Y-15439D01*
X248493Y-13861D01*
X248863Y-12000D01*
X248493Y-10139D01*
X247439Y-8561D01*
X245861Y-7507D01*
X244000Y-7137D01*
D02*
G37*
G36*
X229000D02*
X227139Y-7507D01*
X225561Y-8561D01*
X224507Y-10139D01*
X224137Y-12000D01*
X224507Y-13861D01*
X225561Y-15439D01*
X227139Y-16493D01*
X229000Y-16863D01*
X230861Y-16493D01*
X232439Y-15439D01*
X233493Y-13861D01*
X233863Y-12000D01*
X233493Y-10139D01*
X232439Y-8561D01*
X230861Y-7507D01*
X229000Y-7137D01*
D02*
G37*
G36*
X203040Y-8270D02*
X196020D01*
Y-16290D01*
X200634D01*
X200673Y-16332D01*
X201196Y-17560D01*
X200684Y-18327D01*
X200411Y-19700D01*
X200684Y-21074D01*
X201462Y-22238D01*
X202627Y-23016D01*
X204000Y-23289D01*
X205373Y-23016D01*
X206538Y-22238D01*
X207316Y-21074D01*
X207589Y-19700D01*
X207316Y-18327D01*
X206538Y-17162D01*
X205373Y-16384D01*
X204310Y-16173D01*
X204000Y-16111D01*
X203040Y-15007D01*
Y-8270D01*
D02*
G37*
G36*
X215000Y-18411D02*
X213627Y-18684D01*
X212462Y-19462D01*
X211684Y-20627D01*
X211411Y-22000D01*
X211684Y-23373D01*
X212462Y-24538D01*
X213627Y-25316D01*
X215000Y-25589D01*
X216373Y-25316D01*
X217538Y-24538D01*
X218316Y-23373D01*
X218589Y-22000D01*
X218316Y-20627D01*
X217538Y-19462D01*
X216373Y-18684D01*
X215000Y-18411D01*
D02*
G37*
G36*
X184000Y-37625D02*
X184000Y-37625D01*
X171000D01*
X171000Y-37625D01*
X170028Y-38028D01*
X164028Y-44028D01*
X163625Y-45000D01*
X163625Y-45000D01*
Y-63000D01*
X164028Y-63972D01*
X164028Y-63972D01*
X166028Y-65972D01*
X167000Y-66375D01*
X167000Y-66375D01*
X188000D01*
X188972Y-65972D01*
X188972Y-65972D01*
X190972Y-63972D01*
X190972Y-63972D01*
X191375Y-63000D01*
X191375Y-63000D01*
Y-58000D01*
X191375Y-58000D01*
X192455Y-57290D01*
X193480D01*
Y-48000D01*
Y-38710D01*
X186460D01*
X186460Y-38710D01*
Y-38710D01*
X186460Y-38710D01*
X185326Y-38382D01*
X184972Y-38028D01*
X184000Y-37625D01*
D02*
G37*
G36*
X276000Y-38137D02*
X274139Y-38507D01*
X272561Y-39561D01*
X271439D01*
X269861Y-38507D01*
X268000Y-38137D01*
X266139Y-38507D01*
X264561Y-39561D01*
X263439D01*
X261861Y-38507D01*
X260000Y-38137D01*
X258139Y-38507D01*
X256561Y-39561D01*
X255507Y-41139D01*
X255137Y-43000D01*
X255507Y-44861D01*
X256561Y-46439D01*
X258139Y-47493D01*
X260000Y-47863D01*
X261861Y-47493D01*
X263439Y-46439D01*
X264561D01*
X266139Y-47493D01*
X268000Y-47863D01*
X269861Y-47493D01*
X271439Y-46439D01*
X272561D01*
X274139Y-47493D01*
X276000Y-47863D01*
X277861Y-47493D01*
X279439Y-46439D01*
X280493Y-44861D01*
X280863Y-43000D01*
X280493Y-41139D01*
X279439Y-39561D01*
X277861Y-38507D01*
X276000Y-38137D01*
D02*
G37*
G36*
X0Y41358D02*
X-5398Y41005D01*
X-10704Y39949D01*
X-15827Y38210D01*
X-20679Y35818D01*
X-25178Y32812D01*
X-29245Y29245D01*
X-32812Y25178D01*
X-35818Y20679D01*
X-38210Y15827D01*
X-39949Y10704D01*
X-41005Y5398D01*
X-41358Y0D01*
X-41005Y-5398D01*
X-39949Y-10704D01*
X-38210Y-15827D01*
X-35818Y-20679D01*
X-32812Y-25178D01*
X-29245Y-29245D01*
X-25178Y-32812D01*
X-20679Y-35818D01*
X-15827Y-38210D01*
X-10704Y-39949D01*
X-5398Y-41005D01*
X0Y-41358D01*
X5398Y-41005D01*
X10704Y-39949D01*
X15827Y-38210D01*
X20679Y-35818D01*
X25178Y-32812D01*
X29245Y-29245D01*
X32812Y-25178D01*
X35818Y-20679D01*
X38210Y-15827D01*
X39949Y-10704D01*
X41005Y-5398D01*
X41358Y0D01*
X41005Y5398D01*
X39949Y10704D01*
X38210Y15827D01*
X35818Y20679D01*
X32812Y25178D01*
X29245Y29245D01*
X25178Y32812D01*
X20679Y35818D01*
X15827Y38210D01*
X10704Y39949D01*
X5398Y41005D01*
X0Y41358D01*
D02*
G37*
G36*
X244000Y-33137D02*
X242139Y-33507D01*
X240561Y-34561D01*
X239507Y-36139D01*
X239137Y-38000D01*
X239507Y-39861D01*
X240561Y-41439D01*
X242139Y-42493D01*
X244000Y-42863D01*
X245861Y-42493D01*
X247439Y-41439D01*
X248493Y-39861D01*
X248863Y-38000D01*
X248493Y-36139D01*
X247439Y-34561D01*
X245861Y-33507D01*
X244000Y-33137D01*
D02*
G37*
G36*
X229000D02*
X227139Y-33507D01*
X225561Y-34561D01*
X224507Y-36139D01*
X224137Y-38000D01*
X224507Y-39861D01*
X225561Y-41439D01*
X227139Y-42493D01*
X229000Y-42863D01*
X230861Y-42493D01*
X232439Y-41439D01*
X233493Y-39861D01*
X233863Y-38000D01*
X233493Y-36139D01*
X232439Y-34561D01*
X230861Y-33507D01*
X229000Y-33137D01*
D02*
G37*
G36*
X151000Y-37411D02*
X149627Y-37684D01*
X148462Y-38462D01*
X147684Y-39627D01*
X147411Y-41000D01*
X147684Y-42373D01*
X148462Y-43538D01*
X149627Y-44316D01*
X151000Y-44589D01*
X152373Y-44316D01*
X153538Y-43538D01*
X154316Y-42373D01*
X154589Y-41000D01*
X154316Y-39627D01*
X153538Y-38462D01*
X152373Y-37684D01*
X151000Y-37411D01*
D02*
G37*
G36*
X203040Y-38710D02*
X196020D01*
Y-46730D01*
X203040D01*
Y-38710D01*
D02*
G37*
G36*
X244000Y-48137D02*
X242139Y-48507D01*
X240561Y-49561D01*
X239507Y-51139D01*
X239137Y-53000D01*
X239507Y-54861D01*
X240561Y-56439D01*
X242139Y-57493D01*
X244000Y-57863D01*
X245861Y-57493D01*
X247439Y-56439D01*
X248493Y-54861D01*
X248863Y-53000D01*
X248493Y-51139D01*
X247439Y-49561D01*
X245861Y-48507D01*
X244000Y-48137D01*
D02*
G37*
G36*
X229000D02*
X227139Y-48507D01*
X225561Y-49561D01*
X224507Y-51139D01*
X224137Y-53000D01*
X224507Y-54861D01*
X225561Y-56439D01*
X227139Y-57493D01*
X229000Y-57863D01*
X230861Y-57493D01*
X232439Y-56439D01*
X233493Y-54861D01*
X233863Y-53000D01*
X233493Y-51139D01*
X232439Y-49561D01*
X230861Y-48507D01*
X229000Y-48137D01*
D02*
G37*
G36*
X203040Y-49270D02*
X196020D01*
Y-57290D01*
X200634D01*
X200674Y-57332D01*
X201196Y-58560D01*
X200684Y-59327D01*
X200411Y-60700D01*
X200684Y-62073D01*
X201462Y-63238D01*
X202627Y-64016D01*
X204000Y-64289D01*
X205373Y-64016D01*
X206538Y-63238D01*
X207316Y-62073D01*
X207589Y-60700D01*
X207316Y-59327D01*
X206538Y-58162D01*
X205373Y-57384D01*
X204310Y-57173D01*
X204000Y-57111D01*
X203040Y-56007D01*
Y-49270D01*
D02*
G37*
G36*
X215000Y-59411D02*
X213627Y-59684D01*
X212462Y-60462D01*
X211684Y-61627D01*
X211411Y-63000D01*
X211684Y-64373D01*
X212462Y-65538D01*
X213627Y-66316D01*
X215000Y-66589D01*
X216373Y-66316D01*
X217538Y-65538D01*
X218316Y-64373D01*
X218589Y-63000D01*
X218316Y-61627D01*
X217538Y-60462D01*
X216373Y-59684D01*
X215000Y-59411D01*
D02*
G37*
G36*
X69000Y-57128D02*
X65927Y-57533D01*
X63064Y-58719D01*
X60606Y-60606D01*
X58719Y-63064D01*
X57533Y-65927D01*
X57128Y-69000D01*
X57533Y-72073D01*
X58719Y-74936D01*
X60606Y-77394D01*
X63064Y-79281D01*
X65927Y-80467D01*
X69000Y-80872D01*
X72073Y-80467D01*
X74936Y-79281D01*
X77394Y-77394D01*
X79281Y-74936D01*
X80467Y-72073D01*
X80872Y-69000D01*
X80467Y-65927D01*
X79281Y-63064D01*
X77394Y-60606D01*
X74936Y-58719D01*
X72073Y-57533D01*
X69000Y-57128D01*
D02*
G37*
G36*
X-69000D02*
X-72073Y-57533D01*
X-74936Y-58719D01*
X-77394Y-60606D01*
X-79281Y-63064D01*
X-80467Y-65927D01*
X-80872Y-69000D01*
X-80467Y-72073D01*
X-79281Y-74936D01*
X-77394Y-77394D01*
X-74936Y-79281D01*
X-72073Y-80467D01*
X-69000Y-80872D01*
X-65927Y-80467D01*
X-63064Y-79281D01*
X-60606Y-77394D01*
X-58719Y-74936D01*
X-57533Y-72073D01*
X-57128Y-69000D01*
X-57533Y-65927D01*
X-58719Y-63064D01*
X-60606Y-60606D01*
X-63064Y-58719D01*
X-65927Y-57533D01*
X-69000Y-57128D01*
D02*
G37*
G36*
X140281Y-59649D02*
X138553Y-59877D01*
X136942Y-60544D01*
X135559Y-61605D01*
X134498Y-62988D01*
X133831Y-64598D01*
X133604Y-66326D01*
X133831Y-68055D01*
X133864Y-68134D01*
X133048Y-69483D01*
X131871Y-69638D01*
X129952Y-70433D01*
X128304Y-71698D01*
X127819Y-72330D01*
X139199Y-78900D01*
X150579Y-85471D01*
X150884Y-84735D01*
X151155Y-82675D01*
X150884Y-80615D01*
X150430Y-79518D01*
X151190Y-78137D01*
X151276Y-78126D01*
X152886Y-77459D01*
X154269Y-76398D01*
X155330Y-75015D01*
X155997Y-73405D01*
X156224Y-71677D01*
X155997Y-69948D01*
X155330Y-68338D01*
X154269Y-66955D01*
X152886Y-65894D01*
X143619Y-60544D01*
X142009Y-59877D01*
X140281Y-59649D01*
D02*
G37*
%LPD*%
G36*
X185000Y42000D02*
Y29000D01*
X190000Y24000D01*
Y19000D01*
X188000Y17000D01*
X167000Y17000D01*
X165000Y19000D01*
Y37000D01*
X171000Y43000D01*
X184000D01*
X185000Y42000D01*
D02*
G37*
G36*
Y1000D02*
Y-12000D01*
X187730Y-14730D01*
Y-15020D01*
X188020D01*
X190000Y-17000D01*
Y-22000D01*
X188000Y-24000D01*
X167000D01*
X165000Y-22000D01*
Y-4000D01*
X171000Y2000D01*
X184000D01*
X185000Y1000D01*
D02*
G37*
G36*
Y-40000D02*
Y-53000D01*
X187730Y-55730D01*
Y-56020D01*
X188020D01*
X190000Y-58000D01*
Y-63000D01*
X188000Y-65000D01*
X167000D01*
X165000Y-63000D01*
Y-45000D01*
X171000Y-39000D01*
X184000D01*
X185000Y-40000D01*
D02*
G37*
%LPC*%
G36*
X-189230Y278951D02*
Y271270D01*
X-181549D01*
X-181693Y272360D01*
X-182604Y274559D01*
X-184053Y276447D01*
X-185941Y277896D01*
X-188140Y278807D01*
X-189230Y278951D01*
D02*
G37*
G36*
X-170500Y277837D02*
X-172528Y277570D01*
X-174419Y276787D01*
X-176042Y275542D01*
X-177287Y273919D01*
X-178070Y272028D01*
X-178337Y270000D01*
X-178070Y267972D01*
X-177287Y266082D01*
X-176042Y264458D01*
X-174419Y263213D01*
X-172528Y262430D01*
X-170500Y262163D01*
X-168472Y262430D01*
X-166581Y263213D01*
X-164958Y264458D01*
X-163713Y266082D01*
X-162930Y267972D01*
X-162663Y270000D01*
X-162930Y272028D01*
X-163713Y273919D01*
X-164958Y275542D01*
X-166581Y276787D01*
X-168472Y277570D01*
X-170500Y277837D01*
D02*
G37*
G36*
X-181549Y268730D02*
X-189230D01*
Y261049D01*
X-188140Y261193D01*
X-185941Y262104D01*
X-184053Y263553D01*
X-182604Y265441D01*
X-181693Y267640D01*
X-181549Y268730D01*
D02*
G37*
G36*
X-189230Y258951D02*
Y251270D01*
X-181549D01*
X-181693Y252360D01*
X-182604Y254559D01*
X-184053Y256447D01*
X-185941Y257896D01*
X-188140Y258807D01*
X-189230Y258951D01*
D02*
G37*
G36*
X-170500Y257837D02*
X-172528Y257570D01*
X-174419Y256787D01*
X-176042Y255542D01*
X-177287Y253918D01*
X-178070Y252028D01*
X-178337Y250000D01*
X-178070Y247972D01*
X-177287Y246082D01*
X-176042Y244458D01*
X-174419Y243213D01*
X-172528Y242430D01*
X-170500Y242163D01*
X-168472Y242430D01*
X-166581Y243213D01*
X-164958Y244458D01*
X-163713Y246082D01*
X-162930Y247972D01*
X-162663Y250000D01*
X-162930Y252028D01*
X-163713Y253918D01*
X-164958Y255542D01*
X-166581Y256787D01*
X-168472Y257570D01*
X-170500Y257837D01*
D02*
G37*
G36*
X-181549Y248730D02*
X-189230D01*
Y241049D01*
X-188140Y241193D01*
X-185941Y242104D01*
X-184053Y243553D01*
X-182604Y245441D01*
X-181693Y247640D01*
X-181549Y248730D01*
D02*
G37*
G36*
X-189230Y238951D02*
Y231270D01*
X-181549D01*
X-181693Y232360D01*
X-182604Y234559D01*
X-184053Y236447D01*
X-185941Y237896D01*
X-188140Y238807D01*
X-189230Y238951D01*
D02*
G37*
G36*
X-181549Y228730D02*
X-189230D01*
Y221049D01*
X-188140Y221193D01*
X-185941Y222104D01*
X-184053Y223553D01*
X-182604Y225441D01*
X-181693Y227640D01*
X-181549Y228730D01*
D02*
G37*
G36*
X-162730Y237770D02*
X-178270D01*
Y222230D01*
X-175873D01*
Y219340D01*
X-175893Y219240D01*
Y217168D01*
X-176791Y216270D01*
X-179520Y216270D01*
X-180210Y217254D01*
Y217540D01*
X-185980D01*
Y210000D01*
Y202460D01*
X-180210D01*
Y202746D01*
X-179520Y203730D01*
X-178940Y203730D01*
X-167980D01*
Y208171D01*
X-166721Y209431D01*
X-165556Y211174D01*
X-165147Y213230D01*
Y219160D01*
X-165127Y219260D01*
Y222230D01*
X-162730D01*
Y237770D01*
D02*
G37*
G36*
X-188520Y217540D02*
X-194290D01*
Y211270D01*
X-188520D01*
Y217540D01*
D02*
G37*
G36*
Y208730D02*
X-194290D01*
Y202460D01*
X-188520D01*
Y208730D01*
D02*
G37*
G36*
X373270Y72951D02*
Y65270D01*
X380951D01*
X380807Y66360D01*
X379896Y68559D01*
X378447Y70447D01*
X376559Y71896D01*
X374360Y72807D01*
X373270Y72951D01*
D02*
G37*
G36*
X376790Y45730D02*
X371020D01*
Y39460D01*
X376790D01*
Y45730D01*
D02*
G37*
G36*
X-188520Y-1460D02*
X-194290D01*
Y-7730D01*
X-188520D01*
Y-1460D01*
D02*
G37*
G36*
Y-10270D02*
X-194290D01*
Y-16540D01*
X-188520D01*
Y-10270D01*
D02*
G37*
G36*
X-189230Y-21049D02*
Y-28730D01*
X-181549D01*
X-181693Y-27640D01*
X-182604Y-25441D01*
X-184053Y-23553D01*
X-185941Y-22104D01*
X-188140Y-21193D01*
X-189230Y-21049D01*
D02*
G37*
G36*
X-180210Y-1460D02*
X-185980D01*
Y-9000D01*
Y-16540D01*
X-180210D01*
Y-16254D01*
X-179520Y-15270D01*
X-178940Y-15270D01*
X-175873D01*
Y-24329D01*
X-176042Y-24458D01*
X-177287Y-26082D01*
X-178070Y-27972D01*
X-178337Y-30000D01*
X-178070Y-32028D01*
X-177287Y-33918D01*
X-176042Y-35542D01*
X-174419Y-36787D01*
X-172528Y-37570D01*
X-170500Y-37837D01*
X-168472Y-37570D01*
X-166581Y-36787D01*
X-164958Y-35542D01*
X-163713Y-33918D01*
X-162930Y-32028D01*
X-162663Y-30000D01*
X-162930Y-27972D01*
X-163713Y-26082D01*
X-164958Y-24458D01*
X-165127Y-24329D01*
Y-11750D01*
X-165536Y-9694D01*
X-166700Y-7951D01*
X-167980Y-6671D01*
Y-2730D01*
X-178940D01*
X-179520Y-2730D01*
X-180210Y-1746D01*
Y-1460D01*
D02*
G37*
G36*
X-181549Y-31270D02*
X-189230D01*
Y-38951D01*
X-188140Y-38807D01*
X-185941Y-37896D01*
X-184053Y-36447D01*
X-182604Y-34559D01*
X-181693Y-32360D01*
X-181549Y-31270D01*
D02*
G37*
G36*
X-189230Y-41049D02*
Y-48730D01*
X-181549D01*
X-181693Y-47640D01*
X-182604Y-45441D01*
X-184053Y-43553D01*
X-185941Y-42104D01*
X-188140Y-41193D01*
X-189230Y-41049D01*
D02*
G37*
G36*
X-170500Y-42163D02*
X-172528Y-42430D01*
X-174419Y-43213D01*
X-176042Y-44458D01*
X-177287Y-46082D01*
X-178070Y-47972D01*
X-178337Y-50000D01*
X-178070Y-52028D01*
X-177287Y-53918D01*
X-176042Y-55542D01*
X-174419Y-56787D01*
X-172528Y-57570D01*
X-170500Y-57837D01*
X-168472Y-57570D01*
X-166581Y-56787D01*
X-164958Y-55542D01*
X-163713Y-53918D01*
X-162930Y-52028D01*
X-162663Y-50000D01*
X-162930Y-47972D01*
X-163713Y-46082D01*
X-164958Y-44458D01*
X-166581Y-43213D01*
X-168472Y-42430D01*
X-170500Y-42163D01*
D02*
G37*
G36*
X-181549Y-51270D02*
X-189230D01*
Y-58951D01*
X-188140Y-58807D01*
X-185941Y-57896D01*
X-184053Y-56447D01*
X-182604Y-54559D01*
X-181693Y-52360D01*
X-181549Y-51270D01*
D02*
G37*
G36*
X-189230Y-61049D02*
Y-68730D01*
X-181549D01*
X-181693Y-67640D01*
X-182604Y-65441D01*
X-184053Y-63553D01*
X-185941Y-62104D01*
X-188140Y-61193D01*
X-189230Y-61049D01*
D02*
G37*
G36*
X-162730Y-62230D02*
X-178270D01*
Y-77770D01*
X-162730D01*
Y-62230D01*
D02*
G37*
G36*
X-181549Y-71270D02*
X-189230D01*
Y-78951D01*
X-188140Y-78807D01*
X-185941Y-77896D01*
X-184053Y-76447D01*
X-182604Y-74559D01*
X-181693Y-72360D01*
X-181549Y-71270D01*
D02*
G37*
G36*
X270000Y-118463D02*
X267972Y-118730D01*
X266082Y-119513D01*
X264458Y-120758D01*
X263213Y-122381D01*
X262430Y-124272D01*
X262163Y-126300D01*
X262430Y-128328D01*
X263213Y-130218D01*
X264458Y-131842D01*
X266082Y-133087D01*
X267972Y-133870D01*
X270000Y-134137D01*
X272028Y-133870D01*
X273919Y-133087D01*
X275542Y-131842D01*
X276787Y-130218D01*
X277570Y-128328D01*
X277837Y-126300D01*
X277570Y-124272D01*
X276787Y-122381D01*
X275542Y-120758D01*
X273919Y-119513D01*
X272028Y-118730D01*
X270000Y-118463D01*
D02*
G37*
G36*
X250000D02*
X247972Y-118730D01*
X246082Y-119513D01*
X244458Y-120758D01*
X243213Y-122381D01*
X242430Y-124272D01*
X242163Y-126300D01*
X242430Y-128328D01*
X243213Y-130218D01*
X244458Y-131842D01*
X246082Y-133087D01*
X247972Y-133870D01*
X250000Y-134137D01*
X252028Y-133870D01*
X253918Y-133087D01*
X255542Y-131842D01*
X256787Y-130218D01*
X257570Y-128328D01*
X257837Y-126300D01*
X257570Y-124272D01*
X256787Y-122381D01*
X255542Y-120758D01*
X253918Y-119513D01*
X252028Y-118730D01*
X250000Y-118463D01*
D02*
G37*
G36*
X230000D02*
X227972Y-118730D01*
X226082Y-119513D01*
X224458Y-120758D01*
X224314Y-120947D01*
X215230D01*
X213174Y-121356D01*
X211431Y-122521D01*
X210171Y-123780D01*
X205730D01*
Y-134740D01*
X205730Y-135320D01*
X204746Y-136010D01*
X204460D01*
Y-141780D01*
X219540D01*
Y-136010D01*
X219254D01*
X218270Y-135320D01*
X218270Y-134740D01*
Y-131693D01*
X224345D01*
X224458Y-131842D01*
X226082Y-133087D01*
X227972Y-133870D01*
X230000Y-134137D01*
X232028Y-133870D01*
X233918Y-133087D01*
X235542Y-131842D01*
X236787Y-130218D01*
X237570Y-128328D01*
X237837Y-126300D01*
X237570Y-124272D01*
X236787Y-122381D01*
X235542Y-120758D01*
X233918Y-119513D01*
X232028Y-118730D01*
X230000Y-118463D01*
D02*
G37*
G36*
X-30000D02*
X-32028Y-118730D01*
X-33918Y-119513D01*
X-35542Y-120758D01*
X-36787Y-122381D01*
X-37570Y-124272D01*
X-37837Y-126300D01*
X-37570Y-128328D01*
X-36787Y-130218D01*
X-35542Y-131842D01*
X-33918Y-133087D01*
X-32028Y-133870D01*
X-30000Y-134137D01*
X-27972Y-133870D01*
X-26082Y-133087D01*
X-24458Y-131842D01*
X-23213Y-130218D01*
X-22430Y-128328D01*
X-22163Y-126300D01*
X-22430Y-124272D01*
X-23213Y-122381D01*
X-24458Y-120758D01*
X-26082Y-119513D01*
X-27972Y-118730D01*
X-30000Y-118463D01*
D02*
G37*
G36*
X-50000D02*
X-52028Y-118730D01*
X-53918Y-119513D01*
X-55542Y-120758D01*
X-56787Y-122381D01*
X-57570Y-124272D01*
X-57837Y-126300D01*
X-57570Y-128328D01*
X-56787Y-130218D01*
X-55542Y-131842D01*
X-53918Y-133087D01*
X-52028Y-133870D01*
X-50000Y-134137D01*
X-47972Y-133870D01*
X-46082Y-133087D01*
X-44458Y-131842D01*
X-43213Y-130218D01*
X-42430Y-128328D01*
X-42163Y-126300D01*
X-42430Y-124272D01*
X-43213Y-122381D01*
X-44458Y-120758D01*
X-46082Y-119513D01*
X-47972Y-118730D01*
X-50000Y-118463D01*
D02*
G37*
G36*
X-70000D02*
X-72028Y-118730D01*
X-73918Y-119513D01*
X-75542Y-120758D01*
X-75671Y-120927D01*
X-85250D01*
X-87306Y-121336D01*
X-89050Y-122500D01*
X-90329Y-123780D01*
X-95270D01*
Y-134740D01*
X-95270Y-135320D01*
X-96254Y-136010D01*
X-96540D01*
Y-141780D01*
X-89000D01*
X-81460D01*
Y-136010D01*
X-81746D01*
X-82730Y-135320D01*
X-82730Y-134740D01*
Y-131673D01*
X-75671D01*
X-75542Y-131842D01*
X-73918Y-133087D01*
X-72028Y-133870D01*
X-70000Y-134137D01*
X-67972Y-133870D01*
X-66082Y-133087D01*
X-64458Y-131842D01*
X-63213Y-130218D01*
X-62430Y-128328D01*
X-62163Y-126300D01*
X-62430Y-124272D01*
X-63213Y-122381D01*
X-64458Y-120758D01*
X-66082Y-119513D01*
X-67972Y-118730D01*
X-70000Y-118463D01*
D02*
G37*
G36*
X271270Y-137349D02*
Y-145030D01*
X278951D01*
X278807Y-143940D01*
X277896Y-141741D01*
X276447Y-139853D01*
X274559Y-138404D01*
X272360Y-137493D01*
X271270Y-137349D01*
D02*
G37*
G36*
X268730D02*
X267640Y-137493D01*
X265441Y-138404D01*
X263553Y-139853D01*
X262104Y-141741D01*
X261193Y-143940D01*
X261049Y-145030D01*
X268730D01*
Y-137349D01*
D02*
G37*
G36*
X251270D02*
Y-145030D01*
X258951D01*
X258807Y-143940D01*
X257896Y-141741D01*
X256447Y-139853D01*
X254559Y-138404D01*
X252360Y-137493D01*
X251270Y-137349D01*
D02*
G37*
G36*
X248730D02*
X247640Y-137493D01*
X245441Y-138404D01*
X243553Y-139853D01*
X242104Y-141741D01*
X241193Y-143940D01*
X241049Y-145030D01*
X248730D01*
Y-137349D01*
D02*
G37*
G36*
X239040Y-137260D02*
X231270D01*
Y-145030D01*
X239040D01*
Y-137260D01*
D02*
G37*
G36*
X228730D02*
X220960D01*
Y-145030D01*
X228730D01*
Y-137260D01*
D02*
G37*
G36*
X-28730Y-137349D02*
Y-145030D01*
X-21049D01*
X-21193Y-143940D01*
X-22104Y-141741D01*
X-23553Y-139853D01*
X-25441Y-138404D01*
X-27640Y-137493D01*
X-28730Y-137349D01*
D02*
G37*
G36*
X-31270D02*
X-32360Y-137493D01*
X-34559Y-138404D01*
X-36447Y-139853D01*
X-37896Y-141741D01*
X-38807Y-143940D01*
X-38951Y-145030D01*
X-31270D01*
Y-137349D01*
D02*
G37*
G36*
X-48730D02*
Y-145030D01*
X-41049D01*
X-41193Y-143940D01*
X-42104Y-141741D01*
X-43553Y-139853D01*
X-45441Y-138404D01*
X-47640Y-137493D01*
X-48730Y-137349D01*
D02*
G37*
G36*
X-51270D02*
X-52360Y-137493D01*
X-54559Y-138404D01*
X-56447Y-139853D01*
X-57896Y-141741D01*
X-58807Y-143940D01*
X-58951Y-145030D01*
X-51270D01*
Y-137349D01*
D02*
G37*
G36*
X-60960Y-137260D02*
X-68730D01*
Y-145030D01*
X-60960D01*
Y-137260D01*
D02*
G37*
G36*
X-71270D02*
X-79040D01*
Y-145030D01*
X-71270D01*
Y-137260D01*
D02*
G37*
G36*
X219540Y-144320D02*
X213270D01*
Y-150090D01*
X219540D01*
Y-144320D01*
D02*
G37*
G36*
X210730D02*
X204460D01*
Y-150090D01*
X210730D01*
Y-144320D01*
D02*
G37*
G36*
X-81460Y-144320D02*
X-87730D01*
Y-150090D01*
X-81460D01*
Y-144320D01*
D02*
G37*
G36*
X-90270D02*
X-96540D01*
Y-150090D01*
X-90270D01*
Y-144320D01*
D02*
G37*
G36*
X278951Y-147570D02*
X271270D01*
Y-155251D01*
X272360Y-155107D01*
X274559Y-154196D01*
X276447Y-152747D01*
X277896Y-150859D01*
X278807Y-148660D01*
X278951Y-147570D01*
D02*
G37*
G36*
X268730D02*
X261049D01*
X261193Y-148660D01*
X262104Y-150859D01*
X263553Y-152747D01*
X265441Y-154196D01*
X267640Y-155107D01*
X268730Y-155251D01*
Y-147570D01*
D02*
G37*
G36*
X258951D02*
X251270D01*
Y-155251D01*
X252360Y-155107D01*
X254559Y-154196D01*
X256447Y-152747D01*
X257896Y-150859D01*
X258807Y-148660D01*
X258951Y-147570D01*
D02*
G37*
G36*
X248730D02*
X241049D01*
X241193Y-148660D01*
X242104Y-150859D01*
X243553Y-152747D01*
X245441Y-154196D01*
X247640Y-155107D01*
X248730Y-155251D01*
Y-147570D01*
D02*
G37*
G36*
X-21049D02*
X-28730D01*
Y-155251D01*
X-27640Y-155107D01*
X-25441Y-154196D01*
X-23553Y-152747D01*
X-22104Y-150859D01*
X-21193Y-148660D01*
X-21049Y-147570D01*
D02*
G37*
G36*
X-31270D02*
X-38951D01*
X-38807Y-148660D01*
X-37896Y-150859D01*
X-36447Y-152747D01*
X-34559Y-154196D01*
X-32360Y-155107D01*
X-31270Y-155251D01*
Y-147570D01*
D02*
G37*
G36*
X-41049D02*
X-48730D01*
Y-155251D01*
X-47640Y-155107D01*
X-45441Y-154196D01*
X-43553Y-152747D01*
X-42104Y-150859D01*
X-41193Y-148660D01*
X-41049Y-147570D01*
D02*
G37*
G36*
X-51270D02*
X-58951D01*
X-58807Y-148660D01*
X-57896Y-150859D01*
X-56447Y-152747D01*
X-54559Y-154196D01*
X-52360Y-155107D01*
X-51270Y-155251D01*
Y-147570D01*
D02*
G37*
G36*
X239040D02*
X231270D01*
Y-155340D01*
X239040D01*
Y-147570D01*
D02*
G37*
G36*
X228730D02*
X220960D01*
Y-155340D01*
X228730D01*
Y-147570D01*
D02*
G37*
G36*
X-60960D02*
X-68730D01*
Y-155340D01*
X-60960D01*
Y-147570D01*
D02*
G37*
G36*
X-71270D02*
X-79040D01*
Y-155340D01*
X-71270D01*
Y-147570D01*
D02*
G37*
%LPD*%
D15*
X-112125Y151125D02*
X-112000Y151000D01*
X-112125Y151125D02*
Y159875D01*
X-121500Y184320D02*
Y184850D01*
X-123750Y160000D02*
Y182070D01*
X-121500Y184320D01*
X-112250Y160000D02*
X-112125Y159875D01*
X238000Y64500D02*
X245500Y57000D01*
X238000Y64500D02*
Y65250D01*
X245500Y57000D02*
X258000D01*
X251810Y106190D02*
Y106190D01*
Y106190D02*
X258000Y100000D01*
Y76750D02*
Y100000D01*
X238000Y120000D02*
X251810Y106190D01*
X233000Y120000D02*
X238000D01*
X216000Y137000D02*
X233000Y120000D01*
X229000Y105000D02*
X248000Y86000D01*
X229000Y105000D02*
Y113000D01*
X248000Y76750D02*
Y86000D01*
X238000Y76750D02*
Y87000D01*
X229000Y96000D02*
X238000Y87000D01*
D18*
X161845Y250279D02*
X166460Y245664D01*
Y126210D02*
Y245664D01*
X161845Y253721D02*
X164279Y256155D01*
X149250Y109000D02*
X166460Y126210D01*
X161845Y250279D02*
Y253721D01*
X170005Y256155D02*
X170080Y256080D01*
X164279Y256155D02*
X170005D01*
X157000Y110000D02*
X169000Y122000D01*
X166000Y252000D02*
X169000Y249000D01*
Y122000D02*
Y249000D01*
X157000Y97750D02*
Y110000D01*
D26*
X-112250Y160000D02*
D03*
X-123750D02*
D03*
D29*
X258000Y65250D02*
D03*
Y76750D02*
D03*
X248000Y65250D02*
D03*
Y76750D02*
D03*
X238000Y65250D02*
D03*
Y76750D02*
D03*
D116*
X369940Y47190D02*
Y59110D01*
X372000Y61170D02*
Y64000D01*
X369750Y47000D02*
X369940Y47190D01*
Y59110D02*
X372000Y61170D01*
X171500Y110500D02*
X173000Y109000D01*
X167400Y106400D02*
X171500Y110500D01*
X173000Y109000D02*
Y112000D01*
X171500Y110500D02*
X173000Y112000D01*
Y106400D02*
Y109000D01*
X167400Y106400D02*
X173000D01*
X166000Y105000D02*
X167400Y106400D01*
X166000Y64000D02*
Y105000D01*
Y64000D02*
X176000Y54000D01*
X198000D01*
X208000Y44000D01*
X229000D01*
X244000D01*
D117*
X144914Y-69001D02*
D03*
X132214Y-90998D02*
D03*
X138564Y-80000D02*
D03*
D118*
X352000Y64000D02*
D03*
X182000Y323000D02*
D03*
X-108000Y258000D02*
D03*
X230000Y-146300D02*
D03*
X-70000D02*
D03*
D119*
X372000Y64000D02*
D03*
X242000Y323000D02*
D03*
X222000D02*
D03*
X202000D02*
D03*
X-88000Y258000D02*
D03*
X-68000D02*
D03*
X-190500Y-30000D02*
D03*
Y-50000D02*
D03*
X-170500Y-30000D02*
D03*
Y-50000D02*
D03*
X-190500Y-70000D02*
D03*
Y270000D02*
D03*
Y250000D02*
D03*
X-170500Y270000D02*
D03*
Y250000D02*
D03*
X-190500Y230000D02*
D03*
X270000Y-126300D02*
D03*
X250000D02*
D03*
X270000Y-146300D02*
D03*
X250000D02*
D03*
X230000Y-126300D02*
D03*
X-30000D02*
D03*
X-50000D02*
D03*
X-30000Y-146300D02*
D03*
X-50000D02*
D03*
X-70000Y-126300D02*
D03*
D120*
X-132214Y-90998D02*
D03*
X-144914Y-69001D02*
D03*
X-138564Y-80000D02*
D03*
D121*
X0Y160000D02*
D03*
X12700D02*
D03*
X-12700D02*
D03*
D122*
X0Y420000D02*
D03*
X420000Y0D02*
D03*
X370000Y370000D02*
D03*
D123*
X-170500Y-70000D02*
D03*
Y230000D02*
D03*
D124*
X398680Y256000D02*
D03*
X161400Y144000D02*
D03*
X50000Y299750D02*
D03*
X60000Y319400D02*
D03*
X106400Y347000D02*
D03*
X302000Y54600D02*
D03*
X303000Y89600D02*
D03*
X214000Y208400D02*
D03*
X224250Y209000D02*
D03*
X238600Y258000D02*
D03*
X228000Y258250D02*
D03*
X186400Y256000D02*
D03*
X146750Y276000D02*
D03*
Y266000D02*
D03*
X148600Y256000D02*
D03*
X101000Y209400D02*
D03*
X68000Y191000D02*
D03*
X11400Y143000D02*
D03*
X-68000Y187000D02*
D03*
X-69600Y177000D02*
D03*
X-71000Y163400D02*
D03*
X-61000D02*
D03*
X216000Y172000D02*
D03*
X209000Y222000D02*
D03*
X206310Y241000D02*
D03*
X170080Y256080D02*
D03*
X166000Y252000D02*
D03*
X368000Y53000D02*
D03*
Y45000D02*
D03*
X376000D02*
D03*
X0Y183375D02*
D03*
X-10000D02*
D03*
X-20000Y241000D02*
D03*
X10000Y178000D02*
D03*
X87250Y168000D02*
D03*
X88600Y158000D02*
D03*
X214000Y237000D02*
D03*
X217000Y166000D02*
D03*
X219000Y220000D02*
D03*
X145000Y146000D02*
D03*
X138000D02*
D03*
X199000Y263000D02*
D03*
X198000Y256000D02*
D03*
X131000Y146000D02*
D03*
X124000D02*
D03*
X319000Y252250D02*
D03*
Y315750D02*
D03*
X257000Y216000D02*
D03*
X283500Y76000D02*
D03*
Y111000D02*
D03*
X302000Y63400D02*
D03*
X303000Y98400D02*
D03*
X290001Y93998D02*
D03*
X281001D02*
D03*
X280751Y59748D02*
D03*
X289751D02*
D03*
X277000Y84000D02*
D03*
X258600Y258000D02*
D03*
X247400D02*
D03*
X267400D02*
D03*
X247000Y275000D02*
D03*
X224200Y198400D02*
D03*
X188000Y65250D02*
D03*
X178000D02*
D03*
X-132000Y173600D02*
D03*
X173000Y112000D02*
D03*
Y97600D02*
D03*
Y106400D02*
D03*
X376000Y53000D02*
D03*
X81000Y180000D02*
D03*
X-61000Y154700D02*
D03*
X-71000D02*
D03*
X-81000Y154100D02*
D03*
X-117000Y173100D02*
D03*
X-110500D02*
D03*
X-112000Y151000D02*
D03*
X-121500Y184850D02*
D03*
X-102500Y179775D02*
D03*
X-132000Y182400D02*
D03*
X135000Y265750D02*
D03*
X100000Y305838D02*
D03*
X82838Y305838D02*
D03*
X82838Y323000D02*
D03*
X100000Y323000D02*
D03*
X91419Y314419D02*
D03*
X74000Y334000D02*
D03*
X94000Y286000D02*
D03*
X97600Y347000D02*
D03*
X81000Y345600D02*
D03*
X60000Y310600D02*
D03*
X73600Y284000D02*
D03*
X88600Y180000D02*
D03*
X264500Y158000D02*
D03*
X224250D02*
D03*
X200000Y155000D02*
D03*
X215000Y190000D02*
D03*
X398680Y246000D02*
D03*
X178850Y220150D02*
D03*
X178000Y178300D02*
D03*
X136150Y179150D02*
D03*
X137000Y221000D02*
D03*
X157500Y199650D02*
D03*
X157400Y256000D02*
D03*
X177600D02*
D03*
X214000Y199600D02*
D03*
X152600Y144000D02*
D03*
X101000Y200600D02*
D03*
X149250Y109000D02*
D03*
X157000Y97750D02*
D03*
X137000D02*
D03*
X117000D02*
D03*
X215000Y-22000D02*
D03*
X208790Y26140D02*
D03*
X258000Y65250D02*
D03*
Y57000D02*
D03*
X248000Y65250D02*
D03*
X157000Y86250D02*
D03*
X147000D02*
D03*
X137000D02*
D03*
X127000D02*
D03*
X117000D02*
D03*
X107000D02*
D03*
X229000Y113000D02*
D03*
X216000Y137000D02*
D03*
X185000Y147000D02*
D03*
X195000Y138000D02*
D03*
X184000Y135000D02*
D03*
X181000Y128000D02*
D03*
X175000Y147000D02*
D03*
X204000Y-79000D02*
D03*
Y-70000D02*
D03*
X186000Y-79000D02*
D03*
Y-70000D02*
D03*
X195000Y-79000D02*
D03*
Y-70000D02*
D03*
X210150Y117850D02*
D03*
X210000Y102700D02*
D03*
X194850Y102850D02*
D03*
X195000Y118000D02*
D03*
X202500Y110350D02*
D03*
X151000Y-41000D02*
D03*
Y0D02*
D03*
Y41000D02*
D03*
X220400Y144000D02*
D03*
X237000Y109600D02*
D03*
X229000Y96000D02*
D03*
X218000Y65250D02*
D03*
X228000D02*
D03*
X198000D02*
D03*
X221000Y89000D02*
D03*
X208000Y65250D02*
D03*
X142000Y21000D02*
D03*
Y-20000D02*
D03*
X215000Y-63000D02*
D03*
X204000Y-60700D02*
D03*
X169000Y-60700D02*
D03*
X177250D02*
D03*
X187000Y-60700D02*
D03*
X204000Y-19700D02*
D03*
Y21300D02*
D03*
X177250Y-19700D02*
D03*
X187000Y-19700D02*
D03*
X169000Y-19700D02*
D03*
Y21300D02*
D03*
X177250D02*
D03*
X187000Y21300D02*
D03*
X151000Y21000D02*
D03*
X160000D02*
D03*
Y-20000D02*
D03*
X151000D02*
D03*
D125*
X50000Y50000D02*
D03*
Y-50000D02*
D03*
X-50000D02*
D03*
X399000Y98000D02*
D03*
Y114000D02*
D03*
X383000D02*
D03*
Y98000D02*
D03*
X391250Y106000D02*
D03*
X268000Y-43000D02*
D03*
X260000D02*
D03*
X276000D02*
D03*
X268000Y33000D02*
D03*
X260000D02*
D03*
X276000D02*
D03*
X268000Y-15000D02*
D03*
X260000D02*
D03*
X276000D02*
D03*
Y5000D02*
D03*
X260000D02*
D03*
X268000D02*
D03*
X-121000Y114000D02*
D03*
X-114000Y126000D02*
D03*
X-106000Y112000D02*
D03*
X-117000Y99000D02*
D03*
X-97000Y126000D02*
D03*
X-50000Y50000D02*
D03*
X47000Y0D02*
D03*
X0Y-53000D02*
D03*
X-47000Y0D02*
D03*
X0Y53000D02*
D03*
X229000Y-38000D02*
D03*
Y-53000D02*
D03*
X244000Y-38000D02*
D03*
Y-53000D02*
D03*
X229000Y3000D02*
D03*
Y-12000D02*
D03*
X244000Y3000D02*
D03*
Y-12000D02*
D03*
Y29000D02*
D03*
Y44000D02*
D03*
X229000Y29000D02*
D03*
Y44000D02*
D03*
X370000Y390000D02*
D03*
Y350000D02*
D03*
X350000Y369000D02*
D03*
X390000D02*
D03*
X384000Y383000D02*
D03*
X355000Y382000D02*
D03*
X357000Y355000D02*
D03*
X384000Y356000D02*
D03*
X420000Y20000D02*
D03*
Y-20000D02*
D03*
X400000Y-1000D02*
D03*
X440000D02*
D03*
X434000Y13000D02*
D03*
X405000Y12000D02*
D03*
X407000Y-15000D02*
D03*
X434000Y-14000D02*
D03*
X14000Y406000D02*
D03*
X-13000Y405000D02*
D03*
X-15000Y432000D02*
D03*
X14000Y433000D02*
D03*
X20000Y419000D02*
D03*
X-20000D02*
D03*
X0Y400000D02*
D03*
Y440000D02*
D03*
X-146000Y171000D02*
D03*
Y187000D02*
D03*
D126*
X356250Y47000D02*
D03*
X369750D02*
D03*
X-187250Y210000D02*
D03*
X-173750D02*
D03*
X-187250Y-9000D02*
D03*
X-173750D02*
D03*
D127*
X194750Y-48000D02*
D03*
X177250D02*
D03*
Y-7000D02*
D03*
X194750D02*
D03*
X177250Y35000D02*
D03*
X194750D02*
D03*
D128*
X319000Y252250D02*
D03*
Y315750D02*
D03*
D129*
X212000Y-143050D02*
D03*
Y-129550D02*
D03*
X-89000Y-143050D02*
D03*
Y-129550D02*
D03*
D130*
X-190500Y-13250D02*
X-186750Y-9500D01*
Y-9000D01*
X-170520Y213230D02*
Y219240D01*
X-170500Y219260D01*
X-173750Y210000D02*
X-170520Y213230D01*
X-170500Y219260D02*
Y230000D01*
X-190500Y213750D02*
X-187250Y210500D01*
X-190500Y213750D02*
Y230000D01*
X-187250Y210000D02*
Y210500D01*
X212000Y-143050D02*
X212500D01*
X215750Y-146300D02*
X230000D01*
X212500Y-143050D02*
X215750Y-146300D01*
X215230Y-126320D02*
X229980D01*
X230000Y-126300D01*
X212000Y-129550D02*
X215230Y-126320D01*
X-190500Y-30000D02*
Y-13250D01*
X-170500Y-30000D02*
Y-11750D01*
X-173250Y-9000D02*
X-170500Y-11750D01*
X-88500Y-129550D02*
X-85250Y-126300D01*
X-70000D01*
X-89000Y-129550D02*
X-88500D01*
X-85250Y-146300D02*
X-70000D01*
X-89000Y-143050D02*
X-88500D01*
X-85250Y-146300D01*
M02*
