M48
;Layer_Color=9474304
;FILE_FORMAT=2:4
INCH,LZ
;TYPE=PLATED
T01F00S00C0.0118
T02F00S00C0.0138
T03F00S00C0.0295
T04F00S00C0.0315
;TYPE=NON_PLATED
T05F00S00C0.0827
T06F00S00C0.1181
T07F00S00C0.3150
%
T01
X007677Y-00311
X008031
Y-002756
X007677
X008031Y-00239
X008465Y-00248
Y-000866
X008031Y-000776
Y000839
X00822Y001029
X008189Y002569
X008583
X008976
X009764
X010157
Y002244
X011053Y002352
X011408
X01189Y002496
Y00215
X011929Y003528
Y003874
X011417Y003701
X011063
X010906Y003307
X011161Y002992
Y00437
X009331Y004315
X009016Y004449
Y00378
X008701Y003504
X008268Y004043
X007972Y004344
X008274Y00464
X007677Y004646
X007671Y004049
X007677Y005433
X007874Y006102
X008829Y00622
X008543Y006535
X008504Y006772
X008465Y00748
X008677Y005669
X008504Y005394
X010413Y00622
X007795Y002569
X014488Y002087
Y001772
X014803
Y002087
X007402Y002569
X007008
X006811Y003843
Y004189
Y004409
X007126Y005039
X007244Y005315
X007283Y005787
X00689
X006354Y005669
X006008
X005709Y005748
X005433
X005157
X004882
X00536Y007053
X007008Y00702
X003488Y007087
X003189
X003435Y006614
X003488Y00622
X002677Y00752
X000394Y007008
X0Y007219
X-000394
X-002677Y007362
X-00274Y006969
X-002795Y006433
Y006091
X-002402
Y006433
X-003189Y006067
X-004409Y005945
X-00435Y006815
X-004606
X-005197Y006835
Y007181
X-004783Y007278
X-004035Y007078
X000449Y00563
X004606Y003848
Y003396
X005
X005394
X005787
X006181
Y003848
X005876Y004291
X005394Y003848
X004213Y003396
X005945Y001614
Y000827
X005591
X006299
X006654Y000839
X006978
X007362Y000839
Y-000776
X006978Y-000776
X006654
X006299Y-000787
X005945
X005591
X005945Y0
Y-001614
X006654Y-00239
X006978
X007362Y-00239
X007323Y-002756
Y-00311
X007041Y008667
X006992Y010079
X006696Y010082
X006535Y009921
X006197Y010079
X00585
X005778Y010472
Y010866
X005315Y010463
X005394Y008701
X006201Y00786
X003976Y007898
Y008244
X003701Y01126
X002898Y011181
X003261Y012041
X003599Y012379
X003937Y012041
X003937Y012717
X003261Y012717
X002913Y01315
X003189Y013606
X003843Y013661
X004189
X002362Y012575
Y012228
X001969Y011801
X-000787Y009488
X007339Y010079
X007795
X007835Y010354
X008122Y009488
X008425Y009331
X008228Y00874
X008622Y008661
X008829Y008228
X008827Y007811
X008425Y007858
Y008205
X010118Y008504
X010181Y010157
X010528
X00974
X009394
X008976Y010167
X009724Y010827
X012559Y009931
Y012431
X015696Y010079
Y009685
T02
X009016Y-002087
Y-001496
X009606
Y-002087
X010236Y-001693
X010551
X010866
Y-000591
X010551
X010236
X009606Y-000472
X009016
Y000118
X009606
X010236Y000197
X010551
X010866
Y001299
X010551
X010236
X009606Y001142
Y001732
X009016
Y001142
X015945Y000472
X015748Y-000039
X016024Y-000591
X016535Y-000787
X017087Y-000551
X017323Y-000039
X017087Y000512
X016535Y000787
X015709Y003858
X015404Y004173
X015709Y004488
X015079
Y003858
X001969Y001969
X00185Y0
X001969Y-001969
X0Y-002087
X-001969Y-001969
X-00185Y0
X-001969Y001969
X0Y002087
X-004606Y003898
X-004764Y004488
X-004173Y004409
X-004488Y004961
X-003819
X-005748Y006732
Y007362
X-000512Y015945
X0Y015748
X000551Y015984
X000787Y016496
X000551Y017047
X0Y017323
X-000591Y017008
X-000787Y016496
X013976Y015039
X01378Y014528
X014055Y013976
X014567Y01378
X015118Y014016
X015354Y014528
X015118Y015079
X014567Y015354
T03
X-005205Y-003583
X-005455Y-00315
X-005705Y-002717
X005705Y-002717
X005455Y-00315
X005205Y-003583
X0005Y006299
X0
X-0005
T04
X009055Y-00576
X009843
Y-004972
X01063
Y-00576
X009055Y-004972
X013858Y00252
X014646
X-001181Y-004972
X-001969
Y-00576
X-001181
X-002756
Y-004972
X-006713Y-002756
Y-001969
X-0075
Y-001181
X-006713
X-0075Y-002756
Y009055
Y009843
Y01063
X-006713
Y009843
Y009055
X-004252Y010157
X-003465
X-002677
X007165Y012717
X007953
X00874
X009528
T05
X-002717Y-002717
Y002717
X002717
Y-002717
T06
X016535Y0
X00315
X-00315
X0Y00374
Y-00374
Y016535
X014567Y014567
T07
X0Y0
M30
