G04*
G04 #@! TF.GenerationSoftware,Altium Limited,Altium Designer,22.10.1 (41)*
G04*
G04 Layer_Color=65535*
%FSLAX25Y25*%
%MOIN*%
G70*
G04*
G04 #@! TF.SameCoordinates,077065BD-E97D-4B40-AF25-1AFBA95EC0C4*
G04*
G04*
G04 #@! TF.FilePolarity,Positive*
G04*
G01*
G75*
%ADD10C,0.00984*%
%ADD11C,0.00787*%
%ADD12C,0.00669*%
%ADD13C,0.00591*%
%ADD14C,0.00500*%
%ADD15C,0.01000*%
G36*
X-18898Y-52165D02*
X-20866D01*
Y-51575D01*
X-19685Y-50394D01*
X-18898D01*
Y-52165D01*
D02*
G37*
D10*
X-15059Y-53051D02*
X-15797Y-52625D01*
Y-53477D01*
X-15059Y-53051D01*
D11*
X-19094Y-50394D02*
X-19980Y-50631D01*
X-20629Y-51279D01*
X-20866Y-52165D01*
X-27953Y26378D02*
X-28740D01*
X-27953D01*
X-22835Y-52165D02*
Y-39961D01*
X-18898Y-52165D02*
Y-39961D01*
X-22835D02*
X-18898D01*
X-22835Y-52165D02*
X-18898D01*
X-19094Y-50394D02*
X-18898D01*
D12*
X-1575Y-56299D02*
Y-42520D01*
X19685Y-56299D02*
Y-42520D01*
X12598Y-56299D02*
Y-42520D01*
X5512Y-56299D02*
Y-42520D01*
X-8661Y-49606D02*
X26772D01*
X-8661Y-56299D02*
Y-42520D01*
Y-56299D02*
X26772D01*
Y-42520D01*
X-8661D02*
X26772D01*
D13*
X-20866Y-52756D02*
Y-51968D01*
X-12992D01*
Y-52756D02*
Y-51968D01*
Y-55905D02*
Y-55118D01*
X-20866Y-55905D02*
X-12992D01*
X-20866D02*
Y-55118D01*
X-20472Y-55905D02*
Y-55118D01*
X-28346Y-55905D02*
X-20472D01*
X-28346D02*
Y-55118D01*
Y-52756D02*
Y-51968D01*
X-20472D01*
Y-52756D02*
Y-51968D01*
X-13417Y-46063D02*
X-9417D01*
X-9917Y-41563D02*
X-9417D01*
Y-50563D02*
Y-41563D01*
X-9917Y-50563D02*
X-9417D01*
X-13417D02*
X-12917D01*
X-13417D02*
Y-41563D01*
X-12917D01*
D14*
X26650Y-38000D02*
Y-34173D01*
X20276Y-38000D02*
X26650D01*
X-26650D02*
X-20276D01*
X-26650D02*
Y-34173D01*
X26650Y35945D02*
Y38000D01*
X-26650D02*
X26650D01*
X-26650Y26024D02*
Y38000D01*
D15*
X-33071Y-56693D02*
Y37971D01*
Y-56693D02*
X33071D01*
Y37971D01*
X-33071D02*
X33071D01*
M02*
