M48
;Layer_Color=9474304
;FILE_FORMAT=2:4
INCH,TZ
;TYPE=PLATED
T1F00S00C0.0079
T2F00S00C0.0118
%
T01
X-2268Y-5394
X-1866
X-54Y-5315
X448
X551Y-4961
X1260
X1969
X2066Y-4186
X1347Y-4157
X630
X-1094Y-4075
X-2047Y-3858
X-2115Y-3415
Y-3021
Y-669
X-2244Y827
Y1339
X2913Y2323
Y3307
X2598Y-3465
T02
X-2756Y-4646
X-2480
X-2835Y1693
Y1929
M30
