G04*
G04 #@! TF.GenerationSoftware,Altium Limited,Altium Designer,22.10.1 (41)*
G04*
G04 Layer_Color=32896*
%FSLAX25Y25*%
%MOIN*%
G70*
G04*
G04 #@! TF.SameCoordinates,077065BD-E97D-4B40-AF25-1AFBA95EC0C4*
G04*
G04*
G04 #@! TF.FilePolarity,Positive*
G04*
G01*
G75*
%ADD15C,0.01000*%
%ADD31C,0.00394*%
%ADD32C,0.00472*%
D15*
X-33071Y-56693D02*
Y37971D01*
Y-56693D02*
X33071D01*
Y37971D01*
X-33071D02*
X33071D01*
D31*
X-25197Y-16929D02*
X27165D01*
X17717Y-20866D02*
Y-12992D01*
X7874Y-20866D02*
Y-12992D01*
X0Y-20866D02*
Y-12992D01*
X-12598Y-20866D02*
Y-12992D01*
X-25197Y-20866D02*
Y-12992D01*
Y-20866D02*
X27165D01*
Y-12992D01*
X-25197D02*
X27165D01*
D32*
X-15433Y-20000D02*
Y-17639D01*
X-16614D01*
X-17007Y-18032D01*
Y-18819D01*
X-16614Y-19213D01*
X-15433D01*
X-16220D02*
X-17007Y-20000D01*
X-19369Y-18032D02*
X-18975Y-17639D01*
X-18188D01*
X-17795Y-18032D01*
Y-18426D01*
X-18188Y-18819D01*
X-18975D01*
X-19369Y-19213D01*
Y-19606D01*
X-18975Y-20000D01*
X-18188D01*
X-17795Y-19606D01*
X-21730Y-18032D02*
X-21337Y-17639D01*
X-20549D01*
X-20156Y-18032D01*
Y-18426D01*
X-20549Y-18819D01*
X-21337D01*
X-21730Y-19213D01*
Y-19606D01*
X-21337Y-20000D01*
X-20549D01*
X-20156Y-19606D01*
X-22517Y-17639D02*
X-23304D01*
X-22911D01*
Y-20000D01*
X-22517D01*
X-23304D01*
X22756Y-17639D02*
X24331D01*
Y-18819D01*
X23544Y-18426D01*
X23150D01*
X22756Y-18819D01*
Y-19606D01*
X23150Y-20000D01*
X23937D01*
X24331Y-19606D01*
X21969Y-17639D02*
Y-19213D01*
X21182Y-20000D01*
X20395Y-19213D01*
Y-17639D01*
X7008D02*
Y-20000D01*
X5827D01*
X5434Y-19606D01*
Y-18032D01*
X5827Y-17639D01*
X7008D01*
X4646D02*
X3859D01*
X4253D01*
Y-20000D01*
X4646D01*
X3859D01*
X2679D02*
Y-17639D01*
X1104Y-20000D01*
Y-17639D01*
X14095Y-18032D02*
X14489Y-17639D01*
X15276D01*
X15669Y-18032D01*
Y-19606D01*
X15276Y-20000D01*
X14489D01*
X14095Y-19606D01*
Y-18819D01*
X14882D01*
X13308Y-20000D02*
Y-17639D01*
X11734Y-20000D01*
Y-17639D01*
X10946D02*
Y-20000D01*
X9766D01*
X9372Y-19606D01*
Y-18032D01*
X9766Y-17639D01*
X10946D01*
X-2047D02*
Y-20000D01*
X-3228D01*
X-3621Y-19606D01*
Y-18032D01*
X-3228Y-17639D01*
X-2047D01*
X-5589D02*
X-4802D01*
X-4409Y-18032D01*
Y-19606D01*
X-4802Y-20000D01*
X-5589D01*
X-5983Y-19606D01*
Y-18032D01*
X-5589Y-17639D01*
X-6770D02*
Y-19606D01*
X-7164Y-20000D01*
X-7951D01*
X-8344Y-19606D01*
Y-17639D01*
X-9132D02*
X-10706D01*
X-9919D01*
Y-20000D01*
X-866Y-16063D02*
Y-14489D01*
X-2047D01*
X-2440Y-14882D01*
Y-16063D01*
X-4802Y-14095D02*
X-4408Y-13702D01*
X-3621D01*
X-3228Y-14095D01*
Y-14489D01*
X-3621Y-14882D01*
X-4408D01*
X-4802Y-15276D01*
Y-15669D01*
X-4408Y-16063D01*
X-3621D01*
X-3228Y-15669D01*
X-7163Y-14095D02*
X-6770Y-13702D01*
X-5983D01*
X-5589Y-14095D01*
Y-14489D01*
X-5983Y-14882D01*
X-6770D01*
X-7163Y-15276D01*
Y-15669D01*
X-6770Y-16063D01*
X-5983D01*
X-5589Y-15669D01*
X-9525Y-13702D02*
X-7950D01*
Y-16063D01*
X-9525D01*
X-7950Y-14882D02*
X-8738D01*
X-10312Y-13702D02*
Y-16063D01*
X-11886D01*
X16850D02*
Y-13702D01*
X16063Y-14489D01*
X15276Y-13702D01*
Y-16063D01*
X14489Y-13702D02*
X13702D01*
X14095D01*
Y-16063D01*
X14489D01*
X13702D01*
X10947Y-14095D02*
X11340Y-13702D01*
X12128D01*
X12521Y-14095D01*
Y-14489D01*
X12128Y-14882D01*
X11340D01*
X10947Y-15276D01*
Y-15669D01*
X11340Y-16063D01*
X12128D01*
X12521Y-15669D01*
X8979Y-13702D02*
X9766D01*
X10160Y-14095D01*
Y-15669D01*
X9766Y-16063D01*
X8979D01*
X8585Y-15669D01*
Y-14095D01*
X8979Y-13702D01*
X5434Y-14095D02*
X5827Y-13702D01*
X6614D01*
X7008Y-14095D01*
Y-14489D01*
X6614Y-14882D01*
X5827D01*
X5434Y-15276D01*
Y-15669D01*
X5827Y-16063D01*
X6614D01*
X7008Y-15669D01*
X3072Y-14095D02*
X3466Y-13702D01*
X4253D01*
X4646Y-14095D01*
Y-15669D01*
X4253Y-16063D01*
X3466D01*
X3072Y-15669D01*
X2285Y-13702D02*
Y-16063D01*
Y-15276D01*
X711Y-13702D01*
X1891Y-14882D01*
X711Y-16063D01*
X26299D02*
Y-13702D01*
X25512Y-14489D01*
X24725Y-13702D01*
Y-16063D01*
X22757Y-13702D02*
X23544D01*
X23938Y-14095D01*
Y-15669D01*
X23544Y-16063D01*
X22757D01*
X22364Y-15669D01*
Y-14095D01*
X22757Y-13702D01*
X20002Y-14095D02*
X20396Y-13702D01*
X21183D01*
X21576Y-14095D01*
Y-14489D01*
X21183Y-14882D01*
X20396D01*
X20002Y-15276D01*
Y-15669D01*
X20396Y-16063D01*
X21183D01*
X21576Y-15669D01*
X19215Y-13702D02*
X18428D01*
X18821D01*
Y-16063D01*
X19215D01*
X18428D01*
X-13465D02*
Y-14489D01*
X-14645D01*
X-15039Y-14882D01*
Y-16063D01*
X-15826D02*
Y-14489D01*
X-16613Y-13702D01*
X-17400Y-14489D01*
Y-16063D01*
Y-14882D01*
X-15826D01*
X-18187Y-13702D02*
X-19762D01*
X-18975D01*
Y-16063D01*
X-20549Y-13702D02*
X-22123D01*
X-21336D01*
Y-16063D01*
X-22910D02*
Y-13702D01*
X-24485Y-16063D01*
Y-13702D01*
M02*
