G04*
G04 #@! TF.GenerationSoftware,Altium Limited,Altium Designer,22.10.1 (41)*
G04*
G04 Layer_Color=8388736*
%FSLAX25Y25*%
%MOIN*%
G70*
G04*
G04 #@! TF.SameCoordinates,077065BD-E97D-4B40-AF25-1AFBA95EC0C4*
G04*
G04*
G04 #@! TF.FilePolarity,Negative*
G04*
G01*
G75*
%ADD15C,0.01000*%
G04:AMPARAMS|DCode=16|XSize=68mil|YSize=59.18mil|CornerRadius=0mil|HoleSize=0mil|Usage=FLASHONLY|Rotation=0.000|XOffset=0mil|YOffset=0mil|HoleType=Round|Shape=Octagon|*
%AMOCTAGOND16*
4,1,8,0.03400,-0.01480,0.03400,0.01480,0.01921,0.02959,-0.01921,0.02959,-0.03400,0.01480,-0.03400,-0.01480,-0.01921,-0.02959,0.01921,-0.02959,0.03400,-0.01480,0.0*
%
%ADD16OCTAGOND16*%

%ADD17R,0.03162X0.03320*%
%ADD18R,0.03162X0.03753*%
%ADD19R,0.04737X0.02965*%
%ADD20R,0.06500X0.04100*%
%ADD21R,0.04100X0.06500*%
D15*
X-33071Y-56693D02*
Y37971D01*
Y-56693D02*
X33071D01*
Y37971D01*
X-33071D02*
X33071D01*
D16*
X-5118Y-53150D02*
D03*
Y-46063D02*
D03*
X1969D02*
D03*
Y-53150D02*
D03*
X9055D02*
D03*
Y-46063D02*
D03*
X16142D02*
D03*
Y-53150D02*
D03*
X23228D02*
D03*
Y-46063D02*
D03*
D17*
X-18661Y-53937D02*
D03*
X-15197D02*
D03*
X-22677D02*
D03*
X-26142D02*
D03*
D18*
X-11417Y-48327D02*
D03*
Y-43799D02*
D03*
D19*
X-26181Y-49803D02*
D03*
Y-42323D02*
D03*
X-15551D02*
D03*
Y-46063D02*
D03*
Y-49803D02*
D03*
D20*
X25800Y32900D02*
D03*
Y27920D02*
D03*
Y23000D02*
D03*
Y18080D02*
D03*
Y13160D02*
D03*
Y8240D02*
D03*
Y3320D02*
D03*
Y-1600D02*
D03*
Y-6520D02*
D03*
Y-11440D02*
D03*
Y-16360D02*
D03*
Y-21280D02*
D03*
Y-26200D02*
D03*
Y-31120D02*
D03*
X-25800D02*
D03*
Y-26200D02*
D03*
Y-21280D02*
D03*
Y-16360D02*
D03*
Y-11440D02*
D03*
Y-6520D02*
D03*
Y-1600D02*
D03*
Y3320D02*
D03*
Y8240D02*
D03*
Y13160D02*
D03*
Y18080D02*
D03*
Y23000D02*
D03*
D21*
X17250Y-37150D02*
D03*
X12270D02*
D03*
X7350D02*
D03*
X2430D02*
D03*
X-2490D02*
D03*
X-7410D02*
D03*
X-12330D02*
D03*
X-17250D02*
D03*
M02*
