G04*
G04 #@! TF.GenerationSoftware,Altium Limited,Altium Designer,22.10.1 (41)*
G04*
G04 Layer_Physical_Order=2*
G04 Layer_Color=16711680*
%FSLAX25Y25*%
%MOIN*%
G70*
G04*
G04 #@! TF.SameCoordinates,077065BD-E97D-4B40-AF25-1AFBA95EC0C4*
G04*
G04*
G04 #@! TF.FilePolarity,Positive*
G04*
G01*
G75*
%ADD15C,0.01000*%
%ADD28C,0.02016*%
%ADD29C,0.01575*%
%ADD30C,0.02165*%
G36*
X32283Y-55890D02*
X-32268D01*
Y37168D01*
X-27575D01*
Y25591D01*
X-27513Y25283D01*
X-27339Y25023D01*
X-27079Y24849D01*
X-26772Y24788D01*
X-22850D01*
Y18000D01*
X-22789Y17693D01*
X-22615Y17432D01*
X-22354Y17258D01*
X-22047Y17197D01*
X22047D01*
X22354Y17258D01*
X22615Y17432D01*
X22789Y17693D01*
X22850Y18000D01*
Y34630D01*
X26772D01*
X27079Y34691D01*
X27339Y34865D01*
X27513Y35126D01*
X27575Y35433D01*
Y37168D01*
X32283D01*
Y-55890D01*
D02*
G37*
%LPC*%
G36*
X-27975Y21161D02*
X-28718D01*
X-29406Y20877D01*
X-29932Y20351D01*
X-30217Y19663D01*
Y18919D01*
X-30177Y18824D01*
Y17397D01*
X-30194Y17354D01*
X-31216Y16333D01*
X-31612Y15740D01*
X-31752Y15039D01*
Y-41339D01*
X-31612Y-42039D01*
X-31216Y-42633D01*
X-29390Y-44459D01*
Y-45989D01*
X-29429Y-46085D01*
Y-46829D01*
X-29144Y-47516D01*
X-28618Y-48042D01*
X-27931Y-48327D01*
X-27549D01*
X-27512Y-48334D01*
X-24850D01*
X-24813Y-48327D01*
X-24431D01*
X-23744Y-48042D01*
X-23218Y-47516D01*
X-22933Y-46829D01*
Y-46085D01*
X-23154Y-45551D01*
X-22730Y-45268D01*
X-19135Y-48863D01*
X-19326Y-49325D01*
X-20228D01*
X-20731Y-49425D01*
X-21157Y-49710D01*
X-21441Y-50135D01*
X-21541Y-50638D01*
X-21441Y-51140D01*
X-21157Y-51566D01*
X-20731Y-51850D01*
X-20228Y-51950D01*
X-5590D01*
X-5087Y-51850D01*
X-4661Y-51566D01*
X-4014Y-50919D01*
X4597D01*
X4620Y-50941D01*
X5199Y-51181D01*
X5825D01*
X6404Y-50941D01*
X6847Y-50498D01*
X7087Y-49920D01*
Y-49293D01*
X6989Y-49057D01*
X7323Y-48557D01*
X9842D01*
X11024Y-49738D01*
Y-49920D01*
X11263Y-50498D01*
X11706Y-50941D01*
X12285Y-51181D01*
X12912D01*
X13490Y-50941D01*
X13934Y-50498D01*
X14173Y-49920D01*
Y-49293D01*
X13934Y-48714D01*
X13490Y-48271D01*
X13113Y-48115D01*
X11314Y-46316D01*
X10888Y-46031D01*
X10386Y-45932D01*
X-15204D01*
X-20478Y-40657D01*
X-20271Y-40157D01*
X-20159D01*
X-19580Y-39918D01*
X-19558Y-39895D01*
X-12738D01*
X-12460Y-40311D01*
X-12511Y-40435D01*
Y-41061D01*
X-12272Y-41640D01*
X-11829Y-42083D01*
X-11250Y-42323D01*
X-10623D01*
X-10045Y-42083D01*
X-10022Y-42061D01*
X-4284D01*
X-1767Y-44578D01*
X-1341Y-44862D01*
X-839Y-44962D01*
X8928D01*
X9430Y-44862D01*
X9856Y-44578D01*
X11547Y-42887D01*
X12551D01*
X12573Y-42910D01*
X13152Y-43150D01*
X13779D01*
X14357Y-42910D01*
X14800Y-42467D01*
X15040Y-41888D01*
Y-41262D01*
X14800Y-40683D01*
X14357Y-40240D01*
X13779Y-40000D01*
X13152D01*
X12573Y-40240D01*
X12551Y-40262D01*
X11003D01*
X10500Y-40362D01*
X10075Y-40647D01*
X8572Y-42149D01*
X8306Y-42128D01*
X7874Y-41888D01*
Y-41262D01*
X7634Y-40683D01*
X7191Y-40240D01*
X6612Y-40000D01*
X6605D01*
X5175Y-38570D01*
X5366Y-38108D01*
X15054D01*
X19085Y-42139D01*
Y-42171D01*
X19325Y-42750D01*
X19768Y-43193D01*
X20347Y-43432D01*
X20973D01*
X21007Y-43419D01*
X21422Y-43696D01*
Y-48076D01*
X21314Y-48184D01*
X20366D01*
X19998Y-48031D01*
X19372D01*
X18793Y-48271D01*
X18350Y-48714D01*
X18110Y-49293D01*
Y-49920D01*
X18350Y-50498D01*
X18793Y-50941D01*
X19372Y-51181D01*
X19998D01*
X20577Y-50941D01*
X20709Y-50809D01*
X21858D01*
X22360Y-50709D01*
X22786Y-50424D01*
X23663Y-49548D01*
X23947Y-49122D01*
X24047Y-48619D01*
Y-40058D01*
X23947Y-39555D01*
X23663Y-39129D01*
X18645Y-34111D01*
X18219Y-33827D01*
X17717Y-33727D01*
X16496D01*
X16338Y-33695D01*
X-12874D01*
X-19841Y-26728D01*
Y-7607D01*
X-19818Y-7585D01*
X-19579Y-7006D01*
Y-6380D01*
X-19818Y-5801D01*
X-20261Y-5358D01*
X-20840Y-5118D01*
X-21467D01*
X-21500Y-5132D01*
X-21916Y-4854D01*
Y4002D01*
X-19438Y6480D01*
X-19153Y6906D01*
X-19053Y7408D01*
Y9127D01*
X-19153Y9629D01*
X-19438Y10055D01*
X-20653Y11271D01*
X-21079Y11555D01*
X-21339Y11607D01*
X-21407Y11750D01*
X-21459Y12141D01*
X-21106Y12494D01*
X-20866Y13073D01*
Y13699D01*
X-21106Y14278D01*
X-21549Y14721D01*
X-22128Y14961D01*
X-22754D01*
X-23333Y14721D01*
X-23776Y14278D01*
X-24016Y13699D01*
Y13582D01*
X-24157Y13441D01*
X-24441Y13015D01*
X-24541Y12513D01*
Y10928D01*
X-24441Y10426D01*
X-24157Y10000D01*
X-23571Y9414D01*
X-23566Y9369D01*
X-23776Y9160D01*
X-24016Y8581D01*
Y8549D01*
X-26519Y6046D01*
X-26803Y5620D01*
X-26903Y5118D01*
Y-40551D01*
X-26803Y-41054D01*
X-26587Y-41377D01*
X-26975Y-41696D01*
X-28091Y-40580D01*
Y14281D01*
X-27052Y15319D01*
X-26655Y15913D01*
X-26574Y16321D01*
X-26476Y16557D01*
Y16898D01*
X-26380Y17380D01*
Y19115D01*
X-26476Y19598D01*
Y19663D01*
X-26502Y19724D01*
X-26520Y19816D01*
X-26572Y19894D01*
X-26761Y20351D01*
X-27287Y20877D01*
X-27975Y21161D01*
D02*
G37*
%LPD*%
D15*
X-18305Y-34057D02*
X-15567Y-36795D01*
X-18305Y-34057D02*
Y-33054D01*
X-21154Y-30206D02*
X-18305Y-33054D01*
X19685Y-49606D02*
X19795Y-49496D01*
X21858D01*
X22735Y-48619D01*
Y-40058D01*
X12598Y-49606D02*
Y-49457D01*
X10386Y-47244D02*
X12598Y-49457D01*
X-15748Y-47244D02*
X10386D01*
X-5590Y-50638D02*
X-4558Y-49606D01*
X5512D01*
X-15504Y-50638D02*
X-5590D01*
X16370Y-35039D02*
X17717D01*
X22735Y-40058D01*
X-21154Y-27272D02*
X-13417Y-35008D01*
X16338D02*
X16370Y-35039D01*
X-13417Y-35008D02*
X16338D01*
X-15567Y-36795D02*
X15598D01*
X20660Y-41857D01*
X-20472Y-38583D02*
X3332D01*
X6299Y-41550D01*
X-3740Y-40748D02*
X-839Y-43650D01*
X-10937Y-40748D02*
X-3740D01*
X-21154Y-27272D02*
Y-6693D01*
X-20228Y-50638D02*
X-15504D01*
X6299Y-41550D02*
Y-41550D01*
X-25591Y-40551D02*
X-15504Y-50638D01*
X8928Y-43650D02*
X11003Y-41575D01*
X-839Y-43650D02*
X8928D01*
X11003Y-41575D02*
X13465D01*
X-23228Y-39764D02*
X-15748Y-47244D01*
X-23228Y4546D02*
X-20366Y7408D01*
X-23228Y12513D02*
X-22441Y13300D01*
X-22643Y10343D02*
X-21581D01*
X-23228Y10928D02*
Y12513D01*
Y10928D02*
X-22643Y10343D01*
X-22441Y13300D02*
Y13386D01*
X-20366Y7408D02*
Y9127D01*
X-23228Y-39764D02*
Y4546D01*
X-21581Y10343D02*
X-20366Y9127D01*
X-25591Y-40551D02*
Y5118D01*
X-22441Y8268D01*
X-33071Y-56693D02*
Y37971D01*
Y-56693D02*
X33071D01*
Y37971D01*
X-33071D02*
X33071D01*
D28*
X-28346Y18367D02*
Y19291D01*
Y17244D02*
Y18367D01*
Y19251D02*
X-28211Y19115D01*
X-28346Y19251D02*
Y19291D01*
X-28211Y17380D02*
Y19115D01*
X-28346Y17244D02*
X-28211Y17380D01*
X-28346Y16929D02*
Y17244D01*
X-29921Y15039D02*
X-28346Y16614D01*
X-29921Y-41339D02*
Y15039D01*
Y-41339D02*
X-27559Y-43701D01*
Y-46457D02*
Y-43701D01*
X-24803Y-46457D01*
X-24850Y-46504D02*
X-24803Y-46457D01*
X-27512Y-46504D02*
X-24850D01*
X-27559Y-46457D02*
X-27512Y-46504D01*
D29*
X-21154Y-30206D02*
D03*
X19685Y-49606D02*
D03*
X12598D02*
D03*
X5512D02*
D03*
X-10937Y-40748D02*
D03*
X-21154Y-6693D02*
D03*
X4480Y-53150D02*
D03*
X-543D02*
D03*
X-21154Y-34152D02*
D03*
X25984Y-34646D02*
D03*
X29134Y23228D02*
D03*
Y33071D02*
D03*
X-18661Y-53937D02*
D03*
X-22677D02*
D03*
X6299Y-41575D02*
D03*
X13465D02*
D03*
X20660Y-41857D02*
D03*
X-22441Y8268D02*
D03*
Y13386D02*
D03*
X-20472Y-38583D02*
D03*
D30*
X-28346Y16929D02*
D03*
Y19291D02*
D03*
X-24803Y-46457D02*
D03*
X-27559D02*
D03*
M02*
