G04*
G04 #@! TF.GenerationSoftware,Altium Limited,Altium Designer,22.9.1 (49)*
G04*
G04 Layer_Physical_Order=4*
G04 Layer_Color=16440176*
%FSLAX25Y25*%
%MOIN*%
G70*
G04*
G04 #@! TF.SameCoordinates,5A2D5F74-2F22-471E-A729-26C66B6EDD7C*
G04*
G04*
G04 #@! TF.FilePolarity,Positive*
G04*
G01*
G75*
%ADD15C,0.00500*%
%ADD16C,0.01000*%
%ADD70C,0.02016*%
%ADD74C,0.04134*%
%ADD76C,0.01772*%
%ADD77C,0.02362*%
G36*
X53718Y63936D02*
X55361Y63496D01*
X56933Y62845D01*
X58406Y61994D01*
X59756Y60958D01*
X60958Y59756D01*
X61994Y58406D01*
X62845Y56933D01*
X63495Y55361D01*
X63936Y53718D01*
X64158Y52032D01*
X64158Y51181D01*
Y41908D01*
X63658Y41809D01*
X63623Y41893D01*
X63152Y42364D01*
X62537Y42618D01*
X61872D01*
X61257Y42364D01*
X60786Y41893D01*
X60531Y41278D01*
Y40612D01*
X60786Y39997D01*
X61257Y39527D01*
X61872Y39272D01*
X62537D01*
X63152Y39527D01*
X63623Y39997D01*
X63658Y40081D01*
X64158Y39981D01*
Y35609D01*
X63658Y35510D01*
X63623Y35594D01*
X63152Y36064D01*
X62537Y36319D01*
X61872D01*
X61257Y36064D01*
X60786Y35594D01*
X60531Y34979D01*
Y34313D01*
X60786Y33698D01*
X61257Y33227D01*
X61872Y32972D01*
X62537D01*
X63152Y33227D01*
X63623Y33698D01*
X63658Y33782D01*
X64158Y33682D01*
Y27341D01*
X63658Y27242D01*
X63623Y27326D01*
X63152Y27797D01*
X62537Y28051D01*
X61872D01*
X61257Y27797D01*
X60786Y27326D01*
X60531Y26711D01*
Y26045D01*
X60786Y25430D01*
X61257Y24960D01*
X61872Y24705D01*
X62537D01*
X63152Y24960D01*
X63623Y25430D01*
X63658Y25514D01*
X64158Y25414D01*
Y21042D01*
X63658Y20943D01*
X63623Y21026D01*
X63152Y21497D01*
X62537Y21752D01*
X61872D01*
X61257Y21497D01*
X60786Y21026D01*
X60531Y20412D01*
Y19746D01*
X60786Y19131D01*
X61257Y18660D01*
X61872Y18406D01*
X62537D01*
X63152Y18660D01*
X63623Y19131D01*
X63658Y19215D01*
X64158Y19115D01*
Y12775D01*
X63658Y12675D01*
X63623Y12759D01*
X63152Y13229D01*
X62537Y13484D01*
X61872D01*
X61257Y13229D01*
X60786Y12759D01*
X60531Y12144D01*
Y11478D01*
X60786Y10863D01*
X61257Y10392D01*
X61872Y10138D01*
X62537D01*
X63152Y10392D01*
X63623Y10863D01*
X63658Y10947D01*
X64158Y10847D01*
Y6475D01*
X63658Y6376D01*
X63623Y6460D01*
X63152Y6930D01*
X62537Y7185D01*
X61872D01*
X61257Y6930D01*
X60786Y6460D01*
X60531Y5845D01*
Y5179D01*
X60786Y4564D01*
X61257Y4093D01*
X61872Y3839D01*
X62537D01*
X63152Y4093D01*
X63623Y4564D01*
X63658Y4648D01*
X64158Y4548D01*
X64158Y-4548D01*
X63658Y-4648D01*
X63623Y-4564D01*
X63152Y-4093D01*
X62537Y-3839D01*
X61872D01*
X61257Y-4093D01*
X60786Y-4564D01*
X60531Y-5179D01*
Y-5845D01*
X60786Y-6460D01*
X61257Y-6930D01*
X61872Y-7185D01*
X62537D01*
X63152Y-6930D01*
X63623Y-6460D01*
X63658Y-6376D01*
X64158Y-6475D01*
Y-10848D01*
X63658Y-10947D01*
X63623Y-10863D01*
X63152Y-10393D01*
X62537Y-10138D01*
X61872D01*
X61257Y-10393D01*
X60786Y-10863D01*
X60531Y-11478D01*
Y-12144D01*
X60786Y-12759D01*
X61257Y-13230D01*
X61872Y-13484D01*
X62537D01*
X63152Y-13230D01*
X63623Y-12759D01*
X63658Y-12675D01*
X64158Y-12775D01*
Y-19115D01*
X63658Y-19215D01*
X63623Y-19131D01*
X63152Y-18660D01*
X62537Y-18406D01*
X61872D01*
X61257Y-18660D01*
X60786Y-19131D01*
X60531Y-19746D01*
Y-20412D01*
X60786Y-21027D01*
X61257Y-21497D01*
X61872Y-21752D01*
X62537D01*
X63152Y-21497D01*
X63623Y-21027D01*
X63658Y-20943D01*
X64158Y-21042D01*
Y-25414D01*
X63658Y-25514D01*
X63623Y-25430D01*
X63152Y-24959D01*
X62537Y-24705D01*
X61872D01*
X61257Y-24959D01*
X60786Y-25430D01*
X60531Y-26045D01*
Y-26711D01*
X60786Y-27326D01*
X61257Y-27796D01*
X61872Y-28051D01*
X62537D01*
X63152Y-27796D01*
X63623Y-27326D01*
X63658Y-27242D01*
X64158Y-27341D01*
Y-33682D01*
X63658Y-33781D01*
X63623Y-33698D01*
X63152Y-33227D01*
X62537Y-32972D01*
X61872D01*
X61257Y-33227D01*
X60786Y-33698D01*
X60531Y-34313D01*
Y-34978D01*
X60786Y-35593D01*
X61257Y-36064D01*
X61872Y-36319D01*
X62537D01*
X63152Y-36064D01*
X63623Y-35593D01*
X63658Y-35510D01*
X64158Y-35609D01*
Y-39981D01*
X63658Y-40081D01*
X63623Y-39997D01*
X63152Y-39526D01*
X62537Y-39272D01*
X61872D01*
X61257Y-39526D01*
X60786Y-39997D01*
X60531Y-40612D01*
Y-41278D01*
X60786Y-41893D01*
X61257Y-42363D01*
X61872Y-42618D01*
X62537D01*
X63152Y-42363D01*
X63623Y-41893D01*
X63658Y-41809D01*
X64158Y-41908D01*
Y-51181D01*
X64158Y-52032D01*
X63936Y-53718D01*
X63495Y-55361D01*
X62845Y-56933D01*
X62164Y-58112D01*
X61714Y-57890D01*
X61909Y-57419D01*
Y-56754D01*
X61655Y-56139D01*
X61184Y-55668D01*
X61025Y-55602D01*
X60908Y-55013D01*
X60964Y-54957D01*
X61383Y-54676D01*
X62739Y-53320D01*
X63024Y-52895D01*
X63124Y-52392D01*
Y-48425D01*
X63024Y-47923D01*
X62739Y-47497D01*
X58802Y-43560D01*
X58376Y-43275D01*
X57874Y-43176D01*
X56976D01*
X56731Y-42894D01*
X56849Y-42365D01*
X56853Y-42363D01*
X57324Y-41893D01*
X57579Y-41278D01*
Y-40612D01*
X57324Y-39997D01*
X56853Y-39526D01*
X56238Y-39272D01*
X55573D01*
X54958Y-39526D01*
X54487Y-39997D01*
X54418Y-40163D01*
X53928Y-40260D01*
X47769Y-34102D01*
Y-31230D01*
X48269Y-31023D01*
X48272Y-31025D01*
X48887Y-31280D01*
X49552D01*
X49593Y-31307D01*
Y-31776D01*
X49848Y-32392D01*
X50318Y-32862D01*
X50933Y-33117D01*
X51599D01*
X52214Y-32862D01*
X52685Y-32392D01*
X52939Y-31776D01*
Y-31326D01*
X53000Y-31286D01*
X53666D01*
X54281Y-31031D01*
X54751Y-30561D01*
X55006Y-29946D01*
Y-29280D01*
X54751Y-28665D01*
X54281Y-28194D01*
X53666Y-27940D01*
X53000D01*
X52385Y-28194D01*
X51914Y-28665D01*
X51660Y-29280D01*
Y-29730D01*
X51599Y-29770D01*
X50933D01*
X50893Y-29743D01*
Y-29274D01*
X50638Y-28659D01*
X50167Y-28188D01*
X49552Y-27934D01*
X48887D01*
X48272Y-28188D01*
X48269Y-28191D01*
X47769Y-27984D01*
Y-26998D01*
X53950Y-20817D01*
X54441Y-20915D01*
X54487Y-21027D01*
X54958Y-21497D01*
X55573Y-21752D01*
X56238D01*
X56853Y-21497D01*
X57324Y-21027D01*
X57579Y-20412D01*
Y-19746D01*
X57324Y-19131D01*
X56853Y-18660D01*
X56238Y-18406D01*
X55573D01*
X55250Y-18190D01*
Y-13930D01*
X55695Y-13484D01*
X56238D01*
X56853Y-13230D01*
X57324Y-12759D01*
X57579Y-12144D01*
Y-11478D01*
X57324Y-10863D01*
X56853Y-10393D01*
X56421Y-10214D01*
X56408Y-10205D01*
X56392Y-10202D01*
X56238Y-10138D01*
X56072D01*
X55905Y-10105D01*
X55739Y-10138D01*
X55573D01*
X55419Y-10202D01*
X55403Y-10205D01*
X55390Y-10214D01*
X54958Y-10393D01*
X54487Y-10863D01*
X54405Y-11062D01*
X53009Y-12458D01*
X52724Y-12883D01*
X52624Y-13386D01*
Y-14996D01*
X52209Y-15274D01*
X52097Y-15227D01*
X51431D01*
X50816Y-15482D01*
X50490Y-15808D01*
X50153Y-15471D01*
X49538Y-15217D01*
X49530D01*
X49450Y-15096D01*
Y-14586D01*
X54307Y-9728D01*
X54536Y-9385D01*
X54617Y-8980D01*
Y-7243D01*
X55117Y-6996D01*
X55573Y-7185D01*
X56238D01*
X56853Y-6930D01*
X57324Y-6460D01*
X57579Y-5845D01*
Y-5179D01*
X57324Y-4564D01*
X56853Y-4093D01*
X56238Y-3839D01*
X55573D01*
X55418Y-3903D01*
X55002Y-3625D01*
Y-1434D01*
X54922Y-1029D01*
X54693Y-686D01*
X53408Y598D01*
X53065Y828D01*
X52660Y908D01*
X52117D01*
X51925Y1370D01*
X51930Y1375D01*
X52185Y1990D01*
Y2656D01*
X51930Y3271D01*
X51460Y3741D01*
X50845Y3996D01*
X50179D01*
X49564Y3741D01*
X49093Y3271D01*
X48839Y2656D01*
Y2196D01*
X46052D01*
X45717Y2695D01*
X45768Y2817D01*
Y3051D01*
X46124Y3445D01*
X46790D01*
X47405Y3700D01*
X47875Y4170D01*
X48130Y4785D01*
Y5451D01*
X47935Y5923D01*
X48172Y6423D01*
X54022D01*
X54299Y6007D01*
X54232Y5845D01*
Y5179D01*
X54487Y4564D01*
X54958Y4093D01*
X55573Y3839D01*
X56238D01*
X56853Y4093D01*
X57324Y4564D01*
X57579Y5179D01*
Y5845D01*
X57324Y6460D01*
X56853Y6930D01*
X56463Y7092D01*
X56311Y7647D01*
X56920Y8256D01*
X57475Y8104D01*
X57637Y7714D01*
X58107Y7243D01*
X58722Y6988D01*
X59388D01*
X60003Y7243D01*
X60474Y7714D01*
X60728Y8329D01*
Y8994D01*
X60474Y9609D01*
X60003Y10080D01*
X59485Y10294D01*
X59382Y10345D01*
X59121Y10835D01*
X59136Y10911D01*
Y12711D01*
X59056Y13116D01*
X58827Y13459D01*
X54076Y18210D01*
X53733Y18439D01*
X53328Y18520D01*
X49025D01*
X48664Y18880D01*
X48049Y19135D01*
X47384D01*
X46769Y18880D01*
X46298Y18410D01*
X46043Y17795D01*
Y17759D01*
X45543Y17552D01*
X37849Y25246D01*
X37423Y25531D01*
X36921Y25631D01*
X34169D01*
X33962Y26131D01*
X34103Y26272D01*
X34358Y26887D01*
Y27553D01*
X34103Y28168D01*
X33633Y28638D01*
X33018Y28893D01*
X32352D01*
X31737Y28638D01*
X31266Y28168D01*
X31012Y27553D01*
Y26887D01*
X31266Y26272D01*
X31059Y25775D01*
X31018Y25736D01*
X30403Y25991D01*
X29737D01*
X29437Y26192D01*
Y42854D01*
X29437Y42854D01*
X29297Y43554D01*
X28975Y44036D01*
X29046Y44607D01*
X29137Y44644D01*
X29607Y45115D01*
X29862Y45730D01*
Y46396D01*
X29607Y47011D01*
X29137Y47482D01*
X28522Y47736D01*
X27856D01*
X27241Y47482D01*
X26946Y47186D01*
X26386Y47222D01*
X26349Y47242D01*
X26300Y47333D01*
X30340Y51373D01*
X30764Y51090D01*
X30654Y50825D01*
Y50159D01*
X30909Y49544D01*
X31379Y49074D01*
X31994Y48819D01*
X32660D01*
X33275Y49074D01*
X33746Y49544D01*
X34001Y50159D01*
Y50825D01*
X33746Y51440D01*
X33275Y51911D01*
X32660Y52165D01*
X31994D01*
X31729Y52056D01*
X31446Y52479D01*
X37447Y58481D01*
X42550D01*
X42884Y57981D01*
X42815Y57813D01*
Y57663D01*
X41780Y56629D01*
X41522Y56242D01*
X40657D01*
X40155Y56142D01*
X39729Y55857D01*
X37655Y53782D01*
X37370Y53357D01*
X37270Y52854D01*
Y47491D01*
X33933Y44154D01*
X33783D01*
X33168Y43899D01*
X32697Y43429D01*
X32443Y42814D01*
Y42148D01*
X32697Y41533D01*
X33168Y41062D01*
X33783Y40808D01*
X34449D01*
X35063Y41062D01*
X35534Y41533D01*
X35789Y42148D01*
Y42298D01*
X39511Y46020D01*
X39795Y46445D01*
X39895Y46948D01*
Y52311D01*
X41201Y53616D01*
X42123D01*
X42625Y53716D01*
X42877Y53885D01*
X43461Y53783D01*
X43463Y53777D01*
X43934Y53306D01*
X44549Y53051D01*
X45215D01*
X45830Y53306D01*
X46045Y53521D01*
X46445Y53214D01*
X46412Y53157D01*
X46063Y51855D01*
Y50507D01*
X46412Y49206D01*
X47086Y48039D01*
X48039Y47086D01*
X48743Y46679D01*
X48749Y46588D01*
X48283Y46088D01*
X48166D01*
X47551Y45833D01*
X47080Y45362D01*
X46826Y44747D01*
Y44082D01*
X47080Y43467D01*
X47551Y42996D01*
X48166Y42741D01*
X48832D01*
X49447Y42996D01*
X49918Y43467D01*
X50172Y44082D01*
Y44747D01*
X49918Y45362D01*
X49447Y45833D01*
X49630Y46298D01*
X50507Y46063D01*
X51436D01*
X51535Y45563D01*
X51414Y45513D01*
X50944Y45042D01*
X50689Y44427D01*
Y43762D01*
X50944Y43147D01*
X51414Y42676D01*
X52029Y42421D01*
X52695D01*
X53310Y42676D01*
X53781Y43147D01*
X54035Y43762D01*
Y44427D01*
X53781Y45042D01*
X53310Y45513D01*
X52695Y45768D01*
X52684D01*
X52619Y46268D01*
X53157Y46412D01*
X54324Y47086D01*
X55277Y48039D01*
X55950Y49206D01*
X56299Y50507D01*
Y51855D01*
X55950Y53157D01*
X55277Y54324D01*
X54324Y55277D01*
X53157Y55950D01*
X51855Y56299D01*
X50507D01*
X49205Y55950D01*
X48039Y55277D01*
X47086Y54324D01*
X47017Y54205D01*
X46555Y54391D01*
Y55057D01*
X46300Y55672D01*
X45830Y56143D01*
X45949Y56635D01*
X46161Y57147D01*
Y57813D01*
X46024Y58144D01*
X45942Y58474D01*
X46215Y58827D01*
X46499Y59017D01*
X47857Y60374D01*
X51210D01*
X52643Y58942D01*
X53236Y58545D01*
X53937Y58406D01*
X53937Y58406D01*
X56693D01*
X57393Y58545D01*
X57987Y58942D01*
X58384Y59536D01*
X58523Y60236D01*
X58384Y60937D01*
X57987Y61531D01*
X57393Y61927D01*
X56693Y62067D01*
X54695D01*
X53272Y63490D01*
X53272Y63521D01*
X53458Y63970D01*
X53718Y63936D01*
D02*
G37*
G36*
X42241Y64158D02*
X42559Y63658D01*
X42421Y63325D01*
Y62659D01*
X42464Y62557D01*
X42186Y62142D01*
X36689D01*
X35989Y62002D01*
X35395Y61605D01*
X35395Y61605D01*
X31152Y57363D01*
X30728Y57646D01*
X30807Y57837D01*
Y58502D01*
X30552Y59117D01*
X30082Y59588D01*
X29467Y59843D01*
X28801D01*
X28186Y59588D01*
X27715Y59117D01*
X27461Y58502D01*
Y57837D01*
X27715Y57222D01*
X28186Y56751D01*
X28801Y56496D01*
X29467D01*
X29657Y56575D01*
X29941Y56151D01*
X23549Y49760D01*
X19728Y53582D01*
X19134Y53979D01*
X18433Y54118D01*
X10855D01*
X10577Y54480D01*
X7500D01*
Y55480D01*
X10541D01*
X10358Y56164D01*
X9954Y56863D01*
X9525Y57292D01*
X9395Y57486D01*
X9500Y57944D01*
X9784Y58228D01*
X10160Y58879D01*
X10354Y59605D01*
Y60356D01*
X10160Y61082D01*
X9784Y61733D01*
X9253Y62264D01*
X8602Y62640D01*
X7876Y62835D01*
X7124D01*
X6398Y62640D01*
X5747Y62264D01*
X5308Y61825D01*
X5000Y61771D01*
X4692Y61825D01*
X4253Y62264D01*
X3602Y62640D01*
X2876Y62835D01*
X2124D01*
X1398Y62640D01*
X747Y62264D01*
X308Y61825D01*
X0Y61771D01*
X-308Y61825D01*
X-747Y62264D01*
X-1398Y62640D01*
X-2124Y62835D01*
X-2876D01*
X-3602Y62640D01*
X-4253Y62264D01*
X-4692Y61825D01*
X-5000Y61771D01*
X-5308Y61825D01*
X-5747Y62264D01*
X-6398Y62640D01*
X-7124Y62835D01*
X-7876D01*
X-8602Y62640D01*
X-9253Y62264D01*
X-9784Y61733D01*
X-10160Y61082D01*
X-10354Y60356D01*
Y59605D01*
X-10160Y58879D01*
X-9784Y58228D01*
X-9500Y57944D01*
X-9395Y57486D01*
X-9525Y57292D01*
X-9954Y56863D01*
X-10358Y56164D01*
X-10541Y55480D01*
X-7500D01*
Y54480D01*
X-10541D01*
X-10358Y53796D01*
X-9966Y53118D01*
X-10031Y52852D01*
X-10128Y52618D01*
X-11053D01*
X-12993Y54558D01*
X-12837Y55109D01*
X-12438Y55274D01*
X-11967Y55745D01*
X-11713Y56360D01*
Y57026D01*
X-11967Y57641D01*
X-12438Y58111D01*
X-13053Y58366D01*
X-13719D01*
X-14334Y58111D01*
X-14804Y57641D01*
X-15059Y57026D01*
Y56360D01*
X-14990Y56193D01*
X-15324Y55693D01*
X-22764D01*
X-22764Y55693D01*
X-23465Y55553D01*
X-24058Y55156D01*
X-26203Y53012D01*
X-34281D01*
X-35177Y53908D01*
Y56299D01*
X-35177Y56299D01*
X-35317Y57000D01*
X-35713Y57594D01*
X-35714Y57594D01*
X-39725Y61605D01*
X-40319Y62002D01*
X-40922Y62122D01*
X-41281Y62560D01*
X-41240Y62659D01*
Y63325D01*
X-41378Y63658D01*
X-41059Y64158D01*
X42241Y64158D01*
D02*
G37*
G36*
X-53272Y63521D02*
X-53272Y63490D01*
X-54695Y62067D01*
X-56693D01*
X-57393Y61927D01*
X-57987Y61531D01*
X-58384Y60937D01*
X-58523Y60236D01*
X-58384Y59536D01*
X-57987Y58942D01*
X-57393Y58545D01*
X-56693Y58406D01*
X-53937D01*
X-53237Y58545D01*
X-52643Y58942D01*
X-51210Y60374D01*
X-48002D01*
X-46645Y59017D01*
X-46051Y58620D01*
X-45350Y58481D01*
X-44039D01*
X-43761Y58065D01*
X-43803Y57963D01*
Y57297D01*
X-43549Y56682D01*
X-43078Y56211D01*
X-42824Y56106D01*
X-42757Y55771D01*
X-43012Y55156D01*
Y54490D01*
X-42757Y53875D01*
X-42286Y53404D01*
X-41864Y53229D01*
Y50895D01*
X-42364Y50619D01*
X-42770Y50787D01*
X-43435D01*
X-43547Y50741D01*
X-43963Y51019D01*
Y53671D01*
X-43857Y53777D01*
X-43602Y54392D01*
Y55057D01*
X-43857Y55672D01*
X-44328Y56143D01*
X-44943Y56398D01*
X-45608D01*
X-46223Y56143D01*
X-46694Y55672D01*
X-46949Y55057D01*
Y54894D01*
X-47449Y54687D01*
X-48039Y55277D01*
X-49206Y55950D01*
X-50507Y56299D01*
X-51855D01*
X-53157Y55950D01*
X-54324Y55277D01*
X-55277Y54324D01*
X-55950Y53157D01*
X-56299Y51855D01*
Y50507D01*
X-55950Y49206D01*
X-55277Y48039D01*
X-54324Y47086D01*
X-53157Y46412D01*
X-52764Y46307D01*
X-52666Y45763D01*
X-52993Y45436D01*
X-53248Y44821D01*
Y44155D01*
X-52993Y43540D01*
X-52523Y43070D01*
X-51908Y42815D01*
X-51242D01*
X-50627Y43070D01*
X-50156Y43540D01*
X-49902Y44155D01*
Y44821D01*
X-50156Y45436D01*
X-50317Y45597D01*
X-50167Y46154D01*
X-49206Y46412D01*
X-48039Y47086D01*
X-47088Y48036D01*
X-46965Y48035D01*
X-46588Y47934D01*
Y43063D01*
X-53865Y35786D01*
X-53964Y35638D01*
X-54179Y35620D01*
X-54552Y35658D01*
X-54958Y36064D01*
X-55573Y36319D01*
X-56238D01*
X-56853Y36064D01*
X-57324Y35594D01*
X-57579Y34979D01*
Y34313D01*
X-57324Y33698D01*
X-56853Y33227D01*
X-56238Y32972D01*
X-55573D01*
X-54958Y33227D01*
X-54750Y33435D01*
X-54250Y33228D01*
Y32484D01*
X-54356Y32378D01*
X-54610Y31763D01*
Y31097D01*
X-54356Y30482D01*
X-53982Y30109D01*
X-54108Y29653D01*
X-54136Y29609D01*
X-56806D01*
X-57210Y29528D01*
X-57554Y29299D01*
X-60070Y26783D01*
X-60624Y26935D01*
X-60786Y27326D01*
X-61257Y27797D01*
X-61872Y28051D01*
X-62538D01*
X-63152Y27797D01*
X-63623Y27326D01*
X-63658Y27242D01*
X-64158Y27342D01*
Y33682D01*
X-63658Y33781D01*
X-63623Y33698D01*
X-63152Y33227D01*
X-62538Y32972D01*
X-61872D01*
X-61257Y33227D01*
X-60786Y33698D01*
X-60532Y34313D01*
Y34979D01*
X-60786Y35594D01*
X-61257Y36064D01*
X-61872Y36319D01*
X-62538D01*
X-63152Y36064D01*
X-63623Y35594D01*
X-63658Y35510D01*
X-64158Y35609D01*
Y39981D01*
X-63658Y40081D01*
X-63623Y39997D01*
X-63152Y39527D01*
X-62538Y39272D01*
X-61872D01*
X-61257Y39527D01*
X-60786Y39997D01*
X-60532Y40612D01*
Y41278D01*
X-60786Y41893D01*
X-61257Y42364D01*
X-61872Y42618D01*
X-62538D01*
X-63152Y42364D01*
X-63623Y41893D01*
X-63658Y41809D01*
X-64158Y41909D01*
Y51181D01*
Y52032D01*
X-63936Y53718D01*
X-63496Y55361D01*
X-62845Y56933D01*
X-61994Y58406D01*
X-60958Y59756D01*
X-59756Y60958D01*
X-58406Y61994D01*
X-56933Y62845D01*
X-55361Y63495D01*
X-53718Y63936D01*
X-53458Y63970D01*
X-53272Y63521D01*
D02*
G37*
G36*
X-13105Y49493D02*
X-13105Y49493D01*
X-12512Y49096D01*
X-11811Y48957D01*
X-11720D01*
X-11443Y48541D01*
X-11516Y48364D01*
Y47699D01*
X-11261Y47084D01*
X-10790Y46613D01*
X-10175Y46358D01*
X-9941D01*
X-9547Y46002D01*
Y45336D01*
X-9292Y44721D01*
X-8822Y44251D01*
X-8207Y43996D01*
X-7541D01*
X-6926Y44251D01*
X-6455Y44721D01*
X-6201Y45336D01*
Y46002D01*
X-6455Y46617D01*
X-6926Y47088D01*
X-7541Y47343D01*
X-7776D01*
X-8169Y47699D01*
Y48364D01*
X-8243Y48541D01*
X-7965Y48957D01*
X4487D01*
X4638Y48457D01*
X4548Y48397D01*
X3966Y47815D01*
X3495D01*
X3495Y47815D01*
X2795Y47675D01*
X2201Y47279D01*
X2201Y47278D01*
X-2082Y42996D01*
X-2479Y42402D01*
X-2618Y41701D01*
Y38596D01*
X-2881Y38419D01*
X-3547D01*
X-4162Y38165D01*
X-4633Y37694D01*
X-4792Y37310D01*
X-5350Y37160D01*
X-6423Y38233D01*
Y39370D01*
X-6503Y39775D01*
X-6732Y40118D01*
X-11608Y44994D01*
X-11952Y45223D01*
X-12356Y45304D01*
X-25268D01*
X-28853Y48889D01*
X-28662Y49351D01*
X-25445D01*
X-24745Y49490D01*
X-24151Y49887D01*
X-23605Y50433D01*
X-23114Y50335D01*
X-23072Y50233D01*
X-22601Y49763D01*
X-21986Y49508D01*
X-21321D01*
X-20706Y49763D01*
X-20235Y50233D01*
X-19980Y50848D01*
Y51514D01*
X-20023Y51616D01*
X-19745Y52032D01*
X-15644D01*
X-13105Y49493D01*
D02*
G37*
G36*
X-41864Y47333D02*
Y38583D01*
Y32434D01*
X-48575Y25722D01*
X-54016D01*
X-54232Y26045D01*
Y26711D01*
X-54349Y26994D01*
X-54015Y27494D01*
X-52364D01*
X-51959Y27574D01*
X-51616Y27803D01*
X-51437Y27981D01*
X-51400Y27966D01*
X-50734D01*
X-50119Y28220D01*
X-49648Y28691D01*
X-49394Y29306D01*
Y29763D01*
X-48846D01*
X-48231Y30018D01*
X-47760Y30489D01*
X-47505Y31104D01*
Y31494D01*
X-47395Y31556D01*
X-47005Y31647D01*
X-46617Y31259D01*
X-46002Y31004D01*
X-45336D01*
X-44721Y31259D01*
X-44251Y31729D01*
X-43996Y32344D01*
Y33010D01*
X-44251Y33625D01*
X-44721Y34096D01*
X-45336Y34350D01*
X-46002D01*
X-46617Y34096D01*
X-47088Y33625D01*
X-47343Y33010D01*
Y32620D01*
X-47453Y32558D01*
X-47842Y32467D01*
X-48231Y32855D01*
X-48846Y33110D01*
X-49511D01*
X-50126Y32855D01*
X-50597Y32384D01*
X-50802Y31890D01*
X-51314Y31883D01*
X-51519Y32378D01*
X-51624Y32484D01*
Y34315D01*
X-46568Y39371D01*
X-46144Y39088D01*
X-46200Y38954D01*
Y38288D01*
X-45945Y37673D01*
X-45474Y37202D01*
X-44859Y36948D01*
X-44194D01*
X-43578Y37202D01*
X-43108Y37673D01*
X-42853Y38288D01*
Y38954D01*
X-43108Y39569D01*
X-43578Y40039D01*
X-44194Y40294D01*
X-44859D01*
X-44993Y40238D01*
X-45277Y40662D01*
X-44347Y41592D01*
X-44063Y42017D01*
X-43963Y42520D01*
Y47210D01*
X-43547Y47487D01*
X-43435Y47441D01*
X-42770D01*
X-42364Y47609D01*
X-41864Y47333D01*
D02*
G37*
G36*
X16373Y49957D02*
X15959Y49785D01*
X15488Y49315D01*
X15234Y48700D01*
Y48034D01*
X15488Y47419D01*
X15959Y46948D01*
X16574Y46694D01*
X17240D01*
X17855Y46948D01*
X18325Y47419D01*
X18580Y48034D01*
Y48700D01*
X18477Y48948D01*
X18901Y49231D01*
X21843Y46290D01*
X21858Y46210D01*
X22255Y45617D01*
X25776Y42096D01*
Y26227D01*
X25674Y26125D01*
X25277Y25531D01*
X25138Y24831D01*
Y8917D01*
X23622D01*
X23217Y8837D01*
X23071Y9317D01*
X23586Y9530D01*
X24056Y10001D01*
X24311Y10616D01*
Y11282D01*
X24056Y11897D01*
X23586Y12367D01*
X22971Y12622D01*
X22305D01*
X21690Y12367D01*
X21219Y11897D01*
X20965Y11282D01*
Y10616D01*
X21219Y10001D01*
X21690Y9530D01*
X22305Y9276D01*
X22862Y9276D01*
X22921Y8778D01*
X22758Y8668D01*
X22328Y8381D01*
X21931Y7787D01*
X21843Y7342D01*
X1969D01*
X1268Y7203D01*
X674Y6806D01*
X-3335Y2797D01*
X-3407Y2870D01*
X-3762Y3017D01*
X-3950Y3143D01*
X-4651Y3282D01*
X-7505D01*
X-8205Y3143D01*
X-8799Y2746D01*
X-9087Y2316D01*
X-9587Y2467D01*
Y4187D01*
X-9447Y4214D01*
X-8853Y4611D01*
X-1515Y11949D01*
X-573D01*
X-366Y11449D01*
X-631Y11184D01*
X-886Y10569D01*
Y9903D01*
X-631Y9288D01*
X-160Y8818D01*
X455Y8563D01*
X1120D01*
X1735Y8818D01*
X2044Y9127D01*
X2362Y9235D01*
X2680Y9127D01*
X2989Y8818D01*
X3604Y8563D01*
X4270D01*
X4885Y8818D01*
X5356Y9288D01*
X5610Y9903D01*
Y10569D01*
X5356Y11184D01*
X5090Y11449D01*
X5297Y11949D01*
X14961D01*
X15661Y12088D01*
X16255Y12485D01*
X18027Y14257D01*
X18027Y14257D01*
X18423Y14851D01*
X18563Y15551D01*
X18563Y15551D01*
Y22667D01*
X24523Y28627D01*
X24523Y28627D01*
X24919Y29221D01*
X25059Y29921D01*
X25059Y29921D01*
Y37008D01*
X25059Y37008D01*
X24919Y37708D01*
X24523Y38302D01*
X24523Y38302D01*
X20979Y41846D01*
X20385Y42242D01*
X19685Y42382D01*
X12438D01*
Y44008D01*
X12438Y44008D01*
X12299Y44708D01*
X11902Y45302D01*
X11902Y45302D01*
X10757Y46447D01*
X10855Y46937D01*
X11025Y47008D01*
X11207Y47190D01*
X11535Y47447D01*
X11861Y47190D01*
X12044Y47007D01*
X12659Y46752D01*
X13325D01*
X13940Y47007D01*
X14411Y47477D01*
X14665Y48092D01*
Y48758D01*
X14411Y49373D01*
X13940Y49844D01*
X13667Y49957D01*
X13766Y50457D01*
X16274D01*
X16373Y49957D01*
D02*
G37*
G36*
X-34091Y37155D02*
X-34002Y36770D01*
X-34391Y36381D01*
X-34646Y35766D01*
Y35100D01*
X-34391Y34485D01*
X-33920Y34015D01*
X-33305Y33760D01*
X-32640D01*
X-32025Y34015D01*
X-31554Y34485D01*
X-31299Y35100D01*
Y35429D01*
X-30799Y35636D01*
X-30446Y35283D01*
Y31642D01*
X-30927Y31594D01*
X-31181Y32209D01*
X-31652Y32680D01*
X-32267Y32934D01*
X-32933D01*
X-33548Y32680D01*
X-33888Y32340D01*
X-33956Y32326D01*
X-34381Y32042D01*
X-45032Y21391D01*
X-54852D01*
X-54958Y21497D01*
X-55124Y21566D01*
X-55221Y22056D01*
X-54181Y23097D01*
X-48031D01*
X-47529Y23197D01*
X-47103Y23481D01*
X-39623Y30962D01*
X-39338Y31387D01*
X-39239Y31890D01*
Y37270D01*
X-34155D01*
X-34091Y37155D01*
D02*
G37*
G36*
X21398Y36250D02*
Y30680D01*
X15438Y24720D01*
X15438Y24720D01*
X14961Y24242D01*
X10960Y28242D01*
Y38293D01*
X11388Y38721D01*
X18927D01*
X21398Y36250D01*
D02*
G37*
G36*
X-38699Y52449D02*
X-38302Y51855D01*
X-36334Y49887D01*
X-36334Y49887D01*
X-36015Y49674D01*
X-35865Y49059D01*
X-35875Y49025D01*
X-35969Y48898D01*
X-36074D01*
X-36689Y48643D01*
X-37159Y48172D01*
X-37414Y47557D01*
Y46892D01*
X-37159Y46277D01*
X-36689Y45806D01*
X-36074Y45551D01*
X-35408D01*
X-34793Y45806D01*
X-34654Y45945D01*
X-34096Y45903D01*
X-33625Y45432D01*
X-33010Y45177D01*
X-32344D01*
X-31729Y45432D01*
X-31259Y45903D01*
X-31004Y46518D01*
Y47183D01*
X-31115Y47453D01*
X-30692Y47736D01*
X-26454Y43498D01*
X-26111Y43269D01*
X-25706Y43188D01*
X-12794D01*
X-8538Y38932D01*
Y37795D01*
X-8457Y37391D01*
X-8228Y37047D01*
X-4773Y33592D01*
X-4928Y33040D01*
X-5325Y32875D01*
X-5795Y32405D01*
X-6050Y31790D01*
Y31124D01*
X-5831Y30596D01*
X-6164Y30458D01*
X-6635Y29987D01*
X-6890Y29372D01*
Y28707D01*
X-6635Y28092D01*
X-6164Y27621D01*
X-5549Y27366D01*
X-5302D01*
X-5302Y27366D01*
Y26700D01*
X-5047Y26085D01*
X-4583Y25622D01*
X-4848Y25357D01*
X-5102Y24742D01*
Y24517D01*
X-5602Y24265D01*
X-5992Y24526D01*
X-6693Y24665D01*
X-21260D01*
X-21260Y24665D01*
X-21960Y24526D01*
X-22554Y24129D01*
X-22554Y24129D01*
X-25531Y21152D01*
X-26055Y21336D01*
X-26248Y21803D01*
X-26719Y22274D01*
X-27334Y22528D01*
X-27999D01*
X-28614Y22274D01*
X-29085Y21803D01*
X-29250Y21404D01*
X-29802Y21249D01*
X-29914Y21361D01*
X-30508Y21758D01*
X-31208Y21897D01*
X-32878D01*
X-33579Y21758D01*
X-34173Y21361D01*
X-35766Y19768D01*
X-36162Y19174D01*
X-36302Y18474D01*
Y15573D01*
X-36162Y14873D01*
X-35766Y14279D01*
X-33972Y12485D01*
X-33972Y12485D01*
X-33378Y12088D01*
X-32678Y11949D01*
X-31858D01*
X-31416Y11508D01*
X-31534Y10918D01*
X-31657Y10867D01*
X-32127Y10397D01*
X-32717Y10280D01*
X-32910Y10474D01*
X-33525Y10728D01*
X-34191D01*
X-34806Y10474D01*
X-35167Y10113D01*
X-41713D01*
X-46082Y14482D01*
Y14992D01*
X-46337Y15607D01*
X-46807Y16078D01*
X-47422Y16333D01*
X-47948D01*
X-48153Y16415D01*
X-48410Y16740D01*
Y17184D01*
X-48665Y17799D01*
X-49132Y18266D01*
X-49132Y18288D01*
X-49027Y18766D01*
X-44488D01*
X-43986Y18866D01*
X-43560Y19150D01*
X-33067Y29644D01*
X-32933Y29588D01*
X-32267D01*
X-31652Y29843D01*
X-31181Y30314D01*
X-30927Y30929D01*
X-30446Y30881D01*
Y28004D01*
X-31187Y27264D01*
X-31337D01*
X-31952Y27009D01*
X-32422Y26538D01*
X-32677Y25923D01*
Y25258D01*
X-32422Y24643D01*
X-31952Y24172D01*
X-31337Y23917D01*
X-30671D01*
X-30056Y24172D01*
X-29585Y24643D01*
X-29331Y25258D01*
Y25407D01*
X-28206Y26533D01*
X-27921Y26958D01*
X-27821Y27461D01*
Y35827D01*
X-27921Y36329D01*
X-28206Y36755D01*
X-30962Y39511D01*
X-31387Y39795D01*
X-31890Y39895D01*
X-39239D01*
Y52599D01*
X-38739Y52648D01*
X-38699Y52449D01*
D02*
G37*
G36*
X-53874Y18651D02*
X-53785Y18266D01*
X-54174Y17877D01*
X-54429Y17262D01*
Y16596D01*
X-54174Y15981D01*
X-53704Y15510D01*
X-53089Y15256D01*
X-52423D01*
X-51808Y15510D01*
X-51459Y15860D01*
X-51031Y15433D01*
X-50416Y15178D01*
X-49890D01*
X-49685Y15096D01*
X-49428Y14770D01*
Y14327D01*
X-49174Y13712D01*
X-48703Y13241D01*
X-48088Y12986D01*
X-47578D01*
X-43259Y8667D01*
X-43434Y8135D01*
X-43686Y8098D01*
X-45974Y10386D01*
X-46317Y10615D01*
X-46722Y10695D01*
X-54015D01*
X-54349Y11196D01*
X-54232Y11478D01*
Y12144D01*
X-54487Y12759D01*
X-54958Y13229D01*
X-55573Y13484D01*
X-55722D01*
X-56766Y14528D01*
Y18174D01*
X-56350Y18452D01*
X-56238Y18406D01*
X-55573D01*
X-54958Y18660D01*
X-54852Y18766D01*
X-53938D01*
X-53874Y18651D01*
D02*
G37*
G36*
X48500Y10883D02*
X48926Y10598D01*
X49428Y10498D01*
X54852D01*
X54958Y10392D01*
X55240Y10275D01*
X55358Y9686D01*
X54210Y8538D01*
X39433D01*
X39028Y8457D01*
X38685Y8228D01*
X34664Y4207D01*
X33986D01*
X33625Y4568D01*
X33010Y4823D01*
X32612D01*
X32265Y5290D01*
X32382Y5573D01*
Y6238D01*
X32127Y6853D01*
X31657Y7324D01*
X31041Y7579D01*
X30376D01*
X29761Y7324D01*
X29290Y6853D01*
X29199Y6633D01*
X28718Y6779D01*
X28799Y7185D01*
Y17010D01*
X29299Y17344D01*
X29588Y17224D01*
X30254D01*
X30869Y17479D01*
X31340Y17950D01*
X31594Y18565D01*
Y19230D01*
X31340Y19845D01*
X30909Y20276D01*
X31340Y20706D01*
X31594Y21321D01*
Y21986D01*
X31379Y22505D01*
X31521Y22843D01*
X31643Y23005D01*
X36377D01*
X48500Y10883D01*
D02*
G37*
G36*
X138Y25191D02*
Y15610D01*
X-1515D01*
X-2324Y16419D01*
X-2918Y16815D01*
X-3618Y16955D01*
X-3937D01*
X-4075Y17093D01*
Y20079D01*
X-4075Y20079D01*
X-4075Y20079D01*
Y22047D01*
X-4075Y22047D01*
X-4135Y22350D01*
X-3818Y22679D01*
X-3702Y22736D01*
X-3096D01*
X-2481Y22991D01*
X-2011Y23462D01*
X-1851Y23847D01*
X-1765Y23905D01*
X-433Y25236D01*
X-362Y25343D01*
X138Y25191D01*
D02*
G37*
G36*
X-16432Y20504D02*
X-16634Y20018D01*
Y19352D01*
X-16379Y18737D01*
X-15908Y18267D01*
X-15293Y18012D01*
X-14628D01*
X-14013Y18267D01*
X-13542Y18737D01*
X-13059Y18597D01*
X-12778Y18480D01*
X-12112D01*
X-11757Y18628D01*
X-11261Y18737D01*
X-10790Y18267D01*
X-10175Y18012D01*
X-9510D01*
X-8895Y18267D01*
X-8424Y18737D01*
X-7797Y18955D01*
X-7736Y18926D01*
Y16335D01*
X-7597Y15634D01*
X-7200Y15041D01*
X-5989Y13830D01*
X-5989Y13830D01*
X-5707Y13642D01*
X-5632Y13009D01*
X-10906Y7736D01*
X-25157D01*
Y9667D01*
X-25157Y9667D01*
X-25157Y9667D01*
Y12295D01*
X-24657Y12628D01*
X-24349Y12500D01*
X-23683D01*
X-23068Y12755D01*
X-22597Y13225D01*
X-22343Y13840D01*
Y14506D01*
X-22597Y15121D01*
X-23068Y15592D01*
X-23683Y15846D01*
X-24349D01*
X-24534Y15769D01*
X-24978Y16050D01*
X-25012Y16494D01*
X-20502Y21004D01*
X-16661D01*
X-16432Y20504D01*
D02*
G37*
G36*
X-59460Y10797D02*
X-59613Y10242D01*
X-60003Y10080D01*
X-60474Y9609D01*
X-60728Y8994D01*
Y8329D01*
X-60474Y7714D01*
X-60003Y7243D01*
X-59388Y6988D01*
X-58722D01*
X-58107Y7243D01*
X-57637Y7714D01*
X-57422Y8232D01*
X-57371Y8334D01*
X-56882Y8595D01*
X-56806Y8580D01*
X-47160D01*
X-45430Y6850D01*
X-45547Y6260D01*
X-45830Y6143D01*
X-46300Y5672D01*
X-46555Y5057D01*
Y4392D01*
X-46300Y3777D01*
X-45991Y3467D01*
X-45883Y3150D01*
X-45991Y2832D01*
X-46300Y2523D01*
X-46555Y1908D01*
Y1242D01*
X-46300Y627D01*
X-45991Y318D01*
X-45883Y0D01*
X-45991Y-318D01*
X-46300Y-627D01*
X-46555Y-1242D01*
Y-1908D01*
X-46300Y-2523D01*
X-45991Y-2832D01*
X-45883Y-3150D01*
X-45991Y-3467D01*
X-46300Y-3777D01*
X-46555Y-4392D01*
Y-5057D01*
X-46300Y-5672D01*
X-45830Y-6143D01*
X-45215Y-6398D01*
X-44549D01*
X-43934Y-6143D01*
X-43463Y-5672D01*
X-43209Y-5057D01*
Y-4392D01*
X-43463Y-3777D01*
X-43773Y-3467D01*
X-43881Y-3150D01*
X-43773Y-2832D01*
X-43463Y-2523D01*
X-43209Y-1908D01*
Y-1242D01*
X-43463Y-627D01*
X-43773Y-318D01*
X-43881Y0D01*
X-43773Y318D01*
X-43463Y627D01*
X-43209Y1242D01*
Y1908D01*
X-43463Y2523D01*
X-43773Y2832D01*
X-43881Y3150D01*
X-43773Y3467D01*
X-43463Y3777D01*
X-43209Y4392D01*
Y5057D01*
X-43319Y5324D01*
X-42985Y5824D01*
X-33652D01*
X-33385Y5324D01*
X-33581Y5031D01*
X-33720Y4331D01*
Y-969D01*
X-33581Y-1670D01*
X-33184Y-2263D01*
X-28996Y-6452D01*
Y-10721D01*
X-29412Y-10999D01*
X-29588Y-10925D01*
X-30099D01*
X-32717Y-8307D01*
X-33060Y-8078D01*
X-33465Y-7997D01*
X-46019D01*
X-48942Y-5074D01*
Y-3631D01*
X-48581Y-3271D01*
X-48327Y-2656D01*
Y-1990D01*
X-48581Y-1375D01*
X-49052Y-904D01*
X-49667Y-650D01*
X-50333D01*
X-50948Y-904D01*
X-51419Y-1375D01*
X-51673Y-1990D01*
Y-2656D01*
X-51419Y-3271D01*
X-51058Y-3631D01*
Y-5512D01*
X-50977Y-5917D01*
X-50748Y-6260D01*
X-47205Y-9803D01*
X-46861Y-10032D01*
X-46457Y-10113D01*
X-33903D01*
X-33428Y-10587D01*
X-33711Y-11011D01*
X-33919Y-10925D01*
X-34585D01*
X-35200Y-11180D01*
X-35561Y-11541D01*
X-43299D01*
X-43704Y-11621D01*
X-44047Y-11851D01*
X-47768Y-15572D01*
X-47874D01*
X-48297Y-15343D01*
X-48316Y-15110D01*
Y-14667D01*
X-48571Y-14052D01*
X-49042Y-13581D01*
X-49657Y-13327D01*
X-50322D01*
X-50937Y-13581D01*
X-51125Y-13769D01*
X-51492Y-13988D01*
X-51778Y-13769D01*
X-52005Y-13542D01*
X-52620Y-13287D01*
X-53286D01*
X-53901Y-13542D01*
X-54093Y-13735D01*
X-54593Y-13527D01*
Y-12865D01*
X-54487Y-12759D01*
X-54232Y-12144D01*
Y-11478D01*
X-54487Y-10863D01*
X-54958Y-10393D01*
X-55573Y-10138D01*
X-56238D01*
X-56853Y-10393D01*
X-57324Y-10863D01*
X-57579Y-11478D01*
Y-12144D01*
X-57324Y-12759D01*
X-57218Y-12865D01*
Y-15748D01*
X-57118Y-16250D01*
X-56834Y-16676D01*
X-55604Y-17906D01*
X-55811Y-18406D01*
X-56238D01*
X-56853Y-18660D01*
X-57324Y-19131D01*
X-57579Y-19746D01*
Y-20412D01*
X-57324Y-21027D01*
X-56853Y-21497D01*
X-56238Y-21752D01*
X-55573D01*
X-54958Y-21497D01*
X-54487Y-21027D01*
X-54232Y-20412D01*
Y-19985D01*
X-53732Y-19778D01*
X-49344Y-24166D01*
Y-27692D01*
X-49844Y-28026D01*
X-50020Y-27953D01*
X-50686D01*
X-51301Y-28207D01*
X-51604Y-28510D01*
X-52005Y-28109D01*
X-52620Y-27854D01*
X-53286D01*
X-53901Y-28109D01*
X-54371Y-28580D01*
X-54626Y-29195D01*
Y-29860D01*
X-54371Y-30475D01*
X-53901Y-30946D01*
X-53286Y-31201D01*
X-52620D01*
X-52005Y-30946D01*
X-51702Y-30643D01*
X-51301Y-31045D01*
X-50686Y-31299D01*
X-50020D01*
X-49844Y-31226D01*
X-49344Y-31560D01*
Y-35404D01*
X-53950Y-40010D01*
X-54441Y-39912D01*
X-54487Y-39800D01*
X-54958Y-39330D01*
X-55573Y-39075D01*
X-56238D01*
X-56853Y-39330D01*
X-57324Y-39800D01*
X-57579Y-40415D01*
Y-41081D01*
X-57324Y-41696D01*
X-56853Y-42167D01*
X-56741Y-42213D01*
X-56644Y-42703D01*
X-63527Y-49586D01*
X-63658Y-49783D01*
X-64158Y-49631D01*
Y-41712D01*
X-63658Y-41612D01*
X-63623Y-41696D01*
X-63152Y-42167D01*
X-62538Y-42421D01*
X-61872D01*
X-61257Y-42167D01*
X-60786Y-41696D01*
X-60532Y-41081D01*
Y-40415D01*
X-60786Y-39800D01*
X-61257Y-39330D01*
X-61872Y-39075D01*
X-62538D01*
X-63152Y-39330D01*
X-63623Y-39800D01*
X-63658Y-39884D01*
X-64158Y-39784D01*
Y-35412D01*
X-63658Y-35313D01*
X-63623Y-35397D01*
X-63152Y-35867D01*
X-62538Y-36122D01*
X-61872D01*
X-61257Y-35867D01*
X-60786Y-35397D01*
X-60532Y-34782D01*
Y-34116D01*
X-60786Y-33501D01*
X-61257Y-33030D01*
X-61872Y-32776D01*
X-62538D01*
X-63152Y-33030D01*
X-63623Y-33501D01*
X-63658Y-33585D01*
X-64158Y-33485D01*
Y-27342D01*
X-63658Y-27242D01*
X-63623Y-27326D01*
X-63152Y-27796D01*
X-62538Y-28051D01*
X-61872D01*
X-61257Y-27796D01*
X-60786Y-27326D01*
X-60532Y-26711D01*
Y-26045D01*
X-60786Y-25430D01*
X-61257Y-24959D01*
X-61872Y-24705D01*
X-62538D01*
X-63152Y-24959D01*
X-63623Y-25430D01*
X-63658Y-25514D01*
X-64158Y-25414D01*
Y-21043D01*
X-63658Y-20943D01*
X-63623Y-21027D01*
X-63152Y-21497D01*
X-62538Y-21752D01*
X-61872D01*
X-61257Y-21497D01*
X-60786Y-21027D01*
X-60532Y-20412D01*
Y-19746D01*
X-60786Y-19131D01*
X-61257Y-18660D01*
X-61872Y-18406D01*
X-62538D01*
X-63152Y-18660D01*
X-63623Y-19131D01*
X-63658Y-19215D01*
X-64158Y-19115D01*
Y-12775D01*
X-63658Y-12675D01*
X-63623Y-12759D01*
X-63152Y-13230D01*
X-62538Y-13484D01*
X-61872D01*
X-61257Y-13230D01*
X-60786Y-12759D01*
X-60532Y-12144D01*
Y-11478D01*
X-60786Y-10863D01*
X-61257Y-10393D01*
X-61872Y-10138D01*
X-62538D01*
X-63152Y-10393D01*
X-63623Y-10863D01*
X-63658Y-10947D01*
X-64158Y-10847D01*
Y-6476D01*
X-63658Y-6376D01*
X-63623Y-6460D01*
X-63152Y-6930D01*
X-62538Y-7185D01*
X-61872D01*
X-61257Y-6930D01*
X-60786Y-6460D01*
X-60532Y-5845D01*
Y-5179D01*
X-60786Y-4564D01*
X-61257Y-4093D01*
X-61872Y-3839D01*
X-62538D01*
X-63152Y-4093D01*
X-63623Y-4564D01*
X-63658Y-4648D01*
X-64158Y-4548D01*
X-64158Y4548D01*
X-63658Y4648D01*
X-63623Y4564D01*
X-63152Y4093D01*
X-62538Y3839D01*
X-61872D01*
X-61257Y4093D01*
X-60786Y4564D01*
X-60532Y5179D01*
Y5845D01*
X-60786Y6460D01*
X-61257Y6930D01*
X-61872Y7185D01*
X-62538D01*
X-63152Y6930D01*
X-63623Y6460D01*
X-63658Y6376D01*
X-64158Y6476D01*
Y10847D01*
X-63658Y10947D01*
X-63623Y10863D01*
X-63152Y10392D01*
X-62538Y10138D01*
X-61872D01*
X-61257Y10392D01*
X-60786Y10863D01*
X-60624Y11254D01*
X-60070Y11406D01*
X-59460Y10797D01*
D02*
G37*
G36*
X28752Y6310D02*
X29035Y6147D01*
Y5573D01*
X29257Y5037D01*
Y2438D01*
X29338Y2034D01*
X29567Y1691D01*
X31029Y228D01*
X31372Y-1D01*
X31777Y-81D01*
X34777D01*
X34969Y-543D01*
X32855Y-2657D01*
X32344D01*
X31729Y-2912D01*
X31259Y-3383D01*
X31004Y-3998D01*
Y-4663D01*
X31259Y-5279D01*
X31729Y-5749D01*
X32344Y-6004D01*
X32677D01*
Y-6600D01*
X32703Y-6662D01*
X32320Y-7044D01*
X32223Y-7004D01*
X31557D01*
X30942Y-7259D01*
X30471Y-7729D01*
X30217Y-8344D01*
Y-9010D01*
X30471Y-9625D01*
X30942Y-10096D01*
X31557Y-10350D01*
X32223D01*
X32838Y-10096D01*
X33308Y-9625D01*
X33563Y-9010D01*
Y-8344D01*
X33537Y-8282D01*
X33920Y-7900D01*
X34018Y-7940D01*
X34683D01*
X35298Y-7685D01*
X35769Y-7215D01*
X36024Y-6600D01*
Y-5934D01*
X35769Y-5319D01*
X35298Y-4848D01*
X34683Y-4594D01*
X34494D01*
X34410Y-4094D01*
X37296Y-1207D01*
X43357D01*
X43564Y-1707D01*
X43463Y-1808D01*
X43209Y-2423D01*
Y-3089D01*
X43463Y-3704D01*
X43934Y-4174D01*
X44133Y-4257D01*
Y-4798D01*
X43934Y-4881D01*
X43463Y-5351D01*
X43209Y-5966D01*
Y-6632D01*
X43463Y-7247D01*
X43934Y-7718D01*
X44549Y-7972D01*
X45215D01*
X45830Y-7718D01*
X46300Y-7247D01*
X46555Y-6632D01*
Y-5966D01*
X46300Y-5351D01*
X45830Y-4881D01*
X45630Y-4798D01*
Y-4257D01*
X45830Y-4174D01*
X46300Y-3704D01*
X46555Y-3089D01*
Y-2423D01*
X46300Y-1808D01*
X46200Y-1707D01*
X46407Y-1207D01*
X47322D01*
X47656Y-1707D01*
X47539Y-1990D01*
Y-2656D01*
X47794Y-3271D01*
X48265Y-3741D01*
X48880Y-3996D01*
X49545D01*
X49959Y-3825D01*
X50459Y-4096D01*
Y-7151D01*
X38048Y-19561D01*
X37764Y-19987D01*
X37664Y-20490D01*
Y-22801D01*
X37164Y-23008D01*
X29390Y-15234D01*
Y-11811D01*
Y-8957D01*
X29390Y-8957D01*
X29250Y-8256D01*
X28853Y-7662D01*
X28263Y-7072D01*
X27669Y-6675D01*
X26969Y-6536D01*
X21457D01*
X20756Y-6675D01*
X20630Y-6759D01*
X20559Y-6774D01*
X19965Y-7170D01*
X19569Y-7764D01*
X19429Y-8465D01*
Y-9981D01*
X5421D01*
X5143Y-9565D01*
X5217Y-9388D01*
Y-8722D01*
X4962Y-8107D01*
X4491Y-7637D01*
X3876Y-7382D01*
X3210D01*
X2596Y-7637D01*
X2125Y-8107D01*
X1870Y-8722D01*
Y-9388D01*
X1591Y-9571D01*
X1280Y-9166D01*
Y-8722D01*
X1025Y-8107D01*
X554Y-7637D01*
X-61Y-7382D01*
X-727D01*
X-1342Y-7637D01*
X-1812Y-8107D01*
X-2067Y-8722D01*
Y-9388D01*
X-1994Y-9565D01*
X-2271Y-9981D01*
X-6328D01*
X-8942Y-7367D01*
X-9536Y-6970D01*
X-9587Y-6960D01*
Y-2713D01*
X-9087Y-2562D01*
X-8799Y-2992D01*
X-8205Y-3389D01*
X-7505Y-3528D01*
X-5241D01*
X-4798Y-3440D01*
X-4355Y-3528D01*
X-3655Y-3389D01*
X-3061Y-2992D01*
X-2664Y-2398D01*
X-2525Y-1698D01*
Y-1570D01*
X2727Y3681D01*
X25295D01*
X25996Y3821D01*
X26590Y4217D01*
X28164Y5792D01*
X28164Y5792D01*
X28263Y5891D01*
X28574Y6356D01*
X28752Y6310D01*
D02*
G37*
G36*
X-13248Y-6831D02*
X-21012D01*
X-21012Y-6831D01*
X-21712Y-6970D01*
X-22306Y-7367D01*
X-22306Y-7367D01*
X-23663Y-8725D01*
X-25335D01*
Y-5693D01*
X-25474Y-4993D01*
X-25871Y-4399D01*
X-25871Y-4399D01*
X-30059Y-211D01*
Y3573D01*
X-29557Y4075D01*
X-13248D01*
Y-6831D01*
D02*
G37*
G36*
X-10362Y-11124D02*
X-10479Y-11714D01*
X-10762Y-11831D01*
X-11233Y-12302D01*
X-11488Y-12917D01*
Y-13582D01*
X-11233Y-14198D01*
X-10762Y-14668D01*
X-10147Y-14923D01*
X-9482D01*
X-8867Y-14668D01*
X-8396Y-14198D01*
X-8234Y-13805D01*
X-7966Y-13623D01*
X-7594Y-13712D01*
X-7446Y-14217D01*
X-9281Y-16052D01*
X-15142D01*
X-15547Y-16133D01*
X-15890Y-16362D01*
X-22586Y-23058D01*
X-23046Y-22812D01*
X-22973Y-22441D01*
Y-14173D01*
X-23112Y-13473D01*
X-23509Y-12879D01*
X-23548Y-12839D01*
X-23295Y-12386D01*
X-22905D01*
X-22716Y-12348D01*
X-22458Y-12560D01*
X-22204Y-13174D01*
X-21733Y-13645D01*
X-21118Y-13900D01*
X-20452D01*
X-19837Y-13645D01*
X-19367Y-13174D01*
X-19112Y-12560D01*
Y-11894D01*
X-19367Y-11279D01*
X-19654Y-10992D01*
X-19447Y-10492D01*
X-10994D01*
X-10362Y-11124D01*
D02*
G37*
G36*
X25729Y-15992D02*
X25868Y-16692D01*
X26265Y-17286D01*
X29321Y-20342D01*
X29223Y-20833D01*
X29121Y-20875D01*
X28650Y-21346D01*
X28396Y-21960D01*
Y-22626D01*
X28650Y-23241D01*
X29121Y-23712D01*
X29361Y-23811D01*
X29261Y-24311D01*
X29049D01*
X28434Y-24566D01*
X27964Y-25036D01*
X27709Y-25651D01*
Y-26317D01*
X27964Y-26932D01*
X28434Y-27403D01*
X29049Y-27657D01*
X29715D01*
X30330Y-27403D01*
X30801Y-26932D01*
X31055Y-26317D01*
Y-25651D01*
X30801Y-25036D01*
X30330Y-24566D01*
X30090Y-24467D01*
X30190Y-23967D01*
X30402D01*
X31017Y-23712D01*
X31487Y-23241D01*
X31530Y-23139D01*
X32020Y-23042D01*
X34315Y-25337D01*
Y-29721D01*
X33815Y-29993D01*
X33404Y-29823D01*
X32738D01*
X32123Y-30078D01*
X31652Y-30548D01*
X31398Y-31163D01*
Y-31829D01*
X31652Y-32444D01*
X32123Y-32915D01*
X32738Y-33169D01*
X33404D01*
X33537Y-33114D01*
X33995Y-33396D01*
X33993Y-33400D01*
X33573Y-33760D01*
X33132D01*
X32517Y-34015D01*
X32046Y-34486D01*
X31791Y-35100D01*
Y-35766D01*
X31993Y-36252D01*
X31764Y-36752D01*
X30367D01*
X21454Y-27839D01*
X20860Y-27443D01*
X20159Y-27303D01*
X14380D01*
X8878Y-21801D01*
X9077Y-21431D01*
X9142Y-21358D01*
X9782D01*
X10397Y-21103D01*
X10827Y-20673D01*
X11257Y-21103D01*
X11872Y-21358D01*
X12538D01*
X13152Y-21103D01*
X13583Y-20673D01*
X14013Y-21103D01*
X14628Y-21358D01*
X15293D01*
X15908Y-21103D01*
X16379Y-20633D01*
X16634Y-20018D01*
Y-19352D01*
X16379Y-18737D01*
X15908Y-18267D01*
X15293Y-18012D01*
X14628D01*
X14013Y-18267D01*
X13583Y-18697D01*
X13152Y-18267D01*
X12538Y-18012D01*
X11872D01*
X11257Y-18267D01*
X10827Y-18697D01*
X10397Y-18267D01*
X9782Y-18012D01*
X9116D01*
X8630Y-18213D01*
X8130Y-17985D01*
Y-13642D01*
X17414D01*
X17691Y-14057D01*
X17618Y-14234D01*
Y-14900D01*
X17873Y-15515D01*
X18343Y-15985D01*
X18959Y-16240D01*
X19624D01*
X20239Y-15985D01*
X20710Y-15515D01*
X20965Y-14900D01*
Y-14234D01*
X20891Y-14057D01*
X21169Y-13642D01*
X25729D01*
Y-15992D01*
D02*
G37*
G36*
X-31594Y-12421D02*
Y-12931D01*
X-31340Y-13546D01*
X-30869Y-14017D01*
X-30254Y-14272D01*
X-29588D01*
X-28973Y-14017D01*
X-28727Y-13770D01*
X-28460Y-13796D01*
X-27903Y-14353D01*
X-27309Y-14750D01*
X-26692Y-14873D01*
X-26634Y-14931D01*
Y-19482D01*
X-27134Y-19816D01*
X-27256Y-19766D01*
X-27922D01*
X-28536Y-20020D01*
X-29007Y-20491D01*
X-29262Y-21106D01*
Y-21772D01*
X-29007Y-22387D01*
X-28536Y-22857D01*
X-27922Y-23112D01*
X-27256D01*
X-27029Y-23018D01*
X-26494Y-23141D01*
X-26098Y-23735D01*
X-25504Y-24132D01*
X-24803Y-24271D01*
X-24432Y-24198D01*
X-24186Y-24658D01*
X-30504Y-30977D01*
X-31004Y-30770D01*
X-31259Y-30155D01*
X-31729Y-29684D01*
X-32344Y-29429D01*
X-33010D01*
X-33625Y-29684D01*
X-34096Y-30155D01*
X-34350Y-30770D01*
Y-31435D01*
X-34096Y-32050D01*
X-33625Y-32521D01*
X-33010Y-32776D01*
X-32803Y-33276D01*
X-44055Y-44528D01*
X-44284Y-44871D01*
X-44365Y-45276D01*
Y-50814D01*
X-45646Y-52096D01*
X-45858Y-51973D01*
X-46063Y-51805D01*
Y-50507D01*
X-46412Y-49205D01*
X-47086Y-48038D01*
X-48039Y-47085D01*
X-49206Y-46412D01*
X-49746Y-46267D01*
X-49781Y-45740D01*
X-49328Y-45552D01*
X-48857Y-45082D01*
X-48602Y-44467D01*
Y-43801D01*
X-48857Y-43186D01*
X-49328Y-42715D01*
X-49943Y-42461D01*
X-50608D01*
X-51223Y-42715D01*
X-51384Y-42876D01*
X-51702Y-43179D01*
X-52038Y-42876D01*
X-52190Y-42724D01*
X-52313Y-42673D01*
X-52411Y-42183D01*
X-47103Y-36876D01*
X-46819Y-36450D01*
X-46719Y-35947D01*
Y-23622D01*
X-46819Y-23120D01*
X-47103Y-22694D01*
X-52701Y-17096D01*
X-52504Y-16586D01*
X-52005Y-16379D01*
X-51818Y-16192D01*
X-51450Y-15973D01*
X-51164Y-16192D01*
X-50937Y-16419D01*
X-50322Y-16673D01*
X-50061D01*
X-49638Y-16902D01*
X-49619Y-17135D01*
Y-17578D01*
X-49364Y-18193D01*
X-48893Y-18663D01*
X-48278Y-18918D01*
X-47613D01*
X-46998Y-18663D01*
X-46527Y-18193D01*
X-46273Y-17578D01*
Y-17067D01*
X-42861Y-13656D01*
X-35924D01*
X-35717Y-14156D01*
X-35769Y-14208D01*
X-36024Y-14823D01*
Y-15488D01*
X-35769Y-16103D01*
X-35298Y-16574D01*
X-34683Y-16829D01*
X-34018D01*
X-33403Y-16574D01*
X-32932Y-16103D01*
X-32677Y-15488D01*
Y-14823D01*
X-32932Y-14208D01*
X-33213Y-13926D01*
X-32833Y-13546D01*
X-32579Y-12931D01*
Y-12266D01*
X-32665Y-12058D01*
X-32241Y-11775D01*
X-31594Y-12421D01*
D02*
G37*
G36*
X4469Y-19981D02*
X2992D01*
X2292Y-20120D01*
X1698Y-20517D01*
X-975Y-23190D01*
X-1372Y-23784D01*
X-1512Y-24484D01*
Y-27725D01*
X-1549Y-27770D01*
X-2087D01*
X-2702Y-28025D01*
X-3173Y-28496D01*
X-3354Y-28532D01*
X-3383Y-28503D01*
X-3998Y-28248D01*
X-4663D01*
X-4826Y-28315D01*
X-5241Y-28037D01*
Y-24604D01*
X-4741Y-24396D01*
X-4491Y-24647D01*
X-3876Y-24902D01*
X-3210D01*
X-2596Y-24647D01*
X-2125Y-24176D01*
X-1870Y-23561D01*
Y-23051D01*
X354Y-20827D01*
X583Y-20483D01*
X664Y-20079D01*
Y-15748D01*
X583Y-15343D01*
X354Y-15000D01*
X-543Y-14103D01*
X-351Y-13642D01*
X4469D01*
Y-19981D01*
D02*
G37*
G36*
X-2702Y-30862D02*
X-2087Y-31117D01*
X-1437D01*
Y-34343D01*
X-1853Y-34620D01*
X-2029Y-34547D01*
X-2695D01*
X-3310Y-34802D01*
X-3781Y-35273D01*
X-4035Y-35888D01*
Y-36553D01*
X-3781Y-37168D01*
X-3310Y-37639D01*
X-2695Y-37894D01*
X-2347D01*
X-2224Y-38044D01*
Y-38851D01*
X-2724Y-39079D01*
X-3210Y-38878D01*
X-3876D01*
X-4491Y-39133D01*
X-4962Y-39603D01*
X-5217Y-40218D01*
Y-40846D01*
X-5845D01*
X-6460Y-41101D01*
X-6930Y-41572D01*
X-7185Y-42187D01*
Y-42853D01*
X-6977Y-43354D01*
X-7108Y-43760D01*
X-7197Y-43908D01*
X-7551Y-43978D01*
X-8145Y-44375D01*
X-8500Y-44906D01*
X-8557Y-44974D01*
X-9090Y-45161D01*
X-9426Y-45022D01*
X-10092D01*
X-10707Y-45277D01*
X-11178Y-45747D01*
X-11712Y-45731D01*
X-12099Y-45571D01*
X-12765D01*
X-13379Y-45826D01*
X-13850Y-46296D01*
X-14413Y-46348D01*
X-14688Y-46234D01*
X-15291D01*
X-15418Y-46070D01*
X-15536Y-45772D01*
X-5551Y-35787D01*
X-5322Y-35444D01*
X-5241Y-35039D01*
Y-31805D01*
X-4826Y-31527D01*
X-4663Y-31594D01*
X-3998D01*
X-3383Y-31340D01*
X-2912Y-30869D01*
X-2731Y-30833D01*
X-2702Y-30862D01*
D02*
G37*
G36*
X12328Y-30428D02*
X12328Y-30428D01*
X12922Y-30825D01*
X13622Y-30964D01*
X19401D01*
X28314Y-39877D01*
X28908Y-40274D01*
X29608Y-40413D01*
X29608Y-40413D01*
X32084D01*
X32183Y-40913D01*
X31729Y-41101D01*
X31259Y-41572D01*
X31004Y-42187D01*
Y-42852D01*
X31259Y-43467D01*
X31729Y-43938D01*
X32344Y-44193D01*
X33010D01*
X33625Y-43938D01*
X34096Y-43467D01*
X34350Y-42852D01*
Y-42187D01*
X34096Y-41572D01*
X33625Y-41101D01*
X33171Y-40913D01*
X33270Y-40413D01*
X35082D01*
Y-43367D01*
X35222Y-44067D01*
X35618Y-44661D01*
X36385Y-45428D01*
X36979Y-45825D01*
X37680Y-45964D01*
X38380Y-45825D01*
X38974Y-45428D01*
X39371Y-44834D01*
X39510Y-44134D01*
X39371Y-43433D01*
X38974Y-42840D01*
X38743Y-42609D01*
Y-39732D01*
X39243Y-39525D01*
X41790Y-42071D01*
Y-46413D01*
X40844Y-47359D01*
X40119D01*
X39604Y-47146D01*
X38939D01*
X38324Y-47400D01*
X37853Y-47871D01*
X37598Y-48486D01*
Y-49152D01*
X37853Y-49767D01*
X38324Y-50237D01*
X38939Y-50492D01*
X39604D01*
X40220Y-50237D01*
X40473Y-49984D01*
X41388D01*
X41890Y-49884D01*
X42170Y-49697D01*
X42748Y-49785D01*
X42786Y-49876D01*
X43256Y-50347D01*
X43871Y-50602D01*
X44537D01*
X45152Y-50347D01*
X45623Y-49876D01*
X45784Y-49485D01*
X45823Y-49471D01*
X46239Y-49850D01*
X46063Y-50507D01*
Y-51840D01*
X45982Y-51916D01*
X45633Y-52118D01*
X45524Y-52008D01*
X45180Y-51779D01*
X44776Y-51698D01*
X36265D01*
X25157Y-40591D01*
X24814Y-40361D01*
X24409Y-40281D01*
X5639D01*
X5279Y-39920D01*
X4663Y-39665D01*
X4382D01*
X4115Y-39165D01*
X4121Y-39156D01*
X4202Y-38751D01*
Y-37068D01*
X4563Y-36707D01*
X4817Y-36092D01*
Y-35427D01*
X4563Y-34811D01*
X4092Y-34341D01*
X3477Y-34086D01*
X2811D01*
X2640Y-34157D01*
X2224Y-33879D01*
Y-31844D01*
X2618Y-31255D01*
X2757Y-30554D01*
Y-29408D01*
X3022Y-29213D01*
X3257Y-29164D01*
X3335Y-29241D01*
Y-29859D01*
X3590Y-30474D01*
X4012Y-30896D01*
X3673Y-31235D01*
X3419Y-31850D01*
Y-32515D01*
X3673Y-33130D01*
X4144Y-33601D01*
X4759Y-33856D01*
X5425D01*
X6040Y-33601D01*
X6510Y-33130D01*
X6765Y-32515D01*
Y-31850D01*
X6510Y-31235D01*
X6088Y-30813D01*
X6427Y-30474D01*
X6682Y-29859D01*
Y-29194D01*
X6427Y-28579D01*
X5956Y-28108D01*
X5479Y-27910D01*
X5639Y-27522D01*
Y-26856D01*
X5385Y-26241D01*
X4914Y-25771D01*
X4299Y-25516D01*
X3633D01*
X3018Y-25771D01*
X2649Y-26140D01*
X2176Y-26004D01*
X2149Y-25986D01*
Y-25242D01*
X3750Y-23642D01*
X5541D01*
X12328Y-30428D01*
D02*
G37*
G36*
X-11858Y-18630D02*
X-25640Y-32412D01*
X-25869Y-32755D01*
X-25950Y-33160D01*
Y-45320D01*
X-28117Y-47487D01*
X-28607Y-47390D01*
X-28656Y-47273D01*
X-29126Y-46802D01*
X-29741Y-46547D01*
X-30407D01*
X-31007Y-46796D01*
X-31066Y-46769D01*
X-31424Y-46497D01*
X-31230Y-46027D01*
Y-45362D01*
X-31484Y-44747D01*
X-31955Y-44276D01*
X-32570Y-44021D01*
X-33236D01*
X-33851Y-44276D01*
X-34321Y-44747D01*
X-34576Y-45362D01*
Y-46027D01*
X-34321Y-46643D01*
X-33851Y-47113D01*
X-33236Y-47368D01*
X-32570D01*
X-31970Y-47120D01*
X-31911Y-47146D01*
X-31553Y-47418D01*
X-31747Y-47888D01*
Y-48553D01*
X-31493Y-49168D01*
X-31022Y-49639D01*
X-30905Y-49687D01*
X-30808Y-50178D01*
X-40202Y-59572D01*
X-45247D01*
X-45607Y-59211D01*
X-46222Y-58957D01*
X-46888D01*
X-47503Y-59211D01*
X-47974Y-59682D01*
X-48228Y-60297D01*
Y-60963D01*
X-48033Y-61434D01*
X-48270Y-61934D01*
X-49368D01*
X-49605Y-61434D01*
X-49409Y-60963D01*
Y-60297D01*
X-49664Y-59682D01*
X-50018Y-59328D01*
X-49852Y-58828D01*
X-49826D01*
X-49421Y-58748D01*
X-49078Y-58519D01*
X-42559Y-52000D01*
X-42330Y-51657D01*
X-42249Y-51252D01*
Y-45714D01*
X-33941Y-37405D01*
X-33465Y-37636D01*
Y-38128D01*
X-33210Y-38743D01*
X-33055Y-38898D01*
X-33173Y-39487D01*
X-33184Y-39492D01*
X-33654Y-39963D01*
X-33909Y-40578D01*
Y-41243D01*
X-33654Y-41858D01*
X-33184Y-42329D01*
X-32569Y-42584D01*
X-31903D01*
X-31288Y-42329D01*
X-30817Y-41858D01*
X-30563Y-41243D01*
Y-40578D01*
X-30817Y-39963D01*
X-30972Y-39808D01*
X-30855Y-39218D01*
X-30843Y-39214D01*
X-30373Y-38743D01*
X-30118Y-38128D01*
Y-37462D01*
X-30373Y-36847D01*
X-30843Y-36377D01*
X-31459Y-36122D01*
X-31951D01*
X-32182Y-35646D01*
X-14704Y-18168D01*
X-12049D01*
X-11858Y-18630D01*
D02*
G37*
G36*
X1061Y-44289D02*
X1350Y-44436D01*
Y-45383D01*
X1430Y-45788D01*
X1660Y-46131D01*
X3566Y-48037D01*
X3580Y-48047D01*
X3601Y-48265D01*
X3347Y-48880D01*
Y-49545D01*
X3601Y-50160D01*
X4072Y-50631D01*
X4687Y-50886D01*
X5197D01*
X6025Y-51713D01*
X5942Y-52338D01*
X5617Y-52526D01*
X5188Y-52955D01*
X4995Y-53085D01*
X4536Y-52980D01*
X4253Y-52696D01*
X3602Y-52320D01*
X2876Y-52126D01*
X2124D01*
X1398Y-52320D01*
X747Y-52696D01*
X308Y-53136D01*
X0Y-53190D01*
X-308Y-53136D01*
X-747Y-52696D01*
X-1398Y-52320D01*
X-2124Y-52126D01*
X-2876D01*
X-3602Y-52320D01*
X-4253Y-52696D01*
X-4536Y-52980D01*
X-4995Y-53085D01*
X-5188Y-52955D01*
X-5617Y-52526D01*
X-6316Y-52122D01*
X-7000Y-51939D01*
Y-54980D01*
X-7500D01*
Y-55480D01*
X-10541D01*
X-10358Y-56164D01*
X-9954Y-56863D01*
X-9525Y-57292D01*
X-9395Y-57486D01*
X-9500Y-57944D01*
X-9784Y-58228D01*
X-10160Y-58879D01*
X-10354Y-59605D01*
Y-60356D01*
X-10160Y-61082D01*
X-9784Y-61733D01*
X-9253Y-62264D01*
X-8602Y-62640D01*
X-7876Y-62835D01*
X-7124D01*
X-6398Y-62640D01*
X-5747Y-62264D01*
X-5308Y-61825D01*
X-5000Y-61771D01*
X-4692Y-61825D01*
X-4253Y-62264D01*
X-3602Y-62640D01*
X-2876Y-62835D01*
X-2124D01*
X-1398Y-62640D01*
X-747Y-62264D01*
X-308Y-61825D01*
X0Y-61771D01*
X308Y-61825D01*
X747Y-62264D01*
X1398Y-62640D01*
X2124Y-62835D01*
X2876D01*
X3602Y-62640D01*
X4253Y-62264D01*
X4692Y-61825D01*
X5000Y-61771D01*
X5308Y-61825D01*
X5747Y-62264D01*
X6398Y-62640D01*
X7124Y-62835D01*
X7876D01*
X8602Y-62640D01*
X9253Y-62264D01*
X9784Y-61733D01*
X10160Y-61082D01*
X10354Y-60356D01*
Y-59605D01*
X10160Y-58879D01*
X9784Y-58228D01*
X9500Y-57944D01*
X9395Y-57486D01*
X9525Y-57292D01*
X9954Y-56863D01*
X10358Y-56164D01*
X10541Y-55480D01*
X7500D01*
Y-54480D01*
X10541D01*
X10358Y-53796D01*
X9975Y-53132D01*
X10044Y-52871D01*
X10143Y-52632D01*
X27908D01*
X34040Y-58764D01*
X34383Y-58993D01*
X34787Y-59074D01*
X43503D01*
X44882Y-60453D01*
Y-60963D01*
X45137Y-61578D01*
X45607Y-62048D01*
X46222Y-62303D01*
X46888D01*
X47503Y-62048D01*
X47974Y-61578D01*
X48228Y-60963D01*
Y-60297D01*
X47974Y-59682D01*
X47503Y-59211D01*
X46888Y-58957D01*
X46378D01*
X45304Y-57883D01*
X45366Y-57571D01*
X45836Y-57100D01*
X46091Y-56485D01*
Y-56274D01*
X46591Y-56067D01*
X49540Y-59016D01*
X49590Y-59049D01*
X49672Y-59674D01*
X49664Y-59682D01*
X49409Y-60297D01*
Y-60963D01*
X49664Y-61578D01*
X50135Y-62048D01*
X50750Y-62303D01*
X51415D01*
X52030Y-62048D01*
X52246Y-61833D01*
X53544D01*
X54046Y-61733D01*
X54472Y-61448D01*
X55013Y-60908D01*
X55602Y-61025D01*
X55668Y-61184D01*
X56139Y-61655D01*
X56754Y-61909D01*
X57419D01*
X57891Y-61714D01*
X58112Y-62164D01*
X56933Y-62845D01*
X55361Y-63496D01*
X53718Y-63936D01*
X52032Y-64158D01*
X51181D01*
X-15445Y-64158D01*
X-15631Y-63658D01*
X-15354Y-62990D01*
Y-62207D01*
X-15654Y-61483D01*
X-16208Y-60930D01*
X-16767Y-60698D01*
Y-60168D01*
X-16208Y-59936D01*
X-15654Y-59383D01*
X-15354Y-58659D01*
Y-57876D01*
X-15654Y-57153D01*
X-16208Y-56599D01*
X-16931Y-56299D01*
X-17714D01*
X-18438Y-56599D01*
X-18992Y-57153D01*
X-19291Y-57876D01*
Y-58659D01*
X-18992Y-59383D01*
X-18438Y-59936D01*
X-17879Y-60168D01*
Y-60698D01*
X-18438Y-60930D01*
X-18992Y-61483D01*
X-19291Y-62207D01*
Y-62990D01*
X-19015Y-63658D01*
X-19201Y-64158D01*
X-20957D01*
X-21143Y-63658D01*
X-20866Y-62990D01*
Y-62207D01*
X-21166Y-61483D01*
X-21720Y-60930D01*
X-22278Y-60698D01*
Y-60168D01*
X-21720Y-59937D01*
X-21166Y-59383D01*
X-20866Y-58659D01*
Y-57876D01*
X-21166Y-57153D01*
X-21720Y-56599D01*
X-22443Y-56299D01*
X-23226D01*
X-23950Y-56599D01*
X-24503Y-57153D01*
X-24803Y-57876D01*
Y-58659D01*
X-24503Y-59383D01*
X-23950Y-59937D01*
X-23391Y-60168D01*
Y-60698D01*
X-23950Y-60930D01*
X-24503Y-61483D01*
X-24803Y-62207D01*
Y-62990D01*
X-24527Y-63658D01*
X-24712Y-64158D01*
X-26469D01*
X-26655Y-63658D01*
X-26378Y-62990D01*
Y-62207D01*
X-26678Y-61483D01*
X-27231Y-60930D01*
X-27790Y-60698D01*
Y-60168D01*
X-27231Y-59936D01*
X-26678Y-59383D01*
X-26378Y-58659D01*
Y-57876D01*
X-26678Y-57153D01*
X-27231Y-56599D01*
X-27955Y-56299D01*
X-28506D01*
X-28713Y-55799D01*
X-24257Y-51344D01*
X-21546D01*
X-21141Y-51263D01*
X-20798Y-51034D01*
X-17156Y-47392D01*
X-16858Y-47510D01*
X-16694Y-47637D01*
Y-48240D01*
X-16439Y-48855D01*
X-15969Y-49326D01*
X-15354Y-49580D01*
X-14688D01*
X-14073Y-49326D01*
X-13602Y-48855D01*
X-13040Y-48803D01*
X-12765Y-48917D01*
X-12099D01*
X-11484Y-48663D01*
X-11013Y-48192D01*
X-10479Y-48208D01*
X-10092Y-48368D01*
X-9426D01*
X-8811Y-48114D01*
X-8341Y-47643D01*
X-8273Y-47479D01*
X-7654Y-47292D01*
X-7551Y-47360D01*
X-6850Y-47500D01*
X-3150D01*
X-2449Y-47360D01*
X-1855Y-46964D01*
X850Y-44259D01*
X1061Y-44289D01*
D02*
G37*
G36*
X55371Y-45416D02*
X55797Y-45701D01*
X56299Y-45801D01*
X57330D01*
X60498Y-48969D01*
Y-49705D01*
X60083Y-49982D01*
X59888Y-49902D01*
X59222D01*
X58607Y-50156D01*
X58137Y-50627D01*
X57882Y-51242D01*
Y-51696D01*
X56485Y-53092D01*
X56037Y-52834D01*
X56299Y-51855D01*
Y-50507D01*
X55950Y-49205D01*
X55277Y-48038D01*
X54324Y-47085D01*
X53157Y-46412D01*
X52505Y-46237D01*
X52356Y-45680D01*
X52600Y-45436D01*
X52854Y-44821D01*
Y-44155D01*
X52600Y-43540D01*
X52129Y-43070D01*
X51514Y-42815D01*
X50848D01*
X50233Y-43070D01*
X49763Y-43540D01*
X49508Y-44155D01*
Y-44821D01*
X49763Y-45436D01*
X50006Y-45680D01*
X49857Y-46237D01*
X49205Y-46412D01*
X48575Y-46776D01*
X48128Y-46456D01*
X48163Y-46282D01*
Y-38862D01*
X48625Y-38670D01*
X55371Y-45416D01*
D02*
G37*
G36*
X25465Y-43890D02*
X25258Y-44390D01*
X25100D01*
X24485Y-44644D01*
X24014Y-45115D01*
X23760Y-45730D01*
Y-46396D01*
X24014Y-47011D01*
X24485Y-47481D01*
X25100Y-47736D01*
X25766D01*
X26381Y-47481D01*
X26851Y-47011D01*
X27106Y-46396D01*
Y-46238D01*
X27606Y-46031D01*
X35079Y-53504D01*
X35422Y-53733D01*
X35827Y-53814D01*
X36572D01*
X36752Y-54314D01*
X36516Y-54884D01*
Y-55549D01*
X36770Y-56164D01*
X37064Y-56458D01*
X36857Y-56958D01*
X35226D01*
X29094Y-50827D01*
X28751Y-50598D01*
X28346Y-50517D01*
X16282D01*
X16045Y-50017D01*
X16240Y-49545D01*
Y-48880D01*
X15985Y-48265D01*
X15515Y-47794D01*
X14900Y-47539D01*
X14234D01*
X13619Y-47794D01*
X13174Y-48240D01*
X12967Y-48033D01*
X12352Y-47778D01*
X11842D01*
X10605Y-46541D01*
X10262Y-46312D01*
X9857Y-46232D01*
X9204D01*
X8997Y-45732D01*
X9292Y-45436D01*
X9547Y-44821D01*
Y-44155D01*
X9292Y-43540D01*
X8822Y-43070D01*
X8403Y-42896D01*
X8503Y-42396D01*
X23971D01*
X25465Y-43890D01*
D02*
G37*
G36*
X-9775Y-20013D02*
X-9505Y-20432D01*
X-9547Y-20533D01*
Y-21199D01*
X-9292Y-21814D01*
X-8822Y-22285D01*
X-8207Y-22539D01*
X-7808D01*
X-7447Y-22776D01*
X-7357Y-23001D01*
Y-34601D01*
X-21984Y-49228D01*
X-24695D01*
X-25100Y-49309D01*
X-25443Y-49538D01*
X-37840Y-61934D01*
X-38949D01*
X-39101Y-61434D01*
X-39016Y-61378D01*
X-24144Y-46506D01*
X-23915Y-46163D01*
X-23834Y-45758D01*
Y-33598D01*
X-10223Y-19986D01*
X-9775Y-20013D01*
D02*
G37*
%LPC*%
G36*
X56238Y42618D02*
X55573D01*
X54958Y42364D01*
X54487Y41893D01*
X54232Y41278D01*
Y40612D01*
X54487Y39997D01*
X54958Y39527D01*
X55573Y39272D01*
X56238D01*
X56853Y39527D01*
X57324Y39997D01*
X57579Y40612D01*
Y41278D01*
X57324Y41893D01*
X56853Y42364D01*
X56238Y42618D01*
D02*
G37*
G36*
X33305Y40256D02*
X32640D01*
X32025Y40001D01*
X31554Y39530D01*
X31299Y38915D01*
Y38250D01*
X31554Y37635D01*
X32025Y37164D01*
X32640Y36909D01*
X33305D01*
X33920Y37164D01*
X34391Y37635D01*
X34646Y38250D01*
Y38915D01*
X34391Y39530D01*
X33920Y40001D01*
X33305Y40256D01*
D02*
G37*
G36*
X59388Y39468D02*
X58722D01*
X58107Y39214D01*
X57637Y38743D01*
X57382Y38128D01*
Y37462D01*
X57637Y36847D01*
X58107Y36377D01*
X58722Y36122D01*
X59388D01*
X60003Y36377D01*
X60474Y36847D01*
X60728Y37462D01*
Y38128D01*
X60474Y38743D01*
X60003Y39214D01*
X59388Y39468D01*
D02*
G37*
G36*
X42065Y39075D02*
X41399D01*
X40784Y38820D01*
X40314Y38349D01*
X40059Y37734D01*
Y37069D01*
X40314Y36454D01*
X40784Y35983D01*
X41399Y35728D01*
X42065D01*
X42680Y35983D01*
X43151Y36454D01*
X43406Y37069D01*
Y37734D01*
X43151Y38349D01*
X42680Y38820D01*
X42065Y39075D01*
D02*
G37*
G36*
X56238Y36319D02*
X55573D01*
X54958Y36064D01*
X54487Y35594D01*
X54232Y34979D01*
Y34313D01*
X54487Y33698D01*
X54958Y33227D01*
X55573Y32972D01*
X56238D01*
X56853Y33227D01*
X57324Y33698D01*
X57579Y34313D01*
Y34979D01*
X57324Y35594D01*
X56853Y36064D01*
X56238Y36319D01*
D02*
G37*
G36*
X44230Y33374D02*
X43565D01*
X42950Y33119D01*
X42479Y32649D01*
X42224Y32034D01*
Y31368D01*
X42479Y30753D01*
X42950Y30282D01*
X43565Y30028D01*
X44230D01*
X44845Y30282D01*
X45316Y30753D01*
X45571Y31368D01*
Y32034D01*
X45316Y32649D01*
X44845Y33119D01*
X44230Y33374D01*
D02*
G37*
G36*
X33010Y32776D02*
X32344D01*
X31729Y32521D01*
X31259Y32050D01*
X31004Y31435D01*
Y30770D01*
X31259Y30155D01*
X31729Y29684D01*
X32344Y29429D01*
X33010D01*
X33625Y29684D01*
X34096Y30155D01*
X34350Y30770D01*
Y31435D01*
X34096Y32050D01*
X33625Y32521D01*
X33010Y32776D01*
D02*
G37*
G36*
X49545Y31594D02*
X48880D01*
X48265Y31340D01*
X47794Y30869D01*
X47539Y30254D01*
Y29588D01*
X47794Y28973D01*
X48265Y28503D01*
X48880Y28248D01*
X49545D01*
X50160Y28503D01*
X50569Y28911D01*
X50907Y28904D01*
X51121Y28850D01*
X51286Y28453D01*
X51756Y27982D01*
X52371Y27727D01*
X53037D01*
X53652Y27982D01*
X54123Y28453D01*
X54377Y29068D01*
Y29733D01*
X54123Y30348D01*
X53652Y30819D01*
X53037Y31074D01*
X52371D01*
X51756Y30819D01*
X51348Y30410D01*
X51010Y30418D01*
X50796Y30472D01*
X50631Y30869D01*
X50160Y31340D01*
X49545Y31594D01*
D02*
G37*
G36*
X56238Y28051D02*
X55573D01*
X54958Y27797D01*
X54487Y27326D01*
X54232Y26711D01*
Y26045D01*
X54487Y25430D01*
X54958Y24960D01*
X55573Y24705D01*
X56238D01*
X56853Y24960D01*
X57324Y25430D01*
X57579Y26045D01*
Y26711D01*
X57324Y27326D01*
X56853Y27797D01*
X56238Y28051D01*
D02*
G37*
G36*
X59388Y24902D02*
X58722D01*
X58107Y24647D01*
X57637Y24176D01*
X57382Y23561D01*
Y22896D01*
X57637Y22281D01*
X58107Y21810D01*
X58722Y21555D01*
X59388D01*
X60003Y21810D01*
X60474Y22281D01*
X60728Y22896D01*
Y23561D01*
X60474Y24176D01*
X60003Y24647D01*
X59388Y24902D01*
D02*
G37*
G36*
X56238Y21752D02*
X55573D01*
X54958Y21497D01*
X54487Y21026D01*
X54232Y20412D01*
Y19746D01*
X54487Y19131D01*
X54958Y18660D01*
X55573Y18406D01*
X56238D01*
X56853Y18660D01*
X57324Y19131D01*
X57579Y19746D01*
Y20412D01*
X57324Y21026D01*
X56853Y21497D01*
X56238Y21752D01*
D02*
G37*
G36*
X59388Y-6988D02*
X58722D01*
X58107Y-7243D01*
X57637Y-7714D01*
X57382Y-8329D01*
Y-8994D01*
X57637Y-9609D01*
X58107Y-10080D01*
X58722Y-10335D01*
X59388D01*
X60003Y-10080D01*
X60474Y-9609D01*
X60728Y-8994D01*
Y-8329D01*
X60474Y-7714D01*
X60003Y-7243D01*
X59388Y-6988D01*
D02*
G37*
G36*
Y-21555D02*
X58722D01*
X58107Y-21810D01*
X57637Y-22281D01*
X57382Y-22896D01*
Y-23561D01*
X57637Y-24176D01*
X58107Y-24647D01*
X58722Y-24902D01*
X59388D01*
X60003Y-24647D01*
X60474Y-24176D01*
X60728Y-23561D01*
Y-22896D01*
X60474Y-22281D01*
X60003Y-21810D01*
X59388Y-21555D01*
D02*
G37*
G36*
X56238Y-24705D02*
X55573D01*
X54958Y-24959D01*
X54487Y-25430D01*
X54232Y-26045D01*
Y-26711D01*
X54487Y-27326D01*
X54958Y-27796D01*
X55573Y-28051D01*
X56238D01*
X56853Y-27796D01*
X57324Y-27326D01*
X57579Y-26711D01*
Y-26045D01*
X57324Y-25430D01*
X56853Y-24959D01*
X56238Y-24705D01*
D02*
G37*
G36*
Y-32972D02*
X55573D01*
X54958Y-33227D01*
X54487Y-33698D01*
X54232Y-34313D01*
Y-34978D01*
X54487Y-35593D01*
X54958Y-36064D01*
X55573Y-36319D01*
X56238D01*
X56853Y-36064D01*
X57324Y-35593D01*
X57579Y-34978D01*
Y-34313D01*
X57324Y-33698D01*
X56853Y-33227D01*
X56238Y-32972D01*
D02*
G37*
G36*
X59388Y-36122D02*
X58722D01*
X58107Y-36377D01*
X57637Y-36847D01*
X57382Y-37462D01*
Y-38128D01*
X57637Y-38743D01*
X58107Y-39214D01*
X58722Y-39468D01*
X59388D01*
X60003Y-39214D01*
X60474Y-38743D01*
X60728Y-38128D01*
Y-37462D01*
X60474Y-36847D01*
X60003Y-36377D01*
X59388Y-36122D01*
D02*
G37*
G36*
X13719Y62992D02*
X13053D01*
X12438Y62738D01*
X11967Y62267D01*
X11712Y61652D01*
Y60986D01*
X11967Y60371D01*
X12438Y59900D01*
X13053Y59646D01*
X13719D01*
X14333Y59900D01*
X14804Y60371D01*
X15059Y60986D01*
Y61652D01*
X14804Y62267D01*
X14333Y62738D01*
X13719Y62992D01*
D02*
G37*
G36*
X-13053Y62992D02*
X-13719D01*
X-14334Y62737D01*
X-14805Y62267D01*
X-15059Y61652D01*
Y60986D01*
X-14805Y60371D01*
X-14334Y59900D01*
X-13719Y59646D01*
X-13053D01*
X-12438Y59900D01*
X-11968Y60371D01*
X-11713Y60986D01*
Y61652D01*
X-11968Y62267D01*
X-12438Y62737D01*
X-13053Y62992D01*
D02*
G37*
G36*
X21593Y61811D02*
X20927D01*
X20312Y61556D01*
X19841Y61086D01*
X19587Y60471D01*
Y59805D01*
X19841Y59190D01*
X20312Y58719D01*
X20927Y58465D01*
X21593D01*
X22208Y58719D01*
X22678Y59190D01*
X22933Y59805D01*
Y60471D01*
X22678Y61086D01*
X22208Y61556D01*
X21593Y61811D01*
D02*
G37*
G36*
X-20927Y61811D02*
X-21593D01*
X-22208Y61556D01*
X-22678Y61086D01*
X-22933Y60471D01*
Y59805D01*
X-22678Y59190D01*
X-22208Y58719D01*
X-21593Y58464D01*
X-20927D01*
X-20312Y58719D01*
X-19841Y59190D01*
X-19587Y59805D01*
Y60471D01*
X-19841Y61086D01*
X-20312Y61556D01*
X-20927Y61811D01*
D02*
G37*
G36*
X-28801Y59843D02*
X-29467D01*
X-30082Y59588D01*
X-30552Y59117D01*
X-30807Y58502D01*
Y57837D01*
X-30552Y57222D01*
X-30082Y56751D01*
X-29467Y56496D01*
X-28801D01*
X-28186Y56751D01*
X-27715Y57222D01*
X-27461Y57837D01*
Y58502D01*
X-27715Y59117D01*
X-28186Y59588D01*
X-28801Y59843D01*
D02*
G37*
G36*
X13719Y58465D02*
X13053D01*
X12438Y58210D01*
X11967Y57739D01*
X11712Y57124D01*
Y56459D01*
X11967Y55844D01*
X12438Y55373D01*
X13053Y55118D01*
X13719D01*
X14333Y55373D01*
X14804Y55844D01*
X15059Y56459D01*
Y57124D01*
X14804Y57739D01*
X14333Y58210D01*
X13719Y58465D01*
D02*
G37*
G36*
X-55573Y42618D02*
X-56238D01*
X-56853Y42364D01*
X-57324Y41893D01*
X-57579Y41278D01*
Y40612D01*
X-57324Y39997D01*
X-56853Y39527D01*
X-56238Y39272D01*
X-55573D01*
X-54958Y39527D01*
X-54487Y39997D01*
X-54232Y40612D01*
Y41278D01*
X-54487Y41893D01*
X-54958Y42364D01*
X-55573Y42618D01*
D02*
G37*
G36*
X-58722Y39468D02*
X-59388D01*
X-60003Y39214D01*
X-60474Y38743D01*
X-60728Y38128D01*
Y37462D01*
X-60474Y36847D01*
X-60003Y36377D01*
X-59388Y36122D01*
X-58722D01*
X-58107Y36377D01*
X-57637Y36847D01*
X-57382Y37462D01*
Y38128D01*
X-57637Y38743D01*
X-58107Y39214D01*
X-58722Y39468D01*
D02*
G37*
G36*
X-4221Y44794D02*
X-4886D01*
X-5501Y44539D01*
X-5972Y44068D01*
X-6227Y43453D01*
Y42788D01*
X-5972Y42173D01*
X-5501Y41702D01*
X-4886Y41447D01*
X-4221D01*
X-3606Y41702D01*
X-3135Y42173D01*
X-2880Y42788D01*
Y43453D01*
X-3135Y44068D01*
X-3606Y44539D01*
X-4221Y44794D01*
D02*
G37*
G36*
X-32344Y44587D02*
X-33010D01*
X-33625Y44332D01*
X-34096Y43861D01*
X-34350Y43246D01*
Y42581D01*
X-34096Y41966D01*
X-33625Y41495D01*
X-33010Y41240D01*
X-32344D01*
X-31729Y41495D01*
X-31259Y41966D01*
X-31004Y42581D01*
Y43246D01*
X-31259Y43861D01*
X-31729Y44332D01*
X-32344Y44587D01*
D02*
G37*
G36*
X34585Y18209D02*
X33919D01*
X33304Y17954D01*
X32833Y17483D01*
X32579Y16868D01*
Y16203D01*
X32833Y15588D01*
X33304Y15117D01*
X33919Y14862D01*
X34585D01*
X35200Y15117D01*
X35671Y15588D01*
X35925Y16203D01*
Y16868D01*
X35671Y17483D01*
X35200Y17954D01*
X34585Y18209D01*
D02*
G37*
G36*
X-55573Y7185D02*
X-56238D01*
X-56853Y6930D01*
X-57324Y6460D01*
X-57579Y5845D01*
Y5179D01*
X-57324Y4564D01*
X-56853Y4093D01*
X-56238Y3839D01*
X-55573D01*
X-54958Y4093D01*
X-54487Y4564D01*
X-54232Y5179D01*
Y5845D01*
X-54487Y6460D01*
X-54958Y6930D01*
X-55573Y7185D01*
D02*
G37*
G36*
X-49273Y3642D02*
X-49939D01*
X-50554Y3387D01*
X-50984Y2957D01*
X-51414Y3387D01*
X-52029Y3642D01*
X-52695D01*
X-53310Y3387D01*
X-53781Y2916D01*
X-54035Y2301D01*
Y1636D01*
X-53781Y1021D01*
X-53310Y550D01*
X-52695Y295D01*
X-52029D01*
X-51414Y550D01*
X-50984Y980D01*
X-50554Y550D01*
X-49939Y295D01*
X-49273D01*
X-48658Y550D01*
X-48188Y1021D01*
X-47933Y1636D01*
Y2301D01*
X-48188Y2916D01*
X-48658Y3387D01*
X-49273Y3642D01*
D02*
G37*
G36*
X-55573Y-3839D02*
X-56238D01*
X-56853Y-4093D01*
X-57324Y-4564D01*
X-57579Y-5179D01*
Y-5845D01*
X-57324Y-6460D01*
X-56853Y-6930D01*
X-56238Y-7185D01*
X-55573D01*
X-54958Y-6930D01*
X-54487Y-6460D01*
X-54232Y-5845D01*
Y-5179D01*
X-54487Y-4564D01*
X-54958Y-4093D01*
X-55573Y-3839D01*
D02*
G37*
G36*
X-58722Y-6988D02*
X-59388D01*
X-60003Y-7243D01*
X-60474Y-7714D01*
X-60728Y-8329D01*
Y-8994D01*
X-60474Y-9609D01*
X-60003Y-10080D01*
X-59388Y-10335D01*
X-58722D01*
X-58107Y-10080D01*
X-57637Y-9609D01*
X-57382Y-8994D01*
Y-8329D01*
X-57637Y-7714D01*
X-58107Y-7243D01*
X-58722Y-6988D01*
D02*
G37*
G36*
Y-21555D02*
X-59388D01*
X-60003Y-21810D01*
X-60474Y-22281D01*
X-60728Y-22896D01*
Y-23561D01*
X-60474Y-24176D01*
X-60003Y-24647D01*
X-59388Y-24902D01*
X-58722D01*
X-58107Y-24647D01*
X-57637Y-24176D01*
X-57382Y-23561D01*
Y-22896D01*
X-57637Y-22281D01*
X-58107Y-21810D01*
X-58722Y-21555D01*
D02*
G37*
G36*
X-55573Y-24705D02*
X-56238D01*
X-56853Y-24959D01*
X-57324Y-25430D01*
X-57579Y-26045D01*
Y-26711D01*
X-57324Y-27326D01*
X-56853Y-27796D01*
X-56238Y-28051D01*
X-55573D01*
X-54958Y-27796D01*
X-54487Y-27326D01*
X-54232Y-26711D01*
Y-26045D01*
X-54487Y-25430D01*
X-54958Y-24959D01*
X-55573Y-24705D01*
D02*
G37*
G36*
Y-32776D02*
X-56238D01*
X-56853Y-33030D01*
X-57324Y-33501D01*
X-57579Y-34116D01*
Y-34782D01*
X-57324Y-35397D01*
X-56853Y-35867D01*
X-56238Y-36122D01*
X-55573D01*
X-54958Y-35867D01*
X-54487Y-35397D01*
X-54232Y-34782D01*
Y-34116D01*
X-54487Y-33501D01*
X-54958Y-33030D01*
X-55573Y-32776D01*
D02*
G37*
G36*
X-58722Y-35925D02*
X-59388D01*
X-60003Y-36180D01*
X-60474Y-36651D01*
X-60728Y-37266D01*
Y-37931D01*
X-60474Y-38546D01*
X-60003Y-39017D01*
X-59388Y-39272D01*
X-58722D01*
X-58107Y-39017D01*
X-57637Y-38546D01*
X-57382Y-37931D01*
Y-37266D01*
X-57637Y-36651D01*
X-58107Y-36180D01*
X-58722Y-35925D01*
D02*
G37*
G36*
X-30412Y-15732D02*
X-31078D01*
X-31693Y-15987D01*
X-32164Y-16458D01*
X-32418Y-17073D01*
Y-17738D01*
X-32164Y-18353D01*
X-31693Y-18824D01*
X-31494Y-18906D01*
X-31593Y-19406D01*
X-31768D01*
X-32383Y-19661D01*
X-32854Y-20132D01*
X-33108Y-20747D01*
Y-21412D01*
X-32854Y-22027D01*
X-32383Y-22498D01*
X-31768Y-22753D01*
X-31102D01*
X-30487Y-22498D01*
X-30017Y-22027D01*
X-29762Y-21412D01*
Y-20747D01*
X-30017Y-20132D01*
X-30487Y-19661D01*
X-30686Y-19579D01*
X-30587Y-19079D01*
X-30412D01*
X-29797Y-18824D01*
X-29327Y-18353D01*
X-29072Y-17738D01*
Y-17073D01*
X-29327Y-16458D01*
X-29797Y-15987D01*
X-30412Y-15732D01*
D02*
G37*
G36*
X-32478Y-24520D02*
X-33143D01*
X-33758Y-24775D01*
X-34229Y-25246D01*
X-34484Y-25861D01*
Y-26526D01*
X-34229Y-27141D01*
X-33758Y-27612D01*
X-33143Y-27867D01*
X-32478D01*
X-31863Y-27612D01*
X-31392Y-27141D01*
X-31137Y-26526D01*
Y-25861D01*
X-31392Y-25246D01*
X-31863Y-24775D01*
X-32478Y-24520D01*
D02*
G37*
G36*
X-44155Y-27461D02*
X-44821D01*
X-45436Y-27715D01*
X-45907Y-28186D01*
X-46161Y-28801D01*
Y-29467D01*
X-45907Y-30082D01*
X-45436Y-30552D01*
X-44821Y-30807D01*
X-44155D01*
X-43540Y-30552D01*
X-43070Y-30082D01*
X-42815Y-29467D01*
Y-28801D01*
X-43070Y-28186D01*
X-43540Y-27715D01*
X-44155Y-27461D01*
D02*
G37*
G36*
X-41498Y-35335D02*
X-42164D01*
X-42779Y-35589D01*
X-43249Y-36060D01*
X-43504Y-36675D01*
Y-37341D01*
X-43249Y-37956D01*
X-42779Y-38426D01*
X-42164Y-38681D01*
X-41498D01*
X-40883Y-38426D01*
X-40412Y-37956D01*
X-40157Y-37341D01*
Y-36675D01*
X-40412Y-36060D01*
X-40883Y-35589D01*
X-41498Y-35335D01*
D02*
G37*
G36*
X-8000Y-51939D02*
X-8684Y-52122D01*
X-9383Y-52526D01*
X-9954Y-53097D01*
X-10358Y-53796D01*
X-10541Y-54480D01*
X-8000D01*
Y-51939D01*
D02*
G37*
G36*
X42459Y-59744D02*
X41793D01*
X41178Y-59999D01*
X40707Y-60470D01*
X40453Y-61085D01*
Y-61750D01*
X40707Y-62365D01*
X41178Y-62836D01*
X41793Y-63090D01*
X42459D01*
X43074Y-62836D01*
X43545Y-62365D01*
X43799Y-61750D01*
Y-61085D01*
X43545Y-60470D01*
X43074Y-59999D01*
X42459Y-59744D01*
D02*
G37*
%LPD*%
D15*
X-35741Y47224D02*
X-33843Y49122D01*
X-25706Y44246D02*
X-12356D01*
X-30582Y49122D02*
X-25706Y44246D01*
X-7480Y37795D02*
X-1181Y31496D01*
Y25984D02*
Y31496D01*
X-33843Y49122D02*
X-30582D01*
X-12356Y44246D02*
X-7480Y39370D01*
X44776Y-52756D02*
X50287Y-58268D01*
X35827Y-52756D02*
X44776D01*
X24409Y-41339D02*
X35827Y-52756D01*
X4331Y-41339D02*
X24409D01*
X-49826Y-57771D02*
X-43307Y-51252D01*
Y-45276D01*
X-59173Y-51685D02*
X-53087Y-57771D01*
X-49826D01*
X-15142Y-17110D02*
X-8843D01*
X-5589Y-13856D01*
X-43307Y-45276D02*
X-15142Y-17110D01*
X-5589Y-13856D02*
X-2285D01*
X-3429Y24409D02*
X-3186Y24653D01*
X-2513D01*
X-1181Y25984D01*
X-7480Y37795D02*
Y39370D01*
X6299Y41732D02*
X7480Y42913D01*
X6299Y31179D02*
Y41732D01*
X4315Y29195D02*
X6299Y31179D01*
X6619Y17544D02*
X6863Y17300D01*
X5757Y17544D02*
X6619D01*
X4315Y18985D02*
X5757Y17544D01*
X4315Y18985D02*
Y29195D01*
X-5906Y-18898D02*
X-3543Y-16535D01*
X-10630Y-18898D02*
X-5906D01*
X-6299Y-22835D02*
X-3543Y-20079D01*
X-24892Y-33160D02*
X-10630Y-18898D01*
X-2285Y-13856D02*
X-394Y-15748D01*
X54648Y7480D02*
X58079Y10911D01*
X35102Y3150D02*
X39433Y7480D01*
X54648D01*
X36325Y1138D02*
X49327D01*
X50512Y2323D01*
X31777Y976D02*
X36164D01*
X36325Y1138D01*
X32677Y-4331D02*
X36858Y-150D01*
X52660D01*
X53945Y-1434D01*
X9857Y-47289D02*
X12019Y-49451D01*
X4314Y-47289D02*
X9857D01*
X2407Y-45383D02*
X4314Y-47289D01*
X2407Y-45383D02*
Y-39488D01*
X3144Y-38751D01*
Y-35759D01*
X-3526Y-23211D02*
X-394Y-20079D01*
Y-15748D01*
X-6299Y-35039D02*
Y-22835D01*
X30709Y5697D02*
Y5906D01*
X30315Y2438D02*
X31777Y976D01*
X30315Y5303D02*
X30709Y5697D01*
X30315Y2438D02*
Y5303D01*
X47717Y17462D02*
X53328D01*
X58079Y12711D01*
Y10911D02*
Y12711D01*
X32677Y3150D02*
X35102D01*
X53559Y-8980D02*
Y-4785D01*
X53945Y-4399D01*
Y-1434D01*
X47776Y-14763D02*
X53559Y-8980D01*
X-51276Y29639D02*
X-51067D01*
X-56806Y28551D02*
X-52364D01*
X-51276Y29639D01*
X-61228Y22176D02*
Y24129D01*
X-56806Y28551D01*
X-60031Y12864D02*
X-56806Y9638D01*
X-60031Y12864D02*
Y20979D01*
X-56806Y9638D02*
X-46722D01*
X-43966Y6882D02*
X-32958D01*
X-46722Y9638D02*
X-43966Y6882D01*
X-61228Y22176D02*
X-60031Y20979D01*
X-31685Y8155D02*
Y8264D01*
X-32958Y6882D02*
X-31685Y8155D01*
Y8264D02*
X-30709Y9240D01*
Y9449D01*
X-42151Y9055D02*
X-33858D01*
X-47755Y14660D02*
X-42151Y9055D01*
X-50000Y-5512D02*
Y-2323D01*
X-46457Y-9055D02*
X-33465D01*
X-50000Y-5512D02*
X-46457Y-9055D01*
X-47946Y-17245D02*
X-43299Y-12598D01*
X-34252D01*
X-33465Y-9055D02*
X-29921Y-12598D01*
X-37402Y-62992D02*
X-24695Y-50286D01*
X-56667Y-59868D02*
X-53543Y-62992D01*
X-37402D01*
X-24892Y-45758D02*
Y-33160D01*
X-39764Y-60630D02*
X-24892Y-45758D01*
X-46555Y-60630D02*
X-39764D01*
X-21546Y-50286D02*
X-6299Y-35039D01*
X-24695Y-50286D02*
X-21546D01*
X50287Y-58268D02*
X52806D01*
X59499Y-51575D02*
X59555D01*
X52806Y-58268D02*
X59499Y-51575D01*
X7382D02*
X28346D01*
X5020Y-49213D02*
X7382Y-51575D01*
X28346D02*
X34787Y-58016D01*
X-59839Y-51685D02*
X-59173D01*
X-59949Y-51575D02*
X-59839Y-51685D01*
X34787Y-58016D02*
X43941D01*
X46555Y-60630D01*
X-64961Y-51181D02*
X-64925Y-52164D01*
X-64820Y-53142D01*
X-64646Y-54110D01*
X-64403Y-55063D01*
X-64092Y-55997D01*
X-63715Y-56905D01*
X-63275Y-57785D01*
X-62773Y-58631D01*
X-62212Y-59439D01*
X-61595Y-60205D01*
X-60925Y-60925D01*
X-60205Y-61595D01*
X-59439Y-62212D01*
X-58631Y-62773D01*
X-57785Y-63275D01*
X-56905Y-63715D01*
X-55997Y-64092D01*
X-55063Y-64403D01*
X-54110Y-64646D01*
X-53142Y-64820D01*
X-52164Y-64925D01*
X-51181Y-64961D01*
X51181D02*
X52164Y-64925D01*
X53142Y-64820D01*
X54110Y-64646D01*
X55063Y-64403D01*
X55997Y-64092D01*
X56905Y-63715D01*
X57785Y-63275D01*
X58631Y-62773D01*
X59439Y-62212D01*
X60205Y-61595D01*
X60925Y-60925D01*
X61595Y-60205D01*
X62212Y-59439D01*
X62773Y-58631D01*
X63275Y-57785D01*
X63715Y-56905D01*
X64092Y-55997D01*
X64403Y-55063D01*
X64646Y-54110D01*
X64820Y-53142D01*
X64925Y-52164D01*
X64961Y-51181D01*
Y51181D02*
X64925Y52164D01*
X64820Y53142D01*
X64646Y54110D01*
X64403Y55063D01*
X64092Y55997D01*
X63715Y56905D01*
X63275Y57785D01*
X62773Y58631D01*
X62212Y59439D01*
X61595Y60205D01*
X60925Y60925D01*
X60205Y61595D01*
X59439Y62212D01*
X58631Y62773D01*
X57785Y63275D01*
X56905Y63715D01*
X55997Y64092D01*
X55063Y64403D01*
X54110Y64646D01*
X53142Y64820D01*
X52164Y64925D01*
X51181Y64961D01*
X-51181D02*
X-52164Y64925D01*
X-53142Y64820D01*
X-54110Y64646D01*
X-55063Y64403D01*
X-55997Y64092D01*
X-56905Y63715D01*
X-57785Y63275D01*
X-58631Y62773D01*
X-59439Y62212D01*
X-60205Y61595D01*
X-60925Y60925D01*
X-61595Y60205D01*
X-62212Y59439D01*
X-62773Y58631D01*
X-63275Y57785D01*
X-63715Y56905D01*
X-64092Y55997D01*
X-64403Y55063D01*
X-64646Y54110D01*
X-64820Y53142D01*
X-64925Y52164D01*
X-64961Y51181D01*
X-51181Y64961D02*
X51181D01*
X64961Y-51181D02*
Y51181D01*
X-51181Y-64961D02*
X51181D01*
X-64960Y-51181D02*
Y51181D01*
D16*
X42123Y54929D02*
X42709Y55515D01*
Y55701D01*
X44488Y57480D01*
X40657Y54929D02*
X42123D01*
X30070Y24318D02*
X36921D01*
X49428Y11811D01*
X55905D01*
X-41339Y54639D02*
Y54823D01*
Y54639D02*
X-40551Y53851D01*
Y38583D02*
Y53851D01*
X-31004Y25591D02*
X-29134Y27461D01*
X-31890Y38583D02*
X-29134Y35827D01*
Y27461D02*
Y35827D01*
X-55905Y20079D02*
X-44488D01*
X-33453Y31114D02*
X-32748D01*
X-32600Y31261D01*
X-44488Y20079D02*
X-33453Y31114D01*
X-40551Y38583D02*
X-31890D01*
X44204Y-48928D02*
X46850Y-46282D01*
Y-38189D01*
X39419Y-48671D02*
X41388D01*
X43102Y-46957D01*
X39272Y-48819D02*
X39419Y-48671D01*
X43102Y-46957D02*
Y-41528D01*
X38976Y-37402D02*
X43102Y-41528D01*
X41004Y-32343D02*
X46850Y-38189D01*
X-48031Y24409D02*
X-40551Y31890D01*
Y38583D01*
X-52937Y34858D02*
X-45276Y42520D01*
Y54724D01*
X38976Y-37402D02*
Y-20490D01*
X-57480Y21577D02*
Y21654D01*
X-58079Y20979D02*
X-57480Y21577D01*
X-58079Y13984D02*
Y20979D01*
Y13984D02*
X-55905Y11811D01*
X-57480Y21654D02*
X-54724Y24409D01*
X38583Y52854D02*
X40657Y54929D01*
X38583Y46948D02*
Y52854D01*
X34116Y42481D02*
X38583Y46948D01*
X46457Y-26454D02*
X53937Y-18974D01*
X46457Y-34646D02*
Y-26454D01*
Y-34646D02*
X56299Y-44488D01*
X41004Y-25925D02*
X47866Y-19063D01*
X41004Y-32343D02*
Y-25925D01*
X47866Y-19063D02*
X50105D01*
X51378Y-17495D02*
X51764Y-17109D01*
X50105Y-19063D02*
X51378Y-17790D01*
X51764Y-17109D02*
Y-16901D01*
X51378Y-17790D02*
Y-17495D01*
X38976Y-20490D02*
X51771Y-7694D01*
X-52937Y31430D02*
Y34858D01*
X51771Y-7694D02*
Y-2334D01*
X-62598Y-52362D02*
Y-50514D01*
X-48031Y-35947D01*
Y-23622D01*
X-55905Y-15748D02*
X-48031Y-23622D01*
X-55905Y-15748D02*
Y-11811D01*
X-54724Y24409D02*
X-48031D01*
X53937Y-18974D02*
Y-13386D01*
X55905Y-11417D01*
X53544Y-60520D02*
X60316Y-53748D01*
X60455D01*
X61811Y-52392D01*
X57874Y-44488D02*
X61811Y-48425D01*
Y-52392D02*
Y-48425D01*
X51193Y-60520D02*
X53544D01*
X-60630Y-54331D02*
X-59055D01*
X-52756Y-60630D01*
X-51083D01*
X-62598Y-52362D02*
X-60630Y-54331D01*
X56299Y-44488D02*
X57874D01*
X51083Y-60630D02*
X51193Y-60520D01*
D70*
X-787Y41701D02*
X3495Y45984D01*
X-787Y38044D02*
Y41701D01*
Y38044D02*
X1969Y35288D01*
X3495Y45984D02*
X4724D01*
X7513Y47103D02*
X8631Y45984D01*
X4724D02*
X7638D01*
X5843Y47103D02*
X7513D01*
X4724Y45984D02*
X5843Y47103D01*
X7638Y45984D02*
X8631D01*
X23549Y47171D02*
X36689Y60311D01*
X45205D01*
X47099Y62205D01*
X23549Y46911D02*
X27606Y42854D01*
X23549Y46911D02*
Y47171D01*
X27606Y25469D02*
Y42854D01*
X26969Y24831D02*
X27606Y25469D01*
X26969Y7185D02*
Y24831D01*
X-37008Y53150D02*
X-35039Y51181D01*
X-25445D01*
X-41020Y60311D02*
X-37008Y56299D01*
X-45350Y60311D02*
X-41020D01*
X-47244Y62205D02*
X-45350Y60311D01*
X-31208Y20067D02*
X-28249Y17107D01*
X-34471Y18474D02*
X-32878Y20067D01*
X-27618Y16476D02*
X-26987Y17107D01*
X-32878Y20067D02*
X-31208D01*
X-30315Y13780D02*
X-27618Y16476D01*
X-28249Y17107D02*
X-26987D01*
X-34471Y15573D02*
Y18474D01*
Y15573D02*
X-32678Y13780D01*
X-30315D01*
X-31100D02*
X-26987Y9667D01*
Y17107D01*
X36913Y-43367D02*
Y-39350D01*
X36146Y-38583D02*
X36913Y-39350D01*
Y-43367D02*
X37680Y-44134D01*
X-8661Y22835D02*
X-5906Y20079D01*
X24409Y-11811D02*
X27559D01*
X21260D02*
X24409D01*
Y-8563D01*
X24213Y-8366D02*
X24409Y-8563D01*
X27559Y-11811D02*
Y-8957D01*
Y-15992D02*
Y-11811D01*
Y-15992D02*
X36146Y-24578D01*
X26969Y-8366D02*
X27559Y-8957D01*
X1969Y13780D02*
Y35288D01*
X10608Y40573D02*
Y44008D01*
Y40573D02*
X10630Y40551D01*
X9130Y27484D02*
Y39051D01*
X10630Y40551D02*
X19685D01*
X9130Y39051D02*
X10630Y40551D01*
X19685D02*
X23228Y37008D01*
X16732Y23425D02*
X23228Y29921D01*
X14961Y21654D02*
X16732Y23425D01*
X14961Y13780D02*
X16732Y15551D01*
Y23425D01*
X23228Y29921D02*
Y37008D01*
X14961Y13780D02*
Y21654D01*
X8631Y45984D02*
X10608Y44008D01*
X9130Y27484D02*
X14961Y21654D01*
X-2274Y13780D02*
X1969D01*
X14961D01*
X21260Y-8465D02*
X21555D01*
X-26987Y5906D02*
X-11417D01*
X21260Y-11811D02*
Y-8465D01*
X24213Y-8366D02*
X26969D01*
X-11417Y-8661D02*
Y5906D01*
X-10148D01*
X-2274Y13780D01*
X21457Y-8366D02*
X24213D01*
X-25591Y-13386D02*
X-24803Y-14173D01*
X6299Y-21811D02*
Y-12272D01*
X-26608Y-13059D02*
X-24914Y-11364D01*
X-24803Y-22441D02*
Y-14173D01*
X-5241Y-1698D02*
X-4355Y-812D01*
X1969Y5512D01*
X-27165Y-10555D02*
X-22905D01*
X-21012Y-8661D01*
X-7087Y-11811D02*
X21260D01*
X-27165Y-10555D02*
X-27165Y-10555D01*
X-21012Y-8661D02*
X-11417D01*
X-10236D02*
X-7087Y-11811D01*
X2992Y-21811D02*
X6299D01*
X13622Y-29134D01*
X-25445Y51181D02*
X-22764Y53862D01*
X-14886D02*
X-11811Y50787D01*
X23622Y7087D02*
X26870D01*
X-22764Y53862D02*
X-14886D01*
X26870Y7087D02*
X26969Y7185D01*
X-37008Y53150D02*
Y56299D01*
X-394Y-38044D02*
X394Y-37256D01*
Y-31087D02*
X927Y-30554D01*
X394Y-37256D02*
Y-31087D01*
X927Y-30554D02*
Y-28333D01*
X319Y-24484D02*
X2992Y-21811D01*
X319Y-27725D02*
Y-24484D01*
Y-27725D02*
X927Y-28333D01*
X-3150Y-45669D02*
X-394Y-42913D01*
Y-38044D01*
X-27165Y-12502D02*
X-26608Y-13059D01*
X-27165Y-12502D02*
Y-10555D01*
X-5906Y16335D02*
X-4695Y15124D01*
X-3618D01*
X-5906Y16335D02*
Y20079D01*
X-3618Y15124D02*
X-2274Y13780D01*
X13622Y-29134D02*
X20159D01*
X29608Y-38583D01*
X36146D02*
Y-24578D01*
X29608Y-38583D02*
X36146D01*
X-26987Y5906D02*
Y9667D01*
Y17107D02*
X-21260Y22835D01*
X-8661D01*
X-11417Y-8661D02*
X-10236D01*
X-8661Y22835D02*
X-6693D01*
X-5906Y20079D02*
Y22047D01*
X-6693Y22835D02*
X-5906Y22047D01*
X-6850Y-45669D02*
X-3150D01*
X1969Y5512D02*
X25295D01*
X-7505Y-1698D02*
X-5241D01*
X-4355D02*
Y-812D01*
X-7505Y-1698D02*
Y1452D01*
X-4651D01*
X-27165Y-10555D02*
Y-5693D01*
X-30315Y5906D02*
X-26987D01*
X-31890Y-969D02*
X-27165Y-5693D01*
X-31890Y4331D02*
X-30315Y5906D01*
X-31890Y-969D02*
Y4331D01*
X25295Y5512D02*
X26969Y7185D01*
X53937Y60236D02*
X56693D01*
X51968Y62205D02*
X53937Y60236D01*
X-56693D02*
X-53937D01*
X-51968Y62205D01*
X-47244D01*
X-11811Y50787D02*
X8807D01*
X10307Y52287D02*
X18433D01*
X8807Y50787D02*
X10307Y52287D01*
X18433D02*
X23549Y47171D01*
X47099Y62205D02*
X51968D01*
D74*
X7500Y-54980D02*
D03*
X-7500D02*
D03*
Y54980D02*
D03*
X7500D02*
D03*
D76*
X-32835Y54646D02*
D03*
X-35741Y47224D02*
D03*
X44488Y57480D02*
D03*
X30070Y24318D02*
D03*
X-41339Y54823D02*
D03*
X-33858Y19087D02*
D03*
X-31004Y25591D02*
D03*
X-32600Y31261D02*
D03*
X37680Y-44134D02*
D03*
X44204Y-48928D02*
D03*
X39272Y-48819D02*
D03*
X-3429Y24409D02*
D03*
X6863Y17300D02*
D03*
X14961Y13780D02*
D03*
X-4724Y5906D02*
D03*
X-4355Y1452D02*
D03*
Y-1698D02*
D03*
X-7505D02*
D03*
Y1452D02*
D03*
X-3543Y-16535D02*
D03*
X-24016Y-7874D02*
D03*
X-19355Y2551D02*
D03*
X11024Y1457D02*
D03*
X14173Y-3150D02*
D03*
X-3543Y-23228D02*
D03*
Y-20079D02*
D03*
X6299Y-21811D02*
D03*
X-26378Y47638D02*
D03*
X3144Y-35759D02*
D03*
X4331Y-41339D02*
D03*
X12019Y-49451D02*
D03*
X-24803Y-22441D02*
D03*
X7480Y42913D02*
D03*
X-8354Y12143D02*
D03*
X1826Y48106D02*
D03*
X-4695Y15124D02*
D03*
X-23333Y-3150D02*
D03*
X-26608Y-13059D02*
D03*
X24803Y-10630D02*
D03*
X-18110Y56693D02*
D03*
X21260Y-2756D02*
D03*
X32677Y3150D02*
D03*
X30709Y5906D02*
D03*
X23622Y7087D02*
D03*
X32677Y-4331D02*
D03*
X26772Y-2756D02*
D03*
X-30709Y9449D02*
D03*
X-33858Y9055D02*
D03*
X-34252Y-12598D02*
D03*
X-29921D02*
D03*
X62205Y51575D02*
D03*
X60630Y56693D02*
D03*
X56693Y60236D02*
D03*
X51968Y62205D02*
D03*
X47244D02*
D03*
X-47244D02*
D03*
X-51968D02*
D03*
X-56693Y60236D02*
D03*
X-60630Y56693D02*
D03*
X-62205Y51575D02*
D03*
X24213Y-8366D02*
D03*
X-47755Y14660D02*
D03*
X-52937Y31430D02*
D03*
X-51067Y29639D02*
D03*
X51764Y-16901D02*
D03*
X51771Y-2334D02*
D03*
X55905Y-11811D02*
D03*
X-45276Y54724D02*
D03*
X1575Y-2362D02*
D03*
X47717Y17462D02*
D03*
X50512Y2323D02*
D03*
X47776Y-14763D02*
D03*
X-47946Y-17245D02*
D03*
X-50000Y-2323D02*
D03*
X46555Y-60630D02*
D03*
X59555Y-51575D02*
D03*
X-6850Y-45669D02*
D03*
X51083Y-60630D02*
D03*
X5020Y-49213D02*
D03*
X-46555Y-60630D02*
D03*
X-56667Y-59868D02*
D03*
X-51083Y-60630D02*
D03*
X-59949Y-51575D02*
D03*
X-55905Y-11811D02*
D03*
Y11811D02*
D03*
Y20079D02*
D03*
X55905Y11811D02*
D03*
X17323Y56693D02*
D03*
X34116Y42481D02*
D03*
X-25197Y55905D02*
D03*
X25197Y55512D02*
D03*
X26969Y7185D02*
D03*
X-28346Y-295D02*
D03*
X-62205Y30512D02*
D03*
Y-15945D02*
D03*
Y-30512D02*
D03*
Y-45079D02*
D03*
X-62205Y45473D02*
D03*
X-62205Y0D02*
D03*
X62205D02*
D03*
X62205Y45473D02*
D03*
X62205Y-45079D02*
D03*
Y-30512D02*
D03*
Y-15945D02*
D03*
Y15945D02*
D03*
Y30512D02*
D03*
X-18898Y-33465D02*
D03*
X-11811D02*
D03*
X-15354D02*
D03*
Y-37008D02*
D03*
X-11811D02*
D03*
X-18898D02*
D03*
X18898Y-33465D02*
D03*
X11811D02*
D03*
X15354D02*
D03*
Y-37008D02*
D03*
X11811D02*
D03*
X18898D02*
D03*
Y33465D02*
D03*
X11811D02*
D03*
X15354D02*
D03*
Y37008D02*
D03*
X11811D02*
D03*
X18898D02*
D03*
X-18898D02*
D03*
X-11811D02*
D03*
X-15354D02*
D03*
Y33465D02*
D03*
X-11811D02*
D03*
X-18898D02*
D03*
X26969Y-8366D02*
D03*
X-5906Y22047D02*
D03*
X7638Y45984D02*
D03*
D77*
X17323Y-58268D02*
D03*
X28346D02*
D03*
Y-62598D02*
D03*
X22835D02*
D03*
X22835Y-58268D02*
D03*
X17323Y-62598D02*
D03*
M02*
