G04*
G04 #@! TF.GenerationSoftware,Altium Limited,Altium Designer,22.9.1 (49)*
G04*
G04 Layer_Physical_Order=6*
G04 Layer_Color=16711680*
%FSLAX25Y25*%
%MOIN*%
G70*
G04*
G04 #@! TF.SameCoordinates,5A2D5F74-2F22-471E-A729-26C66B6EDD7C*
G04*
G04*
G04 #@! TF.FilePolarity,Positive*
G04*
G01*
G75*
%ADD15C,0.00500*%
%ADD16C,0.01000*%
%ADD17C,0.01575*%
%ADD45R,0.02953X0.02362*%
%ADD46R,0.02520X0.02362*%
%ADD47R,0.02362X0.02520*%
%ADD50R,0.02362X0.02953*%
%ADD51R,0.04134X0.03150*%
%ADD52R,0.02559X0.03150*%
%ADD57R,0.03150X0.01339*%
%ADD58R,0.02598X0.01654*%
%ADD60R,0.05512X0.05118*%
%ADD62R,0.05118X0.05512*%
%ADD68C,0.01968*%
%ADD71C,0.00866*%
%ADD72C,0.03937*%
%ADD73C,0.03150*%
%ADD74C,0.04134*%
%ADD75C,0.06000*%
%ADD76C,0.01772*%
%ADD77C,0.02362*%
%ADD78C,0.02500*%
G04:AMPARAMS|DCode=79|XSize=35.43mil|YSize=62.99mil|CornerRadius=0.89mil|HoleSize=0mil|Usage=FLASHONLY|Rotation=0.000|XOffset=0mil|YOffset=0mil|HoleType=Round|Shape=RoundedRectangle|*
%AMROUNDEDRECTD79*
21,1,0.03543,0.06122,0,0,0.0*
21,1,0.03366,0.06299,0,0,0.0*
1,1,0.00177,0.01683,-0.03061*
1,1,0.00177,-0.01683,-0.03061*
1,1,0.00177,-0.01683,0.03061*
1,1,0.00177,0.01683,0.03061*
%
%ADD79ROUNDEDRECTD79*%
G04:AMPARAMS|DCode=80|XSize=19.68mil|YSize=9.84mil|CornerRadius=1.23mil|HoleSize=0mil|Usage=FLASHONLY|Rotation=0.000|XOffset=0mil|YOffset=0mil|HoleType=Round|Shape=RoundedRectangle|*
%AMROUNDEDRECTD80*
21,1,0.01968,0.00738,0,0,0.0*
21,1,0.01722,0.00984,0,0,0.0*
1,1,0.00246,0.00861,-0.00369*
1,1,0.00246,-0.00861,-0.00369*
1,1,0.00246,-0.00861,0.00369*
1,1,0.00246,0.00861,0.00369*
%
%ADD80ROUNDEDRECTD80*%
%ADD81R,0.02362X0.01181*%
%ADD82R,0.01181X0.02362*%
%ADD83R,0.13583X0.13583*%
%ADD84R,0.04528X0.05315*%
%ADD85C,0.04724*%
%ADD86C,0.02803*%
G36*
X51283Y64158D02*
X51361Y63764D01*
X51021Y63623D01*
X50550Y63152D01*
X50295Y62537D01*
Y61872D01*
X50550Y61257D01*
X51021Y60786D01*
X51636Y60532D01*
X52301D01*
X52916Y60786D01*
X53387Y61257D01*
X53642Y61872D01*
Y62537D01*
X53387Y63152D01*
X52916Y63623D01*
X52842Y63654D01*
X52944Y64038D01*
X53718Y63936D01*
X55361Y63496D01*
X56933Y62845D01*
X58406Y61994D01*
X59756Y60958D01*
X60958Y59756D01*
X61994Y58406D01*
X62845Y56933D01*
X63495Y55361D01*
X63936Y53718D01*
X64158Y52032D01*
X64158Y51181D01*
Y43365D01*
X63764Y43155D01*
X63693Y43202D01*
X63386Y43264D01*
X58086D01*
Y44606D01*
X58025Y44914D01*
X57851Y45174D01*
X57591Y45348D01*
X57284Y45409D01*
X55039D01*
X54732Y45348D01*
X54472Y45174D01*
X54298Y44914D01*
X54286Y44852D01*
X53876Y44812D01*
X53781Y45042D01*
X53310Y45513D01*
X52695Y45768D01*
X52274D01*
X52222Y46161D01*
X53157Y46412D01*
X54324Y47086D01*
X55277Y48039D01*
X55950Y49206D01*
X56299Y50507D01*
Y51855D01*
X55950Y53157D01*
X55277Y54324D01*
X54324Y55277D01*
X53157Y55950D01*
X51855Y56299D01*
X50507D01*
X49205Y55950D01*
X48039Y55277D01*
X47086Y54324D01*
X46412Y53157D01*
X46063Y51855D01*
Y50507D01*
X46412Y49206D01*
X47086Y48039D01*
X48039Y47086D01*
X49205Y46412D01*
X50507Y46063D01*
X51714D01*
X51792Y45669D01*
X51414Y45513D01*
X50944Y45042D01*
X50689Y44427D01*
Y43762D01*
X50709Y43713D01*
X50484Y43382D01*
X50250Y43387D01*
X50031Y43740D01*
X50172Y44082D01*
Y44747D01*
X49918Y45362D01*
X49447Y45833D01*
X48832Y46088D01*
X48166D01*
X47551Y45833D01*
X47080Y45362D01*
X46826Y44747D01*
Y44082D01*
X47080Y43467D01*
X47551Y42996D01*
X48166Y42741D01*
X48425D01*
Y40902D01*
X48213D01*
Y39575D01*
X50512D01*
Y38575D01*
X48213D01*
Y37248D01*
Y37016D01*
X50512D01*
Y36016D01*
X48213D01*
Y33858D01*
X46125D01*
X46123Y33869D01*
X45874Y34241D01*
X45729Y34971D01*
X45322Y35580D01*
Y36417D01*
X45276Y36650D01*
Y40142D01*
X45488D01*
Y43201D01*
X41732D01*
X37976D01*
Y40142D01*
X38189D01*
Y34071D01*
X35024D01*
Y30815D01*
X38583D01*
Y30315D01*
X39083D01*
Y26559D01*
X42142D01*
Y26772D01*
X48140D01*
X48376Y26439D01*
X48284Y26114D01*
X47638D01*
X47638Y26114D01*
X47023Y25991D01*
X46502Y25643D01*
X45958Y25098D01*
X42126D01*
Y18209D01*
X45789D01*
X46056Y17824D01*
X46043Y17795D01*
Y17129D01*
X46167Y16831D01*
X45904Y16437D01*
X42126D01*
Y9547D01*
X44442D01*
Y9071D01*
X44442Y9071D01*
X44564Y8456D01*
X44690Y8268D01*
X44480Y7874D01*
X42142D01*
Y8087D01*
X39083D01*
Y4331D01*
Y575D01*
X42102D01*
Y-575D01*
X39083D01*
Y-4331D01*
Y-8087D01*
X42142D01*
Y-7874D01*
X44311D01*
X44549Y-7972D01*
X45215D01*
X45452Y-7874D01*
X47116D01*
X47267Y-8238D01*
X45958Y-9547D01*
X42126D01*
Y-16437D01*
X47451D01*
X47532Y-16557D01*
Y-17223D01*
X47786Y-17838D01*
X47794Y-17845D01*
X47643Y-18209D01*
X42126D01*
Y-25098D01*
X45802D01*
X45806Y-25104D01*
X47110Y-26408D01*
X46959Y-26772D01*
X42142D01*
Y-26559D01*
X39083D01*
Y-30315D01*
X38583D01*
Y-30815D01*
X34995D01*
X34630Y-30888D01*
X34489Y-30548D01*
X34019Y-30078D01*
X33404Y-29823D01*
X32738D01*
X32688Y-29844D01*
X32465Y-29510D01*
X34069Y-27906D01*
X34298Y-27563D01*
X34379Y-27158D01*
Y-10108D01*
X34298Y-9703D01*
X34069Y-9360D01*
X33563Y-8855D01*
Y-8344D01*
X33491Y-8170D01*
X33566Y-8017D01*
X33781Y-7842D01*
X34018Y-7940D01*
X34683D01*
X34758Y-7909D01*
X35024Y-8087D01*
Y-8087D01*
X38083D01*
Y-4331D01*
Y-575D01*
X35024D01*
Y-4323D01*
X34703Y-4556D01*
X34350Y-4462D01*
Y-3998D01*
X34096Y-3383D01*
X33625Y-2912D01*
X33010Y-2657D01*
X32500D01*
X30083Y-240D01*
X30233Y123D01*
X30709D01*
X31113Y204D01*
X31457Y433D01*
X32500Y1476D01*
X33010D01*
X33625Y1731D01*
X34096Y2202D01*
X34350Y2817D01*
Y3482D01*
X34096Y4097D01*
X33625Y4568D01*
X33010Y4823D01*
X32497D01*
X32243Y5125D01*
X32222Y5187D01*
X32382Y5573D01*
Y6238D01*
X32127Y6853D01*
X31657Y7324D01*
X31041Y7579D01*
X30376D01*
X29761Y7324D01*
X29290Y6853D01*
X29035Y6238D01*
Y5971D01*
X28635D01*
X28440Y6365D01*
X28642Y6852D01*
Y7518D01*
X28387Y8133D01*
X27916Y8603D01*
X27301Y8858D01*
X26636D01*
X26021Y8603D01*
X25550Y8133D01*
X25488Y7983D01*
X25062D01*
X25041Y8034D01*
X24570Y8505D01*
X23955Y8760D01*
X23289D01*
X22674Y8505D01*
X22204Y8034D01*
X21949Y7419D01*
Y7419D01*
X21585Y7268D01*
X21216Y7638D01*
X20873Y7867D01*
X20671Y8309D01*
X20681Y8358D01*
X18701D01*
Y9358D01*
X20681D01*
X20676Y9383D01*
X20983Y9777D01*
X21443D01*
X21690Y9530D01*
X22305Y9276D01*
X22971D01*
X23586Y9530D01*
X24056Y10001D01*
X24163Y10260D01*
X25484D01*
Y12441D01*
X26484D01*
Y10260D01*
X28244D01*
Y10260D01*
X29421D01*
Y12441D01*
X29921D01*
Y12941D01*
X32181D01*
Y14622D01*
X31969D01*
Y17874D01*
X31734D01*
X31471Y18268D01*
X31594Y18565D01*
Y19230D01*
X31340Y19845D01*
X30909Y20276D01*
X31340Y20706D01*
X31594Y21321D01*
Y21986D01*
X31340Y22601D01*
X31030Y22911D01*
X31489Y23370D01*
X31743Y23985D01*
Y24651D01*
X31489Y25266D01*
X31018Y25736D01*
X30403Y25991D01*
X29737D01*
X29122Y25736D01*
X28756Y25927D01*
Y26469D01*
X26575D01*
Y27468D01*
X28756D01*
Y28559D01*
X28543D01*
Y34196D01*
X28590Y34206D01*
X28934Y34435D01*
X29541Y35043D01*
X29770Y35386D01*
X29851Y35791D01*
Y42422D01*
X30860Y43431D01*
X31089Y43774D01*
X31170Y44179D01*
Y46860D01*
X31089Y47264D01*
X30860Y47607D01*
X27483Y50984D01*
X27646Y51378D01*
X30529D01*
X30748Y51051D01*
X30654Y50825D01*
Y50159D01*
X30909Y49544D01*
X31379Y49074D01*
X31994Y48819D01*
X32660D01*
X33275Y49074D01*
X33746Y49544D01*
X34001Y50159D01*
Y50825D01*
X33995Y50838D01*
X34214Y51165D01*
X35252D01*
Y51968D01*
X44291D01*
Y52879D01*
X44549Y53051D01*
X45215D01*
X45830Y53306D01*
X46300Y53777D01*
X46555Y54391D01*
Y55057D01*
X46300Y55672D01*
X45866Y56106D01*
Y56492D01*
X45907Y56532D01*
X46161Y57147D01*
Y57813D01*
X45907Y58428D01*
X45866Y58468D01*
Y59842D01*
X46260D01*
Y60375D01*
X46654Y60638D01*
X46911Y60532D01*
X47577D01*
X48192Y60786D01*
X48662Y61257D01*
X48917Y61872D01*
Y62537D01*
X48662Y63152D01*
X48192Y63623D01*
X47852Y63764D01*
X47930Y64158D01*
X51283D01*
D02*
G37*
G36*
X-47930Y64158D02*
X-47852Y63764D01*
X-48192Y63623D01*
X-48663Y63152D01*
X-48917Y62537D01*
Y61872D01*
X-48663Y61257D01*
X-48192Y60786D01*
X-47577Y60532D01*
X-46911D01*
X-46654Y60638D01*
X-46260Y60375D01*
Y59842D01*
X-45472D01*
Y56398D01*
X-45608D01*
X-46223Y56143D01*
X-46694Y55672D01*
X-46949Y55057D01*
Y54744D01*
X-47343Y54581D01*
X-48039Y55277D01*
X-49206Y55950D01*
X-50507Y56299D01*
X-51855D01*
X-53157Y55950D01*
X-54324Y55277D01*
X-55277Y54324D01*
X-55950Y53157D01*
X-56299Y51855D01*
Y50507D01*
X-55950Y49206D01*
X-55277Y48039D01*
X-54324Y47086D01*
X-53157Y46412D01*
X-52608Y46265D01*
X-52580Y45850D01*
X-52993Y45436D01*
X-53248Y44821D01*
Y44155D01*
X-52993Y43540D01*
X-52811Y43358D01*
Y42134D01*
X-50512D01*
Y41134D01*
X-52811D01*
Y39807D01*
Y39575D01*
X-50512D01*
Y38575D01*
X-52811D01*
Y37248D01*
Y37016D01*
X-50512D01*
Y36016D01*
X-52811D01*
Y34689D01*
X-52598D01*
Y33757D01*
X-52606Y33719D01*
X-53035Y33290D01*
X-53464Y33344D01*
X-53528Y33422D01*
Y42461D01*
X-53589Y42768D01*
X-53763Y43028D01*
X-54023Y43202D01*
X-54237Y43245D01*
Y44606D01*
X-54298Y44914D01*
X-54472Y45174D01*
X-54732Y45348D01*
X-55039Y45409D01*
X-57284D01*
X-57591Y45348D01*
X-57851Y45174D01*
X-58025Y44914D01*
X-58086Y44606D01*
Y43264D01*
X-63386D01*
X-63693Y43202D01*
X-63764Y43155D01*
X-64158Y43365D01*
Y51181D01*
Y52032D01*
X-63936Y53718D01*
X-63496Y55361D01*
X-62845Y56933D01*
X-61994Y58406D01*
X-60958Y59756D01*
X-59756Y60958D01*
X-58406Y61994D01*
X-56933Y62845D01*
X-55361Y63495D01*
X-53718Y63936D01*
X-52944Y64038D01*
X-52842Y63654D01*
X-52916Y63623D01*
X-53387Y63152D01*
X-53642Y62537D01*
Y61872D01*
X-53387Y61257D01*
X-52916Y60786D01*
X-52301Y60532D01*
X-51636D01*
X-51021Y60786D01*
X-50550Y61257D01*
X-50295Y61872D01*
Y62537D01*
X-50550Y63152D01*
X-51021Y63623D01*
X-51361Y63764D01*
X-51283Y64158D01*
X-51181D01*
X-47930D01*
D02*
G37*
G36*
X18102Y64158D02*
X18285Y63764D01*
X18132Y63583D01*
X11417D01*
Y59055D01*
Y54528D01*
X12844D01*
X12854Y54476D01*
X13139Y54050D01*
X14587Y52603D01*
X14436Y52239D01*
X9640D01*
X9489Y52632D01*
X9954Y53097D01*
X10358Y53796D01*
X10541Y54480D01*
X7500D01*
Y55480D01*
X10541D01*
X10358Y56164D01*
X9954Y56863D01*
X9455Y57363D01*
X9387Y57475D01*
X9423Y57866D01*
X9784Y58228D01*
X10160Y58879D01*
X10354Y59605D01*
Y60356D01*
X10160Y61082D01*
X9784Y61733D01*
X9253Y62264D01*
X8602Y62640D01*
X7876Y62835D01*
X7124D01*
X6398Y62640D01*
X5747Y62264D01*
X5230Y61747D01*
X5171Y61700D01*
X4829D01*
X4770Y61747D01*
X4253Y62264D01*
X3602Y62640D01*
X2876Y62835D01*
X2124D01*
X1398Y62640D01*
X747Y62264D01*
X230Y61747D01*
X171Y61700D01*
X-171D01*
X-230Y61747D01*
X-747Y62264D01*
X-1398Y62640D01*
X-2124Y62835D01*
X-2876D01*
X-3602Y62640D01*
X-3641Y62617D01*
X-4788Y63764D01*
X-4723Y64030D01*
X-4636Y64158D01*
X18102Y64158D01*
D02*
G37*
G36*
X230Y53213D02*
X747Y52696D01*
X1398Y52320D01*
X2124Y52126D01*
X2876D01*
X3602Y52320D01*
X3641Y52343D01*
X5551Y50433D01*
X5894Y50204D01*
X6299Y50123D01*
X8851D01*
X9014Y49730D01*
X8658Y49374D01*
X8404Y48759D01*
Y48110D01*
X6354D01*
Y48323D01*
X4673D01*
Y46063D01*
X4173D01*
Y45563D01*
X1992D01*
Y43803D01*
X2534D01*
X2753Y43476D01*
X2657Y43246D01*
Y42581D01*
X2912Y41966D01*
X2704Y41617D01*
X2680Y41600D01*
X2475Y41685D01*
X1809D01*
X1194Y41431D01*
X723Y40960D01*
X469Y40345D01*
Y39679D01*
X723Y39064D01*
X862Y38926D01*
Y33907D01*
X942Y33503D01*
X1172Y33159D01*
X3833Y30498D01*
X4176Y30269D01*
X4581Y30188D01*
X6102D01*
Y29654D01*
X5368D01*
X4963Y29574D01*
X4620Y29344D01*
X2795Y27520D01*
X2566Y27176D01*
X2486Y26772D01*
Y15632D01*
X2566Y15228D01*
X2795Y14885D01*
X4127Y13553D01*
X3977Y13189D01*
X304D01*
X55Y13493D01*
X73Y13587D01*
Y32605D01*
X-7Y33010D01*
X-236Y33353D01*
X-2239Y35355D01*
X-1796Y35798D01*
X-1541Y36413D01*
Y37079D01*
X-1796Y37694D01*
X-2266Y38165D01*
X-2881Y38419D01*
X-3392D01*
X-4500Y39527D01*
X-4843Y39757D01*
X-5248Y39837D01*
X-5922D01*
X-6025Y40215D01*
X-5802Y40383D01*
X-5781Y40397D01*
X-4731Y41447D01*
X-4221D01*
X-3606Y41702D01*
X-3135Y42173D01*
X-2880Y42788D01*
Y43453D01*
X-3135Y44068D01*
X-3606Y44539D01*
X-4221Y44794D01*
X-4848D01*
Y48031D01*
X-4928Y48436D01*
X-5158Y48779D01*
X-7898Y51520D01*
X-7735Y51913D01*
X-7096D01*
X-6316Y52122D01*
X-5617Y52526D01*
X-5118Y53025D01*
X-5005Y53093D01*
X-4614Y53058D01*
X-4253Y52696D01*
X-3602Y52320D01*
X-2876Y52126D01*
X-2124D01*
X-1398Y52320D01*
X-747Y52696D01*
X-230Y53213D01*
X-171Y53261D01*
X171D01*
X230Y53213D01*
D02*
G37*
G36*
X-11662Y52730D02*
X-11581Y52325D01*
X-11352Y51982D01*
X-9439Y50069D01*
X-9631Y49705D01*
X-10175D01*
X-10790Y49450D01*
X-11261Y48979D01*
X-11348Y48769D01*
X-11367Y48765D01*
X-11710Y48536D01*
X-16746Y43500D01*
X-16975Y43157D01*
X-16985Y43110D01*
X-21186D01*
Y46224D01*
X-21267Y46629D01*
X-21496Y46972D01*
X-24892Y50368D01*
X-25236Y50597D01*
X-25640Y50678D01*
X-33345D01*
X-33750Y50597D01*
X-34093Y50368D01*
X-35563Y48898D01*
X-36074D01*
X-36689Y48643D01*
X-37159Y48172D01*
X-37381Y47638D01*
X-41656D01*
X-41819Y48031D01*
X-41684Y48166D01*
X-41429Y48781D01*
Y49447D01*
X-41684Y50062D01*
X-42155Y50533D01*
X-42770Y50787D01*
X-43435D01*
X-44050Y50533D01*
X-44521Y50062D01*
X-44776Y49447D01*
Y48781D01*
X-44521Y48166D01*
X-44386Y48031D01*
X-44549Y47638D01*
X-46260D01*
Y42913D01*
X-45505D01*
Y42520D01*
X-48213D01*
Y43461D01*
X-49763D01*
X-50026Y43854D01*
X-49902Y44155D01*
Y44821D01*
X-50156Y45436D01*
X-50404Y45683D01*
X-50286Y46122D01*
X-49206Y46412D01*
X-48039Y47086D01*
X-47086Y48039D01*
X-46412Y49206D01*
X-46063Y50507D01*
Y51855D01*
X-46352Y52933D01*
X-46022Y53222D01*
X-45608Y53051D01*
X-44943D01*
X-44685Y53158D01*
X-44291Y52895D01*
Y51968D01*
X-35252D01*
Y51165D01*
X-33571D01*
Y53642D01*
X-32571D01*
Y51165D01*
X-30890D01*
Y51378D01*
X-27165D01*
Y51534D01*
X-23690D01*
X-23478Y51522D01*
X-23327Y51163D01*
Y50848D01*
X-23072Y50233D01*
X-22601Y49763D01*
X-21986Y49508D01*
X-21321D01*
X-20706Y49763D01*
X-20235Y50233D01*
X-19980Y50848D01*
Y51514D01*
X-20063Y51714D01*
X-19845Y52042D01*
X-19453D01*
X-19330Y51918D01*
X-18904Y51634D01*
X-18402Y51534D01*
X-16051D01*
X-15549Y51634D01*
X-15123Y51918D01*
X-13139Y53903D01*
X-12854Y54328D01*
X-12815Y54528D01*
X-11662D01*
Y52730D01*
D02*
G37*
G36*
X27523Y47953D02*
X27446Y47567D01*
X27241Y47482D01*
X26770Y47011D01*
X26627Y46664D01*
X26351Y46609D01*
X25602Y46919D01*
X24792D01*
X24043Y46609D01*
X23470Y46036D01*
X23245Y45493D01*
X23121Y45452D01*
X22818Y45493D01*
X22593Y46036D01*
X22020Y46609D01*
X21271Y46919D01*
X20461D01*
X19712Y46609D01*
X19139Y46036D01*
X18829Y45287D01*
Y44477D01*
X19139Y43728D01*
X19363Y43504D01*
X19200Y43110D01*
X17396D01*
Y46758D01*
X17855Y46948D01*
X18325Y47419D01*
X18580Y48034D01*
Y48700D01*
X18325Y49315D01*
X17910Y49730D01*
X17963Y49993D01*
X18031Y50123D01*
X25353D01*
X27523Y47953D01*
D02*
G37*
G36*
X-34275Y43428D02*
X-34350Y43246D01*
Y42581D01*
X-34096Y41966D01*
X-33625Y41495D01*
X-33010Y41240D01*
X-32344D01*
X-31729Y41495D01*
X-31259Y41966D01*
X-31258Y41969D01*
X-30840D01*
Y32382D01*
X-30986Y32308D01*
X-31234Y32262D01*
X-31652Y32680D01*
X-32267Y32934D01*
X-32933D01*
X-33548Y32680D01*
X-34018Y32209D01*
X-34273Y31594D01*
Y30929D01*
X-34018Y30314D01*
X-33843Y30138D01*
X-33882Y29747D01*
X-33999Y29668D01*
X-34630Y29037D01*
X-35024Y29201D01*
Y29815D01*
X-38083D01*
Y26559D01*
X-35276D01*
Y25311D01*
X-37787D01*
Y21654D01*
Y17996D01*
X-35134D01*
X-34806Y17668D01*
X-34191Y17413D01*
X-33797D01*
X-33490Y17208D01*
X-33463Y17050D01*
Y16524D01*
X-33209Y15909D01*
X-32738Y15438D01*
X-32123Y15184D01*
X-31457D01*
X-30843Y15438D01*
X-30372Y15909D01*
X-30117Y16524D01*
Y17190D01*
X-30372Y17805D01*
X-30733Y18165D01*
Y20527D01*
X-29550Y21711D01*
X-29216Y21487D01*
X-29340Y21188D01*
Y20522D01*
X-29085Y19907D01*
X-28614Y19437D01*
X-27999Y19182D01*
X-27334D01*
X-27234Y18898D01*
Y18886D01*
X-26924Y18137D01*
X-26573Y17786D01*
X-26619Y17281D01*
X-26629Y17275D01*
X-26974Y16929D01*
X-29213D01*
Y13677D01*
X-29425D01*
Y11996D01*
X-27165D01*
Y11496D01*
X-26665D01*
Y9315D01*
X-24905D01*
Y11770D01*
X-24512Y11917D01*
X-20713Y8118D01*
X-20454Y7945D01*
X-20620Y7697D01*
X-20681Y7390D01*
X-18701D01*
Y6390D01*
X-20681D01*
X-20678Y6373D01*
X-20988Y5979D01*
X-25743D01*
X-28685Y8921D01*
X-28522Y9315D01*
X-27665D01*
Y10996D01*
X-29552D01*
X-29819Y10891D01*
X-30376Y11122D01*
X-31041D01*
X-31657Y10867D01*
X-32127Y10397D01*
X-32171Y10291D01*
X-32635Y10199D01*
X-32910Y10474D01*
X-33525Y10728D01*
X-34191D01*
X-34630Y10547D01*
X-35024Y10770D01*
Y12492D01*
X-37787D01*
Y9335D01*
X-35531D01*
Y8722D01*
X-35431Y8480D01*
X-35694Y8087D01*
X-38083D01*
Y4831D01*
X-35024D01*
Y7340D01*
X-34630Y7564D01*
X-34191Y7382D01*
X-33681D01*
X-26732Y433D01*
X-26389Y204D01*
X-25984Y123D01*
X-25551D01*
X-25388Y-270D01*
X-34630Y-9512D01*
X-35024Y-9349D01*
Y-9335D01*
X-37787D01*
Y-12992D01*
Y-16650D01*
X-35116D01*
X-34683Y-16829D01*
X-34018D01*
X-33403Y-16574D01*
X-32932Y-16103D01*
X-32677Y-15488D01*
Y-14823D01*
X-32932Y-14208D01*
X-33213Y-13926D01*
X-32833Y-13546D01*
X-32579Y-12931D01*
Y-12266D01*
X-32833Y-11651D01*
X-33194Y-11290D01*
Y-11068D01*
X-24075Y-1948D01*
X-22154D01*
X-21945Y-2157D01*
X-21602Y-2387D01*
X-21197Y-2467D01*
X-15173D01*
X-14301Y-3339D01*
X-14452Y-3703D01*
X-14461D01*
Y-7874D01*
X-15461D01*
Y-3703D01*
X-16644D01*
X-17008Y-3776D01*
X-17030Y-3743D01*
X-17401Y-3494D01*
X-17840Y-3407D01*
X-18201D01*
Y-4921D01*
X-18701D01*
Y-5421D01*
X-20814D01*
X-20942Y-5577D01*
X-21383D01*
X-22187Y-4773D01*
X-22613Y-4488D01*
X-23115Y-4388D01*
X-24916D01*
X-25418Y-4488D01*
X-25844Y-4773D01*
X-30849Y-9778D01*
X-31134Y-10204D01*
X-31234Y-10706D01*
Y-11545D01*
X-31340Y-11651D01*
X-31594Y-12266D01*
Y-12931D01*
X-31340Y-13546D01*
X-30869Y-14017D01*
X-30254Y-14272D01*
X-29588D01*
X-28973Y-14017D01*
X-28602Y-13646D01*
X-28228Y-13673D01*
X-28150Y-13708D01*
X-28027Y-14007D01*
X-27556Y-14478D01*
X-26941Y-14732D01*
X-26506D01*
X-26311Y-14862D01*
X-26063Y-14912D01*
Y-16299D01*
X-22417D01*
Y-16823D01*
X-20236D01*
Y-17823D01*
X-22417D01*
Y-17876D01*
X-22659Y-18074D01*
X-28001D01*
X-28406Y-18155D01*
X-28749Y-18384D01*
X-30257Y-19891D01*
X-30487Y-19661D01*
X-30929Y-19478D01*
X-30943Y-19472D01*
X-30864Y-19079D01*
X-30853Y-19079D01*
X-30412D01*
X-29797Y-18824D01*
X-29327Y-18353D01*
X-29072Y-17738D01*
Y-17073D01*
X-29327Y-16458D01*
X-29797Y-15987D01*
X-30412Y-15732D01*
X-31078D01*
X-31693Y-15987D01*
X-32164Y-16458D01*
X-32418Y-17073D01*
Y-17738D01*
X-32164Y-18353D01*
X-31693Y-18824D01*
X-31251Y-19007D01*
X-31237Y-19013D01*
X-31316Y-19406D01*
X-31327Y-19406D01*
X-31768D01*
X-32383Y-19661D01*
X-32854Y-20132D01*
X-33108Y-20747D01*
Y-21412D01*
X-32854Y-22027D01*
X-32383Y-22498D01*
X-31768Y-22753D01*
X-31102D01*
X-30638Y-22560D01*
X-30489Y-22640D01*
X-30260Y-22983D01*
X-29133Y-24110D01*
X-28790Y-24339D01*
X-28756Y-24346D01*
Y-24500D01*
X-26575D01*
Y-25500D01*
X-28756D01*
Y-26469D01*
X-26575D01*
Y-27468D01*
X-28756D01*
Y-28559D01*
X-28543D01*
Y-30315D01*
Y-34196D01*
X-28590Y-34206D01*
X-28934Y-34435D01*
X-29541Y-35043D01*
X-29770Y-35386D01*
X-29851Y-35791D01*
Y-37078D01*
X-30245Y-37157D01*
X-30373Y-36847D01*
X-30843Y-36377D01*
X-31459Y-36122D01*
X-32124D01*
X-32739Y-36377D01*
X-33210Y-36847D01*
X-33465Y-37462D01*
Y-38128D01*
X-33210Y-38743D01*
X-32974Y-38979D01*
X-33066Y-39443D01*
X-33184Y-39492D01*
X-33654Y-39963D01*
X-33909Y-40578D01*
Y-41243D01*
X-33654Y-41858D01*
X-33184Y-42329D01*
X-32569Y-42584D01*
X-31903D01*
X-31288Y-42329D01*
X-30817Y-41858D01*
X-30563Y-41243D01*
Y-40578D01*
X-30817Y-39963D01*
X-31053Y-39727D01*
X-30961Y-39262D01*
X-30843Y-39214D01*
X-30373Y-38743D01*
X-30245Y-38434D01*
X-29851Y-38512D01*
Y-44520D01*
X-29770Y-44925D01*
X-29541Y-45268D01*
X-25189Y-49621D01*
X-25340Y-49984D01*
X-28957D01*
X-29038Y-49819D01*
X-29078Y-49591D01*
X-28656Y-49168D01*
X-28401Y-48553D01*
Y-47888D01*
X-28656Y-47273D01*
X-29126Y-46802D01*
X-29741Y-46547D01*
X-30407D01*
X-31022Y-46802D01*
X-31493Y-47273D01*
X-31747Y-47888D01*
Y-48553D01*
X-31493Y-49168D01*
X-31070Y-49591D01*
X-31110Y-49819D01*
X-31191Y-49984D01*
X-32496D01*
Y-53043D01*
X-28740D01*
Y-54043D01*
X-32496D01*
Y-57102D01*
X-32283D01*
Y-63189D01*
X-30233D01*
X-30015Y-63714D01*
X-29935Y-63794D01*
X-30085Y-64158D01*
X-32730D01*
X-33055Y-63764D01*
Y-62311D01*
X-35531D01*
Y-61311D01*
X-33055D01*
Y-60055D01*
Y-58374D01*
X-35531D01*
Y-57374D01*
X-33055D01*
Y-56118D01*
Y-54437D01*
X-35531D01*
Y-53937D01*
X-36031D01*
Y-51756D01*
X-38008D01*
Y-51968D01*
X-42323D01*
Y-53306D01*
X-44776D01*
X-45278Y-53405D01*
X-45704Y-53690D01*
X-48575Y-56561D01*
X-49965D01*
X-50017Y-56168D01*
X-49206Y-55950D01*
X-48039Y-55277D01*
X-47086Y-54324D01*
X-46412Y-53157D01*
X-46063Y-51855D01*
Y-50507D01*
X-46412Y-49205D01*
X-47086Y-48038D01*
X-48039Y-47085D01*
X-49206Y-46412D01*
X-49993Y-46201D01*
X-49943Y-45807D01*
X-49328Y-45552D01*
X-48857Y-45082D01*
X-48602Y-44467D01*
Y-43801D01*
X-48696Y-43575D01*
X-48477Y-43248D01*
X-48425D01*
Y-40902D01*
X-48213D01*
Y-39575D01*
X-50512D01*
Y-38575D01*
X-48213D01*
Y-38342D01*
Y-37016D01*
X-50512D01*
Y-36016D01*
X-48213D01*
Y-33858D01*
X-46397D01*
Y-34949D01*
X-46213Y-35871D01*
X-45691Y-36652D01*
X-45276Y-37067D01*
Y-39748D01*
X-45488D01*
Y-42807D01*
X-37976D01*
Y-39748D01*
X-38189D01*
Y-34071D01*
X-35024D01*
Y-30815D01*
X-38583D01*
Y-30315D01*
X-39083D01*
Y-26559D01*
X-42142D01*
Y-26772D01*
X-48140D01*
X-48376Y-26439D01*
X-48285Y-26114D01*
X-47638D01*
X-47638Y-26114D01*
X-47023Y-25991D01*
X-46502Y-25643D01*
X-45958Y-25098D01*
X-42126D01*
Y-18209D01*
X-45980D01*
X-46414Y-17919D01*
X-46273Y-17578D01*
Y-16912D01*
X-46334Y-16764D01*
X-46115Y-16437D01*
X-42126D01*
Y-11671D01*
X-42095Y-11516D01*
Y-9928D01*
X-42095Y-9843D01*
X-42095Y-9843D01*
X-42126Y-9547D01*
X-42154D01*
X-42217Y-9228D01*
X-42565Y-8707D01*
X-42565Y-8707D01*
X-43035Y-8238D01*
X-42884Y-7874D01*
X-42142D01*
Y-8087D01*
X-39083D01*
Y-4331D01*
Y-575D01*
X-42142D01*
Y-787D01*
X-43397D01*
X-43463Y-627D01*
X-43854Y-237D01*
X-43902Y0D01*
X-43854Y237D01*
X-43463Y627D01*
X-43397Y787D01*
X-42142D01*
Y575D01*
X-39083D01*
Y4331D01*
Y8087D01*
X-42142D01*
Y7874D01*
X-46034D01*
X-46184Y8238D01*
X-45806Y8617D01*
X-45458Y9138D01*
X-45376Y9547D01*
X-42126D01*
Y16437D01*
X-48046D01*
X-48255Y16484D01*
X-48410Y16755D01*
Y17184D01*
X-48498Y17396D01*
X-48425Y17776D01*
D01*
X-48289Y18113D01*
X-48228Y18209D01*
X-42126D01*
Y25098D01*
X-45319D01*
X-45518Y25397D01*
X-45518Y25397D01*
X-46318Y26197D01*
X-46589Y26378D01*
X-46470Y26772D01*
X-42142D01*
Y26559D01*
X-39083D01*
Y30315D01*
Y34071D01*
X-42102D01*
Y35221D01*
X-39083D01*
Y38976D01*
X-38583D01*
Y39476D01*
X-35024D01*
Y42732D01*
X-36886D01*
X-37205Y42913D01*
Y43739D01*
X-34573D01*
X-34275Y43428D01*
D02*
G37*
G36*
X57284Y42461D02*
X63386D01*
Y40807D01*
X61535D01*
Y39902D01*
X63386D01*
Y38248D01*
X61535D01*
Y37343D01*
X63386D01*
Y35689D01*
X61535D01*
Y34784D01*
X63386D01*
Y33130D01*
X57284D01*
Y30984D01*
X55039D01*
Y33130D01*
X54331D01*
Y42461D01*
X55039D01*
Y44606D01*
X57284D01*
Y42461D01*
D02*
G37*
G36*
X-55039D02*
X-54331D01*
Y33130D01*
X-55039D01*
Y30984D01*
X-57284D01*
Y33130D01*
X-63386D01*
Y34784D01*
X-61535D01*
Y35689D01*
X-63386D01*
Y37343D01*
X-61535D01*
Y38248D01*
X-63386D01*
Y39902D01*
X-61535D01*
Y40807D01*
X-63386D01*
Y42461D01*
X-57284D01*
Y44606D01*
X-55039D01*
Y42461D01*
D02*
G37*
G36*
X57284Y27894D02*
X63386D01*
Y26240D01*
X61535D01*
Y25335D01*
X63386D01*
Y23681D01*
X61535D01*
Y22776D01*
X63386D01*
Y21122D01*
X61535D01*
Y20216D01*
X63386D01*
Y18563D01*
X57284D01*
Y16417D01*
X55039D01*
Y18563D01*
X54331D01*
Y27894D01*
X55039D01*
Y30039D01*
X57284D01*
Y27894D01*
D02*
G37*
G36*
X-55039D02*
X-54331D01*
Y18563D01*
X-55039D01*
Y16417D01*
X-57284D01*
Y18563D01*
X-63386D01*
Y20216D01*
X-61535D01*
Y21122D01*
X-63386D01*
Y22776D01*
X-61535D01*
Y23681D01*
X-63386D01*
Y25335D01*
X-61535D01*
Y26240D01*
X-63386D01*
Y27894D01*
X-57284D01*
Y30039D01*
X-55039D01*
Y27894D01*
D02*
G37*
G36*
X-2042Y14025D02*
X-4790Y11277D01*
X-8713D01*
X-8768Y11333D01*
X-9111Y11562D01*
X-9516Y11642D01*
X-9563D01*
X-9703Y11852D01*
X-10004Y12054D01*
X-10359Y12124D01*
X-12082D01*
X-12437Y12054D01*
X-12715Y11868D01*
X-12853Y11960D01*
X-13278Y12045D01*
X-14461D01*
Y7874D01*
Y3703D01*
X-13278D01*
X-12913Y3776D01*
X-12891Y3743D01*
X-12520Y3494D01*
X-12082Y3407D01*
X-11720D01*
Y4921D01*
X-10720D01*
Y3094D01*
X-10687Y3013D01*
X-11462Y2239D01*
X-16688D01*
X-17093Y2158D01*
X-17436Y1929D01*
X-17930Y1436D01*
X-20019D01*
X-20512Y1929D01*
X-20855Y2158D01*
X-21260Y2239D01*
X-25546D01*
X-27199Y3891D01*
X-26929Y4173D01*
X-26586Y3944D01*
X-26181Y3864D01*
X-20170D01*
X-19917Y3695D01*
X-19562Y3624D01*
X-17840D01*
X-17484Y3695D01*
X-17207Y3880D01*
X-17068Y3788D01*
X-16644Y3703D01*
X-15461D01*
Y7874D01*
Y12045D01*
X-16644D01*
X-17001Y11974D01*
X-17255Y12112D01*
X-17388Y12220D01*
Y13812D01*
X-5749D01*
X-5643Y13706D01*
X-5028Y13451D01*
X-4362D01*
X-3747Y13706D01*
X-3276Y14176D01*
X-3022Y14791D01*
Y15457D01*
X-3276Y16072D01*
X-3449Y16244D01*
X-3286Y16638D01*
X-2042D01*
Y14025D01*
D02*
G37*
G36*
X15461Y3703D02*
X16644D01*
X17008Y3776D01*
X17030Y3743D01*
X17401Y3494D01*
X17840Y3407D01*
X18201D01*
Y4921D01*
X19201D01*
Y3407D01*
X19562D01*
X20000Y3494D01*
X20372Y3743D01*
X20620Y4114D01*
X20707Y4552D01*
Y4640D01*
X21071Y4791D01*
X21696Y4166D01*
X22039Y3936D01*
X22444Y3856D01*
X29717D01*
X30121Y3936D01*
X30464Y4166D01*
X30513Y4214D01*
X30913Y4203D01*
X31143Y3931D01*
X31164Y3869D01*
X31004Y3482D01*
Y2972D01*
X30270Y2239D01*
X29788D01*
X29669Y2262D01*
X15064D01*
X13987Y3339D01*
X14138Y3703D01*
X14461D01*
Y7874D01*
X15461D01*
Y3703D01*
D02*
G37*
G36*
X57284Y13327D02*
X63386D01*
Y11673D01*
X61535D01*
Y10768D01*
X63386D01*
Y9114D01*
X61535D01*
Y8209D01*
X63386D01*
Y6555D01*
X61535D01*
Y5650D01*
X63386D01*
Y3996D01*
X57284D01*
Y1850D01*
X55039D01*
Y3996D01*
X54331D01*
Y13327D01*
X55039D01*
Y15472D01*
X57284D01*
Y13327D01*
D02*
G37*
G36*
X-55039D02*
X-54331D01*
Y3996D01*
X-55039D01*
Y1850D01*
X-57284D01*
Y3996D01*
X-63386D01*
Y5650D01*
X-61535D01*
Y6555D01*
X-63386D01*
Y8209D01*
X-61535D01*
Y9114D01*
X-63386D01*
Y10768D01*
X-61535D01*
Y11673D01*
X-63386D01*
Y13327D01*
X-57284D01*
Y15472D01*
X-55039D01*
Y13327D01*
D02*
G37*
G36*
X53528Y27197D02*
Y18563D01*
X53589Y18256D01*
X53763Y17995D01*
X54023Y17821D01*
X54237Y17779D01*
Y16417D01*
X54298Y16110D01*
X54408Y15945D01*
X54298Y15780D01*
X54237Y15472D01*
Y14111D01*
X54023Y14069D01*
X53763Y13894D01*
X53589Y13634D01*
X53528Y13327D01*
Y3996D01*
X53589Y3689D01*
X53763Y3428D01*
X54023Y3254D01*
X54237Y3212D01*
Y1850D01*
X54298Y1543D01*
X54472Y1283D01*
X54732Y1109D01*
X55039Y1048D01*
X57284D01*
X57591Y1109D01*
X57851Y1283D01*
X58025Y1543D01*
X58086Y1850D01*
Y3193D01*
X63386D01*
X63693Y3254D01*
X63764Y3302D01*
X64158Y3091D01*
X64158Y-3091D01*
X63764Y-3302D01*
X63693Y-3254D01*
X63386Y-3193D01*
X58086D01*
Y-1850D01*
X58025Y-1543D01*
X57851Y-1283D01*
X57591Y-1109D01*
X57284Y-1048D01*
X55039D01*
X54732Y-1109D01*
X54472Y-1283D01*
X54298Y-1543D01*
X54237Y-1850D01*
Y-3212D01*
X54023Y-3254D01*
X53763Y-3428D01*
X53589Y-3689D01*
X53528Y-3996D01*
Y-13327D01*
X53589Y-13634D01*
X53763Y-13894D01*
X54023Y-14069D01*
X54237Y-14111D01*
Y-15472D01*
X54298Y-15780D01*
X54408Y-15945D01*
X54298Y-16110D01*
X54237Y-16417D01*
Y-17779D01*
X54023Y-17821D01*
X53763Y-17995D01*
X53589Y-18256D01*
X53528Y-18563D01*
Y-27240D01*
X53164Y-27391D01*
X52598Y-26825D01*
Y-23563D01*
Y-19190D01*
X52615Y-19108D01*
X52829Y-18788D01*
X52929Y-18285D01*
Y-18102D01*
X53182Y-17848D01*
X53437Y-17233D01*
Y-16568D01*
X53182Y-15953D01*
X52712Y-15482D01*
X52097Y-15227D01*
X51431D01*
X50816Y-15482D01*
X50490Y-15808D01*
X50153Y-15471D01*
X49905Y-15369D01*
X49828Y-14982D01*
X50696Y-14114D01*
X52598D01*
Y-11555D01*
Y-8996D01*
Y-4623D01*
X52624Y-4496D01*
Y-3793D01*
X52719Y-3753D01*
X53190Y-3282D01*
X53445Y-2667D01*
Y-2002D01*
X53190Y-1387D01*
X52719Y-916D01*
X52104Y-661D01*
X51439D01*
X50824Y-916D01*
X50498Y-1242D01*
X50160Y-904D01*
X49545Y-650D01*
X48880D01*
X48611Y-761D01*
X48228Y-787D01*
X48228Y-787D01*
X48228Y-787D01*
X47662D01*
Y787D01*
X48228D01*
Y2897D01*
X48273Y2968D01*
X48531Y2974D01*
X48823Y2616D01*
X48788Y2441D01*
X48839Y2187D01*
Y1990D01*
X49093Y1375D01*
X49564Y904D01*
X50179Y650D01*
X50845D01*
X51460Y904D01*
X51930Y1375D01*
X52185Y1990D01*
Y2656D01*
X52118Y2819D01*
Y3209D01*
X52598D01*
Y5768D01*
Y8327D01*
Y12700D01*
X52624Y12827D01*
Y13530D01*
X52719Y13570D01*
X53190Y14041D01*
X53445Y14656D01*
Y15321D01*
X53190Y15936D01*
X52719Y16407D01*
X52104Y16662D01*
X51439D01*
X50824Y16407D01*
X50548Y16131D01*
X50163Y16516D01*
X49548Y16771D01*
X49359Y17054D01*
X49390Y17129D01*
Y17776D01*
X52598D01*
Y20335D01*
Y22894D01*
Y26825D01*
X53134Y27360D01*
X53528Y27197D01*
D02*
G37*
G36*
X-63693Y3254D02*
X-63386Y3193D01*
X-58086D01*
Y1850D01*
X-58025Y1543D01*
X-57851Y1283D01*
X-57591Y1109D01*
X-57284Y1048D01*
X-55039D01*
X-54732Y1109D01*
X-54472Y1283D01*
X-54375Y1427D01*
X-53977Y1428D01*
X-53945Y1417D01*
X-53781Y1021D01*
X-53310Y550D01*
X-52695Y295D01*
X-52029D01*
X-51414Y550D01*
X-50984Y980D01*
X-50554Y550D01*
X-49939Y295D01*
X-49273D01*
X-48658Y550D01*
X-48568Y640D01*
X-48228Y787D01*
Y787D01*
X-48228Y787D01*
X-46367D01*
X-46300Y627D01*
X-45910Y237D01*
X-45862Y0D01*
X-45910Y-237D01*
X-46300Y-627D01*
X-46367Y-787D01*
X-48228D01*
Y-1214D01*
X-48432Y-1307D01*
X-48622Y-1335D01*
X-49052Y-904D01*
X-49667Y-650D01*
X-50333D01*
X-50948Y-904D01*
X-51419Y-1375D01*
X-51673Y-1990D01*
Y-2656D01*
X-51607Y-2815D01*
X-51870Y-3209D01*
X-52598D01*
Y-6437D01*
Y-8996D01*
Y-12258D01*
X-53164Y-12824D01*
X-53528Y-12673D01*
Y-3996D01*
X-53589Y-3689D01*
X-53763Y-3428D01*
X-54023Y-3254D01*
X-54237Y-3212D01*
Y-1850D01*
X-54298Y-1543D01*
X-54472Y-1283D01*
X-54732Y-1109D01*
X-55039Y-1048D01*
X-57284D01*
X-57591Y-1109D01*
X-57851Y-1283D01*
X-58025Y-1543D01*
X-58086Y-1850D01*
Y-3193D01*
X-63386D01*
X-63693Y-3254D01*
X-63764Y-3302D01*
X-64158Y-3091D01*
X-64158Y3091D01*
X-63764Y3302D01*
X-63693Y3254D01*
D02*
G37*
G36*
X-1181Y11380D02*
Y7102D01*
X-1394D01*
Y4043D01*
X6118D01*
Y7102D01*
X5906D01*
Y11260D01*
X6269Y11411D01*
X9328Y8353D01*
X9478Y8252D01*
X9502Y8134D01*
X9548Y8065D01*
X9301Y7697D01*
X9240Y7390D01*
X11220D01*
Y6390D01*
X9240D01*
X9301Y6083D01*
X9548Y5714D01*
X9502Y5646D01*
X9431Y5290D01*
Y4552D01*
X9502Y4197D01*
X9703Y3896D01*
X10004Y3695D01*
X10359Y3624D01*
X10792D01*
X10957Y3378D01*
X13496Y839D01*
X13345Y475D01*
X12057D01*
X11652Y395D01*
X11309Y165D01*
X7914Y-3230D01*
X7684Y-3573D01*
X7604Y-3978D01*
Y-6296D01*
X7684Y-6701D01*
X7914Y-7044D01*
X8499Y-7630D01*
X8842Y-7859D01*
X8964Y-7883D01*
X8978Y-7890D01*
X9245Y-8303D01*
X9245Y-8333D01*
X9240Y-8358D01*
X11220D01*
Y-9358D01*
X9240D01*
X9301Y-9665D01*
X9312Y-9681D01*
X9264Y-10092D01*
X8921Y-10321D01*
X6299Y-12943D01*
X5906Y-12779D01*
Y-7102D01*
X6118D01*
Y-4043D01*
X2362D01*
X-1394D01*
Y-7102D01*
X-1181D01*
Y-7570D01*
X-1342Y-7637D01*
X-1812Y-8107D01*
X-2067Y-8722D01*
Y-9388D01*
X-1812Y-10003D01*
X-1342Y-10474D01*
X-1181Y-10540D01*
Y-13189D01*
X5496D01*
X5659Y-13583D01*
X3317Y-15925D01*
X2953Y-15775D01*
Y-13780D01*
X-6102D01*
Y-15621D01*
X-11650D01*
X-12055Y-15702D01*
X-12398Y-15931D01*
X-14439Y-17973D01*
X-14803Y-17822D01*
Y-15643D01*
X-14727D01*
X-14225Y-15543D01*
X-13799Y-15259D01*
X-13771Y-15216D01*
X-13728Y-15188D01*
X-11852Y-13311D01*
X-11488Y-13462D01*
Y-13582D01*
X-11233Y-14198D01*
X-10762Y-14668D01*
X-10147Y-14923D01*
X-9482D01*
X-8867Y-14668D01*
X-8396Y-14198D01*
X-8361Y-14113D01*
X-8237Y-14030D01*
X-7952Y-13604D01*
X-7852Y-13102D01*
X-7891Y-12909D01*
X-7736Y-12677D01*
X-7636Y-12175D01*
Y-9873D01*
X-7736Y-9371D01*
X-8021Y-8945D01*
X-9028Y-7938D01*
X-9328Y-7737D01*
X-9301Y-7697D01*
X-9240Y-7390D01*
X-11220D01*
Y-6390D01*
X-9240D01*
X-9301Y-6083D01*
X-9548Y-5714D01*
X-9502Y-5646D01*
X-9431Y-5290D01*
Y-4552D01*
X-9502Y-4197D01*
X-9703Y-3896D01*
X-10004Y-3695D01*
X-10359Y-3624D01*
X-11025D01*
X-13987Y-661D01*
X-14330Y-432D01*
X-14735Y-352D01*
X-15825D01*
X-16036Y42D01*
X-15981Y123D01*
X-11024D01*
X-10619Y204D01*
X-10276Y433D01*
X-9542Y1167D01*
X-9136Y1016D01*
X-8923Y504D01*
X-8533Y114D01*
X-8485Y-123D01*
X-8533Y-360D01*
X-8923Y-750D01*
X-9178Y-1365D01*
Y-2031D01*
X-8923Y-2646D01*
X-8453Y-3116D01*
X-7838Y-3371D01*
X-7172D01*
X-6557Y-3116D01*
X-6167Y-2726D01*
X-5930Y-2678D01*
X-5694Y-2726D01*
X-5303Y-3116D01*
X-4688Y-3371D01*
X-4022D01*
X-3407Y-3116D01*
X-2937Y-2646D01*
X-2682Y-2031D01*
Y-1365D01*
X-2937Y-750D01*
X-3327Y-360D01*
X-3376Y-123D01*
X-3327Y114D01*
X-2937Y504D01*
X-2682Y1119D01*
Y1785D01*
X-2937Y2400D01*
X-3407Y2870D01*
X-4022Y3125D01*
X-4688D01*
X-5303Y2870D01*
X-5694Y2480D01*
X-5930Y2431D01*
X-6167Y2480D01*
X-6557Y2870D01*
X-7172Y3125D01*
X-7516D01*
X-7855Y3243D01*
X-7891Y3489D01*
Y5521D01*
X-7972Y5926D01*
X-8201Y6269D01*
X-9328Y7396D01*
X-9478Y7496D01*
X-9502Y7614D01*
X-9548Y7683D01*
X-9301Y8051D01*
X-9214Y8489D01*
Y9110D01*
X-9151Y9162D01*
X-4352D01*
X-3947Y9242D01*
X-3604Y9472D01*
X-1545Y11531D01*
X-1181Y11380D01*
D02*
G37*
G36*
X31004Y-4153D02*
Y-4663D01*
X31087Y-4864D01*
X30868Y-5191D01*
X29790D01*
X28600Y-4001D01*
X28174Y-3716D01*
X27672Y-3616D01*
X20391D01*
X20352Y-3609D01*
X18701D01*
X18624Y-3624D01*
X17840D01*
X17484Y-3695D01*
X17207Y-3880D01*
X17068Y-3788D01*
X16644Y-3703D01*
X15461D01*
Y-7874D01*
X14461D01*
Y-3703D01*
X13278D01*
X12913Y-3776D01*
X12891Y-3743D01*
X12520Y-3494D01*
X12082Y-3407D01*
X11243D01*
X11092Y-3043D01*
X12495Y-1640D01*
X28491D01*
X31004Y-4153D01*
D02*
G37*
G36*
X57284Y-3996D02*
X63386D01*
Y-5650D01*
X61535D01*
Y-6555D01*
X63386D01*
Y-8209D01*
X61535D01*
Y-9114D01*
X63386D01*
Y-10768D01*
X61535D01*
Y-11673D01*
X63386D01*
Y-13327D01*
X57284D01*
Y-15472D01*
X55039D01*
Y-13327D01*
X54331D01*
Y-3996D01*
X55039D01*
Y-1850D01*
X57284D01*
Y-3996D01*
D02*
G37*
G36*
X-55039D02*
X-54331D01*
Y-13327D01*
X-55039D01*
Y-15472D01*
X-57284D01*
Y-13327D01*
X-63386D01*
Y-11673D01*
X-61535D01*
Y-10768D01*
X-63386D01*
Y-9114D01*
X-61535D01*
Y-8209D01*
X-63386D01*
Y-6555D01*
X-61535D01*
Y-5650D01*
X-63386D01*
Y-3996D01*
X-57284D01*
Y-1850D01*
X-55039D01*
Y-3996D01*
D02*
G37*
G36*
X29247Y-7817D02*
X30081D01*
X30300Y-8144D01*
X30217Y-8344D01*
Y-9010D01*
X30471Y-9625D01*
X30942Y-10096D01*
X31557Y-10350D01*
X32067D01*
X32263Y-10546D01*
Y-26720D01*
X31104Y-27879D01*
X30208D01*
X30130Y-27486D01*
X30330Y-27403D01*
X30801Y-26932D01*
X31055Y-26317D01*
Y-25651D01*
X30801Y-25036D01*
X30330Y-24566D01*
X29834Y-24360D01*
X29912Y-23967D01*
X30402D01*
X31017Y-23712D01*
X31487Y-23241D01*
X31742Y-22626D01*
Y-21960D01*
X31487Y-21346D01*
X31017Y-20875D01*
X30402Y-20620D01*
X29736D01*
X29121Y-20875D01*
X28650Y-21346D01*
X28396Y-21960D01*
Y-22626D01*
X28650Y-23241D01*
X28704Y-23295D01*
X28475Y-23622D01*
X25591D01*
Y-21148D01*
X25803Y-20935D01*
X26390D01*
X27138Y-20625D01*
X27711Y-20052D01*
X28022Y-19303D01*
Y-18492D01*
X27711Y-17743D01*
X27138Y-17170D01*
X26390Y-16860D01*
X25579D01*
X24830Y-17170D01*
X24257Y-17743D01*
X24032Y-18287D01*
X23606D01*
X23381Y-17743D01*
X22859Y-17221D01*
X22867Y-17135D01*
X25731Y-14271D01*
X26016Y-13845D01*
X26116Y-13343D01*
Y-11684D01*
X26222Y-11578D01*
X26476Y-10963D01*
Y-10764D01*
X27201Y-10039D01*
X27301D01*
X27916Y-9785D01*
X28387Y-9314D01*
X28642Y-8699D01*
Y-8086D01*
X28772Y-7919D01*
X28954Y-7758D01*
X29247Y-7817D01*
D02*
G37*
G36*
X57284Y-18563D02*
X63386D01*
Y-20216D01*
X61535D01*
Y-21122D01*
X63386D01*
Y-22776D01*
X61535D01*
Y-23681D01*
X63386D01*
Y-25335D01*
X61535D01*
Y-26240D01*
X63386D01*
Y-27894D01*
X57284D01*
Y-30039D01*
X55039D01*
Y-27894D01*
X54331D01*
Y-18563D01*
X55039D01*
Y-16417D01*
X57284D01*
Y-18563D01*
D02*
G37*
G36*
X-55039D02*
X-54331D01*
Y-27894D01*
X-55039D01*
Y-30039D01*
X-57284D01*
Y-27894D01*
X-63386D01*
Y-26240D01*
X-61535D01*
Y-25335D01*
X-63386D01*
Y-23681D01*
X-61535D01*
Y-22776D01*
X-63386D01*
Y-21122D01*
X-61535D01*
Y-20216D01*
X-63386D01*
Y-18563D01*
X-57284D01*
Y-16417D01*
X-55039D01*
Y-18563D01*
D02*
G37*
G36*
X31870Y-30331D02*
X31652Y-30548D01*
X31398Y-31163D01*
Y-31829D01*
X31652Y-32444D01*
X32123Y-32915D01*
X32738Y-33169D01*
X33404D01*
X34019Y-32915D01*
X34489Y-32444D01*
X34630Y-32105D01*
X35024Y-32183D01*
Y-34067D01*
X34729Y-34308D01*
X34689Y-34291D01*
X34412Y-34015D01*
X33797Y-33760D01*
X33132D01*
X32517Y-34015D01*
X32046Y-34486D01*
X31791Y-35100D01*
Y-35766D01*
X32046Y-36381D01*
X32517Y-36852D01*
X33132Y-37106D01*
X33797D01*
X34412Y-36852D01*
X34630Y-36634D01*
X35024Y-36797D01*
Y-37689D01*
X38583D01*
Y-38689D01*
X35024D01*
Y-41945D01*
X38461D01*
X38592Y-42019D01*
X38599Y-42314D01*
X38243Y-42556D01*
X38012Y-42461D01*
X37347D01*
X36732Y-42715D01*
X36261Y-43186D01*
X36103Y-43569D01*
X34479D01*
X34216Y-43176D01*
X34350Y-42852D01*
Y-42187D01*
X34096Y-41572D01*
X33625Y-41101D01*
X33010Y-40846D01*
X32344D01*
X31729Y-41101D01*
X31259Y-41572D01*
X31004Y-42187D01*
Y-42588D01*
X30610Y-42751D01*
X29787Y-41928D01*
X29361Y-41643D01*
X28859Y-41543D01*
X25591D01*
Y-40370D01*
X26075D01*
Y-38780D01*
X26575D01*
Y-38280D01*
X28756D01*
Y-37311D01*
X26575D01*
Y-36311D01*
X28756D01*
Y-35221D01*
X28543D01*
Y-29995D01*
X31542D01*
X31676Y-29968D01*
X31870Y-30331D01*
D02*
G37*
G36*
X57284Y-33130D02*
X63386D01*
Y-34784D01*
X61535D01*
Y-35689D01*
X63386D01*
Y-37343D01*
X61535D01*
Y-38248D01*
X63386D01*
Y-39902D01*
X61535D01*
Y-40807D01*
X63386D01*
Y-42461D01*
X57284D01*
Y-44606D01*
X55039D01*
Y-42461D01*
X54331D01*
Y-33130D01*
X55039D01*
Y-30984D01*
X57284D01*
Y-33130D01*
D02*
G37*
G36*
X-55039D02*
X-54331D01*
Y-42461D01*
X-55039D01*
Y-44606D01*
X-57284D01*
Y-42461D01*
X-63386D01*
Y-40807D01*
X-61535D01*
Y-39902D01*
X-63386D01*
Y-38248D01*
X-61535D01*
Y-37343D01*
X-63386D01*
Y-35689D01*
X-61535D01*
Y-34784D01*
X-63386D01*
Y-33130D01*
X-57284D01*
Y-30984D01*
X-55039D01*
Y-33130D01*
D02*
G37*
G36*
X29956Y-45810D02*
X30382Y-46095D01*
X30884Y-46194D01*
X36723D01*
X37225Y-46095D01*
X37651Y-45810D01*
X37654Y-45807D01*
X38012D01*
X38386Y-45652D01*
X38780Y-45915D01*
Y-46850D01*
X38780Y-46850D01*
X38740Y-47228D01*
X38324Y-47400D01*
X37853Y-47871D01*
X37598Y-48486D01*
Y-49152D01*
X37853Y-49767D01*
X37904Y-49817D01*
X37753Y-50181D01*
X36425D01*
Y-52362D01*
X35425D01*
Y-50181D01*
X33449D01*
Y-50197D01*
X26772D01*
X26378Y-50197D01*
Y-50197D01*
X26378D01*
X26378Y-50197D01*
X23992D01*
Y-48531D01*
X21811D01*
Y-47532D01*
X24025D01*
X24386Y-47382D01*
X24485Y-47481D01*
X25100Y-47736D01*
X25766D01*
X26381Y-47481D01*
X26851Y-47011D01*
X27106Y-46396D01*
Y-45730D01*
X26851Y-45115D01*
X26381Y-44644D01*
X26183Y-44562D01*
X26261Y-44169D01*
X28315D01*
X29956Y-45810D01*
D02*
G37*
G36*
X-2886Y-47929D02*
X-1772D01*
Y-51181D01*
X7283D01*
Y-50270D01*
X9538D01*
X9943Y-50190D01*
X10056Y-50114D01*
X10535Y-50242D01*
X10600Y-50399D01*
X11071Y-50870D01*
X11686Y-51125D01*
X12205D01*
Y-53401D01*
X11961Y-53449D01*
X11375Y-53841D01*
X10904Y-54312D01*
X10464Y-54194D01*
X10358Y-53796D01*
X9954Y-53097D01*
X9383Y-52526D01*
X8684Y-52122D01*
X8000Y-51939D01*
Y-54980D01*
X7000D01*
Y-51939D01*
X6316Y-52122D01*
X5617Y-52526D01*
X5118Y-53025D01*
X5005Y-53093D01*
X4614Y-53058D01*
X4253Y-52696D01*
X3602Y-52320D01*
X2876Y-52126D01*
X2124D01*
X1398Y-52320D01*
X747Y-52696D01*
X230Y-53213D01*
X171Y-53261D01*
X-171D01*
X-230Y-53213D01*
X-747Y-52696D01*
X-1398Y-52320D01*
X-2124Y-52126D01*
X-2876D01*
X-3602Y-52320D01*
X-3641Y-52343D01*
X-6902Y-49083D01*
X-7245Y-48853D01*
X-7650Y-48773D01*
X-10828D01*
X-11023Y-48379D01*
X-10881Y-48184D01*
X-10577Y-48167D01*
X-10092Y-48368D01*
X-9426D01*
X-8811Y-48114D01*
X-8414Y-47717D01*
X-5567D01*
Y-47929D01*
X-3886D01*
Y-45669D01*
X-2886D01*
Y-47929D01*
D02*
G37*
G36*
X-63693Y-43202D02*
X-63386Y-43264D01*
X-58086D01*
Y-44606D01*
X-58025Y-44914D01*
X-57851Y-45174D01*
X-57591Y-45348D01*
X-57284Y-45409D01*
X-55039D01*
X-54732Y-45348D01*
X-54472Y-45174D01*
X-54085Y-45561D01*
X-53470Y-45816D01*
X-52805D01*
X-52190Y-45561D01*
X-51959Y-45331D01*
X-51711Y-45098D01*
X-51445Y-45331D01*
X-51223Y-45552D01*
X-50941Y-45669D01*
X-51020Y-46063D01*
X-51855D01*
X-53157Y-46412D01*
X-54324Y-47085D01*
X-55277Y-48038D01*
X-55950Y-49205D01*
X-56299Y-50507D01*
Y-51855D01*
X-55950Y-53157D01*
X-55277Y-54324D01*
X-54324Y-55277D01*
X-53157Y-55950D01*
X-52345Y-56168D01*
X-52397Y-56561D01*
X-53787D01*
X-58324Y-52024D01*
X-58276Y-51908D01*
Y-51242D01*
X-58530Y-50627D01*
X-59001Y-50156D01*
X-59616Y-49902D01*
X-60282D01*
X-60897Y-50156D01*
X-61367Y-50627D01*
X-61622Y-51242D01*
Y-51908D01*
X-61367Y-52523D01*
X-61059Y-52831D01*
X-61051Y-52868D01*
X-60767Y-53294D01*
X-59431Y-54630D01*
X-59462Y-54738D01*
X-59624Y-54994D01*
X-60201D01*
X-60816Y-55248D01*
X-61287Y-55719D01*
X-61542Y-56334D01*
Y-57000D01*
X-61287Y-57615D01*
X-60816Y-58086D01*
X-60201Y-58340D01*
X-59536D01*
X-58921Y-58086D01*
X-58450Y-57615D01*
X-58195Y-57000D01*
Y-56423D01*
X-57939Y-56261D01*
X-57832Y-56230D01*
X-56230Y-57832D01*
X-56261Y-57939D01*
X-56423Y-58195D01*
X-57000D01*
X-57615Y-58450D01*
X-58086Y-58921D01*
X-58340Y-59536D01*
Y-60201D01*
X-58086Y-60816D01*
X-57615Y-61287D01*
X-57000Y-61542D01*
X-56850D01*
X-55295Y-63097D01*
X-55518Y-63431D01*
X-56933Y-62845D01*
X-58406Y-61994D01*
X-59756Y-60958D01*
X-60958Y-59756D01*
X-61994Y-58406D01*
X-62845Y-56933D01*
X-63496Y-55361D01*
X-63936Y-53718D01*
X-64158Y-52032D01*
X-64158Y-51181D01*
Y-43365D01*
X-63764Y-43155D01*
X-63693Y-43202D01*
D02*
G37*
G36*
X54237Y-31404D02*
Y-32346D01*
X54023Y-32388D01*
X53763Y-32562D01*
X53589Y-32823D01*
X53528Y-33130D01*
Y-42461D01*
X53589Y-42768D01*
X53763Y-43028D01*
X54023Y-43202D01*
X54237Y-43245D01*
Y-44606D01*
X54298Y-44914D01*
X54472Y-45174D01*
X54732Y-45348D01*
X55039Y-45409D01*
X57284D01*
X57591Y-45348D01*
X57851Y-45174D01*
X58025Y-44914D01*
X58086Y-44606D01*
Y-43264D01*
X63386D01*
X63693Y-43202D01*
X63764Y-43155D01*
X64158Y-43365D01*
Y-51181D01*
X64158Y-52032D01*
X63936Y-53718D01*
X63495Y-55361D01*
X62845Y-56933D01*
X61994Y-58406D01*
X60958Y-59756D01*
X59756Y-60958D01*
X58406Y-61994D01*
X56933Y-62845D01*
X56844Y-62881D01*
X56625Y-62554D01*
X57270Y-61909D01*
X57419D01*
X58034Y-61655D01*
X58505Y-61184D01*
X58760Y-60569D01*
Y-59903D01*
X58505Y-59288D01*
X58034Y-58818D01*
X57419Y-58563D01*
X56842D01*
X56680Y-58307D01*
X56649Y-58199D01*
X58199Y-56649D01*
X58307Y-56680D01*
X58563Y-56842D01*
Y-57419D01*
X58818Y-58034D01*
X59288Y-58505D01*
X59903Y-58760D01*
X60569D01*
X61184Y-58505D01*
X61655Y-58034D01*
X61909Y-57419D01*
Y-56754D01*
X61655Y-56139D01*
X61184Y-55668D01*
X60569Y-55413D01*
X59992D01*
X59830Y-55158D01*
X59799Y-55050D01*
X60483Y-54365D01*
X60768Y-53939D01*
X60868Y-53437D01*
Y-52628D01*
X60974Y-52523D01*
X61228Y-51908D01*
Y-51242D01*
X60974Y-50627D01*
X60503Y-50156D01*
X59888Y-49902D01*
X59222D01*
X58607Y-50156D01*
X58137Y-50627D01*
X57882Y-51242D01*
Y-51908D01*
X58137Y-52523D01*
X58242Y-52628D01*
Y-52893D01*
X54181Y-56955D01*
X50150D01*
X49680Y-56485D01*
X49884Y-56132D01*
X50507Y-56299D01*
X51855D01*
X53157Y-55950D01*
X54324Y-55277D01*
X55277Y-54324D01*
X55950Y-53157D01*
X56299Y-51855D01*
Y-50507D01*
X55950Y-49205D01*
X55277Y-48038D01*
X54324Y-47085D01*
X53157Y-46412D01*
X52369Y-46201D01*
X52269Y-45766D01*
X52600Y-45436D01*
X52854Y-44821D01*
Y-44155D01*
X52730Y-43854D01*
X52811Y-43461D01*
X52811D01*
X52811Y-43461D01*
Y-42134D01*
X50512D01*
Y-41134D01*
X52811D01*
Y-40902D01*
Y-39575D01*
X50512D01*
Y-38575D01*
X52811D01*
Y-38342D01*
Y-37016D01*
X50512D01*
Y-36016D01*
X52811D01*
Y-34689D01*
X52598D01*
Y-32478D01*
X52685Y-32392D01*
X52939Y-31776D01*
Y-31326D01*
X53000Y-31286D01*
X53666D01*
X53909Y-31185D01*
X54237Y-31404D01*
D02*
G37*
G36*
X-10358Y-56164D02*
X-9954Y-56863D01*
X-9455Y-57363D01*
X-9387Y-57475D01*
X-9423Y-57866D01*
X-9784Y-58228D01*
X-10160Y-58879D01*
X-10354Y-59605D01*
Y-60356D01*
X-10160Y-61082D01*
X-9784Y-61733D01*
X-9253Y-62264D01*
X-8602Y-62640D01*
X-7876Y-62835D01*
X-7124D01*
X-6398Y-62640D01*
X-5747Y-62264D01*
X-5230Y-61747D01*
X-5171Y-61700D01*
X-4829D01*
X-4770Y-61747D01*
X-4253Y-62264D01*
X-3602Y-62640D01*
X-2876Y-62835D01*
X-2124D01*
X-1398Y-62640D01*
X-747Y-62264D01*
X-230Y-61747D01*
X-171Y-61700D01*
X171D01*
X230Y-61747D01*
X747Y-62264D01*
X1398Y-62640D01*
X2124Y-62835D01*
X2876D01*
X3602Y-62640D01*
X4253Y-62264D01*
X4770Y-61747D01*
X4829Y-61700D01*
X5171D01*
X5230Y-61747D01*
X5747Y-62264D01*
X6398Y-62640D01*
X7124Y-62835D01*
X7876D01*
X8602Y-62640D01*
X9253Y-62264D01*
X9784Y-61733D01*
X10160Y-61082D01*
X10354Y-60356D01*
Y-60109D01*
X11628Y-58835D01*
X11992Y-58986D01*
Y-59342D01*
X15748D01*
Y-59842D01*
X16248D01*
Y-63402D01*
X22335D01*
Y-59842D01*
X23335D01*
Y-63402D01*
X29421D01*
Y-59842D01*
X30421D01*
Y-63402D01*
X33449D01*
Y-63992D01*
X33124Y-64158D01*
X-15584Y-64158D01*
X-15735Y-63794D01*
X-15654Y-63714D01*
X-15437Y-63189D01*
X-11024D01*
Y-57102D01*
X-10811D01*
Y-55994D01*
X-10417Y-55942D01*
X-10358Y-56164D01*
D02*
G37*
%LPC*%
G36*
X57026Y61909D02*
X56360D01*
X55745Y61655D01*
X55274Y61184D01*
X55020Y60569D01*
Y59903D01*
X55274Y59288D01*
X55745Y58818D01*
X56360Y58563D01*
X57026D01*
X57641Y58818D01*
X58111Y59288D01*
X58366Y59903D01*
Y60569D01*
X58111Y61184D01*
X57641Y61655D01*
X57026Y61909D01*
D02*
G37*
G36*
X45488Y47260D02*
X42232D01*
Y44201D01*
X45488D01*
Y47260D01*
D02*
G37*
G36*
X41232D02*
X37976D01*
Y44201D01*
X41232D01*
Y47260D01*
D02*
G37*
G36*
X34449Y44154D02*
X33783D01*
X33168Y43899D01*
X32697Y43429D01*
X32443Y42814D01*
Y42148D01*
X32697Y41533D01*
X33168Y41062D01*
X33783Y40808D01*
X34449D01*
X35063Y41062D01*
X35534Y41533D01*
X35789Y42148D01*
Y42814D01*
X35534Y43429D01*
X35063Y43899D01*
X34449Y44154D01*
D02*
G37*
G36*
X33305Y40256D02*
X32640D01*
X32025Y40001D01*
X31554Y39530D01*
X31299Y38915D01*
Y38250D01*
X31554Y37635D01*
X32025Y37164D01*
X32640Y36909D01*
X33305D01*
X33920Y37164D01*
X34391Y37635D01*
X34646Y38250D01*
Y38915D01*
X34391Y39530D01*
X33920Y40001D01*
X33305Y40256D01*
D02*
G37*
G36*
X33010Y32776D02*
X32344D01*
X31729Y32521D01*
X31259Y32050D01*
X31004Y31435D01*
Y30770D01*
X31259Y30155D01*
X31729Y29684D01*
X32344Y29429D01*
X33010D01*
X33625Y29684D01*
X34096Y30155D01*
X34350Y30770D01*
Y31435D01*
X34096Y32050D01*
X33625Y32521D01*
X33010Y32776D01*
D02*
G37*
G36*
X38083Y29815D02*
X35024D01*
Y26559D01*
X38083D01*
Y29815D01*
D02*
G37*
G36*
X33018Y28893D02*
X32352D01*
X31737Y28638D01*
X31266Y28168D01*
X31012Y27553D01*
Y26887D01*
X31266Y26272D01*
X31737Y25801D01*
X32352Y25547D01*
X33018D01*
X33633Y25801D01*
X34103Y26272D01*
X34358Y26887D01*
Y27553D01*
X34103Y28168D01*
X33633Y28638D01*
X33018Y28893D01*
D02*
G37*
G36*
X41551Y25311D02*
X38787D01*
Y22154D01*
X41551D01*
Y25311D01*
D02*
G37*
G36*
X37787D02*
X35024D01*
Y22154D01*
X37787D01*
Y25311D01*
D02*
G37*
G36*
Y21154D02*
X35024D01*
Y18381D01*
X34696Y18162D01*
X34585Y18209D01*
X33919D01*
X33304Y17954D01*
X32833Y17483D01*
X32579Y16868D01*
Y16203D01*
X32833Y15588D01*
X33304Y15117D01*
X33919Y14862D01*
X34585D01*
X34696Y14908D01*
X35024Y14690D01*
Y13492D01*
X37787D01*
Y16650D01*
X35925D01*
Y16868D01*
X35671Y17483D01*
X35551Y17602D01*
X35714Y17996D01*
X37787D01*
Y21154D01*
D02*
G37*
G36*
X41551D02*
X38787D01*
Y17996D01*
X41551D01*
Y21154D01*
D02*
G37*
G36*
Y16650D02*
X38787D01*
Y13492D01*
X41551D01*
Y16650D01*
D02*
G37*
G36*
X32181Y11941D02*
X30421D01*
Y10260D01*
X32181D01*
Y11941D01*
D02*
G37*
G36*
X41551Y12492D02*
X38787D01*
Y9335D01*
X41551D01*
Y12492D01*
D02*
G37*
G36*
X37787D02*
X35024D01*
Y9335D01*
X37787D01*
Y12492D01*
D02*
G37*
G36*
X38083Y8087D02*
X35024D01*
Y4831D01*
X38083D01*
Y8087D01*
D02*
G37*
G36*
Y3831D02*
X35024D01*
Y575D01*
X38083D01*
Y3831D01*
D02*
G37*
G36*
X41551Y-9335D02*
X38787D01*
Y-12492D01*
X41551D01*
Y-9335D01*
D02*
G37*
G36*
X37787D02*
X35024D01*
Y-12492D01*
X37787D01*
Y-9335D01*
D02*
G37*
G36*
X41551Y-13492D02*
X38787D01*
Y-16650D01*
X41551D01*
Y-13492D01*
D02*
G37*
G36*
X37787D02*
X35024D01*
Y-16650D01*
X37787D01*
Y-13492D01*
D02*
G37*
G36*
X41551Y-17996D02*
X38787D01*
Y-21154D01*
X41551D01*
Y-17996D01*
D02*
G37*
G36*
X37787D02*
X35024D01*
Y-21154D01*
X37787D01*
Y-17996D01*
D02*
G37*
G36*
X41551Y-22153D02*
X38787D01*
Y-25311D01*
X41551D01*
Y-22153D01*
D02*
G37*
G36*
X37787D02*
X35024D01*
Y-25311D01*
X37787D01*
Y-22153D01*
D02*
G37*
G36*
X38083Y-26559D02*
X35024D01*
Y-29815D01*
X38083D01*
Y-26559D01*
D02*
G37*
G36*
X-56360Y61909D02*
X-57026D01*
X-57641Y61655D01*
X-58111Y61184D01*
X-58366Y60569D01*
Y59903D01*
X-58111Y59288D01*
X-57641Y58818D01*
X-57026Y58563D01*
X-56360D01*
X-55745Y58818D01*
X-55274Y59288D01*
X-55020Y59903D01*
Y60569D01*
X-55274Y61184D01*
X-55745Y61655D01*
X-56360Y61909D01*
D02*
G37*
G36*
X3673Y48323D02*
X1992D01*
Y46563D01*
X3673D01*
Y48323D01*
D02*
G37*
G36*
X-35024Y38476D02*
X-38083D01*
Y35221D01*
X-35039D01*
X-35024Y35221D01*
X-34646Y35182D01*
Y35100D01*
X-34391Y34485D01*
X-33920Y34015D01*
X-33305Y33760D01*
X-32640D01*
X-32025Y34015D01*
X-31554Y34485D01*
X-31299Y35100D01*
Y35766D01*
X-31554Y36381D01*
X-32025Y36852D01*
X-32640Y37106D01*
X-33305D01*
X-33920Y36852D01*
X-34391Y36381D01*
X-34646Y35766D01*
X-35024Y35804D01*
Y38476D01*
D02*
G37*
G36*
Y34071D02*
X-38083D01*
Y30815D01*
X-35024D01*
Y34071D01*
D02*
G37*
G36*
X-38787Y25311D02*
X-41551D01*
Y22154D01*
X-38787D01*
Y25311D01*
D02*
G37*
G36*
Y21154D02*
X-41551D01*
Y17996D01*
X-38787D01*
Y21154D01*
D02*
G37*
G36*
X-35024Y16650D02*
X-37787D01*
Y13492D01*
X-35024D01*
Y16650D01*
D02*
G37*
G36*
X-38787D02*
X-41551D01*
Y13492D01*
X-38787D01*
Y16650D01*
D02*
G37*
G36*
Y12492D02*
X-41551D01*
Y9335D01*
X-38787D01*
Y12492D01*
D02*
G37*
G36*
X-35024Y3831D02*
X-38083D01*
Y575D01*
X-35024D01*
Y3831D01*
D02*
G37*
G36*
Y-575D02*
X-38083D01*
Y-3831D01*
X-35024D01*
Y-575D01*
D02*
G37*
G36*
X-19201Y-3407D02*
X-19562D01*
X-20000Y-3494D01*
X-20372Y-3743D01*
X-20620Y-4114D01*
X-20681Y-4421D01*
X-19201D01*
Y-3407D01*
D02*
G37*
G36*
X-35024Y-4831D02*
X-38083D01*
Y-8087D01*
X-35024D01*
Y-4831D01*
D02*
G37*
G36*
X-38787Y-9335D02*
X-41551D01*
Y-12492D01*
X-38787D01*
Y-9335D01*
D02*
G37*
G36*
Y-13492D02*
X-41551D01*
Y-16650D01*
X-38787D01*
Y-13492D01*
D02*
G37*
G36*
X-35024Y-17996D02*
X-37787D01*
Y-21154D01*
X-35024D01*
Y-17996D01*
D02*
G37*
G36*
X-38787D02*
X-41551D01*
Y-21154D01*
X-38787D01*
Y-17996D01*
D02*
G37*
G36*
X-35024Y-22153D02*
X-37787D01*
Y-25311D01*
X-35024D01*
Y-22153D01*
D02*
G37*
G36*
X-38787D02*
X-41551D01*
Y-25311D01*
X-38787D01*
Y-22153D01*
D02*
G37*
G36*
X-32478Y-24520D02*
X-33143D01*
X-33758Y-24775D01*
X-34229Y-25246D01*
X-34484Y-25861D01*
Y-26526D01*
X-34229Y-27141D01*
X-33758Y-27612D01*
X-33143Y-27867D01*
X-32478D01*
X-31863Y-27612D01*
X-31392Y-27141D01*
X-31137Y-26526D01*
Y-25861D01*
X-31392Y-25246D01*
X-31863Y-24775D01*
X-32478Y-24520D01*
D02*
G37*
G36*
X-35024Y-26559D02*
X-38083D01*
Y-29815D01*
X-35024D01*
Y-26559D01*
D02*
G37*
G36*
X-32344Y-29429D02*
X-33010D01*
X-33625Y-29684D01*
X-34096Y-30155D01*
X-34350Y-30770D01*
Y-31435D01*
X-34096Y-32050D01*
X-33625Y-32521D01*
X-33010Y-32776D01*
X-32344D01*
X-31729Y-32521D01*
X-31259Y-32050D01*
X-31004Y-31435D01*
Y-30770D01*
X-31259Y-30155D01*
X-31729Y-29684D01*
X-32344Y-29429D01*
D02*
G37*
G36*
X-37976Y-43807D02*
X-41232D01*
Y-46866D01*
X-37976D01*
Y-43807D01*
D02*
G37*
G36*
X-42232D02*
X-45488D01*
Y-46866D01*
X-42232D01*
Y-43807D01*
D02*
G37*
G36*
X-32570Y-44021D02*
X-33236D01*
X-33851Y-44276D01*
X-34321Y-44747D01*
X-34576Y-45362D01*
Y-46027D01*
X-34321Y-46643D01*
X-33851Y-47113D01*
X-33236Y-47368D01*
X-32570D01*
X-31955Y-47113D01*
X-31484Y-46643D01*
X-31230Y-46027D01*
Y-45362D01*
X-31484Y-44747D01*
X-31955Y-44276D01*
X-32570Y-44021D01*
D02*
G37*
G36*
X-33055Y-51756D02*
X-35032D01*
Y-53437D01*
X-33055D01*
Y-51756D01*
D02*
G37*
G36*
X6118Y3043D02*
X-1394D01*
Y-16D01*
Y-3043D01*
X2362D01*
X6118D01*
Y-16D01*
Y3043D01*
D02*
G37*
G36*
X28756Y-39279D02*
X27075D01*
Y-40370D01*
X28756D01*
Y-39279D01*
D02*
G37*
G36*
X15248Y-60343D02*
X11992D01*
Y-63402D01*
X15248D01*
Y-60343D01*
D02*
G37*
%LPD*%
D15*
X-35741Y47224D02*
X-33345Y49620D01*
X1919Y39790D02*
X2142Y40012D01*
X1919Y33907D02*
Y39790D01*
X4331Y42569D02*
Y42913D01*
X4065Y35610D02*
Y42303D01*
Y35610D02*
X6460Y33215D01*
X4065Y42303D02*
X4331Y42569D01*
X6460Y33215D02*
X7730D01*
X8071Y32874D01*
X1919Y33907D02*
X4581Y31246D01*
X-10430Y41145D02*
X-6529D01*
X-4553Y43121D01*
X-10433Y41142D02*
X-10430Y41145D01*
X30112Y44179D02*
Y46860D01*
X28793Y42860D02*
X30112Y44179D01*
X28793Y35791D02*
Y42860D01*
X6299Y51181D02*
X25791D01*
X30112Y46860D01*
X-33345Y49620D02*
X-25640D01*
X-22244Y46224D01*
Y41142D02*
Y46224D01*
X-31790Y16857D02*
Y20966D01*
X-28793Y23963D01*
Y27989D01*
X-28186Y28596D01*
X-26915D01*
X33321Y-27158D02*
Y-10108D01*
X31890Y-8677D02*
X33321Y-10108D01*
X31542Y-28937D02*
X33321Y-27158D01*
X26575Y-28937D02*
X31542D01*
X-5906Y44488D02*
Y48031D01*
X-6693Y43701D02*
X-5906Y44488D01*
X-10604Y52730D02*
X-5906Y48031D01*
X-11113Y43701D02*
X-6693D01*
X-12061Y42753D02*
X-11113Y43701D01*
X-15998Y41482D02*
Y42753D01*
X-10962Y47788D01*
X-10086D01*
X-16339Y41142D02*
X-15998Y41482D01*
X-10086Y47788D02*
X-9843Y48031D01*
X-11113Y45669D02*
X-7874D01*
X-14370Y41142D02*
X-14030Y41482D01*
Y42753D01*
X-11113Y45669D01*
X-10604Y52730D02*
Y61266D01*
X-8786Y63085D01*
X-5604D01*
X-2500Y59980D01*
X-12061Y41482D02*
Y42753D01*
X-12402Y41142D02*
X-12061Y41482D01*
X-8071Y38780D02*
X-5248D01*
X-3214Y36746D01*
X-10978Y10585D02*
X-9516D01*
X-9151Y10220D01*
X-4352D02*
X-984Y13587D01*
X-11220Y10827D02*
X-10978Y10585D01*
X-984Y13587D02*
Y32605D01*
X-9151Y10220D02*
X-4352D01*
X-3940Y34752D02*
X-3131D01*
X-984Y32605D01*
X-5999Y36811D02*
X-3940Y34752D01*
X-8071Y36811D02*
X-5999D01*
X-6460Y34502D02*
X-5423Y33465D01*
X-3665D02*
X-2454Y32253D01*
X-5423Y33465D02*
X-3665D01*
X-7730Y34502D02*
X-6460D01*
X-8071Y34843D02*
X-7730Y34502D01*
X-3629Y27033D02*
X-2454Y28208D01*
Y32253D01*
X-6460Y30565D02*
X-5217Y29321D01*
Y29039D02*
Y29321D01*
X-7730Y30565D02*
X-6460D01*
X-8071Y30906D02*
X-7730Y30565D01*
X-4587Y31667D02*
X-4377Y31457D01*
X-5570Y31667D02*
X-4587D01*
X-6436Y32533D02*
X-5570Y31667D01*
X-7730Y32533D02*
X-6436D01*
X-8071Y32874D02*
X-7730Y32533D01*
X3543Y26772D02*
X5368Y28596D01*
X3543Y15632D02*
Y26772D01*
Y15632D02*
X10075Y9100D01*
X5368Y28596D02*
X7730D01*
X10053Y17471D02*
X10474D01*
X14029Y21027D01*
X9810Y17228D02*
X10053Y17471D01*
X14029Y21027D02*
Y22297D01*
X12276Y16543D02*
X16339Y20606D01*
Y22638D01*
X6863Y17300D02*
X7106Y17057D01*
X9231Y14173D02*
X12625D01*
X7106Y16298D02*
Y17057D01*
Y16298D02*
X9231Y14173D01*
X11064Y20030D02*
X12061Y21027D01*
X9744Y19786D02*
X9987Y20030D01*
X11064D01*
X12625Y14173D02*
X14950Y16498D01*
X17375D01*
X21903Y21027D02*
Y22297D01*
X17375Y16498D02*
X21903Y21027D01*
Y22297D02*
X22244Y22638D01*
X14029Y22297D02*
X14370Y22638D01*
X10077Y46117D02*
X12338Y43856D01*
X10077Y46117D02*
Y48426D01*
X16339Y41142D02*
Y47455D01*
X16907Y48023D02*
Y48367D01*
X16339Y47455D02*
X16907Y48023D01*
X12986Y48419D02*
X12992Y48425D01*
X12986Y46244D02*
Y48419D01*
X4581Y31246D02*
X7730D01*
X8071Y30906D01*
X7730Y28596D02*
X8071Y28937D01*
X10075Y9100D02*
X10978D01*
X11220Y8858D01*
X12061Y22297D02*
X12402Y22638D01*
X12061Y21027D02*
Y22297D01*
X-3687Y-16679D02*
X-3543Y-16535D01*
X-34252Y-10630D02*
X-24513Y-891D01*
X-21716D01*
X-21197Y-1409D01*
X-14735D01*
X-33858Y9055D02*
X-25984Y1181D01*
X-21260D01*
X-20457Y378D01*
X-17491D01*
X-11650Y-16679D02*
X-3687D01*
X-34252Y-12598D02*
Y-10630D01*
X-12445Y20154D02*
X-12423Y20175D01*
X-5745Y-25840D02*
X-1825D01*
X-4070Y-27128D02*
X-1754Y-29444D01*
X-7911Y-27128D02*
X-4070D01*
X-4675Y-29921D02*
X-4331D01*
X-5726Y-31246D02*
X-2606Y-34366D01*
X-7730Y-31246D02*
X-5726D01*
X-8665Y-20419D02*
X-8218Y-20866D01*
X-11453Y-20419D02*
X-8665D01*
X-8218Y-20866D02*
X-7874D01*
X-15998Y-21027D02*
X-11650Y-16679D01*
X6255Y-21856D02*
X6299Y-21811D01*
X9449Y-19685D02*
X9692Y-19442D01*
X6255Y-23577D02*
Y-21856D01*
X5852Y-23980D02*
X6255Y-23577D01*
X5852Y-26020D02*
Y-23980D01*
Y-26020D02*
X6460Y-26628D01*
X-11945Y-18943D02*
X-7077D01*
X-6085Y-19935D01*
X-26915Y-35183D02*
X-26575Y-34843D01*
X-28186Y-35183D02*
X-26915D01*
X-28793Y-35791D02*
X-28186Y-35183D01*
X-28793Y-44520D02*
Y-35791D01*
X-22244Y36811D02*
X-18898Y33465D01*
X-14370Y20620D02*
Y22638D01*
X-14370Y22638D02*
X-14370Y22638D01*
X-14961Y20029D02*
X-14370Y20620D01*
X-14961Y19685D02*
Y20029D01*
X-12423Y20175D02*
Y22616D01*
X-12402Y22638D01*
X-26915Y28596D02*
X-26575Y28937D01*
X-16659Y20707D02*
Y22318D01*
X-16339Y22638D01*
X-16884Y20482D02*
X-16659Y20707D01*
X-16884Y18888D02*
Y20482D01*
Y18888D02*
X-15757Y17762D01*
X-11766D01*
X-9843Y19685D01*
X14370Y-28937D02*
X17323Y-31890D01*
X3966Y-27189D02*
X3990Y-27165D01*
X3966Y-27530D02*
Y-27189D01*
X3085Y-28411D02*
X3966Y-27530D01*
X3085Y-32896D02*
Y-28411D01*
Y-32896D02*
X5032Y-34843D01*
X8071D01*
X787Y-41339D02*
X3107Y-39019D01*
X1905Y-37732D02*
X4295D01*
X5216Y-36811D01*
X7831Y-39019D02*
X8071Y-38780D01*
X3107Y-39019D02*
X7831D01*
X787Y-36614D02*
X1905Y-37732D01*
X5332Y-29526D02*
X6400Y-30594D01*
X5008Y-29526D02*
X5332D01*
X6400Y-30594D02*
X7760D01*
X8071Y-30906D01*
X5092Y-32183D02*
X5436D01*
X6127Y-32874D01*
X8071D01*
X3543Y-24892D02*
Y-17194D01*
X787Y-36614D02*
Y-27648D01*
X3543Y-24892D01*
X15998Y-42753D02*
Y-41482D01*
X9538Y-49213D02*
X15998Y-42753D01*
Y-41482D02*
X16339Y-41142D01*
X4331Y-41339D02*
X10236D01*
X-2606Y-35977D02*
Y-34366D01*
Y-35977D02*
X-2362Y-36220D01*
X-4331Y-39622D02*
X-3543Y-40410D01*
X-4331Y-39622D02*
Y-35344D01*
X-6460Y-33215D02*
X-4331Y-35344D01*
X6460Y-26628D02*
X7730D01*
X8071Y-26969D01*
X11811Y-49243D02*
X12019Y-49451D01*
X12262Y-49208D01*
Y-48797D01*
X17113Y-43947D01*
X20709D01*
X21903Y-42753D01*
Y-41482D01*
X22244Y-41142D01*
X5020Y-45374D02*
X6057Y-46411D01*
X10371D01*
X5020Y-45374D02*
Y-45276D01*
X98Y-48819D02*
Y-45276D01*
Y-41732D01*
X5020Y-49213D02*
X9538D01*
X12061Y-42753D02*
Y-41482D01*
X7874Y-44488D02*
X10325D01*
X12061Y-42753D01*
Y-41482D02*
X12402Y-41142D01*
X14029Y-41482D02*
X14370Y-41142D01*
X10371Y-46411D02*
X14029Y-42753D01*
Y-41482D01*
X10236Y-41339D02*
X10433Y-41142D01*
X98Y-48819D02*
X492Y-49213D01*
X98Y-41732D02*
X492Y-41339D01*
X787D01*
X3543Y-17194D02*
X9669Y-11069D01*
X10978D02*
X11220Y-10827D01*
X5216Y-36811D02*
X8071D01*
X9669Y-11069D02*
X10978D01*
X-17071Y-17623D02*
X-16772Y-17323D01*
X-17652Y-19620D02*
X-17071Y-19040D01*
X-22171Y-19620D02*
X-17652D01*
X-17071Y-19040D02*
Y-17623D01*
X-28385Y-23362D02*
X-26068D01*
X-25147Y-22441D01*
X-28001Y-19132D02*
X-22659D01*
X-22171Y-19620D01*
X-29512Y-20642D02*
X-28001Y-19132D01*
X-29512Y-22235D02*
Y-20642D01*
Y-22235D02*
X-28385Y-23362D01*
X-25147Y-22441D02*
X-24803D01*
X18898Y-33465D02*
X22244Y-36811D01*
X-27589Y-21439D02*
X-27314D01*
X-26295Y-20419D01*
X-23192D01*
X-22585Y-22297D02*
Y-21027D01*
Y-22297D02*
X-22244Y-22638D01*
X-23192Y-20419D02*
X-22585Y-21027D01*
X-7650Y-49830D02*
X-2500Y-54980D01*
X-23483Y-49830D02*
X-7650D01*
X-28793Y-44520D02*
X-23483Y-49830D01*
X-11811Y-37402D02*
Y-37008D01*
X-9154Y-43012D02*
X-9064D01*
X-5852Y-39800D01*
X-6460Y-37152D02*
X-5852Y-37759D01*
X-7730Y-37152D02*
X-6460D01*
X-5852Y-39800D02*
Y-37759D01*
X-8071Y-36811D02*
X-7730Y-37152D01*
X-16339Y-22638D02*
X-15998Y-22297D01*
Y-21027D01*
X-3543Y-40551D02*
Y-40410D01*
X-8071Y-32874D02*
X-7730Y-33215D01*
X-6460D01*
X-8071Y-30906D02*
X-7730Y-31246D01*
X-5659Y-28937D02*
X-4675Y-29921D01*
X-8071Y-28937D02*
X-5659D01*
X-8071Y-26969D02*
X-7911Y-27128D01*
X394Y-23622D02*
X689D01*
X-1825Y-25840D02*
X394Y-23622D01*
X-6245Y-25341D02*
X-5745Y-25840D01*
X-7730Y-25341D02*
X-6245D01*
X-8071Y-25000D02*
X-7730Y-25341D01*
X-4089Y-23372D02*
X-3839Y-23622D01*
X-10092Y-23372D02*
X-4089D01*
X-10433Y-23031D02*
Y-22638D01*
Y-23031D02*
X-10092Y-23372D01*
X-6085Y-19935D02*
X-4089D01*
X-3839Y-19685D01*
X-14029Y-21027D02*
X-11945Y-18943D01*
X-14029Y-22297D02*
Y-21027D01*
X-14370Y-22638D02*
X-14029Y-22297D01*
X-12402Y-22638D02*
X-12061Y-22297D01*
Y-21027D01*
X-11453Y-20419D01*
X12338Y41205D02*
X12402Y41142D01*
X12338Y41205D02*
Y43856D01*
X12303Y-22539D02*
Y-19783D01*
X12205Y-19685D02*
X12303Y-19783D01*
Y-22539D02*
X12402Y-22638D01*
X-10002Y-46452D02*
Y-45903D01*
X-12402Y-43504D02*
Y-41142D01*
Y-43504D02*
X-10002Y-45903D01*
Y-46452D02*
X-9759Y-46695D01*
X14370Y41142D02*
Y44860D01*
X12986Y46244D02*
X14370Y44860D01*
Y-20620D02*
X14961Y-20029D01*
X14370Y-22638D02*
Y-20620D01*
Y-22638D02*
X14370Y-22638D01*
X14961Y-20029D02*
Y-19685D01*
X-14029Y-42366D02*
X-14029Y-42366D01*
X-14029Y-42366D02*
Y-41482D01*
X-14370Y-41142D02*
X-14029Y-41482D01*
X-14029Y-45646D02*
X-12432Y-47244D01*
X-14029Y-45646D02*
Y-42366D01*
X16339Y-22638D02*
X16679Y-22297D01*
X9692Y-19442D02*
Y-18654D01*
X10630Y-17717D02*
X16142D01*
X9692Y-18654D02*
X10630Y-17717D01*
X16679Y-22297D02*
Y-21027D01*
X17323Y-20383D01*
X16142Y-17717D02*
X17323Y-18898D01*
Y-20383D02*
Y-18898D01*
X-16339Y-41142D02*
X-16240Y-41240D01*
Y-46539D02*
Y-41240D01*
Y-46539D02*
X-15021Y-47759D01*
Y-47907D02*
Y-47759D01*
X28186Y35183D02*
X28793Y35791D01*
X26915Y35183D02*
X28186D01*
X26575Y34843D02*
X26915Y35183D01*
X-10075Y6648D02*
X-8949Y5521D01*
X-10978Y6648D02*
X-10075D01*
X-8949Y3256D02*
Y5521D01*
X-11220Y6890D02*
X-10978Y6648D01*
X2500Y54980D02*
X6299Y51181D01*
X-23868Y12769D02*
X-19965Y8866D01*
X-23868Y12769D02*
Y14026D01*
X-14735Y-1409D02*
X-11705Y-4440D01*
X-17491Y378D02*
X-16688Y1181D01*
X-11024D01*
X-8949Y3256D01*
X14626Y1205D02*
X29669D01*
X11705Y4126D02*
X14626Y1205D01*
X12057Y-583D02*
X28929D01*
X8661Y-3978D02*
X12057Y-583D01*
X-24016Y14173D02*
X-23868Y14026D01*
X-19965Y8866D02*
X-18709D01*
X-18701Y8858D01*
X11220Y4921D02*
X11697D01*
X11705Y4913D01*
Y4126D02*
Y4913D01*
X9247Y-6882D02*
X11213D01*
X8661Y-6296D02*
Y-3978D01*
Y-6296D02*
X9247Y-6882D01*
X-26181Y4921D02*
X-18701D01*
X-30709Y9449D02*
X-26181Y4921D01*
X-11705Y-4913D02*
Y-4440D01*
Y-4913D02*
X-11697Y-4921D01*
X-11220D01*
X30709Y1181D02*
X32677Y3150D01*
X29693Y1181D02*
X30709D01*
X29669Y1205D02*
X29693Y1181D01*
X29717Y4913D02*
X30709Y5906D01*
X22444Y4913D02*
X29717D01*
X20468Y6890D02*
X22444Y4913D01*
X18701Y6890D02*
X20468D01*
X18709Y10835D02*
X22524D01*
X18701Y10827D02*
X18709Y10835D01*
X22524D02*
X22638Y10949D01*
X11213Y-6882D02*
X11220Y-6890D01*
X28929Y-583D02*
X32677Y-4331D01*
X-64961Y-51181D02*
X-64925Y-52164D01*
X-64820Y-53142D01*
X-64646Y-54110D01*
X-64403Y-55063D01*
X-64092Y-55997D01*
X-63715Y-56905D01*
X-63275Y-57785D01*
X-62773Y-58631D01*
X-62212Y-59439D01*
X-61595Y-60205D01*
X-60925Y-60925D01*
X-60205Y-61595D01*
X-59439Y-62212D01*
X-58631Y-62773D01*
X-57785Y-63275D01*
X-56905Y-63715D01*
X-55997Y-64092D01*
X-55063Y-64403D01*
X-54110Y-64646D01*
X-53142Y-64820D01*
X-52164Y-64925D01*
X-51181Y-64961D01*
X51181D02*
X52164Y-64925D01*
X53142Y-64820D01*
X54110Y-64646D01*
X55063Y-64403D01*
X55997Y-64092D01*
X56905Y-63715D01*
X57785Y-63275D01*
X58631Y-62773D01*
X59439Y-62212D01*
X60205Y-61595D01*
X60925Y-60925D01*
X61595Y-60205D01*
X62212Y-59439D01*
X62773Y-58631D01*
X63275Y-57785D01*
X63715Y-56905D01*
X64092Y-55997D01*
X64403Y-55063D01*
X64646Y-54110D01*
X64820Y-53142D01*
X64925Y-52164D01*
X64961Y-51181D01*
Y51181D02*
X64925Y52164D01*
X64820Y53142D01*
X64646Y54110D01*
X64403Y55063D01*
X64092Y55997D01*
X63715Y56905D01*
X63275Y57785D01*
X62773Y58631D01*
X62212Y59439D01*
X61595Y60205D01*
X60925Y60925D01*
X60205Y61595D01*
X59439Y62212D01*
X58631Y62773D01*
X57785Y63275D01*
X56905Y63715D01*
X55997Y64092D01*
X55063Y64403D01*
X54110Y64646D01*
X53142Y64820D01*
X52164Y64925D01*
X51181Y64961D01*
X-51181D02*
X-52164Y64925D01*
X-53142Y64820D01*
X-54110Y64646D01*
X-55063Y64403D01*
X-55997Y64092D01*
X-56905Y63715D01*
X-57785Y63275D01*
X-58631Y62773D01*
X-59439Y62212D01*
X-60205Y61595D01*
X-60925Y60925D01*
X-61595Y60205D01*
X-62212Y59439D01*
X-62773Y58631D01*
X-63275Y57785D01*
X-63715Y56905D01*
X-64092Y55997D01*
X-64403Y55063D01*
X-64646Y54110D01*
X-64820Y53142D01*
X-64925Y52164D01*
X-64961Y51181D01*
X-51181Y64961D02*
X51181D01*
X64961Y-51181D02*
Y51181D01*
X-51181Y-64961D02*
X51181D01*
X-64960Y-51181D02*
Y51181D01*
D16*
X8071Y34843D02*
X14370D01*
X14173Y6496D02*
X14961D01*
X35078Y-57193D02*
X35925D01*
X22835Y-62598D02*
X28346D01*
X14711Y-7624D02*
X14961Y-7374D01*
X17323Y-62598D02*
X22835D01*
X17323D02*
Y-59842D01*
X15748D02*
X17323D01*
X-15945Y6496D02*
X-14961D01*
X-15157Y8071D02*
X-14961Y8268D01*
X-15453Y7669D02*
Y7874D01*
X-38583Y12992D02*
X-37213Y11622D01*
X-13976Y-34843D02*
X-8071D01*
X-24016Y-8858D02*
Y-7874D01*
Y-10866D02*
Y-8858D01*
X-18701D01*
X-29921Y-12598D02*
Y-10706D01*
X-24916Y-5701D01*
X-18701Y15124D02*
X-4695D01*
X-25701Y16346D02*
X-19923D01*
X-18701Y15124D01*
Y10827D02*
Y15124D01*
X-33071Y53642D02*
Y54410D01*
X-32835Y54646D01*
X-39835Y45051D02*
X-34476D01*
X33752Y52665D02*
X34293D01*
X39476Y45760D02*
Y49500D01*
X34293Y52665D02*
X35490Y51468D01*
X37508D02*
X39476Y49500D01*
X35490Y51468D02*
X37508D01*
X6357Y36902D02*
X7980D01*
X5602Y37656D02*
X6357Y36902D01*
X5602Y37656D02*
Y39903D01*
X6357Y40657D01*
X8298D01*
X42028Y53937D02*
X42667Y54577D01*
X44734D02*
X44882Y54724D01*
X42667Y54577D02*
X44734D01*
X-44526Y38621D02*
X-44193Y38954D01*
Y45276D01*
X-40059D02*
X-39835Y45051D01*
X-34476D02*
X-32677Y46850D01*
X-36694Y59959D02*
X-35720Y60933D01*
X-36694Y59566D02*
Y59959D01*
X-38386Y57874D02*
X-36694Y59566D01*
X-38681Y57874D02*
X-38386D01*
X-25197Y60138D02*
Y60252D01*
X-25878Y60933D02*
X-25197Y60252D01*
X-35720Y60933D02*
X-25878D01*
X-37500Y53937D02*
X-37205D01*
X-36524Y54618D02*
Y55204D01*
X-36524Y55204D02*
Y55209D01*
X-36524Y55204D02*
X-36524Y55204D01*
X-37205Y53937D02*
X-36524Y54618D01*
X-34539Y57193D02*
X-33752D01*
X-33071Y57874D01*
Y58169D01*
X-36524Y55209D02*
X-34539Y57193D01*
X-33964Y19192D02*
Y27847D01*
Y19192D02*
X-33858Y19087D01*
X-33964Y27847D02*
X-33071Y28740D01*
X-22154Y20197D02*
Y22547D01*
X-21654Y19291D02*
Y19697D01*
X-22154Y20197D02*
X-21654Y19697D01*
X-25197D02*
X-24303Y20591D01*
Y22547D02*
X-24213Y22638D01*
X-24303Y20591D02*
Y22547D01*
X-25197Y19291D02*
Y19697D01*
X-22244Y22638D02*
X-22154Y22547D01*
X41535Y43701D02*
X41732D01*
X39476Y45760D02*
X41535Y43701D01*
X33071Y53347D02*
Y53642D01*
Y53347D02*
X33752Y52665D01*
X41626Y-43709D02*
Y-42380D01*
X42823Y-41183D01*
Y-40248D01*
X44094Y-38976D01*
X40846Y-44488D02*
X41626Y-43709D01*
X44980Y-44488D02*
X51181D01*
X36723Y-44882D02*
X37471Y-44134D01*
X30884Y-44882D02*
X36723D01*
X37471Y-44134D02*
X37680D01*
X40953Y-51862D02*
X43201D01*
X40453Y-52362D02*
X40953Y-51862D01*
X59555Y-53437D02*
Y-51575D01*
X54724Y-58268D02*
X59555Y-53437D01*
X49606Y-58268D02*
X54724D01*
X43201Y-51862D02*
X49606Y-58268D01*
X33563Y-48819D02*
X34949Y-50205D01*
Y-51681D02*
Y-50205D01*
Y-51681D02*
X35630Y-52362D01*
X35925D01*
X24992Y-48819D02*
X33563D01*
X24492Y-48319D02*
X24992Y-48819D01*
X22098Y-48319D02*
X24492D01*
X21811Y-48031D02*
X22098Y-48319D01*
X35925Y-57193D02*
Y-52362D01*
X35078Y-57193D02*
X35759Y-57874D01*
X35925D01*
Y-61811D02*
Y-57874D01*
X28859Y-42856D02*
X30884Y-44882D01*
X19439Y-14419D02*
X21199D01*
X19291Y-14567D02*
X19439Y-14419D01*
X21199D02*
X22835Y-12783D01*
X29247Y-6504D02*
X33577D01*
X33667Y-6415D01*
X34203D02*
X34350Y-6267D01*
X33667Y-6415D02*
X34203D01*
X27672Y-4929D02*
X29247Y-6504D01*
X20360Y-4929D02*
X27672D01*
X-22835Y-62598D02*
X-17323D01*
X-29528Y41339D02*
Y43937D01*
Y41339D02*
X-29331Y41142D01*
X-29528Y47402D02*
X-29409Y47520D01*
X-26496D01*
X-26378Y47638D01*
X-14370Y28937D02*
X-8071D01*
X5352Y20877D02*
X6238Y19991D01*
X5352Y25874D02*
X6357Y26878D01*
X5352Y20877D02*
Y25874D01*
X6238Y19782D02*
Y19991D01*
X6357Y26878D02*
X7980D01*
X8071Y26969D01*
X-8071Y26969D02*
X-7980Y26878D01*
X-6357D01*
X-5602Y26124D01*
Y22559D02*
Y26124D01*
X-5906Y22256D02*
X-5602Y22559D01*
X-5906Y22047D02*
Y22256D01*
X24213Y-22638D02*
Y-20669D01*
X25984Y-18898D01*
X21185Y44413D02*
X21654Y44882D01*
X21185Y44413D02*
X22244Y43354D01*
X14961Y13780D02*
X15169D01*
X14752D02*
X14961D01*
X22244Y41142D02*
Y43354D01*
X17331Y12606D02*
X17846Y13122D01*
X17255Y12606D02*
X17331D01*
X16232Y9146D02*
Y11583D01*
X17846Y13122D02*
X25224D01*
X16232Y11583D02*
X17255Y12606D01*
X11705Y11705D02*
X12606Y12606D01*
X13579D02*
X14752Y13780D01*
X12606Y12606D02*
X13579D01*
X15169Y13780D02*
X16351Y14961D01*
X24961D01*
X25905Y15905D02*
X25984D01*
X24961Y14961D02*
X25905Y15905D01*
X7980Y36902D02*
X8071Y36811D01*
X8298Y40657D02*
X8782Y41142D01*
X10433D01*
X11705Y10835D02*
Y11705D01*
X-9788Y8682D02*
X-7501D01*
X-4724Y5906D01*
X-9815Y-13250D02*
X-9667Y-13102D01*
X-9815Y-13250D02*
Y-13041D01*
X-20844Y-12227D02*
X-20785D01*
X-20785D01*
X-24016Y-14331D02*
X-21755D01*
X-21685Y-14400D01*
X-19885D01*
X-24016Y-7874D02*
X-23807D01*
X-24916Y-5701D02*
X-23115D01*
X-21927Y-6890D01*
X-19355Y2551D02*
X-19207Y2699D01*
X-24016Y-10866D02*
X-23937D01*
X-21927Y-6890D02*
X-18701D01*
X-19885Y-14400D02*
X-19816Y-14331D01*
X-19207Y2699D02*
X-17698D01*
X-20785Y-12227D02*
X-19393Y-10835D01*
X-19816Y-14331D02*
X-16772D01*
X8162Y4320D02*
X11024Y1457D01*
X14173Y-6496D02*
Y-3150D01*
X-3543Y-23327D02*
Y-23228D01*
X6299Y-21811D02*
X6378D01*
X6299Y-21811D02*
X6299Y-21811D01*
X-9667Y-13102D02*
X-9165D01*
X-8949Y-12175D02*
Y-9873D01*
X-9815Y-13041D02*
X-8949Y-12175D01*
X-2522Y14224D02*
Y16024D01*
X-4750Y11995D02*
X-2522Y14224D01*
X-8207Y11995D02*
X-4750D01*
X-16232Y6890D02*
X-15453Y7669D01*
X-8563Y12143D02*
X-8354D01*
X-8207Y11995D01*
X-2705Y16207D02*
X-2522Y16024D01*
X-21260Y53354D02*
X-18910D01*
X-18402Y52846D02*
X-16051D01*
X-22975Y53354D02*
X-21260D01*
X-23483Y52846D02*
X-22975Y53354D01*
X-21260D02*
Y55610D01*
X-28453Y52846D02*
X-23483D01*
X-18910Y53354D02*
X-18402Y52846D01*
X-29331Y41142D02*
X-24213D01*
X-16051Y52846D02*
X-14067Y54831D01*
X25984Y15905D02*
Y20866D01*
X24303Y21957D02*
X24894D01*
X25984Y20866D01*
X24213Y22047D02*
X24303Y21957D01*
X24213Y22047D02*
Y22638D01*
X29921Y15905D02*
X29921Y15905D01*
X25984Y15905D02*
X29921D01*
X25905Y12441D02*
X25984D01*
X25224Y13122D02*
X25905Y12441D01*
X15945Y8858D02*
X16232Y9146D01*
X16199Y52846D02*
X21260D01*
X13386Y56791D02*
X14067Y56110D01*
Y54979D02*
X16199Y52846D01*
X14067Y54979D02*
Y56110D01*
X-24213Y41142D02*
X-24122Y41232D01*
X26484Y25091D02*
X26575Y25000D01*
X25352Y25091D02*
X26484D01*
X25336Y25106D02*
X25352Y25091D01*
X24106Y25106D02*
X25336D01*
X22441Y26772D02*
X24106Y25106D01*
X22047Y26772D02*
X22441D01*
X17323Y31890D02*
X22047Y27165D01*
Y26772D02*
Y27165D01*
X-25352Y38689D02*
X-25336Y38673D01*
X-26575Y38780D02*
X-26484Y38689D01*
X-24106Y38673D02*
X-22244Y36811D01*
X-25336Y38673D02*
X-24106D01*
X-26484Y38689D02*
X-25352D01*
X8071Y-28937D02*
X14370D01*
X-26575Y36811D02*
X-22244D01*
X-19094Y36811D02*
X-18898Y37008D01*
X-22244Y36811D02*
X-19094D01*
X-29528Y30709D02*
Y41339D01*
X-31496Y28740D02*
X-29528Y30709D01*
X-33071Y28740D02*
X-31496D01*
X-10433Y22433D02*
Y22638D01*
Y22433D02*
X-10343Y22343D01*
X-6201D02*
X-5906Y22047D01*
X-10343Y22343D02*
X-6201D01*
X-24213Y41142D02*
X-24122Y41232D01*
X-18701Y-8858D02*
X-15945D01*
X24213Y-42520D02*
Y-41142D01*
Y-43898D02*
Y-42520D01*
X24549Y-42856D02*
X28859D01*
X24213Y-42520D02*
X24549Y-42856D01*
X22626Y-45484D02*
X24213Y-43898D01*
X20097Y-45484D02*
X22626D01*
X19027Y-46553D02*
X20097Y-45484D01*
X19027Y-47350D02*
Y-46553D01*
X18346Y-48031D02*
X19027Y-47350D01*
X8162Y4320D02*
Y5875D01*
X689Y-23622D02*
X689Y-23622D01*
X689Y-23622D02*
Y-19685D01*
Y-15748D01*
X22244Y-36811D02*
X23614Y-38181D01*
X25386D02*
X25984Y-38780D01*
X23614Y-38181D02*
X25386D01*
X25984Y-38780D02*
X26575D01*
X17323Y-31890D02*
X18898Y-33465D01*
X22244Y-36811D02*
X26575D01*
X22244Y26969D02*
X26575D01*
X-24705Y-22539D02*
X-24303D01*
X-24213Y-22638D02*
Y-22630D01*
X-24803Y-22441D02*
X-24705Y-22539D01*
X-24303D02*
X-24213Y-22630D01*
X-16772Y-17323D02*
Y-14331D01*
X-9154Y-43012D02*
X-7374Y-44791D01*
X-10433Y-41732D02*
X-9154Y-43012D01*
X-22244Y-26969D02*
X-17323Y-31890D01*
X-23614Y-25598D02*
X-22244Y-26969D01*
X-26575Y-25000D02*
X-25984D01*
X-25386Y-25598D01*
X-23614D01*
X-26575Y-26969D02*
X-22244D01*
X-15354Y-33465D02*
X-13976Y-34843D01*
X-3839Y-23622D02*
X-3543Y-23327D01*
X24213Y41142D02*
Y43603D01*
X25197Y44587D01*
Y44882D01*
X-14961Y8268D02*
X-14370Y8858D01*
X-14961Y8268D02*
Y12351D01*
Y7874D02*
Y8268D01*
Y12351D02*
X-14375Y12937D01*
X-9357D01*
X-8563Y12143D01*
X-27165Y11496D02*
X-27087D01*
X-22480Y6890D01*
X-18701D01*
X-9956Y8850D02*
X-9788Y8682D01*
X-11220Y8858D02*
X-11213Y8850D01*
X-9956D01*
X1826Y48106D02*
X1973Y47959D01*
X1751Y48031D02*
X1826Y48106D01*
X2356Y47959D02*
X4173Y46142D01*
X1973Y47959D02*
X2356D01*
X4173Y46063D02*
Y46142D01*
X-3386Y18898D02*
X-2705Y18216D01*
Y16207D02*
Y18216D01*
X6378Y-18347D02*
X9760Y-14965D01*
X12043D02*
X12441Y-14567D01*
X6299Y-18347D02*
X6378D01*
X9760Y-14965D02*
X12043D01*
X-29809Y11622D02*
X-29682Y11496D01*
X-37213Y11622D02*
X-29809D01*
X-29682Y11496D02*
X-27165D01*
X-27087Y14961D02*
X-25701Y16346D01*
X-27165Y14961D02*
X-27087D01*
X-5906Y21838D02*
Y22047D01*
X-6169Y21575D02*
X-5906Y21838D01*
X-6169Y19579D02*
Y21575D01*
X-6850Y18898D02*
X-6169Y19579D01*
X-17698Y2699D02*
X-16232Y4165D01*
X-26705Y-13059D02*
X-26608D01*
X-26399D01*
X-25809Y-13650D01*
X-24697D01*
X-24016Y-14331D01*
X-14657Y-14260D02*
X-11705Y-11308D01*
X-16772Y-14331D02*
X-14727D01*
X-16772D02*
X-16772Y-14331D01*
X-11705Y-11308D02*
Y-10835D01*
X-11697Y-10827D02*
X-11220D01*
X-11705Y-10835D02*
X-11697Y-10827D01*
X-9956Y-8866D02*
X-8949Y-9873D01*
X-11213Y-8866D02*
X-9956D01*
X-11220Y-8858D02*
X-11213Y-8866D01*
X-19393Y-10835D02*
X-18709D01*
X-18701Y-10827D01*
X15905Y-14567D02*
Y-14488D01*
Y-14646D02*
Y-14567D01*
Y-14488D02*
X17825Y-12568D01*
X18216D01*
X13122Y-13089D02*
X13689Y-12522D01*
X12441Y-14567D02*
X13122Y-13886D01*
Y-13089D01*
X13689Y-12522D02*
Y-9146D01*
X15905Y-14646D02*
X18000Y-16740D01*
X14961Y-7374D02*
X15445Y-6890D01*
X14961Y-7374D02*
Y-7283D01*
Y-7874D02*
Y-7374D01*
X13976Y-8858D02*
X14961Y-7874D01*
X13689Y-9146D02*
X13976Y-8858D01*
X24803Y-10581D02*
Y-10421D01*
Y-10630D02*
Y-10581D01*
X24213Y-8366D02*
X24360Y-8514D01*
Y-9978D02*
Y-8514D01*
Y-9978D02*
X24803Y-10421D01*
Y-10581D02*
X26969Y-8415D01*
Y-8366D01*
X20756Y-16207D02*
X21939D01*
X24803Y-13343D02*
Y-10630D01*
X18000Y-16740D02*
X20223D01*
X20756Y-16207D01*
X21939D02*
X24803Y-13343D01*
X18216Y-12568D02*
Y-10835D01*
X18224Y-10827D01*
X18701D01*
X22835Y-12783D02*
Y-11736D01*
X19965Y-8866D02*
X22835Y-11736D01*
X18709Y-8866D02*
X19965D01*
X18701Y-8858D02*
X18709Y-8866D01*
X24213Y-8366D02*
X26969D01*
X14961Y7874D02*
X15945Y8858D01*
X11697Y10827D02*
X11705Y10835D01*
X11220Y10827D02*
X11697D01*
X-18110Y56693D02*
X-17421D01*
X-17323Y56791D01*
X-39264Y62902D02*
X-18610D01*
X-17323Y61614D01*
Y61319D02*
Y61614D01*
X-17323Y61319D02*
X-13386D01*
X-17323Y61319D02*
X-17323Y61319D01*
X-39264Y62016D02*
Y62902D01*
X-39469Y61811D02*
X-39264Y62016D01*
X-18701Y6890D02*
X-16232D01*
X-14370Y8858D02*
X-11220D01*
X-11228Y4929D02*
X-11220Y4921D01*
X-13394Y4929D02*
X-11228D01*
X-14961Y6496D02*
X-13394Y4929D01*
X-16232Y6602D02*
X-14961Y7874D01*
X-16232Y4165D02*
Y6602D01*
X-15945Y-8858D02*
X-14961Y-7874D01*
X-18701Y-4921D02*
X-18693Y-4929D01*
X-16528D01*
X-14961Y-6496D01*
Y-7874D02*
Y-6496D01*
X-13976Y-6890D02*
X-11220D01*
X-14961Y-7874D02*
X-13976Y-6890D01*
X18693Y4929D02*
X18701Y4921D01*
X16528Y4929D02*
X18693D01*
X14961Y6496D02*
X16528Y4929D01*
X13976Y6890D02*
X14961Y7874D01*
X11220Y6890D02*
X13976D01*
X15945Y8858D02*
X18701D01*
X9169Y6882D02*
X11213D01*
X11220Y6890D01*
X8162Y5875D02*
X9169Y6882D01*
X11220Y-8858D02*
X13976D01*
X15445Y-6890D02*
X18701D01*
X14173Y-6496D02*
X14961Y-7283D01*
X11224Y-4921D02*
X11232Y-4929D01*
X11220Y-4921D02*
X11224D01*
X11232Y-4929D02*
X12606D01*
X14173Y-6496D01*
X20352Y-4921D02*
X20360Y-4929D01*
X18701Y-4921D02*
X20352D01*
X-48779Y-19390D02*
Y-18288D01*
X-48728Y-7620D02*
Y-5735D01*
X38870Y62410D02*
Y62902D01*
Y62410D02*
X39469Y61811D01*
X19443Y62902D02*
X38870D01*
X17592Y61050D02*
X19443Y62902D01*
X38779Y57874D02*
X39075D01*
X35720Y60933D02*
X38779Y57874D01*
X25878Y60933D02*
X35720D01*
X25197Y60252D02*
X25878Y60933D01*
X25197Y60138D02*
Y60252D01*
X21260Y60138D02*
X25197D01*
X-25197Y-44870D02*
X-24213Y-43885D01*
X-25197Y-44882D02*
Y-44870D01*
X-24213Y-43885D02*
Y-41142D01*
X-22244Y-43885D02*
X-21654Y-44476D01*
X-22244Y-43885D02*
Y-41142D01*
X-21654Y-44882D02*
Y-44476D01*
X21654Y-19304D02*
Y-18898D01*
X22244Y-22638D02*
Y-19894D01*
X21654Y-19304D02*
X22244Y-19894D01*
X50984Y-33957D02*
X51119Y-33822D01*
Y-31591D02*
X51266Y-31444D01*
X51119Y-33822D02*
Y-31591D01*
X50984Y-27067D02*
X53333Y-29415D01*
Y-29613D02*
Y-29415D01*
X50512Y-27067D02*
X50984D01*
X-51311Y33630D02*
X-50984Y33957D01*
X-50512D01*
X-52937Y31430D02*
Y31532D01*
X-51311Y33158D02*
Y33630D01*
X-52937Y31532D02*
X-51311Y33158D01*
X-53198Y-44143D02*
X-53137D01*
X-53089Y-44094D02*
X-52756D01*
X-53137Y-44143D02*
X-53089Y-44094D01*
X-52953Y-29528D02*
X-52756D01*
X-52756Y-29528D01*
X-52805Y-14321D02*
X-50984Y-12500D01*
X-52805Y-14813D02*
Y-14321D01*
X-52953Y-14961D02*
X-52805Y-14813D01*
X-50984Y-12500D02*
X-50512D01*
X-52214Y3593D02*
X-50984Y4823D01*
X-52214Y2116D02*
Y3593D01*
X-52362Y1969D02*
X-52214Y2116D01*
X-50984Y4823D02*
X-50512D01*
X51764Y-16901D02*
X51940D01*
X51616Y-17048D02*
X51764Y-16901D01*
X51616Y-18285D02*
Y-17048D01*
X51311Y-18590D02*
X51616Y-18285D01*
X51311Y-19063D02*
Y-18590D01*
X50984Y-19390D02*
X51311Y-19063D01*
X50512Y-19390D02*
X50984D01*
X51771Y-2334D02*
X51941D01*
X51311Y-3004D02*
X51771Y-2543D01*
Y-2334D01*
X51311Y-4496D02*
Y-3004D01*
X50984Y-4823D02*
X51311Y-4496D01*
X50512Y-4823D02*
X50984D01*
X51772Y14988D02*
X51968Y14791D01*
X51772Y14780D02*
Y14988D01*
X51311Y14319D02*
X51772Y14780D01*
X51311Y12827D02*
Y14319D01*
X50984Y12500D02*
X51311Y12827D01*
X50512Y12500D02*
X50984D01*
X52704Y29400D02*
X52756Y29452D01*
X52556Y29253D02*
X52704Y29400D01*
X52556Y28639D02*
Y29253D01*
X50984Y27067D02*
X52556Y28639D01*
X50512Y27067D02*
X50984D01*
Y41634D02*
X52214Y42864D01*
Y43947D01*
X52362Y44094D01*
X50512Y41634D02*
X50984D01*
X-53543Y-62992D02*
X-43701D01*
X-56667Y-59868D02*
X-53543Y-62992D01*
X-43701D02*
X-42520Y-61811D01*
X-40059D01*
X42274Y-61565D02*
X44417D01*
X45655Y-62803D01*
X42126Y-61417D02*
X42274Y-61565D01*
X54520Y-62803D02*
X57087Y-60236D01*
X45655Y-62803D02*
X54520D01*
X-41831Y-37008D02*
X-41732D01*
X43898Y31299D02*
X44882Y30315D01*
X43898Y31299D02*
Y31701D01*
X44882Y-30315D02*
X44882D01*
X43177D02*
X44882D01*
X-44882Y38976D02*
X-44526Y38621D01*
X-44882Y38976D02*
X-44882Y38976D01*
Y38976D01*
X-28346Y-62598D02*
X-22835D01*
X29921Y-59842D02*
X30315Y-60236D01*
X29528D02*
X29921Y-59842D01*
X28346Y-61417D02*
X29528Y-60236D01*
X22835D02*
Y-59842D01*
Y-62598D02*
Y-60236D01*
X28346Y-62598D02*
Y-61417D01*
X-52646Y17728D02*
X-50984Y19390D01*
X-52646Y17039D02*
Y17728D01*
X-52756Y16929D02*
X-52646Y17039D01*
X-50984Y19390D02*
X-50512D01*
X47717Y17462D02*
Y19370D01*
X47736Y19390D02*
X50512D01*
X47717Y19370D02*
X47736Y19390D01*
X-47946Y-17454D02*
Y-17245D01*
X-48779Y-18288D02*
X-47946Y-17454D01*
X-50512Y-4823D02*
X-50474D01*
X-50148Y-4496D01*
Y-2471D01*
X-50000Y-2323D01*
X24122Y-41232D02*
X24213Y-41142D01*
X-48728Y-7620D02*
X-47687Y-8661D01*
X-47244D01*
X-50185Y-5150D02*
X-49314D01*
X-48728Y-5735D01*
X-50512Y-4823D02*
X-50185Y-5150D01*
X-48797Y-10268D02*
X-48146Y-10919D01*
X-46941D02*
X-45177Y-12683D01*
Y-12992D02*
Y-12683D01*
X-48146Y-10919D02*
X-46941D01*
X-50185Y-10268D02*
X-48797D01*
X-50512Y-9941D02*
X-50185Y-10268D01*
X-44526Y38621D02*
Y38621D01*
X-44882Y38976D02*
X-44882D01*
X-52646Y-43295D02*
X-50984Y-41634D01*
X-50512D01*
X-52646Y-43984D02*
Y-43295D01*
X-52756Y-44094D02*
X-52646Y-43984D01*
X42016Y-61527D02*
X42126Y-61417D01*
X40736Y-61527D02*
X42016D01*
X40453Y-61811D02*
X40736Y-61527D01*
X41134Y-58555D02*
X44480D01*
X40453Y-57874D02*
X41134Y-58555D01*
X44480D02*
X46555Y-60630D01*
X-44480Y-58555D02*
X-40740D01*
X-40059Y-57874D01*
X-46555Y-60630D02*
X-44480Y-58555D01*
X-44776Y-54618D02*
X-40740D01*
X-40059Y-53937D01*
X-48031Y-57874D02*
X-44776Y-54618D01*
X-54331Y-57874D02*
X-48031D01*
X-59839Y-52366D02*
X-54331Y-57874D01*
X-59839Y-52366D02*
Y-51685D01*
X-59949Y-51575D02*
X-59839Y-51685D01*
X-10433Y-41732D02*
Y-41142D01*
Y-41732D02*
X-10433Y-41732D01*
X-7374Y-45146D02*
X-6850Y-45669D01*
X-7374Y-45146D02*
Y-44791D01*
X-10433Y-41732D02*
Y-41732D01*
X59055Y-37951D02*
X59449Y-38344D01*
X59055Y-37951D02*
Y-37795D01*
X6299Y-21811D02*
Y-21811D01*
X35539Y55602D02*
X37205Y53937D01*
X37500D01*
X35539Y55602D02*
Y56390D01*
X34736Y57193D02*
X35539Y56390D01*
X33752Y57193D02*
X34736D01*
X33071Y57874D02*
X33752Y57193D01*
X33071Y57874D02*
Y58169D01*
X33071Y58169D02*
X33071Y58169D01*
X-14067Y55815D02*
X-13386Y56496D01*
X-14067Y54831D02*
Y55815D01*
X-13386Y56496D02*
Y56693D01*
X21260Y52846D02*
X28453D01*
X21260D02*
Y55610D01*
X28453Y52846D02*
X29134Y53528D01*
X13386Y56496D02*
Y56791D01*
X29134Y53528D02*
Y53642D01*
X-29134Y53528D02*
Y53642D01*
Y53528D02*
X-28453Y52846D01*
X-25197Y55610D02*
Y55905D01*
X-29134Y58169D02*
X-29134Y58169D01*
Y58169D02*
Y58169D01*
X-21260Y60138D02*
Y60138D01*
X-13386Y61319D02*
X-13386D01*
X-13386Y61319D01*
X-13386Y61319D02*
X-13386Y61319D01*
X-29134Y58169D02*
X-29134Y58169D01*
X-33071Y58169D02*
X-29134D01*
X-25197Y60138D02*
X-25197Y60138D01*
X-21260D02*
X-21260Y60138D01*
X-25197Y60138D02*
X-21260D01*
X29134Y58169D02*
X29134Y58169D01*
X33071D01*
X13386Y61319D02*
X17323D01*
X25197Y55512D02*
Y55610D01*
Y55512D02*
X25197Y55512D01*
X17323Y56791D02*
X17323Y56791D01*
Y56693D02*
Y56791D01*
X6378Y-21811D02*
X7205Y-22638D01*
X10433D01*
X7638Y45984D02*
X8319Y45303D01*
X8398D01*
X10343Y41232D02*
Y43358D01*
X8398Y45303D02*
X10343Y43358D01*
X7638Y45984D02*
Y46063D01*
X10343Y41232D02*
X10433Y41142D01*
X-52646Y-29418D02*
Y-28729D01*
X-50984Y-27067D01*
X-52756Y-29528D02*
X-52646Y-29418D01*
X-50984Y-27067D02*
X-50512D01*
D17*
X-50512Y10630D02*
X-46941D01*
X-48819Y12500D02*
Y13543D01*
X-50512Y8661D02*
X-48031D01*
X48031Y-11949D02*
X50039Y-9941D01*
X46059Y-13881D02*
X48031Y-11909D01*
X45177Y-12598D02*
X49713Y-8063D01*
X47638Y-22106D02*
X50039Y-24508D01*
X46941Y-23968D02*
X50039Y-27067D01*
X-45276Y-9843D02*
X-43701D01*
X-47755Y14606D02*
Y14660D01*
X-48819Y13543D02*
X-47755Y14606D01*
X-51067Y29586D02*
Y29639D01*
X-51024Y27106D02*
X-50984Y27067D01*
X-50512D01*
X-51024Y27106D02*
Y29542D01*
X-51067Y29586D02*
X-51024Y29542D01*
X-50039Y27067D02*
X-48034Y25062D01*
X-50512Y24508D02*
X-46900D01*
X-47454Y25062D02*
X-46654Y24262D01*
X-48034Y25062D02*
X-47454D01*
X50512Y33957D02*
Y36516D01*
Y39075D01*
Y-39075D02*
Y-36516D01*
Y-41634D02*
Y-39075D01*
X46941Y19496D02*
X50406D01*
X47537Y11122D02*
Y13296D01*
X46047Y11728D02*
X46654Y11122D01*
X47345Y13487D02*
X47537Y13296D01*
X45177Y12992D02*
X46047Y12122D01*
Y11728D02*
Y12122D01*
Y10236D02*
Y11728D01*
X45177Y12598D02*
X46047Y11728D01*
X47687Y8661D02*
X47687Y8661D01*
X48093D01*
X49016Y5847D02*
X50039Y4823D01*
X49016Y5847D02*
Y7739D01*
X48093Y8661D02*
X49016Y7739D01*
X45177Y12598D02*
Y12992D01*
X48560Y10098D02*
X49193D01*
X46654Y11122D02*
X47537D01*
X46654D02*
X47835Y9941D01*
X50472Y9980D02*
X50512Y9941D01*
X47537Y11122D02*
X48560Y10098D01*
X49193D02*
X49311Y9980D01*
X50472D01*
X50512Y8661D02*
Y9941D01*
Y7382D02*
Y8661D01*
X50039Y4823D02*
X50512D01*
Y2323D02*
Y4823D01*
Y7382D01*
X45177Y22047D02*
X47638Y24508D01*
X45177Y21654D02*
Y22047D01*
X47638Y24508D02*
X50512D01*
X45177Y21260D02*
X46941Y19496D01*
X50406D02*
X50512Y19390D01*
X45177Y21654D02*
X45472Y21949D01*
X50512D01*
Y24508D01*
Y19390D02*
Y21949D01*
X50394Y2441D02*
X50512Y2323D01*
X46047Y9071D02*
Y10236D01*
X46457Y8661D02*
X47622D01*
X47687D02*
X50512D01*
X47622D02*
X47687D01*
X46047Y10236D02*
X47622Y8661D01*
X46047Y9071D02*
X46457Y8661D01*
X47776Y-14763D02*
X50039Y-12500D01*
X50512D01*
X46850Y-20081D02*
Y-20079D01*
Y-20081D02*
X48560Y-21791D01*
X48917D01*
X49114Y-21988D01*
X50472D01*
X50512Y-21949D01*
X47638Y-22106D02*
X47756Y-21988D01*
X45630Y-22106D02*
X46941Y-23417D01*
X45177Y-21654D02*
X45630Y-22106D01*
X47638D01*
X50039Y-24508D02*
X50512D01*
X45177Y-21654D02*
X45965Y-20866D01*
X50039Y-27067D02*
X50512D01*
X46941Y-23968D02*
Y-23417D01*
X50512Y-24508D02*
Y-21949D01*
Y-27067D02*
Y-24508D01*
X46059Y-13881D02*
X46941Y-14763D01*
X45177Y-12999D02*
Y-12992D01*
X46941Y-14763D02*
X47776D01*
X45177Y-12999D02*
X46059Y-13881D01*
X48031Y-11949D02*
Y-11909D01*
X50039Y-9941D02*
X50512D01*
X45177Y-12992D02*
Y-12598D01*
X49713Y-8063D02*
Y-7709D01*
X50039Y-7382D01*
X50512D01*
Y-9941D02*
Y-7382D01*
Y-12500D02*
Y-9941D01*
X-48779Y-19390D02*
X-47047D01*
X-50512D02*
X-48779D01*
X-48819Y12500D02*
X-45669D01*
X-50512D02*
X-48819D01*
X-50512Y39075D02*
Y41634D01*
Y36516D02*
Y39075D01*
Y-36516D02*
Y-33957D01*
Y-39075D02*
Y-36516D01*
X-46284Y-8661D02*
X-44882D01*
X-47244D02*
X-46284D01*
Y-8834D02*
X-45276Y-9843D01*
X-46284Y-8834D02*
Y-8661D01*
X-49114D02*
X-47687D01*
X-50512D02*
X-49114D01*
X-45177Y-12598D01*
X-50512Y-7382D02*
Y-4823D01*
Y-8661D02*
Y-7382D01*
Y-9941D02*
Y-8661D01*
X-44882D02*
X-43701Y-9843D01*
Y-11516D02*
Y-9843D01*
X-45177Y-12992D02*
X-43701Y-11516D01*
X-45472Y-21949D02*
X-45177Y-21654D01*
X-50512Y-21949D02*
X-45472D01*
X-47638Y-24508D02*
X-45177Y-22047D01*
X-50512Y-24508D02*
X-47638D01*
X-45177Y-22047D02*
Y-21654D01*
X-47047Y-19390D02*
X-45177Y-21260D01*
Y-21654D02*
Y-21260D01*
X-50512Y-21949D02*
Y-19390D01*
Y-24508D02*
Y-21949D01*
X-45177Y-12992D02*
Y-12598D01*
X-46941Y9752D02*
Y10630D01*
X-50512D02*
Y12500D01*
X-46941Y10630D02*
Y11228D01*
X-50512Y9941D02*
Y10630D01*
X-46654Y23130D02*
X-45472Y21949D01*
X-46654Y23130D02*
Y24262D01*
X-50512Y21949D02*
X-45472D01*
X-45177Y21654D01*
X-50512Y24508D02*
Y27067D01*
Y21949D02*
Y24508D01*
Y8661D02*
Y9941D01*
Y7382D02*
Y8661D01*
X-45669Y12500D02*
X-45177Y12992D01*
X-46941Y11228D02*
X-45669Y12500D01*
X-48031Y8661D02*
X-46941Y9752D01*
D45*
X-38681Y57874D02*
D03*
X-43209D02*
D03*
X-35531Y-53937D02*
D03*
X-40059D02*
D03*
X35925Y-52362D02*
D03*
X40453D02*
D03*
X-35531Y-61811D02*
D03*
X-40059D02*
D03*
X35925D02*
D03*
X40453D02*
D03*
X-35531Y-57874D02*
D03*
X-40059D02*
D03*
X35925D02*
D03*
X40453D02*
D03*
X39469Y61811D02*
D03*
X43996D02*
D03*
X-39469D02*
D03*
X-43996D02*
D03*
X689Y-23622D02*
D03*
X-3839D02*
D03*
X492Y-41339D02*
D03*
X5020D02*
D03*
X39075Y57874D02*
D03*
X43602D02*
D03*
X689Y-19685D02*
D03*
X-3839D02*
D03*
X98Y-45276D02*
D03*
X4626D02*
D03*
X37500Y53937D02*
D03*
X42028D02*
D03*
X-37500D02*
D03*
X-42028D02*
D03*
X689Y-15748D02*
D03*
X-3839D02*
D03*
X492Y-49213D02*
D03*
X5020D02*
D03*
D46*
X-24016Y-10866D02*
D03*
Y-14331D02*
D03*
X25984Y12441D02*
D03*
Y15905D02*
D03*
X-27165Y11496D02*
D03*
Y14961D02*
D03*
X6299Y-21811D02*
D03*
Y-18347D02*
D03*
X29921Y15905D02*
D03*
Y12441D02*
D03*
X-29528Y43937D02*
D03*
Y47402D02*
D03*
D47*
X12441Y-14567D02*
D03*
X15905D02*
D03*
X-16772Y-17323D02*
D03*
X-20236D02*
D03*
X7638Y46063D02*
D03*
X4173D02*
D03*
X-6850Y18898D02*
D03*
X-3386D02*
D03*
X-6850Y-45669D02*
D03*
X-3386D02*
D03*
X18346Y-48031D02*
D03*
X21811D02*
D03*
D50*
X17323Y56791D02*
D03*
Y61319D02*
D03*
X-17323Y56791D02*
D03*
Y61319D02*
D03*
X25197Y55610D02*
D03*
Y60138D02*
D03*
X-25197Y55610D02*
D03*
Y60138D02*
D03*
X33071Y53642D02*
D03*
Y58169D02*
D03*
X-33071Y53642D02*
D03*
Y58169D02*
D03*
X13386Y56791D02*
D03*
Y61319D02*
D03*
X-13386Y56791D02*
D03*
Y61319D02*
D03*
X21260Y55610D02*
D03*
Y60138D02*
D03*
X-21260Y55610D02*
D03*
Y60138D02*
D03*
X29134Y53642D02*
D03*
Y58169D02*
D03*
X-29134Y53642D02*
D03*
Y58169D02*
D03*
D51*
X-40059Y45276D02*
D03*
X44980Y-44488D02*
D03*
D52*
X-44193Y45276D02*
D03*
X40846Y-44488D02*
D03*
D57*
X-61417Y-41634D02*
D03*
Y-39075D02*
D03*
Y-36516D02*
D03*
Y-33957D02*
D03*
X61417Y-33957D02*
D03*
Y-36516D02*
D03*
Y-39075D02*
D03*
Y-41634D02*
D03*
Y41634D02*
D03*
Y39075D02*
D03*
Y36516D02*
D03*
Y33957D02*
D03*
X-61417Y33957D02*
D03*
Y36516D02*
D03*
Y39075D02*
D03*
Y41634D02*
D03*
Y-27067D02*
D03*
Y-24508D02*
D03*
Y-21949D02*
D03*
Y-19390D02*
D03*
X61417Y-19390D02*
D03*
Y-21949D02*
D03*
Y-24508D02*
D03*
Y-27067D02*
D03*
Y27067D02*
D03*
Y24508D02*
D03*
Y21949D02*
D03*
Y19390D02*
D03*
X-61417Y19390D02*
D03*
Y21949D02*
D03*
Y24508D02*
D03*
Y27067D02*
D03*
Y-12500D02*
D03*
Y-9941D02*
D03*
Y-7382D02*
D03*
Y-4823D02*
D03*
X61417Y-4823D02*
D03*
Y-7382D02*
D03*
Y-9941D02*
D03*
Y-12500D02*
D03*
Y12500D02*
D03*
Y9941D02*
D03*
Y7382D02*
D03*
Y4823D02*
D03*
X-61417Y4823D02*
D03*
Y7382D02*
D03*
Y9941D02*
D03*
Y12500D02*
D03*
D58*
X-50512Y-39075D02*
D03*
Y-36516D02*
D03*
Y-41634D02*
D03*
Y-33957D02*
D03*
X50512Y-36516D02*
D03*
Y-39075D02*
D03*
Y-33957D02*
D03*
Y-41634D02*
D03*
Y39075D02*
D03*
Y36516D02*
D03*
Y41634D02*
D03*
Y33957D02*
D03*
X-50512Y36516D02*
D03*
Y39075D02*
D03*
Y33957D02*
D03*
Y41634D02*
D03*
Y-24508D02*
D03*
Y-21949D02*
D03*
Y-27067D02*
D03*
Y-19390D02*
D03*
X50512Y-21949D02*
D03*
Y-24508D02*
D03*
Y-19390D02*
D03*
Y-27067D02*
D03*
Y24508D02*
D03*
Y21949D02*
D03*
Y27067D02*
D03*
Y19390D02*
D03*
X-50512Y21949D02*
D03*
Y24508D02*
D03*
Y19390D02*
D03*
Y27067D02*
D03*
Y-9941D02*
D03*
Y-7382D02*
D03*
Y-12500D02*
D03*
Y-4823D02*
D03*
X50512Y-7382D02*
D03*
Y-9941D02*
D03*
Y-4823D02*
D03*
Y-12500D02*
D03*
Y9941D02*
D03*
Y7382D02*
D03*
Y12500D02*
D03*
Y4823D02*
D03*
X-50512Y7382D02*
D03*
Y9941D02*
D03*
Y4823D02*
D03*
Y12500D02*
D03*
D60*
X41732Y43701D02*
D03*
Y37402D02*
D03*
X-41732Y-43307D02*
D03*
Y-37008D02*
D03*
X15748Y-59842D02*
D03*
Y-53543D02*
D03*
X22835Y-59842D02*
D03*
Y-53543D02*
D03*
X29921Y-59842D02*
D03*
Y-53543D02*
D03*
X-21654Y-53543D02*
D03*
Y-59842D02*
D03*
X-14567Y-53543D02*
D03*
Y-59842D02*
D03*
X2362Y-3543D02*
D03*
Y-9843D02*
D03*
Y3543D02*
D03*
Y9843D02*
D03*
X-28740Y-53543D02*
D03*
Y-59842D02*
D03*
D62*
X38583Y-38189D02*
D03*
X44882D02*
D03*
X38583Y-4331D02*
D03*
X44882D02*
D03*
X-38583Y-30315D02*
D03*
X-44882D02*
D03*
X38583D02*
D03*
X44882D02*
D03*
X38583Y4331D02*
D03*
X44882D02*
D03*
X-38583Y-4331D02*
D03*
X-44882D02*
D03*
X-38583Y30315D02*
D03*
X-44882D02*
D03*
X-38583Y4331D02*
D03*
X-44882D02*
D03*
X-38583Y38976D02*
D03*
X-44882D02*
D03*
X38583Y30315D02*
D03*
X44882D02*
D03*
D68*
X11220Y-56550D02*
X12652Y-55118D01*
X11220Y-56688D02*
Y-56550D01*
X14173Y-55118D02*
X15748Y-53543D01*
X12652Y-55118D02*
X14173D01*
X7929Y-59980D02*
X11220Y-56688D01*
X7500Y-59980D02*
X7929D01*
D71*
X14370Y34843D02*
X17323Y31890D01*
X10472Y38740D02*
X14370Y34843D01*
X10472Y-25039D02*
X14370Y-28937D01*
X-14370Y28937D02*
X-10473Y25039D01*
X-17323Y31890D02*
X-14370Y28937D01*
X-9758Y-38622D02*
X-8228D01*
X-11811Y-37402D02*
X-10965Y-38248D01*
X-8228Y-38622D02*
X-8071Y-38780D01*
X-10131Y-38248D02*
X-9758Y-38622D01*
X-10965Y-38248D02*
X-10131D01*
X-10473Y25039D02*
X-8110D01*
X8110Y38740D02*
X10472D01*
X8071Y38780D02*
X8110Y38740D01*
X-8110Y25039D02*
X-8071Y25000D01*
X8071Y-25000D02*
X8110Y-25039D01*
X10472D01*
D72*
X29528Y-60236D02*
X30118D01*
X-44882Y30315D02*
Y38976D01*
X44882Y-38189D02*
Y-30315D01*
Y-3543D02*
X44882D01*
Y-2756D01*
Y-4331D02*
Y-3543D01*
X44882D02*
Y4331D01*
Y-4331D02*
X44882Y-4331D01*
X22835Y-59842D02*
X23228Y-60236D01*
X22835Y-58858D02*
X22835Y-58858D01*
D73*
X41732Y37402D02*
X41929D01*
X42913Y34640D02*
Y36417D01*
X41929Y37402D02*
X42913Y36417D01*
X43898Y31701D02*
Y32947D01*
X43504Y33341D02*
X43898Y32947D01*
X43504Y33341D02*
Y34049D01*
X42913Y34640D02*
X43504Y34049D01*
X-41929Y-37008D02*
X-41831D01*
X-43988Y-34949D02*
Y-31209D01*
Y-34949D02*
X-41929Y-37008D01*
X-44882Y-30315D02*
X-43988Y-31209D01*
D74*
X7500Y-54980D02*
D03*
Y-59980D02*
D03*
X2500Y-54980D02*
D03*
X-2500D02*
D03*
X-7500D02*
D03*
X2500Y-59980D02*
D03*
X-2500D02*
D03*
X-7500D02*
D03*
Y54980D02*
D03*
Y59980D02*
D03*
X-2500Y54980D02*
D03*
X2500D02*
D03*
X7500D02*
D03*
X-2500Y59980D02*
D03*
X2500D02*
D03*
X7500D02*
D03*
D75*
X-51181Y51181D02*
D03*
Y-51181D02*
D03*
X51181D02*
D03*
Y51181D02*
D03*
D76*
X-32835Y54646D02*
D03*
X-21654Y51181D02*
D03*
X-35741Y47224D02*
D03*
X-32677Y42913D02*
D03*
X-43102Y49114D02*
D03*
X28189Y46063D02*
D03*
X2142Y40012D02*
D03*
X-4553Y43121D02*
D03*
X32327Y50492D02*
D03*
X44882Y54724D02*
D03*
X44488Y57480D02*
D03*
X30070Y24318D02*
D03*
X32685Y27220D02*
D03*
X29921Y21654D02*
D03*
Y18898D02*
D03*
X34252Y16535D02*
D03*
X-32677Y46850D02*
D03*
X-42130Y57630D02*
D03*
X-41339Y54823D02*
D03*
X-51575Y44488D02*
D03*
X-33858Y19087D02*
D03*
X-31790Y16857D02*
D03*
X-27667Y20855D02*
D03*
X-31004Y25591D02*
D03*
X-32600Y31261D02*
D03*
X41732Y37402D02*
D03*
X48499Y44414D02*
D03*
X51181Y-44488D02*
D03*
X37680Y-44134D02*
D03*
X44204Y-48928D02*
D03*
X39272Y-48819D02*
D03*
X32677Y-42520D02*
D03*
X38189Y-55216D02*
D03*
X44418Y-56153D02*
D03*
X19291Y-14567D02*
D03*
X31890Y-8677D02*
D03*
X34350Y-6267D02*
D03*
X29382Y-25984D02*
D03*
X30069Y-22293D02*
D03*
X-31791Y-37795D02*
D03*
X-30074Y-48221D02*
D03*
X-32903Y-45695D02*
D03*
X-34350Y-15156D02*
D03*
X-32810Y-26194D02*
D03*
X-30745Y-17405D02*
D03*
X-31435Y-21080D02*
D03*
X-32236Y-40910D02*
D03*
X-3429Y24409D02*
D03*
X-7874Y45669D02*
D03*
X-9843Y48031D02*
D03*
X-3214Y36746D02*
D03*
X-3629Y27033D02*
D03*
X-5217Y29039D02*
D03*
X-4377Y31457D02*
D03*
X9810Y17228D02*
D03*
X12276Y16543D02*
D03*
X6863Y17300D02*
D03*
X6238Y19782D02*
D03*
X9744Y19786D02*
D03*
X14961Y13780D02*
D03*
X10077Y48426D02*
D03*
X16907Y48367D02*
D03*
X12992Y48425D02*
D03*
X7526Y24129D02*
D03*
X9449Y22441D02*
D03*
X-4724Y5906D02*
D03*
X-4355Y1452D02*
D03*
Y-1698D02*
D03*
X-7505D02*
D03*
Y1452D02*
D03*
X-9815Y-13250D02*
D03*
X-3543Y-16535D02*
D03*
X-20785Y-12227D02*
D03*
X-24016Y-7874D02*
D03*
X-19355Y2551D02*
D03*
X-12445Y20154D02*
D03*
X11024Y1457D02*
D03*
X14173Y-3150D02*
D03*
X-3543Y-23228D02*
D03*
Y-20079D02*
D03*
X-4331Y-29921D02*
D03*
X-7874Y-20866D02*
D03*
X6299Y-21811D02*
D03*
X9449Y-19685D02*
D03*
X44094Y3150D02*
D03*
X46457Y5118D02*
D03*
X44882Y-6299D02*
D03*
Y-2756D02*
D03*
X-26378Y47638D02*
D03*
X3966Y-27189D02*
D03*
X3144Y-35759D02*
D03*
X5008Y-29526D02*
D03*
X5092Y-32183D02*
D03*
X4331Y-41339D02*
D03*
X-2362Y-36220D02*
D03*
X12019Y-49451D02*
D03*
X5020Y-45276D02*
D03*
X-27589Y-21439D02*
D03*
X-24803Y-22441D02*
D03*
X12205Y-19685D02*
D03*
X-9759Y-46695D02*
D03*
X-14961Y19685D02*
D03*
X14961Y-19685D02*
D03*
X-12432Y-47244D02*
D03*
X4331Y42913D02*
D03*
X-3543Y-40551D02*
D03*
X-9843Y19685D02*
D03*
X-15021Y-47907D02*
D03*
X7480Y42913D02*
D03*
X-5512Y-42520D02*
D03*
X-8354Y12143D02*
D03*
X1826Y48106D02*
D03*
X-4695Y15124D02*
D03*
X33465Y-35433D02*
D03*
X3937Y10236D02*
D03*
X787D02*
D03*
X-394Y-9055D02*
D03*
X3543D02*
D03*
X-1754Y-29444D02*
D03*
X33071Y-31496D02*
D03*
X-23333Y-3150D02*
D03*
X-26608Y-13059D02*
D03*
X24803Y-10630D02*
D03*
X-24016Y14173D02*
D03*
X-18110Y56693D02*
D03*
X21260Y-2756D02*
D03*
X22638Y10949D02*
D03*
X32677Y3150D02*
D03*
X30709Y5906D02*
D03*
X23622Y7087D02*
D03*
X32677Y-4331D02*
D03*
X26772Y-2756D02*
D03*
X-30709Y9449D02*
D03*
X-33858Y9055D02*
D03*
X-34252Y-12598D02*
D03*
X-29921D02*
D03*
X44094Y62992D02*
D03*
X-42913D02*
D03*
X62205Y51575D02*
D03*
X60630Y56693D02*
D03*
X56693Y60236D02*
D03*
X51968Y62205D02*
D03*
X47244D02*
D03*
X-47244D02*
D03*
X-51968D02*
D03*
X-56693Y60236D02*
D03*
X-60630Y56693D02*
D03*
X-62205Y51575D02*
D03*
X24213Y-8366D02*
D03*
X51266Y-31444D02*
D03*
X49220Y-29607D02*
D03*
X53333Y-29613D02*
D03*
X-50083Y16851D02*
D03*
X-47755Y14660D02*
D03*
X-52937Y31430D02*
D03*
X-51067Y29639D02*
D03*
X-49178Y31436D02*
D03*
X-50275Y-44134D02*
D03*
X-53137Y-44143D02*
D03*
X-50353Y-29626D02*
D03*
X-52953Y-29528D02*
D03*
X-49990Y-15000D02*
D03*
X-52953Y-14961D02*
D03*
X-52362Y1969D02*
D03*
X-49606D02*
D03*
X-52756Y16929D02*
D03*
X49205Y-16890D02*
D03*
X51764Y-16901D02*
D03*
X49213Y-2323D02*
D03*
X51771Y-2334D02*
D03*
X49215Y15098D02*
D03*
X51772Y14988D02*
D03*
X49213Y29921D02*
D03*
X52704Y29400D02*
D03*
X52362Y44094D02*
D03*
X55905Y-26378D02*
D03*
X62205D02*
D03*
X55905Y-11811D02*
D03*
X62205D02*
D03*
Y20079D02*
D03*
X55905D02*
D03*
X62205Y5512D02*
D03*
X55905D02*
D03*
X-45276Y54724D02*
D03*
X14567Y-49213D02*
D03*
X57087Y-60236D02*
D03*
X60236Y-57087D02*
D03*
X-41831Y-37008D02*
D03*
X43898Y31701D02*
D03*
X43177Y-30315D02*
D03*
X44094Y-38976D02*
D03*
X1575Y-2362D02*
D03*
X47717Y17462D02*
D03*
X50512Y2323D02*
D03*
X47776Y-14763D02*
D03*
X-47946Y-17245D02*
D03*
X-50000Y-2323D02*
D03*
X-44488Y-29134D02*
D03*
X-44882Y-1575D02*
D03*
Y1575D02*
D03*
Y-4724D02*
D03*
Y4724D02*
D03*
X-45669Y32677D02*
D03*
X-44526Y38621D02*
D03*
X-62205Y-34449D02*
D03*
Y-40748D02*
D03*
X46555Y-60630D02*
D03*
X59555Y-51575D02*
D03*
X42126Y-61417D02*
D03*
X-6850Y-45669D02*
D03*
X51083Y-60630D02*
D03*
X5020Y-49213D02*
D03*
X7874Y-44488D02*
D03*
X-46555Y-60630D02*
D03*
X-59868Y-56667D02*
D03*
X-56667Y-59868D02*
D03*
X-51083Y-60630D02*
D03*
X62205Y-5512D02*
D03*
X59055Y-8661D02*
D03*
X55905Y-20079D02*
D03*
X62205D02*
D03*
X59055Y-23228D02*
D03*
X-55905Y-20079D02*
D03*
X55905Y-34646D02*
D03*
Y-40945D02*
D03*
X62205D02*
D03*
Y-34646D02*
D03*
X59055Y-37795D02*
D03*
X-59055Y-23228D02*
D03*
X-59949Y-51575D02*
D03*
X62205Y34646D02*
D03*
X-55905Y-26378D02*
D03*
X-62205Y-20079D02*
D03*
Y-11811D02*
D03*
X-55905D02*
D03*
Y-5512D02*
D03*
X-59055Y-8661D02*
D03*
X-62205Y-26378D02*
D03*
X-55905Y-40748D02*
D03*
Y-34449D02*
D03*
X-59055Y-37598D02*
D03*
X-62205Y-5512D02*
D03*
Y5512D02*
D03*
X-55905D02*
D03*
Y11811D02*
D03*
X-59055Y8661D02*
D03*
X-62205Y20079D02*
D03*
X-55905D02*
D03*
Y26378D02*
D03*
X-59055Y23228D02*
D03*
X-62205Y11811D02*
D03*
Y34646D02*
D03*
X-55905D02*
D03*
Y40945D02*
D03*
X-59055Y37795D02*
D03*
X-62205Y26378D02*
D03*
X55905Y40945D02*
D03*
Y34646D02*
D03*
X62205Y40945D02*
D03*
X59055Y37795D02*
D03*
X55905Y26378D02*
D03*
X62205D02*
D03*
X-62205Y40945D02*
D03*
X59055Y23228D02*
D03*
X55905Y11811D02*
D03*
X62205D02*
D03*
X59055Y8661D02*
D03*
X55905Y-5512D02*
D03*
X17323Y56693D02*
D03*
X34116Y42481D02*
D03*
X32972Y38583D02*
D03*
X32677Y31102D02*
D03*
X25433Y-46063D02*
D03*
X-32972Y35433D02*
D03*
X-32677Y-31102D02*
D03*
X-13386Y56693D02*
D03*
X-25197Y55905D02*
D03*
X-29134Y58169D02*
D03*
X-21260Y60138D02*
D03*
X-13386Y61319D02*
D03*
X13386Y56791D02*
D03*
X29134Y58169D02*
D03*
X21260Y60138D02*
D03*
X13386Y61319D02*
D03*
X25197Y55512D02*
D03*
X26969Y7185D02*
D03*
X-28346Y-295D02*
D03*
X-62205Y30512D02*
D03*
Y15945D02*
D03*
Y-15945D02*
D03*
Y-30512D02*
D03*
Y-45079D02*
D03*
X-62205Y45473D02*
D03*
X-62205Y0D02*
D03*
X62205D02*
D03*
X62205Y45473D02*
D03*
X62205Y-45079D02*
D03*
Y-30512D02*
D03*
Y-15945D02*
D03*
Y15945D02*
D03*
Y30512D02*
D03*
X-18898Y-33465D02*
D03*
X-11811D02*
D03*
X-15354D02*
D03*
Y-37008D02*
D03*
X-11811D02*
D03*
X-18898D02*
D03*
X18898Y-33465D02*
D03*
X11811D02*
D03*
X15354D02*
D03*
Y-37008D02*
D03*
X11811D02*
D03*
X18898D02*
D03*
Y33465D02*
D03*
X11811D02*
D03*
X15354D02*
D03*
Y37008D02*
D03*
X11811D02*
D03*
X18898D02*
D03*
X-18898D02*
D03*
X-11811D02*
D03*
X-15354D02*
D03*
Y33465D02*
D03*
X-11811D02*
D03*
X-18898D02*
D03*
X26969Y-8366D02*
D03*
X-5906Y22047D02*
D03*
X7638Y45984D02*
D03*
D77*
X17323Y-58268D02*
D03*
X28346D02*
D03*
Y-62598D02*
D03*
X-22835Y-58268D02*
D03*
X-17323Y-58268D02*
D03*
X22835Y-62598D02*
D03*
X22835Y-58268D02*
D03*
X17323Y-62598D02*
D03*
X-17323D02*
D03*
X-28346Y-58268D02*
D03*
Y-62598D02*
D03*
X-22835D02*
D03*
D78*
X-20866Y19291D02*
D03*
X-25197D02*
D03*
Y-44882D02*
D03*
X25984Y-18898D02*
D03*
X25197Y44882D02*
D03*
X-20866Y-44882D02*
D03*
X21654Y-18898D02*
D03*
X20866Y44882D02*
D03*
D79*
X-14961Y-7874D02*
D03*
X14961D02*
D03*
Y7874D02*
D03*
X-14961D02*
D03*
D80*
X-11220Y-10827D02*
D03*
Y-8858D02*
D03*
Y-6890D02*
D03*
Y-4921D02*
D03*
X-18701D02*
D03*
Y-6890D02*
D03*
Y-8858D02*
D03*
Y-10827D02*
D03*
X18701D02*
D03*
Y-8858D02*
D03*
Y-6890D02*
D03*
Y-4921D02*
D03*
X11220D02*
D03*
Y-6890D02*
D03*
Y-8858D02*
D03*
Y-10827D02*
D03*
Y10827D02*
D03*
Y8858D02*
D03*
Y6890D02*
D03*
Y4921D02*
D03*
X18701D02*
D03*
Y6890D02*
D03*
Y8858D02*
D03*
Y10827D02*
D03*
X-18701D02*
D03*
Y8858D02*
D03*
Y6890D02*
D03*
Y4921D02*
D03*
X-11220D02*
D03*
Y6890D02*
D03*
Y8858D02*
D03*
Y10827D02*
D03*
D81*
X-26575Y-25000D02*
D03*
X-8071D02*
D03*
Y-38780D02*
D03*
X-26575D02*
D03*
Y-36811D02*
D03*
X-8071Y-32874D02*
D03*
Y-28937D02*
D03*
Y-34843D02*
D03*
Y-36811D02*
D03*
Y-30906D02*
D03*
Y-26969D02*
D03*
X-26575Y-32874D02*
D03*
Y-34843D02*
D03*
Y-26969D02*
D03*
Y-28937D02*
D03*
Y-30906D02*
D03*
X26575Y-38780D02*
D03*
X8071D02*
D03*
Y-25000D02*
D03*
X26575D02*
D03*
Y-26969D02*
D03*
X8071Y-30906D02*
D03*
Y-34843D02*
D03*
Y-28937D02*
D03*
Y-26969D02*
D03*
Y-32874D02*
D03*
Y-36811D02*
D03*
X26575Y-30906D02*
D03*
Y-28937D02*
D03*
Y-36811D02*
D03*
Y-34843D02*
D03*
Y-32874D02*
D03*
Y25000D02*
D03*
X8071D02*
D03*
Y38780D02*
D03*
X26575D02*
D03*
Y36811D02*
D03*
X8071Y32874D02*
D03*
Y28937D02*
D03*
Y34843D02*
D03*
Y36811D02*
D03*
Y30906D02*
D03*
Y26969D02*
D03*
X26575Y32874D02*
D03*
Y34843D02*
D03*
Y26969D02*
D03*
Y28937D02*
D03*
Y30906D02*
D03*
X-26575Y38780D02*
D03*
X-8071D02*
D03*
Y25000D02*
D03*
X-26575D02*
D03*
Y26969D02*
D03*
X-8071Y30906D02*
D03*
Y34843D02*
D03*
Y28937D02*
D03*
Y26969D02*
D03*
Y32874D02*
D03*
Y36811D02*
D03*
X-26575Y30906D02*
D03*
Y28937D02*
D03*
Y36811D02*
D03*
Y34843D02*
D03*
Y32874D02*
D03*
D82*
X-24213Y-22638D02*
D03*
X-10433D02*
D03*
Y-41142D02*
D03*
X-24213D02*
D03*
X-16339Y-22638D02*
D03*
X-22244D02*
D03*
X-12402D02*
D03*
X-14370D02*
D03*
X-20276D02*
D03*
X-12402Y-41142D02*
D03*
X-22244D02*
D03*
X-16339D02*
D03*
X-20276D02*
D03*
X-14370D02*
D03*
X-18307Y-22638D02*
D03*
Y-41142D02*
D03*
X24213D02*
D03*
X10433D02*
D03*
Y-22638D02*
D03*
X24213D02*
D03*
X16339Y-41142D02*
D03*
X22244D02*
D03*
X12402D02*
D03*
X14370D02*
D03*
X20276D02*
D03*
X12402Y-22638D02*
D03*
X22244D02*
D03*
X16339D02*
D03*
X20276D02*
D03*
X14370D02*
D03*
X18307Y-41142D02*
D03*
Y-22638D02*
D03*
X24213Y22638D02*
D03*
X10433D02*
D03*
Y41142D02*
D03*
X24213D02*
D03*
X16339Y22638D02*
D03*
X22244D02*
D03*
X12402D02*
D03*
X14370D02*
D03*
X20276D02*
D03*
X12402Y41142D02*
D03*
X22244D02*
D03*
X16339D02*
D03*
X20276D02*
D03*
X14370D02*
D03*
X18307Y22638D02*
D03*
Y41142D02*
D03*
X-24213Y41142D02*
D03*
X-10433D02*
D03*
Y22638D02*
D03*
X-24213D02*
D03*
X-16339Y41142D02*
D03*
X-22244D02*
D03*
X-12402D02*
D03*
X-14370D02*
D03*
X-20276D02*
D03*
X-12402Y22638D02*
D03*
X-22244D02*
D03*
X-16339D02*
D03*
X-20276D02*
D03*
X-14370D02*
D03*
X-18307Y41142D02*
D03*
Y22638D02*
D03*
D83*
X-17323Y-31890D02*
D03*
X17323D02*
D03*
Y31890D02*
D03*
X-17323Y31890D02*
D03*
D84*
X-38287Y-21654D02*
D03*
X-45177D02*
D03*
X38287D02*
D03*
X45177D02*
D03*
X38287Y21654D02*
D03*
X45177D02*
D03*
X-38287D02*
D03*
X-45177D02*
D03*
X-38287Y-12992D02*
D03*
X-45177D02*
D03*
X38287D02*
D03*
X45177D02*
D03*
X38287Y12992D02*
D03*
X45177D02*
D03*
X-38287D02*
D03*
X-45177D02*
D03*
D85*
X38583Y4331D02*
Y30315D01*
Y-12992D02*
Y-4331D01*
Y-30315D02*
Y-12992D01*
X22835Y-59842D02*
X29921D01*
X17323D02*
X22835D01*
X-38583Y12992D02*
Y30315D01*
Y4331D02*
Y12992D01*
Y-30315D02*
Y-4331D01*
X38583Y-38189D02*
Y-30315D01*
X-21654Y-59842D02*
X-14567D01*
X-28740D02*
X-21654D01*
X-41929Y-43307D02*
X-41732D01*
X-21654Y-53543D02*
X-14567D01*
X-28740D02*
X-21654D01*
X22835Y-53543D02*
X29921D01*
X15748D02*
X22835D01*
X38583Y-4331D02*
Y4331D01*
X-38583Y30315D02*
Y38976D01*
Y-4331D02*
Y4331D01*
D86*
X22835Y-60236D02*
X23228D01*
X15748Y-59842D02*
X16142Y-60236D01*
X30315D02*
X35039D01*
M02*
