G04*
G04 #@! TF.GenerationSoftware,Altium Limited,Altium Designer,22.9.1 (49)*
G04*
G04 Layer_Physical_Order=3*
G04 Layer_Color=36540*
%FSLAX25Y25*%
%MOIN*%
G70*
G04*
G04 #@! TF.SameCoordinates,5A2D5F74-2F22-471E-A729-26C66B6EDD7C*
G04*
G04*
G04 #@! TF.FilePolarity,Positive*
G04*
G01*
G75*
%ADD15C,0.00500*%
%ADD16C,0.01000*%
%ADD74C,0.04134*%
%ADD76C,0.01772*%
%ADD77C,0.02362*%
G36*
X4475Y64158D02*
X4682Y63658D01*
X3641Y62617D01*
X3602Y62640D01*
X2876Y62835D01*
X2124D01*
X1398Y62640D01*
X747Y62264D01*
X308Y61825D01*
X0Y61771D01*
X-308Y61825D01*
X-747Y62264D01*
X-1398Y62640D01*
X-2124Y62835D01*
X-2876D01*
X-3602Y62640D01*
X-4253Y62264D01*
X-4692Y61825D01*
X-5000Y61771D01*
X-5308Y61825D01*
X-5747Y62264D01*
X-6398Y62640D01*
X-7124Y62835D01*
X-7876D01*
X-8602Y62640D01*
X-9253Y62264D01*
X-9784Y61733D01*
X-10160Y61082D01*
X-10354Y60356D01*
Y59605D01*
X-10160Y58879D01*
X-9784Y58228D01*
X-9500Y57944D01*
X-9395Y57486D01*
X-9525Y57292D01*
X-9954Y56863D01*
X-10358Y56164D01*
X-10567Y55384D01*
Y54896D01*
X-11067Y54689D01*
X-12045Y55667D01*
X-11967Y55745D01*
X-11713Y56360D01*
Y57026D01*
X-11967Y57641D01*
X-12438Y58111D01*
X-13053Y58366D01*
X-13719D01*
X-13799Y58333D01*
X-14359Y58642D01*
X-14390Y58819D01*
X-13563Y59646D01*
X-13053D01*
X-12438Y59900D01*
X-11968Y60371D01*
X-11713Y60986D01*
Y61652D01*
X-11968Y62267D01*
X-12438Y62737D01*
X-13053Y62992D01*
X-13719D01*
X-14334Y62737D01*
X-14805Y62267D01*
X-15059Y61652D01*
Y61142D01*
X-16496Y59705D01*
X-16725Y59362D01*
X-16806Y58957D01*
Y55118D01*
X-16725Y54713D01*
X-16496Y54370D01*
X-11716Y49591D01*
X-11501Y49447D01*
X-11438Y49323D01*
X-11500Y49136D01*
X-12072Y49001D01*
X-20202Y57131D01*
Y58829D01*
X-19841Y59190D01*
X-19587Y59805D01*
Y60471D01*
X-19841Y61086D01*
X-20312Y61556D01*
X-20927Y61811D01*
X-21593D01*
X-22208Y61556D01*
X-22678Y61086D01*
X-22933Y60471D01*
Y59805D01*
X-22678Y59190D01*
X-22318Y58829D01*
Y56693D01*
X-22237Y56288D01*
X-22008Y55945D01*
X-20687Y54624D01*
X-20878Y54162D01*
X-26682D01*
X-28076Y55556D01*
Y56861D01*
X-27715Y57222D01*
X-27461Y57837D01*
Y58502D01*
X-27715Y59117D01*
X-28186Y59588D01*
X-28801Y59843D01*
X-29467D01*
X-30082Y59588D01*
X-30552Y59117D01*
X-30807Y58502D01*
Y57837D01*
X-30552Y57222D01*
X-30192Y56861D01*
Y55118D01*
X-30111Y54713D01*
X-29882Y54370D01*
X-27868Y52356D01*
X-27525Y52127D01*
X-27120Y52047D01*
X-23556D01*
X-23278Y51631D01*
X-23327Y51514D01*
Y50848D01*
X-23072Y50233D01*
X-22966Y50127D01*
Y48182D01*
X-31646Y39502D01*
X-33643D01*
X-34145Y39402D01*
X-34571Y39117D01*
X-53657Y20031D01*
X-53732Y19919D01*
X-54232Y20070D01*
Y20412D01*
X-54487Y21026D01*
X-54958Y21497D01*
X-55129Y21568D01*
X-55227Y22059D01*
X-52222Y25064D01*
X-51937Y25490D01*
X-51837Y25992D01*
Y27697D01*
X-51421Y27975D01*
X-51400Y27966D01*
X-50734D01*
X-50119Y28220D01*
X-49648Y28691D01*
X-49394Y29306D01*
Y29763D01*
X-48846D01*
X-48231Y30018D01*
X-47760Y30489D01*
X-47505Y31104D01*
Y31494D01*
X-47395Y31556D01*
X-47005Y31647D01*
X-46617Y31259D01*
X-46002Y31004D01*
X-45336D01*
X-44721Y31259D01*
X-44251Y31729D01*
X-43996Y32344D01*
Y33010D01*
X-44251Y33625D01*
X-44721Y34096D01*
X-45336Y34350D01*
X-46002D01*
X-46617Y34096D01*
X-47088Y33625D01*
X-47300Y33113D01*
X-47651Y32974D01*
X-47842Y32951D01*
X-47866Y32975D01*
Y34126D01*
X-47966Y34628D01*
X-48250Y35054D01*
X-48294Y35097D01*
Y36070D01*
X-46482Y37883D01*
X-45991Y37785D01*
X-45945Y37673D01*
X-45474Y37202D01*
X-44859Y36948D01*
X-44194D01*
X-43578Y37202D01*
X-43108Y37673D01*
X-42853Y38288D01*
Y38954D01*
X-43090Y39526D01*
X-42912Y40026D01*
X-34252D01*
X-33750Y40126D01*
X-33324Y40410D01*
X-32494Y41240D01*
X-32344D01*
X-31729Y41495D01*
X-31259Y41966D01*
X-31004Y42581D01*
Y43246D01*
X-31259Y43861D01*
X-31729Y44332D01*
X-32344Y44587D01*
X-33010D01*
X-33625Y44332D01*
X-34096Y43861D01*
X-34350Y43246D01*
Y43097D01*
X-34796Y42651D01*
X-44882D01*
X-45384Y42551D01*
X-45542Y42446D01*
X-45861Y42834D01*
X-42322Y46373D01*
X-42037Y46799D01*
X-41937Y47301D01*
Y47913D01*
X-41684Y48166D01*
X-41429Y48781D01*
Y49447D01*
X-41684Y50062D01*
X-42155Y50533D01*
X-42770Y50787D01*
X-43435D01*
X-44050Y50533D01*
X-44521Y50062D01*
X-44776Y49447D01*
Y48781D01*
X-44563Y48267D01*
Y47845D01*
X-51958Y40450D01*
X-52420Y40641D01*
Y41787D01*
X-51392Y42815D01*
X-51242D01*
X-50627Y43070D01*
X-50156Y43540D01*
X-49902Y44155D01*
Y44821D01*
X-50156Y45436D01*
X-50317Y45597D01*
X-50167Y46154D01*
X-49206Y46412D01*
X-48039Y47086D01*
X-47086Y48039D01*
X-46412Y49206D01*
X-46063Y50507D01*
Y51855D01*
X-46317Y52804D01*
X-45898Y53171D01*
X-45608Y53051D01*
X-44943D01*
X-44328Y53306D01*
X-43857Y53777D01*
X-43602Y54392D01*
Y55057D01*
X-43857Y55672D01*
X-44002Y55817D01*
X-43795Y56317D01*
X-43184D01*
X-43078Y56211D01*
X-42824Y56106D01*
X-42757Y55771D01*
X-43012Y55156D01*
Y54490D01*
X-42757Y53875D01*
X-42286Y53404D01*
X-41671Y53150D01*
X-41006D01*
X-40391Y53404D01*
X-39920Y53875D01*
X-39665Y54490D01*
Y55156D01*
X-39920Y55771D01*
X-40391Y56241D01*
X-40645Y56347D01*
X-40712Y56682D01*
X-40457Y57297D01*
Y57963D01*
X-40712Y58578D01*
X-41182Y59048D01*
X-41797Y59303D01*
X-42463D01*
X-43078Y59048D01*
X-43184Y58943D01*
X-44453D01*
X-44645Y59404D01*
X-42730Y61319D01*
X-42581D01*
X-41966Y61574D01*
X-41495Y62044D01*
X-41240Y62659D01*
Y63325D01*
X-41378Y63658D01*
X-41059Y64158D01*
X4475Y64158D01*
D02*
G37*
G36*
X-53016Y63524D02*
X-53387Y63152D01*
X-53642Y62537D01*
Y61872D01*
X-53551Y61652D01*
X-53550Y61608D01*
X-53860Y61092D01*
X-54046Y61055D01*
X-54471Y60771D01*
X-54558Y60684D01*
X-55125Y60824D01*
X-55274Y61184D01*
X-55745Y61655D01*
X-56360Y61909D01*
X-57026D01*
X-57641Y61655D01*
X-58111Y61184D01*
X-58366Y60569D01*
Y59903D01*
X-58111Y59288D01*
X-57641Y58818D01*
X-57281Y58669D01*
X-57141Y58101D01*
X-60590Y54653D01*
X-60874Y54227D01*
X-60974Y53724D01*
Y44032D01*
X-62388Y42618D01*
X-62538D01*
X-63152Y42364D01*
X-63623Y41893D01*
X-63658Y41809D01*
X-64158Y41909D01*
Y51181D01*
Y52032D01*
X-63936Y53718D01*
X-63496Y55361D01*
X-62845Y56933D01*
X-61994Y58406D01*
X-60958Y59756D01*
X-59756Y60958D01*
X-58406Y61994D01*
X-56933Y62845D01*
X-55361Y63495D01*
X-53718Y63936D01*
X-53206Y64003D01*
X-53016Y63524D01*
D02*
G37*
G36*
X18596Y57074D02*
Y49751D01*
X18096Y49544D01*
X17855Y49785D01*
X17240Y50040D01*
X16574D01*
X16434Y49982D01*
X16018Y50260D01*
Y55216D01*
X15938Y55621D01*
X15709Y55964D01*
X15059Y56614D01*
Y57124D01*
X14804Y57739D01*
X14333Y58210D01*
X13719Y58465D01*
X13053D01*
X12438Y58210D01*
X12412Y58184D01*
X11912Y58391D01*
Y59719D01*
X12412Y59926D01*
X12438Y59900D01*
X13053Y59646D01*
X13719D01*
X14333Y59900D01*
X14652Y60219D01*
X15450D01*
X18596Y57074D01*
D02*
G37*
G36*
X42241Y64158D02*
X42559Y63658D01*
X42421Y63325D01*
Y62659D01*
X42676Y62044D01*
X43147Y61574D01*
X43661Y61361D01*
X43758Y61263D01*
Y60835D01*
X43858Y60332D01*
X44143Y59907D01*
X44396Y59653D01*
X44189Y59153D01*
X44155D01*
X43540Y58899D01*
X43070Y58428D01*
X42815Y57813D01*
Y57147D01*
X43070Y56532D01*
X42858Y56037D01*
X42338D01*
X41836Y55937D01*
X41410Y55652D01*
X39826Y54068D01*
X38261D01*
X37465Y54865D01*
X37039Y55150D01*
X36536Y55250D01*
X30462D01*
X30192Y55471D01*
Y56861D01*
X30552Y57222D01*
X30807Y57837D01*
Y58502D01*
X30552Y59117D01*
X30082Y59588D01*
X29467Y59843D01*
X28801D01*
X28186Y59588D01*
X27715Y59117D01*
X27461Y58502D01*
Y57837D01*
X27715Y57222D01*
X28076Y56861D01*
Y55556D01*
X23987Y51467D01*
X23766Y51516D01*
X23499Y51686D01*
Y58957D01*
X23418Y59362D01*
X23189Y59705D01*
X22933Y59961D01*
Y60471D01*
X22678Y61086D01*
X22208Y61556D01*
X21593Y61811D01*
X20927D01*
X20312Y61556D01*
X19841Y61086D01*
X19587Y60471D01*
Y59805D01*
X19603Y59765D01*
X19179Y59482D01*
X16636Y62025D01*
X16293Y62254D01*
X15889Y62335D01*
X14737D01*
X14333Y62738D01*
X13719Y62992D01*
X13053D01*
X12438Y62738D01*
X12049Y62349D01*
X11896Y62269D01*
X11434Y62286D01*
X10062Y63658D01*
X10269Y64158D01*
X42241D01*
D02*
G37*
G36*
X12438Y55373D02*
X13053Y55118D01*
X13563D01*
X13903Y54778D01*
Y50309D01*
X13487Y50031D01*
X13325Y50098D01*
X12659D01*
X12044Y49844D01*
X11862Y49661D01*
X11534Y49404D01*
X11208Y49661D01*
X11025Y49845D01*
X10410Y50099D01*
X9744D01*
X9129Y49845D01*
X8658Y49374D01*
X8404Y48759D01*
Y48093D01*
X8441Y48004D01*
X8058Y47621D01*
X7971Y47657D01*
X7305D01*
X6690Y47403D01*
X6219Y46932D01*
X5965Y46317D01*
Y45651D01*
X6219Y45036D01*
X6427Y44829D01*
X6527Y44359D01*
X6402Y44201D01*
X6223Y44023D01*
X5906Y43914D01*
X5588Y44023D01*
X5279Y44332D01*
X4663Y44587D01*
X3998D01*
X3383Y44332D01*
X2912Y43861D01*
X2657Y43246D01*
Y42581D01*
X2872Y42062D01*
X2672Y41768D01*
X2539Y41659D01*
X2475Y41685D01*
X1809D01*
X1558Y41581D01*
X1058Y41916D01*
Y42869D01*
X9525Y51336D01*
X9589Y51363D01*
X10454Y52026D01*
X11118Y52892D01*
X11144Y52956D01*
X11602Y53413D01*
X11831Y53757D01*
X11912Y54161D01*
Y55192D01*
X12412Y55399D01*
X12438Y55373D01*
D02*
G37*
G36*
X11861Y47190D02*
X12044Y47007D01*
X12659Y46752D01*
X13325D01*
X13426Y46794D01*
X13845Y46524D01*
X13872Y46077D01*
X6778Y38982D01*
X6548Y38639D01*
X6468Y38234D01*
Y25438D01*
X6107Y25077D01*
X6036Y24907D01*
X5447Y24789D01*
X4601Y25635D01*
Y32283D01*
X4521Y32688D01*
X4291Y33031D01*
X1058Y36265D01*
Y38109D01*
X1558Y38443D01*
X1809Y38339D01*
X2475D01*
X3090Y38594D01*
X3560Y39064D01*
X3815Y39679D01*
Y40345D01*
X3600Y40864D01*
X3801Y41158D01*
X3933Y41267D01*
X3998Y41240D01*
X4663D01*
X5279Y41495D01*
X5588Y41804D01*
X5906Y41912D01*
X6223Y41804D01*
X6532Y41495D01*
X7147Y41240D01*
X7813D01*
X8428Y41495D01*
X8899Y41966D01*
X9154Y42581D01*
Y43246D01*
X8899Y43861D01*
X8692Y44068D01*
X8591Y44538D01*
X8717Y44697D01*
X9056Y45036D01*
X9311Y45651D01*
Y46317D01*
X9274Y46406D01*
X9657Y46789D01*
X9744Y46753D01*
X10410D01*
X11025Y47008D01*
X11207Y47190D01*
X11535Y47447D01*
X11861Y47190D01*
D02*
G37*
G36*
X308Y53136D02*
X747Y52696D01*
X1398Y52320D01*
X2124Y52126D01*
X2876D01*
X3602Y52320D01*
X4253Y52696D01*
X4536Y52980D01*
X4995Y53085D01*
X5188Y52955D01*
X5617Y52526D01*
X6316Y52122D01*
X6550Y52060D01*
X6699Y51502D01*
X229Y45031D01*
X-233Y45223D01*
Y50356D01*
X-314Y50761D01*
X-543Y51104D01*
X-1275Y51836D01*
X-1298Y51926D01*
X-1233Y52416D01*
X-747Y52696D01*
X-308Y53136D01*
X0Y53190D01*
X308Y53136D01*
D02*
G37*
G36*
X51005Y64158D02*
X51104Y63658D01*
X51021Y63623D01*
X50550Y63152D01*
X50295Y62537D01*
Y61872D01*
X50550Y61257D01*
X51021Y60786D01*
X51636Y60532D01*
X52301D01*
X52916Y60786D01*
X53387Y61257D01*
X53642Y61872D01*
Y62537D01*
X53387Y63152D01*
X53015Y63524D01*
X53206Y64003D01*
X53718Y63936D01*
X55361Y63496D01*
X56933Y62845D01*
X58406Y61994D01*
X59756Y60958D01*
X60958Y59756D01*
X61994Y58406D01*
X62845Y56933D01*
X63495Y55361D01*
X63936Y53718D01*
X64158Y52032D01*
X64158Y51181D01*
Y41908D01*
X63658Y41809D01*
X63623Y41893D01*
X63152Y42364D01*
X62537Y42618D01*
X62388D01*
X61155Y43851D01*
Y50394D01*
X61055Y50896D01*
X60771Y51322D01*
X56577Y55515D01*
X56533Y55545D01*
X56088Y56088D01*
X55545Y56533D01*
X55515Y56577D01*
X53684Y58408D01*
X53258Y58693D01*
X52756Y58793D01*
X48969D01*
X47692Y60070D01*
X47832Y60637D01*
X48192Y60786D01*
X48662Y61257D01*
X48917Y61872D01*
Y62537D01*
X48662Y63152D01*
X48192Y63623D01*
X48108Y63658D01*
X48208Y64158D01*
X51005D01*
D02*
G37*
G36*
X58530Y49850D02*
Y43307D01*
X58630Y42805D01*
X58914Y42379D01*
X60531Y40762D01*
Y40612D01*
X60786Y39997D01*
X61257Y39527D01*
X61872Y39272D01*
X62537D01*
X63152Y39527D01*
X63623Y39997D01*
X63658Y40081D01*
X64158Y39981D01*
Y35609D01*
X63658Y35510D01*
X63623Y35594D01*
X63152Y36064D01*
X62537Y36319D01*
X61872D01*
X61257Y36064D01*
X60786Y35594D01*
X60531Y34979D01*
Y34313D01*
X60786Y33698D01*
X61257Y33227D01*
X61872Y32972D01*
X62537D01*
X63152Y33227D01*
X63623Y33698D01*
X63658Y33782D01*
X64158Y33682D01*
Y27341D01*
X63658Y27242D01*
X63623Y27326D01*
X63152Y27797D01*
X62537Y28051D01*
X61872D01*
X61257Y27797D01*
X60786Y27326D01*
X60531Y26711D01*
Y26045D01*
X60786Y25430D01*
X61257Y24960D01*
X61872Y24705D01*
X62537D01*
X63152Y24960D01*
X63623Y25430D01*
X63658Y25514D01*
X64158Y25414D01*
Y21042D01*
X63658Y20943D01*
X63623Y21026D01*
X63152Y21497D01*
X62537Y21752D01*
X61872D01*
X61257Y21497D01*
X60786Y21026D01*
X60531Y20412D01*
Y19746D01*
X60786Y19131D01*
X61257Y18660D01*
X61872Y18406D01*
X62537D01*
X63152Y18660D01*
X63623Y19131D01*
X63658Y19215D01*
X64158Y19115D01*
Y12775D01*
X63658Y12675D01*
X63623Y12759D01*
X63152Y13229D01*
X62537Y13484D01*
X61872D01*
X61257Y13229D01*
X60786Y12759D01*
X60531Y12144D01*
Y11478D01*
X60786Y10863D01*
X61257Y10392D01*
X61872Y10138D01*
X62537D01*
X63152Y10392D01*
X63623Y10863D01*
X63658Y10947D01*
X64158Y10847D01*
Y6475D01*
X63658Y6376D01*
X63623Y6460D01*
X63152Y6930D01*
X62537Y7185D01*
X61872D01*
X61257Y6930D01*
X60786Y6460D01*
X60531Y5845D01*
Y5179D01*
X60786Y4564D01*
X61257Y4093D01*
X61872Y3839D01*
X62537D01*
X63152Y4093D01*
X63623Y4564D01*
X63658Y4648D01*
X64158Y4548D01*
X64158Y-4548D01*
X63658Y-4648D01*
X63623Y-4564D01*
X63152Y-4093D01*
X62537Y-3839D01*
X61872D01*
X61257Y-4093D01*
X60786Y-4564D01*
X60531Y-5179D01*
Y-5845D01*
X60786Y-6460D01*
X61257Y-6930D01*
X61872Y-7185D01*
X62537D01*
X63152Y-6930D01*
X63623Y-6460D01*
X63658Y-6376D01*
X64158Y-6475D01*
Y-10848D01*
X63658Y-10947D01*
X63623Y-10863D01*
X63152Y-10393D01*
X62537Y-10138D01*
X61872D01*
X61257Y-10393D01*
X60786Y-10863D01*
X60531Y-11478D01*
Y-12144D01*
X60786Y-12759D01*
X61257Y-13230D01*
X61872Y-13484D01*
X62537D01*
X63152Y-13230D01*
X63623Y-12759D01*
X63658Y-12675D01*
X64158Y-12775D01*
Y-19115D01*
X63658Y-19215D01*
X63623Y-19131D01*
X63152Y-18660D01*
X62537Y-18406D01*
X61872D01*
X61257Y-18660D01*
X60786Y-19131D01*
X60531Y-19746D01*
Y-20412D01*
X60786Y-21027D01*
X61257Y-21497D01*
X61872Y-21752D01*
X62537D01*
X63152Y-21497D01*
X63623Y-21027D01*
X63658Y-20943D01*
X64158Y-21042D01*
Y-25414D01*
X63658Y-25514D01*
X63623Y-25430D01*
X63152Y-24959D01*
X62537Y-24705D01*
X61872D01*
X61257Y-24959D01*
X60786Y-25430D01*
X60531Y-26045D01*
Y-26195D01*
X59891Y-26835D01*
X59391Y-26628D01*
Y-25402D01*
X59311Y-24996D01*
X59388Y-24902D01*
X60003Y-24647D01*
X60474Y-24176D01*
X60728Y-23561D01*
Y-22896D01*
X60474Y-22281D01*
X60003Y-21810D01*
X59720Y-21693D01*
X59387Y-21529D01*
X59376Y-21055D01*
X59391Y-20979D01*
Y-10911D01*
X59376Y-10835D01*
X59387Y-10361D01*
X59720Y-10197D01*
X60003Y-10080D01*
X60474Y-9609D01*
X60728Y-8994D01*
Y-8329D01*
X60474Y-7714D01*
X60003Y-7243D01*
X59388Y-6988D01*
X58722D01*
X58107Y-7243D01*
X57637Y-7714D01*
X57580Y-7849D01*
X56991Y-7966D01*
X56600Y-7576D01*
X56718Y-6987D01*
X56853Y-6930D01*
X57324Y-6460D01*
X57579Y-5845D01*
Y-5179D01*
X57324Y-4564D01*
X56853Y-4093D01*
X56238Y-3839D01*
X55573D01*
X55257Y-3428D01*
Y-1434D01*
X55157Y-932D01*
X54873Y-506D01*
X53588Y778D01*
X53162Y1063D01*
X52660Y1163D01*
X52372D01*
X52050Y1663D01*
X52185Y1990D01*
Y2656D01*
X51930Y3271D01*
X51460Y3741D01*
X50845Y3996D01*
X50179D01*
X49564Y3741D01*
X49093Y3271D01*
X48839Y2656D01*
Y1990D01*
X48974Y1663D01*
X48652Y1163D01*
X44977D01*
X44878Y1663D01*
X45042Y1731D01*
X45513Y2202D01*
X45768Y2817D01*
Y3051D01*
X46124Y3445D01*
X46790D01*
X47405Y3700D01*
X47875Y4170D01*
X48130Y4785D01*
Y5451D01*
X48040Y5668D01*
X48374Y6168D01*
X53787D01*
X54232Y5723D01*
Y5179D01*
X54487Y4564D01*
X54958Y4093D01*
X55573Y3839D01*
X56238D01*
X56853Y4093D01*
X57324Y4564D01*
X57579Y5179D01*
Y5845D01*
X57324Y6460D01*
X56853Y6930D01*
X56655Y7013D01*
X55259Y8409D01*
X54833Y8693D01*
X54331Y8793D01*
X52301D01*
X52094Y9293D01*
X53928Y11127D01*
X54418Y11029D01*
X54487Y10863D01*
X54958Y10392D01*
X55573Y10138D01*
X56238D01*
X56853Y10392D01*
X57324Y10863D01*
X57579Y11478D01*
Y12144D01*
X57324Y12759D01*
X56853Y13229D01*
X56238Y13484D01*
X55643D01*
Y18406D01*
X56238D01*
X56853Y18660D01*
X57324Y19131D01*
X57579Y19746D01*
Y20412D01*
X57324Y21026D01*
X56853Y21497D01*
X56238Y21752D01*
X55573D01*
X54958Y21497D01*
X54487Y21026D01*
X54418Y20861D01*
X53928Y20763D01*
X52887Y21803D01*
Y22291D01*
X53632Y23036D01*
X53917Y23462D01*
X54017Y23964D01*
Y25259D01*
X54372Y25388D01*
X54517Y25400D01*
X54958Y24960D01*
X55573Y24705D01*
X56238D01*
X56853Y24960D01*
X57324Y25430D01*
X57579Y26045D01*
Y26711D01*
X57324Y27326D01*
X57108Y27542D01*
Y30819D01*
X57008Y31321D01*
X56724Y31747D01*
X55998Y32473D01*
X56205Y32972D01*
X56238D01*
X56853Y33227D01*
X57324Y33698D01*
X57579Y34313D01*
Y34979D01*
X57324Y35594D01*
X56853Y36064D01*
X56238Y36319D01*
X55573D01*
X54958Y36064D01*
X54487Y35594D01*
X54232Y34979D01*
Y34945D01*
X53732Y34738D01*
X50534Y37936D01*
X50512Y37951D01*
X50664Y38451D01*
X54724D01*
X55227Y38551D01*
X55652Y38836D01*
X56089Y39272D01*
X56238D01*
X56853Y39527D01*
X57324Y39997D01*
X57579Y40612D01*
Y41278D01*
X57324Y41893D01*
X56853Y42364D01*
X56238Y42618D01*
X55573D01*
X54958Y42364D01*
X54487Y41893D01*
X54232Y41278D01*
Y41128D01*
X54181Y41076D01*
X51976D01*
X51769Y41576D01*
X52614Y42421D01*
X52695D01*
X53310Y42676D01*
X53781Y43147D01*
X54035Y43762D01*
Y44427D01*
X53781Y45042D01*
X53310Y45513D01*
X52695Y45768D01*
X52684D01*
X52619Y46268D01*
X53157Y46412D01*
X54324Y47086D01*
X55277Y48039D01*
X55950Y49206D01*
X56299Y50507D01*
Y51374D01*
X56799Y51581D01*
X58530Y49850D01*
D02*
G37*
G36*
X27856Y44390D02*
X28006D01*
X28442Y43954D01*
X28868Y43669D01*
X29370Y43569D01*
X32214D01*
X32548Y43069D01*
X32443Y42814D01*
Y42148D01*
X32697Y41533D01*
X33168Y41062D01*
X33783Y40808D01*
X34449D01*
X35063Y41062D01*
X35169Y41168D01*
X39653D01*
X41284Y39537D01*
X41144Y38969D01*
X40784Y38820D01*
X40314Y38349D01*
X40059Y37734D01*
Y37069D01*
X40314Y36454D01*
X40784Y35983D01*
X41399Y35728D01*
X42065D01*
X42680Y35983D01*
X43151Y36454D01*
X43300Y36814D01*
X43867Y36953D01*
X44741Y36080D01*
X45167Y35795D01*
X45669Y35695D01*
X49063D01*
X53222Y31536D01*
X53099Y31229D01*
X52977Y31074D01*
X52371D01*
X51756Y30819D01*
X51348Y30410D01*
X51010Y30418D01*
X50796Y30472D01*
X50631Y30869D01*
X50160Y31340D01*
X49545Y31594D01*
X48880D01*
X48265Y31340D01*
X48159Y31234D01*
X45660D01*
X45571Y31368D01*
Y32034D01*
X45316Y32649D01*
X44845Y33119D01*
X44230Y33374D01*
X43565D01*
X42950Y33119D01*
X42479Y32649D01*
X42224Y32034D01*
Y31368D01*
X42271Y31256D01*
X41993Y30840D01*
X39126D01*
X34285Y35682D01*
Y37529D01*
X34391Y37635D01*
X34646Y38250D01*
Y38915D01*
X34391Y39530D01*
X33920Y40001D01*
X33305Y40256D01*
X32640D01*
X32025Y40001D01*
X31554Y39530D01*
X31299Y38915D01*
Y38250D01*
X31554Y37635D01*
X31660Y37529D01*
Y35138D01*
X31760Y34635D01*
X32044Y34210D01*
X32978Y33276D01*
X32771Y32776D01*
X32344D01*
X31729Y32521D01*
X31259Y32050D01*
X31004Y31435D01*
Y30770D01*
X31259Y30155D01*
X31729Y29684D01*
X32344Y29429D01*
X32365Y28929D01*
X32352Y28893D01*
X31737Y28638D01*
X31266Y28168D01*
X31012Y27553D01*
Y26887D01*
X31266Y26272D01*
X31737Y25801D01*
X32352Y25547D01*
X33018D01*
X33633Y25801D01*
X34103Y26272D01*
X34358Y26887D01*
X34858Y27065D01*
X36876Y25047D01*
Y22441D01*
X36976Y21939D01*
X37261Y21513D01*
X40032Y18742D01*
X39825Y18242D01*
X37138D01*
X36636Y18142D01*
X36210Y17857D01*
X36200Y17848D01*
X35306D01*
X35200Y17954D01*
X34585Y18209D01*
X33919D01*
X33304Y17954D01*
X32833Y17483D01*
X32579Y16868D01*
Y16203D01*
X32833Y15588D01*
X33304Y15117D01*
X33919Y14862D01*
X34585D01*
X35200Y15117D01*
X35306Y15223D01*
X36744D01*
X37246Y15323D01*
X37672Y15607D01*
X37681Y15617D01*
X39871D01*
X43939Y11549D01*
X43732Y11049D01*
X36477D01*
X31234Y16292D01*
Y17844D01*
X31340Y17950D01*
X31594Y18565D01*
Y19230D01*
X31340Y19845D01*
X30909Y20276D01*
X31340Y20706D01*
X31594Y21321D01*
Y21986D01*
X31340Y22601D01*
X31030Y22911D01*
X31489Y23370D01*
X31743Y23985D01*
Y24651D01*
X31489Y25266D01*
X31018Y25736D01*
X30403Y25991D01*
X29737D01*
X29423Y25861D01*
X28923Y26190D01*
Y39201D01*
X28823Y39703D01*
X28538Y40129D01*
X27328Y41339D01*
Y44158D01*
X27744Y44436D01*
X27856Y44390D01*
D02*
G37*
G36*
X-11378Y42953D02*
X-11035Y42724D01*
X-10630Y42643D01*
X-7123D01*
X-6718Y42724D01*
X-6704Y42733D01*
X-6672Y42737D01*
X-6117Y42524D01*
X-5972Y42173D01*
X-5501Y41702D01*
X-4886Y41447D01*
X-4221D01*
X-4052Y41517D01*
X-3636Y41239D01*
Y38383D01*
X-4162Y38165D01*
X-4633Y37694D01*
X-4888Y37079D01*
Y36413D01*
X-4800Y36203D01*
X-5135Y35703D01*
X-7910D01*
X-8315Y35623D01*
X-8658Y35394D01*
X-26443Y17609D01*
X-28136D01*
X-28474Y17834D01*
X-28878Y17914D01*
X-30482D01*
X-30843Y18275D01*
X-31457Y18530D01*
X-31736D01*
X-32151Y18737D01*
X-32185Y18992D01*
Y19419D01*
X-32232Y19532D01*
X-31954Y19947D01*
X-29134D01*
X-29104Y19953D01*
X-29085Y19907D01*
X-28614Y19437D01*
X-27999Y19182D01*
X-27334D01*
X-26719Y19437D01*
X-26248Y19907D01*
X-25993Y20522D01*
Y21188D01*
X-26248Y21803D01*
X-26719Y22274D01*
X-27334Y22528D01*
X-27999D01*
X-28441Y22345D01*
X-28631Y22472D01*
X-29134Y22572D01*
X-35827D01*
X-36329Y22472D01*
X-36755Y22188D01*
X-50588Y8355D01*
X-51050Y8547D01*
Y13386D01*
X-51149Y13888D01*
X-51434Y14314D01*
X-52071Y14951D01*
X-51974Y15442D01*
X-51808Y15510D01*
X-51459Y15860D01*
X-51031Y15433D01*
X-50416Y15178D01*
X-49890D01*
X-49685Y15096D01*
X-49428Y14770D01*
Y14327D01*
X-49174Y13712D01*
X-48703Y13241D01*
X-48088Y12986D01*
X-47422D01*
X-46807Y13241D01*
X-46337Y13712D01*
X-46082Y14327D01*
Y14992D01*
X-46337Y15607D01*
X-46807Y16078D01*
X-47422Y16333D01*
X-47948D01*
X-48070Y16382D01*
X-48231Y16847D01*
X-34555Y30523D01*
X-34065Y30426D01*
X-34018Y30314D01*
X-33548Y29843D01*
X-32933Y29588D01*
X-32267D01*
X-31652Y29843D01*
X-31181Y30314D01*
X-30927Y30929D01*
Y31594D01*
X-31181Y32209D01*
X-31652Y32680D01*
X-31819Y32749D01*
X-31964Y33227D01*
X-31907Y33312D01*
X-31808Y33815D01*
Y34232D01*
X-31554Y34485D01*
X-31299Y35100D01*
Y35766D01*
X-31554Y36381D01*
X-31342Y36876D01*
X-31102D01*
X-30600Y36976D01*
X-30174Y37261D01*
X-20725Y46710D01*
X-20441Y47135D01*
X-20341Y47638D01*
Y50127D01*
X-20235Y50233D01*
X-19980Y50848D01*
X-19480Y51055D01*
X-11378Y42953D01*
D02*
G37*
G36*
X50907Y28904D02*
X51121Y28850D01*
X51286Y28453D01*
X51392Y28347D01*
Y24508D01*
X50647Y23763D01*
X50362Y23337D01*
X50262Y22835D01*
Y21260D01*
X50362Y20757D01*
X50647Y20332D01*
X53018Y17960D01*
Y16761D01*
X52518Y16490D01*
X52104Y16662D01*
X51439D01*
X50824Y16407D01*
X50548Y16131D01*
X50163Y16516D01*
X49548Y16771D01*
X49359Y17054D01*
X49390Y17129D01*
Y17795D01*
X49135Y18410D01*
X48664Y18880D01*
X48049Y19135D01*
X47384D01*
X46769Y18880D01*
X46298Y18410D01*
X46043Y17795D01*
Y17150D01*
X45984Y17096D01*
X45605Y16882D01*
X39502Y22985D01*
Y25591D01*
X39402Y26093D01*
X39117Y26519D01*
X37604Y28032D01*
X37923Y28420D01*
X38080Y28315D01*
X38583Y28215D01*
X44798D01*
X45300Y28315D01*
X45726Y28599D01*
X45735Y28609D01*
X48159D01*
X48265Y28503D01*
X48880Y28248D01*
X49545D01*
X50160Y28503D01*
X50569Y28911D01*
X50907Y28904D01*
D02*
G37*
G36*
X2486Y31845D02*
Y25197D01*
X2566Y24792D01*
X2795Y24449D01*
X5505Y21739D01*
X5407Y21249D01*
X5290Y21201D01*
X4820Y20730D01*
X4565Y20115D01*
Y19449D01*
X4579Y19416D01*
X3977Y18814D01*
X3747Y18471D01*
X3667Y18066D01*
Y15679D01*
X3747Y15274D01*
X3977Y14931D01*
X8706Y10201D01*
X9050Y9972D01*
X9454Y9891D01*
X21329D01*
X21690Y9530D01*
X22305Y9276D01*
X22971D01*
X23586Y9530D01*
X24056Y10001D01*
X24311Y10616D01*
Y11282D01*
X24056Y11897D01*
X23586Y12367D01*
X22971Y12622D01*
X22305D01*
X21690Y12367D01*
X21329Y12007D01*
X16260D01*
X16054Y12506D01*
X16379Y12832D01*
X16634Y13447D01*
Y14112D01*
X16379Y14727D01*
X15908Y15198D01*
X15293Y15453D01*
X14628D01*
X14013Y15198D01*
X13542Y14727D01*
X13287Y14112D01*
Y13447D01*
X13542Y12832D01*
X13867Y12506D01*
X13662Y12007D01*
X9893D01*
X6772Y15127D01*
X6979Y15627D01*
X7195D01*
X7810Y15882D01*
X7974Y16045D01*
X8374Y16270D01*
X8627Y16045D01*
X8862Y15810D01*
X9477Y15555D01*
X10143D01*
X10758Y15810D01*
X10769Y15807D01*
X10857Y15596D01*
X11328Y15125D01*
X11943Y14870D01*
X12608D01*
X13224Y15125D01*
X13694Y15596D01*
X13949Y16210D01*
Y16721D01*
X22991Y25763D01*
X23453Y25572D01*
Y15392D01*
X23553Y14889D01*
X23838Y14464D01*
X30261Y8041D01*
X30121Y7473D01*
X29761Y7324D01*
X29290Y6853D01*
X29035Y6238D01*
Y5573D01*
X29290Y4958D01*
X29761Y4487D01*
X30376Y4232D01*
X30773D01*
X31121Y3765D01*
X31004Y3482D01*
Y2817D01*
X31259Y2202D01*
X31729Y1731D01*
X32344Y1476D01*
X33010D01*
X33625Y1731D01*
X34096Y2202D01*
X34350Y2817D01*
Y3482D01*
X34096Y4097D01*
X33625Y4568D01*
X33010Y4823D01*
X32612D01*
X32265Y5290D01*
X32382Y5573D01*
Y5925D01*
X32677Y6168D01*
X44539D01*
X44873Y5668D01*
X44783Y5451D01*
Y5217D01*
X44427Y4823D01*
X43762D01*
X43147Y4568D01*
X42676Y4097D01*
X42421Y3482D01*
Y2817D01*
X42676Y2202D01*
X43147Y1731D01*
X43311Y1663D01*
X43212Y1163D01*
X40468D01*
X39965Y1063D01*
X39540Y778D01*
X34812Y-3949D01*
X34264Y-3790D01*
X34096Y-3383D01*
X33625Y-2912D01*
X33010Y-2657D01*
X32344D01*
X31729Y-2912D01*
X31259Y-3383D01*
X31004Y-3998D01*
Y-4663D01*
X31259Y-5279D01*
X31729Y-5749D01*
X32344Y-6004D01*
X32677D01*
Y-6600D01*
X32703Y-6662D01*
X32320Y-7044D01*
X32223Y-7004D01*
X31557D01*
X30942Y-7259D01*
X30471Y-7729D01*
X30217Y-8344D01*
Y-9010D01*
X30471Y-9625D01*
X30832Y-9986D01*
Y-10228D01*
X5317Y-35743D01*
X4817Y-35535D01*
Y-35427D01*
X4563Y-34811D01*
X4092Y-34341D01*
X3477Y-34086D01*
X2811D01*
X2196Y-34341D01*
X1726Y-34811D01*
X1471Y-35427D01*
Y-36092D01*
X1726Y-36707D01*
X2196Y-37178D01*
X2811Y-37433D01*
X2920D01*
X3127Y-37933D01*
X1660Y-39400D01*
X1430Y-39744D01*
X1350Y-40148D01*
Y-52349D01*
X747Y-52696D01*
X308Y-53136D01*
X0Y-53190D01*
X-308Y-53136D01*
X-747Y-52696D01*
X-1398Y-52320D01*
X-2124Y-52126D01*
X-2876D01*
X-3602Y-52320D01*
X-4253Y-52696D01*
X-4536Y-52980D01*
X-4995Y-53085D01*
X-5188Y-52955D01*
X-5617Y-52526D01*
X-6316Y-52122D01*
X-7000Y-51939D01*
Y-54980D01*
X-8000D01*
Y-51939D01*
X-8684Y-52122D01*
X-8973Y-52289D01*
X-9280Y-51889D01*
X-8449Y-51058D01*
X-7480D01*
X-7075Y-50977D01*
X-6732Y-50748D01*
X309Y-43707D01*
X538Y-43363D01*
X619Y-42959D01*
Y-35424D01*
X538Y-35019D01*
X309Y-34676D01*
X-1322Y-33045D01*
X-1115Y-32545D01*
X-1078D01*
X-673Y-32465D01*
X-330Y-32235D01*
X1328Y-30577D01*
X1558Y-30234D01*
X1638Y-29829D01*
Y-14753D01*
X1558Y-14349D01*
X1328Y-14006D01*
X-176Y-12502D01*
X-519Y-12273D01*
X-924Y-12192D01*
X-8506D01*
X-8867Y-11831D01*
X-9482Y-11576D01*
X-10147D01*
X-10762Y-11831D01*
X-11233Y-12302D01*
X-11488Y-12917D01*
Y-13509D01*
X-18007D01*
X-19112Y-12404D01*
Y-11894D01*
X-19367Y-11279D01*
X-19837Y-10808D01*
X-20452Y-10554D01*
X-21118D01*
X-21733Y-10808D01*
X-22204Y-11279D01*
X-22458Y-11894D01*
Y-12560D01*
X-22204Y-13174D01*
X-21733Y-13645D01*
X-21118Y-13900D01*
X-20608D01*
X-19193Y-15315D01*
X-18850Y-15544D01*
X-18445Y-15625D01*
X-11655D01*
X-11359Y-15921D01*
X-11016Y-16150D01*
X-10611Y-16231D01*
X-9018D01*
X-8613Y-16150D01*
X-8270Y-15921D01*
X-7974Y-15625D01*
X-5427D01*
X-5149Y-16040D01*
X-5217Y-16203D01*
Y-16868D01*
X-4962Y-17483D01*
X-4491Y-17954D01*
X-4292Y-18036D01*
Y-18578D01*
X-4491Y-18660D01*
X-4962Y-19131D01*
X-5217Y-19746D01*
Y-20412D01*
X-4962Y-21026D01*
X-4653Y-21336D01*
X-4544Y-21654D01*
X-4653Y-21971D01*
X-4962Y-22280D01*
X-5217Y-22896D01*
Y-23561D01*
X-4962Y-24176D01*
X-4491Y-24647D01*
X-3876Y-24902D01*
X-3210D01*
X-2596Y-24647D01*
X-2345Y-24396D01*
X-1845Y-24604D01*
Y-27770D01*
X-2087D01*
X-2702Y-28025D01*
X-3173Y-28496D01*
X-3354Y-28532D01*
X-3383Y-28503D01*
X-3998Y-28248D01*
X-4663D01*
X-5279Y-28503D01*
X-5749Y-28973D01*
X-6004Y-29588D01*
Y-30254D01*
X-5749Y-30869D01*
X-5279Y-31340D01*
X-4663Y-31594D01*
X-4235D01*
X-3975Y-31921D01*
X-4176Y-32380D01*
X-5056D01*
X-7210Y-30226D01*
Y-26572D01*
X-7126Y-26488D01*
X-6897Y-26145D01*
X-6816Y-25741D01*
Y-22175D01*
X-6455Y-21814D01*
X-6201Y-21199D01*
Y-20533D01*
X-6455Y-19918D01*
X-6926Y-19448D01*
X-7541Y-19193D01*
X-8207D01*
X-8822Y-19448D01*
X-9292Y-19918D01*
X-9547Y-20533D01*
Y-21199D01*
X-9292Y-21814D01*
X-8932Y-22175D01*
Y-25302D01*
X-9016Y-25386D01*
X-9245Y-25729D01*
X-9325Y-26134D01*
Y-30664D01*
X-9245Y-31069D01*
X-9016Y-31412D01*
X-6242Y-34186D01*
X-5899Y-34415D01*
X-5494Y-34496D01*
X-3711D01*
X-3504Y-34996D01*
X-3781Y-35273D01*
X-4035Y-35888D01*
Y-36553D01*
X-3781Y-37168D01*
X-3310Y-37639D01*
X-2695Y-37894D01*
X-2029D01*
X-1912Y-37845D01*
X-1497Y-38123D01*
Y-39813D01*
X-1997Y-39913D01*
X-2125Y-39603D01*
X-2596Y-39133D01*
X-3210Y-38878D01*
X-3876D01*
X-4491Y-39133D01*
X-4962Y-39603D01*
X-5217Y-40218D01*
Y-40846D01*
X-5845D01*
X-6460Y-41101D01*
X-6820Y-41462D01*
X-20034D01*
X-21777Y-39719D01*
Y-21690D01*
X-21857Y-21285D01*
X-22087Y-20942D01*
X-23259Y-19770D01*
X-23602Y-19541D01*
X-24006Y-19460D01*
X-26324D01*
X-26728Y-19541D01*
X-27071Y-19770D01*
X-27122Y-19821D01*
X-27256Y-19766D01*
X-27922D01*
X-28536Y-20020D01*
X-29007Y-20491D01*
X-29140Y-20811D01*
X-29262Y-20837D01*
X-29762Y-20747D01*
X-30017Y-20132D01*
X-30487Y-19661D01*
X-30599Y-19615D01*
X-30606Y-19579D01*
X-30412Y-19079D01*
X-29797Y-18824D01*
X-29327Y-18353D01*
X-29072Y-17738D01*
Y-17073D01*
X-29327Y-16458D01*
X-29797Y-15987D01*
X-30412Y-15732D01*
X-31078D01*
X-31693Y-15987D01*
X-32164Y-16458D01*
X-32418Y-17073D01*
Y-17133D01*
X-34536Y-19251D01*
X-34821Y-19677D01*
X-34921Y-20179D01*
Y-21520D01*
X-35421Y-21727D01*
X-37657Y-19491D01*
X-37465Y-19029D01*
X-36220D01*
X-35718Y-18929D01*
X-35292Y-18645D01*
X-33745Y-17097D01*
X-33460Y-16671D01*
X-33444Y-16591D01*
X-33403Y-16574D01*
X-32932Y-16103D01*
X-32677Y-15488D01*
Y-14823D01*
X-32932Y-14208D01*
X-33213Y-13926D01*
X-32833Y-13546D01*
X-32579Y-12931D01*
Y-12266D01*
X-32833Y-11651D01*
X-33304Y-11180D01*
X-33919Y-10925D01*
X-34585D01*
X-35200Y-11180D01*
X-35671Y-11651D01*
X-35925Y-12266D01*
Y-12931D01*
X-35671Y-13546D01*
X-35389Y-13828D01*
X-35769Y-14208D01*
X-36024Y-14823D01*
Y-15488D01*
X-35972Y-15612D01*
X-36764Y-16404D01*
X-37873D01*
X-45568Y-8710D01*
X-45994Y-8425D01*
X-46496Y-8325D01*
X-56806D01*
X-56882Y-8340D01*
X-57355Y-8329D01*
X-57520Y-7996D01*
X-57637Y-7714D01*
X-58107Y-7243D01*
X-58722Y-6988D01*
X-59388D01*
X-60003Y-7243D01*
X-60474Y-7714D01*
X-60728Y-8329D01*
Y-8994D01*
X-60474Y-9609D01*
X-60003Y-10080D01*
X-59720Y-10197D01*
X-59387Y-10361D01*
X-59376Y-10835D01*
X-59391Y-10911D01*
Y-12711D01*
X-59291Y-13214D01*
X-59007Y-13639D01*
X-56758Y-15889D01*
X-56332Y-16173D01*
X-55829Y-16273D01*
X-54006D01*
X-53901Y-16379D01*
X-53286Y-16634D01*
X-52620D01*
X-52516Y-16591D01*
X-52100Y-16869D01*
Y-20866D01*
X-52000Y-21369D01*
X-51716Y-21794D01*
X-48172Y-25338D01*
X-47746Y-25622D01*
X-47244Y-25722D01*
X-39914D01*
X-34350Y-31286D01*
Y-31435D01*
X-34261Y-31652D01*
X-34595Y-32152D01*
X-42840D01*
X-43793Y-31198D01*
X-43676Y-30608D01*
X-43540Y-30552D01*
X-43070Y-30082D01*
X-42815Y-29467D01*
Y-28801D01*
X-43070Y-28186D01*
X-43540Y-27715D01*
X-44155Y-27461D01*
X-44821D01*
X-45436Y-27715D01*
X-45907Y-28186D01*
X-45963Y-28322D01*
X-46553Y-28439D01*
X-48467Y-26525D01*
X-48893Y-26240D01*
X-49395Y-26140D01*
X-51253D01*
X-51755Y-26240D01*
X-52181Y-26525D01*
X-53574Y-27918D01*
X-53626Y-27995D01*
X-53901Y-28109D01*
X-54093Y-28301D01*
X-54593Y-28094D01*
Y-27432D01*
X-54487Y-27326D01*
X-54232Y-26711D01*
Y-26045D01*
X-54487Y-25430D01*
X-54958Y-24959D01*
X-55390Y-24780D01*
X-55403Y-24771D01*
X-55419Y-24768D01*
X-55573Y-24705D01*
X-55739D01*
X-55905Y-24672D01*
X-56072Y-24705D01*
X-56238D01*
X-56392Y-24768D01*
X-56408Y-24771D01*
X-56421Y-24780D01*
X-56853Y-24959D01*
X-57324Y-25430D01*
X-57579Y-26045D01*
Y-26711D01*
X-57324Y-27326D01*
X-57218Y-27432D01*
Y-29921D01*
X-57118Y-30424D01*
X-56834Y-30849D01*
X-55361Y-32322D01*
X-55521Y-32665D01*
X-55615Y-32776D01*
X-56238D01*
X-56853Y-33030D01*
X-57324Y-33501D01*
X-57579Y-34116D01*
Y-34782D01*
X-57324Y-35397D01*
X-56853Y-35867D01*
X-56413Y-36050D01*
X-56464Y-36570D01*
X-56528Y-36583D01*
X-56954Y-36867D01*
X-56991Y-36904D01*
X-57581Y-36786D01*
X-57637Y-36651D01*
X-58107Y-36180D01*
X-58722Y-35925D01*
X-59388D01*
X-60003Y-36180D01*
X-60474Y-36651D01*
X-60728Y-37266D01*
Y-37931D01*
X-60474Y-38546D01*
X-60003Y-39017D01*
X-59867Y-39073D01*
X-59750Y-39663D01*
X-60002Y-39915D01*
X-60123Y-40095D01*
X-60687Y-40040D01*
X-60786Y-39800D01*
X-61257Y-39330D01*
X-61872Y-39075D01*
X-62538D01*
X-63152Y-39330D01*
X-63623Y-39800D01*
X-63658Y-39884D01*
X-64158Y-39784D01*
Y-35412D01*
X-63658Y-35313D01*
X-63623Y-35397D01*
X-63152Y-35867D01*
X-62538Y-36122D01*
X-61872D01*
X-61257Y-35867D01*
X-60786Y-35397D01*
X-60532Y-34782D01*
Y-34116D01*
X-60786Y-33501D01*
X-61257Y-33030D01*
X-61872Y-32776D01*
X-62538D01*
X-63152Y-33030D01*
X-63623Y-33501D01*
X-63658Y-33585D01*
X-64158Y-33485D01*
Y-27342D01*
X-63658Y-27242D01*
X-63623Y-27326D01*
X-63152Y-27796D01*
X-62538Y-28051D01*
X-61872D01*
X-61257Y-27796D01*
X-60786Y-27326D01*
X-60532Y-26711D01*
Y-26045D01*
X-60786Y-25430D01*
X-61257Y-24959D01*
X-61872Y-24705D01*
X-62538D01*
X-63152Y-24959D01*
X-63623Y-25430D01*
X-63658Y-25514D01*
X-64158Y-25414D01*
Y-21043D01*
X-63658Y-20943D01*
X-63623Y-21027D01*
X-63152Y-21497D01*
X-62538Y-21752D01*
X-61872D01*
X-61257Y-21497D01*
X-60786Y-21027D01*
X-60532Y-20412D01*
Y-19746D01*
X-60786Y-19131D01*
X-61257Y-18660D01*
X-61872Y-18406D01*
X-62538D01*
X-63152Y-18660D01*
X-63623Y-19131D01*
X-63658Y-19215D01*
X-64158Y-19115D01*
Y-12775D01*
X-63658Y-12675D01*
X-63623Y-12759D01*
X-63152Y-13230D01*
X-62538Y-13484D01*
X-61872D01*
X-61257Y-13230D01*
X-60786Y-12759D01*
X-60532Y-12144D01*
Y-11478D01*
X-60786Y-10863D01*
X-61257Y-10393D01*
X-61872Y-10138D01*
X-62538D01*
X-63152Y-10393D01*
X-63623Y-10863D01*
X-63658Y-10947D01*
X-64158Y-10847D01*
Y-6476D01*
X-63658Y-6376D01*
X-63623Y-6460D01*
X-63152Y-6930D01*
X-62538Y-7185D01*
X-61872D01*
X-61257Y-6930D01*
X-60786Y-6460D01*
X-60532Y-5845D01*
Y-5179D01*
X-60786Y-4564D01*
X-61257Y-4093D01*
X-61872Y-3839D01*
X-62538D01*
X-63152Y-4093D01*
X-63623Y-4564D01*
X-63658Y-4648D01*
X-64158Y-4548D01*
X-64158Y4548D01*
X-63658Y4648D01*
X-63623Y4564D01*
X-63152Y4093D01*
X-62538Y3839D01*
X-61872D01*
X-61257Y4093D01*
X-60786Y4564D01*
X-60532Y5179D01*
Y5845D01*
X-60786Y6460D01*
X-61257Y6930D01*
X-61872Y7185D01*
X-62538D01*
X-63152Y6930D01*
X-63623Y6460D01*
X-63658Y6376D01*
X-64158Y6476D01*
Y10847D01*
X-63658Y10947D01*
X-63623Y10863D01*
X-63152Y10392D01*
X-62538Y10138D01*
X-61872D01*
X-61257Y10392D01*
X-60786Y10863D01*
X-60532Y11478D01*
Y12144D01*
X-60786Y12759D01*
X-61257Y13229D01*
X-61872Y13484D01*
X-62538D01*
X-63152Y13229D01*
X-63623Y12759D01*
X-63658Y12675D01*
X-64158Y12775D01*
Y19115D01*
X-63658Y19215D01*
X-63623Y19131D01*
X-63152Y18660D01*
X-62538Y18406D01*
X-61872D01*
X-61257Y18660D01*
X-60786Y19131D01*
X-60532Y19746D01*
Y20412D01*
X-60786Y21026D01*
X-61257Y21497D01*
X-61872Y21752D01*
X-62538D01*
X-63152Y21497D01*
X-63623Y21026D01*
X-63658Y20943D01*
X-64158Y21042D01*
Y25414D01*
X-63658Y25514D01*
X-63623Y25430D01*
X-63152Y24960D01*
X-62538Y24705D01*
X-61872D01*
X-61257Y24960D01*
X-60786Y25430D01*
X-60532Y26045D01*
Y26195D01*
X-59103Y27623D01*
X-58819Y28049D01*
X-58719Y28551D01*
Y31406D01*
X-58257Y31597D01*
X-55025Y28366D01*
X-55308Y27942D01*
X-55573Y28051D01*
X-56238D01*
X-56853Y27797D01*
X-57324Y27326D01*
X-57579Y26711D01*
Y26045D01*
X-57324Y25430D01*
X-56853Y24960D01*
X-56693Y24893D01*
X-56595Y24403D01*
X-57080Y23918D01*
X-57570Y24016D01*
X-57637Y24176D01*
X-58107Y24647D01*
X-58722Y24902D01*
X-59388D01*
X-60003Y24647D01*
X-60474Y24176D01*
X-60728Y23561D01*
Y22896D01*
X-60474Y22281D01*
X-60003Y21810D01*
X-59388Y21555D01*
X-59312Y21463D01*
X-59391Y21063D01*
Y19102D01*
X-59291Y18600D01*
X-59007Y18174D01*
X-53675Y12842D01*
Y3022D01*
X-53781Y2916D01*
X-54035Y2301D01*
Y1636D01*
X-53781Y1021D01*
X-53310Y550D01*
X-52695Y295D01*
X-52029D01*
X-51414Y550D01*
X-50984Y980D01*
X-50554Y550D01*
X-49939Y295D01*
X-49273D01*
X-48658Y550D01*
X-48188Y1021D01*
X-47933Y1636D01*
Y2301D01*
X-48188Y2916D01*
X-48441Y3170D01*
Y4325D01*
X-48541Y4827D01*
X-48826Y5253D01*
X-49081Y5508D01*
Y6149D01*
X-36031Y19199D01*
X-35531Y18992D01*
Y18754D01*
X-35277Y18139D01*
X-34806Y17668D01*
X-34191Y17413D01*
X-33912D01*
X-33498Y17207D01*
X-33463Y16951D01*
Y16524D01*
X-33209Y15909D01*
X-32738Y15438D01*
X-32123Y15184D01*
X-31457D01*
X-30843Y15438D01*
X-30482Y15799D01*
X-29315D01*
X-28977Y15574D01*
X-28572Y15493D01*
X-26005D01*
X-25711Y15552D01*
X-25429Y15170D01*
X-25416Y15139D01*
X-25434Y15121D01*
X-25689Y14506D01*
Y13840D01*
X-25434Y13225D01*
X-24964Y12755D01*
X-24349Y12500D01*
X-23683D01*
X-23068Y12755D01*
X-22597Y13225D01*
X-22343Y13840D01*
Y14506D01*
X-22528Y14953D01*
X-16972Y20509D01*
X-16548Y20226D01*
X-16634Y20018D01*
Y19352D01*
X-16379Y18737D01*
X-15908Y18267D01*
X-15293Y18012D01*
X-14628D01*
X-14013Y18267D01*
X-13542Y18737D01*
X-13059Y18597D01*
X-12778Y18480D01*
X-12112D01*
X-11757Y18628D01*
X-11261Y18737D01*
X-10790Y18267D01*
X-10175Y18012D01*
X-9510D01*
X-8895Y18267D01*
X-8424Y18737D01*
X-8169Y19352D01*
Y20018D01*
X-8424Y20633D01*
X-8895Y21103D01*
X-9510Y21358D01*
X-10175D01*
X-10531Y21211D01*
X-11026Y21101D01*
X-11497Y21572D01*
X-12112Y21827D01*
X-12778D01*
X-13393Y21572D01*
X-13863Y21101D01*
X-14346Y21242D01*
X-14628Y21358D01*
X-15293D01*
X-15501Y21272D01*
X-15785Y21696D01*
X-11505Y25975D01*
X-4937D01*
X-4583Y25622D01*
X-4848Y25357D01*
X-5102Y24742D01*
Y24077D01*
X-5097Y24065D01*
X-5480Y23682D01*
X-5573Y23720D01*
X-6238D01*
X-6853Y23466D01*
X-7324Y22995D01*
X-7579Y22380D01*
Y21714D01*
X-7324Y21099D01*
X-6853Y20629D01*
X-6238Y20374D01*
X-5573D01*
X-4958Y20629D01*
X-4487Y21099D01*
X-4232Y21714D01*
Y22380D01*
X-4237Y22392D01*
X-3855Y22774D01*
X-3762Y22736D01*
X-3096D01*
X-2481Y22991D01*
X-2011Y23462D01*
X-1756Y24077D01*
Y24742D01*
X-2011Y25357D01*
X-2474Y25821D01*
X-2210Y26085D01*
X-1955Y26700D01*
Y27366D01*
X-2210Y27981D01*
X-2681Y28451D01*
X-3296Y28706D01*
X-3543D01*
X-3543Y28707D01*
Y29372D01*
X-3762Y29900D01*
X-3429Y30038D01*
X-2958Y30509D01*
X-2703Y31124D01*
Y31790D01*
X-2958Y32405D01*
X-3429Y32875D01*
X-3942Y33088D01*
X-3843Y33588D01*
X-2595D01*
X-2190Y33669D01*
X-1847Y33898D01*
X-707Y35038D01*
X2486Y31845D01*
D02*
G37*
G36*
X20346Y46937D02*
Y38885D01*
X20383Y38697D01*
Y29297D01*
X11673Y20587D01*
X11183Y20685D01*
X11163Y20734D01*
X10692Y21205D01*
X10828Y21454D01*
X10867Y21493D01*
X11122Y22108D01*
Y22774D01*
X10867Y23389D01*
X10507Y23750D01*
Y30093D01*
X10426Y30498D01*
X10197Y30841D01*
X10113Y30925D01*
Y37357D01*
X19884Y47128D01*
X20346Y46937D01*
D02*
G37*
G36*
X26682Y22776D02*
X28242Y21217D01*
X28310Y21171D01*
X28503Y20706D01*
X28933Y20276D01*
X28503Y19845D01*
X28248Y19230D01*
Y18565D01*
X28503Y17950D01*
X28609Y17844D01*
Y15748D01*
X28708Y15246D01*
X28993Y14820D01*
X34520Y9293D01*
X34313Y8793D01*
X33221D01*
X26078Y15935D01*
Y22780D01*
X26578Y22932D01*
X26682Y22776D01*
D02*
G37*
G36*
X43400Y-1962D02*
X43209Y-2423D01*
Y-3089D01*
X43463Y-3704D01*
X43934Y-4174D01*
X44133Y-4257D01*
Y-4798D01*
X43934Y-4881D01*
X43463Y-5351D01*
X43209Y-5966D01*
Y-6632D01*
X43463Y-7247D01*
X43934Y-7718D01*
X44142Y-7804D01*
X44259Y-8394D01*
X37824Y-14829D01*
X35827D01*
X35324Y-14929D01*
X34899Y-15214D01*
X29781Y-20332D01*
X29531Y-20705D01*
X29121Y-20875D01*
X28650Y-21346D01*
X28396Y-21960D01*
Y-22626D01*
X28650Y-23241D01*
X29121Y-23712D01*
X29361Y-23811D01*
X29261Y-24311D01*
X29049D01*
X28434Y-24566D01*
X27964Y-25036D01*
X27709Y-25651D01*
Y-26317D01*
X27964Y-26932D01*
X28434Y-27403D01*
X29049Y-27657D01*
X29715D01*
X30330Y-27403D01*
X30436Y-27297D01*
X33071D01*
X33573Y-27197D01*
X33596Y-27182D01*
X34090Y-27453D01*
Y-29566D01*
X33590Y-29900D01*
X33404Y-29823D01*
X32738D01*
X32123Y-30078D01*
X31652Y-30548D01*
X31398Y-31163D01*
Y-31313D01*
X29871Y-32840D01*
X29586Y-33266D01*
X29486Y-33768D01*
Y-36704D01*
X29586Y-37207D01*
X29871Y-37633D01*
X31335Y-39097D01*
X31761Y-39381D01*
X32263Y-39481D01*
X33994D01*
X34185Y-39943D01*
X33202Y-40926D01*
X33010Y-40846D01*
X32344D01*
X31729Y-41101D01*
X31259Y-41572D01*
X31004Y-42187D01*
Y-42852D01*
X31259Y-43467D01*
X31729Y-43938D01*
X31737Y-43941D01*
X31896Y-44548D01*
X31738Y-44750D01*
X26487D01*
X26381Y-44644D01*
X25766Y-44390D01*
X25100D01*
X24485Y-44644D01*
X24014Y-45115D01*
X23760Y-45730D01*
Y-46396D01*
X24014Y-47011D01*
X24485Y-47481D01*
X25100Y-47736D01*
X25766D01*
X26381Y-47481D01*
X26487Y-47376D01*
X32677D01*
X33180Y-47276D01*
X33605Y-46991D01*
X35724Y-44872D01*
X36215Y-44970D01*
X36261Y-45082D01*
X36732Y-45552D01*
X37347Y-45807D01*
X38012D01*
X38627Y-45552D01*
X39098Y-45082D01*
X39353Y-44467D01*
Y-43801D01*
X39098Y-43186D01*
X39063Y-43151D01*
X39270Y-42651D01*
X49999D01*
X50063Y-42766D01*
X50152Y-43151D01*
X49763Y-43540D01*
X49508Y-44155D01*
Y-44821D01*
X49763Y-45436D01*
X50006Y-45680D01*
X49857Y-46237D01*
X49205Y-46412D01*
X48039Y-47085D01*
X47086Y-48038D01*
X46412Y-49205D01*
X46063Y-50507D01*
Y-51855D01*
X46412Y-53157D01*
X47086Y-54324D01*
X48039Y-55277D01*
X49205Y-55950D01*
X49620Y-56061D01*
X49554Y-56561D01*
X46683D01*
X46091Y-55970D01*
Y-55820D01*
X45836Y-55205D01*
X45366Y-54734D01*
X44751Y-54479D01*
X44085D01*
X43470Y-54734D01*
X42999Y-55205D01*
X42745Y-55820D01*
Y-56485D01*
X42999Y-57100D01*
X43470Y-57571D01*
X44085Y-57826D01*
X44235D01*
X45211Y-58802D01*
X45279Y-58847D01*
X45333Y-59485D01*
X45137Y-59682D01*
X44882Y-60297D01*
Y-60963D01*
X45137Y-61578D01*
X45607Y-62048D01*
X46222Y-62303D01*
X46888D01*
X47503Y-62048D01*
X47974Y-61578D01*
X48228Y-60963D01*
Y-60297D01*
X47974Y-59682D01*
X48185Y-59187D01*
X49452D01*
X49664Y-59682D01*
X49409Y-60297D01*
Y-60963D01*
X49664Y-61578D01*
X50135Y-62048D01*
X50750Y-62303D01*
X51415D01*
X52030Y-62048D01*
X52501Y-61578D01*
X52756Y-60963D01*
Y-60297D01*
X52501Y-59682D01*
X52713Y-59187D01*
X53937D01*
X54439Y-59087D01*
X54865Y-58802D01*
X58310Y-55357D01*
X58595Y-54931D01*
X58694Y-54429D01*
Y-53479D01*
X59110Y-53202D01*
X59222Y-53248D01*
X59888D01*
X60000Y-53202D01*
X60416Y-53479D01*
Y-54842D01*
X59803Y-55455D01*
X59288Y-55668D01*
X58818Y-56139D01*
X58563Y-56754D01*
Y-57419D01*
X58818Y-58034D01*
X59288Y-58505D01*
X59903Y-58760D01*
X60569D01*
X61157Y-58516D01*
X61191Y-58508D01*
X61686Y-58711D01*
X61696Y-58794D01*
X60958Y-59756D01*
X59756Y-60958D01*
X58794Y-61696D01*
X58711Y-61686D01*
X58508Y-61191D01*
X58516Y-61157D01*
X58760Y-60569D01*
Y-59903D01*
X58505Y-59288D01*
X58034Y-58818D01*
X57419Y-58563D01*
X56754D01*
X56139Y-58818D01*
X55668Y-59288D01*
X55413Y-59903D01*
Y-60569D01*
X55668Y-61184D01*
X56139Y-61655D01*
X56754Y-61909D01*
X57419D01*
X57891Y-61714D01*
X58112Y-62164D01*
X56933Y-62845D01*
X55361Y-63496D01*
X53718Y-63936D01*
X52032Y-64158D01*
X51181D01*
X10269D01*
X10062Y-63658D01*
X11602Y-62118D01*
X11831Y-61774D01*
X11912Y-61370D01*
Y-53374D01*
X11831Y-52969D01*
X11602Y-52626D01*
X8932Y-49956D01*
Y-45797D01*
X9292Y-45436D01*
X9547Y-44821D01*
Y-44155D01*
X9292Y-43540D01*
X8822Y-43070D01*
X8403Y-42896D01*
X8503Y-42396D01*
X11373D01*
X22087Y-53110D01*
X22430Y-53339D01*
X22754Y-53404D01*
X22705Y-53904D01*
X19146D01*
X17725Y-52483D01*
Y-51058D01*
X17625Y-50556D01*
X17341Y-50130D01*
X16240Y-49029D01*
Y-48880D01*
X15985Y-48265D01*
X15515Y-47794D01*
X14900Y-47539D01*
X14234D01*
X13619Y-47794D01*
X13174Y-48240D01*
X12967Y-48033D01*
X12352Y-47778D01*
X11686D01*
X11071Y-48033D01*
X10600Y-48504D01*
X10346Y-49119D01*
Y-49784D01*
X10600Y-50399D01*
X11071Y-50870D01*
X11686Y-51125D01*
X12352D01*
X12967Y-50870D01*
X13412Y-50424D01*
X13619Y-50631D01*
X14234Y-50886D01*
X14384D01*
X15100Y-51602D01*
Y-53027D01*
X15200Y-53529D01*
X15484Y-53955D01*
X17674Y-56145D01*
X18100Y-56429D01*
X18602Y-56529D01*
X37135D01*
X37241Y-56635D01*
X37856Y-56890D01*
X38522D01*
X38802Y-56774D01*
X38944Y-56808D01*
X39340Y-57085D01*
X39383Y-57300D01*
X39612Y-57643D01*
X41068Y-59100D01*
Y-60109D01*
X40707Y-60470D01*
X40453Y-61085D01*
Y-61750D01*
X40707Y-62365D01*
X41178Y-62836D01*
X41793Y-63090D01*
X42459D01*
X43074Y-62836D01*
X43545Y-62365D01*
X43799Y-61750D01*
Y-61085D01*
X43545Y-60470D01*
X43184Y-60109D01*
Y-58661D01*
X43103Y-58257D01*
X42874Y-57914D01*
X41418Y-56457D01*
Y-54511D01*
X41337Y-54106D01*
X41108Y-53763D01*
X38959Y-51614D01*
X38616Y-51385D01*
X38211Y-51305D01*
X23273D01*
X12559Y-40591D01*
X12216Y-40361D01*
X11811Y-40281D01*
X7480D01*
X7075Y-40361D01*
X6732Y-40591D01*
X6466Y-40857D01*
X5889Y-40727D01*
X5749Y-40391D01*
X5279Y-39920D01*
X4967Y-39791D01*
X4848Y-39203D01*
X32638Y-11414D01*
X32867Y-11071D01*
X32947Y-10666D01*
Y-9986D01*
X33308Y-9625D01*
X33563Y-9010D01*
Y-8344D01*
X33537Y-8282D01*
X33920Y-7900D01*
X34018Y-7940D01*
X34683D01*
X35298Y-7685D01*
X35769Y-7215D01*
X36024Y-6600D01*
Y-6450D01*
X41011Y-1462D01*
X43156D01*
X43400Y-1962D01*
D02*
G37*
G36*
X54487Y-12759D02*
X54958Y-13230D01*
X55573Y-13484D01*
X56238D01*
X56350Y-13438D01*
X56766Y-13716D01*
Y-18174D01*
X56350Y-18452D01*
X56238Y-18406D01*
X55573D01*
X54958Y-18660D01*
X54487Y-19131D01*
X54232Y-19746D01*
Y-20412D01*
X54487Y-21027D01*
X54958Y-21497D01*
X55573Y-21752D01*
X55638Y-21831D01*
X55569Y-22176D01*
Y-23138D01*
X55107Y-23330D01*
X54078Y-22300D01*
X53652Y-22016D01*
X53150Y-21916D01*
X43962D01*
X43459Y-22016D01*
X43033Y-22300D01*
X37548Y-27786D01*
X37005Y-27621D01*
X36977Y-27478D01*
X45032Y-19423D01*
X47984D01*
X48487Y-19323D01*
X48913Y-19038D01*
X49388Y-18563D01*
X49538D01*
X50153Y-18308D01*
X50479Y-17982D01*
X50816Y-18319D01*
X51431Y-18574D01*
X52097D01*
X52712Y-18319D01*
X53182Y-17848D01*
X53437Y-17233D01*
Y-16568D01*
X53182Y-15953D01*
X52712Y-15482D01*
X52097Y-15227D01*
X51431D01*
X50816Y-15482D01*
X50490Y-15808D01*
X50153Y-15471D01*
X49538Y-15217D01*
X49530D01*
X49450Y-15096D01*
Y-14430D01*
X49195Y-13815D01*
X48724Y-13344D01*
X48448Y-13230D01*
X48547Y-12730D01*
X54475D01*
X54487Y-12759D01*
D02*
G37*
G36*
X-41167Y-19351D02*
X-41117Y-19602D01*
X-40832Y-20028D01*
X-34484Y-26377D01*
Y-26526D01*
X-34338Y-26878D01*
X-34762Y-27161D01*
X-38442Y-23481D01*
X-38868Y-23197D01*
X-39370Y-23097D01*
X-46700D01*
X-49475Y-20322D01*
Y-18789D01*
X-48975Y-18582D01*
X-48893Y-18663D01*
X-48278Y-18918D01*
X-47613D01*
X-46998Y-18663D01*
X-46527Y-18193D01*
X-46273Y-17578D01*
Y-16912D01*
X-46527Y-16297D01*
X-46998Y-15826D01*
X-47613Y-15572D01*
X-47874D01*
X-48297Y-15343D01*
X-48316Y-15110D01*
Y-14667D01*
X-48571Y-14052D01*
X-49000Y-13624D01*
X-48976Y-13428D01*
X-48846Y-13124D01*
X-47394D01*
X-41167Y-19351D01*
D02*
G37*
G36*
X54232Y-26167D02*
Y-26711D01*
X54487Y-27326D01*
X54958Y-27796D01*
X54967Y-27800D01*
X54867Y-28300D01*
X54386D01*
X54281Y-28194D01*
X53666Y-27940D01*
X53000D01*
X52385Y-28194D01*
X51914Y-28665D01*
X51660Y-29280D01*
Y-29730D01*
X51599Y-29770D01*
X50933D01*
X50893Y-29743D01*
Y-29274D01*
X50638Y-28659D01*
X50167Y-28188D01*
X49552Y-27934D01*
X48887D01*
X48272Y-28188D01*
X47801Y-28659D01*
X47546Y-29274D01*
Y-29424D01*
X45793Y-31177D01*
X45509Y-31603D01*
X45409Y-32105D01*
Y-33444D01*
X43944Y-34908D01*
X39764D01*
X39608Y-34939D01*
X39108Y-34555D01*
Y-29938D01*
X44505Y-24541D01*
X52606D01*
X54232Y-26167D01*
D02*
G37*
G36*
X-28084Y-26740D02*
Y-47346D01*
X-28584Y-47445D01*
X-28656Y-47273D01*
X-29126Y-46802D01*
X-29741Y-46547D01*
X-30407D01*
X-31007Y-46796D01*
X-31066Y-46769D01*
X-31424Y-46497D01*
X-31230Y-46027D01*
Y-45362D01*
X-31484Y-44747D01*
X-31955Y-44276D01*
X-32570Y-44021D01*
X-32859D01*
X-33066Y-43521D01*
X-32128Y-42584D01*
X-31903D01*
X-31288Y-42329D01*
X-30817Y-41858D01*
X-30563Y-41243D01*
Y-40578D01*
X-30817Y-39963D01*
X-30972Y-39808D01*
X-30855Y-39218D01*
X-30843Y-39214D01*
X-30373Y-38743D01*
X-30118Y-38128D01*
Y-37462D01*
X-30373Y-36847D01*
X-30843Y-36377D01*
X-31459Y-36122D01*
X-32124D01*
X-32739Y-36377D01*
X-32845Y-36483D01*
X-38303D01*
X-38805Y-36583D01*
X-39231Y-36867D01*
X-39658Y-37293D01*
X-40157Y-37086D01*
Y-36675D01*
X-40412Y-36060D01*
X-40883Y-35589D01*
X-41498Y-35335D01*
X-42164D01*
X-42779Y-35589D01*
X-43249Y-36060D01*
X-43369Y-36351D01*
X-43959Y-36468D01*
X-48971Y-31456D01*
Y-30610D01*
X-48935Y-30574D01*
X-48871Y-30421D01*
X-48381Y-30323D01*
X-44311Y-34393D01*
X-43886Y-34677D01*
X-43383Y-34777D01*
X-31496D01*
X-30994Y-34677D01*
X-30568Y-34393D01*
X-28993Y-32818D01*
X-28709Y-32392D01*
X-28609Y-31890D01*
Y-26991D01*
X-28109Y-26723D01*
X-28084Y-26740D01*
D02*
G37*
G36*
X49593Y-31776D02*
X49848Y-32392D01*
X49954Y-32497D01*
Y-33232D01*
X50054Y-33735D01*
X50338Y-34161D01*
X55090Y-38913D01*
X55117Y-39103D01*
X54985Y-39515D01*
X54958Y-39526D01*
X54487Y-39997D01*
X54475Y-40026D01*
X46012D01*
X45678Y-39526D01*
X45768Y-39309D01*
Y-38644D01*
X45513Y-38029D01*
X45307Y-37823D01*
X45357Y-37188D01*
X45416Y-37149D01*
X47649Y-34915D01*
X47934Y-34490D01*
X48034Y-33987D01*
Y-32649D01*
X49093Y-31590D01*
X49593Y-31776D01*
D02*
G37*
G36*
X-26294Y-23214D02*
X-26222Y-23389D01*
X-25751Y-23859D01*
X-25136Y-24114D01*
X-24470D01*
X-24308Y-24047D01*
X-23892Y-24325D01*
Y-40157D01*
X-23812Y-40562D01*
X-23583Y-40905D01*
X-21220Y-43268D01*
X-20877Y-43497D01*
X-20472Y-43577D01*
X-7479D01*
X-7380Y-44077D01*
X-7798Y-44251D01*
X-8269Y-44721D01*
X-8383Y-44998D01*
X-8788Y-45262D01*
X-8971Y-45210D01*
X-9426Y-45022D01*
X-10092D01*
X-10707Y-45277D01*
X-11178Y-45747D01*
X-11712Y-45731D01*
X-12099Y-45571D01*
X-12765D01*
X-13379Y-45826D01*
X-13850Y-46296D01*
X-14413Y-46348D01*
X-14688Y-46234D01*
X-15354D01*
X-15969Y-46489D01*
X-16439Y-46959D01*
X-16694Y-47574D01*
Y-48240D01*
X-16439Y-48855D01*
X-15969Y-49326D01*
X-15354Y-49580D01*
X-14688D01*
X-14073Y-49326D01*
X-13602Y-48855D01*
X-13040Y-48803D01*
X-12765Y-48917D01*
X-12099D01*
X-11484Y-48663D01*
X-11013Y-48192D01*
X-10479Y-48208D01*
X-10092Y-48368D01*
X-9426D01*
X-8811Y-48114D01*
X-8341Y-47643D01*
X-8226Y-47367D01*
X-7821Y-47103D01*
X-7638Y-47154D01*
X-7183Y-47343D01*
X-7026D01*
X-6819Y-47842D01*
X-7918Y-48942D01*
X-8887D01*
X-9291Y-49023D01*
X-9634Y-49252D01*
X-11772Y-51389D01*
X-12001Y-51732D01*
X-12081Y-52137D01*
Y-61200D01*
X-12001Y-61605D01*
X-11772Y-61948D01*
X-10062Y-63658D01*
X-10269Y-64158D01*
X-15445D01*
X-15631Y-63658D01*
X-15354Y-62990D01*
Y-62207D01*
X-15654Y-61483D01*
X-16208Y-60930D01*
X-16767Y-60698D01*
Y-60168D01*
X-16208Y-59936D01*
X-15654Y-59383D01*
X-15354Y-58659D01*
Y-57876D01*
X-15654Y-57153D01*
X-16208Y-56599D01*
X-16931Y-56299D01*
X-17714D01*
X-18438Y-56599D01*
X-18992Y-57153D01*
X-19291Y-57876D01*
Y-58659D01*
X-18992Y-59383D01*
X-18438Y-59936D01*
X-17879Y-60168D01*
Y-60698D01*
X-18438Y-60930D01*
X-18992Y-61483D01*
X-19291Y-62207D01*
Y-62990D01*
X-19015Y-63658D01*
X-19201Y-64158D01*
X-20957D01*
X-21143Y-63658D01*
X-20866Y-62990D01*
Y-62207D01*
X-21166Y-61483D01*
X-21720Y-60930D01*
X-22278Y-60698D01*
Y-60168D01*
X-21720Y-59937D01*
X-21166Y-59383D01*
X-20866Y-58659D01*
Y-57876D01*
X-21166Y-57153D01*
X-21720Y-56599D01*
X-22443Y-56299D01*
X-23226D01*
X-23950Y-56599D01*
X-24503Y-57153D01*
X-24803Y-57876D01*
Y-58659D01*
X-24503Y-59383D01*
X-23950Y-59937D01*
X-23391Y-60168D01*
Y-60698D01*
X-23950Y-60930D01*
X-24503Y-61483D01*
X-24803Y-62207D01*
Y-62990D01*
X-24527Y-63658D01*
X-24712Y-64158D01*
X-26469D01*
X-26655Y-63658D01*
X-26378Y-62990D01*
Y-62207D01*
X-26678Y-61483D01*
X-27231Y-60930D01*
X-27790Y-60698D01*
Y-60168D01*
X-27231Y-59936D01*
X-26678Y-59383D01*
X-26378Y-58659D01*
Y-57876D01*
X-26678Y-57153D01*
X-27231Y-56599D01*
X-27955Y-56299D01*
X-28738D01*
X-29462Y-56599D01*
X-30015Y-57153D01*
X-30315Y-57876D01*
Y-58659D01*
X-30015Y-59383D01*
X-29462Y-59936D01*
X-28903Y-60168D01*
Y-60698D01*
X-29462Y-60930D01*
X-30015Y-61483D01*
X-30315Y-62207D01*
Y-62990D01*
X-30038Y-63658D01*
X-30224Y-64158D01*
X-51181D01*
X-52032D01*
X-53718Y-63936D01*
X-55361Y-63496D01*
X-56933Y-62845D01*
X-58406Y-61994D01*
X-59756Y-60958D01*
X-60958Y-59756D01*
X-61994Y-58406D01*
X-62845Y-56933D01*
X-63324Y-55774D01*
X-62901Y-55491D01*
X-61542Y-56850D01*
Y-57000D01*
X-61287Y-57615D01*
X-60816Y-58086D01*
X-60201Y-58340D01*
X-59536D01*
X-58921Y-58086D01*
X-58450Y-57615D01*
X-58195Y-57000D01*
Y-56334D01*
X-58305Y-56070D01*
X-57881Y-55786D01*
X-55786Y-57881D01*
X-56070Y-58305D01*
X-56334Y-58195D01*
X-57000D01*
X-57615Y-58450D01*
X-58086Y-58921D01*
X-58340Y-59536D01*
Y-60201D01*
X-58086Y-60816D01*
X-57615Y-61287D01*
X-57000Y-61542D01*
X-56334D01*
X-55719Y-61287D01*
X-55248Y-60816D01*
X-54994Y-60201D01*
Y-59536D01*
X-55194Y-59053D01*
X-54878Y-58738D01*
X-54820Y-58696D01*
X-54331Y-58793D01*
X-52265D01*
X-52201Y-58908D01*
X-52112Y-59293D01*
X-52501Y-59682D01*
X-52756Y-60297D01*
Y-60963D01*
X-52501Y-61578D01*
X-52030Y-62048D01*
X-51415Y-62303D01*
X-50750D01*
X-50135Y-62048D01*
X-49664Y-61578D01*
X-49409Y-60963D01*
Y-60297D01*
X-49664Y-59682D01*
X-50053Y-59293D01*
X-49965Y-58908D01*
X-49900Y-58793D01*
X-47738D01*
X-47673Y-58908D01*
X-47584Y-59293D01*
X-47974Y-59682D01*
X-48228Y-60297D01*
Y-60963D01*
X-47974Y-61578D01*
X-47503Y-62048D01*
X-46888Y-62303D01*
X-46222D01*
X-45607Y-62048D01*
X-45137Y-61578D01*
X-44882Y-60963D01*
Y-60297D01*
X-45137Y-59682D01*
X-45607Y-59211D01*
X-46222Y-58957D01*
X-46236D01*
X-46388Y-58457D01*
X-46316Y-58408D01*
X-39614Y-51706D01*
X-28740D01*
X-28238Y-51606D01*
X-27812Y-51322D01*
X-25844Y-49353D01*
X-25559Y-48928D01*
X-25459Y-48425D01*
Y-25743D01*
X-25559Y-25241D01*
X-25844Y-24815D01*
X-27002Y-23657D01*
X-26890Y-23155D01*
X-26486Y-23016D01*
X-26294Y-23214D01*
D02*
G37*
%LPC*%
G36*
X-35408Y48898D02*
X-36074D01*
X-36689Y48643D01*
X-37159Y48172D01*
X-37414Y47557D01*
Y46892D01*
X-37159Y46277D01*
X-36689Y45806D01*
X-36074Y45551D01*
X-35408D01*
X-34793Y45806D01*
X-34654Y45945D01*
X-34096Y45903D01*
X-33625Y45432D01*
X-33010Y45177D01*
X-32344D01*
X-31729Y45432D01*
X-31259Y45903D01*
X-31004Y46518D01*
Y47183D01*
X-31259Y47798D01*
X-31729Y48269D01*
X-32344Y48524D01*
X-33010D01*
X-33625Y48269D01*
X-33764Y48130D01*
X-34322Y48172D01*
X-34793Y48643D01*
X-35408Y48898D01*
D02*
G37*
G36*
X57026Y61909D02*
X56360D01*
X55745Y61655D01*
X55274Y61184D01*
X55020Y60569D01*
Y59903D01*
X55274Y59288D01*
X55745Y58818D01*
X56360Y58563D01*
X57026D01*
X57641Y58818D01*
X58111Y59288D01*
X58366Y59903D01*
Y60569D01*
X58111Y61184D01*
X57641Y61655D01*
X57026Y61909D01*
D02*
G37*
G36*
X59388Y39468D02*
X58722D01*
X58107Y39214D01*
X57637Y38743D01*
X57382Y38128D01*
Y37462D01*
X57637Y36847D01*
X58107Y36377D01*
X58722Y36122D01*
X59388D01*
X60003Y36377D01*
X60474Y36847D01*
X60728Y37462D01*
Y38128D01*
X60474Y38743D01*
X60003Y39214D01*
X59388Y39468D01*
D02*
G37*
G36*
Y24902D02*
X58722D01*
X58107Y24647D01*
X57637Y24176D01*
X57382Y23561D01*
Y22896D01*
X57637Y22281D01*
X58107Y21810D01*
X58722Y21555D01*
X59388D01*
X60003Y21810D01*
X60474Y22281D01*
X60728Y22896D01*
Y23561D01*
X60474Y24176D01*
X60003Y24647D01*
X59388Y24902D01*
D02*
G37*
G36*
Y10335D02*
X58722D01*
X58107Y10080D01*
X57637Y9609D01*
X57382Y8994D01*
Y8329D01*
X57637Y7714D01*
X58107Y7243D01*
X58722Y6988D01*
X59388D01*
X60003Y7243D01*
X60474Y7714D01*
X60728Y8329D01*
Y8994D01*
X60474Y9609D01*
X60003Y10080D01*
X59388Y10335D01*
D02*
G37*
G36*
X-30671Y27264D02*
X-31337D01*
X-31952Y27009D01*
X-32422Y26538D01*
X-32677Y25923D01*
Y25258D01*
X-32422Y24643D01*
X-31952Y24172D01*
X-31337Y23917D01*
X-30671D01*
X-30056Y24172D01*
X-29585Y24643D01*
X-29331Y25258D01*
Y25923D01*
X-29585Y26538D01*
X-30056Y27009D01*
X-30671Y27264D01*
D02*
G37*
G36*
X-4362Y16797D02*
X-5028D01*
X-5643Y16543D01*
X-6113Y16072D01*
X-6368Y15457D01*
Y14791D01*
X-6113Y14176D01*
X-5643Y13706D01*
X-5028Y13451D01*
X-4362D01*
X-3747Y13706D01*
X-3276Y14176D01*
X-3022Y14791D01*
Y15457D01*
X-3276Y16072D01*
X-3747Y16543D01*
X-4362Y16797D01*
D02*
G37*
G36*
X4270Y11909D02*
X3604D01*
X2989Y11655D01*
X2680Y11346D01*
X2362Y11237D01*
X2044Y11346D01*
X1735Y11655D01*
X1120Y11909D01*
X455D01*
X-160Y11655D01*
X-631Y11184D01*
X-886Y10569D01*
Y9903D01*
X-631Y9288D01*
X-160Y8818D01*
X455Y8563D01*
X1120D01*
X1735Y8818D01*
X2044Y9127D01*
X2362Y9235D01*
X2680Y9127D01*
X2989Y8818D01*
X3604Y8563D01*
X4270D01*
X4885Y8818D01*
X5356Y9288D01*
X5610Y9903D01*
Y10569D01*
X5356Y11184D01*
X4885Y11655D01*
X4270Y11909D01*
D02*
G37*
G36*
X-30376Y11122D02*
X-31041D01*
X-31657Y10867D01*
X-32127Y10397D01*
X-32717Y10280D01*
X-32910Y10474D01*
X-33525Y10728D01*
X-34191D01*
X-34806Y10474D01*
X-35277Y10003D01*
X-35531Y9388D01*
Y8722D01*
X-35277Y8107D01*
X-34806Y7637D01*
X-34191Y7382D01*
X-33525D01*
X-32910Y7637D01*
X-32440Y8107D01*
X-31850Y8224D01*
X-31657Y8030D01*
X-31041Y7776D01*
X-30376D01*
X-29761Y8030D01*
X-29290Y8501D01*
X-29035Y9116D01*
Y9782D01*
X-29290Y10397D01*
X-29761Y10867D01*
X-30376Y11122D01*
D02*
G37*
G36*
X-55573Y13484D02*
X-56238D01*
X-56853Y13229D01*
X-57324Y12759D01*
X-57579Y12144D01*
Y11478D01*
X-57324Y10863D01*
X-56853Y10392D01*
X-56238Y10138D01*
X-55573D01*
X-54958Y10392D01*
X-54487Y10863D01*
X-54232Y11478D01*
Y12144D01*
X-54487Y12759D01*
X-54958Y13229D01*
X-55573Y13484D01*
D02*
G37*
G36*
X27301Y8858D02*
X26636D01*
X26021Y8603D01*
X25550Y8133D01*
X25545Y8122D01*
X25292Y8078D01*
X24989Y8086D01*
X24570Y8505D01*
X23955Y8760D01*
X23289D01*
X22674Y8505D01*
X22204Y8034D01*
X21949Y7419D01*
Y6754D01*
X22204Y6139D01*
X22674Y5668D01*
X23289Y5413D01*
X23955D01*
X24570Y5668D01*
X25041Y6139D01*
X25045Y6150D01*
X25298Y6194D01*
X25601Y6186D01*
X26021Y5767D01*
X26636Y5512D01*
X27301D01*
X27916Y5767D01*
X28387Y6237D01*
X28642Y6852D01*
Y7518D01*
X28387Y8133D01*
X27916Y8603D01*
X27301Y8858D01*
D02*
G37*
G36*
X-58722Y10335D02*
X-59388D01*
X-60003Y10080D01*
X-60474Y9609D01*
X-60728Y8994D01*
Y8329D01*
X-60474Y7714D01*
X-60003Y7243D01*
X-59388Y6988D01*
X-58722D01*
X-58107Y7243D01*
X-57637Y7714D01*
X-57382Y8329D01*
Y8994D01*
X-57637Y9609D01*
X-58107Y10080D01*
X-58722Y10335D01*
D02*
G37*
G36*
X-55573Y7185D02*
X-56238D01*
X-56853Y6930D01*
X-57324Y6460D01*
X-57579Y5845D01*
Y5179D01*
X-57324Y4564D01*
X-56853Y4093D01*
X-56238Y3839D01*
X-55573D01*
X-54958Y4093D01*
X-54487Y4564D01*
X-54232Y5179D01*
Y5845D01*
X-54487Y6460D01*
X-54958Y6930D01*
X-55573Y7185D01*
D02*
G37*
G36*
X-4022Y3125D02*
X-4688D01*
X-5303Y2870D01*
X-5612Y2561D01*
X-5930Y2453D01*
X-6248Y2561D01*
X-6557Y2870D01*
X-7172Y3125D01*
X-7838D01*
X-8453Y2870D01*
X-8923Y2400D01*
X-9178Y1785D01*
Y1119D01*
X-8923Y504D01*
X-8614Y195D01*
X-8506Y-123D01*
X-8614Y-441D01*
X-8923Y-750D01*
X-9178Y-1365D01*
Y-2031D01*
X-8923Y-2646D01*
X-8453Y-3116D01*
X-7838Y-3371D01*
X-7172D01*
X-6557Y-3116D01*
X-6248Y-2807D01*
X-5930Y-2699D01*
X-5612Y-2807D01*
X-5303Y-3116D01*
X-4688Y-3371D01*
X-4022D01*
X-3407Y-3116D01*
X-2937Y-2646D01*
X-2682Y-2031D01*
Y-1365D01*
X-2937Y-750D01*
X-3246Y-441D01*
X-3354Y-123D01*
X-3246Y195D01*
X-2937Y504D01*
X-2682Y1119D01*
Y1785D01*
X-2937Y2400D01*
X-3407Y2870D01*
X-4022Y3125D01*
D02*
G37*
G36*
X-49667Y-650D02*
X-50333D01*
X-50948Y-904D01*
X-51419Y-1375D01*
X-51673Y-1990D01*
Y-2656D01*
X-51419Y-3271D01*
X-50948Y-3741D01*
X-50333Y-3996D01*
X-49667D01*
X-49052Y-3741D01*
X-48581Y-3271D01*
X-48327Y-2656D01*
Y-1990D01*
X-48581Y-1375D01*
X-49052Y-904D01*
X-49667Y-650D01*
D02*
G37*
G36*
X-44549Y6398D02*
X-45215D01*
X-45830Y6143D01*
X-46300Y5672D01*
X-46555Y5057D01*
Y4392D01*
X-46300Y3777D01*
X-45991Y3467D01*
X-45883Y3150D01*
X-45991Y2832D01*
X-46300Y2523D01*
X-46555Y1908D01*
Y1242D01*
X-46300Y627D01*
X-45991Y318D01*
X-45883Y0D01*
X-45991Y-318D01*
X-46300Y-627D01*
X-46555Y-1242D01*
Y-1908D01*
X-46300Y-2523D01*
X-45991Y-2832D01*
X-45883Y-3150D01*
X-45991Y-3467D01*
X-46300Y-3777D01*
X-46555Y-4392D01*
Y-5057D01*
X-46300Y-5672D01*
X-45830Y-6143D01*
X-45215Y-6398D01*
X-44549D01*
X-43934Y-6143D01*
X-43463Y-5672D01*
X-43209Y-5057D01*
Y-4392D01*
X-43463Y-3777D01*
X-43773Y-3467D01*
X-43881Y-3150D01*
X-43773Y-2832D01*
X-43463Y-2523D01*
X-43209Y-1908D01*
Y-1242D01*
X-43463Y-627D01*
X-43773Y-318D01*
X-43881Y0D01*
X-43773Y318D01*
X-43463Y627D01*
X-43209Y1242D01*
Y1908D01*
X-43463Y2523D01*
X-43773Y2832D01*
X-43881Y3150D01*
X-43773Y3467D01*
X-43463Y3777D01*
X-43209Y4392D01*
Y5057D01*
X-43463Y5672D01*
X-43934Y6143D01*
X-44549Y6398D01*
D02*
G37*
G36*
X-55573Y-3839D02*
X-56238D01*
X-56853Y-4093D01*
X-57324Y-4564D01*
X-57579Y-5179D01*
Y-5845D01*
X-57324Y-6460D01*
X-56853Y-6930D01*
X-56238Y-7185D01*
X-55573D01*
X-54958Y-6930D01*
X-54487Y-6460D01*
X-54232Y-5845D01*
Y-5179D01*
X-54487Y-4564D01*
X-54958Y-4093D01*
X-55573Y-3839D01*
D02*
G37*
G36*
X27301Y-6693D02*
X26636D01*
X26021Y-6948D01*
X25591Y-7378D01*
X25160Y-6948D01*
X24545Y-6693D01*
X23880D01*
X23265Y-6948D01*
X22794Y-7418D01*
X22539Y-8033D01*
Y-8699D01*
X22794Y-9314D01*
X23265Y-9785D01*
X23331Y-9812D01*
X23130Y-10297D01*
Y-10963D01*
X23385Y-11578D01*
X23855Y-12048D01*
X24470Y-12303D01*
X25136D01*
X25751Y-12048D01*
X26222Y-11578D01*
X26476Y-10963D01*
Y-10501D01*
X26565Y-10245D01*
X26911Y-10039D01*
X27301D01*
X27916Y-9785D01*
X28387Y-9314D01*
X28642Y-8699D01*
Y-8033D01*
X28387Y-7418D01*
X27916Y-6948D01*
X27301Y-6693D01*
D02*
G37*
G36*
X3876Y-7382D02*
X3210D01*
X2596Y-7637D01*
X2125Y-8107D01*
X1870Y-8722D01*
Y-9388D01*
X2125Y-10003D01*
X2596Y-10474D01*
X3210Y-10728D01*
X3876D01*
X4491Y-10474D01*
X4962Y-10003D01*
X5217Y-9388D01*
Y-8722D01*
X4962Y-8107D01*
X4491Y-7637D01*
X3876Y-7382D01*
D02*
G37*
G36*
X-61D02*
X-727D01*
X-1342Y-7637D01*
X-1812Y-8107D01*
X-2067Y-8722D01*
Y-9388D01*
X-1812Y-10003D01*
X-1342Y-10474D01*
X-727Y-10728D01*
X-61D01*
X554Y-10474D01*
X1025Y-10003D01*
X1280Y-9388D01*
Y-8722D01*
X1025Y-8107D01*
X554Y-7637D01*
X-61Y-7382D01*
D02*
G37*
G36*
X-29588Y-10925D02*
X-30254D01*
X-30869Y-11180D01*
X-31340Y-11651D01*
X-31594Y-12266D01*
Y-12931D01*
X-31340Y-13546D01*
X-30869Y-14017D01*
X-30254Y-14272D01*
X-29588D01*
X-28973Y-14017D01*
X-28684Y-13727D01*
X-28111Y-13805D01*
X-28110Y-13806D01*
X-28027Y-14007D01*
X-27556Y-14478D01*
X-26941Y-14732D01*
X-26276D01*
X-25660Y-14478D01*
X-25190Y-14007D01*
X-24935Y-13392D01*
Y-12726D01*
X-25190Y-12111D01*
X-25660Y-11641D01*
X-26276Y-11386D01*
X-26941D01*
X-27556Y-11641D01*
X-27846Y-11930D01*
X-28418Y-11852D01*
X-28420Y-11851D01*
X-28503Y-11651D01*
X-28973Y-11180D01*
X-29588Y-10925D01*
D02*
G37*
G36*
X19624Y-12894D02*
X18959D01*
X18343Y-13148D01*
X17983Y-13509D01*
X9449D01*
X9044Y-13590D01*
X8701Y-13819D01*
X3218Y-19302D01*
X2989Y-19645D01*
X2908Y-20050D01*
Y-25881D01*
X2548Y-26241D01*
X2293Y-26856D01*
Y-27522D01*
X2548Y-28137D01*
X3018Y-28608D01*
X3496Y-28806D01*
X3335Y-29194D01*
Y-29859D01*
X3590Y-30474D01*
X4012Y-30896D01*
X3673Y-31235D01*
X3419Y-31850D01*
Y-32515D01*
X3673Y-33130D01*
X4144Y-33601D01*
X4759Y-33856D01*
X5425D01*
X6040Y-33601D01*
X6510Y-33130D01*
X6765Y-32515D01*
Y-31850D01*
X6510Y-31235D01*
X6088Y-30813D01*
X6427Y-30474D01*
X6682Y-29859D01*
Y-29194D01*
X6427Y-28579D01*
X5956Y-28108D01*
X5479Y-27910D01*
X5639Y-27522D01*
Y-26856D01*
X5385Y-26241D01*
X5024Y-25881D01*
Y-23555D01*
X5524Y-23301D01*
X5966Y-23484D01*
X6632D01*
X7247Y-23230D01*
X7718Y-22759D01*
X7972Y-22144D01*
Y-21478D01*
X7834Y-21143D01*
X8258Y-20860D01*
X8501Y-21103D01*
X9116Y-21358D01*
X9782D01*
X10397Y-21103D01*
X10827Y-20673D01*
X11257Y-21103D01*
X11872Y-21358D01*
X12538D01*
X13152Y-21103D01*
X13583Y-20673D01*
X14013Y-21103D01*
X14628Y-21358D01*
X15293D01*
X15908Y-21103D01*
X16379Y-20633D01*
X16634Y-20018D01*
Y-19352D01*
X16379Y-18737D01*
X15908Y-18267D01*
X15293Y-18012D01*
X14628D01*
X14013Y-18267D01*
X13583Y-18697D01*
X13152Y-18267D01*
X12538Y-18012D01*
X11872D01*
X11257Y-18267D01*
X10827Y-18697D01*
X10397Y-18267D01*
X9782Y-18012D01*
X9116D01*
X8501Y-18267D01*
X8030Y-18737D01*
X7776Y-19352D01*
Y-20018D01*
X7914Y-20353D01*
X7490Y-20636D01*
X7247Y-20393D01*
X6632Y-20138D01*
X6081D01*
X5872Y-19806D01*
X5836Y-19676D01*
X9887Y-15625D01*
X17983D01*
X18343Y-15985D01*
X18959Y-16240D01*
X19624D01*
X20239Y-15985D01*
X20710Y-15515D01*
X20965Y-14900D01*
Y-14234D01*
X20710Y-13619D01*
X20239Y-13148D01*
X19624Y-12894D01*
D02*
G37*
G36*
X-55573Y-18406D02*
X-56238D01*
X-56853Y-18660D01*
X-57324Y-19131D01*
X-57579Y-19746D01*
Y-20412D01*
X-57324Y-21027D01*
X-56853Y-21497D01*
X-56238Y-21752D01*
X-55573D01*
X-54958Y-21497D01*
X-54487Y-21027D01*
X-54232Y-20412D01*
Y-19746D01*
X-54487Y-19131D01*
X-54958Y-18660D01*
X-55573Y-18406D01*
D02*
G37*
G36*
X-58722Y-21555D02*
X-59388D01*
X-60003Y-21810D01*
X-60474Y-22281D01*
X-60728Y-22896D01*
Y-23561D01*
X-60474Y-24176D01*
X-60003Y-24647D01*
X-59388Y-24902D01*
X-58722D01*
X-58107Y-24647D01*
X-57637Y-24176D01*
X-57382Y-23561D01*
Y-22896D01*
X-57637Y-22281D01*
X-58107Y-21810D01*
X-58722Y-21555D01*
D02*
G37*
G36*
X39604Y-47146D02*
X38939D01*
X38324Y-47400D01*
X37853Y-47871D01*
X37598Y-48486D01*
Y-49152D01*
X37853Y-49767D01*
X38324Y-50237D01*
X38939Y-50492D01*
X39604D01*
X40220Y-50237D01*
X40690Y-49767D01*
X40945Y-49152D01*
Y-48486D01*
X40690Y-47871D01*
X40220Y-47400D01*
X39604Y-47146D01*
D02*
G37*
G36*
X44537Y-47255D02*
X43871D01*
X43256Y-47510D01*
X42786Y-47981D01*
X42531Y-48596D01*
Y-49261D01*
X42786Y-49876D01*
X43256Y-50347D01*
X43871Y-50602D01*
X44537D01*
X45152Y-50347D01*
X45623Y-49876D01*
X45877Y-49261D01*
Y-48596D01*
X45623Y-47981D01*
X45152Y-47510D01*
X44537Y-47255D01*
D02*
G37*
G36*
X43510Y-28642D02*
X42844D01*
X42229Y-28896D01*
X41759Y-29367D01*
X41504Y-29982D01*
Y-30648D01*
X41759Y-31263D01*
X42229Y-31733D01*
X42844Y-31988D01*
X43510D01*
X44125Y-31733D01*
X44596Y-31263D01*
X44851Y-30648D01*
Y-29982D01*
X44596Y-29367D01*
X44125Y-28896D01*
X43510Y-28642D01*
D02*
G37*
%LPD*%
D15*
X8905Y52212D02*
X9695Y52785D01*
X10268Y53575D01*
X0Y43307D02*
X8905Y52212D01*
X0Y35827D02*
X3543Y32283D01*
X0Y35827D02*
Y43307D01*
X-3214Y37090D02*
X-2578Y37726D01*
X-2756Y44043D02*
X-2578Y43865D01*
Y37726D02*
Y43865D01*
X-3214Y36746D02*
Y37090D01*
X3543Y25197D02*
Y32283D01*
X10268Y53575D02*
X10854Y54161D01*
Y61370D01*
X-2500Y51565D02*
X-1291Y50356D01*
X-2595Y34646D02*
X-1291Y35950D01*
Y50356D01*
X-4382Y51626D02*
X-2756Y50000D01*
Y44043D02*
Y50000D01*
X-4370Y43304D02*
Y48437D01*
X-4553Y43121D02*
X-4370Y43304D01*
X21404Y50537D02*
X22441Y51575D01*
X22691Y48675D02*
X29134Y55118D01*
X22691Y39418D02*
Y48675D01*
Y39418D02*
X23228Y38881D01*
Y27496D02*
Y38881D01*
X21404Y38885D02*
Y50537D01*
Y38885D02*
X21441Y38848D01*
Y28859D02*
Y38848D01*
X9055Y37795D02*
X19654Y48394D01*
Y57512D01*
X-28572Y16551D02*
X-26005D01*
X-28878Y16857D02*
X-28572Y16551D01*
X-31790Y16857D02*
X-28878D01*
X-26005Y16551D02*
X-7910Y34646D01*
X9449Y-14567D02*
X19291D01*
X3966Y-20050D02*
X9449Y-14567D01*
X31890Y-10666D02*
Y-8677D01*
X2407Y-40148D02*
X31890Y-10666D01*
X-23772Y14417D02*
Y15204D01*
X-11943Y27033D02*
X-3629D01*
X-23772Y15204D02*
X-11943Y27033D01*
X-24016Y14173D02*
X-23772Y14417D01*
X-10236Y45669D02*
X-7874D01*
X-9843Y48031D02*
X-7516D01*
X-5906Y46421D01*
Y44918D02*
Y46421D01*
X-10630Y43701D02*
X-7123D01*
X-5906Y44918D01*
X-20033Y53104D02*
X-10630Y43701D01*
X-6272Y50339D02*
X-4370Y48437D01*
X-10968Y50339D02*
X-6272D01*
X-15748Y55118D02*
X-10968Y50339D01*
X-7910Y34646D02*
X-2595D01*
X3543Y25197D02*
X8016Y20725D01*
X11667Y19085D02*
X21441Y28859D01*
X11667Y18990D02*
Y19085D01*
X9906Y17228D02*
X11667Y18990D01*
X9810Y17228D02*
X9906D01*
X12276Y16543D02*
X23228Y27496D01*
X8016Y20725D02*
X8462D01*
X4724Y18066D02*
X6238Y19580D01*
X4724Y15679D02*
Y18066D01*
Y15679D02*
X9454Y10949D01*
X6238Y19580D02*
Y19782D01*
X8462Y20725D02*
X9400Y19786D01*
X9744D01*
X14961Y45669D02*
Y55216D01*
X7526Y24129D02*
Y38234D01*
X14961Y45669D01*
X9449Y22441D02*
Y30093D01*
X9055Y30487D02*
Y37795D01*
Y30487D02*
X9449Y30093D01*
X9454Y10949D02*
X22638D01*
X-9815Y-13250D02*
X-924D01*
X-18445Y-14567D02*
X-11217D01*
X-10611Y-15173D01*
X-9018D01*
X-8412Y-14567D01*
X-1969D01*
X-787Y-15748D01*
X-20785Y-12227D02*
X-18445Y-14567D01*
X-787Y-28477D02*
Y-15748D01*
X-924Y-13250D02*
X580Y-14753D01*
X-4331Y-29921D02*
X-2765Y-31487D01*
X-7874Y-25741D02*
Y-20866D01*
X-8268Y-26134D02*
X-7874Y-25741D01*
X-27120Y53104D02*
X-20033D01*
X-29134Y55118D02*
X-27120Y53104D01*
X-15748Y55118D02*
Y58957D01*
X13386Y56791D02*
X14961Y55216D01*
X3966Y-27189D02*
Y-20050D01*
X5167Y-45128D02*
Y-43652D01*
X5020Y-45276D02*
X5167Y-45128D01*
X42126Y-61417D02*
Y-58661D01*
X40360Y-56895D02*
X42126Y-58661D01*
X40360Y-56895D02*
Y-54511D01*
X38211Y-52362D02*
X40360Y-54511D01*
X22835Y-52362D02*
X38211D01*
X11811Y-41339D02*
X22835Y-52362D01*
X7480Y-41339D02*
X11811D01*
X5167Y-43652D02*
X7480Y-41339D01*
X-22835Y-40157D02*
Y-21690D01*
X-26324Y-20518D02*
X-24006D01*
X-22835Y-21690D01*
X-27589Y-21439D02*
X-27245D01*
X-26324Y-20518D01*
X-22835Y-40157D02*
X-20472Y-42520D01*
X-5512D01*
X-11024Y-61200D02*
Y-52137D01*
X-8887Y-50000D01*
X-11024Y-61200D02*
X-8889Y-63335D01*
X-8887Y-50000D02*
X-7480D01*
X-439Y-42959D02*
Y-35424D01*
X-7480Y-50000D02*
X-439Y-42959D01*
X-5494Y-33438D02*
X-2425D01*
X-8268Y-30664D02*
X-5494Y-33438D01*
X-2425D02*
X-439Y-35424D01*
X-2765Y-31487D02*
X-1078D01*
X-1754Y-29444D02*
X-787Y-28477D01*
X580Y-29829D02*
Y-14753D01*
X-8268Y-30664D02*
Y-26134D01*
X2407Y-54888D02*
Y-40148D01*
Y-54888D02*
X2500Y-54980D01*
X-1078Y-31487D02*
X580Y-29829D01*
X-2500Y51565D02*
Y54980D01*
X-9500Y51626D02*
X-4382D01*
X-21260Y56693D02*
X-10236Y45669D01*
X-15748Y58957D02*
X-13386Y61319D01*
X-21260Y56693D02*
Y60138D01*
X-29134Y55118D02*
Y58169D01*
X5854Y63335D02*
X8889D01*
X10854Y61370D01*
X2500Y59980D02*
X5854Y63335D01*
X13428Y61277D02*
X15889D01*
X19654Y57512D01*
X22441Y51575D02*
Y58957D01*
X21260Y60138D02*
X22441Y58957D01*
X7874Y-50394D02*
Y-44488D01*
X10854Y-61370D02*
Y-53374D01*
X7874Y-50394D02*
X10854Y-53374D01*
X-8889Y-63335D02*
X-5854D01*
X-2500Y-59980D01*
X8889Y-63335D02*
X10854Y-61370D01*
X2500Y-59980D02*
X5854Y-63335D01*
X8889D01*
X-13359Y55485D02*
Y56666D01*
Y55485D02*
X-9500Y51626D01*
X-13386Y56693D02*
X-13359Y56666D01*
X13386Y61319D02*
X13428Y61277D01*
X29134Y55118D02*
Y58169D01*
X-64961Y-51181D02*
X-64925Y-52164D01*
X-64820Y-53142D01*
X-64646Y-54110D01*
X-64403Y-55063D01*
X-64092Y-55997D01*
X-63715Y-56905D01*
X-63275Y-57785D01*
X-62773Y-58631D01*
X-62212Y-59439D01*
X-61595Y-60205D01*
X-60925Y-60925D01*
X-60205Y-61595D01*
X-59439Y-62212D01*
X-58631Y-62773D01*
X-57785Y-63275D01*
X-56905Y-63715D01*
X-55997Y-64092D01*
X-55063Y-64403D01*
X-54110Y-64646D01*
X-53142Y-64820D01*
X-52164Y-64925D01*
X-51181Y-64961D01*
X51181D02*
X52164Y-64925D01*
X53142Y-64820D01*
X54110Y-64646D01*
X55063Y-64403D01*
X55997Y-64092D01*
X56905Y-63715D01*
X57785Y-63275D01*
X58631Y-62773D01*
X59439Y-62212D01*
X60205Y-61595D01*
X60925Y-60925D01*
X61595Y-60205D01*
X62212Y-59439D01*
X62773Y-58631D01*
X63275Y-57785D01*
X63715Y-56905D01*
X64092Y-55997D01*
X64403Y-55063D01*
X64646Y-54110D01*
X64820Y-53142D01*
X64925Y-52164D01*
X64961Y-51181D01*
Y51181D02*
X64925Y52164D01*
X64820Y53142D01*
X64646Y54110D01*
X64403Y55063D01*
X64092Y55997D01*
X63715Y56905D01*
X63275Y57785D01*
X62773Y58631D01*
X62212Y59439D01*
X61595Y60205D01*
X60925Y60925D01*
X60205Y61595D01*
X59439Y62212D01*
X58631Y62773D01*
X57785Y63275D01*
X56905Y63715D01*
X55997Y64092D01*
X55063Y64403D01*
X54110Y64646D01*
X53142Y64820D01*
X52164Y64925D01*
X51181Y64961D01*
X-51181D02*
X-52164Y64925D01*
X-53142Y64820D01*
X-54110Y64646D01*
X-55063Y64403D01*
X-55997Y64092D01*
X-56905Y63715D01*
X-57785Y63275D01*
X-58631Y62773D01*
X-59439Y62212D01*
X-60205Y61595D01*
X-60925Y60925D01*
X-61595Y60205D01*
X-62212Y59439D01*
X-62773Y58631D01*
X-63275Y57785D01*
X-63715Y56905D01*
X-64092Y55997D01*
X-64403Y55063D01*
X-64646Y54110D01*
X-64820Y53142D01*
X-64925Y52164D01*
X-64961Y51181D01*
X-51181Y64961D02*
X51181D01*
X64961Y-51181D02*
Y51181D01*
X-51181Y-64961D02*
X51181D01*
X-64960Y-51181D02*
Y51181D01*
D16*
X55649Y54587D02*
X55154Y55154D01*
X54587Y55649D01*
X-21654Y47638D02*
Y51181D01*
X-31102Y38189D02*
X-21654Y47638D01*
X-33643Y38189D02*
X-31102D01*
X-52729Y19103D02*
X-33643Y38189D01*
X-52729Y16956D02*
Y19103D01*
X-52756Y16929D02*
X-52729Y16956D01*
X-34252Y41339D02*
X-32677Y42913D01*
X-43250Y47301D02*
Y48967D01*
X-43102Y49114D01*
X-55905Y34646D02*
X-43250Y47301D01*
X28189Y46063D02*
X29370Y44882D01*
X41682D01*
X32327Y50492D02*
X42421D01*
X48499Y44414D01*
X40370Y52756D02*
X42338Y54724D01*
X44882D01*
X31390Y48531D02*
X32677Y47244D01*
X42520D01*
X47744Y42020D01*
X27584Y48531D02*
X31390D01*
X54724Y39764D02*
X55905Y40945D01*
X46801Y39764D02*
X54724D01*
X41682Y44882D02*
X46801Y39764D01*
X37718Y52756D02*
X40370D01*
X24766Y15392D02*
X32677Y7480D01*
X30462Y53937D02*
X36536D01*
X26016Y46963D02*
X27584Y48531D01*
X26016Y40795D02*
Y46963D01*
Y40795D02*
X27610Y39201D01*
Y23705D02*
Y39201D01*
X24228Y47703D02*
X30462Y53937D01*
X24228Y40055D02*
Y47703D01*
Y40055D02*
X24766Y39518D01*
Y15392D02*
Y39518D01*
X27610Y23705D02*
X29170Y22145D01*
X29221D02*
X29712Y21654D01*
X29170Y22145D02*
X29221D01*
X29712Y21654D02*
X29921D01*
Y15748D02*
X35933Y9736D01*
X29921Y15748D02*
Y18898D01*
X34252Y16535D02*
X36744D01*
X37138Y16929D01*
X40415D01*
X-53000Y57630D02*
X-42130D01*
X-57874Y52756D02*
X-53000Y57630D01*
X-53732Y42331D02*
X-51575Y44488D01*
X-53732Y39892D02*
Y42331D01*
X-58079Y35546D02*
X-53732Y39892D01*
X-58079Y33276D02*
Y35546D01*
Y33276D02*
X-53150Y28346D01*
Y25992D02*
Y28346D01*
X-58079Y21063D02*
X-53150Y25992D01*
X-58079Y19102D02*
Y21063D01*
Y19102D02*
X-52362Y13386D01*
Y1969D02*
Y13386D01*
X-35827Y21260D02*
X-29134D01*
X-50394Y6693D02*
X-35827Y21260D01*
X-50394Y4965D02*
Y6693D01*
Y4965D02*
X-49754Y4325D01*
Y2116D02*
Y4325D01*
Y2116D02*
X-49606Y1969D01*
X40196Y42481D02*
X45669Y37008D01*
X49606D01*
X34116Y42481D02*
X40196D01*
X33465Y-35433D02*
X35403Y-33495D01*
X33465Y-35433D02*
Y-35433D01*
X47984Y-18110D02*
X49205Y-16890D01*
X44488Y-18110D02*
X47984D01*
X35403Y-27196D02*
X44488Y-18110D01*
X35403Y-33495D02*
Y-27196D01*
X32677Y-46063D02*
X37402Y-41339D01*
X25433Y-46063D02*
X32677D01*
X32825Y-42372D02*
X33612D01*
X39764Y-36220D01*
X32677Y-42520D02*
X32825Y-42372D01*
X18602Y-55216D02*
X38189D01*
X16412Y-53027D02*
X18602Y-55216D01*
X44418Y-56153D02*
X46139Y-57874D01*
X53937D01*
X34350Y-6267D02*
X40468Y-150D01*
X52660D01*
X29382Y-25984D02*
X33071D01*
X34856Y-24199D01*
X30069Y-22293D02*
Y-22084D01*
X30709Y-21445D01*
Y-21260D02*
X35827Y-16142D01*
X30709Y-21445D02*
Y-21260D01*
X-30222Y-48368D02*
X-30074Y-48221D01*
X-30860Y-48368D02*
X-30222D01*
X-30918Y-48425D02*
X-30860Y-48368D01*
X-43701Y-48425D02*
X-30918D01*
X-48274Y-40354D02*
X-42933Y-45695D01*
X-32903D01*
X-48032Y-44094D02*
X-43701Y-48425D01*
X-34673Y-15687D02*
X-34350Y-15364D01*
X-34673Y-16169D02*
Y-15687D01*
X-34350Y-15364D02*
Y-15156D01*
X-36220Y-17717D02*
X-34673Y-16169D01*
X-39904Y-19100D02*
X-32810Y-26194D01*
X-39904Y-19100D02*
Y-18757D01*
X-46850Y-11811D02*
X-39904Y-18757D01*
X-55905Y-11811D02*
X-46850D01*
X-33608Y-20179D02*
X-30834Y-17405D01*
X-30745D01*
X-33608Y-21980D02*
Y-20179D01*
X-29921Y-31890D02*
Y-25667D01*
X-33608Y-21980D02*
X-29921Y-25667D01*
X-26772Y-48425D02*
Y-25743D01*
X-31435Y-21080D02*
X-26772Y-25743D01*
X-34314Y-42913D02*
X-32311Y-40910D01*
X-32236D01*
X-42913Y-42913D02*
X-34314D01*
X-42913Y-39370D02*
X-39878D01*
X-38303Y-37795D01*
X-31791D01*
X-50284Y-32000D02*
X-42913Y-39370D01*
X-50284Y-32000D02*
Y-29638D01*
X-49606Y36614D02*
X-44882Y41339D01*
X-34252D01*
X32677Y7480D02*
X54331D01*
X55905Y5906D01*
X38367Y-16142D02*
X49213Y-5297D01*
X35827Y-16142D02*
X38367D01*
X49213Y-5297D02*
Y-2362D01*
X30799Y-36704D02*
Y-33768D01*
X32263Y-38168D02*
X34666D01*
X30799Y-36704D02*
X32263Y-38168D01*
X34666D02*
X37795Y-35039D01*
Y-29395D01*
X30799Y-33768D02*
X33071Y-31496D01*
X53945Y-3893D02*
Y-1434D01*
X52660Y-150D02*
X53945Y-1434D01*
X53732Y-6565D02*
Y-4106D01*
Y-6565D02*
X58079Y-10911D01*
Y-20979D02*
Y-10911D01*
X56882Y-22176D02*
X58079Y-20979D01*
X56882Y-24205D02*
Y-22176D01*
X58079Y-27278D02*
Y-25402D01*
X55744Y-29613D02*
X58079Y-27278D01*
X56882Y-24205D02*
X58079Y-25402D01*
X53333Y-29613D02*
X55744D01*
X53732Y-4106D02*
X53945Y-3893D01*
X-62205Y26378D02*
X-60031Y28551D01*
Y35546D01*
X-38417Y-17717D02*
X-36220D01*
X44094Y62783D02*
Y62992D01*
X45071Y60835D02*
Y61807D01*
Y60835D02*
X48425Y57480D01*
X44094Y62783D02*
X45071Y61807D01*
X-46063Y59842D02*
X-42913Y62992D01*
Y62992D01*
X-53543Y59842D02*
X-46063D01*
X-59661Y53724D02*
X-53543Y59842D01*
X52756Y57480D02*
X54587Y55649D01*
X48425Y57480D02*
X52756D01*
X-59661Y43488D02*
Y53724D01*
X-57874Y42126D02*
Y52756D01*
X47744Y42020D02*
X50356D01*
X55649Y54587D02*
X59842Y50394D01*
Y43307D02*
Y50394D01*
X46721Y-33987D02*
Y-32105D01*
X49220Y-29607D01*
X51266Y-33232D02*
X58079Y-40045D01*
X51266Y-33232D02*
Y-31444D01*
X58079Y-47827D02*
Y-40045D01*
X44488Y-36220D02*
X46721Y-33987D01*
X49606Y37008D02*
X55796Y30819D01*
X-50083Y16851D02*
X-33120Y33815D01*
Y35285D01*
X-32972Y35433D01*
X-49606Y34553D02*
X-49178Y34126D01*
Y31436D02*
Y34126D01*
X-49606Y34553D02*
Y36614D01*
X-50394Y-44094D02*
X-48032D01*
X-54834Y-44205D02*
X-52866D01*
X-49990Y-15174D02*
Y-15000D01*
X-50787Y-20866D02*
Y-15972D01*
Y-20866D02*
X-47244Y-24409D01*
X-50787Y-15972D02*
X-49990Y-15174D01*
X-55829Y-14961D02*
X-52756D01*
X50394Y12205D02*
X51772Y13583D01*
Y14988D01*
X45532Y15098D02*
X49215D01*
X38189Y22441D02*
X45532Y15098D01*
X45139Y12205D02*
X50394D01*
X40415Y16929D02*
X45139Y12205D01*
X35933Y9736D02*
X50681D01*
X54331Y13386D01*
Y18504D01*
X51575Y21260D02*
X54331Y18504D01*
X38583Y29528D02*
X44798D01*
X45191Y29921D01*
X49213D01*
X51575Y22835D02*
X52704Y23964D01*
Y29400D01*
X51575Y21260D02*
Y22835D01*
X55796Y26488D02*
Y30819D01*
X52362Y44026D02*
Y44094D01*
X50356Y42020D02*
X52362Y44026D01*
X60236Y-57087D02*
Y-56878D01*
X61728Y-55386D01*
Y-48564D01*
X60031Y-46867D02*
X61728Y-48564D01*
X60031Y-46867D02*
Y-40045D01*
X61228Y-38848D01*
Y-36743D01*
X60031Y-35546D02*
X61228Y-36743D01*
X60031Y-35546D02*
Y-28551D01*
X62205Y-26378D01*
X-57480Y-54331D02*
Y-46850D01*
Y-54331D02*
X-54331Y-57480D01*
X-57480Y-46850D02*
X-54834Y-44205D01*
X-50787Y-35039D02*
X-42913Y-42913D01*
X-55905Y-29921D02*
X-50787Y-35039D01*
X-56026Y-37795D02*
X-53543D01*
X-50787Y-35039D01*
X-59074Y-40843D02*
X-56026Y-37795D01*
X-59074Y-45022D02*
Y-40843D01*
X-62122Y-48070D02*
X-59074Y-45022D01*
X-62122Y-54413D02*
Y-48070D01*
Y-54413D02*
X-59868Y-56667D01*
X-58079Y-12711D02*
X-55829Y-14961D01*
X-58079Y-12711D02*
Y-10911D01*
X-56806Y-9638D01*
X-46496D01*
X-38417Y-17717D01*
X-62205Y40945D02*
X-59661Y43488D01*
X-61228Y38772D02*
X-57874Y42126D01*
X-61130Y36644D02*
Y36797D01*
X-61228Y36895D02*
X-61130Y36797D01*
X-61228Y36895D02*
Y38772D01*
X-61130Y36644D02*
X-60031Y35546D01*
X53937Y-57874D02*
X57382Y-54429D01*
Y-48524D02*
X58079Y-47827D01*
X57382Y-54429D02*
Y-48524D01*
X38189Y22441D02*
Y25591D01*
X32677Y31102D02*
X38189Y25591D01*
X-31496Y-33465D02*
X-29921Y-31890D01*
X-40157Y-50394D02*
X-28740D01*
X-26772Y-48425D01*
X14567Y-49213D02*
X16412Y-51058D01*
Y-53027D02*
Y-51058D01*
X39764Y-36220D02*
X44488D01*
X-49395Y-27453D02*
X-43383Y-33465D01*
X-31496D01*
X32972Y35138D02*
Y38583D01*
Y35138D02*
X38583Y29528D01*
X37795Y-29395D02*
X43962Y-23228D01*
X53150D02*
X55905Y-25984D01*
X43962Y-23228D02*
X53150D01*
X-47244Y-24409D02*
X-39370D01*
X-32677Y-31102D01*
X37402Y-41339D02*
X55032D01*
X-55905Y-29921D02*
Y-25984D01*
X-51253Y-27453D02*
X-49395D01*
X-52646Y-28846D02*
X-51253Y-27453D01*
X-52756Y-29528D02*
X-52646Y-29418D01*
Y-28846D01*
X46063Y-11417D02*
X55905D01*
X39551Y-17929D02*
X46063Y-11417D01*
X37189Y-17929D02*
X39551D01*
X-52866Y-44205D02*
X-52756Y-44094D01*
X-47244Y-57480D02*
X-40157Y-50394D01*
X-54331Y-57480D02*
X-47244D01*
X59842Y43307D02*
X62205Y40945D01*
X-55905Y-40354D02*
X-48274D01*
X55820Y-40551D02*
X55905D01*
X55032Y-41339D02*
X55820Y-40551D01*
X34856Y-20262D02*
X37189Y-17929D01*
X34856Y-24199D02*
Y-20262D01*
X36536Y53937D02*
X37718Y52756D01*
X55796Y26488D02*
X55905Y26378D01*
D74*
X2500Y-54980D02*
D03*
X-7500D02*
D03*
X2500Y-59980D02*
D03*
X-2500D02*
D03*
Y54980D02*
D03*
X2500Y59980D02*
D03*
D76*
X-32835Y54646D02*
D03*
X-21654Y51181D02*
D03*
X-32677Y42913D02*
D03*
X-43102Y49114D02*
D03*
X28189Y46063D02*
D03*
X-4553Y43121D02*
D03*
X32327Y50492D02*
D03*
X44882Y54724D02*
D03*
X29921Y21654D02*
D03*
Y18898D02*
D03*
X34252Y16535D02*
D03*
X-42130Y57630D02*
D03*
X-51575Y44488D02*
D03*
X-31790Y16857D02*
D03*
X48499Y44414D02*
D03*
X32677Y-42520D02*
D03*
X38189Y-55216D02*
D03*
X44418Y-56153D02*
D03*
X19291Y-14567D02*
D03*
X31890Y-8677D02*
D03*
X34350Y-6267D02*
D03*
X29382Y-25984D02*
D03*
X30069Y-22293D02*
D03*
X-31791Y-37795D02*
D03*
X-30074Y-48221D02*
D03*
X-32903Y-45695D02*
D03*
X-34350Y-15156D02*
D03*
X-32810Y-26194D02*
D03*
X-30745Y-17405D02*
D03*
X-31435Y-21080D02*
D03*
X-32236Y-40910D02*
D03*
X-7874Y45669D02*
D03*
X-9843Y48031D02*
D03*
X-3214Y36746D02*
D03*
X-3629Y27033D02*
D03*
X9810Y17228D02*
D03*
X12276Y16543D02*
D03*
X6238Y19782D02*
D03*
X9744Y19786D02*
D03*
X7526Y24129D02*
D03*
X9449Y22441D02*
D03*
X-4724Y5906D02*
D03*
X-9815Y-13250D02*
D03*
X-20785Y-12227D02*
D03*
X-24016Y-7874D02*
D03*
X-19355Y2551D02*
D03*
X11024Y1457D02*
D03*
X14173Y-3150D02*
D03*
X-4331Y-29921D02*
D03*
X-7874Y-20866D02*
D03*
X-26378Y47638D02*
D03*
X3966Y-27189D02*
D03*
X5020Y-45276D02*
D03*
X-27589Y-21439D02*
D03*
X-5512Y-42520D02*
D03*
X-8354Y12143D02*
D03*
X1826Y48106D02*
D03*
X33465Y-35433D02*
D03*
X-1754Y-29444D02*
D03*
X33071Y-31496D02*
D03*
X-23333Y-3150D02*
D03*
X-24016Y14173D02*
D03*
X-18110Y56693D02*
D03*
X21260Y-2756D02*
D03*
X22638Y10949D02*
D03*
X26772Y-2756D02*
D03*
X44094Y62992D02*
D03*
X-42913D02*
D03*
X62205Y51575D02*
D03*
X60630Y56693D02*
D03*
X-60630D02*
D03*
X-62205Y51575D02*
D03*
X51266Y-31444D02*
D03*
X49220Y-29607D02*
D03*
X53333Y-29613D02*
D03*
X-50083Y16851D02*
D03*
X-49178Y31436D02*
D03*
X-50275Y-44134D02*
D03*
X-53137Y-44143D02*
D03*
X-50353Y-29626D02*
D03*
X-52953Y-29528D02*
D03*
X-49990Y-15000D02*
D03*
X-52953Y-14961D02*
D03*
X-52362Y1969D02*
D03*
X-49606D02*
D03*
X-52756Y16929D02*
D03*
X49205Y-16890D02*
D03*
X49213Y-2323D02*
D03*
X49215Y15098D02*
D03*
X51772Y14988D02*
D03*
X49213Y29921D02*
D03*
X52704Y29400D02*
D03*
X52362Y44094D02*
D03*
X55905Y-26378D02*
D03*
X62205D02*
D03*
X55905Y-11811D02*
D03*
Y5512D02*
D03*
X14567Y-49213D02*
D03*
X60236Y-57087D02*
D03*
X1575Y-2362D02*
D03*
X42126Y-61417D02*
D03*
X7874Y-44488D02*
D03*
X-59868Y-56667D02*
D03*
X55905Y-40945D02*
D03*
X-55905Y-26378D02*
D03*
Y-11811D02*
D03*
Y-40748D02*
D03*
Y34646D02*
D03*
X-62205Y26378D02*
D03*
X55905Y40945D02*
D03*
X62205D02*
D03*
X55905Y26378D02*
D03*
X-62205Y40945D02*
D03*
X17323Y56693D02*
D03*
X34116Y42481D02*
D03*
X32972Y38583D02*
D03*
X32677Y31102D02*
D03*
X25433Y-46063D02*
D03*
X-32972Y35433D02*
D03*
X-32677Y-31102D02*
D03*
X-13386Y56693D02*
D03*
X-25197Y55905D02*
D03*
X-29134Y58169D02*
D03*
X-21260Y60138D02*
D03*
X-13386Y61319D02*
D03*
X13386Y56791D02*
D03*
X29134Y58169D02*
D03*
X21260Y60138D02*
D03*
X13386Y61319D02*
D03*
X25197Y55512D02*
D03*
X-28346Y-295D02*
D03*
X-62205Y15945D02*
D03*
Y-15945D02*
D03*
Y-30512D02*
D03*
X-62205Y45473D02*
D03*
X-62205Y0D02*
D03*
X62205D02*
D03*
X62205Y45473D02*
D03*
X62205Y-15945D02*
D03*
Y15945D02*
D03*
Y30512D02*
D03*
X-18898Y-33465D02*
D03*
X-11811D02*
D03*
X-15354D02*
D03*
Y-37008D02*
D03*
X-11811D02*
D03*
X-18898D02*
D03*
X18898Y-33465D02*
D03*
X11811D02*
D03*
X15354D02*
D03*
Y-37008D02*
D03*
X11811D02*
D03*
X18898D02*
D03*
Y33465D02*
D03*
X11811D02*
D03*
X15354D02*
D03*
Y37008D02*
D03*
X11811D02*
D03*
X18898D02*
D03*
X-18898D02*
D03*
X-11811D02*
D03*
X-15354D02*
D03*
Y33465D02*
D03*
X-11811D02*
D03*
X-18898D02*
D03*
D77*
X17323Y-58268D02*
D03*
X28346D02*
D03*
Y-62598D02*
D03*
X22835D02*
D03*
X22835Y-58268D02*
D03*
X17323Y-62598D02*
D03*
M02*
