G04*
G04 #@! TF.GenerationSoftware,Altium Limited,Altium Designer,24.4.1 (13)*
G04*
G04 Layer_Physical_Order=3*
G04 Layer_Color=16776960*
%FSLAX44Y44*%
%MOMM*%
G71*
G04*
G04 #@! TF.SameCoordinates,8FCA56C2-8F78-4201-AFF4-6E38B21BD071*
G04*
G04*
G04 #@! TF.FilePolarity,Positive*
G04*
G01*
G75*
%ADD88C,1.3000*%
%ADD89R,1.3000X1.3000*%
%ADD90C,1.6000*%
%ADD91C,5.0000*%
G04:AMPARAMS|DCode=92|XSize=2.14mm|YSize=1.07mm|CornerRadius=0mm|HoleSize=0mm|Usage=FLASHONLY|Rotation=214.480|XOffset=0mm|YOffset=0mm|HoleType=Round|Shape=Round|*
%AMOVALD92*
21,1,1.0700,1.0700,0.0000,0.0000,214.48*
1,1,1.0700,0.4410,0.3029*
1,1,1.0700,-0.4410,-0.3029*
%
%ADD92OVALD92*%

G04:AMPARAMS|DCode=93|XSize=2.14mm|YSize=1.07mm|CornerRadius=0mm|HoleSize=0mm|Usage=FLASHONLY|Rotation=334.480|XOffset=0mm|YOffset=0mm|HoleType=Round|Shape=Round|*
%AMOVALD93*
21,1,1.0700,1.0700,0.0000,0.0000,334.48*
1,1,1.0700,-0.4828,0.2305*
1,1,1.0700,0.4828,-0.2305*
%
%ADD93OVALD93*%

G04:AMPARAMS|DCode=94|XSize=2.14mm|YSize=1.07mm|CornerRadius=0mm|HoleSize=0mm|Usage=FLASHONLY|Rotation=94.480|XOffset=0mm|YOffset=0mm|HoleType=Round|Shape=Round|*
%AMOVALD94*
21,1,1.0700,1.0700,0.0000,0.0000,94.48*
1,1,1.0700,0.0418,-0.5334*
1,1,1.0700,-0.0418,0.5334*
%
%ADD94OVALD94*%

%ADD95R,1.6000X1.6000*%
%ADD96C,1.5000*%
%ADD97R,1.3000X1.3000*%
%ADD98C,0.7000*%
G36*
X317638Y443315D02*
X329263Y439246D01*
X340602Y434441D01*
X351612Y428919D01*
X362243Y422704D01*
X372456Y415821D01*
X382207Y408297D01*
X391455Y400164D01*
X400164Y391455D01*
X408297Y382207D01*
X415821Y372456D01*
X422704Y362243D01*
X428919Y351612D01*
X434441Y340602D01*
X439246Y329263D01*
X443315Y317638D01*
X444780Y312397D01*
Y98860D01*
X444602Y97590D01*
X347000D01*
X346009Y97393D01*
X345169Y96831D01*
X344607Y95991D01*
X344410Y95000D01*
Y19590D01*
X227166D01*
X226461Y20646D01*
X226693Y21207D01*
X226929Y23000D01*
X226693Y24793D01*
X226001Y26465D01*
X224900Y27900D01*
X223465Y29001D01*
X221793Y29693D01*
X220000Y29929D01*
X218207Y29693D01*
X216535Y29001D01*
X215100Y27900D01*
X213999Y26465D01*
X213307Y24793D01*
X213071Y23000D01*
X213307Y21207D01*
X213539Y20646D01*
X212834Y19590D01*
X152166D01*
X151461Y20646D01*
X151693Y21207D01*
X151929Y23000D01*
X151693Y24793D01*
X151001Y26465D01*
X149900Y27900D01*
X148465Y29001D01*
X146793Y29693D01*
X145000Y29929D01*
X143207Y29693D01*
X141535Y29001D01*
X140100Y27900D01*
X138999Y26465D01*
X138307Y24793D01*
X138071Y23000D01*
X138307Y21207D01*
X138999Y19535D01*
X140100Y18100D01*
X140914Y17476D01*
X141580Y16524D01*
X141607Y16230D01*
X141525Y15816D01*
X141416Y15409D01*
X141427Y15323D01*
X141410Y15239D01*
Y-22785D01*
X140140Y-23365D01*
X138793Y-22807D01*
X137000Y-22571D01*
X135207Y-22807D01*
X133535Y-23499D01*
X132100Y-24600D01*
X130999Y-26035D01*
X130307Y-27707D01*
X130071Y-29500D01*
X130307Y-31293D01*
X130999Y-32965D01*
X132100Y-34400D01*
X133535Y-35501D01*
X135207Y-36193D01*
X137000Y-36429D01*
X138793Y-36193D01*
X140140Y-35635D01*
X141410Y-36215D01*
Y-46900D01*
X141437Y-47034D01*
X141424Y-47170D01*
X141535Y-47526D01*
X141607Y-47891D01*
X140551Y-48594D01*
X140527Y-48606D01*
X138983Y-49996D01*
X137851Y-51738D01*
X137208Y-53713D01*
X137099Y-55788D01*
X137504Y-57699D01*
X137495Y-58159D01*
X137048Y-59095D01*
X136907Y-59124D01*
X135056Y-60067D01*
X133511Y-61457D01*
X132379Y-63198D01*
X131737Y-65174D01*
X131627Y-67249D01*
X132058Y-69281D01*
X133001Y-71132D01*
X134390Y-72677D01*
X136132Y-73809D01*
X137381Y-74405D01*
X138576Y-75733D01*
X140535Y-77006D01*
X142755Y-77728D01*
X144539Y-77822D01*
X145788Y-78419D01*
X147764Y-79061D01*
X148694Y-79651D01*
X148684Y-80110D01*
X148736Y-80404D01*
X148740Y-80702D01*
X149075Y-82280D01*
X149002Y-83674D01*
X148570Y-85001D01*
X147809Y-86171D01*
X146772Y-87105D01*
X145528Y-87738D01*
X143830Y-88098D01*
X143641Y-88179D01*
X143440Y-88214D01*
X143181Y-88376D01*
X142901Y-88497D01*
X142758Y-88643D01*
X142585Y-88753D01*
X142218Y-89101D01*
X142198Y-89129D01*
X142169Y-89149D01*
X141906Y-89541D01*
X141634Y-89926D01*
X141627Y-89960D01*
X141607Y-89989D01*
X141515Y-90451D01*
X141411Y-90912D01*
X141417Y-90946D01*
X141410Y-90980D01*
Y-106410D01*
X18155D01*
X17394Y-105140D01*
X18678Y-102737D01*
X19829Y-98944D01*
X20217Y-95000D01*
X19829Y-91056D01*
X18678Y-87263D01*
X16810Y-83768D01*
X14296Y-80704D01*
X11232Y-78190D01*
X7737Y-76322D01*
X3944Y-75171D01*
X0Y-74783D01*
X-3944Y-75171D01*
X-7737Y-76322D01*
X-11232Y-78190D01*
X-14296Y-80704D01*
X-16810Y-83768D01*
X-18678Y-87263D01*
X-19829Y-91056D01*
X-20217Y-95000D01*
X-19829Y-98944D01*
X-18678Y-102737D01*
X-17394Y-105140D01*
X-18155Y-106410D01*
X-116253D01*
X-116616Y-105140D01*
X-115786Y-104570D01*
X-114242Y-103181D01*
X-113110Y-101439D01*
X-112467Y-99463D01*
X-112357Y-97389D01*
X-112789Y-95356D01*
X-113731Y-93505D01*
X-115121Y-91961D01*
X-116863Y-90829D01*
X-118838Y-90186D01*
X-118982Y-90178D01*
X-119569Y-89324D01*
X-119650Y-88871D01*
X-119547Y-86920D01*
X-119978Y-84887D01*
X-120921Y-83036D01*
X-122310Y-81492D01*
X-124052Y-80360D01*
X-126028Y-79717D01*
X-128103Y-79608D01*
X-130135Y-80039D01*
X-131986Y-80981D01*
X-133127Y-81765D01*
X-134874Y-82136D01*
X-136956Y-83195D01*
X-138692Y-84757D01*
X-139665Y-86255D01*
X-140806Y-87039D01*
X-142351Y-88428D01*
X-143483Y-90170D01*
X-144125Y-92146D01*
X-144235Y-94220D01*
X-143804Y-96253D01*
X-142861Y-98104D01*
X-141472Y-99648D01*
X-139730Y-100780D01*
X-137754Y-101423D01*
X-137610Y-101431D01*
X-137023Y-102285D01*
X-136942Y-102738D01*
X-137045Y-104689D01*
X-136889Y-105423D01*
X-137689Y-106410D01*
X-146410D01*
Y-88803D01*
X-146496Y-88373D01*
X-146559Y-87939D01*
X-146594Y-87880D01*
X-146607Y-87812D01*
X-146851Y-87448D01*
X-147075Y-87071D01*
X-147898Y-86156D01*
X-148531Y-84913D01*
X-148820Y-83547D01*
X-148747Y-82154D01*
X-148315Y-80827D01*
X-147555Y-79657D01*
X-147268Y-79398D01*
X-147226Y-79343D01*
X-147169Y-79304D01*
X-146925Y-78940D01*
X-146663Y-78589D01*
X-146646Y-78522D01*
X-146607Y-78464D01*
X-146522Y-78035D01*
X-146414Y-77610D01*
X-146424Y-77541D01*
X-146410Y-77473D01*
Y220410D01*
X-117307D01*
X-116316Y220607D01*
X-115476Y221169D01*
X-114914Y222009D01*
X-114717Y223000D01*
Y246000D01*
X-114914Y246991D01*
X-115381Y247690D01*
X-115219Y248316D01*
X-114879Y248960D01*
X-109205D01*
X-108000Y248801D01*
X-106795Y248960D01*
X-98960D01*
Y256795D01*
X-98801Y258000D01*
X-98960Y259205D01*
Y267040D01*
X-106795D01*
X-108000Y267199D01*
X-109205Y267040D01*
X-117040D01*
Y259205D01*
X-117199Y258000D01*
X-117040Y256795D01*
Y249832D01*
X-117242Y248893D01*
X-118157Y248590D01*
X-146410D01*
Y286000D01*
X-146607Y286991D01*
X-147169Y287831D01*
X-148009Y288393D01*
X-149000Y288590D01*
X-196780D01*
X-196780Y289786D01*
X-196780Y444780D01*
X-14701D01*
X-14343Y443510D01*
X-16238Y442349D01*
X-19534Y439534D01*
X-22349Y436237D01*
X-24614Y432541D01*
X-26273Y428536D01*
X-27285Y424321D01*
X-27625Y420000D01*
X-27285Y415678D01*
X-26273Y411463D01*
X-24614Y407458D01*
X-22349Y403762D01*
X-19534Y400466D01*
X-16238Y397650D01*
X-12542Y395386D01*
X-8537Y393727D01*
X-4322Y392715D01*
X0Y392374D01*
X4322Y392715D01*
X8537Y393727D01*
X12542Y395386D01*
X16238Y397650D01*
X19534Y400466D01*
X22349Y403762D01*
X24614Y407458D01*
X26273Y411463D01*
X27285Y415678D01*
X27625Y420000D01*
X27285Y424321D01*
X26273Y428536D01*
X24614Y432541D01*
X22349Y436237D01*
X19534Y439534D01*
X16238Y442349D01*
X14343Y443510D01*
X14701Y444780D01*
X312397D01*
X317638Y443315D01*
D02*
G37*
G36*
X-149000Y246000D02*
X-117307D01*
Y223000D01*
X-149000D01*
Y-77473D01*
X-149540Y-77959D01*
X-150673Y-79701D01*
X-151315Y-81677D01*
X-151425Y-83751D01*
X-150993Y-85784D01*
X-150051Y-87635D01*
X-149000Y-88803D01*
Y-109000D01*
X-135287D01*
X-134282Y-110117D01*
X-132540Y-111249D01*
X-130564Y-111892D01*
X-128490Y-112001D01*
X-126458Y-111570D01*
X-124606Y-110628D01*
X-123465Y-109844D01*
X-121718Y-109473D01*
X-120788Y-109000D01*
X-14539D01*
X-14296Y-109296D01*
X-11232Y-111810D01*
X-7737Y-113679D01*
X-3944Y-114829D01*
X0Y-115217D01*
X3944Y-114829D01*
X7737Y-113679D01*
X11232Y-111810D01*
X14296Y-109296D01*
X14539Y-109000D01*
X144000D01*
Y-90980D01*
X144367Y-90632D01*
X146399Y-90200D01*
X148251Y-89258D01*
X149795Y-87868D01*
X150927Y-86126D01*
X151570Y-84151D01*
X151679Y-82076D01*
X151274Y-80164D01*
X151283Y-79705D01*
X151730Y-78769D01*
X151871Y-78740D01*
X153722Y-77797D01*
X155267Y-76407D01*
X156399Y-74665D01*
X157041Y-72690D01*
X157151Y-70615D01*
X156745Y-68703D01*
X156755Y-68244D01*
X157201Y-67309D01*
X157342Y-67279D01*
X159194Y-66336D01*
X160738Y-64946D01*
X161870Y-63204D01*
X162513Y-61229D01*
X162622Y-59154D01*
X162191Y-57122D01*
X161248Y-55271D01*
X159859Y-53727D01*
X158117Y-52594D01*
X156868Y-51998D01*
X155673Y-50670D01*
X153715Y-49397D01*
X151494Y-48675D01*
X149710Y-48581D01*
X148461Y-47984D01*
X146485Y-47342D01*
X144411Y-47232D01*
X144000Y-46900D01*
Y15239D01*
X144955Y16077D01*
X145000Y16071D01*
X146793Y16307D01*
X148465Y16999D01*
X148466Y17000D01*
X216534D01*
X216535Y16999D01*
X218207Y16307D01*
X220000Y16071D01*
X221793Y16307D01*
X223465Y16999D01*
X223466Y17000D01*
X347000D01*
Y95000D01*
X444780D01*
X444780Y14701D01*
X443510Y14343D01*
X442349Y16238D01*
X439534Y19534D01*
X436237Y22349D01*
X432541Y24614D01*
X428536Y26273D01*
X424321Y27285D01*
X420000Y27625D01*
X415678Y27285D01*
X411463Y26273D01*
X407458Y24614D01*
X403762Y22349D01*
X400466Y19534D01*
X397650Y16238D01*
X395386Y12542D01*
X393727Y8537D01*
X392715Y4322D01*
X392374Y0D01*
X392715Y-4322D01*
X393727Y-8537D01*
X395386Y-12542D01*
X397650Y-16238D01*
X400466Y-19534D01*
X403762Y-22349D01*
X407458Y-24614D01*
X411463Y-26273D01*
X415678Y-27285D01*
X420000Y-27625D01*
X424321Y-27285D01*
X428536Y-26273D01*
X432541Y-24614D01*
X436237Y-22349D01*
X439534Y-19534D01*
X442349Y-16238D01*
X443510Y-14343D01*
X444780Y-14701D01*
Y-163180D01*
X-196780D01*
X-196780Y286000D01*
X-149000D01*
Y246000D01*
D02*
G37*
%LPC*%
G36*
X263000Y386199D02*
X260619Y385885D01*
X258401Y384966D01*
X256495Y383504D01*
X255034Y381599D01*
X254115Y379381D01*
X253801Y377000D01*
X254115Y374619D01*
X255034Y372401D01*
X256495Y370496D01*
X258401Y369034D01*
X260619Y368115D01*
X263000Y367801D01*
X265381Y368115D01*
X267599Y369034D01*
X269505Y370496D01*
X270966Y372401D01*
X271885Y374619D01*
X272199Y377000D01*
X271885Y379381D01*
X270966Y381599D01*
X269505Y383504D01*
X267599Y384966D01*
X265381Y385885D01*
X263000Y386199D01*
D02*
G37*
G36*
X243000D02*
X240619Y385885D01*
X238401Y384966D01*
X236495Y383504D01*
X235034Y381599D01*
X234115Y379381D01*
X233801Y377000D01*
X234115Y374619D01*
X235034Y372401D01*
X236495Y370496D01*
X238401Y369034D01*
X240619Y368115D01*
X243000Y367801D01*
X245381Y368115D01*
X247599Y369034D01*
X249505Y370496D01*
X250966Y372401D01*
X251885Y374619D01*
X252199Y377000D01*
X251885Y379381D01*
X250966Y381599D01*
X249505Y383504D01*
X247599Y384966D01*
X245381Y385885D01*
X243000Y386199D01*
D02*
G37*
G36*
X223000D02*
X221795Y386040D01*
X213960D01*
Y378205D01*
X213801Y377000D01*
X213960Y375795D01*
Y367960D01*
X221795D01*
X223000Y367801D01*
X224205Y367960D01*
X232040D01*
Y375795D01*
X232199Y377000D01*
X232040Y378205D01*
Y386040D01*
X224205D01*
X223000Y386199D01*
D02*
G37*
G36*
X150000Y407625D02*
X145679Y407285D01*
X141463Y406273D01*
X137458Y404614D01*
X133762Y402349D01*
X130466Y399534D01*
X127651Y396238D01*
X125386Y392542D01*
X123727Y388537D01*
X122715Y384322D01*
X122375Y380000D01*
X122715Y375678D01*
X123727Y371463D01*
X125386Y367458D01*
X127651Y363762D01*
X130466Y360466D01*
X133762Y357651D01*
X137458Y355386D01*
X141463Y353727D01*
X145679Y352715D01*
X150000Y352375D01*
X154321Y352715D01*
X158537Y353727D01*
X162542Y355386D01*
X166238Y357651D01*
X169534Y360466D01*
X172349Y363762D01*
X174614Y367458D01*
X176273Y371463D01*
X177285Y375678D01*
X177625Y380000D01*
X177285Y384322D01*
X176273Y388537D01*
X174614Y392542D01*
X172349Y396238D01*
X169534Y399534D01*
X166238Y402349D01*
X162542Y404614D01*
X158537Y406273D01*
X154321Y407285D01*
X150000Y407625D01*
D02*
G37*
G36*
X-150000D02*
X-154321Y407285D01*
X-158537Y406273D01*
X-162542Y404614D01*
X-166238Y402349D01*
X-169534Y399534D01*
X-172349Y396238D01*
X-174614Y392542D01*
X-176273Y388537D01*
X-177285Y384322D01*
X-177625Y380000D01*
X-177285Y375678D01*
X-176273Y371463D01*
X-174614Y367458D01*
X-172349Y363762D01*
X-169534Y360466D01*
X-166238Y357651D01*
X-162542Y355386D01*
X-158537Y353727D01*
X-154321Y352715D01*
X-150000Y352375D01*
X-145679Y352715D01*
X-141463Y353727D01*
X-137458Y355386D01*
X-133762Y357651D01*
X-130466Y360466D01*
X-127651Y363762D01*
X-125386Y367458D01*
X-123727Y371463D01*
X-122715Y375678D01*
X-122375Y380000D01*
X-122715Y384322D01*
X-123727Y388537D01*
X-125386Y392542D01*
X-127651Y396238D01*
X-130466Y399534D01*
X-133762Y402349D01*
X-137458Y404614D01*
X-141463Y406273D01*
X-145679Y407285D01*
X-150000Y407625D01*
D02*
G37*
G36*
X370000Y397625D02*
X365678Y397285D01*
X361463Y396273D01*
X357458Y394614D01*
X353762Y392349D01*
X350466Y389534D01*
X347650Y386237D01*
X345386Y382541D01*
X343727Y378536D01*
X342715Y374321D01*
X342375Y370000D01*
X342715Y365678D01*
X343727Y361463D01*
X345386Y357458D01*
X347650Y353762D01*
X350466Y350466D01*
X353762Y347650D01*
X357458Y345386D01*
X361463Y343727D01*
X365678Y342715D01*
X370000Y342375D01*
X374321Y342715D01*
X378536Y343727D01*
X382541Y345386D01*
X386237Y347650D01*
X389534Y350466D01*
X392349Y353762D01*
X394614Y357458D01*
X396273Y361463D01*
X397285Y365678D01*
X397625Y370000D01*
X397285Y374321D01*
X396273Y378536D01*
X394614Y382541D01*
X392349Y386237D01*
X389534Y389534D01*
X386237Y392349D01*
X382541Y394614D01*
X378536Y396273D01*
X374321Y397285D01*
X370000Y397625D01*
D02*
G37*
G36*
X23000Y332929D02*
X21207Y332693D01*
X19535Y332001D01*
X18100Y330900D01*
X16999Y329465D01*
X16307Y327793D01*
X16071Y326000D01*
X16307Y324207D01*
X16999Y322535D01*
X18100Y321100D01*
X18270Y320970D01*
Y320609D01*
X18096Y319503D01*
X17169Y318295D01*
X16477Y316623D01*
X16241Y314830D01*
X16477Y313037D01*
X17169Y311365D01*
X18270Y309930D01*
X19705Y308829D01*
X21377Y308137D01*
X23170Y307901D01*
X24964Y308137D01*
X26635Y308829D01*
X28070Y309930D01*
X29171Y311365D01*
X29863Y313037D01*
X30099Y314830D01*
X29863Y316623D01*
X29171Y318295D01*
X28070Y319730D01*
X27900Y319860D01*
Y320221D01*
X28074Y321327D01*
X29001Y322535D01*
X29693Y324207D01*
X29929Y326000D01*
X29693Y327793D01*
X29001Y329465D01*
X27900Y330900D01*
X26465Y332001D01*
X24793Y332693D01*
X23000Y332929D01*
D02*
G37*
G36*
X-21500Y326712D02*
X-22804Y326540D01*
X-32040D01*
Y317304D01*
X-32212Y316000D01*
X-32040Y314696D01*
Y305460D01*
X-22804D01*
X-21500Y305288D01*
X-20196Y305460D01*
X-10960D01*
Y314696D01*
X-10788Y316000D01*
X-10960Y317304D01*
Y326540D01*
X-20196D01*
X-21500Y326712D01*
D02*
G37*
G36*
X-72300D02*
X-75072Y326347D01*
X-77656Y325277D01*
X-79874Y323574D01*
X-81577Y321356D01*
X-82647Y318772D01*
X-83012Y316000D01*
X-82647Y313228D01*
X-81577Y310644D01*
X-79874Y308426D01*
X-77656Y306723D01*
X-75072Y305653D01*
X-72300Y305288D01*
X-69528Y305653D01*
X-66944Y306723D01*
X-64726Y308426D01*
X-63023Y310644D01*
X-61953Y313228D01*
X-61588Y316000D01*
X-61953Y318772D01*
X-63023Y321356D01*
X-64726Y323574D01*
X-66944Y325277D01*
X-69528Y326347D01*
X-72300Y326712D01*
D02*
G37*
G36*
X-97700D02*
X-100472Y326347D01*
X-103056Y325277D01*
X-105274Y323574D01*
X-106977Y321356D01*
X-108047Y318772D01*
X-108412Y316000D01*
X-108047Y313228D01*
X-106977Y310644D01*
X-105274Y308426D01*
X-103056Y306723D01*
X-100472Y305653D01*
X-97700Y305288D01*
X-94928Y305653D01*
X-92344Y306723D01*
X-90126Y308426D01*
X-88423Y310644D01*
X-87353Y313228D01*
X-86988Y316000D01*
X-87353Y318772D01*
X-88423Y321356D01*
X-90126Y323574D01*
X-92344Y325277D01*
X-94928Y326347D01*
X-97700Y326712D01*
D02*
G37*
G36*
X-123100D02*
X-125872Y326347D01*
X-128456Y325277D01*
X-130674Y323574D01*
X-132377Y321356D01*
X-133447Y318772D01*
X-133812Y316000D01*
X-133447Y313228D01*
X-132377Y310644D01*
X-130674Y308426D01*
X-128456Y306723D01*
X-125872Y305653D01*
X-123100Y305288D01*
X-120328Y305653D01*
X-117744Y306723D01*
X-115526Y308426D01*
X-113823Y310644D01*
X-112753Y313228D01*
X-112388Y316000D01*
X-112753Y318772D01*
X-113823Y321356D01*
X-115526Y323574D01*
X-117744Y325277D01*
X-120328Y326347D01*
X-123100Y326712D01*
D02*
G37*
G36*
X-148500D02*
X-151272Y326347D01*
X-153856Y325277D01*
X-156074Y323574D01*
X-157777Y321356D01*
X-158847Y318772D01*
X-159212Y316000D01*
X-158847Y313228D01*
X-157777Y310644D01*
X-156074Y308426D01*
X-153856Y306723D01*
X-151272Y305653D01*
X-148500Y305288D01*
X-145728Y305653D01*
X-143144Y306723D01*
X-140926Y308426D01*
X-139223Y310644D01*
X-138153Y313228D01*
X-137788Y316000D01*
X-138153Y318772D01*
X-139223Y321356D01*
X-140926Y323574D01*
X-143144Y325277D01*
X-145728Y326347D01*
X-148500Y326712D01*
D02*
G37*
G36*
X100000Y328929D02*
X98207Y328693D01*
X96535Y328001D01*
X95100Y326900D01*
X93999Y325465D01*
X93307Y323793D01*
X93071Y322000D01*
X93307Y320207D01*
X93999Y318535D01*
X95100Y317100D01*
X96535Y315999D01*
X97288Y315687D01*
Y314313D01*
X96535Y314001D01*
X95100Y312900D01*
X93999Y311465D01*
X93307Y309793D01*
X93071Y308000D01*
X93307Y306207D01*
X93999Y304535D01*
X95100Y303100D01*
X96535Y301999D01*
X98207Y301307D01*
X100000Y301071D01*
X101793Y301307D01*
X103465Y301999D01*
X104900Y303100D01*
X106001Y304535D01*
X106693Y306207D01*
X106929Y308000D01*
X106693Y309793D01*
X106001Y311465D01*
X104900Y312900D01*
X103465Y314001D01*
X102712Y314313D01*
Y315687D01*
X103465Y315999D01*
X104900Y317100D01*
X106001Y318535D01*
X106693Y320207D01*
X106929Y322000D01*
X106693Y323793D01*
X106001Y325465D01*
X104900Y326900D01*
X103465Y328001D01*
X101793Y328693D01*
X100000Y328929D01*
D02*
G37*
G36*
X84000D02*
X82207Y328693D01*
X80535Y328001D01*
X79100Y326900D01*
X77999Y325465D01*
X77307Y323793D01*
X77071Y322000D01*
X77307Y320207D01*
X77999Y318535D01*
X79100Y317100D01*
X80535Y315999D01*
X81288Y315687D01*
Y314313D01*
X80535Y314001D01*
X79100Y312900D01*
X77999Y311465D01*
X77307Y309793D01*
X77071Y308000D01*
X77307Y306207D01*
X77999Y304535D01*
X79100Y303100D01*
X80535Y301999D01*
X82207Y301307D01*
X84000Y301071D01*
X85793Y301307D01*
X87465Y301999D01*
X88900Y303100D01*
X90001Y304535D01*
X90693Y306207D01*
X90929Y308000D01*
X90693Y309793D01*
X90001Y311465D01*
X88900Y312900D01*
X87465Y314001D01*
X86712Y314313D01*
Y315687D01*
X87465Y315999D01*
X88900Y317100D01*
X90001Y318535D01*
X90693Y320207D01*
X90929Y322000D01*
X90693Y323793D01*
X90001Y325465D01*
X88900Y326900D01*
X87465Y328001D01*
X85793Y328693D01*
X84000Y328929D01*
D02*
G37*
G36*
X291000Y300929D02*
X289207Y300693D01*
X287535Y300001D01*
X286500Y299207D01*
X285465Y300001D01*
X283793Y300693D01*
X282000Y300929D01*
X280207Y300693D01*
X278535Y300001D01*
X277100Y298900D01*
X275999Y297465D01*
X275307Y295793D01*
X275071Y294000D01*
X275307Y292207D01*
X275999Y290535D01*
X277100Y289100D01*
X276424Y288018D01*
X275998Y287464D01*
X275306Y285793D01*
X275070Y283999D01*
X275306Y282206D01*
X275998Y280535D01*
X277100Y279100D01*
X278535Y277999D01*
X280206Y277306D01*
X281999Y277070D01*
X283793Y277306D01*
X285464Y277999D01*
X286500Y278793D01*
X287535Y277999D01*
X289207Y277306D01*
X291000Y277070D01*
X292793Y277306D01*
X294465Y277999D01*
X295900Y279100D01*
X297001Y280535D01*
X297693Y282206D01*
X297929Y283999D01*
X297693Y285793D01*
X297001Y287464D01*
X296576Y288018D01*
X295963Y289000D01*
X296576Y289981D01*
X297001Y290535D01*
X297693Y292207D01*
X297929Y294000D01*
X297693Y295793D01*
X297001Y297465D01*
X295900Y298900D01*
X294465Y300001D01*
X292793Y300693D01*
X291000Y300929D01*
D02*
G37*
G36*
X245000Y295929D02*
X243207Y295693D01*
X241535Y295001D01*
X240100Y293900D01*
X238999Y292465D01*
X238307Y290793D01*
X238071Y289000D01*
X238307Y287207D01*
X238999Y285535D01*
X240100Y284100D01*
X241535Y282999D01*
X243207Y282307D01*
X245000Y282071D01*
X246793Y282307D01*
X248465Y282999D01*
X249900Y284100D01*
X251001Y285535D01*
X251693Y287207D01*
X251929Y289000D01*
X251693Y290793D01*
X251001Y292465D01*
X249900Y293900D01*
X248465Y295001D01*
X246793Y295693D01*
X245000Y295929D01*
D02*
G37*
G36*
X106000Y287929D02*
X104207Y287693D01*
X102535Y287001D01*
X101100Y285900D01*
X99999Y284465D01*
X99307Y282793D01*
X99071Y281000D01*
X99307Y279207D01*
X99999Y277535D01*
X101100Y276100D01*
X102535Y274999D01*
X104207Y274307D01*
X106000Y274071D01*
X107793Y274307D01*
X109465Y274999D01*
X110900Y276100D01*
X112001Y277535D01*
X112693Y279207D01*
X112929Y281000D01*
X112693Y282793D01*
X112001Y284465D01*
X110900Y285900D01*
X109465Y287001D01*
X107793Y287693D01*
X106000Y287929D01*
D02*
G37*
G36*
X-68000Y267199D02*
X-70381Y266885D01*
X-72599Y265966D01*
X-74504Y264504D01*
X-75966Y262599D01*
X-76885Y260381D01*
X-77199Y258000D01*
X-76885Y255619D01*
X-75966Y253401D01*
X-74504Y251495D01*
X-72599Y250034D01*
X-70381Y249115D01*
X-68000Y248801D01*
X-65619Y249115D01*
X-63401Y250034D01*
X-61495Y251495D01*
X-60034Y253401D01*
X-59115Y255619D01*
X-58801Y258000D01*
X-59115Y260381D01*
X-60034Y262599D01*
X-61495Y264504D01*
X-63401Y265966D01*
X-65619Y266885D01*
X-68000Y267199D01*
D02*
G37*
G36*
X-88000D02*
X-90381Y266885D01*
X-92599Y265966D01*
X-94504Y264504D01*
X-95966Y262599D01*
X-96885Y260381D01*
X-97199Y258000D01*
X-96885Y255619D01*
X-95966Y253401D01*
X-94504Y251495D01*
X-92599Y250034D01*
X-90381Y249115D01*
X-88000Y248801D01*
X-85619Y249115D01*
X-83401Y250034D01*
X-81496Y251495D01*
X-80034Y253401D01*
X-79115Y255619D01*
X-78801Y258000D01*
X-79115Y260381D01*
X-80034Y262599D01*
X-81496Y264504D01*
X-83401Y265966D01*
X-85619Y266885D01*
X-88000Y267199D01*
D02*
G37*
G36*
X163000Y281009D02*
X161207Y280773D01*
X159535Y280081D01*
X158100Y278980D01*
X156999Y277545D01*
X156307Y275873D01*
X156071Y274080D01*
X156307Y272287D01*
X156999Y270615D01*
X158001Y269310D01*
X156999Y268005D01*
X156307Y266333D01*
X156071Y264540D01*
X156307Y262747D01*
X156999Y261075D01*
X158001Y259770D01*
X156999Y258465D01*
X156307Y256793D01*
X156071Y255000D01*
X156307Y253207D01*
X156999Y251535D01*
X158100Y250100D01*
X159535Y248999D01*
X161207Y248307D01*
X163000Y248071D01*
X164793Y248307D01*
X166465Y248999D01*
X167900Y250100D01*
X169001Y251535D01*
X169693Y253207D01*
X169929Y255000D01*
X169693Y256793D01*
X169001Y258465D01*
X167999Y259770D01*
X169001Y261075D01*
X169693Y262747D01*
X169929Y264540D01*
X169693Y266333D01*
X169001Y268005D01*
X167999Y269310D01*
X169001Y270615D01*
X169693Y272287D01*
X169929Y274080D01*
X169693Y275873D01*
X169001Y277545D01*
X167900Y278980D01*
X166465Y280081D01*
X164793Y280773D01*
X163000Y281009D01*
D02*
G37*
G36*
X202094Y256929D02*
X200301Y256693D01*
X198630Y256000D01*
X197195Y254899D01*
X196094Y253464D01*
X195401Y251793D01*
X195165Y250000D01*
X195401Y248206D01*
X196094Y246535D01*
X197195Y245100D01*
X198630Y243999D01*
X200301Y243306D01*
X202094Y243070D01*
X203888Y243306D01*
X205559Y243999D01*
X206385Y243032D01*
X207100Y242100D01*
X208535Y240999D01*
X210207Y240307D01*
X211386Y240152D01*
X211341Y239810D01*
X211577Y238017D01*
X212269Y236346D01*
X213371Y234910D01*
X214806Y233809D01*
X216477Y233117D01*
X218270Y232881D01*
X220064Y233117D01*
X221735Y233809D01*
X223170Y234910D01*
X224271Y236346D01*
X224285Y236379D01*
X225739Y236571D01*
X226100Y236100D01*
X227535Y234999D01*
X229207Y234307D01*
X231000Y234071D01*
X232793Y234307D01*
X234465Y234999D01*
X235900Y236100D01*
X237001Y237535D01*
X237693Y239207D01*
X237929Y241000D01*
X237693Y242793D01*
X237001Y244465D01*
X235900Y245900D01*
X234465Y247001D01*
X232793Y247693D01*
X231000Y247929D01*
X229207Y247693D01*
X227535Y247001D01*
X226100Y245900D01*
X224999Y244465D01*
X224985Y244431D01*
X223531Y244239D01*
X223170Y244710D01*
X221735Y245811D01*
X220064Y246503D01*
X218884Y246658D01*
X218929Y247000D01*
X218693Y248793D01*
X218001Y250465D01*
X216900Y251900D01*
X215465Y253001D01*
X213793Y253693D01*
X212000Y253929D01*
X210207Y253693D01*
X208535Y253001D01*
X207709Y253968D01*
X206994Y254899D01*
X205559Y256000D01*
X203888Y256693D01*
X202094Y256929D01*
D02*
G37*
G36*
X0Y278625D02*
X-4322Y278285D01*
X-8537Y277273D01*
X-12542Y275614D01*
X-16238Y273349D01*
X-19534Y270534D01*
X-22349Y267238D01*
X-24614Y263542D01*
X-26273Y259537D01*
X-27285Y255322D01*
X-27625Y251000D01*
X-27285Y246679D01*
X-26273Y242463D01*
X-24614Y238458D01*
X-22349Y234762D01*
X-19534Y231466D01*
X-16238Y228651D01*
X-12542Y226386D01*
X-8537Y224727D01*
X-4322Y223715D01*
X0Y223375D01*
X4322Y223715D01*
X8537Y224727D01*
X12542Y226386D01*
X16238Y228651D01*
X19534Y231466D01*
X22349Y234762D01*
X24614Y238458D01*
X26273Y242463D01*
X27285Y246679D01*
X27625Y251000D01*
X27285Y255322D01*
X26273Y259537D01*
X24614Y263542D01*
X22349Y267238D01*
X19534Y270534D01*
X16238Y273349D01*
X12542Y275614D01*
X8537Y277273D01*
X4322Y278285D01*
X0Y278625D01*
D02*
G37*
G36*
X181000Y230929D02*
X179207Y230693D01*
X177535Y230001D01*
X176100Y228900D01*
X174999Y227465D01*
X174307Y225793D01*
X174071Y224000D01*
X174307Y222207D01*
X174999Y220535D01*
X176100Y219100D01*
X177535Y217999D01*
X179207Y217307D01*
X181000Y217071D01*
X182793Y217307D01*
X184465Y217999D01*
X185900Y219100D01*
X187001Y220535D01*
X187693Y222207D01*
X187929Y224000D01*
X187693Y225793D01*
X187001Y227465D01*
X185900Y228900D01*
X184465Y230001D01*
X182793Y230693D01*
X181000Y230929D01*
D02*
G37*
G36*
X134000Y229929D02*
X132207Y229693D01*
X130535Y229001D01*
X129100Y227900D01*
X127999Y226465D01*
X127307Y224793D01*
X127071Y223000D01*
X127307Y221207D01*
X127999Y219535D01*
X129100Y218100D01*
X130535Y216999D01*
X132207Y216307D01*
X134000Y216071D01*
X135793Y216307D01*
X137465Y216999D01*
X138900Y218100D01*
X140001Y219535D01*
X140693Y221207D01*
X140929Y223000D01*
X140693Y224793D01*
X140001Y226465D01*
X138900Y227900D01*
X137465Y229001D01*
X135793Y229693D01*
X134000Y229929D01*
D02*
G37*
G36*
X251000Y211429D02*
X249207Y211193D01*
X247535Y210501D01*
X246100Y209400D01*
X244999Y207965D01*
X244307Y206293D01*
X244071Y204500D01*
X244307Y202707D01*
X244999Y201035D01*
X246100Y199600D01*
X247535Y198499D01*
X249207Y197807D01*
X251000Y197571D01*
X252793Y197807D01*
X254465Y198499D01*
X255900Y199600D01*
X257001Y201035D01*
X257693Y202707D01*
X257929Y204500D01*
X257693Y206293D01*
X257001Y207965D01*
X255900Y209400D01*
X254465Y210501D01*
X252793Y211193D01*
X251000Y211429D01*
D02*
G37*
G36*
X157000Y205929D02*
X155207Y205693D01*
X153535Y205001D01*
X152100Y203900D01*
X150999Y202465D01*
X150307Y200793D01*
X150071Y199000D01*
X150307Y197207D01*
X150999Y195535D01*
X152100Y194100D01*
X153535Y192999D01*
X155207Y192307D01*
X157000Y192071D01*
X158793Y192307D01*
X160465Y192999D01*
X161900Y194100D01*
X163001Y195535D01*
X163693Y197207D01*
X163929Y199000D01*
X163693Y200793D01*
X163001Y202465D01*
X161900Y203900D01*
X160465Y205001D01*
X158793Y205693D01*
X157000Y205929D01*
D02*
G37*
G36*
X241669Y197598D02*
X239876Y197362D01*
X238204Y196670D01*
X236769Y195569D01*
X235668Y194134D01*
X234976Y192462D01*
X234740Y190669D01*
X234976Y188876D01*
X235668Y187204D01*
X236769Y185769D01*
X238204Y184668D01*
X239876Y183976D01*
X241669Y183740D01*
X243462Y183976D01*
X245134Y184668D01*
X246569Y185769D01*
X247670Y187204D01*
X248362Y188876D01*
X248598Y190669D01*
X248362Y192462D01*
X247670Y194134D01*
X246569Y195569D01*
X245134Y196670D01*
X243462Y197362D01*
X241669Y197598D01*
D02*
G37*
G36*
X217000Y194929D02*
X215207Y194693D01*
X213535Y194001D01*
X212100Y192900D01*
X210999Y191465D01*
X210307Y189793D01*
X210071Y188000D01*
X210307Y186207D01*
X210999Y184535D01*
X212100Y183100D01*
X213535Y181999D01*
X215207Y181307D01*
X217000Y181071D01*
X218793Y181307D01*
X220465Y181999D01*
X221900Y183100D01*
X223001Y184535D01*
X223693Y186207D01*
X223929Y188000D01*
X223693Y189793D01*
X223001Y191465D01*
X221900Y192900D01*
X220465Y194001D01*
X218793Y194693D01*
X217000Y194929D01*
D02*
G37*
G36*
X180000Y183929D02*
X178207Y183693D01*
X176535Y183001D01*
X175100Y181900D01*
X173999Y180465D01*
X173307Y178793D01*
X173071Y177000D01*
X173307Y175207D01*
X173999Y173535D01*
X175100Y172100D01*
X176535Y170999D01*
X178207Y170307D01*
X180000Y170071D01*
X181793Y170307D01*
X183465Y170999D01*
X184900Y172100D01*
X186001Y173535D01*
X186693Y175207D01*
X186929Y177000D01*
X186693Y178793D01*
X186001Y180465D01*
X184900Y181900D01*
X183465Y183001D01*
X181793Y183693D01*
X180000Y183929D01*
D02*
G37*
G36*
X134000D02*
X132207Y183693D01*
X130535Y183001D01*
X129100Y181900D01*
X127999Y180465D01*
X127307Y178793D01*
X127071Y177000D01*
X127307Y175207D01*
X127999Y173535D01*
X129100Y172100D01*
X130535Y170999D01*
X132207Y170307D01*
X134000Y170071D01*
X135793Y170307D01*
X137465Y170999D01*
X138900Y172100D01*
X140001Y173535D01*
X140693Y175207D01*
X140929Y177000D01*
X140693Y178793D01*
X140001Y180465D01*
X138900Y181900D01*
X137465Y183001D01*
X135793Y183693D01*
X134000Y183929D01*
D02*
G37*
G36*
X-13540Y172778D02*
X-15572Y172347D01*
X-17423Y171405D01*
X-18876Y170098D01*
X-19279Y169876D01*
X-20079Y169813D01*
X-20512Y169969D01*
X-22150Y171034D01*
X-24126Y171677D01*
X-26201Y171786D01*
X-28233Y171355D01*
X-30084Y170413D01*
X-31629Y169023D01*
X-32761Y167281D01*
X-33403Y165306D01*
X-33513Y163231D01*
X-33405Y161851D01*
X-33957Y160152D01*
X-34080Y157820D01*
X-33596Y155535D01*
X-32785Y153944D01*
X-32677Y152564D01*
X-32246Y150532D01*
X-31303Y148680D01*
X-29914Y147136D01*
X-28172Y146004D01*
X-26196Y145361D01*
X-24122Y145252D01*
X-22089Y145683D01*
X-20238Y146625D01*
X-18785Y147933D01*
X-18382Y148154D01*
X-17582Y148217D01*
X-17149Y148061D01*
X-15511Y146996D01*
X-13535Y146353D01*
X-11460Y146244D01*
X-9428Y146675D01*
X-7577Y147617D01*
X-6033Y149007D01*
X-4900Y150749D01*
X-4258Y152724D01*
X-4148Y154799D01*
X-4257Y156179D01*
X-3704Y157878D01*
X-3581Y160210D01*
X-4066Y162495D01*
X-4876Y164086D01*
X-4984Y165466D01*
X-5415Y167498D01*
X-6358Y169350D01*
X-7747Y170894D01*
X-9489Y172026D01*
X-11465Y172669D01*
X-13540Y172778D01*
D02*
G37*
G36*
X305000Y182929D02*
X303207Y182693D01*
X301535Y182001D01*
X300100Y180900D01*
X298999Y179465D01*
X298307Y177793D01*
X298071Y176000D01*
X298307Y174207D01*
X298999Y172535D01*
X300100Y171100D01*
X301535Y169999D01*
X303207Y169307D01*
X305000Y169071D01*
X306793Y169307D01*
X308465Y169999D01*
X309900Y171100D01*
X311001Y172535D01*
X311693Y174207D01*
X311929Y176000D01*
X311693Y177793D01*
X311001Y179465D01*
X309900Y180900D01*
X308465Y182001D01*
X306793Y182693D01*
X305000Y182929D01*
D02*
G37*
G36*
X268000Y180929D02*
X266207Y180693D01*
X264535Y180001D01*
X263100Y178900D01*
X261999Y177465D01*
X261307Y175793D01*
X261071Y174000D01*
X261307Y172207D01*
X261999Y170535D01*
X263100Y169100D01*
X264535Y167999D01*
X266207Y167307D01*
X268000Y167071D01*
X269793Y167307D01*
X271465Y167999D01*
X272900Y169100D01*
X274001Y170535D01*
X274693Y172207D01*
X274929Y174000D01*
X274693Y175793D01*
X274001Y177465D01*
X272900Y178900D01*
X271465Y180001D01*
X269793Y180693D01*
X268000Y180929D01*
D02*
G37*
G36*
X99000Y193929D02*
X97207Y193693D01*
X95535Y193001D01*
X94100Y191900D01*
X92999Y190465D01*
X92307Y188793D01*
X92071Y187000D01*
X92307Y185207D01*
X92999Y183535D01*
X93424Y182981D01*
X94100Y181899D01*
X92999Y180464D01*
X92307Y178793D01*
X92071Y177000D01*
X92307Y175206D01*
X92999Y173535D01*
X93424Y172981D01*
X94037Y172000D01*
X93424Y171018D01*
X92999Y170464D01*
X92307Y168793D01*
X92071Y167000D01*
X92307Y165206D01*
X92999Y163535D01*
X94100Y162100D01*
X95535Y160999D01*
X97206Y160306D01*
X99000Y160070D01*
X100793Y160306D01*
X102464Y160999D01*
X103899Y162100D01*
X105001Y163535D01*
X105693Y165206D01*
X105929Y167000D01*
X105693Y168793D01*
X105001Y170464D01*
X104576Y171018D01*
X103962Y172000D01*
X104576Y172981D01*
X105001Y173535D01*
X105693Y175206D01*
X105929Y177000D01*
X105693Y178793D01*
X105001Y180464D01*
X104576Y181018D01*
X103900Y182100D01*
X105001Y183535D01*
X105693Y185207D01*
X105929Y187000D01*
X105693Y188793D01*
X105001Y190465D01*
X103900Y191900D01*
X102465Y193001D01*
X100793Y193693D01*
X99000Y193929D01*
D02*
G37*
G36*
X240000Y172929D02*
X238206Y172693D01*
X236535Y172001D01*
X235100Y170899D01*
X233999Y169464D01*
X233306Y167793D01*
X233070Y166000D01*
X233306Y164206D01*
X233999Y162535D01*
X234826Y161457D01*
X234100Y160900D01*
X232999Y159465D01*
X232307Y157793D01*
X232071Y156000D01*
X232307Y154207D01*
X232999Y152535D01*
X234100Y151100D01*
X235535Y149999D01*
X237207Y149307D01*
X239000Y149071D01*
X240793Y149307D01*
X242465Y149999D01*
X243900Y151100D01*
X245001Y152535D01*
X245693Y154207D01*
X245929Y156000D01*
X245693Y157793D01*
X245001Y159465D01*
X244174Y160543D01*
X244899Y161100D01*
X246000Y162535D01*
X246693Y164206D01*
X246929Y166000D01*
X246693Y167793D01*
X246000Y169464D01*
X244899Y170899D01*
X243464Y172001D01*
X241793Y172693D01*
X240000Y172929D01*
D02*
G37*
G36*
X109000Y156929D02*
X107207Y156693D01*
X105535Y156001D01*
X104100Y154900D01*
X102999Y153465D01*
X102307Y151793D01*
X102071Y150000D01*
X102307Y148207D01*
X102999Y146535D01*
X104100Y145100D01*
X105535Y143999D01*
X107207Y143307D01*
X109000Y143071D01*
X110793Y143307D01*
X112465Y143999D01*
X113900Y145100D01*
X115001Y146535D01*
X115693Y148207D01*
X115929Y150000D01*
X115693Y151793D01*
X115001Y153465D01*
X113900Y154900D01*
X112465Y156001D01*
X110793Y156693D01*
X109000Y156929D01*
D02*
G37*
G36*
X-118000Y152929D02*
X-119793Y152693D01*
X-121465Y152001D01*
X-122900Y150900D01*
X-124001Y149465D01*
X-124693Y147793D01*
X-124929Y146000D01*
X-124693Y144207D01*
X-124001Y142535D01*
X-122900Y141100D01*
X-121465Y139999D01*
X-119793Y139307D01*
X-118000Y139071D01*
X-116207Y139307D01*
X-114535Y139999D01*
X-113100Y141100D01*
X-111999Y142535D01*
X-111307Y144207D01*
X-111071Y146000D01*
X-111307Y147793D01*
X-111999Y149465D01*
X-113100Y150900D01*
X-114535Y152001D01*
X-116207Y152693D01*
X-118000Y152929D01*
D02*
G37*
G36*
X141310Y147783D02*
X139517Y147547D01*
X137845Y146854D01*
X136410Y145753D01*
X135309Y144318D01*
X134617Y142647D01*
X134381Y140853D01*
X134617Y139060D01*
X135309Y137389D01*
X136369Y136007D01*
X136229Y135900D01*
X135128Y134465D01*
X134436Y132793D01*
X134200Y131000D01*
X134436Y129207D01*
X135128Y127535D01*
X136229Y126100D01*
X137664Y124999D01*
X139335Y124307D01*
X141129Y124071D01*
X142922Y124307D01*
X144594Y124999D01*
X146029Y126100D01*
X147130Y127535D01*
X147822Y129207D01*
X148058Y131000D01*
X147822Y132793D01*
X147130Y134465D01*
X146070Y135846D01*
X146210Y135954D01*
X147311Y137389D01*
X148003Y139060D01*
X148239Y140853D01*
X148003Y142647D01*
X147311Y144318D01*
X146210Y145753D01*
X144775Y146854D01*
X143103Y147547D01*
X141310Y147783D01*
D02*
G37*
G36*
X107949Y137946D02*
X106156Y137710D01*
X104485Y137018D01*
X103050Y135917D01*
X101949Y134481D01*
X101256Y132810D01*
X101020Y131017D01*
X101256Y129223D01*
X101949Y127552D01*
X103050Y126117D01*
X104485Y125016D01*
X106156Y124324D01*
X107949Y124087D01*
X109743Y124324D01*
X110890Y124799D01*
X110999Y124535D01*
X112100Y123100D01*
X113535Y121999D01*
X115207Y121307D01*
X117000Y121071D01*
X118793Y121307D01*
X120465Y121999D01*
X121900Y123100D01*
X123001Y124535D01*
X123693Y126207D01*
X123929Y128000D01*
X123693Y129793D01*
X123001Y131465D01*
X121900Y132900D01*
X120465Y134001D01*
X118793Y134693D01*
X117000Y134929D01*
X115207Y134693D01*
X114060Y134218D01*
X113951Y134481D01*
X112849Y135917D01*
X111414Y137018D01*
X109743Y137710D01*
X107949Y137946D01*
D02*
G37*
G36*
X254000Y121929D02*
X252207Y121693D01*
X250535Y121001D01*
X249100Y119900D01*
X247999Y118465D01*
X247307Y116793D01*
X247071Y115000D01*
X247307Y113207D01*
X247999Y111535D01*
X249100Y110100D01*
X250535Y108999D01*
X252207Y108307D01*
X254000Y108071D01*
X255793Y108307D01*
X257465Y108999D01*
X258900Y110100D01*
X260001Y111535D01*
X260693Y113207D01*
X260929Y115000D01*
X260693Y116793D01*
X260001Y118465D01*
X258900Y119900D01*
X257465Y121001D01*
X255793Y121693D01*
X254000Y121929D01*
D02*
G37*
G36*
X297000Y104429D02*
X295207Y104193D01*
X293536Y103501D01*
X292101Y102400D01*
X290999Y100964D01*
X290307Y99293D01*
X290071Y97500D01*
X290307Y95706D01*
X290999Y94035D01*
X292101Y92600D01*
X293536Y91499D01*
X295207Y90807D01*
X297000Y90570D01*
X298794Y90807D01*
X300465Y91499D01*
X301900Y92600D01*
X303001Y94035D01*
X303693Y95706D01*
X303930Y97500D01*
X303693Y99293D01*
X303001Y100964D01*
X301900Y102400D01*
X300465Y103501D01*
X298794Y104193D01*
X297000Y104429D01*
D02*
G37*
G36*
X222000D02*
X220207Y104193D01*
X218536Y103501D01*
X217101Y102400D01*
X215999Y100964D01*
X215307Y99293D01*
X215071Y97500D01*
X215307Y95706D01*
X215999Y94035D01*
X217101Y92600D01*
X218536Y91499D01*
X220207Y90807D01*
X222000Y90570D01*
X223794Y90807D01*
X225465Y91499D01*
X226900Y92600D01*
X228001Y94035D01*
X228693Y95706D01*
X228930Y97500D01*
X228693Y99293D01*
X228001Y100964D01*
X226900Y102400D01*
X225465Y103501D01*
X223794Y104193D01*
X222000Y104429D01*
D02*
G37*
G36*
X147000D02*
X145207Y104193D01*
X143536Y103501D01*
X142100Y102400D01*
X140999Y100964D01*
X140307Y99293D01*
X140071Y97500D01*
X140307Y95706D01*
X140999Y94035D01*
X142100Y92600D01*
X143536Y91499D01*
X145207Y90807D01*
X147000Y90570D01*
X148794Y90807D01*
X150465Y91499D01*
X151900Y92600D01*
X153001Y94035D01*
X153693Y95706D01*
X153930Y97500D01*
X153693Y99293D01*
X153001Y100964D01*
X151900Y102400D01*
X150465Y103501D01*
X148794Y104193D01*
X147000Y104429D01*
D02*
G37*
G36*
X0Y115217D02*
X-3944Y114828D01*
X-7737Y113678D01*
X-11232Y111810D01*
X-14296Y109295D01*
X-16810Y106232D01*
X-18678Y102736D01*
X-19829Y98944D01*
X-20217Y95000D01*
X-19829Y91055D01*
X-18678Y87263D01*
X-16810Y83767D01*
X-14296Y80704D01*
X-11232Y78189D01*
X-7737Y76321D01*
X-3944Y75171D01*
X0Y74782D01*
X3944Y75171D01*
X7737Y76321D01*
X11232Y78189D01*
X14296Y80704D01*
X16810Y83767D01*
X18678Y87263D01*
X19829Y91055D01*
X20217Y95000D01*
X19829Y98944D01*
X18678Y102736D01*
X16810Y106232D01*
X14296Y109295D01*
X11232Y111810D01*
X7737Y113678D01*
X3944Y114828D01*
X0Y115217D01*
D02*
G37*
G36*
X321000Y81929D02*
X319207Y81693D01*
X317535Y81001D01*
X316100Y79900D01*
X314999Y78465D01*
X314307Y76793D01*
X314071Y75000D01*
X314307Y73207D01*
X314999Y71535D01*
X316100Y70100D01*
X317535Y68999D01*
X319207Y68307D01*
X321000Y68071D01*
X322793Y68307D01*
X324465Y68999D01*
X325900Y70100D01*
X327001Y71535D01*
X327693Y73207D01*
X327929Y75000D01*
X327693Y76793D01*
X327001Y78465D01*
X325900Y79900D01*
X324465Y81001D01*
X322793Y81693D01*
X321000Y81929D01*
D02*
G37*
G36*
X246000D02*
X244207Y81693D01*
X242535Y81001D01*
X241100Y79900D01*
X239999Y78465D01*
X239307Y76793D01*
X239071Y75000D01*
X239307Y73207D01*
X239999Y71535D01*
X241100Y70100D01*
X242535Y68999D01*
X244207Y68307D01*
X246000Y68071D01*
X247793Y68307D01*
X249465Y68999D01*
X250900Y70100D01*
X252001Y71535D01*
X252693Y73207D01*
X252929Y75000D01*
X252693Y76793D01*
X252001Y78465D01*
X250900Y79900D01*
X249465Y81001D01*
X247793Y81693D01*
X246000Y81929D01*
D02*
G37*
G36*
X171000D02*
X169207Y81693D01*
X167535Y81001D01*
X166100Y79900D01*
X164999Y78465D01*
X164307Y76793D01*
X164071Y75000D01*
X164307Y73207D01*
X164999Y71535D01*
X166100Y70100D01*
X167535Y68999D01*
X169207Y68307D01*
X171000Y68071D01*
X172793Y68307D01*
X174465Y68999D01*
X175900Y70100D01*
X177001Y71535D01*
X177693Y73207D01*
X177929Y75000D01*
X177693Y76793D01*
X177001Y78465D01*
X175900Y79900D01*
X174465Y81001D01*
X172793Y81693D01*
X171000Y81929D01*
D02*
G37*
G36*
X73000Y83712D02*
X70228Y83347D01*
X67644Y82277D01*
X65426Y80574D01*
X63723Y78356D01*
X62653Y75772D01*
X62288Y73000D01*
X62653Y70228D01*
X63723Y67644D01*
X65426Y65426D01*
X67644Y63723D01*
X70228Y62653D01*
X73000Y62288D01*
X75772Y62653D01*
X78356Y63723D01*
X80574Y65426D01*
X82277Y67644D01*
X83347Y70228D01*
X83712Y73000D01*
X83347Y75772D01*
X82277Y78356D01*
X80574Y80574D01*
X78356Y82277D01*
X75772Y83347D01*
X73000Y83712D01*
D02*
G37*
G36*
X-84202Y123267D02*
X-84784Y123151D01*
X-85376Y123133D01*
X-85643Y123013D01*
X-85934Y122971D01*
X-86058Y122898D01*
X-86200Y122870D01*
X-86693Y122540D01*
X-87233Y122297D01*
X-92129Y118804D01*
X-92279Y118645D01*
X-92471Y118539D01*
X-101651Y110767D01*
X-101787Y110596D01*
X-101969Y110474D01*
X-110474Y101969D01*
X-110596Y101787D01*
X-110767Y101651D01*
X-118539Y92471D01*
X-118645Y92279D01*
X-118804Y92129D01*
X-122297Y87233D01*
X-122598Y86565D01*
X-122971Y85934D01*
X-123013Y85643D01*
X-123133Y85376D01*
X-123156Y84643D01*
X-123259Y83917D01*
X-123187Y83633D01*
X-123195Y83340D01*
X-122936Y82654D01*
X-122753Y81944D01*
X-122578Y81710D01*
X-122474Y81436D01*
X-121971Y80901D01*
X-121531Y80315D01*
X-100896Y61818D01*
X-100612Y61650D01*
X-100383Y61413D01*
X-99743Y61135D01*
X-99143Y60780D01*
X-98817Y60734D01*
X-98514Y60602D01*
X-97817Y60591D01*
X-97127Y60493D01*
X-96807Y60575D01*
X-96477Y60569D01*
X-95829Y60825D01*
X-95154Y60998D01*
X-94890Y61196D01*
X-94583Y61318D01*
X-94082Y61802D01*
X-93525Y62221D01*
X-93357Y62505D01*
X-93119Y62734D01*
X-91568Y64976D01*
X-88326Y69318D01*
X-84898Y73476D01*
X-84851Y73528D01*
X-84096Y73178D01*
X-83699Y72907D01*
X-83347Y70228D01*
X-82277Y67644D01*
X-80574Y65426D01*
X-78356Y63723D01*
X-75772Y62653D01*
X-73000Y62288D01*
X-70228Y62653D01*
X-67644Y63723D01*
X-65426Y65426D01*
X-63723Y67644D01*
X-62653Y70228D01*
X-62288Y73000D01*
X-62653Y75772D01*
X-63723Y78356D01*
X-65426Y80574D01*
X-67644Y82277D01*
X-70228Y83347D01*
X-72907Y83699D01*
X-73178Y84096D01*
X-73528Y84851D01*
X-73476Y84898D01*
X-69318Y88325D01*
X-64976Y91568D01*
X-62734Y93119D01*
X-62505Y93357D01*
X-62221Y93525D01*
X-61802Y94082D01*
X-61318Y94583D01*
X-61196Y94890D01*
X-60998Y95154D01*
X-60825Y95829D01*
X-60569Y96477D01*
X-60575Y96807D01*
X-60493Y97127D01*
X-60591Y97817D01*
X-60602Y98514D01*
X-60734Y98817D01*
X-60780Y99143D01*
X-61136Y99743D01*
X-61413Y100383D01*
X-61650Y100612D01*
X-61818Y100896D01*
X-80315Y121531D01*
X-80430Y121618D01*
X-80511Y121738D01*
X-81004Y122068D01*
X-81436Y122474D01*
X-81709Y122578D01*
X-81944Y122753D01*
X-82084Y122789D01*
X-82204Y122870D01*
X-82786Y122985D01*
X-83340Y123195D01*
X-83633Y123187D01*
X-83917Y123259D01*
X-84060Y123239D01*
X-84202Y123267D01*
D02*
G37*
G36*
X222000Y75679D02*
X220207Y75443D01*
X218535Y74751D01*
X217100Y73650D01*
X215999Y72215D01*
X215307Y70543D01*
X215071Y68750D01*
X215307Y66957D01*
X215999Y65285D01*
X217100Y63850D01*
X218535Y62749D01*
X218684Y62687D01*
Y61313D01*
X218535Y61251D01*
X217100Y60150D01*
X215999Y58715D01*
X215307Y57044D01*
X215071Y55250D01*
X215307Y53457D01*
X215999Y51786D01*
X217100Y50350D01*
X218535Y49249D01*
X220207Y48557D01*
X222000Y48321D01*
X223794Y48557D01*
X225465Y49249D01*
X226900Y50350D01*
X228001Y51786D01*
X228693Y53457D01*
X228929Y55250D01*
X228693Y57044D01*
X228001Y58715D01*
X226900Y60150D01*
X225465Y61251D01*
X225316Y61313D01*
Y62688D01*
X225465Y62749D01*
X226900Y63850D01*
X228001Y65285D01*
X228693Y66957D01*
X228929Y68750D01*
X228693Y70543D01*
X228001Y72215D01*
X226900Y73650D01*
X225465Y74751D01*
X223793Y75443D01*
X222000Y75679D01*
D02*
G37*
G36*
X147000D02*
X145207Y75443D01*
X143535Y74751D01*
X142100Y73650D01*
X140999Y72215D01*
X140307Y70543D01*
X140071Y68750D01*
X140307Y66957D01*
X140999Y65285D01*
X142100Y63850D01*
X143535Y62749D01*
X143684Y62687D01*
Y61313D01*
X143535Y61251D01*
X142100Y60150D01*
X140999Y58715D01*
X140307Y57043D01*
X140071Y55250D01*
X140307Y53457D01*
X140999Y51785D01*
X142100Y50350D01*
X143535Y49249D01*
X145207Y48557D01*
X147000Y48321D01*
X148793Y48557D01*
X150465Y49249D01*
X151900Y50350D01*
X153001Y51785D01*
X153693Y53457D01*
X153929Y55250D01*
X153693Y57043D01*
X153001Y58715D01*
X151900Y60150D01*
X150465Y61251D01*
X150316Y61313D01*
Y62687D01*
X150465Y62749D01*
X151900Y63850D01*
X153001Y65285D01*
X153693Y66957D01*
X153929Y68750D01*
X153693Y70543D01*
X153001Y72215D01*
X151900Y73650D01*
X150465Y74751D01*
X148793Y75443D01*
X147000Y75679D01*
D02*
G37*
G36*
X297000D02*
X295207Y75443D01*
X293535Y74751D01*
X292100Y73650D01*
X290999Y72215D01*
X290307Y70543D01*
X290071Y68750D01*
X290307Y66957D01*
X290999Y65285D01*
X292100Y63850D01*
X293535Y62749D01*
X293684Y62687D01*
Y61313D01*
X293535Y61251D01*
X292100Y60150D01*
X290999Y58715D01*
X290307Y57043D01*
X290071Y55250D01*
X290307Y53457D01*
X290999Y51785D01*
X291949Y50547D01*
X291859Y49135D01*
X291535Y49001D01*
X290100Y47900D01*
X288999Y46465D01*
X288307Y44793D01*
X288071Y43000D01*
X288307Y41207D01*
X288999Y39535D01*
X290100Y38100D01*
X291535Y36999D01*
X293207Y36307D01*
X295000Y36071D01*
X296793Y36307D01*
X298465Y36999D01*
X299900Y38100D01*
X301001Y39535D01*
X301693Y41207D01*
X301929Y43000D01*
X301693Y44793D01*
X301001Y46465D01*
X300051Y47703D01*
X300141Y49115D01*
X300465Y49249D01*
X301900Y50350D01*
X303001Y51785D01*
X303693Y53457D01*
X303929Y55250D01*
X303693Y57043D01*
X303001Y58715D01*
X301900Y60150D01*
X300465Y61251D01*
X300315Y61313D01*
Y62687D01*
X300465Y62749D01*
X301900Y63850D01*
X303001Y65285D01*
X303693Y66957D01*
X303929Y68750D01*
X303693Y70543D01*
X303001Y72215D01*
X301900Y73650D01*
X300465Y74751D01*
X298793Y75443D01*
X297000Y75679D01*
D02*
G37*
G36*
X256500Y52430D02*
X254706Y52193D01*
X253035Y51501D01*
X251600Y50400D01*
X250499Y48965D01*
X249807Y47294D01*
X249571Y45500D01*
X249807Y43707D01*
X250499Y42036D01*
X251600Y40601D01*
X252944Y39569D01*
X252959Y39543D01*
X253037Y39116D01*
X253041Y38122D01*
X252100Y37400D01*
X250999Y35965D01*
X250307Y34293D01*
X250071Y32500D01*
X250307Y30707D01*
X250999Y29035D01*
X252100Y27600D01*
X253535Y26499D01*
X255207Y25807D01*
X257000Y25571D01*
X258793Y25807D01*
X260464Y26499D01*
X261900Y27600D01*
X263001Y29035D01*
X263693Y30707D01*
X263929Y32500D01*
X263693Y34293D01*
X263001Y35965D01*
X261900Y37400D01*
X260556Y38431D01*
X260541Y38458D01*
X260463Y38885D01*
X260458Y39878D01*
X261400Y40601D01*
X262501Y42036D01*
X263193Y43707D01*
X263429Y45500D01*
X263193Y47294D01*
X262501Y48965D01*
X261400Y50400D01*
X259965Y51501D01*
X258293Y52193D01*
X256500Y52430D01*
D02*
G37*
G36*
X181500Y52429D02*
X179706Y52193D01*
X178035Y51501D01*
X176600Y50399D01*
X175499Y48964D01*
X174807Y47293D01*
X174571Y45500D01*
X174807Y43706D01*
X175499Y42035D01*
X176600Y40600D01*
X177944Y39569D01*
X177958Y39543D01*
X178037Y39114D01*
X178041Y38122D01*
X177100Y37400D01*
X175999Y35965D01*
X175307Y34293D01*
X175071Y32500D01*
X175307Y30707D01*
X175999Y29035D01*
X177100Y27600D01*
X178535Y26499D01*
X180207Y25807D01*
X182000Y25571D01*
X183793Y25807D01*
X185464Y26499D01*
X186900Y27600D01*
X188001Y29035D01*
X188693Y30707D01*
X188929Y32500D01*
X188693Y34293D01*
X188001Y35965D01*
X186900Y37400D01*
X185556Y38431D01*
X185541Y38457D01*
X185463Y38886D01*
X185459Y39878D01*
X186400Y40600D01*
X187501Y42035D01*
X188193Y43706D01*
X188429Y45500D01*
X188193Y47293D01*
X187501Y48964D01*
X186400Y50399D01*
X184965Y51501D01*
X183293Y52193D01*
X181500Y52429D01*
D02*
G37*
G36*
X331500D02*
X329706Y52193D01*
X328035Y51501D01*
X326600Y50399D01*
X325499Y48964D01*
X324807Y47293D01*
X324571Y45500D01*
X324807Y43706D01*
X325499Y42035D01*
X326600Y40600D01*
X327944Y39569D01*
X327959Y39542D01*
X328037Y39115D01*
X328041Y38122D01*
X327100Y37399D01*
X325999Y35964D01*
X325307Y34293D01*
X325071Y32500D01*
X325307Y30706D01*
X325999Y29035D01*
X327100Y27600D01*
X328535Y26499D01*
X330206Y25806D01*
X332000Y25570D01*
X333793Y25806D01*
X335465Y26499D01*
X336900Y27600D01*
X338001Y29035D01*
X338693Y30706D01*
X338929Y32500D01*
X338693Y34293D01*
X338001Y35964D01*
X336900Y37399D01*
X335556Y38431D01*
X335541Y38457D01*
X335463Y38884D01*
X335458Y39878D01*
X336400Y40600D01*
X337501Y42035D01*
X338193Y43706D01*
X338429Y45500D01*
X338193Y47293D01*
X337501Y48964D01*
X336400Y50399D01*
X334964Y51501D01*
X333293Y52193D01*
X331500Y52429D01*
D02*
G37*
G36*
X166000Y39179D02*
X164207Y38943D01*
X162535Y38251D01*
X161100Y37150D01*
X159999Y35715D01*
X159307Y34044D01*
X159071Y32250D01*
X159307Y30457D01*
X159999Y28785D01*
X161100Y27350D01*
X162535Y26249D01*
X164207Y25557D01*
X166000Y25321D01*
X167794Y25557D01*
X169465Y26249D01*
X170900Y27350D01*
X172001Y28785D01*
X172693Y30457D01*
X172929Y32250D01*
X172693Y34044D01*
X172001Y35715D01*
X170900Y37150D01*
X169465Y38251D01*
X167794Y38943D01*
X166000Y39179D01*
D02*
G37*
G36*
X316000Y39179D02*
X314206Y38943D01*
X312535Y38251D01*
X311100Y37149D01*
X309999Y35714D01*
X309306Y34043D01*
X309070Y32250D01*
X309306Y30456D01*
X309999Y28785D01*
X311100Y27350D01*
X312535Y26249D01*
X314206Y25556D01*
X316000Y25320D01*
X317793Y25556D01*
X319464Y26249D01*
X320899Y27350D01*
X322001Y28785D01*
X322693Y30456D01*
X322929Y32250D01*
X322693Y34043D01*
X322001Y35714D01*
X320899Y37149D01*
X319464Y38251D01*
X317793Y38943D01*
X316000Y39179D01*
D02*
G37*
G36*
X241000D02*
X239207Y38943D01*
X237535Y38251D01*
X236100Y37149D01*
X234999Y35714D01*
X234307Y34043D01*
X234071Y32250D01*
X234307Y30456D01*
X234999Y28785D01*
X236100Y27350D01*
X237535Y26249D01*
X239207Y25556D01*
X241000Y25320D01*
X242794Y25556D01*
X244465Y26249D01*
X245900Y27350D01*
X247001Y28785D01*
X247693Y30456D01*
X247929Y32250D01*
X247693Y34043D01*
X247001Y35714D01*
X245900Y37149D01*
X244465Y38251D01*
X242794Y38943D01*
X241000Y39179D01*
D02*
G37*
G36*
X-138000Y3929D02*
X-139793Y3693D01*
X-141465Y3001D01*
X-142900Y1900D01*
X-144001Y465D01*
X-144693Y-1207D01*
X-144929Y-3000D01*
X-144693Y-4793D01*
X-144001Y-6465D01*
X-142900Y-7900D01*
X-141465Y-9001D01*
X-139793Y-9693D01*
X-138000Y-9929D01*
X-136207Y-9693D01*
X-134535Y-9001D01*
X-133100Y-7900D01*
X-131999Y-6465D01*
X-131307Y-4793D01*
X-131071Y-3000D01*
X-131307Y-1207D01*
X-131999Y465D01*
X-133100Y1900D01*
X-134535Y3001D01*
X-136207Y3693D01*
X-138000Y3929D01*
D02*
G37*
G36*
X80000Y20217D02*
X76056Y19829D01*
X72263Y18678D01*
X68768Y16810D01*
X65704Y14296D01*
X63190Y11232D01*
X61321Y7737D01*
X60171Y3944D01*
X59783Y0D01*
X60171Y-3944D01*
X61321Y-7737D01*
X63190Y-11232D01*
X65704Y-14296D01*
X68768Y-16810D01*
X72263Y-18678D01*
X76056Y-19829D01*
X80000Y-20217D01*
X83944Y-19829D01*
X87737Y-18678D01*
X91232Y-16810D01*
X94296Y-14296D01*
X96810Y-11232D01*
X98678Y-7737D01*
X99829Y-3944D01*
X100217Y0D01*
X99829Y3944D01*
X98678Y7737D01*
X96810Y11232D01*
X94296Y14296D01*
X91232Y16810D01*
X87737Y18678D01*
X83944Y19829D01*
X80000Y20217D01*
D02*
G37*
G36*
X-80000D02*
X-83945Y19829D01*
X-87737Y18678D01*
X-91233Y16810D01*
X-94296Y14296D01*
X-96811Y11232D01*
X-98679Y7737D01*
X-99829Y3944D01*
X-100218Y0D01*
X-99829Y-3944D01*
X-98679Y-7737D01*
X-96811Y-11232D01*
X-94296Y-14296D01*
X-91233Y-16810D01*
X-87737Y-18678D01*
X-83945Y-19829D01*
X-80000Y-20217D01*
X-76056Y-19829D01*
X-72263Y-18678D01*
X-68768Y-16810D01*
X-65704Y-14296D01*
X-63190Y-11232D01*
X-61322Y-7737D01*
X-60171Y-3944D01*
X-59783Y0D01*
X-60171Y3944D01*
X-61322Y7737D01*
X-63190Y11232D01*
X-65704Y14296D01*
X-68768Y16810D01*
X-72263Y18678D01*
X-76056Y19829D01*
X-80000Y20217D01*
D02*
G37*
G36*
X0Y45217D02*
X-5902Y44830D01*
X-11703Y43676D01*
X-17304Y41775D01*
X-22608Y39159D01*
X-27526Y35873D01*
X-31973Y31973D01*
X-35873Y27526D01*
X-39159Y22608D01*
X-41775Y17304D01*
X-43676Y11703D01*
X-44830Y5902D01*
X-45217Y0D01*
X-44830Y-5902D01*
X-43676Y-11703D01*
X-41775Y-17304D01*
X-39159Y-22608D01*
X-35873Y-27526D01*
X-31973Y-31973D01*
X-27526Y-35873D01*
X-22608Y-39159D01*
X-17304Y-41775D01*
X-11703Y-43676D01*
X-5902Y-44830D01*
X0Y-45217D01*
X5902Y-44830D01*
X11703Y-43676D01*
X17304Y-41775D01*
X22608Y-39159D01*
X27526Y-35873D01*
X31973Y-31973D01*
X35873Y-27526D01*
X39159Y-22608D01*
X41775Y-17304D01*
X43676Y-11703D01*
X44830Y-5902D01*
X45217Y0D01*
X44830Y5902D01*
X43676Y11703D01*
X41775Y17304D01*
X39159Y22608D01*
X35873Y27526D01*
X31973Y31973D01*
X27526Y35873D01*
X22608Y39159D01*
X17304Y41775D01*
X11703Y43676D01*
X5902Y44830D01*
X0Y45217D01*
D02*
G37*
G36*
X73000Y-62288D02*
X70228Y-62653D01*
X67644Y-63723D01*
X65426Y-65426D01*
X63723Y-67644D01*
X62653Y-70228D01*
X62288Y-73000D01*
X62653Y-75772D01*
X63723Y-78356D01*
X65426Y-80574D01*
X67644Y-82277D01*
X70228Y-83347D01*
X73000Y-83712D01*
X75772Y-83347D01*
X78356Y-82277D01*
X80574Y-80574D01*
X82277Y-78356D01*
X83347Y-75772D01*
X83712Y-73000D01*
X83347Y-70228D01*
X82277Y-67644D01*
X80574Y-65426D01*
X78356Y-63723D01*
X75772Y-62653D01*
X73000Y-62288D01*
D02*
G37*
G36*
X-170500Y279199D02*
X-172881Y278885D01*
X-175099Y277966D01*
X-177004Y276504D01*
X-178466Y274599D01*
X-179385Y272381D01*
X-179699Y270000D01*
X-179385Y267619D01*
X-178466Y265401D01*
X-177004Y263496D01*
X-175099Y262034D01*
X-172881Y261115D01*
X-170500Y260801D01*
X-168119Y261115D01*
X-165901Y262034D01*
X-163995Y263496D01*
X-162534Y265401D01*
X-161615Y267619D01*
X-161301Y270000D01*
X-161615Y272381D01*
X-162534Y274599D01*
X-163995Y276504D01*
X-165901Y277966D01*
X-168119Y278885D01*
X-170500Y279199D01*
D02*
G37*
G36*
Y259199D02*
X-172881Y258885D01*
X-175099Y257966D01*
X-177004Y256504D01*
X-178466Y254599D01*
X-179385Y252381D01*
X-179699Y250000D01*
X-179385Y247619D01*
X-178466Y245401D01*
X-177004Y243496D01*
X-175099Y242034D01*
X-172881Y241115D01*
X-170500Y240801D01*
X-168119Y241115D01*
X-165901Y242034D01*
X-163995Y243496D01*
X-162534Y245401D01*
X-161615Y247619D01*
X-161301Y250000D01*
X-161615Y252381D01*
X-162534Y254599D01*
X-163995Y256504D01*
X-165901Y257966D01*
X-168119Y258885D01*
X-170500Y259199D01*
D02*
G37*
G36*
Y239199D02*
X-171705Y239040D01*
X-179540D01*
Y231205D01*
X-179699Y230000D01*
X-179540Y228795D01*
Y220960D01*
X-171705D01*
X-170500Y220801D01*
X-169295Y220960D01*
X-161460D01*
Y228795D01*
X-161301Y230000D01*
X-161460Y231205D01*
Y239040D01*
X-169295D01*
X-170500Y239199D01*
D02*
G37*
G36*
X394000Y71199D02*
X392795Y71040D01*
X384960D01*
Y63205D01*
X384801Y62000D01*
X384960Y60795D01*
Y52960D01*
X392795D01*
X394000Y52801D01*
X395205Y52960D01*
X403040D01*
Y60795D01*
X403199Y62000D01*
X403040Y63205D01*
Y71040D01*
X395205D01*
X394000Y71199D01*
D02*
G37*
G36*
X212000Y-15394D02*
X210207Y-15630D01*
X208535Y-16322D01*
X207100Y-17423D01*
X205999Y-18858D01*
X205307Y-20530D01*
X205071Y-22323D01*
X205307Y-24116D01*
X205999Y-25788D01*
X207100Y-27223D01*
X208535Y-28324D01*
X210207Y-29016D01*
X212000Y-29252D01*
X213793Y-29016D01*
X215465Y-28324D01*
X216900Y-27223D01*
X218001Y-25788D01*
X218693Y-24116D01*
X218929Y-22323D01*
X218693Y-20530D01*
X218001Y-18858D01*
X216900Y-17423D01*
X215465Y-16322D01*
X213793Y-15630D01*
X212000Y-15394D01*
D02*
G37*
G36*
X277000Y-16071D02*
X275207Y-16307D01*
X273535Y-16999D01*
X272100Y-18100D01*
X270999Y-19535D01*
X270307Y-21207D01*
X270071Y-23000D01*
X270307Y-24793D01*
X270999Y-26465D01*
X272100Y-27900D01*
X273535Y-29001D01*
X275207Y-29693D01*
X277000Y-29929D01*
X278793Y-29693D01*
X280465Y-29001D01*
X281900Y-27900D01*
X283001Y-26465D01*
X283693Y-24793D01*
X283929Y-23000D01*
X283693Y-21207D01*
X283001Y-19535D01*
X281900Y-18100D01*
X280465Y-16999D01*
X278793Y-16307D01*
X277000Y-16071D01*
D02*
G37*
G36*
X-170500Y-20801D02*
X-172881Y-21115D01*
X-175099Y-22034D01*
X-177004Y-23496D01*
X-178466Y-25401D01*
X-179385Y-27619D01*
X-179699Y-30000D01*
X-179385Y-32381D01*
X-178466Y-34599D01*
X-177004Y-36504D01*
X-175099Y-37966D01*
X-172881Y-38885D01*
X-170500Y-39199D01*
X-168119Y-38885D01*
X-165901Y-37966D01*
X-163995Y-36504D01*
X-162534Y-34599D01*
X-161615Y-32381D01*
X-161301Y-30000D01*
X-161615Y-27619D01*
X-162534Y-25401D01*
X-163995Y-23496D01*
X-165901Y-22034D01*
X-168119Y-21115D01*
X-170500Y-20801D01*
D02*
G37*
G36*
X325000Y-29873D02*
X322379Y-30218D01*
X319937Y-31230D01*
X317839Y-32839D01*
X316230Y-34937D01*
X315218Y-37379D01*
X314873Y-40000D01*
X315218Y-42621D01*
X316230Y-45063D01*
X317839Y-47161D01*
X319937Y-48770D01*
X322379Y-49782D01*
X325000Y-50127D01*
X327621Y-49782D01*
X330063Y-48770D01*
X332161Y-47161D01*
X333770Y-45063D01*
X334782Y-42621D01*
X335127Y-40000D01*
X334782Y-37379D01*
X333770Y-34937D01*
X332161Y-32839D01*
X330063Y-31230D01*
X327621Y-30218D01*
X325000Y-29873D01*
D02*
G37*
G36*
X260000D02*
X257379Y-30218D01*
X254937Y-31230D01*
X252839Y-32839D01*
X251230Y-34937D01*
X250218Y-37379D01*
X249873Y-40000D01*
X250218Y-42621D01*
X251230Y-45063D01*
X252839Y-47161D01*
X254937Y-48770D01*
X257379Y-49782D01*
X260000Y-50127D01*
X262621Y-49782D01*
X265063Y-48770D01*
X267161Y-47161D01*
X268770Y-45063D01*
X269782Y-42621D01*
X270127Y-40000D01*
X269782Y-37379D01*
X268770Y-34937D01*
X267161Y-32839D01*
X265063Y-31230D01*
X262621Y-30218D01*
X260000Y-29873D01*
D02*
G37*
G36*
X196000D02*
X193379Y-30218D01*
X190937Y-31230D01*
X188839Y-32839D01*
X187230Y-34937D01*
X186218Y-37379D01*
X185873Y-40000D01*
X186218Y-42621D01*
X187230Y-45063D01*
X188839Y-47161D01*
X190937Y-48770D01*
X193379Y-49782D01*
X196000Y-50127D01*
X198621Y-49782D01*
X201063Y-48770D01*
X203161Y-47161D01*
X204770Y-45063D01*
X205782Y-42621D01*
X206127Y-40000D01*
X205782Y-37379D01*
X204770Y-34937D01*
X203161Y-32839D01*
X201063Y-31230D01*
X198621Y-30218D01*
X196000Y-29873D01*
D02*
G37*
G36*
X-170500Y-40801D02*
X-172881Y-41115D01*
X-175099Y-42034D01*
X-177004Y-43495D01*
X-178466Y-45401D01*
X-179385Y-47619D01*
X-179699Y-50000D01*
X-179385Y-52381D01*
X-178466Y-54599D01*
X-177004Y-56505D01*
X-175099Y-57966D01*
X-172881Y-58885D01*
X-170500Y-59199D01*
X-168119Y-58885D01*
X-165901Y-57966D01*
X-163995Y-56505D01*
X-162534Y-54599D01*
X-161615Y-52381D01*
X-161301Y-50000D01*
X-161615Y-47619D01*
X-162534Y-45401D01*
X-163995Y-43495D01*
X-165901Y-42034D01*
X-168119Y-41115D01*
X-170500Y-40801D01*
D02*
G37*
G36*
X343000Y-49071D02*
X341207Y-49307D01*
X339535Y-49999D01*
X338100Y-51100D01*
X336999Y-52535D01*
X336307Y-54207D01*
X336071Y-56000D01*
X336307Y-57793D01*
X336999Y-59465D01*
X338100Y-60900D01*
X339535Y-62001D01*
X341207Y-62693D01*
X343000Y-62929D01*
X344793Y-62693D01*
X346465Y-62001D01*
X347900Y-60900D01*
X349001Y-59465D01*
X349693Y-57793D01*
X349929Y-56000D01*
X349693Y-54207D01*
X349001Y-52535D01*
X347900Y-51100D01*
X346465Y-49999D01*
X344793Y-49307D01*
X343000Y-49071D01*
D02*
G37*
G36*
X-170500Y-60801D02*
X-171705Y-60960D01*
X-179540D01*
Y-68795D01*
X-179699Y-70000D01*
X-179540Y-71205D01*
Y-79040D01*
X-171705D01*
X-170500Y-79199D01*
X-169295Y-79040D01*
X-161460D01*
Y-71205D01*
X-161301Y-70000D01*
X-161460Y-68795D01*
Y-60960D01*
X-169295D01*
X-170500Y-60801D01*
D02*
G37*
G36*
X275884Y-78187D02*
X274090Y-78423D01*
X272419Y-79115D01*
X270984Y-80217D01*
X269883Y-81652D01*
X269191Y-83323D01*
X268955Y-85116D01*
X269191Y-86910D01*
X269883Y-88581D01*
X270984Y-90016D01*
X272419Y-91117D01*
X274090Y-91809D01*
X275884Y-92045D01*
X277677Y-91809D01*
X279348Y-91117D01*
X280784Y-90016D01*
X281885Y-88581D01*
X282577Y-86910D01*
X282813Y-85116D01*
X282577Y-83323D01*
X281885Y-81652D01*
X280784Y-80217D01*
X279348Y-79115D01*
X277677Y-78423D01*
X275884Y-78187D01*
D02*
G37*
G36*
X211621Y-78692D02*
X209828Y-78928D01*
X208156Y-79620D01*
X206721Y-80721D01*
X205620Y-82156D01*
X204928Y-83828D01*
X204692Y-85621D01*
X204928Y-87415D01*
X205620Y-89086D01*
X206721Y-90521D01*
X208156Y-91622D01*
X209828Y-92314D01*
X211621Y-92550D01*
X213414Y-92314D01*
X215086Y-91622D01*
X216521Y-90521D01*
X217622Y-89086D01*
X218314Y-87415D01*
X218550Y-85621D01*
X218314Y-83828D01*
X217622Y-82156D01*
X216521Y-80721D01*
X215086Y-79620D01*
X213414Y-78928D01*
X211621Y-78692D01*
D02*
G37*
G36*
X340000Y-78921D02*
X338207Y-79157D01*
X336535Y-79849D01*
X335100Y-80950D01*
X333999Y-82385D01*
X333307Y-84057D01*
X333071Y-85850D01*
X333307Y-87643D01*
X333999Y-89315D01*
X335100Y-90750D01*
X336535Y-91851D01*
X338207Y-92543D01*
X340000Y-92779D01*
X341793Y-92543D01*
X343465Y-91851D01*
X344900Y-90750D01*
X346001Y-89315D01*
X346693Y-87643D01*
X346929Y-85850D01*
X346693Y-84057D01*
X346001Y-82385D01*
X344900Y-80950D01*
X343465Y-79849D01*
X341793Y-79157D01*
X340000Y-78921D01*
D02*
G37*
G36*
X321000Y-92071D02*
X319207Y-92307D01*
X317535Y-92999D01*
X316100Y-94100D01*
X314999Y-95535D01*
X314307Y-97207D01*
X314071Y-99000D01*
X314307Y-100793D01*
X314999Y-102465D01*
X316100Y-103900D01*
X317535Y-105001D01*
X319207Y-105693D01*
X321000Y-105929D01*
X322793Y-105693D01*
X324465Y-105001D01*
X325900Y-103900D01*
X327001Y-102465D01*
X327693Y-100793D01*
X327929Y-99000D01*
X327693Y-97207D01*
X327001Y-95535D01*
X325900Y-94100D01*
X324465Y-92999D01*
X322793Y-92307D01*
X321000Y-92071D01*
D02*
G37*
G36*
X257000D02*
X255207Y-92307D01*
X253535Y-92999D01*
X252100Y-94100D01*
X250999Y-95535D01*
X250307Y-97207D01*
X250071Y-99000D01*
X250307Y-100793D01*
X250999Y-102465D01*
X252100Y-103900D01*
X253535Y-105001D01*
X255207Y-105693D01*
X257000Y-105929D01*
X258793Y-105693D01*
X260465Y-105001D01*
X261900Y-103900D01*
X263001Y-102465D01*
X263693Y-100793D01*
X263929Y-99000D01*
X263693Y-97207D01*
X263001Y-95535D01*
X261900Y-94100D01*
X260465Y-92999D01*
X258793Y-92307D01*
X257000Y-92071D01*
D02*
G37*
G36*
X270000Y-117101D02*
X267619Y-117415D01*
X265401Y-118334D01*
X263496Y-119796D01*
X262034Y-121701D01*
X261115Y-123919D01*
X260801Y-126300D01*
X261115Y-128681D01*
X262034Y-130899D01*
X263496Y-132804D01*
X265401Y-134266D01*
X267619Y-135185D01*
X270000Y-135499D01*
X272381Y-135185D01*
X274599Y-134266D01*
X276504Y-132804D01*
X277966Y-130899D01*
X278885Y-128681D01*
X279199Y-126300D01*
X278885Y-123919D01*
X277966Y-121701D01*
X276504Y-119796D01*
X274599Y-118334D01*
X272381Y-117415D01*
X270000Y-117101D01*
D02*
G37*
G36*
X250000D02*
X247619Y-117415D01*
X245401Y-118334D01*
X243496Y-119796D01*
X242034Y-121701D01*
X241115Y-123919D01*
X240801Y-126300D01*
X241115Y-128681D01*
X242034Y-130899D01*
X243496Y-132804D01*
X245401Y-134266D01*
X247619Y-135185D01*
X250000Y-135499D01*
X252381Y-135185D01*
X254599Y-134266D01*
X256504Y-132804D01*
X257966Y-130899D01*
X258885Y-128681D01*
X259199Y-126300D01*
X258885Y-123919D01*
X257966Y-121701D01*
X256504Y-119796D01*
X254599Y-118334D01*
X252381Y-117415D01*
X250000Y-117101D01*
D02*
G37*
G36*
X230000D02*
X227619Y-117415D01*
X225401Y-118334D01*
X223496Y-119796D01*
X222034Y-121701D01*
X221115Y-123919D01*
X220801Y-126300D01*
X221115Y-128681D01*
X222034Y-130899D01*
X223496Y-132804D01*
X225401Y-134266D01*
X227619Y-135185D01*
X230000Y-135499D01*
X232381Y-135185D01*
X234599Y-134266D01*
X236504Y-132804D01*
X237966Y-130899D01*
X238885Y-128681D01*
X239199Y-126300D01*
X238885Y-123919D01*
X237966Y-121701D01*
X236504Y-119796D01*
X234599Y-118334D01*
X232381Y-117415D01*
X230000Y-117101D01*
D02*
G37*
G36*
X-30000D02*
X-32381Y-117415D01*
X-34599Y-118334D01*
X-36504Y-119796D01*
X-37966Y-121701D01*
X-38885Y-123919D01*
X-39199Y-126300D01*
X-38885Y-128681D01*
X-37966Y-130899D01*
X-36504Y-132804D01*
X-34599Y-134266D01*
X-32381Y-135185D01*
X-30000Y-135499D01*
X-27619Y-135185D01*
X-25401Y-134266D01*
X-23496Y-132804D01*
X-22034Y-130899D01*
X-21115Y-128681D01*
X-20801Y-126300D01*
X-21115Y-123919D01*
X-22034Y-121701D01*
X-23496Y-119796D01*
X-25401Y-118334D01*
X-27619Y-117415D01*
X-30000Y-117101D01*
D02*
G37*
G36*
X-50000D02*
X-52381Y-117415D01*
X-54599Y-118334D01*
X-56505Y-119796D01*
X-57966Y-121701D01*
X-58885Y-123919D01*
X-59199Y-126300D01*
X-58885Y-128681D01*
X-57966Y-130899D01*
X-56505Y-132804D01*
X-54599Y-134266D01*
X-52381Y-135185D01*
X-50000Y-135499D01*
X-47619Y-135185D01*
X-45401Y-134266D01*
X-43495Y-132804D01*
X-42034Y-130899D01*
X-41115Y-128681D01*
X-40801Y-126300D01*
X-41115Y-123919D01*
X-42034Y-121701D01*
X-43495Y-119796D01*
X-45401Y-118334D01*
X-47619Y-117415D01*
X-50000Y-117101D01*
D02*
G37*
G36*
X-70000D02*
X-72381Y-117415D01*
X-74599Y-118334D01*
X-76505Y-119796D01*
X-77966Y-121701D01*
X-78885Y-123919D01*
X-79199Y-126300D01*
X-78885Y-128681D01*
X-77966Y-130899D01*
X-76505Y-132804D01*
X-74599Y-134266D01*
X-72381Y-135185D01*
X-70000Y-135499D01*
X-67619Y-135185D01*
X-65401Y-134266D01*
X-63496Y-132804D01*
X-62034Y-130899D01*
X-61115Y-128681D01*
X-60801Y-126300D01*
X-61115Y-123919D01*
X-62034Y-121701D01*
X-63496Y-119796D01*
X-65401Y-118334D01*
X-67619Y-117415D01*
X-70000Y-117101D01*
D02*
G37*
%LPD*%
D88*
X243000Y377000D02*
D03*
X263000D02*
D03*
X283000D02*
D03*
X-88000Y258000D02*
D03*
X-68000D02*
D03*
X374000Y62000D02*
D03*
X-190500Y-30000D02*
D03*
Y-50000D02*
D03*
X-170500Y-30000D02*
D03*
Y-50000D02*
D03*
X-190500Y-70000D02*
D03*
Y270000D02*
D03*
Y250000D02*
D03*
X-170500Y270000D02*
D03*
Y250000D02*
D03*
X-190500Y230000D02*
D03*
X270000Y-126300D02*
D03*
X250000D02*
D03*
X270000Y-146300D02*
D03*
X250000D02*
D03*
X230000Y-126300D02*
D03*
X-30000D02*
D03*
X-50000D02*
D03*
X-30000Y-146300D02*
D03*
X-50000D02*
D03*
X-70000Y-126300D02*
D03*
D89*
X223000Y377000D02*
D03*
X-108000Y258000D02*
D03*
X394000Y62000D02*
D03*
X230000Y-146300D02*
D03*
X-70000D02*
D03*
D90*
X73000Y73000D02*
D03*
Y-73000D02*
D03*
X-73000D02*
D03*
Y73000D02*
D03*
X-97700Y316000D02*
D03*
X-46900D02*
D03*
X-72300D02*
D03*
X-123100D02*
D03*
X-148500D02*
D03*
D91*
X0Y251000D02*
D03*
Y420000D02*
D03*
X-150000Y380000D02*
D03*
X150000D02*
D03*
X420000Y0D02*
D03*
X370000Y370000D02*
D03*
D92*
X-124701Y-101039D02*
D03*
X-139081Y-80101D02*
D03*
X-131891Y-90570D02*
D03*
D93*
X144389Y-68932D02*
D03*
X138918Y-80393D02*
D03*
X149860Y-57471D02*
D03*
D94*
X-25161Y158519D02*
D03*
X161Y160503D02*
D03*
X-12500Y159511D02*
D03*
D95*
X-21500Y316000D02*
D03*
D96*
X325000Y-40000D02*
D03*
X260000D02*
D03*
X196000D02*
D03*
D97*
X-170500Y-70000D02*
D03*
Y230000D02*
D03*
D98*
X317000Y1000D02*
D03*
X331000Y-8000D02*
D03*
Y1000D02*
D03*
X317000Y-8000D02*
D03*
X277000Y-23000D02*
D03*
X366000Y-9000D02*
D03*
X355000D02*
D03*
X153000D02*
D03*
X168000D02*
D03*
X183000Y281000D02*
D03*
X-26816Y179184D02*
D03*
X-36816Y179184D02*
D03*
X164000Y124000D02*
D03*
X221000Y279000D02*
D03*
X151750Y277000D02*
D03*
X134000Y283500D02*
D03*
X343000Y-56000D02*
D03*
X253000Y1000D02*
D03*
X267000D02*
D03*
X253000Y-8000D02*
D03*
X267000D02*
D03*
X203000D02*
D03*
X189000D02*
D03*
X203000Y1000D02*
D03*
X189000D02*
D03*
X295000Y43000D02*
D03*
X316000Y32250D02*
D03*
X297000Y55250D02*
D03*
Y68750D02*
D03*
X231000Y241000D02*
D03*
X254000Y115000D02*
D03*
X305000Y176000D02*
D03*
X331500Y45500D02*
D03*
X256500Y45500D02*
D03*
X181500Y45500D02*
D03*
X182000Y32500D02*
D03*
X297000Y97500D02*
D03*
X222000D02*
D03*
X147000D02*
D03*
X171000Y75000D02*
D03*
X147000Y55250D02*
D03*
X222000Y55250D02*
D03*
X222000Y68750D02*
D03*
X147000D02*
D03*
X220000Y23000D02*
D03*
X257000Y32500D02*
D03*
X332000Y32500D02*
D03*
X241000Y32250D02*
D03*
X212000Y-22323D02*
D03*
X166000Y32250D02*
D03*
X239000Y156000D02*
D03*
X241669Y190669D02*
D03*
X240000Y166000D02*
D03*
X291000Y294000D02*
D03*
Y283999D02*
D03*
X281999D02*
D03*
X282000Y294000D02*
D03*
X107949Y131017D02*
D03*
X117000Y128000D02*
D03*
X109000Y150000D02*
D03*
X141310Y140853D02*
D03*
X141129Y131000D02*
D03*
X106000Y281000D02*
D03*
X137000Y-29500D02*
D03*
X-138000Y-3000D02*
D03*
X99000Y167000D02*
D03*
Y177000D02*
D03*
X99000Y187000D02*
D03*
X-20000Y250000D02*
D03*
X0Y231000D02*
D03*
Y271000D02*
D03*
X20000Y250000D02*
D03*
X-15000Y263000D02*
D03*
X14000Y264000D02*
D03*
Y237000D02*
D03*
X-13000Y236000D02*
D03*
X150000Y400000D02*
D03*
Y360000D02*
D03*
X130000Y379000D02*
D03*
X170000D02*
D03*
X164000Y393000D02*
D03*
X135000Y392000D02*
D03*
X137000Y365000D02*
D03*
X164000Y366000D02*
D03*
X-150000Y400000D02*
D03*
Y360000D02*
D03*
X-170000Y379000D02*
D03*
X-130000D02*
D03*
X-136000Y393000D02*
D03*
X-165000Y392000D02*
D03*
X-163000Y365000D02*
D03*
X-136000Y366000D02*
D03*
X370000Y390000D02*
D03*
Y350000D02*
D03*
X350000Y369000D02*
D03*
X390000D02*
D03*
X384000Y383000D02*
D03*
X355000Y382000D02*
D03*
X357000Y355000D02*
D03*
X384000Y356000D02*
D03*
X420000Y20000D02*
D03*
Y-20000D02*
D03*
X400000Y-1000D02*
D03*
X440000D02*
D03*
X434000Y13000D02*
D03*
X405000Y12000D02*
D03*
X407000Y-15000D02*
D03*
X434000Y-14000D02*
D03*
X14000Y406000D02*
D03*
X-13000Y405000D02*
D03*
X-15000Y432000D02*
D03*
X14000Y433000D02*
D03*
X20000Y419000D02*
D03*
X-20000D02*
D03*
X0Y400000D02*
D03*
Y440000D02*
D03*
X23170Y314830D02*
D03*
X59000Y321750D02*
D03*
X23000Y326000D02*
D03*
X218270Y239810D02*
D03*
X212000Y247000D02*
D03*
X202094Y250000D02*
D03*
X163000Y255000D02*
D03*
X245000Y289000D02*
D03*
X157000Y199000D02*
D03*
X134000Y223000D02*
D03*
X217000Y188000D02*
D03*
X134000Y177000D02*
D03*
X181000Y224000D02*
D03*
X163000Y264540D02*
D03*
X180000Y177000D02*
D03*
X163000Y274080D02*
D03*
X251000Y204500D02*
D03*
X110750Y349500D02*
D03*
X84000Y308000D02*
D03*
Y322000D02*
D03*
X100000D02*
D03*
Y308000D02*
D03*
X268000Y174000D02*
D03*
X321000Y-99000D02*
D03*
X257000D02*
D03*
X321000Y75000D02*
D03*
X246000D02*
D03*
X-48147Y214853D02*
D03*
X340000Y-85850D02*
D03*
X275884Y-85116D02*
D03*
X211621Y-85621D02*
D03*
X-37000Y191000D02*
D03*
X-27000Y191000D02*
D03*
X-118000Y146000D02*
D03*
X-37000Y202000D02*
D03*
X-27000D02*
D03*
X369000Y41000D02*
D03*
X358000Y19000D02*
D03*
X369000Y51000D02*
D03*
Y30000D02*
D03*
Y19000D02*
D03*
X358000Y30000D02*
D03*
Y41000D02*
D03*
Y51000D02*
D03*
X145000Y23000D02*
D03*
X-124000Y240000D02*
D03*
X-134000D02*
D03*
Y230000D02*
D03*
X-124000D02*
D03*
M02*
