M48
;Layer_Color=9474304
;FILE_FORMAT=2:4
INCH,LZ
;TYPE=PLATED
T01F00S00C0.0138
T02F00S00C0.0295
T03F00S00C0.0315
T04F00S00C0.0354
T05F00S00C0.0433
;TYPE=NON_PLATED
T06F00S00C0.1181
T07F00S00C0.3150
%
T01
X008332Y-003371
X010118Y-003898
X010862Y-003351
X012638Y-003898
X013386Y-00338
X013504Y-002205
X013976Y-000354
X014409
X014528Y000748
X014094
Y001181
X014528
Y001614
Y002008
X014094
Y001614
X013051Y001791
X013071Y00128
X012441Y00127
X011614Y001693
X011693Y002175
Y002707
X011693Y003839
X012638Y002953
X009685
X00874Y002707
X00874Y002175
X008661Y000906
X009488Y00127
X010118Y00128
X010098Y001791
X009961Y000039
Y-000315
X010512
Y000039
X010906Y-000906
X01248Y-000315
Y000039
X013032
Y-000315
X015748Y-000039
X015945Y000472
X016535Y000787
X017087Y000512
X017323Y-000039
X017087Y-000551
X016535Y-000787
X016024Y-000591
X008346Y-000879
X007992Y-000315
Y000039
X00874Y003839
X01Y004528
X009409Y006142
X009449Y006535
X009515Y007507
X008543Y007402
X010551Y00685
X012008Y006929
X007087Y006969
X005276
X003898Y006968
Y006575
X003898Y007362
X004291Y005906
X00425Y005158
X004606Y005039
X005556Y005157
X005563Y005545
X006457Y004882
X005787Y003839
X005787Y002707
Y002175
X005709Y000906
X006535Y00127
X007165Y00128
X007146Y001791
X006732Y002953
X006614Y-000354
X006024
X005394Y-001161
X007441Y-000315
Y000039
X-005433Y-000118
X-004646Y005748
X-001449Y007054
X-001056Y007054
X-001063Y00752
X-001457Y00752
X-001457Y007953
X-001063
X-001896Y008459
X-000512Y009291
X0Y009094
X000551Y009331
X000787Y009843
X000551Y010394
X0Y010669
X-000591Y010354
X-000787Y009843
X000912Y012395
X000906Y012835
X002323Y012667
X003307Y012677
Y012126
X003937
Y012677
X00436Y01376
X005394Y01437
X005906Y014173
X006457Y014409
X006693Y014921
X006457Y015472
X005906Y015748
X005315Y015433
X005118Y014921
X005276Y011161
X005974Y010906
X006417Y010791
Y010415
Y010039
X007205Y011063
X007126Y008819
X005276Y00878
X006181Y007835
X004173Y011063
X000551Y015984
X000787Y016496
X000551Y017047
X0Y017323
X-000591Y017008
X-000787Y016496
X-000512Y015945
X0Y015748
X-005354Y015472
X-005118Y014921
X-005354Y014409
X-005906Y014173
X-006417Y01437
X-006693Y014921
X-006496Y015433
X-005906Y015748
X-005276Y009449
X-004882
Y009055
X-005276
X007956Y009843
X008346Y009724
X008593Y009441
X009094Y009488
X008701Y010984
X009646Y011378
X011102Y011575
X011457
Y011181
X011102
X009882Y008051
X014055Y013976
X014567Y01378
X015118Y014016
X015354Y014528
X015118Y015079
X014567Y015354
X013976Y015039
X01378Y014528
T02
X-004909Y-003978
X-005193Y-003566
X-005476Y-003154
X005469Y-003165
X005685Y-002714
X0059Y-002263
X000006Y006319
X-000492Y00628
X-000991Y006241
T03
X009055Y-00576
X009843
Y-004972
X01063
Y-00576
X009055Y-004972
X014724Y002441
X015512
X-001181Y-004972
X-001969
Y-00576
X-001181
X-002756
Y-004972
X-006713Y-002756
Y-001969
X-0075
Y-001181
X-006713
X-0075Y-002756
Y009055
Y009843
Y01063
X-006713
Y009843
Y009055
X-004252Y010157
X-003465
X-002677
X00878Y014843
X009567
X010354
X011142
T04
X007717Y-001575
X010236
X012795
T05
X-002874Y-002874
X002874
Y002874
X-002874
X-002846Y012441
X-003846
X-004846
X-005846
X-001846
X-000846
T06
X016535Y0
X00315
X-00315
X0Y00374
Y-00374
Y009882
Y016535
X-005906Y014961
X005906
X014567Y014567
T07
X0Y0
M30
