G04*
G04 #@! TF.GenerationSoftware,Altium Limited,Altium Designer,24.4.1 (13)*
G04*
G04 Layer_Physical_Order=1*
G04 Layer_Color=255*
%FSLAX44Y44*%
%MOMM*%
G71*
G04*
G04 #@! TF.SameCoordinates,8FCA56C2-8F78-4201-AFF4-6E38B21BD071*
G04*
G04*
G04 #@! TF.FilePolarity,Positive*
G04*
G01*
G75*
%ADD12C,0.7120*%
%ADD13C,0.2540*%
%ADD21C,0.3500*%
%ADD24R,0.9500X0.8500*%
%ADD25R,1.0000X0.9000*%
%ADD26R,0.3400X0.8000*%
%ADD27R,0.4200X0.6600*%
G04:AMPARAMS|DCode=28|XSize=0.6mm|YSize=0.24mm|CornerRadius=0.03mm|HoleSize=0mm|Usage=FLASHONLY|Rotation=90.000|XOffset=0mm|YOffset=0mm|HoleType=Round|Shape=RoundedRectangle|*
%AMROUNDEDRECTD28*
21,1,0.6000,0.1800,0,0,90.0*
21,1,0.5400,0.2400,0,0,90.0*
1,1,0.0600,0.0900,0.2700*
1,1,0.0600,0.0900,-0.2700*
1,1,0.0600,-0.0900,-0.2700*
1,1,0.0600,-0.0900,0.2700*
%
%ADD28ROUNDEDRECTD28*%
%ADD29R,0.9000X1.0000*%
%ADD30R,2.5500X2.4500*%
%ADD31R,0.2600X0.8600*%
%ADD32R,0.8600X0.2600*%
%ADD33R,2.7000X1.3000*%
%ADD34R,0.8000X0.8000*%
%ADD35R,6.0000X6.0000*%
G04:AMPARAMS|DCode=36|XSize=0.8mm|YSize=0.35mm|CornerRadius=0.0438mm|HoleSize=0mm|Usage=FLASHONLY|Rotation=180.000|XOffset=0mm|YOffset=0mm|HoleType=Round|Shape=RoundedRectangle|*
%AMROUNDEDRECTD36*
21,1,0.8000,0.2625,0,0,180.0*
21,1,0.7125,0.3500,0,0,180.0*
1,1,0.0875,-0.3563,0.1313*
1,1,0.0875,0.3563,0.1313*
1,1,0.0875,0.3563,-0.1313*
1,1,0.0875,-0.3563,-0.1313*
%
%ADD36ROUNDEDRECTD36*%
G04:AMPARAMS|DCode=37|XSize=0.85mm|YSize=0.35mm|CornerRadius=0.0438mm|HoleSize=0mm|Usage=FLASHONLY|Rotation=270.000|XOffset=0mm|YOffset=0mm|HoleType=Round|Shape=RoundedRectangle|*
%AMROUNDEDRECTD37*
21,1,0.8500,0.2625,0,0,270.0*
21,1,0.7625,0.3500,0,0,270.0*
1,1,0.0875,-0.1313,-0.3813*
1,1,0.0875,-0.1313,0.3813*
1,1,0.0875,0.1313,0.3813*
1,1,0.0875,0.1313,-0.3813*
%
%ADD37ROUNDEDRECTD37*%
%ADD38R,0.6000X1.3500*%
%ADD39R,1.3000X1.4000*%
%ADD40R,1.2000X1.7500*%
%ADD41R,1.4000X1.3000*%
G04:AMPARAMS|DCode=42|XSize=0.95mm|YSize=0.85mm|CornerRadius=0mm|HoleSize=0mm|Usage=FLASHONLY|Rotation=30.000|XOffset=0mm|YOffset=0mm|HoleType=Round|Shape=Rectangle|*
%AMROTATEDRECTD42*
4,1,4,-0.1989,-0.6056,-0.6239,0.1306,0.1989,0.6056,0.6239,-0.1306,-0.1989,-0.6056,0.0*
%
%ADD42ROTATEDRECTD42*%

G04:AMPARAMS|DCode=43|XSize=0.95mm|YSize=0.85mm|CornerRadius=0mm|HoleSize=0mm|Usage=FLASHONLY|Rotation=150.000|XOffset=0mm|YOffset=0mm|HoleType=Round|Shape=Rectangle|*
%AMROTATEDRECTD43*
4,1,4,0.6239,0.1306,0.1989,-0.6056,-0.6239,-0.1306,-0.1989,0.6056,0.6239,0.1306,0.0*
%
%ADD43ROTATEDRECTD43*%

G04:AMPARAMS|DCode=44|XSize=0.74mm|YSize=0.28mm|CornerRadius=0.035mm|HoleSize=0mm|Usage=FLASHONLY|Rotation=180.000|XOffset=0mm|YOffset=0mm|HoleType=Round|Shape=RoundedRectangle|*
%AMROUNDEDRECTD44*
21,1,0.7400,0.2100,0,0,180.0*
21,1,0.6700,0.2800,0,0,180.0*
1,1,0.0700,-0.3350,0.1050*
1,1,0.0700,0.3350,0.1050*
1,1,0.0700,0.3350,-0.1050*
1,1,0.0700,-0.3350,-0.1050*
%
%ADD44ROUNDEDRECTD44*%
%ADD45R,0.8500X0.9500*%
%ADD82R,0.9000X1.6000*%
G04:AMPARAMS|DCode=83|XSize=1.65mm|YSize=2.4mm|CornerRadius=0.0413mm|HoleSize=0mm|Usage=FLASHONLY|Rotation=90.000|XOffset=0mm|YOffset=0mm|HoleType=Round|Shape=RoundedRectangle|*
%AMROUNDEDRECTD83*
21,1,1.6500,2.3175,0,0,90.0*
21,1,1.5675,2.4000,0,0,90.0*
1,1,0.0825,1.1588,0.7838*
1,1,0.0825,1.1588,-0.7838*
1,1,0.0825,-1.1588,-0.7838*
1,1,0.0825,-1.1588,0.7838*
%
%ADD83ROUNDEDRECTD83*%
%ADD84R,2.7000X2.6000*%
%ADD85C,0.5120*%
%ADD86C,0.5080*%
%ADD87C,0.7080*%
%ADD88C,1.3000*%
%ADD89R,1.3000X1.3000*%
%ADD90C,1.6000*%
%ADD91C,5.0000*%
G04:AMPARAMS|DCode=92|XSize=2.14mm|YSize=1.07mm|CornerRadius=0mm|HoleSize=0mm|Usage=FLASHONLY|Rotation=214.480|XOffset=0mm|YOffset=0mm|HoleType=Round|Shape=Round|*
%AMOVALD92*
21,1,1.0700,1.0700,0.0000,0.0000,214.48*
1,1,1.0700,0.4410,0.3029*
1,1,1.0700,-0.4410,-0.3029*
%
%ADD92OVALD92*%

G04:AMPARAMS|DCode=93|XSize=2.14mm|YSize=1.07mm|CornerRadius=0mm|HoleSize=0mm|Usage=FLASHONLY|Rotation=334.480|XOffset=0mm|YOffset=0mm|HoleType=Round|Shape=Round|*
%AMOVALD93*
21,1,1.0700,1.0700,0.0000,0.0000,334.48*
1,1,1.0700,-0.4828,0.2305*
1,1,1.0700,0.4828,-0.2305*
%
%ADD93OVALD93*%

G04:AMPARAMS|DCode=94|XSize=2.14mm|YSize=1.07mm|CornerRadius=0mm|HoleSize=0mm|Usage=FLASHONLY|Rotation=94.480|XOffset=0mm|YOffset=0mm|HoleType=Round|Shape=Round|*
%AMOVALD94*
21,1,1.0700,1.0700,0.0000,0.0000,94.48*
1,1,1.0700,0.0418,-0.5334*
1,1,1.0700,-0.0418,0.5334*
%
%ADD94OVALD94*%

%ADD95R,1.6000X1.6000*%
%ADD96C,1.5000*%
%ADD97R,1.3000X1.3000*%
%ADD98C,0.7000*%
G36*
X317638Y443315D02*
X329263Y439246D01*
X340602Y434441D01*
X351612Y428919D01*
X362243Y422704D01*
X372456Y415821D01*
X382207Y408297D01*
X391455Y400164D01*
X400164Y391455D01*
X408297Y382207D01*
X415821Y372456D01*
X422704Y362243D01*
X428919Y351612D01*
X434441Y340602D01*
X439246Y329263D01*
X443315Y317638D01*
X444780Y312397D01*
X444780Y-163180D01*
X-196780D01*
Y-78113D01*
X-195641Y-77551D01*
X-195099Y-77966D01*
X-192881Y-78885D01*
X-190500Y-79199D01*
X-188119Y-78885D01*
X-185901Y-77966D01*
X-183995Y-76505D01*
X-182534Y-74599D01*
X-181615Y-72381D01*
X-181301Y-70000D01*
X-181615Y-67619D01*
X-182534Y-65401D01*
X-183995Y-63496D01*
X-185320Y-62479D01*
Y-57521D01*
X-183995Y-56505D01*
X-182534Y-54599D01*
X-181615Y-52381D01*
X-181301Y-50000D01*
X-181615Y-47619D01*
X-182534Y-45401D01*
X-183995Y-43495D01*
X-185320Y-42479D01*
Y-37521D01*
X-183995Y-36504D01*
X-182534Y-34599D01*
X-181615Y-32381D01*
X-181301Y-30000D01*
X-181615Y-27619D01*
X-182534Y-25401D01*
X-183995Y-23496D01*
X-185901Y-22034D01*
X-188119Y-21115D01*
X-190500Y-20801D01*
X-192881Y-21115D01*
X-195099Y-22034D01*
X-195641Y-22449D01*
X-196780Y-21887D01*
X-196780Y221887D01*
X-195641Y222449D01*
X-195099Y222034D01*
X-192881Y221115D01*
X-190500Y220801D01*
X-188119Y221115D01*
X-185901Y222034D01*
X-183995Y223496D01*
X-182534Y225401D01*
X-181615Y227619D01*
X-181301Y230000D01*
X-181615Y232381D01*
X-182534Y234599D01*
X-183995Y236504D01*
X-185320Y237521D01*
Y242479D01*
X-183995Y243496D01*
X-182534Y245401D01*
X-181615Y247619D01*
X-181301Y250000D01*
X-181615Y252381D01*
X-182534Y254599D01*
X-183995Y256504D01*
X-185320Y257521D01*
Y262479D01*
X-183995Y263496D01*
X-182534Y265401D01*
X-181615Y267619D01*
X-181301Y270000D01*
X-181615Y272381D01*
X-182534Y274599D01*
X-183995Y276504D01*
X-185901Y277966D01*
X-188119Y278885D01*
X-190500Y279199D01*
X-192881Y278885D01*
X-195099Y277966D01*
X-195641Y277551D01*
X-196780Y278113D01*
X-196780Y444780D01*
X312397D01*
X317638Y443315D01*
D02*
G37*
%LPC*%
G36*
X283000Y386199D02*
X280619Y385885D01*
X278401Y384966D01*
X276496Y383504D01*
X275034Y381599D01*
X274115Y379381D01*
X273801Y377000D01*
X274115Y374619D01*
X275034Y372401D01*
X276496Y370496D01*
X278401Y369034D01*
X280619Y368115D01*
X283000Y367801D01*
X285381Y368115D01*
X287599Y369034D01*
X289505Y370496D01*
X290966Y372401D01*
X291885Y374619D01*
X292199Y377000D01*
X291885Y379381D01*
X290966Y381599D01*
X289505Y383504D01*
X287599Y384966D01*
X285381Y385885D01*
X283000Y386199D01*
D02*
G37*
G36*
X-150000Y407625D02*
X-154321Y407285D01*
X-158537Y406273D01*
X-162542Y404614D01*
X-166238Y402349D01*
X-169534Y399534D01*
X-172349Y396238D01*
X-174614Y392542D01*
X-176273Y388537D01*
X-177285Y384322D01*
X-177625Y380000D01*
X-177285Y375678D01*
X-176273Y371463D01*
X-174614Y367458D01*
X-172349Y363762D01*
X-169534Y360466D01*
X-166238Y357651D01*
X-162542Y355386D01*
X-158537Y353727D01*
X-154321Y352715D01*
X-150000Y352375D01*
X-145679Y352715D01*
X-141463Y353727D01*
X-137458Y355386D01*
X-133762Y357651D01*
X-130466Y360466D01*
X-127651Y363762D01*
X-125386Y367458D01*
X-123727Y371463D01*
X-122850Y375115D01*
X-15609D01*
X25895Y333612D01*
X25175Y332535D01*
X24793Y332693D01*
X23000Y332929D01*
X21731Y332762D01*
X-1253Y355747D01*
X-2513Y356589D01*
X-4000Y356885D01*
X-86100D01*
X-87587Y356589D01*
X-88847Y355747D01*
X-118856Y325737D01*
X-120328Y326347D01*
X-123100Y326712D01*
X-125872Y326347D01*
X-128456Y325277D01*
X-130674Y323574D01*
X-132377Y321356D01*
X-133447Y318772D01*
X-133812Y316000D01*
X-133447Y313228D01*
X-132377Y310644D01*
X-130674Y308426D01*
X-128456Y306723D01*
X-125872Y305653D01*
X-123100Y305288D01*
X-120328Y305653D01*
X-117744Y306723D01*
X-115526Y308426D01*
X-113823Y310644D01*
X-112753Y313228D01*
X-112388Y316000D01*
X-112753Y318772D01*
X-113363Y320244D01*
X-84491Y349115D01*
X-71738D01*
X-71252Y347942D01*
X-93456Y325737D01*
X-94928Y326347D01*
X-97700Y326712D01*
X-100472Y326347D01*
X-103056Y325277D01*
X-105274Y323574D01*
X-106977Y321356D01*
X-108047Y318772D01*
X-108412Y316000D01*
X-108047Y313228D01*
X-106977Y310644D01*
X-105274Y308426D01*
X-103056Y306723D01*
X-100472Y305653D01*
X-97700Y305288D01*
X-94928Y305653D01*
X-92344Y306723D01*
X-90126Y308426D01*
X-88423Y310644D01*
X-87353Y313228D01*
X-86988Y316000D01*
X-87353Y318772D01*
X-87963Y320244D01*
X-64091Y344115D01*
X-11609D01*
X1471Y331035D01*
X1016Y329694D01*
X384Y329610D01*
X-4753Y334747D01*
X-6013Y335589D01*
X-7500Y335885D01*
X-30900D01*
X-32387Y335589D01*
X-33647Y334747D01*
X-42656Y325737D01*
X-44128Y326347D01*
X-46900Y326712D01*
X-49672Y326347D01*
X-52256Y325277D01*
X-54474Y323574D01*
X-56177Y321356D01*
X-57247Y318772D01*
X-57612Y316000D01*
X-57247Y313228D01*
X-56177Y310644D01*
X-54474Y308426D01*
X-52256Y306723D01*
X-49672Y305653D01*
X-46900Y305288D01*
X-44128Y305653D01*
X-41544Y306723D01*
X-39326Y308426D01*
X-37623Y310644D01*
X-36553Y313228D01*
X-36188Y316000D01*
X-36553Y318772D01*
X-37163Y320244D01*
X-33213Y324193D01*
X-32040Y323707D01*
Y317304D01*
X-32212Y316000D01*
X-32040Y314696D01*
Y305460D01*
X-22804D01*
X-21500Y305288D01*
X-20196Y305460D01*
X-10960D01*
Y305615D01*
X-5290D01*
Y302710D01*
X9290D01*
Y315710D01*
Y321557D01*
X10463Y322043D01*
X16408Y316098D01*
X16241Y314830D01*
X16477Y313037D01*
X17169Y311365D01*
X18270Y309930D01*
X19705Y308829D01*
X21377Y308137D01*
X23170Y307901D01*
X24964Y308137D01*
X26635Y308829D01*
X27845Y309758D01*
X29115Y309395D01*
Y283038D01*
X27942Y282552D01*
X14747Y295747D01*
X13487Y296589D01*
X12000Y296885D01*
X-53000D01*
X-54487Y296589D01*
X-55747Y295747D01*
X-84904Y266589D01*
X-85619Y266885D01*
X-88000Y267199D01*
X-90381Y266885D01*
X-92599Y265966D01*
X-94504Y264504D01*
X-95966Y262599D01*
X-96885Y260381D01*
X-97199Y258000D01*
X-96885Y255619D01*
X-95966Y253401D01*
X-94504Y251495D01*
X-92599Y250034D01*
X-90381Y249115D01*
X-88000Y248801D01*
X-85619Y249115D01*
X-83401Y250034D01*
X-81496Y251495D01*
X-80034Y253401D01*
X-79115Y255619D01*
X-78801Y258000D01*
X-79115Y260381D01*
X-79411Y261096D01*
X-76446Y264060D01*
X-75490Y263221D01*
X-75966Y262599D01*
X-76885Y260381D01*
X-77199Y258000D01*
X-76885Y255619D01*
X-75966Y253401D01*
X-74504Y251495D01*
X-72599Y250034D01*
X-70381Y249115D01*
X-68000Y248801D01*
X-65619Y249115D01*
X-63401Y250034D01*
X-61495Y251495D01*
X-60034Y253401D01*
X-59115Y255619D01*
X-58801Y258000D01*
X-59115Y260381D01*
X-59411Y261096D01*
X-36391Y284115D01*
X6391D01*
X43115Y247391D01*
Y233500D01*
X43411Y232013D01*
X44253Y230753D01*
X49710Y225296D01*
Y217949D01*
X-14287D01*
X-18169Y221831D01*
X-19009Y222393D01*
X-20000Y222590D01*
X-48914Y222590D01*
X-49521Y222995D01*
X-51503Y223389D01*
X-71790D01*
X-71790Y223389D01*
X-72290Y223290D01*
X-83790D01*
Y221859D01*
X-83831Y221831D01*
X-84393Y220991D01*
X-84590Y220000D01*
X-84590Y196790D01*
X-92135D01*
Y204520D01*
X-92210Y204895D01*
Y223290D01*
X-109290D01*
Y214103D01*
X-115237Y208156D01*
X-116410Y208642D01*
Y244820D01*
X-116607Y245812D01*
X-117169Y246652D01*
X-118009Y247213D01*
X-119000Y247410D01*
X-139000D01*
X-139991Y247213D01*
X-140831Y246652D01*
X-141393Y245812D01*
X-141590Y244820D01*
X-141590Y225540D01*
X-141393Y224549D01*
X-140831Y223709D01*
X-139991Y223147D01*
X-139550Y223060D01*
Y207382D01*
X-139717Y207176D01*
X-139894Y206844D01*
X-140103Y206531D01*
X-140128Y206401D01*
X-140191Y206284D01*
X-140226Y205909D01*
X-140300Y205540D01*
Y192646D01*
X-140831Y192291D01*
X-141393Y191451D01*
X-141590Y190460D01*
Y184000D01*
X-141393Y183009D01*
X-140831Y182169D01*
X-133040Y174377D01*
Y173560D01*
X-131753D01*
X-131000Y173410D01*
X-123540Y173410D01*
X-122787Y173560D01*
X-112460D01*
Y192140D01*
X-112800D01*
Y195885D01*
X-107975Y200710D01*
X-99905D01*
Y194270D01*
X-99609Y192783D01*
X-98767Y191523D01*
X-98540Y191296D01*
Y182710D01*
Y174704D01*
X-104729Y168515D01*
X-106770D01*
X-107145Y168440D01*
X-133040D01*
Y149860D01*
X-131385D01*
Y145162D01*
X-131089Y143675D01*
X-130247Y142415D01*
X-123775Y135943D01*
X-122514Y135101D01*
X-121028Y134805D01*
X-114159D01*
X-112672Y135101D01*
X-111412Y135943D01*
X-105740Y141615D01*
X-102290D01*
Y138710D01*
X-87710D01*
Y154615D01*
X-86290D01*
Y151710D01*
X-71710D01*
Y152410D01*
X-54540D01*
Y148960D01*
X-35460D01*
Y151847D01*
X-34216Y152447D01*
X-33945Y152551D01*
X-33565Y152555D01*
X-32810Y152136D01*
X-32628Y151974D01*
X-32523Y151838D01*
X-32246Y150532D01*
X-31303Y148680D01*
X-29914Y147136D01*
X-28172Y146004D01*
X-27067Y145644D01*
Y144182D01*
X-26771Y142695D01*
X-25929Y141435D01*
X-25290Y140796D01*
Y131710D01*
X1290D01*
Y140296D01*
X2908Y141914D01*
X3750Y143175D01*
X4046Y144661D01*
Y148081D01*
X5084Y148609D01*
X6629Y149999D01*
X6639Y150015D01*
X8262Y150208D01*
X8460Y150023D01*
Y147210D01*
X23540D01*
Y161290D01*
X14562D01*
X14060Y161390D01*
X14060Y161390D01*
X9040D01*
X8596Y163486D01*
X7785Y165079D01*
X7677Y166458D01*
X7246Y168491D01*
X6303Y170342D01*
X4914Y171886D01*
X3172Y173018D01*
X1196Y173661D01*
X-878Y173770D01*
X-2911Y173339D01*
X-4762Y172397D01*
X-6306Y171007D01*
X-7438Y169265D01*
X-8081Y167290D01*
X-8191Y165215D01*
X-8082Y163835D01*
X-8635Y162136D01*
X-8758Y159804D01*
X-8273Y157520D01*
X-7463Y155927D01*
X-7355Y154548D01*
X-6923Y152515D01*
X-5981Y150664D01*
X-4591Y149120D01*
X-3724Y148556D01*
Y146290D01*
X-19120D01*
X-19199Y147560D01*
X-18694Y148015D01*
X-17562Y149757D01*
X-16919Y151732D01*
X-16810Y153807D01*
X-16918Y155187D01*
X-16365Y156885D01*
X-16242Y159218D01*
X-16727Y161502D01*
X-17537Y163095D01*
X-17645Y164474D01*
X-18076Y166507D01*
X-18031Y167607D01*
X-17628Y167828D01*
X-17400Y168020D01*
X-17144Y168172D01*
X-15944Y169251D01*
X-14562Y169955D01*
X-14243Y170207D01*
X-13906Y170432D01*
X-7628Y176710D01*
X7290D01*
Y180115D01*
X9960D01*
Y177460D01*
X23040D01*
Y190540D01*
X9960D01*
Y187885D01*
X7290D01*
Y191290D01*
X-3410D01*
X-3410Y205551D01*
X90460D01*
Y204710D01*
X105540D01*
X105810Y203552D01*
Y198660D01*
X119490D01*
Y208836D01*
X120017Y208941D01*
X121277Y209783D01*
X124747Y213253D01*
X125589Y214513D01*
X125885Y216000D01*
Y231115D01*
X145610D01*
X147096Y231411D01*
X148356Y232253D01*
X152217Y236114D01*
X153059Y237374D01*
X153086Y237510D01*
X153340D01*
Y238787D01*
X153355Y238860D01*
Y244199D01*
X153385Y244350D01*
Y251625D01*
X153089Y253112D01*
X152247Y254372D01*
X147615Y259005D01*
Y269710D01*
X156707D01*
X157333Y268440D01*
X156999Y268005D01*
X156307Y266333D01*
X156071Y264540D01*
X156307Y262747D01*
X156999Y261075D01*
X158001Y259770D01*
X156999Y258465D01*
X156307Y256793D01*
X156071Y255000D01*
X156307Y253207D01*
X156616Y252460D01*
X155767Y251190D01*
X155660D01*
Y237510D01*
X178340D01*
Y244126D01*
X178385Y244350D01*
Y263378D01*
X178089Y264865D01*
X177247Y266125D01*
X169855Y273517D01*
X169929Y274080D01*
X169693Y275873D01*
X169455Y276449D01*
X170160Y277505D01*
X175460D01*
Y269710D01*
X185171D01*
X187385Y267495D01*
Y259365D01*
X185988D01*
X184501Y259069D01*
X183241Y258227D01*
X181753Y256739D01*
X180911Y255479D01*
X180615Y253992D01*
Y244350D01*
Y237500D01*
X180911Y236014D01*
X181753Y234753D01*
X183253Y233253D01*
X184513Y232411D01*
X186000Y232115D01*
X187391D01*
X188115Y231391D01*
Y208988D01*
X188411Y207501D01*
X189253Y206241D01*
X190741Y204753D01*
X192001Y203911D01*
X193488Y203615D01*
X211250D01*
X212737Y203911D01*
X213997Y204753D01*
X214954Y205710D01*
X224540D01*
Y215307D01*
X225713Y215793D01*
X226710Y214796D01*
Y206710D01*
Y193710D01*
X228605D01*
Y189510D01*
X228901Y188023D01*
X229743Y186763D01*
X237043Y179464D01*
Y177073D01*
X237338Y175586D01*
X238180Y174326D01*
X238613Y173893D01*
X238505Y173574D01*
X238073Y172638D01*
X236535Y172001D01*
X235100Y170899D01*
X233999Y169464D01*
X233306Y167793D01*
X233070Y166000D01*
X233306Y164206D01*
X233999Y162535D01*
X234826Y161457D01*
X234100Y160900D01*
X232999Y159465D01*
X232307Y157793D01*
X232213Y157077D01*
X230872Y156622D01*
X219207Y168287D01*
X219693Y169460D01*
X225290D01*
Y184540D01*
X224146D01*
X223440Y185596D01*
X223693Y186207D01*
X223929Y188000D01*
X223693Y189793D01*
X223001Y191465D01*
X221900Y192900D01*
X220465Y194001D01*
X218793Y194693D01*
X217000Y194929D01*
X215207Y194693D01*
X213535Y194001D01*
X213489Y193965D01*
X212207Y195247D01*
X210947Y196089D01*
X209460Y196385D01*
X208190D01*
Y201340D01*
X194510D01*
Y193660D01*
Y183660D01*
Y173660D01*
Y162490D01*
X155660D01*
Y155875D01*
X155615Y155650D01*
Y146750D01*
X155911Y145263D01*
X156753Y144003D01*
X157710Y143046D01*
Y133460D01*
X160865D01*
Y130138D01*
X160535Y130001D01*
X159100Y128900D01*
X157999Y127465D01*
X157307Y125793D01*
X157071Y124000D01*
X157307Y122207D01*
X157999Y120535D01*
X159100Y119100D01*
X160535Y117999D01*
X162207Y117307D01*
X164000Y117071D01*
X165793Y117307D01*
X166059Y117417D01*
X167115Y116711D01*
Y89000D01*
X167204Y88553D01*
Y86300D01*
X167425Y85192D01*
X168053Y84253D01*
X168992Y83625D01*
X170100Y83404D01*
X171900D01*
X173008Y83625D01*
X173500Y83953D01*
X173992Y83625D01*
X175100Y83404D01*
X176900D01*
X178008Y83625D01*
X178500Y83953D01*
X178992Y83625D01*
X180100Y83404D01*
X181900D01*
X183008Y83625D01*
X183948Y84253D01*
X184524Y85115D01*
X186891D01*
X188710Y83296D01*
Y74710D01*
Y61710D01*
X192115D01*
Y57038D01*
X190942Y56552D01*
X185477Y62017D01*
X184796Y62472D01*
Y63700D01*
X184575Y64808D01*
X183948Y65747D01*
X183008Y66375D01*
X181900Y66596D01*
X180100D01*
X178992Y66375D01*
X178500Y66047D01*
X178008Y66375D01*
X176900Y66596D01*
X175100D01*
X173992Y66375D01*
X173500Y66047D01*
X173008Y66375D01*
X171900Y66596D01*
X170100D01*
X168992Y66375D01*
X168500Y66047D01*
X168008Y66375D01*
X166900Y66596D01*
X165100D01*
X163992Y66375D01*
X163500Y66047D01*
X163008Y66375D01*
X161900Y66596D01*
X160100D01*
X158992Y66375D01*
X158053Y65747D01*
X157425Y64808D01*
X157204Y63700D01*
Y61447D01*
X157115Y61000D01*
Y59609D01*
X156391Y58885D01*
X154540D01*
Y62290D01*
X139460D01*
X139324Y63504D01*
Y72138D01*
X144889Y77703D01*
X144923Y77710D01*
X154000D01*
Y78750D01*
X154290D01*
Y84131D01*
X155560Y85173D01*
X155850Y85115D01*
X157476D01*
X158053Y84253D01*
X158992Y83625D01*
X160100Y83404D01*
X161900D01*
X163008Y83625D01*
X163948Y84253D01*
X164575Y85192D01*
X164796Y86300D01*
Y88904D01*
X164815Y89000D01*
X164796Y89095D01*
Y91700D01*
X164575Y92808D01*
X163948Y93748D01*
X163008Y94375D01*
X161900Y94596D01*
X160100D01*
X158992Y94375D01*
X158053Y93748D01*
X156553Y93790D01*
X154290Y96053D01*
Y104290D01*
X148058D01*
X147000Y104429D01*
X145942Y104290D01*
X139710D01*
Y90710D01*
Y84896D01*
X131857Y77043D01*
X130909Y75624D01*
X130576Y73950D01*
Y33050D01*
X130909Y31376D01*
X131857Y29957D01*
X138157Y23657D01*
X138071Y23000D01*
X138307Y21207D01*
X138999Y19535D01*
X140100Y18100D01*
X141535Y16999D01*
X143207Y16307D01*
X145000Y16071D01*
X146793Y16307D01*
X147845Y16743D01*
X149115Y15990D01*
Y5001D01*
X149152Y4815D01*
X144377Y40D01*
X143960D01*
Y-481D01*
X143607Y-1008D01*
X143410Y-1999D01*
X143410Y-24483D01*
X142140Y-24914D01*
X141900Y-24600D01*
X140465Y-23499D01*
X138793Y-22807D01*
X137000Y-22571D01*
X135207Y-22807D01*
X133535Y-23499D01*
X132100Y-24600D01*
X130999Y-26035D01*
X130307Y-27707D01*
X130071Y-29500D01*
X130307Y-31293D01*
X130999Y-32965D01*
X132100Y-34400D01*
X133535Y-35501D01*
X135207Y-36193D01*
X137000Y-36429D01*
X138793Y-36193D01*
X140465Y-35501D01*
X141900Y-34400D01*
X143001Y-32965D01*
X143693Y-31293D01*
X143845Y-30142D01*
X144843Y-29499D01*
X145075Y-29429D01*
X145164Y-29424D01*
X146000Y-29590D01*
X176110D01*
X176110Y-76000D01*
X176307Y-76991D01*
X176869Y-77831D01*
X177709Y-78393D01*
X178700Y-78590D01*
X180826D01*
X181610Y-79860D01*
X181610Y-79860D01*
X181610D01*
X181585Y-81120D01*
X181410Y-82000D01*
X181410Y-104000D01*
X181607Y-104991D01*
X182169Y-105831D01*
X183009Y-106393D01*
X184000Y-106590D01*
X202000Y-106590D01*
X202991Y-106393D01*
X203831Y-105831D01*
X204393Y-104991D01*
X204590Y-104000D01*
X204590Y-91540D01*
X208050D01*
X208156Y-91622D01*
X209828Y-92314D01*
X211621Y-92550D01*
X213414Y-92314D01*
X215086Y-91622D01*
X216521Y-90521D01*
X217622Y-89086D01*
X218314Y-87415D01*
X218550Y-85621D01*
X218314Y-83828D01*
X217622Y-82156D01*
X216521Y-80721D01*
X215086Y-79620D01*
X214777Y-79492D01*
X214731Y-78099D01*
X215131Y-77831D01*
X215693Y-76991D01*
X215890Y-76000D01*
Y-68500D01*
X215890Y-30044D01*
X215873Y-29960D01*
X215884Y-29875D01*
X215852Y-29755D01*
X216462Y-29235D01*
X216463Y-29234D01*
X216988Y-29056D01*
X217164Y-29158D01*
X217515Y-29393D01*
X217600Y-29409D01*
X217674Y-29452D01*
X218092Y-29508D01*
X218506Y-29590D01*
X240110D01*
X240110Y-76000D01*
X240307Y-76991D01*
X240869Y-77831D01*
X241709Y-78393D01*
X242700Y-78590D01*
X244825D01*
X245610Y-79860D01*
X245610Y-79860D01*
X245610D01*
X245585Y-81120D01*
X245410Y-82000D01*
X245410Y-104000D01*
X245607Y-104991D01*
X246169Y-105831D01*
X247009Y-106393D01*
X248000Y-106590D01*
X266000Y-106590D01*
X266991Y-106393D01*
X267831Y-105831D01*
X268393Y-104991D01*
X268590Y-104000D01*
X268590Y-91540D01*
X273440D01*
X274090Y-91809D01*
X275884Y-92045D01*
X277677Y-91809D01*
X279348Y-91117D01*
X280784Y-90016D01*
X281885Y-88581D01*
X282577Y-86910D01*
X282813Y-85116D01*
X282577Y-83323D01*
X281885Y-81652D01*
X280784Y-80217D01*
X279417Y-79168D01*
X279344Y-79091D01*
X279194Y-78203D01*
X279226Y-77690D01*
X279692Y-76991D01*
X279890Y-76000D01*
Y-74200D01*
X279890Y-74200D01*
Y-68500D01*
X279890Y-68500D01*
X279890Y-30192D01*
X279873Y-30108D01*
X279884Y-30023D01*
X279775Y-29615D01*
X279715Y-29312D01*
X280465Y-29001D01*
X280950Y-28629D01*
X282294Y-28831D01*
X282489Y-28962D01*
X282652Y-29130D01*
X282905Y-29240D01*
X283134Y-29393D01*
X283364Y-29438D01*
X283579Y-29532D01*
X283855Y-29536D01*
X284125Y-29590D01*
X304110D01*
Y-68500D01*
Y-76000D01*
X304307Y-76991D01*
X304869Y-77831D01*
X305709Y-78393D01*
X306700Y-78590D01*
X308826D01*
X309610Y-79860D01*
X309610Y-79860D01*
X309610D01*
X309585Y-81120D01*
X309410Y-82000D01*
X309410Y-104000D01*
X309607Y-104991D01*
X310169Y-105831D01*
X311009Y-106393D01*
X312000Y-106590D01*
X330000Y-106590D01*
X330991Y-106393D01*
X331831Y-105831D01*
X332393Y-104991D01*
X332590Y-104000D01*
X332590Y-91540D01*
X336130D01*
X336535Y-91851D01*
X338207Y-92543D01*
X340000Y-92779D01*
X341793Y-92543D01*
X343465Y-91851D01*
X344900Y-90750D01*
X346001Y-89315D01*
X346693Y-87643D01*
X346929Y-85850D01*
X346693Y-84057D01*
X346001Y-82385D01*
X344900Y-80950D01*
X343465Y-79849D01*
X342698Y-79532D01*
X342660Y-79425D01*
X342665Y-78143D01*
X343131Y-77831D01*
X343693Y-76991D01*
X343890Y-76000D01*
Y-74200D01*
X343890Y-74200D01*
Y-68500D01*
X343890Y-68500D01*
Y-62812D01*
X344793Y-62693D01*
X346465Y-62001D01*
X347900Y-60900D01*
X349001Y-59465D01*
X349693Y-57793D01*
X349929Y-56000D01*
X349693Y-54207D01*
X349001Y-52535D01*
X347900Y-51100D01*
X346885Y-50321D01*
Y-29590D01*
X375000D01*
X375991Y-29393D01*
X376831Y-28831D01*
X377393Y-27991D01*
X377590Y-27000D01*
X377590Y9927D01*
X384831Y17168D01*
X385393Y18008D01*
X385590Y19000D01*
X385590Y140000D01*
X385393Y140991D01*
X384831Y141831D01*
X383991Y142393D01*
X383000Y142590D01*
X338000Y142590D01*
X337009Y142393D01*
X336169Y141831D01*
X335607Y140991D01*
X335410Y140000D01*
X335410Y106000D01*
X335607Y105009D01*
X336169Y104169D01*
X348410Y91927D01*
Y88290D01*
X344704D01*
X341247Y91747D01*
X339987Y92589D01*
X338500Y92885D01*
X334524D01*
X333948Y93748D01*
X333008Y94375D01*
X331900Y94596D01*
X330100D01*
X329885Y94772D01*
Y97000D01*
X329589Y98487D01*
X328747Y99747D01*
X280747Y147747D01*
X279487Y148589D01*
X278198Y148845D01*
X278323Y150115D01*
X305000D01*
X306487Y150411D01*
X307747Y151253D01*
X323747Y167253D01*
X324589Y168513D01*
X324885Y170000D01*
Y293000D01*
X324589Y294487D01*
X323747Y295747D01*
X302747Y316747D01*
X301487Y317589D01*
X300000Y317885D01*
X237000D01*
X235513Y317589D01*
X234253Y316747D01*
X223305Y305799D01*
X222463Y304539D01*
X222167Y303052D01*
Y294948D01*
X222463Y293462D01*
X223305Y292201D01*
X223949Y291558D01*
X223463Y290385D01*
X208500D01*
X208024Y290290D01*
X197710D01*
Y276710D01*
Y272989D01*
X192879D01*
X190540Y275328D01*
Y283790D01*
X189280D01*
X189001Y284465D01*
X187900Y285900D01*
X186465Y287001D01*
X184793Y287693D01*
X183000Y287929D01*
X181207Y287693D01*
X179535Y287001D01*
X178100Y285900D01*
X177621Y285275D01*
X168000D01*
X168000Y285275D01*
X157140D01*
X155653Y284979D01*
X154393Y284137D01*
X154046Y283790D01*
X152808D01*
X151750Y283929D01*
X150692Y283790D01*
X144460D01*
Y282967D01*
X143287Y282481D01*
X142501Y283267D01*
X141290Y284076D01*
Y290290D01*
X135058D01*
X134000Y290429D01*
X132942Y290290D01*
X132601D01*
X132115Y291463D01*
X165175Y324524D01*
X194409D01*
X195895Y324820D01*
X197155Y325662D01*
X239904Y368411D01*
X240619Y368115D01*
X243000Y367801D01*
X245381Y368115D01*
X247599Y369034D01*
X249505Y370496D01*
X250966Y372401D01*
X251885Y374619D01*
X252199Y377000D01*
X251885Y379381D01*
X250966Y381599D01*
X249505Y383504D01*
X247599Y384966D01*
X245381Y385885D01*
X243000Y386199D01*
X240619Y385885D01*
X238401Y384966D01*
X236495Y383504D01*
X235034Y381599D01*
X234115Y379381D01*
X233801Y377000D01*
X234115Y374619D01*
X234411Y373904D01*
X233213Y372707D01*
X232040Y373193D01*
Y375795D01*
X232199Y377000D01*
X232040Y378205D01*
Y386040D01*
X224205D01*
X223000Y386199D01*
X221795Y386040D01*
X213960D01*
Y378205D01*
X213801Y377000D01*
X213960Y375795D01*
Y367960D01*
X221795D01*
X223000Y367801D01*
X224205Y367960D01*
X226807D01*
X227293Y366787D01*
X192799Y332293D01*
X163566D01*
X162080Y331997D01*
X160820Y331155D01*
X117204Y287540D01*
X110227Y294517D01*
X108967Y295359D01*
X108848Y295382D01*
Y298563D01*
X108617Y299724D01*
X107959Y300709D01*
X106974Y301367D01*
X105813Y301598D01*
X103188D01*
X102026Y301367D01*
X102000Y301350D01*
X101974Y301367D01*
X100813Y301598D01*
X98188D01*
X97026Y301367D01*
X97000Y301350D01*
X96974Y301367D01*
X95813Y301598D01*
X93188D01*
X92026Y301367D01*
X92000Y301350D01*
X91974Y301367D01*
X90813Y301598D01*
X88188D01*
X87026Y301367D01*
X87000Y301350D01*
X86974Y301367D01*
X85813Y301598D01*
X83188D01*
X82026Y301367D01*
X82000Y301350D01*
X81974Y301367D01*
X80813Y301598D01*
X78187D01*
X77026Y301367D01*
X76041Y300709D01*
X75383Y299724D01*
X75152Y298563D01*
Y290938D01*
X75383Y289776D01*
X76041Y288791D01*
X77026Y288133D01*
X77710Y287997D01*
Y274885D01*
X66109D01*
X62290Y278704D01*
Y286210D01*
Y299790D01*
X53704D01*
X50885Y302609D01*
Y312391D01*
X53204Y314710D01*
X64385D01*
X65427Y313440D01*
X65402Y313312D01*
Y310688D01*
X65633Y309526D01*
X65650Y309500D01*
X65633Y309474D01*
X65402Y308312D01*
Y305688D01*
X65633Y304526D01*
X66291Y303541D01*
X67276Y302883D01*
X68438Y302652D01*
X75563D01*
X76724Y302883D01*
X77709Y303541D01*
X78367Y304526D01*
X78598Y305688D01*
Y308312D01*
X78367Y309474D01*
X78350Y309500D01*
X78367Y309526D01*
X78598Y310688D01*
Y313312D01*
X78367Y314474D01*
X78350Y314500D01*
X78367Y314526D01*
X78598Y315688D01*
Y318312D01*
X78367Y319474D01*
X78350Y319500D01*
X78367Y319526D01*
X78598Y320687D01*
Y323312D01*
X78367Y324474D01*
X78350Y324500D01*
X78367Y324526D01*
X78598Y325687D01*
Y327402D01*
X80813D01*
X81974Y327633D01*
X82959Y328291D01*
X83617Y329276D01*
X83848Y330438D01*
Y338063D01*
X83617Y339224D01*
X83139Y339940D01*
X83463Y340889D01*
X83702Y341210D01*
X83855D01*
X84230Y341135D01*
X85121D01*
X85615Y340641D01*
Y339572D01*
X85383Y339224D01*
X85152Y338063D01*
Y330438D01*
X85383Y329276D01*
X86041Y328291D01*
X87026Y327633D01*
X88188Y327402D01*
X90813D01*
X91974Y327633D01*
X92959Y328291D01*
X93617Y329276D01*
X93848Y330438D01*
Y338063D01*
X93617Y339224D01*
X93385Y339572D01*
Y342250D01*
X93089Y343737D01*
X92247Y344997D01*
X89477Y347767D01*
X88540Y348393D01*
Y355290D01*
X73460D01*
Y341210D01*
X75298D01*
X75536Y340889D01*
X75861Y339940D01*
X75383Y339224D01*
X75166Y338135D01*
X52250D01*
X50763Y337839D01*
X49503Y336997D01*
X38155Y325648D01*
X36885Y326174D01*
Y332000D01*
X36589Y333487D01*
X35747Y334747D01*
X-11253Y381747D01*
X-12513Y382589D01*
X-14000Y382885D01*
X-122602D01*
X-122715Y384322D01*
X-123727Y388537D01*
X-125386Y392542D01*
X-127651Y396238D01*
X-130466Y399534D01*
X-133762Y402349D01*
X-137458Y404614D01*
X-141463Y406273D01*
X-145679Y407285D01*
X-150000Y407625D01*
D02*
G37*
G36*
X117790Y357540D02*
X103710D01*
Y347954D01*
X102101Y346345D01*
X100988D01*
X99501Y346049D01*
X98241Y345207D01*
X96753Y343719D01*
X95911Y342459D01*
X95615Y340972D01*
Y339572D01*
X95383Y339224D01*
X95152Y338063D01*
Y334933D01*
X95115Y334750D01*
X95152Y334567D01*
Y330438D01*
X95383Y329276D01*
X96041Y328291D01*
X97026Y327633D01*
X98188Y327402D01*
X100813D01*
X101974Y327633D01*
X102000Y327650D01*
X102026Y327633D01*
X103188Y327402D01*
X105402D01*
Y325687D01*
X105633Y324526D01*
X105650Y324500D01*
X105633Y324474D01*
X105402Y323312D01*
Y320687D01*
X105633Y319526D01*
X105650Y319500D01*
X105633Y319474D01*
X105402Y318312D01*
Y315688D01*
X105633Y314526D01*
X105650Y314500D01*
X105633Y314474D01*
X105402Y313312D01*
Y310688D01*
X105633Y309526D01*
X105650Y309500D01*
X105633Y309474D01*
X105402Y308312D01*
Y305688D01*
X105633Y304526D01*
X106291Y303541D01*
X107276Y302883D01*
X108438Y302652D01*
X115562D01*
X116724Y302883D01*
X117709Y303541D01*
X118367Y304526D01*
X118598Y305688D01*
Y308312D01*
X118367Y309474D01*
X118350Y309500D01*
X118367Y309526D01*
X118598Y310688D01*
Y313312D01*
X118367Y314474D01*
X118350Y314500D01*
X118367Y314526D01*
X118598Y315688D01*
Y318312D01*
X118367Y319474D01*
X118350Y319500D01*
X118367Y319526D01*
X118598Y320687D01*
Y323312D01*
X118367Y324474D01*
X118350Y324500D01*
X118367Y324526D01*
X118598Y325687D01*
Y328312D01*
X118367Y329474D01*
X117709Y330459D01*
X116724Y331117D01*
X115562Y331348D01*
X108848D01*
Y338063D01*
X108617Y339224D01*
X107959Y340209D01*
X107869Y341125D01*
X109204Y342460D01*
X113605D01*
X113980Y342385D01*
X114355Y342460D01*
X117790D01*
Y345895D01*
X117865Y346270D01*
X117790Y346645D01*
Y357540D01*
D02*
G37*
G36*
X-148500Y326712D02*
X-151272Y326347D01*
X-153856Y325277D01*
X-156074Y323574D01*
X-157777Y321356D01*
X-158847Y318772D01*
X-159212Y316000D01*
X-158847Y313228D01*
X-157777Y310644D01*
X-156074Y308426D01*
X-153856Y306723D01*
X-151272Y305653D01*
X-148500Y305288D01*
X-145728Y305653D01*
X-143144Y306723D01*
X-140926Y308426D01*
X-139223Y310644D01*
X-138153Y313228D01*
X-137788Y316000D01*
X-138153Y318772D01*
X-139223Y321356D01*
X-140926Y323574D01*
X-143144Y325277D01*
X-145728Y326347D01*
X-148500Y326712D01*
D02*
G37*
G36*
X119490Y196340D02*
X105810D01*
Y191355D01*
X104318D01*
X103900Y191900D01*
X102465Y193001D01*
X100793Y193693D01*
X99000Y193929D01*
X97207Y193693D01*
X95535Y193001D01*
X94100Y191900D01*
X92999Y190465D01*
X92307Y188793D01*
X92071Y187000D01*
X92307Y185207D01*
X92999Y183535D01*
X93424Y182981D01*
X94100Y181899D01*
X92999Y180464D01*
X92307Y178793D01*
X92071Y177000D01*
X92307Y175206D01*
X92999Y173535D01*
X93424Y172981D01*
X94037Y172000D01*
X93424Y171018D01*
X92999Y170464D01*
X92307Y168793D01*
X92071Y167000D01*
X92307Y165206D01*
X92999Y163535D01*
X94100Y162100D01*
X95535Y160999D01*
X97206Y160306D01*
X99000Y160070D01*
X100793Y160306D01*
X102464Y160999D01*
X103899Y162100D01*
X104540Y162935D01*
X105810Y162504D01*
Y158660D01*
X115660D01*
Y156404D01*
X115059Y156285D01*
X113799Y155443D01*
X113535Y155179D01*
X112465Y156001D01*
X110793Y156693D01*
X109000Y156929D01*
X107207Y156693D01*
X105535Y156001D01*
X104100Y154900D01*
X102999Y153465D01*
X102307Y151793D01*
X102071Y150000D01*
X102307Y148207D01*
X102999Y146535D01*
X104100Y145100D01*
X105535Y143999D01*
X107207Y143307D01*
X109000Y143071D01*
X110793Y143307D01*
X112465Y143999D01*
X113900Y145100D01*
X114976Y146503D01*
X115541Y146615D01*
X116801Y147457D01*
X117538Y148194D01*
X117843Y148133D01*
X118261Y146755D01*
X109277Y137771D01*
X107949Y137946D01*
X106156Y137710D01*
X104485Y137018D01*
X103050Y135917D01*
X101949Y134481D01*
X101256Y132810D01*
X101020Y131017D01*
X101256Y129223D01*
X101949Y127552D01*
X103050Y126117D01*
X104485Y125016D01*
X106156Y124324D01*
X107949Y124087D01*
X109743Y124324D01*
X110890Y124799D01*
X110999Y124535D01*
X112100Y123100D01*
X113535Y121999D01*
X115207Y121307D01*
X117000Y121071D01*
X118793Y121307D01*
X120465Y121999D01*
X121900Y123100D01*
X123001Y124535D01*
X123693Y126207D01*
X123929Y128000D01*
X123762Y129269D01*
X129872Y135378D01*
X131136Y135254D01*
X131253Y135079D01*
X134331Y132000D01*
X134200Y131000D01*
X134436Y129207D01*
X135128Y127535D01*
X136229Y126100D01*
X137664Y124999D01*
X139335Y124307D01*
X141129Y124071D01*
X142922Y124307D01*
X144594Y124999D01*
X146029Y126100D01*
X147130Y127535D01*
X147822Y129207D01*
X148058Y131000D01*
X147822Y132793D01*
X147130Y134465D01*
X146070Y135846D01*
X146210Y135954D01*
X147311Y137389D01*
X148003Y139060D01*
X148239Y140853D01*
X148003Y142647D01*
X147311Y144318D01*
X146729Y145077D01*
X147247Y145595D01*
X148089Y146856D01*
X148385Y148342D01*
Y148810D01*
X153340D01*
Y162490D01*
X119490D01*
Y168660D01*
Y178660D01*
Y188660D01*
Y196340D01*
D02*
G37*
G36*
X0Y115217D02*
X-3944Y114828D01*
X-7737Y113678D01*
X-11232Y111810D01*
X-14296Y109295D01*
X-16810Y106232D01*
X-18678Y102736D01*
X-19829Y98944D01*
X-20217Y95000D01*
X-19829Y91055D01*
X-18678Y87263D01*
X-16810Y83767D01*
X-14296Y80704D01*
X-11232Y78189D01*
X-7737Y76321D01*
X-3944Y75171D01*
X0Y74782D01*
X3944Y75171D01*
X7737Y76321D01*
X11232Y78189D01*
X14296Y80704D01*
X16810Y83767D01*
X18678Y87263D01*
X19829Y91055D01*
X20217Y95000D01*
X19829Y98944D01*
X18678Y102736D01*
X16810Y106232D01*
X14296Y109295D01*
X11232Y111810D01*
X7737Y113678D01*
X3944Y114828D01*
X0Y115217D01*
D02*
G37*
G36*
X73000Y83712D02*
X70228Y83347D01*
X67644Y82277D01*
X65426Y80574D01*
X63723Y78356D01*
X62653Y75772D01*
X62288Y73000D01*
X62653Y70228D01*
X63723Y67644D01*
X65426Y65426D01*
X67644Y63723D01*
X70228Y62653D01*
X73000Y62288D01*
X75772Y62653D01*
X78356Y63723D01*
X80574Y65426D01*
X82277Y67644D01*
X83347Y70228D01*
X83712Y73000D01*
X83347Y75772D01*
X82277Y78356D01*
X80574Y80574D01*
X78356Y82277D01*
X75772Y83347D01*
X73000Y83712D01*
D02*
G37*
G36*
X-84202Y123267D02*
X-84784Y123151D01*
X-85376Y123133D01*
X-85643Y123013D01*
X-85934Y122971D01*
X-86058Y122898D01*
X-86200Y122870D01*
X-86693Y122540D01*
X-87233Y122297D01*
X-92129Y118804D01*
X-92279Y118645D01*
X-92471Y118539D01*
X-101651Y110767D01*
X-101787Y110596D01*
X-101969Y110474D01*
X-110474Y101969D01*
X-110596Y101787D01*
X-110767Y101651D01*
X-118539Y92471D01*
X-118645Y92279D01*
X-118804Y92129D01*
X-122297Y87233D01*
X-122598Y86565D01*
X-122971Y85934D01*
X-123013Y85643D01*
X-123133Y85376D01*
X-123156Y84643D01*
X-123259Y83917D01*
X-123187Y83633D01*
X-123195Y83340D01*
X-122936Y82654D01*
X-122753Y81944D01*
X-122578Y81710D01*
X-122474Y81436D01*
X-121971Y80901D01*
X-121531Y80315D01*
X-100896Y61818D01*
X-100612Y61650D01*
X-100383Y61413D01*
X-99743Y61135D01*
X-99143Y60780D01*
X-98817Y60734D01*
X-98514Y60602D01*
X-97817Y60591D01*
X-97127Y60493D01*
X-96807Y60575D01*
X-96477Y60569D01*
X-95829Y60825D01*
X-95154Y60998D01*
X-94890Y61196D01*
X-94583Y61318D01*
X-94082Y61802D01*
X-93525Y62221D01*
X-93357Y62505D01*
X-93119Y62734D01*
X-91568Y64976D01*
X-88326Y69318D01*
X-84898Y73476D01*
X-84851Y73528D01*
X-84096Y73178D01*
X-83699Y72907D01*
X-83347Y70228D01*
X-82277Y67644D01*
X-80574Y65426D01*
X-78356Y63723D01*
X-75772Y62653D01*
X-73000Y62288D01*
X-70228Y62653D01*
X-67644Y63723D01*
X-65426Y65426D01*
X-63723Y67644D01*
X-62653Y70228D01*
X-62288Y73000D01*
X-62653Y75772D01*
X-63723Y78356D01*
X-65426Y80574D01*
X-67644Y82277D01*
X-70228Y83347D01*
X-72907Y83699D01*
X-73178Y84096D01*
X-73528Y84851D01*
X-73476Y84898D01*
X-69318Y88325D01*
X-64976Y91568D01*
X-62734Y93119D01*
X-62505Y93357D01*
X-62221Y93525D01*
X-61802Y94082D01*
X-61318Y94583D01*
X-61196Y94890D01*
X-60998Y95154D01*
X-60825Y95829D01*
X-60569Y96477D01*
X-60575Y96807D01*
X-60493Y97127D01*
X-60591Y97817D01*
X-60602Y98514D01*
X-60734Y98817D01*
X-60780Y99143D01*
X-61136Y99743D01*
X-61413Y100383D01*
X-61650Y100612D01*
X-61818Y100896D01*
X-80315Y121531D01*
X-80430Y121618D01*
X-80511Y121738D01*
X-81004Y122068D01*
X-81436Y122474D01*
X-81709Y122578D01*
X-81944Y122753D01*
X-82084Y122789D01*
X-82204Y122870D01*
X-82786Y122985D01*
X-83340Y123195D01*
X-83633Y123187D01*
X-83917Y123259D01*
X-84060Y123239D01*
X-84202Y123267D01*
D02*
G37*
G36*
X80000Y20217D02*
X76056Y19829D01*
X72263Y18678D01*
X68768Y16810D01*
X65704Y14296D01*
X63190Y11232D01*
X61321Y7737D01*
X60171Y3944D01*
X59783Y0D01*
X60171Y-3944D01*
X61321Y-7737D01*
X63190Y-11232D01*
X65704Y-14296D01*
X68768Y-16810D01*
X72263Y-18678D01*
X76056Y-19829D01*
X80000Y-20217D01*
X83944Y-19829D01*
X87737Y-18678D01*
X91232Y-16810D01*
X94296Y-14296D01*
X96810Y-11232D01*
X98678Y-7737D01*
X99829Y-3944D01*
X100217Y0D01*
X99829Y3944D01*
X98678Y7737D01*
X96810Y11232D01*
X94296Y14296D01*
X91232Y16810D01*
X87737Y18678D01*
X83944Y19829D01*
X80000Y20217D01*
D02*
G37*
G36*
X-80000D02*
X-83945Y19829D01*
X-87737Y18678D01*
X-91233Y16810D01*
X-94296Y14296D01*
X-96811Y11232D01*
X-98679Y7737D01*
X-99829Y3944D01*
X-100218Y0D01*
X-99829Y-3944D01*
X-98679Y-7737D01*
X-96811Y-11232D01*
X-94296Y-14296D01*
X-91233Y-16810D01*
X-87737Y-18678D01*
X-83945Y-19829D01*
X-80000Y-20217D01*
X-76056Y-19829D01*
X-72263Y-18678D01*
X-68768Y-16810D01*
X-65704Y-14296D01*
X-63190Y-11232D01*
X-61322Y-7737D01*
X-60171Y-3944D01*
X-59783Y0D01*
X-60171Y3944D01*
X-61322Y7737D01*
X-63190Y11232D01*
X-65704Y14296D01*
X-68768Y16810D01*
X-72263Y18678D01*
X-76056Y19829D01*
X-80000Y20217D01*
D02*
G37*
G36*
X-138000Y3929D02*
X-139793Y3693D01*
X-141465Y3001D01*
X-142900Y1900D01*
X-144001Y465D01*
X-144693Y-1207D01*
X-144929Y-3000D01*
X-144693Y-4793D01*
X-144001Y-6465D01*
X-143971Y-6504D01*
X-143290Y-7460D01*
X-143290D01*
X-143290Y-7460D01*
Y-22540D01*
X-138365D01*
Y-30520D01*
X-138290Y-30895D01*
Y-43469D01*
X-139460Y-43710D01*
Y-43710D01*
X-149824D01*
X-150238Y-43628D01*
X-150651Y-43710D01*
X-154540D01*
Y-57790D01*
X-150885D01*
Y-72182D01*
X-150589Y-73668D01*
X-149747Y-74929D01*
X-148706Y-75969D01*
X-148740Y-77239D01*
X-149540Y-77959D01*
X-150673Y-79701D01*
X-151315Y-81677D01*
X-151425Y-83751D01*
X-150993Y-85784D01*
X-150051Y-87635D01*
X-148661Y-89179D01*
X-146919Y-90311D01*
X-144944Y-90954D01*
X-142869Y-91064D01*
X-140837Y-90632D01*
X-138986Y-89690D01*
X-137845Y-88906D01*
X-136097Y-88535D01*
X-134016Y-87476D01*
X-132280Y-85914D01*
X-131306Y-84416D01*
X-130165Y-83632D01*
X-128621Y-82243D01*
X-127489Y-80501D01*
X-126846Y-78525D01*
X-126837Y-78350D01*
X-125549Y-78041D01*
X-122803Y-82796D01*
X-122168Y-83896D01*
X-121533Y-84996D01*
X-119399Y-88693D01*
X-120788Y-90083D01*
X-120913Y-90076D01*
X-122945Y-90508D01*
X-124796Y-91450D01*
X-125937Y-92234D01*
X-127685Y-92605D01*
X-129766Y-93664D01*
X-131502Y-95226D01*
X-132476Y-96724D01*
X-133617Y-97508D01*
X-135161Y-98897D01*
X-136293Y-100639D01*
X-136936Y-102615D01*
X-137045Y-104689D01*
X-136614Y-106721D01*
X-135672Y-108573D01*
X-134282Y-110117D01*
X-132540Y-111249D01*
X-130564Y-111892D01*
X-128490Y-112001D01*
X-126458Y-111570D01*
X-124606Y-110628D01*
X-123465Y-109844D01*
X-121718Y-109473D01*
X-119636Y-108414D01*
X-117900Y-106852D01*
X-116927Y-105354D01*
X-115786Y-104570D01*
X-114242Y-103181D01*
X-113110Y-101439D01*
X-112467Y-99463D01*
X-112357Y-97389D01*
X-112789Y-95356D01*
X-113522Y-93915D01*
X-103042Y-87865D01*
X-106838Y-81289D01*
X-106587Y-80028D01*
Y-66529D01*
X-106882Y-65042D01*
X-107725Y-63782D01*
X-123710Y-47796D01*
Y-40290D01*
Y-26710D01*
X-130595D01*
Y-22540D01*
X-129210D01*
Y-7460D01*
X-131335D01*
X-131885Y-6190D01*
X-131307Y-4793D01*
X-131071Y-3000D01*
X-131307Y-1207D01*
X-131999Y465D01*
X-133100Y1900D01*
X-134535Y3001D01*
X-136207Y3693D01*
X-138000Y3929D01*
D02*
G37*
G36*
X0Y45217D02*
X-5902Y44830D01*
X-11703Y43676D01*
X-17304Y41775D01*
X-22608Y39159D01*
X-27526Y35873D01*
X-31973Y31973D01*
X-35873Y27526D01*
X-39159Y22608D01*
X-41775Y17304D01*
X-43676Y11703D01*
X-44830Y5902D01*
X-45217Y0D01*
X-44830Y-5902D01*
X-43676Y-11703D01*
X-41775Y-17304D01*
X-39159Y-22608D01*
X-35873Y-27526D01*
X-31973Y-31973D01*
X-27526Y-35873D01*
X-22608Y-39159D01*
X-17304Y-41775D01*
X-11703Y-43676D01*
X-5902Y-44830D01*
X0Y-45217D01*
X5902Y-44830D01*
X11703Y-43676D01*
X17304Y-41775D01*
X22608Y-39159D01*
X27526Y-35873D01*
X31973Y-31973D01*
X35873Y-27526D01*
X39159Y-22608D01*
X41775Y-17304D01*
X43676Y-11703D01*
X44830Y-5902D01*
X45217Y0D01*
X44830Y5902D01*
X43676Y11703D01*
X41775Y17304D01*
X39159Y22608D01*
X35873Y27526D01*
X31973Y31973D01*
X27526Y35873D01*
X22608Y39159D01*
X17304Y41775D01*
X11703Y43676D01*
X5902Y44830D01*
X0Y45217D01*
D02*
G37*
G36*
X144411Y-47232D02*
X142379Y-47664D01*
X140527Y-48606D01*
X138983Y-49996D01*
X138147Y-51281D01*
X133455D01*
X131968Y-51577D01*
X130708Y-52419D01*
X125738Y-57389D01*
X121332Y-54845D01*
X114542Y-66606D01*
X108042Y-77864D01*
X119569Y-84520D01*
X120668Y-85154D01*
X121365Y-85341D01*
Y-88460D01*
X118210D01*
Y-103540D01*
X132290D01*
Y-88460D01*
X129135D01*
Y-85609D01*
X130251Y-85003D01*
X130661Y-85270D01*
X131910Y-85866D01*
X133105Y-87194D01*
X135063Y-88467D01*
X137284Y-89189D01*
X139068Y-89283D01*
X140317Y-89880D01*
X142293Y-90522D01*
X144367Y-90632D01*
X146399Y-90200D01*
X148251Y-89258D01*
X149795Y-87868D01*
X150927Y-86126D01*
X151570Y-84151D01*
X151679Y-82076D01*
X151248Y-80044D01*
X150306Y-78193D01*
X148916Y-76648D01*
X147174Y-75516D01*
X145925Y-74920D01*
X144730Y-73592D01*
X142772Y-72319D01*
X140551Y-71597D01*
X138767Y-71503D01*
X137518Y-70906D01*
X135542Y-70264D01*
X133468Y-70154D01*
X131436Y-70585D01*
X130176Y-71227D01*
X129264Y-70266D01*
X133958Y-62136D01*
X133607Y-61933D01*
X133441Y-60673D01*
X135064Y-59051D01*
X138156D01*
X138472Y-59671D01*
X139862Y-61216D01*
X141604Y-62348D01*
X142853Y-62944D01*
X144048Y-64272D01*
X146006Y-65545D01*
X148227Y-66267D01*
X150011Y-66361D01*
X151260Y-66958D01*
X153236Y-67600D01*
X155310Y-67710D01*
X157342Y-67279D01*
X159194Y-66336D01*
X160738Y-64946D01*
X161870Y-63204D01*
X162513Y-61229D01*
X162622Y-59154D01*
X162191Y-57122D01*
X161248Y-55271D01*
X159859Y-53727D01*
X158117Y-52594D01*
X156868Y-51998D01*
X155673Y-50670D01*
X153715Y-49397D01*
X151494Y-48675D01*
X149710Y-48581D01*
X148461Y-47984D01*
X146485Y-47342D01*
X144411Y-47232D01*
D02*
G37*
G36*
X-73000Y-62288D02*
X-75772Y-62653D01*
X-78356Y-63723D01*
X-80574Y-65426D01*
X-82277Y-67644D01*
X-83347Y-70228D01*
X-83712Y-73000D01*
X-83347Y-75772D01*
X-82277Y-78356D01*
X-80574Y-80574D01*
X-78356Y-82277D01*
X-75772Y-83347D01*
X-73000Y-83712D01*
X-70228Y-83347D01*
X-67644Y-82277D01*
X-65426Y-80574D01*
X-63723Y-78356D01*
X-62653Y-75772D01*
X-62288Y-73000D01*
X-62653Y-70228D01*
X-63723Y-67644D01*
X-65426Y-65426D01*
X-67644Y-63723D01*
X-70228Y-62653D01*
X-73000Y-62288D01*
D02*
G37*
G36*
X0Y-74783D02*
X-3944Y-75171D01*
X-7737Y-76322D01*
X-11232Y-78190D01*
X-14296Y-80704D01*
X-16810Y-83768D01*
X-18678Y-87263D01*
X-19829Y-91056D01*
X-20217Y-95000D01*
X-19829Y-98944D01*
X-18678Y-102737D01*
X-16810Y-106232D01*
X-14296Y-109296D01*
X-11232Y-111810D01*
X-7737Y-113679D01*
X-3944Y-114829D01*
X0Y-115217D01*
X3944Y-114829D01*
X7737Y-113679D01*
X11232Y-111810D01*
X14296Y-109296D01*
X16810Y-106232D01*
X18678Y-102737D01*
X19829Y-98944D01*
X20217Y-95000D01*
X19829Y-91056D01*
X18678Y-87263D01*
X16810Y-83768D01*
X14296Y-80704D01*
X11232Y-78190D01*
X7737Y-76322D01*
X3944Y-75171D01*
X0Y-74783D01*
D02*
G37*
G36*
X270000Y-137101D02*
X267619Y-137415D01*
X265401Y-138334D01*
X263496Y-139796D01*
X262479Y-141121D01*
X257521D01*
X256504Y-139796D01*
X254599Y-138334D01*
X252381Y-137415D01*
X250000Y-137101D01*
X247619Y-137415D01*
X245401Y-138334D01*
X243496Y-139796D01*
X242479Y-141121D01*
X239040D01*
Y-137260D01*
X231205D01*
X230000Y-137101D01*
X228795Y-137260D01*
X220960D01*
Y-145095D01*
X220801Y-146300D01*
X220960Y-147505D01*
Y-155340D01*
X228795D01*
X230000Y-155499D01*
X231205Y-155340D01*
X239040D01*
Y-151480D01*
X242479D01*
X243496Y-152804D01*
X245401Y-154266D01*
X247619Y-155185D01*
X250000Y-155499D01*
X252381Y-155185D01*
X254599Y-154266D01*
X256504Y-152804D01*
X257521Y-151480D01*
X262479D01*
X263496Y-152804D01*
X265401Y-154266D01*
X267619Y-155185D01*
X270000Y-155499D01*
X272381Y-155185D01*
X274599Y-154266D01*
X276504Y-152804D01*
X277966Y-150899D01*
X278885Y-148681D01*
X279199Y-146300D01*
X278885Y-143919D01*
X277966Y-141701D01*
X276504Y-139796D01*
X274599Y-138334D01*
X272381Y-137415D01*
X270000Y-137101D01*
D02*
G37*
G36*
X-30000D02*
X-32381Y-137415D01*
X-34599Y-138334D01*
X-36504Y-139796D01*
X-37521Y-141121D01*
X-42479D01*
X-43495Y-139796D01*
X-45401Y-138334D01*
X-47619Y-137415D01*
X-50000Y-137101D01*
X-52381Y-137415D01*
X-54599Y-138334D01*
X-56505Y-139796D01*
X-57521Y-141121D01*
X-60960D01*
Y-137260D01*
X-68795D01*
X-70000Y-137101D01*
X-71205Y-137260D01*
X-79040D01*
Y-145095D01*
X-79199Y-146300D01*
X-79040Y-147505D01*
Y-155340D01*
X-71205D01*
X-70000Y-155499D01*
X-68795Y-155340D01*
X-60960D01*
Y-151480D01*
X-57521D01*
X-56505Y-152804D01*
X-54599Y-154266D01*
X-52381Y-155185D01*
X-50000Y-155499D01*
X-47619Y-155185D01*
X-45401Y-154266D01*
X-43495Y-152804D01*
X-42479Y-151480D01*
X-37521D01*
X-36504Y-152804D01*
X-34599Y-154266D01*
X-32381Y-155185D01*
X-30000Y-155499D01*
X-27619Y-155185D01*
X-25401Y-154266D01*
X-23496Y-152804D01*
X-22034Y-150899D01*
X-21115Y-148681D01*
X-20801Y-146300D01*
X-21115Y-143919D01*
X-22034Y-141701D01*
X-23496Y-139796D01*
X-25401Y-138334D01*
X-27619Y-137415D01*
X-30000Y-137101D01*
D02*
G37*
%LPD*%
G36*
X310115Y290729D02*
Y230369D01*
X308845Y230244D01*
X308589Y231533D01*
X307747Y232793D01*
X270793Y269747D01*
X269533Y270589D01*
X268046Y270885D01*
X263790D01*
Y274540D01*
X258735D01*
Y277610D01*
X259328Y277728D01*
X260284Y278366D01*
X260922Y279322D01*
X261147Y280450D01*
Y282550D01*
X261200Y282615D01*
X273891D01*
X275254Y281253D01*
X275872Y280839D01*
X275998Y280535D01*
X277100Y279100D01*
X278535Y277999D01*
X280206Y277306D01*
X281999Y277070D01*
X283793Y277306D01*
X285464Y277999D01*
X286500Y278793D01*
X287535Y277999D01*
X289207Y277306D01*
X291000Y277070D01*
X292793Y277306D01*
X294465Y277999D01*
X295900Y279100D01*
X297001Y280535D01*
X297693Y282206D01*
X297929Y283999D01*
X297693Y285793D01*
X297001Y287464D01*
X296576Y288018D01*
X295963Y289000D01*
X296576Y289981D01*
X297001Y290535D01*
X297693Y292207D01*
X297929Y294000D01*
X297693Y295793D01*
X297001Y297465D01*
X295900Y298900D01*
X294465Y300001D01*
X292793Y300693D01*
X291000Y300929D01*
X289207Y300693D01*
X287535Y300001D01*
X286500Y299207D01*
X285465Y300001D01*
X283793Y300693D01*
X282000Y300929D01*
X280207Y300693D01*
X278535Y300001D01*
X277100Y298900D01*
X275999Y297465D01*
X275873Y297161D01*
X275253Y296747D01*
X273891Y295385D01*
X258763D01*
X258200Y295497D01*
X251500D01*
X250372Y295272D01*
X249416Y294634D01*
X248778Y293678D01*
X248553Y292550D01*
Y290450D01*
X248778Y289322D01*
X248993Y289000D01*
X248778Y288678D01*
X248553Y287550D01*
Y285450D01*
X248778Y284322D01*
X248993Y284000D01*
X248778Y283678D01*
X248553Y282550D01*
Y280450D01*
X248778Y279322D01*
X249416Y278366D01*
X250372Y277728D01*
X250965Y277610D01*
Y274540D01*
X249710D01*
Y259460D01*
X263790D01*
Y263115D01*
X266437D01*
X301115Y228437D01*
Y181679D01*
X300100Y180900D01*
X298999Y179465D01*
X298307Y177793D01*
X298071Y176000D01*
X298307Y174207D01*
X298999Y172535D01*
X300100Y171100D01*
X301535Y169999D01*
X303207Y169307D01*
X303923Y169213D01*
X304378Y167872D01*
X300391Y163885D01*
X278174D01*
X277648Y165155D01*
X280747Y168253D01*
X281589Y169513D01*
X281885Y171000D01*
Y227000D01*
X281589Y228487D01*
X280747Y229747D01*
X273247Y237247D01*
X271987Y238089D01*
X270500Y238385D01*
X258290D01*
Y241290D01*
X243710D01*
Y236385D01*
X225431D01*
X224725Y237441D01*
X224963Y238017D01*
X225200Y239810D01*
X224963Y241604D01*
X224271Y243275D01*
X223170Y244710D01*
X221735Y245811D01*
X220064Y246503D01*
X218884Y246658D01*
X218929Y247000D01*
X218693Y248793D01*
X218001Y250465D01*
X216900Y251900D01*
X215465Y253001D01*
X213793Y253693D01*
X212000Y253929D01*
X210207Y253693D01*
X208535Y253001D01*
X207709Y253968D01*
X206994Y254899D01*
X205559Y256000D01*
X203888Y256693D01*
X202094Y256929D01*
X200301Y256693D01*
X198630Y256000D01*
X197423Y255075D01*
X195713D01*
X194946Y256345D01*
X195155Y257395D01*
Y265220D01*
X197710D01*
Y263710D01*
X212290D01*
Y268635D01*
X217270D01*
X217645Y268710D01*
X228540D01*
Y277296D01*
X228859Y277615D01*
X231237D01*
X231800Y277503D01*
X238500D01*
X239628Y277728D01*
X240583Y278366D01*
X241222Y279322D01*
X241447Y280450D01*
Y282550D01*
X241222Y283678D01*
X241007Y284000D01*
X241222Y284322D01*
X241447Y285450D01*
Y287550D01*
X241222Y288678D01*
X241007Y289000D01*
X241222Y289322D01*
X241447Y290450D01*
Y292550D01*
X241222Y293678D01*
X241007Y294000D01*
X241222Y294322D01*
X241447Y295450D01*
Y297550D01*
X241222Y298678D01*
X240583Y299634D01*
X239628Y300272D01*
X239035Y300390D01*
Y302541D01*
X240609Y304115D01*
X296729D01*
X310115Y290729D01*
D02*
G37*
G36*
X243710Y220796D02*
Y212710D01*
X258290D01*
Y215615D01*
X259710D01*
Y199710D01*
X264115D01*
Y193885D01*
X247773D01*
X247670Y194134D01*
X246569Y195569D01*
X245134Y196670D01*
X243462Y197362D01*
X241669Y197598D01*
X241290Y197931D01*
Y206710D01*
Y220290D01*
X232204D01*
X230052Y222442D01*
X230538Y223615D01*
X240891D01*
X243710Y220796D01*
D02*
G37*
G36*
X-119000Y204393D02*
X-121677Y201716D01*
X-122804Y200029D01*
X-123200Y198039D01*
X-123200Y198039D01*
Y192140D01*
X-123540D01*
Y176000D01*
X-131000Y176000D01*
X-139000Y184000D01*
Y190460D01*
X-137710D01*
Y205540D01*
X-136960Y206460D01*
X-136960D01*
Y225540D01*
X-139000D01*
X-139000Y244820D01*
X-119000D01*
Y204393D01*
D02*
G37*
G36*
X-20000Y220000D02*
X-6000Y206000D01*
X-6000Y191290D01*
X-6290D01*
Y181710D01*
X-15737Y172263D01*
X-17423Y171405D01*
X-18876Y170098D01*
X-19279Y169876D01*
X-20079Y169813D01*
X-20512Y169969D01*
X-22150Y171034D01*
X-24126Y171677D01*
X-26201Y171786D01*
X-28233Y171355D01*
X-30084Y170413D01*
X-31629Y169023D01*
X-32761Y167281D01*
X-33403Y165306D01*
X-33513Y163231D01*
X-33405Y161851D01*
X-33957Y160152D01*
X-34080Y157820D01*
X-33751Y156270D01*
X-34651Y155000D01*
X-71710D01*
Y160944D01*
X-71595Y161520D01*
Y169710D01*
X-64710D01*
Y172365D01*
X-62540D01*
Y169210D01*
X-47460D01*
Y183290D01*
X-62540D01*
Y180135D01*
X-64710D01*
Y183290D01*
X-79290D01*
X-79290Y183290D01*
Y183290D01*
X-80480Y183595D01*
X-82000Y185115D01*
X-82000Y220000D01*
X-20000Y220000D01*
D02*
G37*
G36*
X233023Y136253D02*
X234283Y135411D01*
X235770Y135115D01*
X275065D01*
X304855Y105326D01*
X304095Y104290D01*
X298058D01*
X297000Y104429D01*
X295942Y104290D01*
X289710D01*
Y90710D01*
Y83896D01*
X284907Y79093D01*
X283959Y77674D01*
X283626Y76000D01*
Y49000D01*
X283959Y47326D01*
X284907Y45907D01*
X288110Y42705D01*
X288307Y41207D01*
X288999Y39535D01*
X290100Y38100D01*
X291535Y36999D01*
X293207Y36307D01*
X295000Y36071D01*
X296793Y36307D01*
X297845Y36742D01*
X299115Y35990D01*
Y13589D01*
X274884Y13590D01*
Y61710D01*
X278290D01*
Y74710D01*
Y88290D01*
X269704D01*
X266247Y91747D01*
X264986Y92589D01*
X263500Y92885D01*
X259524D01*
X258948Y93748D01*
X258008Y94375D01*
X256900Y94596D01*
X255100D01*
X254885Y94772D01*
Y98000D01*
X254589Y99487D01*
X253747Y100747D01*
X239747Y114747D01*
X238487Y115589D01*
X237000Y115885D01*
X209609D01*
X204957Y120537D01*
X205443Y121710D01*
X217290D01*
Y124615D01*
X221960D01*
Y120460D01*
X235040D01*
Y133540D01*
X221960D01*
Y132385D01*
X217290D01*
Y148290D01*
X208204D01*
X201127Y155367D01*
X199867Y156209D01*
X198380Y156505D01*
X198340D01*
Y158660D01*
X208190D01*
Y159427D01*
X209363Y159913D01*
X233023Y136253D01*
D02*
G37*
G36*
X317115Y93065D02*
Y89000D01*
X317204Y88553D01*
Y86300D01*
X317425Y85192D01*
X318053Y84253D01*
X318992Y83625D01*
X320100Y83404D01*
X321900D01*
X323008Y83625D01*
X323500Y83953D01*
X323992Y83625D01*
X325100Y83404D01*
X326900D01*
X328008Y83625D01*
X328500Y83953D01*
X328992Y83625D01*
X330100Y83404D01*
X331900D01*
X333008Y83625D01*
X333948Y84253D01*
X334524Y85115D01*
X336891D01*
X338710Y83296D01*
Y74710D01*
Y61710D01*
X342116D01*
Y57038D01*
X340942Y56552D01*
X335477Y62017D01*
X334796Y62472D01*
Y63700D01*
X334575Y64808D01*
X333948Y65747D01*
X333008Y66375D01*
X331900Y66596D01*
X330100D01*
X328992Y66375D01*
X328500Y66047D01*
X328008Y66375D01*
X326900Y66596D01*
X325100D01*
X323992Y66375D01*
X323500Y66047D01*
X323008Y66375D01*
X321900Y66596D01*
X320100D01*
X318992Y66375D01*
X318500Y66047D01*
X318008Y66375D01*
X316900Y66596D01*
X315100D01*
X313992Y66375D01*
X313500Y66047D01*
X313008Y66375D01*
X311900Y66596D01*
X310100D01*
X308992Y66375D01*
X308053Y65747D01*
X307425Y64808D01*
X307204Y63700D01*
Y61097D01*
X307115Y60650D01*
Y59359D01*
X306891Y59135D01*
X304540D01*
Y62290D01*
X292374D01*
Y74188D01*
X295896Y77709D01*
X304000D01*
Y78750D01*
X304290D01*
Y84469D01*
X305560Y85511D01*
X305790Y85465D01*
X307195D01*
X307281Y85033D01*
X308123Y83773D01*
X309000Y83187D01*
Y83250D01*
X312834D01*
X313617Y83773D01*
X313747Y83903D01*
X314589Y85163D01*
X314885Y86650D01*
Y89350D01*
X314796Y89797D01*
Y91700D01*
X314575Y92808D01*
X313948Y93748D01*
X313008Y94375D01*
X311900Y94596D01*
X310100D01*
X308992Y94375D01*
X308053Y93748D01*
X306670Y93964D01*
X305867Y94767D01*
X305445Y95049D01*
X304290Y96203D01*
Y104094D01*
X305326Y104854D01*
X317115Y93065D01*
D02*
G37*
G36*
X242115D02*
Y89000D01*
X242204Y88553D01*
Y86300D01*
X242425Y85192D01*
X243053Y84253D01*
X243992Y83625D01*
X245100Y83404D01*
X246900D01*
X248008Y83625D01*
X248500Y83953D01*
X248992Y83625D01*
X250100Y83404D01*
X251900D01*
X253008Y83625D01*
X253500Y83953D01*
X253992Y83625D01*
X255100Y83404D01*
X256900D01*
X258008Y83625D01*
X258948Y84253D01*
X259524Y85115D01*
X261891D01*
X263710Y83296D01*
Y74710D01*
Y61710D01*
X267115D01*
Y57038D01*
X265942Y56552D01*
X260477Y62017D01*
X259796Y62472D01*
Y63700D01*
X259575Y64808D01*
X258948Y65747D01*
X258008Y66375D01*
X256900Y66596D01*
X255100D01*
X253992Y66375D01*
X253500Y66047D01*
X253008Y66375D01*
X251900Y66596D01*
X250100D01*
X248992Y66375D01*
X248500Y66047D01*
X248008Y66375D01*
X246900Y66596D01*
X245100D01*
X243992Y66375D01*
X243500Y66047D01*
X243008Y66375D01*
X241900Y66596D01*
X240100D01*
X238992Y66375D01*
X238500Y66047D01*
X238008Y66375D01*
X236900Y66596D01*
X235100D01*
X233992Y66375D01*
X233053Y65747D01*
X232425Y64808D01*
X232204Y63700D01*
Y61097D01*
X232115Y60650D01*
Y59359D01*
X231891Y59135D01*
X229540D01*
Y62290D01*
X217374D01*
Y74188D01*
X220896Y77710D01*
X229000D01*
Y78750D01*
X229290D01*
Y84469D01*
X230560Y85511D01*
X230790Y85465D01*
X232195D01*
X232281Y85033D01*
X233123Y83773D01*
X234000Y83187D01*
Y83250D01*
X237834D01*
X238617Y83773D01*
X238747Y83903D01*
X239589Y85163D01*
X239885Y86650D01*
Y89350D01*
X239796Y89797D01*
Y91700D01*
X239575Y92808D01*
X238948Y93748D01*
X238008Y94375D01*
X236900Y94596D01*
X235100D01*
X233992Y94375D01*
X233053Y93748D01*
X231670Y93964D01*
X230867Y94767D01*
X230445Y95049D01*
X229290Y96203D01*
Y103115D01*
X232065D01*
X242115Y93065D01*
D02*
G37*
G36*
X383000Y140000D02*
X383000Y19000D01*
X375000Y10999D01*
X375000Y-27000D01*
X346885D01*
Y-26000D01*
X346589Y-24513D01*
X345747Y-23253D01*
X342597Y-20103D01*
X341337Y-19261D01*
X339850Y-18965D01*
X338390D01*
Y-16860D01*
X309610D01*
Y-27000D01*
X284125D01*
X283305Y-25730D01*
X283693Y-24793D01*
X283929Y-23000D01*
X283693Y-21207D01*
X283001Y-19535D01*
X281900Y-18100D01*
X280465Y-16999D01*
X278793Y-16307D01*
X277000Y-16071D01*
X275207Y-16307D01*
X273871Y-16860D01*
X245610D01*
Y-27000D01*
X218506D01*
X217945Y-25861D01*
X218001Y-25788D01*
X218693Y-24116D01*
X218929Y-22323D01*
X218693Y-20530D01*
X218001Y-18858D01*
X216900Y-17423D01*
X215465Y-16322D01*
X213793Y-15630D01*
X212000Y-15394D01*
X210207Y-15630D01*
X208535Y-16322D01*
X207834Y-16860D01*
X181610D01*
Y-27000D01*
X146000D01*
X146000Y-1999D01*
X159000Y11000D01*
X322999Y11000D01*
X331115Y19115D01*
X338000D01*
X339487Y19411D01*
X340747Y20253D01*
X343747Y23253D01*
X344589Y24513D01*
X344885Y26000D01*
Y32885D01*
X351000Y39000D01*
X351000Y74710D01*
X353290D01*
Y88290D01*
X351000D01*
Y93000D01*
X338000Y106000D01*
X338000Y140000D01*
X383000Y140000D01*
D02*
G37*
G36*
X201110Y-28540D02*
X209058D01*
X210207Y-29016D01*
X212000Y-29252D01*
X212345Y-29207D01*
X213300Y-30044D01*
X213300Y-68500D01*
D01*
Y-74200D01*
D01*
Y-76000D01*
X207850D01*
Y-76000D01*
X184150D01*
Y-76000D01*
X178700D01*
X178700Y-29590D01*
X181610D01*
X182601Y-29393D01*
X183441Y-28831D01*
X184002Y-27991D01*
X184200Y-27000D01*
Y-19450D01*
X201110D01*
Y-28540D01*
D02*
G37*
G36*
X329110Y-28540D02*
X338390D01*
X339115Y-29509D01*
Y-50321D01*
X338100Y-51100D01*
X336999Y-52535D01*
X336307Y-54207D01*
X336071Y-56000D01*
X336307Y-57793D01*
X336999Y-59465D01*
X338100Y-60900D01*
X339535Y-62001D01*
X341207Y-62693D01*
X341300Y-62705D01*
Y-68500D01*
X341300D01*
Y-74200D01*
X341300D01*
Y-76000D01*
X306700Y-76000D01*
Y-74200D01*
Y-68500D01*
Y-29590D01*
X309610D01*
X310601Y-29393D01*
X311441Y-28831D01*
X312002Y-27991D01*
X312200Y-27000D01*
Y-19450D01*
X329110D01*
Y-28540D01*
D02*
G37*
G36*
X265110Y-28540D02*
X272935D01*
X273535Y-29001D01*
X275207Y-29693D01*
X277000Y-29929D01*
X277300Y-30192D01*
X277300Y-68500D01*
X277300D01*
Y-74200D01*
X277300D01*
Y-76000D01*
X260000Y-76000D01*
X248150D01*
Y-76000D01*
X242700D01*
X242700Y-29590D01*
X245610D01*
X246601Y-29393D01*
X247441Y-28831D01*
X248002Y-27991D01*
X248200Y-27000D01*
Y-19450D01*
X265110D01*
Y-28540D01*
D02*
G37*
G36*
X329110Y-82000D02*
Y-91540D01*
X330000D01*
X330000Y-104000D01*
X312000Y-104000D01*
X312000Y-82000D01*
X329110Y-82000D01*
D02*
G37*
G36*
X265110D02*
Y-91540D01*
X266000D01*
X266000Y-104000D01*
X248000Y-104000D01*
X248000Y-82000D01*
X265110Y-82000D01*
D02*
G37*
G36*
X201110Y-82000D02*
Y-91540D01*
X202000D01*
X202000Y-104000D01*
X184000Y-104000D01*
X184000Y-82000D01*
X201110Y-82000D01*
D02*
G37*
D12*
X271604Y-127904D02*
Y-124696D01*
D13*
X92500Y314500D02*
G03*
X87379Y312379I0J-7243D01*
G01*
X304488Y0D02*
X318000D01*
X303000Y1488D02*
X304488Y0D01*
X303000Y1488D02*
Y49750D01*
X269750Y-22700D02*
X269900Y-22850D01*
X276850D02*
X277000Y-23000D01*
X269900Y-22850D02*
X276850D01*
X164750Y124000D02*
Y141000D01*
X164000Y124000D02*
X164750D01*
X221000Y279000D02*
X221000D01*
X221500Y275750D02*
X227250Y281500D01*
X221000Y275750D02*
X221500D01*
X208500Y286500D02*
X235150D01*
X205500Y283500D02*
X208500Y286500D01*
X221000Y275750D02*
Y279000D01*
X177860Y281390D02*
X182500Y276750D01*
X183000D01*
Y281000D01*
X151750Y276750D02*
Y277000D01*
Y276750D02*
X152000D01*
X343000Y-56000D02*
Y-26000D01*
X339850Y-22850D02*
X343000Y-26000D01*
X300730Y52020D02*
X303000Y49750D01*
X316000Y32250D02*
X316500D01*
X300730Y52020D02*
Y52020D01*
X297500Y55250D02*
X300730Y52020D01*
X297000Y55250D02*
X297500D01*
X297000D02*
Y55250D01*
X311000Y57750D02*
Y60650D01*
X308500Y55250D02*
X311000Y57750D01*
X297000Y55250D02*
X308500D01*
X243500Y127000D02*
X253147Y117353D01*
Y115853D02*
Y117353D01*
Y115853D02*
X254000Y115000D01*
X331000Y89000D02*
X338500D01*
X342520Y84980D01*
Y84480D02*
Y84980D01*
Y84480D02*
X345500Y81500D01*
X346000D01*
X305000Y176000D02*
Y230046D01*
X314000Y172000D02*
Y292338D01*
X302000Y160000D02*
X314000Y172000D01*
X257000Y160000D02*
X302000D01*
X321000Y170000D02*
Y293000D01*
X242207Y154000D02*
X305000D01*
X321000Y170000D01*
X331500Y45500D02*
X332000D01*
X357408Y-9000D02*
X361000D01*
X346000Y6000D02*
Y68500D01*
X332730Y59270D02*
X341000Y51000D01*
X331070Y59270D02*
X332730D01*
X352178Y-3770D02*
X357408Y-9000D01*
X341000Y26000D02*
Y51000D01*
X346000Y6000D02*
X352178Y-178D01*
X331000Y59340D02*
Y61000D01*
X352178Y-3770D02*
Y-178D01*
X331000Y59340D02*
X331070Y59270D01*
X338000Y23000D02*
X341000Y26000D01*
X256500Y45500D02*
X257000D01*
X147250Y55000D02*
X150000Y52250D01*
X196000Y-1000D02*
Y0D01*
X182730Y59270D02*
X191000Y51000D01*
X187000Y23000D02*
X191000Y27000D01*
X150000Y35000D02*
X153000Y32000D01*
X181070Y59270D02*
X182730D01*
X191000Y27000D02*
Y51000D01*
X196000Y0D02*
Y68500D01*
X153000Y5001D02*
Y32000D01*
X150000Y35000D02*
Y52250D01*
X195000Y-2000D02*
X196000Y-1000D01*
X158000Y0D02*
X196000D01*
X181000Y59340D02*
Y61000D01*
X196000Y0D02*
X196000D01*
X153000Y5001D02*
X158000Y0D01*
X181000Y59340D02*
X181070Y59270D01*
X222000Y97500D02*
Y97500D01*
X171000Y75000D02*
X171000D01*
X236000Y57750D02*
Y60650D01*
X233500Y55250D02*
X236000Y57750D01*
X222000Y55250D02*
X233500D01*
X222000Y37510D02*
Y55250D01*
Y37510D02*
X228000Y31510D01*
Y-1000D02*
Y31510D01*
Y-1000D02*
X255000D01*
X161000Y58000D02*
Y61000D01*
X158000Y55000D02*
X161000Y58000D01*
X147250Y55000D02*
X158000D01*
X147000Y97500D02*
X147500D01*
X150480Y94520D01*
Y94370D02*
Y94520D01*
Y94370D02*
X155850Y89000D01*
X160930D01*
X176000D02*
Y118000D01*
X179500Y121500D02*
Y155650D01*
X176000Y118000D02*
X179500Y121500D01*
X171000Y89000D02*
Y120685D01*
X326000Y89000D02*
Y97000D01*
X278000Y145000D02*
X326000Y97000D01*
X321000Y89000D02*
Y94675D01*
X276674Y139000D02*
X321000Y94675D01*
X251000Y89000D02*
Y98000D01*
X237000Y112000D02*
X251000Y98000D01*
X246000Y89000D02*
Y94675D01*
X233675Y107000D02*
X246000Y94675D01*
X271000Y-2000D02*
Y68500D01*
X270000Y-3000D02*
X271000Y-2000D01*
X175250Y23000D02*
X187000D01*
X256000Y89000D02*
X263500D01*
X267520Y84980D01*
Y84480D02*
Y84980D01*
Y84480D02*
X270500Y81500D01*
X271000D01*
X181000Y89000D02*
X188500D01*
X192520Y84980D01*
Y84480D02*
Y84980D01*
Y84480D02*
X195500Y81500D01*
X196000D01*
X250250Y23000D02*
X262000D01*
X266000Y27000D02*
Y51000D01*
X262000Y23000D02*
X266000Y27000D01*
X244730Y28520D02*
X250250Y23000D01*
X316500Y32250D02*
X319730Y29020D01*
Y28520D02*
Y29020D01*
Y28520D02*
X325249Y23000D01*
X338000D01*
X166000Y32250D02*
X166500D01*
X169730Y29020D01*
Y28520D02*
Y29020D01*
Y28520D02*
X175250Y23000D01*
X241000Y32250D02*
X241500D01*
X244730Y29020D01*
Y28520D02*
Y29020D01*
X256000Y59340D02*
Y61000D01*
Y59340D02*
X256070Y59270D01*
X257730D01*
X266000Y51000D01*
X326000Y51500D02*
Y61000D01*
X328520Y48480D02*
X331500Y45500D01*
X328520Y48480D02*
Y48980D01*
X326000Y51500D02*
X328520Y48980D01*
X321000Y50750D02*
Y61000D01*
X319730Y49480D02*
X321000Y50750D01*
X319730Y48980D02*
Y49480D01*
X316500Y45750D02*
X319730Y48980D01*
X316000Y45750D02*
X316500D01*
X253520Y48480D02*
X256500Y45500D01*
X251000Y51500D02*
Y61000D01*
X253520Y48480D02*
Y48980D01*
X251000Y51500D02*
X253520Y48980D01*
X241969Y46436D02*
X246000Y50468D01*
X241687Y46436D02*
X241969D01*
X241000Y45750D02*
X241687Y46436D01*
X246000Y50468D02*
Y61000D01*
X176000Y51500D02*
Y61000D01*
Y51500D02*
X178520Y48980D01*
Y48480D02*
Y48980D01*
Y48480D02*
X181500Y45500D01*
X182000D01*
X171000Y50750D02*
Y61000D01*
X169730Y49480D02*
X171000Y50750D01*
X169730Y48980D02*
Y49480D01*
X166500Y45750D02*
X169730Y48980D01*
X166000Y45750D02*
X166500D01*
X205750Y-22700D02*
X205938Y-22512D01*
X211811D02*
X212000Y-22323D01*
X205938Y-22512D02*
X211811D01*
X-30900Y332000D02*
X-7500D01*
X1500Y322500D02*
X2000D01*
X-1480Y325480D02*
X1500Y322500D01*
X-7500Y332000D02*
X-1480Y325980D01*
Y325480D02*
Y325980D01*
X-46900Y316000D02*
X-30900Y332000D01*
X-15000Y309500D02*
X2000D01*
X-21500Y316000D02*
X-15000Y309500D01*
X-123100Y316000D02*
X-86100Y353000D01*
X-4000D02*
X23000Y326000D01*
X-86100Y353000D02*
X-4000D01*
X-97700Y316000D02*
X-65700Y348000D01*
X-10000D02*
X23170Y314830D01*
X-65700Y348000D02*
X-10000D01*
X23170Y314830D02*
X23170D01*
X23000Y326000D02*
X23000D01*
X230000Y152000D02*
X237000Y145000D01*
X230000Y152000D02*
X230000D01*
X237000Y145000D02*
X278000D01*
X201350Y172500D02*
X209500D01*
X230000Y152000D01*
X201380Y167470D02*
X207300D01*
X235770Y139000D01*
X240207Y156000D02*
X242207Y154000D01*
X239000Y156000D02*
X240207D01*
X217000Y186793D02*
Y188000D01*
Y186793D02*
X218250Y185543D01*
Y177000D02*
Y185543D01*
X201350Y167500D02*
X201380Y167470D01*
X235770Y139000D02*
X276674D01*
X240927Y177073D02*
Y181073D01*
X243690Y174310D02*
X253690D01*
X240927Y177073D02*
X243690Y174310D01*
X232490Y189510D02*
X240927Y181073D01*
X232490Y189510D02*
Y198990D01*
X242338Y190000D02*
X268000D01*
X241669Y190669D02*
X242338Y190000D01*
X240000Y166000D02*
X251000D01*
X257000Y160000D01*
X140826Y131000D02*
X141129D01*
X134000Y137825D02*
X140826Y131000D01*
X134000Y137825D02*
Y143881D01*
X139470Y149351D01*
Y155620D01*
X282001Y294000D02*
X291000D01*
X282001Y293999D02*
X282001Y294000D01*
X281999Y283999D02*
X291999D01*
X275500Y286500D02*
X278001Y283999D01*
X281999D01*
X282000Y294000D02*
X282001Y293999D01*
X278000Y294000D02*
X282000D01*
X275500Y291500D02*
X278000Y294000D01*
X298338Y308000D02*
X314000Y292338D01*
X300000Y314000D02*
X321000Y293000D01*
X239000Y308000D02*
X298338D01*
X237000Y314000D02*
X300000D01*
X226052Y303052D02*
X237000Y314000D01*
X235150Y304150D02*
X239000Y308000D01*
X108017Y131017D02*
X124500Y147500D01*
X107949Y131017D02*
X108017D01*
X117000Y128000D02*
X129500Y140500D01*
Y155650D01*
X124500Y147500D02*
Y155650D01*
X119500Y152726D02*
Y155650D01*
X119470Y152696D02*
X119500Y152726D01*
X116546Y152696D02*
X119470D01*
X114054Y150204D02*
X116546Y152696D01*
X109204Y150204D02*
X114054D01*
X109000Y150000D02*
X109204Y150204D01*
X140853Y141310D02*
X141310Y140853D01*
X140853Y141310D02*
Y144696D01*
X144500Y148342D02*
Y155650D01*
X140853Y144696D02*
X144500Y148342D01*
X99500Y281000D02*
Y294750D01*
Y271500D02*
Y281000D01*
X106000D01*
X117204Y282046D02*
X126928Y272322D01*
X107480Y291770D02*
X117204Y282046D01*
X163566Y328409D02*
X194409D01*
X117204Y282046D02*
X163566Y328409D01*
X194409D02*
X243000Y377000D01*
X283000Y376250D02*
Y377000D01*
X183000Y276750D02*
X183500D01*
X99000Y334750D02*
X99500Y334250D01*
X110750Y349500D02*
X113980Y346270D01*
X161Y144661D02*
Y160503D01*
X-2020Y142480D02*
X161Y144661D01*
X-2520Y142480D02*
X-2020D01*
X-5500Y139500D02*
X-2520Y142480D01*
X-5500Y139000D02*
Y139500D01*
X97750Y211750D02*
X98500Y212500D01*
X40000Y280000D02*
X55000Y265000D01*
X40000Y322000D02*
X52250Y334250D01*
X40000Y280000D02*
Y322000D01*
X-53000Y293000D02*
X12000D01*
X56500Y240000D02*
Y248500D01*
X12000Y293000D02*
X56500Y248500D01*
X33000Y280000D02*
Y332000D01*
X54000Y259000D02*
X118000D01*
X33000Y280000D02*
X54000Y259000D01*
X55000Y265000D02*
X119000D01*
X118000Y259000D02*
X124470Y252530D01*
X119000Y265000D02*
X129470Y254530D01*
Y244380D02*
Y254530D01*
X124470Y244380D02*
Y252530D01*
X134470Y244380D02*
Y256530D01*
X100000Y271000D02*
X120000D01*
X134470Y256530D01*
X136980Y280520D02*
X139754D01*
X143274Y277000D01*
X151750D01*
X134500Y270500D02*
X139500Y265500D01*
X134000Y283500D02*
X136980Y280520D01*
X104500Y292250D02*
Y294750D01*
Y292250D02*
X104980Y291770D01*
X107480D01*
X126928Y272322D02*
X132178D01*
X134000Y270500D01*
X139500Y244350D02*
Y265500D01*
X-138000Y-13250D02*
Y-3000D01*
Y-13250D02*
X-134480Y-16770D01*
Y-30520D02*
Y-16770D01*
Y-30520D02*
X-131500Y-33500D01*
X104838Y172500D02*
X112650D01*
X99338Y167000D02*
X104838Y172500D01*
X99000Y167000D02*
X99338D01*
X104838Y182500D02*
X112650D01*
X99338Y177000D02*
X104838Y182500D01*
X99000Y177000D02*
X99338D01*
X112620Y187470D02*
X112650Y187500D01*
X99470Y187470D02*
X112620D01*
X99000Y187000D02*
X99470Y187470D01*
X8000Y288000D02*
X47000Y249000D01*
Y233500D02*
Y249000D01*
Y233500D02*
X53020Y227480D01*
X56500Y224000D02*
Y224500D01*
X53520Y227480D02*
X56500Y224500D01*
X53020Y227480D02*
X53520D01*
X-68000Y258000D02*
X-38000Y288000D01*
X8000D01*
X-88000Y258000D02*
X-53000Y293000D01*
X59000Y321750D02*
X59500D01*
X56221Y318971D02*
X59000Y321750D01*
X59500D02*
X64270Y326520D01*
X-142000Y-99000D02*
X-133570Y-90570D01*
X-170500Y-99000D02*
X-142000D01*
X-133570Y-90570D02*
X-131891D01*
X-170500Y-126300D02*
Y-99000D01*
Y-70000D01*
Y-126300D02*
X-70000D01*
X-135491Y-80101D02*
X-129170Y-73780D01*
X-119841D02*
X-119250Y-74371D01*
X-129170Y-73780D02*
X-119841D01*
X-139081Y-80101D02*
X-135491D01*
X-147000Y-72182D02*
X-141547Y-77635D01*
X-147000Y-50750D02*
X-146500D01*
X-147000Y-72182D02*
Y-50750D01*
X-119829Y-94617D02*
X-112750Y-87538D01*
X-119829Y-96166D02*
Y-94617D01*
X-124701Y-101039D02*
X-119829Y-96166D01*
X-141547Y-77635D02*
Y-77635D01*
X124250Y-64371D02*
X125353Y-65474D01*
X124250Y-64371D02*
X133455Y-55166D01*
X124250Y-64371D02*
X124250D01*
X133455Y-55166D02*
X147556D01*
X149860Y-57471D01*
X125250Y-80393D02*
X138918D01*
X117750Y-75629D02*
X120486D01*
X125250Y-80393D01*
Y-96000D02*
Y-80393D01*
X-150238Y-47512D02*
X-147000Y-50750D01*
X-112750Y-87538D02*
Y-82306D01*
X-110471Y-80028D01*
Y-66529D01*
X-130500Y-46500D02*
X-110471Y-66529D01*
X-131000Y-46500D02*
X-130500D01*
X-63000Y159750D02*
X-46750D01*
X-45000Y158000D01*
X-95000Y158500D02*
X-78500D01*
X-75480Y161520D01*
Y173520D01*
X-72500Y176500D02*
X-72000D01*
X-75480Y173520D02*
X-72500Y176500D01*
X-127500Y145162D02*
Y159150D01*
Y145162D02*
X-121028Y138690D01*
X-114159D01*
X-107349Y145500D01*
X-95000D01*
X-25161Y158519D02*
X-23182Y156540D01*
Y144182D02*
Y156540D01*
Y144182D02*
X-18500Y139500D01*
Y139000D02*
Y139500D01*
X220500Y275750D02*
X221000D01*
X205000Y270500D02*
X207020Y272520D01*
X203604Y269104D02*
X205000Y270500D01*
X210793Y247000D02*
X212000D01*
X206483Y242689D02*
X210793Y247000D01*
X194530Y242689D02*
X206483D01*
X194500Y242719D02*
X194530Y242689D01*
X194500Y242719D02*
Y244350D01*
X261310Y166690D02*
X273690D01*
X253690Y174310D02*
X261310Y166690D01*
X268000Y174000D02*
Y190000D01*
Y203500D01*
X232490Y198990D02*
X234000Y200500D01*
X201350Y237500D02*
X214753D01*
X217063Y239810D01*
X218270D01*
X201793Y250000D02*
X202094D01*
X200602Y251190D02*
X201793Y250000D01*
X192148Y251190D02*
X200602D01*
X163000Y253793D02*
Y255000D01*
X163798Y274080D02*
X174500Y263378D01*
Y244350D02*
Y263378D01*
X179500Y260020D02*
X182730Y263250D01*
X179500Y244350D02*
Y260020D01*
X184500Y253992D02*
X185988Y255480D01*
X184500Y244350D02*
Y253992D01*
X-83000Y379000D02*
X-14000D01*
X33000Y332000D01*
X124470Y244380D02*
X124500Y244350D01*
X-130000Y379000D02*
X-83000D01*
X-130230D02*
X-130000D01*
X245000Y289000D02*
X245000D01*
X83500Y237500D02*
X112590D01*
X70000Y225000D02*
X72480Y227480D01*
X70000Y224500D02*
Y225000D01*
X73480Y227480D02*
X83500Y237500D01*
X72480Y227480D02*
X73480D01*
X119500Y243173D02*
Y244350D01*
X69500Y240000D02*
Y240163D01*
X72480Y243143D01*
X119470D01*
X119500Y243173D01*
X210000Y128500D02*
X227000D01*
X228500Y127000D01*
X209500Y141500D02*
X210000D01*
X198380Y152620D02*
X209500Y141500D01*
X194530Y152620D02*
X198380D01*
X194500Y152650D02*
X194530Y152620D01*
X194500Y152650D02*
Y155650D01*
X139470Y155620D02*
X139500Y155650D01*
X226052Y294948D02*
Y303052D01*
X229370Y291630D02*
X235020D01*
X226052Y294948D02*
X229370Y291630D01*
X235020D02*
X235150Y291500D01*
Y296500D02*
Y304150D01*
X268046Y267000D02*
X305000Y230046D01*
X256750Y267000D02*
X268046D01*
X254850Y286500D02*
X275500D01*
X254850Y291500D02*
X275500D01*
X121500Y232500D02*
X124000Y235000D01*
X186000Y236000D02*
X189000D01*
X121500Y232500D02*
X121500Y232500D01*
X193488Y207500D02*
X201350D01*
X149470Y238860D02*
Y244320D01*
X112650Y227500D02*
X121500D01*
X189500Y244350D02*
Y247350D01*
X118530Y212530D02*
X122000Y216000D01*
X170310Y251972D02*
Y258028D01*
X154500Y200000D02*
X157000D01*
X192000Y208988D02*
X193488Y207500D01*
X216147Y188853D02*
X217000Y188000D01*
X145610Y235000D02*
X149470Y238860D01*
X163000Y264540D02*
X163798D01*
X112650Y232500D02*
X121500D01*
X121500Y227500D02*
X122000Y228000D01*
X189500Y247350D02*
X190660Y248510D01*
X112650Y212500D02*
X112680Y212530D01*
X163000Y274080D02*
X163798D01*
X190660Y248510D02*
Y249702D01*
X184500Y237500D02*
Y244350D01*
X154500Y200000D02*
Y260750D01*
X201350Y192500D02*
X209460D01*
X163798Y264540D02*
X170310Y258028D01*
X189000Y236000D02*
X192000Y233000D01*
X124000Y235000D02*
X145610D01*
X179500Y222500D02*
Y244350D01*
X157000Y200000D02*
X179500Y222500D01*
X163000Y253793D02*
X164500Y252293D01*
X122000Y228000D02*
Y232000D01*
X184500Y237500D02*
X186000Y236000D01*
X192000Y208988D02*
Y233000D01*
X121500Y232500D02*
X122000Y232000D01*
X149470Y244320D02*
X149500Y244350D01*
X164500D02*
Y252293D01*
X122000Y216000D02*
Y228000D01*
X209460Y192500D02*
X213107Y188853D01*
X169500Y244350D02*
Y251162D01*
X112680Y212530D02*
X118530D01*
X190660Y249702D02*
X192148Y251190D01*
X213107Y188853D02*
X216147D01*
X169500Y251162D02*
X170310Y251972D01*
X182730Y263250D02*
X183000D01*
X185988Y255480D02*
X189354D01*
X191270Y257395D01*
Y269104D01*
X201350Y222500D02*
X224500D01*
X189530Y130470D02*
Y155620D01*
X208000Y112000D02*
X237000D01*
X189530Y130470D02*
X208000Y112000D01*
X98750Y197500D02*
X112650D01*
X98000Y198250D02*
X98750Y197500D01*
X201350Y232500D02*
X249000D01*
X251000Y234500D01*
X270500D01*
X143730Y257395D02*
X149500Y251625D01*
Y244350D02*
Y251625D01*
X143730Y257395D02*
Y276544D01*
X242500Y227500D02*
X250500Y219500D01*
X251000D01*
X98500Y212500D02*
X112650D01*
X164750Y141000D02*
Y141500D01*
X129470Y244380D02*
X129500Y244350D01*
X52250Y334250D02*
X79500D01*
X174500Y124185D02*
Y155650D01*
X171000Y120685D02*
X174500Y124185D01*
X211250Y207500D02*
X216500Y212750D01*
X201370Y202480D02*
X213770D01*
X217000Y199250D01*
X224500Y222500D02*
X233500Y213500D01*
X189500Y155650D02*
X189530Y155620D01*
X134470Y244380D02*
X134500Y244350D01*
X112650Y197500D02*
X112650Y197500D01*
X201350Y207500D02*
X211250D01*
X184500Y155650D02*
X184530Y155620D01*
Y127470D02*
Y155620D01*
Y127470D02*
X205000Y107000D01*
X233675D01*
X201350Y227500D02*
X242500D01*
X201350Y202500D02*
X201370Y202480D01*
X159500Y146750D02*
X164750Y141500D01*
X159500Y146750D02*
Y155650D01*
X112590Y237500D02*
X112620Y237470D01*
X112650Y237500D01*
X151250Y141000D02*
X154480Y144230D01*
Y155630D01*
X154500Y155650D01*
X152000Y263250D02*
X154500Y260750D01*
X216500Y212750D02*
X217000D01*
X233500Y213500D02*
X234000D01*
X251000Y219500D02*
X267000D01*
X205000Y283500D02*
X205500D01*
X191270Y269104D02*
X203604D01*
X207020Y272520D02*
X217270D01*
X220500Y275750D01*
X254850Y268900D02*
X256750Y267000D01*
X110750Y349500D02*
Y350000D01*
X47000Y301000D02*
Y314000D01*
X51971Y318971D02*
X56221D01*
X47000Y314000D02*
X51971Y318971D01*
X54500Y293000D02*
X55000D01*
X51520Y295980D02*
X54500Y293000D01*
X51520Y295980D02*
Y296480D01*
X47000Y301000D02*
X51520Y296480D01*
X99500Y271500D02*
X100000Y271000D01*
X55000Y280000D02*
X55500D01*
X64500Y271000D01*
X100000D01*
X151750Y277000D02*
X152000Y276750D01*
X81000Y361750D02*
X84230Y358520D01*
X89230D01*
X94500Y353250D01*
Y347250D02*
Y353250D01*
X81000Y348250D02*
X84230Y345020D01*
X86730D01*
X89500Y342250D01*
Y334250D02*
Y342250D01*
X92500Y314500D02*
X104520Y302480D01*
X92000Y314500D02*
X94500Y317000D01*
X77000Y302000D02*
X87379Y312379D01*
X94500Y334250D02*
Y347250D01*
Y317000D02*
Y334250D01*
X103710Y342460D02*
X110750Y349500D01*
X100988Y342460D02*
X103710D01*
X99500Y340972D02*
X100988Y342460D01*
X99500Y334250D02*
Y340972D01*
X94500Y347250D02*
X97250Y350000D01*
X92000Y314500D02*
X92500D01*
X84500D02*
Y334250D01*
X72000Y302000D02*
X72480Y302480D01*
X72210D02*
X72480D01*
X72000Y302000D02*
X77000D01*
X71730D02*
X72210Y302480D01*
X84500Y314500D02*
X92000D01*
X71250Y301520D02*
X71730Y302000D01*
X65250D02*
X71730D01*
X62730Y304520D02*
X65250Y302000D01*
X62730Y304520D02*
Y305020D01*
X59500Y308250D02*
X62730Y305020D01*
X59000Y308250D02*
X59500D01*
X71250Y282000D02*
Y301520D01*
X84500Y282250D02*
Y294750D01*
Y282250D02*
X84750Y282000D01*
X64270Y326520D02*
X71520D01*
X72000Y327000D01*
X111520Y302480D02*
X112000Y302000D01*
X104520Y302480D02*
X111520D01*
X273690Y166690D02*
X278000Y171000D01*
X270500Y234500D02*
X278000Y227000D01*
Y171000D02*
Y227000D01*
X266000Y205500D02*
X268000Y203500D01*
X266000Y205500D02*
X267000Y206500D01*
X321000Y-99000D02*
X321000D01*
X257000D02*
X257000D01*
X321000Y75000D02*
X321000D01*
X246000D02*
X246000D01*
X168000Y281390D02*
X168000Y281390D01*
X177860D01*
X152500Y276750D02*
X157140Y281390D01*
X168000D01*
X183000Y276750D02*
X186230Y273520D01*
X186854D01*
X191270Y269104D01*
X97750Y211750D02*
X98000D01*
X-152980Y-31270D02*
X-150730Y-33520D01*
X-154230Y-30020D02*
X-152980Y-31270D01*
Y-18230D01*
X-131500Y-33500D02*
X-131000D01*
X-152980Y-18230D02*
X-149750Y-15000D01*
X211581Y-85660D02*
X211621Y-85621D01*
X205790Y-85660D02*
X211581D01*
X205750Y-85700D02*
X205790Y-85660D01*
X340775Y-85775D02*
X340850Y-85850D01*
X333825Y-85775D02*
X340775D01*
X333750Y-85700D02*
X333825Y-85775D01*
X270334Y-85116D02*
X275884D01*
X269750Y-85700D02*
X270334Y-85116D01*
X333900Y-22850D02*
X339850D01*
X333750Y-22700D02*
X333900Y-22850D01*
X250250Y-58000D02*
X256750D01*
X-150730Y-34020D02*
Y-33520D01*
X-170480Y-30020D02*
X-154230D01*
X-147500Y-37250D02*
X-147000D01*
X-150730Y-34020D02*
X-147500Y-37250D01*
X-170500Y-30000D02*
X-170480Y-30020D01*
X-103120Y164630D02*
X-91500Y176250D01*
X-71750D02*
X-55000D01*
X-101562Y212812D02*
X-100750Y212000D01*
X-103188Y212812D02*
X-101562D01*
X-105480Y210520D02*
X-103188Y212812D01*
X-118000Y146000D02*
Y159150D01*
X-108500D02*
Y162900D01*
X-106770Y164630D01*
X-103120D01*
X-91500Y176250D02*
X-91000D01*
X-72000Y176500D02*
X-71750Y176250D01*
X-91500Y189750D02*
X-91000D01*
X-96020Y194270D02*
X-91500Y189750D01*
X-96020Y194270D02*
Y204520D01*
X-101916Y210416D02*
X-96020Y204520D01*
X-102698Y211198D02*
X-101896Y212000D01*
X-103480Y210416D02*
X-101916D01*
X-101896Y212000D02*
X-100750D01*
X500Y184000D02*
X16500D01*
X227250Y281500D02*
X235150D01*
X-131230Y380000D02*
X-130230Y379000D01*
X311000Y86650D02*
Y89350D01*
X310870Y86520D02*
X311000Y86650D01*
X305790Y89350D02*
X311000D01*
X303120Y92020D02*
X305790Y89350D01*
X297000Y97500D02*
X297500D01*
X296500D02*
X297000D01*
X302980Y92020D02*
X303120D01*
X297500Y97500D02*
X302980Y92020D01*
X236000Y86650D02*
Y89350D01*
X235870Y86520D02*
X236000Y86650D01*
X230790Y89350D02*
X236000D01*
X228120Y92020D02*
X230790Y89350D01*
X222000Y97500D02*
X222500D01*
X221500D02*
X222000D01*
X227980Y92020D02*
X228120D01*
X222500Y97500D02*
X227980Y92020D01*
X254850Y291500D02*
X254850Y291500D01*
X254850Y268900D02*
Y281500D01*
X270000Y-126300D02*
X271604Y-127904D01*
D21*
X288000Y49000D02*
Y76000D01*
X294053Y43000D02*
X295000D01*
X292303Y44750D02*
X294053Y43000D01*
X292250Y44750D02*
X292303D01*
X288000Y49000D02*
X292250Y44750D01*
X288000Y76000D02*
X296500Y84500D01*
X134950Y33050D02*
Y73950D01*
X143000Y82000D02*
X144500D01*
X147000Y84500D01*
X134950Y73950D02*
X143000Y82000D01*
X134950Y33050D02*
X145000Y23000D01*
X296500Y84500D02*
X297000D01*
X213000Y30000D02*
X220000Y23000D01*
X213000Y76000D02*
X221500Y84500D01*
X213000Y30000D02*
Y76000D01*
X221500Y84500D02*
X222000D01*
D24*
X134000Y283500D02*
D03*
X196000Y68500D02*
D03*
Y81500D02*
D03*
X346000Y68500D02*
D03*
Y81500D02*
D03*
X271000Y81500D02*
D03*
Y68500D02*
D03*
X2000Y309500D02*
D03*
Y322500D02*
D03*
X134000Y270500D02*
D03*
X210000Y128500D02*
D03*
Y141500D02*
D03*
X251000Y247500D02*
D03*
Y234500D02*
D03*
Y219500D02*
D03*
Y206500D02*
D03*
X267000D02*
D03*
Y219500D02*
D03*
X234000Y200500D02*
D03*
Y213500D02*
D03*
X-131000Y-33500D02*
D03*
Y-46500D02*
D03*
X55000Y293000D02*
D03*
Y280000D02*
D03*
X-72000Y189500D02*
D03*
Y176500D02*
D03*
X-79000Y158500D02*
D03*
Y145500D02*
D03*
X-95000Y158500D02*
D03*
Y145500D02*
D03*
X147000Y84500D02*
D03*
Y97500D02*
D03*
X182000Y32500D02*
D03*
Y45500D02*
D03*
X332000Y32500D02*
D03*
Y45500D02*
D03*
X297000Y84500D02*
D03*
Y97500D02*
D03*
X222000Y84500D02*
D03*
Y97500D02*
D03*
X257000Y32500D02*
D03*
Y45500D02*
D03*
X205000Y270500D02*
D03*
Y283500D02*
D03*
D25*
X152000Y276750D02*
D03*
X221000Y275750D02*
D03*
X147000Y68750D02*
D03*
Y55250D02*
D03*
X222000Y68750D02*
D03*
Y55250D02*
D03*
X297000Y68750D02*
D03*
Y55250D02*
D03*
X152000Y263250D02*
D03*
X183000D02*
D03*
Y276750D02*
D03*
X239000Y-99000D02*
D03*
X257000D02*
D03*
X59000Y308250D02*
D03*
Y321750D02*
D03*
X81000Y348250D02*
D03*
Y361750D02*
D03*
X-55000Y176250D02*
D03*
Y189750D02*
D03*
X-91000D02*
D03*
Y176250D02*
D03*
X16000Y154250D02*
D03*
Y167750D02*
D03*
X-147000Y-37250D02*
D03*
Y-50750D02*
D03*
X166000Y32250D02*
D03*
Y45750D02*
D03*
X316000Y32250D02*
D03*
Y45750D02*
D03*
X241000Y32250D02*
D03*
Y45750D02*
D03*
X221000Y262250D02*
D03*
X98000Y198250D02*
D03*
Y211750D02*
D03*
X175000Y-99000D02*
D03*
X193000D02*
D03*
X303000D02*
D03*
X321000D02*
D03*
X217000Y212750D02*
D03*
Y199250D02*
D03*
X-63000Y146250D02*
D03*
Y159750D02*
D03*
D26*
X205750Y5000D02*
D03*
X199250D02*
D03*
X192750D02*
D03*
X186250D02*
D03*
X314250Y-58000D02*
D03*
X320750D02*
D03*
X327250D02*
D03*
X333750D02*
D03*
X333750Y5000D02*
D03*
X327250D02*
D03*
X320750D02*
D03*
X314250D02*
D03*
X269750Y5000D02*
D03*
X263250D02*
D03*
X256750D02*
D03*
X250250D02*
D03*
X205750Y-58000D02*
D03*
X199250D02*
D03*
X192750D02*
D03*
X186250D02*
D03*
X250250Y-58000D02*
D03*
X256750D02*
D03*
X263250D02*
D03*
X269750D02*
D03*
D27*
X199250Y-22700D02*
D03*
X192750D02*
D03*
X205750D02*
D03*
X186250D02*
D03*
X314250Y-85700D02*
D03*
X333750D02*
D03*
X320750D02*
D03*
X327250D02*
D03*
X327250Y-22700D02*
D03*
X320750D02*
D03*
X333750D02*
D03*
X314250D02*
D03*
X263250Y-22700D02*
D03*
X256750D02*
D03*
X269750D02*
D03*
X250250D02*
D03*
X199250Y-85700D02*
D03*
X192750D02*
D03*
X205750D02*
D03*
X186250D02*
D03*
X250250Y-85700D02*
D03*
X269750D02*
D03*
X256750D02*
D03*
X263250D02*
D03*
D28*
X311000Y61000D02*
D03*
X316000D02*
D03*
X321000D02*
D03*
X326000D02*
D03*
X331000D02*
D03*
Y89000D02*
D03*
X326000D02*
D03*
X321000D02*
D03*
X316000D02*
D03*
X311000D02*
D03*
X236000Y61000D02*
D03*
X241000D02*
D03*
X246000D02*
D03*
X251000D02*
D03*
X256000D02*
D03*
Y89000D02*
D03*
X251000D02*
D03*
X246000D02*
D03*
X241000D02*
D03*
X236000D02*
D03*
X161000Y61000D02*
D03*
X166000D02*
D03*
X171000D02*
D03*
X176000D02*
D03*
X181000D02*
D03*
Y89000D02*
D03*
X176000D02*
D03*
X171000D02*
D03*
X166000D02*
D03*
X161000D02*
D03*
D29*
X231750Y177000D02*
D03*
X218250D02*
D03*
X-136250Y-15000D02*
D03*
X-149750D02*
D03*
X164750Y141000D02*
D03*
X151250D02*
D03*
X97250Y350000D02*
D03*
X110750D02*
D03*
X84750Y282000D02*
D03*
X71250D02*
D03*
X-131250Y198000D02*
D03*
X-144750D02*
D03*
X138750Y-96000D02*
D03*
X125250D02*
D03*
X256750Y267000D02*
D03*
X243250D02*
D03*
D30*
X352750Y118000D02*
D03*
X413250D02*
D03*
D31*
X144500Y244350D02*
D03*
X194500D02*
D03*
X189500D02*
D03*
X184500D02*
D03*
X179500D02*
D03*
X174500D02*
D03*
X169500D02*
D03*
X164500D02*
D03*
X159500D02*
D03*
X154500D02*
D03*
X149500D02*
D03*
X139500D02*
D03*
X134500D02*
D03*
X129500D02*
D03*
X124500D02*
D03*
X119500D02*
D03*
Y155650D02*
D03*
X124500D02*
D03*
X129500D02*
D03*
X134500D02*
D03*
X139500D02*
D03*
X144500D02*
D03*
X149500D02*
D03*
X154500D02*
D03*
X159500D02*
D03*
X164500D02*
D03*
X169500D02*
D03*
X174500D02*
D03*
X179500D02*
D03*
X184500D02*
D03*
X189500D02*
D03*
X194500D02*
D03*
D32*
X201350Y237500D02*
D03*
Y162500D02*
D03*
Y167500D02*
D03*
Y172500D02*
D03*
Y177500D02*
D03*
Y182500D02*
D03*
Y187500D02*
D03*
Y192500D02*
D03*
Y197500D02*
D03*
Y202500D02*
D03*
Y207500D02*
D03*
Y212500D02*
D03*
Y217500D02*
D03*
Y222500D02*
D03*
Y227500D02*
D03*
Y232500D02*
D03*
X112650Y237500D02*
D03*
Y232500D02*
D03*
Y227500D02*
D03*
Y222500D02*
D03*
Y217500D02*
D03*
Y212500D02*
D03*
Y207500D02*
D03*
Y202500D02*
D03*
Y197500D02*
D03*
Y192500D02*
D03*
Y187500D02*
D03*
Y182500D02*
D03*
Y177500D02*
D03*
Y172500D02*
D03*
Y167500D02*
D03*
Y162500D02*
D03*
D33*
X160000Y-37000D02*
D03*
Y-9000D02*
D03*
X361000D02*
D03*
Y-37000D02*
D03*
D34*
X228500Y127000D02*
D03*
X243500D02*
D03*
X31500Y184000D02*
D03*
X16500D02*
D03*
D35*
X157000Y200000D02*
D03*
D36*
X112000Y302000D02*
D03*
Y307000D02*
D03*
Y312000D02*
D03*
Y317000D02*
D03*
Y322000D02*
D03*
Y327000D02*
D03*
X72000D02*
D03*
Y322000D02*
D03*
Y317000D02*
D03*
Y312000D02*
D03*
Y307000D02*
D03*
Y302000D02*
D03*
D37*
X104500Y334250D02*
D03*
X99500D02*
D03*
X94500D02*
D03*
X89500D02*
D03*
X84500D02*
D03*
X79500D02*
D03*
Y294750D02*
D03*
X84500D02*
D03*
X89500D02*
D03*
X94500D02*
D03*
X99500D02*
D03*
X104500D02*
D03*
D38*
X-108500Y182850D02*
D03*
X-118000D02*
D03*
X-127500D02*
D03*
X-108500Y159150D02*
D03*
X-118000D02*
D03*
X-127500D02*
D03*
D39*
X-146000Y216000D02*
D03*
X-130000D02*
D03*
D40*
X-100750Y212000D02*
D03*
X-75250D02*
D03*
D41*
X-45000Y142000D02*
D03*
Y158000D02*
D03*
D42*
X-112750Y-85629D02*
D03*
X-119250Y-74371D02*
D03*
D43*
X124250Y-64371D02*
D03*
X117750Y-75629D02*
D03*
D44*
X235150Y281500D02*
D03*
Y286500D02*
D03*
Y291500D02*
D03*
Y296500D02*
D03*
X254850D02*
D03*
Y291500D02*
D03*
Y286500D02*
D03*
Y281500D02*
D03*
D45*
X69500Y240000D02*
D03*
X56500D02*
D03*
X69500Y224000D02*
D03*
X56500D02*
D03*
X-18500Y139000D02*
D03*
X-5500D02*
D03*
X-12500Y184000D02*
D03*
X500D02*
D03*
D82*
X245000Y289000D02*
D03*
D83*
X321000Y75000D02*
D03*
X246000D02*
D03*
X171000D02*
D03*
D84*
X92000Y314500D02*
D03*
D85*
X163314Y139564D02*
X164750Y141000D01*
X14060Y156190D02*
X16000Y154250D01*
X3157Y156190D02*
X14060D01*
X161Y159185D02*
X3157Y156190D01*
X161Y159185D02*
Y160503D01*
X-118000Y182850D02*
Y198039D01*
X-105519Y210520D01*
X-105480D01*
D86*
X-32000Y180750D02*
Y191000D01*
X-26633Y189070D02*
X-21562Y184000D01*
X-12500D01*
X-26633Y189070D02*
Y190633D01*
X-27000Y191000D02*
X-26633Y190633D01*
X-27000Y191000D02*
Y202000D01*
X-48147Y214853D02*
X-48147D01*
X-37367Y204074D01*
Y202367D02*
Y204074D01*
Y202367D02*
X-37000Y202000D01*
X-51503Y218210D02*
X-48147Y214853D01*
X-40630Y172120D02*
X-32000Y180750D01*
X-40630Y161960D02*
Y172120D01*
X-44590Y158000D02*
X-40630Y161960D01*
X-45000Y158000D02*
X-44590D01*
X-55000Y189750D02*
X-54117Y190633D01*
X-55125Y189625D02*
X-55000Y189750D01*
X-37367Y190633D02*
X-37000Y191000D01*
X-54117Y190633D02*
X-37367D01*
X-37000Y191000D02*
X-37000Y191000D01*
X-32000D01*
X-27000D01*
X-37000Y202000D02*
X-27000D01*
X-37000Y193367D02*
Y202000D01*
Y193367D02*
X-36892D01*
X-71875Y189625D02*
X-55125D01*
X-72000Y189500D02*
X-71875Y189625D01*
X-75250Y212000D02*
Y214750D01*
X-71790Y218210D01*
X-51503D01*
X-116000Y250000D02*
X-108000Y258000D01*
X-170500Y250000D02*
X-116000D01*
X-170500D02*
Y270000D01*
X250000Y-146300D02*
X270000D01*
X230000D02*
X250000D01*
X-50000D02*
X-30000D01*
X-70000D02*
X-50000D01*
X-190500Y-70000D02*
Y-50000D01*
Y-30000D01*
Y230000D02*
Y250000D01*
Y270000D01*
D87*
X-17250Y211750D02*
X97750D01*
X-27000Y202000D02*
X-17250Y211750D01*
D88*
X243000Y377000D02*
D03*
X263000D02*
D03*
X283000D02*
D03*
X-88000Y258000D02*
D03*
X-68000D02*
D03*
X374000Y62000D02*
D03*
X-190500Y-30000D02*
D03*
Y-50000D02*
D03*
X-170500Y-30000D02*
D03*
Y-50000D02*
D03*
X-190500Y-70000D02*
D03*
Y270000D02*
D03*
Y250000D02*
D03*
X-170500Y270000D02*
D03*
Y250000D02*
D03*
X-190500Y230000D02*
D03*
X270000Y-126300D02*
D03*
X250000D02*
D03*
X270000Y-146300D02*
D03*
X250000D02*
D03*
X230000Y-126300D02*
D03*
X-30000D02*
D03*
X-50000D02*
D03*
X-30000Y-146300D02*
D03*
X-50000D02*
D03*
X-70000Y-126300D02*
D03*
D89*
X223000Y377000D02*
D03*
X-108000Y258000D02*
D03*
X394000Y62000D02*
D03*
X230000Y-146300D02*
D03*
X-70000D02*
D03*
D90*
X73000Y73000D02*
D03*
Y-73000D02*
D03*
X-73000D02*
D03*
Y73000D02*
D03*
X-97700Y316000D02*
D03*
X-46900D02*
D03*
X-72300D02*
D03*
X-123100D02*
D03*
X-148500D02*
D03*
D91*
X0Y251000D02*
D03*
Y420000D02*
D03*
X-150000Y380000D02*
D03*
X150000D02*
D03*
X420000Y0D02*
D03*
X370000Y370000D02*
D03*
D92*
X-124701Y-101039D02*
D03*
X-139081Y-80101D02*
D03*
X-131891Y-90570D02*
D03*
D93*
X144389Y-68932D02*
D03*
X138918Y-80393D02*
D03*
X149860Y-57471D02*
D03*
D94*
X-25161Y158519D02*
D03*
X161Y160503D02*
D03*
X-12500Y159511D02*
D03*
D95*
X-21500Y316000D02*
D03*
D96*
X325000Y-40000D02*
D03*
X260000D02*
D03*
X196000D02*
D03*
D97*
X-170500Y-70000D02*
D03*
Y230000D02*
D03*
D98*
X317000Y1000D02*
D03*
X331000Y-8000D02*
D03*
Y1000D02*
D03*
X317000Y-8000D02*
D03*
X277000Y-23000D02*
D03*
X366000Y-9000D02*
D03*
X355000D02*
D03*
X153000D02*
D03*
X168000D02*
D03*
X183000Y281000D02*
D03*
X-26816Y179184D02*
D03*
X-36816Y179184D02*
D03*
X164000Y124000D02*
D03*
X221000Y279000D02*
D03*
X151750Y277000D02*
D03*
X134000Y283500D02*
D03*
X343000Y-56000D02*
D03*
X253000Y1000D02*
D03*
X267000D02*
D03*
X253000Y-8000D02*
D03*
X267000D02*
D03*
X203000D02*
D03*
X189000D02*
D03*
X203000Y1000D02*
D03*
X189000D02*
D03*
X295000Y43000D02*
D03*
X316000Y32250D02*
D03*
X297000Y55250D02*
D03*
Y68750D02*
D03*
X231000Y241000D02*
D03*
X254000Y115000D02*
D03*
X305000Y176000D02*
D03*
X331500Y45500D02*
D03*
X256500Y45500D02*
D03*
X181500Y45500D02*
D03*
X182000Y32500D02*
D03*
X297000Y97500D02*
D03*
X222000D02*
D03*
X147000D02*
D03*
X171000Y75000D02*
D03*
X147000Y55250D02*
D03*
X222000Y55250D02*
D03*
X222000Y68750D02*
D03*
X147000D02*
D03*
X220000Y23000D02*
D03*
X257000Y32500D02*
D03*
X332000Y32500D02*
D03*
X241000Y32250D02*
D03*
X212000Y-22323D02*
D03*
X166000Y32250D02*
D03*
X239000Y156000D02*
D03*
X241669Y190669D02*
D03*
X240000Y166000D02*
D03*
X291000Y294000D02*
D03*
Y283999D02*
D03*
X281999D02*
D03*
X282000Y294000D02*
D03*
X107949Y131017D02*
D03*
X117000Y128000D02*
D03*
X109000Y150000D02*
D03*
X141310Y140853D02*
D03*
X141129Y131000D02*
D03*
X106000Y281000D02*
D03*
X137000Y-29500D02*
D03*
X-138000Y-3000D02*
D03*
X99000Y167000D02*
D03*
Y177000D02*
D03*
X99000Y187000D02*
D03*
X-20000Y250000D02*
D03*
X0Y231000D02*
D03*
Y271000D02*
D03*
X20000Y250000D02*
D03*
X-15000Y263000D02*
D03*
X14000Y264000D02*
D03*
Y237000D02*
D03*
X-13000Y236000D02*
D03*
X150000Y400000D02*
D03*
Y360000D02*
D03*
X130000Y379000D02*
D03*
X170000D02*
D03*
X164000Y393000D02*
D03*
X135000Y392000D02*
D03*
X137000Y365000D02*
D03*
X164000Y366000D02*
D03*
X-150000Y400000D02*
D03*
Y360000D02*
D03*
X-170000Y379000D02*
D03*
X-130000D02*
D03*
X-136000Y393000D02*
D03*
X-165000Y392000D02*
D03*
X-163000Y365000D02*
D03*
X-136000Y366000D02*
D03*
X370000Y390000D02*
D03*
Y350000D02*
D03*
X350000Y369000D02*
D03*
X390000D02*
D03*
X384000Y383000D02*
D03*
X355000Y382000D02*
D03*
X357000Y355000D02*
D03*
X384000Y356000D02*
D03*
X420000Y20000D02*
D03*
Y-20000D02*
D03*
X400000Y-1000D02*
D03*
X440000D02*
D03*
X434000Y13000D02*
D03*
X405000Y12000D02*
D03*
X407000Y-15000D02*
D03*
X434000Y-14000D02*
D03*
X14000Y406000D02*
D03*
X-13000Y405000D02*
D03*
X-15000Y432000D02*
D03*
X14000Y433000D02*
D03*
X20000Y419000D02*
D03*
X-20000D02*
D03*
X0Y400000D02*
D03*
Y440000D02*
D03*
X23170Y314830D02*
D03*
X59000Y321750D02*
D03*
X23000Y326000D02*
D03*
X218270Y239810D02*
D03*
X212000Y247000D02*
D03*
X202094Y250000D02*
D03*
X163000Y255000D02*
D03*
X245000Y289000D02*
D03*
X157000Y199000D02*
D03*
X134000Y223000D02*
D03*
X217000Y188000D02*
D03*
X134000Y177000D02*
D03*
X181000Y224000D02*
D03*
X163000Y264540D02*
D03*
X180000Y177000D02*
D03*
X163000Y274080D02*
D03*
X251000Y204500D02*
D03*
X110750Y349500D02*
D03*
X84000Y308000D02*
D03*
Y322000D02*
D03*
X100000D02*
D03*
Y308000D02*
D03*
X268000Y174000D02*
D03*
X321000Y-99000D02*
D03*
X257000D02*
D03*
X321000Y75000D02*
D03*
X246000D02*
D03*
X-48147Y214853D02*
D03*
X340000Y-85850D02*
D03*
X275884Y-85116D02*
D03*
X211621Y-85621D02*
D03*
X-37000Y191000D02*
D03*
X-27000Y191000D02*
D03*
X-118000Y146000D02*
D03*
X-37000Y202000D02*
D03*
X-27000D02*
D03*
X369000Y41000D02*
D03*
X358000Y19000D02*
D03*
X369000Y51000D02*
D03*
Y30000D02*
D03*
Y19000D02*
D03*
X358000Y30000D02*
D03*
Y41000D02*
D03*
Y51000D02*
D03*
X145000Y23000D02*
D03*
X-124000Y240000D02*
D03*
X-134000D02*
D03*
Y230000D02*
D03*
X-124000D02*
D03*
M02*
