G04*
G04 #@! TF.GenerationSoftware,Altium Limited,Altium Designer,24.4.1 (13)*
G04*
G04 Layer_Color=16711935*
%FSLAX44Y44*%
%MOMM*%
G71*
G04*
G04 #@! TF.SameCoordinates,8FCA56C2-8F78-4201-AFF4-6E38B21BD071*
G04*
G04*
G04 #@! TF.FilePolarity,Negative*
G04*
G01*
G75*
%ADD46C,1.2000*%
%ADD47R,1.1532X1.0532*%
%ADD48R,1.2032X1.1032*%
%ADD52R,1.1032X1.2032*%
%ADD69R,1.0532X1.1532*%
%ADD70C,1.5032*%
%ADD71R,1.5032X1.5032*%
%ADD72C,1.8032*%
%ADD73C,5.2032*%
G04:AMPARAMS|DCode=74|XSize=2.3432mm|YSize=1.2732mm|CornerRadius=0mm|HoleSize=0mm|Usage=FLASHONLY|Rotation=214.480|XOffset=0mm|YOffset=0mm|HoleType=Round|Shape=Round|*
%AMOVALD74*
21,1,1.0700,1.2732,0.0000,0.0000,214.48*
1,1,1.2732,0.4410,0.3029*
1,1,1.2732,-0.4410,-0.3029*
%
%ADD74OVALD74*%

G04:AMPARAMS|DCode=75|XSize=2.3432mm|YSize=1.2732mm|CornerRadius=0mm|HoleSize=0mm|Usage=FLASHONLY|Rotation=334.480|XOffset=0mm|YOffset=0mm|HoleType=Round|Shape=Round|*
%AMOVALD75*
21,1,1.0700,1.2732,0.0000,0.0000,334.48*
1,1,1.2732,-0.4828,0.2305*
1,1,1.2732,0.4828,-0.2305*
%
%ADD75OVALD75*%

G04:AMPARAMS|DCode=76|XSize=2.3432mm|YSize=1.2732mm|CornerRadius=0mm|HoleSize=0mm|Usage=FLASHONLY|Rotation=94.480|XOffset=0mm|YOffset=0mm|HoleType=Round|Shape=Round|*
%AMOVALD76*
21,1,1.0700,1.2732,0.0000,0.0000,94.48*
1,1,1.2732,0.0418,-0.5334*
1,1,1.2732,-0.0418,0.5334*
%
%ADD76OVALD76*%

%ADD77R,1.8032X1.8032*%
%ADD78C,1.7032*%
%ADD79C,0.2032*%
%ADD80R,1.5032X1.5032*%
%ADD81C,0.9032*%
%ADD101R,1.6032X1.5032*%
%ADD102R,3.8532X1.8032*%
D46*
X171000Y380000D02*
G03*
X171000Y380000I-21000J0D01*
G01*
X-129000D02*
G03*
X-129000Y380000I-21000J0D01*
G01*
D47*
X137000Y-42500D02*
D03*
Y-29500D02*
D03*
X-15000Y198500D02*
D03*
Y185500D02*
D03*
X-47000Y345500D02*
D03*
Y332500D02*
D03*
D48*
X297000Y68750D02*
D03*
Y55250D02*
D03*
X222000Y68750D02*
D03*
Y55250D02*
D03*
X147000Y55250D02*
D03*
Y68750D02*
D03*
X153000Y-42750D02*
D03*
Y-29250D02*
D03*
X1000Y185250D02*
D03*
Y198750D02*
D03*
X209000Y-143750D02*
D03*
Y-130250D02*
D03*
X-92000Y-145750D02*
D03*
Y-132250D02*
D03*
D52*
X390750Y47000D02*
D03*
X377250D02*
D03*
X-186750Y207000D02*
D03*
X-173250D02*
D03*
X-187750Y-7000D02*
D03*
X-174250D02*
D03*
D69*
X291500Y203000D02*
D03*
X278500D02*
D03*
X278500Y187000D02*
D03*
X291500D02*
D03*
X264000Y203000D02*
D03*
X251000D02*
D03*
X264000Y187000D02*
D03*
X251000D02*
D03*
X-148500Y146000D02*
D03*
X-135500D02*
D03*
D70*
X243000Y377000D02*
D03*
X263000D02*
D03*
X283000D02*
D03*
X-88000Y258000D02*
D03*
X-68000D02*
D03*
X374000Y62000D02*
D03*
X-190500Y-30000D02*
D03*
Y-50000D02*
D03*
X-170500Y-30000D02*
D03*
Y-50000D02*
D03*
X-190500Y-70000D02*
D03*
Y270000D02*
D03*
Y250000D02*
D03*
X-170500Y270000D02*
D03*
Y250000D02*
D03*
X-190500Y230000D02*
D03*
X270000Y-126300D02*
D03*
X250000D02*
D03*
X270000Y-146300D02*
D03*
X250000D02*
D03*
X230000Y-126300D02*
D03*
X-30000D02*
D03*
X-50000D02*
D03*
X-30000Y-146300D02*
D03*
X-50000D02*
D03*
X-70000Y-126300D02*
D03*
D71*
X223000Y377000D02*
D03*
X-108000Y258000D02*
D03*
X394000Y62000D02*
D03*
X230000Y-146300D02*
D03*
X-70000D02*
D03*
D72*
X73000Y73000D02*
D03*
Y-73000D02*
D03*
X-73000D02*
D03*
Y73000D02*
D03*
X-97700Y316000D02*
D03*
X-46900D02*
D03*
X-72300D02*
D03*
X-123100D02*
D03*
X-148500D02*
D03*
D73*
X0Y251000D02*
D03*
Y420000D02*
D03*
X-150000Y380000D02*
D03*
X150000D02*
D03*
X420000Y0D02*
D03*
X370000Y370000D02*
D03*
D74*
X-124701Y-101039D02*
D03*
X-139081Y-80101D02*
D03*
X-131891Y-90570D02*
D03*
D75*
X144389Y-68932D02*
D03*
X138918Y-80393D02*
D03*
X149860Y-57471D02*
D03*
D76*
X-25161Y158519D02*
D03*
X161Y160503D02*
D03*
X-12500Y159511D02*
D03*
D77*
X-21500Y316000D02*
D03*
D78*
X325000Y-40000D02*
D03*
X260000D02*
D03*
X196000D02*
D03*
D79*
X0Y0D02*
D03*
Y-95000D02*
D03*
Y95000D02*
D03*
X-80000Y0D02*
D03*
X80000D02*
D03*
D80*
X-170500Y-70000D02*
D03*
Y230000D02*
D03*
D81*
X297000Y97500D02*
D03*
X222000D02*
D03*
X147000D02*
D03*
D101*
X166000Y17750D02*
D03*
Y46750D02*
D03*
X147000Y118500D02*
D03*
Y89500D02*
D03*
X297000Y118500D02*
D03*
Y89500D02*
D03*
X316000Y17750D02*
D03*
Y46750D02*
D03*
X222000Y118500D02*
D03*
Y89500D02*
D03*
X241000Y17750D02*
D03*
Y46750D02*
D03*
D102*
X310000Y257250D02*
D03*
Y320750D02*
D03*
M02*
