G04*
G04 #@! TF.GenerationSoftware,Altium Limited,Altium Designer,24.4.1 (13)*
G04*
G04 Layer_Color=128*
%FSLAX44Y44*%
%MOMM*%
G71*
G04*
G04 #@! TF.SameCoordinates,8FCA56C2-8F78-4201-AFF4-6E38B21BD071*
G04*
G04*
G04 #@! TF.FilePolarity,Positive*
G04*
G01*
G75*
%ADD24R,0.9500X0.8500*%
%ADD25R,1.0000X0.9000*%
%ADD29R,0.9000X1.0000*%
%ADD45R,0.8500X0.9500*%
%ADD99R,1.4000X1.3000*%
%ADD100R,3.6500X1.6000*%
D24*
X137000Y-42500D02*
D03*
Y-29500D02*
D03*
X-15000Y198500D02*
D03*
Y185500D02*
D03*
X-47000Y345500D02*
D03*
Y332500D02*
D03*
D25*
X297000Y68750D02*
D03*
Y55250D02*
D03*
X222000Y68750D02*
D03*
Y55250D02*
D03*
X147000Y55250D02*
D03*
Y68750D02*
D03*
X153000Y-42750D02*
D03*
Y-29250D02*
D03*
X1000Y185250D02*
D03*
Y198750D02*
D03*
X209000Y-143750D02*
D03*
Y-130250D02*
D03*
X-92000Y-145750D02*
D03*
Y-132250D02*
D03*
D29*
X390750Y47000D02*
D03*
X377250D02*
D03*
X-186750Y207000D02*
D03*
X-173250D02*
D03*
X-187750Y-7000D02*
D03*
X-174250D02*
D03*
D45*
X291500Y203000D02*
D03*
X278500D02*
D03*
X278500Y187000D02*
D03*
X291500D02*
D03*
X264000Y203000D02*
D03*
X251000D02*
D03*
X264000Y187000D02*
D03*
X251000D02*
D03*
X-148500Y146000D02*
D03*
X-135500D02*
D03*
D99*
X166000Y17750D02*
D03*
Y46750D02*
D03*
X147000Y118500D02*
D03*
Y89500D02*
D03*
X297000Y118500D02*
D03*
Y89500D02*
D03*
X316000Y17750D02*
D03*
Y46750D02*
D03*
X222000Y118500D02*
D03*
Y89500D02*
D03*
X241000Y17750D02*
D03*
Y46750D02*
D03*
D100*
X310000Y257250D02*
D03*
Y320750D02*
D03*
M02*
