G04*
G04 #@! TF.GenerationSoftware,Altium Limited,Altium Designer,24.4.1 (13)*
G04*
G04 Layer_Physical_Order=4*
G04 Layer_Color=16711680*
%FSLAX44Y44*%
%MOMM*%
G71*
G04*
G04 #@! TF.SameCoordinates,8FCA56C2-8F78-4201-AFF4-6E38B21BD071*
G04*
G04*
G04 #@! TF.FilePolarity,Positive*
G04*
G01*
G75*
%ADD12C,0.7120*%
%ADD13C,0.2540*%
%ADD21C,0.3500*%
%ADD24R,0.9500X0.8500*%
%ADD25R,1.0000X0.9000*%
%ADD29R,0.9000X1.0000*%
%ADD45R,0.8500X0.9500*%
%ADD85C,0.5120*%
%ADD86C,0.5080*%
%ADD88C,1.3000*%
%ADD89R,1.3000X1.3000*%
%ADD90C,1.6000*%
%ADD91C,5.0000*%
G04:AMPARAMS|DCode=92|XSize=2.14mm|YSize=1.07mm|CornerRadius=0mm|HoleSize=0mm|Usage=FLASHONLY|Rotation=214.480|XOffset=0mm|YOffset=0mm|HoleType=Round|Shape=Round|*
%AMOVALD92*
21,1,1.0700,1.0700,0.0000,0.0000,214.48*
1,1,1.0700,0.4410,0.3029*
1,1,1.0700,-0.4410,-0.3029*
%
%ADD92OVALD92*%

G04:AMPARAMS|DCode=93|XSize=2.14mm|YSize=1.07mm|CornerRadius=0mm|HoleSize=0mm|Usage=FLASHONLY|Rotation=334.480|XOffset=0mm|YOffset=0mm|HoleType=Round|Shape=Round|*
%AMOVALD93*
21,1,1.0700,1.0700,0.0000,0.0000,334.48*
1,1,1.0700,-0.4828,0.2305*
1,1,1.0700,0.4828,-0.2305*
%
%ADD93OVALD93*%

G04:AMPARAMS|DCode=94|XSize=2.14mm|YSize=1.07mm|CornerRadius=0mm|HoleSize=0mm|Usage=FLASHONLY|Rotation=94.480|XOffset=0mm|YOffset=0mm|HoleType=Round|Shape=Round|*
%AMOVALD94*
21,1,1.0700,1.0700,0.0000,0.0000,94.48*
1,1,1.0700,0.0418,-0.5334*
1,1,1.0700,-0.0418,0.5334*
%
%ADD94OVALD94*%

%ADD95R,1.6000X1.6000*%
%ADD96C,1.5000*%
%ADD97R,1.3000X1.3000*%
%ADD98C,0.7000*%
%ADD99R,1.4000X1.3000*%
%ADD100R,3.6500X1.6000*%
G36*
X317638Y443315D02*
X329263Y439246D01*
X340602Y434441D01*
X351612Y428919D01*
X362243Y422704D01*
X372456Y415821D01*
X382207Y408297D01*
X391455Y400164D01*
X400164Y391455D01*
X408297Y382207D01*
X415821Y372456D01*
X422704Y362243D01*
X428919Y351612D01*
X434441Y340602D01*
X439246Y329263D01*
X443315Y317638D01*
X444780Y312397D01*
X444780Y-163180D01*
X339764D01*
X339282Y-162005D01*
X386820Y-115033D01*
X386825Y-115026D01*
X386831Y-115022D01*
X387107Y-114609D01*
X387387Y-114196D01*
X387388Y-114188D01*
X387393Y-114181D01*
X387490Y-113694D01*
X387590Y-113206D01*
X387588Y-113198D01*
X387590Y-113190D01*
X387590Y39460D01*
X387393Y40451D01*
X386831Y41291D01*
X386300Y41646D01*
Y52380D01*
X386791Y52709D01*
X387353Y53549D01*
X387550Y54540D01*
Y60795D01*
X387516Y60962D01*
X387528Y61133D01*
X387413Y62000D01*
X387528Y62867D01*
X387516Y63038D01*
X387550Y63205D01*
Y70839D01*
X387590Y71040D01*
Y104000D01*
X387393Y104991D01*
X386831Y105831D01*
X385991Y106393D01*
X385000Y106590D01*
X347000Y106590D01*
X346009Y106392D01*
X345169Y105831D01*
X344607Y104991D01*
X344410Y104000D01*
Y98743D01*
X343237Y98257D01*
X308885Y132609D01*
Y170321D01*
X309900Y171100D01*
X311001Y172535D01*
X311693Y174207D01*
X311929Y176000D01*
X311693Y177793D01*
X311001Y179465D01*
X309900Y180900D01*
X308465Y182001D01*
X306793Y182693D01*
X305000Y182929D01*
X303207Y182693D01*
X301535Y182001D01*
X300100Y180900D01*
X298999Y179465D01*
X298307Y177793D01*
X298071Y176000D01*
X298307Y174207D01*
X298999Y172535D01*
X300100Y171100D01*
X301115Y170321D01*
Y131000D01*
X301411Y129513D01*
X302253Y128253D01*
X344410Y86096D01*
Y54540D01*
Y27934D01*
X343237Y27448D01*
X338843Y31843D01*
X338929Y32500D01*
X338693Y34293D01*
X338001Y35964D01*
X336900Y37399D01*
X335556Y38431D01*
X335541Y38457D01*
X335463Y38884D01*
X335458Y39878D01*
X336400Y40600D01*
X337501Y42035D01*
X338193Y43706D01*
X338429Y45500D01*
X338193Y47293D01*
X337501Y48964D01*
X336400Y50399D01*
X334964Y51501D01*
X333293Y52193D01*
X331500Y52429D01*
X329706Y52193D01*
X328035Y51501D01*
X326906Y50634D01*
X325540D01*
Y55790D01*
X306460D01*
Y39522D01*
X305190Y38996D01*
X301843Y42343D01*
X301929Y43000D01*
X301693Y44793D01*
X301001Y46465D01*
X300636Y46940D01*
X301262Y48210D01*
X304540D01*
Y62290D01*
X289460D01*
Y48210D01*
X289460Y48210D01*
X289460D01*
X289387Y46970D01*
X288999Y46465D01*
X287490Y46140D01*
X287200Y46330D01*
Y79298D01*
X287460Y80460D01*
X288470Y80460D01*
X306540D01*
Y98540D01*
X303793D01*
X303693Y99293D01*
X303001Y100964D01*
X301900Y102400D01*
X300465Y103501D01*
X298794Y104193D01*
X297000Y104429D01*
X295207Y104193D01*
X293536Y103501D01*
X292101Y102400D01*
X290999Y100964D01*
X290307Y99293D01*
X290208Y98540D01*
X287460Y98540D01*
X287200Y99702D01*
Y160000D01*
X287200Y160000D01*
X286804Y161990D01*
X285677Y163677D01*
X285677Y163677D01*
X274865Y174489D01*
X274693Y175793D01*
X274001Y177465D01*
X273253Y178440D01*
X273843Y179710D01*
X285290D01*
Y194290D01*
X279405D01*
Y195710D01*
X298290D01*
Y210290D01*
X295385D01*
Y210500D01*
X295089Y211987D01*
X294247Y213247D01*
X233057Y274437D01*
X231797Y275279D01*
X230310Y275575D01*
X228160D01*
X227455Y276631D01*
X227693Y277207D01*
X227929Y279000D01*
X227693Y280793D01*
X227001Y282465D01*
X225900Y283900D01*
X224465Y285001D01*
X222793Y285693D01*
X221000Y285929D01*
X219207Y285693D01*
X217535Y285001D01*
X216100Y283900D01*
X214999Y282465D01*
X214307Y280793D01*
X214071Y279000D01*
X214307Y277207D01*
X214545Y276631D01*
X213840Y275575D01*
X200063D01*
X199200Y276437D01*
X197940Y277279D01*
X196453Y277575D01*
X190160D01*
X189455Y278631D01*
X189693Y279207D01*
X189929Y281000D01*
X189693Y282793D01*
X189001Y284465D01*
X187900Y285900D01*
X186465Y287001D01*
X184793Y287693D01*
X183000Y287929D01*
X181207Y287693D01*
X179535Y287001D01*
X178100Y285900D01*
X176999Y284465D01*
X176307Y282793D01*
X176071Y281000D01*
X176307Y279207D01*
X176545Y278631D01*
X175840Y277575D01*
X168978D01*
X167900Y278980D01*
X166465Y280081D01*
X164793Y280773D01*
X163000Y281009D01*
X161207Y280773D01*
X159535Y280081D01*
X159129Y279769D01*
X157903Y280098D01*
X157751Y280465D01*
X156650Y281900D01*
X155215Y283001D01*
X153543Y283693D01*
X151750Y283929D01*
X149957Y283693D01*
X148285Y283001D01*
X146850Y281900D01*
X145749Y280465D01*
X145057Y278793D01*
X144821Y277000D01*
X145057Y275207D01*
X145749Y273535D01*
X146850Y272100D01*
X148285Y270999D01*
X149957Y270307D01*
X151750Y270071D01*
X153543Y270307D01*
X155215Y270999D01*
X155621Y271311D01*
X156847Y270982D01*
X156999Y270615D01*
X158001Y269310D01*
X156999Y268005D01*
X156307Y266333D01*
X156071Y264540D01*
X156307Y262747D01*
X156999Y261075D01*
X158001Y259770D01*
X156999Y258465D01*
X156307Y256793D01*
X156071Y255000D01*
X156307Y253207D01*
X156417Y252941D01*
X155711Y251885D01*
X119609D01*
X57795Y313698D01*
X58389Y314901D01*
X59000Y314821D01*
X60793Y315057D01*
X62465Y315749D01*
X63900Y316850D01*
X65001Y318285D01*
X65693Y319957D01*
X65929Y321750D01*
X65693Y323543D01*
X65001Y325215D01*
X63900Y326650D01*
X62465Y327751D01*
X60793Y328443D01*
X59000Y328679D01*
X57207Y328443D01*
X55535Y327751D01*
X54100Y326650D01*
X52999Y325215D01*
X52307Y323543D01*
X52071Y321750D01*
X52307Y319957D01*
X52526Y319427D01*
X51613Y318314D01*
X51560Y318325D01*
X29148D01*
X28070Y319730D01*
X27900Y319860D01*
Y320221D01*
X28074Y321327D01*
X29001Y322535D01*
X29693Y324207D01*
X29929Y326000D01*
X29693Y327793D01*
X29001Y329465D01*
X27900Y330900D01*
X26465Y332001D01*
X24793Y332693D01*
X23000Y332929D01*
X21207Y332693D01*
X19535Y332001D01*
X18100Y330900D01*
X16999Y329465D01*
X16307Y327793D01*
X16071Y326000D01*
X16307Y324207D01*
X16426Y323918D01*
X13113Y320605D01*
X12271Y319345D01*
X11975Y317858D01*
Y314178D01*
X10802Y313692D01*
X5747Y318747D01*
X4487Y319589D01*
X3000Y319885D01*
X-10960D01*
Y326540D01*
X-20196D01*
X-21500Y326712D01*
X-22804Y326540D01*
X-32040D01*
Y317304D01*
X-32212Y316000D01*
X-32040Y314696D01*
Y305460D01*
X-22804D01*
X-21500Y305288D01*
X-20196Y305460D01*
X-10960D01*
Y312115D01*
X1391D01*
X80253Y233253D01*
X81513Y232411D01*
X83000Y232115D01*
X190391D01*
X213115Y209391D01*
Y193679D01*
X212100Y192900D01*
X210999Y191465D01*
X210307Y189793D01*
X210071Y188000D01*
X210307Y186207D01*
X210999Y184535D01*
X212100Y183100D01*
X213535Y181999D01*
X215207Y181307D01*
X217000Y181071D01*
X218793Y181307D01*
X220465Y181999D01*
X221900Y183100D01*
X223001Y184535D01*
X223693Y186207D01*
X223929Y188000D01*
X223693Y189793D01*
X223001Y191465D01*
X221900Y192900D01*
X220885Y193679D01*
Y211000D01*
X220589Y212487D01*
X219747Y213747D01*
X195959Y237535D01*
X196485Y238805D01*
X206483D01*
X207969Y239100D01*
X209230Y239943D01*
X209773Y240486D01*
X210207Y240307D01*
X211386Y240152D01*
X211341Y239810D01*
X211577Y238017D01*
X212269Y236346D01*
X213371Y234910D01*
X214386Y234132D01*
Y223166D01*
X214681Y221680D01*
X215523Y220420D01*
X237115Y198828D01*
Y195834D01*
X236769Y195569D01*
X235668Y194134D01*
X234976Y192462D01*
X234740Y190669D01*
X234976Y188876D01*
X235668Y187204D01*
X236769Y185769D01*
X238204Y184668D01*
X239876Y183976D01*
X241669Y183740D01*
X242940Y183907D01*
X244210Y183053D01*
Y180885D01*
X229000D01*
X227513Y180589D01*
X226253Y179747D01*
X198554Y152048D01*
X115588D01*
X115001Y153465D01*
X113900Y154900D01*
X112465Y156001D01*
X110793Y156693D01*
X109000Y156929D01*
X107207Y156693D01*
X105535Y156001D01*
X104100Y154900D01*
X103155Y153667D01*
X102367Y153774D01*
X101885Y154010D01*
Y160759D01*
X102464Y160999D01*
X103899Y162100D01*
X105001Y163535D01*
X105693Y165206D01*
X105929Y167000D01*
X105693Y168793D01*
X105001Y170464D01*
X104576Y171018D01*
X103962Y172000D01*
X104576Y172981D01*
X105001Y173535D01*
X105693Y175206D01*
X105929Y177000D01*
X105693Y178793D01*
X105001Y180464D01*
X104576Y181018D01*
X103900Y182100D01*
X105001Y183535D01*
X105693Y185207D01*
X105929Y187000D01*
X105693Y188793D01*
X105001Y190465D01*
X103900Y191900D01*
X102465Y193001D01*
X100793Y193693D01*
X99000Y193929D01*
X97207Y193693D01*
X95535Y193001D01*
X94380Y192114D01*
X74437Y212057D01*
X73177Y212899D01*
X71690Y213195D01*
X-40028D01*
X-40158Y213169D01*
X-41298Y214237D01*
X-41217Y214853D01*
X-41453Y216647D01*
X-42146Y218318D01*
X-43247Y219753D01*
X-44682Y220854D01*
X-46353Y221546D01*
X-48147Y221783D01*
X-49940Y221546D01*
X-51611Y220854D01*
X-53046Y219753D01*
X-54148Y218318D01*
X-54840Y216647D01*
X-55076Y214853D01*
X-54840Y213060D01*
X-54148Y211389D01*
X-53046Y209954D01*
X-51611Y208852D01*
X-49940Y208160D01*
X-48639Y207989D01*
X-48113Y206718D01*
X-109935Y144897D01*
X-111138Y145490D01*
X-111071Y146000D01*
X-111307Y147793D01*
X-111999Y149465D01*
X-113100Y150900D01*
X-114535Y152001D01*
X-116207Y152693D01*
X-118000Y152929D01*
X-119793Y152693D01*
X-121465Y152001D01*
X-122900Y150900D01*
X-123679Y149885D01*
X-128710D01*
Y153290D01*
X-141410D01*
Y222410D01*
X-119000D01*
X-118009Y222607D01*
X-117169Y223169D01*
X-116607Y224009D01*
X-116410Y225000D01*
Y245000D01*
X-116607Y245991D01*
X-117169Y246831D01*
X-118009Y247393D01*
X-119000Y247590D01*
X-141410D01*
Y285000D01*
X-141607Y285991D01*
X-142169Y286831D01*
X-143009Y287393D01*
X-144000Y287590D01*
X-148175D01*
X-149166Y287393D01*
X-150006Y286831D01*
X-163351Y273487D01*
X-163445Y273345D01*
X-163574Y273232D01*
X-163724Y272929D01*
X-163912Y272647D01*
X-163945Y272479D01*
X-164021Y272326D01*
X-164043Y271988D01*
X-164109Y271656D01*
X-164076Y271488D01*
X-164087Y271318D01*
X-163913Y270000D01*
X-164138Y268295D01*
X-164796Y266707D01*
X-165842Y265343D01*
X-166897Y264534D01*
X-167010Y264405D01*
X-167152Y264310D01*
X-167340Y264028D01*
X-167563Y263774D01*
X-167618Y263612D01*
X-167713Y263470D01*
X-167779Y263138D01*
X-167888Y262817D01*
X-167877Y262646D01*
X-167910Y262479D01*
Y257521D01*
X-167877Y257354D01*
X-167888Y257183D01*
X-167779Y256862D01*
X-167713Y256530D01*
X-167618Y256388D01*
X-167563Y256226D01*
X-167340Y255972D01*
X-167152Y255690D01*
X-167010Y255595D01*
X-166897Y255466D01*
X-165842Y254657D01*
X-164796Y253293D01*
X-164138Y251705D01*
X-163913Y250000D01*
X-164138Y248295D01*
X-164796Y246707D01*
X-165842Y245343D01*
X-166897Y244534D01*
X-167010Y244405D01*
X-167152Y244310D01*
X-167340Y244028D01*
X-167563Y243774D01*
X-167618Y243612D01*
X-167713Y243470D01*
X-167779Y243138D01*
X-167888Y242817D01*
X-167877Y242646D01*
X-167910Y242479D01*
Y239040D01*
X-167713Y238049D01*
X-167152Y237209D01*
X-166311Y236647D01*
X-165320Y236450D01*
X-164050D01*
Y231205D01*
X-164016Y231038D01*
X-164028Y230867D01*
X-163913Y230000D01*
X-164028Y229133D01*
X-164016Y228962D01*
X-164050Y228795D01*
Y223550D01*
X-165320D01*
X-166312Y223353D01*
X-167152Y222791D01*
X-167713Y221951D01*
X-167910Y220960D01*
Y210505D01*
X-168154Y209278D01*
X-168363Y208965D01*
X-168461Y208730D01*
X-168603Y208518D01*
X-168652Y208267D01*
X-168750Y208032D01*
Y207777D01*
X-168800Y207527D01*
Y202050D01*
X-177700D01*
Y211950D01*
X-175679D01*
X-174688Y212147D01*
X-173848Y212709D01*
X-173287Y213549D01*
X-173090Y214540D01*
Y220960D01*
X-173287Y221951D01*
X-173848Y222791D01*
X-174688Y223353D01*
X-175679Y223550D01*
X-176950D01*
Y228795D01*
X-176984Y228962D01*
X-176972Y229133D01*
X-177087Y230000D01*
X-176972Y230867D01*
X-176984Y231038D01*
X-176950Y231205D01*
Y236450D01*
X-175679D01*
X-174688Y236647D01*
X-173848Y237209D01*
X-173287Y238049D01*
X-173090Y239040D01*
Y242479D01*
X-173123Y242646D01*
X-173112Y242817D01*
X-173221Y243138D01*
X-173287Y243470D01*
X-173382Y243612D01*
X-173437Y243774D01*
X-173660Y244028D01*
X-173848Y244310D01*
X-173990Y244405D01*
X-174103Y244534D01*
X-175158Y245343D01*
X-176204Y246707D01*
X-176862Y248295D01*
X-177087Y250000D01*
X-176862Y251705D01*
X-176204Y253293D01*
X-175158Y254657D01*
X-174103Y255466D01*
X-173990Y255595D01*
X-173848Y255690D01*
X-173660Y255972D01*
X-173437Y256226D01*
X-173382Y256388D01*
X-173287Y256530D01*
X-173221Y256862D01*
X-173112Y257183D01*
X-173123Y257354D01*
X-173090Y257521D01*
Y262479D01*
X-173123Y262646D01*
X-173112Y262817D01*
X-173221Y263138D01*
X-173287Y263470D01*
X-173382Y263612D01*
X-173437Y263774D01*
X-173660Y264028D01*
X-173848Y264310D01*
X-173990Y264405D01*
X-174103Y264534D01*
X-175158Y265343D01*
X-176204Y266707D01*
X-176862Y268295D01*
X-177087Y270000D01*
X-176862Y271705D01*
X-176204Y273293D01*
X-175157Y274657D01*
X-173793Y275704D01*
X-172205Y276362D01*
X-170500Y276587D01*
X-169182Y276413D01*
X-169012Y276424D01*
X-168844Y276391D01*
X-168512Y276457D01*
X-168174Y276479D01*
X-168021Y276555D01*
X-167853Y276588D01*
X-167572Y276776D01*
X-167268Y276926D01*
X-167155Y277055D01*
X-167013Y277150D01*
X-162167Y281995D01*
X-161606Y282836D01*
X-161409Y283827D01*
X-161606Y284818D01*
X-162092Y285991D01*
X-162092Y285991D01*
X-162653Y286831D01*
X-163493Y287393D01*
X-164484Y287590D01*
X-196780D01*
X-196780Y288786D01*
X-196780Y444780D01*
X312397D01*
X317638Y443315D01*
D02*
G37*
G36*
X-144000Y245000D02*
X-119000D01*
Y225000D01*
X-144000D01*
Y466D01*
X-144001Y465D01*
X-144693Y-1207D01*
X-144929Y-3000D01*
X-144693Y-4793D01*
X-144001Y-6465D01*
X-144000Y-6466D01*
Y-72652D01*
X-144145Y-72726D01*
X-145882Y-74288D01*
X-146855Y-75786D01*
X-147996Y-76570D01*
X-149540Y-77959D01*
X-150673Y-79701D01*
X-151315Y-81677D01*
X-151425Y-83751D01*
X-150993Y-85784D01*
X-150051Y-87635D01*
X-148661Y-89179D01*
X-146919Y-90311D01*
X-144944Y-90954D01*
X-144859Y-90959D01*
X-144166Y-92081D01*
X-144132Y-92269D01*
X-144235Y-94220D01*
X-143804Y-96253D01*
X-142861Y-98104D01*
X-141472Y-99648D01*
X-139730Y-100780D01*
X-137754Y-101423D01*
X-137610Y-101431D01*
X-137023Y-102285D01*
X-136942Y-102738D01*
X-137045Y-104689D01*
X-136614Y-106721D01*
X-135672Y-108573D01*
X-134282Y-110117D01*
X-132540Y-111249D01*
X-130564Y-111892D01*
X-128490Y-112001D01*
X-126458Y-111570D01*
X-124606Y-110628D01*
X-123465Y-109844D01*
X-121718Y-109473D01*
X-119636Y-108414D01*
X-117900Y-106852D01*
X-116927Y-105354D01*
X-115786Y-104570D01*
X-114242Y-103181D01*
X-113110Y-101439D01*
X-112467Y-99463D01*
X-112357Y-97389D01*
X-112595Y-96270D01*
X-111610Y-95000D01*
X-36306D01*
X-20217D01*
X-20217Y-95000D01*
X-19829Y-98944D01*
X-18678Y-102737D01*
X-16810Y-106232D01*
X-14296Y-109296D01*
X-11232Y-111810D01*
X-7737Y-113679D01*
X-3944Y-114829D01*
X0Y-115217D01*
X3944Y-114829D01*
X7737Y-113679D01*
X11232Y-111810D01*
X14296Y-109296D01*
X16810Y-106232D01*
X18678Y-102737D01*
X19829Y-98944D01*
X20217Y-95000D01*
X20217Y-95000D01*
X249875Y-95000D01*
X250695Y-96270D01*
X250307Y-97207D01*
X250071Y-99000D01*
X250307Y-100793D01*
X250999Y-102465D01*
X252100Y-103900D01*
X253535Y-105001D01*
X255207Y-105693D01*
X257000Y-105929D01*
X258793Y-105693D01*
X260465Y-105001D01*
X261509Y-104200D01*
X274162D01*
X274162Y-104200D01*
X276152Y-103804D01*
X277839Y-102677D01*
X285516Y-95000D01*
X309646D01*
X314135Y-99489D01*
X314307Y-100793D01*
X314999Y-102465D01*
X316100Y-103900D01*
X317535Y-105001D01*
X319207Y-105693D01*
X321000Y-105929D01*
X322793Y-105693D01*
X324465Y-105001D01*
X325900Y-103900D01*
X327001Y-102465D01*
X327693Y-100793D01*
X327929Y-99000D01*
X327693Y-97207D01*
X327305Y-96270D01*
X328125Y-95000D01*
X329000D01*
X333616Y-90384D01*
X334883Y-90467D01*
X335100Y-90750D01*
X336535Y-91851D01*
X338207Y-92543D01*
X340000Y-92779D01*
X341793Y-92543D01*
X343465Y-91851D01*
X344900Y-90750D01*
X346001Y-89315D01*
X346693Y-87643D01*
X346929Y-85850D01*
X346693Y-84057D01*
X346001Y-82385D01*
X344900Y-80950D01*
X344617Y-80733D01*
X344534Y-79466D01*
X347000Y-77000D01*
Y-61590D01*
X347900Y-60900D01*
X349001Y-59465D01*
X349693Y-57793D01*
X349929Y-56000D01*
X349698Y-54241D01*
X350041Y-53727D01*
X350374Y-52053D01*
Y18499D01*
X350041Y20173D01*
X349093Y21592D01*
X347000Y23685D01*
Y54540D01*
Y104000D01*
X385000Y104000D01*
Y71040D01*
X384960D01*
Y63205D01*
X384801Y62000D01*
X384960Y60795D01*
Y54540D01*
X383710D01*
Y39460D01*
X385000D01*
X385000Y-113190D01*
X334408Y-163180D01*
X-196780D01*
X-196780Y285000D01*
X-164484D01*
X-163998Y283827D01*
X-168844Y278981D01*
X-170500Y279199D01*
X-172881Y278885D01*
X-175099Y277966D01*
X-177004Y276504D01*
X-178466Y274599D01*
X-179385Y272381D01*
X-179699Y270000D01*
X-179385Y267619D01*
X-178466Y265401D01*
X-177004Y263496D01*
X-175679Y262479D01*
Y257521D01*
X-177004Y256504D01*
X-178466Y254599D01*
X-179385Y252381D01*
X-179699Y250000D01*
X-179385Y247619D01*
X-178466Y245401D01*
X-177004Y243496D01*
X-175679Y242479D01*
Y239040D01*
X-179540D01*
Y231205D01*
X-179699Y230000D01*
X-179540Y228795D01*
Y220960D01*
X-175679D01*
Y214540D01*
X-180290D01*
Y199460D01*
X-166210D01*
Y207527D01*
X-165715Y208268D01*
X-165320Y210250D01*
X-165320Y210250D01*
Y220960D01*
X-161460D01*
Y228795D01*
X-161301Y230000D01*
X-161460Y231205D01*
Y239040D01*
X-165320D01*
Y242479D01*
X-163995Y243496D01*
X-162534Y245401D01*
X-161615Y247619D01*
X-161301Y250000D01*
X-161615Y252381D01*
X-162534Y254599D01*
X-163995Y256504D01*
X-165320Y257521D01*
Y262479D01*
X-163995Y263496D01*
X-162534Y265401D01*
X-161615Y267619D01*
X-161301Y270000D01*
X-161519Y271656D01*
X-148175Y285000D01*
X-144000D01*
Y245000D01*
D02*
G37*
G36*
X260115Y218391D02*
Y210290D01*
X257210D01*
Y200395D01*
X257135Y200020D01*
Y194290D01*
X247550D01*
X246569Y195569D01*
X245134Y196670D01*
X244885Y196773D01*
Y200437D01*
X244589Y201923D01*
X243747Y203184D01*
X222155Y224776D01*
Y234132D01*
X223170Y234910D01*
X224271Y236346D01*
X224963Y238017D01*
X225200Y239810D01*
X224963Y241604D01*
X224271Y243275D01*
X223170Y244710D01*
X221735Y245811D01*
X220064Y246503D01*
X218884Y246658D01*
X218929Y247000D01*
X218693Y248793D01*
X218001Y250465D01*
X216900Y251900D01*
X216567Y252155D01*
X216998Y253425D01*
X225081D01*
X260115Y218391D01*
D02*
G37*
G36*
X261400Y153246D02*
Y52001D01*
X260130Y51374D01*
X259965Y51501D01*
X258293Y52193D01*
X256500Y52430D01*
X254706Y52193D01*
X253035Y51501D01*
X251905Y50634D01*
X250540D01*
Y55790D01*
X231460D01*
Y37710D01*
X234929D01*
X235556Y36440D01*
X234999Y35714D01*
X234307Y34043D01*
X234071Y32250D01*
X234307Y30456D01*
X234999Y28785D01*
X235556Y28060D01*
X234929Y26790D01*
X231460D01*
Y8710D01*
X236626D01*
Y-21000D01*
X236959Y-22674D01*
X237907Y-24093D01*
X250504Y-36690D01*
X250218Y-37379D01*
X249873Y-40000D01*
X250218Y-42621D01*
X251230Y-45063D01*
X252839Y-47161D01*
X254937Y-48770D01*
X257379Y-49782D01*
X260000Y-50127D01*
X262621Y-49782D01*
X265063Y-48770D01*
X267161Y-47161D01*
X268770Y-45063D01*
X269782Y-42621D01*
X270127Y-40000D01*
X269782Y-37379D01*
X268770Y-34937D01*
X267161Y-32839D01*
X265063Y-31230D01*
X262621Y-30218D01*
X260000Y-29873D01*
X257379Y-30218D01*
X256690Y-30504D01*
X245374Y-19188D01*
Y-10860D01*
X246644Y-10608D01*
X246999Y-11465D01*
X248100Y-12900D01*
X249535Y-14001D01*
X251207Y-14693D01*
X253000Y-14929D01*
X254793Y-14693D01*
X256465Y-14001D01*
X257900Y-12900D01*
X259001Y-11465D01*
X259313Y-10712D01*
X260687D01*
X260999Y-11465D01*
X262100Y-12900D01*
X263535Y-14001D01*
X265207Y-14693D01*
X267000Y-14929D01*
X268793Y-14693D01*
X270465Y-14001D01*
X271356Y-13317D01*
X272626Y-13943D01*
Y-17697D01*
X272100Y-18100D01*
X270999Y-19535D01*
X270307Y-21207D01*
X270071Y-23000D01*
X270307Y-24793D01*
X270999Y-26465D01*
X272100Y-27900D01*
X273535Y-29001D01*
X275207Y-29693D01*
X277000Y-29929D01*
X278793Y-29693D01*
X279344Y-29465D01*
X280400Y-30171D01*
Y-78508D01*
X279130Y-79025D01*
X277677Y-78423D01*
X275884Y-78187D01*
X275227Y-78274D01*
X229374Y-32421D01*
Y18000D01*
X229041Y19674D01*
X228093Y21093D01*
X226843Y22343D01*
X226929Y23000D01*
X226693Y24793D01*
X226001Y26465D01*
X224900Y27900D01*
X223465Y29001D01*
X221793Y29693D01*
X220000Y29929D01*
X218207Y29693D01*
X216535Y29001D01*
X215100Y27900D01*
X213999Y26465D01*
X213307Y24793D01*
X213272Y24525D01*
X212069Y24117D01*
X200593Y35593D01*
X199174Y36541D01*
X197500Y36874D01*
X187303D01*
X186900Y37400D01*
X185556Y38431D01*
X185541Y38457D01*
X185463Y38886D01*
X185459Y39878D01*
X186400Y40600D01*
X187501Y42035D01*
X188193Y43706D01*
X188429Y45500D01*
X188193Y47293D01*
X187501Y48964D01*
X186400Y50399D01*
X184965Y51501D01*
X183293Y52193D01*
X181500Y52429D01*
X179706Y52193D01*
X178035Y51501D01*
X176907Y50635D01*
X175540D01*
Y55790D01*
X156460D01*
Y37710D01*
X159929D01*
X160556Y36440D01*
X159999Y35715D01*
X159307Y34044D01*
X159071Y32250D01*
X159307Y30457D01*
X159999Y28785D01*
X160556Y28060D01*
X159929Y26790D01*
X156460D01*
Y8710D01*
X168854D01*
X173626Y3938D01*
Y-3057D01*
X172356Y-3683D01*
X171465Y-2999D01*
X169793Y-2307D01*
X168000Y-2071D01*
X166207Y-2307D01*
X164535Y-2999D01*
X163100Y-4100D01*
X161999Y-5535D01*
X161307Y-7207D01*
X161140Y-8470D01*
X159860D01*
X159693Y-7207D01*
X159001Y-5535D01*
X157900Y-4100D01*
X156465Y-2999D01*
X154793Y-2307D01*
X153000Y-2071D01*
X151207Y-2307D01*
X149535Y-2999D01*
X148100Y-4100D01*
X146999Y-5535D01*
X146307Y-7207D01*
X146071Y-9000D01*
X146145Y-9564D01*
X144955Y-10257D01*
X144374Y-9818D01*
Y15522D01*
X145000Y16071D01*
X146793Y16307D01*
X148465Y16999D01*
X149900Y18100D01*
X151001Y19535D01*
X151693Y21207D01*
X151929Y23000D01*
X151693Y24793D01*
X151001Y26465D01*
X149900Y27900D01*
X148465Y29001D01*
X146793Y29693D01*
X145000Y29929D01*
X143207Y29693D01*
X141535Y29001D01*
X140100Y27900D01*
X138999Y26465D01*
X138675Y25681D01*
X137405Y25934D01*
Y79213D01*
X137460Y80460D01*
X138675Y80460D01*
X156540D01*
Y98540D01*
X153793D01*
X153693Y99293D01*
X153001Y100964D01*
X151900Y102400D01*
X150465Y103501D01*
X148794Y104193D01*
X147000Y104429D01*
X145207Y104193D01*
X143536Y103501D01*
X142100Y102400D01*
X140999Y100964D01*
X140307Y99293D01*
X140208Y98540D01*
X137460Y98540D01*
X137405Y99787D01*
Y123732D01*
X138675Y124581D01*
X139335Y124307D01*
X141129Y124071D01*
X142922Y124307D01*
X144594Y124999D01*
X146029Y126100D01*
X147130Y127535D01*
X147822Y129207D01*
X147882Y129659D01*
X158082D01*
X158708Y128389D01*
X157999Y127465D01*
X157307Y125793D01*
X157071Y124000D01*
X157307Y122207D01*
X157999Y120535D01*
X159100Y119100D01*
X160535Y117999D01*
X162207Y117307D01*
X164000Y117071D01*
X165793Y117307D01*
X167465Y117999D01*
X168900Y119100D01*
X170001Y120535D01*
X170693Y122207D01*
X170929Y124000D01*
X170693Y125793D01*
X170001Y127465D01*
X169292Y128389D01*
X169918Y129659D01*
X216543D01*
X218030Y129954D01*
X219290Y130796D01*
X237731Y149238D01*
X239000Y149071D01*
X240793Y149307D01*
X242465Y149999D01*
X243900Y151100D01*
X245001Y152535D01*
X245693Y154207D01*
X245929Y156000D01*
X245693Y157793D01*
X245001Y159465D01*
X244174Y160543D01*
X244899Y161100D01*
X246000Y162535D01*
X246693Y164206D01*
X246920Y165931D01*
X247128Y166082D01*
X248144Y166503D01*
X261400Y153246D01*
D02*
G37*
G36*
X-43239Y199111D02*
X-43001Y198535D01*
X-41900Y197100D01*
X-42093Y195648D01*
X-43001Y194465D01*
X-43693Y192793D01*
X-43929Y191000D01*
X-43693Y189207D01*
X-43001Y187535D01*
X-41900Y186100D01*
X-41321Y185656D01*
Y184386D01*
X-41716Y184083D01*
X-42817Y182648D01*
X-43509Y180977D01*
X-43746Y179184D01*
X-43509Y177390D01*
X-42817Y175719D01*
X-41716Y174284D01*
X-40281Y173183D01*
X-38610Y172491D01*
X-36816Y172254D01*
X-35023Y172491D01*
X-33352Y173183D01*
X-31917Y174284D01*
X-31716D01*
X-30281Y173183D01*
X-29087Y172688D01*
X-28609Y172408D01*
X-28604Y172392D01*
X-28538Y171200D01*
X-30084Y170413D01*
X-31629Y169023D01*
X-32761Y167281D01*
X-33403Y165306D01*
X-33513Y163231D01*
X-33405Y161851D01*
X-33957Y160152D01*
X-34080Y157820D01*
X-33596Y155535D01*
X-32785Y153944D01*
X-32677Y152564D01*
X-32246Y150532D01*
X-31303Y148680D01*
X-29914Y147136D01*
X-28172Y146004D01*
X-26196Y145361D01*
X-24122Y145252D01*
X-22089Y145683D01*
X-20238Y146625D01*
X-18694Y148015D01*
X-17562Y149757D01*
X-16919Y151732D01*
X-16810Y153807D01*
X-16918Y155187D01*
X-16365Y156885D01*
X-16242Y159218D01*
X-16727Y161502D01*
X-17537Y163095D01*
X-17645Y164474D01*
X-18076Y166507D01*
X-19019Y168358D01*
X-20028Y169479D01*
X-15733Y173773D01*
X-14891Y175033D01*
X-14595Y176520D01*
Y178710D01*
X-7710D01*
Y191469D01*
X-6540Y191710D01*
X-6540Y191710D01*
X-6540Y191710D01*
X8540D01*
Y194865D01*
X70303D01*
X90915Y174253D01*
X92176Y173411D01*
X93260Y173195D01*
X93424Y172981D01*
X94037Y172000D01*
X93424Y171018D01*
X92999Y170464D01*
X92307Y168793D01*
X92071Y167000D01*
X92307Y165206D01*
X92999Y163535D01*
X94100Y162100D01*
X94115Y162088D01*
Y150000D01*
X94411Y148513D01*
X95253Y147253D01*
X104253Y138253D01*
X104341Y138194D01*
X104174Y136779D01*
X103050Y135917D01*
X102271Y134902D01*
X90017D01*
X88530Y134606D01*
X87270Y133764D01*
X20391Y66885D01*
X-61391D01*
X-63263Y68756D01*
X-62653Y70228D01*
X-62288Y73000D01*
X-62653Y75772D01*
X-63723Y78356D01*
X-65426Y80574D01*
X-67644Y82277D01*
X-70228Y83347D01*
X-72907Y83699D01*
X-73178Y84096D01*
X-73528Y84851D01*
X-73476Y84898D01*
X-69318Y88325D01*
X-64976Y91568D01*
X-62734Y93119D01*
X-62505Y93357D01*
X-62221Y93525D01*
X-61802Y94082D01*
X-61318Y94583D01*
X-61196Y94890D01*
X-60998Y95154D01*
X-60825Y95829D01*
X-60569Y96477D01*
X-60575Y96807D01*
X-60493Y97127D01*
X-60591Y97817D01*
X-60602Y98514D01*
X-60734Y98817D01*
X-60780Y99143D01*
X-61136Y99743D01*
X-61413Y100383D01*
X-61650Y100612D01*
X-61818Y100896D01*
X-80315Y121531D01*
X-80430Y121618D01*
X-80511Y121738D01*
X-81004Y122068D01*
X-81436Y122474D01*
X-81709Y122578D01*
X-81944Y122753D01*
X-82084Y122789D01*
X-82204Y122870D01*
X-82786Y122985D01*
X-83340Y123195D01*
X-83633Y123187D01*
X-83917Y123259D01*
X-84060Y123239D01*
X-84202Y123267D01*
X-84784Y123151D01*
X-85376Y123133D01*
X-85643Y123013D01*
X-85934Y122971D01*
X-86058Y122898D01*
X-86200Y122870D01*
X-86693Y122540D01*
X-87233Y122297D01*
X-92129Y118804D01*
X-92279Y118645D01*
X-92471Y118539D01*
X-101651Y110767D01*
X-101787Y110596D01*
X-101969Y110474D01*
X-110474Y101969D01*
X-110596Y101787D01*
X-110767Y101651D01*
X-118539Y92471D01*
X-118645Y92279D01*
X-118804Y92129D01*
X-122297Y87233D01*
X-122598Y86565D01*
X-122971Y85934D01*
X-123013Y85643D01*
X-123133Y85376D01*
X-123156Y84643D01*
X-123259Y83917D01*
X-123187Y83633D01*
X-123195Y83340D01*
X-122936Y82654D01*
X-122753Y81944D01*
X-122578Y81710D01*
X-122474Y81436D01*
X-121971Y80901D01*
X-121531Y80315D01*
X-100896Y61818D01*
X-100612Y61650D01*
X-100383Y61413D01*
X-99743Y61135D01*
X-99143Y60780D01*
X-98817Y60734D01*
X-98514Y60602D01*
X-97817Y60591D01*
X-97127Y60493D01*
X-96807Y60575D01*
X-96477Y60569D01*
X-95829Y60825D01*
X-95154Y60998D01*
X-94890Y61196D01*
X-94583Y61318D01*
X-94082Y61802D01*
X-93525Y62221D01*
X-93357Y62505D01*
X-93119Y62734D01*
X-91568Y64976D01*
X-88326Y69318D01*
X-84898Y73476D01*
X-84851Y73528D01*
X-84096Y73178D01*
X-83699Y72907D01*
X-83347Y70228D01*
X-82277Y67644D01*
X-80574Y65426D01*
X-78356Y63723D01*
X-75772Y62653D01*
X-73000Y62288D01*
X-70228Y62653D01*
X-68756Y63263D01*
X-65747Y60253D01*
X-64487Y59411D01*
X-63000Y59115D01*
X22000D01*
X23487Y59411D01*
X24747Y60253D01*
X91626Y127132D01*
X102271D01*
X103050Y126117D01*
X104485Y125016D01*
X106156Y124324D01*
X107949Y124087D01*
X109743Y124324D01*
X110890Y124799D01*
X110999Y124535D01*
X112100Y123100D01*
X113115Y122321D01*
Y118609D01*
X77244Y82737D01*
X75772Y83347D01*
X73000Y83712D01*
X70228Y83347D01*
X67644Y82277D01*
X65426Y80574D01*
X63723Y78356D01*
X62653Y75772D01*
X62288Y73000D01*
X62653Y70228D01*
X63723Y67644D01*
X65426Y65426D01*
X67644Y63723D01*
X70228Y62653D01*
X73000Y62288D01*
X75772Y62653D01*
X78356Y63723D01*
X80574Y65426D01*
X82277Y67644D01*
X83347Y70228D01*
X83712Y73000D01*
X83347Y75772D01*
X82737Y77244D01*
X119747Y114253D01*
X120589Y115513D01*
X120885Y117000D01*
Y122321D01*
X121900Y123100D01*
X123001Y124535D01*
X123693Y126207D01*
X123929Y128000D01*
X123693Y129793D01*
X123001Y131465D01*
X122194Y132516D01*
X123151Y133355D01*
X129635Y126871D01*
Y-26520D01*
X129710Y-26895D01*
Y-36290D01*
Y-49290D01*
X133115D01*
Y-51000D01*
X133411Y-52487D01*
X134253Y-53747D01*
X136858Y-56352D01*
X137278Y-56632D01*
X137530Y-57820D01*
X138472Y-59671D01*
X139862Y-61216D01*
X141604Y-62348D01*
X142853Y-62944D01*
X144048Y-64272D01*
X146006Y-65545D01*
X148227Y-66267D01*
X150011Y-66361D01*
X151260Y-66958D01*
X153236Y-67600D01*
X155310Y-67710D01*
X157342Y-67279D01*
X159194Y-66336D01*
X160738Y-64946D01*
X161870Y-63204D01*
X162513Y-61229D01*
X162622Y-59154D01*
X162191Y-57122D01*
X161248Y-55271D01*
X159859Y-53727D01*
X158117Y-52594D01*
X156868Y-51998D01*
X155673Y-50670D01*
X153715Y-49397D01*
X151494Y-48675D01*
X149710Y-48581D01*
X148461Y-47984D01*
X146485Y-47342D01*
X144411Y-47232D01*
X144290Y-47134D01*
Y-36531D01*
X145460Y-36290D01*
X145460Y-36290D01*
X145460Y-36290D01*
X160540D01*
Y-24385D01*
X161713Y-23899D01*
X171626Y-33812D01*
Y-44000D01*
X171959Y-45674D01*
X172907Y-47093D01*
X206641Y-80827D01*
X205620Y-82156D01*
X204928Y-83828D01*
X204692Y-85621D01*
X204928Y-87415D01*
X205620Y-89086D01*
X206721Y-90521D01*
X207529Y-91140D01*
X207097Y-92410D01*
X20217Y-92410D01*
X19942Y-92206D01*
X19829Y-91056D01*
X18678Y-87263D01*
X16810Y-83768D01*
X14296Y-80704D01*
X11232Y-78190D01*
X7737Y-76322D01*
X3944Y-75171D01*
X0Y-74783D01*
X-3944Y-75171D01*
X-7737Y-76322D01*
X-11232Y-78190D01*
X-14296Y-80704D01*
X-16810Y-83768D01*
X-18678Y-87263D01*
X-19829Y-91056D01*
X-19942Y-92206D01*
X-20217Y-92410D01*
X-111610D01*
X-111771Y-92442D01*
X-111935Y-92431D01*
X-112262Y-92540D01*
X-112601Y-92607D01*
X-112738Y-92699D01*
X-112893Y-92751D01*
X-113154Y-92977D01*
X-113441Y-93169D01*
X-114570Y-92572D01*
X-115121Y-91961D01*
X-116863Y-90829D01*
X-118838Y-90186D01*
X-120913Y-90076D01*
X-122945Y-90508D01*
X-124796Y-91450D01*
X-125937Y-92234D01*
X-127685Y-92605D01*
X-129766Y-93664D01*
X-131502Y-95226D01*
X-132476Y-96724D01*
X-133617Y-97508D01*
X-134996Y-98749D01*
X-135161Y-98897D01*
X-135193Y-98908D01*
X-136494Y-99094D01*
X-136823Y-99010D01*
X-137137Y-98884D01*
X-137184Y-98885D01*
X-138604Y-98423D01*
X-139774Y-97663D01*
X-140708Y-96625D01*
X-141341Y-95381D01*
X-141631Y-94016D01*
X-141546Y-92405D01*
X-141588Y-92110D01*
X-141583Y-91812D01*
X-141616Y-91624D01*
X-140917Y-90727D01*
X-140768Y-90597D01*
X-138986Y-89690D01*
X-137845Y-88906D01*
X-136097Y-88535D01*
X-134016Y-87476D01*
X-132280Y-85914D01*
X-131306Y-84416D01*
X-130165Y-83632D01*
X-128621Y-82243D01*
X-127489Y-80501D01*
X-126846Y-78525D01*
X-126737Y-76451D01*
X-127168Y-74419D01*
X-128111Y-72567D01*
X-129500Y-71023D01*
X-131242Y-69891D01*
X-133218Y-69248D01*
X-135292Y-69139D01*
X-137324Y-69570D01*
X-139176Y-70512D01*
X-140140Y-71175D01*
X-140838Y-70983D01*
X-141410Y-70519D01*
Y-10166D01*
X-140354Y-9461D01*
X-139793Y-9693D01*
X-138000Y-9929D01*
X-136207Y-9693D01*
X-134535Y-9001D01*
X-133100Y-7900D01*
X-131999Y-6465D01*
X-131307Y-4793D01*
X-131071Y-3000D01*
X-131307Y-1207D01*
X-131999Y465D01*
X-133100Y1900D01*
X-134115Y2679D01*
Y109729D01*
X-44485Y199359D01*
X-43239Y199111D01*
D02*
G37*
%LPC*%
G36*
X283000Y386199D02*
X280619Y385885D01*
X278401Y384966D01*
X276496Y383504D01*
X275034Y381599D01*
X274115Y379381D01*
X273801Y377000D01*
X274115Y374619D01*
X275034Y372401D01*
X276496Y370496D01*
X278401Y369034D01*
X280619Y368115D01*
X283000Y367801D01*
X285381Y368115D01*
X287599Y369034D01*
X289505Y370496D01*
X290966Y372401D01*
X291885Y374619D01*
X292199Y377000D01*
X291885Y379381D01*
X290966Y381599D01*
X289505Y383504D01*
X287599Y384966D01*
X285381Y385885D01*
X283000Y386199D01*
D02*
G37*
G36*
X243000D02*
X240619Y385885D01*
X238401Y384966D01*
X236495Y383504D01*
X235034Y381599D01*
X234115Y379381D01*
X233801Y377000D01*
X234115Y374619D01*
X235034Y372401D01*
X236495Y370496D01*
X238401Y369034D01*
X240619Y368115D01*
X243000Y367801D01*
X245381Y368115D01*
X247599Y369034D01*
X249505Y370496D01*
X250966Y372401D01*
X251885Y374619D01*
X252199Y377000D01*
X251885Y379381D01*
X250966Y381599D01*
X249505Y383504D01*
X247599Y384966D01*
X245381Y385885D01*
X243000Y386199D01*
D02*
G37*
G36*
X223000D02*
X221795Y386040D01*
X213960D01*
Y378205D01*
X213801Y377000D01*
X213960Y375795D01*
Y373454D01*
X171203Y330696D01*
X151812D01*
X150325Y330401D01*
X149065Y329558D01*
X107268Y287762D01*
X106000Y287929D01*
X104207Y287693D01*
X102535Y287001D01*
X101100Y285900D01*
X99999Y284465D01*
X99307Y282793D01*
X99071Y281000D01*
X99307Y279207D01*
X99999Y277535D01*
X101100Y276100D01*
X102535Y274999D01*
X104207Y274307D01*
X106000Y274071D01*
X107793Y274307D01*
X109465Y274999D01*
X110900Y276100D01*
X112001Y277535D01*
X112693Y279207D01*
X112929Y281000D01*
X112762Y282269D01*
X153421Y322927D01*
X172812D01*
X174298Y323223D01*
X175558Y324065D01*
X219454Y367960D01*
X221795D01*
X223000Y367801D01*
X224205Y367960D01*
X232040D01*
Y375795D01*
X232199Y377000D01*
X232040Y378205D01*
Y386040D01*
X224205D01*
X223000Y386199D01*
D02*
G37*
G36*
X110750Y356429D02*
X108957Y356193D01*
X107285Y355501D01*
X105850Y354400D01*
X104749Y352965D01*
X104057Y351293D01*
X103821Y349500D01*
X104057Y347707D01*
X104749Y346035D01*
X105850Y344600D01*
X107285Y343499D01*
X108957Y342807D01*
X110750Y342571D01*
X112543Y342807D01*
X114215Y343499D01*
X115650Y344600D01*
X116751Y346035D01*
X117443Y347707D01*
X117679Y349500D01*
X117443Y351293D01*
X116751Y352965D01*
X115650Y354400D01*
X114215Y355501D01*
X112543Y356193D01*
X110750Y356429D01*
D02*
G37*
G36*
X-150000Y407625D02*
X-154321Y407285D01*
X-158537Y406273D01*
X-162542Y404614D01*
X-166238Y402349D01*
X-169534Y399534D01*
X-172349Y396238D01*
X-174614Y392542D01*
X-176273Y388537D01*
X-177285Y384322D01*
X-177625Y380000D01*
X-177285Y375678D01*
X-176273Y371463D01*
X-174614Y367458D01*
X-172349Y363762D01*
X-169534Y360466D01*
X-166238Y357651D01*
X-162542Y355386D01*
X-158537Y353727D01*
X-154321Y352715D01*
X-150000Y352375D01*
X-145679Y352715D01*
X-141463Y353727D01*
X-137458Y355386D01*
X-133762Y357651D01*
X-130466Y360466D01*
X-127651Y363762D01*
X-125386Y367458D01*
X-123727Y371463D01*
X-122850Y375115D01*
X-68469D01*
X-50385Y357031D01*
Y352290D01*
X-54290D01*
Y338710D01*
Y325710D01*
X-53777D01*
X-53346Y324440D01*
X-54474Y323574D01*
X-56177Y321356D01*
X-57247Y318772D01*
X-57612Y316000D01*
X-57247Y313228D01*
X-56177Y310644D01*
X-54474Y308426D01*
X-52256Y306723D01*
X-49672Y305653D01*
X-46900Y305288D01*
X-44128Y305653D01*
X-41544Y306723D01*
X-39326Y308426D01*
X-37623Y310644D01*
X-36553Y313228D01*
X-36188Y316000D01*
X-36553Y318772D01*
X-37623Y321356D01*
X-39326Y323574D01*
X-40454Y324440D01*
X-40023Y325710D01*
X-39710D01*
Y338710D01*
Y348105D01*
X-39635Y348480D01*
Y348980D01*
X-39710Y349355D01*
Y352290D01*
X-41616D01*
X-42033Y352569D01*
X-42615Y352685D01*
Y358640D01*
X-42911Y360127D01*
X-43753Y361387D01*
X-64113Y381747D01*
X-65373Y382589D01*
X-66860Y382885D01*
X-122602D01*
X-122715Y384322D01*
X-123727Y388537D01*
X-125386Y392542D01*
X-127651Y396238D01*
X-130466Y399534D01*
X-133762Y402349D01*
X-137458Y404614D01*
X-141463Y406273D01*
X-145679Y407285D01*
X-150000Y407625D01*
D02*
G37*
G36*
X-97700Y326712D02*
X-100472Y326347D01*
X-103056Y325277D01*
X-105274Y323574D01*
X-106977Y321356D01*
X-108047Y318772D01*
X-108412Y316000D01*
X-108047Y313228D01*
X-106977Y310644D01*
X-105274Y308426D01*
X-103056Y306723D01*
X-100472Y305653D01*
X-97700Y305288D01*
X-94928Y305653D01*
X-92344Y306723D01*
X-90126Y308426D01*
X-88423Y310644D01*
X-87353Y313228D01*
X-86988Y316000D01*
X-87353Y318772D01*
X-88423Y321356D01*
X-90126Y323574D01*
X-92344Y325277D01*
X-94928Y326347D01*
X-97700Y326712D01*
D02*
G37*
G36*
X-123100D02*
X-125872Y326347D01*
X-128456Y325277D01*
X-130674Y323574D01*
X-132377Y321356D01*
X-133447Y318772D01*
X-133812Y316000D01*
X-133447Y313228D01*
X-132377Y310644D01*
X-130674Y308426D01*
X-128456Y306723D01*
X-125872Y305653D01*
X-123100Y305288D01*
X-120328Y305653D01*
X-117744Y306723D01*
X-115526Y308426D01*
X-113823Y310644D01*
X-112753Y313228D01*
X-112388Y316000D01*
X-112753Y318772D01*
X-113823Y321356D01*
X-115526Y323574D01*
X-117744Y325277D01*
X-120328Y326347D01*
X-123100Y326712D01*
D02*
G37*
G36*
X-148500D02*
X-151272Y326347D01*
X-153856Y325277D01*
X-156074Y323574D01*
X-157777Y321356D01*
X-158847Y318772D01*
X-159212Y316000D01*
X-158847Y313228D01*
X-157777Y310644D01*
X-156074Y308426D01*
X-153856Y306723D01*
X-151272Y305653D01*
X-148500Y305288D01*
X-145728Y305653D01*
X-143144Y306723D01*
X-140926Y308426D01*
X-139223Y310644D01*
X-138153Y313228D01*
X-137788Y316000D01*
X-138153Y318772D01*
X-139223Y321356D01*
X-140926Y323574D01*
X-143144Y325277D01*
X-145728Y326347D01*
X-148500Y326712D01*
D02*
G37*
G36*
X330790Y331290D02*
X289210D01*
Y315704D01*
X288253Y314747D01*
X287411Y313487D01*
X287115Y312000D01*
Y300335D01*
X285845Y299709D01*
X285465Y300001D01*
X283793Y300693D01*
X282000Y300929D01*
X280207Y300693D01*
X278535Y300001D01*
X277100Y298900D01*
X275999Y297465D01*
X275307Y295793D01*
X275071Y294000D01*
X275307Y292207D01*
X275999Y290535D01*
X277100Y289100D01*
X276424Y288018D01*
X275998Y287464D01*
X275306Y285793D01*
X275070Y283999D01*
X275306Y282206D01*
X275998Y280535D01*
X277100Y279100D01*
X278535Y277999D01*
X280206Y277306D01*
X281999Y277070D01*
X283793Y277306D01*
X285464Y277999D01*
X285845Y278291D01*
X287115Y277665D01*
Y266000D01*
X287411Y264513D01*
X288253Y263253D01*
X289210Y262296D01*
Y246710D01*
X330790D01*
Y267790D01*
X294885D01*
Y278321D01*
X295900Y279100D01*
X297001Y280535D01*
X297693Y282206D01*
X297929Y283999D01*
X297693Y285793D01*
X297001Y287464D01*
X296576Y288018D01*
X295963Y289000D01*
X296576Y289981D01*
X297001Y290535D01*
X297693Y292207D01*
X297929Y294000D01*
X297693Y295793D01*
X297001Y297465D01*
X295900Y298900D01*
X294885Y299679D01*
Y310210D01*
X330790D01*
Y331290D01*
D02*
G37*
G36*
X134000Y290429D02*
X132207Y290193D01*
X130535Y289501D01*
X129100Y288400D01*
X127999Y286965D01*
X127307Y285293D01*
X127071Y283500D01*
X127307Y281707D01*
X127999Y280035D01*
X129100Y278600D01*
X130535Y277499D01*
X132207Y276807D01*
X134000Y276571D01*
X135793Y276807D01*
X137465Y277499D01*
X138900Y278600D01*
X140001Y280035D01*
X140693Y281707D01*
X140929Y283500D01*
X140693Y285293D01*
X140001Y286965D01*
X138900Y288400D01*
X137465Y289501D01*
X135793Y290193D01*
X134000Y290429D01*
D02*
G37*
G36*
X-68000Y267199D02*
X-70381Y266885D01*
X-72599Y265966D01*
X-74504Y264504D01*
X-75966Y262599D01*
X-76885Y260381D01*
X-77199Y258000D01*
X-76885Y255619D01*
X-75966Y253401D01*
X-74504Y251495D01*
X-72599Y250034D01*
X-70381Y249115D01*
X-68000Y248801D01*
X-65619Y249115D01*
X-63401Y250034D01*
X-61495Y251495D01*
X-60034Y253401D01*
X-59115Y255619D01*
X-58801Y258000D01*
X-59115Y260381D01*
X-60034Y262599D01*
X-61495Y264504D01*
X-63401Y265966D01*
X-65619Y266885D01*
X-68000Y267199D01*
D02*
G37*
G36*
X-88000D02*
X-90381Y266885D01*
X-92599Y265966D01*
X-94504Y264504D01*
X-95966Y262599D01*
X-96885Y260381D01*
X-97199Y258000D01*
X-96885Y255619D01*
X-95966Y253401D01*
X-94504Y251495D01*
X-92599Y250034D01*
X-90381Y249115D01*
X-88000Y248801D01*
X-85619Y249115D01*
X-83401Y250034D01*
X-81496Y251495D01*
X-80034Y253401D01*
X-79115Y255619D01*
X-78801Y258000D01*
X-79115Y260381D01*
X-80034Y262599D01*
X-81496Y264504D01*
X-83401Y265966D01*
X-85619Y266885D01*
X-88000Y267199D01*
D02*
G37*
G36*
X-167210Y540D02*
X-181290D01*
Y-14540D01*
X-175679D01*
Y-22479D01*
X-177004Y-23496D01*
X-178466Y-25401D01*
X-179385Y-27619D01*
X-179699Y-30000D01*
X-179385Y-32381D01*
X-178466Y-34599D01*
X-177004Y-36504D01*
X-175679Y-37521D01*
Y-42479D01*
X-177004Y-43495D01*
X-178466Y-45401D01*
X-179385Y-47619D01*
X-179699Y-50000D01*
X-179385Y-52381D01*
X-178466Y-54599D01*
X-177004Y-56505D01*
X-175679Y-57521D01*
Y-60960D01*
X-179540D01*
Y-68795D01*
X-179699Y-70000D01*
X-179540Y-71205D01*
Y-79040D01*
X-171705D01*
X-170500Y-79199D01*
X-169295Y-79040D01*
X-161460D01*
Y-71205D01*
X-161301Y-70000D01*
X-161460Y-68795D01*
Y-60960D01*
X-165320D01*
Y-57521D01*
X-163995Y-56505D01*
X-162534Y-54599D01*
X-161615Y-52381D01*
X-161301Y-50000D01*
X-161615Y-47619D01*
X-162534Y-45401D01*
X-163995Y-43495D01*
X-165320Y-42479D01*
Y-37521D01*
X-163995Y-36504D01*
X-162534Y-34599D01*
X-161615Y-32381D01*
X-161301Y-30000D01*
X-161615Y-27619D01*
X-162534Y-25401D01*
X-163995Y-23496D01*
X-165320Y-22479D01*
Y-11250D01*
X-165320Y-11250D01*
X-165715Y-9268D01*
X-166838Y-7588D01*
X-167210Y-7215D01*
Y540D01*
D02*
G37*
G36*
X270000Y-117101D02*
X267619Y-117415D01*
X265401Y-118334D01*
X263496Y-119796D01*
X262479Y-121121D01*
X257521D01*
X256504Y-119796D01*
X254599Y-118334D01*
X252381Y-117415D01*
X250000Y-117101D01*
X247619Y-117415D01*
X245401Y-118334D01*
X243496Y-119796D01*
X242479Y-121121D01*
X237521D01*
X236504Y-119796D01*
X234599Y-118334D01*
X232381Y-117415D01*
X230000Y-117101D01*
X227619Y-117415D01*
X225401Y-118334D01*
X223496Y-119796D01*
X222709Y-120821D01*
X213750D01*
X211768Y-121215D01*
X210088Y-122338D01*
X210088Y-122338D01*
X209215Y-123210D01*
X201460D01*
Y-137290D01*
X216540D01*
Y-131180D01*
X222249D01*
X223496Y-132804D01*
X225401Y-134266D01*
X227619Y-135185D01*
X230000Y-135499D01*
X232381Y-135185D01*
X234599Y-134266D01*
X236504Y-132804D01*
X237521Y-131480D01*
X242479D01*
X243496Y-132804D01*
X245401Y-134266D01*
X247619Y-135185D01*
X250000Y-135499D01*
X252381Y-135185D01*
X254599Y-134266D01*
X256504Y-132804D01*
X257521Y-131480D01*
X262479D01*
X263496Y-132804D01*
X265401Y-134266D01*
X267619Y-135185D01*
X270000Y-135499D01*
X272381Y-135185D01*
X274599Y-134266D01*
X276504Y-132804D01*
X277966Y-130899D01*
X278885Y-128681D01*
X279199Y-126300D01*
X278885Y-123919D01*
X277966Y-121701D01*
X276504Y-119796D01*
X274599Y-118334D01*
X272381Y-117415D01*
X270000Y-117101D01*
D02*
G37*
G36*
X-30000D02*
X-32381Y-117415D01*
X-34599Y-118334D01*
X-36504Y-119796D01*
X-37521Y-121121D01*
X-42479D01*
X-43495Y-119796D01*
X-45401Y-118334D01*
X-47619Y-117415D01*
X-50000Y-117101D01*
X-52381Y-117415D01*
X-54599Y-118334D01*
X-56505Y-119796D01*
X-57521Y-121121D01*
X-62479D01*
X-63496Y-119796D01*
X-65401Y-118334D01*
X-67619Y-117415D01*
X-70000Y-117101D01*
X-72381Y-117415D01*
X-74599Y-118334D01*
X-76505Y-119796D01*
X-77521Y-121121D01*
X-86050D01*
X-86115Y-121133D01*
X-88929Y-121504D01*
X-91613Y-122615D01*
X-93917Y-124383D01*
X-94551Y-125210D01*
X-99540D01*
Y-139290D01*
X-84460D01*
Y-131480D01*
X-77521D01*
X-76505Y-132804D01*
X-74599Y-134266D01*
X-72381Y-135185D01*
X-70000Y-135499D01*
X-67619Y-135185D01*
X-65401Y-134266D01*
X-63496Y-132804D01*
X-62479Y-131480D01*
X-57521D01*
X-56505Y-132804D01*
X-54599Y-134266D01*
X-52381Y-135185D01*
X-50000Y-135499D01*
X-47619Y-135185D01*
X-45401Y-134266D01*
X-43495Y-132804D01*
X-42479Y-131480D01*
X-37521D01*
X-36504Y-132804D01*
X-34599Y-134266D01*
X-32381Y-135185D01*
X-30000Y-135499D01*
X-27619Y-135185D01*
X-25401Y-134266D01*
X-23496Y-132804D01*
X-22034Y-130899D01*
X-21115Y-128681D01*
X-20801Y-126300D01*
X-21115Y-123919D01*
X-22034Y-121701D01*
X-23496Y-119796D01*
X-25401Y-118334D01*
X-27619Y-117415D01*
X-30000Y-117101D01*
D02*
G37*
%LPD*%
G36*
X-169800Y-7215D02*
X-169603Y-8206D01*
X-169041Y-9046D01*
X-168849Y-9238D01*
X-168154Y-10278D01*
X-167910Y-11505D01*
Y-22479D01*
X-167877Y-22646D01*
X-167888Y-22817D01*
X-167779Y-23138D01*
X-167713Y-23470D01*
X-167618Y-23612D01*
X-167563Y-23774D01*
X-167340Y-24028D01*
X-167152Y-24310D01*
X-167010Y-24405D01*
X-166897Y-24534D01*
X-165842Y-25343D01*
X-164796Y-26707D01*
X-164138Y-28295D01*
X-163913Y-30000D01*
X-164138Y-31705D01*
X-164796Y-33293D01*
X-165842Y-34657D01*
X-166897Y-35466D01*
X-167010Y-35595D01*
X-167152Y-35690D01*
X-167340Y-35972D01*
X-167563Y-36226D01*
X-167618Y-36388D01*
X-167713Y-36530D01*
X-167779Y-36862D01*
X-167888Y-37183D01*
X-167877Y-37354D01*
X-167910Y-37521D01*
Y-42479D01*
X-167877Y-42646D01*
X-167888Y-42817D01*
X-167779Y-43138D01*
X-167713Y-43470D01*
X-167618Y-43612D01*
X-167563Y-43774D01*
X-167340Y-44029D01*
X-167152Y-44310D01*
X-167010Y-44405D01*
X-166897Y-44534D01*
X-165842Y-45343D01*
X-164796Y-46707D01*
X-164138Y-48295D01*
X-163913Y-50000D01*
X-164138Y-51705D01*
X-164796Y-53293D01*
X-165842Y-54657D01*
X-166897Y-55466D01*
X-167010Y-55595D01*
X-167152Y-55690D01*
X-167340Y-55971D01*
X-167563Y-56226D01*
X-167618Y-56388D01*
X-167713Y-56530D01*
X-167779Y-56862D01*
X-167888Y-57183D01*
X-167877Y-57354D01*
X-167910Y-57521D01*
Y-60960D01*
X-167713Y-61951D01*
X-167152Y-62791D01*
X-166311Y-63353D01*
X-165320Y-63550D01*
X-164050D01*
Y-68795D01*
X-164016Y-68962D01*
X-164028Y-69133D01*
X-163913Y-70000D01*
X-164028Y-70867D01*
X-164016Y-71038D01*
X-164050Y-71205D01*
Y-76450D01*
X-169295D01*
X-169462Y-76484D01*
X-169633Y-76472D01*
X-170500Y-76587D01*
X-171367Y-76472D01*
X-171538Y-76484D01*
X-171705Y-76450D01*
X-176950D01*
Y-71205D01*
X-176984Y-71038D01*
X-176972Y-70867D01*
X-177087Y-70000D01*
X-176972Y-69133D01*
X-176984Y-68962D01*
X-176950Y-68795D01*
Y-63550D01*
X-175679D01*
X-174688Y-63353D01*
X-173848Y-62791D01*
X-173287Y-61951D01*
X-173090Y-60960D01*
Y-57521D01*
X-173123Y-57354D01*
X-173112Y-57183D01*
X-173221Y-56862D01*
X-173287Y-56530D01*
X-173382Y-56388D01*
X-173437Y-56226D01*
X-173660Y-55971D01*
X-173848Y-55690D01*
X-173990Y-55595D01*
X-174103Y-55466D01*
X-175158Y-54657D01*
X-176204Y-53293D01*
X-176862Y-51705D01*
X-177087Y-50000D01*
X-176862Y-48295D01*
X-176204Y-46707D01*
X-175158Y-45343D01*
X-174103Y-44534D01*
X-173990Y-44405D01*
X-173848Y-44310D01*
X-173660Y-44029D01*
X-173437Y-43774D01*
X-173382Y-43612D01*
X-173287Y-43470D01*
X-173221Y-43138D01*
X-173112Y-42817D01*
X-173123Y-42646D01*
X-173090Y-42479D01*
Y-37521D01*
X-173123Y-37354D01*
X-173112Y-37183D01*
X-173221Y-36862D01*
X-173287Y-36530D01*
X-173382Y-36388D01*
X-173437Y-36226D01*
X-173660Y-35972D01*
X-173848Y-35690D01*
X-173990Y-35595D01*
X-174103Y-35466D01*
X-175158Y-34657D01*
X-176204Y-33293D01*
X-176862Y-31705D01*
X-177087Y-30000D01*
X-176862Y-28295D01*
X-176204Y-26707D01*
X-175158Y-25343D01*
X-174103Y-24534D01*
X-173990Y-24405D01*
X-173848Y-24310D01*
X-173660Y-24028D01*
X-173437Y-23774D01*
X-173382Y-23612D01*
X-173287Y-23470D01*
X-173221Y-23138D01*
X-173112Y-22817D01*
X-173123Y-22646D01*
X-173090Y-22479D01*
Y-14540D01*
X-173287Y-13549D01*
X-173848Y-12709D01*
X-174688Y-12147D01*
X-175679Y-11950D01*
X-178700D01*
Y-2050D01*
X-169800D01*
Y-7215D01*
D02*
G37*
G36*
X271705Y-119938D02*
X273293Y-120596D01*
X274657Y-121643D01*
X275704Y-123007D01*
X276362Y-124595D01*
X276587Y-126300D01*
X276362Y-128005D01*
X275704Y-129593D01*
X274657Y-130957D01*
X273293Y-132004D01*
X271705Y-132662D01*
X270000Y-132887D01*
X268295Y-132662D01*
X266707Y-132004D01*
X265343Y-130957D01*
X264534Y-129903D01*
X264405Y-129790D01*
X264310Y-129648D01*
X264028Y-129460D01*
X263774Y-129237D01*
X263612Y-129182D01*
X263470Y-129087D01*
X263138Y-129021D01*
X262817Y-128912D01*
X262646Y-128923D01*
X262479Y-128890D01*
X257521D01*
X257354Y-128923D01*
X257183Y-128912D01*
X256862Y-129021D01*
X256530Y-129087D01*
X256388Y-129182D01*
X256226Y-129237D01*
X255972Y-129460D01*
X255690Y-129648D01*
X255595Y-129790D01*
X255466Y-129903D01*
X254657Y-130957D01*
X253293Y-132004D01*
X251705Y-132662D01*
X250000Y-132887D01*
X248295Y-132662D01*
X246707Y-132004D01*
X245343Y-130957D01*
X244534Y-129903D01*
X244405Y-129790D01*
X244310Y-129648D01*
X244028Y-129460D01*
X243774Y-129237D01*
X243612Y-129182D01*
X243470Y-129087D01*
X243138Y-129021D01*
X242817Y-128912D01*
X242646Y-128923D01*
X242479Y-128890D01*
X237521D01*
X237354Y-128923D01*
X237183Y-128912D01*
X236862Y-129021D01*
X236530Y-129087D01*
X236388Y-129182D01*
X236226Y-129237D01*
X235972Y-129460D01*
X235690Y-129648D01*
X235595Y-129790D01*
X235466Y-129903D01*
X234657Y-130957D01*
X233293Y-132004D01*
X231705Y-132662D01*
X230000Y-132887D01*
X228295Y-132662D01*
X226707Y-132004D01*
X225343Y-130957D01*
X224303Y-129603D01*
X224175Y-129490D01*
X224080Y-129348D01*
X223798Y-129160D01*
X223544Y-128937D01*
X223382Y-128882D01*
X223240Y-128787D01*
X222908Y-128721D01*
X222587Y-128612D01*
X222416Y-128623D01*
X222249Y-128590D01*
X216540D01*
X215549Y-128787D01*
X214709Y-129348D01*
X214147Y-130189D01*
X213950Y-131180D01*
Y-134700D01*
X204050D01*
Y-125800D01*
X209215D01*
X210206Y-125603D01*
X211046Y-125041D01*
X211738Y-124349D01*
X212778Y-123654D01*
X214005Y-123410D01*
X222709D01*
X222877Y-123377D01*
X223047Y-123388D01*
X223368Y-123279D01*
X223700Y-123213D01*
X223842Y-123118D01*
X224004Y-123063D01*
X224259Y-122840D01*
X224540Y-122652D01*
X224635Y-122510D01*
X224764Y-122397D01*
X225343Y-121643D01*
X226707Y-120596D01*
X228295Y-119938D01*
X230000Y-119713D01*
X231705Y-119938D01*
X233293Y-120596D01*
X234657Y-121643D01*
X235466Y-122697D01*
X235595Y-122810D01*
X235690Y-122952D01*
X235972Y-123140D01*
X236226Y-123363D01*
X236388Y-123418D01*
X236530Y-123513D01*
X236862Y-123579D01*
X237183Y-123688D01*
X237354Y-123677D01*
X237521Y-123710D01*
X242479D01*
X242646Y-123677D01*
X242817Y-123688D01*
X243138Y-123579D01*
X243470Y-123513D01*
X243612Y-123418D01*
X243774Y-123363D01*
X244028Y-123140D01*
X244310Y-122952D01*
X244405Y-122810D01*
X244534Y-122697D01*
X245343Y-121643D01*
X246707Y-120596D01*
X248295Y-119938D01*
X250000Y-119713D01*
X251705Y-119938D01*
X253293Y-120596D01*
X254657Y-121643D01*
X255466Y-122697D01*
X255595Y-122810D01*
X255690Y-122952D01*
X255972Y-123140D01*
X256226Y-123363D01*
X256388Y-123418D01*
X256530Y-123513D01*
X256862Y-123579D01*
X257183Y-123688D01*
X257354Y-123677D01*
X257521Y-123710D01*
X262479D01*
X262646Y-123677D01*
X262817Y-123688D01*
X263138Y-123579D01*
X263470Y-123513D01*
X263612Y-123418D01*
X263774Y-123363D01*
X264028Y-123140D01*
X264310Y-122952D01*
X264405Y-122810D01*
X264534Y-122697D01*
X265343Y-121643D01*
X266707Y-120596D01*
X268295Y-119938D01*
X270000Y-119713D01*
X271705Y-119938D01*
D02*
G37*
G36*
X-28295D02*
X-26707Y-120596D01*
X-25343Y-121643D01*
X-24296Y-123007D01*
X-23638Y-124595D01*
X-23413Y-126300D01*
X-23638Y-128005D01*
X-24296Y-129593D01*
X-25343Y-130957D01*
X-26707Y-132004D01*
X-28295Y-132662D01*
X-30000Y-132887D01*
X-31705Y-132662D01*
X-33293Y-132004D01*
X-34657Y-130957D01*
X-35466Y-129903D01*
X-35595Y-129790D01*
X-35690Y-129648D01*
X-35972Y-129460D01*
X-36226Y-129237D01*
X-36388Y-129182D01*
X-36530Y-129087D01*
X-36862Y-129021D01*
X-37183Y-128912D01*
X-37354Y-128923D01*
X-37521Y-128890D01*
X-42479D01*
X-42646Y-128923D01*
X-42817Y-128912D01*
X-43138Y-129021D01*
X-43470Y-129087D01*
X-43612Y-129182D01*
X-43774Y-129237D01*
X-44029Y-129460D01*
X-44310Y-129648D01*
X-44405Y-129790D01*
X-44534Y-129903D01*
X-45343Y-130957D01*
X-46707Y-132004D01*
X-48295Y-132662D01*
X-50000Y-132887D01*
X-51705Y-132662D01*
X-53293Y-132004D01*
X-54657Y-130957D01*
X-55466Y-129903D01*
X-55595Y-129790D01*
X-55690Y-129648D01*
X-55971Y-129460D01*
X-56226Y-129237D01*
X-56388Y-129182D01*
X-56530Y-129087D01*
X-56862Y-129021D01*
X-57183Y-128912D01*
X-57354Y-128923D01*
X-57521Y-128890D01*
X-62479D01*
X-62646Y-128923D01*
X-62817Y-128912D01*
X-63138Y-129021D01*
X-63470Y-129087D01*
X-63612Y-129182D01*
X-63774Y-129237D01*
X-64029Y-129460D01*
X-64310Y-129648D01*
X-64405Y-129790D01*
X-64534Y-129903D01*
X-65343Y-130957D01*
X-66707Y-132004D01*
X-68295Y-132662D01*
X-70000Y-132887D01*
X-71705Y-132662D01*
X-73293Y-132004D01*
X-74657Y-130957D01*
X-75466Y-129903D01*
X-75595Y-129790D01*
X-75690Y-129648D01*
X-75971Y-129460D01*
X-76226Y-129237D01*
X-76388Y-129182D01*
X-76530Y-129087D01*
X-76862Y-129021D01*
X-77183Y-128912D01*
X-77354Y-128923D01*
X-77521Y-128890D01*
X-84460D01*
X-85451Y-129087D01*
X-86291Y-129648D01*
X-86853Y-130489D01*
X-87050Y-131480D01*
Y-136700D01*
X-96950D01*
Y-127800D01*
X-94551D01*
X-94383Y-127766D01*
X-94213Y-127778D01*
X-93892Y-127669D01*
X-93560Y-127603D01*
X-93418Y-127508D01*
X-93256Y-127453D01*
X-93001Y-127229D01*
X-92720Y-127041D01*
X-92625Y-126899D01*
X-92496Y-126786D01*
X-92070Y-126230D01*
X-90307Y-124878D01*
X-88253Y-124027D01*
X-85847Y-123710D01*
X-77521D01*
X-77354Y-123677D01*
X-77183Y-123688D01*
X-76862Y-123579D01*
X-76530Y-123513D01*
X-76388Y-123418D01*
X-76226Y-123363D01*
X-75971Y-123140D01*
X-75690Y-122952D01*
X-75595Y-122810D01*
X-75466Y-122697D01*
X-74657Y-121643D01*
X-73293Y-120596D01*
X-71705Y-119938D01*
X-70000Y-119713D01*
X-68295Y-119938D01*
X-66707Y-120596D01*
X-65343Y-121643D01*
X-64534Y-122697D01*
X-64405Y-122810D01*
X-64310Y-122952D01*
X-64029Y-123140D01*
X-63774Y-123363D01*
X-63612Y-123418D01*
X-63470Y-123513D01*
X-63138Y-123579D01*
X-62817Y-123688D01*
X-62646Y-123677D01*
X-62479Y-123710D01*
X-57521D01*
X-57354Y-123677D01*
X-57183Y-123688D01*
X-56862Y-123579D01*
X-56530Y-123513D01*
X-56388Y-123418D01*
X-56226Y-123363D01*
X-55971Y-123140D01*
X-55690Y-122952D01*
X-55595Y-122810D01*
X-55466Y-122697D01*
X-54657Y-121643D01*
X-53293Y-120596D01*
X-51705Y-119938D01*
X-50000Y-119713D01*
X-48295Y-119938D01*
X-46707Y-120596D01*
X-45343Y-121643D01*
X-44534Y-122697D01*
X-44405Y-122810D01*
X-44310Y-122952D01*
X-44029Y-123140D01*
X-43774Y-123363D01*
X-43612Y-123418D01*
X-43470Y-123513D01*
X-43138Y-123579D01*
X-42817Y-123688D01*
X-42646Y-123677D01*
X-42479Y-123710D01*
X-37521D01*
X-37354Y-123677D01*
X-37183Y-123688D01*
X-36862Y-123579D01*
X-36530Y-123513D01*
X-36388Y-123418D01*
X-36226Y-123363D01*
X-35972Y-123140D01*
X-35690Y-122952D01*
X-35595Y-122810D01*
X-35466Y-122697D01*
X-34657Y-121643D01*
X-33293Y-120596D01*
X-31705Y-119938D01*
X-30000Y-119713D01*
X-28295Y-119938D01*
D02*
G37*
%LPC*%
G36*
X222000Y104429D02*
X220207Y104193D01*
X218536Y103501D01*
X217101Y102400D01*
X215999Y100964D01*
X215307Y99293D01*
X215208Y98540D01*
X212460D01*
Y80460D01*
X231540D01*
Y98540D01*
X228793D01*
X228693Y99293D01*
X228001Y100964D01*
X226900Y102400D01*
X225465Y103501D01*
X223794Y104193D01*
X222000Y104429D01*
D02*
G37*
G36*
X229540Y62290D02*
X214460D01*
Y48210D01*
X229540D01*
Y62290D01*
D02*
G37*
G36*
X154540Y62290D02*
X139460D01*
Y48210D01*
X154540D01*
Y62290D01*
D02*
G37*
G36*
X-878Y173770D02*
X-2911Y173339D01*
X-4762Y172397D01*
X-6306Y171007D01*
X-7438Y169265D01*
X-8081Y167290D01*
X-8191Y165215D01*
X-8082Y163835D01*
X-8635Y162136D01*
X-8758Y159804D01*
X-8273Y157520D01*
X-7463Y155927D01*
X-7355Y154548D01*
X-6923Y152515D01*
X-5981Y150664D01*
X-4591Y149120D01*
X-2849Y147988D01*
X-874Y147345D01*
X1201Y147236D01*
X3233Y147667D01*
X5084Y148609D01*
X6629Y149999D01*
X7761Y151741D01*
X8403Y153716D01*
X8513Y155791D01*
X8405Y157171D01*
X8957Y158870D01*
X9080Y161202D01*
X8596Y163486D01*
X7785Y165079D01*
X7677Y166458D01*
X7246Y168491D01*
X6303Y170342D01*
X4914Y171886D01*
X3172Y173018D01*
X1196Y173661D01*
X-878Y173770D01*
D02*
G37*
G36*
X0Y115217D02*
X-3944Y114828D01*
X-7737Y113678D01*
X-11232Y111810D01*
X-14296Y109295D01*
X-16810Y106232D01*
X-18678Y102736D01*
X-19829Y98944D01*
X-20217Y95000D01*
X-19829Y91055D01*
X-18678Y87263D01*
X-16810Y83767D01*
X-14296Y80704D01*
X-11232Y78189D01*
X-7737Y76321D01*
X-3944Y75171D01*
X0Y74782D01*
X3944Y75171D01*
X7737Y76321D01*
X11232Y78189D01*
X14296Y80704D01*
X16810Y83767D01*
X18678Y87263D01*
X19829Y91055D01*
X20217Y95000D01*
X19829Y98944D01*
X18678Y102736D01*
X16810Y106232D01*
X14296Y109295D01*
X11232Y111810D01*
X7737Y113678D01*
X3944Y114828D01*
X0Y115217D01*
D02*
G37*
G36*
X80000Y20217D02*
X76056Y19829D01*
X72263Y18678D01*
X68768Y16810D01*
X65704Y14296D01*
X63190Y11232D01*
X61321Y7737D01*
X60171Y3944D01*
X59783Y0D01*
X60171Y-3944D01*
X61321Y-7737D01*
X63190Y-11232D01*
X65704Y-14296D01*
X68768Y-16810D01*
X72263Y-18678D01*
X76056Y-19829D01*
X80000Y-20217D01*
X83944Y-19829D01*
X87737Y-18678D01*
X91232Y-16810D01*
X94296Y-14296D01*
X96810Y-11232D01*
X98678Y-7737D01*
X99829Y-3944D01*
X100217Y0D01*
X99829Y3944D01*
X98678Y7737D01*
X96810Y11232D01*
X94296Y14296D01*
X91232Y16810D01*
X87737Y18678D01*
X83944Y19829D01*
X80000Y20217D01*
D02*
G37*
G36*
X-80000D02*
X-83945Y19829D01*
X-87737Y18678D01*
X-91233Y16810D01*
X-94296Y14296D01*
X-96811Y11232D01*
X-98679Y7737D01*
X-99829Y3944D01*
X-100218Y0D01*
X-99829Y-3944D01*
X-98679Y-7737D01*
X-96811Y-11232D01*
X-94296Y-14296D01*
X-91233Y-16810D01*
X-87737Y-18678D01*
X-83945Y-19829D01*
X-80000Y-20217D01*
X-76056Y-19829D01*
X-72263Y-18678D01*
X-68768Y-16810D01*
X-65704Y-14296D01*
X-63190Y-11232D01*
X-61322Y-7737D01*
X-60171Y-3944D01*
X-59783Y0D01*
X-60171Y3944D01*
X-61322Y7737D01*
X-63190Y11232D01*
X-65704Y14296D01*
X-68768Y16810D01*
X-72263Y18678D01*
X-76056Y19829D01*
X-80000Y20217D01*
D02*
G37*
G36*
X0Y45217D02*
X-5902Y44830D01*
X-11703Y43676D01*
X-17304Y41775D01*
X-22608Y39159D01*
X-27526Y35873D01*
X-31973Y31973D01*
X-35873Y27526D01*
X-39159Y22608D01*
X-41775Y17304D01*
X-43676Y11703D01*
X-44830Y5902D01*
X-45217Y0D01*
X-44830Y-5902D01*
X-43676Y-11703D01*
X-41775Y-17304D01*
X-39159Y-22608D01*
X-35873Y-27526D01*
X-31973Y-31973D01*
X-27526Y-35873D01*
X-22608Y-39159D01*
X-17304Y-41775D01*
X-11703Y-43676D01*
X-5902Y-44830D01*
X0Y-45217D01*
X5902Y-44830D01*
X11703Y-43676D01*
X17304Y-41775D01*
X22608Y-39159D01*
X27526Y-35873D01*
X31973Y-31973D01*
X35873Y-27526D01*
X39159Y-22608D01*
X41775Y-17304D01*
X43676Y-11703D01*
X44830Y-5902D01*
X45217Y0D01*
X44830Y5902D01*
X43676Y11703D01*
X41775Y17304D01*
X39159Y22608D01*
X35873Y27526D01*
X31973Y31973D01*
X27526Y35873D01*
X22608Y39159D01*
X17304Y41775D01*
X11703Y43676D01*
X5902Y44830D01*
X0Y45217D01*
D02*
G37*
G36*
X-73000Y-62288D02*
X-75772Y-62653D01*
X-78356Y-63723D01*
X-80574Y-65426D01*
X-82277Y-67644D01*
X-83347Y-70228D01*
X-83712Y-73000D01*
X-83347Y-75772D01*
X-82277Y-78356D01*
X-80574Y-80574D01*
X-78356Y-82277D01*
X-75772Y-83347D01*
X-73000Y-83712D01*
X-70228Y-83347D01*
X-67644Y-82277D01*
X-65426Y-80574D01*
X-63723Y-78356D01*
X-62653Y-75772D01*
X-62288Y-73000D01*
X-62653Y-70228D01*
X-63723Y-67644D01*
X-65426Y-65426D01*
X-67644Y-63723D01*
X-70228Y-62653D01*
X-73000Y-62288D01*
D02*
G37*
G36*
X133468Y-70154D02*
X131436Y-70585D01*
X129584Y-71528D01*
X128040Y-72917D01*
X126908Y-74659D01*
X126265Y-76635D01*
X126156Y-78710D01*
X126587Y-80742D01*
X127529Y-82593D01*
X128919Y-84137D01*
X130661Y-85270D01*
X131910Y-85866D01*
X133105Y-87194D01*
X135063Y-88467D01*
X137284Y-89189D01*
X139068Y-89283D01*
X140317Y-89880D01*
X142293Y-90522D01*
X144367Y-90632D01*
X146399Y-90200D01*
X148251Y-89258D01*
X149795Y-87868D01*
X150927Y-86126D01*
X151570Y-84151D01*
X151679Y-82076D01*
X151248Y-80044D01*
X150306Y-78193D01*
X148916Y-76648D01*
X147174Y-75516D01*
X145925Y-74920D01*
X144730Y-73592D01*
X142772Y-72319D01*
X140551Y-71597D01*
X138767Y-71503D01*
X137518Y-70906D01*
X135542Y-70264D01*
X133468Y-70154D01*
D02*
G37*
%LPD*%
D12*
X376310Y47940D02*
X377250Y47000D01*
X376310Y47940D02*
Y58099D01*
X374000Y60409D02*
X376310Y58099D01*
X374000Y60409D02*
Y62000D01*
X208530Y-144220D02*
X209000Y-143750D01*
X208060Y-144690D02*
X208530Y-144220D01*
X-92000Y-145750D02*
X-91060Y-146690D01*
X-187690Y207940D02*
X-186750Y207000D01*
X-187690Y207940D02*
Y208440D01*
D13*
X-70000Y-146300D02*
G03*
X-70550Y-145750I-550J0D01*
G01*
X121000Y141000D02*
X133520Y128480D01*
Y-26520D02*
Y128480D01*
Y-26520D02*
X136500Y-29500D01*
X-24426Y170574D02*
X-18480Y176520D01*
X-24426Y159254D02*
Y170574D01*
X-18480Y176520D02*
Y182520D01*
X-25161Y158519D02*
X-24426Y159254D01*
X144847Y133543D02*
X216543D01*
X239000Y156000D01*
X141129Y131000D02*
X142303D01*
X144847Y133543D01*
X230310Y271690D02*
X291500Y210500D01*
X163390Y273690D02*
X196453D01*
X198454Y271690D01*
X230310D01*
X163000Y274080D02*
X163390Y273690D01*
X172812Y326812D02*
X223000Y377000D01*
X151812Y326812D02*
X172812D01*
X106000Y281000D02*
X151812Y326812D01*
X226691Y257309D02*
X264000Y220000D01*
X189272Y257309D02*
X226691D01*
X264000Y203000D02*
Y220000D01*
X305000Y131000D02*
Y176000D01*
X166000Y46750D02*
X179043D01*
X180293Y45500D01*
X181500D01*
X241000Y46750D02*
X254044D01*
X255293Y45500D01*
X256500D01*
X316000Y46750D02*
X329043D01*
X330293Y45500D01*
X331500D01*
X297000Y89500D02*
X297000Y89500D01*
Y97500D01*
X222000Y89500D02*
X222000Y89500D01*
Y97500D01*
X147000Y88500D02*
X147000Y88500D01*
Y97500D01*
X146500Y55250D02*
X147000D01*
X146750Y55000D02*
X147000Y55250D01*
X208530Y-144220D02*
X210610Y-146300D01*
X-92000Y-145750D02*
X-70550D01*
X163000Y264540D02*
X228460D01*
X278500Y214500D01*
Y203000D02*
Y214500D01*
X291500Y203000D02*
Y210500D01*
X241000Y191338D02*
X241669Y190669D01*
X241000Y191338D02*
Y200437D01*
X200163Y148163D02*
X229000Y177000D01*
X251000D01*
X212853Y140853D02*
X235310Y163310D01*
X236103D01*
X238793Y166000D01*
X240000D01*
X291000Y266000D02*
X299750Y257250D01*
X291000Y266000D02*
Y283999D01*
X281999D02*
X291999D01*
X291853Y283853D02*
X291999Y283999D01*
X291000Y312000D02*
X299750Y320750D01*
X291000Y294000D02*
Y312000D01*
X299750Y320750D02*
X310000D01*
X299750Y257250D02*
X310000D01*
X282001Y294000D02*
X291000D01*
X282001Y293999D02*
X282001Y294000D01*
X282000D02*
X282001Y293999D01*
X73000Y73000D02*
X117000Y117000D01*
Y128000D01*
X90017Y131017D02*
X107949D01*
X22000Y63000D02*
X90017Y131017D01*
X-63000Y63000D02*
X22000D01*
X-73000Y73000D02*
X-63000Y63000D01*
X98000Y150000D02*
X107000Y141000D01*
X98000Y150000D02*
Y163282D01*
X107000Y141000D02*
X121000D01*
X98146Y166146D02*
X99000Y167000D01*
X98146Y163428D02*
Y166146D01*
X98000Y163282D02*
X98146Y163428D01*
X109000Y150000D02*
X110207D01*
X112044Y148163D01*
X200163D01*
X141310Y140853D02*
X212853D01*
X305000Y131000D02*
X374000Y62000D01*
X136500Y-29500D02*
X137000D01*
X-138000Y-3000D02*
Y111338D01*
X-40028Y209310D01*
X93662Y177000D02*
X99000D01*
X71912Y198750D02*
X93662Y177000D01*
X94000Y187000D02*
X99000D01*
X71690Y209310D02*
X94000Y187000D01*
X-21500Y316000D02*
X3000D01*
X83000Y236000D02*
X192000D01*
X3000Y316000D02*
X83000Y236000D01*
X115311Y242689D02*
X206483D01*
X20142Y307520D02*
X50480D01*
X115311Y242689D01*
X15860Y317858D02*
X23000Y324998D01*
X15860Y311802D02*
Y317858D01*
X23000Y324998D02*
Y326000D01*
X15860Y311802D02*
X20142Y307520D01*
X23560Y314440D02*
X51560D01*
X118000Y248000D01*
X159662D01*
X23170Y314830D02*
X23560Y314440D01*
X-47000Y332500D02*
X-46190Y333310D01*
X137000Y-51000D02*
X139605Y-53605D01*
X145994D02*
X149860Y-57471D01*
X139605Y-53605D02*
X145994D01*
X137000Y-51000D02*
Y-42500D01*
X165000Y-65000D02*
Y-54250D01*
X153500Y-42750D02*
X165000Y-54250D01*
X144389Y-68932D02*
X147457Y-72000D01*
X158000D01*
X165000Y-65000D01*
X153000Y-42750D02*
X153500D01*
X137000Y-29500D02*
X138750Y-31250D01*
X151000D01*
X153000Y-29250D01*
X500Y185250D02*
X1000D01*
X-11357Y173393D02*
X500Y185250D01*
X-11357Y160654D02*
Y173393D01*
X-12500Y159511D02*
X-11357Y160654D01*
X-15500Y185500D02*
X-15000D01*
X-18480Y182520D02*
X-15500Y185500D01*
X1000Y198750D02*
X71912D01*
X750Y198500D02*
X1000Y198750D01*
X-15000Y198500D02*
X750D01*
X186963Y255000D02*
X189272Y257309D01*
X163000Y255000D02*
X186963D01*
X206483Y242689D02*
X210793Y247000D01*
X212000D01*
X218270Y223166D02*
X241000Y200437D01*
X218270Y223166D02*
Y239810D01*
X201793Y250000D02*
X202094D01*
X199793Y248000D02*
X201793Y250000D01*
X166338Y248000D02*
X199793D01*
X166028Y247690D02*
X166338Y248000D01*
X159972Y247690D02*
X166028D01*
X159662Y248000D02*
X159972Y247690D01*
X-40028Y209310D02*
X71690D01*
X217000Y188000D02*
Y211000D01*
X192000Y236000D02*
X217000Y211000D01*
X251000Y203000D02*
Y204500D01*
X261020Y200020D02*
X264000Y203000D01*
X261020Y189980D02*
Y200020D01*
Y189980D02*
X264000Y187000D01*
X275520Y200020D02*
X278500Y203000D01*
X275520Y189980D02*
Y200020D01*
Y189980D02*
X278500Y187000D01*
X-83000Y379000D02*
X-66860D01*
X-130230D02*
X-83000D01*
X-46500Y345500D02*
Y358640D01*
X-66860Y379000D02*
X-46500Y358640D01*
X-47000Y345500D02*
X-43520Y348980D01*
X-47000Y332500D02*
X-46900Y332400D01*
Y316000D02*
Y332400D01*
X-48147Y314753D02*
X-46900Y316000D01*
X-46500Y345500D02*
X-43520Y348480D01*
Y348980D01*
X-131230Y380000D02*
X-130230Y379000D01*
X150000Y360000D02*
Y360207D01*
X-133500Y146000D02*
X-118000D01*
X-134500Y147000D02*
X-133500Y146000D01*
X-135500D02*
X-134500Y147000D01*
X150000Y360207D02*
X151023Y361230D01*
X210610Y-146300D02*
X230000D01*
X-190500Y-9750D02*
X-187750Y-7000D01*
X-190500Y-30000D02*
Y-9750D01*
Y230000D02*
X-189980Y229480D01*
Y210230D02*
Y229480D01*
Y210230D02*
X-187690Y207940D01*
D21*
X303000Y-14000D02*
Y35000D01*
Y-14000D02*
X309000Y-20000D01*
Y-54850D02*
Y-20000D01*
X295000Y43000D02*
X303000Y35000D01*
X309000Y-54850D02*
X340000Y-85850D01*
X277000Y-23000D02*
Y12500D01*
X146001Y-18000D02*
X162000D01*
X140000Y-11999D02*
Y18000D01*
Y-11999D02*
X146001Y-18000D01*
X162000D02*
X176000Y-32000D01*
X140000Y18000D02*
X145000Y23000D01*
X178000Y-22000D02*
Y5750D01*
Y-22000D02*
X196000Y-40000D01*
X196000D01*
X166000Y17750D02*
Y32250D01*
Y17750D02*
X178000Y5750D01*
X343000Y-55053D02*
X346000Y-52053D01*
X332000Y32500D02*
X346000Y18499D01*
Y-52053D02*
Y18499D01*
X343000Y-56000D02*
Y-55053D01*
X330251Y17750D02*
X340000Y8000D01*
X334516Y-38484D02*
X340000Y-33000D01*
Y8000D01*
X325000Y-40000D02*
X326516Y-38484D01*
X334516D01*
X316000Y17750D02*
X330251D01*
X332000Y32500D02*
Y32500D01*
X257000Y32500D02*
X277000Y12500D01*
X257000Y32500D02*
Y32500D01*
X316000Y19001D02*
Y32250D01*
X197500Y32500D02*
X217000Y13000D01*
X212000Y-22323D02*
X217000Y-17323D01*
Y13000D01*
X225000Y-34232D02*
Y18000D01*
X220000Y23000D02*
X225000Y18000D01*
X182000Y32500D02*
X197500D01*
X225000Y-34232D02*
X275884Y-85116D01*
X241000Y-21000D02*
X260000Y-40000D01*
X260000D01*
X241000Y-21000D02*
Y32250D01*
X176000Y-44000D02*
Y-32000D01*
Y-44000D02*
X211621Y-79621D01*
Y-85621D02*
Y-79621D01*
X275884Y-85116D02*
X275884D01*
D24*
X137000Y-42500D02*
D03*
Y-29500D02*
D03*
X-15000Y198500D02*
D03*
Y185500D02*
D03*
X-47000Y345500D02*
D03*
Y332500D02*
D03*
D25*
X297000Y68750D02*
D03*
Y55250D02*
D03*
X222000Y68750D02*
D03*
Y55250D02*
D03*
X147000Y55250D02*
D03*
Y68750D02*
D03*
X153000Y-42750D02*
D03*
Y-29250D02*
D03*
X1000Y185250D02*
D03*
Y198750D02*
D03*
X209000Y-143750D02*
D03*
Y-130250D02*
D03*
X-92000Y-145750D02*
D03*
Y-132250D02*
D03*
D29*
X390750Y47000D02*
D03*
X377250D02*
D03*
X-186750Y207000D02*
D03*
X-173250D02*
D03*
X-187750Y-7000D02*
D03*
X-174250D02*
D03*
D45*
X291500Y203000D02*
D03*
X278500D02*
D03*
X278500Y187000D02*
D03*
X291500D02*
D03*
X264000Y203000D02*
D03*
X251000D02*
D03*
X264000Y187000D02*
D03*
X251000D02*
D03*
X-148500Y146000D02*
D03*
X-135500D02*
D03*
D85*
X282000Y43000D02*
X295000Y30000D01*
Y-73000D02*
Y30000D01*
Y-73000D02*
X321000Y-99000D01*
X282000Y43000D02*
Y160000D01*
X266600Y44400D02*
Y155400D01*
Y44400D02*
X285600Y25400D01*
X274162Y-99000D02*
X285600Y-87562D01*
Y25400D01*
X251000Y171000D02*
Y177000D01*
Y171000D02*
X266600Y155400D01*
X251000Y177000D02*
Y187000D01*
X257000Y-99000D02*
X274162D01*
X268000Y174000D02*
X282000Y160000D01*
X321000Y-99000D02*
Y-99000D01*
D86*
X-86050Y-126300D02*
G03*
X-92000Y-132250I0J-5950D01*
G01*
X-72000Y296000D02*
Y320300D01*
X-86050Y-126300D02*
X-70000D01*
X-145500Y295000D02*
X-72000D01*
X-70000Y-126300D02*
X-50000D01*
X-170500Y270000D02*
X-145500Y295000D01*
X-30000Y-126300D02*
X-28014D01*
X-50000D02*
X-30000D01*
X-170500Y-30000D02*
Y-11250D01*
Y-50000D02*
Y-30000D01*
Y250000D02*
Y270000D01*
X229700Y-126000D02*
X230000Y-126300D01*
X209000Y-130250D02*
X209500D01*
X213750Y-126000D01*
X229700D01*
X230000Y-126300D02*
X250000D01*
X270000D01*
X-30000Y-126300D02*
X-30000D01*
X-170500Y230000D02*
X-170500Y230000D01*
X-170500Y210250D02*
Y230000D01*
X-173250Y207500D02*
X-170500Y210250D01*
X-173250Y207000D02*
Y207500D01*
X-170500Y230000D02*
Y250000D01*
X-174250Y-7500D02*
Y-7000D01*
Y-7500D02*
X-170500Y-11250D01*
Y-70000D02*
Y-50000D01*
D88*
X243000Y377000D02*
D03*
X263000D02*
D03*
X283000D02*
D03*
X-88000Y258000D02*
D03*
X-68000D02*
D03*
X374000Y62000D02*
D03*
X-190500Y-30000D02*
D03*
Y-50000D02*
D03*
X-170500Y-30000D02*
D03*
Y-50000D02*
D03*
X-190500Y-70000D02*
D03*
Y270000D02*
D03*
Y250000D02*
D03*
X-170500Y270000D02*
D03*
Y250000D02*
D03*
X-190500Y230000D02*
D03*
X270000Y-126300D02*
D03*
X250000D02*
D03*
X270000Y-146300D02*
D03*
X250000D02*
D03*
X230000Y-126300D02*
D03*
X-30000D02*
D03*
X-50000D02*
D03*
X-30000Y-146300D02*
D03*
X-50000D02*
D03*
X-70000Y-126300D02*
D03*
D89*
X223000Y377000D02*
D03*
X-108000Y258000D02*
D03*
X394000Y62000D02*
D03*
X230000Y-146300D02*
D03*
X-70000D02*
D03*
D90*
X73000Y73000D02*
D03*
Y-73000D02*
D03*
X-73000D02*
D03*
Y73000D02*
D03*
X-97700Y316000D02*
D03*
X-46900D02*
D03*
X-72300D02*
D03*
X-123100D02*
D03*
X-148500D02*
D03*
D91*
X0Y251000D02*
D03*
Y420000D02*
D03*
X-150000Y380000D02*
D03*
X150000D02*
D03*
X420000Y0D02*
D03*
X370000Y370000D02*
D03*
D92*
X-124701Y-101039D02*
D03*
X-139081Y-80101D02*
D03*
X-131891Y-90570D02*
D03*
D93*
X144389Y-68932D02*
D03*
X138918Y-80393D02*
D03*
X149860Y-57471D02*
D03*
D94*
X-25161Y158519D02*
D03*
X161Y160503D02*
D03*
X-12500Y159511D02*
D03*
D95*
X-21500Y316000D02*
D03*
D96*
X325000Y-40000D02*
D03*
X260000D02*
D03*
X196000D02*
D03*
D97*
X-170500Y-70000D02*
D03*
Y230000D02*
D03*
D98*
X317000Y1000D02*
D03*
X331000Y-8000D02*
D03*
Y1000D02*
D03*
X317000Y-8000D02*
D03*
X277000Y-23000D02*
D03*
X366000Y-9000D02*
D03*
X355000D02*
D03*
X153000D02*
D03*
X168000D02*
D03*
X183000Y281000D02*
D03*
X-26816Y179184D02*
D03*
X-36816Y179184D02*
D03*
X164000Y124000D02*
D03*
X221000Y279000D02*
D03*
X151750Y277000D02*
D03*
X134000Y283500D02*
D03*
X343000Y-56000D02*
D03*
X253000Y1000D02*
D03*
X267000D02*
D03*
X253000Y-8000D02*
D03*
X267000D02*
D03*
X203000D02*
D03*
X189000D02*
D03*
X203000Y1000D02*
D03*
X189000D02*
D03*
X295000Y43000D02*
D03*
X316000Y32250D02*
D03*
X297000Y55250D02*
D03*
Y68750D02*
D03*
X231000Y241000D02*
D03*
X254000Y115000D02*
D03*
X305000Y176000D02*
D03*
X331500Y45500D02*
D03*
X256500Y45500D02*
D03*
X181500Y45500D02*
D03*
X182000Y32500D02*
D03*
X297000Y97500D02*
D03*
X222000D02*
D03*
X147000D02*
D03*
X171000Y75000D02*
D03*
X147000Y55250D02*
D03*
X222000Y55250D02*
D03*
X222000Y68750D02*
D03*
X147000D02*
D03*
X220000Y23000D02*
D03*
X257000Y32500D02*
D03*
X332000Y32500D02*
D03*
X241000Y32250D02*
D03*
X212000Y-22323D02*
D03*
X166000Y32250D02*
D03*
X239000Y156000D02*
D03*
X241669Y190669D02*
D03*
X240000Y166000D02*
D03*
X291000Y294000D02*
D03*
Y283999D02*
D03*
X281999D02*
D03*
X282000Y294000D02*
D03*
X107949Y131017D02*
D03*
X117000Y128000D02*
D03*
X109000Y150000D02*
D03*
X141310Y140853D02*
D03*
X141129Y131000D02*
D03*
X106000Y281000D02*
D03*
X137000Y-29500D02*
D03*
X-138000Y-3000D02*
D03*
X99000Y167000D02*
D03*
Y177000D02*
D03*
X99000Y187000D02*
D03*
X-20000Y250000D02*
D03*
X0Y231000D02*
D03*
Y271000D02*
D03*
X20000Y250000D02*
D03*
X-15000Y263000D02*
D03*
X14000Y264000D02*
D03*
Y237000D02*
D03*
X-13000Y236000D02*
D03*
X150000Y400000D02*
D03*
Y360000D02*
D03*
X130000Y379000D02*
D03*
X170000D02*
D03*
X164000Y393000D02*
D03*
X135000Y392000D02*
D03*
X137000Y365000D02*
D03*
X164000Y366000D02*
D03*
X-150000Y400000D02*
D03*
Y360000D02*
D03*
X-170000Y379000D02*
D03*
X-130000D02*
D03*
X-136000Y393000D02*
D03*
X-165000Y392000D02*
D03*
X-163000Y365000D02*
D03*
X-136000Y366000D02*
D03*
X370000Y390000D02*
D03*
Y350000D02*
D03*
X350000Y369000D02*
D03*
X390000D02*
D03*
X384000Y383000D02*
D03*
X355000Y382000D02*
D03*
X357000Y355000D02*
D03*
X384000Y356000D02*
D03*
X420000Y20000D02*
D03*
Y-20000D02*
D03*
X400000Y-1000D02*
D03*
X440000D02*
D03*
X434000Y13000D02*
D03*
X405000Y12000D02*
D03*
X407000Y-15000D02*
D03*
X434000Y-14000D02*
D03*
X14000Y406000D02*
D03*
X-13000Y405000D02*
D03*
X-15000Y432000D02*
D03*
X14000Y433000D02*
D03*
X20000Y419000D02*
D03*
X-20000D02*
D03*
X0Y400000D02*
D03*
Y440000D02*
D03*
X23170Y314830D02*
D03*
X59000Y321750D02*
D03*
X23000Y326000D02*
D03*
X218270Y239810D02*
D03*
X212000Y247000D02*
D03*
X202094Y250000D02*
D03*
X163000Y255000D02*
D03*
X245000Y289000D02*
D03*
X157000Y199000D02*
D03*
X134000Y223000D02*
D03*
X217000Y188000D02*
D03*
X134000Y177000D02*
D03*
X181000Y224000D02*
D03*
X163000Y264540D02*
D03*
X180000Y177000D02*
D03*
X163000Y274080D02*
D03*
X251000Y204500D02*
D03*
X110750Y349500D02*
D03*
X84000Y308000D02*
D03*
Y322000D02*
D03*
X100000D02*
D03*
Y308000D02*
D03*
X268000Y174000D02*
D03*
X321000Y-99000D02*
D03*
X257000D02*
D03*
X321000Y75000D02*
D03*
X246000D02*
D03*
X-48147Y214853D02*
D03*
X340000Y-85850D02*
D03*
X275884Y-85116D02*
D03*
X211621Y-85621D02*
D03*
X-37000Y191000D02*
D03*
X-27000Y191000D02*
D03*
X-118000Y146000D02*
D03*
X-37000Y202000D02*
D03*
X-27000D02*
D03*
X369000Y41000D02*
D03*
X358000Y19000D02*
D03*
X369000Y51000D02*
D03*
Y30000D02*
D03*
Y19000D02*
D03*
X358000Y30000D02*
D03*
Y41000D02*
D03*
Y51000D02*
D03*
X145000Y23000D02*
D03*
X-124000Y240000D02*
D03*
X-134000D02*
D03*
Y230000D02*
D03*
X-124000D02*
D03*
D99*
X166000Y17750D02*
D03*
Y46750D02*
D03*
X147000Y118500D02*
D03*
Y89500D02*
D03*
X297000Y118500D02*
D03*
Y89500D02*
D03*
X316000Y17750D02*
D03*
Y46750D02*
D03*
X222000Y118500D02*
D03*
Y89500D02*
D03*
X241000Y17750D02*
D03*
Y46750D02*
D03*
D100*
X310000Y257250D02*
D03*
Y320750D02*
D03*
M02*
