G04*
G04 #@! TF.GenerationSoftware,Altium Limited,Altium Designer,24.4.1 (13)*
G04*
G04 Layer_Color=8421504*
%FSLAX44Y44*%
%MOMM*%
G71*
G04*
G04 #@! TF.SameCoordinates,8FCA56C2-8F78-4201-AFF4-6E38B21BD071*
G04*
G04*
G04 #@! TF.FilePolarity,Positive*
G04*
G01*
G75*
%ADD24R,0.9500X0.8500*%
%ADD25R,1.0000X0.9000*%
%ADD26R,0.3400X0.8000*%
%ADD27R,0.4200X0.6600*%
G04:AMPARAMS|DCode=28|XSize=0.6mm|YSize=0.24mm|CornerRadius=0.03mm|HoleSize=0mm|Usage=FLASHONLY|Rotation=90.000|XOffset=0mm|YOffset=0mm|HoleType=Round|Shape=RoundedRectangle|*
%AMROUNDEDRECTD28*
21,1,0.6000,0.1800,0,0,90.0*
21,1,0.5400,0.2400,0,0,90.0*
1,1,0.0600,0.0900,0.2700*
1,1,0.0600,0.0900,-0.2700*
1,1,0.0600,-0.0900,-0.2700*
1,1,0.0600,-0.0900,0.2700*
%
%ADD28ROUNDEDRECTD28*%
%ADD29R,0.9000X1.0000*%
%ADD30R,2.5500X2.4500*%
%ADD31R,0.2600X0.8600*%
%ADD32R,0.8600X0.2600*%
%ADD33R,2.7000X1.3000*%
%ADD34R,0.8000X0.8000*%
%ADD35R,6.0000X6.0000*%
G04:AMPARAMS|DCode=36|XSize=0.8mm|YSize=0.35mm|CornerRadius=0.0438mm|HoleSize=0mm|Usage=FLASHONLY|Rotation=180.000|XOffset=0mm|YOffset=0mm|HoleType=Round|Shape=RoundedRectangle|*
%AMROUNDEDRECTD36*
21,1,0.8000,0.2625,0,0,180.0*
21,1,0.7125,0.3500,0,0,180.0*
1,1,0.0875,-0.3563,0.1313*
1,1,0.0875,0.3563,0.1313*
1,1,0.0875,0.3563,-0.1313*
1,1,0.0875,-0.3563,-0.1313*
%
%ADD36ROUNDEDRECTD36*%
G04:AMPARAMS|DCode=37|XSize=0.85mm|YSize=0.35mm|CornerRadius=0.0438mm|HoleSize=0mm|Usage=FLASHONLY|Rotation=270.000|XOffset=0mm|YOffset=0mm|HoleType=Round|Shape=RoundedRectangle|*
%AMROUNDEDRECTD37*
21,1,0.8500,0.2625,0,0,270.0*
21,1,0.7625,0.3500,0,0,270.0*
1,1,0.0875,-0.1313,-0.3813*
1,1,0.0875,-0.1313,0.3813*
1,1,0.0875,0.1313,0.3813*
1,1,0.0875,0.1313,-0.3813*
%
%ADD37ROUNDEDRECTD37*%
%ADD38R,0.6000X1.3500*%
%ADD39R,1.3000X1.4000*%
%ADD40R,1.2000X1.7500*%
%ADD41R,1.4000X1.3000*%
G04:AMPARAMS|DCode=42|XSize=0.95mm|YSize=0.85mm|CornerRadius=0mm|HoleSize=0mm|Usage=FLASHONLY|Rotation=30.000|XOffset=0mm|YOffset=0mm|HoleType=Round|Shape=Rectangle|*
%AMROTATEDRECTD42*
4,1,4,-0.1989,-0.6056,-0.6239,0.1306,0.1989,0.6056,0.6239,-0.1306,-0.1989,-0.6056,0.0*
%
%ADD42ROTATEDRECTD42*%

G04:AMPARAMS|DCode=43|XSize=0.95mm|YSize=0.85mm|CornerRadius=0mm|HoleSize=0mm|Usage=FLASHONLY|Rotation=150.000|XOffset=0mm|YOffset=0mm|HoleType=Round|Shape=Rectangle|*
%AMROTATEDRECTD43*
4,1,4,0.6239,0.1306,0.1989,-0.6056,-0.6239,-0.1306,-0.1989,0.6056,0.6239,0.1306,0.0*
%
%ADD43ROTATEDRECTD43*%

G04:AMPARAMS|DCode=44|XSize=0.74mm|YSize=0.28mm|CornerRadius=0.035mm|HoleSize=0mm|Usage=FLASHONLY|Rotation=180.000|XOffset=0mm|YOffset=0mm|HoleType=Round|Shape=RoundedRectangle|*
%AMROUNDEDRECTD44*
21,1,0.7400,0.2100,0,0,180.0*
21,1,0.6700,0.2800,0,0,180.0*
1,1,0.0700,-0.3350,0.1050*
1,1,0.0700,0.3350,0.1050*
1,1,0.0700,0.3350,-0.1050*
1,1,0.0700,-0.3350,-0.1050*
%
%ADD44ROUNDEDRECTD44*%
%ADD45R,0.8500X0.9500*%
G36*
X100540Y306280D02*
X83460D01*
Y322720D01*
X100540D01*
Y306280D01*
D02*
G37*
G36*
X247800Y283900D02*
X242200D01*
Y294100D01*
X247800D01*
Y283900D01*
D02*
G37*
G36*
X181500Y205500D02*
X162500D01*
Y224500D01*
X181500D01*
Y205500D01*
D02*
G37*
G36*
X151500D02*
X132500D01*
Y224500D01*
X151500D01*
Y205500D01*
D02*
G37*
G36*
X181500Y175500D02*
X162500D01*
Y194500D01*
X181500D01*
Y175500D01*
D02*
G37*
G36*
X151500D02*
X132500D01*
Y194500D01*
X151500D01*
Y175500D01*
D02*
G37*
G36*
X338000Y76250D02*
X334600D01*
Y78750D01*
X338000D01*
Y76250D01*
D02*
G37*
G36*
X307400D02*
X304000D01*
Y78750D01*
X307400D01*
Y76250D01*
D02*
G37*
G36*
X263000D02*
X259600D01*
Y78750D01*
X263000D01*
Y76250D01*
D02*
G37*
G36*
X232400D02*
X229000D01*
Y78750D01*
X232400D01*
Y76250D01*
D02*
G37*
G36*
X188000D02*
X184600D01*
Y78750D01*
X188000D01*
Y76250D01*
D02*
G37*
G36*
X157400D02*
X154000D01*
Y78750D01*
X157400D01*
Y76250D01*
D02*
G37*
G36*
X338000Y71250D02*
X334600D01*
Y73750D01*
X338000D01*
Y71250D01*
D02*
G37*
G36*
X307400D02*
X304000D01*
Y73750D01*
X307400D01*
Y71250D01*
D02*
G37*
G36*
X263000D02*
X259600D01*
Y73750D01*
X263000D01*
Y71250D01*
D02*
G37*
G36*
X232400D02*
X229000D01*
Y73750D01*
X232400D01*
Y71250D01*
D02*
G37*
G36*
X188000D02*
X184600D01*
Y73750D01*
X188000D01*
Y71250D01*
D02*
G37*
G36*
X157400D02*
X154000D01*
Y73750D01*
X157400D01*
Y71250D01*
D02*
G37*
G36*
X332600Y67500D02*
X322000D01*
Y82500D01*
X332600D01*
Y67500D01*
D02*
G37*
G36*
X320000D02*
X309400D01*
Y82500D01*
X320000D01*
Y67500D01*
D02*
G37*
G36*
X257600D02*
X247000D01*
Y82500D01*
X257600D01*
Y67500D01*
D02*
G37*
G36*
X245000D02*
X234400D01*
Y82500D01*
X245000D01*
Y67500D01*
D02*
G37*
G36*
X182600D02*
X172000D01*
Y82500D01*
X182600D01*
Y67500D01*
D02*
G37*
G36*
X170000D02*
X159400D01*
Y82500D01*
X170000D01*
Y67500D01*
D02*
G37*
G36*
X335850Y-5500D02*
X341300D01*
Y-11200D01*
X335850D01*
Y-13000D01*
X312150D01*
Y-11200D01*
X306700D01*
Y-5500D01*
X312150D01*
Y10000D01*
X316350D01*
Y5300D01*
X318650D01*
Y10000D01*
X322850D01*
Y5300D01*
X325150D01*
Y10000D01*
X329350D01*
Y5300D01*
X331650D01*
Y10000D01*
X335850D01*
Y-5500D01*
D02*
G37*
G36*
X207850Y-5500D02*
X213300D01*
Y-11200D01*
X207850D01*
Y-13000D01*
X184150D01*
Y-11200D01*
X178700D01*
Y-5500D01*
X184150D01*
Y10000D01*
X188350D01*
Y5300D01*
X190650D01*
Y10000D01*
X194850D01*
Y5300D01*
X197150D01*
Y10000D01*
X201350D01*
Y5300D01*
X203650D01*
Y10000D01*
X207850D01*
Y-5500D01*
D02*
G37*
G36*
X271850Y-5500D02*
X277300D01*
Y-11200D01*
X271850D01*
Y-13000D01*
X248150D01*
Y-11200D01*
X242700D01*
Y-5500D01*
X248150D01*
Y10000D01*
X252350D01*
Y5300D01*
X254650D01*
Y10000D01*
X258850D01*
Y5300D01*
X261150D01*
Y10000D01*
X265350D01*
Y5300D01*
X267650D01*
Y10000D01*
X271850D01*
Y-5500D01*
D02*
G37*
G36*
X335850Y-68500D02*
X341300D01*
Y-74200D01*
X335850D01*
Y-76000D01*
X312150D01*
Y-74200D01*
X306700D01*
Y-68500D01*
X312150D01*
Y-53000D01*
X316350D01*
Y-57700D01*
X318650D01*
Y-53000D01*
X322850D01*
Y-57700D01*
X325150D01*
Y-53000D01*
X329350D01*
Y-57700D01*
X331650D01*
Y-53000D01*
X335850D01*
Y-68500D01*
D02*
G37*
G36*
X207850Y-68500D02*
X213300D01*
Y-74200D01*
X207850D01*
Y-76000D01*
X184150D01*
Y-74200D01*
X178700D01*
Y-68500D01*
X184150D01*
Y-53000D01*
X188350D01*
Y-57700D01*
X190650D01*
Y-53000D01*
X194850D01*
Y-57700D01*
X197150D01*
Y-53000D01*
X201350D01*
Y-57700D01*
X203650D01*
Y-53000D01*
X207850D01*
Y-68500D01*
D02*
G37*
G36*
X271850Y-68500D02*
X277300D01*
Y-74200D01*
X271850D01*
Y-76000D01*
X248150D01*
Y-74200D01*
X242700D01*
Y-68500D01*
X248150D01*
Y-53000D01*
X252350D01*
Y-57700D01*
X254650D01*
Y-53000D01*
X258850D01*
Y-57700D01*
X261150D01*
Y-53000D01*
X265350D01*
Y-57700D01*
X267650D01*
Y-53000D01*
X271850D01*
Y-68500D01*
D02*
G37*
D24*
X134000Y283500D02*
D03*
X196000Y68500D02*
D03*
Y81500D02*
D03*
X346000Y68500D02*
D03*
Y81500D02*
D03*
X271000Y81500D02*
D03*
Y68500D02*
D03*
X2000Y309500D02*
D03*
Y322500D02*
D03*
X134000Y270500D02*
D03*
X210000Y128500D02*
D03*
Y141500D02*
D03*
X251000Y247500D02*
D03*
Y234500D02*
D03*
Y219500D02*
D03*
Y206500D02*
D03*
X267000D02*
D03*
Y219500D02*
D03*
X234000Y200500D02*
D03*
Y213500D02*
D03*
X-131000Y-33500D02*
D03*
Y-46500D02*
D03*
X55000Y293000D02*
D03*
Y280000D02*
D03*
X-72000Y189500D02*
D03*
Y176500D02*
D03*
X-79000Y158500D02*
D03*
Y145500D02*
D03*
X-95000Y158500D02*
D03*
Y145500D02*
D03*
X147000Y84500D02*
D03*
Y97500D02*
D03*
X182000Y32500D02*
D03*
Y45500D02*
D03*
X332000Y32500D02*
D03*
Y45500D02*
D03*
X297000Y84500D02*
D03*
Y97500D02*
D03*
X222000Y84500D02*
D03*
Y97500D02*
D03*
X257000Y32500D02*
D03*
Y45500D02*
D03*
X205000Y270500D02*
D03*
Y283500D02*
D03*
D25*
X152000Y276750D02*
D03*
X221000Y275750D02*
D03*
X147000Y68750D02*
D03*
Y55250D02*
D03*
X222000Y68750D02*
D03*
Y55250D02*
D03*
X297000Y68750D02*
D03*
Y55250D02*
D03*
X152000Y263250D02*
D03*
X183000D02*
D03*
Y276750D02*
D03*
X239000Y-99000D02*
D03*
X257000D02*
D03*
X59000Y308250D02*
D03*
Y321750D02*
D03*
X81000Y348250D02*
D03*
Y361750D02*
D03*
X-55000Y176250D02*
D03*
Y189750D02*
D03*
X-91000D02*
D03*
Y176250D02*
D03*
X16000Y154250D02*
D03*
Y167750D02*
D03*
X-147000Y-37250D02*
D03*
Y-50750D02*
D03*
X166000Y32250D02*
D03*
Y45750D02*
D03*
X316000Y32250D02*
D03*
Y45750D02*
D03*
X241000Y32250D02*
D03*
Y45750D02*
D03*
X221000Y262250D02*
D03*
X98000Y198250D02*
D03*
Y211750D02*
D03*
X175000Y-99000D02*
D03*
X193000D02*
D03*
X303000D02*
D03*
X321000D02*
D03*
X217000Y212750D02*
D03*
Y199250D02*
D03*
X-63000Y146250D02*
D03*
Y159750D02*
D03*
D26*
X205750Y5000D02*
D03*
X199250D02*
D03*
X192750D02*
D03*
X186250D02*
D03*
X314250Y-58000D02*
D03*
X320750D02*
D03*
X327250D02*
D03*
X333750D02*
D03*
X333750Y5000D02*
D03*
X327250D02*
D03*
X320750D02*
D03*
X314250D02*
D03*
X269750Y5000D02*
D03*
X263250D02*
D03*
X256750D02*
D03*
X250250D02*
D03*
X205750Y-58000D02*
D03*
X199250D02*
D03*
X192750D02*
D03*
X186250D02*
D03*
X250250Y-58000D02*
D03*
X256750D02*
D03*
X263250D02*
D03*
X269750D02*
D03*
D27*
X199250Y-22700D02*
D03*
X192750D02*
D03*
X205750D02*
D03*
X186250D02*
D03*
X314250Y-85700D02*
D03*
X333750D02*
D03*
X320750D02*
D03*
X327250D02*
D03*
X327250Y-22700D02*
D03*
X320750D02*
D03*
X333750D02*
D03*
X314250D02*
D03*
X263250Y-22700D02*
D03*
X256750D02*
D03*
X269750D02*
D03*
X250250D02*
D03*
X199250Y-85700D02*
D03*
X192750D02*
D03*
X205750D02*
D03*
X186250D02*
D03*
X250250Y-85700D02*
D03*
X269750D02*
D03*
X256750D02*
D03*
X263250D02*
D03*
D28*
X311000Y61000D02*
D03*
X316000D02*
D03*
X321000D02*
D03*
X326000D02*
D03*
X331000D02*
D03*
Y89000D02*
D03*
X326000D02*
D03*
X321000D02*
D03*
X316000D02*
D03*
X311000D02*
D03*
X236000Y61000D02*
D03*
X241000D02*
D03*
X246000D02*
D03*
X251000D02*
D03*
X256000D02*
D03*
Y89000D02*
D03*
X251000D02*
D03*
X246000D02*
D03*
X241000D02*
D03*
X236000D02*
D03*
X161000Y61000D02*
D03*
X166000D02*
D03*
X171000D02*
D03*
X176000D02*
D03*
X181000D02*
D03*
Y89000D02*
D03*
X176000D02*
D03*
X171000D02*
D03*
X166000D02*
D03*
X161000D02*
D03*
D29*
X231750Y177000D02*
D03*
X218250D02*
D03*
X-136250Y-15000D02*
D03*
X-149750D02*
D03*
X164750Y141000D02*
D03*
X151250D02*
D03*
X97250Y350000D02*
D03*
X110750D02*
D03*
X84750Y282000D02*
D03*
X71250D02*
D03*
X-131250Y198000D02*
D03*
X-144750D02*
D03*
X138750Y-96000D02*
D03*
X125250D02*
D03*
X256750Y267000D02*
D03*
X243250D02*
D03*
D30*
X352750Y118000D02*
D03*
X413250D02*
D03*
D31*
X144500Y244350D02*
D03*
X194500D02*
D03*
X189500D02*
D03*
X184500D02*
D03*
X179500D02*
D03*
X174500D02*
D03*
X169500D02*
D03*
X164500D02*
D03*
X159500D02*
D03*
X154500D02*
D03*
X149500D02*
D03*
X139500D02*
D03*
X134500D02*
D03*
X129500D02*
D03*
X124500D02*
D03*
X119500D02*
D03*
Y155650D02*
D03*
X124500D02*
D03*
X129500D02*
D03*
X134500D02*
D03*
X139500D02*
D03*
X144500D02*
D03*
X149500D02*
D03*
X154500D02*
D03*
X159500D02*
D03*
X164500D02*
D03*
X169500D02*
D03*
X174500D02*
D03*
X179500D02*
D03*
X184500D02*
D03*
X189500D02*
D03*
X194500D02*
D03*
D32*
X201350Y237500D02*
D03*
Y162500D02*
D03*
Y167500D02*
D03*
Y172500D02*
D03*
Y177500D02*
D03*
Y182500D02*
D03*
Y187500D02*
D03*
Y192500D02*
D03*
Y197500D02*
D03*
Y202500D02*
D03*
Y207500D02*
D03*
Y212500D02*
D03*
Y217500D02*
D03*
Y222500D02*
D03*
Y227500D02*
D03*
Y232500D02*
D03*
X112650Y237500D02*
D03*
Y232500D02*
D03*
Y227500D02*
D03*
Y222500D02*
D03*
Y217500D02*
D03*
Y212500D02*
D03*
Y207500D02*
D03*
Y202500D02*
D03*
Y197500D02*
D03*
Y192500D02*
D03*
Y187500D02*
D03*
Y182500D02*
D03*
Y177500D02*
D03*
Y172500D02*
D03*
Y167500D02*
D03*
Y162500D02*
D03*
D33*
X160000Y-37000D02*
D03*
Y-9000D02*
D03*
X361000D02*
D03*
Y-37000D02*
D03*
D34*
X228500Y127000D02*
D03*
X243500D02*
D03*
X31500Y184000D02*
D03*
X16500D02*
D03*
D35*
X157000Y200000D02*
D03*
D36*
X112000Y302000D02*
D03*
Y307000D02*
D03*
Y312000D02*
D03*
Y317000D02*
D03*
Y322000D02*
D03*
Y327000D02*
D03*
X72000D02*
D03*
Y322000D02*
D03*
Y317000D02*
D03*
Y312000D02*
D03*
Y307000D02*
D03*
Y302000D02*
D03*
D37*
X104500Y334250D02*
D03*
X99500D02*
D03*
X94500D02*
D03*
X89500D02*
D03*
X84500D02*
D03*
X79500D02*
D03*
Y294750D02*
D03*
X84500D02*
D03*
X89500D02*
D03*
X94500D02*
D03*
X99500D02*
D03*
X104500D02*
D03*
D38*
X-108500Y182850D02*
D03*
X-118000D02*
D03*
X-127500D02*
D03*
X-108500Y159150D02*
D03*
X-118000D02*
D03*
X-127500D02*
D03*
D39*
X-146000Y216000D02*
D03*
X-130000D02*
D03*
D40*
X-100750Y212000D02*
D03*
X-75250D02*
D03*
D41*
X-45000Y142000D02*
D03*
Y158000D02*
D03*
D42*
X-112750Y-85629D02*
D03*
X-119250Y-74371D02*
D03*
D43*
X124250Y-64371D02*
D03*
X117750Y-75629D02*
D03*
D44*
X235150Y281500D02*
D03*
Y286500D02*
D03*
Y291500D02*
D03*
Y296500D02*
D03*
X254850D02*
D03*
Y291500D02*
D03*
Y286500D02*
D03*
Y281500D02*
D03*
D45*
X69500Y240000D02*
D03*
X56500D02*
D03*
X69500Y224000D02*
D03*
X56500D02*
D03*
X-18500Y139000D02*
D03*
X-5500D02*
D03*
X-12500Y184000D02*
D03*
X500D02*
D03*
M02*
