G04*
G04 #@! TF.GenerationSoftware,Altium Limited,Altium Designer,22.10.1 (41)*
G04*
G04 Layer_Color=8388736*
%FSLAX25Y25*%
%MOIN*%
G70*
G04*
G04 #@! TF.SameCoordinates,BA180857-5533-48D4-BC33-98CDBDEDE110*
G04*
G04*
G04 #@! TF.FilePolarity,Negative*
G04*
G01*
G75*
%ADD17C,0.00500*%
%ADD20R,0.04331X0.05906*%
%ADD21R,0.06902X0.03162*%
%ADD22R,0.07887X0.05524*%
%ADD23R,0.02375X0.06115*%
%ADD24R,0.06706X0.06902*%
%ADD25R,0.03162X0.03320*%
%ADD26R,0.03162X0.03753*%
%ADD27R,0.04737X0.02965*%
%ADD28R,0.06312X0.05918*%
%ADD29R,0.01784X0.02572*%
%ADD30R,0.02572X0.01784*%
%ADD31R,0.03320X0.03162*%
%ADD32R,0.04737X0.03556*%
%ADD33R,0.07690X0.05524*%
%ADD34R,0.04737X0.04343*%
G04:AMPARAMS|DCode=35|XSize=39.5mil|YSize=21.78mil|CornerRadius=5.72mil|HoleSize=0mil|Usage=FLASHONLY|Rotation=270.000|XOffset=0mil|YOffset=0mil|HoleType=Round|Shape=RoundedRectangle|*
%AMROUNDEDRECTD35*
21,1,0.03950,0.01034,0,0,270.0*
21,1,0.02805,0.02178,0,0,270.0*
1,1,0.01145,-0.00517,-0.01403*
1,1,0.01145,-0.00517,0.01403*
1,1,0.01145,0.00517,0.01403*
1,1,0.01145,0.00517,-0.01403*
%
%ADD35ROUNDEDRECTD35*%
%ADD36R,0.11036X0.11430*%
G04:AMPARAMS|DCode=37|XSize=41.47mil|YSize=21.78mil|CornerRadius=5.72mil|HoleSize=0mil|Usage=FLASHONLY|Rotation=0.000|XOffset=0mil|YOffset=0mil|HoleType=Round|Shape=RoundedRectangle|*
%AMROUNDEDRECTD37*
21,1,0.04147,0.01034,0,0,0.0*
21,1,0.03002,0.02178,0,0,0.0*
1,1,0.01145,0.01501,-0.00517*
1,1,0.01145,-0.01501,-0.00517*
1,1,0.01145,-0.01501,0.00517*
1,1,0.01145,0.01501,0.00517*
%
%ADD37ROUNDEDRECTD37*%
%ADD38R,0.04343X0.04737*%
%ADD39R,0.01784X0.01883*%
%ADD40R,0.01883X0.01784*%
%ADD41O,0.05918X0.03359*%
%ADD42O,0.03851X0.06902*%
%ADD43C,0.04737*%
%ADD44C,0.06800*%
G36*
X18504Y-59744D02*
X12992D01*
X12889Y-59741D01*
X12786Y-59733D01*
X12684Y-59720D01*
X12583Y-59701D01*
X12483Y-59677D01*
X12384Y-59648D01*
X12287Y-59613D01*
X12191Y-59574D01*
X12098Y-59530D01*
X12008Y-59480D01*
X11920Y-59426D01*
X11835Y-59368D01*
X11753Y-59305D01*
X11675Y-59238D01*
X11600Y-59167D01*
X11529Y-59093D01*
X11462Y-59014D01*
X11400Y-58933D01*
X11341Y-58848D01*
X11287Y-58760D01*
X11238Y-58669D01*
X11194Y-58576D01*
X11154Y-58481D01*
X11120Y-58384D01*
X11091Y-58285D01*
X11067Y-58185D01*
X11048Y-58083D01*
X11034Y-57981D01*
X11026Y-57879D01*
X11024Y-57776D01*
Y-54823D01*
X11026Y-54720D01*
X11034Y-54617D01*
X11048Y-54515D01*
X11067Y-54414D01*
X11091Y-54313D01*
X11120Y-54215D01*
X11154Y-54117D01*
X11194Y-54022D01*
X11238Y-53929D01*
X11287Y-53839D01*
X11341Y-53751D01*
X11400Y-53666D01*
X11462Y-53584D01*
X11529Y-53506D01*
X11600Y-53431D01*
X11675Y-53360D01*
X11753Y-53293D01*
X11835Y-53230D01*
X11920Y-53172D01*
X12008Y-53118D01*
X12098Y-53069D01*
X12191Y-53025D01*
X12287Y-52985D01*
X12384Y-52951D01*
X12483Y-52921D01*
X12583Y-52897D01*
X12684Y-52879D01*
X12786Y-52865D01*
X12889Y-52857D01*
X12992Y-52854D01*
X18504D01*
Y-59744D01*
D02*
G37*
G36*
X41442Y-52857D02*
X41544Y-52865D01*
X41647Y-52879D01*
X41748Y-52897D01*
X41848Y-52921D01*
X41947Y-52951D01*
X42044Y-52985D01*
X42139Y-53025D01*
X42232Y-53069D01*
X42323Y-53118D01*
X42411Y-53172D01*
X42496Y-53230D01*
X42577Y-53293D01*
X42656Y-53360D01*
X42731Y-53431D01*
X42801Y-53506D01*
X42868Y-53584D01*
X42931Y-53666D01*
X42990Y-53751D01*
X43043Y-53839D01*
X43093Y-53929D01*
X43137Y-54022D01*
X43176Y-54117D01*
X43211Y-54215D01*
X43240Y-54313D01*
X43264Y-54414D01*
X43283Y-54515D01*
X43296Y-54617D01*
X43304Y-54720D01*
X43307Y-54823D01*
Y-57776D01*
X43304Y-57879D01*
X43296Y-57981D01*
X43283Y-58083D01*
X43264Y-58185D01*
X43240Y-58285D01*
X43211Y-58384D01*
X43176Y-58481D01*
X43137Y-58576D01*
X43093Y-58669D01*
X43043Y-58760D01*
X42990Y-58848D01*
X42931Y-58933D01*
X42868Y-59014D01*
X42801Y-59093D01*
X42731Y-59167D01*
X42656Y-59238D01*
X42577Y-59305D01*
X42496Y-59368D01*
X42411Y-59426D01*
X42323Y-59480D01*
X42232Y-59530D01*
X42139Y-59574D01*
X42044Y-59613D01*
X41947Y-59648D01*
X41848Y-59677D01*
X41748Y-59701D01*
X41647Y-59720D01*
X41544Y-59733D01*
X41442Y-59741D01*
X41339Y-59744D01*
X35827D01*
Y-52854D01*
X41339D01*
X41442Y-52857D01*
D02*
G37*
D17*
X-51181Y64961D02*
X-52164Y64925D01*
X-53142Y64820D01*
X-54110Y64646D01*
X-55063Y64403D01*
X-55997Y64092D01*
X-56905Y63715D01*
X-57785Y63275D01*
X-58631Y62773D01*
X-59439Y62212D01*
X-60205Y61595D01*
X-60925Y60925D01*
X-61595Y60205D01*
X-62212Y59439D01*
X-62773Y58631D01*
X-63275Y57785D01*
X-63715Y56905D01*
X-64092Y55997D01*
X-64403Y55063D01*
X-64646Y54110D01*
X-64820Y53142D01*
X-64925Y52164D01*
X-64961Y51181D01*
X64961D02*
X64925Y52164D01*
X64820Y53142D01*
X64646Y54110D01*
X64403Y55063D01*
X64092Y55997D01*
X63715Y56905D01*
X63275Y57785D01*
X62773Y58631D01*
X62212Y59439D01*
X61595Y60205D01*
X60925Y60925D01*
X60205Y61595D01*
X59439Y62212D01*
X58631Y62773D01*
X57785Y63275D01*
X56905Y63715D01*
X55997Y64092D01*
X55063Y64403D01*
X54110Y64646D01*
X53142Y64820D01*
X52164Y64925D01*
X51181Y64961D01*
Y-64961D02*
X52164Y-64925D01*
X53142Y-64820D01*
X54110Y-64646D01*
X55063Y-64403D01*
X55997Y-64092D01*
X56905Y-63715D01*
X57785Y-63275D01*
X58631Y-62773D01*
X59439Y-62212D01*
X60205Y-61595D01*
X60925Y-60925D01*
X61595Y-60205D01*
X62212Y-59439D01*
X62773Y-58631D01*
X63275Y-57785D01*
X63715Y-56905D01*
X64092Y-55997D01*
X64403Y-55063D01*
X64646Y-54110D01*
X64820Y-53142D01*
X64925Y-52164D01*
X64961Y-51181D01*
X-64961D02*
X-64925Y-52164D01*
X-64820Y-53142D01*
X-64646Y-54110D01*
X-64403Y-55063D01*
X-64092Y-55997D01*
X-63715Y-56905D01*
X-63275Y-57785D01*
X-62773Y-58631D01*
X-62212Y-59439D01*
X-61595Y-60205D01*
X-60925Y-60925D01*
X-60205Y-61595D01*
X-59439Y-62212D01*
X-58631Y-62773D01*
X-57785Y-63275D01*
X-56905Y-63715D01*
X-55997Y-64092D01*
X-55063Y-64403D01*
X-54110Y-64646D01*
X-53142Y-64820D01*
X-52164Y-64925D01*
X-51181Y-64961D01*
Y-64961D02*
X51181D01*
X-64961Y-51181D02*
Y51181D01*
X64961Y-51181D02*
Y51181D01*
X-51181Y64961D02*
X51181D01*
D20*
X-2953Y-5906D02*
D03*
X2953D02*
D03*
Y5906D02*
D03*
X-2953D02*
D03*
D21*
X45937Y-27953D02*
D03*
Y-16142D02*
D03*
Y-20079D02*
D03*
Y-24016D02*
D03*
Y-31890D02*
D03*
X-45937Y-17717D02*
D03*
Y-29528D02*
D03*
Y-25591D02*
D03*
Y-21654D02*
D03*
D22*
X61193Y-11024D02*
D03*
Y-37008D02*
D03*
X-61193Y-34646D02*
D03*
Y-12598D02*
D03*
D23*
X22047Y-45669D02*
D03*
X24606D02*
D03*
X27165D02*
D03*
X29724D02*
D03*
X32283D02*
D03*
D24*
X23228Y-56299D02*
D03*
X31102D02*
D03*
D25*
X-27953Y-1181D02*
D03*
X-31417D02*
D03*
X-27953Y-5906D02*
D03*
X-31417D02*
D03*
X-39291Y-1181D02*
D03*
X-35827D02*
D03*
X-39291Y-5906D02*
D03*
X-35827D02*
D03*
X-25827Y-47638D02*
D03*
X-29291D02*
D03*
X11969Y37402D02*
D03*
X8504D02*
D03*
X9291Y-37598D02*
D03*
X12756D02*
D03*
X-14016Y-26378D02*
D03*
X-17480D02*
D03*
D26*
X-25354Y9744D02*
D03*
Y5217D02*
D03*
X20472Y49409D02*
D03*
Y44882D02*
D03*
D27*
X-40512Y3740D02*
D03*
Y11220D02*
D03*
X-29882D02*
D03*
Y7480D02*
D03*
Y3740D02*
D03*
D28*
X14567Y53937D02*
D03*
Y60236D02*
D03*
X31496Y47638D02*
D03*
Y41339D02*
D03*
D29*
X-26575Y-58366D02*
D03*
X-28543D02*
D03*
Y-51083D02*
D03*
X-26575D02*
D03*
D30*
X-31102Y-57677D02*
D03*
Y-55709D02*
D03*
Y-53740D02*
D03*
Y-51772D02*
D03*
X-24016D02*
D03*
Y-53740D02*
D03*
Y-55709D02*
D03*
Y-57677D02*
D03*
D31*
X-20866Y-54488D02*
D03*
Y-51024D02*
D03*
X-34252Y-55354D02*
D03*
Y-58819D02*
D03*
X-2362Y-27205D02*
D03*
Y-30669D02*
D03*
X-13386Y-34409D02*
D03*
Y-30945D02*
D03*
D32*
X16142Y41535D02*
D03*
Y45276D02*
D03*
Y49016D02*
D03*
X7480Y41535D02*
D03*
Y45276D02*
D03*
Y49016D02*
D03*
D33*
X787Y47146D02*
D03*
Y37106D02*
D03*
D34*
X20866Y59744D02*
D03*
Y54429D02*
D03*
X25197Y46358D02*
D03*
Y41043D02*
D03*
X23622Y-35138D02*
D03*
Y-29823D02*
D03*
D35*
X15551Y-17913D02*
D03*
X13583D02*
D03*
X11614D02*
D03*
X9646D02*
D03*
X7677D02*
D03*
X5709D02*
D03*
Y-33661D02*
D03*
X7677D02*
D03*
X9646D02*
D03*
X11614D02*
D03*
X13583D02*
D03*
X15551D02*
D03*
D36*
X10630Y-25787D02*
D03*
D37*
X2854Y-20866D02*
D03*
Y-22835D02*
D03*
Y-24803D02*
D03*
Y-26772D02*
D03*
Y-28740D02*
D03*
Y-30709D02*
D03*
X18406D02*
D03*
Y-28740D02*
D03*
Y-26772D02*
D03*
Y-24803D02*
D03*
Y-22835D02*
D03*
Y-20866D02*
D03*
D38*
X2657Y-36811D02*
D03*
X-2657D02*
D03*
D39*
X-21457Y-35679D02*
D03*
X-19488D02*
D03*
X-21457Y-29675D02*
D03*
X-19488D02*
D03*
D40*
X-17470Y-34646D02*
D03*
X-23474D02*
D03*
X-17470Y-32677D02*
D03*
Y-30709D02*
D03*
X-23474Y-32677D02*
D03*
Y-30709D02*
D03*
D41*
X17323Y-45669D02*
D03*
X37008D02*
D03*
D42*
X13386Y-56299D02*
D03*
X40945D02*
D03*
D43*
X7500Y54980D02*
D03*
Y59980D02*
D03*
X2500Y54980D02*
D03*
X-2500D02*
D03*
X-7500D02*
D03*
X2500Y59980D02*
D03*
X-2500D02*
D03*
X-7500D02*
D03*
X7500Y-59980D02*
D03*
X2500D02*
D03*
X-2500D02*
D03*
X7500Y-54980D02*
D03*
X2500D02*
D03*
X-2500D02*
D03*
X-7500Y-59980D02*
D03*
Y-54980D02*
D03*
D44*
X51181Y-51181D02*
D03*
X-51181D02*
D03*
X51181Y51181D02*
D03*
X-51181D02*
D03*
M02*
