G04*
G04 #@! TF.GenerationSoftware,Altium Limited,Altium Designer,22.10.1 (41)*
G04*
G04 Layer_Physical_Order=3*
G04 Layer_Color=16440176*
%FSLAX25Y25*%
%MOIN*%
G70*
G04*
G04 #@! TF.SameCoordinates,BA180857-5533-48D4-BC33-98CDBDEDE110*
G04*
G04*
G04 #@! TF.FilePolarity,Positive*
G04*
G01*
G75*
%ADD17C,0.00500*%
%ADD66C,0.01000*%
%ADD69C,0.03937*%
%ADD71C,0.01772*%
%ADD72C,0.01575*%
G36*
X25876Y20187D02*
X25824Y19922D01*
X25353Y19452D01*
X25098Y18837D01*
Y18171D01*
X25353Y17556D01*
X25824Y17086D01*
X26439Y16831D01*
X27104D01*
X27720Y17086D01*
X28190Y17556D01*
X28454Y17609D01*
X34252Y11811D01*
Y-15748D01*
X22835Y-27165D01*
X5072D01*
X-613Y-21480D01*
X-874Y-21305D01*
X-1181Y-21244D01*
X-13053D01*
X-15369Y-18928D01*
X-15630Y-18754D01*
X-15937Y-18693D01*
X-16244Y-18754D01*
X-16673Y-18576D01*
X-16692Y-18532D01*
X-17162Y-18062D01*
X-17510Y-17918D01*
X-17384Y-17614D01*
X-17323Y-17307D01*
X-17384Y-17000D01*
X-17558Y-16739D01*
X-23532Y-10766D01*
Y-7610D01*
X-23593Y-7302D01*
X-23767Y-7042D01*
X-23767Y-7042D01*
X-24963Y-5846D01*
X-25224Y-5672D01*
X-25531Y-5611D01*
X-25984D01*
Y2755D01*
X-25787Y3230D01*
Y3857D01*
X-25984Y4332D01*
Y18504D01*
X-13586Y30903D01*
X-13124Y30711D01*
Y25035D01*
X-13024Y24533D01*
X-12739Y24107D01*
X-12396Y23764D01*
X-12513Y23174D01*
X-12759Y23072D01*
X-13229Y22601D01*
X-13484Y21986D01*
Y21321D01*
X-13229Y20706D01*
X-13101Y20577D01*
X-13152Y20316D01*
X-13623Y19845D01*
X-13878Y19230D01*
Y18565D01*
X-13623Y17950D01*
X-13152Y17479D01*
X-12538Y17224D01*
X-11872D01*
X-11257Y17479D01*
X-10786Y17950D01*
X-10531Y18565D01*
Y19230D01*
X-10786Y19845D01*
X-10915Y19974D01*
X-10863Y20235D01*
X-10447Y20651D01*
X-10377Y20706D01*
X-9850Y20708D01*
X-9609Y20467D01*
X-8994Y20212D01*
X-8329D01*
X-7714Y20467D01*
X-7243Y20938D01*
X-6988Y21553D01*
Y22218D01*
X-7243Y22833D01*
X-7714Y23304D01*
X-8329Y23559D01*
X-8478D01*
X-10498Y25579D01*
Y33990D01*
X-9843Y34646D01*
X11417D01*
X25876Y20187D01*
D02*
G37*
G36*
X-24335Y-7610D02*
Y-11098D01*
X-18126Y-17307D01*
X-18333Y-17807D01*
X-18443D01*
X-19058Y-18062D01*
X-19529Y-18532D01*
X-19783Y-19148D01*
Y-19813D01*
X-19529Y-20428D01*
X-19058Y-20899D01*
X-18443Y-21154D01*
X-17777D01*
X-17162Y-20899D01*
X-16692Y-20428D01*
X-16437Y-19813D01*
Y-19703D01*
X-15937Y-19496D01*
X-13386Y-22047D01*
X-1181D01*
X6846Y-30075D01*
X6849Y-30082D01*
X7320Y-30552D01*
X7327Y-30555D01*
X11826Y-35055D01*
Y-41671D01*
X4579Y-48919D01*
X4399Y-48901D01*
X3937Y-48738D01*
Y-48112D01*
X3697Y-47533D01*
X3254Y-47090D01*
X2675Y-46850D01*
X2049D01*
X1470Y-47090D01*
X1027Y-47533D01*
X787Y-48112D01*
Y-48739D01*
X818Y-48812D01*
X540Y-49228D01*
X-540D01*
X-818Y-48812D01*
X-787Y-48739D01*
Y-48112D01*
X-1027Y-47533D01*
X-1470Y-47090D01*
X-2049Y-46850D01*
X-2675D01*
X-3254Y-47090D01*
X-3697Y-47533D01*
X-3937Y-48112D01*
Y-48739D01*
X-3906Y-48812D01*
X-4184Y-49228D01*
X-26439D01*
X-31496Y-54285D01*
X-35433D01*
X-36614Y-53104D01*
Y-30709D01*
X-29456Y-23551D01*
Y-8802D01*
X-27067Y-6413D01*
X-25531D01*
X-24335Y-7610D01*
D02*
G37*
G36*
X-10437Y64158D02*
X-10245Y63696D01*
X-12739Y61202D01*
X-13024Y60776D01*
X-13124Y60274D01*
Y32096D01*
X-13586Y31705D01*
X-13893Y31644D01*
X-14153Y31470D01*
X-14153Y31470D01*
X-26552Y19072D01*
X-26726Y18811D01*
X-26787Y18504D01*
Y4332D01*
X-26726Y4025D01*
X-26590Y3697D01*
Y3390D01*
X-26726Y3062D01*
X-26787Y2755D01*
Y-5611D01*
X-27067D01*
X-27375Y-5672D01*
X-27635Y-5846D01*
X-27635Y-5846D01*
X-30024Y-8235D01*
X-30198Y-8495D01*
X-30259Y-8802D01*
Y-23218D01*
X-37182Y-30141D01*
X-37356Y-30401D01*
X-37417Y-30709D01*
Y-53104D01*
X-37356Y-53411D01*
X-37182Y-53672D01*
X-37182Y-53672D01*
X-36001Y-54853D01*
X-35740Y-55027D01*
X-35433Y-55088D01*
X-31496D01*
X-31496Y-55088D01*
X-31189Y-55027D01*
X-30928Y-54853D01*
X-26107Y-50031D01*
X-4184D01*
X-4107Y-50015D01*
X-4028D01*
X-3954Y-49985D01*
X-3877Y-49970D01*
X-3811Y-49926D01*
X-3738Y-49896D01*
X-3254Y-49760D01*
X-2675Y-50000D01*
X-2049D01*
X-1470Y-49760D01*
X-1108Y-49796D01*
X-1042Y-49840D01*
X-986Y-49896D01*
X-913Y-49926D01*
X-847Y-49970D01*
X-770Y-49985D01*
X-697Y-50015D01*
X-618D01*
X-540Y-50031D01*
X540D01*
X618Y-50015D01*
X697D01*
X770Y-49985D01*
X847Y-49970D01*
X913Y-49926D01*
X986Y-49896D01*
X1470Y-49760D01*
X2049Y-50000D01*
X2675D01*
X3254Y-49760D01*
X3573Y-49442D01*
X3630Y-49480D01*
X3652Y-49485D01*
X3670Y-49496D01*
X4132Y-49658D01*
X4228Y-49672D01*
X4320Y-49700D01*
X4500Y-49718D01*
X4540Y-49714D01*
X4579Y-49722D01*
X4695Y-49698D01*
X4812Y-49687D01*
X4847Y-49668D01*
X4886Y-49660D01*
X4984Y-49595D01*
X5088Y-49539D01*
X5113Y-49509D01*
X5147Y-49486D01*
X12394Y-42239D01*
X12568Y-41978D01*
X12629Y-41671D01*
Y-35055D01*
X12629Y-35055D01*
X12568Y-34748D01*
X12394Y-34487D01*
X8999Y-31092D01*
X9097Y-30602D01*
X9216Y-30552D01*
X9686Y-30082D01*
X9941Y-29467D01*
Y-28801D01*
X9803Y-28468D01*
X10122Y-27968D01*
X22835D01*
X22835Y-27968D01*
X23142Y-27907D01*
X23402Y-27733D01*
X34820Y-16316D01*
X34994Y-16055D01*
X35055Y-15748D01*
Y-4610D01*
X35555Y-4291D01*
X35888Y-4429D01*
X36553D01*
X37168Y-4174D01*
X37639Y-3704D01*
X37695Y-3568D01*
X38308Y-3396D01*
X38663Y-3543D01*
X39290D01*
X39868Y-3303D01*
X40311Y-2860D01*
X40551Y-2282D01*
Y-1655D01*
X40311Y-1076D01*
X39868Y-634D01*
X39290Y-394D01*
X38663D01*
X38084Y-634D01*
X37641Y-1076D01*
X37566Y-1258D01*
X37168Y-1337D01*
X36553Y-1083D01*
X35888D01*
X35555Y-1221D01*
X35055Y-902D01*
Y11811D01*
X35055Y11811D01*
X34994Y12118D01*
X34820Y12379D01*
X34820Y12379D01*
X29022Y18176D01*
X28956Y18220D01*
X28900Y18276D01*
X28827Y18306D01*
X28762Y18350D01*
X28684Y18366D01*
X28611Y18396D01*
X28532D01*
X28454Y18411D01*
X28445Y18419D01*
Y18837D01*
X28190Y19452D01*
X27720Y19922D01*
X27104Y20177D01*
X26664Y20343D01*
X26634Y20416D01*
X26618Y20494D01*
X26574Y20560D01*
X26544Y20633D01*
X26488Y20688D01*
X26444Y20754D01*
X11985Y35213D01*
X11725Y35387D01*
X11417Y35449D01*
X-9843D01*
X-9998Y35418D01*
X-10401Y35653D01*
X-10498Y35756D01*
Y53662D01*
X-9998Y53796D01*
X-9705Y53288D01*
X-9192Y52775D01*
X-8564Y52412D01*
X-7863Y52224D01*
X-7137D01*
X-6436Y52412D01*
X-5808Y52775D01*
X-5295Y53288D01*
X-5250Y53366D01*
X-4750D01*
X-4705Y53288D01*
X-4192Y52775D01*
X-3564Y52412D01*
X-2863Y52224D01*
X-2137D01*
X-1436Y52412D01*
X-808Y52775D01*
X-295Y53288D01*
X-250Y53366D01*
X250D01*
X295Y53288D01*
X808Y52775D01*
X1436Y52412D01*
X2137Y52224D01*
X2863D01*
X3564Y52412D01*
X4192Y52775D01*
X4705Y53288D01*
X4750Y53366D01*
X5250D01*
X5295Y53288D01*
X5808Y52775D01*
X6436Y52412D01*
X7137Y52224D01*
X7863D01*
X8564Y52412D01*
X9192Y52775D01*
X9705Y53288D01*
X10068Y53917D01*
X10256Y54618D01*
Y55343D01*
X10068Y56044D01*
X9705Y56673D01*
X9192Y57186D01*
X9115Y57230D01*
Y57730D01*
X9192Y57775D01*
X9705Y58288D01*
X10068Y58917D01*
X10256Y59618D01*
Y60343D01*
X10068Y61044D01*
X9705Y61673D01*
X9192Y62186D01*
X8564Y62548D01*
X7863Y62736D01*
X7137D01*
X6436Y62548D01*
X5808Y62186D01*
X5295Y61673D01*
X5250Y61595D01*
X4750D01*
X4705Y61673D01*
X4192Y62186D01*
X3564Y62548D01*
X2863Y62736D01*
X2137D01*
X1714Y62623D01*
X641Y63696D01*
X832Y64158D01*
X51181D01*
X52032D01*
X53718Y63936D01*
X55361Y63496D01*
X56933Y62845D01*
X58406Y61994D01*
X59756Y60958D01*
X60958Y59756D01*
X61994Y58406D01*
X62845Y56933D01*
X63495Y55361D01*
X63936Y53718D01*
X64158Y52032D01*
X64158Y51181D01*
X64158Y-51181D01*
X64158Y-52032D01*
X63936Y-53718D01*
X63495Y-55361D01*
X62845Y-56933D01*
X61994Y-58406D01*
X60958Y-59756D01*
X59756Y-60958D01*
X58406Y-61994D01*
X56933Y-62845D01*
X55361Y-63496D01*
X53718Y-63936D01*
X52032Y-64158D01*
X51181D01*
X5832D01*
X5641Y-63696D01*
X6714Y-62623D01*
X7137Y-62736D01*
X7863D01*
X8564Y-62548D01*
X9192Y-62186D01*
X9705Y-61673D01*
X10068Y-61044D01*
X10256Y-60343D01*
Y-59618D01*
X10068Y-58917D01*
X9705Y-58288D01*
X9192Y-57775D01*
X9115Y-57730D01*
Y-57230D01*
X9192Y-57186D01*
X9705Y-56673D01*
X10068Y-56044D01*
X10256Y-55343D01*
Y-54618D01*
X10068Y-53917D01*
X9705Y-53288D01*
X9192Y-52775D01*
X8564Y-52412D01*
X7863Y-52224D01*
X7137D01*
X6436Y-52412D01*
X5808Y-52775D01*
X5295Y-53288D01*
X5250Y-53366D01*
X4750D01*
X4705Y-53288D01*
X4192Y-52775D01*
X3564Y-52412D01*
X2863Y-52224D01*
X2137D01*
X1436Y-52412D01*
X808Y-52775D01*
X295Y-53288D01*
X250Y-53366D01*
X-250D01*
X-295Y-53288D01*
X-808Y-52775D01*
X-1436Y-52412D01*
X-2137Y-52224D01*
X-2863D01*
X-3564Y-52412D01*
X-4192Y-52775D01*
X-4705Y-53288D01*
X-4750Y-53366D01*
X-5250D01*
X-5295Y-53288D01*
X-5808Y-52775D01*
X-6436Y-52412D01*
X-7137Y-52224D01*
X-7863D01*
X-8564Y-52412D01*
X-9192Y-52775D01*
X-9705Y-53288D01*
X-10068Y-53917D01*
X-10256Y-54618D01*
Y-55343D01*
X-10068Y-56044D01*
X-9705Y-56673D01*
X-9192Y-57186D01*
X-9115Y-57230D01*
Y-57730D01*
X-9192Y-57775D01*
X-9705Y-58288D01*
X-10068Y-58917D01*
X-10256Y-59618D01*
Y-60343D01*
X-10068Y-61044D01*
X-9705Y-61673D01*
X-9192Y-62186D01*
X-8564Y-62548D01*
X-7863Y-62736D01*
X-7137D01*
X-6714Y-62623D01*
X-5641Y-63696D01*
X-5832Y-64158D01*
X-51181D01*
X-52032D01*
X-53718Y-63936D01*
X-55361Y-63496D01*
X-56933Y-62845D01*
X-58406Y-61994D01*
X-59756Y-60958D01*
X-60958Y-59756D01*
X-61994Y-58406D01*
X-62845Y-56933D01*
X-63496Y-55361D01*
X-63936Y-53718D01*
X-64158Y-52032D01*
X-64158Y-51181D01*
X-64158Y51181D01*
Y52032D01*
X-63936Y53718D01*
X-63496Y55361D01*
X-62845Y56933D01*
X-61994Y58406D01*
X-60958Y59756D01*
X-59756Y60958D01*
X-58406Y61994D01*
X-56933Y62845D01*
X-55361Y63495D01*
X-53718Y63936D01*
X-52032Y64158D01*
X-51181Y64158D01*
X-10437D01*
D02*
G37*
%LPC*%
G36*
X1514Y33957D02*
X848D01*
X233Y33702D01*
X-237Y33231D01*
X-492Y32616D01*
Y31951D01*
X-237Y31336D01*
X233Y30865D01*
X848Y30610D01*
X1514D01*
X2129Y30865D01*
X2600Y31336D01*
X2854Y31951D01*
Y32616D01*
X2600Y33231D01*
X2129Y33702D01*
X1514Y33957D01*
D02*
G37*
G36*
X4270Y27264D02*
X3604D01*
X2989Y27009D01*
X2519Y26538D01*
X2264Y25923D01*
Y25258D01*
X2519Y24643D01*
X2989Y24172D01*
X3604Y23917D01*
X4270D01*
X4885Y24172D01*
X5356Y24643D01*
X5610Y25258D01*
Y25923D01*
X5356Y26538D01*
X4885Y27009D01*
X4270Y27264D01*
D02*
G37*
G36*
X727Y25689D02*
X61D01*
X-554Y25434D01*
X-1025Y24964D01*
X-1280Y24349D01*
Y23683D01*
X-1025Y23068D01*
X-554Y22597D01*
X61Y22343D01*
X727D01*
X1342Y22597D01*
X1812Y23068D01*
X2067Y23683D01*
Y24349D01*
X1812Y24964D01*
X1342Y25434D01*
X727Y25689D01*
D02*
G37*
G36*
X18306Y24966D02*
X17640D01*
X17025Y24711D01*
X16555Y24240D01*
X16300Y23626D01*
Y22960D01*
X16555Y22345D01*
X17025Y21874D01*
X17640Y21620D01*
X18306D01*
X18921Y21874D01*
X19391Y22345D01*
X19646Y22960D01*
Y23626D01*
X19391Y24240D01*
X18921Y24711D01*
X18306Y24966D01*
D02*
G37*
G36*
X9956Y20730D02*
X9291D01*
X8676Y20475D01*
X8205Y20005D01*
X7950Y19390D01*
Y18724D01*
X8205Y18109D01*
X8676Y17638D01*
X9291Y17383D01*
X9956D01*
X10571Y17638D01*
X11042Y18109D01*
X11570Y18077D01*
X11619Y17959D01*
X12090Y17488D01*
X12705Y17234D01*
X13370D01*
X13985Y17488D01*
X14456Y17959D01*
X14711Y18574D01*
Y19240D01*
X14456Y19855D01*
X13985Y20325D01*
X13370Y20580D01*
X12705D01*
X12090Y20325D01*
X11619Y19855D01*
X11091Y19887D01*
X11042Y20005D01*
X10571Y20475D01*
X9956Y20730D01*
D02*
G37*
G36*
X333Y15059D02*
X-333D01*
X-948Y14804D01*
X-1419Y14334D01*
X-1673Y13719D01*
Y13053D01*
X-1419Y12438D01*
X-948Y11967D01*
X-333Y11713D01*
X333D01*
X948Y11967D01*
X1419Y12438D01*
X1673Y13053D01*
Y13719D01*
X1419Y14334D01*
X948Y14804D01*
X333Y15059D01*
D02*
G37*
G36*
X23674Y13267D02*
X23008D01*
X22393Y13013D01*
X21922Y12542D01*
X21667Y11927D01*
Y11261D01*
X21922Y10646D01*
X22393Y10176D01*
X23008Y9921D01*
X23674D01*
X23952Y9495D01*
X24059Y9238D01*
X24529Y8767D01*
X25144Y8512D01*
X25810D01*
X26425Y8767D01*
X26896Y9238D01*
X27150Y9853D01*
Y10518D01*
X26896Y11133D01*
X26425Y11604D01*
X25810Y11859D01*
X25144D01*
X24866Y12285D01*
X24759Y12542D01*
X24288Y13013D01*
X23674Y13267D01*
D02*
G37*
G36*
X-21719Y11284D02*
X-22385D01*
X-23000Y11030D01*
X-23471Y10559D01*
X-23725Y9944D01*
Y9278D01*
X-23471Y8663D01*
X-23000Y8193D01*
X-22385Y7938D01*
X-21719D01*
X-21104Y8193D01*
X-20634Y8663D01*
X-20379Y9278D01*
Y9944D01*
X-20634Y10559D01*
X-21104Y11030D01*
X-21719Y11284D01*
D02*
G37*
G36*
X-7147Y8366D02*
X-7813D01*
X-8428Y8111D01*
X-8899Y7641D01*
X-9154Y7026D01*
Y6360D01*
X-8899Y5745D01*
X-8428Y5274D01*
X-7813Y5020D01*
X-7147D01*
X-6532Y5274D01*
X-6062Y5745D01*
X-5807Y6360D01*
Y7026D01*
X-6062Y7641D01*
X-6532Y8111D01*
X-7147Y8366D01*
D02*
G37*
G36*
X13719Y1673D02*
X13053D01*
X12438Y1419D01*
X11967Y948D01*
X11713Y333D01*
Y-333D01*
X11967Y-948D01*
X12438Y-1419D01*
X13053Y-1673D01*
X13719D01*
X14334Y-1419D01*
X14804Y-948D01*
X15059Y-333D01*
Y333D01*
X14804Y948D01*
X14334Y1419D01*
X13719Y1673D01*
D02*
G37*
G36*
X7419D02*
X6754D01*
X6139Y1419D01*
X5668Y948D01*
X5413Y333D01*
Y-333D01*
X5668Y-948D01*
X6139Y-1419D01*
X6754Y-1673D01*
X7419D01*
X8034Y-1419D01*
X8505Y-948D01*
X8760Y-333D01*
Y333D01*
X8505Y948D01*
X8034Y1419D01*
X7419Y1673D01*
D02*
G37*
G36*
X333D02*
X-333D01*
X-948Y1419D01*
X-1419Y948D01*
X-1673Y333D01*
Y-333D01*
X-1419Y-948D01*
X-948Y-1419D01*
X-333Y-1673D01*
X333D01*
X948Y-1419D01*
X1419Y-948D01*
X1673Y-333D01*
Y333D01*
X1419Y948D01*
X948Y1419D01*
X333Y1673D01*
D02*
G37*
G36*
X-6360D02*
X-7026D01*
X-7641Y1419D01*
X-8111Y948D01*
X-8366Y333D01*
Y-333D01*
X-8111Y-948D01*
X-7641Y-1419D01*
X-7026Y-1673D01*
X-6360D01*
X-5745Y-1419D01*
X-5274Y-948D01*
X-5020Y-333D01*
Y333D01*
X-5274Y948D01*
X-5745Y1419D01*
X-6360Y1673D01*
D02*
G37*
G36*
X-12659D02*
X-13325D01*
X-13940Y1419D01*
X-14411Y948D01*
X-14665Y333D01*
Y-333D01*
X-14411Y-948D01*
X-13940Y-1419D01*
X-13325Y-1673D01*
X-12659D01*
X-12044Y-1419D01*
X-11574Y-948D01*
X-11319Y-333D01*
Y333D01*
X-11574Y948D01*
X-12044Y1419D01*
X-12659Y1673D01*
D02*
G37*
G36*
X28679Y1280D02*
X28014D01*
X27399Y1025D01*
X26928Y554D01*
X26673Y-61D01*
Y-727D01*
X26928Y-1342D01*
X27399Y-1812D01*
X28014Y-2067D01*
X28679D01*
X29294Y-1812D01*
X29765Y-1342D01*
X30020Y-727D01*
Y-61D01*
X29765Y554D01*
X29294Y1025D01*
X28679Y1280D01*
D02*
G37*
G36*
X24742Y98D02*
X24077D01*
X23462Y-156D01*
X22991Y-627D01*
X22736Y-1242D01*
Y-1908D01*
X22991Y-2523D01*
X23462Y-2993D01*
X24077Y-3248D01*
X24742D01*
X25357Y-2993D01*
X25828Y-2523D01*
X26083Y-1908D01*
Y-1242D01*
X25828Y-627D01*
X25357Y-156D01*
X24742Y98D01*
D02*
G37*
G36*
X10175Y-1870D02*
X9510D01*
X8895Y-2125D01*
X8424Y-2596D01*
X8169Y-3210D01*
Y-3876D01*
X8424Y-4491D01*
X8895Y-4962D01*
X9510Y-5217D01*
X10175D01*
X10790Y-4962D01*
X11261Y-4491D01*
X11516Y-3876D01*
Y-3210D01*
X11261Y-2596D01*
X10790Y-2125D01*
X10175Y-1870D01*
D02*
G37*
G36*
X-9116Y-2059D02*
X-9782D01*
X-10397Y-2314D01*
X-10867Y-2785D01*
X-11122Y-3399D01*
Y-4065D01*
X-10867Y-4680D01*
X-10397Y-5151D01*
X-9782Y-5406D01*
X-9116D01*
X-8501Y-5151D01*
X-8030Y-4680D01*
X-7776Y-4065D01*
Y-3399D01*
X-8030Y-2785D01*
X-8501Y-2314D01*
X-9116Y-2059D01*
D02*
G37*
G36*
X4663Y-8957D02*
X3998D01*
X3383Y-9211D01*
X2912Y-9682D01*
X2657Y-10297D01*
Y-10963D01*
X2912Y-11578D01*
X3383Y-12048D01*
X3998Y-12303D01*
X4663D01*
X5279Y-12048D01*
X5749Y-11578D01*
X6004Y-10963D01*
Y-10297D01*
X5749Y-9682D01*
X5279Y-9211D01*
X4663Y-8957D01*
D02*
G37*
G36*
X-18127Y-10575D02*
X-18793D01*
X-19408Y-10830D01*
X-19879Y-11301D01*
X-20133Y-11916D01*
Y-12581D01*
X-19879Y-13196D01*
X-19408Y-13667D01*
X-18793Y-13922D01*
X-18127D01*
X-17512Y-13667D01*
X-17042Y-13196D01*
X-16787Y-12581D01*
Y-11916D01*
X-17042Y-11301D01*
X-17512Y-10830D01*
X-18127Y-10575D01*
D02*
G37*
G36*
X333Y-11319D02*
X-333D01*
X-948Y-11574D01*
X-1419Y-12044D01*
X-1673Y-12659D01*
Y-13325D01*
X-1419Y-13940D01*
X-948Y-14411D01*
X-333Y-14665D01*
X333D01*
X948Y-14411D01*
X1419Y-13940D01*
X1673Y-13325D01*
Y-12659D01*
X1419Y-12044D01*
X948Y-11574D01*
X333Y-11319D01*
D02*
G37*
G36*
X27919Y-8795D02*
X27253D01*
X26638Y-9049D01*
X26168Y-9520D01*
X25913Y-10135D01*
Y-10801D01*
X26039Y-11106D01*
X26217Y-11574D01*
X25747Y-12044D01*
X25492Y-12659D01*
Y-13325D01*
X25254Y-13681D01*
X25212D01*
X24598Y-13936D01*
X24127Y-14406D01*
X23872Y-15021D01*
Y-15687D01*
X24127Y-16302D01*
X24598Y-16773D01*
X25212Y-17028D01*
X25878D01*
X26493Y-16773D01*
X26964Y-16302D01*
X27218Y-15687D01*
Y-15021D01*
X27457Y-14665D01*
X27498D01*
X28113Y-14411D01*
X28584Y-13940D01*
X28839Y-13325D01*
Y-12659D01*
X28712Y-12354D01*
X28534Y-11886D01*
X29005Y-11416D01*
X29259Y-10801D01*
Y-10135D01*
X29005Y-9520D01*
X28534Y-9049D01*
X27919Y-8795D01*
D02*
G37*
G36*
X-13828Y-14763D02*
X-14494D01*
X-15109Y-15017D01*
X-15580Y-15488D01*
X-15835Y-16103D01*
Y-16769D01*
X-15580Y-17384D01*
X-15109Y-17854D01*
X-14494Y-18109D01*
X-13828D01*
X-13214Y-17854D01*
X-12743Y-17384D01*
X-12488Y-16769D01*
Y-16103D01*
X-12743Y-15488D01*
X-13214Y-15017D01*
X-13828Y-14763D01*
D02*
G37*
G36*
X22425Y-18742D02*
X21760D01*
X21145Y-18996D01*
X20674Y-19467D01*
X20419Y-20082D01*
Y-20748D01*
X20674Y-21363D01*
X20970Y-21658D01*
X20603Y-22025D01*
X20348Y-22640D01*
Y-23306D01*
X20603Y-23921D01*
X21074Y-24391D01*
X21689Y-24646D01*
X22354D01*
X22969Y-24391D01*
X23440Y-23921D01*
X23695Y-23306D01*
Y-22640D01*
X23440Y-22025D01*
X23144Y-21729D01*
X23511Y-21363D01*
X23766Y-20748D01*
Y-20082D01*
X23511Y-19467D01*
X23040Y-18996D01*
X22425Y-18742D01*
D02*
G37*
G36*
X12931Y-22343D02*
X12266D01*
X11651Y-22597D01*
X11180Y-23068D01*
X10925Y-23683D01*
Y-24349D01*
X11180Y-24964D01*
X11651Y-25434D01*
X12266Y-25689D01*
X12931D01*
X13546Y-25434D01*
X14017Y-24964D01*
X14272Y-24349D01*
Y-23683D01*
X14017Y-23068D01*
X13546Y-22597D01*
X12931Y-22343D01*
D02*
G37*
G36*
X-8722Y-22736D02*
X-9388D01*
X-10003Y-22991D01*
X-10474Y-23462D01*
X-10728Y-24077D01*
Y-24742D01*
X-10474Y-25357D01*
X-10003Y-25828D01*
X-9388Y-26083D01*
X-8722D01*
X-8107Y-25828D01*
X-7637Y-25357D01*
X-7382Y-24742D01*
Y-24077D01*
X-7637Y-23462D01*
X-8107Y-22991D01*
X-8722Y-22736D01*
D02*
G37*
G36*
X-25866Y-24096D02*
X-26532D01*
X-27147Y-24351D01*
X-27618Y-24822D01*
X-27872Y-25437D01*
Y-26102D01*
X-27618Y-26717D01*
X-27147Y-27188D01*
X-26532Y-27443D01*
X-25866D01*
X-25251Y-27188D01*
X-24781Y-26717D01*
X-24526Y-26102D01*
Y-25437D01*
X-24781Y-24822D01*
X-25251Y-24351D01*
X-25866Y-24096D01*
D02*
G37*
G36*
X-13683Y-24705D02*
X-14349D01*
X-14964Y-24960D01*
X-15434Y-25430D01*
X-15689Y-26045D01*
Y-26711D01*
X-15434Y-27326D01*
X-14964Y-27796D01*
X-14349Y-28051D01*
X-13683D01*
X-13068Y-27796D01*
X-12597Y-27326D01*
X-12342Y-26711D01*
Y-26045D01*
X-12597Y-25430D01*
X-13068Y-24960D01*
X-13683Y-24705D01*
D02*
G37*
G36*
X1908Y-30807D02*
X1242D01*
X627Y-31062D01*
X156Y-31532D01*
X-98Y-32147D01*
Y-32813D01*
X156Y-33428D01*
X627Y-33899D01*
X1242Y-34154D01*
X1908D01*
X2523Y-33899D01*
X2993Y-33428D01*
X3248Y-32813D01*
Y-32147D01*
X2993Y-31532D01*
X2523Y-31062D01*
X1908Y-30807D01*
D02*
G37*
G36*
X-28407Y-31004D02*
X-29073D01*
X-29688Y-31259D01*
X-30159Y-31729D01*
X-30413Y-32344D01*
Y-33010D01*
X-30159Y-33625D01*
X-29688Y-34096D01*
X-29073Y-34350D01*
X-28407D01*
X-27792Y-34096D01*
X-27322Y-33625D01*
X-27067Y-33010D01*
Y-32344D01*
X-27322Y-31729D01*
X-27792Y-31259D01*
X-28407Y-31004D01*
D02*
G37*
G36*
X-12311Y-32185D02*
X-12977D01*
X-13591Y-32440D01*
X-14062Y-32910D01*
X-14317Y-33525D01*
Y-34191D01*
X-14062Y-34806D01*
X-13591Y-35277D01*
X-12977Y-35531D01*
X-12311D01*
X-11696Y-35277D01*
X-11225Y-34806D01*
X-10971Y-34191D01*
Y-33525D01*
X-11225Y-32910D01*
X-11696Y-32440D01*
X-12311Y-32185D01*
D02*
G37*
G36*
X-16990Y-35335D02*
X-17656D01*
X-18271Y-35589D01*
X-18741Y-36060D01*
X-18996Y-36675D01*
Y-37341D01*
X-18741Y-37956D01*
X-18271Y-38426D01*
X-17656Y-38681D01*
X-16990D01*
X-16375Y-38426D01*
X-15904Y-37956D01*
X-15650Y-37341D01*
Y-36675D01*
X-15904Y-36060D01*
X-16375Y-35589D01*
X-16990Y-35335D01*
D02*
G37*
G36*
X-14254Y-40407D02*
X-14880D01*
X-15459Y-40647D01*
X-15902Y-41090D01*
X-16142Y-41669D01*
Y-42296D01*
X-15902Y-42874D01*
X-15459Y-43317D01*
X-14880Y-43557D01*
X-14254D01*
X-13675Y-43317D01*
X-13232Y-42874D01*
X-12992Y-42296D01*
Y-41669D01*
X-13232Y-41090D01*
X-13675Y-40647D01*
X-14254Y-40407D01*
D02*
G37*
G36*
X-33839Y-50394D02*
X-34505D01*
X-35120Y-50648D01*
X-35591Y-51119D01*
X-35845Y-51734D01*
Y-52400D01*
X-35591Y-53015D01*
X-35120Y-53485D01*
X-34505Y-53740D01*
X-33839D01*
X-33224Y-53485D01*
X-32754Y-53015D01*
X-32499Y-52400D01*
Y-51734D01*
X-32754Y-51119D01*
X-33224Y-50648D01*
X-33839Y-50394D01*
D02*
G37*
G36*
X38719Y52067D02*
X38053D01*
X37438Y51812D01*
X36967Y51341D01*
X36713Y50726D01*
Y50061D01*
X36967Y49446D01*
X37438Y48975D01*
X38053Y48720D01*
X38719D01*
X39334Y48975D01*
X39804Y49446D01*
X40059Y50061D01*
Y50726D01*
X39804Y51341D01*
X39334Y51812D01*
X38719Y52067D01*
D02*
G37*
G36*
X-15021D02*
X-15687D01*
X-16302Y51812D01*
X-16773Y51341D01*
X-17028Y50726D01*
Y50061D01*
X-16773Y49446D01*
X-16302Y48975D01*
X-15687Y48720D01*
X-15021D01*
X-14406Y48975D01*
X-13936Y49446D01*
X-13681Y50061D01*
Y50726D01*
X-13936Y51341D01*
X-14406Y51812D01*
X-15021Y52067D01*
D02*
G37*
G36*
X-30789Y51575D02*
X-31416D01*
X-31994Y51335D01*
X-32437Y50892D01*
X-32677Y50313D01*
Y49687D01*
X-32437Y49108D01*
X-31994Y48665D01*
X-31416Y48425D01*
X-30789D01*
X-30210Y48665D01*
X-29767Y49108D01*
X-29528Y49687D01*
Y50313D01*
X-29767Y50892D01*
X-30210Y51335D01*
X-30789Y51575D01*
D02*
G37*
G36*
X-34726D02*
X-35353D01*
X-35931Y51335D01*
X-36374Y50892D01*
X-36614Y50313D01*
Y49687D01*
X-36374Y49108D01*
X-35931Y48665D01*
X-35353Y48425D01*
X-34726D01*
X-34147Y48665D01*
X-33704Y49108D01*
X-33465Y49687D01*
Y50313D01*
X-33704Y50892D01*
X-34147Y51335D01*
X-34726Y51575D01*
D02*
G37*
G36*
X-7954Y50787D02*
X-8581D01*
X-9160Y50548D01*
X-9603Y50105D01*
X-9843Y49526D01*
Y48899D01*
X-9603Y48320D01*
X-9160Y47878D01*
X-8581Y47638D01*
X-7954D01*
X-7376Y47878D01*
X-6933Y48320D01*
X-6799Y48643D01*
X-6299Y48543D01*
Y48506D01*
X-6059Y47927D01*
X-5616Y47484D01*
X-5038Y47244D01*
X-4411D01*
X-3832Y47484D01*
X-3389Y47927D01*
X-3150Y48506D01*
Y49132D01*
X-3389Y49711D01*
X-3832Y50154D01*
X-4411Y50394D01*
X-5038D01*
X-5616Y50154D01*
X-6059Y49711D01*
X-6193Y49389D01*
X-6693Y49488D01*
Y49526D01*
X-6933Y50105D01*
X-7376Y50548D01*
X-7954Y50787D01*
D02*
G37*
G36*
X51855Y56299D02*
X50507D01*
X49206Y55950D01*
X48039Y55277D01*
X47086Y54324D01*
X46412Y53157D01*
X46063Y51855D01*
Y50507D01*
X46412Y49206D01*
X47086Y48039D01*
X48039Y47086D01*
X49206Y46412D01*
X50507Y46063D01*
X51855D01*
X53157Y46412D01*
X54324Y47086D01*
X55277Y48039D01*
X55950Y49206D01*
X56299Y50507D01*
Y51855D01*
X55950Y53157D01*
X55277Y54324D01*
X54324Y55277D01*
X53157Y55950D01*
X51855Y56299D01*
D02*
G37*
G36*
X-50507D02*
X-51855D01*
X-53157Y55950D01*
X-54324Y55277D01*
X-55277Y54324D01*
X-55950Y53157D01*
X-56299Y51855D01*
Y50507D01*
X-55950Y49206D01*
X-55277Y48039D01*
X-54324Y47086D01*
X-53157Y46412D01*
X-51855Y46063D01*
X-50507D01*
X-49206Y46412D01*
X-48039Y47086D01*
X-47086Y48039D01*
X-46412Y49206D01*
X-46063Y50507D01*
Y51855D01*
X-46412Y53157D01*
X-47086Y54324D01*
X-48039Y55277D01*
X-49206Y55950D01*
X-50507Y56299D01*
D02*
G37*
G36*
X-38269Y43307D02*
X-38896D01*
X-39475Y43067D01*
X-39918Y42624D01*
X-40157Y42046D01*
Y41419D01*
X-39918Y40840D01*
X-39475Y40397D01*
X-38896Y40157D01*
X-38269D01*
X-37691Y40397D01*
X-37248Y40840D01*
X-37008Y41419D01*
Y42046D01*
X-37248Y42624D01*
X-37691Y43067D01*
X-38269Y43307D01*
D02*
G37*
G36*
X23955Y38681D02*
X23289D01*
X22674Y38426D01*
X22204Y37956D01*
X21949Y37341D01*
Y36675D01*
X22204Y36060D01*
X22674Y35589D01*
X23289Y35335D01*
X23955D01*
X24570Y35589D01*
X25041Y36060D01*
X25295Y36675D01*
Y37341D01*
X25041Y37956D01*
X24570Y38426D01*
X23955Y38681D01*
D02*
G37*
G36*
X18837D02*
X18171D01*
X17556Y38426D01*
X17086Y37956D01*
X16831Y37341D01*
Y36675D01*
X17086Y36060D01*
X17556Y35589D01*
X18171Y35335D01*
X18837D01*
X19452Y35589D01*
X19922Y36060D01*
X20177Y36675D01*
Y37341D01*
X19922Y37956D01*
X19452Y38426D01*
X18837Y38681D01*
D02*
G37*
G36*
X-24077Y30413D02*
X-24742D01*
X-25357Y30159D01*
X-25828Y29688D01*
X-26083Y29073D01*
Y28407D01*
X-25828Y27792D01*
X-25357Y27322D01*
X-24742Y27067D01*
X-24077D01*
X-23462Y27322D01*
X-22991Y27792D01*
X-22736Y28407D01*
Y29073D01*
X-22991Y29688D01*
X-23462Y30159D01*
X-24077Y30413D01*
D02*
G37*
G36*
X-28801D02*
X-29467D01*
X-30082Y30159D01*
X-30552Y29688D01*
X-30807Y29073D01*
Y28407D01*
X-30552Y27792D01*
X-30082Y27322D01*
X-29467Y27067D01*
X-28801D01*
X-28186Y27322D01*
X-27715Y27792D01*
X-27461Y28407D01*
Y29073D01*
X-27715Y29688D01*
X-28186Y30159D01*
X-28801Y30413D01*
D02*
G37*
G36*
X-40612Y26476D02*
X-41278D01*
X-41893Y26222D01*
X-42363Y25751D01*
X-42618Y25136D01*
Y24470D01*
X-42363Y23855D01*
X-41893Y23385D01*
X-41278Y23130D01*
X-40612D01*
X-39997Y23385D01*
X-39526Y23855D01*
X-39272Y24470D01*
Y25136D01*
X-39526Y25751D01*
X-39997Y26222D01*
X-40612Y26476D01*
D02*
G37*
G36*
X35353Y17717D02*
X34726D01*
X34147Y17477D01*
X33704Y17034D01*
X33465Y16455D01*
Y15829D01*
X33704Y15250D01*
X34147Y14807D01*
X34726Y14567D01*
X35353D01*
X35362Y14571D01*
X35827Y14222D01*
Y13860D01*
X36066Y13281D01*
X36509Y12838D01*
X37088Y12598D01*
X37715D01*
X38294Y12838D01*
X38737Y13281D01*
X38976Y13860D01*
Y14487D01*
X38737Y15065D01*
X38294Y15508D01*
X37715Y15748D01*
X37088D01*
X37079Y15744D01*
X36614Y16093D01*
Y16455D01*
X36374Y17034D01*
X35931Y17477D01*
X35353Y17717D01*
D02*
G37*
G36*
X53876Y1673D02*
X53211D01*
X52596Y1419D01*
X52125Y948D01*
X51870Y333D01*
Y-333D01*
X52125Y-948D01*
X52596Y-1419D01*
X53211Y-1673D01*
X53876D01*
X54491Y-1419D01*
X54962Y-948D01*
X55216Y-333D01*
Y333D01*
X54962Y948D01*
X54491Y1419D01*
X53876Y1673D01*
D02*
G37*
G36*
X-38269Y-12598D02*
X-38896D01*
X-39475Y-12838D01*
X-39918Y-13281D01*
X-40157Y-13860D01*
Y-14487D01*
X-39918Y-15065D01*
X-39475Y-15508D01*
X-38896Y-15748D01*
X-38269D01*
X-37691Y-15508D01*
X-37248Y-15065D01*
X-37008Y-14487D01*
Y-13860D01*
X-37248Y-13281D01*
X-37691Y-12838D01*
X-38269Y-12598D01*
D02*
G37*
G36*
X-50454Y-19980D02*
X-51120D01*
X-51735Y-20235D01*
X-52206Y-20706D01*
X-52460Y-21321D01*
Y-21986D01*
X-52206Y-22601D01*
X-51735Y-23072D01*
X-51120Y-23327D01*
X-50454D01*
X-49839Y-23072D01*
X-49369Y-22601D01*
X-49114Y-21986D01*
Y-21321D01*
X-49369Y-20706D01*
X-49839Y-20235D01*
X-50454Y-19980D01*
D02*
G37*
G36*
X51120Y-21161D02*
X50455D01*
X49840Y-21416D01*
X49369Y-21887D01*
X49114Y-22502D01*
Y-23167D01*
X49369Y-23783D01*
X49840Y-24253D01*
X50455Y-24508D01*
X51120D01*
X51735Y-24253D01*
X52206Y-23783D01*
X52461Y-23167D01*
Y-22502D01*
X52206Y-21887D01*
X51735Y-21416D01*
X51120Y-21161D01*
D02*
G37*
G36*
X33778Y-23228D02*
X33151D01*
X32572Y-23468D01*
X32129Y-23911D01*
X31890Y-24490D01*
Y-25116D01*
X32129Y-25695D01*
X32572Y-26138D01*
X33151Y-26378D01*
X33778D01*
X34357Y-26138D01*
X34800Y-25695D01*
X35039Y-25116D01*
Y-24490D01*
X34800Y-23911D01*
X34357Y-23468D01*
X33778Y-23228D01*
D02*
G37*
G36*
X33669Y-27450D02*
X33042D01*
X32463Y-27690D01*
X32020Y-28133D01*
X31780Y-28711D01*
Y-29338D01*
X32020Y-29917D01*
X32463Y-30360D01*
X33042Y-30599D01*
X33669D01*
X34247Y-30360D01*
X34690Y-29917D01*
X34930Y-29338D01*
Y-28711D01*
X34690Y-28133D01*
X34247Y-27690D01*
X33669Y-27450D01*
D02*
G37*
G36*
X30049Y-39460D02*
X29383D01*
X28768Y-39715D01*
X28338Y-40145D01*
X28113Y-39920D01*
X27498Y-39665D01*
X26833D01*
X26217Y-39920D01*
X25747Y-40391D01*
X25492Y-41006D01*
Y-41671D01*
X25747Y-42286D01*
X26217Y-42757D01*
X26833Y-43012D01*
X27498D01*
X28113Y-42757D01*
X28543Y-42327D01*
X28768Y-42552D01*
X29383Y-42807D01*
X30049D01*
X30664Y-42552D01*
X31135Y-42081D01*
X31389Y-41466D01*
Y-40801D01*
X31135Y-40186D01*
X30664Y-39715D01*
X30049Y-39460D01*
D02*
G37*
G36*
X38287Y-43562D02*
X35728D01*
X34922Y-43722D01*
X34238Y-44179D01*
X33781Y-44863D01*
X33621Y-45669D01*
X33781Y-46476D01*
X34238Y-47159D01*
X34922Y-47616D01*
X35728Y-47777D01*
X38287D01*
X39094Y-47616D01*
X39778Y-47159D01*
X40234Y-46476D01*
X40395Y-45669D01*
X40234Y-44863D01*
X39778Y-44179D01*
X39094Y-43722D01*
X38287Y-43562D01*
D02*
G37*
G36*
X18602D02*
X16043D01*
X15237Y-43722D01*
X14553Y-44179D01*
X14096Y-44863D01*
X13936Y-45669D01*
X14096Y-46476D01*
X14553Y-47159D01*
X15237Y-47616D01*
X16043Y-47777D01*
X18602D01*
X19409Y-47616D01*
X20092Y-47159D01*
X20549Y-46476D01*
X20710Y-45669D01*
X20549Y-44863D01*
X20092Y-44179D01*
X19409Y-43722D01*
X18602Y-43562D01*
D02*
G37*
G36*
X25136Y-47752D02*
X24470D01*
X23855Y-48007D01*
X23674Y-48188D01*
X23002Y-48195D01*
X22995Y-48188D01*
X22380Y-47933D01*
X21714D01*
X21099Y-48188D01*
X20629Y-48658D01*
X20374Y-49273D01*
Y-49939D01*
X20629Y-50554D01*
X21099Y-51025D01*
X21714Y-51279D01*
X22380D01*
X22995Y-51025D01*
X23176Y-50844D01*
X23849Y-50837D01*
X23855Y-50844D01*
X24470Y-51098D01*
X25136D01*
X25751Y-50844D01*
X26222Y-50373D01*
X26476Y-49758D01*
Y-49092D01*
X26222Y-48477D01*
X25751Y-48007D01*
X25136Y-47752D01*
D02*
G37*
G36*
X51855Y-46063D02*
X50507D01*
X49206Y-46412D01*
X48039Y-47086D01*
X47086Y-48039D01*
X46412Y-49206D01*
X46063Y-50507D01*
Y-51855D01*
X46412Y-53157D01*
X47086Y-54324D01*
X48039Y-55277D01*
X49206Y-55950D01*
X50507Y-56299D01*
X51855D01*
X53157Y-55950D01*
X54324Y-55277D01*
X55277Y-54324D01*
X55950Y-53157D01*
X56299Y-51855D01*
Y-50507D01*
X55950Y-49206D01*
X55277Y-48039D01*
X54324Y-47086D01*
X53157Y-46412D01*
X51855Y-46063D01*
D02*
G37*
G36*
X-50507D02*
X-51855D01*
X-53157Y-46412D01*
X-54324Y-47086D01*
X-55277Y-48039D01*
X-55950Y-49206D01*
X-56299Y-50507D01*
Y-51855D01*
X-55950Y-53157D01*
X-55277Y-54324D01*
X-54324Y-55277D01*
X-53157Y-55950D01*
X-51855Y-56299D01*
X-50507D01*
X-49206Y-55950D01*
X-48039Y-55277D01*
X-47086Y-54324D01*
X-46412Y-53157D01*
X-46063Y-51855D01*
Y-50507D01*
X-46412Y-49206D01*
X-47086Y-48039D01*
X-48039Y-47086D01*
X-49206Y-46412D01*
X-50507Y-46063D01*
D02*
G37*
G36*
X-21714Y-56595D02*
X-22380D01*
X-22995Y-56849D01*
X-23466Y-57320D01*
X-23720Y-57935D01*
Y-58600D01*
X-23466Y-59215D01*
X-22995Y-59686D01*
X-22380Y-59941D01*
X-21714D01*
X-21099Y-59686D01*
X-20629Y-59215D01*
X-20374Y-58600D01*
Y-57935D01*
X-20629Y-57320D01*
X-21099Y-56849D01*
X-21714Y-56595D01*
D02*
G37*
G36*
X40945Y-52415D02*
X40042Y-52595D01*
X39277Y-53106D01*
X38766Y-53871D01*
X38587Y-54774D01*
Y-57825D01*
X38766Y-58727D01*
X39277Y-59492D01*
X40042Y-60004D01*
X40945Y-60183D01*
X41847Y-60004D01*
X42612Y-59492D01*
X43124Y-58727D01*
X43303Y-57825D01*
Y-54774D01*
X43124Y-53871D01*
X42612Y-53106D01*
X41847Y-52595D01*
X40945Y-52415D01*
D02*
G37*
G36*
X13386D02*
X12483Y-52595D01*
X11718Y-53106D01*
X11207Y-53871D01*
X11028Y-54774D01*
Y-57825D01*
X11207Y-58727D01*
X11718Y-59492D01*
X12483Y-60004D01*
X13386Y-60183D01*
X14288Y-60004D01*
X15053Y-59492D01*
X15565Y-58727D01*
X15744Y-57825D01*
Y-54774D01*
X15565Y-53871D01*
X15053Y-53106D01*
X14288Y-52595D01*
X13386Y-52415D01*
D02*
G37*
G36*
X-28589Y-57556D02*
X-29254D01*
X-29869Y-57810D01*
X-30340Y-58281D01*
X-30595Y-58896D01*
Y-59562D01*
X-30340Y-60177D01*
X-29869Y-60647D01*
X-29254Y-60902D01*
X-28589D01*
X-27974Y-60647D01*
X-27503Y-60177D01*
X-27248Y-59562D01*
Y-58896D01*
X-27503Y-58281D01*
X-27974Y-57810D01*
X-28589Y-57556D01*
D02*
G37*
%LPD*%
D17*
X-51181Y64961D02*
X-52164Y64925D01*
X-53142Y64820D01*
X-54110Y64646D01*
X-55063Y64403D01*
X-55997Y64092D01*
X-56905Y63715D01*
X-57785Y63275D01*
X-58631Y62773D01*
X-59439Y62212D01*
X-60205Y61595D01*
X-60925Y60925D01*
X-61595Y60205D01*
X-62212Y59439D01*
X-62773Y58631D01*
X-63275Y57785D01*
X-63715Y56905D01*
X-64092Y55997D01*
X-64403Y55063D01*
X-64646Y54110D01*
X-64820Y53142D01*
X-64925Y52164D01*
X-64961Y51181D01*
X64961D02*
X64925Y52164D01*
X64820Y53142D01*
X64646Y54110D01*
X64403Y55063D01*
X64092Y55997D01*
X63715Y56905D01*
X63275Y57785D01*
X62773Y58631D01*
X62212Y59439D01*
X61595Y60205D01*
X60925Y60925D01*
X60205Y61595D01*
X59439Y62212D01*
X58631Y62773D01*
X57785Y63275D01*
X56905Y63715D01*
X55997Y64092D01*
X55063Y64403D01*
X54110Y64646D01*
X53142Y64820D01*
X52164Y64925D01*
X51181Y64961D01*
Y-64961D02*
X52164Y-64925D01*
X53142Y-64820D01*
X54110Y-64646D01*
X55063Y-64403D01*
X55997Y-64092D01*
X56905Y-63715D01*
X57785Y-63275D01*
X58631Y-62773D01*
X59439Y-62212D01*
X60205Y-61595D01*
X60925Y-60925D01*
X61595Y-60205D01*
X62212Y-59439D01*
X62773Y-58631D01*
X63275Y-57785D01*
X63715Y-56905D01*
X64092Y-55997D01*
X64403Y-55063D01*
X64646Y-54110D01*
X64820Y-53142D01*
X64925Y-52164D01*
X64961Y-51181D01*
X-64961D02*
X-64925Y-52164D01*
X-64820Y-53142D01*
X-64646Y-54110D01*
X-64403Y-55063D01*
X-64092Y-55997D01*
X-63715Y-56905D01*
X-63275Y-57785D01*
X-62773Y-58631D01*
X-62212Y-59439D01*
X-61595Y-60205D01*
X-60925Y-60925D01*
X-60205Y-61595D01*
X-59439Y-62212D01*
X-58631Y-62773D01*
X-57785Y-63275D01*
X-56905Y-63715D01*
X-55997Y-64092D01*
X-55063Y-64403D01*
X-54110Y-64646D01*
X-53142Y-64820D01*
X-52164Y-64925D01*
X-51181Y-64961D01*
Y-64961D02*
X51181D01*
X-64961Y-51181D02*
Y51181D01*
X64961Y-51181D02*
Y51181D01*
X-51181Y64961D02*
X51181D01*
D66*
X-11811Y25035D02*
X-8661Y21885D01*
X-11811Y25035D02*
Y60274D01*
X4244Y-63236D02*
X7500Y-59980D01*
X-4244Y-63236D02*
X4244D01*
X-7500Y-59980D02*
X-4244Y-63236D01*
X-8849Y63236D02*
X-756D01*
X2500Y59980D01*
X-11811Y60274D02*
X-8849Y63236D01*
D69*
X2500Y59980D02*
D03*
X7500Y-59980D02*
D03*
X-7500D02*
D03*
D71*
X7829Y23195D02*
D03*
X-16098Y15398D02*
D03*
X-8661Y21885D02*
D03*
X-5118Y-33071D02*
D03*
X-26378Y-11024D02*
D03*
X-27953Y-12205D02*
D03*
Y-9843D02*
D03*
X50787Y-26772D02*
D03*
X31496Y-7087D02*
D03*
X26772Y-5512D02*
D03*
X23622Y14173D02*
D03*
X-12598Y-30709D02*
D03*
X18460Y-14917D02*
D03*
X48031Y33465D02*
D03*
X45669D02*
D03*
X18110Y12992D02*
D03*
X41339Y-35827D02*
D03*
X-18504Y-24409D02*
D03*
X-17480Y-26378D02*
D03*
X-11767Y-18941D02*
D03*
X-22530Y-38278D02*
D03*
X-31102Y-47244D02*
D03*
X9291Y-37598D02*
D03*
X2757Y-37698D02*
D03*
X-7087Y31890D02*
D03*
Y28740D02*
D03*
X-3937D02*
D03*
Y31890D02*
D03*
X-19488Y41339D02*
D03*
X31348Y41191D02*
D03*
X28161D02*
D03*
X24974D02*
D03*
X-19291Y17717D02*
D03*
D72*
X-29134Y39528D02*
D03*
X-28661Y-1181D02*
D03*
X-33071Y3150D02*
D03*
Y5118D02*
D03*
X-27362Y3543D02*
D03*
X-47244Y-13386D02*
D03*
X-45276D02*
D03*
M02*
