G04*
G04 #@! TF.GenerationSoftware,Altium Limited,Altium Designer,22.10.1 (41)*
G04*
G04 Layer_Physical_Order=2*
G04 Layer_Color=36540*
%FSLAX25Y25*%
%MOIN*%
G70*
G04*
G04 #@! TF.SameCoordinates,BA180857-5533-48D4-BC33-98CDBDEDE110*
G04*
G04*
G04 #@! TF.FilePolarity,Positive*
G04*
G01*
G75*
%ADD17C,0.00500*%
%ADD67O,0.05118X0.02559*%
%ADD68O,0.03051X0.06102*%
%ADD69C,0.03937*%
%ADD71C,0.01772*%
%ADD72C,0.01575*%
%ADD73C,0.01968*%
G36*
X11934Y33420D02*
Y31193D01*
X11845Y31128D01*
X11434Y31006D01*
X-4341Y46782D01*
X-4188Y47336D01*
X-3832Y47484D01*
X-3555Y47761D01*
X-2407D01*
X11934Y33420D01*
D02*
G37*
G36*
X17025Y21874D02*
X17640Y21620D01*
X18150D01*
X23461Y16308D01*
X23238Y15825D01*
X22674Y15592D01*
X22204Y15121D01*
X21949Y14506D01*
Y13840D01*
X22204Y13225D01*
X22397Y13032D01*
X22393Y13013D01*
X21922Y12542D01*
X21667Y11927D01*
Y11261D01*
X21922Y10646D01*
X22393Y10176D01*
X23008Y9921D01*
X23674D01*
X23952Y9495D01*
X24059Y9238D01*
X24529Y8767D01*
X25144Y8512D01*
X25810D01*
X26425Y8767D01*
X26789Y9131D01*
X27283Y8981D01*
X27289Y8978D01*
Y915D01*
X26928Y554D01*
X26673Y-61D01*
Y-186D01*
X26616Y-269D01*
X26173Y-555D01*
X25984Y-517D01*
X25718D01*
X25357Y-156D01*
X24742Y98D01*
X24077D01*
X23981Y59D01*
X23425Y370D01*
X23418Y405D01*
X23189Y748D01*
X10102Y13835D01*
X10294Y14297D01*
X12205D01*
X12609Y14377D01*
X12953Y14606D01*
X16083Y17737D01*
X16313Y18080D01*
X16393Y18485D01*
Y21799D01*
X16893Y22006D01*
X17025Y21874D01*
D02*
G37*
G36*
X-10223Y-23211D02*
X-10474Y-23462D01*
X-10728Y-24077D01*
Y-24742D01*
X-10474Y-25357D01*
X-10003Y-25828D01*
X-9388Y-26083D01*
X-8722D01*
X-8107Y-25828D01*
X-7747Y-25467D01*
X-6934D01*
X-98Y-32303D01*
Y-32813D01*
X156Y-33428D01*
X627Y-33899D01*
X910Y-34016D01*
X1027Y-34606D01*
X-3467Y-39100D01*
X-16694D01*
X-16794Y-38600D01*
X-16375Y-38426D01*
X-15904Y-37956D01*
X-15650Y-37341D01*
Y-36675D01*
X-15904Y-36060D01*
X-16375Y-35589D01*
X-16990Y-35335D01*
X-17656D01*
X-18271Y-35589D01*
X-18741Y-36060D01*
X-18996Y-36675D01*
Y-36889D01*
X-19496Y-37097D01*
X-20986Y-35607D01*
X-21329Y-35378D01*
X-21734Y-35297D01*
X-23050D01*
X-25141Y-33205D01*
Y-27078D01*
X-24781Y-26717D01*
X-24526Y-26102D01*
Y-25437D01*
X-24781Y-24822D01*
X-25251Y-24351D01*
X-25368Y-24302D01*
X-25466Y-23812D01*
X-24365Y-22711D01*
X-19879D01*
X-19672Y-23211D01*
X-19922Y-23462D01*
X-20177Y-24077D01*
Y-24742D01*
X-19922Y-25357D01*
X-19452Y-25828D01*
X-19120Y-25965D01*
X-19153Y-26045D01*
Y-26711D01*
X-18899Y-27326D01*
X-18428Y-27796D01*
X-17813Y-28051D01*
X-17147D01*
X-16533Y-27796D01*
X-16062Y-27326D01*
X-15807Y-26711D01*
Y-26045D01*
X-16062Y-25430D01*
X-16533Y-24960D01*
X-16864Y-24822D01*
X-16831Y-24742D01*
Y-24077D01*
X-17086Y-23462D01*
X-17336Y-23211D01*
X-17129Y-22711D01*
X-10430D01*
X-10223Y-23211D01*
D02*
G37*
G36*
X20419Y-20748D02*
X20674Y-21363D01*
X20970Y-21658D01*
X20603Y-22025D01*
X20348Y-22640D01*
Y-23306D01*
X20603Y-23921D01*
X20989Y-24307D01*
Y-26727D01*
X14129Y-33588D01*
X3468D01*
X3134Y-33088D01*
X3248Y-32813D01*
Y-32147D01*
X2993Y-31532D01*
X2523Y-31062D01*
X1908Y-30807D01*
X1397D01*
X-5748Y-23662D01*
X-6091Y-23432D01*
X-6496Y-23352D01*
X-7747D01*
X-8107Y-22991D01*
X-8463Y-22844D01*
X-8522Y-22733D01*
X-8574Y-22274D01*
X-6649Y-20349D01*
X20419D01*
Y-20748D01*
D02*
G37*
G36*
X-29798Y-26829D02*
Y-31369D01*
X-30159Y-31729D01*
X-30413Y-32344D01*
Y-33010D01*
X-30159Y-33625D01*
X-29889Y-33895D01*
Y-45438D01*
X-30389Y-45729D01*
X-30770Y-45571D01*
X-31435D01*
X-32050Y-45826D01*
X-32521Y-46296D01*
X-32614Y-46522D01*
X-33114Y-46423D01*
Y-29492D01*
X-30260Y-26638D01*
X-29798Y-26829D01*
D02*
G37*
G36*
X-10130Y64158D02*
X-9923Y63658D01*
X-12559Y61022D01*
X-12788Y60679D01*
X-12869Y60274D01*
Y22962D01*
X-13229Y22601D01*
X-13484Y21986D01*
Y21321D01*
X-13229Y20706D01*
X-13101Y20577D01*
X-13152Y20316D01*
X-13623Y19845D01*
X-13878Y19230D01*
Y18565D01*
X-13623Y17950D01*
X-13152Y17479D01*
X-12538Y17224D01*
X-11872D01*
X-11257Y17479D01*
X-10896Y17840D01*
X-10456D01*
X-10015Y17399D01*
X-9672Y17170D01*
X-9268Y17089D01*
X-8409D01*
X-8004Y17170D01*
X-7661Y17399D01*
X-1691Y23370D01*
X-1101Y23252D01*
X-1025Y23068D01*
X-664Y22707D01*
Y20079D01*
X-583Y19674D01*
X-354Y19331D01*
X20096Y-1119D01*
Y-3437D01*
X20176Y-3842D01*
X20406Y-4185D01*
X20989Y-4769D01*
Y-17399D01*
X21060Y-17755D01*
X21023Y-17868D01*
X20756Y-18234D01*
X-7087D01*
X-7491Y-18314D01*
X-7835Y-18543D01*
X-9886Y-20595D01*
X-10368Y-20549D01*
X-10555Y-20096D01*
X-10349Y-19889D01*
X-10094Y-19274D01*
Y-18609D01*
X-10349Y-17994D01*
X-10819Y-17523D01*
X-11434Y-17268D01*
X-12100D01*
X-12715Y-17523D01*
X-13186Y-17994D01*
X-13440Y-18609D01*
Y-19274D01*
X-13186Y-19889D01*
X-12979Y-20096D01*
X-13186Y-20596D01*
X-16220D01*
X-16554Y-20096D01*
X-16437Y-19813D01*
Y-19148D01*
X-16692Y-18532D01*
X-17162Y-18062D01*
X-17777Y-17807D01*
X-18443D01*
X-19058Y-18062D01*
X-19419Y-18423D01*
X-24598D01*
X-25003Y-18503D01*
X-25346Y-18732D01*
X-34920Y-28306D01*
X-35149Y-28649D01*
X-35230Y-29054D01*
Y-50758D01*
X-35591Y-51119D01*
X-35845Y-51734D01*
Y-52400D01*
X-35591Y-53015D01*
X-35120Y-53485D01*
X-34505Y-53740D01*
X-33839D01*
X-33224Y-53485D01*
X-32754Y-53015D01*
X-32499Y-52400D01*
Y-51734D01*
X-32754Y-51119D01*
X-33114Y-50758D01*
Y-48066D01*
X-32614Y-47966D01*
X-32521Y-48192D01*
X-32050Y-48663D01*
X-31435Y-48917D01*
X-30770D01*
X-30389Y-48759D01*
X-29889Y-49050D01*
Y-57830D01*
X-30340Y-58281D01*
X-30595Y-58896D01*
Y-59562D01*
X-30340Y-60177D01*
X-29869Y-60647D01*
X-29254Y-60902D01*
X-28589D01*
X-27974Y-60647D01*
X-27503Y-60177D01*
X-27248Y-59562D01*
Y-58896D01*
X-27503Y-58281D01*
X-27773Y-58011D01*
Y-34481D01*
X-27684Y-34333D01*
X-27273Y-34085D01*
X-27121Y-34131D01*
X-26947Y-34391D01*
X-24236Y-37103D01*
X-23952Y-37292D01*
X-23949Y-37330D01*
X-24203Y-37945D01*
Y-38611D01*
X-23949Y-39226D01*
X-23478Y-39697D01*
X-22863Y-39951D01*
X-22197D01*
X-21636Y-39719D01*
X-21136Y-39904D01*
Y-50743D01*
X-22795Y-52402D01*
X-23024Y-52745D01*
X-23105Y-53150D01*
Y-56959D01*
X-23466Y-57320D01*
X-23720Y-57935D01*
Y-58600D01*
X-23466Y-59215D01*
X-22995Y-59686D01*
X-22380Y-59941D01*
X-21714D01*
X-21099Y-59686D01*
X-20629Y-59215D01*
X-20374Y-58600D01*
Y-57935D01*
X-20629Y-57320D01*
X-20989Y-56959D01*
Y-53588D01*
X-19331Y-51929D01*
X-19102Y-51586D01*
X-19021Y-51181D01*
Y-41215D01*
X-16404D01*
X-16126Y-41631D01*
X-16142Y-41669D01*
Y-42296D01*
X-15902Y-42874D01*
X-15459Y-43317D01*
X-14880Y-43557D01*
X-14254D01*
X-13675Y-43317D01*
X-13232Y-42874D01*
X-12992Y-42296D01*
Y-41669D01*
X-13008Y-41631D01*
X-12730Y-41215D01*
X-3029D01*
X-2624Y-41135D01*
X-2281Y-40905D01*
X622Y-38003D01*
X1147Y-38184D01*
X1338Y-38646D01*
X1809Y-39116D01*
X2424Y-39371D01*
X3090D01*
X3705Y-39116D01*
X4175Y-38646D01*
X4430Y-38031D01*
Y-37365D01*
X4175Y-36750D01*
X3705Y-36279D01*
X3521Y-36203D01*
X3621Y-35703D01*
X8187D01*
X8312Y-36084D01*
X8320Y-36203D01*
X7873Y-36651D01*
X7618Y-37266D01*
Y-37931D01*
X7873Y-38546D01*
X8343Y-39017D01*
X8958Y-39272D01*
X9624D01*
X10239Y-39017D01*
X10710Y-38546D01*
X10965Y-37931D01*
Y-37266D01*
X10710Y-36651D01*
X10263Y-36203D01*
X10271Y-36084D01*
X10395Y-35703D01*
X14567D01*
X14576Y-35702D01*
X14822Y-36162D01*
X7948Y-43037D01*
X1969D01*
X1564Y-43117D01*
X1221Y-43347D01*
X-2283Y-46850D01*
X-2675D01*
X-3254Y-47090D01*
X-3697Y-47533D01*
X-3937Y-48112D01*
Y-48739D01*
X-3697Y-49317D01*
X-3254Y-49760D01*
X-2675Y-50000D01*
X-2049D01*
X-1470Y-49760D01*
X-1027Y-49317D01*
X-787Y-48739D01*
Y-48346D01*
X2407Y-45152D01*
X8386D01*
X8591Y-45111D01*
X8838Y-45572D01*
X7042Y-47368D01*
X3532D01*
X3254Y-47090D01*
X2675Y-46850D01*
X2049D01*
X1470Y-47090D01*
X1027Y-47533D01*
X787Y-48112D01*
Y-48739D01*
X1027Y-49317D01*
X1470Y-49760D01*
X2049Y-50000D01*
X2675D01*
X3254Y-49760D01*
X3532Y-49483D01*
X7480D01*
X7885Y-49402D01*
X8228Y-49173D01*
X25071Y-32331D01*
X25533Y-32522D01*
Y-37145D01*
X24244Y-38433D01*
X24015Y-38776D01*
X23934Y-39181D01*
Y-42239D01*
X24015Y-42643D01*
X24244Y-42987D01*
X25517Y-44260D01*
X25860Y-44489D01*
X26265Y-44570D01*
X27456D01*
X27663Y-45070D01*
X24981Y-47752D01*
X24470D01*
X23855Y-48007D01*
X23674Y-48188D01*
X23002Y-48195D01*
X22995Y-48188D01*
X22380Y-47933D01*
X21714D01*
X21099Y-48188D01*
X20629Y-48658D01*
X20374Y-49273D01*
Y-49939D01*
X20629Y-50554D01*
X21099Y-51025D01*
X21714Y-51279D01*
X22088D01*
X23155Y-52346D01*
X23498Y-52575D01*
X23903Y-52656D01*
X25703D01*
X26108Y-52575D01*
X26451Y-52346D01*
X32933Y-45864D01*
X33476Y-46029D01*
X33581Y-46559D01*
X34085Y-47313D01*
X34839Y-47817D01*
X35728Y-47993D01*
X36508D01*
Y-45669D01*
Y-43345D01*
X35728D01*
X34839Y-43522D01*
X34484Y-43759D01*
X33985Y-43492D01*
Y-39804D01*
X33904Y-39399D01*
X33675Y-39056D01*
X32478Y-37859D01*
Y-30816D01*
X32893Y-30538D01*
X33042Y-30599D01*
X33669D01*
X34247Y-30360D01*
X34690Y-29917D01*
X34930Y-29338D01*
Y-28711D01*
X34690Y-28133D01*
X34247Y-27690D01*
X33669Y-27450D01*
X33042D01*
X32893Y-27512D01*
X32478Y-27234D01*
Y-26640D01*
X32978Y-26306D01*
X33151Y-26378D01*
X33778D01*
X34357Y-26138D01*
X34800Y-25695D01*
X35039Y-25116D01*
Y-24490D01*
X34800Y-23911D01*
X34357Y-23468D01*
X33778Y-23228D01*
X33151D01*
X32978Y-23300D01*
X32478Y-22966D01*
Y-10160D01*
X32397Y-9755D01*
X32168Y-9412D01*
X31977Y-9222D01*
X32107Y-8644D01*
X32444Y-8505D01*
X32915Y-8034D01*
X33169Y-7419D01*
Y-6754D01*
X32915Y-6139D01*
X32444Y-5668D01*
X31829Y-5413D01*
X31163D01*
X30692Y-5609D01*
X30192Y-5372D01*
Y-4724D01*
X30111Y-4320D01*
X29882Y-3977D01*
X28472Y-2567D01*
X28679Y-2067D01*
X29294Y-1812D01*
X29765Y-1342D01*
X30020Y-727D01*
Y-61D01*
X29765Y554D01*
X29404Y915D01*
Y12919D01*
X29324Y13324D01*
X29094Y13667D01*
X19646Y23115D01*
Y23626D01*
X19391Y24240D01*
X18921Y24711D01*
X18306Y24966D01*
X17640D01*
X17025Y24711D01*
X16893Y24579D01*
X16393Y24786D01*
Y33401D01*
X18327Y35335D01*
X18837D01*
X19452Y35589D01*
X19922Y36060D01*
X20177Y36675D01*
Y37341D01*
X19922Y37956D01*
X19452Y38426D01*
X18837Y38681D01*
X18171D01*
X17556Y38426D01*
X17086Y37956D01*
X16831Y37341D01*
Y36830D01*
X14587Y34587D01*
X14448Y34378D01*
X14311Y34345D01*
X13984Y34352D01*
X13892Y34378D01*
X13740Y34606D01*
X-1221Y49567D01*
X-1564Y49796D01*
X-1969Y49877D01*
X-3555D01*
X-3832Y50154D01*
X-4411Y50394D01*
X-5038D01*
X-5616Y50154D01*
X-6059Y49711D01*
X-6193Y49389D01*
X-6693Y49488D01*
Y49526D01*
X-6933Y50105D01*
X-7376Y50548D01*
X-7954Y50787D01*
X-8581D01*
X-9160Y50548D01*
X-9603Y50105D01*
X-9843Y49526D01*
Y48899D01*
X-9603Y48320D01*
X-9160Y47878D01*
X-8581Y47638D01*
X-8189D01*
X9733Y29716D01*
Y24276D01*
X9310Y24160D01*
X9233Y24157D01*
X8777Y24614D01*
X8162Y24868D01*
X7496D01*
X7379Y24820D01*
X6963Y25098D01*
Y26556D01*
X6883Y26961D01*
X6653Y27304D01*
X5544Y28413D01*
X5201Y28643D01*
X4796Y28723D01*
X1109D01*
X704Y28643D01*
X361Y28413D01*
X-6488Y21564D01*
X-6988Y21771D01*
Y22218D01*
X-7243Y22833D01*
X-7714Y23304D01*
X-8329Y23559D01*
X-8994D01*
X-9609Y23304D01*
X-10025Y22888D01*
X-10095Y22833D01*
X-10307Y22832D01*
X-10753Y23277D01*
Y53720D01*
X-10266Y53834D01*
X-9875Y53158D01*
X-9323Y52605D01*
X-8646Y52214D01*
X-8000Y52041D01*
Y54980D01*
X-7000D01*
Y52041D01*
X-6354Y52214D01*
X-5677Y52605D01*
X-5177Y53105D01*
X-5048Y53155D01*
X-4557Y53140D01*
X-4192Y52775D01*
X-3564Y52412D01*
X-2863Y52224D01*
X-2137D01*
X-1436Y52412D01*
X-808Y52775D01*
X-295Y53288D01*
X-250Y53366D01*
X250D01*
X295Y53288D01*
X808Y52775D01*
X1436Y52412D01*
X2137Y52224D01*
X2863D01*
X3564Y52412D01*
X4192Y52775D01*
X4557Y53140D01*
X5048Y53155D01*
X5177Y53105D01*
X5677Y52605D01*
X6354Y52214D01*
X7000Y52041D01*
Y54980D01*
X7500D01*
Y55480D01*
X10439D01*
X10266Y56126D01*
X9875Y56803D01*
X9375Y57303D01*
X9325Y57432D01*
X9340Y57923D01*
X9591Y58174D01*
X19193D01*
X36776Y40590D01*
Y26378D01*
X36914Y25687D01*
X37305Y25101D01*
X42190Y20216D01*
Y-33918D01*
X41774Y-34196D01*
X41671Y-34154D01*
X41006D01*
X40391Y-34408D01*
X39920Y-34879D01*
X39665Y-35494D01*
Y-36160D01*
X39920Y-36775D01*
X40391Y-37245D01*
X41006Y-37500D01*
X41671D01*
X41774Y-37457D01*
X42190Y-37735D01*
Y-46055D01*
X28929Y-59316D01*
X15958D01*
X15722Y-58875D01*
X15765Y-58810D01*
X15961Y-57825D01*
Y-56799D01*
X13386D01*
Y-56299D01*
X12886D01*
Y-52298D01*
X12400Y-52395D01*
X11565Y-52953D01*
X11007Y-53788D01*
X10907Y-54292D01*
X10393Y-54309D01*
X10266Y-53834D01*
X9875Y-53158D01*
X9323Y-52605D01*
X8646Y-52214D01*
X8000Y-52041D01*
Y-54980D01*
X7000D01*
Y-52041D01*
X6354Y-52214D01*
X5677Y-52605D01*
X5177Y-53105D01*
X5048Y-53155D01*
X4557Y-53140D01*
X4192Y-52775D01*
X3564Y-52412D01*
X2863Y-52224D01*
X2137D01*
X1436Y-52412D01*
X808Y-52775D01*
X295Y-53288D01*
X250Y-53366D01*
X-250D01*
X-295Y-53288D01*
X-808Y-52775D01*
X-1436Y-52412D01*
X-2137Y-52224D01*
X-2863D01*
X-3564Y-52412D01*
X-4192Y-52775D01*
X-4557Y-53140D01*
X-5048Y-53155D01*
X-5177Y-53105D01*
X-5677Y-52605D01*
X-6354Y-52214D01*
X-7000Y-52041D01*
Y-54980D01*
X-7500D01*
Y-55480D01*
X-10439D01*
X-10266Y-56126D01*
X-9875Y-56803D01*
X-9375Y-57303D01*
X-9325Y-57432D01*
X-9340Y-57923D01*
X-9705Y-58288D01*
X-10068Y-58917D01*
X-10256Y-59618D01*
Y-60343D01*
X-10068Y-61044D01*
X-9705Y-61673D01*
X-9192Y-62186D01*
X-8564Y-62548D01*
X-7863Y-62736D01*
X-7137D01*
X-6436Y-62548D01*
X-5808Y-62186D01*
X-5295Y-61673D01*
X-5250Y-61595D01*
X-4750D01*
X-4705Y-61673D01*
X-4192Y-62186D01*
X-3564Y-62548D01*
X-2863Y-62736D01*
X-2137D01*
X-1436Y-62548D01*
X-808Y-62186D01*
X-295Y-61673D01*
X-250Y-61595D01*
X250D01*
X295Y-61673D01*
X808Y-62186D01*
X1436Y-62548D01*
X2137Y-62736D01*
X2863D01*
X3564Y-62548D01*
X4192Y-62186D01*
X4705Y-61673D01*
X4750Y-61595D01*
X5250D01*
X5295Y-61673D01*
X5808Y-62186D01*
X6436Y-62548D01*
X7137Y-62736D01*
X7863D01*
X8564Y-62548D01*
X9192Y-62186D01*
X9214Y-62163D01*
X10507D01*
X10743Y-62399D01*
X11329Y-62791D01*
X12020Y-62928D01*
X29677D01*
X30369Y-62791D01*
X30955Y-62399D01*
X37908Y-55446D01*
X38370Y-55638D01*
Y-55799D01*
X40945D01*
X43520D01*
Y-54774D01*
X43324Y-53788D01*
X42766Y-52953D01*
X41930Y-52395D01*
X41641Y-52337D01*
X41496Y-51859D01*
X45273Y-48081D01*
X45665Y-47495D01*
X45802Y-46803D01*
Y20965D01*
X45665Y21656D01*
X45273Y22242D01*
X40389Y27126D01*
Y41339D01*
X40251Y42030D01*
X39860Y42616D01*
X21218Y61258D01*
X20632Y61649D01*
X19941Y61787D01*
X9591D01*
X9192Y62186D01*
X8564Y62548D01*
X7863Y62736D01*
X7137D01*
X6436Y62548D01*
X5808Y62186D01*
X5295Y61673D01*
X5250Y61595D01*
X4750D01*
X4705Y61673D01*
X4192Y62186D01*
X3564Y62548D01*
X2863Y62736D01*
X2137D01*
X1436Y62548D01*
X808Y62186D01*
X295Y61673D01*
X250Y61595D01*
X-250D01*
X-295Y61673D01*
X-808Y62186D01*
X-1436Y62548D01*
X-2137Y62736D01*
X-2863D01*
X-3564Y62548D01*
X-3569Y62545D01*
X-4682Y63658D01*
X-4475Y64158D01*
X51181Y64158D01*
X52032D01*
X53718Y63936D01*
X55361Y63496D01*
X56933Y62845D01*
X58406Y61994D01*
X59756Y60958D01*
X60958Y59756D01*
X61994Y58406D01*
X62845Y56933D01*
X63495Y55361D01*
X63936Y53718D01*
X64158Y52032D01*
X64158Y51181D01*
X64158Y-51181D01*
X64158Y-52032D01*
X63936Y-53718D01*
X63495Y-55361D01*
X62845Y-56933D01*
X61994Y-58406D01*
X60958Y-59756D01*
X59756Y-60958D01*
X58406Y-61994D01*
X56933Y-62845D01*
X55361Y-63496D01*
X53718Y-63936D01*
X52032Y-64158D01*
X51181D01*
X-51181Y-64158D01*
X-52032D01*
X-53718Y-63936D01*
X-55361Y-63496D01*
X-56933Y-62845D01*
X-58406Y-61994D01*
X-59756Y-60958D01*
X-60958Y-59756D01*
X-61994Y-58406D01*
X-62845Y-56933D01*
X-63496Y-55361D01*
X-63936Y-53718D01*
X-64158Y-52032D01*
X-64158Y-51181D01*
X-64158Y51181D01*
Y52032D01*
X-63936Y53718D01*
X-63496Y55361D01*
X-62845Y56933D01*
X-61994Y58406D01*
X-60958Y59756D01*
X-59756Y60958D01*
X-58406Y61994D01*
X-56933Y62845D01*
X-55361Y63495D01*
X-53718Y63936D01*
X-52032Y64158D01*
X-51181Y64158D01*
X-10130D01*
D02*
G37*
%LPC*%
G36*
X18443Y14665D02*
X17777D01*
X17162Y14411D01*
X16692Y13940D01*
X16437Y13325D01*
Y12659D01*
X16692Y12044D01*
X17162Y11574D01*
X17777Y11319D01*
X18443D01*
X19058Y11574D01*
X19529Y12044D01*
X19783Y12659D01*
Y13325D01*
X19529Y13940D01*
X19058Y14411D01*
X18443Y14665D01*
D02*
G37*
G36*
X-12266Y-29035D02*
X-12931D01*
X-13546Y-29290D01*
X-14017Y-29761D01*
X-14272Y-30376D01*
Y-31041D01*
X-14017Y-31657D01*
X-13546Y-32127D01*
X-12931Y-32382D01*
X-12266D01*
X-11651Y-32127D01*
X-11180Y-31657D01*
X-10925Y-31041D01*
Y-30376D01*
X-11180Y-29761D01*
X-11651Y-29290D01*
X-12266Y-29035D01*
D02*
G37*
G36*
X-4785Y-31398D02*
X-5451D01*
X-6066Y-31652D01*
X-6537Y-32123D01*
X-6791Y-32738D01*
Y-33404D01*
X-6537Y-34019D01*
X-6066Y-34489D01*
X-5451Y-34744D01*
X-4785D01*
X-4170Y-34489D01*
X-3700Y-34019D01*
X-3445Y-33404D01*
Y-32738D01*
X-3700Y-32123D01*
X-4170Y-31652D01*
X-4785Y-31398D01*
D02*
G37*
G36*
X10439Y54480D02*
X8000D01*
Y52041D01*
X8646Y52214D01*
X9323Y52605D01*
X9875Y53158D01*
X10266Y53834D01*
X10439Y54480D01*
D02*
G37*
G36*
X-30789Y51575D02*
X-31416D01*
X-31994Y51335D01*
X-32437Y50892D01*
X-32677Y50313D01*
Y49687D01*
X-32437Y49108D01*
X-31994Y48665D01*
X-31416Y48425D01*
X-30789D01*
X-30210Y48665D01*
X-29767Y49108D01*
X-29528Y49687D01*
Y50313D01*
X-29767Y50892D01*
X-30210Y51335D01*
X-30789Y51575D01*
D02*
G37*
G36*
X-34726D02*
X-35353D01*
X-35931Y51335D01*
X-36374Y50892D01*
X-36614Y50313D01*
Y49687D01*
X-36374Y49108D01*
X-35931Y48665D01*
X-35353Y48425D01*
X-34726D01*
X-34147Y48665D01*
X-33704Y49108D01*
X-33465Y49687D01*
Y50313D01*
X-33704Y50892D01*
X-34147Y51335D01*
X-34726Y51575D01*
D02*
G37*
G36*
X51855Y56299D02*
X50507D01*
X49206Y55950D01*
X48039Y55277D01*
X47086Y54324D01*
X46412Y53157D01*
X46063Y51855D01*
Y50507D01*
X46412Y49206D01*
X47086Y48039D01*
X48039Y47086D01*
X49206Y46412D01*
X50507Y46063D01*
X51855D01*
X53157Y46412D01*
X54324Y47086D01*
X55277Y48039D01*
X55950Y49206D01*
X56299Y50507D01*
Y51855D01*
X55950Y53157D01*
X55277Y54324D01*
X54324Y55277D01*
X53157Y55950D01*
X51855Y56299D01*
D02*
G37*
G36*
X-50507D02*
X-51855D01*
X-53157Y55950D01*
X-54324Y55277D01*
X-55277Y54324D01*
X-55950Y53157D01*
X-56299Y51855D01*
Y50507D01*
X-55950Y49206D01*
X-55277Y48039D01*
X-54324Y47086D01*
X-53157Y46412D01*
X-51855Y46063D01*
X-50507D01*
X-49206Y46412D01*
X-48039Y47086D01*
X-47086Y48039D01*
X-46412Y49206D01*
X-46063Y50507D01*
Y51855D01*
X-46412Y53157D01*
X-47086Y54324D01*
X-48039Y55277D01*
X-49206Y55950D01*
X-50507Y56299D01*
D02*
G37*
G36*
X31681Y42864D02*
X31016D01*
X30401Y42609D01*
X30065Y42274D01*
X29755Y42188D01*
X29445Y42274D01*
X29109Y42609D01*
X28494Y42864D01*
X27829D01*
X27214Y42609D01*
X26878Y42274D01*
X26568Y42188D01*
X26258Y42274D01*
X25922Y42609D01*
X25307Y42864D01*
X24642D01*
X24027Y42609D01*
X23556Y42139D01*
X23301Y41524D01*
Y40858D01*
X23556Y40243D01*
X24027Y39772D01*
X24642Y39518D01*
X25307D01*
X25922Y39772D01*
X26258Y40108D01*
X26568Y40194D01*
X26878Y40108D01*
X27214Y39772D01*
X27829Y39518D01*
X28494D01*
X29109Y39772D01*
X29445Y40108D01*
X29755Y40194D01*
X30065Y40108D01*
X30401Y39772D01*
X31016Y39518D01*
X31681D01*
X32296Y39772D01*
X32767Y40243D01*
X33022Y40858D01*
Y41524D01*
X32767Y42139D01*
X32296Y42609D01*
X31681Y42864D01*
D02*
G37*
G36*
X-19155Y43012D02*
X-19821D01*
X-20436Y42757D01*
X-20907Y42286D01*
X-21161Y41671D01*
Y41006D01*
X-20907Y40391D01*
X-20436Y39920D01*
X-19821Y39665D01*
X-19155D01*
X-18540Y39920D01*
X-18070Y40391D01*
X-17815Y41006D01*
Y41671D01*
X-18070Y42286D01*
X-18540Y42757D01*
X-19155Y43012D01*
D02*
G37*
G36*
X-28821Y41102D02*
X-29447D01*
X-30026Y40863D01*
X-30469Y40420D01*
X-30709Y39841D01*
Y39214D01*
X-30469Y38636D01*
X-30026Y38192D01*
X-29447Y37953D01*
X-28821D01*
X-28242Y38192D01*
X-27799Y38636D01*
X-27559Y39214D01*
Y39841D01*
X-27799Y40420D01*
X-28242Y40863D01*
X-28821Y41102D01*
D02*
G37*
G36*
X48364Y35138D02*
X47699D01*
X47084Y34883D01*
X46850Y34650D01*
X46617Y34883D01*
X46002Y35138D01*
X45336D01*
X44721Y34883D01*
X44251Y34412D01*
X43996Y33797D01*
Y33132D01*
X44251Y32517D01*
X44721Y32046D01*
X45336Y31791D01*
X46002D01*
X46617Y32046D01*
X46850Y32279D01*
X47084Y32046D01*
X47699Y31791D01*
X48364D01*
X48979Y32046D01*
X49450Y32517D01*
X49705Y33132D01*
Y33797D01*
X49450Y34412D01*
X48979Y34883D01*
X48364Y35138D01*
D02*
G37*
G36*
X-3604Y33563D02*
X-4270D01*
X-4885Y33308D01*
X-5194Y32999D01*
X-5512Y32891D01*
X-5830Y32999D01*
X-6139Y33308D01*
X-6754Y33563D01*
X-7419D01*
X-8034Y33308D01*
X-8505Y32838D01*
X-8760Y32223D01*
Y31557D01*
X-8505Y30942D01*
X-8196Y30633D01*
X-8088Y30315D01*
X-8196Y29997D01*
X-8505Y29688D01*
X-8760Y29073D01*
Y28407D01*
X-8505Y27792D01*
X-8034Y27322D01*
X-7419Y27067D01*
X-6754D01*
X-6139Y27322D01*
X-5830Y27631D01*
X-5512Y27739D01*
X-5194Y27631D01*
X-4885Y27322D01*
X-4270Y27067D01*
X-3604D01*
X-2989Y27322D01*
X-2519Y27792D01*
X-2264Y28407D01*
Y29073D01*
X-2519Y29688D01*
X-2828Y29997D01*
X-2936Y30315D01*
X-2828Y30633D01*
X-2519Y30942D01*
X-2264Y31557D01*
Y32223D01*
X-2519Y32838D01*
X-2989Y33308D01*
X-3604Y33563D01*
D02*
G37*
G36*
X-15021Y52067D02*
X-15687D01*
X-16302Y51812D01*
X-16773Y51341D01*
X-17028Y50726D01*
Y50061D01*
X-16773Y49446D01*
X-16412Y49085D01*
Y36992D01*
X-22800Y30604D01*
X-22960Y30364D01*
X-23292Y30228D01*
X-23552Y30196D01*
X-24077Y30413D01*
X-24742D01*
X-25357Y30159D01*
X-25828Y29688D01*
X-26083Y29073D01*
Y28407D01*
X-25828Y27792D01*
X-25357Y27322D01*
X-24742Y27067D01*
X-24077D01*
X-23610Y27260D01*
X-23110Y27020D01*
Y13389D01*
X-23583Y12917D01*
X-23812Y12573D01*
X-23892Y12169D01*
Y10540D01*
X-23812Y10135D01*
X-23709Y9982D01*
X-23725Y9944D01*
Y9278D01*
X-23471Y8663D01*
X-23000Y8193D01*
X-22385Y7938D01*
X-21719D01*
X-21104Y8193D01*
X-20634Y8663D01*
X-20379Y9278D01*
Y9944D01*
X-20634Y10559D01*
X-21104Y11030D01*
X-21683Y11269D01*
X-21721Y11500D01*
X-21723Y11784D01*
X-21304Y12203D01*
X-21075Y12547D01*
X-20994Y12951D01*
Y16346D01*
X-20494Y16553D01*
X-20239Y16298D01*
X-19624Y16043D01*
X-18959D01*
X-18343Y16298D01*
X-17873Y16769D01*
X-17618Y17384D01*
Y18049D01*
X-17873Y18664D01*
X-18343Y19135D01*
X-18959Y19390D01*
X-19624D01*
X-20239Y19135D01*
X-20494Y18880D01*
X-20994Y19087D01*
Y29418D01*
X-14606Y35806D01*
X-14377Y36149D01*
X-14297Y36554D01*
Y49085D01*
X-13936Y49446D01*
X-13681Y50061D01*
Y50726D01*
X-13936Y51341D01*
X-14406Y51812D01*
X-15021Y52067D01*
D02*
G37*
G36*
X-28801Y30413D02*
X-29467D01*
X-30082Y30159D01*
X-30552Y29688D01*
X-30807Y29073D01*
Y28407D01*
X-30552Y27792D01*
X-30082Y27322D01*
X-29467Y27067D01*
X-28801D01*
X-28186Y27322D01*
X-27715Y27792D01*
X-27461Y28407D01*
Y29073D01*
X-27715Y29688D01*
X-28186Y30159D01*
X-28801Y30413D01*
D02*
G37*
G36*
X-15765Y17071D02*
X-16431D01*
X-17046Y16817D01*
X-17516Y16346D01*
X-17771Y15731D01*
Y15065D01*
X-17516Y14450D01*
X-17046Y13980D01*
X-16431Y13725D01*
X-15765D01*
X-15150Y13980D01*
X-14679Y14450D01*
X-14425Y15065D01*
Y15731D01*
X-14679Y16346D01*
X-15150Y16817D01*
X-15765Y17071D01*
D02*
G37*
G36*
X35353Y17717D02*
X34726D01*
X34147Y17477D01*
X33704Y17034D01*
X33465Y16455D01*
Y15829D01*
X33704Y15250D01*
X34147Y14807D01*
X34726Y14567D01*
X35353D01*
X35362Y14571D01*
X35827Y14222D01*
Y13860D01*
X36066Y13281D01*
X36509Y12838D01*
X37088Y12598D01*
X37715D01*
X38294Y12838D01*
X38737Y13281D01*
X38976Y13860D01*
Y14487D01*
X38737Y15065D01*
X38294Y15508D01*
X37715Y15748D01*
X37088D01*
X37079Y15744D01*
X36614Y16093D01*
Y16455D01*
X36374Y17034D01*
X35931Y17477D01*
X35353Y17717D01*
D02*
G37*
G36*
X-27049Y5118D02*
X-27676D01*
X-28254Y4878D01*
X-28697Y4435D01*
X-28937Y3857D01*
Y3230D01*
X-28697Y2651D01*
X-28254Y2208D01*
X-27676Y1969D01*
X-27049D01*
X-26470Y2208D01*
X-26027Y2651D01*
X-25787Y3230D01*
Y3857D01*
X-26027Y4435D01*
X-26470Y4878D01*
X-27049Y5118D01*
D02*
G37*
G36*
X-32758Y6693D02*
X-33384D01*
X-33963Y6453D01*
X-34406Y6010D01*
X-34646Y5431D01*
Y4805D01*
X-34406Y4226D01*
X-34314Y4134D01*
X-34406Y4042D01*
X-34646Y3463D01*
Y2836D01*
X-34406Y2258D01*
X-33963Y1815D01*
X-33384Y1575D01*
X-32758D01*
X-32179Y1815D01*
X-31736Y2258D01*
X-31496Y2836D01*
Y3463D01*
X-31736Y4042D01*
X-31828Y4134D01*
X-31736Y4226D01*
X-31496Y4805D01*
Y5431D01*
X-31736Y6010D01*
X-32179Y6453D01*
X-32758Y6693D01*
D02*
G37*
G36*
X-28348Y394D02*
X-28975D01*
X-29553Y154D01*
X-29996Y-289D01*
X-30236Y-868D01*
Y-1494D01*
X-29996Y-2073D01*
X-29553Y-2516D01*
X-28975Y-2756D01*
X-28348D01*
X-27769Y-2516D01*
X-27326Y-2073D01*
X-27087Y-1494D01*
Y-868D01*
X-27326Y-289D01*
X-27769Y154D01*
X-28348Y394D01*
D02*
G37*
G36*
X39290Y-394D02*
X38663D01*
X38084Y-634D01*
X37641Y-1076D01*
X37402Y-1655D01*
Y-2282D01*
X37641Y-2860D01*
X38084Y-3303D01*
X38663Y-3543D01*
X39290D01*
X39868Y-3303D01*
X40311Y-2860D01*
X40551Y-2282D01*
Y-1655D01*
X40311Y-1076D01*
X39868Y-634D01*
X39290Y-394D01*
D02*
G37*
G36*
X-44962Y-11811D02*
X-45589D01*
X-46168Y-12051D01*
X-46260Y-12143D01*
X-46352Y-12051D01*
X-46931Y-11811D01*
X-47557D01*
X-48136Y-12051D01*
X-48579Y-12494D01*
X-48819Y-13073D01*
Y-13699D01*
X-48579Y-14278D01*
X-48136Y-14721D01*
X-47557Y-14961D01*
X-46931D01*
X-46352Y-14721D01*
X-46260Y-14629D01*
X-46168Y-14721D01*
X-45589Y-14961D01*
X-44962D01*
X-44383Y-14721D01*
X-43940Y-14278D01*
X-43701Y-13699D01*
Y-13073D01*
X-43940Y-12494D01*
X-44383Y-12051D01*
X-44962Y-11811D01*
D02*
G37*
G36*
X-27620Y-8169D02*
X-28286D01*
X-28901Y-8424D01*
X-29371Y-8895D01*
X-29626Y-9510D01*
Y-10175D01*
X-29371Y-10790D01*
X-29138Y-11024D01*
X-29371Y-11257D01*
X-29626Y-11872D01*
Y-12538D01*
X-29371Y-13152D01*
X-28901Y-13623D01*
X-28286Y-13878D01*
X-27620D01*
X-27005Y-13623D01*
X-26534Y-13152D01*
X-26346Y-12697D01*
X-26045D01*
X-25430Y-12442D01*
X-24960Y-11971D01*
X-24705Y-11356D01*
Y-10691D01*
X-24960Y-10076D01*
X-25430Y-9605D01*
X-26045Y-9350D01*
X-26346D01*
X-26534Y-8895D01*
X-27005Y-8424D01*
X-27620Y-8169D01*
D02*
G37*
G36*
X18793Y-13244D02*
X18127D01*
X17512Y-13498D01*
X17042Y-13969D01*
X16787Y-14584D01*
Y-15250D01*
X17042Y-15865D01*
X17512Y-16335D01*
X18127Y-16590D01*
X18793D01*
X19408Y-16335D01*
X19879Y-15865D01*
X20133Y-15250D01*
Y-14584D01*
X19879Y-13969D01*
X19408Y-13498D01*
X18793Y-13244D01*
D02*
G37*
G36*
X51120Y-25098D02*
X50455D01*
X49840Y-25353D01*
X49369Y-25824D01*
X49114Y-26439D01*
Y-27104D01*
X49369Y-27720D01*
X49840Y-28190D01*
X50455Y-28445D01*
X51120D01*
X51735Y-28190D01*
X52206Y-27720D01*
X52461Y-27104D01*
Y-26439D01*
X52206Y-25824D01*
X51735Y-25353D01*
X51120Y-25098D01*
D02*
G37*
G36*
X38287Y-43345D02*
X37508D01*
Y-45169D01*
X40512D01*
X40435Y-44780D01*
X39931Y-44026D01*
X39177Y-43522D01*
X38287Y-43345D01*
D02*
G37*
G36*
X18602D02*
X17823D01*
Y-45169D01*
X20827D01*
X20750Y-44780D01*
X20246Y-44026D01*
X19492Y-43522D01*
X18602Y-43345D01*
D02*
G37*
G36*
X16823D02*
X16043D01*
X15154Y-43522D01*
X14400Y-44026D01*
X13896Y-44780D01*
X13819Y-45169D01*
X16823D01*
Y-43345D01*
D02*
G37*
G36*
X40512Y-46169D02*
X37508D01*
Y-47993D01*
X38287D01*
X39177Y-47817D01*
X39931Y-47313D01*
X40435Y-46559D01*
X40512Y-46169D01*
D02*
G37*
G36*
X20827D02*
X17823D01*
Y-47993D01*
X18602D01*
X19492Y-47817D01*
X20246Y-47313D01*
X20750Y-46559D01*
X20827Y-46169D01*
D02*
G37*
G36*
X16823D02*
X13819D01*
X13896Y-46559D01*
X14400Y-47313D01*
X15154Y-47817D01*
X16043Y-47993D01*
X16823D01*
Y-46169D01*
D02*
G37*
G36*
X-8000Y-52041D02*
X-8646Y-52214D01*
X-9323Y-52605D01*
X-9875Y-53158D01*
X-10266Y-53834D01*
X-10439Y-54480D01*
X-8000D01*
Y-52041D01*
D02*
G37*
G36*
X13886Y-52298D02*
Y-55799D01*
X15961D01*
Y-54774D01*
X15765Y-53788D01*
X15207Y-52953D01*
X14371Y-52395D01*
X13886Y-52298D01*
D02*
G37*
G36*
X51855Y-46063D02*
X50507D01*
X49206Y-46412D01*
X48039Y-47086D01*
X47086Y-48039D01*
X46412Y-49206D01*
X46063Y-50507D01*
Y-51855D01*
X46412Y-53157D01*
X47086Y-54324D01*
X48039Y-55277D01*
X49206Y-55950D01*
X50507Y-56299D01*
X51855D01*
X53157Y-55950D01*
X54324Y-55277D01*
X55277Y-54324D01*
X55950Y-53157D01*
X56299Y-51855D01*
Y-50507D01*
X55950Y-49206D01*
X55277Y-48039D01*
X54324Y-47086D01*
X53157Y-46412D01*
X51855Y-46063D01*
D02*
G37*
G36*
X-50507D02*
X-51855D01*
X-53157Y-46412D01*
X-54324Y-47086D01*
X-55277Y-48039D01*
X-55950Y-49206D01*
X-56299Y-50507D01*
Y-51855D01*
X-55950Y-53157D01*
X-55277Y-54324D01*
X-54324Y-55277D01*
X-53157Y-55950D01*
X-51855Y-56299D01*
X-50507D01*
X-49206Y-55950D01*
X-48039Y-55277D01*
X-47086Y-54324D01*
X-46412Y-53157D01*
X-46063Y-51855D01*
Y-50507D01*
X-46412Y-49206D01*
X-47086Y-48039D01*
X-48039Y-47086D01*
X-49206Y-46412D01*
X-50507Y-46063D01*
D02*
G37*
G36*
X43520Y-56799D02*
X41445D01*
Y-60300D01*
X41930Y-60204D01*
X42766Y-59646D01*
X43324Y-58810D01*
X43520Y-57825D01*
Y-56799D01*
D02*
G37*
G36*
X40445D02*
X38370D01*
Y-57825D01*
X38566Y-58810D01*
X39124Y-59646D01*
X39959Y-60204D01*
X40445Y-60300D01*
Y-56799D01*
D02*
G37*
%LPD*%
D17*
X15335Y18485D02*
Y33839D01*
X18504Y37008D01*
X4796Y27665D02*
X5906Y26556D01*
Y18504D02*
X9055Y15354D01*
X5906Y18504D02*
Y26556D01*
X9624Y19390D02*
X10791Y20557D01*
X9624Y19057D02*
Y19390D01*
X10791Y20557D02*
Y30154D01*
X12115Y23066D02*
X13037Y22144D01*
Y18907D02*
Y22144D01*
X12115Y23066D02*
Y25959D01*
X9055Y15354D02*
X12205D01*
X15335Y18485D01*
X12115Y25959D02*
X12992Y26836D01*
Y33858D01*
X-10018Y18898D02*
X-9268Y18147D01*
X-12205Y18898D02*
X-10018D01*
X-9268Y18147D02*
X-8409D01*
X1109Y27665D01*
X27165Y-13133D02*
X27953Y-13921D01*
X27165Y-13133D02*
Y-12992D01*
X27953Y-39764D02*
Y-13921D01*
X29876Y-38574D02*
Y-12758D01*
X27586Y-10468D02*
X29876Y-12758D01*
Y-38574D02*
X31639Y-40337D01*
X26591Y-37583D02*
Y-16623D01*
X25545Y-15577D02*
X26591Y-16623D01*
X25545Y-15577D02*
Y-15354D01*
X-7087Y-19291D02*
X20903D01*
X22026Y-20415D02*
X22093D01*
X20903Y-19291D02*
X22026Y-20415D01*
X22047Y-27165D02*
Y-22999D01*
X22022Y-22973D02*
X22047Y-22999D01*
X14567Y-34646D02*
X22047Y-27165D01*
X21154Y-3437D02*
X22047Y-4331D01*
X21154Y-3437D02*
Y-681D01*
X394Y20079D02*
X21154Y-681D01*
X22047Y-17399D02*
Y-4331D01*
X-26199Y-33643D02*
X-23488Y-36355D01*
X-26199Y-33643D02*
Y-25769D01*
X-24803Y-21654D02*
X-9449D01*
X-28740Y-32677D02*
Y-25591D01*
X-24803Y-21654D01*
X-28831Y-32768D02*
X-28740Y-32677D01*
X-28921Y-59229D02*
X-28831Y-59138D01*
Y-32768D01*
X-23488Y-36355D02*
X-21734D01*
X-20079Y-40157D02*
Y-38010D01*
X-21734Y-36355D02*
X-20079Y-38010D01*
X-9449Y-21654D02*
X-7087Y-19291D01*
X2483Y-34646D02*
X14567D01*
X-3029Y-40157D02*
X2483Y-34646D01*
X24409Y-1575D02*
X25984D01*
X29134Y-4724D01*
Y-7874D02*
Y-4724D01*
X31420Y-38297D02*
Y-10160D01*
X29134Y-7874D02*
X31420Y-10160D01*
X32927Y-44375D02*
Y-39804D01*
X25703Y-51598D02*
X32927Y-44375D01*
X31420Y-38297D02*
X32927Y-39804D01*
X31639Y-42589D02*
Y-40337D01*
X24803Y-49425D02*
X31639Y-42589D01*
X27313Y-40404D02*
X27953Y-39764D01*
X24992Y-39181D02*
X26591Y-37583D01*
X25303Y-30602D02*
Y-18127D01*
X7480Y-48425D02*
X25303Y-30602D01*
X23622Y-16446D02*
X25303Y-18127D01*
X8386Y-44094D02*
X24016Y-28465D01*
X22047Y-17399D02*
X24016Y-19367D01*
Y-28465D02*
Y-19367D01*
X394Y20079D02*
Y24016D01*
X22441Y-2756D02*
Y0D01*
Y-2756D02*
X23622Y-3937D01*
X3937Y18504D02*
X22441Y0D01*
X23622Y-16446D02*
Y-3937D01*
X-22835Y12169D02*
X-22052Y12951D01*
Y9611D02*
Y9757D01*
X-22835Y10540D02*
X-22052Y9757D01*
X-22835Y10540D02*
Y12169D01*
X-22052Y12951D02*
Y29856D01*
X-15354Y36554D01*
X-20079Y-40157D02*
X-3029D01*
X3937Y18504D02*
Y25591D01*
X29568Y-42009D02*
Y-41281D01*
X28065Y-43512D02*
X29568Y-42009D01*
X24992Y-42239D02*
Y-39181D01*
X27165Y-41339D02*
X27313Y-41191D01*
Y-40404D01*
X23903Y-51598D02*
X25703D01*
X29568Y-41281D02*
X29716Y-41133D01*
X26265Y-43512D02*
X28065D01*
X24992Y-42239D02*
X26265Y-43512D01*
X22047Y-49743D02*
Y-49606D01*
Y-49743D02*
X23903Y-51598D01*
X1969Y-44094D02*
X8386D01*
X-2362Y-48425D02*
X1969Y-44094D01*
X2362Y-48425D02*
X7480D01*
X-1969Y48819D02*
X12992Y33858D01*
X-8268Y49213D02*
X10791Y30154D01*
X-4724Y48819D02*
X-1969D01*
X17973Y23293D02*
X28346Y12919D01*
X-24598Y-19480D02*
X-18110D01*
X-34172Y-29054D02*
X-24598Y-19480D01*
X-34172Y-52067D02*
Y-29054D01*
X-20079Y-51181D02*
Y-40157D01*
X-22047Y-53150D02*
X-20079Y-51181D01*
X-8849Y63236D02*
X-5756D01*
X-2500Y59980D01*
X-11811Y60274D02*
X-8849Y63236D01*
X-11811Y21654D02*
Y60274D01*
X1109Y27665D02*
X4796D01*
X-6496Y-24409D02*
X1575Y-32480D01*
X-9055Y-24409D02*
X-6496D01*
X-15354Y36554D02*
Y50394D01*
X28346Y-394D02*
Y12919D01*
X-22047Y-58268D02*
Y-53150D01*
X-51181Y64961D02*
X-52164Y64925D01*
X-53142Y64820D01*
X-54110Y64646D01*
X-55063Y64403D01*
X-55997Y64092D01*
X-56905Y63715D01*
X-57785Y63275D01*
X-58631Y62773D01*
X-59439Y62212D01*
X-60205Y61595D01*
X-60925Y60925D01*
X-61595Y60205D01*
X-62212Y59439D01*
X-62773Y58631D01*
X-63275Y57785D01*
X-63715Y56905D01*
X-64092Y55997D01*
X-64403Y55063D01*
X-64646Y54110D01*
X-64820Y53142D01*
X-64925Y52164D01*
X-64961Y51181D01*
X64961D02*
X64925Y52164D01*
X64820Y53142D01*
X64646Y54110D01*
X64403Y55063D01*
X64092Y55997D01*
X63715Y56905D01*
X63275Y57785D01*
X62773Y58631D01*
X62212Y59439D01*
X61595Y60205D01*
X60925Y60925D01*
X60205Y61595D01*
X59439Y62212D01*
X58631Y62773D01*
X57785Y63275D01*
X56905Y63715D01*
X55997Y64092D01*
X55063Y64403D01*
X54110Y64646D01*
X53142Y64820D01*
X52164Y64925D01*
X51181Y64961D01*
Y-64961D02*
X52164Y-64925D01*
X53142Y-64820D01*
X54110Y-64646D01*
X55063Y-64403D01*
X55997Y-64092D01*
X56905Y-63715D01*
X57785Y-63275D01*
X58631Y-62773D01*
X59439Y-62212D01*
X60205Y-61595D01*
X60925Y-60925D01*
X61595Y-60205D01*
X62212Y-59439D01*
X62773Y-58631D01*
X63275Y-57785D01*
X63715Y-56905D01*
X64092Y-55997D01*
X64403Y-55063D01*
X64646Y-54110D01*
X64820Y-53142D01*
X64925Y-52164D01*
X64961Y-51181D01*
X-64961D02*
X-64925Y-52164D01*
X-64820Y-53142D01*
X-64646Y-54110D01*
X-64403Y-55063D01*
X-64092Y-55997D01*
X-63715Y-56905D01*
X-63275Y-57785D01*
X-62773Y-58631D01*
X-62212Y-59439D01*
X-61595Y-60205D01*
X-60925Y-60925D01*
X-60205Y-61595D01*
X-59439Y-62212D01*
X-58631Y-62773D01*
X-57785Y-63275D01*
X-56905Y-63715D01*
X-55997Y-64092D01*
X-55063Y-64403D01*
X-54110Y-64646D01*
X-53142Y-64820D01*
X-52164Y-64925D01*
X-51181Y-64961D01*
Y-64961D02*
X51181D01*
X-64961Y-51181D02*
Y51181D01*
X64961Y-51181D02*
Y51181D01*
X-51181Y64961D02*
X51181D01*
D67*
X17323Y-45669D02*
D03*
X37008D02*
D03*
D68*
X13386Y-56299D02*
D03*
X40945D02*
D03*
D69*
X7500Y54980D02*
D03*
Y59980D02*
D03*
X-7500Y54980D02*
D03*
X-2500Y59980D02*
D03*
X7500Y-59980D02*
D03*
Y-54980D02*
D03*
X-7500D02*
D03*
D71*
X-9449Y-3732D02*
D03*
X9843Y-3543D02*
D03*
X13386Y0D02*
D03*
X4331Y-10630D02*
D03*
X-7480Y6693D02*
D03*
X7087Y0D02*
D03*
X-6693D02*
D03*
X38386Y50394D02*
D03*
X18504Y37008D02*
D03*
X9624Y19057D02*
D03*
X13037Y18907D02*
D03*
X-12205Y18898D02*
D03*
X27586Y-10468D02*
D03*
X27165Y-12992D02*
D03*
X25545Y-15354D02*
D03*
X22093Y-20415D02*
D03*
X22022Y-22973D02*
D03*
X-26199Y-25769D02*
D03*
X-28740Y-32677D02*
D03*
X8268Y-29134D02*
D03*
X12598Y-24016D02*
D03*
X50787Y-22835D02*
D03*
X-40945Y24803D02*
D03*
X-18460Y-12248D02*
D03*
X-50787Y-21654D02*
D03*
X29716Y-41133D02*
D03*
X27165Y-41339D02*
D03*
X22047Y-49606D02*
D03*
X24803Y-49425D02*
D03*
X-12644Y-33858D02*
D03*
X17973Y23293D02*
D03*
X24409Y-1575D02*
D03*
X-28921Y-59229D02*
D03*
X-18110Y-19480D02*
D03*
X26772Y18504D02*
D03*
X36220Y-2756D02*
D03*
X1181Y32283D02*
D03*
X53543Y0D02*
D03*
X-9055Y-24409D02*
D03*
X-34172Y-52067D02*
D03*
X-15354Y50394D02*
D03*
X394Y24016D02*
D03*
X3937Y25591D02*
D03*
X28346Y-394D02*
D03*
X-22052Y9611D02*
D03*
X-11811Y21654D02*
D03*
X23622Y37008D02*
D03*
X-14161Y-16436D02*
D03*
X0Y-12992D02*
D03*
X-22047Y-58268D02*
D03*
X1575Y-32480D02*
D03*
X-12992Y0D02*
D03*
X0Y13386D02*
D03*
Y0D02*
D03*
X-14016Y-26378D02*
D03*
D72*
X-38583Y41732D02*
D03*
Y-14173D02*
D03*
X-4724Y48819D02*
D03*
X-8268Y49213D02*
D03*
X2362Y-48425D02*
D03*
X-2362D02*
D03*
D73*
X29677Y-61122D02*
X43996Y-46803D01*
Y20965D01*
X38583Y26378D02*
X43996Y20965D01*
X38583Y26378D02*
Y41339D01*
X19941Y59980D02*
X38583Y41339D01*
X7877Y-60357D02*
X11255D01*
X12020Y-61122D01*
X29677D01*
X7500Y-59980D02*
X7877Y-60357D01*
X7500Y59980D02*
X19941D01*
M02*
