M48
;Layer_Color=9474304
;FILE_FORMAT=2:4
INCH,TZ
;TYPE=PLATED
T1F00S00C0.0079
T4F00S00C0.0256
T5F00S00C0.0866
%
T01
X-2892Y-5923
X-2205Y-5827
X-3417Y-5207
X2205Y-4961
X2480Y-4943
X2717Y-4134
X2972Y-4113
X3336Y-2902
X3346Y-2480
X2202Y-2297
X2209Y-2041
X2555Y-1535
X2717Y-1299
X2759Y-1047
X2677Y-551
X3150Y-709
X3622Y-276
X3898Y-197
X2835Y-39
X2441Y-157
X1339Y0
X709
X984Y-354
X433Y-1063
X0Y-1299
Y0
X-669
X-1299
X-945Y-373
X-748Y669
X0Y1339
X39Y2402
X394Y2559
X783Y2320
X962Y1906
X1304Y1891
X1797Y2329
X1811Y1299
X2334Y1159
X2362Y1417
X2548Y1019
X2677Y1850
X3504Y1614
X3740Y1417
X4567Y3346
X4803
X3135Y4119
X2816
X2497
X2362Y3701
X1850
X118Y3228
X-394Y3189
X-709
Y2874
X-394
X-866Y2189
X-1181Y2165
X-1220Y1890
X-1610Y1540
X-1929Y1772
X-2205Y961
X-2736Y354
X-2866Y-118
X-3307Y315
Y512
X-2795Y-984
Y-1220
X-2638Y-1102
X-1846Y-1225
X-1811Y-1948
X-1850Y-2441
X-1748Y-2638
X-1402
X-1260Y-3071
X-1264Y-3386
X-1732Y-3701
X-2253Y-3828
X-1457Y-4198
X-512Y-3307
X157Y-3248
X276Y-3770
X929Y-3760
X827Y-2913
X1260Y-2402
X1846Y-1492
X-1416Y-1644
X-1177Y-1894
X-906Y-2441
X-2620Y-2577
X-2874Y-3268
X-3110Y-4724
X-236Y-4843
X236
X4134Y-3583
X5079Y-2677
Y-2283
X5354Y0
X3839Y5039
X-472Y4882
X-827Y4921
X-1535Y5039
X-1949Y4134
X-2913Y3953
Y2874
X-2441
X-4094Y2480
X-3858Y4173
X-3504Y5000
X-3110
X-3858Y-1417
X-4528Y-1339
X-4724
X-5079Y-2165
T04
X-750Y-5998
X-250
X250
X750
Y-5498
X250
X-250
X-750
Y5498
X-250
X250
X750
Y5998
X250
X-250
X-750
T05
X-5118Y-5118
X5118
Y5118
X-5118
M30
