G04*
G04 #@! TF.GenerationSoftware,Altium Limited,Altium Designer,22.10.1 (41)*
G04*
G04 Layer_Physical_Order=4*
G04 Layer_Color=16711680*
%FSLAX25Y25*%
%MOIN*%
G70*
G04*
G04 #@! TF.SameCoordinates,BA180857-5533-48D4-BC33-98CDBDEDE110*
G04*
G04*
G04 #@! TF.FilePolarity,Positive*
G04*
G01*
G75*
%ADD17C,0.00500*%
%ADD45R,0.06102X0.02362*%
%ADD46R,0.07087X0.04724*%
%ADD49R,0.02362X0.02520*%
%ADD50R,0.02362X0.02953*%
%ADD52R,0.05512X0.05118*%
%ADD55R,0.02520X0.02362*%
%ADD62R,0.03543X0.03937*%
%ADD66C,0.01000*%
%ADD67O,0.05118X0.02559*%
%ADD68O,0.03051X0.06102*%
%ADD69C,0.03937*%
%ADD70C,0.06000*%
%ADD71C,0.01772*%
%ADD72C,0.01575*%
%ADD74R,0.03740X0.03347*%
%ADD75R,0.03347X0.03740*%
G04:AMPARAMS|DCode=76|XSize=10.24mil|YSize=33.86mil|CornerRadius=0mil|HoleSize=0mil|Usage=FLASHONLY|Rotation=315.000|XOffset=0mil|YOffset=0mil|HoleType=Round|Shape=Rectangle|*
%AMROTATEDRECTD76*
4,1,4,-0.01559,-0.00835,0.00835,0.01559,0.01559,0.00835,-0.00835,-0.01559,-0.01559,-0.00835,0.0*
%
%ADD76ROTATEDRECTD76*%

%ADD77R,0.02362X0.06102*%
%ADD78R,0.04724X0.07087*%
G04:AMPARAMS|DCode=79|XSize=31.5mil|YSize=35.43mil|CornerRadius=0mil|HoleSize=0mil|Usage=FLASHONLY|Rotation=135.000|XOffset=0mil|YOffset=0mil|HoleType=Round|Shape=Rectangle|*
%AMROTATEDRECTD79*
4,1,4,0.02366,0.00139,-0.00139,-0.02366,-0.02366,-0.00139,0.00139,0.02366,0.02366,0.00139,0.0*
%
%ADD79ROTATEDRECTD79*%

%ADD80R,0.02362X0.03937*%
%ADD81R,0.03543X0.03150*%
G04:AMPARAMS|DCode=82|XSize=25.2mil|YSize=23.62mil|CornerRadius=0mil|HoleSize=0mil|Usage=FLASHONLY|Rotation=135.000|XOffset=0mil|YOffset=0mil|HoleType=Round|Shape=Rectangle|*
%AMROTATEDRECTD82*
4,1,4,0.01726,-0.00056,0.00056,-0.01726,-0.01726,0.00056,-0.00056,0.01726,0.01726,-0.00056,0.0*
%
%ADD82ROTATEDRECTD82*%

%ADD83P,0.33407X4X360.0*%
G04:AMPARAMS|DCode=84|XSize=33.86mil|YSize=10.24mil|CornerRadius=0mil|HoleSize=0mil|Usage=FLASHONLY|Rotation=315.000|XOffset=0mil|YOffset=0mil|HoleType=Round|Shape=Rectangle|*
%AMROTATEDRECTD84*
4,1,4,-0.01559,0.00835,-0.00835,0.01559,0.01559,-0.00835,0.00835,-0.01559,-0.01559,0.00835,0.0*
%
%ADD84ROTATEDRECTD84*%

%ADD85R,0.02953X0.02362*%
G04:AMPARAMS|DCode=86|XSize=25.2mil|YSize=23.62mil|CornerRadius=0mil|HoleSize=0mil|Usage=FLASHONLY|Rotation=45.000|XOffset=0mil|YOffset=0mil|HoleType=Round|Shape=Rectangle|*
%AMROTATEDRECTD86*
4,1,4,-0.00056,-0.01726,-0.01726,-0.00056,0.00056,0.01726,0.01726,0.00056,-0.00056,-0.01726,0.0*
%
%ADD86ROTATEDRECTD86*%

%ADD87R,0.03150X0.03543*%
%ADD88R,0.02165X0.03937*%
G04:AMPARAMS|DCode=89|XSize=23.62mil|YSize=29.53mil|CornerRadius=0mil|HoleSize=0mil|Usage=FLASHONLY|Rotation=45.000|XOffset=0mil|YOffset=0mil|HoleType=Round|Shape=Rectangle|*
%AMROTATEDRECTD89*
4,1,4,0.00209,-0.01879,-0.01879,0.00209,-0.00209,0.01879,0.01879,-0.00209,0.00209,-0.01879,0.0*
%
%ADD89ROTATEDRECTD89*%

G04:AMPARAMS|DCode=90|XSize=23.62mil|YSize=29.53mil|CornerRadius=0mil|HoleSize=0mil|Usage=FLASHONLY|Rotation=315.000|XOffset=0mil|YOffset=0mil|HoleType=Round|Shape=Rectangle|*
%AMROTATEDRECTD90*
4,1,4,-0.01879,-0.00209,0.00209,0.01879,0.01879,0.00209,-0.00209,-0.01879,-0.01879,-0.00209,0.0*
%
%ADD90ROTATEDRECTD90*%

G36*
X51181Y64158D02*
X52032D01*
X53718Y63936D01*
X55361Y63496D01*
X56933Y62845D01*
X58406Y61994D01*
X59756Y60958D01*
X60958Y59756D01*
X61994Y58406D01*
X62845Y56933D01*
X63495Y55361D01*
X63936Y53718D01*
X64158Y52032D01*
X64158Y51181D01*
Y38976D01*
X56862D01*
Y32677D01*
X64158D01*
Y16929D01*
X56862D01*
Y10630D01*
X64158D01*
X64158Y-9449D01*
X56862D01*
Y-15748D01*
X64158D01*
Y-31496D01*
X56862D01*
Y-37795D01*
X64158D01*
Y-51181D01*
X64158Y-52032D01*
X63936Y-53718D01*
X63495Y-55361D01*
X62845Y-56933D01*
X61994Y-58406D01*
X60958Y-59756D01*
X59756Y-60958D01*
X58406Y-61994D01*
X56933Y-62845D01*
X55361Y-63496D01*
X53718Y-63936D01*
X52032Y-64158D01*
X51181D01*
X9759D01*
X9634Y-63959D01*
X9569Y-63658D01*
X11958Y-61269D01*
X12187Y-60926D01*
X12242Y-60653D01*
X12546Y-60385D01*
X12768Y-60277D01*
X12886Y-60300D01*
Y-56299D01*
Y-52298D01*
X12400Y-52395D01*
X12321Y-52447D01*
X12293Y-52432D01*
X11958Y-52104D01*
X12187Y-51761D01*
X12268Y-51356D01*
Y-50187D01*
X12187Y-49782D01*
X11958Y-49439D01*
X7441Y-44921D01*
X7098Y-44692D01*
X6693Y-44612D01*
X-5074D01*
X-7604Y-42081D01*
Y-29979D01*
X-2913Y-25288D01*
X-2742Y-25459D01*
X0Y-22716D01*
X2742Y-25459D01*
X4780Y-23421D01*
X5058Y-23537D01*
X5249Y-23659D01*
X5322Y-24027D01*
X5551Y-24370D01*
X13032Y-31850D01*
X13375Y-32080D01*
X13780Y-32160D01*
X33858D01*
X34263Y-32080D01*
X34606Y-31850D01*
X37362Y-29094D01*
X37591Y-28751D01*
X37672Y-28346D01*
Y-24060D01*
X41598Y-20134D01*
X42098Y-20341D01*
Y-23410D01*
X41886D01*
Y-25091D01*
X45937D01*
Y-26091D01*
X41886D01*
Y-27772D01*
X42098D01*
Y-29667D01*
X40410Y-31355D01*
X40126Y-31781D01*
X40026Y-32283D01*
Y-34773D01*
X39920Y-34879D01*
X39665Y-35494D01*
Y-36160D01*
X39920Y-36775D01*
X40391Y-37245D01*
X41006Y-37500D01*
X41671D01*
X42286Y-37245D01*
X42757Y-36775D01*
X43012Y-36160D01*
Y-35494D01*
X42757Y-34879D01*
X42651Y-34773D01*
Y-32827D01*
X43982Y-31496D01*
X49776D01*
Y-30075D01*
X49854Y-30059D01*
X50280Y-29775D01*
X51568Y-28487D01*
X51829Y-28097D01*
X52206Y-27720D01*
X52461Y-27104D01*
Y-26439D01*
X52206Y-25824D01*
X51735Y-25353D01*
X51120Y-25098D01*
X50455D01*
X50404Y-25119D01*
X49988Y-24842D01*
Y-23410D01*
X49776D01*
Y-21775D01*
X50155Y-21700D01*
X50498Y-21470D01*
X51328Y-20640D01*
X51557Y-20297D01*
X51638Y-19892D01*
Y-16328D01*
X51557Y-15924D01*
X51328Y-15580D01*
X49961Y-14213D01*
X49617Y-13983D01*
X49213Y-13903D01*
X38511D01*
X38106Y-13983D01*
X37763Y-14213D01*
X27943Y-24033D01*
X27266D01*
X27059Y-23533D01*
X35628Y-14963D01*
X35858Y-14620D01*
X35938Y-14215D01*
Y-12197D01*
X37664Y-10471D01*
X35815Y-8622D01*
X36022Y-8122D01*
X40354D01*
Y-9449D01*
X49409D01*
Y-8793D01*
X50197D01*
Y-9646D01*
X55315D01*
X55315Y-4921D01*
X55788Y-4856D01*
X58071D01*
Y-5906D01*
X63189D01*
Y-1181D01*
X60671D01*
Y1163D01*
X60571Y1666D01*
X60286Y2092D01*
X47250Y15128D01*
Y16929D01*
X49776D01*
Y20866D01*
Y24803D01*
Y28740D01*
Y32677D01*
X49776D01*
X49616Y32917D01*
X49705Y33132D01*
Y33797D01*
X49450Y34412D01*
X48979Y34883D01*
X48364Y35138D01*
X47699D01*
X47084Y34883D01*
X46978Y34777D01*
X46723D01*
X46617Y34883D01*
X46002Y35138D01*
X45336D01*
X44721Y34883D01*
X44251Y34412D01*
X43996Y33797D01*
Y33132D01*
X44012Y33093D01*
X43734Y32677D01*
X42098D01*
Y29363D01*
X41598Y29155D01*
X38714Y32040D01*
Y34252D01*
X38614Y34754D01*
X38330Y35180D01*
X35958Y37552D01*
Y39961D01*
X37008D01*
Y45079D01*
X32283D01*
Y43065D01*
X31868Y42787D01*
X31681Y42864D01*
X31016D01*
X30401Y42609D01*
X30065Y42274D01*
X29755Y42188D01*
X29445Y42274D01*
X29109Y42609D01*
X28494Y42864D01*
X27829D01*
X27214Y42609D01*
X26878Y42274D01*
X26568Y42188D01*
X26258Y42274D01*
X25922Y42609D01*
X25307Y42864D01*
X24642D01*
X24027Y42609D01*
X23556Y42139D01*
X23301Y41524D01*
Y40858D01*
X23556Y40243D01*
X23558Y40242D01*
X23366Y39779D01*
X20850D01*
Y39468D01*
X20472Y39173D01*
X20350Y39173D01*
X16535D01*
Y34646D01*
Y30367D01*
X16035Y30160D01*
X14748Y31448D01*
X14322Y31732D01*
X14075Y31782D01*
Y34547D01*
X14272Y34646D01*
Y40157D01*
X14469Y40256D01*
Y44874D01*
X14469Y45177D01*
X14469Y45677D01*
Y50295D01*
X13911D01*
Y54882D01*
X13811Y55384D01*
X13527Y55810D01*
X10142Y59194D01*
X10256Y59618D01*
Y60343D01*
X10068Y61044D01*
X9849Y61424D01*
X10137Y61924D01*
X21695D01*
X28543Y55075D01*
Y52756D01*
Y47835D01*
X33268D01*
Y50374D01*
X33664Y50453D01*
X34090Y50737D01*
X35286Y51934D01*
X35311Y51971D01*
X35811Y51819D01*
Y50894D01*
X37886D01*
Y53165D01*
X37598D01*
Y56693D01*
X30638D01*
X23635Y63696D01*
X23826Y64158D01*
X51181D01*
D02*
G37*
G36*
X30065Y40108D02*
X30401Y39772D01*
X31016Y39518D01*
X31681D01*
X32296Y39772D01*
X32484Y39961D01*
X33333D01*
Y38320D01*
X29772D01*
X29270Y38221D01*
X28844Y37936D01*
X28643Y37635D01*
X27509Y36501D01*
X27224Y36075D01*
X27124Y35573D01*
Y31356D01*
X27224Y30854D01*
X27509Y30428D01*
X28026Y29911D01*
Y27354D01*
X28051Y27228D01*
Y24024D01*
X28051Y23720D01*
X28051Y23221D01*
Y18602D01*
X28139D01*
X28330Y18140D01*
X27933Y17743D01*
X29531Y16145D01*
X28824Y15438D01*
X27226Y17036D01*
X26037Y15847D01*
X26188Y15697D01*
X25517Y15026D01*
X25041Y15121D01*
X24570Y15592D01*
X23955Y15846D01*
X23289D01*
X22980Y15718D01*
X22480Y16051D01*
Y23172D01*
X22380Y23674D01*
X22096Y24100D01*
X16577Y29618D01*
X16784Y30118D01*
X19068D01*
X19137Y30072D01*
X19541Y29991D01*
X21063D01*
Y27362D01*
X26181D01*
Y32087D01*
X22399D01*
X22297Y32107D01*
X20472D01*
Y34335D01*
X20850Y34630D01*
X20966Y34630D01*
X23122D01*
Y37205D01*
X23622D01*
Y37705D01*
X26394D01*
Y39744D01*
X26446Y39827D01*
X26788Y40133D01*
X26878Y40108D01*
X27214Y39772D01*
X27829Y39518D01*
X28494D01*
X29109Y39772D01*
X29445Y40108D01*
X29755Y40194D01*
X30065Y40108D01*
D02*
G37*
G36*
X-43307Y64158D02*
Y56468D01*
X-37008D01*
Y64158D01*
X-21260D01*
Y56468D01*
X-14961D01*
Y64158D01*
X-10437D01*
X-10245Y63696D01*
X-12956Y60985D01*
X-13240Y60559D01*
X-13340Y60057D01*
Y54264D01*
X-15537Y52067D01*
X-15687D01*
X-16302Y51812D01*
X-16773Y51341D01*
X-17028Y50726D01*
Y50061D01*
X-16773Y49446D01*
X-16302Y48975D01*
X-15687Y48720D01*
X-15021D01*
X-14406Y48975D01*
X-13936Y49446D01*
X-13681Y50061D01*
Y50211D01*
X-11100Y52792D01*
X-10815Y53218D01*
X-10724Y53673D01*
X-10578Y53727D01*
X-10215Y53746D01*
X-9875Y53158D01*
X-9323Y52605D01*
X-8646Y52214D01*
X-8002Y52042D01*
X-7776Y51561D01*
X-8549Y50787D01*
X-8581D01*
X-9160Y50548D01*
X-9603Y50105D01*
X-9843Y49526D01*
Y48899D01*
X-9603Y48320D01*
X-9160Y47878D01*
X-8581Y47638D01*
X-7954D01*
X-7376Y47878D01*
X-6933Y48320D01*
X-6799Y48643D01*
X-6299Y48543D01*
Y48506D01*
X-6059Y47927D01*
X-5616Y47484D01*
X-5038Y47244D01*
X-4411D01*
X-3832Y47484D01*
X-3700Y47616D01*
X-3551D01*
X-3049Y47716D01*
X-2623Y48001D01*
X1714Y52338D01*
X2137Y52224D01*
X2863D01*
X3564Y52412D01*
X4192Y52775D01*
X4557Y53140D01*
X5048Y53155D01*
X5177Y53105D01*
X5677Y52605D01*
X6354Y52214D01*
X7000Y52041D01*
Y54980D01*
X8000D01*
Y52041D01*
X8646Y52214D01*
X9323Y52605D01*
X9875Y53158D01*
X10266Y53834D01*
X10439Y54478D01*
X10919Y54705D01*
X11286Y54338D01*
Y50295D01*
X9154D01*
Y45677D01*
X9154Y45374D01*
X9154Y44874D01*
Y40370D01*
X6898D01*
Y37402D01*
X6398D01*
Y36902D01*
X3626D01*
Y34433D01*
X3823D01*
Y32390D01*
X6496D01*
Y31890D01*
X6996D01*
Y29020D01*
X9169D01*
Y29232D01*
X12661D01*
X12787Y29207D01*
X13276D01*
X17235Y25248D01*
X17137Y24758D01*
X17025Y24711D01*
X16555Y24240D01*
X16300Y23626D01*
Y23115D01*
X14222Y21038D01*
X13993Y20695D01*
X13600Y20485D01*
X13370Y20580D01*
X13042D01*
X12835Y21080D01*
X14208Y22453D01*
X13019Y23641D01*
X11421Y22044D01*
X10714Y22751D01*
X12312Y24349D01*
X11123Y25537D01*
X10973Y25387D01*
X8673Y27687D01*
X6382Y25396D01*
X5740Y25460D01*
X5681Y25547D01*
X5610Y25618D01*
Y25923D01*
X5356Y26538D01*
X4885Y27009D01*
X4270Y27264D01*
X3604D01*
X2989Y27009D01*
X2519Y26538D01*
X2264Y25923D01*
Y25383D01*
X2179Y25284D01*
X1553Y25223D01*
X1342Y25434D01*
X727Y25689D01*
X61D01*
X-554Y25434D01*
X-1025Y24964D01*
X-1176Y24599D01*
X-1742Y24458D01*
X-2742Y25459D01*
X-3098Y25103D01*
X-3940Y25945D01*
X-4283Y26174D01*
X-4688Y26255D01*
X-7533D01*
X-7703Y26465D01*
X-7784Y26755D01*
X-7607Y26969D01*
X-1969D01*
Y33268D01*
Y39961D01*
X-9055D01*
Y35868D01*
X-12049D01*
X-12551Y35768D01*
X-12977Y35483D01*
X-17118Y31342D01*
X-17618Y31549D01*
Y32480D01*
X-21358D01*
Y30289D01*
X-22150D01*
Y31941D01*
X-24409D01*
Y32941D01*
X-22150D01*
Y33882D01*
Y35563D01*
X-24409D01*
Y36563D01*
X-22150D01*
Y38215D01*
X-21358D01*
Y37598D01*
X-17831D01*
Y37386D01*
X-16248D01*
Y40354D01*
X-15248D01*
Y37386D01*
X-13665D01*
Y37598D01*
X-10138D01*
Y41254D01*
X-9595Y41796D01*
X-9311Y42222D01*
X-9211Y42724D01*
Y42913D01*
X-7283D01*
Y46850D01*
X-16339D01*
Y46588D01*
X-21260D01*
Y49382D01*
X-24984D01*
Y49595D01*
X-26665D01*
Y45543D01*
X-27665D01*
Y49595D01*
X-29066D01*
X-29373Y49656D01*
X-29528Y50020D01*
Y50313D01*
X-29767Y50892D01*
X-30210Y51335D01*
X-30789Y51575D01*
X-31416D01*
X-31994Y51335D01*
X-32437Y50892D01*
X-32677Y50313D01*
Y49687D01*
X-32811Y49487D01*
X-33047D01*
X-33465Y49931D01*
Y50313D01*
X-33704Y50892D01*
X-34147Y51335D01*
X-34726Y51575D01*
X-35353D01*
X-35931Y51335D01*
X-36374Y50892D01*
X-36614Y50313D01*
Y49687D01*
X-36818Y49382D01*
X-37008D01*
Y41705D01*
X-31595D01*
X-31181Y41496D01*
Y38244D01*
X-31394D01*
Y36563D01*
X-29134D01*
Y35563D01*
X-31394D01*
Y33882D01*
Y32941D01*
X-29134D01*
Y31941D01*
X-31394D01*
Y31541D01*
X-31856Y31350D01*
X-36580Y36074D01*
X-37005Y36358D01*
X-37508Y36458D01*
X-49521D01*
X-50024Y36358D01*
X-50047Y36343D01*
X-50502Y36252D01*
X-50928Y35967D01*
X-55653Y31243D01*
X-55937Y30817D01*
X-56037Y30315D01*
Y16535D01*
X-55937Y16033D01*
X-55653Y15607D01*
X-51715Y11670D01*
X-51290Y11386D01*
X-50787Y11286D01*
X-38165D01*
Y10343D01*
X-35984D01*
Y9342D01*
X-38165D01*
Y7874D01*
X-39567D01*
Y2362D01*
X-35630D01*
Y7583D01*
X-33803D01*
Y7795D01*
X-33151D01*
Y7626D01*
X-33065Y7193D01*
X-33134Y7010D01*
X-33365Y6693D01*
X-33384D01*
X-33963Y6453D01*
X-34406Y6010D01*
X-34646Y5431D01*
Y4805D01*
X-34406Y4226D01*
X-34314Y4134D01*
X-34406Y4042D01*
X-34646Y3463D01*
Y2836D01*
X-34406Y2258D01*
X-33963Y1815D01*
X-33384Y1575D01*
X-32758D01*
X-32179Y1815D01*
X-31736Y2258D01*
X-31692Y2362D01*
X-28408D01*
X-28254Y2208D01*
X-27676Y1969D01*
X-27049D01*
X-26470Y2208D01*
X-26027Y2651D01*
X-25787Y3230D01*
Y3857D01*
X-26027Y4435D01*
X-26470Y4878D01*
X-27049Y5118D01*
X-27676D01*
X-27734Y5094D01*
X-28150Y5372D01*
Y7874D01*
X-30230D01*
X-30526Y8170D01*
Y9161D01*
X-30551Y9288D01*
Y11890D01*
X-32033D01*
X-32273Y12249D01*
X-33071Y13047D01*
X-32880Y13509D01*
X-27647D01*
X-27242Y13590D01*
X-26899Y13819D01*
X-25984Y14733D01*
X-25537Y14861D01*
X-24349Y13672D01*
X-22751Y15270D01*
X-22044Y14563D01*
X-23642Y12965D01*
X-22453Y11777D01*
X-21457Y12773D01*
X-20444Y11760D01*
X-18901Y13302D01*
X-18194Y12595D01*
X-19736Y11052D01*
X-19647Y10963D01*
X-19854Y10463D01*
X-20594D01*
X-20634Y10559D01*
X-21104Y11030D01*
X-21719Y11284D01*
X-22385D01*
X-23000Y11030D01*
X-23471Y10559D01*
X-23725Y9944D01*
Y9278D01*
X-23471Y8663D01*
X-23000Y8193D01*
X-22385Y7938D01*
X-21719D01*
X-21104Y8193D01*
X-21022Y8275D01*
X-20638Y8230D01*
X-20452Y7749D01*
X-22675Y5526D01*
X-25459Y2742D01*
X-23641Y925D01*
X-26130Y-1564D01*
X-26360Y-1908D01*
X-26440Y-2312D01*
Y-6012D01*
X-26360Y-6417D01*
X-26130Y-6760D01*
X-24680Y-8211D01*
Y-9167D01*
X-24731Y-9425D01*
Y-9597D01*
X-25231Y-9804D01*
X-25430Y-9605D01*
X-26045Y-9350D01*
X-26346D01*
X-26534Y-8895D01*
X-27005Y-8424D01*
X-27620Y-8169D01*
X-28150D01*
Y-3215D01*
X-28150Y-3150D01*
X-28121Y-2662D01*
X-27769Y-2516D01*
X-27326Y-2073D01*
X-27087Y-1494D01*
Y-868D01*
X-27326Y-289D01*
X-27769Y154D01*
X-28348Y394D01*
X-28975D01*
X-29553Y154D01*
X-29996Y-289D01*
X-30236Y-868D01*
Y-1494D01*
X-29996Y-2073D01*
X-29553Y-2516D01*
X-29231Y-2650D01*
X-29331Y-3150D01*
X-31677D01*
Y-2937D01*
X-33358D01*
Y-5906D01*
Y-8874D01*
X-31677D01*
Y-8661D01*
X-31176D01*
Y-24533D01*
X-42098D01*
Y-23835D01*
X-41886D01*
Y-22154D01*
X-45937D01*
Y-21154D01*
X-41886D01*
Y-19473D01*
X-42098D01*
Y-15748D01*
X-43963D01*
Y-14300D01*
X-43940Y-14278D01*
X-43701Y-13699D01*
Y-13073D01*
X-43940Y-12494D01*
X-44383Y-12051D01*
X-44962Y-11811D01*
X-45589D01*
X-46168Y-12051D01*
X-46190Y-12073D01*
X-46330D01*
X-46352Y-12051D01*
X-46708Y-11903D01*
X-46861Y-11349D01*
X-42475Y-6963D01*
X-39567D01*
Y-8661D01*
X-36039D01*
Y-8874D01*
X-34358D01*
Y-5906D01*
Y-2937D01*
X-36039D01*
Y-3150D01*
X-39567D01*
Y-4848D01*
X-42913D01*
X-43318Y-4928D01*
X-43661Y-5158D01*
X-53504Y-15000D01*
X-53733Y-15343D01*
X-53814Y-15748D01*
Y-25591D01*
X-53733Y-25995D01*
X-53504Y-26338D01*
X-49776Y-30067D01*
Y-31496D01*
X-42098D01*
Y-30585D01*
X-31147D01*
X-30081Y-31651D01*
X-30159Y-31729D01*
X-30413Y-32344D01*
Y-33010D01*
X-30159Y-33625D01*
X-29688Y-34096D01*
X-29073Y-34350D01*
X-28407D01*
X-27792Y-34096D01*
X-27542Y-33845D01*
X-27042Y-34052D01*
Y-39764D01*
X-26961Y-40169D01*
X-26732Y-40512D01*
X-24514Y-42730D01*
X-24171Y-42959D01*
X-23766Y-43040D01*
X-15736D01*
X-15459Y-43317D01*
X-14880Y-43557D01*
X-14254D01*
X-13675Y-43317D01*
X-13232Y-42874D01*
X-12992Y-42296D01*
Y-41669D01*
X-13232Y-41090D01*
X-13675Y-40647D01*
X-14254Y-40407D01*
X-14880D01*
X-15459Y-40647D01*
X-15736Y-40925D01*
X-23328D01*
X-24927Y-39326D01*
Y-29178D01*
X-22874Y-27126D01*
X-22645Y-26783D01*
X-22564Y-26378D01*
Y-14310D01*
X-22064Y-14103D01*
X-18767Y-17400D01*
X-18884Y-17990D01*
X-19058Y-18062D01*
X-19529Y-18532D01*
X-19783Y-19148D01*
Y-19813D01*
X-19529Y-20428D01*
X-19058Y-20899D01*
X-18443Y-21154D01*
X-17933D01*
X-16291Y-22795D01*
X-15948Y-23024D01*
X-15543Y-23105D01*
X-12705D01*
X-12460Y-23448D01*
X-12408Y-23605D01*
X-12475Y-23945D01*
Y-26333D01*
X-15315Y-29173D01*
X-15544Y-29517D01*
X-15625Y-29921D01*
Y-34601D01*
X-16543Y-35520D01*
X-16990Y-35335D01*
X-17656D01*
X-18271Y-35589D01*
X-18741Y-36060D01*
X-18996Y-36675D01*
Y-37341D01*
X-18741Y-37956D01*
X-18271Y-38426D01*
X-17656Y-38681D01*
X-16990D01*
X-16375Y-38426D01*
X-15904Y-37956D01*
X-15798Y-37699D01*
X-15594Y-37562D01*
X-13819Y-35787D01*
X-13590Y-35444D01*
X-13509Y-35039D01*
Y-32592D01*
X-13093Y-32315D01*
X-12931Y-32382D01*
X-12266D01*
X-12064Y-32298D01*
X-11564Y-32632D01*
Y-61225D01*
X-11483Y-61630D01*
X-11254Y-61973D01*
X-9569Y-63658D01*
X-9634Y-63959D01*
X-9759Y-64158D01*
X-51181D01*
X-52032D01*
X-53718Y-63936D01*
X-55361Y-63496D01*
X-56933Y-62845D01*
X-58406Y-61994D01*
X-59756Y-60958D01*
X-60958Y-59756D01*
X-61994Y-58406D01*
X-62845Y-56933D01*
X-63496Y-55361D01*
X-63936Y-53718D01*
X-64158Y-52032D01*
X-64158Y-51181D01*
Y-37795D01*
X-56862D01*
Y-31496D01*
X-64158D01*
Y-15748D01*
X-56862D01*
Y-9449D01*
X-64158D01*
X-64158Y8661D01*
X-56862D01*
Y14961D01*
X-64158D01*
Y34646D01*
X-56862D01*
Y40945D01*
X-64158D01*
Y51181D01*
Y52032D01*
X-63936Y53718D01*
X-63496Y55361D01*
X-62845Y56933D01*
X-61994Y58406D01*
X-60958Y59756D01*
X-59756Y60958D01*
X-58406Y61994D01*
X-56933Y62845D01*
X-55361Y63495D01*
X-53718Y63936D01*
X-52032Y64158D01*
X-51181Y64158D01*
X-43307D01*
D02*
G37*
G36*
X-32822Y28603D02*
X-32396Y28319D01*
X-31894Y28219D01*
X-31181D01*
Y27436D01*
X-35192D01*
X-37244Y29488D01*
X-37587Y29717D01*
X-37992Y29798D01*
X-42098D01*
Y30709D01*
Y33833D01*
X-38052D01*
X-32822Y28603D01*
D02*
G37*
G36*
X-36378Y25630D02*
X-36035Y25401D01*
X-35630Y25320D01*
X-27616D01*
X-27425Y24858D01*
X-29572Y22711D01*
X-41886D01*
Y24303D01*
X-45937D01*
Y25303D01*
X-41886D01*
Y26984D01*
X-42098D01*
Y27682D01*
X-38430D01*
X-36378Y25630D01*
D02*
G37*
G36*
X-17503Y22289D02*
X-18051Y21741D01*
X-20214D01*
X-20618Y21660D01*
X-20962Y21431D01*
X-23489Y18904D01*
X-24791Y20206D01*
X-27687Y17311D01*
X-27042Y16667D01*
X-28085Y15625D01*
X-42098D01*
Y16659D01*
X-29528D01*
X-29123Y16739D01*
X-28780Y16969D01*
X-22997Y22751D01*
X-17694D01*
X-17503Y22289D01*
D02*
G37*
G36*
X40714Y22588D02*
X41139Y22303D01*
X41642Y22203D01*
X42098D01*
Y16929D01*
X44624D01*
Y14585D01*
X44724Y14082D01*
X45009Y13656D01*
X55394Y3272D01*
X55187Y2772D01*
X53256D01*
Y197D01*
X52256D01*
Y2772D01*
X49984D01*
Y746D01*
X49508Y689D01*
Y689D01*
X44890D01*
X44587Y689D01*
X44087Y689D01*
X39469D01*
Y-274D01*
X39290Y-394D01*
X38663D01*
X38084Y-634D01*
X37641Y-1076D01*
X37402Y-1655D01*
Y-2282D01*
X37641Y-2860D01*
X38084Y-3303D01*
X38663Y-3543D01*
X39290D01*
X39469Y-3663D01*
Y-4626D01*
X44087D01*
X44390Y-4626D01*
X44890Y-4626D01*
X48094D01*
X48116Y-4630D01*
X48304Y-4756D01*
X48806Y-4856D01*
X49724D01*
X50197Y-4921D01*
X50197Y-5356D01*
Y-6168D01*
X49409D01*
Y-5512D01*
X42024D01*
X41947Y-5497D01*
X36093D01*
X30210Y387D01*
X29784Y671D01*
X29614Y705D01*
X29294Y1025D01*
X28679Y1280D01*
X28014D01*
X27399Y1025D01*
X26928Y554D01*
X26673Y-61D01*
Y-727D01*
X26928Y-1342D01*
X27399Y-1812D01*
X28014Y-2067D01*
X28679D01*
X28871Y-1987D01*
X31107Y-4223D01*
X29790Y-5539D01*
X29706D01*
X28707Y-4540D01*
X28599Y-4468D01*
X26760Y-2628D01*
X25922Y-3466D01*
X25638Y-3368D01*
X25535Y-2816D01*
X25828Y-2523D01*
X26083Y-1908D01*
Y-1242D01*
X25828Y-627D01*
X25357Y-156D01*
X24742Y98D01*
X24077D01*
X23462Y-156D01*
X23167Y-451D01*
X22716Y0D01*
X25459Y2742D01*
X25073Y3128D01*
X25238Y3670D01*
X25390Y3701D01*
X25816Y3985D01*
X26776Y4946D01*
X28137Y3586D01*
X28199Y3523D01*
X28340Y3082D01*
X28420Y3002D01*
X29807Y1615D01*
X31767Y3574D01*
X33727Y5534D01*
X32339Y6922D01*
X32260Y7001D01*
X31818Y7142D01*
X29135Y9826D01*
X29326Y10288D01*
X31067D01*
X33095Y8260D01*
X36714Y11879D01*
X34454Y14138D01*
X34714Y14547D01*
X34733Y14567D01*
X35353D01*
X35362Y14571D01*
X35827Y14222D01*
Y13860D01*
X36066Y13281D01*
X36509Y12838D01*
X37088Y12598D01*
X37715D01*
X38294Y12838D01*
X38737Y13281D01*
X38976Y13860D01*
Y14487D01*
X38737Y15065D01*
X38714Y15088D01*
Y18602D01*
X38878D01*
Y23221D01*
X38878Y23770D01*
X39340Y23961D01*
X40714Y22588D01*
D02*
G37*
G36*
X626Y20559D02*
X1072Y20114D01*
X2018Y19167D01*
X2464Y18722D01*
X3260Y17925D01*
X3110Y17775D01*
X3825Y17060D01*
X5729Y18964D01*
X6436Y18257D01*
X4532Y16353D01*
X5248Y15637D01*
X5398Y15787D01*
X6194Y14991D01*
X6640Y14546D01*
X7586Y13599D01*
X8032Y13154D01*
X8978Y12207D01*
X9423Y11762D01*
X10220Y10966D01*
X10069Y10815D01*
X10785Y10100D01*
X12689Y12004D01*
X13396Y11297D01*
X11492Y9393D01*
X12207Y8677D01*
X12358Y8828D01*
X13154Y8032D01*
X13599Y7586D01*
X14546Y6640D01*
X14991Y6194D01*
X15938Y5248D01*
X16383Y4802D01*
X17330Y3856D01*
X17775Y3410D01*
X18722Y2464D01*
X19167Y2018D01*
X20114Y1072D01*
X20559Y626D01*
X21185Y0D01*
X20114Y-1072D01*
X19317Y-1868D01*
X19167Y-1718D01*
X18452Y-2433D01*
X20356Y-4337D01*
X19649Y-5044D01*
X17744Y-3140D01*
X17029Y-3856D01*
X17179Y-4006D01*
X15938Y-5248D01*
X14546Y-6640D01*
X13154Y-8032D01*
X12358Y-8828D01*
X12207Y-8677D01*
X11492Y-9393D01*
X13396Y-11297D01*
X12689Y-12004D01*
X10785Y-10100D01*
X10069Y-10815D01*
X10220Y-10966D01*
X8978Y-12207D01*
X7586Y-13599D01*
X6194Y-14991D01*
X4802Y-16383D01*
X3410Y-17775D01*
X2018Y-19167D01*
X626Y-20559D01*
X0Y-21185D01*
X-1072Y-20114D01*
X-2464Y-18722D01*
X-3856Y-17330D01*
X-5248Y-15938D01*
X-6640Y-14546D01*
X-7436Y-13750D01*
X-7285Y-13599D01*
X-8001Y-12884D01*
X-9905Y-14788D01*
X-10612Y-14081D01*
X-8708Y-12177D01*
X-9423Y-11461D01*
X-9574Y-11612D01*
X-10815Y-10370D01*
X-12207Y-8978D01*
X-13003Y-8182D01*
X-12853Y-8032D01*
X-13569Y-7316D01*
X-15473Y-9220D01*
X-16180Y-8513D01*
X-14276Y-6609D01*
X-14991Y-5894D01*
X-15142Y-6044D01*
X-16383Y-4802D01*
X-17775Y-3410D01*
X-19167Y-2018D01*
X-20559Y-626D01*
X-21185Y0D01*
X-20559Y626D01*
X-19167Y2018D01*
X-17775Y3410D01*
X-16383Y4802D01*
X-14991Y6194D01*
X-13750Y7436D01*
X-13599Y7285D01*
X-12884Y8001D01*
X-14788Y9905D01*
X-14081Y10612D01*
X-12177Y8708D01*
X-11461Y9423D01*
X-11612Y9574D01*
X-10815Y10370D01*
X-9423Y11762D01*
X-8032Y13154D01*
X-6640Y14546D01*
X-5248Y15938D01*
X-3856Y17330D01*
X-2464Y18722D01*
X-1072Y20114D01*
X0Y21185D01*
X626Y20559D01*
D02*
G37*
G36*
X-24680Y-12399D02*
Y-24215D01*
X-25180Y-24422D01*
X-25251Y-24351D01*
X-25866Y-24096D01*
X-26532D01*
X-27147Y-24351D01*
X-27329Y-24533D01*
X-29060D01*
Y-14098D01*
X-28560Y-13764D01*
X-28286Y-13878D01*
X-27620D01*
X-27005Y-13623D01*
X-26534Y-13152D01*
X-26346Y-12697D01*
X-26045D01*
X-25430Y-12442D01*
X-25180Y-12192D01*
X-24680Y-12399D01*
D02*
G37*
G36*
X11162Y-22401D02*
X11505Y-22631D01*
X11910Y-22711D01*
X12948D01*
X17362Y-27126D01*
X17706Y-27355D01*
X18110Y-27436D01*
X31508D01*
X31792Y-27936D01*
X31773Y-27967D01*
X14502D01*
X8932Y-22397D01*
Y-20878D01*
X9432Y-20671D01*
X11162Y-22401D01*
D02*
G37*
G36*
X42098Y-16815D02*
X42024Y-16830D01*
X41681Y-17060D01*
X35866Y-22874D01*
X35637Y-23217D01*
X35557Y-23622D01*
Y-27908D01*
X35197Y-28268D01*
X34706Y-28171D01*
X34690Y-28133D01*
X34247Y-27690D01*
X33669Y-27450D01*
X33042D01*
X33006Y-27465D01*
X32723Y-27041D01*
X33386Y-26378D01*
X33778D01*
X34357Y-26138D01*
X34800Y-25695D01*
X35039Y-25116D01*
Y-24490D01*
X34800Y-23911D01*
X34357Y-23468D01*
X33778Y-23228D01*
X33151D01*
X32572Y-23468D01*
X32129Y-23911D01*
X31890Y-24490D01*
Y-24882D01*
X31452Y-25320D01*
X30300D01*
X30109Y-24858D01*
X38949Y-16018D01*
X42098D01*
Y-16815D01*
D02*
G37*
G36*
X-27618Y-26717D02*
X-27147Y-27188D01*
X-26785Y-27338D01*
X-26645Y-27904D01*
X-26732Y-27992D01*
X-26961Y-28335D01*
X-27042Y-28740D01*
Y-31302D01*
X-27542Y-31509D01*
X-27792Y-31259D01*
X-27937Y-31199D01*
X-28006Y-30848D01*
X-28236Y-30505D01*
X-29961Y-28780D01*
X-30304Y-28550D01*
X-30709Y-28470D01*
X-42098D01*
Y-26648D01*
X-27646D01*
X-27618Y-26717D01*
D02*
G37*
G36*
X10153Y-50625D02*
Y-50918D01*
X10075Y-50996D01*
X9846Y-51339D01*
X9765Y-51744D01*
Y-52422D01*
X9756Y-52425D01*
X9265Y-52572D01*
X8646Y-52214D01*
X8000Y-52041D01*
Y-54980D01*
X7000D01*
Y-52041D01*
X6354Y-52214D01*
X5677Y-52605D01*
X5177Y-53105D01*
X5048Y-53155D01*
X4557Y-53140D01*
X4192Y-52775D01*
X3744Y-52516D01*
Y-49205D01*
X3937Y-48739D01*
Y-48112D01*
X3697Y-47533D01*
X3391Y-47227D01*
X3585Y-46727D01*
X6255D01*
X10153Y-50625D01*
D02*
G37*
G36*
X-6260Y-46417D02*
X-5917Y-46646D01*
X-5512Y-46727D01*
X-3585D01*
X-3391Y-47227D01*
X-3697Y-47533D01*
X-3937Y-48112D01*
Y-48739D01*
X-3744Y-49205D01*
Y-52516D01*
X-4192Y-52775D01*
X-4557Y-53140D01*
X-5048Y-53155D01*
X-5177Y-53105D01*
X-5677Y-52605D01*
X-6354Y-52214D01*
X-7000Y-52041D01*
Y-54980D01*
X-8000D01*
Y-52041D01*
X-8646Y-52214D01*
X-8948Y-52389D01*
X-9448Y-52100D01*
Y-43936D01*
X-8948Y-43729D01*
X-6260Y-46417D01*
D02*
G37*
%LPC*%
G36*
X40961Y53165D02*
X38886D01*
Y50894D01*
X40961D01*
Y53165D01*
D02*
G37*
G36*
Y49894D02*
X38886D01*
Y47622D01*
X40961D01*
Y49894D01*
D02*
G37*
G36*
X37886D02*
X35811D01*
Y47622D01*
X37886D01*
Y49894D01*
D02*
G37*
G36*
X51855Y56299D02*
X50507D01*
X49206Y55950D01*
X48039Y55277D01*
X47086Y54324D01*
X46412Y53157D01*
X46063Y51855D01*
Y50507D01*
X46412Y49206D01*
X47086Y48039D01*
X48039Y47086D01*
X49206Y46412D01*
X50507Y46063D01*
X51855D01*
X53157Y46412D01*
X54324Y47086D01*
X55277Y48039D01*
X55950Y49206D01*
X56299Y50507D01*
Y51855D01*
X55950Y53157D01*
X55277Y54324D01*
X54324Y55277D01*
X53157Y55950D01*
X51855Y56299D01*
D02*
G37*
G36*
X1908Y-30807D02*
X1242D01*
X627Y-31062D01*
X156Y-31532D01*
X-98Y-32147D01*
Y-32813D01*
X156Y-33428D01*
X627Y-33899D01*
X1242Y-34154D01*
X1908D01*
X2523Y-33899D01*
X2993Y-33428D01*
X3248Y-32813D01*
Y-32147D01*
X2993Y-31532D01*
X2523Y-31062D01*
X1908Y-30807D01*
D02*
G37*
G36*
X-4785Y-31398D02*
X-5451D01*
X-6066Y-31652D01*
X-6537Y-32123D01*
X-6791Y-32738D01*
Y-33404D01*
X-6537Y-34019D01*
X-6066Y-34489D01*
X-5451Y-34744D01*
X-4785D01*
X-4170Y-34489D01*
X-3700Y-34019D01*
X-3445Y-33404D01*
Y-32738D01*
X-3700Y-32123D01*
X-4170Y-31652D01*
X-4785Y-31398D01*
D02*
G37*
G36*
X9624Y-35925D02*
X8958D01*
X8343Y-36180D01*
X7873Y-36651D01*
X7618Y-37266D01*
Y-37931D01*
X7873Y-38546D01*
X8343Y-39017D01*
X8958Y-39272D01*
X9624D01*
X10239Y-39017D01*
X10710Y-38546D01*
X10965Y-37931D01*
Y-37266D01*
X10710Y-36651D01*
X10239Y-36180D01*
X9624Y-35925D01*
D02*
G37*
G36*
X3090Y-36025D02*
X2424D01*
X1809Y-36279D01*
X1338Y-36750D01*
X1084Y-37365D01*
Y-38031D01*
X1338Y-38646D01*
X1809Y-39116D01*
X2424Y-39371D01*
X3090D01*
X3705Y-39116D01*
X4175Y-38646D01*
X4430Y-38031D01*
Y-37365D01*
X4175Y-36750D01*
X3705Y-36279D01*
X3090Y-36025D01*
D02*
G37*
G36*
X30049Y-39460D02*
X29383D01*
X28768Y-39715D01*
X28338Y-40145D01*
X28113Y-39920D01*
X27498Y-39665D01*
X26833D01*
X26217Y-39920D01*
X25747Y-40391D01*
X25492Y-41006D01*
Y-41671D01*
X25747Y-42286D01*
X26217Y-42757D01*
X26833Y-43012D01*
X27498D01*
X28113Y-42757D01*
X28543Y-42327D01*
X28768Y-42552D01*
X29383Y-42807D01*
X30049D01*
X30664Y-42552D01*
X31135Y-42081D01*
X31389Y-41466D01*
Y-40801D01*
X31135Y-40186D01*
X30664Y-39715D01*
X30049Y-39460D01*
D02*
G37*
G36*
X38287Y-43345D02*
X37508D01*
Y-45169D01*
X40512D01*
X40435Y-44780D01*
X39931Y-44026D01*
X39177Y-43522D01*
X38287Y-43345D01*
D02*
G37*
G36*
X36508D02*
X35728D01*
X34839Y-43522D01*
X34085Y-44026D01*
X33581Y-44780D01*
X33504Y-45169D01*
X36508D01*
Y-43345D01*
D02*
G37*
G36*
X18602D02*
X17823D01*
Y-45169D01*
X20827D01*
X20750Y-44780D01*
X20246Y-44026D01*
X19492Y-43522D01*
X18602Y-43345D01*
D02*
G37*
G36*
X16823D02*
X16043D01*
X15154Y-43522D01*
X14400Y-44026D01*
X13896Y-44780D01*
X13819Y-45169D01*
X16823D01*
Y-43345D01*
D02*
G37*
G36*
X40512Y-46169D02*
X37508D01*
Y-47993D01*
X38287D01*
X39177Y-47817D01*
X39931Y-47313D01*
X40435Y-46559D01*
X40512Y-46169D01*
D02*
G37*
G36*
X36508D02*
X33504D01*
X33581Y-46559D01*
X34085Y-47313D01*
X34839Y-47817D01*
X35728Y-47993D01*
X36508D01*
Y-46169D01*
D02*
G37*
G36*
X20827D02*
X17823D01*
Y-47993D01*
X18602D01*
X19492Y-47817D01*
X20246Y-47313D01*
X20750Y-46559D01*
X20827Y-46169D01*
D02*
G37*
G36*
X16823D02*
X13819D01*
X13896Y-46559D01*
X14400Y-47313D01*
X15154Y-47817D01*
X16043Y-47993D01*
X16823D01*
Y-46169D01*
D02*
G37*
G36*
X25136Y-47752D02*
X24470D01*
X23855Y-48007D01*
X23674Y-48188D01*
X23002Y-48195D01*
X22995Y-48188D01*
X22380Y-47933D01*
X21714D01*
X21099Y-48188D01*
X20629Y-48658D01*
X20374Y-49273D01*
Y-49939D01*
X20629Y-50554D01*
X21099Y-51025D01*
X21714Y-51279D01*
X22380D01*
X22995Y-51025D01*
X23176Y-50844D01*
X23849Y-50837D01*
X23855Y-50844D01*
X24470Y-51098D01*
X25136D01*
X25751Y-50844D01*
X26222Y-50373D01*
X26476Y-49758D01*
Y-49092D01*
X26222Y-48477D01*
X25751Y-48007D01*
X25136Y-47752D01*
D02*
G37*
G36*
X13886Y-52298D02*
Y-55799D01*
X15961D01*
Y-54774D01*
X15765Y-53788D01*
X15207Y-52953D01*
X14371Y-52395D01*
X13886Y-52298D01*
D02*
G37*
G36*
X41445D02*
Y-55799D01*
X43520D01*
Y-54774D01*
X43324Y-53788D01*
X42766Y-52953D01*
X41930Y-52395D01*
X41445Y-52298D01*
D02*
G37*
G36*
X40445D02*
X39959Y-52395D01*
X39124Y-52953D01*
X38566Y-53788D01*
X38370Y-54774D01*
Y-55799D01*
X40445D01*
Y-52298D01*
D02*
G37*
G36*
X51855Y-46063D02*
X50507D01*
X49206Y-46412D01*
X48039Y-47086D01*
X47086Y-48039D01*
X46412Y-49206D01*
X46063Y-50507D01*
Y-51855D01*
X46412Y-53157D01*
X47086Y-54324D01*
X48039Y-55277D01*
X49206Y-55950D01*
X50507Y-56299D01*
X51855D01*
X53157Y-55950D01*
X54324Y-55277D01*
X55277Y-54324D01*
X55950Y-53157D01*
X56299Y-51855D01*
Y-50507D01*
X55950Y-49206D01*
X55277Y-48039D01*
X54324Y-47086D01*
X53157Y-46412D01*
X51855Y-46063D01*
D02*
G37*
G36*
X43520Y-56799D02*
X41445D01*
Y-60300D01*
X41930Y-60204D01*
X42766Y-59646D01*
X43324Y-58810D01*
X43520Y-57825D01*
Y-56799D01*
D02*
G37*
G36*
X15961D02*
X13886D01*
Y-60300D01*
X14371Y-60204D01*
X15207Y-59646D01*
X15765Y-58810D01*
X15961Y-57825D01*
Y-56799D01*
D02*
G37*
G36*
X40445D02*
X38370D01*
Y-57825D01*
X38566Y-58810D01*
X39124Y-59646D01*
X39959Y-60204D01*
X40445Y-60300D01*
Y-56799D01*
D02*
G37*
G36*
X26394Y36705D02*
X24122D01*
Y34630D01*
X26394D01*
Y36705D01*
D02*
G37*
G36*
X-50507Y56299D02*
X-51855D01*
X-53157Y55950D01*
X-54324Y55277D01*
X-55277Y54324D01*
X-55950Y53157D01*
X-56299Y51855D01*
Y50507D01*
X-55950Y49206D01*
X-55277Y48039D01*
X-54324Y47086D01*
X-53157Y46412D01*
X-51855Y46063D01*
X-50507D01*
X-49206Y46412D01*
X-48039Y47086D01*
X-47086Y48039D01*
X-46412Y49206D01*
X-46063Y50507D01*
Y51855D01*
X-46412Y53157D01*
X-47086Y54324D01*
X-48039Y55277D01*
X-49206Y55950D01*
X-50507Y56299D01*
D02*
G37*
G36*
X5898Y40370D02*
X3626D01*
Y37902D01*
X5898D01*
Y40370D01*
D02*
G37*
G36*
X5996Y31390D02*
X3823D01*
Y29020D01*
X5996D01*
Y31390D01*
D02*
G37*
G36*
X-18171Y-22736D02*
X-18837D01*
X-19452Y-22991D01*
X-19922Y-23462D01*
X-20177Y-24077D01*
Y-24742D01*
X-19922Y-25357D01*
X-19452Y-25828D01*
X-19120Y-25965D01*
X-19153Y-26045D01*
Y-26711D01*
X-18899Y-27326D01*
X-18428Y-27796D01*
X-17813Y-28051D01*
X-17147D01*
X-16533Y-27796D01*
X-16062Y-27326D01*
X-15807Y-26711D01*
Y-26045D01*
X-16062Y-25430D01*
X-16533Y-24960D01*
X-16864Y-24822D01*
X-16831Y-24742D01*
Y-24077D01*
X-17086Y-23462D01*
X-17556Y-22991D01*
X-18171Y-22736D01*
D02*
G37*
G36*
X-22197Y-36605D02*
X-22863D01*
X-23478Y-36860D01*
X-23949Y-37330D01*
X-24203Y-37945D01*
Y-38611D01*
X-23949Y-39226D01*
X-23478Y-39697D01*
X-22863Y-39951D01*
X-22197D01*
X-21582Y-39697D01*
X-21112Y-39226D01*
X-20857Y-38611D01*
Y-37945D01*
X-21112Y-37330D01*
X-21582Y-36860D01*
X-22197Y-36605D01*
D02*
G37*
G36*
X-30770Y-45571D02*
X-31435D01*
X-32050Y-45826D01*
X-32521Y-46296D01*
X-32776Y-46911D01*
Y-47577D01*
X-32521Y-48192D01*
X-32050Y-48663D01*
X-31435Y-48917D01*
X-30770D01*
X-30155Y-48663D01*
X-29684Y-48192D01*
X-29429Y-47577D01*
Y-46911D01*
X-29684Y-46296D01*
X-30155Y-45826D01*
X-30770Y-45571D01*
D02*
G37*
G36*
X-33839Y-50394D02*
X-34505D01*
X-35120Y-50648D01*
X-35591Y-51119D01*
X-35845Y-51734D01*
Y-52400D01*
X-35591Y-53015D01*
X-35120Y-53485D01*
X-34505Y-53740D01*
X-33839D01*
X-33224Y-53485D01*
X-32754Y-53015D01*
X-32499Y-52400D01*
Y-51734D01*
X-32754Y-51119D01*
X-33224Y-50648D01*
X-33839Y-50394D01*
D02*
G37*
G36*
X-50507Y-46063D02*
X-51855D01*
X-53157Y-46412D01*
X-54324Y-47086D01*
X-55277Y-48039D01*
X-55950Y-49206D01*
X-56299Y-50507D01*
Y-51855D01*
X-55950Y-53157D01*
X-55277Y-54324D01*
X-54324Y-55277D01*
X-53157Y-55950D01*
X-51855Y-56299D01*
X-50507D01*
X-49206Y-55950D01*
X-48039Y-55277D01*
X-47086Y-54324D01*
X-46412Y-53157D01*
X-46063Y-51855D01*
Y-50507D01*
X-46412Y-49206D01*
X-47086Y-48039D01*
X-48039Y-47086D01*
X-49206Y-46412D01*
X-50507Y-46063D01*
D02*
G37*
G36*
X-21714Y-56595D02*
X-22380D01*
X-22995Y-56849D01*
X-23466Y-57320D01*
X-23720Y-57935D01*
Y-58600D01*
X-23466Y-59215D01*
X-22995Y-59686D01*
X-22380Y-59941D01*
X-21714D01*
X-21099Y-59686D01*
X-20629Y-59215D01*
X-20374Y-58600D01*
Y-57935D01*
X-20629Y-57320D01*
X-21099Y-56849D01*
X-21714Y-56595D01*
D02*
G37*
G36*
X-28589Y-57556D02*
X-29254D01*
X-29869Y-57810D01*
X-30340Y-58281D01*
X-30595Y-58896D01*
Y-59562D01*
X-30340Y-60177D01*
X-29869Y-60647D01*
X-29254Y-60902D01*
X-28589D01*
X-27974Y-60647D01*
X-27503Y-60177D01*
X-27248Y-59562D01*
Y-58896D01*
X-27503Y-58281D01*
X-27974Y-57810D01*
X-28589Y-57556D01*
D02*
G37*
G36*
X37076Y11517D02*
X33457Y7898D01*
X36797Y4557D01*
X40416Y8176D01*
X37076Y11517D01*
D02*
G37*
G36*
X34434Y4827D02*
X32827Y3221D01*
X34295Y1754D01*
X35901Y3360D01*
X34434Y4827D01*
D02*
G37*
G36*
X32120Y2514D02*
X30514Y908D01*
X31981Y-559D01*
X33588Y1047D01*
X32120Y2514D01*
D02*
G37*
G36*
X0Y18117D02*
X-8705Y9412D01*
X0Y707D01*
X8705Y9412D01*
X0Y18117D01*
D02*
G37*
G36*
X9412Y8705D02*
X707Y0D01*
X9412Y-8705D01*
X18117Y0D01*
X9412Y8705D01*
D02*
G37*
G36*
X-9412Y8705D02*
X-18117Y0D01*
X-9412Y-8705D01*
X-707Y0D01*
X-9412Y8705D01*
D02*
G37*
G36*
X0Y-707D02*
X-8705Y-9412D01*
X0Y-18117D01*
X8705Y-9412D01*
X0Y-707D01*
D02*
G37*
%LPD*%
D17*
X1392Y0D02*
X13386D01*
X15311D01*
X-25984Y-28740D02*
X-23622Y-26378D01*
X-25984Y-39764D02*
Y-28740D01*
Y-39764D02*
X-23766Y-41982D01*
X18504Y36909D02*
Y37008D01*
X13386Y16535D02*
X14970Y18120D01*
Y20290D01*
X12360Y16535D02*
X13386D01*
X10259Y14435D02*
X12360Y16535D01*
X8867Y15826D02*
X9113D01*
X11950Y18664D01*
X12794D01*
X13037Y18907D01*
X9476Y18909D02*
X9624Y19057D01*
X9182Y18909D02*
X9476D01*
X7491Y17218D02*
X9182Y18909D01*
X7475Y17218D02*
X7491D01*
X14970Y20290D02*
X17973Y23293D01*
X-7671Y19829D02*
X-6453Y18610D01*
X-9986Y19829D02*
X-7671D01*
X-11811Y21654D02*
X-9986Y19829D01*
X-8661Y21885D02*
X-6574D01*
X-4691Y20002D01*
X-18390Y17899D02*
X-18000D01*
X-18390Y17691D02*
X-18000D01*
X-18898Y17717D02*
X-16579Y15398D01*
X-19317Y17691D02*
X-18784D01*
X-16579Y15398D02*
X-16098D01*
X-19291Y17717D02*
X-18898D01*
X-18575Y17899D02*
X-18390D01*
X-18000D02*
X-17792D01*
X-18000Y17691D02*
X-17792Y17899D01*
X-21025Y14973D02*
X-19001Y12948D01*
X-18548D01*
X-22342Y14973D02*
X-21025D01*
X-22397Y14917D02*
X-22342Y14973D01*
X-18784Y17691D02*
X-18575Y17899D01*
X-11510Y16036D02*
Y17969D01*
X-12205Y18664D02*
X-11510Y17969D01*
X-12205Y18664D02*
Y18898D01*
X-10259Y14435D02*
Y14785D01*
X-11510Y16036D02*
X-10259Y14785D01*
X-16233Y20775D02*
X-16116Y20892D01*
X-16325Y20683D02*
X-16233Y20775D01*
X-11651Y13043D02*
Y13413D01*
X-12941Y14703D02*
Y16166D01*
X-16233Y19458D02*
X-12941Y16166D01*
X-16233Y19458D02*
Y20775D01*
X-12941Y14703D02*
X-11651Y13413D01*
X-6453Y18610D02*
X-6083D01*
X27374Y-10680D02*
X27586Y-10468D01*
X26484Y-10680D02*
X27374D01*
X26233Y-10931D02*
X26484Y-10680D01*
X25361Y-10931D02*
X26233D01*
X25361Y-10931D02*
X25361Y-10931D01*
X18610Y-6083D02*
X23459Y-10931D01*
X25361D01*
X26953Y-12779D02*
X27165Y-12992D01*
X22540Y-12779D02*
X26953D01*
X17218Y-7475D02*
X17235D01*
X22540Y-12779D01*
X15826Y-8867D02*
X22314Y-15354D01*
X25545D01*
X13780Y-20079D02*
X18791Y-25091D01*
X13119Y-20079D02*
X13780D01*
X8867Y-15826D02*
X13119Y-20079D01*
X13386Y-21654D02*
X18110Y-26378D01*
X7475Y-17218D02*
X11910Y-21654D01*
X13386D01*
X18110Y-26378D02*
X31890D01*
X18791Y-25091D02*
X28381D01*
X18780Y-22973D02*
X26123D01*
X34880Y-14215D01*
X10259Y-14451D02*
X18780Y-22973D01*
X22047Y-20472D02*
X22105Y-20415D01*
X24861D01*
X28321Y-16955D01*
X18110Y-20472D02*
X22035D01*
X28321Y-16955D02*
X28321D01*
X22035Y-20472D02*
X22093Y-20415D01*
X13659Y-16022D02*
X18110Y-20472D01*
X10259Y-14451D02*
Y-14435D01*
X28381Y-25091D02*
X38511Y-14961D01*
X31890Y-26378D02*
X33465Y-24803D01*
X-23766Y-41982D02*
X-14567D01*
X-25383Y-6012D02*
X-23622Y-7772D01*
X-23673Y-10284D02*
Y-9425D01*
X-23622Y-9373D01*
X-23673Y-10284D02*
X-23622Y-10335D01*
Y-9373D02*
Y-7772D01*
Y-26378D02*
Y-10335D01*
X-25383Y-6012D02*
Y-2312D01*
X-22160Y910D01*
Y1281D01*
X-22786Y1907D02*
X-22160Y1281D01*
X-26378Y-25591D02*
X-26199Y-25769D01*
X-30118Y-25591D02*
X-26378D01*
X-30709Y-29528D02*
X-28984Y-31253D01*
Y-32434D02*
X-28740Y-32677D01*
X-28984Y-32434D02*
Y-31253D01*
X-48819Y-29528D02*
X-30709D01*
X14064Y-29025D02*
X33355D01*
X7874Y-22835D02*
X14064Y-29025D01*
X7874Y-22835D02*
Y-20402D01*
X4691Y-20002D02*
X6299Y-21611D01*
Y-23622D02*
Y-21611D01*
Y-23622D02*
X13780Y-31102D01*
X36614Y-23622D02*
X42429Y-17808D01*
X33858Y-31102D02*
X36614Y-28346D01*
Y-23622D01*
X13780Y-31102D02*
X33858D01*
X6083Y-18610D02*
X7874Y-20402D01*
X13659Y-16022D02*
Y-15051D01*
X45846Y-17808D02*
X45937Y-17717D01*
X42429Y-17808D02*
X45846D01*
X-19374Y9405D02*
X-17443Y7475D01*
X-21846Y9405D02*
X-19374D01*
X-17443Y7475D02*
X-17218D01*
X-51968Y16868D02*
Y28909D01*
X-48201Y32677D01*
X-51968Y16868D02*
X-49668Y14567D01*
X38511Y-14961D02*
X49213D01*
X50580Y-16328D01*
Y-19892D02*
Y-16328D01*
X49750Y-20722D02*
X50580Y-19892D01*
X46868Y-20722D02*
X49750D01*
X45937Y-21654D02*
X46868Y-20722D01*
X-5512Y-45669D02*
X6693D01*
X11210Y-50187D01*
X10823Y-59330D02*
Y-51744D01*
Y-59330D02*
X11210Y-59717D01*
Y-60521D02*
Y-59717D01*
Y-51356D02*
Y-50187D01*
X10823Y-51744D02*
X11210Y-51356D01*
X-17129Y-36814D02*
X-16342D01*
X-14567Y-35039D01*
Y-29921D02*
X-11417Y-26772D01*
X-14567Y-35039D02*
Y-29921D01*
X-17323Y-37008D02*
X-17129Y-36814D01*
X-8661Y-42520D02*
X-5512Y-45669D01*
X-8661Y-42520D02*
Y-29541D01*
X-48201Y32677D02*
X-45937D01*
X-49668Y14567D02*
X-27647D01*
X-24847Y17367D01*
X-5713Y23809D02*
X-3299Y21394D01*
X-23436Y23809D02*
X-5713D01*
X-29528Y17717D02*
X-23436Y23809D01*
X-45543Y17717D02*
X-29528D01*
X-46331Y16929D02*
X-45543Y17717D01*
X-46331Y28740D02*
X-45400Y29671D01*
X-2277Y22786D02*
X-1907D01*
X-4688Y25197D02*
X-2277Y22786D01*
X-25591Y25197D02*
X-4688D01*
X-29134Y21654D02*
X-25591Y25197D01*
X-45543Y21654D02*
X-29134D01*
X-46331Y20866D02*
X-45543Y21654D01*
X-7821Y28006D02*
X-7087Y28740D01*
X-8215Y28006D02*
X-7821D01*
X-9736Y26484D02*
X-8215Y28006D01*
X-26124Y26484D02*
X-9736D01*
X-26230Y26378D02*
X-26124Y26484D01*
X-35630Y26378D02*
X-26230D01*
X-37992Y28740D02*
X-35630Y26378D01*
X-45937Y28740D02*
X-37992D01*
X-24847Y17367D02*
X-23530D01*
X-45937Y-25591D02*
X-30118D01*
Y-5906D01*
X-42913D02*
X-37598D01*
X-52756Y-15748D02*
X-42913Y-5906D01*
X-52756Y-25591D02*
Y-15748D01*
Y-25591D02*
X-48819Y-29528D01*
X-15543Y-22047D02*
X-11736D01*
X-18110Y-19480D02*
X-15543Y-22047D01*
X-11736D02*
X-9004Y-19316D01*
X18504Y32087D02*
X19541Y31049D01*
X22297D01*
X23622Y29724D01*
X18504Y32087D02*
Y32382D01*
X-9055Y-24409D02*
Y-24388D01*
X-4691Y-20024D01*
X-11417Y-26772D02*
Y-23945D01*
X-6083Y-18610D01*
X-4691Y-20024D02*
Y-20002D01*
X-9004Y-19316D02*
Y-18747D01*
X-7475Y-17218D01*
Y-17218D01*
X-22052Y9611D02*
X-21846Y9405D01*
X0Y-4176D02*
Y0D01*
X-8661Y-29541D02*
X-1907Y-22786D01*
X11651Y-13043D02*
X13659Y-15051D01*
X-6960Y0D02*
X-4176D01*
X-10506Y-28601D02*
X-3299Y-21394D01*
X0Y0D02*
Y12528D01*
Y0D02*
X1392D01*
X-4176D02*
X0D01*
X11651Y-13043D02*
Y-13043D01*
X-16116Y20892D02*
Y20892D01*
X20002Y-4691D02*
X20845Y-5533D01*
X8745Y-62986D02*
X11210Y-60521D01*
X5506Y-62986D02*
X8745D01*
X2500Y-59980D02*
X5506Y-62986D01*
X-10506Y-61225D02*
Y-28601D01*
Y-61225D02*
X-8745Y-62986D01*
X-5506D01*
X-2500Y-59980D01*
X34880Y-14215D02*
Y-10471D01*
X-19317Y17691D02*
X-19291Y17717D01*
X-7087Y28740D02*
X-4724D01*
X-3937D02*
Y31890D01*
X-4724Y28740D02*
X-4331Y29134D01*
X-7087Y31890D02*
X-3937D01*
X-4331Y29134D02*
X-3937Y28740D01*
X-7087Y31890D02*
X-5512Y30315D01*
X-5512D01*
X34672Y-10262D02*
X34880Y-10471D01*
X-20214Y20683D02*
X-16325D01*
X-23530Y17367D02*
X-20214Y20683D01*
X-51181Y64961D02*
X-52164Y64925D01*
X-53142Y64820D01*
X-54110Y64646D01*
X-55063Y64403D01*
X-55997Y64092D01*
X-56905Y63715D01*
X-57785Y63275D01*
X-58631Y62773D01*
X-59439Y62212D01*
X-60205Y61595D01*
X-60925Y60925D01*
X-61595Y60205D01*
X-62212Y59439D01*
X-62773Y58631D01*
X-63275Y57785D01*
X-63715Y56905D01*
X-64092Y55997D01*
X-64403Y55063D01*
X-64646Y54110D01*
X-64820Y53142D01*
X-64925Y52164D01*
X-64961Y51181D01*
X64961D02*
X64925Y52164D01*
X64820Y53142D01*
X64646Y54110D01*
X64403Y55063D01*
X64092Y55997D01*
X63715Y56905D01*
X63275Y57785D01*
X62773Y58631D01*
X62212Y59439D01*
X61595Y60205D01*
X60925Y60925D01*
X60205Y61595D01*
X59439Y62212D01*
X58631Y62773D01*
X57785Y63275D01*
X56905Y63715D01*
X55997Y64092D01*
X55063Y64403D01*
X54110Y64646D01*
X53142Y64820D01*
X52164Y64925D01*
X51181Y64961D01*
Y-64961D02*
X52164Y-64925D01*
X53142Y-64820D01*
X54110Y-64646D01*
X55063Y-64403D01*
X55997Y-64092D01*
X56905Y-63715D01*
X57785Y-63275D01*
X58631Y-62773D01*
X59439Y-62212D01*
X60205Y-61595D01*
X60925Y-60925D01*
X61595Y-60205D01*
X62212Y-59439D01*
X62773Y-58631D01*
X63275Y-57785D01*
X63715Y-56905D01*
X64092Y-55997D01*
X64403Y-55063D01*
X64646Y-54110D01*
X64820Y-53142D01*
X64925Y-52164D01*
X64961Y-51181D01*
X-64961D02*
X-64925Y-52164D01*
X-64820Y-53142D01*
X-64646Y-54110D01*
X-64403Y-55063D01*
X-64092Y-55997D01*
X-63715Y-56905D01*
X-63275Y-57785D01*
X-62773Y-58631D01*
X-62212Y-59439D01*
X-61595Y-60205D01*
X-60925Y-60925D01*
X-60205Y-61595D01*
X-59439Y-62212D01*
X-58631Y-62773D01*
X-57785Y-63275D01*
X-56905Y-63715D01*
X-55997Y-64092D01*
X-55063Y-64403D01*
X-54110Y-64646D01*
X-53142Y-64820D01*
X-52164Y-64925D01*
X-51181Y-64961D01*
Y-64961D02*
X51181D01*
X-64961Y-51181D02*
Y51181D01*
X64961Y-51181D02*
Y51181D01*
X-51181Y64961D02*
X51181D01*
D45*
X45937Y-17717D02*
D03*
Y-29528D02*
D03*
Y-25591D02*
D03*
Y-21654D02*
D03*
X-45937Y16929D02*
D03*
Y24803D02*
D03*
Y28740D02*
D03*
Y32677D02*
D03*
Y20866D02*
D03*
X45937Y26772D02*
D03*
Y22835D02*
D03*
Y18898D02*
D03*
Y30709D02*
D03*
X-45937Y-29528D02*
D03*
Y-17717D02*
D03*
Y-21654D02*
D03*
Y-25591D02*
D03*
D46*
X61193Y-34646D02*
D03*
Y-12598D02*
D03*
X-61193Y11811D02*
D03*
Y37795D02*
D03*
X61193Y35827D02*
D03*
Y13780D02*
D03*
X-61193Y-12598D02*
D03*
Y-34646D02*
D03*
D49*
X-32520Y9843D02*
D03*
X-35984D02*
D03*
D50*
X18504Y32382D02*
D03*
Y36909D02*
D03*
D52*
X-5512Y36614D02*
D03*
Y30315D02*
D03*
D55*
X-29134Y32441D02*
D03*
Y28976D02*
D03*
X-24409Y32441D02*
D03*
Y28976D02*
D03*
Y36063D02*
D03*
Y39528D02*
D03*
X-29134Y36063D02*
D03*
Y39528D02*
D03*
D62*
X6398Y37402D02*
D03*
X11713D02*
D03*
D66*
X34646Y37008D02*
X37402Y34252D01*
Y31496D02*
Y34252D01*
X34646Y37008D02*
X34646Y37008D01*
X29772D02*
X34646D01*
Y37008D02*
Y42520D01*
X34358Y52862D02*
Y54043D01*
X33161Y51665D02*
X34358Y52862D01*
X31980Y51665D02*
X33161D01*
X30906Y50591D02*
X31980Y51665D01*
X34358Y54043D02*
X35039Y54724D01*
X35285D01*
X30906Y50394D02*
Y50591D01*
X-25197Y35433D02*
X-24516D01*
X-17323D01*
X-24516D02*
X-24488Y35405D01*
Y32441D02*
Y35405D01*
X-29134Y36063D02*
X-24409D01*
X-19488Y40354D02*
Y41339D01*
Y40110D02*
Y40354D01*
X-24409Y39528D02*
X-20071D01*
X-23228Y39764D02*
Y45543D01*
X-20071Y39528D02*
X-19488Y40110D01*
X-29134Y39528D02*
X-24409D01*
X-24567Y36063D02*
X-24409D01*
X-25197Y35433D02*
X-24567Y36063D01*
X-32394Y36850D02*
X-31894Y36350D01*
X-29421D01*
X-29134Y36063D01*
X-32399Y36850D02*
X-32394D01*
X-37508Y41959D02*
X-32399Y36850D01*
X-29134Y32441D02*
Y36063D01*
X29831Y55405D02*
X30512Y54724D01*
X22238Y63236D02*
X29831Y55644D01*
X-8849Y63236D02*
X22238D01*
X30512Y54724D02*
X30807D01*
X29831Y55405D02*
Y55644D01*
X45783Y26926D02*
X45937Y26772D01*
X41972Y26926D02*
X45783D01*
X37402Y31496D02*
X41972Y26926D01*
X28437Y35573D02*
X29772Y36908D01*
X25477Y10176D02*
Y10186D01*
X20002Y4701D02*
X25477Y10176D01*
X20002Y4691D02*
Y4701D01*
X18610Y6083D02*
X23193Y10666D01*
Y11446D01*
X23341Y11594D01*
X37402Y14173D02*
Y19890D01*
X36228Y21063D02*
X37402Y19890D01*
X36220Y21063D02*
X36228D01*
X32079Y19102D02*
Y19890D01*
Y19102D02*
X35039Y16142D01*
X30709Y21063D02*
X30906D01*
X32079Y19890D01*
X38976Y-1969D02*
X41929D01*
X36220Y26181D02*
X36417D01*
X37697Y27461D01*
X31693Y33465D02*
X37697Y27461D01*
X38484Y26673D01*
Y26280D02*
Y26673D01*
X28437Y31356D02*
Y35573D01*
Y31356D02*
X29339Y30455D01*
Y27354D02*
X30512Y26181D01*
X29339Y27354D02*
Y30455D01*
X30512Y26181D02*
X30709D01*
X47047Y-2165D02*
Y-1969D01*
X48221Y-3339D02*
X48601D01*
X48806Y-3543D02*
X60630D01*
X47047Y-2165D02*
X48221Y-3339D01*
X48601D02*
X48806Y-3543D01*
X59555Y-2665D02*
X60433Y-3543D01*
X59358Y-2468D02*
X59555Y-2665D01*
X38484Y26673D02*
X41642Y23516D01*
X60433Y-3543D02*
X60630D01*
X59358Y-2468D02*
Y1163D01*
X45937Y14585D02*
Y18898D01*
Y14585D02*
X59358Y1163D01*
X45256Y23516D02*
X45937Y22835D01*
X41642Y23516D02*
X45256D01*
X31496Y33465D02*
X31693D01*
X7829Y23157D02*
Y23195D01*
X8618Y24193D02*
Y24847D01*
X7874Y23449D02*
X8618Y24193D01*
X4691Y20019D02*
X7829Y23157D01*
X7874Y22839D02*
Y23449D01*
X4691Y20002D02*
Y20019D01*
X15649Y15342D02*
X16612D01*
X10892Y22397D02*
X10979Y22485D01*
X10104Y22397D02*
X10892D01*
X0Y12528D02*
X6083Y18610D01*
X-29134Y32441D02*
X-24488D01*
X-33858Y-14173D02*
Y-5906D01*
Y-15748D02*
Y-14173D01*
X6083Y18610D02*
X8522Y21049D01*
X8757D01*
X10104Y22397D01*
X10892D02*
X11067D01*
Y23360D01*
X11631Y23924D01*
Y25436D01*
X8653Y28413D02*
X11631Y25436D01*
X8653Y28413D02*
Y29535D01*
X6496Y31693D02*
X8653Y29535D01*
X6496Y31693D02*
Y31890D01*
X-15906Y11713D02*
X-14451Y10259D01*
X-17971Y12948D02*
X-16736Y11713D01*
X-15906D01*
X-18548Y12948D02*
X-17971D01*
X-14451Y10259D02*
X-14435D01*
X-4176Y0D01*
X-16098Y15222D02*
Y15398D01*
Y15222D02*
X-14497Y13621D01*
Y13122D02*
Y13621D01*
Y13122D02*
X-13043Y11667D01*
Y11651D02*
Y11667D01*
X-38473Y41842D02*
X-37624D01*
X-37508Y41959D01*
X-38583Y41732D02*
X-38473Y41842D01*
X-37508Y41959D02*
Y50466D01*
X-35899Y52075D01*
X-30243D01*
X-27847Y49678D01*
Y46224D02*
Y49678D01*
Y46224D02*
X-27165Y45543D01*
X-31102D02*
Y50000D01*
X-35039D02*
X-35039Y50000D01*
Y45543D02*
Y50000D01*
X-22547Y45276D02*
X-19488D01*
X-22815Y45543D02*
X-22547Y45276D01*
X-23228Y45543D02*
X-22815D01*
X-19488Y41339D02*
Y45276D01*
X-14469D01*
X-14075Y44882D01*
X-10524Y42724D02*
Y44201D01*
X-9843Y44882D01*
X-9547D01*
X-12008Y41240D02*
X-10524Y42724D01*
X-12008Y40354D02*
Y41240D01*
X-12028Y60057D02*
X-8849Y63236D01*
X-12028Y53720D02*
Y60057D01*
X-15354Y50394D02*
X-12028Y53720D01*
X-33858Y-14173D02*
X-33858Y-14173D01*
X-38583Y-14173D02*
X-33858D01*
X-45937Y-17717D02*
X-45276Y-17055D01*
Y-13386D01*
X-47244Y-17036D02*
Y-13386D01*
X-46563Y-17717D02*
X-45937D01*
X-47244Y-17036D02*
X-46563Y-17717D01*
X-47244Y-13386D02*
X-45276D01*
X46618Y-28846D02*
X49352D01*
X50640Y-27559D01*
Y-26919D02*
X50787Y-26772D01*
X50640Y-27559D02*
Y-26919D01*
X45937Y-29528D02*
X46618Y-28846D01*
X44067Y-29528D02*
X45937D01*
X50640Y-23770D02*
Y-22982D01*
X50787Y-22835D01*
X49500Y-24909D02*
X50640Y-23770D01*
X46618Y-24909D02*
X49500D01*
X45937Y-25591D02*
X46618Y-24909D01*
X41339Y-32283D02*
X43386Y-30236D01*
Y-30209D02*
X44067Y-29528D01*
X43386Y-30236D02*
Y-30209D01*
X-45937Y24803D02*
X-40945D01*
X41339Y-35827D02*
Y-32283D01*
X-18460Y-12248D02*
Y-11517D01*
X-50787Y-21654D02*
X-50787Y-21654D01*
X-45937D01*
X-45937Y-21654D01*
X31470Y-7061D02*
X31496Y-7087D01*
X31102Y-11953D02*
Y-9923D01*
X31470Y-7061D02*
X31679Y-7270D01*
Y-9346D02*
Y-7270D01*
X31102Y-9923D02*
X31679Y-9346D01*
X31261Y-6852D02*
X31470Y-7061D01*
X25138Y-4753D02*
X25852Y-5468D01*
X26772Y-5512D02*
X26816Y-5468D01*
X22865Y-4753D02*
X25138D01*
X25852Y-5468D02*
X26816D01*
X-11855Y-18941D02*
X-11767D01*
X-12730D02*
X-11855D01*
X-11767D02*
X-11373Y-18548D01*
X-14232Y-20079D02*
X-12992D01*
X-21474Y-12837D02*
X-14232Y-20079D01*
X-12992D02*
X-11855Y-18941D01*
X-21474Y-12837D02*
Y-11326D01*
X32120Y3221D02*
Y3221D01*
Y3221D02*
X36073Y-732D01*
Y-2608D02*
Y-732D01*
Y-2608D02*
X36220Y-2756D01*
X26898Y6923D02*
X28418D01*
X24888Y4913D02*
X26898Y6923D01*
X23025Y4913D02*
X24888D01*
X21411Y3299D02*
X23025Y4913D01*
X21394Y3299D02*
X21411D01*
X26728Y13342D02*
X27691D01*
X28469Y11601D02*
X33095D01*
X26728Y13342D02*
X28469Y11601D01*
X33095D02*
X33234Y11740D01*
X26728Y13342D02*
X26728D01*
X-3551Y48929D02*
X2500Y54980D01*
X-4614Y48929D02*
X-3551D01*
X-4724Y48819D02*
X-4614Y48929D01*
X-8268Y49213D02*
X-8268D01*
X-2500Y54980D01*
X2362Y-48425D02*
X2431Y-48494D01*
Y-54911D02*
Y-48494D01*
X-2431Y-54911D02*
Y-48494D01*
X-2362Y-48425D01*
X2431Y-54911D02*
X2500Y-54980D01*
X-2500D02*
X-2431Y-54911D01*
X-54724Y16535D02*
X-50787Y12598D01*
X-34479D01*
X-54724Y16535D02*
Y30315D01*
X-50000Y35039D01*
X-49628D01*
X-49521Y35146D01*
X-37508D01*
X-34479Y12598D02*
X-33201Y11321D01*
X-32520Y9843D02*
X-31839Y9161D01*
X-33201Y10524D02*
X-32520Y9843D01*
X-39764Y-787D02*
X-37402D01*
X-34539Y-5224D02*
Y-3650D01*
Y-5224D02*
X-33858Y-5906D01*
X-37402Y-787D02*
X-34539Y-3650D01*
X-41339Y787D02*
X-39764Y-787D01*
X-41339Y787D02*
Y7480D01*
X-38976Y9843D01*
X-35984D01*
X-33201Y10524D02*
Y11321D01*
X-30118Y5118D02*
Y5906D01*
X-31839Y7626D02*
X-30118Y5906D01*
X-31839Y7626D02*
Y9161D01*
X-31894Y29531D02*
X-29894D01*
X-37508Y35146D02*
X-31894Y29531D01*
X-29894D02*
X-29134Y28772D01*
Y28976D02*
X-24409D01*
X-29134Y28772D02*
Y28976D01*
Y28740D02*
Y28772D01*
X-45937Y-21654D02*
X-39764D01*
X-33858Y-15748D01*
X13819Y30520D02*
X21167Y23172D01*
X24409Y-1575D02*
Y-1575D01*
X23440Y-2544D02*
X24409Y-1575D01*
X23423Y-2544D02*
X23440D01*
X22786Y-1907D02*
X23423Y-2544D01*
X24553Y13398D02*
X26672D01*
X23778Y14173D02*
X24553Y13398D01*
X26672D02*
X26728Y13342D01*
X23622Y14173D02*
X23778D01*
X26882Y18088D02*
Y18394D01*
X26772Y18504D02*
X26882Y18394D01*
Y18088D02*
X29178Y15792D01*
X11713Y31594D02*
Y31988D01*
Y31594D02*
X12787Y30520D01*
X13819D01*
X21167Y11424D02*
Y23172D01*
X17218Y7475D02*
X21167Y11424D01*
X28214Y15792D02*
X29178D01*
X29233Y15736D02*
X30197D01*
X29178Y15792D02*
X29233Y15736D01*
X18110Y12992D02*
X18110Y12992D01*
X18011Y12893D02*
X18110Y12992D01*
X18110Y12992D02*
X18122Y13004D01*
X17085Y12893D02*
X18011D01*
X14451Y10259D02*
X17085Y12893D01*
X14435Y10259D02*
X14451D01*
X18110Y12992D02*
X18154Y12948D01*
X15649Y15342D02*
X15704Y15398D01*
X15649Y14257D02*
Y15342D01*
X1181Y32283D02*
X1337D01*
X1730Y31890D02*
X6496D01*
X1337Y32283D02*
X1730Y31890D01*
X6398Y31988D02*
Y37402D01*
Y31988D02*
X6496Y31890D01*
X11713Y31988D02*
Y37402D01*
X11614Y31890D02*
X11713Y31988D01*
Y37402D02*
X11811Y37500D01*
Y42717D01*
X7500Y59980D02*
X12598Y54882D01*
X11811Y47835D02*
X12598Y48622D01*
Y54882D01*
X35549Y-6809D02*
X41947D01*
X42618Y-7480D01*
X29281Y-541D02*
X35549Y-6809D01*
X28494Y-541D02*
X29281D01*
X28346Y-394D02*
X28494Y-541D01*
X47146Y-7480D02*
X47441D01*
X52559D02*
X52756Y-7283D01*
X47441Y-7480D02*
X52559D01*
X23622Y37008D02*
Y37205D01*
X29163Y-6852D02*
X31261D01*
X27779Y-5468D02*
X29163Y-6852D01*
X26816Y-5468D02*
X27779D01*
X45669Y33465D02*
X48031D01*
X45669Y33309D02*
Y33465D01*
Y33309D02*
X45937Y33041D01*
Y30709D02*
Y33041D01*
X48031Y31390D02*
Y33465D01*
X47350Y30709D02*
X48031Y31390D01*
X45937Y30709D02*
X47350D01*
X-24409Y28976D02*
X-20071D01*
X-24409Y28740D02*
Y28976D01*
X-19488Y29559D02*
Y29724D01*
X-20071Y28976D02*
X-19488Y29559D01*
X-24488Y32441D02*
X-24409D01*
X-11373Y-18548D02*
Y-18372D01*
X-8867Y-15826D02*
Y-15826D01*
X-10923Y-17883D02*
X-8867Y-15826D01*
X-10923Y-17921D02*
Y-17883D01*
X-11373Y-18372D02*
X-10923Y-17921D01*
X-14161Y-16436D02*
X-13198D01*
X-12651Y-15889D01*
X-11730D01*
X-10275Y-14435D01*
X-10259D01*
X-20910Y-10762D02*
Y-9799D01*
X-21474Y-11326D02*
X-20910Y-10762D01*
X1774Y22653D02*
X1907Y22786D01*
X394Y24016D02*
X1757Y22653D01*
X1774D01*
X3937Y25435D02*
Y25591D01*
X3299Y21411D02*
X4753Y22865D01*
X3937Y25435D02*
X4753Y24619D01*
Y22865D02*
Y24619D01*
X1392Y0D02*
X13043Y-11651D01*
X15447Y-14055D01*
X13043Y11651D02*
X15649Y14257D01*
X21394Y-3299D02*
X21411D01*
X-20910Y-9799D02*
X-20854Y-9743D01*
X14435Y-10275D02*
Y-10259D01*
X-20854Y-9743D02*
X-19487D01*
X21411Y-3299D02*
X22865Y-4753D01*
X14435Y-10275D02*
X18460Y-14301D01*
X-18460Y-11517D02*
X-15826Y-8883D01*
Y-8867D01*
X3299Y21394D02*
Y21411D01*
X-15826Y-8867D02*
X-6960Y0D01*
X1392D02*
X13043Y11651D01*
X-10259Y-14435D02*
X0Y-4176D01*
X-19487Y-9743D02*
X-17218Y-7475D01*
X15311Y0D02*
X20002Y-4691D01*
X24310Y-7862D02*
X24366Y-7918D01*
X23174Y-7862D02*
X24310D01*
X20845Y-5533D02*
X23174Y-7862D01*
X19947Y-17367D02*
X20910D01*
X19383Y-17930D02*
X19947Y-17367D01*
X17871Y-17930D02*
X19383D01*
X15447Y-15506D02*
X17871Y-17930D01*
X15447Y-15506D02*
Y-14055D01*
X18460Y-14917D02*
Y-14301D01*
X-14217Y-16492D02*
X-14161Y-16436D01*
X-16880Y29724D02*
X-12049Y34555D01*
X-7571D01*
X-5512Y36614D01*
X-19488Y29724D02*
X-16880D01*
X-17323Y35433D02*
X-15748Y37008D01*
Y40354D01*
X31102Y-11953D02*
X31731Y-12582D01*
X31522Y-13754D02*
X31731Y-13545D01*
Y-12582D01*
D67*
X17323Y-45669D02*
D03*
X37008D02*
D03*
D68*
X13386Y-56299D02*
D03*
X40945D02*
D03*
D69*
X7500Y54980D02*
D03*
Y59980D02*
D03*
X2500Y54980D02*
D03*
X-2500D02*
D03*
X-7500D02*
D03*
X2500Y59980D02*
D03*
X-2500D02*
D03*
X-7500D02*
D03*
X7500Y-59980D02*
D03*
X2500D02*
D03*
X-2500D02*
D03*
X7500Y-54980D02*
D03*
X2500D02*
D03*
X-2500D02*
D03*
X-7500Y-59980D02*
D03*
Y-54980D02*
D03*
D70*
X51181Y-51181D02*
D03*
X-51181D02*
D03*
X51181Y51181D02*
D03*
X-51181D02*
D03*
D71*
X-9449Y-3732D02*
D03*
X9843Y-3543D02*
D03*
X13386Y0D02*
D03*
X4331Y-10630D02*
D03*
X-7480Y6693D02*
D03*
X7087Y0D02*
D03*
X-6693D02*
D03*
X38386Y50394D02*
D03*
X18504Y37008D02*
D03*
X25477Y10186D02*
D03*
X23341Y11594D02*
D03*
X7829Y23195D02*
D03*
X9624Y19057D02*
D03*
X13037Y18907D02*
D03*
X-16098Y15398D02*
D03*
X-12205Y18898D02*
D03*
X-8661Y21885D02*
D03*
X27586Y-10468D02*
D03*
X27165Y-12992D02*
D03*
X25545Y-15354D02*
D03*
X22093Y-20415D02*
D03*
X22022Y-22973D02*
D03*
X-5118Y-33071D02*
D03*
X-26378Y-11024D02*
D03*
X-27953Y-12205D02*
D03*
Y-9843D02*
D03*
X50787Y-26772D02*
D03*
X-26199Y-25769D02*
D03*
X-28740Y-32677D02*
D03*
X8268Y-29134D02*
D03*
X12598Y-24016D02*
D03*
X50787Y-22835D02*
D03*
X-40945Y24803D02*
D03*
X-18460Y-12248D02*
D03*
X-50787Y-21654D02*
D03*
X31496Y-7087D02*
D03*
X26772Y-5512D02*
D03*
X29716Y-41133D02*
D03*
X27165Y-41339D02*
D03*
X22047Y-49606D02*
D03*
X24803Y-49425D02*
D03*
X-12644Y-33858D02*
D03*
X17973Y23293D02*
D03*
X24409Y-1575D02*
D03*
X-28921Y-59229D02*
D03*
X-18110Y-19480D02*
D03*
X23622Y14173D02*
D03*
X26772Y18504D02*
D03*
X36220Y-2756D02*
D03*
X1181Y32283D02*
D03*
X53543Y0D02*
D03*
X-29134Y28740D02*
D03*
X-24409D02*
D03*
X-9055Y-24409D02*
D03*
X-12598Y-30709D02*
D03*
X-34172Y-52067D02*
D03*
X-15354Y50394D02*
D03*
X394Y24016D02*
D03*
X3937Y25591D02*
D03*
X28346Y-394D02*
D03*
X-22052Y9611D02*
D03*
X18460Y-14917D02*
D03*
X-11811Y21654D02*
D03*
X23622Y37008D02*
D03*
X48031Y33465D02*
D03*
X45669D02*
D03*
X18110Y12992D02*
D03*
X41339Y-35827D02*
D03*
X-14161Y-16436D02*
D03*
X-18504Y-24409D02*
D03*
X-17480Y-26378D02*
D03*
X-11767Y-18941D02*
D03*
X-22530Y-38278D02*
D03*
X-31102Y-47244D02*
D03*
X9291Y-37598D02*
D03*
X2757Y-37698D02*
D03*
X0Y-12992D02*
D03*
X-7087Y31890D02*
D03*
Y28740D02*
D03*
X-3937D02*
D03*
Y31890D02*
D03*
X-19488Y41339D02*
D03*
X31348Y41191D02*
D03*
X28161D02*
D03*
X24974D02*
D03*
X-22047Y-58268D02*
D03*
X-19291Y17717D02*
D03*
X1575Y-32480D02*
D03*
X-12992Y0D02*
D03*
X0Y13386D02*
D03*
Y0D02*
D03*
X-17323Y-37008D02*
D03*
X-14016Y-26378D02*
D03*
D72*
X-29134Y39528D02*
D03*
X-28661Y-1181D02*
D03*
X37402Y14173D02*
D03*
X35039Y16142D02*
D03*
X38976Y-1969D02*
D03*
X-38583Y41732D02*
D03*
X-31102Y50000D02*
D03*
X-35039D02*
D03*
X-33071Y3150D02*
D03*
Y5118D02*
D03*
X-27362Y3543D02*
D03*
X-38583Y-14173D02*
D03*
X-47244Y-13386D02*
D03*
X-45276D02*
D03*
X-14567Y-41982D02*
D03*
X33355Y-29025D02*
D03*
X33465Y-24803D02*
D03*
X-4724Y48819D02*
D03*
X-8268Y49213D02*
D03*
X2362Y-48425D02*
D03*
X-2362D02*
D03*
D74*
X30709Y26181D02*
D03*
Y21063D02*
D03*
X36220Y26181D02*
D03*
Y21063D02*
D03*
X11811Y47835D02*
D03*
Y42717D02*
D03*
D75*
X47047Y-1969D02*
D03*
X41929D02*
D03*
X11614Y31890D02*
D03*
X6496D02*
D03*
D76*
X20002Y4691D02*
D03*
X18610Y6083D02*
D03*
X-22786Y-1907D02*
D03*
X-21394Y-3299D02*
D03*
X-20002Y-4691D02*
D03*
X-18610Y-6083D02*
D03*
X-17218Y-7475D02*
D03*
X-15826Y-8867D02*
D03*
X-14435Y-10259D02*
D03*
X-13043Y-11651D02*
D03*
X-11651Y-13043D02*
D03*
X-10259Y-14435D02*
D03*
X-8867Y-15826D02*
D03*
X-7475Y-17218D02*
D03*
X-6083Y-18610D02*
D03*
X-4691Y-20002D02*
D03*
X-3299Y-21394D02*
D03*
X-1907Y-22786D02*
D03*
X22786Y1907D02*
D03*
X21394Y3299D02*
D03*
X17218Y7475D02*
D03*
X15826Y8867D02*
D03*
X14435Y10259D02*
D03*
X13043Y11651D02*
D03*
X11651Y13043D02*
D03*
X10259Y14435D02*
D03*
X8867Y15826D02*
D03*
X7475Y17218D02*
D03*
X6083Y18610D02*
D03*
X4691Y20002D02*
D03*
X3299Y21394D02*
D03*
X1907Y22786D02*
D03*
D77*
X-31102Y45543D02*
D03*
X-27165D02*
D03*
X-23228D02*
D03*
X-35039D02*
D03*
D78*
X-40157Y60799D02*
D03*
X-18110D02*
D03*
D79*
X36937Y8037D02*
D03*
X33234Y11740D02*
D03*
X32120Y3221D02*
D03*
X28418Y6923D02*
D03*
D80*
X-37598Y-5906D02*
D03*
X-33858D02*
D03*
X-30118D02*
D03*
X-37598Y5118D02*
D03*
X-30118D02*
D03*
D81*
X23622Y29724D02*
D03*
Y37205D02*
D03*
X31496Y33465D02*
D03*
X52756Y-7283D02*
D03*
Y197D02*
D03*
X60630Y-3543D02*
D03*
D82*
X26728Y13342D02*
D03*
X29178Y15792D02*
D03*
X26816Y-5468D02*
D03*
X24366Y-7918D02*
D03*
X-18548Y12948D02*
D03*
X-16098Y15398D02*
D03*
D83*
X0Y0D02*
D03*
D84*
X1907Y-22786D02*
D03*
X3299Y-21394D02*
D03*
X4691Y-20002D02*
D03*
X6083Y-18610D02*
D03*
X7475Y-17218D02*
D03*
X8867Y-15826D02*
D03*
X10259Y-14435D02*
D03*
X11651Y-13043D02*
D03*
X13043Y-11651D02*
D03*
X14435Y-10259D02*
D03*
X15826Y-8867D02*
D03*
X17218Y-7475D02*
D03*
X18610Y-6083D02*
D03*
X20002Y-4691D02*
D03*
X21394Y-3299D02*
D03*
X22786Y-1907D02*
D03*
X-1907Y22786D02*
D03*
X-3299Y21394D02*
D03*
X-4691Y20002D02*
D03*
X-6083Y18610D02*
D03*
X-7475Y17218D02*
D03*
X-8867Y15826D02*
D03*
X-10259Y14435D02*
D03*
X-11651Y13043D02*
D03*
X-13043Y11651D02*
D03*
X-14435Y10259D02*
D03*
X-15826Y8867D02*
D03*
X-17218Y7475D02*
D03*
X-18610Y6083D02*
D03*
X-20002Y4691D02*
D03*
X-21394Y3299D02*
D03*
X-22786Y1907D02*
D03*
D85*
X35335Y54724D02*
D03*
X30807D02*
D03*
X47146Y-7480D02*
D03*
X42618D02*
D03*
X-14075Y44882D02*
D03*
X-9547D02*
D03*
D86*
X20910Y-17367D02*
D03*
X18460Y-14917D02*
D03*
X18154Y12948D02*
D03*
X15704Y15398D02*
D03*
X-24847Y17367D02*
D03*
X-22397Y14917D02*
D03*
X-18460Y-12248D02*
D03*
X-20910Y-9799D02*
D03*
X-14217Y-16492D02*
D03*
X-11767Y-18941D02*
D03*
X11067Y22397D02*
D03*
X8618Y24847D02*
D03*
D87*
X34646Y42520D02*
D03*
X38386Y50394D02*
D03*
X30906D02*
D03*
D88*
X-19488Y40354D02*
D03*
X-15748D02*
D03*
X-12008D02*
D03*
Y29724D02*
D03*
X-19488D02*
D03*
D89*
X31470Y-7061D02*
D03*
X34672Y-10262D02*
D03*
D90*
X31522Y-13754D02*
D03*
X28321Y-16955D02*
D03*
X-19317Y17691D02*
D03*
X-16116Y20892D02*
D03*
M02*
