G04*
G04 #@! TF.GenerationSoftware,Altium Limited,Altium Designer,22.11.1 (43)*
G04*
G04 Layer_Physical_Order=1*
G04 Layer_Color=255*
%FSLAX25Y25*%
%MOIN*%
G70*
G04*
G04 #@! TF.SameCoordinates,968F8FA3-88DA-4AFC-830A-3CF0B6850B21*
G04*
G04*
G04 #@! TF.FilePolarity,Positive*
G04*
G01*
G75*
%ADD16C,0.01000*%
G04:AMPARAMS|DCode=26|XSize=51.18mil|YSize=51.18mil|CornerRadius=12.8mil|HoleSize=0mil|Usage=FLASHONLY|Rotation=0.000|XOffset=0mil|YOffset=0mil|HoleType=Round|Shape=RoundedRectangle|*
%AMROUNDEDRECTD26*
21,1,0.05118,0.02559,0,0,0.0*
21,1,0.02559,0.05118,0,0,0.0*
1,1,0.02559,0.01280,-0.01280*
1,1,0.02559,-0.01280,-0.01280*
1,1,0.02559,-0.01280,0.01280*
1,1,0.02559,0.01280,0.01280*
%
%ADD26ROUNDEDRECTD26*%
%ADD27R,0.01772X0.00984*%
%ADD28R,0.00984X0.01772*%
%ADD29R,0.02520X0.02362*%
%ADD30R,0.02362X0.02520*%
%ADD31R,0.02362X0.02953*%
%ADD32R,0.03937X0.02165*%
%ADD33R,0.02953X0.02362*%
%ADD34R,0.00394X0.00394*%
%ADD35R,0.01968X0.01968*%
%ADD36C,0.00500*%
%ADD37C,0.01968*%
G36*
X-5315Y1378D02*
X-7598D01*
Y2362D01*
X-7283D01*
Y3347D01*
X-5315D01*
Y1378D01*
D02*
G37*
D16*
X5512Y-23400D02*
Y-23138D01*
X3150Y-26378D02*
Y-25762D01*
X5512Y-23400D01*
X-2547Y-21839D02*
X-2362Y-21654D01*
X-2547Y-25776D02*
Y-21839D01*
X-3150Y-26378D02*
X-2547Y-25776D01*
X-6035Y-21547D02*
X-5354Y-20866D01*
X-9449Y-26378D02*
X-6035Y-22964D01*
Y-21547D01*
X11681Y-20185D02*
X12362Y-20866D01*
Y-20787D01*
X13043Y-20106D01*
X15012D01*
X-17276Y-16339D02*
X-16724D01*
X-16142Y-15756D02*
Y-13780D01*
X-16724Y-16339D02*
X-16142Y-15756D01*
X-12205Y-20866D02*
Y-14961D01*
X-9843Y-12598D01*
X-11024Y-12205D02*
X-10838Y-12390D01*
X-10051D02*
X-9843Y-12598D01*
X-10838Y-12390D02*
X-10051D01*
X18395Y-11220D02*
X19870Y-12695D01*
Y-16124D02*
Y-12695D01*
X18801Y-17193D02*
X19870Y-16124D01*
X-4707Y8846D02*
X1713D01*
Y6339D02*
Y8846D01*
X-5776Y7777D02*
X-4707Y8846D01*
X14173Y-11220D02*
X18395D01*
X18004Y-17193D02*
X18801D01*
X14173Y-11220D02*
X14181Y-11228D01*
X6496Y-15157D02*
X9646D01*
Y-12992D02*
Y-10531D01*
X2362Y-20866D02*
X8898D01*
X787Y-19291D02*
X2362Y-20866D01*
X787Y-15187D02*
X2065Y-13909D01*
X2862D01*
X787Y-19291D02*
Y-15187D01*
X4224Y-13909D02*
X5248D01*
X3543Y-13228D02*
X3583Y-13189D01*
X7087D01*
X5248Y-13909D02*
X6496Y-15157D01*
X2862Y-13909D02*
X3543Y-13228D01*
X4224Y-13909D01*
X11614Y-19521D02*
X11681Y-19587D01*
Y-20185D02*
Y-19587D01*
X7079Y-17118D02*
X7087Y-17126D01*
X3543Y-16693D02*
X3968Y-17118D01*
X7079D01*
X7087Y-13189D02*
X9449D01*
X10630Y-14173D02*
Y-13189D01*
X9646Y-17815D02*
X11614D01*
X9646Y-15157D02*
X10630Y-14173D01*
Y-13189D02*
X14173D01*
X9449D02*
X10630D01*
X9449D02*
X9646Y-12992D01*
X14173Y-13189D02*
X14181Y-13197D01*
X11614Y-19521D02*
Y-17815D01*
X17244Y-17874D02*
X17323D01*
X18004Y-17193D01*
X17323Y-14409D02*
X18004Y-15090D01*
X17244Y-14409D02*
X17323D01*
Y-17874D02*
X17354Y-17906D01*
X15012Y-20106D02*
X17244Y-17874D01*
X16032Y-13197D02*
X17244Y-14409D01*
X14181Y-13197D02*
X16032D01*
X1713Y8846D02*
X8132D01*
X1673Y6299D02*
X1713Y6339D01*
X8132Y8846D02*
X11417Y5561D01*
X-6890Y-8858D02*
X-6307Y-9441D01*
X-5175D01*
X-4504Y-10112D01*
X-5512Y-16831D02*
X-5354Y-16988D01*
X-17276Y-16339D02*
X-16693Y-16921D01*
X-9843Y-12598D02*
X-6890D01*
X-5512Y-16831D02*
Y-16339D01*
X-5354Y-20866D02*
Y-16988D01*
X-6890Y-16339D02*
X-5512D01*
X-12205Y-20866D02*
X-8819D01*
X-17520Y-16339D02*
X-17276D01*
X-13228Y-20866D02*
X-12205D01*
X-16693D02*
Y-16921D01*
X-5512Y-16339D02*
X-2461D01*
X-2362Y-16437D01*
X-3043Y-11228D02*
X-2362Y-11909D01*
X-3043Y-11228D02*
Y-10698D01*
X-3629Y-10112D02*
X-3043Y-10698D01*
X-4504Y-10112D02*
X-3629D01*
X-13228Y-3307D02*
X-11024D01*
X-14173Y-2362D02*
Y1969D01*
X-10709Y-3622D02*
X-6614D01*
X-14173Y-2362D02*
X-13228Y-3307D01*
X-11024D02*
X-10709Y-3622D01*
X11417Y1476D02*
X15354D01*
X-14173Y1969D02*
X-9843Y6299D01*
X-6457D01*
X11417Y1476D02*
Y5561D01*
X6299Y-3937D02*
X10736D01*
X11417Y-3256D01*
Y-3051D01*
X0Y-5906D02*
Y-3937D01*
X-11024Y158D02*
X-10472Y-394D01*
X-6693D02*
X-6299Y-787D01*
X-10472Y-394D02*
X-6693D01*
X-6299Y-787D02*
X-3150D01*
X-6614Y-3622D02*
X-6299Y-3937D01*
X-6457Y6299D02*
X-5776Y6980D01*
Y7777D01*
X6250Y2411D02*
Y6250D01*
Y2411D02*
X6299Y2362D01*
X6201Y6299D02*
X6250Y6250D01*
X0Y-787D02*
Y2362D01*
X3150Y-787D02*
Y2362D01*
X0Y-787D02*
X3150D01*
X6299D01*
X-3150D02*
X0D01*
X-3071Y6221D02*
X-2992Y6299D01*
X-6457D02*
X-6299Y6142D01*
Y2362D02*
Y6142D01*
X-3071Y2441D02*
Y6221D01*
X-3150Y-787D02*
Y2362D01*
X-3150Y2362D02*
X-3071Y2441D01*
X-3150Y2362D02*
X-3150Y2362D01*
X-21260Y10236D02*
X21260D01*
X-21260Y-29921D02*
Y10236D01*
X21260Y-29921D02*
Y10236D01*
X-21260Y-29921D02*
X21260D01*
D26*
X-9449Y-26378D02*
D03*
X9449D02*
D03*
X3150D02*
D03*
X-3150D02*
D03*
D27*
X7087Y-11220D02*
D03*
Y-13189D02*
D03*
Y-15157D02*
D03*
Y-17126D02*
D03*
X14173D02*
D03*
Y-15157D02*
D03*
Y-13189D02*
D03*
Y-11220D02*
D03*
D28*
X9646Y-17815D02*
D03*
X11614D02*
D03*
Y-10531D02*
D03*
X9646D02*
D03*
D29*
X3543Y-13228D02*
D03*
Y-16693D02*
D03*
X17323Y-14409D02*
D03*
Y-17874D02*
D03*
X-11024Y-3307D02*
D03*
Y158D02*
D03*
D30*
X8898Y-20866D02*
D03*
X12362D02*
D03*
X-8819Y-20866D02*
D03*
X-5354D02*
D03*
X-13228D02*
D03*
X-16693D02*
D03*
X-6457Y6299D02*
D03*
X-2992D02*
D03*
D31*
X-2362Y-16437D02*
D03*
Y-11909D02*
D03*
X11417Y1476D02*
D03*
Y-3051D02*
D03*
X15354Y1476D02*
D03*
Y-3051D02*
D03*
D32*
X-17520Y-16339D02*
D03*
Y-8858D02*
D03*
X-6890D02*
D03*
Y-12598D02*
D03*
Y-16339D02*
D03*
D33*
X1673Y6299D02*
D03*
X6201D02*
D03*
X11122Y5906D02*
D03*
X15650D02*
D03*
D34*
X-6299Y2362D02*
D03*
D35*
X-3150D02*
D03*
X0D02*
D03*
X3150D02*
D03*
X6299D02*
D03*
Y-787D02*
D03*
Y-3937D02*
D03*
X3150D02*
D03*
X0D02*
D03*
X-3150D02*
D03*
X-6299D02*
D03*
Y-787D02*
D03*
D36*
X12205Y-24179D02*
X13105D01*
X9449Y-26378D02*
X10006D01*
X12205Y-24179D01*
X13105D02*
X13386Y-23898D01*
X-3150Y-5906D02*
X-1128Y-7927D01*
X7087D01*
X14424Y-6442D02*
X16786D01*
X17573Y-5655D01*
Y4278D01*
X15945Y5906D02*
X17573Y4278D01*
X15650Y5906D02*
X15945D01*
X11614Y-10138D02*
X12537Y-9215D01*
X14511D01*
X14776Y-8949D01*
X7087Y-7927D02*
X12939D01*
X14424Y-6442D01*
X7087Y-11220D02*
Y-7927D01*
X11614Y-10531D02*
Y-10138D01*
X15354Y-3347D02*
Y-3051D01*
X53Y-5959D02*
X12742D01*
X15354Y-3347D01*
X0Y-5906D02*
X53Y-5959D01*
D37*
X13386Y-23898D02*
D03*
X5512Y-23138D02*
D03*
X-2362Y-21654D02*
D03*
X12362Y-20866D02*
D03*
X15354Y1575D02*
D03*
X-16142Y-13780D02*
D03*
X-8819Y-20866D02*
D03*
X-13228D02*
D03*
X-11024Y-12205D02*
D03*
X14776Y-8949D02*
D03*
X17323Y-17874D02*
D03*
Y-14409D02*
D03*
X3543Y-13228D02*
D03*
X15354Y-3150D02*
D03*
X-11024Y-3307D02*
D03*
X-6457Y6299D02*
D03*
X1673D02*
D03*
X11417Y1476D02*
D03*
X-11024Y158D02*
D03*
X0Y-5906D02*
D03*
X-3150D02*
D03*
X-2992Y6299D02*
D03*
X3150Y-787D02*
D03*
X-3150D02*
D03*
M02*
