M48
;Layer_Color=9474304
;FILE_FORMAT=2:4
INCH,TZ
;TYPE=PLATED
T1F00S00C0.0118
%
T01
X-1323Y-2087
X-882
X-236Y-2165
X551Y-2314
X1339Y-2390
X1236Y-2087
X1732Y-1787
Y-1441
X1478Y-895
X1535Y-315
Y157
X1142Y148
X315Y-79
X-315
X-315Y-591
X0
X354Y-1323
X-1102Y-1220
X-1614Y-1378
X-1102Y-331
Y16
X-646Y630
X-299
X167
M30
