G04*
G04 #@! TF.GenerationSoftware,Altium Limited,Altium Designer,22.11.1 (43)*
G04*
G04 Layer_Physical_Order=2*
G04 Layer_Color=16711680*
%FSLAX25Y25*%
%MOIN*%
G70*
G04*
G04 #@! TF.SameCoordinates,968F8FA3-88DA-4AFC-830A-3CF0B6850B21*
G04*
G04*
G04 #@! TF.FilePolarity,Positive*
G04*
G01*
G75*
%ADD16C,0.01000*%
%ADD36C,0.00500*%
%ADD37C,0.01968*%
G36*
X20457Y-1018D02*
X19995Y-1210D01*
X17126Y1660D01*
Y1927D01*
X16856Y2578D01*
X16358Y3077D01*
X15707Y3347D01*
X15002D01*
X14351Y3077D01*
X14112Y2838D01*
X12561D01*
X12421Y2978D01*
X11770Y3248D01*
X11065D01*
X10414Y2978D01*
X9915Y2480D01*
X9646Y1829D01*
Y1124D01*
X9915Y473D01*
X10414Y-26D01*
X11065Y-295D01*
X11770D01*
X12421Y-26D01*
X12659Y213D01*
X14211D01*
X14351Y73D01*
X15002Y-197D01*
X15270D01*
X16053Y-980D01*
X15770Y-1404D01*
X15707Y-1378D01*
X15002D01*
X14351Y-1648D01*
X13852Y-2146D01*
X13583Y-2797D01*
Y-3502D01*
X13852Y-4153D01*
X14297Y-4597D01*
Y-6533D01*
X14080Y-6857D01*
X14000Y-7261D01*
Y-7353D01*
X13773Y-7447D01*
X13274Y-7945D01*
X13005Y-8596D01*
Y-9301D01*
X13274Y-9952D01*
X13719Y-10397D01*
Y-19064D01*
X13219Y-19303D01*
X12715Y-19094D01*
X12010D01*
X11359Y-19364D01*
X10942Y-19781D01*
X10653Y-19839D01*
X10227Y-20123D01*
X7745Y-22605D01*
X7159Y-22485D01*
X7014Y-22134D01*
X6515Y-21636D01*
X5864Y-21366D01*
X5236D01*
X-2092Y-14038D01*
Y-7353D01*
X-1901Y-7163D01*
X-1575Y-6955D01*
X-1248Y-7163D01*
X-1004Y-7407D01*
X-352Y-7677D01*
X352D01*
X1004Y-7407D01*
X1502Y-6909D01*
X1772Y-6258D01*
Y-5553D01*
X1502Y-4902D01*
X1004Y-4404D01*
X352Y-4134D01*
X-352D01*
X-1004Y-4404D01*
X-1248Y-4648D01*
X-1575Y-4856D01*
X-1901Y-4648D01*
X-2146Y-4404D01*
X-2797Y-4134D01*
X-3502D01*
X-4153Y-4404D01*
X-4651Y-4902D01*
X-4921Y-5553D01*
Y-6258D01*
X-4651Y-6909D01*
X-4207Y-7353D01*
Y-14476D01*
X-4127Y-14881D01*
X-3898Y-15224D01*
X3740Y-22862D01*
Y-23490D01*
X3859Y-23778D01*
X3525Y-24278D01*
X-12055D01*
X-14829Y-21504D01*
Y-14972D01*
X-14640Y-14783D01*
X-14370Y-14132D01*
Y-13427D01*
X-14640Y-12776D01*
X-14829Y-12587D01*
Y-8969D01*
X-10939Y-5079D01*
X-10671D01*
X-10020Y-4809D01*
X-9522Y-4311D01*
X-9252Y-3660D01*
Y-2955D01*
X-9522Y-2303D01*
X-10020Y-1805D01*
X-10671Y-1535D01*
X-11376D01*
X-12027Y-1805D01*
X-12526Y-2303D01*
X-12795Y-2955D01*
Y-3222D01*
X-17070Y-7497D01*
X-17354Y-7923D01*
X-17454Y-8425D01*
Y-12587D01*
X-17644Y-12776D01*
X-17913Y-13427D01*
Y-14132D01*
X-17644Y-14783D01*
X-17454Y-14972D01*
Y-22047D01*
X-17354Y-22550D01*
X-17070Y-22975D01*
X-13527Y-26519D01*
X-13101Y-26803D01*
X-12598Y-26903D01*
X6616D01*
X7119Y-26803D01*
X7545Y-26519D01*
X11238Y-22825D01*
X11366Y-22838D01*
X11686Y-23372D01*
X11614Y-23545D01*
Y-24250D01*
X11884Y-24901D01*
X12382Y-25400D01*
X13033Y-25669D01*
X13738D01*
X14389Y-25400D01*
X14888Y-24901D01*
X15157Y-24250D01*
Y-23622D01*
X15524Y-23255D01*
X15754Y-22912D01*
X15834Y-22507D01*
Y-19544D01*
X16296Y-19353D01*
X16319Y-19376D01*
X16970Y-19646D01*
X17675D01*
X18326Y-19376D01*
X18825Y-18878D01*
X19094Y-18226D01*
Y-17959D01*
X19995Y-17058D01*
X20457Y-17249D01*
Y-29118D01*
X-20457D01*
Y9433D01*
X20457D01*
Y-1018D01*
D02*
G37*
G36*
X18282Y-3209D02*
Y-15059D01*
X17238Y-16102D01*
X16970D01*
X16319Y-16372D01*
X16296Y-16395D01*
X15834Y-16204D01*
Y-10397D01*
X16278Y-9952D01*
X16548Y-9301D01*
Y-8596D01*
X16278Y-7945D01*
X16115Y-7782D01*
Y-7693D01*
X16331Y-7369D01*
X16412Y-6965D01*
Y-4597D01*
X16856Y-4153D01*
X17126Y-3502D01*
Y-2797D01*
X17100Y-2734D01*
X17524Y-2451D01*
X18282Y-3209D01*
D02*
G37*
%LPC*%
G36*
X2026Y8071D02*
X1321D01*
X670Y7801D01*
X171Y7303D01*
X-98Y6652D01*
Y5947D01*
X171Y5296D01*
X670Y4797D01*
X1321Y4528D01*
X2026D01*
X2677Y4797D01*
X3175Y5296D01*
X3445Y5947D01*
Y6652D01*
X3175Y7303D01*
X2677Y7801D01*
X2026Y8071D01*
D02*
G37*
G36*
X-6104D02*
X-6809D01*
X-7460Y7801D01*
X-7959Y7303D01*
X-8228Y6652D01*
Y5947D01*
X-7959Y5296D01*
X-7460Y4797D01*
X-6809Y4528D01*
X-6104D01*
X-5453Y4797D01*
X-4955Y5296D01*
X-4685Y5947D01*
Y6652D01*
X-4955Y7303D01*
X-5453Y7801D01*
X-6104Y8071D01*
D02*
G37*
%LPD*%
D16*
X11156Y-21051D02*
X12177D01*
X-12598Y-25591D02*
X6616D01*
X12177Y-21051D02*
X12362Y-20866D01*
X6616Y-25591D02*
X11156Y-21051D01*
X-16142Y-22047D02*
X-12598Y-25591D01*
X-16142Y-22047D02*
Y-13780D01*
Y-8425D01*
X11417Y1476D02*
X11467Y1526D01*
X15305D02*
X15354Y1575D01*
X11467Y1526D02*
X15305D01*
X15354Y1575D02*
X19594Y-2665D01*
Y-15602D02*
Y-2665D01*
X17323Y-17874D02*
X19594Y-15602D01*
X-16142Y-8425D02*
X-11024Y-3307D01*
X-21260Y10236D02*
X21260D01*
X-21260Y-29921D02*
Y10236D01*
X21260Y-29921D02*
Y10236D01*
X-21260Y-29921D02*
X21260D01*
D36*
X14776Y-22507D02*
Y-8949D01*
X13386Y-23898D02*
X14776Y-22507D01*
X-3150Y-14476D02*
Y-5906D01*
Y-14476D02*
X5512Y-23138D01*
X15057Y-7261D02*
X15354Y-6965D01*
X15057Y-8668D02*
Y-7261D01*
X14776Y-8949D02*
X15057Y-8668D01*
X15354Y-6965D02*
Y-3150D01*
D37*
X13386Y-23898D02*
D03*
X5512Y-23138D02*
D03*
X-2362Y-21654D02*
D03*
X12362Y-20866D02*
D03*
X15354Y1575D02*
D03*
X-16142Y-13780D02*
D03*
X-8819Y-20866D02*
D03*
X-13228D02*
D03*
X-11024Y-12205D02*
D03*
X14776Y-8949D02*
D03*
X17323Y-17874D02*
D03*
Y-14409D02*
D03*
X3543Y-13228D02*
D03*
X15354Y-3150D02*
D03*
X-11024Y-3307D02*
D03*
X-6457Y6299D02*
D03*
X1673D02*
D03*
X11417Y1476D02*
D03*
X-11024Y158D02*
D03*
X0Y-5906D02*
D03*
X-3150D02*
D03*
X-2992Y6299D02*
D03*
X3150Y-787D02*
D03*
X-3150D02*
D03*
M02*
