G04*
G04 #@! TF.GenerationSoftware,Altium Limited,Altium Designer,22.11.1 (43)*
G04*
G04 Layer_Color=65535*
%FSLAX25Y25*%
%MOIN*%
G70*
G04*
G04 #@! TF.SameCoordinates,968F8FA3-88DA-4AFC-830A-3CF0B6850B21*
G04*
G04*
G04 #@! TF.FilePolarity,Positive*
G04*
G01*
G75*
%ADD10C,0.00394*%
%ADD11C,0.00984*%
%ADD12C,0.00787*%
%ADD13C,0.00394*%
%ADD14C,0.00591*%
%ADD15C,0.00472*%
%ADD16C,0.01000*%
G36*
X-10236Y-18701D02*
X-12205D01*
Y-18110D01*
X-11024Y-16929D01*
X-10236D01*
Y-18701D01*
D02*
G37*
D10*
X7283Y-9449D02*
D03*
D11*
X-6398Y-19587D02*
X-7136Y-19160D01*
Y-20013D01*
X-6398Y-19587D01*
D12*
X-10433Y-16929D02*
X-11319Y-17166D01*
X-11967Y-17815D01*
X-12205Y-18701D01*
X-9843Y2362D02*
X-10630D01*
X-9843D01*
X-14173Y-18701D02*
Y-6496D01*
X-10236Y-18701D02*
Y-6496D01*
X-14173D02*
X-10236D01*
X-14173Y-18701D02*
X-10236D01*
X-10433Y-16929D02*
X-10236D01*
D13*
X12598Y-10236D02*
X14567D01*
X6693D02*
X8661D01*
X12598Y-18110D02*
X14567D01*
X6693D02*
X8661D01*
X-8858Y-5709D02*
Y4134D01*
X8858Y-5709D02*
Y4134D01*
X-8858D02*
X8858D01*
X-8858Y-5709D02*
X8858D01*
D14*
X4724Y-18898D02*
X5512D01*
Y-11024D01*
X4724D02*
X5512D01*
X1575D02*
X2362D01*
X1575Y-18898D02*
Y-11024D01*
Y-18898D02*
X2362D01*
X14567Y-19685D02*
Y-18898D01*
X6693D02*
X14567D01*
X6693Y-19685D02*
Y-18898D01*
Y-22835D02*
Y-22047D01*
Y-22835D02*
X14567D01*
Y-22047D01*
X18504Y-20079D02*
X19291D01*
Y-12205D01*
X18504D02*
X19291D01*
X15354D02*
X16142D01*
X15354Y-20079D02*
Y-12205D01*
Y-20079D02*
X16142D01*
X-4362Y-14173D02*
X-362D01*
X-862Y-9673D02*
X-362D01*
Y-18673D02*
Y-9673D01*
X-862Y-18673D02*
X-362D01*
X-4362D02*
X-3862D01*
X-4362D02*
Y-9673D01*
X-3862D01*
X-11024Y-19685D02*
Y-18898D01*
X-3150D01*
Y-19685D02*
Y-18898D01*
Y-22835D02*
Y-22047D01*
X-11024Y-22835D02*
X-3150D01*
X-11024D02*
Y-22047D01*
X-11024Y-22835D02*
Y-22047D01*
X-18898Y-22835D02*
X-11024D01*
X-18898D02*
Y-22047D01*
Y-19685D02*
Y-18898D01*
X-11024D01*
Y-19685D02*
Y-18898D01*
X9417Y3713D02*
X9917D01*
X9417Y-5287D02*
Y3713D01*
Y-5287D02*
X9917D01*
X12917D02*
X13417D01*
Y3713D01*
X12917D02*
X13417D01*
X9417Y-787D02*
X13417D01*
X-563Y4299D02*
Y4799D01*
Y4299D02*
X8437D01*
Y4799D01*
Y7799D02*
Y8299D01*
X-563D02*
X8437D01*
X-563Y7799D02*
Y8299D01*
X3937Y4299D02*
Y8299D01*
X13354Y3713D02*
X13854D01*
X13354Y-5287D02*
Y3713D01*
Y-5287D02*
X13854D01*
X16854D02*
X17354D01*
Y3713D01*
X16854D02*
X17354D01*
X13354Y-787D02*
X17354D01*
X8886Y3906D02*
Y4405D01*
Y3906D02*
X17886D01*
Y4405D01*
Y7406D02*
Y7905D01*
X8886D02*
X17886D01*
X8886Y7406D02*
Y7905D01*
X13386Y3906D02*
Y7905D01*
X-787Y7480D02*
Y8268D01*
X-8661D02*
X-787D01*
X-8661Y7480D02*
Y8268D01*
Y4331D02*
Y5118D01*
Y4331D02*
X-787D01*
Y5118D01*
X-12992Y2362D02*
X-12205D01*
X-12992Y-5512D02*
Y2362D01*
Y-5512D02*
X-12205D01*
X-9843D02*
X-9055D01*
Y2362D01*
X-9843D02*
X-9055D01*
D15*
X14514Y-25578D02*
X14055Y-25119D01*
X13136D01*
X12677Y-25578D01*
Y-26037D01*
X13136Y-26496D01*
X14055D01*
X14514Y-26956D01*
Y-27415D01*
X14055Y-27874D01*
X13136D01*
X12677Y-27415D01*
X15432Y-25119D02*
Y-27874D01*
X16810D01*
X17269Y-27415D01*
Y-25578D01*
X16810Y-25119D01*
X15432D01*
X18187Y-27874D02*
Y-26037D01*
X19105Y-25119D01*
X20024Y-26037D01*
Y-27874D01*
Y-26496D01*
X18187D01*
X-15801Y-25513D02*
X-17638D01*
Y-26890D01*
X-16720Y-26431D01*
X-16260D01*
X-15801Y-26890D01*
Y-27809D01*
X-16260Y-28268D01*
X-17179D01*
X-17638Y-27809D01*
X-14883Y-25513D02*
Y-27349D01*
X-13964Y-28268D01*
X-13046Y-27349D01*
Y-25513D01*
D16*
X-21260Y10236D02*
X21260D01*
X-21260Y-29921D02*
Y10236D01*
X21260Y-29921D02*
Y10236D01*
X-21260Y-29921D02*
X21260D01*
M02*
