M48
;Layer_Color=9474304
;FILE_FORMAT=2:4
INCH,TZ
;TYPE=PLATED
T1F00S00C0.0138
T3F00S00C0.0177
;TYPE=NON_PLATED
T4F00S00C0.0827
T5F00S00C0.1181
%
T01
X0Y-5591
X551Y-2559
X1024
X1929
X2402
X3780Y-4094
X-3898Y-3976
X-3858Y-3150
X-5551Y-118
X-4370Y2480
X-4252Y3583
X-1240Y2954
X-2362Y1339
X0Y5551
X3543Y4291
X4764Y1457
X5551Y0
T03
X621Y3088
X1102Y2913
X997Y3371
X1477Y3196
X1583Y2738
T04
X-4134Y0
X4134
T05
X0Y0
M30
