G04*
G04 #@! TF.GenerationSoftware,Altium Limited,Altium Designer,22.0.2 (36)*
G04*
G04 Layer_Physical_Order=1*
G04 Layer_Color=255*
%FSLAX25Y25*%
%MOIN*%
G70*
G04*
G04 #@! TF.SameCoordinates,1EF7E0F6-051E-4D54-85AB-B994BD640D93*
G04*
G04*
G04 #@! TF.FilePolarity,Positive*
G04*
G01*
G75*
%ADD13C,0.01000*%
%ADD24R,0.03347X0.03740*%
%ADD25R,0.03937X0.03543*%
%ADD26R,0.02165X0.03937*%
%ADD27R,0.05512X0.05118*%
%ADD28R,0.03150X0.07874*%
%ADD29R,0.10630X0.05118*%
%ADD30R,0.05118X0.10630*%
G04:AMPARAMS|DCode=31|XSize=71.5mil|YSize=35.75mil|CornerRadius=0mil|HoleSize=0mil|Usage=FLASHONLY|Rotation=250.000|XOffset=0mil|YOffset=0mil|HoleType=Round|Shape=Round|*
%AMOVALD31*
21,1,0.03575,0.03575,0.00000,0.00000,250.0*
1,1,0.03575,0.00611,0.01680*
1,1,0.03575,-0.00611,-0.01680*
%
%ADD31OVALD31*%

G04:AMPARAMS|DCode=32|XSize=37.4mil|YSize=31.5mil|CornerRadius=0mil|HoleSize=0mil|Usage=FLASHONLY|Rotation=340.000|XOffset=0mil|YOffset=0mil|HoleType=Round|Shape=Round|*
%AMOVALD32*
21,1,0.00591,0.03150,0.00000,0.00000,340.0*
1,1,0.03150,-0.00278,0.00101*
1,1,0.03150,0.00278,-0.00101*
%
%ADD32OVALD32*%

%ADD33C,0.02756*%
G36*
X6705Y56648D02*
X11129Y55948D01*
X15484Y54902D01*
X19744Y53518D01*
X23882Y51804D01*
X27873Y49771D01*
X31692Y47430D01*
X35315Y44798D01*
X38721Y41889D01*
X41889Y38721D01*
X44798Y35315D01*
X47430Y31692D01*
X49771Y27873D01*
X51804Y23882D01*
X53518Y19744D01*
X54902Y15484D01*
X55948Y11129D01*
X56648Y6705D01*
X57000Y2240D01*
Y-2240D01*
X56648Y-6705D01*
X55948Y-11129D01*
X54902Y-15484D01*
X53518Y-19744D01*
X51804Y-23882D01*
X49771Y-27873D01*
X47430Y-31692D01*
X44798Y-35315D01*
X41889Y-38721D01*
X38721Y-41889D01*
X35315Y-44798D01*
X31692Y-47430D01*
X27873Y-49771D01*
X23882Y-51804D01*
X19744Y-53518D01*
X15484Y-54902D01*
X11129Y-55948D01*
X6705Y-56648D01*
X2240Y-57000D01*
X0Y-57000D01*
X-2240D01*
X-6705Y-56648D01*
X-11129Y-55948D01*
X-15484Y-54902D01*
X-19744Y-53518D01*
X-23882Y-51804D01*
X-27873Y-49771D01*
X-31692Y-47430D01*
X-35315Y-44798D01*
X-38721Y-41889D01*
X-41889Y-38721D01*
X-44798Y-35315D01*
X-47430Y-31692D01*
X-49771Y-27873D01*
X-51804Y-23882D01*
X-53518Y-19744D01*
X-54902Y-15484D01*
X-55948Y-11129D01*
X-56648Y-6705D01*
X-57000Y-2240D01*
Y2240D01*
X-56648Y6705D01*
X-55948Y11129D01*
X-54902Y15484D01*
X-53518Y19744D01*
X-51804Y23882D01*
X-49771Y27873D01*
X-47430Y31692D01*
X-44798Y35315D01*
X-41889Y38721D01*
X-38721Y41889D01*
X-35315Y44798D01*
X-31692Y47430D01*
X-27873Y49771D01*
X-23882Y51804D01*
X-19744Y53518D01*
X-15484Y54902D01*
X-11129Y55948D01*
X-6705Y56648D01*
X-2240Y57000D01*
X2240D01*
X6705Y56648D01*
D02*
G37*
%LPC*%
G36*
X-1050Y39242D02*
X-1783Y39210D01*
X-2483Y38989D01*
X-3102Y38595D01*
X-3598Y38054D01*
X-3937Y37403D01*
X-4377Y36193D01*
X-2205Y35403D01*
X-826Y39192D01*
X-1050Y39242D01*
D02*
G37*
G36*
X114Y38850D02*
X-1265Y35061D01*
X907Y34270D01*
X1347Y35480D01*
X1506Y36196D01*
X1474Y36930D01*
X1253Y37629D01*
X859Y38248D01*
X318Y38744D01*
X114Y38850D01*
D02*
G37*
G36*
X10347Y36610D02*
X9583D01*
X8845Y36413D01*
X8184Y36031D01*
X7644Y35490D01*
X7262Y34829D01*
X7064Y34091D01*
Y34071D01*
X6667Y33767D01*
X6596Y33786D01*
X5832D01*
X5094Y33588D01*
X4433Y33206D01*
X3892Y32666D01*
X3510Y32004D01*
X3313Y31266D01*
Y30502D01*
X3374Y30272D01*
X3070Y29876D01*
X-1754D01*
X-1831Y30376D01*
X-1329Y30534D01*
X-710Y30928D01*
X-215Y31470D01*
X124Y32120D01*
X565Y33330D01*
X-2077Y34292D01*
X-4719Y35253D01*
X-5159Y34044D01*
X-5318Y33327D01*
X-5300Y32898D01*
X-5704Y32398D01*
X-14740D01*
X-15075Y32398D01*
Y32398D01*
X-15240D01*
Y32398D01*
X-17413D01*
Y29528D01*
Y26658D01*
X-16847D01*
Y21244D01*
X-12681D01*
Y22683D01*
X-11236D01*
Y20358D01*
Y18315D01*
X-8268D01*
Y17315D01*
X-11236D01*
Y15112D01*
X-12681D01*
Y16551D01*
X-18004D01*
Y13583D01*
X-19004D01*
Y16551D01*
X-24327D01*
Y15997D01*
X-24666Y15906D01*
X-25283Y15550D01*
X-25786Y15047D01*
X-26142Y14430D01*
X-26327Y13742D01*
Y13030D01*
X-26142Y12342D01*
X-25786Y11725D01*
X-25283Y11221D01*
X-24666Y10865D01*
X-24327Y10774D01*
Y10614D01*
X-19663D01*
X-19471Y10152D01*
X-23179Y6444D01*
X-41035Y24301D01*
X-40996Y24447D01*
Y25159D01*
X-41180Y25847D01*
X-41537Y26464D01*
X-42040Y26967D01*
X-42657Y27324D01*
X-43345Y27508D01*
X-44057D01*
X-44745Y27324D01*
X-45362Y26967D01*
X-45865Y26464D01*
X-46221Y25847D01*
X-46406Y25159D01*
Y24447D01*
X-46221Y23759D01*
X-45865Y23142D01*
X-45362Y22639D01*
X-44745Y22283D01*
X-44057Y22098D01*
X-43345D01*
X-43198Y22138D01*
X-25496Y4435D01*
Y4128D01*
X-29034Y589D01*
X-29366Y93D01*
X-29482Y-492D01*
Y-3134D01*
X-31512D01*
Y-15764D01*
X-29482D01*
Y-16689D01*
X-33053Y-20260D01*
X-36039D01*
Y-27971D01*
X-37225Y-29157D01*
X-37539Y-28976D01*
X-38227Y-28791D01*
X-38939D01*
X-39627Y-28976D01*
X-40243Y-29332D01*
X-40747Y-29835D01*
X-41103Y-30452D01*
X-41287Y-31140D01*
Y-31852D01*
X-41103Y-32540D01*
X-40747Y-33157D01*
X-40243Y-33660D01*
X-39627Y-34016D01*
X-38939Y-34201D01*
X-38227D01*
X-37539Y-34016D01*
X-36922Y-33660D01*
X-36418Y-33157D01*
X-36062Y-32540D01*
X-35982Y-32239D01*
X-33876Y-30134D01*
X-30890D01*
Y-22423D01*
X-28622Y-20155D01*
X-28165Y-20405D01*
X-28165Y-20699D01*
Y-30134D01*
X-23016D01*
Y-29482D01*
X-14096D01*
X-13511Y-29366D01*
X-13015Y-29034D01*
X-11162Y-27181D01*
X-9532D01*
Y-25742D01*
X-7693D01*
Y-28953D01*
X-181D01*
Y-21835D01*
X-7693D01*
Y-22683D01*
X-9532D01*
Y-21244D01*
X-14854D01*
Y-24213D01*
X-15854D01*
Y-21244D01*
X-21177D01*
Y-26423D01*
X-23016D01*
Y-20260D01*
X-27690D01*
X-28020Y-20260D01*
X-28270Y-19803D01*
X-26871Y-18404D01*
X-26540Y-17908D01*
X-26423Y-17323D01*
Y-15764D01*
X-24394D01*
Y-3134D01*
X-26423D01*
Y-1126D01*
X-22885Y2413D01*
X-14684Y10614D01*
X-12681D01*
Y12053D01*
X-7346D01*
X-6760Y12170D01*
X-6264Y12501D01*
X-5399Y13366D01*
X-4937Y13175D01*
Y12681D01*
X1000D01*
Y13037D01*
X45398D01*
X45474Y12906D01*
X45977Y12403D01*
X46594Y12047D01*
X47282Y11862D01*
X47994D01*
X48682Y12047D01*
X49299Y12403D01*
X49802Y12906D01*
X50158Y13523D01*
X50343Y14211D01*
Y14923D01*
X50158Y15611D01*
X49802Y16228D01*
X49299Y16731D01*
X48682Y17087D01*
X47994Y17272D01*
X47282D01*
X46594Y17087D01*
X45977Y16731D01*
X45474Y16228D01*
X45398Y16096D01*
X1000D01*
Y17996D01*
Y20268D01*
X-1969D01*
Y20768D01*
X-2468D01*
Y23539D01*
X-4937D01*
X-5299Y23872D01*
Y25902D01*
X-7742D01*
X-7952Y26379D01*
X-7728Y26658D01*
X-4610D01*
Y26817D01*
X5692D01*
X6278Y26934D01*
X6774Y27265D01*
X7641Y28132D01*
X7733Y28270D01*
X8264Y28183D01*
X8278Y28171D01*
X8320Y28014D01*
X8702Y27352D01*
X9242Y26812D01*
X9904Y26430D01*
X10642Y26232D01*
X11406D01*
X12144Y26430D01*
X12584Y26684D01*
X13161Y26517D01*
X13202Y26387D01*
X13566Y25815D01*
X14066Y25357D01*
X14484Y25139D01*
X15363Y27554D01*
X15833Y27383D01*
X16004Y27853D01*
X18660Y26886D01*
X18698Y27056D01*
X18668Y27733D01*
X18464Y28380D01*
X18100Y28952D01*
X17600Y29410D01*
X17230Y29603D01*
X17102Y30153D01*
X17117Y30212D01*
X17479Y30838D01*
X17676Y31576D01*
Y32340D01*
X17479Y33078D01*
X17097Y33740D01*
X16556Y34280D01*
X15895Y34662D01*
X15157Y34860D01*
X14393D01*
X13655Y34662D01*
X13288Y34450D01*
X12711Y34672D01*
X12669Y34829D01*
X12287Y35490D01*
X11747Y36031D01*
X11085Y36413D01*
X10347Y36610D01*
D02*
G37*
G36*
X25402Y29614D02*
X24669Y29582D01*
X23969Y29362D01*
X23350Y28967D01*
X22854Y28426D01*
X22515Y27775D01*
X22075Y26565D01*
X24247Y25775D01*
X25626Y29565D01*
X25402Y29614D01*
D02*
G37*
G36*
X16132Y26743D02*
X15424Y24797D01*
X15884Y24695D01*
X16562Y24725D01*
X17208Y24929D01*
X17780Y25293D01*
X18238Y25793D01*
X18318Y25947D01*
X16132Y26743D01*
D02*
G37*
G36*
X26566Y29223D02*
X25187Y25433D01*
X27359Y24642D01*
X27799Y25852D01*
X27958Y26568D01*
X27926Y27302D01*
X27705Y28002D01*
X27311Y28621D01*
X26770Y29116D01*
X26566Y29223D01*
D02*
G37*
G36*
X-1469Y23539D02*
Y21268D01*
X1000D01*
Y23539D01*
X-1469D01*
D02*
G37*
G36*
X-18413Y32398D02*
X-25705D01*
Y26658D01*
X-24327D01*
Y21244D01*
X-20161D01*
Y26658D01*
X-18413D01*
Y29528D01*
Y32398D01*
D02*
G37*
G36*
X21733Y25626D02*
X21293Y24416D01*
X21134Y23699D01*
X21166Y22966D01*
X21386Y22266D01*
X21781Y21647D01*
X22322Y21151D01*
X22526Y21045D01*
X23905Y24835D01*
X21733Y25626D01*
D02*
G37*
G36*
X24845Y24493D02*
X23465Y20703D01*
X23689Y20654D01*
X24423Y20686D01*
X25123Y20906D01*
X25742Y21301D01*
X26237Y21842D01*
X26576Y22493D01*
X27017Y23702D01*
X24845Y24493D01*
D02*
G37*
G36*
X41944Y6150D02*
X40733D01*
X39545Y5913D01*
X38426Y5450D01*
X37418Y4777D01*
X36562Y3920D01*
X35889Y2913D01*
X35425Y1794D01*
X35189Y606D01*
Y-606D01*
X35425Y-1794D01*
X35889Y-2913D01*
X36562Y-3920D01*
X37418Y-4777D01*
X38426Y-5450D01*
X39545Y-5913D01*
X40733Y-6150D01*
X41944D01*
X43132Y-5913D01*
X44251Y-5450D01*
X45259Y-4777D01*
X46115Y-3920D01*
X46788Y-2913D01*
X47252Y-1794D01*
X47488Y-606D01*
Y606D01*
X47252Y1794D01*
X46788Y2913D01*
X46115Y3920D01*
X45259Y4777D01*
X44251Y5450D01*
X43132Y5913D01*
X41944Y6150D01*
D02*
G37*
G36*
X-40733D02*
X-41944D01*
X-43132Y5913D01*
X-44251Y5450D01*
X-45259Y4777D01*
X-46115Y3920D01*
X-46788Y2913D01*
X-47252Y1794D01*
X-47488Y606D01*
Y-606D01*
X-47252Y-1794D01*
X-46788Y-2913D01*
X-46115Y-3920D01*
X-45259Y-4777D01*
X-44251Y-5450D01*
X-43132Y-5913D01*
X-41944Y-6150D01*
X-40733D01*
X-39545Y-5913D01*
X-38426Y-5450D01*
X-37418Y-4777D01*
X-36562Y-3920D01*
X-35889Y-2913D01*
X-35425Y-1794D01*
X-35189Y-606D01*
Y606D01*
X-35425Y1794D01*
X-35889Y2913D01*
X-36562Y3920D01*
X-37418Y4777D01*
X-38426Y5450D01*
X-39545Y5913D01*
X-40733Y6150D01*
D02*
G37*
G36*
X780Y7921D02*
X-780D01*
X-2310Y7617D01*
X-3752Y7020D01*
X-5049Y6153D01*
X-6153Y5049D01*
X-7020Y3752D01*
X-7617Y2310D01*
X-7921Y780D01*
Y-780D01*
X-7617Y-2310D01*
X-7020Y-3752D01*
X-6153Y-5049D01*
X-5049Y-6153D01*
X-3752Y-7020D01*
X-2310Y-7617D01*
X-780Y-7921D01*
X780D01*
X2310Y-7617D01*
X3752Y-7020D01*
X5049Y-6153D01*
X6153Y-5049D01*
X7020Y-3752D01*
X7617Y-2310D01*
X7921Y-780D01*
Y780D01*
X7617Y2310D01*
X7020Y3752D01*
X6153Y5049D01*
X5049Y6153D01*
X3752Y7020D01*
X2310Y7617D01*
X780Y7921D01*
D02*
G37*
G36*
X-13370Y-3134D02*
X-16429D01*
Y-8949D01*
X-13370D01*
Y-3134D01*
D02*
G37*
G36*
X-17429D02*
X-20488D01*
Y-8949D01*
X-17429D01*
Y-3134D01*
D02*
G37*
G36*
X-13370Y-9949D02*
X-16429D01*
Y-15764D01*
X-13370D01*
Y-9949D01*
D02*
G37*
G36*
X-17429D02*
X-20488D01*
Y-15764D01*
X-17429D01*
Y-9949D01*
D02*
G37*
G36*
X27968Y-22031D02*
X22153D01*
Y-25091D01*
X27968D01*
Y-22031D01*
D02*
G37*
G36*
X21154D02*
X15339D01*
Y-25091D01*
X21154D01*
Y-22031D01*
D02*
G37*
G36*
X14189D02*
X8374D01*
Y-25091D01*
X14189D01*
Y-22031D01*
D02*
G37*
G36*
X7374D02*
X1559D01*
Y-25091D01*
X7374D01*
Y-22031D01*
D02*
G37*
G36*
X27968Y-26091D02*
X22153D01*
Y-29150D01*
X27968D01*
Y-26091D01*
D02*
G37*
G36*
X21154D02*
X15339D01*
Y-29150D01*
X21154D01*
Y-26091D01*
D02*
G37*
G36*
X14189D02*
X8374D01*
Y-29150D01*
X14189D01*
Y-26091D01*
D02*
G37*
G36*
X7374D02*
X1559D01*
Y-29150D01*
X7374D01*
Y-26091D01*
D02*
G37*
G36*
X-9532Y-31874D02*
X-13697D01*
Y-37136D01*
X-15524D01*
X-17012Y-35648D01*
Y-31874D01*
X-21177D01*
Y-37811D01*
X-19175D01*
X-17239Y-39747D01*
X-16743Y-40078D01*
X-16158Y-40195D01*
X-7693D01*
Y-40370D01*
X-181D01*
Y-38340D01*
X1559D01*
Y-40173D01*
X14189D01*
Y-38144D01*
X15339D01*
Y-40173D01*
X27968D01*
Y-33055D01*
X15339D01*
Y-35085D01*
X14189D01*
Y-33055D01*
X1559D01*
Y-35282D01*
X-181D01*
Y-33252D01*
X-7693D01*
Y-37136D01*
X-9532D01*
Y-31874D01*
D02*
G37*
%LPD*%
D13*
X6560Y29214D02*
Y30539D01*
X6214Y30884D02*
X6560Y30539D01*
X5692Y28346D02*
X6560Y29214D01*
X-6110Y28346D02*
X5692D01*
X-7283Y29520D02*
X-6110Y28346D01*
X-7283Y29520D02*
Y29528D01*
X-1969Y15453D02*
X-1083Y14567D01*
X47638D01*
X-23967Y3494D02*
X-14764Y12697D01*
X-27953Y-492D02*
X-23967Y3494D01*
X-43701Y24803D02*
X-23967Y5069D01*
Y3494D02*
Y5069D01*
X-14764Y12697D02*
Y13583D01*
X-27953Y-9449D02*
Y-492D01*
X-33465Y-25197D02*
Y-22835D01*
X-27953Y-17323D01*
Y-9449D01*
X-38583Y-31496D02*
X-38247Y-31160D01*
X-37066D01*
X-33465Y-27559D01*
Y-25197D01*
X-14096Y-27953D02*
X-12197Y-26053D01*
Y-24795D02*
X-11614Y-24213D01*
X-12197Y-26053D02*
Y-24795D01*
X-24516Y-27953D02*
X-14096D01*
X-25591Y-26878D02*
X-24516Y-27953D01*
X-25591Y-26878D02*
Y-25197D01*
X-23622Y13386D02*
X-22441D01*
X-22244Y13583D01*
X-23031Y29528D02*
X-22244Y28740D01*
X-18504Y28937D02*
X-17913Y29528D01*
X-7283Y29331D02*
Y29528D01*
X-14764Y25098D02*
X-13205Y26658D01*
X-9957D02*
X-7283Y29331D01*
X-13205Y26658D02*
X-9957D01*
X-22244Y24213D02*
Y28740D01*
X-18504Y17717D02*
Y28937D01*
X-18406Y17815D02*
X-8268D01*
X-14764Y24213D02*
X-9350D01*
X-8268Y23130D01*
Y17815D02*
X-6996Y19087D01*
X-5913D01*
X-4851Y20149D01*
X-2587D01*
X-1969Y20768D01*
X-14764Y13583D02*
X-7346D01*
X-5475Y15453D01*
X-1969D01*
X-18504Y13583D02*
Y17717D01*
X-18406Y17815D01*
X-14764Y24213D02*
Y25098D01*
X7874Y-36614D02*
X21654D01*
X-28642Y-8760D02*
X-27953Y-9449D01*
X-15354Y-23327D02*
X-12106Y-20079D01*
X-15354Y-24213D02*
Y-23327D01*
X5118Y-25591D02*
X7874D01*
X-394Y-20079D02*
X5118Y-25591D01*
X-12106Y-20079D02*
X-394D01*
X-3937Y-36811D02*
X7677D01*
X7874Y-36614D01*
X-16158Y-38665D02*
X-5791D01*
X-19094Y-35728D02*
X-16158Y-38665D01*
X-5791D02*
X-3937Y-36811D01*
X-19094Y-35728D02*
Y-34843D01*
X-5118Y-24213D02*
X-3937Y-25394D01*
X-11614Y-24213D02*
X-5118D01*
X59055Y0D02*
X59047Y1000D01*
X59021Y2000D01*
X58979Y2999D01*
X58920Y3997D01*
X58843Y4995D01*
X58750Y5991D01*
X58641Y6985D01*
X58514Y7977D01*
X58371Y8967D01*
X58210Y9954D01*
X58033Y10938D01*
X57840Y11919D01*
X57630Y12897D01*
X57403Y13871D01*
X57160Y14841D01*
X56900Y15807D01*
X56624Y16769D01*
X56332Y17725D01*
X56024Y18677D01*
X55700Y19623D01*
X55359Y20563D01*
X55003Y21498D01*
X54631Y22426D01*
X54244Y23348D01*
X53841Y24263D01*
X53422Y25172D01*
X52988Y26073D01*
X52539Y26966D01*
X52075Y27852D01*
X51595Y28730D01*
X51101Y29600D01*
X50593Y30461D01*
X50070Y31313D01*
X49532Y32157D01*
X48981Y32991D01*
X48415Y33816D01*
X47835Y34631D01*
X47242Y35436D01*
X46635Y36231D01*
X46015Y37015D01*
X45381Y37789D01*
X44735Y38552D01*
X44076Y39305D01*
X43404Y40045D01*
X42719Y40775D01*
X42023Y41492D01*
X41314Y42198D01*
X40593Y42892D01*
X39861Y43573D01*
X39118Y44242D01*
X38363Y44898D01*
X37597Y45541D01*
X36820Y46171D01*
X36033Y46788D01*
X35236Y47392D01*
X34428Y47982D01*
X33610Y48558D01*
X32783Y49120D01*
X31947Y49668D01*
X31101Y50202D01*
X30246Y50721D01*
X29383Y51226D01*
X28511Y51717D01*
X27631Y52192D01*
X26744Y52653D01*
X25848Y53098D01*
X24945Y53528D01*
X24035Y53943D01*
X23118Y54342D01*
X22195Y54726D01*
X21264Y55094D01*
X20328Y55446D01*
X19387Y55782D01*
X18439Y56103D01*
X17486Y56407D01*
X16529Y56695D01*
X15566Y56967D01*
X14599Y57222D01*
X13628Y57461D01*
X12653Y57684D01*
X11674Y57890D01*
X10692Y58079D01*
X9707Y58252D01*
X8719Y58408D01*
X7729Y58547D01*
X6736Y58670D01*
X5742Y58775D01*
X4746Y58864D01*
X3748Y58936D01*
X2749Y58991D01*
X1750Y59029D01*
X750Y59050D01*
X-250Y59055D01*
X-1250Y59042D01*
X-2250Y59012D01*
X-3249Y58966D01*
X-4247Y58902D01*
X-5244Y58822D01*
X-6239Y58725D01*
X-7233Y58610D01*
X-8224Y58480D01*
X-9214Y58332D01*
X-10200Y58167D01*
X-11184Y57986D01*
X-12164Y57789D01*
X-13141Y57574D01*
X-14114Y57344D01*
X-15083Y57096D01*
X-16048Y56833D01*
X-17008Y56553D01*
X-17964Y56257D01*
X-18914Y55944D01*
X-19858Y55616D01*
X-20797Y55272D01*
X-21731Y54912D01*
X-22657Y54536D01*
X-23578Y54144D01*
X-24491Y53737D01*
X-25398Y53315D01*
X-26297Y52877D01*
X-27189Y52424D01*
X-28073Y51956D01*
X-28948Y51473D01*
X-29816Y50976D01*
X-30675Y50463D01*
X-31525Y49937D01*
X-32366Y49396D01*
X-33198Y48840D01*
X-34021Y48271D01*
X-34833Y47688D01*
X-35636Y47091D01*
X-36428Y46481D01*
X-37210Y45858D01*
X-37981Y45221D01*
X-38742Y44571D01*
X-39491Y43909D01*
X-40229Y43234D01*
X-40955Y42546D01*
X-41670Y41846D01*
X-42373Y41135D01*
X-43063Y40411D01*
X-43741Y39676D01*
X-44407Y38930D01*
X-45060Y38172D01*
X-45700Y37404D01*
X-46327Y36624D01*
X-46940Y35835D01*
X-47541Y35034D01*
X-48127Y34224D01*
X-48700Y33404D01*
X-49258Y32575D01*
X-49803Y31736D01*
X-50333Y30888D01*
X-50849Y30031D01*
X-51350Y29166D01*
X-51837Y28292D01*
X-52309Y27410D01*
X-52765Y26520D01*
X-53207Y25623D01*
X-53633Y24718D01*
X-54044Y23806D01*
X-54440Y22888D01*
X-54819Y21962D01*
X-55183Y21031D01*
X-55532Y20093D01*
X-55864Y19150D01*
X-56180Y18201D01*
X-56480Y17247D01*
X-56764Y16288D01*
X-57032Y15325D01*
X-57284Y14357D01*
X-57518Y13384D01*
X-57737Y12408D01*
X-57939Y11429D01*
X-58124Y10446D01*
X-58293Y9460D01*
X-58444Y8472D01*
X-58579Y7481D01*
X-58698Y6488D01*
X-58799Y5493D01*
X-58884Y4496D01*
X-58951Y3498D01*
X-59002Y2499D01*
X-59036Y1500D01*
X-59053Y500D01*
X-59053Y-500D01*
X-59036Y-1500D01*
X-59002Y-2500D01*
X-58951Y-3499D01*
X-58884Y-4497D01*
X-58799Y-5493D01*
X-58698Y-6488D01*
X-58579Y-7481D01*
X-58444Y-8472D01*
X-58292Y-9461D01*
X-58124Y-10447D01*
X-57938Y-11429D01*
X-57737Y-12409D01*
X-57518Y-13385D01*
X-57283Y-14357D01*
X-57032Y-15325D01*
X-56764Y-16289D01*
X-56480Y-17248D01*
X-56180Y-18202D01*
X-55864Y-19151D01*
X-55532Y-20094D01*
X-55183Y-21031D01*
X-54819Y-21963D01*
X-54439Y-22888D01*
X-54044Y-23807D01*
X-53633Y-24719D01*
X-53207Y-25623D01*
X-52765Y-26521D01*
X-52308Y-27411D01*
X-51837Y-28292D01*
X-51350Y-29166D01*
X-50849Y-30032D01*
X-50333Y-30889D01*
X-49803Y-31736D01*
X-49258Y-32575D01*
X-48699Y-33405D01*
X-48127Y-34225D01*
X-47540Y-35035D01*
X-46940Y-35835D01*
X-46326Y-36625D01*
X-45700Y-37404D01*
X-45059Y-38173D01*
X-44407Y-38930D01*
X-43741Y-39677D01*
X-43063Y-40412D01*
X-42372Y-41135D01*
X-41669Y-41847D01*
X-40955Y-42546D01*
X-40229Y-43234D01*
X-39491Y-43909D01*
X-38741Y-44572D01*
X-37981Y-45221D01*
X-37210Y-45858D01*
X-36428Y-46481D01*
X-35635Y-47092D01*
X-34833Y-47688D01*
X-34020Y-48272D01*
X-33198Y-48841D01*
X-32366Y-49396D01*
X-31525Y-49937D01*
X-30674Y-50464D01*
X-29816Y-50976D01*
X-28948Y-51473D01*
X-28072Y-51956D01*
X-27188Y-52424D01*
X-26296Y-52877D01*
X-25397Y-53315D01*
X-24491Y-53737D01*
X-23577Y-54145D01*
X-22657Y-54536D01*
X-21730Y-54912D01*
X-20797Y-55272D01*
X-19858Y-55616D01*
X-18913Y-55945D01*
X-17963Y-56257D01*
X-17008Y-56553D01*
X-16048Y-56833D01*
X-15083Y-57097D01*
X-14114Y-57344D01*
X-13141Y-57575D01*
X-12164Y-57789D01*
X-11183Y-57986D01*
X-10200Y-58168D01*
X-9213Y-58332D01*
X-8224Y-58480D01*
X-7232Y-58611D01*
X-6239Y-58725D01*
X-5244Y-58822D01*
X-4247Y-58902D01*
X-3249Y-58966D01*
X-2249Y-59012D01*
X-1250Y-59042D01*
X-250Y-59055D01*
X750Y-59050D01*
X1750Y-59029D01*
X2750Y-58991D01*
X3748Y-58936D01*
X4746Y-58864D01*
X5742Y-58775D01*
X6736Y-58670D01*
X7729Y-58547D01*
X8719Y-58408D01*
X9707Y-58252D01*
X10692Y-58079D01*
X11674Y-57890D01*
X12653Y-57684D01*
X13628Y-57461D01*
X14599Y-57222D01*
X15566Y-56967D01*
X16529Y-56695D01*
X17486Y-56407D01*
X18439Y-56103D01*
X19387Y-55782D01*
X20328Y-55446D01*
X21264Y-55094D01*
X22195Y-54726D01*
X23118Y-54342D01*
X24035Y-53943D01*
X24945Y-53528D01*
X25848Y-53098D01*
X26744Y-52653D01*
X27631Y-52192D01*
X28511Y-51717D01*
X29383Y-51227D01*
X30246Y-50722D01*
X31101Y-50202D01*
X31947Y-49668D01*
X32783Y-49120D01*
X33610Y-48558D01*
X34428Y-47982D01*
X35235Y-47392D01*
X36033Y-46788D01*
X36820Y-46171D01*
X37597Y-45541D01*
X38363Y-44898D01*
X39117Y-44242D01*
X39861Y-43573D01*
X40593Y-42892D01*
X41314Y-42198D01*
X42022Y-41493D01*
X42719Y-40775D01*
X43403Y-40046D01*
X44075Y-39305D01*
X44735Y-38553D01*
X45381Y-37790D01*
X46014Y-37016D01*
X46635Y-36231D01*
X47242Y-35436D01*
X47835Y-34631D01*
X48415Y-33816D01*
X48980Y-32991D01*
X49532Y-32157D01*
X50069Y-31314D01*
X50593Y-30461D01*
X51101Y-29600D01*
X51595Y-28731D01*
X52074Y-27853D01*
X52539Y-26967D01*
X52988Y-26073D01*
X53422Y-25172D01*
X53840Y-24264D01*
X54243Y-23349D01*
X54631Y-22427D01*
X55003Y-21498D01*
X55359Y-20564D01*
X55699Y-19623D01*
X56024Y-18677D01*
X56332Y-17726D01*
X56624Y-16769D01*
X56900Y-15808D01*
X57160Y-14842D01*
X57403Y-13872D01*
X57629Y-12898D01*
X57840Y-11920D01*
X58033Y-10939D01*
X58210Y-9955D01*
X58370Y-8967D01*
X58514Y-7978D01*
X58640Y-6986D01*
X58750Y-5991D01*
X58843Y-4996D01*
X58920Y-3999D01*
X58979Y-3000D01*
X59021Y-2001D01*
X59047Y-1001D01*
X59055Y-1D01*
Y0D01*
D24*
X-17913Y29528D02*
D03*
X-23031D02*
D03*
X-12402D02*
D03*
X-7283D02*
D03*
D25*
X-1969Y20768D02*
D03*
Y15453D02*
D03*
X-8268Y17815D02*
D03*
Y23130D02*
D03*
D26*
X-22244Y24213D02*
D03*
X-14764D02*
D03*
Y13583D02*
D03*
X-18504D02*
D03*
X-22244D02*
D03*
X-11614Y-24213D02*
D03*
X-15354D02*
D03*
X-19094D02*
D03*
Y-34843D02*
D03*
X-11614D02*
D03*
D27*
X-3937Y-36811D02*
D03*
Y-25394D02*
D03*
D28*
X-25591Y-25197D02*
D03*
X-33465D02*
D03*
D29*
X7874Y-36614D02*
D03*
Y-25591D02*
D03*
X21654Y-36614D02*
D03*
Y-25591D02*
D03*
D30*
X-27953Y-9449D02*
D03*
X-16929D02*
D03*
D31*
X24546Y25134D02*
D03*
X-1906Y34762D02*
D03*
D32*
X15833Y27383D02*
D03*
X14775Y31958D02*
D03*
X11024Y29134D02*
D03*
X9965Y33709D02*
D03*
X6214Y30884D02*
D03*
D33*
X0Y55512D02*
D03*
X47638Y14567D02*
D03*
X-43701Y24803D02*
D03*
X-38583Y-31496D02*
D03*
X35433Y42913D02*
D03*
X-42520Y35827D02*
D03*
X-38976Y-39764D02*
D03*
X37795Y-40945D02*
D03*
X55512Y0D02*
D03*
X-55512Y-1181D02*
D03*
X0Y-55905D02*
D03*
X24016Y-25591D02*
D03*
X19291D02*
D03*
X10236D02*
D03*
X5512D02*
D03*
X-23622Y13386D02*
D03*
X-12402Y29535D02*
D03*
M02*
