G04*
G04 #@! TF.GenerationSoftware,Altium Limited,Altium Designer,24.6.1 (21)*
G04*
G04 Layer_Physical_Order=5*
G04 Layer_Color=15441517*
%FSLAX44Y44*%
%MOMM*%
G71*
G04*
G04 #@! TF.SameCoordinates,29A4E78F-5DBC-4D08-8976-EEF5966CA2B1*
G04*
G04*
G04 #@! TF.FilePolarity,Positive*
G04*
G01*
G75*
%ADD20R,3.0000X3.0000*%
%ADD72C,0.4500*%
G36*
X208626Y217149D02*
X207355Y216623D01*
X206994Y216984D01*
X205700Y217520D01*
X204300D01*
X203006Y216984D01*
X202016Y215994D01*
X201480Y214700D01*
Y213300D01*
X202016Y212006D01*
X203006Y211016D01*
X204300Y210480D01*
X205700D01*
X206994Y211016D01*
X207355Y211378D01*
X208626Y210851D01*
Y182296D01*
X207355Y181447D01*
X207180Y181520D01*
X205780D01*
X204486Y180984D01*
X203496Y179994D01*
X202960Y178700D01*
Y177300D01*
X203496Y176006D01*
X204486Y175016D01*
X205780Y174480D01*
X207180D01*
X207355Y174553D01*
X208626Y173704D01*
Y124350D01*
X207355Y124097D01*
X206984Y124994D01*
X205994Y125984D01*
X204700Y126520D01*
X203300D01*
X202006Y125984D01*
X201016Y124994D01*
X200480Y123700D01*
Y122300D01*
X201016Y121006D01*
X202006Y120016D01*
X203300Y119480D01*
X204700D01*
X205994Y120016D01*
X206984Y121006D01*
X207355Y121903D01*
X208626Y121650D01*
Y110350D01*
X207355Y110097D01*
X206984Y110994D01*
X205994Y111984D01*
X204700Y112520D01*
X203300D01*
X202006Y111984D01*
X201016Y110994D01*
X200480Y109700D01*
Y108300D01*
X201016Y107006D01*
X202006Y106016D01*
X203300Y105480D01*
X204700D01*
X205994Y106016D01*
X206984Y107006D01*
X207355Y107903D01*
X208626Y107650D01*
Y96350D01*
X207355Y96097D01*
X206984Y96994D01*
X205994Y97984D01*
X204700Y98520D01*
X203300D01*
X202006Y97984D01*
X201016Y96994D01*
X200480Y95700D01*
Y94300D01*
X201016Y93006D01*
X202006Y92016D01*
X203300Y91480D01*
X204700D01*
X205994Y92016D01*
X206984Y93006D01*
X207355Y93903D01*
X208626Y93650D01*
Y82350D01*
X207355Y82097D01*
X206984Y82994D01*
X205994Y83984D01*
X204700Y84520D01*
X203300D01*
X202006Y83984D01*
X201016Y82994D01*
X200480Y81700D01*
Y80300D01*
X201016Y79006D01*
X202006Y78016D01*
X203300Y77480D01*
X204700D01*
X205994Y78016D01*
X206984Y79006D01*
X207355Y79903D01*
X208626Y79650D01*
Y1374D01*
X1374D01*
Y98061D01*
X2645Y98588D01*
X3216Y98016D01*
X4510Y97480D01*
X5910D01*
X7204Y98016D01*
X8194Y99006D01*
X8730Y100300D01*
Y101700D01*
X8194Y102994D01*
X7204Y103984D01*
X5910Y104520D01*
X4510D01*
X3216Y103984D01*
X2645Y103413D01*
X1374Y103939D01*
Y109851D01*
X2645Y110378D01*
X3006Y110016D01*
X4300Y109480D01*
X5700D01*
X6994Y110016D01*
X7984Y111006D01*
X8520Y112300D01*
Y113700D01*
X7984Y114994D01*
X6994Y115984D01*
X5700Y116520D01*
X4300D01*
X3006Y115984D01*
X2645Y115623D01*
X1374Y116149D01*
Y122851D01*
X2645Y123378D01*
X3006Y123016D01*
X4300Y122480D01*
X5700D01*
X6994Y123016D01*
X7984Y124006D01*
X8520Y125300D01*
Y126700D01*
X7984Y127994D01*
X6994Y128984D01*
X5700Y129520D01*
X4300D01*
X3006Y128984D01*
X2645Y128623D01*
X1374Y129149D01*
Y135604D01*
X2645Y136041D01*
X3326Y135360D01*
X4619Y134824D01*
X6020D01*
X7313Y135360D01*
X8304Y136350D01*
X8839Y137644D01*
Y139044D01*
X8304Y140338D01*
X7313Y141328D01*
X6020Y141864D01*
X4619D01*
X3326Y141328D01*
X2645Y140647D01*
X1374Y141084D01*
Y373626D01*
X208626D01*
Y217149D01*
D02*
G37*
%LPC*%
G36*
X7700Y371520D02*
X6300D01*
X5006Y370984D01*
X4016Y369994D01*
X3480Y368700D01*
Y367300D01*
X4016Y366006D01*
X5006Y365016D01*
X6300Y364480D01*
X7700D01*
X8994Y365016D01*
X9984Y366006D01*
X10520Y367300D01*
Y368700D01*
X9984Y369994D01*
X8994Y370984D01*
X7700Y371520D01*
D02*
G37*
G36*
X27700Y371520D02*
X26300D01*
X25006Y370984D01*
X24016Y369994D01*
X23480Y368700D01*
Y367300D01*
X24016Y366006D01*
X25006Y365016D01*
X26300Y364480D01*
X27700D01*
X28994Y365016D01*
X29984Y366006D01*
X30520Y367300D01*
Y368700D01*
X29984Y369994D01*
X28994Y370984D01*
X27700Y371520D01*
D02*
G37*
G36*
X17700D02*
X16300D01*
X15006Y370984D01*
X14016Y369994D01*
X13480Y368700D01*
Y367300D01*
X14016Y366006D01*
X15006Y365016D01*
X16300Y364480D01*
X17700D01*
X18994Y365016D01*
X19984Y366006D01*
X20520Y367300D01*
Y368700D01*
X19984Y369994D01*
X18994Y370984D01*
X17700Y371520D01*
D02*
G37*
G36*
X95700Y365520D02*
X94300D01*
X93006Y364984D01*
X92258Y364236D01*
X91500Y364092D01*
X90742Y364236D01*
X89994Y364984D01*
X88700Y365520D01*
X87300D01*
X86006Y364984D01*
X85016Y363994D01*
X84480Y362700D01*
Y361300D01*
X85016Y360006D01*
X85764Y359258D01*
X85908Y358500D01*
X85764Y357742D01*
X85016Y356994D01*
X84480Y355700D01*
Y354300D01*
X85016Y353006D01*
X85764Y352258D01*
X85908Y351500D01*
X85764Y350742D01*
X85016Y349994D01*
X84480Y348700D01*
Y347300D01*
X85016Y346006D01*
X85764Y345258D01*
X85908Y344500D01*
X85764Y343742D01*
X85016Y342994D01*
X84480Y341700D01*
Y340300D01*
X85016Y339006D01*
X86006Y338016D01*
X87300Y337480D01*
X88700D01*
X89994Y338016D01*
X90742Y338764D01*
X91500Y338908D01*
X92258Y338764D01*
X93006Y338016D01*
X94300Y337480D01*
X95700D01*
X96994Y338016D01*
X97984Y339006D01*
X98520Y340300D01*
Y341700D01*
X97984Y342994D01*
X97236Y343742D01*
X97092Y344500D01*
X97236Y345258D01*
X97984Y346006D01*
X98520Y347300D01*
Y348700D01*
X97984Y349994D01*
X97236Y350742D01*
X97092Y351500D01*
X97236Y352258D01*
X97984Y353006D01*
X98520Y354300D01*
Y355700D01*
X97984Y356994D01*
X97236Y357742D01*
X97092Y358500D01*
X97236Y359258D01*
X97984Y360006D01*
X98520Y361300D01*
Y362700D01*
X97984Y363994D01*
X96994Y364984D01*
X95700Y365520D01*
D02*
G37*
G36*
X124700D02*
X123300D01*
X122006Y364984D01*
X121830Y364808D01*
X121000Y364009D01*
X120170Y364808D01*
X119994Y364984D01*
X118700Y365520D01*
X117300D01*
X116006Y364984D01*
X115016Y363994D01*
X114480Y362700D01*
Y361300D01*
X115016Y360006D01*
X115764Y359258D01*
X115908Y358500D01*
X115764Y357742D01*
X115016Y356994D01*
X114480Y355700D01*
Y354300D01*
X115016Y353006D01*
X115764Y352258D01*
X115908Y351500D01*
X115764Y350742D01*
X115016Y349994D01*
X114480Y348700D01*
Y347300D01*
X115016Y346006D01*
X115764Y345258D01*
X115908Y344500D01*
X115764Y343742D01*
X115016Y342994D01*
X114480Y341700D01*
Y340300D01*
X115016Y339006D01*
X116006Y338016D01*
X117300Y337480D01*
X118700D01*
X119994Y338016D01*
X120170Y338192D01*
X121000Y338991D01*
X121830Y338192D01*
X122006Y338016D01*
X123300Y337480D01*
X124700D01*
X125994Y338016D01*
X126984Y339006D01*
X127520Y340300D01*
Y341700D01*
X126984Y342994D01*
X126236Y343742D01*
X126092Y344500D01*
X126236Y345258D01*
X126984Y346006D01*
X127520Y347300D01*
Y348700D01*
X126984Y349994D01*
X126236Y350742D01*
X126092Y351500D01*
X126236Y352258D01*
X126984Y353006D01*
X127520Y354300D01*
Y355700D01*
X126984Y356994D01*
X126236Y357742D01*
X126092Y358500D01*
X126236Y359258D01*
X126984Y360006D01*
X127520Y361300D01*
Y362700D01*
X126984Y363994D01*
X125994Y364984D01*
X124700Y365520D01*
D02*
G37*
G36*
X27700Y361520D02*
X26300D01*
X25006Y360984D01*
X24016Y359994D01*
X23480Y358700D01*
Y357300D01*
X24016Y356006D01*
X25006Y355016D01*
X26300Y354480D01*
X27700D01*
X28994Y355016D01*
X29984Y356006D01*
X30520Y357300D01*
Y358700D01*
X29984Y359994D01*
X28994Y360984D01*
X27700Y361520D01*
D02*
G37*
G36*
X17700D02*
X16300D01*
X15006Y360984D01*
X14016Y359994D01*
X13480Y358700D01*
Y357300D01*
X14016Y356006D01*
X15006Y355016D01*
X16300Y354480D01*
X17700D01*
X18994Y355016D01*
X19984Y356006D01*
X20520Y357300D01*
Y358700D01*
X19984Y359994D01*
X18994Y360984D01*
X17700Y361520D01*
D02*
G37*
G36*
X7700D02*
X6300D01*
X5006Y360984D01*
X4016Y359994D01*
X3480Y358700D01*
Y357300D01*
X4016Y356006D01*
X5006Y355016D01*
X6300Y354480D01*
X7700D01*
X8994Y355016D01*
X9984Y356006D01*
X10520Y357300D01*
Y358700D01*
X9984Y359994D01*
X8994Y360984D01*
X7700Y361520D01*
D02*
G37*
G36*
X17700Y351520D02*
X16300D01*
X15006Y350984D01*
X14016Y349994D01*
X13480Y348700D01*
Y347300D01*
X14016Y346006D01*
X15006Y345016D01*
X16300Y344480D01*
X17700D01*
X18994Y345016D01*
X19984Y346006D01*
X20520Y347300D01*
Y348700D01*
X19984Y349994D01*
X18994Y350984D01*
X17700Y351520D01*
D02*
G37*
G36*
X7700D02*
X6300D01*
X5006Y350984D01*
X4016Y349994D01*
X3480Y348700D01*
Y347300D01*
X4016Y346006D01*
X5006Y345016D01*
X6300Y344480D01*
X7700D01*
X8994Y345016D01*
X9984Y346006D01*
X10520Y347300D01*
Y348700D01*
X9984Y349994D01*
X8994Y350984D01*
X7700Y351520D01*
D02*
G37*
G36*
X27700Y351520D02*
X26300D01*
X25006Y350984D01*
X24016Y349994D01*
X23480Y348700D01*
Y347300D01*
X24016Y346006D01*
X25006Y345016D01*
X26300Y344480D01*
X27700D01*
X28994Y345016D01*
X29984Y346006D01*
X30520Y347300D01*
Y348700D01*
X29984Y349994D01*
X28994Y350984D01*
X27700Y351520D01*
D02*
G37*
G36*
X79384Y340320D02*
X77983D01*
X76690Y339784D01*
X75773Y338868D01*
X75628Y338789D01*
X74285Y338697D01*
X73707Y339274D01*
X72413Y339810D01*
X71013D01*
X69719Y339274D01*
X68729Y338284D01*
X68193Y336990D01*
Y335590D01*
X68729Y334296D01*
X69719Y333306D01*
X71013Y332770D01*
X72413D01*
X73707Y333306D01*
X74624Y334222D01*
X74768Y334301D01*
X76112Y334393D01*
X76690Y333816D01*
X77983Y333280D01*
X79384D01*
X80677Y333816D01*
X81668Y334806D01*
X82204Y336100D01*
Y337500D01*
X81668Y338794D01*
X80677Y339784D01*
X79384Y340320D01*
D02*
G37*
G36*
X49910Y340520D02*
X48510D01*
X47216Y339984D01*
X46226Y338994D01*
X45690Y337700D01*
Y337275D01*
X45690Y337194D01*
X44420Y336942D01*
X44367Y337070D01*
X43984Y337994D01*
X42994Y338984D01*
X41700Y339520D01*
X40300D01*
X39006Y338984D01*
X38016Y337994D01*
X37480Y336700D01*
Y335300D01*
X38016Y334006D01*
X38477Y333545D01*
X38229Y332068D01*
X37852Y331912D01*
X36862Y330921D01*
X36326Y329628D01*
Y328227D01*
X36862Y326934D01*
X37852Y325943D01*
X39146Y325407D01*
X40546D01*
X41840Y325943D01*
X42830Y326934D01*
X43366Y328227D01*
Y329628D01*
X42830Y330921D01*
X42369Y331382D01*
X42617Y332860D01*
X42994Y333016D01*
X43984Y334006D01*
X44520Y335300D01*
Y335725D01*
X44520Y335806D01*
X45790Y336058D01*
X45843Y335930D01*
X46226Y335006D01*
X47216Y334016D01*
X48510Y333480D01*
X49910D01*
X51204Y334016D01*
X52194Y335006D01*
X52730Y336300D01*
Y337700D01*
X52194Y338994D01*
X51204Y339984D01*
X49910Y340520D01*
D02*
G37*
G36*
X13700Y336520D02*
X12300D01*
X11006Y335984D01*
X10830Y335808D01*
X10000Y335009D01*
X9170Y335808D01*
X8994Y335984D01*
X7700Y336520D01*
X6300D01*
X5006Y335984D01*
X4016Y334994D01*
X3480Y333700D01*
Y332300D01*
X4016Y331006D01*
X4764Y330258D01*
X4908Y329500D01*
X4764Y328742D01*
X4016Y327994D01*
X3480Y326700D01*
Y325300D01*
X4016Y324006D01*
X4764Y323258D01*
X4908Y322500D01*
X4764Y321742D01*
X4016Y320994D01*
X3480Y319700D01*
Y318300D01*
X4016Y317006D01*
X4764Y316258D01*
X4908Y315500D01*
X4764Y314742D01*
X4016Y313994D01*
X3480Y312700D01*
Y311300D01*
X4016Y310006D01*
X4764Y309258D01*
X4908Y308500D01*
X4764Y307742D01*
X4016Y306994D01*
X3480Y305700D01*
Y304300D01*
X4016Y303006D01*
X4764Y302258D01*
X4908Y301500D01*
X4764Y300742D01*
X4016Y299994D01*
X3480Y298700D01*
Y297300D01*
X4016Y296006D01*
X4764Y295258D01*
X4908Y294500D01*
X4764Y293742D01*
X4016Y292994D01*
X3480Y291700D01*
Y290300D01*
X4016Y289006D01*
X4192Y288830D01*
X4991Y288000D01*
X4192Y287170D01*
X4016Y286994D01*
X3480Y285700D01*
Y284300D01*
X4016Y283006D01*
X5006Y282016D01*
X6300Y281480D01*
X7700D01*
X8994Y282016D01*
X9170Y282192D01*
X10000Y282991D01*
X10830Y282192D01*
X11006Y282016D01*
X12300Y281480D01*
X13700D01*
X14994Y282016D01*
X15984Y283006D01*
X16520Y284300D01*
Y285700D01*
X15984Y286994D01*
X15808Y287170D01*
X15009Y288000D01*
X15808Y288830D01*
X15984Y289006D01*
X16520Y290300D01*
Y291700D01*
X15984Y292994D01*
X15236Y293742D01*
X15092Y294500D01*
X15236Y295258D01*
X15984Y296006D01*
X16520Y297300D01*
Y298700D01*
X15984Y299994D01*
X15236Y300742D01*
X15092Y301500D01*
X15236Y302258D01*
X15984Y303006D01*
X16520Y304300D01*
Y305700D01*
X15984Y306994D01*
X15236Y307742D01*
X15092Y308500D01*
X15236Y309258D01*
X15984Y310006D01*
X16072Y310219D01*
X17551Y310471D01*
X18006Y310016D01*
X19300Y309480D01*
X20700D01*
X21994Y310016D01*
X22984Y311006D01*
X23520Y312300D01*
Y313700D01*
X22984Y314994D01*
X22808Y315170D01*
X22009Y316000D01*
X22808Y316830D01*
X22984Y317006D01*
X23520Y318300D01*
Y319700D01*
X22984Y320994D01*
X21994Y321984D01*
X20700Y322520D01*
X19300D01*
X18006Y321984D01*
X17258Y321236D01*
X16500Y321092D01*
X15742Y321236D01*
X15236Y321742D01*
X15092Y322500D01*
X15236Y323258D01*
X15984Y324006D01*
X16520Y325300D01*
Y326700D01*
X15984Y327994D01*
X15236Y328742D01*
X15092Y329500D01*
X15236Y330258D01*
X15984Y331006D01*
X16520Y332300D01*
Y333700D01*
X15984Y334994D01*
X14994Y335984D01*
X13700Y336520D01*
D02*
G37*
G36*
X202700Y338520D02*
X201300D01*
X200006Y337984D01*
X199016Y336994D01*
X198480Y335700D01*
Y334300D01*
X199016Y333006D01*
X200006Y332016D01*
X201300Y331480D01*
X202700D01*
X203994Y332016D01*
X204984Y333006D01*
X205520Y334300D01*
Y335700D01*
X204984Y336994D01*
X203994Y337984D01*
X202700Y338520D01*
D02*
G37*
G36*
X187700D02*
X186300D01*
X185006Y337984D01*
X184016Y336994D01*
X183480Y335700D01*
Y334300D01*
X184016Y333006D01*
X185006Y332016D01*
X186300Y331480D01*
X187700D01*
X188994Y332016D01*
X189984Y333006D01*
X190520Y334300D01*
Y335700D01*
X189984Y336994D01*
X188994Y337984D01*
X187700Y338520D01*
D02*
G37*
G36*
X103720Y340000D02*
X102320D01*
X101026Y339464D01*
X100036Y338474D01*
X99500Y337180D01*
Y335780D01*
X100036Y334486D01*
X101026Y333496D01*
X101109Y332087D01*
X101016Y331994D01*
X100480Y330700D01*
Y329300D01*
X101016Y328006D01*
X102006Y327016D01*
X103300Y326480D01*
X104700D01*
X105994Y327016D01*
X106984Y328006D01*
X107520Y329300D01*
Y330700D01*
X106984Y331994D01*
X105994Y332984D01*
X105911Y334393D01*
X106004Y334486D01*
X106540Y335780D01*
Y337180D01*
X106004Y338474D01*
X105014Y339464D01*
X103720Y340000D01*
D02*
G37*
G36*
X173700Y325520D02*
X172300D01*
X171006Y324984D01*
X170830Y324808D01*
X170000Y324009D01*
X169170Y324808D01*
X168994Y324984D01*
X167700Y325520D01*
X166300D01*
X165006Y324984D01*
X164016Y323994D01*
X163480Y322700D01*
Y321300D01*
X164016Y320006D01*
X165006Y319016D01*
X165799Y318687D01*
Y317313D01*
X165006Y316984D01*
X164016Y315994D01*
X163480Y314700D01*
Y313300D01*
X164016Y312006D01*
X165006Y311016D01*
X166300Y310480D01*
X167700D01*
X168994Y311016D01*
X169170Y311192D01*
X170000Y311991D01*
X170830Y311192D01*
X171006Y311016D01*
X172300Y310480D01*
X173700D01*
X174994Y311016D01*
X175984Y312006D01*
X176520Y313300D01*
Y314700D01*
X175984Y315994D01*
X174994Y316984D01*
X174201Y317313D01*
Y318687D01*
X174994Y319016D01*
X175984Y320006D01*
X176520Y321300D01*
Y322700D01*
X175984Y323994D01*
X174994Y324984D01*
X173700Y325520D01*
D02*
G37*
G36*
X92203Y325865D02*
X90803D01*
X89509Y325329D01*
X88519Y324339D01*
X87983Y323045D01*
Y321645D01*
X88519Y320351D01*
X89509Y319361D01*
X90803Y318825D01*
X92203D01*
X92230Y318807D01*
Y318300D01*
X92766Y317006D01*
X93756Y316016D01*
X95050Y315480D01*
X96450D01*
X97744Y316016D01*
X98734Y317006D01*
X99270Y318300D01*
Y319700D01*
X98734Y320994D01*
X97744Y321984D01*
X96450Y322520D01*
X95050D01*
X95023Y322538D01*
Y323045D01*
X94487Y324339D01*
X93497Y325329D01*
X92203Y325865D01*
D02*
G37*
G36*
X30700Y321520D02*
X29300D01*
X28006Y320984D01*
X27016Y319994D01*
X26480Y318700D01*
Y317300D01*
X27016Y316006D01*
X28006Y315016D01*
X29300Y314480D01*
X30700D01*
X31994Y315016D01*
X32984Y316006D01*
X33520Y317300D01*
Y318700D01*
X32984Y319994D01*
X31994Y320984D01*
X30700Y321520D01*
D02*
G37*
G36*
X141950Y312520D02*
X140550D01*
X139256Y311984D01*
X138266Y310994D01*
X137730Y309700D01*
Y308300D01*
X138266Y307006D01*
X139256Y306016D01*
X140550Y305480D01*
X141950D01*
X143244Y306016D01*
X144234Y307006D01*
X144770Y308300D01*
Y309700D01*
X144234Y310994D01*
X143244Y311984D01*
X141950Y312520D01*
D02*
G37*
G36*
X168300Y307720D02*
X166900D01*
X165606Y307184D01*
X164616Y306194D01*
X164080Y304900D01*
Y303500D01*
X164616Y302206D01*
X165606Y301216D01*
X166900Y300680D01*
X168300D01*
X169594Y301216D01*
X170584Y302206D01*
X171120Y303500D01*
Y304900D01*
X170584Y306194D01*
X169594Y307184D01*
X168300Y307720D01*
D02*
G37*
G36*
X94400Y305430D02*
X93000D01*
X91706Y304894D01*
X90716Y303904D01*
X90180Y302610D01*
Y301210D01*
X90716Y299916D01*
X91706Y298926D01*
X93000Y298390D01*
X94400D01*
X95694Y298926D01*
X96684Y299916D01*
X97220Y301210D01*
Y302610D01*
X96684Y303904D01*
X95694Y304894D01*
X94400Y305430D01*
D02*
G37*
G36*
X109909Y295736D02*
X108509D01*
X107215Y295201D01*
X106225Y294210D01*
X105689Y292917D01*
Y291516D01*
X105700Y291490D01*
X104754Y290455D01*
X104440Y290553D01*
Y290780D01*
X103904Y292074D01*
X102914Y293064D01*
X101620Y293600D01*
X100220D01*
X98926Y293064D01*
X97936Y292074D01*
X97400Y290780D01*
Y289380D01*
X97936Y288086D01*
X98926Y287096D01*
X100220Y286560D01*
X101480D01*
Y285300D01*
X102016Y284006D01*
X103006Y283016D01*
X104300Y282480D01*
X105700D01*
X106994Y283016D01*
X107099Y283121D01*
X108369Y282595D01*
Y282411D01*
X108905Y281117D01*
X109895Y280127D01*
X111189Y279591D01*
X112589D01*
X113883Y280127D01*
X114873Y281117D01*
X115409Y282411D01*
Y283811D01*
X114873Y285105D01*
X113883Y286095D01*
X112589Y286631D01*
X111189D01*
X109895Y286095D01*
X109790Y285991D01*
X108580Y286492D01*
X108241Y287690D01*
X108919Y288665D01*
X108963Y288696D01*
X109909D01*
X111203Y289232D01*
X112193Y290223D01*
X112729Y291516D01*
Y292917D01*
X112193Y294210D01*
X111203Y295201D01*
X109909Y295736D01*
D02*
G37*
G36*
X77371Y296675D02*
X75971D01*
X74677Y296139D01*
X73687Y295149D01*
X73151Y293855D01*
Y292455D01*
X73687Y291161D01*
X74677Y290171D01*
X75971Y289635D01*
X77371D01*
X78665Y290171D01*
X79655Y291161D01*
X80191Y292455D01*
Y293855D01*
X79655Y295149D01*
X78665Y296139D01*
X77371Y296675D01*
D02*
G37*
G36*
X186700Y287519D02*
X185299D01*
X184006Y286984D01*
X183015Y285993D01*
X182480Y284700D01*
Y283299D01*
X183015Y282006D01*
X184006Y281015D01*
X185299Y280479D01*
X186700D01*
X187994Y281015D01*
X188984Y282006D01*
X189520Y283299D01*
Y284700D01*
X188984Y285993D01*
X187994Y286984D01*
X186700Y287519D01*
D02*
G37*
G36*
X39700Y277500D02*
X38300D01*
X37006Y276964D01*
X36016Y275974D01*
X35480Y274680D01*
Y273280D01*
X36016Y271986D01*
X37006Y270996D01*
X38300Y270460D01*
X39700D01*
X40994Y270996D01*
X41984Y271986D01*
X42520Y273280D01*
Y274680D01*
X41984Y275974D01*
X40994Y276964D01*
X39700Y277500D01*
D02*
G37*
G36*
X126700Y284520D02*
X125300D01*
X124006Y283984D01*
X123016Y282994D01*
X122480Y281700D01*
Y280300D01*
X123016Y279006D01*
X124006Y278016D01*
X125300Y277480D01*
X125461D01*
X125987Y276210D01*
X125520Y275742D01*
X124984Y274449D01*
Y273048D01*
X125520Y271755D01*
X126510Y270765D01*
X126556Y270534D01*
X126016Y269994D01*
X125480Y268700D01*
Y267300D01*
X126016Y266006D01*
X127006Y265016D01*
X128300Y264480D01*
X129700D01*
X130994Y265016D01*
X131984Y266006D01*
X132520Y267300D01*
Y268700D01*
X131984Y269994D01*
X130994Y270984D01*
X130948Y271215D01*
X131488Y271755D01*
X132024Y273048D01*
Y274449D01*
X131488Y275742D01*
X130498Y276733D01*
X129204Y277269D01*
X129043D01*
X128517Y278539D01*
X128984Y279006D01*
X129520Y280300D01*
Y281700D01*
X128984Y282994D01*
X127994Y283984D01*
X126700Y284520D01*
D02*
G37*
G36*
X31659Y265365D02*
X30259D01*
X28965Y264829D01*
X27975Y263839D01*
X27939Y263754D01*
X26465Y263513D01*
X25994Y263984D01*
X24700Y264520D01*
X23300D01*
X22006Y263984D01*
X21016Y262994D01*
X20480Y261700D01*
Y260300D01*
X21016Y259006D01*
X21661Y258361D01*
X21557Y257737D01*
X20459Y257519D01*
X19994Y257984D01*
X18700Y258520D01*
X17300D01*
X16006Y257984D01*
X15016Y256994D01*
X14480Y255700D01*
Y254300D01*
X15016Y253006D01*
X15316Y252706D01*
X15263Y252233D01*
X14903Y251323D01*
X13881Y250900D01*
X12891Y249910D01*
X12355Y248616D01*
Y247216D01*
X12891Y245922D01*
X13881Y244932D01*
X15175Y244396D01*
X16575D01*
X17869Y244932D01*
X18859Y245922D01*
X19395Y247216D01*
Y248616D01*
X18859Y249910D01*
X18559Y250210D01*
X18612Y250683D01*
X18973Y251593D01*
X19473Y251800D01*
X21016Y251394D01*
X22006Y250403D01*
X23300Y249867D01*
X24700D01*
X25994Y250403D01*
X26984Y251394D01*
X27520Y252687D01*
Y254088D01*
X26984Y255381D01*
X25994Y256371D01*
X25668Y256506D01*
Y257881D01*
X25994Y258016D01*
X26984Y259006D01*
X27020Y259091D01*
X28494Y259332D01*
X28965Y258861D01*
X30259Y258325D01*
X31659D01*
X32953Y258861D01*
X33943Y259851D01*
X34479Y261145D01*
Y262545D01*
X33943Y263839D01*
X32953Y264829D01*
X31659Y265365D01*
D02*
G37*
G36*
X140087Y259157D02*
X138687D01*
X137393Y258622D01*
X136403Y257631D01*
X135867Y256338D01*
Y254937D01*
X136403Y253643D01*
X137393Y252653D01*
X138687Y252118D01*
X140087D01*
X141381Y252653D01*
X142371Y253643D01*
X142907Y254937D01*
Y256338D01*
X142371Y257631D01*
X141381Y258622D01*
X140087Y259157D01*
D02*
G37*
G36*
X181855Y249520D02*
X180455D01*
X179161Y248984D01*
X178171Y247994D01*
X177635Y246700D01*
Y245300D01*
X178171Y244006D01*
X179161Y243016D01*
X180455Y242480D01*
X181855D01*
X183149Y243016D01*
X184139Y244006D01*
X184675Y245300D01*
Y246700D01*
X184139Y247994D01*
X183149Y248984D01*
X181855Y249520D01*
D02*
G37*
G36*
X27910Y240520D02*
X26510D01*
X25216Y239984D01*
X24226Y238994D01*
X23690Y237700D01*
Y237084D01*
X22420Y236558D01*
X21994Y236984D01*
X20700Y237520D01*
X19300D01*
X18006Y236984D01*
X17016Y235994D01*
X16480Y234700D01*
Y233300D01*
X17016Y232006D01*
X18006Y231016D01*
X19300Y230480D01*
X20700D01*
X21994Y231016D01*
X22984Y232006D01*
X23520Y233300D01*
Y233916D01*
X24790Y234442D01*
X25216Y234016D01*
X26510Y233480D01*
X27910D01*
X29204Y234016D01*
X30194Y235006D01*
X30730Y236300D01*
Y237700D01*
X30194Y238994D01*
X29204Y239984D01*
X27910Y240520D01*
D02*
G37*
G36*
X172650Y249520D02*
X171250D01*
X169956Y248984D01*
X168966Y247994D01*
X168430Y246700D01*
Y245300D01*
X168966Y244006D01*
X169714Y243258D01*
X169858Y242500D01*
X169714Y241742D01*
X168966Y240994D01*
X168430Y239700D01*
Y238300D01*
X168966Y237006D01*
X169956Y236016D01*
X171250Y235480D01*
X172650D01*
X173944Y236016D01*
X174934Y237006D01*
X175470Y238300D01*
Y239700D01*
X174934Y240994D01*
X174186Y241742D01*
X174042Y242500D01*
X174186Y243258D01*
X174934Y244006D01*
X175470Y245300D01*
Y246700D01*
X174934Y247994D01*
X173944Y248984D01*
X172650Y249520D01*
D02*
G37*
G36*
X141700Y238520D02*
X140300D01*
X139006Y237984D01*
X138016Y236994D01*
X137480Y235700D01*
Y234300D01*
X138016Y233006D01*
X139006Y232016D01*
X140300Y231480D01*
X141700D01*
X142994Y232016D01*
X143984Y233006D01*
X144520Y234300D01*
Y235700D01*
X143984Y236994D01*
X142994Y237984D01*
X141700Y238520D01*
D02*
G37*
G36*
X141700Y227520D02*
X140300D01*
X139006Y226984D01*
X138016Y225994D01*
X137480Y224700D01*
Y223300D01*
X138016Y222006D01*
X137576Y220650D01*
X137475Y220608D01*
X136485Y219618D01*
X136076Y218631D01*
X135401Y218211D01*
X134679Y218062D01*
X133675Y218478D01*
X132275D01*
X130981Y217942D01*
X129991Y216952D01*
X129455Y215658D01*
Y215582D01*
X128700Y214520D01*
X128282Y214520D01*
X127300D01*
X126006Y213984D01*
X125016Y212994D01*
X124480Y211700D01*
Y210300D01*
X125016Y209006D01*
X126006Y208016D01*
X127300Y207480D01*
X128700D01*
X129994Y208016D01*
X130984Y209006D01*
X131520Y210300D01*
Y210376D01*
X132275Y211438D01*
X132693Y211438D01*
X133675D01*
X134969Y211974D01*
X135959Y212964D01*
X136368Y213951D01*
X137043Y214371D01*
X137765Y214520D01*
X138769Y214104D01*
X140169D01*
X141463Y214640D01*
X142453Y215630D01*
X142989Y216924D01*
Y218324D01*
X142453Y219618D01*
X142893Y220974D01*
X142994Y221016D01*
X143984Y222006D01*
X144520Y223300D01*
Y224700D01*
X143984Y225994D01*
X142994Y226984D01*
X141700Y227520D01*
D02*
G37*
G36*
X19700Y225520D02*
X18300D01*
X17006Y224984D01*
X16016Y223994D01*
X15480Y222700D01*
Y221300D01*
X16016Y220006D01*
X17006Y219016D01*
X17999Y218605D01*
X18321Y218411D01*
X18691Y217210D01*
X18480Y216700D01*
Y215299D01*
X19016Y214006D01*
X20006Y213015D01*
X21300Y212480D01*
X22700D01*
X23994Y213015D01*
X24984Y214006D01*
X25520Y215299D01*
Y216700D01*
X24984Y217994D01*
X23994Y218984D01*
X23001Y219395D01*
X22679Y219589D01*
X22309Y220790D01*
X22520Y221300D01*
Y222700D01*
X21984Y223994D01*
X20994Y224984D01*
X19700Y225520D01*
D02*
G37*
G36*
X155300Y212520D02*
X153900D01*
X152606Y211984D01*
X151616Y210994D01*
X151080Y209700D01*
Y208300D01*
X151616Y207006D01*
X152606Y206016D01*
X153900Y205480D01*
X155300D01*
X156594Y206016D01*
X157584Y207006D01*
X158120Y208300D01*
Y209700D01*
X157584Y210994D01*
X156594Y211984D01*
X155300Y212520D01*
D02*
G37*
G36*
X125945Y205983D02*
X124545D01*
X123251Y205447D01*
X122261Y204457D01*
X121725Y203163D01*
Y201763D01*
X122261Y200469D01*
X123251Y199479D01*
X124545Y198943D01*
X125945D01*
X127239Y199479D01*
X128229Y200469D01*
X128765Y201763D01*
Y203163D01*
X128229Y204457D01*
X127239Y205447D01*
X125945Y205983D01*
D02*
G37*
G36*
X43567Y197286D02*
X42167D01*
X40873Y196750D01*
X39883Y195760D01*
X39347Y194466D01*
Y193065D01*
X39883Y191772D01*
X40873Y190781D01*
X42167Y190246D01*
X43567D01*
X44861Y190781D01*
X45851Y191772D01*
X46387Y193065D01*
Y194466D01*
X45851Y195760D01*
X44861Y196750D01*
X43567Y197286D01*
D02*
G37*
G36*
X114700Y196520D02*
X113300D01*
X112006Y195984D01*
X111016Y194994D01*
X110480Y193700D01*
Y192300D01*
X111016Y191006D01*
X112006Y190016D01*
X113300Y189480D01*
X114700D01*
X115994Y190016D01*
X116984Y191006D01*
X117520Y192300D01*
Y193700D01*
X116984Y194994D01*
X115994Y195984D01*
X114700Y196520D01*
D02*
G37*
G36*
X158355Y189520D02*
X156955D01*
X155661Y188984D01*
X154671Y187994D01*
X154135Y186700D01*
Y185300D01*
X154671Y184006D01*
X155661Y183016D01*
X156955Y182480D01*
X158355D01*
X159649Y183016D01*
X160639Y184006D01*
X161175Y185300D01*
Y186700D01*
X160639Y187994D01*
X159649Y188984D01*
X158355Y189520D01*
D02*
G37*
G36*
X177700Y189520D02*
X176299D01*
X175006Y188984D01*
X174016Y187994D01*
X173480Y186700D01*
Y185299D01*
X174016Y184006D01*
X175006Y183015D01*
X176299Y182480D01*
X177700D01*
X178993Y183015D01*
X179984Y184006D01*
X180520Y185299D01*
Y186700D01*
X179984Y187994D01*
X178993Y188984D01*
X177700Y189520D01*
D02*
G37*
G36*
X24700Y188520D02*
X23300D01*
X22006Y187984D01*
X21016Y186994D01*
X20480Y185700D01*
Y184300D01*
X21016Y183006D01*
X22006Y182016D01*
X23300Y181480D01*
X24700D01*
X25210Y181691D01*
X26411Y181321D01*
X26605Y180999D01*
X27016Y180006D01*
X28006Y179016D01*
X29300Y178480D01*
X30700D01*
X31994Y179016D01*
X32984Y180006D01*
X33520Y181300D01*
Y182700D01*
X32984Y183994D01*
X31994Y184984D01*
X30700Y185520D01*
X29300D01*
X28790Y185309D01*
X27589Y185679D01*
X27395Y186001D01*
X26984Y186994D01*
X25994Y187984D01*
X24700Y188520D01*
D02*
G37*
G36*
X149849Y189520D02*
X148449D01*
X147155Y188984D01*
X146165Y187994D01*
X145629Y186700D01*
Y185300D01*
X146165Y184006D01*
X146341Y183830D01*
X147140Y183000D01*
X146341Y182170D01*
X146165Y181994D01*
X145629Y180700D01*
Y179300D01*
X146165Y178006D01*
X147155Y177016D01*
X148449Y176480D01*
X149849D01*
X151143Y177016D01*
X152133Y178006D01*
X152669Y179300D01*
Y180700D01*
X152133Y181994D01*
X151957Y182170D01*
X151158Y183000D01*
X151957Y183830D01*
X152133Y184006D01*
X152669Y185300D01*
Y186700D01*
X152133Y187994D01*
X151143Y188984D01*
X149849Y189520D01*
D02*
G37*
G36*
X69262Y174082D02*
X67862D01*
X66568Y173546D01*
X65578Y172556D01*
X65472Y172302D01*
X63994Y171984D01*
X62700Y172520D01*
X61300D01*
X60006Y171984D01*
X59258Y171236D01*
X58500Y171092D01*
X57742Y171236D01*
X56994Y171984D01*
X55700Y172520D01*
X54300D01*
X53006Y171984D01*
X52016Y170994D01*
X51480Y169700D01*
Y168300D01*
X52016Y167006D01*
X53006Y166016D01*
X54300Y165480D01*
X55700D01*
X56994Y166016D01*
X57742Y166764D01*
X58500Y166908D01*
X59258Y166764D01*
X60006Y166016D01*
X61300Y165480D01*
X62700D01*
X63994Y166016D01*
X64984Y167006D01*
X65089Y167260D01*
X66568Y167578D01*
X67862Y167042D01*
X69262D01*
X70556Y167578D01*
X71546Y168568D01*
X72082Y169862D01*
Y171262D01*
X71546Y172556D01*
X70556Y173546D01*
X69262Y174082D01*
D02*
G37*
G36*
X102700Y172520D02*
X101300D01*
X100006Y171984D01*
X99830Y171808D01*
X99000Y171009D01*
X98170Y171808D01*
X97994Y171984D01*
X96700Y172520D01*
X95300D01*
X94006Y171984D01*
X93016Y170994D01*
X92480Y169700D01*
Y168300D01*
X93016Y167006D01*
X94006Y166016D01*
X95300Y165480D01*
X96700D01*
X97994Y166016D01*
X98170Y166192D01*
X99000Y166991D01*
X99830Y166192D01*
X100006Y166016D01*
X101300Y165480D01*
X102700D01*
X103994Y166016D01*
X104984Y167006D01*
X105520Y168300D01*
Y169700D01*
X104984Y170994D01*
X103994Y171984D01*
X102700Y172520D01*
D02*
G37*
G36*
X125700Y173520D02*
X124300D01*
X123006Y172984D01*
X122016Y171994D01*
X121480Y170700D01*
Y169300D01*
X122016Y168006D01*
X123006Y167016D01*
X124300Y166480D01*
X125700D01*
X126994Y167016D01*
X127984Y168006D01*
X128520Y169300D01*
Y170700D01*
X127984Y171994D01*
X126994Y172984D01*
X125700Y173520D01*
D02*
G37*
G36*
X13700Y178520D02*
X12300D01*
X11006Y177984D01*
X10016Y176994D01*
X9480Y175700D01*
Y174300D01*
X10016Y173006D01*
X11006Y172016D01*
X11177Y171155D01*
X11016Y170994D01*
X10480Y169700D01*
Y168300D01*
X11016Y167006D01*
X12006Y166016D01*
X13300Y165480D01*
X14700D01*
X15994Y166016D01*
X16170Y166192D01*
X17000Y166991D01*
X17830Y166192D01*
X18006Y166016D01*
X19300Y165480D01*
X20700D01*
X21994Y166016D01*
X22984Y167006D01*
X23520Y168300D01*
Y169700D01*
X22984Y170994D01*
X21994Y171984D01*
X20700Y172520D01*
X19300D01*
X18006Y171984D01*
X17830Y171808D01*
X17352Y171348D01*
X16186Y171989D01*
X15984Y173006D01*
X16520Y174300D01*
Y175700D01*
X15984Y176994D01*
X14994Y177984D01*
X13700Y178520D01*
D02*
G37*
G36*
X86855Y174392D02*
X85455D01*
X84161Y173856D01*
X83171Y172866D01*
X82635Y171572D01*
Y170172D01*
X83171Y168878D01*
X84161Y167888D01*
X85212Y167452D01*
X85380Y166571D01*
X85338Y166130D01*
X84986Y165984D01*
X83996Y164994D01*
X83460Y163700D01*
Y162300D01*
X83996Y161006D01*
X84986Y160016D01*
X86280Y159480D01*
X87680D01*
X88974Y160016D01*
X89964Y161006D01*
X90500Y162300D01*
Y163700D01*
X89964Y164994D01*
X88974Y165984D01*
X87923Y166420D01*
X87755Y167301D01*
X87797Y167742D01*
X88149Y167888D01*
X89139Y168878D01*
X89675Y170172D01*
Y171572D01*
X89139Y172866D01*
X88149Y173856D01*
X86855Y174392D01*
D02*
G37*
G36*
X42700Y172365D02*
X41300D01*
X40006Y171829D01*
X39016Y170839D01*
X38480Y169545D01*
Y168145D01*
X39016Y166851D01*
X40006Y165861D01*
X41300Y165325D01*
X41758D01*
X42607Y164055D01*
X42460Y163700D01*
Y162300D01*
X42996Y161006D01*
X43986Y160016D01*
X45280Y159480D01*
X46680D01*
X47974Y160016D01*
X48964Y161006D01*
X49500Y162300D01*
Y163700D01*
X48964Y164994D01*
X47974Y165984D01*
X46680Y166520D01*
X46222D01*
X45373Y167790D01*
X45520Y168145D01*
Y169545D01*
X44984Y170839D01*
X43994Y171829D01*
X42700Y172365D01*
D02*
G37*
G36*
X186450Y159520D02*
X185050D01*
X183756Y158984D01*
X182766Y157994D01*
X182230Y156700D01*
Y155300D01*
X182766Y154006D01*
X183756Y153016D01*
X185050Y152480D01*
X186450D01*
X187744Y153016D01*
X188734Y154006D01*
X189270Y155300D01*
Y156700D01*
X188734Y157994D01*
X187744Y158984D01*
X186450Y159520D01*
D02*
G37*
G36*
X174950D02*
X173550D01*
X172256Y158984D01*
X171266Y157994D01*
X170730Y156700D01*
Y155300D01*
X171266Y154006D01*
X172256Y153016D01*
X173550Y152480D01*
X174950D01*
X176244Y153016D01*
X177234Y154006D01*
X177770Y155300D01*
Y156700D01*
X177234Y157994D01*
X176244Y158984D01*
X174950Y159520D01*
D02*
G37*
G36*
X164450D02*
X163050D01*
X161756Y158984D01*
X160766Y157994D01*
X160230Y156700D01*
Y155300D01*
X160766Y154006D01*
X161756Y153016D01*
X163050Y152480D01*
X164450D01*
X165744Y153016D01*
X166734Y154006D01*
X167270Y155300D01*
Y156700D01*
X166734Y157994D01*
X165744Y158984D01*
X164450Y159520D01*
D02*
G37*
G36*
X142450D02*
X141050D01*
X139756Y158984D01*
X138766Y157994D01*
X138230Y156700D01*
Y155300D01*
X138766Y154006D01*
X139756Y153016D01*
X141050Y152480D01*
X142450D01*
X143744Y153016D01*
X144734Y154006D01*
X145270Y155300D01*
Y156700D01*
X144734Y157994D01*
X143744Y158984D01*
X142450Y159520D01*
D02*
G37*
G36*
X183700Y136770D02*
X182300D01*
X181006Y136234D01*
X180016Y135244D01*
X179480Y133950D01*
Y132550D01*
X180016Y131256D01*
X181006Y130266D01*
X182300Y129730D01*
X183700D01*
X184994Y130266D01*
X185984Y131256D01*
X186520Y132550D01*
Y133950D01*
X185984Y135244D01*
X184994Y136234D01*
X183700Y136770D01*
D02*
G37*
G36*
X163700D02*
X162300D01*
X161006Y136234D01*
X160016Y135244D01*
X159480Y133950D01*
Y132550D01*
X160016Y131256D01*
X161006Y130266D01*
X162300Y129730D01*
X163700D01*
X164994Y130266D01*
X165984Y131256D01*
X166520Y132550D01*
Y133950D01*
X165984Y135244D01*
X164994Y136234D01*
X163700Y136770D01*
D02*
G37*
G36*
X143700D02*
X142300D01*
X141006Y136234D01*
X140016Y135244D01*
X139480Y133950D01*
Y132550D01*
X140016Y131256D01*
X141006Y130266D01*
X142300Y129730D01*
X143700D01*
X144994Y130266D01*
X145984Y131256D01*
X146520Y132550D01*
Y133950D01*
X145984Y135244D01*
X144994Y136234D01*
X143700Y136770D01*
D02*
G37*
G36*
X121720Y136240D02*
X120320D01*
X119026Y135704D01*
X118036Y134714D01*
X117500Y133420D01*
Y132020D01*
X118036Y130726D01*
X119026Y129736D01*
X120320Y129200D01*
X121720D01*
X123014Y129736D01*
X124004Y130726D01*
X124540Y132020D01*
Y133420D01*
X124004Y134714D01*
X123014Y135704D01*
X121720Y136240D01*
D02*
G37*
G36*
X80720D02*
X79320D01*
X78026Y135704D01*
X77036Y134714D01*
X76500Y133420D01*
Y132020D01*
X77036Y130726D01*
X78026Y129736D01*
X79320Y129200D01*
X80720D01*
X82014Y129736D01*
X83004Y130726D01*
X83540Y132020D01*
Y133420D01*
X83004Y134714D01*
X82014Y135704D01*
X80720Y136240D01*
D02*
G37*
G36*
X39720D02*
X38320D01*
X37026Y135704D01*
X36036Y134714D01*
X35500Y133420D01*
Y132020D01*
X36036Y130726D01*
X37026Y129736D01*
X38320Y129200D01*
X39720D01*
X41014Y129736D01*
X42004Y130726D01*
X42540Y132020D01*
Y133420D01*
X42004Y134714D01*
X41014Y135704D01*
X39720Y136240D01*
D02*
G37*
G36*
X155700Y128270D02*
X154300D01*
X153006Y127734D01*
X152016Y126744D01*
X151480Y125450D01*
Y124050D01*
X152016Y122756D01*
X153006Y121766D01*
X154300Y121230D01*
X155700D01*
X156994Y121766D01*
X157984Y122756D01*
X158520Y124050D01*
Y125450D01*
X157984Y126744D01*
X156994Y127734D01*
X155700Y128270D01*
D02*
G37*
G36*
X145700D02*
X144300D01*
X143006Y127734D01*
X142016Y126744D01*
X141480Y125450D01*
Y124050D01*
X142016Y122756D01*
X143006Y121766D01*
X144300Y121230D01*
X145700D01*
X146994Y121766D01*
X147984Y122756D01*
X148520Y124050D01*
Y125450D01*
X147984Y126744D01*
X146994Y127734D01*
X145700Y128270D01*
D02*
G37*
G36*
X135700D02*
X134300D01*
X133006Y127734D01*
X132016Y126744D01*
X131480Y125450D01*
Y124050D01*
X132016Y122756D01*
X133006Y121766D01*
X134300Y121230D01*
X135700D01*
X136994Y121766D01*
X137984Y122756D01*
X138520Y124050D01*
Y125450D01*
X137984Y126744D01*
X136994Y127734D01*
X135700Y128270D01*
D02*
G37*
G36*
X120070Y112800D02*
X118670D01*
X117376Y112264D01*
X116386Y111274D01*
X115850Y109980D01*
Y108580D01*
X116386Y107286D01*
X117376Y106296D01*
X118670Y105760D01*
X120070D01*
X121364Y106296D01*
X122354Y107286D01*
X122890Y108580D01*
Y109980D01*
X122354Y111274D01*
X121364Y112264D01*
X120070Y112800D01*
D02*
G37*
G36*
X79070D02*
X77670D01*
X76376Y112264D01*
X75386Y111274D01*
X74850Y109980D01*
Y108580D01*
X75386Y107286D01*
X76376Y106296D01*
X77670Y105760D01*
X79070D01*
X80364Y106296D01*
X81354Y107286D01*
X81890Y108580D01*
Y109980D01*
X81354Y111274D01*
X80364Y112264D01*
X79070Y112800D01*
D02*
G37*
G36*
X38070D02*
X36670D01*
X35376Y112264D01*
X34386Y111274D01*
X33850Y109980D01*
Y108580D01*
X34386Y107286D01*
X35376Y106296D01*
X36670Y105760D01*
X38070D01*
X39364Y106296D01*
X40354Y107286D01*
X40890Y108580D01*
Y109980D01*
X40354Y111274D01*
X39364Y112264D01*
X38070Y112800D01*
D02*
G37*
G36*
X182700Y116520D02*
X181300D01*
X180006Y115984D01*
X179016Y114994D01*
X178480Y113700D01*
Y112300D01*
X179016Y111006D01*
X180006Y110016D01*
X180799Y109687D01*
Y108313D01*
X180006Y107984D01*
X179016Y106994D01*
X178480Y105700D01*
Y104300D01*
X179016Y103006D01*
X180006Y102016D01*
X181300Y101480D01*
X182700D01*
X183994Y102016D01*
X184984Y103006D01*
X185520Y104300D01*
Y105700D01*
X184984Y106994D01*
X183994Y107984D01*
X183201Y108313D01*
Y109687D01*
X183994Y110016D01*
X184984Y111006D01*
X185520Y112300D01*
Y113700D01*
X184984Y114994D01*
X183994Y115984D01*
X182700Y116520D01*
D02*
G37*
G36*
X171700D02*
X170300D01*
X169006Y115984D01*
X168016Y114994D01*
X167480Y113700D01*
Y112300D01*
X168016Y111006D01*
X169006Y110016D01*
X169799Y109687D01*
Y108313D01*
X169006Y107984D01*
X168016Y106994D01*
X167480Y105700D01*
Y104300D01*
X168016Y103006D01*
X169006Y102016D01*
X170300Y101480D01*
X171700D01*
X172994Y102016D01*
X173984Y103006D01*
X174520Y104300D01*
Y105700D01*
X173984Y106994D01*
X172994Y107984D01*
X172201Y108313D01*
Y109687D01*
X172994Y110016D01*
X173984Y111006D01*
X174520Y112300D01*
Y113700D01*
X173984Y114994D01*
X172994Y115984D01*
X171700Y116520D01*
D02*
G37*
G36*
X133700Y107500D02*
X132300D01*
X131006Y106964D01*
X130016Y105974D01*
X129480Y104680D01*
Y103280D01*
X130016Y101986D01*
X131006Y100996D01*
X132300Y100460D01*
X133700D01*
X134994Y100996D01*
X135984Y101986D01*
X136520Y103280D01*
Y104680D01*
X135984Y105974D01*
X134994Y106964D01*
X133700Y107500D01*
D02*
G37*
G36*
X97882Y105111D02*
X96482D01*
X95188Y104575D01*
X94198Y103585D01*
X93662Y102291D01*
Y100891D01*
X94198Y99597D01*
X95188Y98607D01*
X96482Y98071D01*
X97882D01*
X99176Y98607D01*
X100166Y99597D01*
X100702Y100891D01*
Y102291D01*
X100166Y103585D01*
X99176Y104575D01*
X97882Y105111D01*
D02*
G37*
G36*
X56699Y104984D02*
X55298D01*
X54005Y104448D01*
X53014Y103458D01*
X52478Y102164D01*
Y100764D01*
X53014Y99470D01*
X54005Y98480D01*
X55298Y97944D01*
X56699D01*
X57992Y98480D01*
X58983Y99470D01*
X59518Y100764D01*
Y102164D01*
X58983Y103458D01*
X57992Y104448D01*
X56699Y104984D01*
D02*
G37*
G36*
X15700Y104520D02*
X14300D01*
X13006Y103984D01*
X12016Y102994D01*
X11480Y101700D01*
Y100300D01*
X12016Y99006D01*
X13006Y98016D01*
X14300Y97480D01*
X15700D01*
X16994Y98016D01*
X17984Y99006D01*
X18520Y100300D01*
Y101700D01*
X17984Y102994D01*
X16994Y103984D01*
X15700Y104520D01*
D02*
G37*
G36*
X149596Y99540D02*
X148196D01*
X146902Y99004D01*
X145912Y98014D01*
X145376Y96720D01*
Y95320D01*
X145912Y94026D01*
X146902Y93036D01*
X148196Y92500D01*
X149596D01*
X150890Y93036D01*
X151880Y94026D01*
X152416Y95320D01*
Y96720D01*
X151880Y98014D01*
X150890Y99004D01*
X149596Y99540D01*
D02*
G37*
G36*
X46700Y105520D02*
X45300D01*
X44006Y104984D01*
X43016Y103994D01*
X42480Y102700D01*
Y101300D01*
X42714Y100734D01*
X41898Y99464D01*
X41769D01*
X40475Y98928D01*
X39485Y97938D01*
X38949Y96644D01*
Y95244D01*
X39485Y93950D01*
X40475Y92960D01*
X41769Y92424D01*
X43169D01*
X44463Y92960D01*
X45453Y93950D01*
X45989Y95244D01*
Y96644D01*
X45755Y97210D01*
X46571Y98480D01*
X46700D01*
X47994Y99016D01*
X48984Y100006D01*
X49520Y101300D01*
Y102700D01*
X48984Y103994D01*
X47994Y104984D01*
X46700Y105520D01*
D02*
G37*
G36*
X87910D02*
X86510D01*
X85216Y104984D01*
X84226Y103994D01*
X83690Y102700D01*
Y101300D01*
X83957Y100654D01*
X83188Y99384D01*
X82921D01*
X81627Y98848D01*
X80637Y97858D01*
X80101Y96565D01*
Y95164D01*
X80637Y93870D01*
X81627Y92880D01*
X82921Y92344D01*
X84321D01*
X85615Y92880D01*
X86605Y93870D01*
X87141Y95164D01*
Y96565D01*
X86874Y97210D01*
X87643Y98480D01*
X87910D01*
X89204Y99016D01*
X90194Y100006D01*
X90730Y101300D01*
Y102700D01*
X90194Y103994D01*
X89204Y104984D01*
X87910Y105520D01*
D02*
G37*
G36*
X119400Y85520D02*
X118000D01*
X116706Y84984D01*
X115716Y83994D01*
X115180Y82700D01*
Y81300D01*
X115716Y80006D01*
X116706Y79016D01*
X118000Y78480D01*
X119400D01*
X120694Y79016D01*
X121684Y80006D01*
X122220Y81300D01*
Y82700D01*
X121684Y83994D01*
X120694Y84984D01*
X119400Y85520D01*
D02*
G37*
G36*
X78400D02*
X77000D01*
X75706Y84984D01*
X74716Y83994D01*
X74180Y82700D01*
Y81300D01*
X74716Y80006D01*
X75706Y79016D01*
X77000Y78480D01*
X78400D01*
X79694Y79016D01*
X80684Y80006D01*
X81220Y81300D01*
Y82700D01*
X80684Y83994D01*
X79694Y84984D01*
X78400Y85520D01*
D02*
G37*
G36*
X37400D02*
X36000D01*
X34706Y84984D01*
X33716Y83994D01*
X33180Y82700D01*
Y81300D01*
X33716Y80006D01*
X34706Y79016D01*
X36000Y78480D01*
X37400D01*
X38694Y79016D01*
X39684Y80006D01*
X40220Y81300D01*
Y82700D01*
X39684Y83994D01*
X38694Y84984D01*
X37400Y85520D01*
D02*
G37*
G36*
X92300Y79520D02*
X90900D01*
X89606Y78984D01*
X88616Y77994D01*
X88080Y76700D01*
Y75300D01*
X88616Y74006D01*
X89606Y73016D01*
X90900Y72480D01*
X92300D01*
X93594Y73016D01*
X94584Y74006D01*
X95120Y75300D01*
Y76700D01*
X94584Y77994D01*
X93594Y78984D01*
X92300Y79520D01*
D02*
G37*
G36*
X51300D02*
X49900D01*
X48606Y78984D01*
X47616Y77994D01*
X47080Y76700D01*
Y75300D01*
X47616Y74006D01*
X48606Y73016D01*
X49900Y72480D01*
X51300D01*
X52594Y73016D01*
X53584Y74006D01*
X54120Y75300D01*
Y76700D01*
X53584Y77994D01*
X52594Y78984D01*
X51300Y79520D01*
D02*
G37*
G36*
X10300D02*
X8900D01*
X7606Y78984D01*
X6616Y77994D01*
X6080Y76700D01*
Y75300D01*
X6616Y74006D01*
X7606Y73016D01*
X8900Y72480D01*
X10300D01*
X11594Y73016D01*
X12584Y74006D01*
X13120Y75300D01*
Y76700D01*
X12584Y77994D01*
X11594Y78984D01*
X10300Y79520D01*
D02*
G37*
G36*
X112658Y79544D02*
X111257D01*
X109964Y79008D01*
X108973Y78018D01*
X108438Y76724D01*
Y75324D01*
X108973Y74030D01*
X109964Y73040D01*
X111257Y72504D01*
X112658D01*
X113951Y73040D01*
X114223Y73014D01*
X115312Y72604D01*
X115716Y71629D01*
X116706Y70639D01*
X118000Y70103D01*
X119400D01*
X120694Y70639D01*
X121684Y71629D01*
X122097Y72625D01*
X123191Y72784D01*
X123419Y72751D01*
X123524Y72498D01*
X124514Y71508D01*
X125808Y70972D01*
X127208D01*
X128502Y71508D01*
X129492Y72498D01*
X130028Y73792D01*
Y75192D01*
X129492Y76486D01*
X128502Y77476D01*
X127208Y78012D01*
X125808D01*
X124514Y77476D01*
X123524Y76486D01*
X123111Y75490D01*
X122017Y75331D01*
X121789Y75364D01*
X121684Y75617D01*
X120694Y76607D01*
X119400Y77143D01*
X118000D01*
X116706Y76607D01*
X116435Y76633D01*
X115346Y77043D01*
X114942Y78018D01*
X113951Y79008D01*
X112658Y79544D01*
D02*
G37*
G36*
X78400Y77143D02*
X77000D01*
X75706Y76607D01*
X74716Y75617D01*
X74180Y74323D01*
Y72923D01*
X74716Y71629D01*
X75706Y70639D01*
X77000Y70103D01*
X78400D01*
X79694Y70639D01*
X80684Y71629D01*
X81220Y72923D01*
Y74323D01*
X80684Y75617D01*
X79694Y76607D01*
X78400Y77143D01*
D02*
G37*
G36*
X37400D02*
X36000D01*
X34706Y76607D01*
X33716Y75617D01*
X33180Y74323D01*
Y72923D01*
X33716Y71629D01*
X34706Y70639D01*
X36000Y70103D01*
X37400D01*
X38694Y70639D01*
X39684Y71629D01*
X40220Y72923D01*
Y74323D01*
X39684Y75617D01*
X38694Y76607D01*
X37400Y77143D01*
D02*
G37*
G36*
X63700Y69520D02*
X62300D01*
X61006Y68984D01*
X60830Y68808D01*
X60000Y68009D01*
X59170Y68808D01*
X58994Y68984D01*
X57700Y69520D01*
X56300D01*
X55006Y68984D01*
X54016Y67994D01*
X53480Y66700D01*
Y65300D01*
X54016Y64006D01*
X54192Y63830D01*
X54991Y63000D01*
X54192Y62170D01*
X54016Y61994D01*
X53480Y60700D01*
Y59300D01*
X54016Y58006D01*
X55006Y57016D01*
X56300Y56480D01*
X57700D01*
X58994Y57016D01*
X59170Y57192D01*
X60000Y57991D01*
X60830Y57192D01*
X61006Y57016D01*
X62300Y56480D01*
X63700D01*
X64994Y57016D01*
X65984Y58006D01*
X66520Y59300D01*
Y60700D01*
X65984Y61994D01*
X65808Y62170D01*
X65009Y63000D01*
X65808Y63830D01*
X65984Y64006D01*
X66520Y65300D01*
Y66700D01*
X65984Y67994D01*
X64994Y68984D01*
X63700Y69520D01*
D02*
G37*
G36*
X22700Y68770D02*
X21300D01*
X20006Y68234D01*
X19830Y68058D01*
X19000Y67259D01*
X18170Y68058D01*
X17994Y68234D01*
X16700Y68770D01*
X15300D01*
X14006Y68234D01*
X13016Y67244D01*
X12480Y65950D01*
Y64550D01*
X13016Y63256D01*
X13192Y63080D01*
X13991Y62250D01*
X13192Y61420D01*
X13016Y61244D01*
X12480Y59950D01*
Y58550D01*
X13016Y57256D01*
X14006Y56266D01*
X15300Y55730D01*
X16700D01*
X17994Y56266D01*
X18170Y56442D01*
X19000Y57241D01*
X19830Y56442D01*
X20006Y56266D01*
X21300Y55730D01*
X22700D01*
X23994Y56266D01*
X24984Y57256D01*
X25520Y58550D01*
Y59950D01*
X24984Y61244D01*
X24808Y61420D01*
X24009Y62250D01*
X24808Y63080D01*
X24984Y63256D01*
X25520Y64550D01*
Y65950D01*
X24984Y67244D01*
X23994Y68234D01*
X22700Y68770D01*
D02*
G37*
G36*
X135700Y64365D02*
X134300D01*
X133006Y63829D01*
X132258Y63081D01*
X131500Y62937D01*
X130742Y63081D01*
X129994Y63829D01*
X128700Y64365D01*
X127300D01*
X126006Y63829D01*
X125016Y62839D01*
X124480Y61545D01*
Y60145D01*
X125016Y58851D01*
X126006Y57861D01*
X127300Y57325D01*
X128700D01*
X129994Y57861D01*
X130742Y58609D01*
X131500Y58753D01*
X132258Y58609D01*
X133006Y57861D01*
X134300Y57325D01*
X135700D01*
X136994Y57861D01*
X137984Y58851D01*
X138520Y60145D01*
Y61545D01*
X137984Y62839D01*
X136994Y63829D01*
X135700Y64365D01*
D02*
G37*
G36*
X168807Y67289D02*
X167407D01*
X166113Y66753D01*
X165123Y65763D01*
X164587Y64469D01*
Y63069D01*
X165123Y61775D01*
X165960Y60938D01*
X165016Y59994D01*
X164480Y58700D01*
Y57300D01*
X165016Y56006D01*
X166006Y55016D01*
X167300Y54480D01*
X168700D01*
X169994Y55016D01*
X170984Y56006D01*
X171520Y57300D01*
Y58700D01*
X170984Y59994D01*
X170147Y60831D01*
X171091Y61775D01*
X171627Y63069D01*
Y64469D01*
X171091Y65763D01*
X170101Y66753D01*
X168807Y67289D01*
D02*
G37*
G36*
X158700Y61520D02*
X157300D01*
X156006Y60984D01*
X155016Y59994D01*
X154480Y58700D01*
Y57300D01*
X155016Y56006D01*
X156006Y55016D01*
X157300Y54480D01*
X158700D01*
X159994Y55016D01*
X160984Y56006D01*
X161520Y57300D01*
Y58700D01*
X160984Y59994D01*
X159994Y60984D01*
X158700Y61520D01*
D02*
G37*
G36*
X188700Y56290D02*
X187300D01*
X186006Y55754D01*
X185016Y54764D01*
X184480Y53470D01*
Y52070D01*
X185016Y50776D01*
X186006Y49786D01*
X187300Y49250D01*
X188700D01*
X189994Y49786D01*
X190984Y50776D01*
X191520Y52070D01*
Y53470D01*
X190984Y54764D01*
X189994Y55754D01*
X188700Y56290D01*
D02*
G37*
G36*
X199470Y51290D02*
X198070D01*
X196776Y50754D01*
X195786Y49764D01*
X195250Y48470D01*
Y47070D01*
X195786Y45776D01*
X196776Y44786D01*
X198070Y44250D01*
X199470D01*
X200764Y44786D01*
X201754Y45776D01*
X202290Y47070D01*
Y48470D01*
X201754Y49764D01*
X200764Y50754D01*
X199470Y51290D01*
D02*
G37*
G36*
X131700Y54520D02*
X130300D01*
X129006Y53984D01*
X128016Y52994D01*
X127480Y51700D01*
Y50300D01*
X128016Y49006D01*
X128192Y48830D01*
X128991Y48000D01*
X128192Y47170D01*
X128016Y46994D01*
X127480Y45700D01*
Y44300D01*
X128016Y43006D01*
X129006Y42016D01*
X130300Y41480D01*
X131700D01*
X132994Y42016D01*
X133984Y43006D01*
X134520Y44300D01*
Y45700D01*
X133984Y46994D01*
X133808Y47170D01*
X133009Y48000D01*
X133808Y48830D01*
X133984Y49006D01*
X134520Y50300D01*
Y51700D01*
X133984Y52994D01*
X132994Y53984D01*
X131700Y54520D01*
D02*
G37*
G36*
X71700Y47520D02*
X70300D01*
X69006Y46984D01*
X68016Y45994D01*
X67480Y44700D01*
Y43300D01*
X68016Y42006D01*
X69006Y41016D01*
X70300Y40480D01*
X71700D01*
X72994Y41016D01*
X73984Y42006D01*
X74520Y43300D01*
Y44700D01*
X73984Y45994D01*
X72994Y46984D01*
X71700Y47520D01*
D02*
G37*
G36*
X30700D02*
X29300D01*
X28006Y46984D01*
X27016Y45994D01*
X26480Y44700D01*
Y43300D01*
X27016Y42006D01*
X28006Y41016D01*
X29300Y40480D01*
X30700D01*
X31994Y41016D01*
X32984Y42006D01*
X33520Y43300D01*
Y44700D01*
X32984Y45994D01*
X31994Y46984D01*
X30700Y47520D01*
D02*
G37*
G36*
X89700Y46150D02*
X88300D01*
X87006Y45614D01*
X86016Y44624D01*
X85480Y43330D01*
Y41930D01*
X86016Y40636D01*
X87006Y39646D01*
X88300Y39110D01*
X89700D01*
X90994Y39646D01*
X91984Y40636D01*
X92520Y41930D01*
Y43330D01*
X91984Y44624D01*
X90994Y45614D01*
X89700Y46150D01*
D02*
G37*
G36*
X175700Y44570D02*
X174300D01*
X173006Y44034D01*
X172016Y43044D01*
X171480Y41750D01*
Y40350D01*
X172016Y39056D01*
X173006Y38066D01*
X174300Y37530D01*
X175700D01*
X176994Y38066D01*
X177307Y38379D01*
X178017Y38107D01*
X178480Y37756D01*
Y36530D01*
X179016Y35236D01*
X180006Y34246D01*
X181300Y33710D01*
X182700D01*
X183994Y34246D01*
X184984Y35236D01*
X185520Y36530D01*
Y37930D01*
X184984Y39224D01*
X183994Y40214D01*
X182700Y40750D01*
X181300D01*
X180006Y40214D01*
X179693Y39901D01*
X178983Y40173D01*
X178520Y40524D01*
Y41750D01*
X177984Y43044D01*
X176994Y44034D01*
X175700Y44570D01*
D02*
G37*
G36*
X151700Y39520D02*
X150300D01*
X149006Y38984D01*
X148016Y37994D01*
X147480Y36700D01*
Y35300D01*
X148016Y34006D01*
X149006Y33016D01*
X150300Y32480D01*
X151700D01*
X152994Y33016D01*
X153984Y34006D01*
X154520Y35300D01*
Y36700D01*
X153984Y37994D01*
X152994Y38984D01*
X151700Y39520D01*
D02*
G37*
G36*
X127700Y29520D02*
X126300D01*
X125006Y28984D01*
X124016Y27994D01*
X123480Y26700D01*
Y25300D01*
X124016Y24006D01*
X125006Y23016D01*
X126300Y22480D01*
X127700D01*
X128994Y23016D01*
X129984Y24006D01*
X130520Y25300D01*
Y26700D01*
X129984Y27994D01*
X128994Y28984D01*
X127700Y29520D01*
D02*
G37*
G36*
X171700Y27120D02*
X170300D01*
X169006Y26584D01*
X168016Y25594D01*
X167480Y24300D01*
Y22900D01*
X168016Y21606D01*
X169006Y20616D01*
X170300Y20080D01*
X171700D01*
X172994Y20616D01*
X173984Y21606D01*
X174520Y22900D01*
Y24300D01*
X173984Y25594D01*
X172994Y26584D01*
X171700Y27120D01*
D02*
G37*
G36*
X121270Y35270D02*
X88730D01*
Y2730D01*
X121270D01*
Y35270D01*
D02*
G37*
G36*
X80270D02*
X47730D01*
Y2730D01*
X80270D01*
Y35270D01*
D02*
G37*
G36*
X39270D02*
X6730D01*
Y2730D01*
X39270D01*
Y35270D01*
D02*
G37*
%LPD*%
D20*
X105000Y19000D02*
D03*
X64000D02*
D03*
X23000D02*
D03*
D72*
X114000Y193000D02*
D03*
X206480Y178000D02*
D03*
X205000Y214000D02*
D03*
X140000Y318000D02*
D03*
X141250Y309000D02*
D03*
X39000Y273980D02*
D03*
X177270Y197670D02*
D03*
X49426Y209800D02*
D03*
X86000Y208000D02*
D03*
X109209Y292216D02*
D03*
X20000Y191000D02*
D03*
Y234000D02*
D03*
X15875Y247916D02*
D03*
X18000Y255000D02*
D03*
X27210Y237000D02*
D03*
X151000Y36000D02*
D03*
X198770Y47770D02*
D03*
X24000Y261000D02*
D03*
X30000Y318000D02*
D03*
X41000Y336000D02*
D03*
X39846Y328927D02*
D03*
X49210Y337000D02*
D03*
X76671Y293155D02*
D03*
X95750Y319000D02*
D03*
X105000Y286000D02*
D03*
X93700Y301910D02*
D03*
X100920Y290080D02*
D03*
X118500Y291250D02*
D03*
X125000Y325000D02*
D03*
X20000Y319000D02*
D03*
Y313000D02*
D03*
X7000Y333000D02*
D03*
X13000D02*
D03*
X7000Y326000D02*
D03*
X13000D02*
D03*
X7000Y319000D02*
D03*
X13000D02*
D03*
X7000Y312000D02*
D03*
X13000D02*
D03*
Y285000D02*
D03*
X7000D02*
D03*
Y291000D02*
D03*
X13000D02*
D03*
Y298000D02*
D03*
X7000D02*
D03*
X13000Y305000D02*
D03*
X7000D02*
D03*
X134000Y327000D02*
D03*
X150000Y284000D02*
D03*
X142000D02*
D03*
X150000Y365000D02*
D03*
X126000Y281000D02*
D03*
X128504Y273749D02*
D03*
X129000Y268000D02*
D03*
X111889Y283111D02*
D03*
X118111Y276889D02*
D03*
X194000Y148000D02*
D03*
X204000Y149000D02*
D03*
X192000Y169000D02*
D03*
X182000Y229000D02*
D03*
X170000Y212000D02*
D03*
X163700Y219300D02*
D03*
X125432Y191155D02*
D03*
X25600Y274000D02*
D03*
X141000Y224000D02*
D03*
X86155Y170872D02*
D03*
X68562Y170562D02*
D03*
X42000Y168845D02*
D03*
X24000Y185000D02*
D03*
X125000Y170000D02*
D03*
X30000Y182000D02*
D03*
X22000Y216000D02*
D03*
X19000Y222000D02*
D03*
X118000Y362000D02*
D03*
Y341000D02*
D03*
Y355000D02*
D03*
Y348000D02*
D03*
X119889Y196889D02*
D03*
X125245Y202463D02*
D03*
X128000Y211000D02*
D03*
X24000Y253387D02*
D03*
X177000Y186000D02*
D03*
X157655Y186000D02*
D03*
X149149D02*
D03*
Y180000D02*
D03*
X141750Y156000D02*
D03*
X199002Y56998D02*
D03*
X30959Y261845D02*
D03*
X204000Y81000D02*
D03*
Y95000D02*
D03*
Y109000D02*
D03*
Y123000D02*
D03*
X104000Y330000D02*
D03*
X95000Y355000D02*
D03*
X88000D02*
D03*
X95000Y348000D02*
D03*
X88000Y341000D02*
D03*
X95000D02*
D03*
X88000Y362000D02*
D03*
X95000D02*
D03*
X88000Y348000D02*
D03*
X43000Y307000D02*
D03*
X41000Y285000D02*
D03*
X35000Y304000D02*
D03*
X41000Y297000D02*
D03*
X35000Y290000D02*
D03*
X181000Y71000D02*
D03*
X174000D02*
D03*
X167000D02*
D03*
X182000Y113000D02*
D03*
X171000D02*
D03*
Y105000D02*
D03*
X182000D02*
D03*
X71713Y336290D02*
D03*
X78684Y336800D02*
D03*
X124000Y362000D02*
D03*
Y341000D02*
D03*
Y348000D02*
D03*
Y355000D02*
D03*
X167000Y322000D02*
D03*
X173000Y314000D02*
D03*
Y322000D02*
D03*
X167000Y314000D02*
D03*
X91503Y322345D02*
D03*
X103020Y336480D02*
D03*
X160000Y33750D02*
D03*
X203000D02*
D03*
X148896Y96020D02*
D03*
X171950Y239000D02*
D03*
X181155Y246000D02*
D03*
X171950D02*
D03*
X186000Y318250D02*
D03*
X201000Y325750D02*
D03*
X194000Y331000D02*
D03*
X181000Y330000D02*
D03*
X175000Y334000D02*
D03*
X202000Y335000D02*
D03*
X187000D02*
D03*
X128000Y60845D02*
D03*
X135000D02*
D03*
X171618Y272507D02*
D03*
X154600Y209000D02*
D03*
X133000Y103980D02*
D03*
X155000Y124750D02*
D03*
X145000D02*
D03*
X135000D02*
D03*
X89000Y42630D02*
D03*
X156000Y257000D02*
D03*
X172000Y264000D02*
D03*
X171400Y254000D02*
D03*
X167600Y304200D02*
D03*
X186000Y283999D02*
D03*
X188000Y52770D02*
D03*
X58000Y358000D02*
D03*
X48000Y368000D02*
D03*
X48000Y348000D02*
D03*
X68000Y348000D02*
D03*
X68000Y368000D02*
D03*
X48000Y358000D02*
D03*
X58000Y348000D02*
D03*
X68000Y358000D02*
D03*
X58000Y368000D02*
D03*
X17000D02*
D03*
X27000Y358000D02*
D03*
X17000Y348000D02*
D03*
X7000Y358000D02*
D03*
X27000Y368000D02*
D03*
X27000Y348000D02*
D03*
X7000Y348000D02*
D03*
X7000Y368000D02*
D03*
X17000Y358000D02*
D03*
X105000Y19000D02*
D03*
X96000Y28000D02*
D03*
Y10000D02*
D03*
X114000D02*
D03*
Y28000D02*
D03*
X96000Y19000D02*
D03*
X105000Y10000D02*
D03*
X114000Y19000D02*
D03*
X105000Y28000D02*
D03*
X126508Y74492D02*
D03*
X111958Y76024D02*
D03*
X128438Y33562D02*
D03*
X171000Y32400D02*
D03*
Y23600D02*
D03*
X127000Y26000D02*
D03*
X182000Y37230D02*
D03*
X175000Y41050D02*
D03*
X71000Y44000D02*
D03*
X30000D02*
D03*
X131000Y51000D02*
D03*
Y45000D02*
D03*
X168000Y58000D02*
D03*
X158000D02*
D03*
X168107Y63769D02*
D03*
X57000Y66000D02*
D03*
Y60000D02*
D03*
X63000D02*
D03*
Y66000D02*
D03*
X16000Y65250D02*
D03*
Y59250D02*
D03*
X22000D02*
D03*
Y65250D02*
D03*
X64000Y19000D02*
D03*
X55000Y28000D02*
D03*
Y10000D02*
D03*
X73000D02*
D03*
Y28000D02*
D03*
X55000Y19000D02*
D03*
X64000Y10000D02*
D03*
X73000Y19000D02*
D03*
X64000Y28000D02*
D03*
X23000D02*
D03*
X32000Y19000D02*
D03*
X23000Y10000D02*
D03*
X14000Y19000D02*
D03*
X32000Y28000D02*
D03*
Y10000D02*
D03*
X14000D02*
D03*
Y28000D02*
D03*
X23000Y19000D02*
D03*
X9600Y76000D02*
D03*
X78879Y256334D02*
D03*
X99213Y236455D02*
D03*
X79334Y216121D02*
D03*
X59000Y236000D02*
D03*
X79106Y236227D02*
D03*
X42867Y193766D02*
D03*
X36644Y199988D02*
D03*
X139387Y255637D02*
D03*
X133165Y261860D02*
D03*
X42469Y95944D02*
D03*
X83621Y95864D02*
D03*
X5319Y138344D02*
D03*
X97182Y101591D02*
D03*
X55999Y101464D02*
D03*
X13000Y175000D02*
D03*
X121020Y126950D02*
D03*
X80020D02*
D03*
X39020D02*
D03*
X37370Y109280D02*
D03*
X120672Y114901D02*
D03*
X79672D02*
D03*
X38333Y114969D02*
D03*
X87210Y102000D02*
D03*
X5000Y126000D02*
D03*
Y113000D02*
D03*
X5210Y101000D02*
D03*
X46000Y102000D02*
D03*
X15000Y101000D02*
D03*
X183000Y133250D02*
D03*
X143000D02*
D03*
X163000D02*
D03*
X185750Y156000D02*
D03*
X174250D02*
D03*
X163750D02*
D03*
X86980Y163000D02*
D03*
X45980D02*
D03*
X111000Y154000D02*
D03*
X105000D02*
D03*
X99000D02*
D03*
X93000D02*
D03*
X119370Y109280D02*
D03*
X121020Y132720D02*
D03*
X78370Y109280D02*
D03*
X80020Y132720D02*
D03*
X39020D02*
D03*
X20000Y169000D02*
D03*
X62000D02*
D03*
X14000D02*
D03*
X96000D02*
D03*
X102000D02*
D03*
X55000D02*
D03*
X139469Y217624D02*
D03*
X52000Y154000D02*
D03*
X58000D02*
D03*
X64000D02*
D03*
X70000D02*
D03*
X29000D02*
D03*
X23000D02*
D03*
X17000D02*
D03*
X11000D02*
D03*
X132975Y214958D02*
D03*
X141000Y235000D02*
D03*
X91600Y76000D02*
D03*
X50600D02*
D03*
X36700Y82000D02*
D03*
X118700Y73623D02*
D03*
Y82000D02*
D03*
X77700Y73623D02*
D03*
Y82000D02*
D03*
X36700Y73623D02*
D03*
X118700Y60500D02*
D03*
Y52500D02*
D03*
X119904Y44820D02*
D03*
X77700Y60500D02*
D03*
Y52500D02*
D03*
X78904Y44820D02*
D03*
X37904D02*
D03*
X36700Y52500D02*
D03*
Y60500D02*
D03*
M02*
