G04*
G04 #@! TF.GenerationSoftware,Altium Limited,Altium Designer,20.1.14 (287)*
G04*
G04 Layer_Physical_Order=1*
G04 Layer_Color=255*
%FSLAX25Y25*%
%MOIN*%
G70*
G04*
G04 #@! TF.SameCoordinates,BFC865CF-BEAF-49AC-A6C2-1AB5C3D80CD9*
G04*
G04*
G04 #@! TF.FilePolarity,Positive*
G04*
G01*
G75*
%ADD10C,0.00787*%
%ADD12C,0.02803*%
%ADD13C,0.01000*%
%ADD21C,0.01378*%
%ADD60R,0.03740X0.03347*%
%ADD61R,0.03937X0.03543*%
%ADD62R,0.03543X0.06299*%
%ADD63R,0.01339X0.03150*%
%ADD64R,0.01654X0.02598*%
G04:AMPARAMS|DCode=65|XSize=23.62mil|YSize=9.45mil|CornerRadius=1.18mil|HoleSize=0mil|Usage=FLASHONLY|Rotation=90.000|XOffset=0mil|YOffset=0mil|HoleType=Round|Shape=RoundedRectangle|*
%AMROUNDEDRECTD65*
21,1,0.02362,0.00709,0,0,90.0*
21,1,0.02126,0.00945,0,0,90.0*
1,1,0.00236,0.00354,0.01063*
1,1,0.00236,0.00354,-0.01063*
1,1,0.00236,-0.00354,-0.01063*
1,1,0.00236,-0.00354,0.01063*
%
%ADD65ROUNDEDRECTD65*%
G04:AMPARAMS|DCode=66|XSize=64.96mil|YSize=94.49mil|CornerRadius=1.62mil|HoleSize=0mil|Usage=FLASHONLY|Rotation=90.000|XOffset=0mil|YOffset=0mil|HoleType=Round|Shape=RoundedRectangle|*
%AMROUNDEDRECTD66*
21,1,0.06496,0.09124,0,0,90.0*
21,1,0.06171,0.09449,0,0,90.0*
1,1,0.00325,0.04562,0.03086*
1,1,0.00325,0.04562,-0.03086*
1,1,0.00325,-0.04562,-0.03086*
1,1,0.00325,-0.04562,0.03086*
%
%ADD66ROUNDEDRECTD66*%
%ADD67R,0.03543X0.03937*%
%ADD68R,0.10039X0.09646*%
%ADD69R,0.01024X0.03386*%
%ADD70R,0.03386X0.01024*%
%ADD71R,0.10630X0.05118*%
%ADD72R,0.03150X0.03150*%
%ADD73R,0.23622X0.23622*%
G04:AMPARAMS|DCode=74|XSize=31.5mil|YSize=13.78mil|CornerRadius=1.72mil|HoleSize=0mil|Usage=FLASHONLY|Rotation=180.000|XOffset=0mil|YOffset=0mil|HoleType=Round|Shape=RoundedRectangle|*
%AMROUNDEDRECTD74*
21,1,0.03150,0.01034,0,0,180.0*
21,1,0.02805,0.01378,0,0,180.0*
1,1,0.00345,-0.01403,0.00517*
1,1,0.00345,0.01403,0.00517*
1,1,0.00345,0.01403,-0.00517*
1,1,0.00345,-0.01403,-0.00517*
%
%ADD74ROUNDEDRECTD74*%
%ADD75R,0.10630X0.10236*%
G04:AMPARAMS|DCode=76|XSize=33.47mil|YSize=13.78mil|CornerRadius=1.72mil|HoleSize=0mil|Usage=FLASHONLY|Rotation=270.000|XOffset=0mil|YOffset=0mil|HoleType=Round|Shape=RoundedRectangle|*
%AMROUNDEDRECTD76*
21,1,0.03347,0.01034,0,0,270.0*
21,1,0.03002,0.01378,0,0,270.0*
1,1,0.00345,-0.00517,-0.01501*
1,1,0.00345,-0.00517,0.01501*
1,1,0.00345,0.00517,0.01501*
1,1,0.00345,0.00517,-0.01501*
%
%ADD76ROUNDEDRECTD76*%
%ADD77R,0.02362X0.05315*%
%ADD78R,0.05118X0.05512*%
%ADD79R,0.04724X0.06890*%
%ADD80R,0.05512X0.05118*%
G04:AMPARAMS|DCode=81|XSize=37.4mil|YSize=33.47mil|CornerRadius=0mil|HoleSize=0mil|Usage=FLASHONLY|Rotation=30.000|XOffset=0mil|YOffset=0mil|HoleType=Round|Shape=Rectangle|*
%AMROTATEDRECTD81*
4,1,4,-0.00783,-0.02384,-0.02456,0.00514,0.00783,0.02384,0.02456,-0.00514,-0.00783,-0.02384,0.0*
%
%ADD81ROTATEDRECTD81*%

G04:AMPARAMS|DCode=82|XSize=37.4mil|YSize=33.47mil|CornerRadius=0mil|HoleSize=0mil|Usage=FLASHONLY|Rotation=150.000|XOffset=0mil|YOffset=0mil|HoleType=Round|Shape=Rectangle|*
%AMROTATEDRECTD82*
4,1,4,0.02456,0.00514,0.00783,-0.02384,-0.02456,-0.00514,-0.00783,0.02384,0.02456,0.00514,0.0*
%
%ADD82ROTATEDRECTD82*%

G04:AMPARAMS|DCode=83|XSize=29.13mil|YSize=11.02mil|CornerRadius=1.38mil|HoleSize=0mil|Usage=FLASHONLY|Rotation=180.000|XOffset=0mil|YOffset=0mil|HoleType=Round|Shape=RoundedRectangle|*
%AMROUNDEDRECTD83*
21,1,0.02913,0.00827,0,0,180.0*
21,1,0.02638,0.01102,0,0,180.0*
1,1,0.00276,-0.01319,0.00413*
1,1,0.00276,0.01319,0.00413*
1,1,0.00276,0.01319,-0.00413*
1,1,0.00276,-0.01319,-0.00413*
%
%ADD83ROUNDEDRECTD83*%
%ADD84R,0.03347X0.03740*%
%ADD85C,0.02016*%
%ADD86C,0.02000*%
%ADD87C,0.02787*%
%ADD88C,0.05118*%
%ADD89R,0.05118X0.05118*%
%ADD90C,0.06299*%
%ADD91C,0.19685*%
G04:AMPARAMS|DCode=92|XSize=84.25mil|YSize=42.13mil|CornerRadius=0mil|HoleSize=0mil|Usage=FLASHONLY|Rotation=214.480|XOffset=0mil|YOffset=0mil|HoleType=Round|Shape=Round|*
%AMOVALD92*
21,1,0.04213,0.04213,0.00000,0.00000,214.5*
1,1,0.04213,0.01736,0.01192*
1,1,0.04213,-0.01736,-0.01192*
%
%ADD92OVALD92*%

G04:AMPARAMS|DCode=93|XSize=84.25mil|YSize=42.13mil|CornerRadius=0mil|HoleSize=0mil|Usage=FLASHONLY|Rotation=334.480|XOffset=0mil|YOffset=0mil|HoleType=Round|Shape=Round|*
%AMOVALD93*
21,1,0.04213,0.04213,0.00000,0.00000,334.5*
1,1,0.04213,-0.01901,0.00907*
1,1,0.04213,0.01901,-0.00907*
%
%ADD93OVALD93*%

G04:AMPARAMS|DCode=94|XSize=84.25mil|YSize=42.13mil|CornerRadius=0mil|HoleSize=0mil|Usage=FLASHONLY|Rotation=94.480|XOffset=0mil|YOffset=0mil|HoleType=Round|Shape=Round|*
%AMOVALD94*
21,1,0.04213,0.04213,0.00000,0.00000,94.5*
1,1,0.04213,0.00165,-0.02100*
1,1,0.04213,-0.00165,0.02100*
%
%ADD94OVALD94*%

%ADD95R,0.06299X0.06299*%
%ADD96C,0.05906*%
%ADD97R,0.05118X0.05118*%
%ADD98C,0.02756*%
G36*
X125054Y174533D02*
X129631Y172932D01*
X134095Y171040D01*
X138430Y168866D01*
X142616Y166419D01*
X146636Y163709D01*
X150475Y160747D01*
X154116Y157545D01*
X157545Y154116D01*
X160747Y150475D01*
X163709Y146636D01*
X166419Y142616D01*
X168866Y138430D01*
X171040Y134096D01*
X172932Y129631D01*
X174533Y125054D01*
X175110Y122991D01*
X175110Y-64244D01*
X-77472D01*
Y-30753D01*
X-77024Y-30532D01*
X-76811Y-30695D01*
X-75937Y-31057D01*
X-75000Y-31181D01*
X-74063Y-31057D01*
X-73189Y-30695D01*
X-72439Y-30120D01*
X-71864Y-29370D01*
X-71502Y-28496D01*
X-71378Y-27559D01*
X-71502Y-26622D01*
X-71864Y-25748D01*
X-72439Y-24998D01*
X-72961Y-24598D01*
Y-22646D01*
X-72439Y-22246D01*
X-71864Y-21496D01*
X-71502Y-20622D01*
X-71378Y-19685D01*
X-71502Y-18748D01*
X-71864Y-17874D01*
X-72439Y-17124D01*
X-72961Y-16724D01*
Y-14772D01*
X-72439Y-14372D01*
X-71864Y-13622D01*
X-71502Y-12748D01*
X-71378Y-11811D01*
X-71502Y-10874D01*
X-71864Y-10000D01*
X-72439Y-9250D01*
X-73189Y-8675D01*
X-74063Y-8313D01*
X-75000Y-8190D01*
X-75937Y-8313D01*
X-76811Y-8675D01*
X-77024Y-8838D01*
X-77472Y-8617D01*
X-77472Y87357D01*
X-77024Y87578D01*
X-76811Y87415D01*
X-75937Y87053D01*
X-75000Y86930D01*
X-74063Y87053D01*
X-73189Y87415D01*
X-72439Y87990D01*
X-71864Y88740D01*
X-71502Y89614D01*
X-71378Y90551D01*
X-71502Y91488D01*
X-71864Y92362D01*
X-72439Y93112D01*
X-72961Y93512D01*
Y95464D01*
X-72439Y95864D01*
X-71864Y96614D01*
X-71502Y97488D01*
X-71378Y98425D01*
X-71502Y99362D01*
X-71864Y100236D01*
X-72439Y100986D01*
X-72961Y101386D01*
Y103338D01*
X-72439Y103738D01*
X-71864Y104488D01*
X-71502Y105362D01*
X-71378Y106299D01*
X-71502Y107237D01*
X-71864Y108110D01*
X-72439Y108860D01*
X-73189Y109436D01*
X-74063Y109797D01*
X-75000Y109921D01*
X-75937Y109797D01*
X-76811Y109436D01*
X-77024Y109272D01*
X-77472Y109493D01*
X-77472Y175110D01*
X122991D01*
X125054Y174533D01*
D02*
G37*
%LPC*%
G36*
X111417Y152047D02*
X110480Y151923D01*
X109607Y151561D01*
X108856Y150986D01*
X108281Y150236D01*
X107919Y149363D01*
X107796Y148425D01*
X107919Y147488D01*
X108281Y146614D01*
X108856Y145864D01*
X109607Y145289D01*
X110480Y144927D01*
X111417Y144804D01*
X112355Y144927D01*
X113228Y145289D01*
X113978Y145864D01*
X114554Y146614D01*
X114916Y147488D01*
X115039Y148425D01*
X114916Y149363D01*
X114554Y150236D01*
X113978Y150986D01*
X113228Y151561D01*
X112355Y151923D01*
X111417Y152047D01*
D02*
G37*
G36*
X-59055Y160482D02*
X-60756Y160348D01*
X-62416Y159950D01*
X-63993Y159297D01*
X-65448Y158405D01*
X-66746Y157297D01*
X-67854Y155999D01*
X-68746Y154544D01*
X-69399Y152967D01*
X-69797Y151308D01*
X-69931Y149606D01*
X-69797Y147905D01*
X-69399Y146245D01*
X-68746Y144669D01*
X-67854Y143213D01*
X-66746Y141916D01*
X-65448Y140807D01*
X-63993Y139916D01*
X-62416Y139263D01*
X-60756Y138864D01*
X-59055Y138730D01*
X-57354Y138864D01*
X-55694Y139263D01*
X-54118Y139916D01*
X-52662Y140807D01*
X-51365Y141916D01*
X-50256Y143213D01*
X-49365Y144669D01*
X-48711Y146245D01*
X-48366Y147683D01*
X-6145D01*
X10195Y131343D01*
X9911Y130919D01*
X9761Y130982D01*
X9055Y131075D01*
X8556Y131009D01*
X-493Y140058D01*
X-989Y140389D01*
X-1575Y140506D01*
X-33898D01*
X-34483Y140389D01*
X-34979Y140058D01*
X-46794Y128243D01*
X-47373Y128483D01*
X-48465Y128627D01*
X-49556Y128483D01*
X-50573Y128062D01*
X-51447Y127392D01*
X-52117Y126518D01*
X-52538Y125501D01*
X-52682Y124409D01*
X-52538Y123318D01*
X-52117Y122301D01*
X-51447Y121427D01*
X-50573Y120757D01*
X-49556Y120336D01*
X-48465Y120192D01*
X-47373Y120336D01*
X-46356Y120757D01*
X-45483Y121427D01*
X-44812Y122301D01*
X-44391Y123318D01*
X-44247Y124409D01*
X-44391Y125501D01*
X-44631Y126080D01*
X-33264Y137447D01*
X-28243D01*
X-28052Y136985D01*
X-36794Y128243D01*
X-37373Y128483D01*
X-38465Y128627D01*
X-39556Y128483D01*
X-40573Y128062D01*
X-41447Y127392D01*
X-42117Y126518D01*
X-42538Y125501D01*
X-42682Y124409D01*
X-42538Y123318D01*
X-42117Y122301D01*
X-41447Y121427D01*
X-40573Y120757D01*
X-39556Y120336D01*
X-38465Y120192D01*
X-37373Y120336D01*
X-36356Y120757D01*
X-35483Y121427D01*
X-34812Y122301D01*
X-34391Y123318D01*
X-34247Y124409D01*
X-34391Y125501D01*
X-34631Y126080D01*
X-25233Y135478D01*
X-4571D01*
X579Y130329D01*
X400Y129801D01*
X151Y129768D01*
X-1871Y131790D01*
X-2368Y132122D01*
X-2953Y132238D01*
X-12165D01*
X-12751Y132122D01*
X-13247Y131790D01*
X-16794Y128243D01*
X-17373Y128483D01*
X-18465Y128627D01*
X-19556Y128483D01*
X-20573Y128062D01*
X-21447Y127392D01*
X-22117Y126518D01*
X-22538Y125501D01*
X-22682Y124409D01*
X-22538Y123318D01*
X-22117Y122301D01*
X-21447Y121427D01*
X-20573Y120757D01*
X-19556Y120336D01*
X-18465Y120192D01*
X-17373Y120336D01*
X-16356Y120757D01*
X-15483Y121427D01*
X-14812Y122301D01*
X-14391Y123318D01*
X-14247Y124409D01*
X-14391Y125501D01*
X-14631Y126080D01*
X-13076Y127635D01*
X-12614Y127444D01*
Y124923D01*
X-12682Y124409D01*
X-12614Y123896D01*
Y120260D01*
X-8978D01*
X-8465Y120192D01*
X-7951Y120260D01*
X-4315D01*
Y120321D01*
X-2083D01*
Y119177D01*
X3658D01*
Y124295D01*
Y126597D01*
X4119Y126789D01*
X6460Y124448D01*
X6394Y123949D01*
X6487Y123243D01*
X6759Y122585D01*
X7193Y122020D01*
X7758Y121586D01*
X8416Y121314D01*
X9122Y121221D01*
X9828Y121314D01*
X10486Y121586D01*
X10963Y121952D01*
X11463Y121809D01*
Y111432D01*
X11001Y111241D01*
X5806Y116436D01*
X5310Y116767D01*
X4724Y116884D01*
X-20866D01*
X-21451Y116767D01*
X-21948Y116436D01*
X-33427Y104956D01*
X-33708Y105073D01*
X-34646Y105196D01*
X-35583Y105073D01*
X-36456Y104711D01*
X-37207Y104136D01*
X-37782Y103386D01*
X-38144Y102512D01*
X-38267Y101575D01*
X-38144Y100637D01*
X-37782Y99764D01*
X-37207Y99014D01*
X-36456Y98439D01*
X-35583Y98077D01*
X-34646Y97953D01*
X-33708Y98077D01*
X-32835Y98439D01*
X-32085Y99014D01*
X-31509Y99764D01*
X-31148Y100637D01*
X-31024Y101575D01*
X-31148Y102512D01*
X-31264Y102794D01*
X-30097Y103961D01*
X-29720Y103630D01*
X-29908Y103386D01*
X-30270Y102512D01*
X-30393Y101575D01*
X-30270Y100637D01*
X-29908Y99764D01*
X-29333Y99014D01*
X-28582Y98439D01*
X-27709Y98077D01*
X-26772Y97953D01*
X-25834Y98077D01*
X-24961Y98439D01*
X-24211Y99014D01*
X-23635Y99764D01*
X-23273Y100637D01*
X-23150Y101575D01*
X-23273Y102512D01*
X-23390Y102794D01*
X-14327Y111856D01*
X2516D01*
X16974Y97398D01*
Y91929D01*
X17091Y91344D01*
X17423Y90848D01*
X19571Y88699D01*
Y85807D01*
X-5625D01*
X-7153Y87335D01*
X-7484Y87556D01*
X-7874Y87634D01*
X-19258Y87634D01*
X-19497Y87793D01*
X-20277Y87949D01*
X-28264D01*
X-28264Y87949D01*
X-28461Y87910D01*
X-32988D01*
Y87346D01*
X-33004Y87335D01*
X-33226Y87004D01*
X-33303Y86614D01*
X-33303Y77476D01*
X-36274D01*
Y80520D01*
X-36303Y80668D01*
Y87910D01*
X-43028D01*
Y84292D01*
X-45369Y81951D01*
X-45831Y82142D01*
Y96386D01*
X-45908Y96776D01*
X-46129Y97107D01*
X-46460Y97328D01*
X-46850Y97406D01*
X-54724D01*
X-55115Y97328D01*
X-55445Y97107D01*
X-55666Y96776D01*
X-55744Y96386D01*
X-55744Y88795D01*
X-55666Y88405D01*
X-55445Y88074D01*
X-55115Y87853D01*
X-54941Y87819D01*
Y81646D01*
X-55007Y81565D01*
X-55076Y81435D01*
X-55159Y81311D01*
X-55169Y81260D01*
X-55193Y81214D01*
X-55207Y81067D01*
X-55236Y80921D01*
Y75845D01*
X-55445Y75705D01*
X-55666Y75374D01*
X-55744Y74984D01*
Y72441D01*
X-55666Y72051D01*
X-55445Y71720D01*
X-52378Y68652D01*
Y68331D01*
X-51871D01*
X-51575Y68272D01*
X-48638Y68272D01*
X-48341Y68331D01*
X-44276D01*
Y75646D01*
X-44409D01*
Y77120D01*
X-42510Y79020D01*
X-39333D01*
Y76484D01*
X-39216Y75899D01*
X-38885Y75403D01*
X-38795Y75314D01*
Y71933D01*
Y68781D01*
X-41232Y66344D01*
X-42035D01*
X-42183Y66315D01*
X-52378D01*
Y59000D01*
X-51726D01*
Y57150D01*
X-51610Y56565D01*
X-51278Y56069D01*
X-48730Y53521D01*
X-48234Y53189D01*
X-47649Y53073D01*
X-44945D01*
X-44359Y53189D01*
X-43863Y53521D01*
X-41630Y55754D01*
X-40272D01*
Y54610D01*
X-34532D01*
Y60872D01*
X-33972D01*
Y59728D01*
X-28232D01*
Y60004D01*
X-21472D01*
Y58646D01*
X-13961D01*
Y60004D01*
X-13562D01*
X-13464Y60024D01*
X-13363D01*
X-13363Y60024D01*
X-13323Y60027D01*
X-12986Y59913D01*
X-12821Y59765D01*
X-12793Y59725D01*
X-12695Y59264D01*
X-12324Y58535D01*
X-11777Y57928D01*
X-11091Y57482D01*
X-10656Y57340D01*
Y56765D01*
X-10540Y56179D01*
X-10208Y55683D01*
X-9957Y55432D01*
Y51854D01*
X508D01*
Y55235D01*
X1145Y55872D01*
X1476Y56368D01*
X1593Y56953D01*
Y58299D01*
X2002Y58508D01*
X2610Y59055D01*
X2614Y59061D01*
X3253Y59137D01*
X3331Y59064D01*
Y57957D01*
X9268D01*
Y63500D01*
X5733D01*
X5535Y63539D01*
X5535Y63539D01*
X3540D01*
X3466Y64102D01*
X3114Y64951D01*
X3063Y65018D01*
X3022Y65535D01*
X2853Y66335D01*
X2482Y67064D01*
X1935Y67672D01*
X1249Y68117D01*
X471Y68370D01*
X-346Y68414D01*
X-1146Y68244D01*
X-1875Y67873D01*
X-2483Y67326D01*
X-2929Y66640D01*
X-3181Y65862D01*
X-3225Y65045D01*
X-3181Y64484D01*
X-3339Y64102D01*
X-3459Y63190D01*
X-3339Y62278D01*
X-2987Y61429D01*
X-2936Y61363D01*
X-2895Y60846D01*
X-2726Y60045D01*
X-2355Y59317D01*
X-1808Y58709D01*
X-1466Y58486D01*
Y57595D01*
X-7527D01*
X-7559Y58095D01*
X-7360Y58274D01*
X-6914Y58959D01*
X-6661Y59737D01*
X-6618Y60554D01*
X-6662Y61115D01*
X-6504Y61497D01*
X-6384Y62409D01*
X-6504Y63321D01*
X-6856Y64170D01*
X-6906Y64236D01*
X-6947Y64754D01*
X-7117Y65554D01*
X-7099Y65987D01*
X-6940Y66074D01*
X-6850Y66150D01*
X-6750Y66210D01*
X-6277Y66634D01*
X-5733Y66912D01*
X-5607Y67010D01*
X-5475Y67099D01*
X-3003Y69571D01*
X2870D01*
Y70912D01*
X3921D01*
Y69866D01*
X9071D01*
Y75016D01*
X3921D01*
Y73970D01*
X2870D01*
Y75311D01*
X-1343D01*
X-1343Y80926D01*
X35614D01*
Y80594D01*
X41551D01*
X41658Y80138D01*
Y78213D01*
X47043D01*
Y82219D01*
X47251Y82260D01*
X47747Y82592D01*
X49113Y83958D01*
X49444Y84454D01*
X49561Y85039D01*
Y90990D01*
X57327D01*
X57912Y91107D01*
X58408Y91438D01*
X59928Y92958D01*
X60259Y93454D01*
X60270Y93508D01*
X60370D01*
Y94011D01*
X60376Y94040D01*
Y96141D01*
X60388Y96201D01*
Y99065D01*
X60271Y99650D01*
X59940Y100147D01*
X58116Y101970D01*
Y106185D01*
X61696D01*
X61942Y105685D01*
X61811Y105514D01*
X61538Y104856D01*
X61445Y104150D01*
X61538Y103444D01*
X61811Y102786D01*
X62205Y102272D01*
X61811Y101758D01*
X61538Y101100D01*
X61445Y100394D01*
X61538Y99688D01*
X61660Y99394D01*
X61326Y98894D01*
X61283D01*
Y93508D01*
X70213D01*
Y96112D01*
X70230Y96201D01*
Y103692D01*
X70114Y104277D01*
X69782Y104773D01*
X66872Y107684D01*
X66901Y107905D01*
X66808Y108612D01*
X66714Y108838D01*
X66992Y109254D01*
X69079D01*
Y106185D01*
X72902D01*
X73774Y105313D01*
Y102112D01*
X73224D01*
X72638Y101996D01*
X72142Y101664D01*
X71556Y101078D01*
X71225Y100582D01*
X71108Y99997D01*
Y96201D01*
Y93504D01*
X71225Y92919D01*
X71556Y92422D01*
X72147Y91832D01*
X72643Y91500D01*
X73228Y91384D01*
X73776D01*
X74061Y91099D01*
Y82279D01*
X74178Y81694D01*
X74509Y81197D01*
X75095Y80611D01*
X75591Y80280D01*
X76176Y80164D01*
X83169D01*
X83755Y80280D01*
X84251Y80611D01*
X84627Y80988D01*
X88402D01*
Y84767D01*
X88863Y84958D01*
X89256Y84566D01*
Y81382D01*
Y76264D01*
X90002D01*
Y74610D01*
X90118Y74025D01*
X90450Y73529D01*
X93324Y70655D01*
Y69714D01*
X93440Y69128D01*
X93772Y68632D01*
X93942Y68462D01*
X93900Y68336D01*
X93729Y67967D01*
X93124Y67717D01*
X92559Y67283D01*
X92125Y66718D01*
X91853Y66060D01*
X91760Y65354D01*
X91853Y64648D01*
X92125Y63990D01*
X92451Y63566D01*
X92165Y63346D01*
X91732Y62781D01*
X91459Y62123D01*
X91422Y61841D01*
X90894Y61662D01*
X86302Y66255D01*
X86493Y66716D01*
X88697D01*
Y72654D01*
X88246D01*
X87969Y73069D01*
X88068Y73310D01*
X88161Y74016D01*
X88068Y74722D01*
X87796Y75380D01*
X87362Y75945D01*
X86797Y76378D01*
X86139Y76651D01*
X85433Y76744D01*
X84727Y76651D01*
X84069Y76378D01*
X84051Y76364D01*
X83546Y76869D01*
X83050Y77200D01*
X82465Y77317D01*
X81965D01*
Y79268D01*
X76579D01*
Y76244D01*
Y72307D01*
Y68370D01*
Y63973D01*
X61283D01*
Y61368D01*
X61266Y61279D01*
Y57776D01*
X61382Y57190D01*
X61714Y56694D01*
X62090Y56317D01*
Y52543D01*
X63333D01*
Y51235D01*
X63203Y51182D01*
X62638Y50748D01*
X62204Y50183D01*
X61932Y49525D01*
X61839Y48819D01*
X61932Y48113D01*
X62204Y47455D01*
X62638Y46890D01*
X63203Y46456D01*
X63861Y46184D01*
X64567Y46091D01*
X65273Y46184D01*
X65378Y46227D01*
X65793Y45949D01*
Y35039D01*
X65829Y34863D01*
Y33976D01*
X65915Y33540D01*
X66162Y33170D01*
X66532Y32923D01*
X66969Y32836D01*
X67677D01*
X68113Y32923D01*
X68307Y33053D01*
X68501Y32923D01*
X68937Y32836D01*
X69646D01*
X70082Y32923D01*
X70276Y33053D01*
X70469Y32923D01*
X70906Y32836D01*
X71614D01*
X72050Y32923D01*
X72420Y33170D01*
X72647Y33510D01*
X73579D01*
X74295Y32794D01*
Y29413D01*
Y24295D01*
X75636D01*
Y22456D01*
X75174Y22264D01*
X73022Y24416D01*
X72754Y24595D01*
Y25079D01*
X72667Y25515D01*
X72420Y25885D01*
X72050Y26132D01*
X71614Y26219D01*
X70906D01*
X70469Y26132D01*
X70276Y26003D01*
X70082Y26132D01*
X69646Y26219D01*
X68937D01*
X68501Y26132D01*
X68307Y26003D01*
X68113Y26132D01*
X67677Y26219D01*
X66969D01*
X66532Y26132D01*
X66339Y26003D01*
X66145Y26132D01*
X65709Y26219D01*
X65000D01*
X64564Y26132D01*
X64370Y26003D01*
X64176Y26132D01*
X63740Y26219D01*
X63032D01*
X62595Y26132D01*
X62225Y25885D01*
X61978Y25515D01*
X61892Y25079D01*
Y24192D01*
X61856Y24016D01*
Y23468D01*
X61571Y23183D01*
X60843D01*
Y24524D01*
X54905D01*
X54852Y25001D01*
Y28401D01*
X57043Y30592D01*
X57056Y30595D01*
X60630D01*
Y31004D01*
X60744D01*
Y33122D01*
X61244Y33533D01*
X61358Y33510D01*
X61998D01*
X62225Y33170D01*
X62595Y32923D01*
X63032Y32836D01*
X63740D01*
X64176Y32923D01*
X64546Y33170D01*
X64793Y33540D01*
X64880Y33976D01*
Y35002D01*
X64888Y35039D01*
X64880Y35077D01*
Y36102D01*
X64793Y36539D01*
X64546Y36909D01*
X64176Y37156D01*
X63740Y37242D01*
X63032D01*
X62595Y37156D01*
X62225Y36909D01*
X61635Y36925D01*
X60744Y37816D01*
Y41059D01*
X58291D01*
X57874Y41114D01*
X57458Y41059D01*
X55004D01*
Y35713D01*
Y33424D01*
X51912Y30332D01*
X51539Y29773D01*
X51408Y29114D01*
Y13012D01*
X51539Y12353D01*
X51912Y11794D01*
X54393Y9314D01*
X54359Y9055D01*
X54452Y8349D01*
X54724Y7691D01*
X55158Y7126D01*
X55723Y6692D01*
X56381Y6420D01*
X57087Y6327D01*
X57793Y6420D01*
X58207Y6592D01*
X58707Y6295D01*
Y1969D01*
X58721Y1896D01*
X56841Y16D01*
X56677D01*
Y-189D01*
X56538Y-397D01*
X56461Y-787D01*
X56461Y-9639D01*
X55961Y-9809D01*
X55866Y-9685D01*
X55301Y-9252D01*
X54643Y-8979D01*
X53937Y-8886D01*
X53231Y-8979D01*
X52573Y-9252D01*
X52008Y-9685D01*
X51574Y-10250D01*
X51302Y-10908D01*
X51209Y-11614D01*
X51302Y-12320D01*
X51574Y-12978D01*
X52008Y-13543D01*
X52573Y-13977D01*
X53231Y-14249D01*
X53937Y-14342D01*
X54643Y-14249D01*
X55301Y-13977D01*
X55866Y-13543D01*
X56300Y-12978D01*
X56572Y-12320D01*
X56632Y-11867D01*
X57025Y-11614D01*
X57116Y-11586D01*
X57151Y-11584D01*
X57480Y-11649D01*
X69335D01*
X69335Y-29921D01*
X69412Y-30312D01*
X69633Y-30642D01*
X69964Y-30863D01*
X70354Y-30941D01*
X71191D01*
X71500Y-31441D01*
X71500Y-31441D01*
X71500D01*
X71490Y-31937D01*
X71421Y-32283D01*
X71421Y-40945D01*
X71499Y-41335D01*
X71720Y-41666D01*
X72051Y-41887D01*
X72441Y-41965D01*
X79528Y-41965D01*
X79918Y-41887D01*
X80248Y-41666D01*
X80470Y-41335D01*
X80547Y-40945D01*
X80547Y-36039D01*
X81909D01*
X81951Y-36072D01*
X82609Y-36344D01*
X83315Y-36437D01*
X84021Y-36344D01*
X84679Y-36072D01*
X85244Y-35638D01*
X85678Y-35073D01*
X85950Y-34415D01*
X86043Y-33709D01*
X85950Y-33003D01*
X85678Y-32345D01*
X85244Y-31780D01*
X84679Y-31346D01*
X84558Y-31296D01*
X84540Y-30748D01*
X84697Y-30642D01*
X84918Y-30311D01*
X84996Y-29921D01*
Y-26969D01*
X84996Y-11828D01*
X84989Y-11795D01*
X84994Y-11762D01*
X84981Y-11715D01*
X85221Y-11510D01*
X85221Y-11510D01*
X85428Y-11440D01*
X85498Y-11480D01*
X85636Y-11572D01*
X85669Y-11579D01*
X85698Y-11595D01*
X85863Y-11617D01*
X86026Y-11649D01*
X94532D01*
X94532Y-29921D01*
X94609Y-30312D01*
X94830Y-30642D01*
X95161Y-30863D01*
X95551Y-30941D01*
X96388D01*
X96697Y-31441D01*
X96697Y-31441D01*
X96697D01*
X96687Y-31937D01*
X96618Y-32283D01*
X96618Y-40945D01*
X96696Y-41335D01*
X96917Y-41666D01*
X97248Y-41887D01*
X97638Y-41965D01*
X104724Y-41965D01*
X105115Y-41887D01*
X105445Y-41666D01*
X105666Y-41335D01*
X105744Y-40945D01*
X105744Y-36040D01*
X107654D01*
X107910Y-36145D01*
X108616Y-36238D01*
X109322Y-36145D01*
X109980Y-35873D01*
X110545Y-35439D01*
X110978Y-34874D01*
X111251Y-34216D01*
X111344Y-33510D01*
X111251Y-32804D01*
X110978Y-32146D01*
X110545Y-31581D01*
X110007Y-31168D01*
X109978Y-31138D01*
X109919Y-30789D01*
X109931Y-30586D01*
X110115Y-30312D01*
X110193Y-29921D01*
Y-29213D01*
X110193Y-29213D01*
Y-26969D01*
X110193Y-26969D01*
X110193Y-11887D01*
X110186Y-11854D01*
X110191Y-11820D01*
X110148Y-11660D01*
X110124Y-11540D01*
X110419Y-11418D01*
X110610Y-11271D01*
X111139Y-11351D01*
X111216Y-11402D01*
X111280Y-11469D01*
X111380Y-11512D01*
X111470Y-11572D01*
X111561Y-11590D01*
X111645Y-11627D01*
X111754Y-11628D01*
X111860Y-11649D01*
X119728D01*
Y-26969D01*
Y-29921D01*
X119806Y-30312D01*
X120027Y-30642D01*
X120358Y-30863D01*
X120748Y-30941D01*
X121585D01*
X121894Y-31441D01*
X121894Y-31441D01*
X121894D01*
X121884Y-31937D01*
X121815Y-32283D01*
X121815Y-40945D01*
X121893Y-41335D01*
X122114Y-41666D01*
X122444Y-41887D01*
X122835Y-41965D01*
X129921Y-41965D01*
X130312Y-41887D01*
X130642Y-41666D01*
X130863Y-41335D01*
X130941Y-40945D01*
X130941Y-36039D01*
X132335D01*
X132494Y-36162D01*
X133152Y-36434D01*
X133858Y-36527D01*
X134564Y-36434D01*
X135222Y-36162D01*
X135787Y-35728D01*
X136221Y-35163D01*
X136493Y-34505D01*
X136586Y-33799D01*
X136493Y-33093D01*
X136221Y-32435D01*
X135787Y-31870D01*
X135222Y-31437D01*
X134921Y-31312D01*
X134906Y-31269D01*
X134907Y-30765D01*
X135091Y-30642D01*
X135312Y-30312D01*
X135390Y-29921D01*
Y-29213D01*
X135390Y-29213D01*
Y-26969D01*
X135390Y-26969D01*
Y-24729D01*
X135745Y-24682D01*
X136403Y-24410D01*
X136968Y-23976D01*
X137402Y-23411D01*
X137674Y-22753D01*
X137767Y-22047D01*
X137674Y-21341D01*
X137402Y-20683D01*
X136968Y-20118D01*
X136569Y-19812D01*
Y-11649D01*
X147638D01*
X148028Y-11572D01*
X148359Y-11351D01*
X148580Y-11020D01*
X148657Y-10630D01*
X148657Y3908D01*
X151508Y6759D01*
X151729Y7090D01*
X151807Y7480D01*
X151807Y55118D01*
X151729Y55508D01*
X151508Y55839D01*
X151178Y56060D01*
X150787Y56138D01*
X133071Y56138D01*
X132681Y56060D01*
X132350Y55839D01*
X132129Y55508D01*
X132051Y55118D01*
X132051Y41732D01*
X132129Y41342D01*
X132350Y41011D01*
X137169Y36192D01*
Y34760D01*
X135710D01*
X134349Y36121D01*
X133853Y36452D01*
X133268Y36569D01*
X131702D01*
X131475Y36909D01*
X131106Y37156D01*
X130669Y37242D01*
X129961D01*
X129876Y37312D01*
Y38189D01*
X129759Y38774D01*
X129428Y39270D01*
X110530Y58168D01*
X110034Y58500D01*
X109527Y58600D01*
X109576Y59101D01*
X120079D01*
X120664Y59217D01*
X121160Y59548D01*
X127459Y65848D01*
X127791Y66344D01*
X127907Y66929D01*
Y115354D01*
X127791Y115940D01*
X127459Y116436D01*
X119192Y124704D01*
X118695Y125035D01*
X118110Y125151D01*
X93307D01*
X92722Y125035D01*
X92226Y124704D01*
X87915Y120393D01*
X87584Y119897D01*
X87467Y119312D01*
Y116121D01*
X87584Y115536D01*
X87915Y115040D01*
X88169Y114787D01*
X87977Y114325D01*
X82087D01*
X81899Y114287D01*
X77839D01*
Y108941D01*
Y107476D01*
X75937D01*
X75016Y108397D01*
Y111728D01*
X74520D01*
X74410Y111994D01*
X73976Y112559D01*
X73411Y112993D01*
X72753Y113265D01*
X72047Y113358D01*
X71341Y113265D01*
X70683Y112993D01*
X70118Y112559D01*
X69929Y112313D01*
X66142D01*
X66142Y112313D01*
X61866D01*
X61281Y112197D01*
X60785Y111865D01*
X60648Y111728D01*
X60161D01*
X59744Y111783D01*
X59328Y111728D01*
X56874D01*
Y111404D01*
X56412Y111213D01*
X56103Y111522D01*
X55626Y111841D01*
Y114287D01*
X53172D01*
X52756Y114342D01*
X52339Y114287D01*
X52205D01*
X52014Y114749D01*
X65030Y127765D01*
X76539D01*
X77124Y127882D01*
X77620Y128213D01*
X94451Y145044D01*
X94732Y144927D01*
X95669Y144804D01*
X96607Y144927D01*
X97480Y145289D01*
X98230Y145864D01*
X98806Y146614D01*
X99167Y147488D01*
X99291Y148425D01*
X99167Y149363D01*
X98806Y150236D01*
X98230Y150986D01*
X97480Y151561D01*
X96607Y151923D01*
X95669Y152047D01*
X94732Y151923D01*
X93858Y151561D01*
X93108Y150986D01*
X92533Y150236D01*
X92171Y149363D01*
X92048Y148425D01*
X92171Y147488D01*
X92288Y147206D01*
X91816Y146735D01*
X91354Y146926D01*
Y147951D01*
X91417Y148425D01*
X91354Y148900D01*
Y151984D01*
X88270D01*
X87795Y152047D01*
X87321Y151984D01*
X84236D01*
Y148900D01*
X84174Y148425D01*
X84236Y147951D01*
Y144866D01*
X87321D01*
X87795Y144804D01*
X88270Y144866D01*
X89294D01*
X89485Y144404D01*
X75905Y130824D01*
X64396D01*
X63811Y130708D01*
X63315Y130376D01*
X46143Y113205D01*
X43396Y115952D01*
X42900Y116283D01*
X42854Y116292D01*
Y117544D01*
X42763Y118002D01*
X42504Y118389D01*
X42116Y118649D01*
X41658Y118739D01*
X40625D01*
X40168Y118649D01*
X40157Y118642D01*
X40147Y118649D01*
X39690Y118739D01*
X38656D01*
X38199Y118649D01*
X38189Y118642D01*
X38179Y118649D01*
X37721Y118739D01*
X36688D01*
X36231Y118649D01*
X36220Y118642D01*
X36210Y118649D01*
X35753Y118739D01*
X34719D01*
X34262Y118649D01*
X34252Y118642D01*
X34242Y118649D01*
X33784Y118739D01*
X32751D01*
X32294Y118649D01*
X32283Y118642D01*
X32273Y118649D01*
X31816Y118739D01*
X30782D01*
X30325Y118649D01*
X29937Y118389D01*
X29678Y118002D01*
X29587Y117544D01*
Y114542D01*
X29678Y114085D01*
X29937Y113697D01*
X30325Y113438D01*
X30595Y113384D01*
Y108222D01*
X26027D01*
X24524Y109726D01*
Y112681D01*
Y118028D01*
X21143D01*
X20033Y119137D01*
Y122989D01*
X20946Y123902D01*
X25348D01*
X25759Y123402D01*
X25749Y123351D01*
Y122318D01*
X25840Y121861D01*
X25846Y121850D01*
X25840Y121840D01*
X25749Y121383D01*
Y120349D01*
X25840Y119892D01*
X26099Y119504D01*
X26487Y119245D01*
X26944Y119154D01*
X29749D01*
X30206Y119245D01*
X30594Y119504D01*
X30853Y119892D01*
X30944Y120349D01*
Y121383D01*
X30853Y121840D01*
X30847Y121850D01*
X30853Y121861D01*
X30944Y122318D01*
Y123351D01*
X30853Y123809D01*
X30847Y123819D01*
X30853Y123829D01*
X30944Y124286D01*
Y125320D01*
X30853Y125777D01*
X30847Y125787D01*
X30853Y125797D01*
X30944Y126255D01*
Y127288D01*
X30853Y127746D01*
X30847Y127756D01*
X30853Y127766D01*
X30944Y128223D01*
Y128898D01*
X31816D01*
X32273Y128989D01*
X32661Y129248D01*
X32920Y129636D01*
X33011Y130094D01*
Y133096D01*
X32920Y133553D01*
X32732Y133835D01*
X32860Y134208D01*
X32953Y134335D01*
X33014D01*
X33161Y134305D01*
X33512D01*
X33707Y134111D01*
Y133690D01*
X33615Y133553D01*
X33524Y133096D01*
Y130094D01*
X33615Y129636D01*
X33874Y129248D01*
X34262Y128989D01*
X34719Y128898D01*
X35753D01*
X36210Y128989D01*
X36598Y129248D01*
X36857Y129636D01*
X36948Y130094D01*
Y133096D01*
X36857Y133553D01*
X36766Y133690D01*
Y134744D01*
X36649Y135329D01*
X36318Y135826D01*
X35227Y136916D01*
X34858Y137162D01*
Y139878D01*
X28921D01*
Y134335D01*
X29645D01*
X29739Y134208D01*
X29866Y133835D01*
X29678Y133553D01*
X29593Y133124D01*
X20571D01*
X19986Y133008D01*
X19489Y132676D01*
X15021Y128208D01*
X14522Y128415D01*
Y130709D01*
X14405Y131294D01*
X14074Y131790D01*
X-4430Y150294D01*
X-4927Y150626D01*
X-5512Y150742D01*
X-48268D01*
X-48313Y151308D01*
X-48711Y152967D01*
X-49365Y154544D01*
X-50256Y155999D01*
X-51365Y157297D01*
X-52662Y158405D01*
X-54118Y159297D01*
X-55694Y159950D01*
X-57354Y160348D01*
X-59055Y160482D01*
D02*
G37*
G36*
X46374Y140764D02*
X40831D01*
Y136990D01*
X40197Y136356D01*
X39759D01*
X39174Y136240D01*
X38678Y135908D01*
X38092Y135322D01*
X37760Y134826D01*
X37644Y134241D01*
Y133690D01*
X37552Y133553D01*
X37461Y133096D01*
Y131863D01*
X37447Y131791D01*
X37461Y131720D01*
Y130094D01*
X37552Y129636D01*
X37811Y129248D01*
X38199Y128989D01*
X38656Y128898D01*
X39690D01*
X40147Y128989D01*
X40157Y128996D01*
X40168Y128989D01*
X40625Y128898D01*
X41497D01*
Y128223D01*
X41588Y127766D01*
X41594Y127756D01*
X41588Y127746D01*
X41497Y127288D01*
Y126255D01*
X41588Y125797D01*
X41594Y125787D01*
X41588Y125777D01*
X41497Y125320D01*
Y124286D01*
X41588Y123829D01*
X41594Y123819D01*
X41588Y123809D01*
X41497Y123351D01*
Y122318D01*
X41588Y121861D01*
X41594Y121850D01*
X41588Y121840D01*
X41497Y121383D01*
Y120349D01*
X41588Y119892D01*
X41847Y119504D01*
X42235Y119245D01*
X42692Y119154D01*
X45497D01*
X45954Y119245D01*
X46342Y119504D01*
X46601Y119892D01*
X46692Y120349D01*
Y121383D01*
X46601Y121840D01*
X46595Y121850D01*
X46601Y121861D01*
X46692Y122318D01*
Y123351D01*
X46601Y123809D01*
X46595Y123819D01*
X46601Y123829D01*
X46692Y124286D01*
Y125320D01*
X46601Y125777D01*
X46595Y125787D01*
X46601Y125797D01*
X46692Y126255D01*
Y127288D01*
X46601Y127746D01*
X46595Y127756D01*
X46601Y127766D01*
X46692Y128223D01*
Y129257D01*
X46601Y129714D01*
X46342Y130102D01*
X45954Y130361D01*
X45497Y130452D01*
X42854D01*
Y133096D01*
X42763Y133553D01*
X42504Y133941D01*
X42468Y134301D01*
X42994Y134827D01*
X44726D01*
X44874Y134797D01*
X45022Y134827D01*
X46374D01*
Y136179D01*
X46403Y136327D01*
X46374Y136475D01*
Y140764D01*
D02*
G37*
G36*
X-58465Y128627D02*
X-59556Y128483D01*
X-60573Y128062D01*
X-61447Y127392D01*
X-62117Y126518D01*
X-62538Y125501D01*
X-62682Y124409D01*
X-62538Y123318D01*
X-62117Y122301D01*
X-61447Y121427D01*
X-60573Y120757D01*
X-59556Y120336D01*
X-58465Y120192D01*
X-57373Y120336D01*
X-56356Y120757D01*
X-55483Y121427D01*
X-54812Y122301D01*
X-54391Y123318D01*
X-54247Y124409D01*
X-54391Y125501D01*
X-54812Y126518D01*
X-55483Y127392D01*
X-56356Y128062D01*
X-57373Y128483D01*
X-58465Y128627D01*
D02*
G37*
G36*
X47043Y77299D02*
X41658D01*
Y75336D01*
X41070D01*
X40905Y75551D01*
X40340Y75985D01*
X39682Y76257D01*
X38976Y76350D01*
X38270Y76257D01*
X37612Y75985D01*
X37047Y75551D01*
X36614Y74986D01*
X36341Y74328D01*
X36248Y73622D01*
X36341Y72916D01*
X36614Y72258D01*
X36781Y72040D01*
X37047Y71614D01*
X36614Y71049D01*
X36341Y70391D01*
X36248Y69685D01*
X36341Y68979D01*
X36614Y68321D01*
X36781Y68103D01*
X37023Y67716D01*
X36781Y67330D01*
X36614Y67112D01*
X36341Y66454D01*
X36248Y65748D01*
X36341Y65042D01*
X36614Y64384D01*
X37047Y63819D01*
X37612Y63385D01*
X38270Y63113D01*
X38976Y63020D01*
X39682Y63113D01*
X40340Y63385D01*
X40905Y63819D01*
X41157Y64148D01*
X41658Y63978D01*
Y62465D01*
X45535D01*
Y61576D01*
X45299Y61529D01*
X44803Y61198D01*
X44699Y61094D01*
X44277Y61418D01*
X43619Y61690D01*
X42913Y61783D01*
X42207Y61690D01*
X41549Y61418D01*
X40984Y60984D01*
X40551Y60419D01*
X40278Y59761D01*
X40185Y59055D01*
X40278Y58349D01*
X40551Y57691D01*
X40984Y57126D01*
X41549Y56693D01*
X42207Y56420D01*
X42913Y56327D01*
X43619Y56420D01*
X44277Y56693D01*
X44842Y57126D01*
X45266Y57678D01*
X45488Y57723D01*
X45985Y58054D01*
X46275Y58344D01*
X46395Y58320D01*
X46560Y57778D01*
X43023Y54241D01*
X42500Y54309D01*
X41794Y54216D01*
X41136Y53944D01*
X40571Y53510D01*
X40137Y52946D01*
X39865Y52288D01*
X39772Y51581D01*
X39865Y50875D01*
X40137Y50217D01*
X40571Y49652D01*
X41136Y49219D01*
X41794Y48946D01*
X42500Y48853D01*
X43206Y48946D01*
X43657Y49133D01*
X43700Y49030D01*
X44134Y48465D01*
X44699Y48031D01*
X45357Y47759D01*
X46063Y47666D01*
X46769Y47759D01*
X47427Y48031D01*
X47992Y48465D01*
X48426Y49030D01*
X48698Y49688D01*
X48791Y50394D01*
X48725Y50893D01*
X51131Y53299D01*
X51628Y53250D01*
X51674Y53181D01*
X52886Y51969D01*
X52834Y51575D01*
X52928Y50869D01*
X53200Y50211D01*
X53634Y49646D01*
X54199Y49212D01*
X54856Y48940D01*
X55563Y48847D01*
X56269Y48940D01*
X56927Y49212D01*
X57492Y49646D01*
X57925Y50211D01*
X58198Y50869D01*
X58291Y51575D01*
X58198Y52281D01*
X57925Y52939D01*
X57508Y53483D01*
X57563Y53525D01*
X57996Y54090D01*
X58269Y54748D01*
X58362Y55454D01*
X58269Y56160D01*
X57996Y56818D01*
X57767Y57117D01*
X57971Y57321D01*
X58303Y57817D01*
X58419Y58402D01*
Y58587D01*
X60370D01*
Y63973D01*
X47043D01*
Y66402D01*
Y70339D01*
Y74276D01*
Y77299D01*
D02*
G37*
G36*
X0Y45361D02*
X-1553Y45208D01*
X-3046Y44755D01*
X-4422Y44020D01*
X-5628Y43030D01*
X-6618Y41824D01*
X-7354Y40447D01*
X-7807Y38954D01*
X-7960Y37401D01*
X-7807Y35849D01*
X-7354Y34355D01*
X-6618Y32979D01*
X-5628Y31773D01*
X-4422Y30783D01*
X-3046Y30048D01*
X-1553Y29595D01*
X0Y29442D01*
X1553Y29595D01*
X3046Y30048D01*
X4422Y30783D01*
X5628Y31773D01*
X6618Y32979D01*
X7354Y34355D01*
X7807Y35849D01*
X7960Y37401D01*
X7807Y38954D01*
X7354Y40447D01*
X6618Y41824D01*
X5628Y43030D01*
X4422Y44020D01*
X3046Y44755D01*
X1553Y45208D01*
X0Y45361D01*
D02*
G37*
G36*
X28740Y32957D02*
X27649Y32814D01*
X26632Y32392D01*
X25758Y31722D01*
X25088Y30849D01*
X24667Y29832D01*
X24523Y28740D01*
X24667Y27649D01*
X25088Y26632D01*
X25758Y25758D01*
X26632Y25088D01*
X27649Y24667D01*
X28740Y24523D01*
X29832Y24667D01*
X30849Y25088D01*
X31722Y25758D01*
X32392Y26632D01*
X32814Y27649D01*
X32957Y28740D01*
X32814Y29832D01*
X32392Y30849D01*
X31722Y31722D01*
X30849Y32392D01*
X29832Y32814D01*
X28740Y32957D01*
D02*
G37*
G36*
X-33150Y48530D02*
X-33379Y48485D01*
X-33613Y48478D01*
X-33718Y48430D01*
X-33832Y48414D01*
X-33881Y48385D01*
X-33937Y48374D01*
X-34131Y48244D01*
X-34344Y48148D01*
X-36271Y46773D01*
X-36331Y46711D01*
X-36406Y46669D01*
X-40020Y43609D01*
X-40074Y43542D01*
X-40145Y43494D01*
X-43494Y40145D01*
X-43542Y40074D01*
X-43609Y40020D01*
X-46669Y36406D01*
X-46711Y36331D01*
X-46773Y36271D01*
X-48148Y34344D01*
X-48267Y34080D01*
X-48414Y33832D01*
X-48430Y33718D01*
X-48478Y33613D01*
X-48487Y33324D01*
X-48527Y33038D01*
X-48499Y32926D01*
X-48502Y32811D01*
X-48400Y32541D01*
X-48328Y32261D01*
X-48259Y32169D01*
X-48218Y32061D01*
X-48020Y31851D01*
X-47847Y31620D01*
X-39723Y24338D01*
X-39611Y24272D01*
X-39521Y24178D01*
X-39269Y24069D01*
X-39033Y23929D01*
X-38904Y23911D01*
X-38785Y23859D01*
X-38511Y23855D01*
X-38239Y23816D01*
X-38113Y23848D01*
X-37983Y23846D01*
X-37728Y23947D01*
X-37462Y24015D01*
X-37358Y24093D01*
X-37237Y24141D01*
X-37040Y24332D01*
X-36821Y24496D01*
X-36755Y24608D01*
X-36661Y24699D01*
X-36050Y25581D01*
X-34774Y27291D01*
X-33424Y28928D01*
X-33406Y28948D01*
X-33109Y28810D01*
X-32952Y28703D01*
X-32814Y27649D01*
X-32392Y26632D01*
X-31722Y25758D01*
X-30849Y25088D01*
X-29832Y24667D01*
X-28740Y24523D01*
X-27649Y24667D01*
X-26632Y25088D01*
X-25758Y25758D01*
X-25088Y26632D01*
X-24667Y27649D01*
X-24523Y28740D01*
X-24667Y29832D01*
X-25088Y30849D01*
X-25758Y31722D01*
X-26632Y32392D01*
X-27649Y32814D01*
X-28703Y32952D01*
X-28810Y33109D01*
X-28948Y33406D01*
X-28928Y33424D01*
X-27291Y34774D01*
X-25581Y36050D01*
X-24699Y36661D01*
X-24608Y36755D01*
X-24496Y36821D01*
X-24332Y37040D01*
X-24141Y37237D01*
X-24093Y37358D01*
X-24015Y37462D01*
X-23947Y37728D01*
X-23846Y37983D01*
X-23848Y38113D01*
X-23816Y38239D01*
X-23855Y38511D01*
X-23859Y38785D01*
X-23911Y38904D01*
X-23929Y39033D01*
X-24069Y39269D01*
X-24178Y39521D01*
X-24272Y39611D01*
X-24338Y39723D01*
X-31620Y47847D01*
X-31666Y47881D01*
X-31697Y47928D01*
X-31891Y48058D01*
X-32061Y48218D01*
X-32169Y48259D01*
X-32261Y48328D01*
X-32317Y48342D01*
X-32364Y48374D01*
X-32593Y48419D01*
X-32811Y48502D01*
X-32926Y48499D01*
X-33038Y48527D01*
X-33095Y48519D01*
X-33150Y48530D01*
D02*
G37*
G36*
X31496Y7960D02*
X29943Y7807D01*
X28450Y7354D01*
X27074Y6618D01*
X25868Y5628D01*
X24878Y4422D01*
X24142Y3046D01*
X23689Y1553D01*
X23536Y0D01*
X23689Y-1553D01*
X24142Y-3046D01*
X24878Y-4422D01*
X25868Y-5628D01*
X27074Y-6618D01*
X28450Y-7354D01*
X29943Y-7807D01*
X31496Y-7960D01*
X33049Y-7807D01*
X34542Y-7354D01*
X35918Y-6618D01*
X37124Y-5628D01*
X38114Y-4422D01*
X38850Y-3046D01*
X39303Y-1553D01*
X39456Y0D01*
X39303Y1553D01*
X38850Y3046D01*
X38114Y4422D01*
X37124Y5628D01*
X35918Y6618D01*
X34542Y7354D01*
X33049Y7807D01*
X31496Y7960D01*
D02*
G37*
G36*
X-31496D02*
X-33049Y7807D01*
X-34542Y7354D01*
X-35918Y6618D01*
X-37124Y5628D01*
X-38114Y4422D01*
X-38850Y3046D01*
X-39303Y1553D01*
X-39456Y0D01*
X-39303Y-1553D01*
X-38850Y-3046D01*
X-38114Y-4422D01*
X-37124Y-5628D01*
X-35918Y-6618D01*
X-34542Y-7354D01*
X-33049Y-7807D01*
X-31496Y-7960D01*
X-29943Y-7807D01*
X-28450Y-7354D01*
X-27074Y-6618D01*
X-25868Y-5628D01*
X-24878Y-4422D01*
X-24142Y-3046D01*
X-23689Y-1553D01*
X-23537Y0D01*
X-23689Y1553D01*
X-24142Y3046D01*
X-24878Y4422D01*
X-25868Y5628D01*
X-27074Y6618D01*
X-28450Y7354D01*
X-29943Y7807D01*
X-31496Y7960D01*
D02*
G37*
G36*
X-54331Y1547D02*
X-55037Y1454D01*
X-55695Y1182D01*
X-56260Y748D01*
X-56693Y183D01*
X-56966Y-475D01*
X-57059Y-1181D01*
X-56966Y-1887D01*
X-56693Y-2545D01*
X-56681Y-2561D01*
X-56413Y-2937D01*
X-56413D01*
X-56413Y-2937D01*
Y-8874D01*
X-54474D01*
Y-12016D01*
X-54445Y-12163D01*
Y-17114D01*
X-54905Y-17209D01*
Y-17209D01*
X-58986D01*
X-59149Y-17176D01*
X-59311Y-17209D01*
X-60843D01*
Y-22752D01*
X-59403D01*
Y-28418D01*
X-59287Y-29003D01*
X-58956Y-29500D01*
X-58546Y-29909D01*
X-58559Y-30409D01*
X-58874Y-30693D01*
X-59320Y-31378D01*
X-59573Y-32156D01*
X-59616Y-32973D01*
X-59446Y-33773D01*
X-59075Y-34502D01*
X-58528Y-35110D01*
X-57842Y-35556D01*
X-57064Y-35809D01*
X-56248Y-35852D01*
X-55448Y-35682D01*
X-54719Y-35311D01*
X-54254Y-34992D01*
X-53845Y-34938D01*
X-52995Y-34586D01*
X-52266Y-34027D01*
X-51706Y-33297D01*
X-51674Y-33220D01*
X-51246Y-32926D01*
X-50638Y-32379D01*
X-50192Y-31693D01*
X-49940Y-30915D01*
X-49936Y-30846D01*
X-49429Y-30725D01*
X-48348Y-32597D01*
X-48098Y-33030D01*
X-47848Y-33463D01*
X-47007Y-34919D01*
X-47554Y-35466D01*
X-47603Y-35463D01*
X-48403Y-35633D01*
X-49132Y-36004D01*
X-49597Y-36323D01*
X-50007Y-36377D01*
X-50856Y-36729D01*
X-51586Y-37288D01*
X-52145Y-38018D01*
X-52177Y-38095D01*
X-52605Y-38389D01*
X-53213Y-38936D01*
X-53659Y-39622D01*
X-53912Y-40400D01*
X-53955Y-41216D01*
X-53785Y-42016D01*
X-53414Y-42745D01*
X-52867Y-43353D01*
X-52181Y-43799D01*
X-51403Y-44052D01*
X-50586Y-44095D01*
X-49786Y-43925D01*
X-49058Y-43554D01*
X-48593Y-43235D01*
X-48183Y-43181D01*
X-47334Y-42829D01*
X-46604Y-42270D01*
X-46045Y-41540D01*
X-46013Y-41463D01*
X-45585Y-41169D01*
X-44977Y-40622D01*
X-44531Y-39937D01*
X-44278Y-39159D01*
X-44235Y-38342D01*
X-44405Y-37542D01*
X-44694Y-36975D01*
X-40568Y-34592D01*
X-42062Y-32004D01*
X-41963Y-31507D01*
Y-26192D01*
X-42080Y-25607D01*
X-42411Y-25111D01*
X-48705Y-18817D01*
Y-15862D01*
Y-10516D01*
X-51415D01*
Y-8874D01*
X-50870D01*
Y-2937D01*
X-51707D01*
X-51923Y-2437D01*
X-51696Y-1887D01*
X-51603Y-1181D01*
X-51696Y-475D01*
X-51968Y183D01*
X-52402Y748D01*
X-52967Y1182D01*
X-53625Y1454D01*
X-54331Y1547D01*
D02*
G37*
G36*
X0Y17802D02*
X-2324Y17650D01*
X-4608Y17195D01*
X-6813Y16447D01*
X-8901Y15417D01*
X-10837Y14123D01*
X-12588Y12588D01*
X-14123Y10837D01*
X-15417Y8901D01*
X-16447Y6813D01*
X-17195Y4608D01*
X-17650Y2324D01*
X-17802Y0D01*
X-17650Y-2324D01*
X-17195Y-4608D01*
X-16447Y-6813D01*
X-15417Y-8901D01*
X-14123Y-10837D01*
X-12588Y-12588D01*
X-10837Y-14123D01*
X-8901Y-15417D01*
X-6813Y-16447D01*
X-4608Y-17195D01*
X-2324Y-17650D01*
X0Y-17802D01*
X2324Y-17650D01*
X4608Y-17195D01*
X6813Y-16447D01*
X8901Y-15417D01*
X10837Y-14123D01*
X12588Y-12588D01*
X14123Y-10837D01*
X15417Y-8901D01*
X16447Y-6813D01*
X17195Y-4608D01*
X17650Y-2324D01*
X17802Y0D01*
X17650Y2324D01*
X17195Y4608D01*
X16447Y6813D01*
X15417Y8901D01*
X14123Y10837D01*
X12588Y12588D01*
X10837Y14123D01*
X8901Y15417D01*
X6813Y16447D01*
X4608Y17195D01*
X2324Y17650D01*
X0Y17802D01*
D02*
G37*
G36*
X56855Y-18595D02*
X56055Y-18765D01*
X55326Y-19136D01*
X54718Y-19683D01*
X54389Y-20190D01*
X52541D01*
X51956Y-20306D01*
X51460Y-20638D01*
X49503Y-22594D01*
X47768Y-21593D01*
X45095Y-26223D01*
X42536Y-30655D01*
X47074Y-33275D01*
X47507Y-33525D01*
X47782Y-33599D01*
Y-34827D01*
X46539D01*
Y-40764D01*
X52083D01*
Y-34827D01*
X50840D01*
Y-33704D01*
X51280Y-33466D01*
X51441Y-33571D01*
X51950Y-33813D01*
X52201Y-34141D01*
X52931Y-34701D01*
X53780Y-35053D01*
X54692Y-35173D01*
X54775Y-35162D01*
X55243Y-35386D01*
X56021Y-35639D01*
X56837Y-35682D01*
X57638Y-35512D01*
X58366Y-35141D01*
X58974Y-34594D01*
X59420Y-33908D01*
X59673Y-33130D01*
X59716Y-32313D01*
X59547Y-31513D01*
X59175Y-30784D01*
X58628Y-30176D01*
X57943Y-29731D01*
X57434Y-29488D01*
X57183Y-29160D01*
X56453Y-28600D01*
X55604Y-28249D01*
X54692Y-28128D01*
X54609Y-28139D01*
X54141Y-27916D01*
X53363Y-27663D01*
X52546Y-27620D01*
X51746Y-27790D01*
X51250Y-28042D01*
X50892Y-27664D01*
X52740Y-24463D01*
X52601Y-24383D01*
X52536Y-23887D01*
X53175Y-23248D01*
X54392D01*
X54517Y-23493D01*
X55064Y-24101D01*
X55750Y-24546D01*
X56258Y-24789D01*
X56510Y-25117D01*
X57239Y-25677D01*
X58089Y-26029D01*
X59000Y-26149D01*
X59083Y-26138D01*
X59551Y-26361D01*
X60329Y-26614D01*
X61146Y-26657D01*
X61946Y-26488D01*
X62675Y-26117D01*
X63283Y-25569D01*
X63728Y-24884D01*
X63981Y-24106D01*
X64025Y-23289D01*
X63855Y-22489D01*
X63484Y-21760D01*
X62937Y-21152D01*
X62251Y-20706D01*
X61742Y-20464D01*
X61491Y-20136D01*
X60761Y-19576D01*
X59912Y-19224D01*
X59000Y-19104D01*
X58917Y-19115D01*
X58449Y-18891D01*
X57671Y-18639D01*
X56855Y-18595D01*
D02*
G37*
G36*
X-28740Y-24523D02*
X-29832Y-24667D01*
X-30849Y-25088D01*
X-31722Y-25758D01*
X-32392Y-26632D01*
X-32814Y-27649D01*
X-32957Y-28740D01*
X-32814Y-29832D01*
X-32392Y-30849D01*
X-31722Y-31722D01*
X-30849Y-32392D01*
X-29832Y-32814D01*
X-28740Y-32957D01*
X-27649Y-32814D01*
X-26632Y-32392D01*
X-25758Y-31722D01*
X-25088Y-30849D01*
X-24667Y-29832D01*
X-24523Y-28740D01*
X-24667Y-27649D01*
X-25088Y-26632D01*
X-25758Y-25758D01*
X-26632Y-25088D01*
X-27649Y-24667D01*
X-28740Y-24523D01*
D02*
G37*
G36*
X0Y-29442D02*
X-1553Y-29595D01*
X-3046Y-30048D01*
X-4422Y-30783D01*
X-5628Y-31773D01*
X-6618Y-32980D01*
X-7354Y-34356D01*
X-7807Y-35849D01*
X-7960Y-37402D01*
X-7807Y-38954D01*
X-7354Y-40448D01*
X-6618Y-41824D01*
X-5628Y-43030D01*
X-4422Y-44020D01*
X-3046Y-44755D01*
X-1553Y-45208D01*
X0Y-45361D01*
X1553Y-45208D01*
X3046Y-44755D01*
X4422Y-44020D01*
X5628Y-43030D01*
X6618Y-41824D01*
X7354Y-40448D01*
X7807Y-38954D01*
X7960Y-37402D01*
X7807Y-35849D01*
X7354Y-34356D01*
X6618Y-32980D01*
X5628Y-31773D01*
X4422Y-30783D01*
X3046Y-30048D01*
X1553Y-29595D01*
X0Y-29442D01*
D02*
G37*
G36*
X106299Y-53977D02*
X105362Y-54100D01*
X104488Y-54462D01*
X103738Y-55038D01*
X103338Y-55559D01*
X101386D01*
X100986Y-55038D01*
X100236Y-54462D01*
X99362Y-54100D01*
X98425Y-53977D01*
X97488Y-54100D01*
X96614Y-54462D01*
X95864Y-55038D01*
X95464Y-55559D01*
X94110D01*
Y-54039D01*
X91026D01*
X90551Y-53977D01*
X90077Y-54039D01*
X86992D01*
Y-57124D01*
X86930Y-57598D01*
X86992Y-58073D01*
Y-61158D01*
X90077D01*
X90551Y-61220D01*
X91026Y-61158D01*
X94110D01*
Y-59638D01*
X95464D01*
X95864Y-60159D01*
X96614Y-60735D01*
X97488Y-61097D01*
X98425Y-61220D01*
X99362Y-61097D01*
X100236Y-60735D01*
X100986Y-60159D01*
X101386Y-59638D01*
X103338D01*
X103738Y-60159D01*
X104488Y-60735D01*
X105362Y-61097D01*
X106299Y-61220D01*
X107237Y-61097D01*
X108110Y-60735D01*
X108860Y-60159D01*
X109436Y-59409D01*
X109797Y-58536D01*
X109921Y-57598D01*
X109797Y-56661D01*
X109436Y-55788D01*
X108860Y-55038D01*
X108110Y-54462D01*
X107237Y-54100D01*
X106299Y-53977D01*
D02*
G37*
G36*
X-11811D02*
X-12748Y-54100D01*
X-13622Y-54462D01*
X-14372Y-55038D01*
X-14772Y-55559D01*
X-16724D01*
X-17124Y-55038D01*
X-17874Y-54462D01*
X-18748Y-54100D01*
X-19685Y-53977D01*
X-20622Y-54100D01*
X-21496Y-54462D01*
X-22246Y-55038D01*
X-22646Y-55559D01*
X-24000D01*
Y-54039D01*
X-27084D01*
X-27559Y-53977D01*
X-28034Y-54039D01*
X-31118D01*
Y-57124D01*
X-31181Y-57598D01*
X-31118Y-58073D01*
Y-61158D01*
X-28034D01*
X-27559Y-61220D01*
X-27084Y-61158D01*
X-24000D01*
Y-59638D01*
X-22646D01*
X-22246Y-60159D01*
X-21496Y-60735D01*
X-20622Y-61097D01*
X-19685Y-61220D01*
X-18748Y-61097D01*
X-17874Y-60735D01*
X-17124Y-60159D01*
X-16724Y-59638D01*
X-14772D01*
X-14372Y-60159D01*
X-13622Y-60735D01*
X-12748Y-61097D01*
X-11811Y-61220D01*
X-10874Y-61097D01*
X-10000Y-60735D01*
X-9250Y-60159D01*
X-8675Y-59409D01*
X-8313Y-58536D01*
X-8190Y-57598D01*
X-8313Y-56661D01*
X-8675Y-55788D01*
X-9250Y-55038D01*
X-10000Y-54462D01*
X-10874Y-54100D01*
X-11811Y-53977D01*
D02*
G37*
%LPD*%
G36*
X122093Y114460D02*
Y90696D01*
X121593Y90647D01*
X121492Y91155D01*
X121160Y91651D01*
X106611Y106200D01*
X106115Y106531D01*
X105530Y106648D01*
X103854D01*
Y108087D01*
X101864D01*
Y109295D01*
X102097Y109342D01*
X102474Y109593D01*
X102725Y109969D01*
X102814Y110413D01*
Y111240D01*
X102835Y111266D01*
X107831D01*
X108368Y110729D01*
X108611Y110567D01*
X108661Y110447D01*
X109094Y109882D01*
X109659Y109448D01*
X110317Y109176D01*
X111023Y109083D01*
X111730Y109176D01*
X112387Y109448D01*
X112795Y109761D01*
X113203Y109448D01*
X113861Y109176D01*
X114567Y109083D01*
X115273Y109176D01*
X115931Y109448D01*
X116496Y109882D01*
X116929Y110447D01*
X117202Y111105D01*
X117295Y111811D01*
X117202Y112517D01*
X116929Y113175D01*
X116762Y113393D01*
X116521Y113779D01*
X116762Y114166D01*
X116929Y114384D01*
X117202Y115042D01*
X117295Y115748D01*
X117202Y116454D01*
X116929Y117112D01*
X116496Y117677D01*
X115931Y118111D01*
X115273Y118383D01*
X114567Y118476D01*
X113861Y118383D01*
X113203Y118111D01*
X112795Y117798D01*
X112388Y118111D01*
X111730Y118383D01*
X111024Y118476D01*
X110318Y118383D01*
X109660Y118111D01*
X109095Y117677D01*
X108661Y117112D01*
X108612Y116993D01*
X108367Y116830D01*
X107831Y116293D01*
X101875D01*
X101654Y116337D01*
X99016D01*
X98572Y116249D01*
X98195Y115998D01*
X97944Y115621D01*
X97856Y115177D01*
Y114350D01*
X97944Y113906D01*
X98029Y113779D01*
X97944Y113653D01*
X97856Y113209D01*
Y112382D01*
X97944Y111938D01*
X98029Y111811D01*
X97944Y111684D01*
X97856Y111240D01*
Y110413D01*
X97944Y109969D01*
X98195Y109593D01*
X98572Y109342D01*
X98805Y109295D01*
Y108087D01*
X98311D01*
Y102150D01*
X103854D01*
Y103589D01*
X104896D01*
X118549Y89936D01*
Y71527D01*
X118150Y71220D01*
X117716Y70655D01*
X117444Y69997D01*
X117351Y69291D01*
X117444Y68585D01*
X117716Y67927D01*
X118150Y67362D01*
X118715Y66929D01*
X119373Y66656D01*
X119655Y66619D01*
X119834Y66091D01*
X118264Y64521D01*
X109518D01*
X109310Y65022D01*
X110530Y66241D01*
X110862Y66738D01*
X110978Y67323D01*
Y89370D01*
X110862Y89955D01*
X110530Y90452D01*
X107578Y93404D01*
X107081Y93736D01*
X106496Y93852D01*
X101689D01*
Y94996D01*
X95949D01*
Y93065D01*
X88752D01*
X88474Y93481D01*
X88568Y93707D01*
X88661Y94413D01*
X88568Y95120D01*
X88296Y95777D01*
X87862Y96342D01*
X87297Y96776D01*
X86639Y97048D01*
X86175Y97110D01*
X86193Y97244D01*
X86100Y97950D01*
X85827Y98608D01*
X85394Y99173D01*
X84829Y99607D01*
X84171Y99879D01*
X83465Y99972D01*
X82758Y99879D01*
X82100Y99607D01*
X81775Y99987D01*
X81494Y100354D01*
X80929Y100788D01*
X80271Y101060D01*
X79565Y101153D01*
X78859Y101060D01*
X78201Y100788D01*
X77726Y100423D01*
X77052D01*
X76750Y100923D01*
X76832Y101337D01*
Y104417D01*
X77839D01*
Y103823D01*
X83579D01*
Y105762D01*
X85539D01*
X85687Y105791D01*
X89976D01*
Y109172D01*
X90102Y109297D01*
X91038D01*
X91260Y109253D01*
X93898D01*
X94342Y109342D01*
X94718Y109593D01*
X94969Y109969D01*
X95058Y110413D01*
Y111240D01*
X94969Y111684D01*
X94885Y111811D01*
X94969Y111938D01*
X95058Y112382D01*
Y113209D01*
X94969Y113653D01*
X94885Y113779D01*
X94969Y113906D01*
X95058Y114350D01*
Y115177D01*
X94969Y115621D01*
X94885Y115748D01*
X94969Y115875D01*
X95058Y116319D01*
Y117146D01*
X94969Y117590D01*
X94718Y117966D01*
X94342Y118218D01*
X94108Y118264D01*
Y119111D01*
X94728Y119730D01*
X116822D01*
X122093Y114460D01*
D02*
G37*
G36*
X95949Y86928D02*
Y83744D01*
X101689D01*
Y84888D01*
X102248D01*
Y78626D01*
X103982D01*
Y76332D01*
X97548D01*
X97508Y76431D01*
X97074Y76996D01*
X96509Y77429D01*
X95851Y77702D01*
X95145Y77795D01*
X94996Y77925D01*
Y81382D01*
Y86728D01*
X91419D01*
X90571Y87576D01*
X90763Y88038D01*
X94839D01*
X95949Y86928D01*
D02*
G37*
G36*
X-46850Y80470D02*
X-47904Y79416D01*
X-48348Y78751D01*
X-48504Y77968D01*
X-48504Y77968D01*
Y75646D01*
X-48638D01*
Y69291D01*
X-51575Y69291D01*
X-54724Y72441D01*
Y74984D01*
X-54216D01*
Y80921D01*
X-53921Y81283D01*
X-53921D01*
Y88795D01*
X-54724D01*
X-54724Y96386D01*
X-46850D01*
Y80470D01*
D02*
G37*
G36*
X-7874Y86614D02*
X-2362Y81102D01*
X-2362Y75311D01*
X-2476D01*
Y71539D01*
X-6196Y67820D01*
X-6859Y67482D01*
X-7431Y66967D01*
X-7590Y66880D01*
X-7905Y66856D01*
X-8076Y66917D01*
X-8721Y67336D01*
X-9499Y67589D01*
X-10315Y67632D01*
X-11115Y67463D01*
X-11844Y67092D01*
X-12452Y66545D01*
X-12898Y65859D01*
X-13151Y65081D01*
X-13194Y64264D01*
X-13150Y63703D01*
X-13308Y63321D01*
X-13428Y62409D01*
X-13312Y61524D01*
X-13315Y61393D01*
X-13562Y61024D01*
X-28232D01*
Y63364D01*
X-28187Y63591D01*
Y66815D01*
X-25476D01*
Y67860D01*
X-24622D01*
Y66618D01*
X-18685D01*
Y72161D01*
X-24622D01*
Y70919D01*
X-25476D01*
Y72161D01*
X-31216D01*
X-31216Y72161D01*
Y72161D01*
X-31685Y72281D01*
X-32283Y72880D01*
X-32283Y86614D01*
X-7874Y86614D01*
D02*
G37*
G36*
X91741Y53643D02*
X92238Y53311D01*
X92823Y53195D01*
X108293D01*
X120022Y41467D01*
X119722Y41059D01*
X117346D01*
X116929Y41114D01*
X116513Y41059D01*
X114059D01*
Y35713D01*
Y33030D01*
X112168Y31139D01*
X111795Y30580D01*
X111664Y29921D01*
Y19291D01*
X111795Y18632D01*
X112168Y18074D01*
X113429Y16813D01*
X113507Y16223D01*
X113779Y15565D01*
X114213Y15000D01*
X114778Y14567D01*
X115436Y14294D01*
X116142Y14201D01*
X116848Y14294D01*
X117262Y14466D01*
X117762Y14169D01*
Y5350D01*
X108222Y5350D01*
Y24295D01*
X109563D01*
Y29414D01*
Y34760D01*
X106183D01*
X104822Y36121D01*
X104325Y36452D01*
X103740Y36569D01*
X102175D01*
X101948Y36909D01*
X101578Y37156D01*
X101142Y37242D01*
X100433D01*
X100348Y37312D01*
Y38583D01*
X100232Y39168D01*
X99900Y39664D01*
X94389Y45176D01*
X93892Y45507D01*
X93307Y45624D01*
X82523D01*
X80692Y47455D01*
X80883Y47917D01*
X85547D01*
Y49061D01*
X87386D01*
Y47425D01*
X92535D01*
Y52575D01*
X87386D01*
Y52120D01*
X85547D01*
Y58382D01*
X81970D01*
X79184Y61168D01*
X78688Y61500D01*
X78102Y61616D01*
X78087D01*
Y62465D01*
X81965D01*
Y62766D01*
X82427Y62958D01*
X91741Y53643D01*
D02*
G37*
G36*
X124849Y36640D02*
Y35039D01*
X124884Y34863D01*
Y33976D01*
X124970Y33540D01*
X125217Y33170D01*
X125587Y32923D01*
X126024Y32836D01*
X126732D01*
X127169Y32923D01*
X127362Y33053D01*
X127556Y32923D01*
X127992Y32836D01*
X128701D01*
X129137Y32923D01*
X129331Y33053D01*
X129524Y32923D01*
X129961Y32836D01*
X130669D01*
X131106Y32923D01*
X131475Y33170D01*
X131702Y33510D01*
X132634D01*
X133350Y32794D01*
Y29414D01*
Y24295D01*
X134691D01*
Y22456D01*
X134229Y22264D01*
X132078Y24416D01*
X131809Y24595D01*
Y25079D01*
X131722Y25515D01*
X131475Y25885D01*
X131106Y26132D01*
X130669Y26219D01*
X129961D01*
X129524Y26132D01*
X129331Y26003D01*
X129137Y26132D01*
X128701Y26219D01*
X127992D01*
X127556Y26132D01*
X127362Y26003D01*
X127169Y26132D01*
X126732Y26219D01*
X126024D01*
X125587Y26132D01*
X125394Y26003D01*
X125200Y26132D01*
X124764Y26219D01*
X124055D01*
X123619Y26132D01*
X123425Y26003D01*
X123231Y26132D01*
X122795Y26219D01*
X122087D01*
X121650Y26132D01*
X121281Y25885D01*
X121033Y25515D01*
X120947Y25079D01*
Y24054D01*
X120912Y23878D01*
Y23370D01*
X120823Y23281D01*
X119898D01*
Y24524D01*
X115108D01*
Y29208D01*
X116494Y30594D01*
X119685D01*
Y31004D01*
X119799D01*
Y33255D01*
X120299Y33666D01*
X120390Y33648D01*
X120943D01*
X120977Y33478D01*
X121308Y32982D01*
X121653Y32751D01*
Y32776D01*
X123163D01*
X123471Y32982D01*
X123522Y33033D01*
X123854Y33529D01*
X123970Y34114D01*
Y35177D01*
X123935Y35353D01*
Y36102D01*
X123848Y36539D01*
X123601Y36909D01*
X123231Y37156D01*
X122795Y37242D01*
X122087D01*
X121650Y37156D01*
X121281Y36909D01*
X120736Y36994D01*
X120420Y37310D01*
X120254Y37421D01*
X119799Y37875D01*
Y40982D01*
X120207Y41281D01*
X124849Y36640D01*
D02*
G37*
G36*
X95321D02*
Y35039D01*
X95356Y34863D01*
Y33976D01*
X95443Y33540D01*
X95690Y33170D01*
X96060Y32923D01*
X96496Y32836D01*
X97205D01*
X97641Y32923D01*
X97835Y33053D01*
X98028Y32923D01*
X98465Y32836D01*
X99173D01*
X99610Y32923D01*
X99803Y33053D01*
X99997Y32923D01*
X100433Y32836D01*
X101142D01*
X101578Y32923D01*
X101948Y33170D01*
X102175Y33510D01*
X103107D01*
X103823Y32794D01*
Y29414D01*
Y24295D01*
X105163D01*
Y22456D01*
X104701Y22264D01*
X102550Y24416D01*
X102282Y24595D01*
Y25079D01*
X102195Y25515D01*
X101948Y25885D01*
X101578Y26132D01*
X101142Y26219D01*
X100433D01*
X99997Y26132D01*
X99803Y26003D01*
X99610Y26132D01*
X99173Y26219D01*
X98465D01*
X98028Y26132D01*
X97835Y26003D01*
X97641Y26132D01*
X97205Y26219D01*
X96496D01*
X96060Y26132D01*
X95866Y26003D01*
X95673Y26132D01*
X95236Y26219D01*
X94528D01*
X94091Y26132D01*
X93898Y26003D01*
X93704Y26132D01*
X93268Y26219D01*
X92559D01*
X92123Y26132D01*
X91753Y25885D01*
X91506Y25515D01*
X91419Y25079D01*
Y24054D01*
X91384Y23878D01*
Y23370D01*
X91296Y23281D01*
X90370D01*
Y24524D01*
X85580D01*
Y29208D01*
X86967Y30595D01*
X90158D01*
Y31004D01*
X90272D01*
Y33255D01*
X90772Y33666D01*
X90862Y33648D01*
X91415D01*
X91449Y33478D01*
X91781Y32982D01*
X92126Y32751D01*
Y32776D01*
X93635D01*
X93944Y32982D01*
X93995Y33033D01*
X94326Y33529D01*
X94443Y34114D01*
Y35177D01*
X94408Y35353D01*
Y36102D01*
X94321Y36539D01*
X94074Y36909D01*
X93704Y37156D01*
X93268Y37242D01*
X92559D01*
X92123Y37156D01*
X91753Y36909D01*
X91208Y36994D01*
X90892Y37310D01*
X90726Y37421D01*
X90272Y37875D01*
Y40597D01*
X91364D01*
X95321Y36640D01*
D02*
G37*
G36*
X150787Y55118D02*
X150787Y7480D01*
X147638Y4330D01*
X147638Y-10630D01*
X136569D01*
Y-10236D01*
X136452Y-9651D01*
X136121Y-9155D01*
X134881Y-7915D01*
X134385Y-7583D01*
X133799Y-7467D01*
X133224D01*
Y-6638D01*
X121894D01*
Y-10630D01*
X111860D01*
X111538Y-10130D01*
X111690Y-9761D01*
X111783Y-9055D01*
X111690Y-8349D01*
X111418Y-7691D01*
X110984Y-7126D01*
X110419Y-6692D01*
X109761Y-6420D01*
X109055Y-6327D01*
X108349Y-6420D01*
X107823Y-6638D01*
X96697D01*
Y-10630D01*
X86026D01*
X85805Y-10182D01*
X85827Y-10153D01*
X86100Y-9495D01*
X86193Y-8789D01*
X86100Y-8083D01*
X85827Y-7425D01*
X85394Y-6860D01*
X84829Y-6426D01*
X84171Y-6154D01*
X83465Y-6061D01*
X82758Y-6154D01*
X82100Y-6426D01*
X81824Y-6638D01*
X71500D01*
Y-10630D01*
X57480D01*
X57480Y-787D01*
X62598Y4331D01*
X127165Y4330D01*
X130360Y7526D01*
X133071D01*
X133656Y7642D01*
X134152Y7974D01*
X135333Y9155D01*
X135665Y9651D01*
X135781Y10236D01*
Y12947D01*
X138189Y15354D01*
X138189Y29414D01*
X139091D01*
Y34760D01*
X138189D01*
Y36614D01*
X133071Y41732D01*
X133071Y55118D01*
X150787Y55118D01*
D02*
G37*
G36*
X79177Y-11236D02*
X82306D01*
X82758Y-11424D01*
X83465Y-11517D01*
X83600Y-11499D01*
X83976Y-11828D01*
X83976Y-26969D01*
D01*
Y-29213D01*
D01*
Y-29921D01*
X81831D01*
Y-29921D01*
X72500D01*
Y-29921D01*
X70354D01*
X70354Y-11649D01*
X71500D01*
X71890Y-11572D01*
X72221Y-11351D01*
X72442Y-11020D01*
X72519Y-10630D01*
Y-7658D01*
X79177D01*
Y-11236D01*
D02*
G37*
G36*
X129571Y-11236D02*
X133224D01*
X133510Y-11618D01*
Y-19812D01*
X133110Y-20118D01*
X132677Y-20683D01*
X132404Y-21341D01*
X132311Y-22047D01*
X132404Y-22753D01*
X132677Y-23411D01*
X133110Y-23976D01*
X133675Y-24410D01*
X134333Y-24682D01*
X134370Y-24687D01*
Y-26969D01*
X134370D01*
Y-29213D01*
X134370D01*
Y-29921D01*
X120748Y-29921D01*
Y-29213D01*
Y-26969D01*
Y-11649D01*
X121894D01*
X122284Y-11572D01*
X122615Y-11351D01*
X122836Y-11020D01*
X122913Y-10630D01*
Y-7657D01*
X129571D01*
Y-11236D01*
D02*
G37*
G36*
X104374Y-11236D02*
X107455D01*
X107691Y-11418D01*
X108349Y-11690D01*
X109055Y-11783D01*
X109173Y-11887D01*
X109173Y-26969D01*
X109173D01*
Y-29213D01*
X109173D01*
Y-29921D01*
X102362Y-29921D01*
X97697D01*
Y-29921D01*
X95551D01*
X95551Y-11649D01*
X96697D01*
X97087Y-11572D01*
X97418Y-11351D01*
X97639Y-11020D01*
X97716Y-10630D01*
Y-7658D01*
X104374D01*
Y-11236D01*
D02*
G37*
G36*
X129571Y-32283D02*
Y-36039D01*
X129921D01*
X129921Y-40945D01*
X122835Y-40945D01*
X122835Y-32283D01*
X129571Y-32283D01*
D02*
G37*
G36*
X104374D02*
Y-36040D01*
X104724D01*
X104724Y-40945D01*
X97638Y-40945D01*
X97638Y-32283D01*
X104374Y-32283D01*
D02*
G37*
G36*
X79177Y-32283D02*
Y-36039D01*
X79527D01*
X79528Y-40945D01*
X72441Y-40945D01*
X72441Y-32283D01*
X79177Y-32283D01*
D02*
G37*
D10*
X-33150Y46475D02*
G03*
X-46475Y33150I33150J-46475D01*
G01*
X-25868Y38351D02*
G03*
X-38351Y25868I25868J-38351D01*
G01*
X-46475Y33150D02*
X-38351Y25868D01*
X-33150Y46475D02*
X-25868Y38351D01*
D12*
X106931Y-50356D02*
Y-49093D01*
D13*
X36417Y123819D02*
G03*
X34401Y122984I0J-2851D01*
G01*
X119877Y0D02*
X125197D01*
X119291Y586D02*
X119877Y0D01*
X119291Y586D02*
Y19587D01*
X106201Y-8937D02*
X106260Y-8996D01*
X108996D02*
X109055Y-9055D01*
X106260Y-8996D02*
X108996D01*
X64862Y48819D02*
Y55512D01*
X64567Y48819D02*
X64862D01*
X87008Y109843D02*
X87008D01*
X87205Y108563D02*
X89468Y110827D01*
X87008Y108563D02*
X87205D01*
X82087Y112795D02*
X92579D01*
X80905Y111614D02*
X82087Y112795D01*
X87008Y108563D02*
Y109843D01*
X70024Y110784D02*
X71850Y108957D01*
X72047D01*
Y110630D01*
X59744Y108957D02*
Y109055D01*
Y108957D02*
X59842D01*
X135039Y-22047D02*
Y-10236D01*
X133799Y-8996D02*
X135039Y-10236D01*
X118398Y20480D02*
X119291Y19587D01*
X124409Y12697D02*
X124606D01*
X118398Y20480D02*
Y20480D01*
X117126Y21752D02*
X118398Y20480D01*
X116929Y21752D02*
X117126D01*
X116929D02*
Y21752D01*
X122441Y22736D02*
Y23878D01*
X121457Y21752D02*
X122441Y22736D01*
X116929Y21752D02*
X121457D01*
X95866Y50000D02*
X99664Y46202D01*
Y45612D02*
Y46202D01*
Y45612D02*
X100000Y45276D01*
X130315Y35039D02*
X133268D01*
X134850Y33457D01*
Y33260D02*
Y33457D01*
Y33260D02*
X136024Y32087D01*
X136221D01*
X120079Y69291D02*
Y90569D01*
X123622Y67716D02*
Y115094D01*
X118898Y62992D02*
X123622Y67716D01*
X101181Y62992D02*
X118898D01*
X126378Y66929D02*
Y115354D01*
X95357Y60630D02*
X120079D01*
X126378Y66929D01*
X130512Y17913D02*
X130709D01*
X140712Y-3543D02*
X142126D01*
X136221Y2362D02*
Y26969D01*
X130996Y23335D02*
X134252Y20079D01*
X130342Y23335D02*
X130996D01*
X138653Y-1484D02*
X140712Y-3543D01*
X134252Y10236D02*
Y20079D01*
X136221Y2362D02*
X138653Y-70D01*
X130315Y23362D02*
Y24016D01*
X138653Y-1484D02*
Y-70D01*
X130315Y23362D02*
X130342Y23335D01*
X133071Y9055D02*
X134252Y10236D01*
X100984Y17913D02*
X101181D01*
X57972Y21654D02*
X59055Y20571D01*
X77165Y-394D02*
Y0D01*
X71941Y23335D02*
X75197Y20079D01*
X73622Y9055D02*
X75197Y10630D01*
X59055Y13780D02*
X60236Y12598D01*
X71287Y23335D02*
X71941D01*
X75197Y10630D02*
Y20079D01*
X77165Y0D02*
Y26969D01*
X60236Y1969D02*
Y12598D01*
X59055Y13780D02*
Y20571D01*
X76772Y-787D02*
X77165Y-394D01*
X62205Y0D02*
X77165D01*
X71260Y23362D02*
Y24016D01*
X77165Y0D02*
X77165D01*
X60236Y1969D02*
X62205Y0D01*
X71260Y23362D02*
X71287Y23335D01*
X87402Y38386D02*
Y38386D01*
X67323Y29528D02*
X67323D01*
X92913Y22736D02*
Y23878D01*
X91929Y21752D02*
X92913Y22736D01*
X87402Y21752D02*
X91929D01*
X87402Y14768D02*
Y21752D01*
Y14768D02*
X89764Y12406D01*
Y-394D02*
Y12406D01*
Y-394D02*
X100394D01*
X63386Y22835D02*
Y24016D01*
X62205Y21654D02*
X63386Y22835D01*
X57972Y21654D02*
X62205D01*
X57874Y38386D02*
X58071D01*
X59244Y37212D01*
Y37153D02*
Y37212D01*
Y37153D02*
X61358Y35039D01*
X63358D01*
X69291D02*
Y46457D01*
X70669Y47835D02*
Y61279D01*
X69291Y46457D02*
X70669Y47835D01*
X67323Y35039D02*
Y47514D01*
X128347Y35039D02*
Y38189D01*
X109449Y57087D02*
X128347Y38189D01*
X126378Y35039D02*
Y37273D01*
X108927Y54724D02*
X126378Y37273D01*
X98819Y35039D02*
Y38583D01*
X93307Y44094D02*
X98819Y38583D01*
X96850Y35039D02*
Y37273D01*
X91998Y42126D02*
X96850Y37273D01*
X106693Y-788D02*
Y26969D01*
X106299Y-1181D02*
X106693Y-788D01*
X68996Y9055D02*
X73622D01*
X100787Y35039D02*
X103740D01*
X105323Y33457D01*
Y33260D02*
Y33457D01*
Y33260D02*
X106496Y32087D01*
X106693D01*
X71260Y35039D02*
X74212D01*
X75795Y33457D01*
Y33260D02*
Y33457D01*
Y33260D02*
X76968Y32087D01*
X77165D01*
X98523Y9055D02*
X103150D01*
X104724Y10630D02*
Y20079D01*
X103150Y9055D02*
X104724Y10630D01*
X96350Y11228D02*
X98523Y9055D01*
X124606Y12697D02*
X125878Y11425D01*
Y11228D02*
Y11425D01*
Y11228D02*
X128051Y9055D01*
X133071D01*
X65354Y12697D02*
X65551D01*
X66823Y11425D01*
Y11228D02*
Y11425D01*
Y11228D02*
X68996Y9055D01*
X94882Y12697D02*
X95079D01*
X96350Y11425D01*
Y11228D02*
Y11425D01*
X100787Y23362D02*
Y24016D01*
Y23362D02*
X100815Y23335D01*
X101469D01*
X104724Y20079D01*
X128347Y20276D02*
Y24016D01*
X129339Y19086D02*
X130512Y17913D01*
X129339Y19086D02*
Y19283D01*
X128347Y20276D02*
X129339Y19283D01*
X126378Y19980D02*
Y24016D01*
X125878Y19480D02*
X126378Y19980D01*
X125878Y19283D02*
Y19480D01*
X124606Y18012D02*
X125878Y19283D01*
X124409Y18012D02*
X124606D01*
X99811Y19087D02*
X100984Y17913D01*
X98819Y20276D02*
Y24016D01*
X99811Y19087D02*
Y19284D01*
X98819Y20276D02*
X99811Y19284D01*
X95263Y18282D02*
X96850Y19869D01*
X95152Y18282D02*
X95263D01*
X94882Y18012D02*
X95152Y18282D01*
X96850Y19869D02*
Y24016D01*
X69291Y20276D02*
Y24016D01*
Y20276D02*
X70283Y19283D01*
Y19086D02*
Y19283D01*
Y19086D02*
X71457Y17913D01*
X71653D01*
X67323Y19980D02*
Y24016D01*
X66823Y19480D02*
X67323Y19980D01*
X66823Y19284D02*
Y19480D01*
X65551Y18012D02*
X66823Y19284D01*
X65354Y18012D02*
X65551D01*
X81004Y-8937D02*
X81078Y-8863D01*
X83390D02*
X83465Y-8789D01*
X81078Y-8863D02*
X83390D01*
X-12165Y130709D02*
X-2953D01*
X591Y126969D02*
X787D01*
X-583Y128142D02*
X591Y126969D01*
X-2953Y130709D02*
X-583Y128339D01*
Y128142D02*
Y128339D01*
X-18465Y124409D02*
X-12165Y130709D01*
X-5906Y121850D02*
X787D01*
X-8465Y124409D02*
X-5906Y121850D01*
X-48465Y124409D02*
X-33898Y138976D01*
X-1575D02*
X9055Y128347D01*
X-33898Y138976D02*
X-1575D01*
X-38465Y124409D02*
X-25866Y137008D01*
X-3937D02*
X9122Y123949D01*
X-25866Y137008D02*
X-3937D01*
X9122Y123949D02*
X9122D01*
X9055Y128347D02*
X9055D01*
X90551Y59842D02*
X93307Y57087D01*
X90551Y59842D02*
X90551D01*
X93307Y57087D02*
X109449D01*
X79272Y67913D02*
X82480D01*
X90551Y59842D01*
X79283Y65933D02*
X81614D01*
X92823Y54724D01*
X94570Y61417D02*
X95357Y60630D01*
X94095Y61417D02*
X94570D01*
X85433Y73541D02*
Y74016D01*
Y73541D02*
X85925Y73049D01*
Y69685D02*
Y73049D01*
X79272Y65945D02*
X79283Y65933D01*
X92823Y54724D02*
X108927D01*
X94853Y69714D02*
Y71289D01*
X95941Y68626D02*
X99878D01*
X94853Y69714D02*
X95941Y68626D01*
X91531Y74610D02*
X94853Y71289D01*
X91531Y74610D02*
Y78342D01*
X95409Y74803D02*
X105512D01*
X95145Y75067D02*
X95409Y74803D01*
X94488Y65354D02*
X98819D01*
X101181Y62992D01*
X55443Y51575D02*
X55563D01*
X52756Y54262D02*
X55443Y51575D01*
X52756Y54262D02*
Y56646D01*
X54909Y58800D01*
Y61268D01*
X111024Y115748D02*
X114567D01*
X111024Y115748D02*
X111024Y115748D01*
X111023Y111811D02*
X114960D01*
X108465Y112795D02*
X109449Y111811D01*
X111023D01*
X111024Y115748D02*
X111024Y115748D01*
X109449Y115748D02*
X111024D01*
X108465Y114764D02*
X109449Y115748D01*
X117456Y121260D02*
X123622Y115094D01*
X118110Y123622D02*
X126378Y115354D01*
X94095Y121260D02*
X117456D01*
X93307Y123622D02*
X118110D01*
X88997Y119312D02*
X93307Y123622D01*
X92579Y119744D02*
X94095Y121260D01*
X42526Y51581D02*
X49016Y58071D01*
X42500Y51581D02*
X42526D01*
X46063Y50394D02*
X50984Y55315D01*
Y61279D01*
X49016Y58071D02*
Y61279D01*
X47047Y60128D02*
Y61279D01*
X47035Y60116D02*
X47047Y60128D01*
X45884Y60116D02*
X47035D01*
X44903Y59135D02*
X45884Y60116D01*
X42994Y59135D02*
X44903D01*
X42913Y59055D02*
X42994Y59135D01*
X55454Y55634D02*
X55634Y55454D01*
X55454Y55634D02*
Y56967D01*
X56890Y58402D02*
Y61279D01*
X55454Y56967D02*
X56890Y58402D01*
X39173Y110630D02*
Y116043D01*
Y106890D02*
Y110630D01*
X41732D01*
X46143Y111042D02*
X49972Y107213D01*
X42315Y114870D02*
X46143Y111042D01*
X64396Y129295D02*
X76539D01*
X46143Y111042D02*
X64396Y129295D01*
X76539D02*
X95669Y148425D01*
X111417Y148130D02*
Y148425D01*
X72047Y108957D02*
X72244D01*
X38976Y131791D02*
X39173Y131595D01*
X43602Y137598D02*
X44874Y136327D01*
X64Y56953D02*
Y63190D01*
X-795Y56094D02*
X64Y56953D01*
X-992Y56094D02*
X-795D01*
X-2165Y54921D02*
X-992Y56094D01*
X-2165Y54724D02*
Y54921D01*
X38484Y83366D02*
X38780Y83661D01*
X15748Y110236D02*
X21654Y104331D01*
X15748Y126772D02*
X20571Y131595D01*
X15748Y110236D02*
Y126772D01*
X-20866Y115354D02*
X4724D01*
X22244Y94488D02*
Y97835D01*
X4724Y115354D02*
X22244Y97835D01*
X12992Y110236D02*
Y130709D01*
X21260Y101969D02*
X46457D01*
X12992Y110236D02*
X21260Y101969D01*
X21654Y104331D02*
X46850D01*
X46457Y101969D02*
X49004Y99421D01*
X46850Y104331D02*
X50972Y100209D01*
Y96213D02*
Y100209D01*
X49004Y96213D02*
Y99421D01*
X52941Y96213D02*
Y100996D01*
X39370Y106693D02*
X47244D01*
X52941Y100996D01*
X53929Y110441D02*
X55021D01*
X56407Y109055D01*
X59744D01*
X52953Y106496D02*
X54921Y104527D01*
X52756Y111614D02*
X53929Y110441D01*
X41142Y115059D02*
Y116043D01*
Y115059D02*
X41331Y114870D01*
X42315D01*
X49972Y107213D02*
X52039D01*
X52756Y106496D01*
X54921Y96201D02*
Y104527D01*
X-54331Y-5217D02*
Y-1181D01*
Y-5217D02*
X-52945Y-6602D01*
Y-12016D02*
Y-6602D01*
Y-12016D02*
X-51772Y-13189D01*
X41275Y67913D02*
X44350D01*
X39109Y65748D02*
X41275Y67913D01*
X38976Y65748D02*
X39109D01*
X41275Y71850D02*
X44350D01*
X39109Y69685D02*
X41275Y71850D01*
X38976Y69685D02*
X39109D01*
X44339Y73807D02*
X44350Y73819D01*
X39161Y73807D02*
X44339D01*
X38976Y73622D02*
X39161Y73807D01*
X3150Y113386D02*
X18504Y98032D01*
Y91929D02*
Y98032D01*
Y91929D02*
X20874Y89559D01*
X22244Y88189D02*
Y88386D01*
X21071Y89559D02*
X22244Y88386D01*
X20874Y89559D02*
X21071D01*
X-26772Y101575D02*
X-14961Y113386D01*
X3150D01*
X-34646Y101575D02*
X-20866Y115354D01*
X23228Y126673D02*
X23425D01*
X22134Y125579D02*
X23228Y126673D01*
X23425D02*
X25303Y128551D01*
X-55905Y-38976D02*
X-52587Y-35658D01*
X-67126Y-38976D02*
X-55905D01*
X-52587Y-35658D02*
X-51926D01*
X-67126Y-49724D02*
Y-38976D01*
Y-27559D01*
Y-49724D02*
X-27559D01*
X-53343Y-31536D02*
X-50854Y-29047D01*
X-47182D02*
X-46949Y-29280D01*
X-50854Y-29047D02*
X-47182D01*
X-54756Y-31536D02*
X-53343D01*
X-57874Y-28418D02*
X-55727Y-30565D01*
X-57874Y-19980D02*
X-57677D01*
X-57874Y-28418D02*
Y-19980D01*
X-47177Y-37251D02*
X-44390Y-34464D01*
X-47177Y-37861D02*
Y-37251D01*
X-49095Y-39779D02*
X-47177Y-37861D01*
X-55727Y-30565D02*
Y-30565D01*
X48917Y-25343D02*
X49352Y-25777D01*
X48917Y-25343D02*
X52541Y-21719D01*
X48917Y-25343D02*
X48917D01*
X52541Y-21719D02*
X58093D01*
X59000Y-22626D01*
X49311Y-31651D02*
X54692D01*
X46358Y-29775D02*
X47436D01*
X49311Y-31651D01*
Y-37795D02*
Y-31651D01*
X-59149Y-18706D02*
X-57874Y-19980D01*
X-44390Y-34464D02*
Y-32404D01*
X-43493Y-31507D01*
Y-26192D01*
X-51378Y-18307D02*
X-43493Y-26192D01*
X-51575Y-18307D02*
X-51378D01*
X-24803Y62894D02*
X-18406D01*
X-17717Y62205D01*
X-37402Y62402D02*
X-30906D01*
X-29717Y63591D01*
Y68315D01*
X-28543Y69488D02*
X-28346D01*
X-29717Y68315D02*
X-28543Y69488D01*
X-50197Y57150D02*
Y62657D01*
Y57150D02*
X-47649Y54602D01*
X-44945D01*
X-42263Y57284D01*
X-37402D01*
X-9906Y62409D02*
X-9127Y61630D01*
Y56765D02*
Y61630D01*
Y56765D02*
X-7283Y54921D01*
Y54724D02*
Y54921D01*
X86811Y108563D02*
X87008D01*
X80709Y106496D02*
X81504Y107291D01*
X80159Y105947D02*
X80709Y106496D01*
X82989Y97244D02*
X83465D01*
X81292Y95547D02*
X82989Y97244D01*
X76587Y95547D02*
X81292D01*
X76575Y95559D02*
X76587Y95547D01*
X76575Y95559D02*
Y96201D01*
X102878Y65626D02*
X107752D01*
X99878Y68626D02*
X102878Y65626D01*
X105512Y68504D02*
Y74803D01*
Y80118D01*
X91531Y78342D02*
X92126Y78937D01*
X79272Y93504D02*
X84549D01*
X85458Y94413D01*
X85933D01*
X79446Y98425D02*
X79565D01*
X78977Y98894D02*
X79446Y98425D01*
X75649Y98894D02*
X78977D01*
X64173Y99919D02*
Y100394D01*
X64487Y107905D02*
X68701Y103692D01*
Y96201D02*
Y103692D01*
X70669Y102370D02*
X71941Y103642D01*
X70669Y96201D02*
Y102370D01*
X72638Y99997D02*
X73224Y100583D01*
X72638Y96201D02*
Y99997D01*
X-32677Y149213D02*
X-5512D01*
X12992Y130709D01*
X49004Y96213D02*
X49016Y96201D01*
X-51181Y149213D02*
X-32677D01*
X-51272D02*
X-51181D01*
X96457Y113779D02*
X96457D01*
X32874Y93504D02*
X44327D01*
X27559Y88583D02*
X28535Y89559D01*
X27559Y88386D02*
Y88583D01*
X28929Y89559D02*
X32874Y93504D01*
X28535Y89559D02*
X28929D01*
X47047Y95737D02*
Y96201D01*
X27362Y94488D02*
Y94552D01*
X28535Y95726D01*
X47035D01*
X47047Y95737D01*
X82677Y50591D02*
X89370D01*
X89961Y50000D01*
X82480Y55709D02*
X82677D01*
X78102Y60087D02*
X82480Y55709D01*
X76587Y60087D02*
X78102D01*
X76575Y60098D02*
X76587Y60087D01*
X76575Y60098D02*
Y61279D01*
X54909Y61268D02*
X54921Y61279D01*
X88997Y116121D02*
Y119312D01*
X90303Y114815D02*
X92528D01*
X88997Y116121D02*
X90303Y114815D01*
X92528D02*
X92579Y114764D01*
Y116732D02*
Y119744D01*
X105530Y105118D02*
X120079Y90569D01*
X101083Y105118D02*
X105530D01*
X100335Y112795D02*
X108465D01*
X100335Y114764D02*
X108465D01*
X47835Y91535D02*
X48819Y92520D01*
X73228Y92913D02*
X74410D01*
X47835Y91536D02*
X47835Y91535D01*
X76176Y81693D02*
X79272D01*
X58846Y94040D02*
Y96189D01*
X44350Y89567D02*
X47835D01*
X74606Y96201D02*
Y97382D01*
X46665Y83673D02*
X48031Y85039D01*
X67051Y99202D02*
Y101586D01*
X60827Y78740D02*
X61811D01*
X75591Y82279D02*
X76176Y81693D01*
X85097Y74352D02*
X85433Y74016D01*
X57327Y92520D02*
X58846Y94040D01*
X64173Y104150D02*
X64487D01*
X44350Y91536D02*
X47835D01*
X47835Y89567D02*
X48031Y89764D01*
X74606Y97382D02*
X75063Y97839D01*
X44350Y83661D02*
X44362Y83673D01*
X64173Y107905D02*
X64487D01*
X75063Y97839D02*
Y98308D01*
X72638Y93504D02*
Y96201D01*
X60827Y78740D02*
Y102657D01*
X79272Y75787D02*
X82465D01*
X64487Y104150D02*
X67051Y101586D01*
X74410Y92913D02*
X75591Y91732D01*
X48819Y92520D02*
X57327D01*
X70669Y87599D02*
Y96201D01*
X61811Y78740D02*
X70669Y87599D01*
X64173Y99919D02*
X64764Y99328D01*
X48031Y89764D02*
Y91339D01*
X72638Y93504D02*
X73228Y92913D01*
X75591Y82279D02*
Y91732D01*
X47835Y91535D02*
X48031Y91339D01*
X58846Y96189D02*
X58858Y96201D01*
X64764D02*
Y99328D01*
X48031Y85039D02*
Y89764D01*
X82465Y75787D02*
X83900Y74352D01*
X66732Y96201D02*
Y98883D01*
X44362Y83673D02*
X46665D01*
X75063Y98308D02*
X75649Y98894D01*
X83900Y74352D02*
X85097D01*
X66732Y98883D02*
X67051Y99202D01*
X71941Y103642D02*
X72047D01*
X73224Y100583D02*
X74549D01*
X75303Y101337D01*
Y105947D01*
X79272Y87599D02*
X88386D01*
X74618Y51366D02*
Y61268D01*
X81890Y44094D02*
X93307D01*
X74618Y51366D02*
X81890Y44094D01*
X38878Y77756D02*
X44350D01*
X38583Y78051D02*
X38878Y77756D01*
X79272Y91536D02*
X98032D01*
X98819Y92323D01*
X106496D01*
X56587Y101337D02*
X58858Y99065D01*
Y96201D02*
Y99065D01*
X56587Y101337D02*
Y108876D01*
X95472Y89567D02*
X98622Y86417D01*
X98819D01*
X38780Y83661D02*
X44350D01*
X64862Y55512D02*
Y55709D01*
X50972Y96213D02*
X50984Y96201D01*
X20571Y131595D02*
X31299D01*
X68701Y48892D02*
Y61279D01*
X67323Y47514D02*
X68701Y48892D01*
X83169Y81693D02*
X85236Y83760D01*
X79280Y79717D02*
X84161D01*
X85433Y78445D01*
X88386Y87599D02*
X91929Y84055D01*
X74606Y61279D02*
X74618Y61268D01*
X52941Y96213D02*
X52953Y96201D01*
X44350Y77756D02*
X44350Y77756D01*
X79272Y81693D02*
X83169D01*
X72638Y61279D02*
X72650Y61268D01*
Y50185D02*
Y61268D01*
Y50185D02*
X80709Y42126D01*
X91998D01*
X79272Y89567D02*
X95472D01*
X79272Y79724D02*
X79280Y79717D01*
X62795Y57776D02*
X64862Y55709D01*
X62795Y57776D02*
Y61279D01*
X44327Y93504D02*
X44339Y93492D01*
X44350Y93504D01*
X59547Y55512D02*
X60819Y56783D01*
Y61272D01*
X60827Y61279D01*
X59842Y103642D02*
X60827Y102657D01*
X85236Y83760D02*
X85433D01*
X91929Y84055D02*
X92126D01*
X98819Y86417D02*
X105118D01*
X80709Y111614D02*
X80905D01*
X75303Y105947D02*
X80159D01*
X81504Y107291D02*
X85539D01*
X86811Y108563D01*
X100335Y105866D02*
X101083Y105118D01*
X43602Y137598D02*
Y137795D01*
X18504Y118504D02*
Y123622D01*
X20461Y125579D02*
X22134D01*
X18504Y123622D02*
X20461Y125579D01*
X21457Y115354D02*
X21654D01*
X20283Y116528D02*
X21457Y115354D01*
X20283Y116528D02*
Y116724D01*
X18504Y118504D02*
X20283Y116724D01*
X39173Y106890D02*
X39370Y106693D01*
X21654Y110236D02*
X21850D01*
X25394Y106693D01*
X39370D01*
X59744Y109055D02*
X59842Y108957D01*
X31890Y142421D02*
X33161Y141150D01*
X35130D01*
X37205Y139075D01*
Y136713D02*
Y139075D01*
X31890Y137106D02*
X33161Y135835D01*
X34146D01*
X35236Y134744D01*
Y131595D02*
Y134744D01*
X36417Y123819D02*
X41150Y119087D01*
X36220Y123819D02*
X37205Y124803D01*
X30315Y118898D02*
X34401Y122984D01*
X37205Y131595D02*
Y136713D01*
Y124803D02*
Y131595D01*
X40831Y134827D02*
X43602Y137598D01*
X39759Y134827D02*
X40831D01*
X39173Y134241D02*
X39759Y134827D01*
X39173Y131595D02*
Y134241D01*
X37205Y136713D02*
X38287Y137795D01*
X36220Y123819D02*
X36417D01*
X33268D02*
Y131595D01*
X28346Y118898D02*
X28535Y119087D01*
X28429D02*
X28535D01*
X28346Y118898D02*
X30315D01*
X28240D02*
X28429Y119087D01*
X33268Y123819D02*
X36220D01*
X28051Y118709D02*
X28240Y118898D01*
X25689D02*
X28240D01*
X24697Y119890D02*
X25689Y118898D01*
X24697Y119890D02*
Y120087D01*
X23425Y121358D02*
X24697Y120087D01*
X23228Y121358D02*
X23425D01*
X28051Y111024D02*
Y118709D01*
X33268Y111122D02*
Y116043D01*
Y111122D02*
X33366Y111024D01*
X25303Y128551D02*
X28157D01*
X28346Y128740D01*
X43905Y119087D02*
X44094Y118898D01*
X41150Y119087D02*
X43905D01*
X107752Y65626D02*
X109449Y67323D01*
X106496Y92323D02*
X109449Y89370D01*
Y67323D02*
Y89370D01*
X104724Y80905D02*
X105512Y80118D01*
X104724Y80905D02*
X105118Y81299D01*
X126378Y-38976D02*
X126378D01*
X101181D02*
X101181D01*
X126378Y29528D02*
X126378D01*
X96850D02*
X96850D01*
X66142Y110784D02*
X66142Y110784D01*
X70024D01*
X60039Y108957D02*
X61866Y110784D01*
X66142D01*
X72047Y108957D02*
X73319Y107685D01*
X73565D01*
X75303Y105947D01*
X38484Y83366D02*
X38583D01*
X-60228Y-12311D02*
X-59342Y-13197D01*
X-60720Y-11819D02*
X-60228Y-12311D01*
Y-7177D01*
X-51772Y-13189D02*
X-51575D01*
X-60228Y-7177D02*
X-58957Y-5906D01*
X83300Y-33725D02*
X83315Y-33709D01*
X81020Y-33725D02*
X83300D01*
X81004Y-33740D02*
X81020Y-33725D01*
X134163Y-33770D02*
X134193Y-33799D01*
X131427Y-33770D02*
X134163D01*
X131398Y-33740D02*
X131427Y-33770D01*
X106431Y-33510D02*
X108616D01*
X106201Y-33740D02*
X106431Y-33510D01*
X131457Y-8996D02*
X133799D01*
X131398Y-8937D02*
X131457Y-8996D01*
X98524Y-22835D02*
X101083D01*
X-59342Y-13394D02*
Y-13197D01*
X-67118Y-11819D02*
X-60720D01*
X-58071Y-14665D02*
X-57874D01*
X-59342Y-13394D02*
X-58071Y-14665D01*
X-67126Y-11811D02*
X-67118Y-11819D01*
X-40598Y64815D02*
X-36024Y69390D01*
X-28248D02*
X-21654D01*
X-39985Y83785D02*
X-39665Y83465D01*
X-40625Y83785D02*
X-39985D01*
X-41528Y82882D02*
X-40625Y83785D01*
X-46457Y57480D02*
Y62657D01*
X-42717D02*
Y64134D01*
X-42035Y64815D01*
X-40598D01*
X-36024Y69390D02*
X-35827D01*
X-28346Y69488D02*
X-28248Y69390D01*
X-36024Y74705D02*
X-35827D01*
X-37803Y76484D02*
X-36024Y74705D01*
X-37803Y76484D02*
Y80520D01*
X-40124Y82841D02*
X-37803Y80520D01*
X-40432Y83149D02*
X-40117Y83465D01*
X-40740Y82841D02*
X-40124D01*
X-40117Y83465D02*
X-39665D01*
X197Y72441D02*
X6496D01*
X89468Y110827D02*
X92579D01*
X-51665Y149606D02*
X-51272Y149213D01*
X122441Y34114D02*
Y35177D01*
X122390Y34063D02*
X122441Y34114D01*
X120390Y35177D02*
X122441D01*
X119339Y36228D02*
X120390Y35177D01*
X116929Y38386D02*
X117126D01*
X116732D02*
X116929D01*
X119283Y36228D02*
X119339D01*
X117126Y38386D02*
X119283Y36228D01*
X92913Y34114D02*
Y35177D01*
X92862Y34063D02*
X92913Y34114D01*
X90862Y35177D02*
X92913D01*
X89811Y36228D02*
X90862Y35177D01*
X87402Y38386D02*
X87599D01*
X87205D02*
X87402D01*
X89756Y36228D02*
X89811D01*
X87599Y38386D02*
X89756Y36228D01*
X100335Y114764D02*
X100335Y114764D01*
X100335Y105866D02*
Y110827D01*
X106299Y-49724D02*
X106931Y-50356D01*
X-25710Y44255D02*
G03*
X-41392Y30103I25710J-44255D01*
G01*
X177165Y123273D02*
G03*
X123273Y177165I-74803J-20911D01*
G01*
X-79528D02*
X-79527Y-66299D01*
X177165D01*
X177165Y123273D02*
X177165Y-66299D01*
X-79528Y177165D02*
X123273D01*
D21*
X113386Y19291D02*
Y29921D01*
X115769Y16929D02*
X116142D01*
X115080Y17618D02*
X115769Y16929D01*
X115059Y17618D02*
X115080D01*
X113386Y19291D02*
X115059Y17618D01*
X113386Y29921D02*
X116732Y33268D01*
X53130Y13012D02*
Y29114D01*
X56299Y32283D02*
X56890D01*
X57874Y33268D01*
X53130Y29114D02*
X56299Y32283D01*
X53130Y13012D02*
X57087Y9055D01*
X116732Y33268D02*
X116929D01*
X83858Y11811D02*
X86614Y9055D01*
X83858Y29921D02*
X87205Y33268D01*
X83858Y11811D02*
Y29921D01*
X87205Y33268D02*
X87402D01*
D60*
X52756Y111614D02*
D03*
X77165Y26969D02*
D03*
Y32087D02*
D03*
X136221Y26969D02*
D03*
Y32087D02*
D03*
X106693Y32087D02*
D03*
Y26969D02*
D03*
X787Y121850D02*
D03*
Y126969D02*
D03*
X52756Y106496D02*
D03*
X82677Y50591D02*
D03*
Y55709D02*
D03*
X98819Y97441D02*
D03*
Y92323D02*
D03*
Y86417D02*
D03*
Y81299D02*
D03*
X105118D02*
D03*
Y86417D02*
D03*
X92126Y78937D02*
D03*
Y84055D02*
D03*
X-51575Y-13189D02*
D03*
Y-18307D02*
D03*
X21654Y115354D02*
D03*
Y110236D02*
D03*
X-28346Y74606D02*
D03*
Y69488D02*
D03*
X-31102Y62402D02*
D03*
Y57284D02*
D03*
X-37402Y62402D02*
D03*
Y57284D02*
D03*
X57874Y33268D02*
D03*
Y38386D02*
D03*
X71653Y12795D02*
D03*
Y17913D02*
D03*
X130709Y12795D02*
D03*
Y17913D02*
D03*
X116929Y33268D02*
D03*
Y38386D02*
D03*
X87402Y33268D02*
D03*
Y38386D02*
D03*
X101181Y12795D02*
D03*
Y17913D02*
D03*
X80709Y106496D02*
D03*
Y111614D02*
D03*
D61*
X59842Y108957D02*
D03*
X87008Y108563D02*
D03*
X57874Y27067D02*
D03*
Y21752D02*
D03*
X87402Y27067D02*
D03*
Y21752D02*
D03*
X116929Y27067D02*
D03*
Y21752D02*
D03*
X59842Y103642D02*
D03*
X72047D02*
D03*
Y108957D02*
D03*
X94095Y-38976D02*
D03*
X101181D02*
D03*
X23228Y121358D02*
D03*
Y126673D02*
D03*
X31890Y137106D02*
D03*
Y142421D02*
D03*
X-21654Y69390D02*
D03*
Y74705D02*
D03*
X-35827D02*
D03*
Y69390D02*
D03*
X6299Y60728D02*
D03*
Y66043D02*
D03*
X-57874Y-14665D02*
D03*
Y-19980D02*
D03*
X65354Y12697D02*
D03*
Y18012D02*
D03*
X124409Y12697D02*
D03*
Y18012D02*
D03*
X94882Y12697D02*
D03*
Y18012D02*
D03*
X87008Y103248D02*
D03*
X38583Y78051D02*
D03*
Y83366D02*
D03*
X68898Y-38976D02*
D03*
X75984D02*
D03*
X119291D02*
D03*
X126378D02*
D03*
X85433Y83760D02*
D03*
Y78445D02*
D03*
X-24803Y57579D02*
D03*
Y62894D02*
D03*
D62*
X96457Y113779D02*
D03*
D63*
X81004Y1969D02*
D03*
X78445D02*
D03*
X75886D02*
D03*
X73327D02*
D03*
X123721Y-22835D02*
D03*
X126279D02*
D03*
X128839D02*
D03*
X131398D02*
D03*
X131398Y1969D02*
D03*
X128839D02*
D03*
X126279D02*
D03*
X123720D02*
D03*
X106201Y1969D02*
D03*
X103642D02*
D03*
X101083D02*
D03*
X98524D02*
D03*
X81004Y-22835D02*
D03*
X78445D02*
D03*
X75886D02*
D03*
X73327D02*
D03*
X98524Y-22835D02*
D03*
X101083D02*
D03*
X103642D02*
D03*
X106201D02*
D03*
D64*
X78445Y-8937D02*
D03*
X75886D02*
D03*
X81004D02*
D03*
X73327D02*
D03*
X123721Y-33740D02*
D03*
X131398D02*
D03*
X126279D02*
D03*
X128839D02*
D03*
X128839Y-8937D02*
D03*
X126279D02*
D03*
X131398D02*
D03*
X123720D02*
D03*
X103642Y-8937D02*
D03*
X101083D02*
D03*
X106201D02*
D03*
X98524D02*
D03*
X78445Y-33740D02*
D03*
X75886D02*
D03*
X81004D02*
D03*
X73327D02*
D03*
X98524Y-33740D02*
D03*
X106201D02*
D03*
X101083D02*
D03*
X103642D02*
D03*
D65*
X122441Y24016D02*
D03*
X124409D02*
D03*
X126378D02*
D03*
X128347D02*
D03*
X130315D02*
D03*
Y35039D02*
D03*
X128347D02*
D03*
X126378D02*
D03*
X124409D02*
D03*
X122441D02*
D03*
X92913Y24016D02*
D03*
X94882D02*
D03*
X96850D02*
D03*
X98819D02*
D03*
X100787D02*
D03*
Y35039D02*
D03*
X98819D02*
D03*
X96850D02*
D03*
X94882D02*
D03*
X92913D02*
D03*
X63386Y24016D02*
D03*
X65354D02*
D03*
X67323D02*
D03*
X69291D02*
D03*
X71260D02*
D03*
Y35039D02*
D03*
X69291D02*
D03*
X67323D02*
D03*
X65354D02*
D03*
X63386D02*
D03*
D66*
X126378Y29528D02*
D03*
X96850D02*
D03*
X67323D02*
D03*
D67*
X91240Y69685D02*
D03*
X85925D02*
D03*
X-53642Y-5906D02*
D03*
X-58957D02*
D03*
X64862Y55512D02*
D03*
X59547D02*
D03*
X38287Y137795D02*
D03*
X43602D02*
D03*
X33366Y111024D02*
D03*
X28051D02*
D03*
X-51673Y77953D02*
D03*
X-56988D02*
D03*
X54626Y-37795D02*
D03*
X49311D02*
D03*
X101083Y105118D02*
D03*
X95768D02*
D03*
D68*
X138878Y46457D02*
D03*
X162697D02*
D03*
D69*
X56890Y96201D02*
D03*
X76575D02*
D03*
X74606D02*
D03*
X72638D02*
D03*
X70669D02*
D03*
X68701D02*
D03*
X66732D02*
D03*
X64764D02*
D03*
X62795D02*
D03*
X60827D02*
D03*
X58858D02*
D03*
X54921D02*
D03*
X52953D02*
D03*
X50984D02*
D03*
X49016D02*
D03*
X47047D02*
D03*
Y61279D02*
D03*
X49016D02*
D03*
X50984D02*
D03*
X52953D02*
D03*
X54921D02*
D03*
X56890D02*
D03*
X58858D02*
D03*
X60827D02*
D03*
X62795D02*
D03*
X64764D02*
D03*
X66732D02*
D03*
X68701D02*
D03*
X70669D02*
D03*
X72638D02*
D03*
X74606D02*
D03*
X76575D02*
D03*
D70*
X79272Y93504D02*
D03*
Y63976D02*
D03*
Y65945D02*
D03*
Y67913D02*
D03*
Y69882D02*
D03*
Y71850D02*
D03*
Y73819D02*
D03*
Y75787D02*
D03*
Y77756D02*
D03*
Y79724D02*
D03*
Y81693D02*
D03*
Y83661D02*
D03*
Y85630D02*
D03*
Y87599D02*
D03*
Y89567D02*
D03*
Y91536D02*
D03*
X44350Y93504D02*
D03*
Y91536D02*
D03*
Y89567D02*
D03*
Y87599D02*
D03*
Y85630D02*
D03*
Y83661D02*
D03*
Y81693D02*
D03*
Y79724D02*
D03*
Y77756D02*
D03*
Y75787D02*
D03*
Y73819D02*
D03*
Y71850D02*
D03*
Y69882D02*
D03*
Y67913D02*
D03*
Y65945D02*
D03*
Y63976D02*
D03*
D71*
X62992Y-14567D02*
D03*
Y-3543D02*
D03*
X142126D02*
D03*
Y-14567D02*
D03*
D72*
X89961Y50000D02*
D03*
X95866D02*
D03*
X12402Y72441D02*
D03*
X6496D02*
D03*
D73*
X61811Y78740D02*
D03*
D74*
X44094Y118898D02*
D03*
Y120866D02*
D03*
Y122835D02*
D03*
Y124803D02*
D03*
Y126772D02*
D03*
Y128740D02*
D03*
X28346D02*
D03*
Y126772D02*
D03*
Y124803D02*
D03*
Y122835D02*
D03*
Y120866D02*
D03*
Y118898D02*
D03*
D75*
X36220Y123819D02*
D03*
D76*
X41142Y131595D02*
D03*
X39173D02*
D03*
X37205D02*
D03*
X35236D02*
D03*
X33268D02*
D03*
X31299D02*
D03*
Y116043D02*
D03*
X33268D02*
D03*
X35236D02*
D03*
X37205D02*
D03*
X39173D02*
D03*
X41142D02*
D03*
D77*
X-42717Y71988D02*
D03*
X-46457D02*
D03*
X-50197D02*
D03*
X-42717Y62657D02*
D03*
X-46457D02*
D03*
X-50197D02*
D03*
D78*
X-57480Y85039D02*
D03*
X-51181D02*
D03*
D79*
X-39665Y83465D02*
D03*
X-29626D02*
D03*
D80*
X-17717Y55905D02*
D03*
Y62205D02*
D03*
D81*
X-44390Y-33712D02*
D03*
X-46949Y-29280D02*
D03*
D82*
X48917Y-25343D02*
D03*
X46358Y-29775D02*
D03*
D83*
X92579Y110827D02*
D03*
Y112795D02*
D03*
Y114764D02*
D03*
Y116732D02*
D03*
X100335D02*
D03*
Y114764D02*
D03*
Y112795D02*
D03*
Y110827D02*
D03*
D84*
X27362Y94488D02*
D03*
X22244D02*
D03*
X27362Y88189D02*
D03*
X22244D02*
D03*
X-7283Y54724D02*
D03*
X-2165D02*
D03*
X-4921Y72441D02*
D03*
X197D02*
D03*
D85*
X64297Y54947D02*
X64862Y55512D01*
X5535Y61492D02*
X6299Y60728D01*
X1243Y61492D02*
X5535D01*
X64Y62672D02*
X1243Y61492D01*
X64Y62672D02*
Y63190D01*
X-46457Y71988D02*
Y77968D01*
X-41543Y82882D01*
X-41528D01*
D86*
X-12598Y71161D02*
Y75197D01*
X-10485Y74437D02*
X-8489Y72441D01*
X-4921D01*
X-10485Y74437D02*
Y75052D01*
X-10630Y75197D02*
X-10485Y75052D01*
X-10630Y75197D02*
Y79528D01*
X-18955Y84588D02*
X-18955D01*
X-14712Y80344D01*
Y79672D02*
Y80344D01*
Y79672D02*
X-14567Y79528D01*
X-20277Y85909D02*
X-18955Y84588D01*
X-15996Y67764D02*
X-12598Y71161D01*
X-15996Y63764D02*
Y67764D01*
X-17555Y62205D02*
X-15996Y63764D01*
X-17717Y62205D02*
X-17555D01*
X-21654Y74705D02*
X-21306Y75052D01*
X-21703Y74655D02*
X-21654Y74705D01*
X-14712Y75052D02*
X-14567Y75197D01*
X-21306Y75052D02*
X-14712D01*
X-14567Y75197D02*
X-14567Y75197D01*
X-12598D01*
X-10630D01*
X-14567Y79528D02*
X-10630D01*
X-14567Y76129D02*
Y79528D01*
Y76129D02*
X-14525D01*
X-28297Y74655D02*
X-21703D01*
X-28346Y74606D02*
X-28297Y74655D01*
X-29626Y83465D02*
Y84547D01*
X-28264Y85909D01*
X-20277D01*
X-45669Y98425D02*
X-42520Y101575D01*
X-67126Y98425D02*
X-45669D01*
X-67126D02*
Y106299D01*
X98425Y-57598D02*
X106299D01*
X90551D02*
X98425D01*
X-19685D02*
X-11811D01*
X-27559D02*
X-19685D01*
X-75000Y-27559D02*
Y-19685D01*
Y-11811D01*
Y90551D02*
Y98425D01*
Y106299D01*
D87*
X-6791Y83366D02*
X38484D01*
X-10630Y79528D02*
X-6791Y83366D01*
D88*
X95669Y148425D02*
D03*
X103543D02*
D03*
X111417D02*
D03*
X-34646Y101575D02*
D03*
X-26772D02*
D03*
X147244Y24409D02*
D03*
X-75000Y-11811D02*
D03*
Y-19685D02*
D03*
X-67126Y-11811D02*
D03*
Y-19685D02*
D03*
X-75000Y-27559D02*
D03*
Y106299D02*
D03*
Y98425D02*
D03*
X-67126Y106299D02*
D03*
Y98425D02*
D03*
X-75000Y90551D02*
D03*
X106299Y-49724D02*
D03*
X98425D02*
D03*
X106299Y-57598D02*
D03*
X98425D02*
D03*
X90551Y-49724D02*
D03*
X-11811D02*
D03*
X-19685D02*
D03*
X-11811Y-57598D02*
D03*
X-19685D02*
D03*
X-27559Y-49724D02*
D03*
D89*
X87795Y148425D02*
D03*
X-42520Y101575D02*
D03*
X155118Y24409D02*
D03*
X90551Y-57598D02*
D03*
X-27559D02*
D03*
D90*
X28740Y28740D02*
D03*
Y-28740D02*
D03*
X-28740D02*
D03*
Y28740D02*
D03*
X-38465Y124409D02*
D03*
X-18465D02*
D03*
X-28465D02*
D03*
X-48465D02*
D03*
X-58465D02*
D03*
D91*
X0Y98819D02*
D03*
Y165354D02*
D03*
X-59055Y149606D02*
D03*
X59055D02*
D03*
X165354Y0D02*
D03*
X145669Y145669D02*
D03*
D92*
X-49095Y-39779D02*
D03*
X-54756Y-31536D02*
D03*
X-51926Y-35658D02*
D03*
D93*
X56846Y-27139D02*
D03*
X54692Y-31651D02*
D03*
X59000Y-22626D02*
D03*
D94*
X-9906Y62409D02*
D03*
X64Y63190D02*
D03*
X-4921Y62800D02*
D03*
D95*
X-8465Y124409D02*
D03*
D96*
X127953Y-15748D02*
D03*
X102362D02*
D03*
X77165D02*
D03*
D97*
X-67126Y-27559D02*
D03*
Y90551D02*
D03*
D98*
X124803Y394D02*
D03*
X130315Y-3150D02*
D03*
Y394D02*
D03*
X124803Y-3150D02*
D03*
X109055Y-9055D02*
D03*
X144095Y-3543D02*
D03*
X139764D02*
D03*
X60236D02*
D03*
X66142D02*
D03*
X72047Y110630D02*
D03*
X-10558Y70545D02*
D03*
X-14495Y70545D02*
D03*
X64567Y48819D02*
D03*
X87008Y109843D02*
D03*
X59744Y109055D02*
D03*
X52756Y111614D02*
D03*
X135039Y-22047D02*
D03*
X99606Y394D02*
D03*
X105118D02*
D03*
X99606Y-3150D02*
D03*
X105118D02*
D03*
X79921D02*
D03*
X74410D02*
D03*
X79921Y394D02*
D03*
X74410D02*
D03*
X116142Y16929D02*
D03*
X124409Y12697D02*
D03*
X116929Y21752D02*
D03*
Y27067D02*
D03*
X90945Y94882D02*
D03*
X100000Y45276D02*
D03*
X120079Y69291D02*
D03*
X130512Y17913D02*
D03*
X100984Y17913D02*
D03*
X71457Y17913D02*
D03*
X71653Y12795D02*
D03*
X116929Y38386D02*
D03*
X87402D02*
D03*
X57874D02*
D03*
X67323Y29528D02*
D03*
X57874Y21752D02*
D03*
X87402Y21752D02*
D03*
X87402Y27067D02*
D03*
X57874D02*
D03*
X86614Y9055D02*
D03*
X101181Y12795D02*
D03*
X130709Y12795D02*
D03*
X94882Y12697D02*
D03*
X83465Y-8789D02*
D03*
X65354Y12697D02*
D03*
X94095Y61417D02*
D03*
X95145Y75067D02*
D03*
X94488Y65354D02*
D03*
X114567Y115748D02*
D03*
Y111811D02*
D03*
X111023D02*
D03*
X111024Y115748D02*
D03*
X42500Y51581D02*
D03*
X46063Y50394D02*
D03*
X42913Y59055D02*
D03*
X55634Y55454D02*
D03*
X55563Y51575D02*
D03*
X41732Y110630D02*
D03*
X53937Y-11614D02*
D03*
X-54331Y-1181D02*
D03*
X38976Y65748D02*
D03*
Y69685D02*
D03*
X38976Y73622D02*
D03*
X-7874Y98425D02*
D03*
X0Y90945D02*
D03*
Y106693D02*
D03*
X7874Y98425D02*
D03*
X-5906Y103543D02*
D03*
X5512Y103937D02*
D03*
Y93307D02*
D03*
X-5118Y92914D02*
D03*
X59055Y157480D02*
D03*
Y141732D02*
D03*
X51181Y149213D02*
D03*
X66929D02*
D03*
X64567Y154725D02*
D03*
X53150Y154331D02*
D03*
X53937Y143701D02*
D03*
X64567Y144095D02*
D03*
X-59055Y157480D02*
D03*
Y141732D02*
D03*
X-66929Y149213D02*
D03*
X-51181D02*
D03*
X-53543Y154725D02*
D03*
X-64961Y154331D02*
D03*
X-64173Y143701D02*
D03*
X-53543Y144095D02*
D03*
X145669Y153543D02*
D03*
Y137795D02*
D03*
X137795Y145276D02*
D03*
X153543D02*
D03*
X151181Y150787D02*
D03*
X139764Y150394D02*
D03*
X140551Y139764D02*
D03*
X151181Y140157D02*
D03*
X165354Y7874D02*
D03*
Y-7874D02*
D03*
X157480Y-394D02*
D03*
X173228D02*
D03*
X170866Y5118D02*
D03*
X159449Y4724D02*
D03*
X160236Y-5905D02*
D03*
X170866Y-5512D02*
D03*
X5512Y159843D02*
D03*
X-5118Y159449D02*
D03*
X-5906Y170079D02*
D03*
X5512Y170472D02*
D03*
X7874Y164961D02*
D03*
X-7874D02*
D03*
X0Y157480D02*
D03*
Y173228D02*
D03*
X9122Y123949D02*
D03*
X23228Y126673D02*
D03*
X9055Y128347D02*
D03*
X85933Y94413D02*
D03*
X83465Y97244D02*
D03*
X79565Y98425D02*
D03*
X64173Y100394D02*
D03*
X96457Y113779D02*
D03*
X61811Y78347D02*
D03*
X52756Y87795D02*
D03*
X85433Y74016D02*
D03*
X52756Y69685D02*
D03*
X71260Y88189D02*
D03*
X64173Y104150D02*
D03*
X70866Y69685D02*
D03*
X64173Y107905D02*
D03*
X98819Y80512D02*
D03*
X43602Y137598D02*
D03*
X33071Y121260D02*
D03*
Y126772D02*
D03*
X39370D02*
D03*
Y121260D02*
D03*
X105512Y68504D02*
D03*
X126378Y-38976D02*
D03*
X101181D02*
D03*
X126378Y29528D02*
D03*
X96850D02*
D03*
X-18955Y84588D02*
D03*
X133858Y-33799D02*
D03*
X108616Y-33510D02*
D03*
X83315Y-33709D02*
D03*
X-14567Y75197D02*
D03*
X-10630Y75197D02*
D03*
X-46457Y57480D02*
D03*
X-14567Y79528D02*
D03*
X-10630D02*
D03*
X145276Y16142D02*
D03*
X140945Y7480D02*
D03*
X145276Y20079D02*
D03*
Y11811D02*
D03*
Y7480D02*
D03*
X140945Y11811D02*
D03*
Y16142D02*
D03*
Y20079D02*
D03*
X57087Y9055D02*
D03*
X-48819Y94488D02*
D03*
X-52756D02*
D03*
Y90551D02*
D03*
X-48819D02*
D03*
M02*
