G04*
G04 #@! TF.GenerationSoftware,Altium Limited,Altium Designer,20.1.14 (287)*
G04*
G04 Layer_Physical_Order=2*
G04 Layer_Color=36540*
%FSLAX25Y25*%
%MOIN*%
G70*
G04*
G04 #@! TF.SameCoordinates,BFC865CF-BEAF-49AC-A6C2-1AB5C3D80CD9*
G04*
G04*
G04 #@! TF.FilePolarity,Positive*
G04*
G01*
G75*
%ADD10C,0.00787*%
%ADD13C,0.01000*%
%ADD88C,0.05118*%
%ADD89R,0.05118X0.05118*%
%ADD90C,0.06299*%
%ADD91C,0.19685*%
G04:AMPARAMS|DCode=92|XSize=84.25mil|YSize=42.13mil|CornerRadius=0mil|HoleSize=0mil|Usage=FLASHONLY|Rotation=214.480|XOffset=0mil|YOffset=0mil|HoleType=Round|Shape=Round|*
%AMOVALD92*
21,1,0.04213,0.04213,0.00000,0.00000,214.5*
1,1,0.04213,0.01736,0.01192*
1,1,0.04213,-0.01736,-0.01192*
%
%ADD92OVALD92*%

G04:AMPARAMS|DCode=93|XSize=84.25mil|YSize=42.13mil|CornerRadius=0mil|HoleSize=0mil|Usage=FLASHONLY|Rotation=334.480|XOffset=0mil|YOffset=0mil|HoleType=Round|Shape=Round|*
%AMOVALD93*
21,1,0.04213,0.04213,0.00000,0.00000,334.5*
1,1,0.04213,-0.01901,0.00907*
1,1,0.04213,0.01901,-0.00907*
%
%ADD93OVALD93*%

G04:AMPARAMS|DCode=94|XSize=84.25mil|YSize=42.13mil|CornerRadius=0mil|HoleSize=0mil|Usage=FLASHONLY|Rotation=94.480|XOffset=0mil|YOffset=0mil|HoleType=Round|Shape=Round|*
%AMOVALD94*
21,1,0.04213,0.04213,0.00000,0.00000,94.5*
1,1,0.04213,0.00165,-0.02100*
1,1,0.04213,-0.00165,0.02100*
%
%ADD94OVALD94*%

%ADD97R,0.05118X0.05118*%
%ADD98C,0.02756*%
G36*
X125054Y174533D02*
X129631Y172932D01*
X134095Y171040D01*
X138430Y168866D01*
X142616Y166419D01*
X146636Y163709D01*
X150475Y160747D01*
X154116Y157545D01*
X157545Y154116D01*
X160747Y150475D01*
X163709Y146636D01*
X166419Y142616D01*
X168866Y138430D01*
X171040Y134096D01*
X172932Y129631D01*
X174533Y125054D01*
X175110Y122991D01*
X175110Y-64244D01*
X-77472D01*
Y-30753D01*
X-77024Y-30532D01*
X-76811Y-30695D01*
X-75937Y-31057D01*
X-75000Y-31181D01*
X-74063Y-31057D01*
X-73189Y-30695D01*
X-72439Y-30120D01*
X-71864Y-29370D01*
X-71502Y-28496D01*
X-71378Y-27559D01*
X-71502Y-26622D01*
X-71864Y-25748D01*
X-72439Y-24998D01*
X-73189Y-24423D01*
X-74063Y-24061D01*
X-75000Y-23937D01*
X-75937Y-24061D01*
X-76811Y-24423D01*
X-77024Y-24586D01*
X-77472Y-24365D01*
Y-22879D01*
X-77024Y-22658D01*
X-76811Y-22821D01*
X-75937Y-23183D01*
X-75000Y-23307D01*
X-74063Y-23183D01*
X-73189Y-22821D01*
X-72439Y-22246D01*
X-71864Y-21496D01*
X-71502Y-20622D01*
X-71378Y-19685D01*
X-71502Y-18748D01*
X-71864Y-17874D01*
X-72439Y-17124D01*
X-73189Y-16549D01*
X-74063Y-16187D01*
X-75000Y-16063D01*
X-75937Y-16187D01*
X-76811Y-16549D01*
X-77024Y-16712D01*
X-77472Y-16491D01*
Y-15005D01*
X-77024Y-14784D01*
X-76811Y-14947D01*
X-75937Y-15309D01*
X-75000Y-15433D01*
X-74063Y-15309D01*
X-73189Y-14947D01*
X-72439Y-14372D01*
X-71864Y-13622D01*
X-71502Y-12748D01*
X-71378Y-11811D01*
X-71502Y-10874D01*
X-71864Y-10000D01*
X-72439Y-9250D01*
X-73189Y-8675D01*
X-74063Y-8313D01*
X-75000Y-8190D01*
X-75937Y-8313D01*
X-76811Y-8675D01*
X-77024Y-8838D01*
X-77472Y-8617D01*
X-77472Y87357D01*
X-77024Y87578D01*
X-76811Y87415D01*
X-75937Y87053D01*
X-75000Y86930D01*
X-74063Y87053D01*
X-73189Y87415D01*
X-72439Y87990D01*
X-71864Y88740D01*
X-71502Y89614D01*
X-71378Y90551D01*
X-71502Y91488D01*
X-71864Y92362D01*
X-72439Y93112D01*
X-73189Y93687D01*
X-74063Y94049D01*
X-75000Y94173D01*
X-75937Y94049D01*
X-76811Y93687D01*
X-77024Y93524D01*
X-77472Y93745D01*
Y95231D01*
X-77024Y95452D01*
X-76811Y95289D01*
X-75937Y94927D01*
X-75000Y94804D01*
X-74063Y94927D01*
X-73189Y95289D01*
X-72439Y95864D01*
X-71864Y96614D01*
X-71502Y97488D01*
X-71378Y98425D01*
X-71502Y99362D01*
X-71864Y100236D01*
X-72439Y100986D01*
X-73189Y101561D01*
X-74063Y101923D01*
X-75000Y102047D01*
X-75937Y101923D01*
X-76811Y101561D01*
X-77024Y101398D01*
X-77472Y101619D01*
Y103105D01*
X-77024Y103326D01*
X-76811Y103163D01*
X-75937Y102801D01*
X-75000Y102678D01*
X-74063Y102801D01*
X-73189Y103163D01*
X-72439Y103738D01*
X-71864Y104488D01*
X-71502Y105362D01*
X-71378Y106299D01*
X-71502Y107237D01*
X-71864Y108110D01*
X-72439Y108860D01*
X-73189Y109436D01*
X-74063Y109797D01*
X-75000Y109921D01*
X-75937Y109797D01*
X-76811Y109436D01*
X-77024Y109272D01*
X-77472Y109493D01*
X-77472Y175110D01*
X122991D01*
X125054Y174533D01*
D02*
G37*
%LPC*%
G36*
X111417Y152047D02*
X110480Y151923D01*
X109607Y151561D01*
X108856Y150986D01*
X108281Y150236D01*
X107919Y149363D01*
X107796Y148425D01*
X107919Y147488D01*
X108281Y146614D01*
X108856Y145864D01*
X109607Y145289D01*
X110480Y144927D01*
X111417Y144804D01*
X112355Y144927D01*
X113228Y145289D01*
X113978Y145864D01*
X114554Y146614D01*
X114916Y147488D01*
X115039Y148425D01*
X114916Y149363D01*
X114554Y150236D01*
X113978Y150986D01*
X113228Y151561D01*
X112355Y151923D01*
X111417Y152047D01*
D02*
G37*
G36*
X95669D02*
X94732Y151923D01*
X93858Y151561D01*
X93108Y150986D01*
X92533Y150236D01*
X92171Y149363D01*
X92048Y148425D01*
X92171Y147488D01*
X92533Y146614D01*
X93108Y145864D01*
X93858Y145289D01*
X94732Y144927D01*
X95669Y144804D01*
X96607Y144927D01*
X97480Y145289D01*
X98230Y145864D01*
X98806Y146614D01*
X99167Y147488D01*
X99291Y148425D01*
X99167Y149363D01*
X98806Y150236D01*
X98230Y150986D01*
X97480Y151561D01*
X96607Y151923D01*
X95669Y152047D01*
D02*
G37*
G36*
X87795D02*
X87321Y151984D01*
X84236D01*
Y148900D01*
X84174Y148425D01*
X84236Y147951D01*
Y144866D01*
X87321D01*
X87795Y144804D01*
X88270Y144866D01*
X91354D01*
Y147951D01*
X91417Y148425D01*
X91354Y148900D01*
Y151984D01*
X88270D01*
X87795Y152047D01*
D02*
G37*
G36*
X-59055Y160482D02*
X-60756Y160348D01*
X-62416Y159950D01*
X-63993Y159297D01*
X-65448Y158405D01*
X-66746Y157297D01*
X-67854Y155999D01*
X-68746Y154544D01*
X-69399Y152967D01*
X-69797Y151308D01*
X-69931Y149606D01*
X-69797Y147905D01*
X-69399Y146245D01*
X-68746Y144669D01*
X-67854Y143213D01*
X-66746Y141916D01*
X-65448Y140807D01*
X-63993Y139916D01*
X-62416Y139263D01*
X-60756Y138864D01*
X-59055Y138730D01*
X-57354Y138864D01*
X-55694Y139263D01*
X-54118Y139916D01*
X-52662Y140807D01*
X-51365Y141916D01*
X-50256Y143213D01*
X-49365Y144669D01*
X-48711Y146245D01*
X-48313Y147905D01*
X-48179Y149606D01*
X-48313Y151308D01*
X-48711Y152967D01*
X-49365Y154544D01*
X-50256Y155999D01*
X-51365Y157297D01*
X-52662Y158405D01*
X-54118Y159297D01*
X-55694Y159950D01*
X-57354Y160348D01*
X-59055Y160482D01*
D02*
G37*
G36*
X43602Y140326D02*
X42896Y140234D01*
X42238Y139961D01*
X41673Y139527D01*
X41240Y138962D01*
X40967Y138304D01*
X40874Y137598D01*
X40967Y136892D01*
X41240Y136234D01*
X41673Y135669D01*
X42238Y135236D01*
X42896Y134963D01*
X43602Y134870D01*
X44308Y134963D01*
X44966Y135236D01*
X45531Y135669D01*
X45965Y136234D01*
X46237Y136892D01*
X46330Y137598D01*
X46237Y138304D01*
X45965Y138962D01*
X45531Y139527D01*
X44966Y139961D01*
X44308Y140234D01*
X43602Y140326D01*
D02*
G37*
G36*
X23228Y129401D02*
X22522Y129308D01*
X21864Y129036D01*
X21299Y128602D01*
X20866Y128037D01*
X20593Y127379D01*
X20500Y126673D01*
X20593Y125967D01*
X20866Y125309D01*
X21299Y124744D01*
X21864Y124311D01*
X22522Y124038D01*
X23228Y123945D01*
X23934Y124038D01*
X24592Y124311D01*
X25157Y124744D01*
X25591Y125309D01*
X25864Y125967D01*
X25956Y126673D01*
X25864Y127379D01*
X25591Y128037D01*
X25157Y128602D01*
X24592Y129036D01*
X23934Y129308D01*
X23228Y129401D01*
D02*
G37*
G36*
X9055Y131075D02*
X8349Y130982D01*
X7691Y130709D01*
X7126Y130275D01*
X6692Y129710D01*
X6420Y129052D01*
X6327Y128347D01*
X6420Y127640D01*
X6692Y126982D01*
X7126Y126417D01*
X7193Y126366D01*
Y126224D01*
X7124Y125788D01*
X6759Y125313D01*
X6487Y124655D01*
X6394Y123949D01*
X6487Y123243D01*
X6759Y122585D01*
X7193Y122020D01*
X7758Y121586D01*
X8416Y121314D01*
X9122Y121221D01*
X9828Y121314D01*
X10486Y121586D01*
X11051Y122020D01*
X11485Y122585D01*
X11757Y123243D01*
X11850Y123949D01*
X11757Y124655D01*
X11485Y125313D01*
X11051Y125878D01*
X10984Y125929D01*
Y126071D01*
X11053Y126507D01*
X11418Y126982D01*
X11690Y127640D01*
X11783Y128347D01*
X11690Y129052D01*
X11418Y129710D01*
X10984Y130275D01*
X10419Y130709D01*
X9761Y130982D01*
X9055Y131075D01*
D02*
G37*
G36*
X-8465Y128627D02*
X-8978Y128559D01*
X-12614D01*
Y124923D01*
X-12682Y124409D01*
X-12614Y123896D01*
Y120260D01*
X-8978D01*
X-8465Y120192D01*
X-7951Y120260D01*
X-4315D01*
Y123896D01*
X-4247Y124409D01*
X-4315Y124923D01*
Y128559D01*
X-7951D01*
X-8465Y128627D01*
D02*
G37*
G36*
X-18465D02*
X-19556Y128483D01*
X-20573Y128062D01*
X-21447Y127392D01*
X-22117Y126518D01*
X-22538Y125501D01*
X-22682Y124409D01*
X-22538Y123318D01*
X-22117Y122301D01*
X-21447Y121427D01*
X-20573Y120757D01*
X-19556Y120336D01*
X-18465Y120192D01*
X-17373Y120336D01*
X-16356Y120757D01*
X-15483Y121427D01*
X-14812Y122301D01*
X-14391Y123318D01*
X-14247Y124409D01*
X-14391Y125501D01*
X-14812Y126518D01*
X-15483Y127392D01*
X-16356Y128062D01*
X-17373Y128483D01*
X-18465Y128627D01*
D02*
G37*
G36*
X-38465D02*
X-39556Y128483D01*
X-40573Y128062D01*
X-41447Y127392D01*
X-42117Y126518D01*
X-42538Y125501D01*
X-42682Y124409D01*
X-42538Y123318D01*
X-42117Y122301D01*
X-41447Y121427D01*
X-40573Y120757D01*
X-39556Y120336D01*
X-38465Y120192D01*
X-37373Y120336D01*
X-36356Y120757D01*
X-35483Y121427D01*
X-34812Y122301D01*
X-34391Y123318D01*
X-34247Y124409D01*
X-34391Y125501D01*
X-34812Y126518D01*
X-35483Y127392D01*
X-36356Y128062D01*
X-37373Y128483D01*
X-38465Y128627D01*
D02*
G37*
G36*
X-48465D02*
X-49556Y128483D01*
X-50573Y128062D01*
X-51447Y127392D01*
X-52117Y126518D01*
X-52538Y125501D01*
X-52682Y124409D01*
X-52538Y123318D01*
X-52117Y122301D01*
X-51447Y121427D01*
X-50573Y120757D01*
X-49556Y120336D01*
X-48465Y120192D01*
X-47373Y120336D01*
X-46356Y120757D01*
X-45483Y121427D01*
X-44812Y122301D01*
X-44391Y123318D01*
X-44247Y124409D01*
X-44391Y125501D01*
X-44812Y126518D01*
X-45483Y127392D01*
X-46356Y128062D01*
X-47373Y128483D01*
X-48465Y128627D01*
D02*
G37*
G36*
X-58465D02*
X-59556Y128483D01*
X-60573Y128062D01*
X-61447Y127392D01*
X-62117Y126518D01*
X-62538Y125501D01*
X-62682Y124409D01*
X-62538Y123318D01*
X-62117Y122301D01*
X-61447Y121427D01*
X-60573Y120757D01*
X-59556Y120336D01*
X-58465Y120192D01*
X-57373Y120336D01*
X-56356Y120757D01*
X-55483Y121427D01*
X-54812Y122301D01*
X-54391Y123318D01*
X-54247Y124409D01*
X-54391Y125501D01*
X-54812Y126518D01*
X-55483Y127392D01*
X-56356Y128062D01*
X-57373Y128483D01*
X-58465Y128627D01*
D02*
G37*
G36*
X114567Y118476D02*
X113861Y118383D01*
X113203Y118111D01*
X112795Y117798D01*
X112388Y118111D01*
X111730Y118383D01*
X111024Y118476D01*
X110318Y118383D01*
X109660Y118111D01*
X109095Y117677D01*
X108661Y117112D01*
X108388Y116454D01*
X108296Y115748D01*
X108388Y115042D01*
X108661Y114384D01*
X109095Y113819D01*
X108828Y113393D01*
X108661Y113175D01*
X108388Y112517D01*
X108295Y111811D01*
X108388Y111105D01*
X108661Y110447D01*
X109094Y109882D01*
X109659Y109448D01*
X110317Y109176D01*
X111023Y109083D01*
X111730Y109176D01*
X112387Y109448D01*
X112795Y109761D01*
X113203Y109448D01*
X113861Y109176D01*
X114567Y109083D01*
X115273Y109176D01*
X115931Y109448D01*
X116496Y109882D01*
X116929Y110447D01*
X117202Y111105D01*
X117295Y111811D01*
X117202Y112517D01*
X116929Y113175D01*
X116762Y113393D01*
X116521Y113779D01*
X116762Y114166D01*
X116929Y114384D01*
X117202Y115042D01*
X117295Y115748D01*
X117202Y116454D01*
X116929Y117112D01*
X116496Y117677D01*
X115931Y118111D01*
X115273Y118383D01*
X114567Y118476D01*
D02*
G37*
G36*
X52756Y114342D02*
X52050Y114249D01*
X51392Y113977D01*
X50827Y113543D01*
X50393Y112978D01*
X50121Y112320D01*
X50028Y111614D01*
X50121Y110908D01*
X50393Y110250D01*
X50827Y109685D01*
X51392Y109252D01*
X52050Y108979D01*
X52756Y108886D01*
X53462Y108979D01*
X54120Y109252D01*
X54685Y109685D01*
X55119Y110250D01*
X55391Y110908D01*
X55484Y111614D01*
X55391Y112320D01*
X55119Y112978D01*
X54685Y113543D01*
X54120Y113977D01*
X53462Y114249D01*
X52756Y114342D01*
D02*
G37*
G36*
X72047Y113358D02*
X71341Y113265D01*
X70683Y112993D01*
X70118Y112559D01*
X69685Y111994D01*
X69412Y111336D01*
X69319Y110630D01*
X69412Y109924D01*
X69685Y109266D01*
X70118Y108701D01*
X70683Y108267D01*
X71341Y107995D01*
X72047Y107902D01*
X72753Y107995D01*
X73411Y108267D01*
X73976Y108701D01*
X74410Y109266D01*
X74682Y109924D01*
X74775Y110630D01*
X74682Y111336D01*
X74410Y111994D01*
X73976Y112559D01*
X73411Y112993D01*
X72753Y113265D01*
X72047Y113358D01*
D02*
G37*
G36*
X41732D02*
X41026Y113265D01*
X40368Y112993D01*
X39803Y112559D01*
X39370Y111994D01*
X39097Y111336D01*
X39004Y110630D01*
X39097Y109924D01*
X39370Y109266D01*
X39803Y108701D01*
X40368Y108267D01*
X41026Y107995D01*
X41732Y107902D01*
X42438Y107995D01*
X43096Y108267D01*
X43661Y108701D01*
X44095Y109266D01*
X44367Y109924D01*
X44460Y110630D01*
X44367Y111336D01*
X44095Y111994D01*
X43661Y112559D01*
X43096Y112993D01*
X42438Y113265D01*
X41732Y113358D01*
D02*
G37*
G36*
X87008Y112571D02*
X86302Y112478D01*
X85644Y112205D01*
X85079Y111772D01*
X84645Y111206D01*
X84373Y110549D01*
X84280Y109843D01*
X84373Y109136D01*
X84645Y108478D01*
X85079Y107913D01*
X85644Y107480D01*
X86302Y107207D01*
X87008Y107115D01*
X87714Y107207D01*
X88372Y107480D01*
X88937Y107913D01*
X89370Y108478D01*
X89643Y109136D01*
X89736Y109843D01*
X89643Y110549D01*
X89370Y111206D01*
X88937Y111772D01*
X88372Y112205D01*
X87714Y112478D01*
X87008Y112571D01*
D02*
G37*
G36*
X-26772Y105196D02*
X-27709Y105073D01*
X-28582Y104711D01*
X-29333Y104136D01*
X-29908Y103386D01*
X-30270Y102512D01*
X-30393Y101575D01*
X-30270Y100637D01*
X-29908Y99764D01*
X-29333Y99014D01*
X-28582Y98439D01*
X-27709Y98077D01*
X-26772Y97953D01*
X-25834Y98077D01*
X-24961Y98439D01*
X-24211Y99014D01*
X-23635Y99764D01*
X-23273Y100637D01*
X-23150Y101575D01*
X-23273Y102512D01*
X-23635Y103386D01*
X-24211Y104136D01*
X-24961Y104711D01*
X-25834Y105073D01*
X-26772Y105196D01*
D02*
G37*
G36*
X-34646D02*
X-35583Y105073D01*
X-36456Y104711D01*
X-37207Y104136D01*
X-37782Y103386D01*
X-38144Y102512D01*
X-38267Y101575D01*
X-38144Y100637D01*
X-37782Y99764D01*
X-37207Y99014D01*
X-36456Y98439D01*
X-35583Y98077D01*
X-34646Y97953D01*
X-33708Y98077D01*
X-32835Y98439D01*
X-32085Y99014D01*
X-31509Y99764D01*
X-31148Y100637D01*
X-31024Y101575D01*
X-31148Y102512D01*
X-31509Y103386D01*
X-32085Y104136D01*
X-32835Y104711D01*
X-33708Y105073D01*
X-34646Y105196D01*
D02*
G37*
G36*
X59744Y111783D02*
X59038Y111690D01*
X58380Y111418D01*
X57815Y110984D01*
X57381Y110419D01*
X57109Y109761D01*
X57016Y109055D01*
X57109Y108349D01*
X57381Y107691D01*
X57815Y107126D01*
X58380Y106693D01*
X59038Y106420D01*
X59744Y106327D01*
X60450Y106420D01*
X61108Y106693D01*
X61268Y106815D01*
X61751Y106686D01*
X61811Y106542D01*
X62205Y106028D01*
X61811Y105514D01*
X61538Y104856D01*
X61445Y104150D01*
X61538Y103444D01*
X61811Y102786D01*
X62205Y102272D01*
X61811Y101758D01*
X61538Y101100D01*
X61445Y100394D01*
X61538Y99688D01*
X61811Y99030D01*
X62244Y98465D01*
X62809Y98031D01*
X63467Y97759D01*
X64173Y97666D01*
X64879Y97759D01*
X65537Y98031D01*
X66102Y98465D01*
X66536Y99030D01*
X66808Y99688D01*
X66901Y100394D01*
X66808Y101100D01*
X66536Y101758D01*
X66141Y102272D01*
X66536Y102786D01*
X66808Y103444D01*
X66901Y104150D01*
X66808Y104856D01*
X66536Y105514D01*
X66141Y106028D01*
X66536Y106542D01*
X66808Y107200D01*
X66901Y107905D01*
X66808Y108612D01*
X66536Y109270D01*
X66102Y109835D01*
X65537Y110268D01*
X64879Y110541D01*
X64173Y110634D01*
X63467Y110541D01*
X62809Y110268D01*
X62649Y110145D01*
X62166Y110275D01*
X62107Y110419D01*
X61673Y110984D01*
X61108Y111418D01*
X60450Y111690D01*
X59744Y111783D01*
D02*
G37*
G36*
X-48819Y97216D02*
X-49525Y97123D01*
X-50183Y96851D01*
X-50401Y96684D01*
X-50787Y96442D01*
X-51174Y96684D01*
X-51392Y96851D01*
X-52050Y97123D01*
X-52756Y97216D01*
X-53462Y97123D01*
X-54120Y96851D01*
X-54685Y96417D01*
X-55119Y95852D01*
X-55391Y95194D01*
X-55484Y94488D01*
X-55391Y93782D01*
X-55119Y93124D01*
X-54951Y92906D01*
X-54710Y92520D01*
X-54951Y92133D01*
X-55119Y91915D01*
X-55391Y91257D01*
X-55484Y90551D01*
X-55391Y89845D01*
X-55119Y89187D01*
X-54685Y88622D01*
X-54120Y88189D01*
X-53462Y87916D01*
X-52756Y87823D01*
X-52050Y87916D01*
X-51392Y88189D01*
X-50827Y88622D01*
X-50748D01*
X-50183Y88189D01*
X-49525Y87916D01*
X-48819Y87823D01*
X-48113Y87916D01*
X-47455Y88189D01*
X-46890Y88622D01*
X-46456Y89187D01*
X-46184Y89845D01*
X-46091Y90551D01*
X-46184Y91257D01*
X-46456Y91915D01*
X-46890Y92480D01*
Y92559D01*
X-46456Y93124D01*
X-46184Y93782D01*
X-46091Y94488D01*
X-46184Y95194D01*
X-46456Y95852D01*
X-46890Y96417D01*
X-47455Y96851D01*
X-48113Y97123D01*
X-48819Y97216D01*
D02*
G37*
G36*
X79565Y101153D02*
X78859Y101060D01*
X78201Y100788D01*
X77636Y100354D01*
X77202Y99789D01*
X76930Y99131D01*
X76837Y98425D01*
X76930Y97719D01*
X77202Y97061D01*
X77636Y96496D01*
X78201Y96062D01*
X78859Y95790D01*
X79565Y95697D01*
X80271Y95790D01*
X80929Y96062D01*
X81254Y95682D01*
X81536Y95315D01*
X82100Y94881D01*
X82758Y94609D01*
X83223Y94548D01*
X83205Y94413D01*
X83298Y93707D01*
X83571Y93049D01*
X84004Y92484D01*
X84569Y92051D01*
X85227Y91778D01*
X85933Y91685D01*
X86639Y91778D01*
X87297Y92051D01*
X87862Y92484D01*
X88296Y93049D01*
X88568Y93707D01*
X88661Y94413D01*
X88568Y95120D01*
X88296Y95777D01*
X87862Y96342D01*
X87297Y96776D01*
X86639Y97048D01*
X86175Y97110D01*
X86193Y97244D01*
X86100Y97950D01*
X85827Y98608D01*
X85394Y99173D01*
X84829Y99607D01*
X84171Y99879D01*
X83465Y99972D01*
X82758Y99879D01*
X82100Y99607D01*
X81775Y99987D01*
X81494Y100354D01*
X80929Y100788D01*
X80271Y101060D01*
X79565Y101153D01*
D02*
G37*
G36*
X-18955Y87316D02*
X-19661Y87223D01*
X-20319Y86950D01*
X-20884Y86517D01*
X-21318Y85952D01*
X-21590Y85294D01*
X-21683Y84588D01*
X-21590Y83882D01*
X-21318Y83224D01*
X-20884Y82659D01*
X-20319Y82225D01*
X-19661Y81953D01*
X-18955Y81860D01*
X-18249Y81953D01*
X-17591Y82225D01*
X-17026Y82659D01*
X-16593Y83224D01*
X-16320Y83882D01*
X-16227Y84588D01*
X-16320Y85294D01*
X-16593Y85952D01*
X-17026Y86517D01*
X-17591Y86950D01*
X-18249Y87223D01*
X-18955Y87316D01*
D02*
G37*
G36*
X-10630Y82256D02*
X-11336Y82163D01*
X-11994Y81890D01*
X-12212Y81723D01*
X-12598Y81481D01*
X-12985Y81723D01*
X-13203Y81890D01*
X-13861Y82163D01*
X-14567Y82256D01*
X-15273Y82163D01*
X-15931Y81890D01*
X-16496Y81457D01*
X-16929Y80892D01*
X-17202Y80234D01*
X-17295Y79528D01*
X-17202Y78821D01*
X-16929Y78163D01*
X-16496Y77599D01*
X-16572Y77027D01*
X-16929Y76561D01*
X-17202Y75903D01*
X-17295Y75197D01*
X-17202Y74491D01*
X-16929Y73833D01*
X-16496Y73268D01*
X-16268Y73093D01*
Y72593D01*
X-16424Y72474D01*
X-16857Y71909D01*
X-17130Y71251D01*
X-17223Y70545D01*
X-17130Y69839D01*
X-16857Y69181D01*
X-16424Y68616D01*
X-15859Y68182D01*
X-15201Y67910D01*
X-14495Y67817D01*
X-13789Y67910D01*
X-13131Y68182D01*
X-12566Y68616D01*
X-12487D01*
X-11922Y68182D01*
X-11274Y67914D01*
X-11271Y67904D01*
X-11261Y67871D01*
X-11235Y67402D01*
X-11844Y67092D01*
X-12452Y66545D01*
X-12898Y65859D01*
X-13151Y65081D01*
X-13194Y64264D01*
X-13150Y63703D01*
X-13308Y63321D01*
X-13428Y62409D01*
X-13308Y61497D01*
X-12956Y60648D01*
X-12905Y60582D01*
X-12865Y60065D01*
X-12695Y59264D01*
X-12324Y58535D01*
X-11777Y57928D01*
X-11091Y57482D01*
X-10313Y57229D01*
X-9497Y57186D01*
X-8697Y57355D01*
X-7968Y57727D01*
X-7360Y58274D01*
X-6914Y58959D01*
X-6661Y59737D01*
X-6618Y60554D01*
X-6662Y61115D01*
X-6504Y61497D01*
X-6384Y62409D01*
X-6504Y63321D01*
X-6856Y64170D01*
X-6906Y64236D01*
X-6947Y64754D01*
X-7117Y65554D01*
X-7488Y66283D01*
X-8035Y66891D01*
X-8721Y67336D01*
X-9398Y67557D01*
X-9469Y67875D01*
X-9448Y68077D01*
X-9194Y68182D01*
X-8629Y68616D01*
X-8195Y69181D01*
X-7923Y69839D01*
X-7830Y70545D01*
X-7923Y71251D01*
X-8195Y71909D01*
X-8629Y72474D01*
X-8856Y72649D01*
Y73149D01*
X-8701Y73268D01*
X-8267Y73833D01*
X-7995Y74491D01*
X-7902Y75197D01*
X-7995Y75903D01*
X-8267Y76561D01*
X-8625Y77027D01*
X-8669Y77362D01*
X-8625Y77698D01*
X-8267Y78163D01*
X-7995Y78821D01*
X-7902Y79528D01*
X-7995Y80234D01*
X-8267Y80892D01*
X-8701Y81457D01*
X-9266Y81890D01*
X-9924Y82163D01*
X-10630Y82256D01*
D02*
G37*
G36*
X95145Y77795D02*
X94439Y77702D01*
X93781Y77429D01*
X93216Y76996D01*
X92783Y76431D01*
X92510Y75773D01*
X92417Y75067D01*
X92510Y74361D01*
X92783Y73703D01*
X93216Y73137D01*
X93781Y72704D01*
X94439Y72431D01*
X95145Y72338D01*
X95851Y72431D01*
X96509Y72704D01*
X97074Y73137D01*
X97508Y73703D01*
X97780Y74361D01*
X97873Y75067D01*
X97780Y75773D01*
X97508Y76431D01*
X97074Y76996D01*
X96509Y77429D01*
X95851Y77702D01*
X95145Y77795D01*
D02*
G37*
G36*
X85433Y76744D02*
X84727Y76651D01*
X84069Y76378D01*
X83504Y75945D01*
X83070Y75380D01*
X82798Y74722D01*
X82705Y74016D01*
X82798Y73310D01*
X83070Y72652D01*
X83504Y72087D01*
X84069Y71653D01*
X84727Y71381D01*
X85433Y71288D01*
X86139Y71381D01*
X86797Y71653D01*
X87362Y72087D01*
X87796Y72652D01*
X88068Y73310D01*
X88161Y74016D01*
X88068Y74722D01*
X87796Y75380D01*
X87362Y75945D01*
X86797Y76378D01*
X86139Y76651D01*
X85433Y76744D01*
D02*
G37*
G36*
X120079Y72019D02*
X119373Y71926D01*
X118715Y71654D01*
X118150Y71220D01*
X117716Y70655D01*
X117444Y69997D01*
X117351Y69291D01*
X117444Y68585D01*
X117716Y67927D01*
X118150Y67362D01*
X118715Y66929D01*
X119373Y66656D01*
X120079Y66563D01*
X120785Y66656D01*
X121443Y66929D01*
X122008Y67362D01*
X122441Y67927D01*
X122714Y68585D01*
X122807Y69291D01*
X122714Y69997D01*
X122441Y70655D01*
X122008Y71220D01*
X121443Y71654D01*
X120785Y71926D01*
X120079Y72019D01*
D02*
G37*
G36*
X105512Y71232D02*
X104806Y71139D01*
X104148Y70867D01*
X103583Y70433D01*
X103149Y69868D01*
X102877Y69210D01*
X102784Y68504D01*
X102877Y67798D01*
X103149Y67140D01*
X103583Y66575D01*
X104148Y66141D01*
X104806Y65869D01*
X105512Y65776D01*
X106218Y65869D01*
X106876Y66141D01*
X107441Y66575D01*
X107874Y67140D01*
X108147Y67798D01*
X108240Y68504D01*
X108147Y69210D01*
X107874Y69868D01*
X107441Y70433D01*
X106876Y70867D01*
X106218Y71139D01*
X105512Y71232D01*
D02*
G37*
G36*
X38976Y76350D02*
X38270Y76257D01*
X37612Y75985D01*
X37047Y75551D01*
X36614Y74986D01*
X36341Y74328D01*
X36248Y73622D01*
X36341Y72916D01*
X36614Y72258D01*
X36781Y72040D01*
X37047Y71614D01*
X36614Y71049D01*
X36341Y70391D01*
X36248Y69685D01*
X36341Y68979D01*
X36614Y68321D01*
X36781Y68103D01*
X37023Y67716D01*
X36781Y67330D01*
X36614Y67112D01*
X36341Y66454D01*
X36248Y65748D01*
X36341Y65042D01*
X36614Y64384D01*
X37047Y63819D01*
X37612Y63385D01*
X38270Y63113D01*
X38976Y63020D01*
X39682Y63113D01*
X40340Y63385D01*
X40905Y63819D01*
X41339Y64384D01*
X41611Y65042D01*
X41704Y65748D01*
X41611Y66454D01*
X41339Y67112D01*
X41172Y67330D01*
X40930Y67716D01*
X41172Y68103D01*
X41339Y68321D01*
X41611Y68979D01*
X41704Y69685D01*
X41611Y70391D01*
X41339Y71049D01*
X41172Y71267D01*
X40905Y71693D01*
X41339Y72258D01*
X41611Y72916D01*
X41704Y73622D01*
X41611Y74328D01*
X41339Y74986D01*
X40905Y75551D01*
X40340Y75985D01*
X39682Y76257D01*
X38976Y76350D01*
D02*
G37*
G36*
X94488Y68082D02*
X93782Y67989D01*
X93124Y67717D01*
X92559Y67283D01*
X92125Y66718D01*
X91853Y66060D01*
X91760Y65354D01*
X91853Y64648D01*
X92125Y63990D01*
X92451Y63566D01*
X92165Y63346D01*
X91732Y62781D01*
X91459Y62123D01*
X91366Y61417D01*
X91459Y60711D01*
X91732Y60053D01*
X92165Y59488D01*
X92730Y59055D01*
X93388Y58782D01*
X94095Y58689D01*
X94801Y58782D01*
X95459Y59055D01*
X96023Y59488D01*
X96457Y60053D01*
X96730Y60711D01*
X96823Y61417D01*
X96730Y62123D01*
X96457Y62781D01*
X96131Y63206D01*
X96417Y63425D01*
X96851Y63990D01*
X97123Y64648D01*
X97216Y65354D01*
X97123Y66060D01*
X96851Y66718D01*
X96417Y67283D01*
X95852Y67717D01*
X95194Y67989D01*
X94488Y68082D01*
D02*
G37*
G36*
X-346Y68414D02*
X-1146Y68244D01*
X-1875Y67873D01*
X-2483Y67326D01*
X-2929Y66640D01*
X-3181Y65862D01*
X-3225Y65045D01*
X-3181Y64484D01*
X-3339Y64102D01*
X-3459Y63190D01*
X-3339Y62278D01*
X-2987Y61429D01*
X-2936Y61363D01*
X-2895Y60846D01*
X-2726Y60045D01*
X-2355Y59317D01*
X-1808Y58709D01*
X-1122Y58263D01*
X-344Y58010D01*
X473Y57967D01*
X1273Y58136D01*
X2002Y58508D01*
X2610Y59055D01*
X3055Y59741D01*
X3308Y60518D01*
X3351Y61335D01*
X3308Y61897D01*
X3466Y62278D01*
X3586Y63190D01*
X3466Y64102D01*
X3114Y64951D01*
X3063Y65018D01*
X3022Y65535D01*
X2853Y66335D01*
X2482Y67064D01*
X1935Y67672D01*
X1249Y68117D01*
X471Y68370D01*
X-346Y68414D01*
D02*
G37*
G36*
X42913Y61783D02*
X42207Y61690D01*
X41549Y61418D01*
X40984Y60984D01*
X40551Y60419D01*
X40278Y59761D01*
X40185Y59055D01*
X40278Y58349D01*
X40551Y57691D01*
X40984Y57126D01*
X41549Y56693D01*
X42207Y56420D01*
X42913Y56327D01*
X43619Y56420D01*
X44277Y56693D01*
X44842Y57126D01*
X45276Y57691D01*
X45548Y58349D01*
X45641Y59055D01*
X45548Y59761D01*
X45276Y60419D01*
X44842Y60984D01*
X44277Y61418D01*
X43619Y61690D01*
X42913Y61783D01*
D02*
G37*
G36*
X-46457Y60208D02*
X-47163Y60115D01*
X-47821Y59843D01*
X-48386Y59409D01*
X-48819Y58844D01*
X-49092Y58186D01*
X-49185Y57480D01*
X-49092Y56774D01*
X-48819Y56116D01*
X-48386Y55551D01*
X-47821Y55118D01*
X-47163Y54845D01*
X-46457Y54752D01*
X-45751Y54845D01*
X-45093Y55118D01*
X-44528Y55551D01*
X-44094Y56116D01*
X-43822Y56774D01*
X-43729Y57480D01*
X-43822Y58186D01*
X-44094Y58844D01*
X-44528Y59409D01*
X-45093Y59843D01*
X-45751Y60115D01*
X-46457Y60208D01*
D02*
G37*
G36*
X55634Y58182D02*
X54928Y58089D01*
X54270Y57817D01*
X53705Y57383D01*
X53271Y56818D01*
X52999Y56160D01*
X52906Y55454D01*
X52999Y54748D01*
X53271Y54090D01*
X53689Y53546D01*
X53634Y53504D01*
X53200Y52939D01*
X52928Y52281D01*
X52834Y51575D01*
X52928Y50869D01*
X53200Y50211D01*
X53634Y49646D01*
X54199Y49212D01*
X54856Y48940D01*
X55563Y48847D01*
X56269Y48940D01*
X56927Y49212D01*
X57492Y49646D01*
X57925Y50211D01*
X58198Y50869D01*
X58291Y51575D01*
X58198Y52281D01*
X57925Y52939D01*
X57508Y53483D01*
X57563Y53525D01*
X57996Y54090D01*
X58269Y54748D01*
X58362Y55454D01*
X58269Y56160D01*
X57996Y56818D01*
X57563Y57383D01*
X56998Y57817D01*
X56340Y58089D01*
X55634Y58182D01*
D02*
G37*
G36*
X42500Y54309D02*
X41794Y54216D01*
X41136Y53944D01*
X40571Y53510D01*
X40137Y52946D01*
X39865Y52288D01*
X39772Y51581D01*
X39865Y50875D01*
X40137Y50217D01*
X40571Y49652D01*
X41136Y49219D01*
X41794Y48946D01*
X42500Y48853D01*
X43206Y48946D01*
X43657Y49133D01*
X43700Y49030D01*
X44134Y48465D01*
X44699Y48031D01*
X45357Y47759D01*
X46063Y47666D01*
X46769Y47759D01*
X47427Y48031D01*
X47992Y48465D01*
X48426Y49030D01*
X48698Y49688D01*
X48791Y50394D01*
X48698Y51100D01*
X48426Y51758D01*
X47992Y52323D01*
X47427Y52756D01*
X46769Y53029D01*
X46063Y53122D01*
X45357Y53029D01*
X44905Y52842D01*
X44862Y52946D01*
X44429Y53510D01*
X43864Y53944D01*
X43206Y54216D01*
X42500Y54309D01*
D02*
G37*
G36*
X64567Y51547D02*
X63861Y51454D01*
X63203Y51182D01*
X62638Y50748D01*
X62204Y50183D01*
X61932Y49525D01*
X61839Y48819D01*
X61932Y48113D01*
X62204Y47455D01*
X62638Y46890D01*
X63203Y46456D01*
X63861Y46184D01*
X64567Y46091D01*
X65273Y46184D01*
X65931Y46456D01*
X66496Y46890D01*
X66930Y47455D01*
X67202Y48113D01*
X67295Y48819D01*
X67202Y49525D01*
X66930Y50183D01*
X66496Y50748D01*
X65931Y51182D01*
X65273Y51454D01*
X64567Y51547D01*
D02*
G37*
G36*
X116929Y41114D02*
X116223Y41021D01*
X115565Y40748D01*
X115000Y40315D01*
X114567Y39750D01*
X114294Y39092D01*
X114201Y38386D01*
X114294Y37680D01*
X114567Y37022D01*
X115000Y36457D01*
X115565Y36023D01*
X116223Y35751D01*
X116929Y35658D01*
X117635Y35751D01*
X118293Y36023D01*
X118858Y36457D01*
X119292Y37022D01*
X119564Y37680D01*
X119657Y38386D01*
X119564Y39092D01*
X119292Y39750D01*
X118858Y40315D01*
X118293Y40748D01*
X117635Y41021D01*
X116929Y41114D01*
D02*
G37*
G36*
X87402D02*
X86696Y41021D01*
X86038Y40748D01*
X85473Y40315D01*
X85039Y39750D01*
X84767Y39092D01*
X84674Y38386D01*
X84767Y37680D01*
X85039Y37022D01*
X85473Y36457D01*
X86038Y36023D01*
X86696Y35751D01*
X87402Y35658D01*
X88108Y35751D01*
X88766Y36023D01*
X89331Y36457D01*
X89764Y37022D01*
X90037Y37680D01*
X90130Y38386D01*
X90037Y39092D01*
X89764Y39750D01*
X89331Y40315D01*
X88766Y40748D01*
X88108Y41021D01*
X87402Y41114D01*
D02*
G37*
G36*
X57874D02*
X57168Y41021D01*
X56510Y40748D01*
X55945Y40315D01*
X55511Y39750D01*
X55239Y39092D01*
X55146Y38386D01*
X55239Y37680D01*
X55511Y37022D01*
X55945Y36457D01*
X56510Y36023D01*
X57168Y35751D01*
X57874Y35658D01*
X58580Y35751D01*
X59238Y36023D01*
X59803Y36457D01*
X60237Y37022D01*
X60509Y37680D01*
X60602Y38386D01*
X60509Y39092D01*
X60237Y39750D01*
X59803Y40315D01*
X59238Y40748D01*
X58580Y41021D01*
X57874Y41114D01*
D02*
G37*
G36*
X0Y45361D02*
X-1553Y45208D01*
X-3046Y44755D01*
X-4422Y44020D01*
X-5628Y43030D01*
X-6618Y41824D01*
X-7354Y40447D01*
X-7807Y38954D01*
X-7960Y37401D01*
X-7807Y35849D01*
X-7354Y34355D01*
X-6618Y32979D01*
X-5628Y31773D01*
X-4422Y30783D01*
X-3046Y30048D01*
X-1553Y29595D01*
X0Y29442D01*
X1553Y29595D01*
X3046Y30048D01*
X4422Y30783D01*
X5628Y31773D01*
X6618Y32979D01*
X7354Y34355D01*
X7807Y35849D01*
X7960Y37401D01*
X7807Y38954D01*
X7354Y40447D01*
X6618Y41824D01*
X5628Y43030D01*
X4422Y44020D01*
X3046Y44755D01*
X1553Y45208D01*
X0Y45361D01*
D02*
G37*
G36*
X28740Y32957D02*
X27649Y32814D01*
X26632Y32392D01*
X25758Y31722D01*
X25088Y30849D01*
X24667Y29832D01*
X24523Y28740D01*
X24667Y27649D01*
X25088Y26632D01*
X25758Y25758D01*
X26632Y25088D01*
X27649Y24667D01*
X28740Y24523D01*
X29832Y24667D01*
X30849Y25088D01*
X31722Y25758D01*
X32392Y26632D01*
X32814Y27649D01*
X32957Y28740D01*
X32814Y29832D01*
X32392Y30849D01*
X31722Y31722D01*
X30849Y32392D01*
X29832Y32814D01*
X28740Y32957D01*
D02*
G37*
G36*
X-33150Y48530D02*
X-33379Y48485D01*
X-33613Y48478D01*
X-33718Y48430D01*
X-33832Y48414D01*
X-33881Y48385D01*
X-33937Y48374D01*
X-34131Y48244D01*
X-34344Y48148D01*
X-36271Y46773D01*
X-36331Y46711D01*
X-36406Y46669D01*
X-40020Y43609D01*
X-40074Y43542D01*
X-40145Y43494D01*
X-43494Y40145D01*
X-43542Y40074D01*
X-43609Y40020D01*
X-46669Y36406D01*
X-46711Y36331D01*
X-46773Y36271D01*
X-48148Y34344D01*
X-48267Y34080D01*
X-48414Y33832D01*
X-48430Y33718D01*
X-48478Y33613D01*
X-48487Y33324D01*
X-48527Y33038D01*
X-48499Y32926D01*
X-48502Y32811D01*
X-48400Y32541D01*
X-48328Y32261D01*
X-48259Y32169D01*
X-48218Y32061D01*
X-48020Y31851D01*
X-47847Y31620D01*
X-39723Y24338D01*
X-39611Y24272D01*
X-39521Y24178D01*
X-39269Y24069D01*
X-39033Y23929D01*
X-38904Y23911D01*
X-38785Y23859D01*
X-38511Y23855D01*
X-38239Y23816D01*
X-38113Y23848D01*
X-37983Y23846D01*
X-37728Y23947D01*
X-37462Y24015D01*
X-37358Y24093D01*
X-37237Y24141D01*
X-37040Y24332D01*
X-36821Y24496D01*
X-36755Y24608D01*
X-36661Y24699D01*
X-36050Y25581D01*
X-34774Y27291D01*
X-33424Y28928D01*
X-33406Y28948D01*
X-33109Y28810D01*
X-32952Y28703D01*
X-32814Y27649D01*
X-32392Y26632D01*
X-31722Y25758D01*
X-30849Y25088D01*
X-29832Y24667D01*
X-28740Y24523D01*
X-27649Y24667D01*
X-26632Y25088D01*
X-25758Y25758D01*
X-25088Y26632D01*
X-24667Y27649D01*
X-24523Y28740D01*
X-24667Y29832D01*
X-25088Y30849D01*
X-25758Y31722D01*
X-26632Y32392D01*
X-27649Y32814D01*
X-28703Y32952D01*
X-28810Y33109D01*
X-28948Y33406D01*
X-28928Y33424D01*
X-27291Y34774D01*
X-25581Y36050D01*
X-24699Y36661D01*
X-24608Y36755D01*
X-24496Y36821D01*
X-24332Y37040D01*
X-24141Y37237D01*
X-24093Y37358D01*
X-24015Y37462D01*
X-23947Y37728D01*
X-23846Y37983D01*
X-23848Y38113D01*
X-23816Y38239D01*
X-23855Y38511D01*
X-23859Y38785D01*
X-23911Y38904D01*
X-23929Y39033D01*
X-24069Y39269D01*
X-24178Y39521D01*
X-24272Y39611D01*
X-24338Y39723D01*
X-31620Y47847D01*
X-31666Y47881D01*
X-31697Y47928D01*
X-31891Y48058D01*
X-32061Y48218D01*
X-32169Y48259D01*
X-32261Y48328D01*
X-32317Y48342D01*
X-32364Y48374D01*
X-32593Y48419D01*
X-32811Y48502D01*
X-32926Y48499D01*
X-33038Y48527D01*
X-33095Y48519D01*
X-33150Y48530D01*
D02*
G37*
G36*
X147244Y28031D02*
X146307Y27908D01*
X145433Y27546D01*
X144683Y26970D01*
X144108Y26220D01*
X143746Y25347D01*
X143623Y24409D01*
X143746Y23472D01*
X143943Y22996D01*
X143912Y22441D01*
X143446Y22084D01*
X143110Y22039D01*
X142775Y22084D01*
X142309Y22441D01*
X141651Y22714D01*
X140945Y22807D01*
X140239Y22714D01*
X139581Y22441D01*
X139016Y22008D01*
X138582Y21443D01*
X138310Y20785D01*
X138217Y20079D01*
X138310Y19373D01*
X138582Y18715D01*
X139016Y18150D01*
Y18071D01*
X138582Y17506D01*
X138310Y16848D01*
X138217Y16142D01*
X138310Y15436D01*
X138582Y14778D01*
X138940Y14312D01*
X138984Y13976D01*
X138940Y13641D01*
X138582Y13175D01*
X138310Y12517D01*
X138217Y11811D01*
X138310Y11105D01*
X138582Y10447D01*
X138940Y9981D01*
X138984Y9646D01*
X138940Y9310D01*
X138582Y8844D01*
X138310Y8186D01*
X138217Y7480D01*
X138310Y6774D01*
X138582Y6116D01*
X139016Y5551D01*
X139581Y5118D01*
X140239Y4845D01*
X140945Y4752D01*
X141651Y4845D01*
X142309Y5118D01*
X142775Y5475D01*
X143110Y5520D01*
X143446Y5475D01*
X143912Y5118D01*
X144570Y4845D01*
X145276Y4752D01*
X145982Y4845D01*
X146640Y5118D01*
X147205Y5551D01*
X147638Y6116D01*
X147911Y6774D01*
X148004Y7480D01*
X147911Y8186D01*
X147638Y8844D01*
X147281Y9310D01*
X147236Y9646D01*
X147281Y9981D01*
X147638Y10447D01*
X147911Y11105D01*
X148004Y11811D01*
X147911Y12517D01*
X147638Y13175D01*
X147281Y13641D01*
X147236Y13976D01*
X147281Y14312D01*
X147638Y14778D01*
X147911Y15436D01*
X148004Y16142D01*
X147911Y16848D01*
X147638Y17506D01*
X147205Y18071D01*
Y18150D01*
X147638Y18715D01*
X147911Y19373D01*
X148004Y20079D01*
X147964Y20378D01*
X148181Y20911D01*
X149055Y21273D01*
X149805Y21849D01*
X150380Y22599D01*
X150742Y23472D01*
X150866Y24409D01*
X150742Y25347D01*
X150380Y26220D01*
X149805Y26970D01*
X149055Y27546D01*
X148181Y27908D01*
X147244Y28031D01*
D02*
G37*
G36*
X87402Y24480D02*
X86696Y24387D01*
X86038Y24115D01*
X85473Y23681D01*
X85039Y23116D01*
X84767Y22458D01*
X84674Y21752D01*
X84767Y21046D01*
X85039Y20388D01*
X85473Y19823D01*
X86038Y19389D01*
X86696Y19117D01*
X87402Y19024D01*
X88108Y19117D01*
X88766Y19389D01*
X89331Y19823D01*
X89764Y20388D01*
X90037Y21046D01*
X90130Y21752D01*
X90037Y22458D01*
X89764Y23116D01*
X89331Y23681D01*
X88766Y24115D01*
X88108Y24387D01*
X87402Y24480D01*
D02*
G37*
G36*
X57874Y24480D02*
X57168Y24387D01*
X56510Y24114D01*
X55945Y23681D01*
X55511Y23116D01*
X55239Y22458D01*
X55146Y21752D01*
X55239Y21046D01*
X55511Y20388D01*
X55945Y19823D01*
X56510Y19389D01*
X57168Y19117D01*
X57874Y19024D01*
X58580Y19117D01*
X59238Y19389D01*
X59803Y19823D01*
X60237Y20388D01*
X60509Y21046D01*
X60602Y21752D01*
X60509Y22458D01*
X60237Y23116D01*
X59803Y23681D01*
X59238Y24114D01*
X58580Y24387D01*
X57874Y24480D01*
D02*
G37*
G36*
X116929D02*
X116223Y24387D01*
X115565Y24114D01*
X115000Y23681D01*
X114567Y23116D01*
X114294Y22458D01*
X114201Y21752D01*
X114294Y21046D01*
X114567Y20388D01*
X114941Y19900D01*
X114905Y19344D01*
X114778Y19292D01*
X114213Y18858D01*
X113779Y18293D01*
X113507Y17635D01*
X113414Y16929D01*
X113507Y16223D01*
X113779Y15565D01*
X114213Y15000D01*
X114778Y14567D01*
X115436Y14294D01*
X116142Y14201D01*
X116848Y14294D01*
X117506Y14567D01*
X118071Y15000D01*
X118504Y15565D01*
X118777Y16223D01*
X118870Y16929D01*
X118777Y17635D01*
X118504Y18293D01*
X118130Y18781D01*
X118166Y19337D01*
X118293Y19389D01*
X118858Y19823D01*
X119292Y20388D01*
X119564Y21046D01*
X119657Y21752D01*
X119564Y22458D01*
X119292Y23116D01*
X118858Y23681D01*
X118293Y24114D01*
X117635Y24387D01*
X116929Y24480D01*
D02*
G37*
G36*
X100984Y20642D02*
X100278Y20549D01*
X99620Y20276D01*
X99055Y19842D01*
X98622Y19277D01*
X98349Y18620D01*
X98256Y17913D01*
X98349Y17207D01*
X98622Y16549D01*
X99055Y15984D01*
X99584Y15578D01*
X99590Y15568D01*
X99621Y15400D01*
X99623Y15009D01*
X99252Y14724D01*
X98818Y14159D01*
X98546Y13501D01*
X98453Y12795D01*
X98546Y12089D01*
X98818Y11431D01*
X99252Y10866D01*
X99817Y10433D01*
X100475Y10160D01*
X101181Y10067D01*
X101887Y10160D01*
X102545Y10433D01*
X103110Y10866D01*
X103544Y11431D01*
X103816Y12089D01*
X103909Y12795D01*
X103816Y13501D01*
X103544Y14159D01*
X103110Y14724D01*
X102581Y15130D01*
X102575Y15141D01*
X102544Y15309D01*
X102543Y15700D01*
X102913Y15984D01*
X103347Y16549D01*
X103619Y17207D01*
X103712Y17913D01*
X103619Y18620D01*
X103347Y19277D01*
X102913Y19842D01*
X102348Y20276D01*
X101690Y20549D01*
X100984Y20642D01*
D02*
G37*
G36*
X71457Y20641D02*
X70751Y20548D01*
X70093Y20276D01*
X69528Y19842D01*
X69094Y19277D01*
X68822Y18619D01*
X68729Y17913D01*
X68822Y17207D01*
X69094Y16549D01*
X69528Y15984D01*
X70057Y15578D01*
X70062Y15568D01*
X70093Y15399D01*
X70095Y15009D01*
X69725Y14724D01*
X69291Y14159D01*
X69018Y13501D01*
X68925Y12795D01*
X69018Y12089D01*
X69291Y11431D01*
X69725Y10866D01*
X70289Y10433D01*
X70947Y10160D01*
X71653Y10067D01*
X72360Y10160D01*
X73018Y10433D01*
X73583Y10866D01*
X74016Y11431D01*
X74289Y12089D01*
X74382Y12795D01*
X74289Y13501D01*
X74016Y14159D01*
X73583Y14724D01*
X73053Y15130D01*
X73048Y15141D01*
X73017Y15310D01*
X73015Y15700D01*
X73386Y15984D01*
X73819Y16549D01*
X74092Y17207D01*
X74185Y17913D01*
X74092Y18619D01*
X73819Y19277D01*
X73386Y19842D01*
X72821Y20276D01*
X72163Y20548D01*
X71457Y20641D01*
D02*
G37*
G36*
X130512D02*
X129806Y20548D01*
X129148Y20276D01*
X128583Y19842D01*
X128149Y19277D01*
X127877Y18619D01*
X127784Y17913D01*
X127877Y17207D01*
X128149Y16549D01*
X128583Y15984D01*
X129112Y15578D01*
X129118Y15568D01*
X129148Y15400D01*
X129150Y15009D01*
X128780Y14724D01*
X128346Y14159D01*
X128074Y13501D01*
X127981Y12795D01*
X128074Y12089D01*
X128346Y11431D01*
X128780Y10866D01*
X129345Y10432D01*
X130002Y10160D01*
X130709Y10067D01*
X131415Y10160D01*
X132073Y10432D01*
X132638Y10866D01*
X133071Y11431D01*
X133344Y12089D01*
X133437Y12795D01*
X133344Y13501D01*
X133071Y14159D01*
X132638Y14724D01*
X132108Y15130D01*
X132103Y15141D01*
X132072Y15309D01*
X132070Y15700D01*
X132441Y15984D01*
X132874Y16549D01*
X133147Y17207D01*
X133240Y17913D01*
X133147Y18619D01*
X132874Y19277D01*
X132441Y19842D01*
X131876Y20276D01*
X131218Y20548D01*
X130512Y20641D01*
D02*
G37*
G36*
X65354Y15425D02*
X64648Y15332D01*
X63990Y15059D01*
X63425Y14626D01*
X62992Y14061D01*
X62719Y13403D01*
X62626Y12697D01*
X62719Y11991D01*
X62992Y11333D01*
X63425Y10768D01*
X63990Y10334D01*
X64648Y10062D01*
X65354Y9969D01*
X66060Y10062D01*
X66718Y10334D01*
X67283Y10768D01*
X67717Y11333D01*
X67989Y11991D01*
X68082Y12697D01*
X67989Y13403D01*
X67717Y14061D01*
X67283Y14626D01*
X66718Y15059D01*
X66060Y15332D01*
X65354Y15425D01*
D02*
G37*
G36*
X124409Y15425D02*
X123703Y15332D01*
X123045Y15059D01*
X122480Y14626D01*
X122047Y14061D01*
X121774Y13403D01*
X121681Y12697D01*
X121774Y11991D01*
X122047Y11333D01*
X122480Y10768D01*
X123045Y10334D01*
X123703Y10062D01*
X124409Y9969D01*
X125115Y10062D01*
X125773Y10334D01*
X126338Y10768D01*
X126772Y11333D01*
X127044Y11991D01*
X127137Y12697D01*
X127044Y13403D01*
X126772Y14061D01*
X126338Y14626D01*
X125773Y15059D01*
X125115Y15332D01*
X124409Y15425D01*
D02*
G37*
G36*
X94882D02*
X94176Y15332D01*
X93518Y15059D01*
X92953Y14626D01*
X92519Y14061D01*
X92247Y13403D01*
X92154Y12697D01*
X92247Y11991D01*
X92519Y11333D01*
X92953Y10768D01*
X93518Y10334D01*
X94176Y10062D01*
X94882Y9969D01*
X95588Y10062D01*
X96246Y10334D01*
X96811Y10768D01*
X97245Y11333D01*
X97517Y11991D01*
X97610Y12697D01*
X97517Y13403D01*
X97245Y14061D01*
X96811Y14626D01*
X96246Y15059D01*
X95588Y15332D01*
X94882Y15425D01*
D02*
G37*
G36*
X86614Y11783D02*
X85908Y11690D01*
X85250Y11418D01*
X84685Y10984D01*
X84252Y10419D01*
X83979Y9761D01*
X83886Y9055D01*
X83979Y8349D01*
X84252Y7691D01*
X84685Y7126D01*
X85250Y6692D01*
X85908Y6420D01*
X86614Y6327D01*
X87320Y6420D01*
X87978Y6692D01*
X88543Y7126D01*
X88977Y7691D01*
X89249Y8349D01*
X89342Y9055D01*
X89249Y9761D01*
X88977Y10419D01*
X88543Y10984D01*
X87978Y11418D01*
X87320Y11690D01*
X86614Y11783D01*
D02*
G37*
G36*
X57087D02*
X56381Y11690D01*
X55723Y11418D01*
X55158Y10984D01*
X54724Y10419D01*
X54452Y9761D01*
X54359Y9055D01*
X54452Y8349D01*
X54724Y7691D01*
X55158Y7126D01*
X55723Y6692D01*
X56381Y6420D01*
X57087Y6327D01*
X57793Y6420D01*
X58451Y6692D01*
X59016Y7126D01*
X59449Y7691D01*
X59722Y8349D01*
X59815Y9055D01*
X59722Y9761D01*
X59449Y10419D01*
X59016Y10984D01*
X58451Y11418D01*
X57793Y11690D01*
X57087Y11783D01*
D02*
G37*
G36*
X130315Y3122D02*
X129609Y3029D01*
X128951Y2756D01*
X128386Y2323D01*
X127952Y1758D01*
X127830Y1461D01*
X127288D01*
X127166Y1758D01*
X126732Y2323D01*
X126167Y2756D01*
X125509Y3029D01*
X124803Y3122D01*
X124097Y3029D01*
X123439Y2756D01*
X122874Y2323D01*
X122441Y1758D01*
X122168Y1100D01*
X122075Y394D01*
X122168Y-312D01*
X122441Y-970D01*
X122753Y-1378D01*
X122441Y-1786D01*
X122168Y-2444D01*
X122075Y-3150D01*
X122168Y-3856D01*
X122441Y-4514D01*
X122874Y-5079D01*
X123439Y-5512D01*
X124097Y-5785D01*
X124803Y-5878D01*
X125509Y-5785D01*
X126167Y-5512D01*
X126732Y-5079D01*
X127166Y-4514D01*
X127288Y-4217D01*
X127830D01*
X127952Y-4514D01*
X128386Y-5079D01*
X128951Y-5512D01*
X129609Y-5785D01*
X130315Y-5878D01*
X131021Y-5785D01*
X131679Y-5512D01*
X132244Y-5079D01*
X132677Y-4514D01*
X132950Y-3856D01*
X133043Y-3150D01*
X132950Y-2444D01*
X132677Y-1786D01*
X132365Y-1378D01*
X132677Y-970D01*
X132950Y-312D01*
X133043Y394D01*
X132950Y1100D01*
X132677Y1758D01*
X132244Y2323D01*
X131679Y2756D01*
X131021Y3029D01*
X130315Y3122D01*
D02*
G37*
G36*
X105118D02*
X104412Y3029D01*
X103754Y2756D01*
X103189Y2323D01*
X102755Y1758D01*
X102633Y1461D01*
X102092D01*
X101969Y1758D01*
X101535Y2323D01*
X100970Y2756D01*
X100312Y3029D01*
X99606Y3122D01*
X98900Y3029D01*
X98242Y2756D01*
X97677Y2323D01*
X97244Y1758D01*
X96971Y1100D01*
X96878Y394D01*
X96971Y-312D01*
X97244Y-970D01*
X97557Y-1378D01*
X97244Y-1786D01*
X96971Y-2444D01*
X96878Y-3150D01*
X96971Y-3856D01*
X97244Y-4514D01*
X97677Y-5079D01*
X98242Y-5512D01*
X98900Y-5785D01*
X99606Y-5878D01*
X100312Y-5785D01*
X100970Y-5512D01*
X101535Y-5079D01*
X101969Y-4514D01*
X102092Y-4217D01*
X102633D01*
X102755Y-4514D01*
X103189Y-5079D01*
X103754Y-5512D01*
X104412Y-5785D01*
X105118Y-5878D01*
X105824Y-5785D01*
X106482Y-5512D01*
X107047Y-5079D01*
X107481Y-4514D01*
X107753Y-3856D01*
X107846Y-3150D01*
X107753Y-2444D01*
X107481Y-1786D01*
X107168Y-1378D01*
X107481Y-970D01*
X107753Y-312D01*
X107846Y394D01*
X107753Y1100D01*
X107481Y1758D01*
X107047Y2323D01*
X106482Y2756D01*
X105824Y3029D01*
X105118Y3122D01*
D02*
G37*
G36*
X79921D02*
X79215Y3029D01*
X78557Y2756D01*
X77992Y2323D01*
X77559Y1758D01*
X77436Y1461D01*
X76895D01*
X76772Y1758D01*
X76338Y2323D01*
X75774Y2756D01*
X75116Y3029D01*
X74410Y3122D01*
X73703Y3029D01*
X73045Y2756D01*
X72480Y2323D01*
X72047Y1758D01*
X71774Y1100D01*
X71681Y394D01*
X71774Y-312D01*
X72047Y-970D01*
X72360Y-1378D01*
X72047Y-1786D01*
X71774Y-2444D01*
X71681Y-3150D01*
X71774Y-3856D01*
X72047Y-4514D01*
X72480Y-5079D01*
X73045Y-5512D01*
X73703Y-5785D01*
X74410Y-5878D01*
X75116Y-5785D01*
X75774Y-5512D01*
X76338Y-5079D01*
X76772Y-4514D01*
X76895Y-4217D01*
X77436D01*
X77559Y-4514D01*
X77992Y-5079D01*
X78557Y-5512D01*
X79215Y-5785D01*
X79921Y-5878D01*
X80627Y-5785D01*
X81285Y-5512D01*
X81850Y-5079D01*
X82284Y-4514D01*
X82556Y-3856D01*
X82649Y-3150D01*
X82556Y-2444D01*
X82284Y-1786D01*
X81971Y-1378D01*
X82284Y-970D01*
X82556Y-312D01*
X82649Y394D01*
X82556Y1100D01*
X82284Y1758D01*
X81850Y2323D01*
X81285Y2756D01*
X80627Y3029D01*
X79921Y3122D01*
D02*
G37*
G36*
X144095Y-815D02*
X143388Y-908D01*
X142730Y-1181D01*
X142265Y-1538D01*
X141929Y-1583D01*
X141594Y-1538D01*
X141128Y-1181D01*
X140470Y-908D01*
X139764Y-815D01*
X139058Y-908D01*
X138400Y-1181D01*
X137835Y-1614D01*
X137401Y-2179D01*
X137129Y-2837D01*
X137036Y-3543D01*
X137129Y-4249D01*
X137401Y-4907D01*
X137835Y-5472D01*
X138400Y-5906D01*
X139058Y-6178D01*
X139764Y-6271D01*
X140470Y-6178D01*
X141128Y-5906D01*
X141594Y-5548D01*
X141929Y-5504D01*
X142265Y-5548D01*
X142730Y-5906D01*
X143388Y-6178D01*
X144095Y-6271D01*
X144800Y-6178D01*
X145458Y-5906D01*
X146023Y-5472D01*
X146457Y-4907D01*
X146730Y-4249D01*
X146823Y-3543D01*
X146730Y-2837D01*
X146457Y-2179D01*
X146023Y-1614D01*
X145458Y-1181D01*
X144800Y-908D01*
X144095Y-815D01*
D02*
G37*
G36*
X66142D02*
X65436Y-908D01*
X64778Y-1181D01*
X64213Y-1614D01*
X63779Y-2179D01*
X63507Y-2837D01*
X63451Y-3256D01*
X63441Y-3335D01*
X62937D01*
X62927Y-3256D01*
X62871Y-2837D01*
X62599Y-2179D01*
X62165Y-1614D01*
X61600Y-1181D01*
X60942Y-908D01*
X60236Y-815D01*
X59530Y-908D01*
X58872Y-1181D01*
X58307Y-1614D01*
X57874Y-2179D01*
X57601Y-2837D01*
X57508Y-3543D01*
X57601Y-4249D01*
X57874Y-4907D01*
X58307Y-5472D01*
X58872Y-5906D01*
X59530Y-6178D01*
X60236Y-6271D01*
X60942Y-6178D01*
X61600Y-5906D01*
X62165Y-5472D01*
X62599Y-4907D01*
X62871Y-4249D01*
X62927Y-3830D01*
X62937Y-3752D01*
X63441D01*
X63451Y-3830D01*
X63507Y-4249D01*
X63779Y-4907D01*
X64213Y-5472D01*
X64778Y-5906D01*
X65436Y-6178D01*
X66142Y-6271D01*
X66848Y-6178D01*
X67506Y-5906D01*
X68071Y-5472D01*
X68504Y-4907D01*
X68777Y-4249D01*
X68870Y-3543D01*
X68777Y-2837D01*
X68504Y-2179D01*
X68071Y-1614D01*
X67506Y-1181D01*
X66848Y-908D01*
X66142Y-815D01*
D02*
G37*
G36*
X-54331Y1547D02*
X-55037Y1454D01*
X-55695Y1182D01*
X-56260Y748D01*
X-56693Y183D01*
X-56966Y-475D01*
X-57059Y-1181D01*
X-56966Y-1887D01*
X-56693Y-2545D01*
X-56260Y-3110D01*
X-55695Y-3544D01*
X-55037Y-3816D01*
X-54331Y-3909D01*
X-53625Y-3816D01*
X-52967Y-3544D01*
X-52402Y-3110D01*
X-51968Y-2545D01*
X-51696Y-1887D01*
X-51603Y-1181D01*
X-51696Y-475D01*
X-51968Y183D01*
X-52402Y748D01*
X-52967Y1182D01*
X-53625Y1454D01*
X-54331Y1547D01*
D02*
G37*
G36*
X31496Y7960D02*
X29943Y7807D01*
X28450Y7354D01*
X27074Y6618D01*
X25868Y5628D01*
X24878Y4422D01*
X24142Y3046D01*
X23689Y1553D01*
X23536Y0D01*
X23689Y-1553D01*
X24142Y-3046D01*
X24878Y-4422D01*
X25868Y-5628D01*
X27074Y-6618D01*
X28450Y-7354D01*
X29943Y-7807D01*
X31496Y-7960D01*
X33049Y-7807D01*
X34542Y-7354D01*
X35918Y-6618D01*
X37124Y-5628D01*
X38114Y-4422D01*
X38850Y-3046D01*
X39303Y-1553D01*
X39456Y0D01*
X39303Y1553D01*
X38850Y3046D01*
X38114Y4422D01*
X37124Y5628D01*
X35918Y6618D01*
X34542Y7354D01*
X33049Y7807D01*
X31496Y7960D01*
D02*
G37*
G36*
X-31496D02*
X-33049Y7807D01*
X-34542Y7354D01*
X-35918Y6618D01*
X-37124Y5628D01*
X-38114Y4422D01*
X-38850Y3046D01*
X-39303Y1553D01*
X-39456Y0D01*
X-39303Y-1553D01*
X-38850Y-3046D01*
X-38114Y-4422D01*
X-37124Y-5628D01*
X-35918Y-6618D01*
X-34542Y-7354D01*
X-33049Y-7807D01*
X-31496Y-7960D01*
X-29943Y-7807D01*
X-28450Y-7354D01*
X-27074Y-6618D01*
X-25868Y-5628D01*
X-24878Y-4422D01*
X-24142Y-3046D01*
X-23689Y-1553D01*
X-23537Y0D01*
X-23689Y1553D01*
X-24142Y3046D01*
X-24878Y4422D01*
X-25868Y5628D01*
X-27074Y6618D01*
X-28450Y7354D01*
X-29943Y7807D01*
X-31496Y7960D01*
D02*
G37*
G36*
X83465Y-6061D02*
X82758Y-6154D01*
X82100Y-6426D01*
X81536Y-6860D01*
X81102Y-7425D01*
X80830Y-8083D01*
X80737Y-8789D01*
X80830Y-9495D01*
X81102Y-10153D01*
X81536Y-10718D01*
X82100Y-11151D01*
X82758Y-11424D01*
X83465Y-11517D01*
X84171Y-11424D01*
X84829Y-11151D01*
X85394Y-10718D01*
X85827Y-10153D01*
X86100Y-9495D01*
X86193Y-8789D01*
X86100Y-8083D01*
X85827Y-7425D01*
X85394Y-6860D01*
X84829Y-6426D01*
X84171Y-6154D01*
X83465Y-6061D01*
D02*
G37*
G36*
X109055Y-6327D02*
X108349Y-6420D01*
X107691Y-6692D01*
X107126Y-7126D01*
X106693Y-7691D01*
X106420Y-8349D01*
X106327Y-9055D01*
X106420Y-9761D01*
X106693Y-10419D01*
X107126Y-10984D01*
X107691Y-11418D01*
X108349Y-11690D01*
X109055Y-11783D01*
X109761Y-11690D01*
X110419Y-11418D01*
X110984Y-10984D01*
X111418Y-10419D01*
X111690Y-9761D01*
X111783Y-9055D01*
X111690Y-8349D01*
X111418Y-7691D01*
X110984Y-7126D01*
X110419Y-6692D01*
X109761Y-6420D01*
X109055Y-6327D01*
D02*
G37*
G36*
X53937Y-8886D02*
X53231Y-8979D01*
X52573Y-9252D01*
X52008Y-9685D01*
X51574Y-10250D01*
X51302Y-10908D01*
X51209Y-11614D01*
X51302Y-12320D01*
X51574Y-12978D01*
X52008Y-13543D01*
X52573Y-13977D01*
X53231Y-14249D01*
X53937Y-14342D01*
X54643Y-14249D01*
X55301Y-13977D01*
X55866Y-13543D01*
X56300Y-12978D01*
X56572Y-12320D01*
X56665Y-11614D01*
X56572Y-10908D01*
X56300Y-10250D01*
X55866Y-9685D01*
X55301Y-9252D01*
X54643Y-8979D01*
X53937Y-8886D01*
D02*
G37*
G36*
X0Y17802D02*
X-2324Y17650D01*
X-4608Y17195D01*
X-6813Y16447D01*
X-8901Y15417D01*
X-10837Y14123D01*
X-12588Y12588D01*
X-14123Y10837D01*
X-15417Y8901D01*
X-16447Y6813D01*
X-17195Y4608D01*
X-17650Y2324D01*
X-17802Y0D01*
X-17650Y-2324D01*
X-17195Y-4608D01*
X-16447Y-6813D01*
X-15417Y-8901D01*
X-14123Y-10837D01*
X-12588Y-12588D01*
X-10837Y-14123D01*
X-8901Y-15417D01*
X-6813Y-16447D01*
X-4608Y-17195D01*
X-2324Y-17650D01*
X0Y-17802D01*
X2324Y-17650D01*
X4608Y-17195D01*
X6813Y-16447D01*
X8901Y-15417D01*
X10837Y-14123D01*
X12588Y-12588D01*
X14123Y-10837D01*
X15417Y-8901D01*
X16447Y-6813D01*
X17195Y-4608D01*
X17650Y-2324D01*
X17802Y0D01*
X17650Y2324D01*
X17195Y4608D01*
X16447Y6813D01*
X15417Y8901D01*
X14123Y10837D01*
X12588Y12588D01*
X10837Y14123D01*
X8901Y15417D01*
X6813Y16447D01*
X4608Y17195D01*
X2324Y17650D01*
X0Y17802D01*
D02*
G37*
G36*
X127953Y-11761D02*
X126921Y-11897D01*
X125959Y-12295D01*
X125134Y-12929D01*
X124500Y-13755D01*
X124102Y-14716D01*
X123966Y-15748D01*
X124102Y-16780D01*
X124500Y-17741D01*
X125134Y-18567D01*
X125959Y-19201D01*
X126921Y-19599D01*
X127953Y-19735D01*
X128985Y-19599D01*
X129946Y-19201D01*
X130772Y-18567D01*
X131405Y-17741D01*
X131804Y-16780D01*
X131940Y-15748D01*
X131804Y-14716D01*
X131405Y-13755D01*
X130772Y-12929D01*
X129946Y-12295D01*
X128985Y-11897D01*
X127953Y-11761D01*
D02*
G37*
G36*
X102362D02*
X101330Y-11897D01*
X100369Y-12295D01*
X99543Y-12929D01*
X98909Y-13755D01*
X98511Y-14716D01*
X98375Y-15748D01*
X98511Y-16780D01*
X98909Y-17741D01*
X99543Y-18567D01*
X100369Y-19201D01*
X101330Y-19599D01*
X102362Y-19735D01*
X103394Y-19599D01*
X104356Y-19201D01*
X105181Y-18567D01*
X105815Y-17741D01*
X106213Y-16780D01*
X106349Y-15748D01*
X106213Y-14716D01*
X105815Y-13755D01*
X105181Y-12929D01*
X104356Y-12295D01*
X103394Y-11897D01*
X102362Y-11761D01*
D02*
G37*
G36*
X77165D02*
X76134Y-11897D01*
X75172Y-12295D01*
X74346Y-12929D01*
X73713Y-13755D01*
X73314Y-14716D01*
X73178Y-15748D01*
X73314Y-16780D01*
X73713Y-17741D01*
X74346Y-18567D01*
X75172Y-19201D01*
X76134Y-19599D01*
X77165Y-19735D01*
X78197Y-19599D01*
X79159Y-19201D01*
X79984Y-18567D01*
X80618Y-17741D01*
X81016Y-16780D01*
X81152Y-15748D01*
X81016Y-14716D01*
X80618Y-13755D01*
X79984Y-12929D01*
X79159Y-12295D01*
X78197Y-11897D01*
X77165Y-11761D01*
D02*
G37*
G36*
X135039Y-19319D02*
X134333Y-19412D01*
X133675Y-19685D01*
X133110Y-20118D01*
X132677Y-20683D01*
X132404Y-21341D01*
X132311Y-22047D01*
X132404Y-22753D01*
X132677Y-23411D01*
X133110Y-23976D01*
X133675Y-24410D01*
X134333Y-24682D01*
X135039Y-24775D01*
X135745Y-24682D01*
X136403Y-24410D01*
X136968Y-23976D01*
X137402Y-23411D01*
X137674Y-22753D01*
X137767Y-22047D01*
X137674Y-21341D01*
X137402Y-20683D01*
X136968Y-20118D01*
X136403Y-19685D01*
X135745Y-19412D01*
X135039Y-19319D01*
D02*
G37*
G36*
X56855Y-18595D02*
X56055Y-18765D01*
X55326Y-19136D01*
X54718Y-19683D01*
X54272Y-20369D01*
X54019Y-21147D01*
X53976Y-21964D01*
X54146Y-22764D01*
X54517Y-23493D01*
X55064Y-24101D01*
X55750Y-24546D01*
X56258Y-24789D01*
X56510Y-25117D01*
X57239Y-25677D01*
X58089Y-26029D01*
X59000Y-26149D01*
X59083Y-26138D01*
X59551Y-26361D01*
X60329Y-26614D01*
X61146Y-26657D01*
X61946Y-26488D01*
X62675Y-26117D01*
X63283Y-25569D01*
X63728Y-24884D01*
X63981Y-24106D01*
X64025Y-23289D01*
X63855Y-22489D01*
X63484Y-21760D01*
X62937Y-21152D01*
X62251Y-20706D01*
X61742Y-20464D01*
X61491Y-20136D01*
X60761Y-19576D01*
X59912Y-19224D01*
X59000Y-19104D01*
X58917Y-19115D01*
X58449Y-18891D01*
X57671Y-18639D01*
X56855Y-18595D01*
D02*
G37*
G36*
X-28740Y-24523D02*
X-29832Y-24667D01*
X-30849Y-25088D01*
X-31722Y-25758D01*
X-32392Y-26632D01*
X-32814Y-27649D01*
X-32957Y-28740D01*
X-32814Y-29832D01*
X-32392Y-30849D01*
X-31722Y-31722D01*
X-30849Y-32392D01*
X-29832Y-32814D01*
X-28740Y-32957D01*
X-27649Y-32814D01*
X-26632Y-32392D01*
X-25758Y-31722D01*
X-25088Y-30849D01*
X-24667Y-29832D01*
X-24523Y-28740D01*
X-24667Y-27649D01*
X-25088Y-26632D01*
X-25758Y-25758D01*
X-26632Y-25088D01*
X-27649Y-24667D01*
X-28740Y-24523D01*
D02*
G37*
G36*
X52546Y-27620D02*
X51746Y-27790D01*
X51017Y-28161D01*
X50409Y-28708D01*
X49964Y-29394D01*
X49711Y-30171D01*
X49668Y-30988D01*
X49837Y-31788D01*
X50208Y-32517D01*
X50756Y-33125D01*
X51441Y-33571D01*
X51950Y-33813D01*
X52201Y-34141D01*
X52931Y-34701D01*
X53780Y-35053D01*
X54692Y-35173D01*
X54775Y-35162D01*
X55243Y-35386D01*
X56021Y-35639D01*
X56837Y-35682D01*
X57638Y-35512D01*
X58366Y-35141D01*
X58974Y-34594D01*
X59420Y-33908D01*
X59673Y-33130D01*
X59716Y-32313D01*
X59547Y-31513D01*
X59175Y-30784D01*
X58628Y-30176D01*
X57943Y-29731D01*
X57434Y-29488D01*
X57183Y-29160D01*
X56453Y-28600D01*
X55604Y-28249D01*
X54692Y-28128D01*
X54609Y-28139D01*
X54141Y-27916D01*
X53363Y-27663D01*
X52546Y-27620D01*
D02*
G37*
G36*
X-53265Y-27220D02*
X-54065Y-27390D01*
X-54794Y-27761D01*
X-55258Y-28080D01*
X-55668Y-28134D01*
X-56517Y-28486D01*
X-57247Y-29045D01*
X-57807Y-29775D01*
X-57838Y-29852D01*
X-58266Y-30146D01*
X-58874Y-30693D01*
X-59320Y-31378D01*
X-59573Y-32156D01*
X-59616Y-32973D01*
X-59446Y-33773D01*
X-59075Y-34502D01*
X-58528Y-35110D01*
X-57842Y-35556D01*
X-57064Y-35809D01*
X-56248Y-35852D01*
X-55448Y-35682D01*
X-54719Y-35311D01*
X-54254Y-34992D01*
X-53845Y-34938D01*
X-52995Y-34586D01*
X-52266Y-34027D01*
X-51706Y-33297D01*
X-51674Y-33220D01*
X-51246Y-32926D01*
X-50638Y-32379D01*
X-50192Y-31693D01*
X-49940Y-30915D01*
X-49896Y-30099D01*
X-50066Y-29299D01*
X-50437Y-28570D01*
X-50984Y-27962D01*
X-51670Y-27516D01*
X-52448Y-27263D01*
X-53265Y-27220D01*
D02*
G37*
G36*
X108616Y-30782D02*
X107910Y-30875D01*
X107252Y-31148D01*
X106687Y-31581D01*
X106253Y-32146D01*
X105981Y-32804D01*
X105888Y-33510D01*
X105981Y-34216D01*
X106253Y-34874D01*
X106687Y-35439D01*
X107252Y-35873D01*
X107910Y-36145D01*
X108616Y-36238D01*
X109322Y-36145D01*
X109980Y-35873D01*
X110545Y-35439D01*
X110978Y-34874D01*
X111251Y-34216D01*
X111344Y-33510D01*
X111251Y-32804D01*
X110978Y-32146D01*
X110545Y-31581D01*
X109980Y-31148D01*
X109322Y-30875D01*
X108616Y-30782D01*
D02*
G37*
G36*
X83315Y-30981D02*
X82609Y-31074D01*
X81951Y-31346D01*
X81386Y-31780D01*
X80953Y-32345D01*
X80680Y-33003D01*
X80587Y-33709D01*
X80680Y-34415D01*
X80953Y-35073D01*
X81386Y-35638D01*
X81951Y-36072D01*
X82609Y-36344D01*
X83315Y-36437D01*
X84021Y-36344D01*
X84679Y-36072D01*
X85244Y-35638D01*
X85678Y-35073D01*
X85950Y-34415D01*
X86043Y-33709D01*
X85950Y-33003D01*
X85678Y-32345D01*
X85244Y-31780D01*
X84679Y-31346D01*
X84021Y-31074D01*
X83315Y-30981D01*
D02*
G37*
G36*
X133858Y-31071D02*
X133152Y-31164D01*
X132494Y-31437D01*
X131929Y-31870D01*
X131496Y-32435D01*
X131223Y-33093D01*
X131130Y-33799D01*
X131223Y-34505D01*
X131496Y-35163D01*
X131929Y-35728D01*
X132494Y-36162D01*
X133152Y-36434D01*
X133858Y-36527D01*
X134564Y-36434D01*
X135222Y-36162D01*
X135787Y-35728D01*
X136221Y-35163D01*
X136493Y-34505D01*
X136586Y-33799D01*
X136493Y-33093D01*
X136221Y-32435D01*
X135787Y-31870D01*
X135222Y-31437D01*
X134564Y-31164D01*
X133858Y-31071D01*
D02*
G37*
G36*
X126378Y-36248D02*
X125672Y-36341D01*
X125014Y-36614D01*
X124449Y-37047D01*
X124015Y-37612D01*
X123743Y-38270D01*
X123650Y-38976D01*
X123743Y-39682D01*
X124015Y-40340D01*
X124449Y-40905D01*
X125014Y-41339D01*
X125672Y-41611D01*
X126378Y-41704D01*
X127084Y-41611D01*
X127742Y-41339D01*
X128307Y-40905D01*
X128741Y-40340D01*
X129013Y-39682D01*
X129106Y-38976D01*
X129013Y-38270D01*
X128741Y-37612D01*
X128307Y-37047D01*
X127742Y-36614D01*
X127084Y-36341D01*
X126378Y-36248D01*
D02*
G37*
G36*
X101181D02*
X100475Y-36341D01*
X99817Y-36614D01*
X99252Y-37047D01*
X98818Y-37612D01*
X98546Y-38270D01*
X98453Y-38976D01*
X98546Y-39682D01*
X98818Y-40340D01*
X99252Y-40905D01*
X99817Y-41339D01*
X100475Y-41611D01*
X101181Y-41704D01*
X101887Y-41611D01*
X102545Y-41339D01*
X103110Y-40905D01*
X103544Y-40340D01*
X103816Y-39682D01*
X103909Y-38976D01*
X103816Y-38270D01*
X103544Y-37612D01*
X103110Y-37047D01*
X102545Y-36614D01*
X101887Y-36341D01*
X101181Y-36248D01*
D02*
G37*
G36*
X-47603Y-35463D02*
X-48403Y-35633D01*
X-49132Y-36004D01*
X-49597Y-36323D01*
X-50007Y-36377D01*
X-50856Y-36729D01*
X-51586Y-37288D01*
X-52145Y-38018D01*
X-52177Y-38095D01*
X-52605Y-38389D01*
X-53213Y-38936D01*
X-53659Y-39622D01*
X-53912Y-40400D01*
X-53955Y-41216D01*
X-53785Y-42016D01*
X-53414Y-42745D01*
X-52867Y-43353D01*
X-52181Y-43799D01*
X-51403Y-44052D01*
X-50586Y-44095D01*
X-49786Y-43925D01*
X-49058Y-43554D01*
X-48593Y-43235D01*
X-48183Y-43181D01*
X-47334Y-42829D01*
X-46604Y-42270D01*
X-46045Y-41540D01*
X-46013Y-41463D01*
X-45585Y-41169D01*
X-44977Y-40622D01*
X-44531Y-39937D01*
X-44278Y-39159D01*
X-44235Y-38342D01*
X-44405Y-37542D01*
X-44776Y-36813D01*
X-45323Y-36205D01*
X-46009Y-35759D01*
X-46787Y-35506D01*
X-47603Y-35463D01*
D02*
G37*
G36*
X0Y-29442D02*
X-1553Y-29595D01*
X-3046Y-30048D01*
X-4422Y-30783D01*
X-5628Y-31773D01*
X-6618Y-32980D01*
X-7354Y-34356D01*
X-7807Y-35849D01*
X-7960Y-37402D01*
X-7807Y-38954D01*
X-7354Y-40448D01*
X-6618Y-41824D01*
X-5628Y-43030D01*
X-4422Y-44020D01*
X-3046Y-44755D01*
X-1553Y-45208D01*
X0Y-45361D01*
X1553Y-45208D01*
X3046Y-44755D01*
X4422Y-44020D01*
X5628Y-43030D01*
X6618Y-41824D01*
X7354Y-40448D01*
X7807Y-38954D01*
X7960Y-37402D01*
X7807Y-35849D01*
X7354Y-34356D01*
X6618Y-32980D01*
X5628Y-31773D01*
X4422Y-30783D01*
X3046Y-30048D01*
X1553Y-29595D01*
X0Y-29442D01*
D02*
G37*
G36*
X106299Y-53977D02*
X105362Y-54100D01*
X104488Y-54462D01*
X103738Y-55038D01*
X103163Y-55788D01*
X102801Y-56661D01*
X102678Y-57598D01*
X102801Y-58536D01*
X103163Y-59409D01*
X103738Y-60159D01*
X104488Y-60735D01*
X105362Y-61097D01*
X106299Y-61220D01*
X107237Y-61097D01*
X108110Y-60735D01*
X108860Y-60159D01*
X109436Y-59409D01*
X109797Y-58536D01*
X109921Y-57598D01*
X109797Y-56661D01*
X109436Y-55788D01*
X108860Y-55038D01*
X108110Y-54462D01*
X107237Y-54100D01*
X106299Y-53977D01*
D02*
G37*
G36*
X98425D02*
X97488Y-54100D01*
X96614Y-54462D01*
X95864Y-55038D01*
X95289Y-55788D01*
X94927Y-56661D01*
X94804Y-57598D01*
X94927Y-58536D01*
X95289Y-59409D01*
X95864Y-60159D01*
X96614Y-60735D01*
X97488Y-61097D01*
X98425Y-61220D01*
X99362Y-61097D01*
X100236Y-60735D01*
X100986Y-60159D01*
X101561Y-59409D01*
X101923Y-58536D01*
X102047Y-57598D01*
X101923Y-56661D01*
X101561Y-55788D01*
X100986Y-55038D01*
X100236Y-54462D01*
X99362Y-54100D01*
X98425Y-53977D01*
D02*
G37*
G36*
X90551D02*
X90077Y-54039D01*
X86992D01*
Y-57124D01*
X86930Y-57598D01*
X86992Y-58073D01*
Y-61158D01*
X90077D01*
X90551Y-61220D01*
X91026Y-61158D01*
X94110D01*
Y-58073D01*
X94173Y-57598D01*
X94110Y-57124D01*
Y-54039D01*
X91026D01*
X90551Y-53977D01*
D02*
G37*
G36*
X-11811D02*
X-12748Y-54100D01*
X-13622Y-54462D01*
X-14372Y-55038D01*
X-14947Y-55788D01*
X-15309Y-56661D01*
X-15433Y-57598D01*
X-15309Y-58536D01*
X-14947Y-59409D01*
X-14372Y-60159D01*
X-13622Y-60735D01*
X-12748Y-61097D01*
X-11811Y-61220D01*
X-10874Y-61097D01*
X-10000Y-60735D01*
X-9250Y-60159D01*
X-8675Y-59409D01*
X-8313Y-58536D01*
X-8190Y-57598D01*
X-8313Y-56661D01*
X-8675Y-55788D01*
X-9250Y-55038D01*
X-10000Y-54462D01*
X-10874Y-54100D01*
X-11811Y-53977D01*
D02*
G37*
G36*
X-19685D02*
X-20622Y-54100D01*
X-21496Y-54462D01*
X-22246Y-55038D01*
X-22821Y-55788D01*
X-23183Y-56661D01*
X-23307Y-57598D01*
X-23183Y-58536D01*
X-22821Y-59409D01*
X-22246Y-60159D01*
X-21496Y-60735D01*
X-20622Y-61097D01*
X-19685Y-61220D01*
X-18748Y-61097D01*
X-17874Y-60735D01*
X-17124Y-60159D01*
X-16549Y-59409D01*
X-16187Y-58536D01*
X-16063Y-57598D01*
X-16187Y-56661D01*
X-16549Y-55788D01*
X-17124Y-55038D01*
X-17874Y-54462D01*
X-18748Y-54100D01*
X-19685Y-53977D01*
D02*
G37*
G36*
X-27559D02*
X-28034Y-54039D01*
X-31118D01*
Y-57124D01*
X-31181Y-57598D01*
X-31118Y-58073D01*
Y-61158D01*
X-28034D01*
X-27559Y-61220D01*
X-27084Y-61158D01*
X-24000D01*
Y-58073D01*
X-23937Y-57598D01*
X-24000Y-57124D01*
Y-54039D01*
X-27084D01*
X-27559Y-53977D01*
D02*
G37*
%LPD*%
D10*
X-33150Y46475D02*
G03*
X-46475Y33150I33150J-46475D01*
G01*
X-25868Y38351D02*
G03*
X-38351Y25868I25868J-38351D01*
G01*
X-46475Y33150D02*
X-38351Y25868D01*
X-33150Y46475D02*
X-25868Y38351D01*
D13*
X-25710Y44255D02*
G03*
X-41392Y30103I25710J-44255D01*
G01*
X177165Y123273D02*
G03*
X123273Y177165I-74803J-20911D01*
G01*
X-79528D02*
X-79527Y-66299D01*
X177165D01*
X177165Y123273D02*
X177165Y-66299D01*
X-79528Y177165D02*
X123273D01*
D88*
X103543Y148425D02*
D03*
X-67126Y-11811D02*
D03*
Y-19685D02*
D03*
Y106299D02*
D03*
Y98425D02*
D03*
X106299Y-49724D02*
D03*
X98425D02*
D03*
X90551D02*
D03*
X-11811D02*
D03*
X-19685D02*
D03*
X-27559D02*
D03*
D89*
X-42520Y101575D02*
D03*
X155118Y24409D02*
D03*
D90*
X28740Y-28740D02*
D03*
X-28465Y124409D02*
D03*
D91*
X0Y98819D02*
D03*
Y165354D02*
D03*
X59055Y149606D02*
D03*
X165354Y0D02*
D03*
X145669Y145669D02*
D03*
D92*
X-51926Y-35658D02*
D03*
D93*
X56846Y-27139D02*
D03*
D94*
X-4921Y62800D02*
D03*
D97*
X-67126Y-27559D02*
D03*
Y90551D02*
D03*
D98*
X116929Y27067D02*
D03*
X90945Y94882D02*
D03*
X100000Y45276D02*
D03*
X67323Y29528D02*
D03*
X87402Y27067D02*
D03*
X57874D02*
D03*
X-7874Y98425D02*
D03*
X0Y90945D02*
D03*
Y106693D02*
D03*
X7874Y98425D02*
D03*
X-5906Y103543D02*
D03*
X5512Y103937D02*
D03*
Y93307D02*
D03*
X-5118Y92914D02*
D03*
X59055Y157480D02*
D03*
Y141732D02*
D03*
X51181Y149213D02*
D03*
X66929D02*
D03*
X64567Y154725D02*
D03*
X53150Y154331D02*
D03*
X53937Y143701D02*
D03*
X64567Y144095D02*
D03*
X145669Y153543D02*
D03*
Y137795D02*
D03*
X137795Y145276D02*
D03*
X153543D02*
D03*
X151181Y150787D02*
D03*
X139764Y150394D02*
D03*
X140551Y139764D02*
D03*
X151181Y140157D02*
D03*
X165354Y7874D02*
D03*
Y-7874D02*
D03*
X157480Y-394D02*
D03*
X173228D02*
D03*
X170866Y5118D02*
D03*
X159449Y4724D02*
D03*
X160236Y-5905D02*
D03*
X170866Y-5512D02*
D03*
X5512Y159843D02*
D03*
X-5118Y159449D02*
D03*
X-5906Y170079D02*
D03*
X5512Y170472D02*
D03*
X7874Y164961D02*
D03*
X-7874D02*
D03*
X0Y157480D02*
D03*
Y173228D02*
D03*
X96457Y113779D02*
D03*
X61811Y78347D02*
D03*
X52756Y87795D02*
D03*
Y69685D02*
D03*
X71260Y88189D02*
D03*
X70866Y69685D02*
D03*
X98819Y80512D02*
D03*
X33071Y121260D02*
D03*
Y126772D02*
D03*
X39370D02*
D03*
Y121260D02*
D03*
X126378Y29528D02*
D03*
X96850D02*
D03*
M02*
