M48
;Layer_Color=9474304
;FILE_FORMAT=2:5
INCH,TZ
;TYPE=PLATED
T1F00S00C0.01378
T2F00S00C0.02953
T3F00S00C0.03150
T4F00S00C0.03543
T5F00S00C0.04331
;TYPE=NON_PLATED
T6F00S00C0.11811
T7F00S00C0.31496
%
T01
X83315Y-33709
X101181Y-38976
X108616Y-33510
X126378Y-38976
X133858Y-33799
X135039Y-22047
X139764Y-3543
X144095
X145276Y7480
X140945
Y11811
X145276
Y16142
Y20079
X140945
Y16142
X130512Y17913
X130709Y12795
X124409Y12697
X116142Y16929
X116929Y21752
Y27067
X116929Y38386
X126378Y29528
X96850
X87402Y27067
X87402Y21752
X86614Y9055
X94882Y12697
X101181Y12795
X100984Y17913
X99606Y394
Y-3150
X105118
Y394
X109055Y-9055
X124803Y-3150
Y394
X130315
Y-3150
X157480Y-394
X159449Y4724
X165354Y7874
X170866Y5118
X173228Y-394
X170866Y-5512
X165354Y-7874
X160236Y-5905
X83465Y-8789
X79921Y-3150
Y394
X87402Y38386
X100000Y45276
X94095Y61417
X94488Y65354
X95145Y75067
X85433Y74016
X105512Y68504
X120079Y69291
X70866Y69685
X52756
X38976Y69685
Y65748
X38976Y73622
X42913Y59055
X42500Y51581
X46063Y50394
X55563Y51575
X55634Y55454
X64567Y48819
X57874Y38386
X57874Y27067
Y21752
X57087Y9055
X65354Y12697
X71653Y12795
X71457Y17913
X67323Y29528
X66142Y-3543
X60236
X53937Y-11614
X74410Y-3150
Y394
X-54331Y-1181
X-46457Y57480
X-14495Y70545
X-10558Y70545
X-10630Y75197
X-14567Y75197
X-14567Y79528
X-10630
X-18955Y84588
X-5118Y92914
X0Y90945
X5512Y93307
X7874Y98425
X5512Y103937
X0Y106693
X-5906Y103543
X-7874Y98425
X9122Y123949
X9055Y128347
X23228Y126673
X33071Y126772
Y121260
X39370
Y126772
X43602Y137598
X53937Y143701
X59055Y141732
X64567Y144095
X66929Y149213
X64567Y154725
X59055Y157480
X53150Y154331
X51181Y149213
X52756Y111614
X59744Y109055
X64173Y107905
Y104150
Y100394
X72047Y110630
X71260Y88189
X52756Y87795
X61811Y78347
X41732Y110630
X5512Y159843
X7874Y164961
X5512Y170472
X0Y173228
X-5906Y170079
X-7874Y164961
X-5118Y159449
X0Y157480
X-53543Y154725
X-51181Y149213
X-53543Y144095
X-59055Y141732
X-64173Y143701
X-66929Y149213
X-64961Y154331
X-59055Y157480
X-52756Y94488
X-48819
Y90551
X-52756
X79565Y98425
X83465Y97244
X85933Y94413
X90945Y94882
X87008Y109843
X96457Y113779
X111024Y115748
X114567
Y111811
X111023
X98819Y80512
X140551Y139764
X145669Y137795
X151181Y140157
X153543Y145276
X151181Y150787
X145669Y153543
X139764Y150394
X137795Y145276
T02
X-49095Y-39779
X-51926Y-35658
X-54756Y-31536
X54692Y-31651
X56846Y-27139
X59000Y-22626
X64Y63190
X-4921Y62800
X-9906Y62409
T03
X90551Y-57598
X98425
Y-49724
X106299
Y-57598
X90551Y-49724
X147244Y24409
X155118
X-11811Y-49724
X-19685
Y-57598
X-11811
X-27559
Y-49724
X-67126Y-27559
Y-19685
X-75000
Y-11811
X-67126
X-75000Y-27559
Y90551
Y98425
Y106299
X-67126
Y98425
Y90551
X-42520Y101575
X-34646
X-26772
X87795Y148425
X95669
X103543
X111417
T04
X77165Y-15748
X102362
X127953
T05
X-28740Y-28740
X28740
Y28740
X-28740
X-28465Y124409
X-38465
X-48465
X-58465
X-18465
X-8465
T06
X165354Y0
X31496
X-31496
X0Y37401
Y-37402
Y98819
Y165354
X-59055Y149606
X59055
X145669Y145669
T07
X0Y0
M30
