G04*
G04 #@! TF.GenerationSoftware,Altium Limited,Altium Designer,20.1.14 (287)*
G04*
G04 Layer_Color=8388736*
%FSLAX25Y25*%
%MOIN*%
G70*
G04*
G04 #@! TF.SameCoordinates,BFC865CF-BEAF-49AC-A6C2-1AB5C3D80CD9*
G04*
G04*
G04 #@! TF.FilePolarity,Negative*
G04*
G01*
G75*
%ADD10C,0.00787*%
%ADD13C,0.01000*%
%ADD24C,0.04724*%
%ADD25R,0.04540X0.04147*%
%ADD26R,0.04737X0.04343*%
%ADD27R,0.04343X0.07099*%
%ADD28R,0.02139X0.03950*%
%ADD29R,0.02454X0.03398*%
%ADD30R,0.04343X0.04737*%
%ADD31R,0.10839X0.10446*%
%ADD32R,0.01824X0.04186*%
%ADD33R,0.04186X0.01824*%
%ADD34R,0.11430X0.05918*%
%ADD35R,0.03950X0.03950*%
%ADD36R,0.24422X0.24422*%
G04:AMPARAMS|DCode=37|XSize=39.5mil|YSize=21.78mil|CornerRadius=5.72mil|HoleSize=0mil|Usage=FLASHONLY|Rotation=180.000|XOffset=0mil|YOffset=0mil|HoleType=Round|Shape=RoundedRectangle|*
%AMROUNDEDRECTD37*
21,1,0.03950,0.01034,0,0,180.0*
21,1,0.02805,0.02178,0,0,180.0*
1,1,0.01145,-0.01403,0.00517*
1,1,0.01145,0.01403,0.00517*
1,1,0.01145,0.01403,-0.00517*
1,1,0.01145,-0.01403,-0.00517*
%
%ADD37ROUNDEDRECTD37*%
%ADD38R,0.11430X0.11036*%
G04:AMPARAMS|DCode=39|XSize=41.47mil|YSize=21.78mil|CornerRadius=5.72mil|HoleSize=0mil|Usage=FLASHONLY|Rotation=270.000|XOffset=0mil|YOffset=0mil|HoleType=Round|Shape=RoundedRectangle|*
%AMROUNDEDRECTD39*
21,1,0.04147,0.01034,0,0,270.0*
21,1,0.03002,0.02178,0,0,270.0*
1,1,0.01145,-0.00517,-0.01501*
1,1,0.01145,-0.00517,0.01501*
1,1,0.01145,0.00517,0.01501*
1,1,0.01145,0.00517,-0.01501*
%
%ADD39ROUNDEDRECTD39*%
%ADD40R,0.03162X0.06115*%
%ADD41R,0.05918X0.06312*%
%ADD42R,0.05524X0.07690*%
%ADD43R,0.06312X0.05918*%
G04:AMPARAMS|DCode=44|XSize=45.4mil|YSize=41.47mil|CornerRadius=0mil|HoleSize=0mil|Usage=FLASHONLY|Rotation=30.000|XOffset=0mil|YOffset=0mil|HoleType=Round|Shape=Rectangle|*
%AMROTATEDRECTD44*
4,1,4,-0.00929,-0.02931,-0.03003,0.00660,0.00929,0.02931,0.03003,-0.00660,-0.00929,-0.02931,0.0*
%
%ADD44ROTATEDRECTD44*%

G04:AMPARAMS|DCode=45|XSize=45.4mil|YSize=41.47mil|CornerRadius=0mil|HoleSize=0mil|Usage=FLASHONLY|Rotation=150.000|XOffset=0mil|YOffset=0mil|HoleType=Round|Shape=Rectangle|*
%AMROTATEDRECTD45*
4,1,4,0.03003,0.00660,0.00929,-0.02931,-0.03003,-0.00660,-0.00929,0.02931,0.03003,0.00660,0.0*
%
%ADD45ROTATEDRECTD45*%

G04:AMPARAMS|DCode=46|XSize=37.13mil|YSize=19.02mil|CornerRadius=5.38mil|HoleSize=0mil|Usage=FLASHONLY|Rotation=180.000|XOffset=0mil|YOffset=0mil|HoleType=Round|Shape=RoundedRectangle|*
%AMROUNDEDRECTD46*
21,1,0.03713,0.00827,0,0,180.0*
21,1,0.02638,0.01902,0,0,180.0*
1,1,0.01076,-0.01319,0.00413*
1,1,0.01076,0.01319,0.00413*
1,1,0.01076,0.01319,-0.00413*
1,1,0.01076,-0.01319,-0.00413*
%
%ADD46ROUNDEDRECTD46*%
%ADD47R,0.04147X0.04540*%
%ADD48C,0.05918*%
%ADD49R,0.05918X0.05918*%
%ADD50C,0.07099*%
%ADD51C,0.20485*%
G04:AMPARAMS|DCode=52|XSize=92.25mil|YSize=50.13mil|CornerRadius=0mil|HoleSize=0mil|Usage=FLASHONLY|Rotation=214.480|XOffset=0mil|YOffset=0mil|HoleType=Round|Shape=Round|*
%AMOVALD52*
21,1,0.04213,0.05013,0.00000,0.00000,214.5*
1,1,0.05013,0.01736,0.01192*
1,1,0.05013,-0.01736,-0.01192*
%
%ADD52OVALD52*%

G04:AMPARAMS|DCode=53|XSize=92.25mil|YSize=50.13mil|CornerRadius=0mil|HoleSize=0mil|Usage=FLASHONLY|Rotation=334.480|XOffset=0mil|YOffset=0mil|HoleType=Round|Shape=Round|*
%AMOVALD53*
21,1,0.04213,0.05013,0.00000,0.00000,334.5*
1,1,0.05013,-0.01901,0.00907*
1,1,0.05013,0.01901,-0.00907*
%
%ADD53OVALD53*%

G04:AMPARAMS|DCode=54|XSize=92.25mil|YSize=50.13mil|CornerRadius=0mil|HoleSize=0mil|Usage=FLASHONLY|Rotation=94.480|XOffset=0mil|YOffset=0mil|HoleType=Round|Shape=Round|*
%AMOVALD54*
21,1,0.04213,0.05013,0.00000,0.00000,94.5*
1,1,0.05013,0.00165,-0.02100*
1,1,0.05013,-0.00165,0.02100*
%
%ADD54OVALD54*%

%ADD55R,0.07099X0.07099*%
%ADD56C,0.06706*%
%ADD57C,0.00800*%
%ADD58R,0.05918X0.05918*%
%ADD59C,0.03556*%
G36*
X131063Y33583D02*
X129567D01*
Y36496D01*
X131063D01*
Y33583D01*
D02*
G37*
G36*
X129095D02*
X127598D01*
Y36496D01*
X129095D01*
Y33583D01*
D02*
G37*
G36*
X127126D02*
X125630D01*
Y36496D01*
X127126D01*
Y33583D01*
D02*
G37*
G36*
X125157D02*
X123661D01*
Y36496D01*
X125157D01*
Y33583D01*
D02*
G37*
G36*
X123189D02*
X121693D01*
Y36496D01*
X123189D01*
Y33583D01*
D02*
G37*
G36*
X101535D02*
X100039D01*
Y36496D01*
X101535D01*
Y33583D01*
D02*
G37*
G36*
X99567D02*
X98071D01*
Y36496D01*
X99567D01*
Y33583D01*
D02*
G37*
G36*
X97598D02*
X96102D01*
Y36496D01*
X97598D01*
Y33583D01*
D02*
G37*
G36*
X95630D02*
X94134D01*
Y36496D01*
X95630D01*
Y33583D01*
D02*
G37*
G36*
X93661D02*
X92165D01*
Y36496D01*
X93661D01*
Y33583D01*
D02*
G37*
G36*
X72008D02*
X70512D01*
Y36496D01*
X72008D01*
Y33583D01*
D02*
G37*
G36*
X70039D02*
X68543D01*
Y36496D01*
X70039D01*
Y33583D01*
D02*
G37*
G36*
X68071D02*
X66575D01*
Y36496D01*
X68071D01*
Y33583D01*
D02*
G37*
G36*
X66102D02*
X64606D01*
Y36496D01*
X66102D01*
Y33583D01*
D02*
G37*
G36*
X64134D02*
X62638D01*
Y36496D01*
X64134D01*
Y33583D01*
D02*
G37*
G36*
X131378Y31280D02*
X133346D01*
Y29744D01*
X131378D01*
Y29311D01*
X133346D01*
Y27776D01*
X131378D01*
Y26004D01*
X121378D01*
Y27776D01*
X119410D01*
Y29311D01*
X121378D01*
Y29744D01*
X119410D01*
Y31280D01*
X121378D01*
Y33051D01*
X131378D01*
Y31280D01*
D02*
G37*
G36*
X101850D02*
X103819D01*
Y29744D01*
X101850D01*
Y29311D01*
X103819D01*
Y27776D01*
X101850D01*
Y26004D01*
X91850D01*
Y27776D01*
X89882D01*
Y29311D01*
X91850D01*
Y29744D01*
X89882D01*
Y31280D01*
X91850D01*
Y33051D01*
X101850D01*
Y31280D01*
D02*
G37*
G36*
X72323D02*
X74291D01*
Y29744D01*
X72323D01*
Y29311D01*
X74291D01*
Y27776D01*
X72323D01*
Y26004D01*
X62323D01*
Y27776D01*
X60354D01*
Y29311D01*
X62323D01*
Y29744D01*
X60354D01*
Y31280D01*
X62323D01*
Y33051D01*
X72323D01*
Y31280D01*
D02*
G37*
G36*
X131063Y22559D02*
X129567D01*
Y25472D01*
X131063D01*
Y22559D01*
D02*
G37*
G36*
X129095D02*
X127598D01*
Y25472D01*
X129095D01*
Y22559D01*
D02*
G37*
G36*
X127126D02*
X125630D01*
Y25472D01*
X127126D01*
Y22559D01*
D02*
G37*
G36*
X125157D02*
X123661D01*
Y25472D01*
X125157D01*
Y22559D01*
D02*
G37*
G36*
X123189D02*
X121693D01*
Y25472D01*
X123189D01*
Y22559D01*
D02*
G37*
G36*
X101535D02*
X100039D01*
Y25472D01*
X101535D01*
Y22559D01*
D02*
G37*
G36*
X99567D02*
X98071D01*
Y25472D01*
X99567D01*
Y22559D01*
D02*
G37*
G36*
X97598D02*
X96102D01*
Y25472D01*
X97598D01*
Y22559D01*
D02*
G37*
G36*
X95630D02*
X94134D01*
Y25472D01*
X95630D01*
Y22559D01*
D02*
G37*
G36*
X93661D02*
X92165D01*
Y25472D01*
X93661D01*
Y22559D01*
D02*
G37*
G36*
X72008D02*
X70512D01*
Y25472D01*
X72008D01*
Y22559D01*
D02*
G37*
G36*
X70039D02*
X68543D01*
Y25472D01*
X70039D01*
Y22559D01*
D02*
G37*
G36*
X68071D02*
X66575D01*
Y25472D01*
X68071D01*
Y22559D01*
D02*
G37*
G36*
X66102D02*
X64606D01*
Y25472D01*
X66102D01*
Y22559D01*
D02*
G37*
G36*
X64134D02*
X62638D01*
Y25472D01*
X64134D01*
Y22559D01*
D02*
G37*
G36*
X132277Y4334D02*
X132328Y4324D01*
X132378Y4307D01*
X132425Y4284D01*
X132468Y4255D01*
X132508Y4220D01*
X132542Y4181D01*
X132571Y4137D01*
X132595Y4090D01*
X132612Y4041D01*
X132622Y3989D01*
X132625Y3937D01*
Y-1764D01*
X134370D01*
X134422Y-1768D01*
X134474Y-1778D01*
X134523Y-1795D01*
X134570Y-1818D01*
X134614Y-1847D01*
X134653Y-1882D01*
X134688Y-1921D01*
X134717Y-1965D01*
X134740Y-2012D01*
X134757Y-2062D01*
X134767Y-2113D01*
X134771Y-2165D01*
Y-4409D01*
X134767Y-4462D01*
X134757Y-4513D01*
X134740Y-4563D01*
X134717Y-4610D01*
X134688Y-4654D01*
X134653Y-4693D01*
X134614Y-4727D01*
X134570Y-4757D01*
X134523Y-4780D01*
X134474Y-4797D01*
X134422Y-4807D01*
X134370Y-4810D01*
X132625D01*
Y-5118D01*
X132622Y-5170D01*
X132612Y-5222D01*
X132595Y-5271D01*
X132571Y-5319D01*
X132542Y-5362D01*
X132508Y-5402D01*
X132468Y-5436D01*
X132425Y-5465D01*
X132378Y-5488D01*
X132328Y-5505D01*
X132277Y-5516D01*
X132224Y-5519D01*
X122894D01*
X122841Y-5516D01*
X122790Y-5505D01*
X122740Y-5488D01*
X122693Y-5465D01*
X122650Y-5436D01*
X122610Y-5402D01*
X122576Y-5362D01*
X122547Y-5319D01*
X122523Y-5271D01*
X122506Y-5222D01*
X122496Y-5170D01*
X122493Y-5118D01*
Y-4810D01*
X120748D01*
X120696Y-4807D01*
X120644Y-4797D01*
X120595Y-4780D01*
X120547Y-4757D01*
X120504Y-4727D01*
X120465Y-4693D01*
X120430Y-4654D01*
X120401Y-4610D01*
X120378Y-4563D01*
X120361Y-4513D01*
X120351Y-4462D01*
X120347Y-4409D01*
Y-2165D01*
X120351Y-2113D01*
X120361Y-2062D01*
X120378Y-2012D01*
X120401Y-1965D01*
X120430Y-1921D01*
X120465Y-1882D01*
X120504Y-1847D01*
X120547Y-1818D01*
X120595Y-1795D01*
X120644Y-1778D01*
X120696Y-1768D01*
X120748Y-1764D01*
X122493D01*
Y3937D01*
X122496Y3989D01*
X122506Y4041D01*
X122523Y4090D01*
X122547Y4137D01*
X122576Y4181D01*
X122610Y4220D01*
X122650Y4255D01*
X122693Y4284D01*
X122740Y4307D01*
X122790Y4324D01*
X122841Y4334D01*
X122894Y4338D01*
X124547D01*
X124600Y4334D01*
X124651Y4324D01*
X124701Y4307D01*
X124748Y4284D01*
X124791Y4255D01*
X124831Y4220D01*
X124865Y4181D01*
X124894Y4137D01*
X124917Y4090D01*
X124934Y4041D01*
X124945Y3989D01*
X124948Y3937D01*
Y2488D01*
X125052D01*
Y3937D01*
X125055Y3989D01*
X125066Y4041D01*
X125082Y4090D01*
X125106Y4137D01*
X125135Y4181D01*
X125169Y4220D01*
X125209Y4255D01*
X125252Y4284D01*
X125299Y4307D01*
X125349Y4324D01*
X125400Y4334D01*
X125453Y4338D01*
X127106D01*
X127158Y4334D01*
X127210Y4324D01*
X127260Y4307D01*
X127307Y4284D01*
X127350Y4255D01*
X127390Y4220D01*
X127424Y4181D01*
X127453Y4137D01*
X127477Y4090D01*
X127493Y4041D01*
X127504Y3989D01*
X127507Y3937D01*
Y2488D01*
X127611D01*
Y3937D01*
X127614Y3989D01*
X127624Y4041D01*
X127641Y4090D01*
X127665Y4137D01*
X127694Y4181D01*
X127728Y4220D01*
X127768Y4255D01*
X127811Y4284D01*
X127858Y4307D01*
X127908Y4324D01*
X127959Y4334D01*
X128012Y4338D01*
X129665D01*
X129718Y4334D01*
X129769Y4324D01*
X129819Y4307D01*
X129866Y4284D01*
X129909Y4255D01*
X129949Y4220D01*
X129983Y4181D01*
X130012Y4137D01*
X130036Y4090D01*
X130052Y4041D01*
X130063Y3989D01*
X130066Y3937D01*
Y2488D01*
X130170D01*
Y3937D01*
X130173Y3989D01*
X130184Y4041D01*
X130200Y4090D01*
X130224Y4137D01*
X130253Y4181D01*
X130287Y4220D01*
X130327Y4255D01*
X130370Y4284D01*
X130417Y4307D01*
X130467Y4324D01*
X130518Y4334D01*
X130571Y4338D01*
X132224D01*
X132277Y4334D01*
D02*
G37*
G36*
X81883Y4334D02*
X81934Y4324D01*
X81984Y4307D01*
X82031Y4284D01*
X82075Y4255D01*
X82114Y4220D01*
X82149Y4181D01*
X82178Y4137D01*
X82201Y4090D01*
X82218Y4041D01*
X82228Y3989D01*
X82231Y3937D01*
Y-1765D01*
X83976D01*
X84029Y-1768D01*
X84080Y-1778D01*
X84130Y-1795D01*
X84177Y-1818D01*
X84220Y-1847D01*
X84260Y-1882D01*
X84294Y-1921D01*
X84324Y-1965D01*
X84347Y-2012D01*
X84364Y-2062D01*
X84374Y-2113D01*
X84377Y-2165D01*
Y-4409D01*
X84374Y-4462D01*
X84364Y-4513D01*
X84347Y-4563D01*
X84324Y-4610D01*
X84294Y-4654D01*
X84260Y-4693D01*
X84220Y-4728D01*
X84177Y-4757D01*
X84130Y-4780D01*
X84080Y-4797D01*
X84029Y-4807D01*
X83976Y-4810D01*
X82231D01*
Y-5118D01*
X82228Y-5170D01*
X82218Y-5222D01*
X82201Y-5272D01*
X82178Y-5319D01*
X82149Y-5362D01*
X82114Y-5402D01*
X82075Y-5436D01*
X82031Y-5465D01*
X81984Y-5488D01*
X81934Y-5505D01*
X81883Y-5516D01*
X81831Y-5519D01*
X72500D01*
X72448Y-5516D01*
X72396Y-5505D01*
X72347Y-5488D01*
X72299Y-5465D01*
X72256Y-5436D01*
X72216Y-5402D01*
X72182Y-5362D01*
X72153Y-5319D01*
X72130Y-5272D01*
X72113Y-5222D01*
X72102Y-5170D01*
X72099Y-5118D01*
Y-4810D01*
X70354D01*
X70302Y-4807D01*
X70250Y-4797D01*
X70201Y-4780D01*
X70154Y-4757D01*
X70110Y-4728D01*
X70071Y-4693D01*
X70036Y-4654D01*
X70007Y-4610D01*
X69984Y-4563D01*
X69967Y-4513D01*
X69957Y-4462D01*
X69953Y-4409D01*
Y-2165D01*
X69957Y-2113D01*
X69967Y-2062D01*
X69984Y-2012D01*
X70007Y-1965D01*
X70036Y-1921D01*
X70071Y-1882D01*
X70110Y-1847D01*
X70154Y-1818D01*
X70201Y-1795D01*
X70250Y-1778D01*
X70302Y-1768D01*
X70354Y-1765D01*
X72099D01*
Y3937D01*
X72102Y3989D01*
X72113Y4041D01*
X72130Y4090D01*
X72153Y4137D01*
X72182Y4181D01*
X72216Y4220D01*
X72256Y4255D01*
X72299Y4284D01*
X72347Y4307D01*
X72396Y4324D01*
X72448Y4334D01*
X72500Y4338D01*
X74154D01*
X74206Y4334D01*
X74257Y4324D01*
X74307Y4307D01*
X74354Y4284D01*
X74397Y4255D01*
X74437Y4220D01*
X74471Y4181D01*
X74501Y4137D01*
X74524Y4090D01*
X74541Y4041D01*
X74551Y3989D01*
X74554Y3937D01*
Y2487D01*
X74658D01*
Y3937D01*
X74661Y3989D01*
X74672Y4041D01*
X74689Y4090D01*
X74712Y4137D01*
X74741Y4181D01*
X74775Y4220D01*
X74815Y4255D01*
X74859Y4284D01*
X74906Y4307D01*
X74955Y4324D01*
X75007Y4334D01*
X75059Y4338D01*
X76713D01*
X76765Y4334D01*
X76816Y4324D01*
X76866Y4307D01*
X76913Y4284D01*
X76957Y4255D01*
X76996Y4220D01*
X77030Y4181D01*
X77060Y4137D01*
X77083Y4090D01*
X77100Y4041D01*
X77110Y3989D01*
X77113Y3937D01*
Y2487D01*
X77217D01*
Y3937D01*
X77221Y3989D01*
X77231Y4041D01*
X77248Y4090D01*
X77271Y4137D01*
X77300Y4181D01*
X77335Y4220D01*
X77374Y4255D01*
X77418Y4284D01*
X77465Y4307D01*
X77514Y4324D01*
X77566Y4334D01*
X77618Y4338D01*
X79272D01*
X79324Y4334D01*
X79375Y4324D01*
X79425Y4307D01*
X79472Y4284D01*
X79516Y4255D01*
X79555Y4220D01*
X79590Y4181D01*
X79619Y4137D01*
X79642Y4090D01*
X79659Y4041D01*
X79669Y3989D01*
X79672Y3937D01*
Y2487D01*
X79776D01*
Y3937D01*
X79780Y3989D01*
X79790Y4041D01*
X79807Y4090D01*
X79830Y4137D01*
X79859Y4181D01*
X79894Y4220D01*
X79933Y4255D01*
X79977Y4284D01*
X80024Y4307D01*
X80073Y4324D01*
X80125Y4334D01*
X80177Y4338D01*
X81831D01*
X81883Y4334D01*
D02*
G37*
G36*
X107080Y4334D02*
X107131Y4324D01*
X107181Y4307D01*
X107228Y4284D01*
X107272Y4255D01*
X107311Y4220D01*
X107345Y4181D01*
X107375Y4137D01*
X107398Y4090D01*
X107415Y4041D01*
X107425Y3989D01*
X107428Y3937D01*
Y-1765D01*
X109173D01*
X109225Y-1768D01*
X109277Y-1778D01*
X109327Y-1795D01*
X109374Y-1818D01*
X109417Y-1847D01*
X109457Y-1882D01*
X109491Y-1921D01*
X109520Y-1965D01*
X109544Y-2012D01*
X109560Y-2062D01*
X109571Y-2113D01*
X109574Y-2165D01*
Y-4409D01*
X109571Y-4462D01*
X109560Y-4513D01*
X109544Y-4563D01*
X109520Y-4610D01*
X109491Y-4654D01*
X109457Y-4693D01*
X109417Y-4728D01*
X109374Y-4757D01*
X109327Y-4780D01*
X109277Y-4797D01*
X109225Y-4807D01*
X109173Y-4810D01*
X107428D01*
Y-5118D01*
X107425Y-5170D01*
X107415Y-5222D01*
X107398Y-5272D01*
X107375Y-5319D01*
X107345Y-5362D01*
X107311Y-5402D01*
X107272Y-5436D01*
X107228Y-5465D01*
X107181Y-5489D01*
X107131Y-5505D01*
X107080Y-5516D01*
X107027Y-5519D01*
X97697D01*
X97645Y-5516D01*
X97593Y-5505D01*
X97543Y-5489D01*
X97496Y-5465D01*
X97453Y-5436D01*
X97413Y-5402D01*
X97379Y-5362D01*
X97350Y-5319D01*
X97326Y-5272D01*
X97310Y-5222D01*
X97299Y-5170D01*
X97296Y-5118D01*
Y-4810D01*
X95551D01*
X95499Y-4807D01*
X95447Y-4797D01*
X95398Y-4780D01*
X95351Y-4757D01*
X95307Y-4728D01*
X95268Y-4693D01*
X95233Y-4654D01*
X95204Y-4610D01*
X95181Y-4563D01*
X95164Y-4513D01*
X95154Y-4462D01*
X95150Y-4409D01*
Y-2165D01*
X95154Y-2113D01*
X95164Y-2062D01*
X95181Y-2012D01*
X95204Y-1965D01*
X95233Y-1921D01*
X95268Y-1882D01*
X95307Y-1847D01*
X95351Y-1818D01*
X95398Y-1795D01*
X95447Y-1778D01*
X95499Y-1768D01*
X95551Y-1765D01*
X97296D01*
Y3937D01*
X97299Y3989D01*
X97310Y4041D01*
X97326Y4090D01*
X97350Y4137D01*
X97379Y4181D01*
X97413Y4220D01*
X97453Y4255D01*
X97496Y4284D01*
X97543Y4307D01*
X97593Y4324D01*
X97645Y4334D01*
X97697Y4338D01*
X99350D01*
X99403Y4334D01*
X99454Y4324D01*
X99504Y4307D01*
X99551Y4284D01*
X99594Y4255D01*
X99634Y4220D01*
X99668Y4181D01*
X99698Y4137D01*
X99721Y4090D01*
X99738Y4041D01*
X99748Y3989D01*
X99751Y3937D01*
Y2487D01*
X99855D01*
Y3937D01*
X99858Y3989D01*
X99869Y4041D01*
X99885Y4090D01*
X99909Y4137D01*
X99938Y4181D01*
X99972Y4220D01*
X100012Y4255D01*
X100055Y4284D01*
X100102Y4307D01*
X100152Y4324D01*
X100204Y4334D01*
X100256Y4338D01*
X101909D01*
X101962Y4334D01*
X102013Y4324D01*
X102063Y4307D01*
X102110Y4284D01*
X102153Y4255D01*
X102193Y4220D01*
X102227Y4181D01*
X102257Y4137D01*
X102280Y4090D01*
X102297Y4041D01*
X102307Y3989D01*
X102310Y3937D01*
Y2487D01*
X102414D01*
Y3937D01*
X102418Y3989D01*
X102428Y4041D01*
X102445Y4090D01*
X102468Y4137D01*
X102497Y4181D01*
X102532Y4220D01*
X102571Y4255D01*
X102614Y4284D01*
X102662Y4307D01*
X102711Y4324D01*
X102763Y4334D01*
X102815Y4338D01*
X104469D01*
X104521Y4334D01*
X104572Y4324D01*
X104622Y4307D01*
X104669Y4284D01*
X104712Y4255D01*
X104752Y4220D01*
X104787Y4181D01*
X104816Y4137D01*
X104839Y4090D01*
X104856Y4041D01*
X104866Y3989D01*
X104869Y3937D01*
Y2487D01*
X104973D01*
Y3937D01*
X104976Y3989D01*
X104987Y4041D01*
X105004Y4090D01*
X105027Y4137D01*
X105056Y4181D01*
X105090Y4220D01*
X105130Y4255D01*
X105174Y4284D01*
X105221Y4307D01*
X105270Y4324D01*
X105322Y4334D01*
X105374Y4338D01*
X107027D01*
X107080Y4334D01*
D02*
G37*
G36*
X132277Y-20469D02*
X132328Y-20479D01*
X132378Y-20496D01*
X132425Y-20519D01*
X132468Y-20548D01*
X132508Y-20583D01*
X132542Y-20622D01*
X132572Y-20666D01*
X132595Y-20713D01*
X132612Y-20762D01*
X132622Y-20814D01*
X132625Y-20866D01*
Y-26568D01*
X134370D01*
X134422Y-26571D01*
X134474Y-26581D01*
X134523Y-26598D01*
X134571Y-26621D01*
X134614Y-26651D01*
X134653Y-26685D01*
X134688Y-26724D01*
X134717Y-26768D01*
X134740Y-26815D01*
X134757Y-26865D01*
X134767Y-26916D01*
X134771Y-26969D01*
Y-29213D01*
X134767Y-29265D01*
X134757Y-29316D01*
X134740Y-29366D01*
X134717Y-29413D01*
X134688Y-29457D01*
X134653Y-29496D01*
X134614Y-29531D01*
X134571Y-29560D01*
X134523Y-29583D01*
X134474Y-29600D01*
X134422Y-29610D01*
X134370Y-29614D01*
X132625D01*
Y-29921D01*
X132622Y-29974D01*
X132612Y-30025D01*
X132595Y-30075D01*
X132572Y-30122D01*
X132542Y-30165D01*
X132508Y-30205D01*
X132468Y-30239D01*
X132425Y-30268D01*
X132378Y-30292D01*
X132328Y-30308D01*
X132277Y-30319D01*
X132224Y-30322D01*
X122894D01*
X122841Y-30319D01*
X122790Y-30308D01*
X122740Y-30292D01*
X122693Y-30268D01*
X122650Y-30239D01*
X122610Y-30205D01*
X122576Y-30165D01*
X122547Y-30122D01*
X122523Y-30075D01*
X122506Y-30025D01*
X122496Y-29974D01*
X122493Y-29921D01*
Y-29614D01*
X120748D01*
X120696Y-29610D01*
X120644Y-29600D01*
X120595Y-29583D01*
X120548Y-29560D01*
X120504Y-29531D01*
X120465Y-29496D01*
X120430Y-29457D01*
X120401Y-29413D01*
X120378Y-29366D01*
X120361Y-29316D01*
X120351Y-29265D01*
X120347Y-29213D01*
Y-26969D01*
X120351Y-26916D01*
X120361Y-26865D01*
X120378Y-26815D01*
X120401Y-26768D01*
X120430Y-26724D01*
X120465Y-26685D01*
X120504Y-26651D01*
X120548Y-26621D01*
X120595Y-26598D01*
X120644Y-26581D01*
X120696Y-26571D01*
X120748Y-26568D01*
X122493D01*
Y-20866D01*
X122496Y-20814D01*
X122506Y-20762D01*
X122523Y-20713D01*
X122547Y-20666D01*
X122576Y-20622D01*
X122610Y-20583D01*
X122650Y-20548D01*
X122693Y-20519D01*
X122740Y-20496D01*
X122790Y-20479D01*
X122841Y-20469D01*
X122894Y-20465D01*
X124547D01*
X124600Y-20469D01*
X124651Y-20479D01*
X124701Y-20496D01*
X124748Y-20519D01*
X124791Y-20548D01*
X124831Y-20583D01*
X124865Y-20622D01*
X124894Y-20666D01*
X124918Y-20713D01*
X124934Y-20762D01*
X124945Y-20814D01*
X124948Y-20866D01*
Y-22316D01*
X125052D01*
Y-20866D01*
X125055Y-20814D01*
X125066Y-20762D01*
X125082Y-20713D01*
X125106Y-20666D01*
X125135Y-20622D01*
X125169Y-20583D01*
X125209Y-20548D01*
X125252Y-20519D01*
X125299Y-20496D01*
X125349Y-20479D01*
X125400Y-20469D01*
X125453Y-20465D01*
X127106D01*
X127159Y-20469D01*
X127210Y-20479D01*
X127260Y-20496D01*
X127307Y-20519D01*
X127350Y-20548D01*
X127390Y-20583D01*
X127424Y-20622D01*
X127453Y-20666D01*
X127477Y-20713D01*
X127494Y-20762D01*
X127504Y-20814D01*
X127507Y-20866D01*
Y-22316D01*
X127611D01*
Y-20866D01*
X127614Y-20814D01*
X127625Y-20762D01*
X127641Y-20713D01*
X127665Y-20666D01*
X127694Y-20622D01*
X127728Y-20583D01*
X127768Y-20548D01*
X127811Y-20519D01*
X127858Y-20496D01*
X127908Y-20479D01*
X127960Y-20469D01*
X128012Y-20465D01*
X129665D01*
X129718Y-20469D01*
X129769Y-20479D01*
X129819Y-20496D01*
X129866Y-20519D01*
X129909Y-20548D01*
X129949Y-20583D01*
X129983Y-20622D01*
X130013Y-20666D01*
X130036Y-20713D01*
X130053Y-20762D01*
X130063Y-20814D01*
X130066Y-20866D01*
Y-22316D01*
X130170D01*
Y-20866D01*
X130173Y-20814D01*
X130184Y-20762D01*
X130201Y-20713D01*
X130224Y-20666D01*
X130253Y-20622D01*
X130287Y-20583D01*
X130327Y-20548D01*
X130370Y-20519D01*
X130418Y-20496D01*
X130467Y-20479D01*
X130519Y-20469D01*
X130571Y-20465D01*
X132224D01*
X132277Y-20469D01*
D02*
G37*
G36*
X81883Y-20469D02*
X81934Y-20479D01*
X81984Y-20496D01*
X82031Y-20519D01*
X82075Y-20548D01*
X82114Y-20583D01*
X82149Y-20622D01*
X82178Y-20666D01*
X82201Y-20713D01*
X82218Y-20762D01*
X82228Y-20814D01*
X82232Y-20866D01*
Y-26568D01*
X83976D01*
X84029Y-26571D01*
X84080Y-26581D01*
X84130Y-26598D01*
X84177Y-26621D01*
X84220Y-26651D01*
X84260Y-26685D01*
X84294Y-26724D01*
X84324Y-26768D01*
X84347Y-26815D01*
X84364Y-26865D01*
X84374Y-26916D01*
X84377Y-26969D01*
Y-29213D01*
X84374Y-29265D01*
X84364Y-29316D01*
X84347Y-29366D01*
X84324Y-29413D01*
X84294Y-29457D01*
X84260Y-29496D01*
X84220Y-29531D01*
X84177Y-29560D01*
X84130Y-29583D01*
X84080Y-29600D01*
X84029Y-29610D01*
X83976Y-29614D01*
X82232D01*
Y-29921D01*
X82228Y-29974D01*
X82218Y-30025D01*
X82201Y-30075D01*
X82178Y-30122D01*
X82149Y-30165D01*
X82114Y-30205D01*
X82075Y-30239D01*
X82031Y-30268D01*
X81984Y-30292D01*
X81934Y-30308D01*
X81883Y-30319D01*
X81831Y-30322D01*
X72500D01*
X72448Y-30319D01*
X72396Y-30308D01*
X72347Y-30292D01*
X72300Y-30268D01*
X72256Y-30239D01*
X72217Y-30205D01*
X72182Y-30165D01*
X72153Y-30122D01*
X72130Y-30075D01*
X72113Y-30025D01*
X72103Y-29974D01*
X72099Y-29921D01*
Y-29614D01*
X70354D01*
X70302Y-29610D01*
X70251Y-29600D01*
X70201Y-29583D01*
X70154Y-29560D01*
X70110Y-29531D01*
X70071Y-29496D01*
X70036Y-29457D01*
X70007Y-29413D01*
X69984Y-29366D01*
X69967Y-29316D01*
X69957Y-29265D01*
X69954Y-29213D01*
Y-26969D01*
X69957Y-26916D01*
X69967Y-26865D01*
X69984Y-26815D01*
X70007Y-26768D01*
X70036Y-26724D01*
X70071Y-26685D01*
X70110Y-26651D01*
X70154Y-26621D01*
X70201Y-26598D01*
X70251Y-26581D01*
X70302Y-26571D01*
X70354Y-26568D01*
X72099D01*
Y-20866D01*
X72103Y-20814D01*
X72113Y-20762D01*
X72130Y-20713D01*
X72153Y-20666D01*
X72182Y-20622D01*
X72217Y-20583D01*
X72256Y-20548D01*
X72300Y-20519D01*
X72347Y-20496D01*
X72396Y-20479D01*
X72448Y-20469D01*
X72500Y-20465D01*
X74154D01*
X74206Y-20469D01*
X74257Y-20479D01*
X74307Y-20496D01*
X74354Y-20519D01*
X74398Y-20548D01*
X74437Y-20583D01*
X74472Y-20622D01*
X74501Y-20666D01*
X74524Y-20713D01*
X74541Y-20762D01*
X74551Y-20814D01*
X74554Y-20866D01*
Y-22316D01*
X74658D01*
Y-20866D01*
X74662Y-20814D01*
X74672Y-20762D01*
X74689Y-20713D01*
X74712Y-20666D01*
X74741Y-20622D01*
X74776Y-20583D01*
X74815Y-20548D01*
X74859Y-20519D01*
X74906Y-20496D01*
X74955Y-20479D01*
X75007Y-20469D01*
X75059Y-20465D01*
X76713D01*
X76765Y-20469D01*
X76816Y-20479D01*
X76866Y-20496D01*
X76913Y-20519D01*
X76957Y-20548D01*
X76996Y-20583D01*
X77031Y-20622D01*
X77060Y-20666D01*
X77083Y-20713D01*
X77100Y-20762D01*
X77110Y-20814D01*
X77113Y-20866D01*
Y-22316D01*
X77217D01*
Y-20866D01*
X77221Y-20814D01*
X77231Y-20762D01*
X77248Y-20713D01*
X77271Y-20666D01*
X77300Y-20622D01*
X77335Y-20583D01*
X77374Y-20548D01*
X77418Y-20519D01*
X77465Y-20496D01*
X77514Y-20479D01*
X77566Y-20469D01*
X77618Y-20465D01*
X79272D01*
X79324Y-20469D01*
X79375Y-20479D01*
X79425Y-20496D01*
X79472Y-20519D01*
X79516Y-20548D01*
X79555Y-20583D01*
X79590Y-20622D01*
X79619Y-20666D01*
X79642Y-20713D01*
X79659Y-20762D01*
X79669Y-20814D01*
X79672Y-20866D01*
Y-22316D01*
X79776D01*
Y-20866D01*
X79780Y-20814D01*
X79790Y-20762D01*
X79807Y-20713D01*
X79830Y-20666D01*
X79859Y-20622D01*
X79894Y-20583D01*
X79933Y-20548D01*
X79977Y-20519D01*
X80024Y-20496D01*
X80073Y-20479D01*
X80125Y-20469D01*
X80177Y-20465D01*
X81831D01*
X81883Y-20469D01*
D02*
G37*
G36*
X107080Y-20469D02*
X107131Y-20479D01*
X107181Y-20496D01*
X107228Y-20519D01*
X107272Y-20548D01*
X107311Y-20583D01*
X107345Y-20622D01*
X107375Y-20666D01*
X107398Y-20713D01*
X107415Y-20763D01*
X107425Y-20814D01*
X107428Y-20866D01*
Y-26568D01*
X109173D01*
X109225Y-26571D01*
X109277Y-26581D01*
X109327Y-26598D01*
X109374Y-26621D01*
X109417Y-26651D01*
X109457Y-26685D01*
X109491Y-26725D01*
X109520Y-26768D01*
X109544Y-26815D01*
X109560Y-26865D01*
X109571Y-26916D01*
X109574Y-26969D01*
Y-29213D01*
X109571Y-29265D01*
X109560Y-29316D01*
X109544Y-29366D01*
X109520Y-29413D01*
X109491Y-29457D01*
X109457Y-29496D01*
X109417Y-29531D01*
X109374Y-29560D01*
X109327Y-29583D01*
X109277Y-29600D01*
X109225Y-29610D01*
X109173Y-29614D01*
X107428D01*
Y-29921D01*
X107425Y-29974D01*
X107415Y-30025D01*
X107398Y-30075D01*
X107375Y-30122D01*
X107345Y-30165D01*
X107311Y-30205D01*
X107272Y-30239D01*
X107228Y-30268D01*
X107181Y-30292D01*
X107131Y-30309D01*
X107080Y-30319D01*
X107027Y-30322D01*
X97697D01*
X97645Y-30319D01*
X97593Y-30309D01*
X97543Y-30292D01*
X97496Y-30268D01*
X97453Y-30239D01*
X97413Y-30205D01*
X97379Y-30165D01*
X97350Y-30122D01*
X97326Y-30075D01*
X97310Y-30025D01*
X97299Y-29974D01*
X97296Y-29921D01*
Y-29614D01*
X95551D01*
X95499Y-29610D01*
X95447Y-29600D01*
X95398Y-29583D01*
X95351Y-29560D01*
X95307Y-29531D01*
X95268Y-29496D01*
X95233Y-29457D01*
X95204Y-29413D01*
X95181Y-29366D01*
X95164Y-29316D01*
X95154Y-29265D01*
X95150Y-29213D01*
Y-26969D01*
X95154Y-26916D01*
X95164Y-26865D01*
X95181Y-26815D01*
X95204Y-26768D01*
X95233Y-26725D01*
X95268Y-26685D01*
X95307Y-26651D01*
X95351Y-26621D01*
X95398Y-26598D01*
X95447Y-26581D01*
X95499Y-26571D01*
X95551Y-26568D01*
X97296D01*
Y-20866D01*
X97299Y-20814D01*
X97310Y-20763D01*
X97326Y-20713D01*
X97350Y-20666D01*
X97379Y-20622D01*
X97413Y-20583D01*
X97453Y-20548D01*
X97496Y-20519D01*
X97543Y-20496D01*
X97593Y-20479D01*
X97645Y-20469D01*
X97697Y-20465D01*
X99350D01*
X99403Y-20469D01*
X99454Y-20479D01*
X99504Y-20496D01*
X99551Y-20519D01*
X99594Y-20548D01*
X99634Y-20583D01*
X99668Y-20622D01*
X99698Y-20666D01*
X99721Y-20713D01*
X99738Y-20763D01*
X99748Y-20814D01*
X99751Y-20866D01*
Y-22316D01*
X99855D01*
Y-20866D01*
X99858Y-20814D01*
X99869Y-20763D01*
X99885Y-20713D01*
X99909Y-20666D01*
X99938Y-20622D01*
X99972Y-20583D01*
X100012Y-20548D01*
X100055Y-20519D01*
X100102Y-20496D01*
X100152Y-20479D01*
X100204Y-20469D01*
X100256Y-20465D01*
X101909D01*
X101962Y-20469D01*
X102013Y-20479D01*
X102063Y-20496D01*
X102110Y-20519D01*
X102153Y-20548D01*
X102193Y-20583D01*
X102227Y-20622D01*
X102257Y-20666D01*
X102280Y-20713D01*
X102297Y-20763D01*
X102307Y-20814D01*
X102310Y-20866D01*
Y-22316D01*
X102414D01*
Y-20866D01*
X102418Y-20814D01*
X102428Y-20763D01*
X102445Y-20713D01*
X102468Y-20666D01*
X102497Y-20622D01*
X102532Y-20583D01*
X102571Y-20548D01*
X102614Y-20519D01*
X102662Y-20496D01*
X102711Y-20479D01*
X102763Y-20469D01*
X102815Y-20465D01*
X104469D01*
X104521Y-20469D01*
X104572Y-20479D01*
X104622Y-20496D01*
X104669Y-20519D01*
X104712Y-20548D01*
X104752Y-20583D01*
X104787Y-20622D01*
X104816Y-20666D01*
X104839Y-20713D01*
X104856Y-20763D01*
X104866Y-20814D01*
X104869Y-20866D01*
Y-22316D01*
X104973D01*
Y-20866D01*
X104976Y-20814D01*
X104987Y-20763D01*
X105004Y-20713D01*
X105027Y-20666D01*
X105056Y-20622D01*
X105090Y-20583D01*
X105130Y-20548D01*
X105174Y-20519D01*
X105221Y-20496D01*
X105270Y-20479D01*
X105322Y-20469D01*
X105374Y-20465D01*
X107027D01*
X107080Y-20469D01*
D02*
G37*
D10*
X-33150Y46475D02*
G03*
X-46475Y33150I33150J-46475D01*
G01*
X-25868Y38351D02*
G03*
X-38351Y25868I25868J-38351D01*
G01*
X-46475Y33150D02*
X-38351Y25868D01*
X-33150Y46475D02*
X-25868Y38351D01*
D13*
X-25710Y44255D02*
G03*
X-41392Y30103I25710J-44255D01*
G01*
X177165Y123273D02*
G03*
X123273Y177165I-74803J-20911D01*
G01*
X-79528D02*
X-79527Y-66299D01*
X177165D01*
X177165Y123273D02*
X177165Y-66299D01*
X-79528Y177165D02*
X123273D01*
D24*
X67323Y149606D02*
G03*
X67323Y149606I-8268J0D01*
G01*
X-50787D02*
G03*
X-50787Y149606I-8268J0D01*
G01*
D25*
X52756Y111614D02*
D03*
X77165Y26969D02*
D03*
Y32087D02*
D03*
X136221Y26969D02*
D03*
Y32087D02*
D03*
X106693Y32087D02*
D03*
Y26969D02*
D03*
X787Y121850D02*
D03*
Y126969D02*
D03*
X52756Y106496D02*
D03*
X82677Y50591D02*
D03*
Y55709D02*
D03*
X98819Y97441D02*
D03*
Y92323D02*
D03*
Y86417D02*
D03*
Y81299D02*
D03*
X105118D02*
D03*
Y86417D02*
D03*
X92126Y78937D02*
D03*
Y84055D02*
D03*
X-51575Y-13189D02*
D03*
Y-18307D02*
D03*
X21654Y115354D02*
D03*
Y110236D02*
D03*
X-28346Y74606D02*
D03*
Y69488D02*
D03*
X-31102Y62402D02*
D03*
Y57284D02*
D03*
X-37402Y62402D02*
D03*
Y57284D02*
D03*
X57874Y33268D02*
D03*
Y38386D02*
D03*
X71653Y12795D02*
D03*
Y17913D02*
D03*
X130709Y12795D02*
D03*
Y17913D02*
D03*
X116929Y33268D02*
D03*
Y38386D02*
D03*
X87402Y33268D02*
D03*
Y38386D02*
D03*
X101181Y12795D02*
D03*
Y17913D02*
D03*
X80709Y106496D02*
D03*
Y111614D02*
D03*
D26*
X59842Y108957D02*
D03*
X87008Y108563D02*
D03*
X57874Y27067D02*
D03*
Y21752D02*
D03*
X87402Y27067D02*
D03*
Y21752D02*
D03*
X116929Y27067D02*
D03*
Y21752D02*
D03*
X59842Y103642D02*
D03*
X72047D02*
D03*
Y108957D02*
D03*
X94095Y-38976D02*
D03*
X101181D02*
D03*
X23228Y121358D02*
D03*
Y126673D02*
D03*
X31890Y137106D02*
D03*
Y142421D02*
D03*
X-21654Y69390D02*
D03*
Y74705D02*
D03*
X-35827D02*
D03*
Y69390D02*
D03*
X6299Y60728D02*
D03*
Y66043D02*
D03*
X-57874Y-14665D02*
D03*
Y-19980D02*
D03*
X65354Y12697D02*
D03*
Y18012D02*
D03*
X124409Y12697D02*
D03*
Y18012D02*
D03*
X94882Y12697D02*
D03*
Y18012D02*
D03*
X87008Y103248D02*
D03*
X38583Y78051D02*
D03*
Y83366D02*
D03*
X68898Y-38976D02*
D03*
X75984D02*
D03*
X119291D02*
D03*
X126378D02*
D03*
X85433Y83760D02*
D03*
Y78445D02*
D03*
X-24803Y57579D02*
D03*
Y62894D02*
D03*
D27*
X96457Y113779D02*
D03*
D28*
X81004Y1969D02*
D03*
X78445D02*
D03*
X75886D02*
D03*
X73327D02*
D03*
X123721Y-22835D02*
D03*
X126279D02*
D03*
X128839D02*
D03*
X131398D02*
D03*
X131398Y1969D02*
D03*
X128839D02*
D03*
X126279D02*
D03*
X123720D02*
D03*
X106201Y1969D02*
D03*
X103642D02*
D03*
X101083D02*
D03*
X98524D02*
D03*
X81004Y-22835D02*
D03*
X78445D02*
D03*
X75886D02*
D03*
X73327D02*
D03*
X98524Y-22835D02*
D03*
X101083D02*
D03*
X103642D02*
D03*
X106201D02*
D03*
D29*
X78445Y-8937D02*
D03*
X75886D02*
D03*
X81004D02*
D03*
X73327D02*
D03*
X123721Y-33740D02*
D03*
X131398D02*
D03*
X126279D02*
D03*
X128839D02*
D03*
X128839Y-8937D02*
D03*
X126279D02*
D03*
X131398D02*
D03*
X123720D02*
D03*
X103642Y-8937D02*
D03*
X101083D02*
D03*
X106201D02*
D03*
X98524D02*
D03*
X78445Y-33740D02*
D03*
X75886D02*
D03*
X81004D02*
D03*
X73327D02*
D03*
X98524Y-33740D02*
D03*
X106201D02*
D03*
X101083D02*
D03*
X103642D02*
D03*
D30*
X91240Y69685D02*
D03*
X85925D02*
D03*
X-53642Y-5906D02*
D03*
X-58957D02*
D03*
X64862Y55512D02*
D03*
X59547D02*
D03*
X38287Y137795D02*
D03*
X43602D02*
D03*
X33366Y111024D02*
D03*
X28051D02*
D03*
X-51673Y77953D02*
D03*
X-56988D02*
D03*
X54626Y-37795D02*
D03*
X49311D02*
D03*
X101083Y105118D02*
D03*
X95768D02*
D03*
D31*
X138878Y46457D02*
D03*
X162697D02*
D03*
D32*
X56890Y96201D02*
D03*
X76575D02*
D03*
X74606D02*
D03*
X72638D02*
D03*
X70669D02*
D03*
X68701D02*
D03*
X66732D02*
D03*
X64764D02*
D03*
X62795D02*
D03*
X60827D02*
D03*
X58858D02*
D03*
X54921D02*
D03*
X52953D02*
D03*
X50984D02*
D03*
X49016D02*
D03*
X47047D02*
D03*
Y61279D02*
D03*
X49016D02*
D03*
X50984D02*
D03*
X52953D02*
D03*
X54921D02*
D03*
X56890D02*
D03*
X58858D02*
D03*
X60827D02*
D03*
X62795D02*
D03*
X64764D02*
D03*
X66732D02*
D03*
X68701D02*
D03*
X70669D02*
D03*
X72638D02*
D03*
X74606D02*
D03*
X76575D02*
D03*
D33*
X79272Y93504D02*
D03*
Y63976D02*
D03*
Y65945D02*
D03*
Y67913D02*
D03*
Y69882D02*
D03*
Y71850D02*
D03*
Y73819D02*
D03*
Y75787D02*
D03*
Y77756D02*
D03*
Y79724D02*
D03*
Y81693D02*
D03*
Y83661D02*
D03*
Y85630D02*
D03*
Y87599D02*
D03*
Y89567D02*
D03*
Y91536D02*
D03*
X44350Y93504D02*
D03*
Y91536D02*
D03*
Y89567D02*
D03*
Y87599D02*
D03*
Y85630D02*
D03*
Y83661D02*
D03*
Y81693D02*
D03*
Y79724D02*
D03*
Y77756D02*
D03*
Y75787D02*
D03*
Y73819D02*
D03*
Y71850D02*
D03*
Y69882D02*
D03*
Y67913D02*
D03*
Y65945D02*
D03*
Y63976D02*
D03*
D34*
X62992Y-14567D02*
D03*
Y-3543D02*
D03*
X142126D02*
D03*
Y-14567D02*
D03*
D35*
X89961Y50000D02*
D03*
X95866D02*
D03*
X12402Y72441D02*
D03*
X6496D02*
D03*
D36*
X61811Y78740D02*
D03*
D37*
X44094Y118898D02*
D03*
Y120866D02*
D03*
Y122835D02*
D03*
Y124803D02*
D03*
Y126772D02*
D03*
Y128740D02*
D03*
X28346D02*
D03*
Y126772D02*
D03*
Y124803D02*
D03*
Y122835D02*
D03*
Y120866D02*
D03*
Y118898D02*
D03*
D38*
X36220Y123819D02*
D03*
D39*
X41142Y131595D02*
D03*
X39173D02*
D03*
X37205D02*
D03*
X35236D02*
D03*
X33268D02*
D03*
X31299D02*
D03*
Y116043D02*
D03*
X33268D02*
D03*
X35236D02*
D03*
X37205D02*
D03*
X39173D02*
D03*
X41142D02*
D03*
D40*
X-42717Y71988D02*
D03*
X-46457D02*
D03*
X-50197D02*
D03*
X-42717Y62657D02*
D03*
X-46457D02*
D03*
X-50197D02*
D03*
D41*
X-57480Y85039D02*
D03*
X-51181D02*
D03*
D42*
X-39665Y83465D02*
D03*
X-29626D02*
D03*
D43*
X-17717Y55905D02*
D03*
Y62205D02*
D03*
D44*
X-44390Y-33712D02*
D03*
X-46949Y-29280D02*
D03*
D45*
X48917Y-25343D02*
D03*
X46358Y-29775D02*
D03*
D46*
X92579Y110827D02*
D03*
Y112795D02*
D03*
Y114764D02*
D03*
Y116732D02*
D03*
X100335D02*
D03*
Y114764D02*
D03*
Y112795D02*
D03*
Y110827D02*
D03*
D47*
X27362Y94488D02*
D03*
X22244D02*
D03*
X27362Y88189D02*
D03*
X22244D02*
D03*
X-7283Y54724D02*
D03*
X-2165D02*
D03*
X-4921Y72441D02*
D03*
X197D02*
D03*
D48*
X95669Y148425D02*
D03*
X103543D02*
D03*
X111417D02*
D03*
X-34646Y101575D02*
D03*
X-26772D02*
D03*
X147244Y24409D02*
D03*
X-75000Y-11811D02*
D03*
Y-19685D02*
D03*
X-67126Y-11811D02*
D03*
Y-19685D02*
D03*
X-75000Y-27559D02*
D03*
Y106299D02*
D03*
Y98425D02*
D03*
X-67126Y106299D02*
D03*
Y98425D02*
D03*
X-75000Y90551D02*
D03*
X106299Y-49724D02*
D03*
X98425D02*
D03*
X106299Y-57598D02*
D03*
X98425D02*
D03*
X90551Y-49724D02*
D03*
X-11811D02*
D03*
X-19685D02*
D03*
X-11811Y-57598D02*
D03*
X-19685D02*
D03*
X-27559Y-49724D02*
D03*
D49*
X87795Y148425D02*
D03*
X-42520Y101575D02*
D03*
X155118Y24409D02*
D03*
X90551Y-57598D02*
D03*
X-27559D02*
D03*
D50*
X28740Y28740D02*
D03*
Y-28740D02*
D03*
X-28740D02*
D03*
Y28740D02*
D03*
X-38465Y124409D02*
D03*
X-18465D02*
D03*
X-28465D02*
D03*
X-48465D02*
D03*
X-58465D02*
D03*
D51*
X0Y98819D02*
D03*
Y165354D02*
D03*
X-59055Y149606D02*
D03*
X59055D02*
D03*
X165354Y0D02*
D03*
X145669Y145669D02*
D03*
D52*
X-49095Y-39779D02*
D03*
X-54756Y-31536D02*
D03*
X-51926Y-35658D02*
D03*
D53*
X56846Y-27139D02*
D03*
X54692Y-31651D02*
D03*
X59000Y-22626D02*
D03*
D54*
X-9906Y62409D02*
D03*
X64Y63190D02*
D03*
X-4921Y62800D02*
D03*
D55*
X-8465Y124409D02*
D03*
D56*
X127953Y-15748D02*
D03*
X102362D02*
D03*
X77165D02*
D03*
D57*
X0Y0D02*
D03*
Y-37402D02*
D03*
Y37401D02*
D03*
X-31496Y0D02*
D03*
X31496D02*
D03*
D58*
X-67126Y-27559D02*
D03*
Y90551D02*
D03*
D59*
X116929Y21752D02*
D03*
Y27067D02*
D03*
X116929Y38386D02*
D03*
X87402D02*
D03*
X57874D02*
D03*
X67323Y29528D02*
D03*
X57874Y21752D02*
D03*
X87402Y21752D02*
D03*
X87402Y27067D02*
D03*
X57874D02*
D03*
X-7874Y98425D02*
D03*
X0Y90945D02*
D03*
Y106693D02*
D03*
X7874Y98425D02*
D03*
X-5906Y103543D02*
D03*
X5512Y103937D02*
D03*
Y93307D02*
D03*
X-5118Y92914D02*
D03*
X59055Y157480D02*
D03*
Y141732D02*
D03*
X51181Y149213D02*
D03*
X66929D02*
D03*
X64567Y154725D02*
D03*
X53150Y154331D02*
D03*
X53937Y143701D02*
D03*
X64567Y144095D02*
D03*
X-59055Y157480D02*
D03*
Y141732D02*
D03*
X-66929Y149213D02*
D03*
X-51181D02*
D03*
X-53543Y154725D02*
D03*
X-64961Y154331D02*
D03*
X-64173Y143701D02*
D03*
X-53543Y144095D02*
D03*
X145669Y153543D02*
D03*
Y137795D02*
D03*
X137795Y145276D02*
D03*
X153543D02*
D03*
X151181Y150787D02*
D03*
X139764Y150394D02*
D03*
X140551Y139764D02*
D03*
X151181Y140157D02*
D03*
X165354Y7874D02*
D03*
Y-7874D02*
D03*
X157480Y-394D02*
D03*
X173228D02*
D03*
X170866Y5118D02*
D03*
X159449Y4724D02*
D03*
X160236Y-5905D02*
D03*
X170866Y-5512D02*
D03*
X5512Y159843D02*
D03*
X-5118Y159449D02*
D03*
X-5906Y170079D02*
D03*
X5512Y170472D02*
D03*
X7874Y164961D02*
D03*
X-7874D02*
D03*
X0Y157480D02*
D03*
Y173228D02*
D03*
X61811Y78347D02*
D03*
X52756Y87795D02*
D03*
Y69685D02*
D03*
X71260Y88189D02*
D03*
X70866Y69685D02*
D03*
X33071Y121260D02*
D03*
Y126772D02*
D03*
X39370D02*
D03*
Y121260D02*
D03*
X126378Y29528D02*
D03*
X96850D02*
D03*
M02*
