G04*
G04 #@! TF.GenerationSoftware,Altium Limited,Altium Designer,20.1.14 (287)*
G04*
G04 Layer_Color=32896*
%FSLAX25Y25*%
%MOIN*%
G70*
G04*
G04 #@! TF.SameCoordinates,BFC865CF-BEAF-49AC-A6C2-1AB5C3D80CD9*
G04*
G04*
G04 #@! TF.FilePolarity,Positive*
G04*
G01*
G75*
%ADD10C,0.00787*%
%ADD13C,0.01000*%
%ADD15C,0.01181*%
%ADD16C,0.01968*%
%ADD18C,0.00591*%
%ADD19C,0.00500*%
D10*
X61024Y22909D02*
X64173D01*
Y22146D02*
Y22909D01*
X61024Y3248D02*
Y22909D01*
Y3248D02*
X62992D01*
X61024Y22146D02*
X64173D01*
X66536D02*
X69685D01*
X65340Y11010D02*
Y11797D01*
X63569D02*
X67140D01*
X63569D02*
X65354Y13583D01*
X67140Y11797D01*
X63583Y13583D02*
X67126D01*
X65354D02*
Y14370D01*
X67716Y3248D02*
X69685D01*
Y22909D01*
X66536Y22146D02*
Y22909D01*
X69685D01*
X59055Y30732D02*
X62205D01*
X59055D02*
Y31496D01*
X62205Y30732D02*
Y50394D01*
X60236D02*
X62205D01*
X59055Y31496D02*
X62205D01*
X53543D02*
X56693D01*
X57888Y41845D02*
Y42632D01*
X56088Y41845D02*
X59660D01*
X57874Y40059D02*
X59660Y41845D01*
X56088D02*
X57874Y40059D01*
X56102D02*
X59646D01*
X57874Y39272D02*
Y40059D01*
X53543Y50394D02*
X55512D01*
X53543Y30732D02*
Y50394D01*
X56693Y30732D02*
Y31496D01*
X53543Y30732D02*
X56693D01*
X118110D02*
X121260D01*
X118110D02*
Y31496D01*
X121260Y30732D02*
Y50394D01*
X119291D02*
X121260D01*
X118110Y31496D02*
X121260D01*
X112598D02*
X115748D01*
X116943Y41845D02*
Y42632D01*
X115143Y41845D02*
X118715D01*
X116929Y40059D02*
X118715Y41845D01*
X115143D02*
X116929Y40059D01*
X115157D02*
X118701D01*
X116929Y39272D02*
Y40059D01*
X112598Y50394D02*
X114567D01*
X112598Y30732D02*
Y50394D01*
X115748Y30732D02*
Y31496D01*
X112598Y30732D02*
X115748D01*
X120079Y22909D02*
X123228D01*
Y22145D02*
Y22909D01*
X120079Y3248D02*
Y22909D01*
Y3248D02*
X122047D01*
X120079Y22145D02*
X123228D01*
X125590D02*
X128740D01*
X124395Y11009D02*
Y11797D01*
X122624D02*
X126195D01*
X122624D02*
X124409Y13582D01*
X126195Y11797D01*
X122638Y13582D02*
X126181D01*
X124409D02*
Y14370D01*
X126771Y3248D02*
X128740D01*
Y22909D01*
X125590Y22145D02*
Y22909D01*
X128740D01*
X88583Y30732D02*
X91732D01*
X88583D02*
Y31496D01*
X91732Y30732D02*
Y50394D01*
X89764D02*
X91732D01*
X88583Y31496D02*
X91732D01*
X83071D02*
X86221D01*
X87416Y41845D02*
Y42632D01*
X85616Y41845D02*
X89187D01*
X87402Y40059D02*
X89187Y41845D01*
X85616D02*
X87402Y40059D01*
X85630D02*
X89173D01*
X87402Y39272D02*
Y40059D01*
X83071Y50394D02*
X85039D01*
X83071Y30732D02*
Y50394D01*
X86221Y30732D02*
Y31496D01*
X83071Y30732D02*
X86221D01*
X90551Y22909D02*
X93701D01*
Y22145D02*
Y22909D01*
X90551Y3248D02*
Y22909D01*
Y3248D02*
X92520D01*
X90551Y22145D02*
X93701D01*
X96063D02*
X99213D01*
X94868Y11009D02*
Y11797D01*
X93096D02*
X96668D01*
X93096D02*
X94882Y13582D01*
X96668Y11797D01*
X93110Y13582D02*
X96654D01*
X94882D02*
Y14370D01*
X97244Y3248D02*
X99213D01*
Y22909D01*
X96063Y22145D02*
Y22909D01*
X99213D01*
X126969Y96850D02*
X130118D01*
Y130709D01*
X126969D02*
X130118D01*
X113976D02*
X117126D01*
X113976Y96850D02*
Y130709D01*
Y96850D02*
X117126D01*
X113976Y113779D02*
X130118D01*
X-33150Y46475D02*
G03*
X-46475Y33150I33150J-46475D01*
G01*
X-25868Y38351D02*
G03*
X-38351Y25868I25868J-38351D01*
G01*
X-46475Y33150D02*
X-38351Y25868D01*
X-33150Y46475D02*
X-25868Y38351D01*
D13*
X131378Y-15748D02*
G03*
X131378Y-15748I-3425J0D01*
G01*
X105787D02*
G03*
X105787Y-15748I-3425J0D01*
G01*
X80590D02*
G03*
X80590Y-15748I-3425J0D01*
G01*
X-25710Y44255D02*
G03*
X-41392Y30103I25710J-44255D01*
G01*
X177165Y123273D02*
G03*
X123273Y177165I-74803J-20911D01*
G01*
X-79528D02*
X-79527Y-66299D01*
X177165D01*
X177165Y123273D02*
X177165Y-66299D01*
X-79528Y177165D02*
X123273D01*
D15*
X-54390Y-26795D02*
G03*
X-54390Y-26795I-278J0D01*
G01*
X50821Y-33945D02*
G03*
X50821Y-33945I-278J0D01*
G01*
X4404Y60744D02*
G03*
X4404Y60744I-278J0D01*
G01*
X133733Y-67064D02*
G03*
X-80141Y126331I-133733J67064D01*
G01*
X87522Y-67022D02*
G03*
X-80263Y75564I-87522J67022D01*
G01*
X114567Y90551D02*
Y100394D01*
Y127953D01*
Y137795D01*
X55512D02*
X114567D01*
X55512Y127953D02*
X114567D01*
X55512Y100394D02*
X114567D01*
X55512Y90551D02*
X114567D01*
X24016Y101969D02*
X41732D01*
X24016Y135827D02*
X41732D01*
X24016Y126378D02*
X41732D01*
X-25197Y120079D02*
X22047D01*
X-25197Y108268D02*
X22047D01*
X24016Y92520D02*
X41732D01*
X22047Y90551D02*
Y137795D01*
X43701Y101969D02*
X55512D01*
X43701Y135827D02*
X55512D01*
X43701Y126378D02*
X55512D01*
X43701Y92520D02*
X55512D01*
X22047Y137795D02*
X24016D01*
X22047Y90551D02*
X24016D01*
X55512D02*
Y137795D01*
Y90551D02*
Y100394D01*
Y127953D02*
Y137795D01*
X41732Y90551D02*
Y137795D01*
X43701Y90551D02*
Y137795D01*
X24016Y90551D02*
Y137795D01*
X-25197Y108268D02*
Y120079D01*
X41732Y137795D02*
X43701D01*
X41732Y90551D02*
X43701D01*
D16*
X51181Y-0D02*
G03*
X51181Y-0I-51181J0D01*
G01*
D18*
X118504Y29921D02*
X119685D01*
Y18898D02*
Y29921D01*
X118504Y18898D02*
X119685D01*
X114173D02*
X115354D01*
X114173D02*
Y29921D01*
X115354D01*
X114173Y24409D02*
X119685D01*
X88976Y29921D02*
X90158D01*
Y18898D02*
Y29921D01*
X88976Y18898D02*
X90158D01*
X84646D02*
X85827D01*
X84646D02*
Y29921D01*
X85827D01*
X84646Y24409D02*
X90158D01*
X55118D02*
X60630D01*
X55118Y29921D02*
X56299D01*
X55118Y18898D02*
Y29921D01*
Y18898D02*
X56299D01*
X59449D02*
X60630D01*
Y29921D01*
X59449D02*
X60630D01*
X151181Y15748D02*
Y21260D01*
X145669Y15748D02*
Y16929D01*
Y15748D02*
X156693D01*
Y16929D01*
Y20079D02*
Y21260D01*
X145669D02*
X156693D01*
X145669Y20079D02*
Y21260D01*
X57480Y-19685D02*
X58661D01*
X57480D02*
Y-8661D01*
X58661D01*
X61811D02*
X62992D01*
Y-19685D02*
Y-8661D01*
X61811Y-19685D02*
X62992D01*
X57480Y-14173D02*
X62992D01*
X51181D02*
X56693D01*
X55937Y-19173D02*
X56693D01*
Y-9173D01*
X55937D02*
X56693D01*
X51181D02*
X51937D01*
X51181Y-19173D02*
Y-9173D01*
Y-19173D02*
X51937D01*
X-8661Y70591D02*
X-7905D01*
X-8661D02*
Y80590D01*
X-7905D01*
X-3906D02*
X-3150D01*
Y70591D02*
Y80590D01*
X-3906Y70591D02*
X-3150D01*
X-8661Y75590D02*
X-3150D01*
X107205Y81921D02*
Y82677D01*
X117205D01*
Y81921D02*
Y82677D01*
Y77165D02*
Y77921D01*
X107205Y77165D02*
X117205D01*
X107205D02*
Y77921D01*
X112205Y77165D02*
Y82677D01*
X117205Y70866D02*
Y71622D01*
X107205Y70866D02*
X117205D01*
X107205D02*
Y71622D01*
Y75622D02*
Y76378D01*
X117205D01*
Y75622D02*
Y76378D01*
X112205Y70866D02*
Y76378D01*
X96378Y81921D02*
Y82677D01*
X106378D01*
Y81921D02*
Y82677D01*
Y77165D02*
Y77921D01*
X96378Y77165D02*
X106378D01*
X96378D02*
Y77921D01*
X101378Y77165D02*
Y82677D01*
X96378Y75622D02*
Y76378D01*
X106378D01*
Y75622D02*
Y76378D01*
Y70866D02*
Y71622D01*
X96378Y70866D02*
X106378D01*
X96378D02*
Y71622D01*
X101378Y70866D02*
Y76378D01*
X-21260Y133465D02*
X-15748D01*
X-21260Y138465D02*
X-20504D01*
X-21260Y128465D02*
Y138465D01*
Y128465D02*
X-20504D01*
X-16504D02*
X-15748D01*
Y138465D01*
X-16504D02*
X-15748D01*
X-2362Y70079D02*
X-1181D01*
X-2362D02*
Y81102D01*
X-1181D01*
X1969D02*
X3150D01*
Y70079D02*
Y81102D01*
X1969Y70079D02*
X3150D01*
X-2362Y75590D02*
X3150D01*
X-50906Y54724D02*
Y55480D01*
X-60905Y54724D02*
X-50906D01*
X-60905D02*
Y55480D01*
Y59480D02*
Y60236D01*
X-50906D01*
Y59480D02*
Y60236D01*
X-55905Y54724D02*
Y60236D01*
X-76378Y83071D02*
Y84252D01*
X-65354D01*
Y83071D02*
Y84252D01*
Y78740D02*
Y79921D01*
X-76378Y78740D02*
X-65354D01*
X-76378D02*
Y79921D01*
X-70866Y78740D02*
Y84252D01*
X79527Y-59449D02*
X80709D01*
X79527D02*
Y-48425D01*
X80709D01*
X83858D02*
X85039D01*
Y-59449D02*
Y-48425D01*
X83858Y-59449D02*
X85039D01*
X79527Y-53937D02*
X85039D01*
X-38976Y-54724D02*
X-33465D01*
X-38976Y-49213D02*
X-37795D01*
X-38976Y-60236D02*
Y-49213D01*
Y-60236D02*
X-37795D01*
X-34646D02*
X-33465D01*
Y-49213D01*
X-34646D02*
X-33465D01*
X-71260Y-5512D02*
Y0D01*
X-65748Y-1181D02*
Y0D01*
X-76772D02*
X-65748D01*
X-76772Y-1181D02*
Y0D01*
Y-5512D02*
Y-4331D01*
Y-5512D02*
X-65748D01*
Y-4331D01*
D19*
X-49117Y-43520D02*
X-46643Y-41820D01*
X-58255Y-30214D02*
X-55781Y-28514D01*
X52587Y-34049D02*
X55296Y-35342D01*
X59542Y-19482D02*
X62251Y-20775D01*
X-13134Y64298D02*
X-12900Y61306D01*
X2958Y65559D02*
X3193Y62567D01*
M02*
