G04*
G04 #@! TF.GenerationSoftware,Altium Limited,Altium Designer,24.5.2 (23)*
G04*
G04 Layer_Color=8388736*
%FSLAX44Y44*%
%MOMM*%
G71*
G04*
G04 #@! TF.SameCoordinates,69858205-0F2E-4D39-B2D1-A8915E6FFAA9*
G04*
G04*
G04 #@! TF.FilePolarity,Negative*
G04*
G01*
G75*
G04:AMPARAMS|DCode=44|XSize=2.2032mm|YSize=1.7032mm|CornerRadius=0.4766mm|HoleSize=0mm|Usage=FLASHONLY|Rotation=0.000|XOffset=0mm|YOffset=0mm|HoleType=Round|Shape=RoundedRectangle|*
%AMROUNDEDRECTD44*
21,1,2.2032,0.7500,0,0,0.0*
21,1,1.2500,1.7032,0,0,0.0*
1,1,0.9532,0.6250,-0.3750*
1,1,0.9532,-0.6250,-0.3750*
1,1,0.9532,-0.6250,0.3750*
1,1,0.9532,0.6250,0.3750*
%
%ADD44ROUNDEDRECTD44*%
G04:AMPARAMS|DCode=45|XSize=1.7032mm|YSize=2.2032mm|CornerRadius=0.4766mm|HoleSize=0mm|Usage=FLASHONLY|Rotation=0.000|XOffset=0mm|YOffset=0mm|HoleType=Round|Shape=RoundedRectangle|*
%AMROUNDEDRECTD45*
21,1,1.7032,1.2500,0,0,0.0*
21,1,0.7500,2.2032,0,0,0.0*
1,1,0.9532,0.3750,-0.6250*
1,1,0.9532,-0.3750,-0.6250*
1,1,0.9532,-0.3750,0.6250*
1,1,0.9532,0.3750,0.6250*
%
%ADD45ROUNDEDRECTD45*%
G04:AMPARAMS|DCode=46|XSize=0.8432mm|YSize=0.8032mm|CornerRadius=0mm|HoleSize=0mm|Usage=FLASHONLY|Rotation=315.000|XOffset=0mm|YOffset=0mm|HoleType=Round|Shape=Rectangle|*
%AMROTATEDRECTD46*
4,1,4,-0.5821,0.0141,-0.0141,0.5821,0.5821,-0.0141,0.0141,-0.5821,-0.5821,0.0141,0.0*
%
%ADD46ROTATEDRECTD46*%

%ADD47R,0.8032X0.8432*%
G04:AMPARAMS|DCode=48|XSize=1.7032mm|YSize=2.2032mm|CornerRadius=0.4766mm|HoleSize=0mm|Usage=FLASHONLY|Rotation=270.000|XOffset=0mm|YOffset=0mm|HoleType=Round|Shape=RoundedRectangle|*
%AMROUNDEDRECTD48*
21,1,1.7032,1.2500,0,0,270.0*
21,1,0.7500,2.2032,0,0,270.0*
1,1,0.9532,-0.6250,-0.3750*
1,1,0.9532,-0.6250,0.3750*
1,1,0.9532,0.6250,0.3750*
1,1,0.9532,0.6250,-0.3750*
%
%ADD48ROUNDEDRECTD48*%
%ADD49R,1.7032X3.6032*%
%ADD50R,1.2032X3.7032*%
%ADD51R,1.1032X1.2032*%
%ADD52R,0.7532X1.2032*%
%ADD53R,0.8432X0.8032*%
%ADD54R,2.0032X0.8032*%
G04:AMPARAMS|DCode=55|XSize=1.3932mm|YSize=0.4432mm|CornerRadius=0.1652mm|HoleSize=0mm|Usage=FLASHONLY|Rotation=315.000|XOffset=0mm|YOffset=0mm|HoleType=Round|Shape=RoundedRectangle|*
%AMROUNDEDRECTD55*
21,1,1.3932,0.1128,0,0,315.0*
21,1,1.0628,0.4432,0,0,315.0*
1,1,0.3304,0.3359,-0.4156*
1,1,0.3304,-0.4156,0.3359*
1,1,0.3304,-0.3359,0.4156*
1,1,0.3304,0.4156,-0.3359*
%
%ADD55ROUNDEDRECTD55*%
G04:AMPARAMS|DCode=56|XSize=1.3932mm|YSize=0.4432mm|CornerRadius=0.1652mm|HoleSize=0mm|Usage=FLASHONLY|Rotation=225.000|XOffset=0mm|YOffset=0mm|HoleType=Round|Shape=RoundedRectangle|*
%AMROUNDEDRECTD56*
21,1,1.3932,0.1128,0,0,225.0*
21,1,1.0628,0.4432,0,0,225.0*
1,1,0.3304,-0.4156,-0.3359*
1,1,0.3304,0.3359,0.4156*
1,1,0.3304,0.4156,0.3359*
1,1,0.3304,-0.3359,-0.4156*
%
%ADD56ROUNDEDRECTD56*%
%ADD57R,0.5032X1.4532*%
%ADD58R,2.2032X3.2032*%
%ADD59R,1.7532X0.8032*%
%ADD60R,2.0032X1.4032*%
%ADD61R,0.9532X0.8032*%
%ADD62R,1.0032X1.2532*%
%ADD63R,1.0032X0.8532*%
%ADD64R,0.8832X1.7032*%
%ADD65R,1.1532X1.0532*%
G04:AMPARAMS|DCode=66|XSize=0.8032mm|YSize=0.9532mm|CornerRadius=0mm|HoleSize=0mm|Usage=FLASHONLY|Rotation=135.000|XOffset=0mm|YOffset=0mm|HoleType=Round|Shape=Rectangle|*
%AMROTATEDRECTD66*
4,1,4,0.6210,0.0530,-0.0530,-0.6210,-0.6210,-0.0530,0.0530,0.6210,0.6210,0.0530,0.0*
%
%ADD66ROTATEDRECTD66*%

G04:AMPARAMS|DCode=67|XSize=0.8432mm|YSize=0.8032mm|CornerRadius=0mm|HoleSize=0mm|Usage=FLASHONLY|Rotation=225.000|XOffset=0mm|YOffset=0mm|HoleType=Round|Shape=Rectangle|*
%AMROTATEDRECTD67*
4,1,4,0.0141,0.5821,0.5821,0.0141,-0.0141,-0.5821,-0.5821,-0.0141,0.0141,0.5821,0.0*
%
%ADD67ROTATEDRECTD67*%

%ADD68R,0.8032X0.9532*%
G04:AMPARAMS|DCode=69|XSize=1.0032mm|YSize=1.1032mm|CornerRadius=0mm|HoleSize=0mm|Usage=FLASHONLY|Rotation=225.000|XOffset=0mm|YOffset=0mm|HoleType=Round|Shape=Rectangle|*
%AMROTATEDRECTD69*
4,1,4,-0.0354,0.7447,0.7447,-0.0354,0.0354,-0.7447,-0.7447,0.0354,-0.0354,0.7447,0.0*
%
%ADD69ROTATEDRECTD69*%

%ADD70R,0.8032X1.2032*%
G36*
X3668Y46972D02*
X3799Y46946D01*
X3925Y46903D01*
X4045Y46844D01*
X4155Y46770D01*
X4256Y46682D01*
X50217Y720D01*
X50305Y620D01*
X50379Y509D01*
X50419Y429D01*
X50438Y390D01*
X50481Y264D01*
X50507Y133D01*
X50516Y0D01*
X50507Y-133D01*
X50481Y-264D01*
X50438Y-390D01*
X50379Y-509D01*
X50305Y-620D01*
X50217Y-720D01*
X720Y-50217D01*
X620Y-50305D01*
X509Y-50379D01*
X390Y-50438D01*
X264Y-50481D01*
X133Y-50507D01*
X0Y-50516D01*
X-133Y-50507D01*
X-264Y-50481D01*
X-390Y-50438D01*
X-509Y-50379D01*
X-620Y-50305D01*
X-720Y-50217D01*
X-50217Y-720D01*
X-50305Y-620D01*
X-50379Y-509D01*
X-50438Y-390D01*
X-50481Y-264D01*
X-50507Y-133D01*
X-50516Y0D01*
X-50507Y133D01*
X-50481Y264D01*
X-50438Y390D01*
X-50379Y509D01*
X-50305Y620D01*
X-50217Y720D01*
X-4256Y46682D01*
X-4155Y46770D01*
X-4045Y46844D01*
X-3925Y46903D01*
X-3799Y46946D01*
X-3668Y46972D01*
X-3536Y46980D01*
X3535D01*
X3668Y46972D01*
D02*
G37*
G36*
X288533Y16509D02*
X288664Y16484D01*
X288790Y16441D01*
X288909Y16382D01*
X289020Y16308D01*
X289120Y16220D01*
X289208Y16120D01*
X289282Y16009D01*
X289341Y15890D01*
X289384Y15763D01*
X289410Y15633D01*
X289418Y15500D01*
Y22D01*
X294720Y-5280D01*
X294808Y-5380D01*
X294882Y-5491D01*
X294941Y-5610D01*
X294984Y-5737D01*
X295009Y-5867D01*
X295018Y-6000D01*
Y-36000D01*
X295009Y-36133D01*
X294984Y-36264D01*
X294941Y-36390D01*
X294882Y-36509D01*
X294808Y-36620D01*
X294720Y-36720D01*
X294620Y-36808D01*
X294509Y-36882D01*
X294390Y-36941D01*
X294263Y-36983D01*
X294133Y-37009D01*
X294000Y-37018D01*
X276000D01*
X275867Y-37009D01*
X275737Y-36983D01*
X275610Y-36941D01*
X275491Y-36882D01*
X275380Y-36808D01*
X275280Y-36720D01*
X275192Y-36620D01*
X275118Y-36509D01*
X275059Y-36390D01*
X275016Y-36264D01*
X274991Y-36133D01*
X274982Y-36000D01*
Y-6000D01*
X274991Y-5867D01*
X275016Y-5737D01*
X275059Y-5610D01*
X275118Y-5491D01*
X275192Y-5380D01*
X275280Y-5280D01*
X280582Y22D01*
X280582Y15500D01*
X280590Y15633D01*
X280616Y15763D01*
X280659Y15890D01*
X280718Y16009D01*
X280792Y16120D01*
X280880Y16220D01*
X280980Y16308D01*
X281091Y16382D01*
X281210Y16441D01*
X281336Y16484D01*
X281467Y16509D01*
X281600Y16518D01*
X288400D01*
X288533Y16509D01*
D02*
G37*
D44*
X36000Y150000D02*
D03*
X10000D02*
D03*
D45*
X72000Y148000D02*
D03*
X92000D02*
D03*
X152000D02*
D03*
X132000D02*
D03*
X172000D02*
D03*
X112000D02*
D03*
X-73000D02*
D03*
X-33000D02*
D03*
X-53000D02*
D03*
X-93000D02*
D03*
X-113000D02*
D03*
X-133000D02*
D03*
X-153000D02*
D03*
D46*
X54111Y132111D02*
D03*
X47889Y125889D02*
D03*
X61111Y125111D02*
D03*
X54889Y118889D02*
D03*
X-8889Y-139889D02*
D03*
X-15111Y-146111D02*
D03*
X-50889Y-117889D02*
D03*
X-57111Y-124111D02*
D03*
X95111Y-75889D02*
D03*
X88889Y-82111D02*
D03*
X-50111Y-131111D02*
D03*
X-43889Y-124888D02*
D03*
X56889Y-114111D02*
D03*
X63111Y-107889D02*
D03*
X-75889Y-92889D02*
D03*
X-82111Y-99112D02*
D03*
X-124889Y-43889D02*
D03*
X-131111Y-50111D02*
D03*
X-143889Y-25889D02*
D03*
X-150111Y-32111D02*
D03*
X-137000Y-33000D02*
D03*
X-143223Y-39223D02*
D03*
X-117889Y-50889D02*
D03*
X-124111Y-57111D02*
D03*
X-110889Y-57889D02*
D03*
X-117112Y-64111D02*
D03*
X-96889Y-71889D02*
D03*
X-103112Y-78111D02*
D03*
X-103889Y-64889D02*
D03*
X-110112Y-71111D02*
D03*
X-82889Y-85889D02*
D03*
X-89111Y-92112D02*
D03*
X101111Y90111D02*
D03*
X94889Y83889D02*
D03*
X-90000Y-79000D02*
D03*
X-96223Y-85223D02*
D03*
X94111Y97112D02*
D03*
X87889Y90889D02*
D03*
D47*
X-47600Y122000D02*
D03*
X-56400D02*
D03*
X246600Y13000D02*
D03*
X255400D02*
D03*
X-39400Y-138000D02*
D03*
X-30600D02*
D03*
X249400Y-37000D02*
D03*
X240600D02*
D03*
X124600Y94000D02*
D03*
X133400D02*
D03*
X-67600Y122000D02*
D03*
X-76400D02*
D03*
D48*
X-151000Y82000D02*
D03*
Y102000D02*
D03*
D49*
X327500Y141000D02*
D03*
X260500D02*
D03*
D50*
X304000Y83500D02*
D03*
X284000D02*
D03*
D51*
X300750Y58000D02*
D03*
X287250D02*
D03*
D52*
X200500Y69500D02*
D03*
X191000D02*
D03*
X181500D02*
D03*
Y42500D02*
D03*
X200500D02*
D03*
X232000Y69500D02*
D03*
X241500Y42500D02*
D03*
X222500D02*
D03*
Y69500D02*
D03*
X241500D02*
D03*
X229500Y-25500D02*
D03*
X210500D02*
D03*
Y1500D02*
D03*
X229500D02*
D03*
X220000D02*
D03*
D53*
X211000Y41600D02*
D03*
Y50400D02*
D03*
Y70400D02*
D03*
Y61600D02*
D03*
X252000Y70400D02*
D03*
Y61600D02*
D03*
X252000Y50400D02*
D03*
Y41600D02*
D03*
X240000Y-17600D02*
D03*
Y-26400D02*
D03*
Y-6400D02*
D03*
Y2400D02*
D03*
X81000Y-90600D02*
D03*
Y-99400D02*
D03*
X106000Y-67600D02*
D03*
Y-76400D02*
D03*
X133000Y74600D02*
D03*
Y83400D02*
D03*
D54*
X320000Y-20000D02*
D03*
Y-4000D02*
D03*
D55*
X-51053Y99136D02*
D03*
X-53882Y96308D02*
D03*
X-56710Y93479D02*
D03*
X-59538Y90651D02*
D03*
X135906Y-14284D02*
D03*
X133078Y-17112D02*
D03*
X130249Y-19941D02*
D03*
X127421Y-22769D02*
D03*
X124592Y-25598D02*
D03*
X118936Y-31254D02*
D03*
X116107Y-34083D02*
D03*
X113279Y-36911D02*
D03*
X110450Y-39740D02*
D03*
X107622Y-42568D02*
D03*
X104794Y-45397D02*
D03*
X101965Y-48225D02*
D03*
X99137Y-51054D02*
D03*
X96308Y-53882D02*
D03*
X93480Y-56710D02*
D03*
X90651Y-59539D02*
D03*
X87823Y-62367D02*
D03*
X84994Y-65196D02*
D03*
X82166Y-68024D02*
D03*
X79338Y-70852D02*
D03*
X76509Y-73681D02*
D03*
X73681Y-76509D02*
D03*
X70852Y-79338D02*
D03*
X68024Y-82166D02*
D03*
X65196Y-84994D02*
D03*
X62367Y-87823D02*
D03*
X59539Y-90651D02*
D03*
X56710Y-93480D02*
D03*
X53882Y-96308D02*
D03*
X51054Y-99137D02*
D03*
X48225Y-101965D02*
D03*
X45397Y-104794D02*
D03*
X42568Y-107622D02*
D03*
X39740Y-110450D02*
D03*
X36911Y-113279D02*
D03*
X28426Y-121764D02*
D03*
X25598Y-124592D02*
D03*
X22769Y-127421D02*
D03*
X-135906Y14283D02*
D03*
X-133077Y17112D02*
D03*
X-130249Y19941D02*
D03*
X-127421Y22769D02*
D03*
X-124592Y25597D02*
D03*
X-121764Y28426D02*
D03*
X-118935Y31254D02*
D03*
X-116107Y34083D02*
D03*
X-113278Y36911D02*
D03*
X-110450Y39739D02*
D03*
X-107622Y42568D02*
D03*
X-104793Y45396D02*
D03*
X-101965Y48225D02*
D03*
X-99136Y51053D02*
D03*
X-96308Y53882D02*
D03*
X-93479Y56710D02*
D03*
X-90651Y59538D02*
D03*
X-87823Y62367D02*
D03*
X-84994Y65195D02*
D03*
X-82166Y68024D02*
D03*
X-79337Y70852D02*
D03*
X-76509Y73681D02*
D03*
X-73681Y76509D02*
D03*
X-70852Y79337D02*
D03*
X-68024Y82166D02*
D03*
X-65195Y84994D02*
D03*
X-62367Y87823D02*
D03*
X-48225Y101965D02*
D03*
X-45396Y104793D02*
D03*
X-42568Y107622D02*
D03*
X-39739Y110450D02*
D03*
X-36911Y113278D02*
D03*
X-34083Y116107D02*
D03*
X-31254Y118935D02*
D03*
X-28426Y121764D02*
D03*
X-25597Y124592D02*
D03*
X-22769Y127421D02*
D03*
X-19941Y130249D02*
D03*
X-17112Y133077D02*
D03*
X14284Y-135906D02*
D03*
X-14284Y135906D02*
D03*
X121764Y-28426D02*
D03*
X34083Y-116107D02*
D03*
X31254Y-118936D02*
D03*
X17112Y-133078D02*
D03*
X19941Y-130249D02*
D03*
D56*
X14284Y135906D02*
D03*
X17112Y133077D02*
D03*
X19941Y130249D02*
D03*
X22769Y127421D02*
D03*
X25597Y124592D02*
D03*
X28426Y121764D02*
D03*
X31254Y118935D02*
D03*
X34083Y116107D02*
D03*
X36911Y113278D02*
D03*
X39739Y110450D02*
D03*
X42568Y107622D02*
D03*
X45396Y104793D02*
D03*
X48225Y101965D02*
D03*
X51053Y99136D02*
D03*
X53882Y96308D02*
D03*
X56710Y93479D02*
D03*
X59538Y90651D02*
D03*
X62367Y87823D02*
D03*
X65195Y84994D02*
D03*
X68024Y82166D02*
D03*
X70852Y79337D02*
D03*
X73681Y76509D02*
D03*
X76509Y73681D02*
D03*
X79337Y70852D02*
D03*
X82166Y68023D02*
D03*
X84994Y65195D02*
D03*
X87823Y62366D02*
D03*
X90651Y59538D02*
D03*
X93480Y56710D02*
D03*
X96308Y53881D02*
D03*
X99137Y51053D02*
D03*
X101965Y48224D02*
D03*
X107622Y42568D02*
D03*
X110450Y39739D02*
D03*
X113279Y36911D02*
D03*
X116107Y34082D02*
D03*
X118936Y31254D02*
D03*
X121764Y28425D02*
D03*
X124592Y25597D02*
D03*
X127421Y22768D02*
D03*
X130249Y19940D02*
D03*
X133078Y17112D02*
D03*
X-14283Y-135906D02*
D03*
X-17112Y-133078D02*
D03*
X-19940Y-130249D02*
D03*
X-22769Y-127421D02*
D03*
X-25597Y-124592D02*
D03*
X-28425Y-121764D02*
D03*
X-31254Y-118936D02*
D03*
X-34082Y-116107D02*
D03*
X-39739Y-110450D02*
D03*
X-42568Y-107622D02*
D03*
X-45396Y-104794D02*
D03*
X-51053Y-99137D02*
D03*
X-53881Y-96308D02*
D03*
X-56710Y-93480D02*
D03*
X-59538Y-90651D02*
D03*
X-62366Y-87823D02*
D03*
X-65195Y-84994D02*
D03*
X-68023Y-82166D02*
D03*
X-70852Y-79337D02*
D03*
X-73681Y-76509D02*
D03*
X-76509Y-73681D02*
D03*
X-79337Y-70852D02*
D03*
X-82166Y-68024D02*
D03*
X-84994Y-65195D02*
D03*
X-87823Y-62367D02*
D03*
X-90651Y-59538D02*
D03*
X-93479Y-56710D02*
D03*
X-96308Y-53882D02*
D03*
X-99136Y-51053D02*
D03*
X-101965Y-48225D02*
D03*
X-104793Y-45396D02*
D03*
X-107622Y-42568D02*
D03*
X-110450Y-39739D02*
D03*
X-113278Y-36911D02*
D03*
X-116107Y-34083D02*
D03*
X-118935Y-31254D02*
D03*
X-121764Y-28426D02*
D03*
X-124592Y-25597D02*
D03*
X-127421Y-22769D02*
D03*
X-130249Y-19941D02*
D03*
X-133077Y-17112D02*
D03*
X135906Y14283D02*
D03*
X-135906Y-14284D02*
D03*
X104794Y45396D02*
D03*
X-48224Y-101965D02*
D03*
X-36911Y-113279D02*
D03*
D57*
X167500Y-76000D02*
D03*
X207500D02*
D03*
X112500D02*
D03*
X307500D02*
D03*
X117500D02*
D03*
X122500D02*
D03*
X127500D02*
D03*
X132500D02*
D03*
X137500D02*
D03*
X142500D02*
D03*
X147500D02*
D03*
X152500D02*
D03*
X157500D02*
D03*
X162500D02*
D03*
X172500D02*
D03*
X177500D02*
D03*
X182500D02*
D03*
X187500D02*
D03*
X192500D02*
D03*
X197500D02*
D03*
X202500D02*
D03*
X252500D02*
D03*
X257500D02*
D03*
X262500D02*
D03*
X267500D02*
D03*
X272500D02*
D03*
X277500D02*
D03*
X282500D02*
D03*
X287500D02*
D03*
X292500D02*
D03*
X297500D02*
D03*
X302500D02*
D03*
X247500D02*
D03*
X242500D02*
D03*
X237500D02*
D03*
X232500D02*
D03*
X227500D02*
D03*
X222500D02*
D03*
X217500D02*
D03*
X212500D02*
D03*
D58*
X97100Y-99250D02*
D03*
X322900D02*
D03*
D59*
X-110680Y-109000D02*
D03*
Y-139000D02*
D03*
Y-129000D02*
D03*
Y-119000D02*
D03*
Y-99000D02*
D03*
D60*
X-149430Y-152000D02*
D03*
Y-86000D02*
D03*
D61*
X-29250Y-148000D02*
D03*
X-40750D02*
D03*
X141750Y-48000D02*
D03*
X130250D02*
D03*
X141750Y-58000D02*
D03*
X130250D02*
D03*
D62*
X311000Y-40500D02*
D03*
D63*
Y-30000D02*
D03*
D64*
X300000Y8000D02*
D03*
X270000D02*
D03*
X300000Y-32000D02*
D03*
X270000D02*
D03*
D65*
X255000Y-18500D02*
D03*
Y-5500D02*
D03*
D66*
X61934Y-123066D02*
D03*
X70066Y-114934D02*
D03*
D67*
X-73111Y-108889D02*
D03*
X-66889Y-115112D02*
D03*
X-128000Y44000D02*
D03*
X-134223Y50223D02*
D03*
X-80889Y91889D02*
D03*
X-87111Y98111D02*
D03*
X-135000Y37000D02*
D03*
X-141223Y43223D02*
D03*
X-73889Y98889D02*
D03*
X-80111Y105111D02*
D03*
X-66111Y-101889D02*
D03*
X-59889Y-108111D02*
D03*
D68*
X113000Y84750D02*
D03*
Y73250D02*
D03*
X123000Y84750D02*
D03*
Y73250D02*
D03*
X116000Y-53250D02*
D03*
Y-64750D02*
D03*
D69*
X64181Y109414D02*
D03*
X73586Y118819D02*
D03*
X76414Y97181D02*
D03*
X85819Y106586D02*
D03*
D70*
X154000Y65000D02*
D03*
X144500Y93000D02*
D03*
X163500D02*
D03*
X144500Y65000D02*
D03*
X163500D02*
D03*
M02*
