G04*
G04 #@! TF.GenerationSoftware,Altium Limited,Altium Designer,24.5.2 (23)*
G04*
G04 Layer_Physical_Order=4*
G04 Layer_Color=16711680*
%FSLAX44Y44*%
%MOMM*%
G71*
G04*
G04 #@! TF.SameCoordinates,69858205-0F2E-4D39-B2D1-A8915E6FFAA9*
G04*
G04*
G04 #@! TF.FilePolarity,Positive*
G04*
G01*
G75*
%ADD15C,0.1270*%
%ADD73C,0.4500*%
G36*
X334961Y-159961D02*
X-160961D01*
X-160961Y157961D01*
X36751Y157961D01*
X37072Y157014D01*
X37095Y156691D01*
X36245Y155841D01*
X35750Y154647D01*
Y153354D01*
X36245Y152159D01*
X37159Y151245D01*
X38354Y150750D01*
X39646D01*
X40841Y151245D01*
X41755Y152159D01*
X42250Y153354D01*
Y154647D01*
X41755Y155841D01*
X40905Y156691D01*
X40928Y157014D01*
X41249Y157961D01*
X334961Y157961D01*
X334961Y-159961D01*
D02*
G37*
%LPC*%
G36*
X-32353Y144250D02*
X-33646D01*
X-34841Y143755D01*
X-35755Y142841D01*
X-36250Y141646D01*
Y140354D01*
X-35755Y139159D01*
X-34841Y138245D01*
X-33646Y137750D01*
X-32353D01*
X-31159Y138245D01*
X-30245Y139159D01*
X-29750Y140354D01*
Y141646D01*
X-30245Y142841D01*
X-31159Y143755D01*
X-32353Y144250D01*
D02*
G37*
G36*
X172647Y138250D02*
X171354D01*
X170159Y137755D01*
X169245Y136841D01*
X168750Y135647D01*
Y134354D01*
X169245Y133159D01*
X170159Y132245D01*
X171354Y131750D01*
X172647D01*
X173841Y132245D01*
X174755Y133159D01*
X175250Y134354D01*
Y135647D01*
X174755Y136841D01*
X173841Y137755D01*
X172647Y138250D01*
D02*
G37*
G36*
X132647Y138250D02*
X131354D01*
X130159Y137755D01*
X129245Y136841D01*
X128750Y135647D01*
Y134354D01*
X129245Y133159D01*
X130159Y132245D01*
X131354Y131750D01*
X132647D01*
X133841Y132245D01*
X134755Y133159D01*
X135250Y134354D01*
Y135647D01*
X134755Y136841D01*
X133841Y137755D01*
X132647Y138250D01*
D02*
G37*
G36*
X152646Y138250D02*
X151353D01*
X150159Y137755D01*
X149245Y136841D01*
X148750Y135646D01*
Y134354D01*
X149245Y133159D01*
X150159Y132245D01*
X151353Y131750D01*
X152646D01*
X153841Y132245D01*
X154755Y133159D01*
X155250Y134354D01*
Y135646D01*
X154755Y136841D01*
X153841Y137755D01*
X152646Y138250D01*
D02*
G37*
G36*
X112646D02*
X111353D01*
X110159Y137755D01*
X109245Y136841D01*
X108750Y135646D01*
Y134354D01*
X109245Y133159D01*
X110159Y132245D01*
X111353Y131750D01*
X112646D01*
X113841Y132245D01*
X114755Y133159D01*
X115250Y134354D01*
Y135646D01*
X114755Y136841D01*
X113841Y137755D01*
X112646Y138250D01*
D02*
G37*
G36*
X-55353Y136250D02*
X-56646D01*
X-57841Y135755D01*
X-58755Y134841D01*
X-59250Y133646D01*
Y132353D01*
X-58755Y131159D01*
X-57841Y130245D01*
X-56646Y129750D01*
X-55353D01*
X-54159Y130245D01*
X-53245Y131159D01*
X-52750Y132353D01*
Y133646D01*
X-53245Y134841D01*
X-54159Y135755D01*
X-55353Y136250D01*
D02*
G37*
G36*
X-72354D02*
X-73646D01*
X-74841Y135755D01*
X-75755Y134841D01*
X-76250Y133646D01*
Y132353D01*
X-75755Y131159D01*
X-74841Y130245D01*
X-73646Y129750D01*
X-72354D01*
X-71159Y130245D01*
X-70245Y131159D01*
X-69750Y132353D01*
Y133646D01*
X-70245Y134841D01*
X-71159Y135755D01*
X-72354Y136250D01*
D02*
G37*
G36*
X-132353D02*
X-133646D01*
X-134841Y135755D01*
X-135755Y134841D01*
X-136250Y133646D01*
Y132353D01*
X-135755Y131159D01*
X-134841Y130245D01*
X-133646Y129750D01*
X-132353D01*
X-131159Y130245D01*
X-130245Y131159D01*
X-129750Y132353D01*
Y133646D01*
X-130245Y134841D01*
X-131159Y135755D01*
X-132353Y136250D01*
D02*
G37*
G36*
X11681Y130250D02*
X10388D01*
X9194Y129755D01*
X8280Y128841D01*
X7785Y127647D01*
Y126354D01*
X8280Y125159D01*
X9194Y124245D01*
X10388Y123750D01*
X11681D01*
X12876Y124245D01*
X13790Y125159D01*
X14285Y126354D01*
Y127647D01*
X13790Y128841D01*
X12876Y129755D01*
X11681Y130250D01*
D02*
G37*
G36*
X48535Y129139D02*
X47242D01*
X46048Y128644D01*
X45133Y127730D01*
X44639Y126535D01*
Y125242D01*
X44932Y124533D01*
X43961Y123561D01*
X43886Y123592D01*
X42594D01*
X41399Y123097D01*
X40485Y122183D01*
X39990Y120988D01*
Y119696D01*
X40485Y118501D01*
X41399Y117587D01*
X42594Y117092D01*
X43886D01*
X45081Y117587D01*
X45995Y118501D01*
X46490Y119696D01*
Y120988D01*
X46196Y121697D01*
X47168Y122669D01*
X47242Y122639D01*
X48535D01*
X49730Y123133D01*
X50644Y124048D01*
X51139Y125242D01*
Y126535D01*
X50644Y127730D01*
X49730Y128644D01*
X48535Y129139D01*
D02*
G37*
G36*
X-37075Y127660D02*
X-38368D01*
X-39562Y127165D01*
X-40476Y126251D01*
X-40971Y125056D01*
Y123763D01*
X-40476Y122569D01*
X-39562Y121655D01*
X-38368Y121160D01*
X-37075D01*
X-35880Y121655D01*
X-34966Y122569D01*
X-34471Y123763D01*
Y125056D01*
X-34966Y126251D01*
X-35880Y127165D01*
X-37075Y127660D01*
D02*
G37*
G36*
X-55753Y125250D02*
X-57046D01*
X-58241Y124755D01*
X-59155Y123841D01*
X-59650Y122647D01*
Y121354D01*
X-59155Y120159D01*
X-58241Y119245D01*
X-57046Y118750D01*
X-55753D01*
X-54559Y119245D01*
X-53645Y120159D01*
X-53150Y121354D01*
Y122647D01*
X-53645Y123841D01*
X-54559Y124755D01*
X-55753Y125250D01*
D02*
G37*
G36*
X-66954Y125250D02*
X-68246D01*
X-69441Y124755D01*
X-70355Y123841D01*
X-70850Y122646D01*
Y121353D01*
X-70355Y120159D01*
X-69441Y119245D01*
X-68246Y118750D01*
X-66954D01*
X-65759Y119245D01*
X-64845Y120159D01*
X-64350Y121353D01*
Y122646D01*
X-64845Y123841D01*
X-65759Y124755D01*
X-66954Y125250D01*
D02*
G37*
G36*
X20647Y122245D02*
X19354D01*
X18159Y121750D01*
X17245Y120836D01*
X16750Y119641D01*
Y118348D01*
X17245Y117154D01*
X18159Y116240D01*
X19354Y115745D01*
X20647D01*
X21841Y116240D01*
X22755Y117154D01*
X23250Y118348D01*
Y119641D01*
X22755Y120836D01*
X21841Y121750D01*
X20647Y122245D01*
D02*
G37*
G36*
X55535Y122139D02*
X54242D01*
X53048Y121644D01*
X52133Y120730D01*
X51639Y119535D01*
Y118242D01*
X52133Y117048D01*
X53048Y116133D01*
X54242Y115639D01*
X55535D01*
X56730Y116133D01*
X57644Y117048D01*
X58139Y118242D01*
Y119535D01*
X57644Y120730D01*
X56730Y121644D01*
X55535Y122139D01*
D02*
G37*
G36*
X27647Y112250D02*
X26353D01*
X25159Y111755D01*
X24245Y110841D01*
X23750Y109647D01*
Y108354D01*
X24245Y107159D01*
X25159Y106245D01*
X26353Y105750D01*
X27647D01*
X28841Y106245D01*
X29755Y107159D01*
X30250Y108354D01*
Y109647D01*
X29755Y110841D01*
X28841Y111755D01*
X27647Y112250D01*
D02*
G37*
G36*
X34646Y105250D02*
X33354D01*
X32159Y104755D01*
X31245Y103841D01*
X30750Y102647D01*
Y101354D01*
X31245Y100159D01*
X32159Y99245D01*
X33354Y98750D01*
X34646D01*
X35841Y99245D01*
X36755Y100159D01*
X37250Y101354D01*
Y102647D01*
X36755Y103841D01*
X35841Y104755D01*
X34646Y105250D01*
D02*
G37*
G36*
X-34354Y103460D02*
X-35647D01*
X-36841Y102965D01*
X-37755Y102051D01*
X-38250Y100856D01*
Y99564D01*
X-37755Y98369D01*
X-36841Y97455D01*
X-35647Y96960D01*
X-34354D01*
X-33159Y97455D01*
X-32245Y98369D01*
X-31750Y99564D01*
Y100856D01*
X-32245Y102051D01*
X-33159Y102965D01*
X-34354Y103460D01*
D02*
G37*
G36*
X-73242Y102139D02*
X-74535D01*
X-75730Y101644D01*
X-76644Y100730D01*
X-77139Y99535D01*
Y98242D01*
X-76644Y97048D01*
X-75730Y96133D01*
X-74535Y95639D01*
X-73242D01*
X-72048Y96133D01*
X-71133Y97048D01*
X-70639Y98242D01*
Y99535D01*
X-71133Y100730D01*
X-72048Y101644D01*
X-73242Y102139D01*
D02*
G37*
G36*
X66611Y101171D02*
X65318D01*
X64124Y100676D01*
X63209Y99762D01*
X62715Y98567D01*
Y97274D01*
X63209Y96080D01*
X64124Y95166D01*
X65318Y94671D01*
X66611D01*
X67806Y95166D01*
X68720Y96080D01*
X69215Y97274D01*
Y98567D01*
X68720Y99762D01*
X67806Y100676D01*
X66611Y101171D01*
D02*
G37*
G36*
X77061Y100431D02*
X75768D01*
X74573Y99937D01*
X73659Y99022D01*
X73164Y97828D01*
Y96535D01*
X73659Y95340D01*
X74573Y94426D01*
X75768Y93931D01*
X77061D01*
X78255Y94426D01*
X79169Y95340D01*
X79664Y96535D01*
Y97828D01*
X79169Y99022D01*
X78255Y99937D01*
X77061Y100431D01*
D02*
G37*
G36*
X145146Y96250D02*
X143853D01*
X142659Y95755D01*
X141745Y94841D01*
X141250Y93647D01*
Y92354D01*
X141745Y91159D01*
X142659Y90245D01*
X143853Y89750D01*
X145146D01*
X146341Y90245D01*
X147255Y91159D01*
X147750Y92354D01*
Y93647D01*
X147255Y94841D01*
X146341Y95755D01*
X145146Y96250D01*
D02*
G37*
G36*
X-80242Y95139D02*
X-81535D01*
X-82730Y94644D01*
X-83644Y93730D01*
X-84139Y92535D01*
Y91242D01*
X-83644Y90048D01*
X-82730Y89133D01*
X-81535Y88639D01*
X-80242D01*
X-79048Y89133D01*
X-78134Y90048D01*
X-77639Y91242D01*
Y92535D01*
X-78134Y93730D01*
X-79048Y94644D01*
X-80242Y95139D01*
D02*
G37*
G36*
X71252Y93655D02*
X69960D01*
X68765Y93160D01*
X67851Y92246D01*
X67356Y91051D01*
Y89759D01*
X67851Y88564D01*
X68765Y87650D01*
X69960Y87155D01*
X71252D01*
X72447Y87650D01*
X73361Y88564D01*
X73856Y89759D01*
Y91051D01*
X73361Y92246D01*
X72447Y93160D01*
X71252Y93655D01*
D02*
G37*
G36*
X133647Y86650D02*
X132354D01*
X131159Y86155D01*
X130245Y85241D01*
X129750Y84046D01*
Y82753D01*
X130245Y81559D01*
X131159Y80645D01*
X132354Y80150D01*
X133647D01*
X134841Y80645D01*
X135756Y81559D01*
X136250Y82753D01*
Y84046D01*
X135756Y85241D01*
X134841Y86155D01*
X133647Y86650D01*
D02*
G37*
G36*
X-136354Y85250D02*
X-137647D01*
X-138841Y84755D01*
X-139755Y83841D01*
X-140250Y82646D01*
Y81354D01*
X-139755Y80159D01*
X-138841Y79245D01*
X-137647Y78750D01*
X-136354D01*
X-135159Y79245D01*
X-134245Y80159D01*
X-133750Y81354D01*
Y82646D01*
X-134245Y83841D01*
X-135159Y84755D01*
X-136354Y85250D01*
D02*
G37*
G36*
X94845Y75250D02*
X93155D01*
X91593Y74603D01*
X90397Y73407D01*
X89750Y71845D01*
Y70155D01*
X90397Y68593D01*
X91593Y67397D01*
X93155Y66750D01*
X94845D01*
X96407Y67397D01*
X97603Y68593D01*
X98250Y70155D01*
Y71845D01*
X97603Y73407D01*
X96407Y74603D01*
X94845Y75250D01*
D02*
G37*
G36*
X164146Y68250D02*
X162854D01*
X161659Y67755D01*
X160745Y66841D01*
X160250Y65647D01*
Y64354D01*
X160745Y63159D01*
X161659Y62245D01*
X162854Y61750D01*
X164146D01*
X165341Y62245D01*
X166255Y63159D01*
X166750Y64354D01*
Y65647D01*
X166255Y66841D01*
X165341Y67755D01*
X164146Y68250D01*
D02*
G37*
G36*
X145146D02*
X143853D01*
X142659Y67755D01*
X141745Y66841D01*
X141250Y65647D01*
Y64354D01*
X141745Y63159D01*
X142659Y62245D01*
X143853Y61750D01*
X145146D01*
X146341Y62245D01*
X147255Y63159D01*
X147750Y64354D01*
Y65647D01*
X147255Y66841D01*
X146341Y67755D01*
X145146Y68250D01*
D02*
G37*
G36*
X287896Y61250D02*
X286604D01*
X285409Y60755D01*
X284495Y59841D01*
X284000Y58646D01*
Y57354D01*
X284495Y56159D01*
X285409Y55245D01*
X286604Y54750D01*
X287896D01*
X289091Y55245D01*
X290005Y56159D01*
X290500Y57354D01*
Y58646D01*
X290005Y59841D01*
X289091Y60755D01*
X287896Y61250D01*
D02*
G37*
G36*
X78646Y60250D02*
X77353D01*
X76159Y59755D01*
X75245Y58841D01*
X74750Y57646D01*
Y56353D01*
X75245Y55159D01*
X76159Y54245D01*
X77353Y53750D01*
X78646D01*
X79578Y54136D01*
X80132Y53905D01*
X80312Y53785D01*
X80750Y53358D01*
Y52354D01*
X81245Y51159D01*
X82159Y50245D01*
X83354Y49750D01*
X84647D01*
X85841Y50245D01*
X86755Y51159D01*
X87250Y52354D01*
Y53646D01*
X86755Y54841D01*
X85841Y55755D01*
X84647Y56250D01*
X83354D01*
X82422Y55864D01*
X81868Y56095D01*
X81688Y56215D01*
X81250Y56642D01*
Y57646D01*
X80755Y58841D01*
X79841Y59755D01*
X78646Y60250D01*
D02*
G37*
G36*
X109466Y61411D02*
X107775D01*
X106213Y60764D01*
X105018Y59569D01*
X104371Y58007D01*
Y56316D01*
X105018Y54754D01*
X106213Y53558D01*
X107775Y52911D01*
X109075D01*
Y51830D01*
X109722Y50268D01*
X110917Y49072D01*
X111918Y48658D01*
X112479Y48425D01*
X113092Y47184D01*
Y46720D01*
X113739Y45158D01*
X114934Y43962D01*
X116496Y43315D01*
X118187D01*
X119749Y43962D01*
X120945Y45158D01*
X121592Y46720D01*
Y48411D01*
X120945Y49973D01*
X119749Y51168D01*
X118748Y51583D01*
X118187Y51815D01*
X117575Y53057D01*
Y53521D01*
X116927Y55083D01*
X115732Y56278D01*
X114170Y56925D01*
X112871D01*
Y58007D01*
X112224Y59569D01*
X111028Y60764D01*
X109466Y61411D01*
D02*
G37*
G36*
X-127353Y47250D02*
X-128646D01*
X-129841Y46755D01*
X-130755Y45841D01*
X-131250Y44646D01*
Y43354D01*
X-130755Y42159D01*
X-129841Y41245D01*
X-128646Y40750D01*
X-127353D01*
X-126159Y41245D01*
X-125245Y42159D01*
X-124750Y43354D01*
Y44646D01*
X-125245Y45841D01*
X-126159Y46755D01*
X-127353Y47250D01*
D02*
G37*
G36*
X252647Y44850D02*
X251354D01*
X250159Y44355D01*
X249245Y43441D01*
X248750Y42247D01*
Y40954D01*
X249245Y39759D01*
X250159Y38845D01*
X251354Y38350D01*
X252647D01*
X253841Y38845D01*
X254755Y39759D01*
X255250Y40954D01*
Y42247D01*
X254755Y43441D01*
X253841Y44355D01*
X252647Y44850D01*
D02*
G37*
G36*
X211646Y44850D02*
X210354D01*
X209159Y44355D01*
X208245Y43441D01*
X207750Y42246D01*
Y40953D01*
X208245Y39759D01*
X209159Y38845D01*
X210354Y38350D01*
X211646D01*
X212841Y38845D01*
X213755Y39759D01*
X214250Y40953D01*
Y42246D01*
X213755Y43441D01*
X212841Y44355D01*
X211646Y44850D01*
D02*
G37*
G36*
X-134354Y40250D02*
X-135646D01*
X-136841Y39755D01*
X-137755Y38841D01*
X-138250Y37647D01*
Y36353D01*
X-137755Y35159D01*
X-136841Y34245D01*
X-135646Y33750D01*
X-134354D01*
X-133159Y34245D01*
X-132245Y35159D01*
X-131750Y36353D01*
Y37647D01*
X-132245Y38841D01*
X-133159Y39755D01*
X-134354Y40250D01*
D02*
G37*
G36*
X263647Y12250D02*
X262354D01*
X261159Y11755D01*
X260245Y10841D01*
X259750Y9646D01*
Y8354D01*
X260245Y7159D01*
X261159Y6245D01*
X262354Y5750D01*
X263647D01*
X264841Y6245D01*
X265755Y7159D01*
X266250Y8354D01*
Y9646D01*
X265755Y10841D01*
X264841Y11755D01*
X263647Y12250D01*
D02*
G37*
G36*
X240646Y5650D02*
X239353D01*
X238159Y5155D01*
X237245Y4241D01*
X236750Y3047D01*
Y1754D01*
X237245Y559D01*
X238159Y-355D01*
X239353Y-850D01*
X240646D01*
X241841Y-355D01*
X242755Y559D01*
X243250Y1754D01*
Y3047D01*
X242755Y4241D01*
X241841Y5155D01*
X240646Y5650D01*
D02*
G37*
G36*
X120646Y-12750D02*
X119354D01*
X118159Y-13245D01*
X117245Y-14159D01*
X116750Y-15353D01*
Y-16646D01*
X117245Y-17841D01*
X118159Y-18755D01*
X119354Y-19250D01*
X120646D01*
X121841Y-18755D01*
X122755Y-17841D01*
X123250Y-16646D01*
Y-15353D01*
X122755Y-14159D01*
X121841Y-13245D01*
X120646Y-12750D01*
D02*
G37*
G36*
X-143242Y-22639D02*
X-144535D01*
X-145730Y-23133D01*
X-146644Y-24048D01*
X-147139Y-25242D01*
Y-26535D01*
X-146644Y-27729D01*
X-145730Y-28644D01*
X-144535Y-29139D01*
X-143242D01*
X-142048Y-28644D01*
X-141133Y-27729D01*
X-140639Y-26535D01*
Y-25242D01*
X-141133Y-24048D01*
X-142048Y-23133D01*
X-143242Y-22639D01*
D02*
G37*
G36*
X-136354Y-29750D02*
X-137647D01*
X-138841Y-30245D01*
X-139755Y-31159D01*
X-140250Y-32354D01*
Y-33647D01*
X-139755Y-34841D01*
X-138841Y-35755D01*
X-137647Y-36250D01*
X-136354D01*
X-135159Y-35755D01*
X-134245Y-34841D01*
X-133750Y-33647D01*
Y-32354D01*
X-134245Y-31159D01*
X-135159Y-30245D01*
X-136354Y-29750D01*
D02*
G37*
G36*
X135845Y-30520D02*
X134155D01*
X132593Y-31167D01*
X131397Y-32363D01*
X130750Y-33925D01*
Y-35615D01*
X131397Y-37177D01*
X132593Y-38373D01*
X134155Y-39020D01*
X135845D01*
X137407Y-38373D01*
X138603Y-37177D01*
X139250Y-35615D01*
Y-33925D01*
X138603Y-32363D01*
X137407Y-31167D01*
X135845Y-30520D01*
D02*
G37*
G36*
X95646Y-37750D02*
X94354D01*
X93159Y-38245D01*
X92245Y-39159D01*
X91750Y-40353D01*
Y-41646D01*
X92245Y-42841D01*
X93159Y-43755D01*
X94354Y-44250D01*
X95646D01*
X96841Y-43755D01*
X97755Y-42841D01*
X98250Y-41646D01*
Y-40353D01*
X97755Y-39159D01*
X96841Y-38245D01*
X95646Y-37750D01*
D02*
G37*
G36*
X122838Y-38750D02*
X121545D01*
X120351Y-39245D01*
X119437Y-40159D01*
X118942Y-41354D01*
Y-42646D01*
X119437Y-43841D01*
X120351Y-44755D01*
X121545Y-45250D01*
X122838D01*
X124033Y-44755D01*
X124947Y-43841D01*
X125442Y-42646D01*
Y-41354D01*
X124947Y-40159D01*
X124033Y-39245D01*
X122838Y-38750D01*
D02*
G37*
G36*
X-124242Y-40639D02*
X-125535D01*
X-126730Y-41134D01*
X-127644Y-42048D01*
X-128139Y-43242D01*
Y-44535D01*
X-127644Y-45730D01*
X-126730Y-46644D01*
X-125535Y-47139D01*
X-124242D01*
X-123048Y-46644D01*
X-122134Y-45730D01*
X-121639Y-44535D01*
Y-43242D01*
X-122134Y-42048D01*
X-123048Y-41134D01*
X-124242Y-40639D01*
D02*
G37*
G36*
X-117242Y-47639D02*
X-118535D01*
X-119730Y-48134D01*
X-120644Y-49048D01*
X-121139Y-50242D01*
Y-51535D01*
X-120644Y-52730D01*
X-119730Y-53644D01*
X-118535Y-54139D01*
X-117242D01*
X-116048Y-53644D01*
X-115134Y-52730D01*
X-114639Y-51535D01*
Y-50242D01*
X-115134Y-49048D01*
X-116048Y-48134D01*
X-117242Y-47639D01*
D02*
G37*
G36*
X116646Y-49750D02*
X115353D01*
X114159Y-50245D01*
X113245Y-51159D01*
X112750Y-52354D01*
Y-53646D01*
X113245Y-54841D01*
X114159Y-55755D01*
X115353Y-56250D01*
X116646D01*
X117841Y-55755D01*
X118755Y-54841D01*
X119250Y-53646D01*
Y-52354D01*
X118755Y-51159D01*
X117841Y-50245D01*
X116646Y-49750D01*
D02*
G37*
G36*
X-110243Y-54639D02*
X-111535D01*
X-112730Y-55133D01*
X-113644Y-56048D01*
X-114139Y-57242D01*
Y-58535D01*
X-113644Y-59730D01*
X-112730Y-60644D01*
X-111535Y-61139D01*
X-110243D01*
X-109048Y-60644D01*
X-108134Y-59730D01*
X-107639Y-58535D01*
Y-57242D01*
X-108134Y-56048D01*
X-109048Y-55133D01*
X-110243Y-54639D01*
D02*
G37*
G36*
X130704Y-54750D02*
X129411D01*
X128217Y-55245D01*
X127302Y-56159D01*
X126808Y-57354D01*
Y-58646D01*
X127302Y-59841D01*
X128217Y-60755D01*
X129411Y-61250D01*
X130704D01*
X131898Y-60755D01*
X132813Y-59841D01*
X133308Y-58646D01*
Y-57354D01*
X132813Y-56159D01*
X131898Y-55245D01*
X130704Y-54750D01*
D02*
G37*
G36*
X273345Y-57750D02*
X271655D01*
X270093Y-58397D01*
X268897Y-59593D01*
X268250Y-61155D01*
Y-62845D01*
X268897Y-64407D01*
X270093Y-65603D01*
X271655Y-66250D01*
X273345D01*
X274907Y-65603D01*
X276103Y-64407D01*
X276750Y-62845D01*
Y-61155D01*
X276103Y-59593D01*
X274907Y-58397D01*
X273345Y-57750D01*
D02*
G37*
G36*
X-103243Y-61639D02*
X-104535D01*
X-105730Y-62133D01*
X-106644Y-63048D01*
X-107139Y-64242D01*
Y-65535D01*
X-106644Y-66730D01*
X-105730Y-67644D01*
X-104535Y-68139D01*
X-103243D01*
X-102048Y-67644D01*
X-101134Y-66730D01*
X-100639Y-65535D01*
Y-64242D01*
X-101134Y-63048D01*
X-102048Y-62133D01*
X-103243Y-61639D01*
D02*
G37*
G36*
X283345Y-57750D02*
X281655D01*
X280093Y-58397D01*
X278897Y-59593D01*
X278250Y-61155D01*
Y-62845D01*
X278897Y-64407D01*
X280093Y-65603D01*
X281655Y-66250D01*
X283250D01*
Y-67185D01*
X283897Y-68747D01*
X285093Y-69942D01*
X286655Y-70589D01*
X288345D01*
X289907Y-69942D01*
X291103Y-68747D01*
X291750Y-67185D01*
Y-65494D01*
X291103Y-63932D01*
X289907Y-62737D01*
X288345Y-62090D01*
X286750D01*
Y-61155D01*
X286103Y-59593D01*
X284907Y-58397D01*
X283345Y-57750D01*
D02*
G37*
G36*
X145845Y19250D02*
X144155D01*
X142593Y18603D01*
X141397Y17407D01*
X140750Y15845D01*
Y15250D01*
X139845Y14250D01*
X138155D01*
X136593Y13603D01*
X135397Y12407D01*
X134750Y10845D01*
Y9155D01*
X135397Y7593D01*
X136593Y6397D01*
X137306Y6102D01*
X137604Y4604D01*
X130000Y-3000D01*
Y-18000D01*
X141000Y-29000D01*
Y-44793D01*
X139909Y-45245D01*
X138995Y-46159D01*
X138500Y-47354D01*
Y-48646D01*
X138995Y-49841D01*
X139909Y-50755D01*
X141000Y-51207D01*
Y-70000D01*
X146000Y-75000D01*
X223000D01*
X227411Y-70589D01*
X228346D01*
X229907Y-69942D01*
X231103Y-68747D01*
X231750Y-67185D01*
Y-66250D01*
X233250D01*
Y-67185D01*
X233897Y-68747D01*
X235093Y-69942D01*
X236655Y-70589D01*
X238346D01*
X239907Y-69942D01*
X241103Y-68747D01*
X241750Y-67185D01*
Y-66250D01*
X243250D01*
Y-67185D01*
X243897Y-68747D01*
X245093Y-69942D01*
X246655Y-70589D01*
X248346D01*
X249907Y-69942D01*
X251103Y-68747D01*
X251750Y-67185D01*
Y-66250D01*
X253345D01*
X254907Y-65603D01*
X256103Y-64407D01*
X256750Y-62845D01*
Y-61155D01*
X256103Y-59593D01*
X254907Y-58397D01*
X253345Y-57750D01*
X251655D01*
X250093Y-58397D01*
X248897Y-59593D01*
X248250Y-61155D01*
Y-62090D01*
X246750D01*
Y-61155D01*
X246103Y-59593D01*
X244907Y-58397D01*
X243345Y-57750D01*
X241655D01*
X240093Y-58397D01*
X238897Y-59593D01*
X238250Y-61155D01*
Y-62090D01*
X236750D01*
Y-61155D01*
X236103Y-59593D01*
X234907Y-58397D01*
X233346Y-57750D01*
X231655D01*
X230093Y-58397D01*
X229270Y-59220D01*
X228000Y-58694D01*
Y-8000D01*
X201000Y19000D01*
X152000D01*
X149940Y16940D01*
X148694Y17187D01*
X148603Y17407D01*
X147407Y18603D01*
X145845Y19250D01*
D02*
G37*
G36*
X106647Y-64350D02*
X105354D01*
X104159Y-64845D01*
X103245Y-65759D01*
X102750Y-66954D01*
Y-68247D01*
X103245Y-69441D01*
X104159Y-70355D01*
X105354Y-70850D01*
X106647D01*
X107841Y-70355D01*
X108755Y-69441D01*
X109250Y-68247D01*
Y-66954D01*
X108755Y-65759D01*
X107841Y-64845D01*
X106647Y-64350D01*
D02*
G37*
G36*
X-96243Y-68639D02*
X-97535D01*
X-98730Y-69133D01*
X-99644Y-70048D01*
X-100139Y-71242D01*
Y-72535D01*
X-99644Y-73730D01*
X-98730Y-74644D01*
X-97535Y-75139D01*
X-96243D01*
X-95048Y-74644D01*
X-94134Y-73730D01*
X-93639Y-72535D01*
Y-71242D01*
X-94134Y-70048D01*
X-95048Y-69133D01*
X-96243Y-68639D01*
D02*
G37*
G36*
X95646Y-72750D02*
X94354D01*
X93159Y-73245D01*
X92245Y-74159D01*
X91750Y-75353D01*
Y-76646D01*
X92245Y-77841D01*
X93159Y-78755D01*
X94354Y-79250D01*
X95646D01*
X96841Y-78755D01*
X97755Y-77841D01*
X98250Y-76646D01*
Y-75353D01*
X97755Y-74159D01*
X96841Y-73245D01*
X95646Y-72750D01*
D02*
G37*
G36*
X-58354Y-75750D02*
X-59647D01*
X-60841Y-76245D01*
X-61755Y-77159D01*
X-62250Y-78354D01*
Y-79646D01*
X-61755Y-80841D01*
X-60841Y-81755D01*
X-59647Y-82250D01*
X-58354D01*
X-57159Y-81755D01*
X-56245Y-80841D01*
X-55750Y-79646D01*
Y-78354D01*
X-56245Y-77159D01*
X-57159Y-76245D01*
X-58354Y-75750D01*
D02*
G37*
G36*
X-89354D02*
X-90646D01*
X-91841Y-76245D01*
X-92755Y-77159D01*
X-93250Y-78354D01*
Y-79646D01*
X-92755Y-80841D01*
X-91841Y-81755D01*
X-90646Y-82250D01*
X-89354D01*
X-88159Y-81755D01*
X-87245Y-80841D01*
X-86750Y-79646D01*
Y-78354D01*
X-87245Y-77159D01*
X-88159Y-76245D01*
X-89354Y-75750D01*
D02*
G37*
G36*
X-40155Y-81750D02*
X-41845D01*
X-43407Y-82397D01*
X-44603Y-83593D01*
X-44736Y-83913D01*
X-46387Y-84581D01*
X-46822Y-84401D01*
X-48513D01*
X-50075Y-85048D01*
X-51270Y-86243D01*
X-51917Y-87806D01*
Y-89496D01*
X-51270Y-91058D01*
X-50075Y-92254D01*
X-48513Y-92901D01*
X-46822D01*
X-45260Y-92254D01*
X-44064Y-91058D01*
X-43932Y-90738D01*
X-42280Y-90070D01*
X-41845Y-90250D01*
X-40155D01*
X-38593Y-89603D01*
X-37397Y-88407D01*
X-36750Y-86845D01*
Y-85155D01*
X-37397Y-83593D01*
X-38593Y-82397D01*
X-40155Y-81750D01*
D02*
G37*
G36*
X-82134Y-82359D02*
X-83427D01*
X-84621Y-82853D01*
X-85535Y-83767D01*
X-86030Y-84962D01*
Y-86255D01*
X-85535Y-87449D01*
X-84621Y-88364D01*
X-83427Y-88858D01*
X-82134D01*
X-80939Y-88364D01*
X-80025Y-87449D01*
X-79530Y-86255D01*
Y-84962D01*
X-80025Y-83767D01*
X-80939Y-82853D01*
X-82134Y-82359D01*
D02*
G37*
G36*
X208345Y-81750D02*
X206655D01*
X205093Y-82397D01*
X203897Y-83593D01*
X203250Y-85155D01*
Y-86845D01*
X203897Y-88407D01*
X205093Y-89603D01*
X206655Y-90250D01*
X208345D01*
X209907Y-89603D01*
X211103Y-88407D01*
X211750Y-86845D01*
Y-85155D01*
X211103Y-83593D01*
X209907Y-82397D01*
X208345Y-81750D01*
D02*
G37*
G36*
X81646Y-87350D02*
X80353D01*
X79159Y-87845D01*
X78245Y-88759D01*
X77750Y-89953D01*
Y-91246D01*
X78245Y-92441D01*
X79159Y-93355D01*
X80353Y-93850D01*
X81646D01*
X82841Y-93355D01*
X83755Y-92441D01*
X84250Y-91246D01*
Y-89953D01*
X83755Y-88759D01*
X82841Y-87845D01*
X81646Y-87350D01*
D02*
G37*
G36*
X-75242Y-89639D02*
X-76535D01*
X-77730Y-90134D01*
X-78644Y-91048D01*
X-79139Y-92242D01*
Y-93535D01*
X-78644Y-94730D01*
X-77730Y-95644D01*
X-76535Y-96139D01*
X-75242D01*
X-74048Y-95644D01*
X-73133Y-94730D01*
X-72639Y-93535D01*
Y-92242D01*
X-73133Y-91048D01*
X-74048Y-90134D01*
X-75242Y-89639D01*
D02*
G37*
G36*
X-98354Y-95750D02*
X-99647D01*
X-100841Y-96245D01*
X-101755Y-97159D01*
X-102250Y-98354D01*
Y-99647D01*
X-101755Y-100841D01*
X-100841Y-101755D01*
X-99647Y-102250D01*
X-98354D01*
X-97159Y-101755D01*
X-96245Y-100841D01*
X-95750Y-99647D01*
Y-98354D01*
X-96245Y-97159D01*
X-97159Y-96245D01*
X-98354Y-95750D01*
D02*
G37*
G36*
X-65465Y-98639D02*
X-66757D01*
X-67952Y-99133D01*
X-68866Y-100048D01*
X-69361Y-101242D01*
Y-102535D01*
X-68866Y-103730D01*
X-67952Y-104644D01*
X-66757Y-105139D01*
X-65465D01*
X-64270Y-104644D01*
X-63356Y-103730D01*
X-62861Y-102535D01*
Y-101242D01*
X-63356Y-100048D01*
X-64270Y-99133D01*
X-65465Y-98639D01*
D02*
G37*
G36*
X-72465Y-105639D02*
X-73758D01*
X-74952Y-106134D01*
X-75866Y-107048D01*
X-76361Y-108243D01*
Y-109535D01*
X-75866Y-110730D01*
X-74952Y-111644D01*
X-73758Y-112139D01*
X-72465D01*
X-71270Y-111644D01*
X-70356Y-110730D01*
X-69861Y-109535D01*
Y-108243D01*
X-70356Y-107048D01*
X-71270Y-106134D01*
X-72465Y-105639D01*
D02*
G37*
G36*
X-98354Y-105750D02*
X-99647D01*
X-100841Y-106245D01*
X-101755Y-107159D01*
X-102250Y-108354D01*
Y-109647D01*
X-101755Y-110841D01*
X-100841Y-111755D01*
X-99647Y-112250D01*
X-98354D01*
X-97159Y-111755D01*
X-96245Y-110841D01*
X-95750Y-109647D01*
Y-108354D01*
X-96245Y-107159D01*
X-97159Y-106245D01*
X-98354Y-105750D01*
D02*
G37*
G36*
X-29155Y-99750D02*
X-30845D01*
X-32407Y-100397D01*
X-33603Y-101592D01*
X-34250Y-103154D01*
Y-104845D01*
X-33603Y-106407D01*
X-32407Y-107603D01*
X-30845Y-108250D01*
X-29250D01*
Y-109845D01*
X-28603Y-111407D01*
X-27407Y-112603D01*
X-25845Y-113250D01*
X-24155D01*
X-22592Y-112603D01*
X-21397Y-111407D01*
X-20750Y-109845D01*
Y-108154D01*
X-21397Y-106592D01*
X-22592Y-105397D01*
X-24155Y-104750D01*
X-25750D01*
Y-103154D01*
X-26397Y-101592D01*
X-27592Y-100397D01*
X-29155Y-99750D01*
D02*
G37*
G36*
X57535Y-110527D02*
X56242D01*
X55048Y-111021D01*
X54134Y-111936D01*
X53639Y-113130D01*
Y-114423D01*
X54134Y-115618D01*
X55048Y-116532D01*
X56242Y-117027D01*
X57535D01*
X58730Y-116532D01*
X59644Y-115618D01*
X60139Y-114423D01*
Y-113130D01*
X59644Y-111936D01*
X58730Y-111021D01*
X57535Y-110527D01*
D02*
G37*
G36*
X70712Y-111684D02*
X69419D01*
X68225Y-112179D01*
X67311Y-113093D01*
X66816Y-114288D01*
Y-115581D01*
X67311Y-116775D01*
X68225Y-117689D01*
X69419Y-118184D01*
X70712D01*
X71907Y-117689D01*
X72821Y-116775D01*
X73316Y-115581D01*
Y-114288D01*
X72821Y-113093D01*
X71907Y-112179D01*
X70712Y-111684D01*
D02*
G37*
G36*
X-50242Y-114639D02*
X-51535D01*
X-52730Y-115134D01*
X-53644Y-116048D01*
X-54139Y-117242D01*
Y-118535D01*
X-53644Y-119730D01*
X-52730Y-120644D01*
X-51535Y-121139D01*
X-50242D01*
X-49048Y-120644D01*
X-48134Y-119730D01*
X-47639Y-118535D01*
Y-117242D01*
X-48134Y-116048D01*
X-49048Y-115134D01*
X-50242Y-114639D01*
D02*
G37*
G36*
X45659Y-120473D02*
X43969D01*
X42407Y-121120D01*
X41211Y-122315D01*
X39650Y-122766D01*
X39070Y-122525D01*
X37379D01*
X35817Y-123172D01*
X34622Y-124368D01*
X33975Y-125930D01*
Y-127621D01*
X34622Y-129183D01*
X35817Y-130378D01*
X37379Y-131025D01*
X39070D01*
X40632Y-130378D01*
X41828Y-129183D01*
X43389Y-128732D01*
X43969Y-128973D01*
X45659D01*
X47222Y-128326D01*
X48417Y-127130D01*
X49064Y-125568D01*
Y-123877D01*
X48417Y-122315D01*
X47222Y-121120D01*
X45659Y-120473D01*
D02*
G37*
G36*
X-98354Y-125750D02*
X-99647D01*
X-100841Y-126245D01*
X-101755Y-127159D01*
X-102250Y-128354D01*
Y-129647D01*
X-101755Y-130841D01*
X-100841Y-131755D01*
X-99647Y-132250D01*
X-98354D01*
X-97159Y-131755D01*
X-96245Y-130841D01*
X-95750Y-129647D01*
Y-128354D01*
X-96245Y-127159D01*
X-97159Y-126245D01*
X-98354Y-125750D01*
D02*
G37*
G36*
X-49465Y-127861D02*
X-50758D01*
X-51952Y-128356D01*
X-52867Y-129270D01*
X-53361Y-130465D01*
Y-131757D01*
X-52867Y-132952D01*
X-51952Y-133866D01*
X-50758Y-134361D01*
X-49465D01*
X-48270Y-133866D01*
X-47356Y-132952D01*
X-46861Y-131757D01*
Y-130465D01*
X-47356Y-129270D01*
X-48270Y-128356D01*
X-49465Y-127861D01*
D02*
G37*
G36*
X-29953Y-134750D02*
X-31246D01*
X-32441Y-135245D01*
X-33355Y-136159D01*
X-33850Y-137354D01*
Y-138647D01*
X-33355Y-139841D01*
X-32441Y-140755D01*
X-31246Y-141250D01*
X-29953D01*
X-28759Y-140755D01*
X-27845Y-139841D01*
X-27350Y-138647D01*
Y-137354D01*
X-27845Y-136159D01*
X-28759Y-135245D01*
X-29953Y-134750D01*
D02*
G37*
G36*
X21845Y-140750D02*
X20155D01*
X18593Y-141397D01*
X17397Y-142593D01*
X16750Y-144155D01*
Y-145845D01*
X17397Y-147407D01*
X18593Y-148603D01*
X20155Y-149250D01*
X21845D01*
X23407Y-148603D01*
X24603Y-147407D01*
X25250Y-145845D01*
Y-144155D01*
X24603Y-142593D01*
X23407Y-141397D01*
X21845Y-140750D01*
D02*
G37*
%LPD*%
D15*
X153000Y-10000D02*
X154000D01*
X145000Y-18000D02*
X153000Y-10000D01*
X211000Y-48000D02*
Y-35000D01*
X209961Y-33961D02*
X211000Y-35000D01*
X208613Y-33961D02*
X209961D01*
X203097Y-39477D02*
X208613Y-33961D01*
X201750Y-39477D02*
X203097D01*
X200403Y-38130D02*
X201750Y-39477D01*
X200403Y-38130D02*
Y-36783D01*
X213557Y-23629D01*
Y-22282D01*
X212210Y-20935D02*
X213557Y-22282D01*
X210863Y-20935D02*
X212210D01*
X197478Y-34320D02*
X210863Y-20935D01*
X196131Y-34320D02*
X197478D01*
X194784Y-32973D02*
X196131Y-34320D01*
X194784Y-32973D02*
Y-31626D01*
X210239Y-16171D01*
Y-14823D01*
X208892Y-13477D02*
X210239Y-14823D01*
X207545Y-13477D02*
X208892D01*
X192090Y-28932D02*
X207545Y-13477D01*
X190743Y-28932D02*
X192090D01*
X189396Y-27585D02*
X190743Y-28932D01*
X189396Y-27585D02*
Y-26238D01*
X204851Y-10782D01*
Y-9435D01*
X203504Y-8088D02*
X204851Y-9435D01*
X202157Y-8088D02*
X203504D01*
X193796Y-16449D02*
X202157Y-8088D01*
X192449Y-16449D02*
X193796D01*
X192449Y-16449D02*
X192449Y-16449D01*
X192000Y-16000D02*
X192449Y-16449D01*
X203763Y-763D02*
X207902Y-4902D01*
X203763Y-763D02*
Y4579D01*
X202810Y5532D02*
X203763Y4579D01*
X200905Y5532D02*
X202810D01*
X199953Y4579D02*
X200905Y5532D01*
X199953Y-4716D02*
Y4579D01*
X199000Y-5668D02*
X199953Y-4716D01*
X197095Y-5668D02*
X199000D01*
X196143Y-4716D02*
X197095Y-5668D01*
X196143Y-4716D02*
Y11680D01*
X195190Y12632D02*
X196143Y11680D01*
X193285Y12632D02*
X195190D01*
X192333Y11680D02*
X193285Y12632D01*
X192333Y-5081D02*
Y11680D01*
X191380Y-6033D02*
X192333Y-5081D01*
X189475Y-6033D02*
X191380D01*
X188523Y-5081D02*
X189475Y-6033D01*
X188523Y-5081D02*
Y11680D01*
X187570Y12632D02*
X188523Y11680D01*
X185665Y12632D02*
X187570D01*
X184713Y11680D02*
X185665Y12632D01*
X184713Y-5081D02*
Y11680D01*
X183760Y-6033D02*
X184713Y-5081D01*
X181855Y-6033D02*
X183760D01*
X180903Y-5081D02*
X181855Y-6033D01*
X180903Y-5081D02*
Y11680D01*
X179950Y12632D02*
X180903Y11680D01*
X178045Y12632D02*
X179950D01*
X177093Y11680D02*
X178045Y12632D01*
X177093Y-5081D02*
Y11680D01*
X176140Y-6033D02*
X177093Y-5081D01*
X174235Y-6033D02*
X176140D01*
X173283Y-5081D02*
X174235Y-6033D01*
X173283Y-5081D02*
Y11680D01*
X172330Y12632D02*
X173283Y11680D01*
X170425Y12632D02*
X172330D01*
X169473Y11680D02*
X170425Y12632D01*
X169473Y-5081D02*
Y11680D01*
X168520Y-6033D02*
X169473Y-5081D01*
X166615Y-6033D02*
X168520D01*
X165663Y-5081D02*
X166615Y-6033D01*
X165663Y-5081D02*
Y11680D01*
X164710Y12632D02*
X165663Y11680D01*
X162805Y12632D02*
X164710D01*
X161853Y11680D02*
X162805Y12632D01*
X161853Y-5081D02*
Y11680D01*
X160900Y-6033D02*
X161853Y-5081D01*
X158995Y-6033D02*
X160900D01*
X158043Y-5081D02*
X158995Y-6033D01*
X158043Y-5081D02*
Y11680D01*
X157090Y12632D02*
X158043Y11680D01*
X155185Y12632D02*
X157090D01*
X154233Y11680D02*
X155185Y12632D01*
X154233Y4233D02*
Y11680D01*
X152645Y2645D02*
X154233Y4233D01*
X148000Y-37000D02*
X148666Y-37666D01*
X150013D01*
X150965Y-36714D01*
Y-33273D01*
X151918Y-32321D01*
X153823D01*
X154775Y-33273D01*
Y-56414D02*
Y-33273D01*
Y-56414D02*
X155728Y-57367D01*
X157633D01*
X158585Y-56414D01*
Y-31706D01*
X159538Y-30753D01*
X161443D01*
X162395Y-31706D01*
Y-61041D02*
Y-31706D01*
Y-61041D02*
X163348Y-61994D01*
X165253D01*
X166205Y-61041D01*
Y-31706D01*
X167158Y-30753D01*
X169063D01*
X170015Y-31706D01*
Y-61418D02*
Y-31706D01*
Y-61418D02*
X170968Y-62371D01*
X172873D01*
X173825Y-61418D01*
Y-31706D01*
X174778Y-30753D01*
X176683D01*
X177635Y-31706D01*
Y-60502D02*
Y-31706D01*
Y-60502D02*
X178588Y-61455D01*
X180493D01*
X181445Y-60502D01*
Y-31706D01*
X182398Y-30753D01*
X184303D01*
X185255Y-31706D01*
Y-58606D02*
Y-31706D01*
Y-58606D02*
X186208Y-59559D01*
X188113D01*
X189065Y-58606D01*
Y-50317D01*
X190018Y-49365D01*
X191365D01*
X192000Y-50000D01*
X211000Y-64000D02*
Y-48000D01*
X190000Y-14000D02*
X192000Y-16000D01*
X188367Y-12367D02*
X190000Y-14000D01*
X187020Y-12367D02*
X188367D01*
X186068Y-13319D02*
X187020Y-12367D01*
X186068Y-23412D02*
Y-13319D01*
X185115Y-24365D02*
X186068Y-23412D01*
X183210Y-24365D02*
X185115D01*
X182258Y-23412D02*
X183210Y-24365D01*
X182258Y-23412D02*
Y-10256D01*
X181305Y-9303D02*
X182258Y-10256D01*
X179400Y-9303D02*
X181305D01*
X178448Y-10256D02*
X179400Y-9303D01*
X178448Y-23412D02*
Y-10256D01*
X177495Y-24365D02*
X178448Y-23412D01*
X175590Y-24365D02*
X177495D01*
X174638Y-23412D02*
X175590Y-24365D01*
X174638Y-23412D02*
Y-10256D01*
X173685Y-9303D02*
X174638Y-10256D01*
X171780Y-9303D02*
X173685D01*
X170828Y-10256D02*
X171780Y-9303D01*
X170828Y-23412D02*
Y-10256D01*
X169875Y-24365D02*
X170828Y-23412D01*
X167970Y-24365D02*
X169875D01*
X167018Y-23412D02*
X167970Y-24365D01*
X167018Y-23412D02*
Y-10256D01*
X166065Y-9303D02*
X167018Y-10256D01*
X164160Y-9303D02*
X166065D01*
X163208Y-10256D02*
X164160Y-9303D01*
X163208Y-24101D02*
Y-10256D01*
X162255Y-25053D02*
X163208Y-24101D01*
X160350Y-25053D02*
X162255D01*
X159398Y-24101D02*
X160350Y-25053D01*
X159398Y-24101D02*
Y-10953D01*
X158445Y-10000D02*
X159398Y-10953D01*
X154000Y-10000D02*
X158445D01*
X147000Y-36000D02*
X148000Y-37000D01*
X147000Y-36000D02*
Y-25000D01*
X192000Y-50000D02*
X192500Y-50500D01*
Y-62000D02*
Y-50500D01*
X139000Y-11000D02*
X152645Y2645D01*
X207902Y-4902D02*
X217500Y-14500D01*
Y-66340D02*
Y-14500D01*
D73*
X39000Y154000D02*
D03*
X112000Y135000D02*
D03*
X172000Y135000D02*
D03*
X152000Y135000D02*
D03*
X132000Y135000D02*
D03*
X54111Y132111D02*
D03*
X34000Y102000D02*
D03*
X-59000Y-79000D02*
D03*
X43240Y120342D02*
D03*
X65964Y97921D02*
D03*
X70606Y90405D02*
D03*
X-49000Y122000D02*
D03*
X-37721Y124410D02*
D03*
X11035Y127000D02*
D03*
X20000Y118995D02*
D03*
X-33000Y141000D02*
D03*
X120057Y-87057D02*
D03*
X158057Y-86057D02*
D03*
X150057Y-89057D02*
D03*
X54889Y118889D02*
D03*
X47889Y125889D02*
D03*
X61111Y125111D02*
D03*
X-56000Y133000D02*
D03*
X-73000D02*
D03*
X-76400Y122000D02*
D03*
X-67600D02*
D03*
X-56400Y122000D02*
D03*
X-5000Y140000D02*
D03*
X-137000Y82000D02*
D03*
X-151000Y114000D02*
D03*
X287250Y58000D02*
D03*
X-133000Y133000D02*
D03*
X-153000D02*
D03*
X304000Y63000D02*
D03*
Y57000D02*
D03*
X211000Y61600D02*
D03*
X191000Y69500D02*
D03*
X211000Y50400D02*
D03*
Y41600D02*
D03*
X232000Y70000D02*
D03*
X252000Y50400D02*
D03*
Y41600D02*
D03*
X252000Y61600D02*
D03*
X145000Y-18000D02*
D03*
X122192Y-42000D02*
D03*
X117342Y47565D02*
D03*
X113325Y52675D02*
D03*
X-47667Y-88651D02*
D03*
X78000Y57000D02*
D03*
X-30000Y-104000D02*
D03*
X-25000Y-109000D02*
D03*
X27000Y109000D02*
D03*
X-35000Y100210D02*
D03*
X-99000Y-109000D02*
D03*
Y-99000D02*
D03*
Y-119000D02*
D03*
Y-129000D02*
D03*
X203000Y-54000D02*
D03*
X167615Y-85878D02*
D03*
X38225Y-126775D02*
D03*
X33628Y-131372D02*
D03*
X145000Y15000D02*
D03*
X84000Y53000D02*
D03*
X135000Y-34770D02*
D03*
X151020Y70896D02*
D03*
X144500Y65000D02*
D03*
X163500D02*
D03*
X154046Y-25954D02*
D03*
X120000Y-16000D02*
D03*
X95000Y-41000D02*
D03*
X70066Y-114934D02*
D03*
X132500Y-86000D02*
D03*
X88889Y-82111D02*
D03*
X106000Y-76400D02*
D03*
X147000Y-25000D02*
D03*
X139000Y-11000D02*
D03*
Y10000D02*
D03*
X108621Y57161D02*
D03*
X-41000Y-86000D02*
D03*
X44814Y-124723D02*
D03*
X130058Y-58000D02*
D03*
X141750Y-48000D02*
D03*
X102000Y-34000D02*
D03*
X116000Y-53000D02*
D03*
X106000Y-67600D02*
D03*
X95000Y-76000D02*
D03*
X56889Y-113777D02*
D03*
X63111Y-107889D02*
D03*
X211000Y-64000D02*
D03*
X204000D02*
D03*
X207500Y-86000D02*
D03*
X21000Y-145000D02*
D03*
X240000Y2400D02*
D03*
X220000Y1500D02*
D03*
X240000Y-17600D02*
D03*
X246600Y13000D02*
D03*
X239499Y-5900D02*
D03*
X255000Y-5500D02*
D03*
X285000Y8000D02*
D03*
X263000Y9000D02*
D03*
X313000Y-72000D02*
D03*
X308000Y-66000D02*
D03*
X157500Y-66340D02*
D03*
X152500Y-62000D02*
D03*
X147500Y-66340D02*
D03*
X94000Y71000D02*
D03*
X177500Y-66340D02*
D03*
X187500D02*
D03*
X192500Y-62000D02*
D03*
X217500Y-66340D02*
D03*
X227500D02*
D03*
X222500Y-62000D02*
D03*
X237500Y-66340D02*
D03*
X232500Y-62000D02*
D03*
X247500Y-66340D02*
D03*
X242500Y-62000D02*
D03*
X252500D02*
D03*
X272500D02*
D03*
X282500D02*
D03*
X287500Y-66340D02*
D03*
X33000Y0D02*
D03*
X-35000D02*
D03*
X0Y36000D02*
D03*
X11000Y-12000D02*
D03*
X-9000Y11000D02*
D03*
X11000Y10000D02*
D03*
X-12000Y-12000D02*
D03*
X0Y-35000D02*
D03*
Y0D02*
D03*
X81000Y-56000D02*
D03*
X81000Y-90600D02*
D03*
X-15111Y-146111D02*
D03*
X-39400Y-138000D02*
D03*
X-50111Y-131111D02*
D03*
X-57111Y-124111D02*
D03*
X-73111Y-108889D02*
D03*
X-59889Y-108111D02*
D03*
X-66889Y-115112D02*
D03*
X-82111Y-99112D02*
D03*
X-89111Y-92112D02*
D03*
X-96223Y-85223D02*
D03*
X-103112Y-78111D02*
D03*
X-110112Y-71111D02*
D03*
X-117112Y-64111D02*
D03*
X-124111Y-57111D02*
D03*
X-131111Y-50111D02*
D03*
X-143223Y-39223D02*
D03*
X-150111Y-32111D02*
D03*
X-141223Y43223D02*
D03*
X-134223Y50223D02*
D03*
X-87111Y98111D02*
D03*
X-80111Y105111D02*
D03*
X101111Y90111D02*
D03*
X94111Y97112D02*
D03*
X76414Y97181D02*
D03*
X73586Y118819D02*
D03*
X-73889Y98889D02*
D03*
X-80889Y91889D02*
D03*
X-128000Y44000D02*
D03*
X-135000Y37000D02*
D03*
X-137000Y-33000D02*
D03*
X-143889Y-25889D02*
D03*
X-124889Y-43889D02*
D03*
X-117889Y-50889D02*
D03*
X-103889Y-64889D02*
D03*
X-110889Y-57889D02*
D03*
X-96889Y-71889D02*
D03*
X-90000Y-79000D02*
D03*
X-82780Y-85609D02*
D03*
X-75889Y-92889D02*
D03*
X-66111Y-101889D02*
D03*
X-50889Y-117889D02*
D03*
X-30600Y-138000D02*
D03*
X-43889Y-124888D02*
D03*
X133000Y83400D02*
D03*
X144500Y93000D02*
D03*
X124600Y94000D02*
D03*
M02*
