G04*
G04 #@! TF.GenerationSoftware,Altium Limited,Altium Designer,24.5.2 (23)*
G04*
G04 Layer_Physical_Order=3*
G04 Layer_Color=15441517*
%FSLAX44Y44*%
%MOMM*%
G71*
G04*
G04 #@! TF.SameCoordinates,69858205-0F2E-4D39-B2D1-A8915E6FFAA9*
G04*
G04*
G04 #@! TF.FilePolarity,Positive*
G04*
G01*
G75*
%ADD12C,0.2540*%
%ADD15C,0.1270*%
%ADD73C,0.4500*%
G36*
X334961Y-159961D02*
X-160961D01*
X-160961Y157961D01*
X334961Y157961D01*
X334961Y-159961D01*
D02*
G37*
%LPC*%
G36*
X-32353Y144250D02*
X-33646D01*
X-34841Y143755D01*
X-35755Y142841D01*
X-36250Y141646D01*
Y140354D01*
X-35755Y139159D01*
X-34841Y138245D01*
X-33646Y137750D01*
X-32353D01*
X-31159Y138245D01*
X-30245Y139159D01*
X-29750Y140354D01*
Y141646D01*
X-30245Y142841D01*
X-31159Y143755D01*
X-32353Y144250D01*
D02*
G37*
G36*
X-4354Y143250D02*
X-5646D01*
X-6841Y142755D01*
X-7755Y141841D01*
X-8250Y140646D01*
Y139354D01*
X-7755Y138159D01*
X-6841Y137245D01*
X-5646Y136750D01*
X-4354D01*
X-3159Y137245D01*
X-2245Y138159D01*
X-1750Y139354D01*
Y140646D01*
X-2245Y141841D01*
X-3159Y142755D01*
X-4354Y143250D01*
D02*
G37*
G36*
X172647Y138250D02*
X171354D01*
X170159Y137755D01*
X169245Y136841D01*
X168750Y135647D01*
Y134354D01*
X168822Y134180D01*
X145309Y110667D01*
X41000D01*
X40362Y110540D01*
X39821Y110179D01*
X34820Y105178D01*
X34646Y105250D01*
X33354D01*
X32159Y104755D01*
X31245Y103841D01*
X30750Y102647D01*
Y101354D01*
X31245Y100159D01*
X32159Y99245D01*
X33354Y98750D01*
X34646D01*
X35841Y99245D01*
X36755Y100159D01*
X37250Y101354D01*
Y102647D01*
X37178Y102820D01*
X41691Y107333D01*
X146000D01*
X146638Y107460D01*
X147179Y107821D01*
X171180Y131822D01*
X171354Y131750D01*
X172647D01*
X173841Y132245D01*
X174755Y133159D01*
X175250Y134354D01*
Y135647D01*
X174755Y136841D01*
X174725Y136871D01*
X174383Y137383D01*
X173871Y137725D01*
X173841Y137755D01*
X172647Y138250D01*
D02*
G37*
G36*
X132647Y138250D02*
X131354D01*
X130159Y137755D01*
X129245Y136841D01*
X128750Y135647D01*
Y134354D01*
X129245Y133159D01*
X130159Y132245D01*
X131354Y131750D01*
X132647D01*
X133841Y132245D01*
X134755Y133159D01*
X135250Y134354D01*
Y135647D01*
X134755Y136841D01*
X133841Y137755D01*
X132647Y138250D01*
D02*
G37*
G36*
X152646Y138250D02*
X151353D01*
X150159Y137755D01*
X149245Y136841D01*
X148750Y135646D01*
Y134354D01*
X149245Y133159D01*
X150159Y132245D01*
X151353Y131750D01*
X152646D01*
X153841Y132245D01*
X154755Y133159D01*
X155250Y134354D01*
Y135646D01*
X154755Y136841D01*
X153841Y137755D01*
X152646Y138250D01*
D02*
G37*
G36*
X112646D02*
X111353D01*
X110159Y137755D01*
X109245Y136841D01*
X108750Y135646D01*
Y134354D01*
X109245Y133159D01*
X110159Y132245D01*
X111353Y131750D01*
X112646D01*
X113841Y132245D01*
X114755Y133159D01*
X115250Y134354D01*
Y135646D01*
X114755Y136841D01*
X113841Y137755D01*
X112646Y138250D01*
D02*
G37*
G36*
X-55353Y136250D02*
X-56646D01*
X-57841Y135755D01*
X-58755Y134841D01*
X-59250Y133646D01*
Y132353D01*
X-58755Y131159D01*
X-57841Y130245D01*
X-56646Y129750D01*
X-55353D01*
X-54159Y130245D01*
X-53245Y131159D01*
X-52750Y132353D01*
Y133646D01*
X-53245Y134841D01*
X-54159Y135755D01*
X-55353Y136250D01*
D02*
G37*
G36*
X-72354D02*
X-73646D01*
X-74841Y135755D01*
X-75755Y134841D01*
X-76250Y133646D01*
Y132353D01*
X-75755Y131159D01*
X-74841Y130245D01*
X-73646Y129750D01*
X-72354D01*
X-71159Y130245D01*
X-70245Y131159D01*
X-69750Y132353D01*
Y133646D01*
X-70245Y134841D01*
X-71159Y135755D01*
X-72354Y136250D01*
D02*
G37*
G36*
X-152353D02*
X-153646D01*
X-154841Y135755D01*
X-155755Y134841D01*
X-156250Y133646D01*
Y132353D01*
X-155755Y131159D01*
X-154841Y130245D01*
X-153646Y129750D01*
X-152353D01*
X-151159Y130245D01*
X-150245Y131159D01*
X-149750Y132353D01*
Y133646D01*
X-150245Y134841D01*
X-151159Y135755D01*
X-152353Y136250D01*
D02*
G37*
G36*
X54758Y135361D02*
X53465D01*
X52270Y134867D01*
X51356Y133952D01*
X50861Y132758D01*
Y131465D01*
X51356Y130270D01*
X52270Y129356D01*
X53465Y128861D01*
X54758D01*
X55952Y129356D01*
X56866Y130270D01*
X57361Y131465D01*
Y132758D01*
X56866Y133952D01*
X55952Y134867D01*
X54758Y135361D01*
D02*
G37*
G36*
X40777Y135315D02*
X-45400D01*
X-46286Y135138D01*
X-47037Y134637D01*
X-56423Y125250D01*
X-57046D01*
X-58241Y124755D01*
X-58682Y124314D01*
X-65318D01*
X-65759Y124755D01*
X-66954Y125250D01*
X-68246D01*
X-69441Y124755D01*
X-70355Y123841D01*
X-70850Y122646D01*
Y122023D01*
X-71977Y120896D01*
X-72714Y121184D01*
X-73150Y121519D01*
Y122646D01*
X-73645Y123841D01*
X-74559Y124755D01*
X-75754Y125250D01*
X-77047D01*
X-78241Y124755D01*
X-79155Y123841D01*
X-79650Y122646D01*
Y121353D01*
X-79155Y120159D01*
X-78241Y119245D01*
X-77047Y118750D01*
X-75919D01*
X-75584Y118314D01*
X-75297Y117577D01*
X-76559Y116314D01*
X-82000D01*
X-82886Y116138D01*
X-83637Y115637D01*
X-94585Y104689D01*
X-95086Y103938D01*
X-95262Y103052D01*
Y91948D01*
Y80011D01*
X-128023Y47250D01*
X-128646D01*
X-129841Y46755D01*
X-130755Y45841D01*
X-131250Y44646D01*
Y43354D01*
X-130755Y42159D01*
X-129841Y41245D01*
X-128646Y40750D01*
X-127353D01*
X-126159Y41245D01*
X-125245Y42159D01*
X-124750Y43354D01*
Y43977D01*
X-91311Y77415D01*
X-90810Y78166D01*
X-90633Y79052D01*
Y89634D01*
X-83230D01*
X-82730Y89133D01*
X-81535Y88639D01*
X-80242D01*
X-79048Y89133D01*
X-78134Y90048D01*
X-77639Y91242D01*
Y92535D01*
X-78134Y93730D01*
X-79048Y94644D01*
X-80242Y95139D01*
X-81535D01*
X-82730Y94644D01*
X-83111Y94262D01*
X-84705D01*
X-84930Y94698D01*
X-85094Y95532D01*
X-84356Y96270D01*
X-83861Y97465D01*
Y98758D01*
X-84356Y99952D01*
X-85270Y100866D01*
X-86465Y101361D01*
X-87758D01*
X-88952Y100866D01*
X-89347Y100472D01*
X-90444Y100913D01*
X-90572Y102155D01*
X-81041Y111685D01*
X-75600D01*
X-74714Y111862D01*
X-73963Y112363D01*
X-67577Y118750D01*
X-66954D01*
X-65759Y119245D01*
X-65318Y119685D01*
X-58682D01*
X-58241Y119245D01*
X-57046Y118750D01*
X-55753D01*
X-54559Y119245D01*
X-53645Y120159D01*
X-53387Y120781D01*
X-52013D01*
X-51755Y120159D01*
X-50841Y119245D01*
X-49647Y118750D01*
X-48354D01*
X-47159Y119245D01*
X-46245Y120159D01*
X-45750Y121354D01*
Y122647D01*
X-46245Y123841D01*
X-47159Y124755D01*
X-48161Y125170D01*
X-48489Y125927D01*
X-48607Y126520D01*
X-44441Y130686D01*
X-4626D01*
Y112311D01*
X-4450Y111426D01*
X-3948Y110675D01*
X24964Y81763D01*
X25714Y81262D01*
X26600Y81086D01*
X130686D01*
Y49959D01*
X83363Y2637D01*
X82862Y1886D01*
X82685Y1000D01*
Y-46600D01*
X82862Y-47486D01*
X83363Y-48237D01*
X101427Y-66300D01*
X94977Y-72750D01*
X94354D01*
X93159Y-73245D01*
X92245Y-74159D01*
X91750Y-75353D01*
Y-76646D01*
X92245Y-77841D01*
X93159Y-78755D01*
X94354Y-79250D01*
X95646D01*
X96841Y-78755D01*
X97755Y-77841D01*
X98250Y-76646D01*
Y-76023D01*
X104038Y-70235D01*
X104159Y-70355D01*
X105354Y-70850D01*
X106647D01*
X107841Y-70355D01*
X108755Y-69441D01*
X109250Y-68247D01*
Y-67623D01*
X110559Y-66315D01*
X134000D01*
X134886Y-66138D01*
X135637Y-65637D01*
X143387Y-57887D01*
X143888Y-57136D01*
X144065Y-56250D01*
Y-50282D01*
X144505Y-49841D01*
X145000Y-48646D01*
Y-47354D01*
X144505Y-46159D01*
X143591Y-45245D01*
X142396Y-44750D01*
X141104D01*
X139909Y-45245D01*
X138995Y-46159D01*
X138500Y-47354D01*
Y-48646D01*
X138995Y-49841D01*
X139436Y-50282D01*
Y-55291D01*
X133792Y-60935D01*
X133564Y-60885D01*
X133365Y-60609D01*
X132971Y-59459D01*
X133308Y-58646D01*
Y-57354D01*
X132813Y-56159D01*
X131898Y-55245D01*
X130704Y-54750D01*
X129411D01*
X129237Y-54822D01*
X123859Y-49444D01*
Y-44827D01*
X124033Y-44755D01*
X124947Y-43841D01*
X125442Y-42646D01*
Y-41354D01*
X124947Y-40159D01*
X124033Y-39245D01*
X122838Y-38750D01*
X121545D01*
X120351Y-39245D01*
X119437Y-40159D01*
X118942Y-41354D01*
Y-42646D01*
X119437Y-43841D01*
X120351Y-44755D01*
X120525Y-44827D01*
Y-50134D01*
X120652Y-50772D01*
X121013Y-51313D01*
X126880Y-57180D01*
X126808Y-57354D01*
Y-58646D01*
X127302Y-59841D01*
X127877Y-60416D01*
X127396Y-61686D01*
X117939D01*
Y-55657D01*
X118755Y-54841D01*
X119250Y-53646D01*
Y-52354D01*
X118755Y-51159D01*
X117841Y-50245D01*
X116646Y-49750D01*
X115353D01*
X114159Y-50245D01*
X113245Y-51159D01*
X112750Y-52354D01*
Y-53646D01*
X113245Y-54841D01*
X113310Y-54907D01*
Y-61686D01*
X109600D01*
X108715Y-61862D01*
X107964Y-62363D01*
X106000Y-64327D01*
X87315Y-45641D01*
Y41D01*
X134637Y47364D01*
X135139Y48115D01*
X135315Y49000D01*
Y81086D01*
X154100D01*
X154100Y81086D01*
X203385D01*
X244507Y39964D01*
X245258Y39462D01*
X246143Y39286D01*
X249718D01*
X250159Y38845D01*
X251354Y38350D01*
X252647D01*
X253841Y38845D01*
X254755Y39759D01*
X255250Y40954D01*
Y42247D01*
X254755Y43441D01*
X253841Y44355D01*
X252647Y44850D01*
X251354D01*
X250159Y44355D01*
X249718Y43915D01*
X247102D01*
X205980Y85036D01*
X205229Y85538D01*
X204344Y85714D01*
X154100D01*
X154100Y85714D01*
X146814D01*
Y90718D01*
X147255Y91159D01*
X147750Y92354D01*
Y93647D01*
X147255Y94841D01*
X146341Y95755D01*
X145146Y96250D01*
X143853D01*
X142659Y95755D01*
X141745Y94841D01*
X141250Y93647D01*
Y92354D01*
X141745Y91159D01*
X142185Y90718D01*
Y85714D01*
X135282D01*
X134841Y86155D01*
X133647Y86650D01*
X132354D01*
X131159Y86155D01*
X130718Y85714D01*
X102308D01*
X102056Y86984D01*
X102952Y87356D01*
X103867Y88270D01*
X104361Y89465D01*
Y90758D01*
X103867Y91952D01*
X102952Y92866D01*
X101758Y93361D01*
X100465D01*
X99270Y92866D01*
X98356Y91952D01*
X97861Y90758D01*
Y89465D01*
X98356Y88270D01*
X99270Y87356D01*
X100167Y86984D01*
X99915Y85714D01*
X78729D01*
Y94900D01*
X79169Y95340D01*
X79664Y96535D01*
Y97828D01*
X79169Y99022D01*
X78255Y99937D01*
X77061Y100431D01*
X75768D01*
X74573Y99937D01*
X73659Y99022D01*
X73164Y97828D01*
Y96535D01*
X73659Y95340D01*
X74100Y94900D01*
Y93303D01*
X72830Y92777D01*
X72447Y93160D01*
X71252Y93655D01*
X69960D01*
X68765Y93160D01*
X67851Y92246D01*
X67356Y91051D01*
Y89759D01*
X67851Y88564D01*
X68765Y87650D01*
X69960Y87155D01*
X71252D01*
X72447Y87650D01*
X72830Y88033D01*
X74100Y87506D01*
Y85714D01*
X27559D01*
X3Y113270D01*
Y130686D01*
X8374D01*
X8854Y129416D01*
X8280Y128841D01*
X7785Y127647D01*
Y126354D01*
X8280Y125159D01*
X9194Y124245D01*
X10388Y123750D01*
X11681D01*
X12876Y124245D01*
X13790Y125159D01*
X14285Y126354D01*
Y127647D01*
X13790Y128841D01*
X13215Y129416D01*
X13696Y130686D01*
X39819D01*
X44639Y125866D01*
Y125242D01*
X44932Y124533D01*
X43961Y123561D01*
X43886Y123592D01*
X42594D01*
X41399Y123097D01*
X40485Y122183D01*
X39990Y120988D01*
Y119696D01*
X40485Y118501D01*
X41399Y117587D01*
X42594Y117092D01*
X43886D01*
X45081Y117587D01*
X45995Y118501D01*
X46490Y119696D01*
Y120988D01*
X46438Y121115D01*
X47302Y122251D01*
X48261Y122243D01*
X51639Y118865D01*
Y118242D01*
X52133Y117048D01*
X53048Y116133D01*
X54242Y115639D01*
X55535D01*
X56730Y116133D01*
X57644Y117048D01*
X58139Y118242D01*
Y119535D01*
X57644Y120730D01*
X56730Y121644D01*
X55535Y122139D01*
X54912D01*
X51139Y125912D01*
Y126535D01*
X50644Y127730D01*
X49730Y128644D01*
X48535Y129139D01*
X47912D01*
X42414Y134637D01*
X41663Y135138D01*
X40777Y135315D01*
D02*
G37*
G36*
X61758Y128361D02*
X60465D01*
X59270Y127866D01*
X58356Y126952D01*
X57861Y125758D01*
Y124465D01*
X58356Y123270D01*
X59270Y122356D01*
X60465Y121861D01*
X61758D01*
X62952Y122356D01*
X63867Y123270D01*
X64361Y124465D01*
Y125758D01*
X63867Y126952D01*
X62952Y127866D01*
X61758Y128361D01*
D02*
G37*
G36*
X-37075Y127660D02*
X-38368D01*
X-39562Y127165D01*
X-40476Y126251D01*
X-40971Y125056D01*
Y123763D01*
X-40476Y122569D01*
X-39562Y121655D01*
X-38368Y121160D01*
X-37075D01*
X-35880Y121655D01*
X-34966Y122569D01*
X-34471Y123763D01*
Y125056D01*
X-34966Y126251D01*
X-35880Y127165D01*
X-37075Y127660D01*
D02*
G37*
G36*
X20647Y122245D02*
X19354D01*
X18159Y121750D01*
X17245Y120836D01*
X16750Y119641D01*
Y118348D01*
X17245Y117154D01*
X18159Y116240D01*
X19354Y115745D01*
X20647D01*
X21841Y116240D01*
X22755Y117154D01*
X23250Y118348D01*
Y119641D01*
X22755Y120836D01*
X21841Y121750D01*
X20647Y122245D01*
D02*
G37*
G36*
X74232Y122069D02*
X72939D01*
X71745Y121574D01*
X70830Y120660D01*
X70336Y119465D01*
Y118172D01*
X70830Y116978D01*
X71745Y116063D01*
X72939Y115569D01*
X74232D01*
X75427Y116063D01*
X76341Y116978D01*
X76836Y118172D01*
Y119465D01*
X76341Y120660D01*
X75427Y121574D01*
X74232Y122069D01*
D02*
G37*
G36*
X-150353Y117250D02*
X-151646D01*
X-152841Y116755D01*
X-153755Y115841D01*
X-154250Y114647D01*
Y113354D01*
X-153755Y112159D01*
X-152841Y111245D01*
X-151646Y110750D01*
X-150353D01*
X-149159Y111245D01*
X-148245Y112159D01*
X-147750Y113354D01*
Y114647D01*
X-148245Y115841D01*
X-149159Y116755D01*
X-150353Y117250D01*
D02*
G37*
G36*
X27647Y112250D02*
X26353D01*
X25159Y111755D01*
X24245Y110841D01*
X23750Y109647D01*
Y108354D01*
X24245Y107159D01*
X25159Y106245D01*
X26353Y105750D01*
X27647D01*
X28841Y106245D01*
X29755Y107159D01*
X30250Y108354D01*
Y109647D01*
X29755Y110841D01*
X28841Y111755D01*
X27647Y112250D01*
D02*
G37*
G36*
X-79465Y108361D02*
X-80758D01*
X-81952Y107867D01*
X-82866Y106952D01*
X-83361Y105758D01*
Y104465D01*
X-82866Y103270D01*
X-81952Y102356D01*
X-80758Y101861D01*
X-79465D01*
X-78270Y102356D01*
X-77356Y103270D01*
X-76861Y104465D01*
Y105758D01*
X-77356Y106952D01*
X-78270Y107867D01*
X-79465Y108361D01*
D02*
G37*
G36*
X-34354Y103460D02*
X-35647D01*
X-36841Y102965D01*
X-37755Y102051D01*
X-38250Y100856D01*
Y99564D01*
X-37755Y98369D01*
X-36841Y97455D01*
X-35647Y96960D01*
X-34354D01*
X-33159Y97455D01*
X-32245Y98369D01*
X-31750Y99564D01*
Y100856D01*
X-32245Y102051D01*
X-33159Y102965D01*
X-34354Y103460D01*
D02*
G37*
G36*
X66611Y101171D02*
X65318D01*
X64124Y100676D01*
X63209Y99762D01*
X62715Y98567D01*
Y97274D01*
X63209Y96080D01*
X64124Y95166D01*
X65318Y94671D01*
X66611D01*
X67806Y95166D01*
X68720Y96080D01*
X69215Y97274D01*
Y98567D01*
X68720Y99762D01*
X67806Y100676D01*
X66611Y101171D01*
D02*
G37*
G36*
X94758Y100361D02*
X93465D01*
X92270Y99867D01*
X91356Y98952D01*
X90861Y97758D01*
Y96465D01*
X91356Y95271D01*
X92270Y94356D01*
X93465Y93862D01*
X94758D01*
X95952Y94356D01*
X96867Y95271D01*
X97361Y96465D01*
Y97758D01*
X96867Y98952D01*
X95952Y99867D01*
X94758Y100361D01*
D02*
G37*
G36*
X125246Y97250D02*
X123953D01*
X122759Y96755D01*
X121845Y95841D01*
X121350Y94646D01*
Y93353D01*
X121845Y92159D01*
X122759Y91244D01*
X123953Y90750D01*
X125246D01*
X126441Y91244D01*
X127355Y92159D01*
X127850Y93353D01*
Y94646D01*
X127355Y95841D01*
X126441Y96755D01*
X125246Y97250D01*
D02*
G37*
G36*
X151666Y74146D02*
X150373D01*
X149179Y73651D01*
X148265Y72737D01*
X147770Y71542D01*
Y70249D01*
X148265Y69055D01*
X149179Y68141D01*
X150373Y67646D01*
X151666D01*
X152861Y68141D01*
X153775Y69055D01*
X154270Y70249D01*
Y71542D01*
X153775Y72737D01*
X152861Y73651D01*
X151666Y74146D01*
D02*
G37*
G36*
X94845Y75250D02*
X93155D01*
X91593Y74603D01*
X90397Y73407D01*
X89750Y71845D01*
Y70155D01*
X90397Y68593D01*
X91593Y67397D01*
X93155Y66750D01*
X94845D01*
X96407Y67397D01*
X97603Y68593D01*
X98250Y70155D01*
Y71845D01*
X97603Y73407D01*
X96407Y74603D01*
X94845Y75250D01*
D02*
G37*
G36*
X232647Y73250D02*
X231354D01*
X230159Y72755D01*
X229245Y71841D01*
X228750Y70646D01*
Y69353D01*
X229245Y68159D01*
X230159Y67245D01*
X231354Y66750D01*
X232647D01*
X233841Y67245D01*
X234755Y68159D01*
X235250Y69353D01*
Y70646D01*
X234755Y71841D01*
X233841Y72755D01*
X232647Y73250D01*
D02*
G37*
G36*
X191646Y72750D02*
X190354D01*
X189159Y72255D01*
X188245Y71341D01*
X187750Y70146D01*
Y68854D01*
X188245Y67659D01*
X189159Y66745D01*
X190354Y66250D01*
X191646D01*
X192841Y66745D01*
X193755Y67659D01*
X194250Y68854D01*
Y70146D01*
X193755Y71341D01*
X192841Y72255D01*
X191646Y72750D01*
D02*
G37*
G36*
X252647Y64850D02*
X251354D01*
X250159Y64355D01*
X249245Y63441D01*
X248750Y62246D01*
Y60954D01*
X249245Y59759D01*
X250159Y58845D01*
X251354Y58350D01*
X252647D01*
X253841Y58845D01*
X254755Y59759D01*
X255250Y60954D01*
Y62246D01*
X254755Y63441D01*
X253841Y64355D01*
X252647Y64850D01*
D02*
G37*
G36*
X211646Y64850D02*
X210354D01*
X209159Y64355D01*
X208245Y63441D01*
X207750Y62246D01*
Y60953D01*
X208245Y59759D01*
X209159Y58845D01*
X210354Y58350D01*
X211646D01*
X212841Y58845D01*
X213755Y59759D01*
X214250Y60953D01*
Y62246D01*
X213755Y63441D01*
X212841Y64355D01*
X211646Y64850D01*
D02*
G37*
G36*
X304646Y66250D02*
X303354D01*
X302159Y65755D01*
X301245Y64841D01*
X300750Y63646D01*
Y62354D01*
X301245Y61159D01*
X301574Y60830D01*
X302026Y60000D01*
X301574Y59170D01*
X301245Y58841D01*
X300750Y57646D01*
Y56354D01*
X301245Y55159D01*
X302159Y54245D01*
X303354Y53750D01*
X304646D01*
X305841Y54245D01*
X306755Y55159D01*
X307250Y56354D01*
Y57646D01*
X306755Y58841D01*
X306426Y59170D01*
X305974Y60000D01*
X306426Y60830D01*
X306755Y61159D01*
X307250Y62354D01*
Y63646D01*
X306755Y64841D01*
X305841Y65755D01*
X304646Y66250D01*
D02*
G37*
G36*
X78646Y60250D02*
X77353D01*
X76159Y59755D01*
X75245Y58841D01*
X74750Y57646D01*
Y56353D01*
X75245Y55159D01*
X76159Y54245D01*
X77353Y53750D01*
X78646D01*
X79578Y54136D01*
X80132Y53905D01*
X80312Y53785D01*
X80750Y53358D01*
Y52354D01*
X81245Y51159D01*
X82159Y50245D01*
X83354Y49750D01*
X84647D01*
X85841Y50245D01*
X86755Y51159D01*
X87250Y52354D01*
Y53646D01*
X86755Y54841D01*
X85841Y55755D01*
X84647Y56250D01*
X83354D01*
X82422Y55864D01*
X81868Y56095D01*
X81688Y56215D01*
X81250Y56642D01*
Y57646D01*
X80755Y58841D01*
X79841Y59755D01*
X78646Y60250D01*
D02*
G37*
G36*
X252647Y53650D02*
X251354D01*
X250159Y53155D01*
X249245Y52241D01*
X248750Y51047D01*
Y49754D01*
X249245Y48559D01*
X250159Y47645D01*
X251354Y47150D01*
X252647D01*
X253841Y47645D01*
X254755Y48559D01*
X255250Y49754D01*
Y51047D01*
X254755Y52241D01*
X253841Y53155D01*
X252647Y53650D01*
D02*
G37*
G36*
X211646Y53650D02*
X210354D01*
X209159Y53155D01*
X208245Y52241D01*
X207750Y51046D01*
Y49753D01*
X208245Y48559D01*
X209159Y47645D01*
X210354Y47150D01*
X211646D01*
X212841Y47645D01*
X213755Y48559D01*
X214250Y49753D01*
Y51046D01*
X213755Y52241D01*
X212841Y53155D01*
X211646Y53650D01*
D02*
G37*
G36*
X-133576Y53473D02*
X-134869D01*
X-136064Y52978D01*
X-136978Y52063D01*
X-137473Y50869D01*
Y49576D01*
X-136978Y48382D01*
X-136064Y47467D01*
X-134869Y46973D01*
X-133576D01*
X-132382Y47467D01*
X-131467Y48382D01*
X-130973Y49576D01*
Y50869D01*
X-131467Y52063D01*
X-132382Y52978D01*
X-133576Y53473D01*
D02*
G37*
G36*
X109466Y61411D02*
X107775D01*
X106213Y60764D01*
X105018Y59569D01*
X104371Y58007D01*
Y56316D01*
X105018Y54754D01*
X106213Y53558D01*
X107775Y52911D01*
X109075D01*
Y51830D01*
X109722Y50268D01*
X110917Y49072D01*
X111918Y48658D01*
X112479Y48425D01*
X113092Y47184D01*
Y46720D01*
X113739Y45158D01*
X114934Y43962D01*
X116496Y43315D01*
X118187D01*
X119749Y43962D01*
X120945Y45158D01*
X121592Y46720D01*
Y48411D01*
X120945Y49973D01*
X119749Y51168D01*
X118748Y51583D01*
X118187Y51815D01*
X117575Y53057D01*
Y53521D01*
X116927Y55083D01*
X115732Y56278D01*
X114170Y56925D01*
X112871D01*
Y58007D01*
X112224Y59569D01*
X111028Y60764D01*
X109466Y61411D01*
D02*
G37*
G36*
X-140576Y46473D02*
X-141869D01*
X-143064Y45978D01*
X-143978Y45064D01*
X-144473Y43869D01*
Y42576D01*
X-143978Y41382D01*
X-143064Y40467D01*
X-141869Y39973D01*
X-140576D01*
X-139382Y40467D01*
X-138467Y41382D01*
X-137973Y42576D01*
Y43869D01*
X-138467Y45064D01*
X-139382Y45978D01*
X-140576Y46473D01*
D02*
G37*
G36*
X211646Y44850D02*
X210354D01*
X209159Y44355D01*
X208245Y43441D01*
X207750Y42246D01*
Y40953D01*
X208245Y39759D01*
X209159Y38845D01*
X210354Y38350D01*
X211646D01*
X212841Y38845D01*
X213755Y39759D01*
X214250Y40953D01*
Y42246D01*
X213755Y43441D01*
X212841Y44355D01*
X211646Y44850D01*
D02*
G37*
G36*
X-73242Y102139D02*
X-74535D01*
X-75730Y101644D01*
X-76644Y100730D01*
X-77139Y99535D01*
Y98242D01*
X-76644Y97048D01*
X-76203Y96607D01*
Y89070D01*
X-130000Y35273D01*
X-131750Y37023D01*
Y37647D01*
X-132245Y38841D01*
X-133159Y39755D01*
X-134354Y40250D01*
X-135646D01*
X-136841Y39755D01*
X-137755Y38841D01*
X-138250Y37647D01*
Y36353D01*
X-137755Y35159D01*
X-136841Y34245D01*
X-135646Y33750D01*
X-135023D01*
X-132315Y31041D01*
Y-29000D01*
X-132138Y-29886D01*
X-131637Y-30637D01*
X-123273Y-39000D01*
X-124912Y-40639D01*
X-125535D01*
X-126730Y-41134D01*
X-127644Y-42048D01*
X-128139Y-43242D01*
Y-44535D01*
X-127644Y-45730D01*
X-126730Y-46644D01*
X-125535Y-47139D01*
X-124242D01*
X-123048Y-46644D01*
X-122134Y-45730D01*
X-121639Y-44535D01*
Y-43912D01*
X-120000Y-42273D01*
X-116273Y-46000D01*
X-117912Y-47639D01*
X-118535D01*
X-119730Y-48134D01*
X-120644Y-49048D01*
X-121139Y-50242D01*
Y-51535D01*
X-120644Y-52730D01*
X-119730Y-53644D01*
X-118535Y-54139D01*
X-117242D01*
X-116048Y-53644D01*
X-115134Y-52730D01*
X-114639Y-51535D01*
Y-50912D01*
X-113000Y-49273D01*
X-109273Y-53000D01*
X-110912Y-54639D01*
X-111535D01*
X-112730Y-55133D01*
X-113644Y-56048D01*
X-114139Y-57242D01*
Y-58535D01*
X-113644Y-59730D01*
X-112730Y-60644D01*
X-111535Y-61139D01*
X-110243D01*
X-109048Y-60644D01*
X-108134Y-59730D01*
X-107639Y-58535D01*
Y-57912D01*
X-106000Y-56273D01*
X-102273Y-60000D01*
X-103912Y-61639D01*
X-104535D01*
X-105730Y-62133D01*
X-106644Y-63048D01*
X-107139Y-64242D01*
Y-65535D01*
X-106644Y-66730D01*
X-105730Y-67644D01*
X-104535Y-68139D01*
X-103243D01*
X-102048Y-67644D01*
X-101134Y-66730D01*
X-100639Y-65535D01*
Y-64912D01*
X-99000Y-63273D01*
X-95273Y-67000D01*
X-96912Y-68639D01*
X-97535D01*
X-98730Y-69133D01*
X-99644Y-70048D01*
X-100139Y-71242D01*
Y-72535D01*
X-99644Y-73730D01*
X-98730Y-74644D01*
X-97535Y-75139D01*
X-96243D01*
X-95048Y-74644D01*
X-94134Y-73730D01*
X-93639Y-72535D01*
Y-71912D01*
X-92000Y-70273D01*
X-88273Y-74000D01*
X-90023Y-75750D01*
X-90646D01*
X-91841Y-76245D01*
X-92755Y-77159D01*
X-93250Y-78354D01*
Y-79646D01*
X-92755Y-80841D01*
X-91841Y-81755D01*
X-90646Y-82250D01*
X-89354D01*
X-88159Y-81755D01*
X-87245Y-80841D01*
X-86750Y-79646D01*
Y-79023D01*
X-85000Y-77273D01*
X-81364Y-80909D01*
X-82813Y-82359D01*
X-83427D01*
X-84621Y-82853D01*
X-85535Y-83767D01*
X-86030Y-84962D01*
Y-86255D01*
X-85535Y-87449D01*
X-84621Y-88364D01*
X-83427Y-88858D01*
X-82134D01*
X-80939Y-88364D01*
X-80025Y-87449D01*
X-79530Y-86255D01*
Y-85622D01*
X-78091Y-84182D01*
X-74273Y-88000D01*
X-75912Y-89639D01*
X-76535D01*
X-77730Y-90134D01*
X-78644Y-91048D01*
X-79139Y-92242D01*
Y-93535D01*
X-78644Y-94730D01*
X-77730Y-95644D01*
X-76535Y-96139D01*
X-75242D01*
X-74048Y-95644D01*
X-73133Y-94730D01*
X-72639Y-93535D01*
Y-92912D01*
X-71000Y-91273D01*
X-66137Y-96137D01*
X-66136Y-96137D01*
X-65058Y-97215D01*
X-66482Y-98639D01*
X-66757D01*
X-67952Y-99133D01*
X-68866Y-100048D01*
X-69361Y-101242D01*
Y-101866D01*
X-73134Y-105639D01*
X-73758D01*
X-74952Y-106134D01*
X-75866Y-107048D01*
X-76361Y-108243D01*
Y-109535D01*
X-75866Y-110730D01*
X-74952Y-111644D01*
X-73758Y-112139D01*
X-72465D01*
X-71270Y-111644D01*
X-70356Y-110730D01*
X-69861Y-109535D01*
Y-108912D01*
X-66088Y-105139D01*
X-65465D01*
X-64270Y-104644D01*
X-63356Y-103730D01*
X-62861Y-102535D01*
Y-101564D01*
X-61785Y-100488D01*
X-58464Y-103809D01*
X-59184Y-104885D01*
X-59242Y-104861D01*
X-60535D01*
X-61729Y-105356D01*
X-62644Y-106270D01*
X-63138Y-107465D01*
Y-108758D01*
X-62644Y-109952D01*
X-61729Y-110866D01*
X-60535Y-111361D01*
X-59242D01*
X-58047Y-110866D01*
X-57133Y-109952D01*
X-56638Y-108758D01*
Y-107465D01*
X-56663Y-107407D01*
X-55586Y-106687D01*
X-53203Y-109070D01*
Y-115607D01*
X-53644Y-116048D01*
X-54139Y-117242D01*
Y-118535D01*
X-53644Y-119730D01*
X-52730Y-120644D01*
X-52426Y-120770D01*
Y-128829D01*
X-52867Y-129270D01*
X-53361Y-130465D01*
Y-131757D01*
X-52867Y-132952D01*
X-51952Y-133866D01*
X-50758Y-134361D01*
X-49465D01*
X-48270Y-133866D01*
X-47356Y-132952D01*
X-46861Y-131757D01*
Y-130465D01*
X-47356Y-129270D01*
X-47797Y-128829D01*
Y-127236D01*
X-47073Y-126918D01*
X-46527Y-126847D01*
X-45730Y-127644D01*
X-44535Y-128139D01*
X-43242D01*
X-42048Y-127644D01*
X-41133Y-126729D01*
X-40639Y-125535D01*
Y-124242D01*
X-41133Y-123048D01*
X-42048Y-122133D01*
X-43242Y-121638D01*
X-44535D01*
X-45730Y-122133D01*
X-46527Y-122930D01*
X-47073Y-122859D01*
X-47797Y-122541D01*
Y-119197D01*
X-47834Y-119008D01*
X-47639Y-118535D01*
Y-117242D01*
X-48134Y-116048D01*
X-48574Y-115607D01*
Y-108111D01*
X-48750Y-107226D01*
X-49252Y-106475D01*
X-60329Y-95398D01*
X-61143Y-94417D01*
X-52236Y-85509D01*
X-51270Y-86244D01*
X-51917Y-87806D01*
Y-89496D01*
X-51270Y-91058D01*
X-50075Y-92254D01*
X-48513Y-92901D01*
X-46822D01*
X-46794Y-92889D01*
X-46525Y-93159D01*
X-45654Y-93741D01*
X-44626Y-93945D01*
X54521D01*
X64041Y-103465D01*
X64001Y-103632D01*
X63419Y-104639D01*
X62465D01*
X61270Y-105133D01*
X60356Y-106048D01*
X59861Y-107242D01*
Y-108535D01*
X60356Y-109730D01*
X61270Y-110644D01*
X62465Y-111139D01*
X63758D01*
X64952Y-110644D01*
X65866Y-109730D01*
X66361Y-108535D01*
Y-107581D01*
X67368Y-106999D01*
X67535Y-106959D01*
X68476Y-107900D01*
X69347Y-108482D01*
X70375Y-108687D01*
X114711D01*
Y-113432D01*
X114916Y-114460D01*
X115498Y-115331D01*
X116450Y-116284D01*
X117322Y-116866D01*
X118350Y-117071D01*
X120255D01*
X121283Y-116866D01*
X122155Y-116284D01*
X122266Y-116173D01*
X123113Y-115336D01*
X123960Y-116173D01*
X124070Y-116284D01*
X124942Y-116866D01*
X125970Y-117071D01*
X127875D01*
X128903Y-116866D01*
X129775Y-116284D01*
X130727Y-115331D01*
X131310Y-114460D01*
X131471Y-113649D01*
X132115Y-113177D01*
X132784Y-112895D01*
X133590Y-113055D01*
X135495D01*
X136523Y-112851D01*
X137395Y-112268D01*
X138347Y-111316D01*
X138930Y-110444D01*
X139134Y-109416D01*
Y-108687D01*
X214000D01*
X215028Y-108482D01*
X215900Y-107900D01*
X239400Y-84400D01*
X239982Y-83528D01*
X240187Y-82500D01*
Y-69663D01*
X241103Y-68747D01*
X241750Y-67185D01*
Y-66250D01*
X243250D01*
Y-67185D01*
X243897Y-68747D01*
X245093Y-69942D01*
X246655Y-70589D01*
X248346D01*
X249907Y-69942D01*
X251103Y-68747D01*
X251750Y-67185D01*
Y-66250D01*
X253345D01*
X254907Y-65603D01*
X256103Y-64407D01*
X256750Y-62845D01*
Y-61155D01*
X256103Y-59593D01*
X254907Y-58397D01*
X253345Y-57750D01*
X251655D01*
X250093Y-58397D01*
X248897Y-59593D01*
X248250Y-61155D01*
Y-62090D01*
X246750D01*
Y-61155D01*
X246103Y-59593D01*
X244907Y-58397D01*
X243345Y-57750D01*
X241655D01*
X240093Y-58397D01*
X238897Y-59593D01*
X238250Y-61155D01*
Y-62090D01*
X236750D01*
Y-61155D01*
X236103Y-59593D01*
X234907Y-58397D01*
X233346Y-57750D01*
X231655D01*
X230093Y-58397D01*
X228897Y-59593D01*
X228250Y-61155D01*
Y-62090D01*
X226750D01*
Y-61155D01*
X226103Y-59593D01*
X225187Y-58676D01*
Y-36832D01*
X224982Y-35804D01*
X224400Y-34933D01*
X221004Y-31537D01*
X220133Y-30955D01*
X219105Y-30750D01*
X217758D01*
X216730Y-30955D01*
X215478Y-30387D01*
X214895Y-29516D01*
X214497Y-29118D01*
X215023Y-27848D01*
X215115D01*
X216143Y-27643D01*
X217015Y-27061D01*
X217967Y-26108D01*
X218550Y-25237D01*
X218754Y-24209D01*
Y-22687D01*
X221887D01*
X229100Y-29900D01*
X229972Y-30482D01*
X231000Y-30687D01*
X247387D01*
X273181Y-56480D01*
X272654Y-57750D01*
X271655D01*
X270093Y-58397D01*
X268897Y-59593D01*
X268250Y-61155D01*
Y-62845D01*
X268897Y-64407D01*
X269813Y-65324D01*
Y-81387D01*
X220887Y-130313D01*
X109260D01*
X108232Y-130518D01*
X107991Y-130679D01*
X107324Y-131074D01*
X106397Y-130406D01*
X105445Y-129453D01*
X104573Y-128871D01*
X103545Y-128666D01*
X101640D01*
X100612Y-128871D01*
X99740Y-129453D01*
X99630Y-129564D01*
X98783Y-130400D01*
X97936Y-129564D01*
X97825Y-129453D01*
X96953Y-128871D01*
X95925Y-128666D01*
X94020D01*
X92992Y-128871D01*
X92120Y-129453D01*
X92010Y-129564D01*
X91163Y-130400D01*
X90316Y-129564D01*
X90205Y-129453D01*
X89333Y-128871D01*
X88305Y-128666D01*
X86400D01*
X85372Y-128871D01*
X84500Y-129453D01*
X84390Y-129564D01*
X83543Y-130400D01*
X82696Y-129564D01*
X82585Y-129453D01*
X81713Y-128871D01*
X80685Y-128666D01*
X78780D01*
X77752Y-128871D01*
X76880Y-129453D01*
X76770Y-129564D01*
X75923Y-130400D01*
X75076Y-129564D01*
X74965Y-129453D01*
X74093Y-128871D01*
X73065Y-128666D01*
X71160D01*
X70132Y-128871D01*
X69260Y-129453D01*
X68308Y-130406D01*
X67382Y-131074D01*
X66714Y-130679D01*
X66473Y-130518D01*
X65445Y-130313D01*
X46697D01*
X46488Y-130004D01*
X46962Y-128433D01*
X47222Y-128326D01*
X48417Y-127130D01*
X49064Y-125568D01*
Y-123877D01*
X48417Y-122315D01*
X47222Y-121120D01*
X45659Y-120473D01*
X43969D01*
X42407Y-121120D01*
X41211Y-122315D01*
X39650Y-122766D01*
X39070Y-122525D01*
X37379D01*
X35817Y-123172D01*
X34622Y-124368D01*
X33975Y-125930D01*
Y-127621D01*
X32833Y-128183D01*
X31787Y-128616D01*
X30873Y-129531D01*
X30378Y-130725D01*
Y-132018D01*
X30873Y-133213D01*
X31787Y-134127D01*
X32982Y-134622D01*
X34275D01*
X35469Y-134127D01*
X36384Y-133213D01*
X36817Y-132167D01*
X37379Y-131025D01*
X38675D01*
X42549Y-134900D01*
X43421Y-135482D01*
X44449Y-135687D01*
X63711D01*
Y-138502D01*
X63916Y-139530D01*
X64498Y-140401D01*
X65450Y-141354D01*
X66322Y-141936D01*
X67350Y-142141D01*
X69255D01*
X70283Y-141936D01*
X71155Y-141354D01*
X71266Y-141243D01*
X72113Y-140407D01*
X72960Y-141243D01*
X73070Y-141354D01*
X73942Y-141936D01*
X74970Y-142141D01*
X76875D01*
X77903Y-141936D01*
X78775Y-141354D01*
X78886Y-141243D01*
X79733Y-140407D01*
X80580Y-141243D01*
X80690Y-141354D01*
X81562Y-141936D01*
X82590Y-142141D01*
X84495D01*
X85523Y-141936D01*
X86395Y-141354D01*
X86506Y-141243D01*
X87353Y-140407D01*
X88200Y-141243D01*
X88310Y-141354D01*
X89182Y-141936D01*
X90210Y-142141D01*
X92115D01*
X93143Y-141936D01*
X94015Y-141354D01*
X94126Y-141243D01*
X94973Y-140407D01*
X95820Y-141243D01*
X95930Y-141354D01*
X96802Y-141936D01*
X97830Y-142141D01*
X99735D01*
X100763Y-141936D01*
X101635Y-141354D01*
X102587Y-140401D01*
X103170Y-139530D01*
X103269Y-139031D01*
X104273Y-138372D01*
X104644Y-138319D01*
X105450Y-138479D01*
X107355D01*
X108383Y-138274D01*
X109255Y-137692D01*
X110207Y-136740D01*
X110790Y-135868D01*
X110826Y-135687D01*
X222000D01*
X223028Y-135482D01*
X223900Y-134900D01*
X274400Y-84400D01*
X274982Y-83528D01*
X275187Y-82500D01*
Y-65324D01*
X276103Y-64407D01*
X276660Y-63064D01*
X277502Y-62609D01*
X278020Y-62445D01*
X278250Y-62599D01*
Y-62845D01*
X278897Y-64407D01*
X280093Y-65603D01*
X281655Y-66250D01*
X283250D01*
Y-67185D01*
X283897Y-68747D01*
X285093Y-69942D01*
X286655Y-70589D01*
X288345D01*
X289907Y-69942D01*
X291103Y-68747D01*
X291750Y-67185D01*
Y-65494D01*
X291103Y-63932D01*
X289907Y-62737D01*
X288345Y-62090D01*
X286750D01*
Y-61155D01*
X286103Y-59593D01*
X284907Y-58397D01*
X283345Y-57750D01*
X282049D01*
X250400Y-26100D01*
X249528Y-25518D01*
X248500Y-25313D01*
X232113D01*
X224900Y-18100D01*
X224028Y-17518D01*
X223000Y-17313D01*
X217020D01*
X216214Y-17474D01*
X215384Y-17038D01*
X214944Y-16691D01*
Y-2892D01*
X214740Y-1864D01*
X214157Y-993D01*
X213205Y-40D01*
X212333Y542D01*
X211305Y747D01*
X209400D01*
X208372Y542D01*
X207500Y-40D01*
X207390Y-151D01*
X206543Y-988D01*
X205696Y-151D01*
X205585Y-40D01*
X204713Y542D01*
X203685Y747D01*
X201780D01*
X200752Y542D01*
X199880Y-40D01*
X199770Y-151D01*
X198923Y-988D01*
X198076Y-151D01*
X197965Y-40D01*
X197093Y542D01*
X196065Y747D01*
X194160D01*
X193836Y682D01*
X193210Y1853D01*
X212691Y21333D01*
X248309D01*
X259822Y9820D01*
X259750Y9646D01*
Y8354D01*
X260245Y7159D01*
X261159Y6245D01*
X262354Y5750D01*
X263647D01*
X264841Y6245D01*
X265755Y7159D01*
X266250Y8354D01*
Y9646D01*
X265755Y10841D01*
X264841Y11755D01*
X263647Y12250D01*
X262354D01*
X262180Y12178D01*
X250179Y24179D01*
X249638Y24540D01*
X249000Y24667D01*
X212000D01*
X211362Y24540D01*
X210821Y24179D01*
X158105Y-28538D01*
X157789Y-28475D01*
X157779Y-28468D01*
X157112Y-27046D01*
X157296Y-26601D01*
Y-25308D01*
X157224Y-25134D01*
X164679Y-17679D01*
X165040Y-17138D01*
X165167Y-16500D01*
Y62173D01*
X165341Y62245D01*
X166255Y63159D01*
X166750Y64354D01*
Y65647D01*
X166255Y66841D01*
X165341Y67755D01*
X164146Y68250D01*
X162854D01*
X161659Y67755D01*
X160745Y66841D01*
X160250Y65647D01*
Y64354D01*
X160745Y63159D01*
X161659Y62245D01*
X161833Y62173D01*
Y-15809D01*
X154866Y-22776D01*
X154692Y-22704D01*
X153399D01*
X152205Y-23199D01*
X150724Y-22884D01*
X150603Y-22593D01*
X149407Y-21397D01*
X149312Y-21358D01*
X148857Y-19794D01*
X149250Y-18845D01*
Y-17155D01*
X148603Y-15593D01*
X147407Y-14397D01*
X145845Y-13750D01*
X144155D01*
X143754Y-13916D01*
X142798Y-12937D01*
X143250Y-11845D01*
Y-10155D01*
X142603Y-8593D01*
X141407Y-7397D01*
X139845Y-6750D01*
X138155D01*
X136593Y-7397D01*
X135397Y-8593D01*
X134750Y-10155D01*
Y-11845D01*
X135397Y-13407D01*
X136593Y-14603D01*
X138155Y-15250D01*
X139845D01*
X140246Y-15084D01*
X141202Y-16063D01*
X140750Y-17155D01*
Y-18845D01*
X141397Y-20407D01*
X142593Y-21603D01*
X142688Y-21642D01*
X143143Y-23206D01*
X142750Y-24155D01*
Y-25845D01*
X143397Y-27407D01*
X144053Y-28063D01*
X143526Y-29333D01*
X141691D01*
X139179Y-26821D01*
X138638Y-26460D01*
X138000Y-26333D01*
X121000D01*
X120362Y-26460D01*
X119821Y-26821D01*
X107310Y-39333D01*
X97827D01*
X97755Y-39159D01*
X96841Y-38245D01*
X95646Y-37750D01*
X94354D01*
X93159Y-38245D01*
X92245Y-39159D01*
X91750Y-40353D01*
Y-41646D01*
X92245Y-42841D01*
X93159Y-43755D01*
X94354Y-44250D01*
X95646D01*
X96841Y-43755D01*
X97755Y-42841D01*
X97827Y-42667D01*
X108000D01*
X108638Y-42540D01*
X109179Y-42179D01*
X121691Y-29667D01*
X132895D01*
X133148Y-30937D01*
X132593Y-31167D01*
X131397Y-32363D01*
X130750Y-33925D01*
Y-35615D01*
X131397Y-37177D01*
X132593Y-38373D01*
X134155Y-39020D01*
X135845D01*
X137407Y-38373D01*
X138324Y-37457D01*
X166230D01*
X167258Y-37252D01*
X168130Y-36670D01*
X170009Y-34790D01*
X170261Y-34833D01*
X171313Y-36000D01*
Y-49000D01*
X171518Y-50028D01*
X172100Y-50900D01*
X177100Y-55900D01*
X177972Y-56482D01*
X179000Y-56687D01*
X190903D01*
X191156Y-57957D01*
X190093Y-58397D01*
X188897Y-59593D01*
X188250Y-61155D01*
Y-62090D01*
X186655D01*
X185093Y-62737D01*
X183897Y-63932D01*
X183250Y-65494D01*
Y-67185D01*
X183897Y-68747D01*
X185093Y-69942D01*
X186655Y-70589D01*
X188345D01*
X189907Y-69942D01*
X191103Y-68747D01*
X191750Y-67185D01*
Y-66250D01*
X193345D01*
X194907Y-65603D01*
X196103Y-64407D01*
X196750Y-62845D01*
Y-61155D01*
X196103Y-59593D01*
X194907Y-58397D01*
X193844Y-57957D01*
X194097Y-56687D01*
X199676D01*
X200593Y-57603D01*
X202155Y-58250D01*
X203845D01*
X205407Y-57603D01*
X206603Y-56407D01*
X207250Y-54845D01*
Y-53155D01*
X206603Y-51593D01*
X206352Y-51342D01*
X206878Y-50072D01*
X208233D01*
X209261Y-49867D01*
X210133Y-49285D01*
X211085Y-48333D01*
X211667Y-47461D01*
X211872Y-46433D01*
Y-45192D01*
X212311Y-44845D01*
X213142Y-44409D01*
X213948Y-44569D01*
X215853D01*
X216881Y-44365D01*
X217753Y-43783D01*
X218543Y-42992D01*
X219199Y-43110D01*
X219813Y-43457D01*
Y-58676D01*
X218897Y-59593D01*
X218250Y-61155D01*
Y-62090D01*
X216655D01*
X215093Y-62737D01*
X215075Y-62733D01*
X214603Y-61593D01*
X213407Y-60397D01*
X211845Y-59750D01*
X210155D01*
X208593Y-60397D01*
X207500Y-61490D01*
X206407Y-60397D01*
X204845Y-59750D01*
X203155D01*
X201593Y-60397D01*
X200397Y-61593D01*
X199750Y-63155D01*
Y-64845D01*
X200397Y-66407D01*
X201593Y-67603D01*
X203155Y-68250D01*
X204845D01*
X206407Y-67603D01*
X207500Y-66510D01*
X208593Y-67603D01*
X210155Y-68250D01*
X211845D01*
X213407Y-67603D01*
X213425Y-67606D01*
X213897Y-68747D01*
X215093Y-69942D01*
X216655Y-70589D01*
X218346D01*
X219908Y-69942D01*
X221103Y-68747D01*
X221750Y-67185D01*
Y-66250D01*
X223250D01*
Y-67185D01*
X223897Y-68747D01*
X225093Y-69942D01*
X226655Y-70589D01*
X228346D01*
X228757Y-70419D01*
X229813Y-71124D01*
Y-78387D01*
X210887Y-97313D01*
X135324D01*
Y-94981D01*
X135120Y-93953D01*
X134537Y-93081D01*
X133585Y-92129D01*
X132713Y-91546D01*
X131685Y-91342D01*
X129780D01*
X128752Y-91546D01*
X127880Y-92129D01*
X126917Y-91607D01*
X125965Y-90655D01*
X125093Y-90072D01*
X124065Y-89868D01*
X123639D01*
X123353Y-89532D01*
X122937Y-88598D01*
X123307Y-87704D01*
Y-86411D01*
X122813Y-85217D01*
X121898Y-84302D01*
X120704Y-83807D01*
X119411D01*
X118216Y-84302D01*
X117302Y-85217D01*
X116807Y-86411D01*
Y-87704D01*
X117232Y-88730D01*
X116934Y-89337D01*
X116483Y-89875D01*
X116445Y-89868D01*
X114540D01*
X113512Y-90072D01*
X112640Y-90655D01*
X111688Y-91607D01*
X111105Y-92479D01*
X110901Y-93507D01*
Y-97313D01*
X74113D01*
X60900Y-84100D01*
X60028Y-83518D01*
X59000Y-83313D01*
X-37676D01*
X-38593Y-82397D01*
X-40155Y-81750D01*
X-41845D01*
X-43407Y-82397D01*
X-44603Y-83593D01*
X-44736Y-83913D01*
X-46387Y-84581D01*
X-46822Y-84401D01*
X-48513D01*
X-50075Y-85048D01*
X-50809Y-84082D01*
X-45041Y-78314D01*
X65441D01*
X77750Y-90623D01*
Y-91246D01*
X78245Y-92441D01*
X79159Y-93355D01*
X80353Y-93850D01*
X81646D01*
X82841Y-93355D01*
X83755Y-92441D01*
X84250Y-91246D01*
Y-89953D01*
X83755Y-88759D01*
X82841Y-87845D01*
X81646Y-87350D01*
X81023D01*
X68036Y-74363D01*
X67286Y-73862D01*
X66400Y-73685D01*
X-46000D01*
X-46886Y-73862D01*
X-47637Y-74363D01*
X-64500Y-91227D01*
X-69863Y-85864D01*
X-69863Y-85863D01*
X-76863Y-78863D01*
X-83863Y-71863D01*
X-90363Y-65363D01*
X-90363Y-65363D01*
X-96863Y-58863D01*
X-104863Y-50863D01*
X-111863Y-43864D01*
X-111863Y-43863D01*
X-118363Y-37364D01*
X-127685Y-28041D01*
Y31041D01*
X-72252Y86475D01*
X-71750Y87226D01*
X-71574Y88111D01*
Y96607D01*
X-71133Y97048D01*
X-70639Y98242D01*
Y99535D01*
X-71133Y100730D01*
X-72048Y101644D01*
X-73242Y102139D01*
D02*
G37*
G36*
X646Y39250D02*
X-646D01*
X-1841Y38755D01*
X-2755Y37841D01*
X-3250Y36646D01*
Y35354D01*
X-2755Y34159D01*
X-1841Y33245D01*
X-646Y32750D01*
X646D01*
X1841Y33245D01*
X2755Y34159D01*
X3250Y35354D01*
Y36646D01*
X2755Y37841D01*
X1841Y38755D01*
X646Y39250D01*
D02*
G37*
G36*
X247246Y16250D02*
X245954D01*
X244759Y15755D01*
X243845Y14841D01*
X243350Y13647D01*
Y12354D01*
X243845Y11159D01*
X244759Y10245D01*
X245954Y9750D01*
X247246D01*
X248441Y10245D01*
X249355Y11159D01*
X249850Y12354D01*
Y13647D01*
X249355Y14841D01*
X248441Y15755D01*
X247246Y16250D01*
D02*
G37*
G36*
X-8354Y14250D02*
X-9646D01*
X-10841Y13755D01*
X-11755Y12841D01*
X-12250Y11646D01*
Y10353D01*
X-11755Y9159D01*
X-10841Y8245D01*
X-9646Y7750D01*
X-8354D01*
X-7159Y8245D01*
X-6245Y9159D01*
X-5750Y10353D01*
Y11646D01*
X-6245Y12841D01*
X-7159Y13755D01*
X-8354Y14250D01*
D02*
G37*
G36*
X11646Y13250D02*
X10353D01*
X9159Y12755D01*
X8245Y11841D01*
X7750Y10647D01*
Y9354D01*
X8245Y8159D01*
X9159Y7245D01*
X10353Y6750D01*
X11646D01*
X12841Y7245D01*
X13755Y8159D01*
X14250Y9354D01*
Y10647D01*
X13755Y11841D01*
X12841Y12755D01*
X11646Y13250D01*
D02*
G37*
G36*
X145845Y19250D02*
X144155D01*
X142593Y18603D01*
X141397Y17407D01*
X140750Y15845D01*
Y15250D01*
X139845Y14250D01*
X138155D01*
X136593Y13603D01*
X135397Y12407D01*
X134750Y10845D01*
Y9155D01*
X135397Y7593D01*
X136593Y6397D01*
X138155Y5750D01*
X139845D01*
X141407Y6397D01*
X142603Y7593D01*
X143250Y9155D01*
Y9750D01*
X144155Y10750D01*
X145845D01*
X147407Y11397D01*
X148603Y12593D01*
X149250Y14155D01*
Y15845D01*
X148603Y17407D01*
X147407Y18603D01*
X145845Y19250D01*
D02*
G37*
G36*
X285646Y11250D02*
X284354D01*
X283159Y10755D01*
X282245Y9841D01*
X281750Y8646D01*
Y7354D01*
X282245Y6159D01*
X283159Y5245D01*
X284354Y4750D01*
X285646D01*
X286841Y5245D01*
X287755Y6159D01*
X288250Y7354D01*
Y8646D01*
X287755Y9841D01*
X286841Y10755D01*
X285646Y11250D01*
D02*
G37*
G36*
X220646Y4750D02*
X219353D01*
X218159Y4255D01*
X217245Y3341D01*
X216750Y2146D01*
Y853D01*
X217245Y-341D01*
X218159Y-1255D01*
X219353Y-1750D01*
X220646D01*
X221841Y-1255D01*
X222755Y-341D01*
X223250Y853D01*
Y2146D01*
X222755Y3341D01*
X221841Y4255D01*
X220646Y4750D01*
D02*
G37*
G36*
X33647Y3250D02*
X32354D01*
X31159Y2755D01*
X30245Y1841D01*
X29750Y646D01*
Y-646D01*
X30245Y-1841D01*
X31159Y-2755D01*
X32354Y-3250D01*
X33647D01*
X34841Y-2755D01*
X35755Y-1841D01*
X36250Y-646D01*
Y646D01*
X35755Y1841D01*
X34841Y2755D01*
X33647Y3250D01*
D02*
G37*
G36*
X646D02*
X-646D01*
X-1841Y2755D01*
X-2755Y1841D01*
X-3250Y646D01*
Y-646D01*
X-2755Y-1841D01*
X-1841Y-2755D01*
X-646Y-3250D01*
X646D01*
X1841Y-2755D01*
X2755Y-1841D01*
X3250Y-646D01*
Y646D01*
X2755Y1841D01*
X1841Y2755D01*
X646Y3250D01*
D02*
G37*
G36*
X-34354D02*
X-35647D01*
X-36841Y2755D01*
X-37755Y1841D01*
X-38250Y646D01*
Y-646D01*
X-37755Y-1841D01*
X-36841Y-2755D01*
X-35647Y-3250D01*
X-34354D01*
X-33159Y-2755D01*
X-32245Y-1841D01*
X-31750Y-646D01*
Y646D01*
X-32245Y1841D01*
X-33159Y2755D01*
X-34354Y3250D01*
D02*
G37*
G36*
X255646Y-2250D02*
X254354D01*
X253159Y-2745D01*
X252245Y-3659D01*
X251750Y-4854D01*
Y-6147D01*
X252245Y-7341D01*
X253159Y-8255D01*
X254354Y-8750D01*
X255646D01*
X256841Y-8255D01*
X257755Y-7341D01*
X258250Y-6147D01*
Y-4854D01*
X257755Y-3659D01*
X256841Y-2745D01*
X255646Y-2250D01*
D02*
G37*
G36*
X240146Y-2650D02*
X238853D01*
X237659Y-3145D01*
X236744Y-4059D01*
X236250Y-5254D01*
Y-6547D01*
X236744Y-7741D01*
X237659Y-8655D01*
X238853Y-9150D01*
X240146D01*
X241341Y-8655D01*
X242255Y-7741D01*
X242750Y-6547D01*
Y-5254D01*
X242255Y-4059D01*
X241341Y-3145D01*
X240146Y-2650D01*
D02*
G37*
G36*
X145146Y68250D02*
X143853D01*
X142659Y67755D01*
X141745Y66841D01*
X141250Y65647D01*
Y64354D01*
X141745Y63159D01*
X142659Y62245D01*
X142833Y62173D01*
Y48190D01*
X127821Y33179D01*
X127460Y32638D01*
X127333Y32000D01*
Y-6309D01*
X120820Y-12822D01*
X120646Y-12750D01*
X119354D01*
X118159Y-13245D01*
X117245Y-14159D01*
X116750Y-15353D01*
Y-16646D01*
X117245Y-17841D01*
X118159Y-18755D01*
X119354Y-19250D01*
X120646D01*
X121841Y-18755D01*
X122755Y-17841D01*
X123250Y-16646D01*
Y-15353D01*
X123178Y-15180D01*
X130179Y-8179D01*
X130540Y-7638D01*
X130667Y-7000D01*
Y31309D01*
X145679Y46321D01*
X146040Y46862D01*
X146167Y47500D01*
Y62173D01*
X146341Y62245D01*
X147255Y63159D01*
X147750Y64354D01*
Y65647D01*
X147255Y66841D01*
X146341Y67755D01*
X145146Y68250D01*
D02*
G37*
G36*
X11646Y-8750D02*
X10353D01*
X9159Y-9245D01*
X8245Y-10159D01*
X7750Y-11353D01*
Y-12646D01*
X8245Y-13841D01*
X9159Y-14755D01*
X10353Y-15250D01*
X11646D01*
X12841Y-14755D01*
X13755Y-13841D01*
X14250Y-12646D01*
Y-11353D01*
X13755Y-10159D01*
X12841Y-9245D01*
X11646Y-8750D01*
D02*
G37*
G36*
X-11353D02*
X-12646D01*
X-13841Y-9245D01*
X-14755Y-10159D01*
X-15250Y-11353D01*
Y-12646D01*
X-14755Y-13841D01*
X-13841Y-14755D01*
X-12646Y-15250D01*
X-11353D01*
X-10159Y-14755D01*
X-9245Y-13841D01*
X-8750Y-12646D01*
Y-11353D01*
X-9245Y-10159D01*
X-10159Y-9245D01*
X-11353Y-8750D01*
D02*
G37*
G36*
X240646Y-14350D02*
X239353D01*
X238159Y-14845D01*
X237245Y-15759D01*
X236750Y-16954D01*
Y-18246D01*
X237245Y-19441D01*
X238159Y-20355D01*
X239353Y-20850D01*
X240646D01*
X241841Y-20355D01*
X242755Y-19441D01*
X243250Y-18246D01*
Y-16954D01*
X242755Y-15759D01*
X241841Y-14845D01*
X240646Y-14350D01*
D02*
G37*
G36*
X-143242Y-22639D02*
X-144535D01*
X-145730Y-23133D01*
X-146644Y-24048D01*
X-147139Y-25242D01*
Y-26535D01*
X-146644Y-27729D01*
X-145730Y-28644D01*
X-144535Y-29139D01*
X-143242D01*
X-142048Y-28644D01*
X-141133Y-27729D01*
X-140639Y-26535D01*
Y-25242D01*
X-141133Y-24048D01*
X-142048Y-23133D01*
X-143242Y-22639D01*
D02*
G37*
G36*
X-149465Y-28861D02*
X-150758D01*
X-151952Y-29356D01*
X-152866Y-30270D01*
X-153361Y-31465D01*
Y-32758D01*
X-152866Y-33952D01*
X-151952Y-34866D01*
X-150758Y-35361D01*
X-149465D01*
X-148270Y-34866D01*
X-147356Y-33952D01*
X-146861Y-32758D01*
Y-31465D01*
X-147356Y-30270D01*
X-148270Y-29356D01*
X-149465Y-28861D01*
D02*
G37*
G36*
X-136354Y-29750D02*
X-137647D01*
X-138841Y-30245D01*
X-139755Y-31159D01*
X-140250Y-32354D01*
Y-33647D01*
X-139755Y-34841D01*
X-138841Y-35755D01*
X-137647Y-36250D01*
X-136354D01*
X-135159Y-35755D01*
X-134245Y-34841D01*
X-133750Y-33647D01*
Y-32354D01*
X-134245Y-31159D01*
X-135159Y-30245D01*
X-136354Y-29750D01*
D02*
G37*
G36*
X102647Y-30750D02*
X101354D01*
X100159Y-31245D01*
X99245Y-32159D01*
X98750Y-33354D01*
Y-34646D01*
X99245Y-35841D01*
X100159Y-36755D01*
X101354Y-37250D01*
X102647D01*
X103841Y-36755D01*
X104755Y-35841D01*
X105250Y-34646D01*
Y-33354D01*
X104755Y-32159D01*
X103841Y-31245D01*
X102647Y-30750D01*
D02*
G37*
G36*
X646Y-31750D02*
X-646D01*
X-1841Y-32245D01*
X-2755Y-33159D01*
X-3250Y-34354D01*
Y-35647D01*
X-2755Y-36841D01*
X-1841Y-37755D01*
X-646Y-38250D01*
X646D01*
X1841Y-37755D01*
X2755Y-36841D01*
X3250Y-35647D01*
Y-34354D01*
X2755Y-33159D01*
X1841Y-32245D01*
X646Y-31750D01*
D02*
G37*
G36*
X-142576Y-35973D02*
X-143869D01*
X-145064Y-36467D01*
X-145978Y-37382D01*
X-146473Y-38576D01*
Y-39869D01*
X-145978Y-41064D01*
X-145064Y-41978D01*
X-143869Y-42473D01*
X-142576D01*
X-141382Y-41978D01*
X-140467Y-41064D01*
X-139973Y-39869D01*
Y-38576D01*
X-140467Y-37382D01*
X-141382Y-36467D01*
X-142576Y-35973D01*
D02*
G37*
G36*
X-130465Y-46861D02*
X-131758D01*
X-132952Y-47356D01*
X-133867Y-48270D01*
X-134361Y-49465D01*
Y-50758D01*
X-133867Y-51952D01*
X-132952Y-52867D01*
X-131758Y-53361D01*
X-130465D01*
X-129270Y-52867D01*
X-128356Y-51952D01*
X-127861Y-50758D01*
Y-49465D01*
X-128356Y-48270D01*
X-129270Y-47356D01*
X-130465Y-46861D01*
D02*
G37*
G36*
X81646Y-52750D02*
X80353D01*
X79159Y-53245D01*
X78245Y-54159D01*
X77750Y-55353D01*
Y-56646D01*
X78245Y-57841D01*
X79159Y-58755D01*
X80353Y-59250D01*
X81646D01*
X82841Y-58755D01*
X83755Y-57841D01*
X84250Y-56646D01*
Y-55353D01*
X83755Y-54159D01*
X82841Y-53245D01*
X81646Y-52750D01*
D02*
G37*
G36*
X-123465Y-53861D02*
X-124758D01*
X-125953Y-54356D01*
X-126867Y-55270D01*
X-127361Y-56465D01*
Y-57758D01*
X-126867Y-58952D01*
X-125953Y-59866D01*
X-124758Y-60361D01*
X-123465D01*
X-122271Y-59866D01*
X-121356Y-58952D01*
X-120862Y-57758D01*
Y-56465D01*
X-121356Y-55270D01*
X-122271Y-54356D01*
X-123465Y-53861D01*
D02*
G37*
G36*
X-116465Y-60861D02*
X-117758D01*
X-118953Y-61356D01*
X-119867Y-62270D01*
X-120361Y-63465D01*
Y-64758D01*
X-119867Y-65952D01*
X-118953Y-66866D01*
X-117758Y-67361D01*
X-116465D01*
X-115271Y-66866D01*
X-114356Y-65952D01*
X-113862Y-64758D01*
Y-63465D01*
X-114356Y-62270D01*
X-115271Y-61356D01*
X-116465Y-60861D01*
D02*
G37*
G36*
X308646Y-62750D02*
X307353D01*
X306159Y-63245D01*
X305245Y-64159D01*
X304750Y-65353D01*
Y-66646D01*
X305245Y-67841D01*
X306159Y-68755D01*
X307353Y-69250D01*
X308646D01*
X309841Y-68755D01*
X310755Y-67841D01*
X311250Y-66646D01*
Y-65353D01*
X310755Y-64159D01*
X309841Y-63245D01*
X308646Y-62750D01*
D02*
G37*
G36*
X153147Y-58750D02*
X151854D01*
X150659Y-59245D01*
X149745Y-60159D01*
X149250Y-61354D01*
Y-62172D01*
X148204Y-63067D01*
X148146Y-63090D01*
X146854D01*
X145659Y-63584D01*
X144745Y-64499D01*
X144250Y-65693D01*
Y-66986D01*
X144745Y-68181D01*
X145659Y-69095D01*
X146854Y-69590D01*
X148147D01*
X149341Y-69095D01*
X150255Y-68181D01*
X150750Y-66986D01*
Y-66168D01*
X151796Y-65273D01*
X151854Y-65250D01*
X153147D01*
X153204Y-65273D01*
X154250Y-66168D01*
Y-66986D01*
X154745Y-68181D01*
X155659Y-69095D01*
X156854Y-69590D01*
X158146D01*
X159341Y-69095D01*
X160255Y-68181D01*
X160750Y-66986D01*
Y-65693D01*
X160255Y-64499D01*
X159341Y-63584D01*
X158146Y-63090D01*
X156854D01*
X156796Y-63067D01*
X155750Y-62172D01*
Y-61354D01*
X155255Y-60159D01*
X154341Y-59245D01*
X153147Y-58750D01*
D02*
G37*
G36*
X178345Y-62090D02*
X176655D01*
X175093Y-62737D01*
X173897Y-63932D01*
X173250Y-65494D01*
Y-67185D01*
X173897Y-68747D01*
X175093Y-69942D01*
X176655Y-70589D01*
X178345D01*
X179907Y-69942D01*
X181103Y-68747D01*
X181750Y-67185D01*
Y-65494D01*
X181103Y-63932D01*
X179907Y-62737D01*
X178345Y-62090D01*
D02*
G37*
G36*
X-109465Y-67861D02*
X-110758D01*
X-111952Y-68356D01*
X-112867Y-69270D01*
X-113362Y-70465D01*
Y-71758D01*
X-112867Y-72952D01*
X-111952Y-73867D01*
X-110758Y-74361D01*
X-109465D01*
X-108271Y-73867D01*
X-107356Y-72952D01*
X-106862Y-71758D01*
Y-70465D01*
X-107356Y-69270D01*
X-108271Y-68356D01*
X-109465Y-67861D01*
D02*
G37*
G36*
X313647Y-68750D02*
X312354D01*
X311159Y-69245D01*
X310245Y-70159D01*
X309750Y-71354D01*
Y-72646D01*
X310245Y-73841D01*
X311159Y-74755D01*
X312354Y-75250D01*
X313647D01*
X314841Y-74755D01*
X315755Y-73841D01*
X316250Y-72646D01*
Y-71354D01*
X315755Y-70159D01*
X314841Y-69245D01*
X313647Y-68750D01*
D02*
G37*
G36*
X106647Y-73150D02*
X105354D01*
X104159Y-73645D01*
X103245Y-74559D01*
X102750Y-75753D01*
Y-77046D01*
X103245Y-78241D01*
X104159Y-79155D01*
X105354Y-79650D01*
X106647D01*
X107841Y-79155D01*
X108755Y-78241D01*
X109250Y-77046D01*
Y-75753D01*
X108755Y-74559D01*
X107841Y-73645D01*
X106647Y-73150D01*
D02*
G37*
G36*
X-102465Y-74861D02*
X-103758D01*
X-104952Y-75356D01*
X-105867Y-76270D01*
X-106362Y-77465D01*
Y-78758D01*
X-105867Y-79952D01*
X-104952Y-80866D01*
X-103758Y-81361D01*
X-102465D01*
X-101271Y-80866D01*
X-100356Y-79952D01*
X-99862Y-78758D01*
Y-77465D01*
X-100356Y-76270D01*
X-101271Y-75356D01*
X-102465Y-74861D01*
D02*
G37*
G36*
X-58354Y-75750D02*
X-59647D01*
X-60841Y-76245D01*
X-61755Y-77159D01*
X-62250Y-78354D01*
Y-79646D01*
X-61755Y-80841D01*
X-60841Y-81755D01*
X-59647Y-82250D01*
X-58354D01*
X-57159Y-81755D01*
X-56245Y-80841D01*
X-55750Y-79646D01*
Y-78354D01*
X-56245Y-77159D01*
X-57159Y-76245D01*
X-58354Y-75750D01*
D02*
G37*
G36*
X89535Y-78861D02*
X88242D01*
X87048Y-79356D01*
X86133Y-80270D01*
X85639Y-81465D01*
Y-82758D01*
X86133Y-83952D01*
X87048Y-84867D01*
X88242Y-85361D01*
X89535D01*
X90730Y-84867D01*
X91644Y-83952D01*
X92139Y-82758D01*
Y-81465D01*
X91644Y-80270D01*
X90730Y-79356D01*
X89535Y-78861D01*
D02*
G37*
G36*
X-95576Y-81973D02*
X-96869D01*
X-98064Y-82467D01*
X-98978Y-83382D01*
X-99473Y-84576D01*
Y-85869D01*
X-98978Y-87064D01*
X-98064Y-87978D01*
X-96869Y-88473D01*
X-95576D01*
X-94382Y-87978D01*
X-93467Y-87064D01*
X-92973Y-85869D01*
Y-84576D01*
X-93467Y-83382D01*
X-94382Y-82467D01*
X-95576Y-81973D01*
D02*
G37*
G36*
X168261Y-82628D02*
X166968D01*
X165774Y-83123D01*
X164860Y-84038D01*
X164365Y-85232D01*
Y-86525D01*
X164860Y-87719D01*
X165774Y-88634D01*
X166968Y-89129D01*
X168261D01*
X169456Y-88634D01*
X170370Y-87719D01*
X170865Y-86525D01*
Y-85232D01*
X170370Y-84038D01*
X169456Y-83123D01*
X168261Y-82628D01*
D02*
G37*
G36*
X133146Y-82750D02*
X131854D01*
X130659Y-83245D01*
X129745Y-84159D01*
X129250Y-85354D01*
Y-86646D01*
X129745Y-87841D01*
X130659Y-88755D01*
X131854Y-89250D01*
X133146D01*
X134341Y-88755D01*
X135255Y-87841D01*
X135750Y-86646D01*
Y-85354D01*
X135255Y-84159D01*
X134341Y-83245D01*
X133146Y-82750D01*
D02*
G37*
G36*
X158704Y-82808D02*
X157411D01*
X156216Y-83302D01*
X155302Y-84216D01*
X154807Y-85411D01*
Y-86704D01*
X155302Y-87898D01*
X156216Y-88813D01*
X157411Y-89307D01*
X158704D01*
X159898Y-88813D01*
X160813Y-87898D01*
X161307Y-86704D01*
Y-85411D01*
X160813Y-84216D01*
X159898Y-83302D01*
X158704Y-82808D01*
D02*
G37*
G36*
X208345Y-81750D02*
X206655D01*
X205093Y-82397D01*
X203897Y-83593D01*
X203250Y-85155D01*
Y-86845D01*
X203897Y-88407D01*
X205093Y-89603D01*
X206655Y-90250D01*
X208345D01*
X209907Y-89603D01*
X211103Y-88407D01*
X211750Y-86845D01*
Y-85155D01*
X211103Y-83593D01*
X209907Y-82397D01*
X208345Y-81750D01*
D02*
G37*
G36*
X150704Y-85807D02*
X149411D01*
X148216Y-86302D01*
X147302Y-87217D01*
X146807Y-88411D01*
Y-89704D01*
X147302Y-90898D01*
X148216Y-91813D01*
X149411Y-92307D01*
X150704D01*
X151898Y-91813D01*
X152813Y-90898D01*
X153307Y-89704D01*
Y-88411D01*
X152813Y-87217D01*
X151898Y-86302D01*
X150704Y-85807D01*
D02*
G37*
G36*
X-88465Y-88862D02*
X-89758D01*
X-90952Y-89356D01*
X-91867Y-90271D01*
X-92361Y-91465D01*
Y-92758D01*
X-91867Y-93953D01*
X-90952Y-94867D01*
X-89758Y-95362D01*
X-88465D01*
X-87270Y-94867D01*
X-86356Y-93953D01*
X-85861Y-92758D01*
Y-91465D01*
X-86356Y-90271D01*
X-87270Y-89356D01*
X-88465Y-88862D01*
D02*
G37*
G36*
X-98354Y-95750D02*
X-99647D01*
X-100841Y-96245D01*
X-101755Y-97159D01*
X-102250Y-98354D01*
Y-99647D01*
X-101755Y-100841D01*
X-100841Y-101755D01*
X-99647Y-102250D01*
X-98354D01*
X-97159Y-101755D01*
X-96245Y-100841D01*
X-95750Y-99647D01*
Y-98354D01*
X-96245Y-97159D01*
X-97159Y-96245D01*
X-98354Y-95750D01*
D02*
G37*
G36*
X-81465Y-95862D02*
X-82758D01*
X-83952Y-96356D01*
X-84867Y-97271D01*
X-85361Y-98465D01*
Y-99758D01*
X-84867Y-100953D01*
X-83952Y-101867D01*
X-82758Y-102362D01*
X-81465D01*
X-80270Y-101867D01*
X-79356Y-100953D01*
X-78861Y-99758D01*
Y-98465D01*
X-79356Y-97271D01*
X-80270Y-96356D01*
X-81465Y-95862D01*
D02*
G37*
G36*
X-98354Y-105750D02*
X-99647D01*
X-100841Y-106245D01*
X-101755Y-107159D01*
X-102250Y-108354D01*
Y-109647D01*
X-101755Y-110841D01*
X-100841Y-111755D01*
X-99647Y-112250D01*
X-98354D01*
X-97159Y-111755D01*
X-96245Y-110841D01*
X-95750Y-109647D01*
Y-108354D01*
X-96245Y-107159D01*
X-97159Y-106245D01*
X-98354Y-105750D01*
D02*
G37*
G36*
X-29155Y-99750D02*
X-30845D01*
X-32407Y-100397D01*
X-33603Y-101592D01*
X-34250Y-103154D01*
Y-104845D01*
X-33603Y-106407D01*
X-32407Y-107603D01*
X-30845Y-108250D01*
X-29250D01*
Y-109845D01*
X-28603Y-111407D01*
X-27407Y-112603D01*
X-25845Y-113250D01*
X-24155D01*
X-22592Y-112603D01*
X-21397Y-111407D01*
X-20750Y-109845D01*
Y-108154D01*
X-21397Y-106592D01*
X-22592Y-105397D01*
X-24155Y-104750D01*
X-25750D01*
Y-103154D01*
X-26397Y-101592D01*
X-27592Y-100397D01*
X-29155Y-99750D01*
D02*
G37*
G36*
X57535Y-110527D02*
X56242D01*
X55048Y-111021D01*
X54607Y-111462D01*
X35223D01*
X34338Y-111638D01*
X33587Y-112140D01*
X10041Y-135686D01*
X-28318D01*
X-28759Y-135245D01*
X-29953Y-134750D01*
X-31246D01*
X-32441Y-135245D01*
X-33355Y-136159D01*
X-33850Y-137354D01*
Y-137977D01*
X-34977Y-139104D01*
X-35714Y-138816D01*
X-36150Y-138481D01*
Y-137354D01*
X-36645Y-136159D01*
X-37559Y-135245D01*
X-38753Y-134750D01*
X-40046D01*
X-41241Y-135245D01*
X-42155Y-136159D01*
X-42650Y-137354D01*
Y-138647D01*
X-42155Y-139841D01*
X-41241Y-140755D01*
X-40046Y-141250D01*
X-38919D01*
X-38584Y-141686D01*
X-38296Y-142424D01*
X-39558Y-143686D01*
X-81041D01*
X-95750Y-128977D01*
Y-128354D01*
X-96245Y-127159D01*
X-97159Y-126245D01*
X-98354Y-125750D01*
X-99647D01*
X-100841Y-126245D01*
X-101755Y-127159D01*
X-102250Y-128354D01*
Y-129647D01*
X-101755Y-130841D01*
X-100841Y-131755D01*
X-99647Y-132250D01*
X-99023D01*
X-83637Y-147637D01*
X-82886Y-148138D01*
X-82000Y-148315D01*
X-38600D01*
X-37714Y-148138D01*
X-36963Y-147637D01*
X-30577Y-141250D01*
X-29953D01*
X-28759Y-140755D01*
X-28318Y-140315D01*
X11000D01*
X11885Y-140139D01*
X12636Y-139637D01*
X36182Y-116091D01*
X54607D01*
X55048Y-116532D01*
X56242Y-117027D01*
X57535D01*
X58730Y-116532D01*
X59644Y-115618D01*
X60139Y-114423D01*
Y-113130D01*
X59644Y-111936D01*
X58730Y-111021D01*
X57535Y-110527D01*
D02*
G37*
G36*
X70712Y-111684D02*
X69419D01*
X68225Y-112179D01*
X67311Y-113093D01*
X66816Y-114288D01*
Y-115581D01*
X67311Y-116775D01*
X68225Y-117689D01*
X69419Y-118184D01*
X70712D01*
X71907Y-117689D01*
X72821Y-116775D01*
X73316Y-115581D01*
Y-114288D01*
X72821Y-113093D01*
X71907Y-112179D01*
X70712Y-111684D01*
D02*
G37*
G36*
X-66242Y-111861D02*
X-67535D01*
X-68730Y-112356D01*
X-69644Y-113271D01*
X-70139Y-114465D01*
Y-115758D01*
X-69644Y-116952D01*
X-68730Y-117867D01*
X-67535Y-118362D01*
X-66242D01*
X-65048Y-117867D01*
X-64134Y-116952D01*
X-63639Y-115758D01*
Y-114465D01*
X-64134Y-113271D01*
X-65048Y-112356D01*
X-66242Y-111861D01*
D02*
G37*
G36*
X-98354Y-115750D02*
X-99647D01*
X-100841Y-116245D01*
X-101755Y-117159D01*
X-102250Y-118354D01*
Y-119646D01*
X-101755Y-120841D01*
X-100841Y-121755D01*
X-99647Y-122250D01*
X-98354D01*
X-97159Y-121755D01*
X-96245Y-120841D01*
X-95750Y-119646D01*
Y-118354D01*
X-96245Y-117159D01*
X-97159Y-116245D01*
X-98354Y-115750D01*
D02*
G37*
G36*
X-56465Y-120862D02*
X-57758D01*
X-58952Y-121356D01*
X-59866Y-122271D01*
X-60361Y-123465D01*
Y-124758D01*
X-59866Y-125953D01*
X-58952Y-126867D01*
X-57758Y-127361D01*
X-56465D01*
X-55270Y-126867D01*
X-54356Y-125953D01*
X-53861Y-124758D01*
Y-123465D01*
X-54356Y-122271D01*
X-55270Y-121356D01*
X-56465Y-120862D01*
D02*
G37*
G36*
X21845Y-140750D02*
X20155D01*
X18593Y-141397D01*
X17397Y-142593D01*
X16750Y-144155D01*
Y-145845D01*
X17397Y-147407D01*
X18593Y-148603D01*
X20155Y-149250D01*
X21845D01*
X23407Y-148603D01*
X24603Y-147407D01*
X25250Y-145845D01*
Y-144155D01*
X24603Y-142593D01*
X23407Y-141397D01*
X21845Y-140750D01*
D02*
G37*
G36*
X-14465Y-142861D02*
X-15758D01*
X-16952Y-143356D01*
X-17866Y-144270D01*
X-18361Y-145465D01*
Y-146758D01*
X-17866Y-147952D01*
X-16952Y-148866D01*
X-15758Y-149361D01*
X-14465D01*
X-13270Y-148866D01*
X-12356Y-147952D01*
X-11861Y-146758D01*
Y-145465D01*
X-12356Y-144270D01*
X-13270Y-143356D01*
X-14465Y-142861D01*
D02*
G37*
%LPD*%
D12*
X144500Y83400D02*
X154100D01*
X144500Y83500D02*
Y93000D01*
Y83500D02*
X144600Y83400D01*
X133000D02*
X144500D01*
X204344Y83400D02*
X246143Y41600D01*
X154100Y83400D02*
X204344D01*
X246143Y41600D02*
X252000D01*
X26600Y83400D02*
X76000D01*
X76414Y83814D02*
Y97181D01*
X76000Y83400D02*
X76414Y83814D01*
X-2311Y133000D02*
X40777D01*
X-45400D02*
X-2311D01*
Y112311D02*
X26600Y83400D01*
X-2311Y112311D02*
Y133000D01*
X-92948Y91948D02*
Y103052D01*
Y79052D02*
Y91948D01*
X-80948D01*
X-75600Y114000D02*
X-67600Y122000D01*
X-92948Y103052D02*
X-82000Y114000D01*
X-75600D01*
X-67600Y122000D02*
X-56400D01*
X-56400Y122000D01*
X-67600Y122000D02*
X-67600Y122000D01*
X-56400Y122000D02*
X-45400Y133000D01*
X40777D02*
X47889Y125889D01*
X85000Y-46600D02*
X106000Y-67600D01*
X-38600Y-146000D02*
X-30600Y-138000D01*
X-99000Y-129000D02*
X-82000Y-146000D01*
X-38600D01*
X116000Y-64000D02*
X134000D01*
X141750Y-56250D02*
Y-48000D01*
X134000Y-64000D02*
X141750Y-56250D01*
X109600Y-64000D02*
X116000D01*
X104000Y-67000D02*
X105000D01*
X95000Y-76000D02*
X104000Y-67000D01*
X105625Y-67975D02*
X106000Y-67600D01*
X115625Y-63625D02*
X116000Y-64000D01*
X115625Y-63625D02*
Y-53375D01*
X106000Y-67600D02*
X109600Y-64000D01*
X-128000Y44000D02*
X-92948Y79052D01*
X85000Y-46600D02*
Y1000D01*
X133000Y49000D01*
Y83400D01*
X76000D02*
X133000D01*
X54889Y118798D02*
Y118889D01*
X76414Y97181D02*
Y97272D01*
X47889Y125889D02*
X54889Y118889D01*
X47889Y125889D02*
Y125889D01*
X54889Y118889D02*
Y118889D01*
X115625Y-53375D02*
X116000Y-53000D01*
X35223Y-113777D02*
X56889D01*
X11000Y-138000D02*
X35223Y-113777D01*
X-30600Y-138000D02*
X11000D01*
X-64500Y-94500D02*
X-62000Y-97000D01*
X-71500Y-87500D02*
X-64500Y-94500D01*
X-46000Y-76000D01*
X66400D01*
X81000Y-90600D01*
X-73111Y-108889D02*
X-66111Y-101889D01*
X-62000Y-97000D02*
X-50889Y-108111D01*
X-62000Y-97430D02*
Y-97000D01*
X-66111Y-101889D02*
Y-101541D01*
X-62000Y-97430D01*
X-78500Y-80500D02*
X-71500Y-87500D01*
X-75889Y-92889D02*
X-71500Y-88500D01*
Y-87500D01*
X-85500Y-73500D02*
X-78500Y-80500D01*
X-82780Y-85598D02*
X-78500Y-81318D01*
Y-80500D01*
X-82780Y-85609D02*
Y-85598D01*
X-92000Y-67000D02*
X-85500Y-73500D01*
Y-74500D02*
Y-73500D01*
X-90000Y-79000D02*
X-85500Y-74500D01*
X-98500Y-60500D02*
X-92000Y-67000D01*
X-96889Y-71889D02*
X-92000Y-67000D01*
X-92000D01*
X-106500Y-52500D02*
X-98500Y-60500D01*
X-99500D02*
X-98500D01*
X-103889Y-64889D02*
X-99500Y-60500D01*
X-113500Y-45500D02*
X-106500Y-52500D01*
Y-53500D02*
Y-52500D01*
X-110889Y-57889D02*
X-106500Y-53500D01*
X-120000Y-39000D02*
X-113500Y-45500D01*
Y-46500D02*
Y-45500D01*
X-117889Y-50889D02*
X-113500Y-46500D01*
X-130000Y-29000D02*
X-120000Y-39000D01*
X-124889Y-43889D02*
X-120000Y-39000D01*
Y-39000D01*
X-135000Y37000D02*
X-135000D01*
X-130000Y32000D01*
X-73889Y88111D01*
Y98889D01*
X-130000Y-29000D02*
Y32000D01*
X-50889Y-117889D02*
Y-108111D01*
Y-118419D02*
Y-117889D01*
X-50111Y-131111D02*
Y-119197D01*
X-50889Y-118419D02*
X-50111Y-119197D01*
D15*
X41000Y109000D02*
X146000D01*
X173204Y136205D01*
X34000Y102000D02*
X41000Y109000D01*
X122192Y-50134D02*
Y-42000D01*
X-47233Y-88651D02*
X-44626Y-91259D01*
X-47667Y-88651D02*
X-47233D01*
X122192Y-50134D02*
X130058Y-58000D01*
X219105Y-33437D02*
X222143Y-36475D01*
X217758Y-33437D02*
X219105D01*
X216805Y-34389D02*
X217758Y-33437D01*
X216805Y-40930D02*
Y-34389D01*
X215853Y-41883D02*
X216805Y-40930D01*
X213948Y-41883D02*
X215853D01*
X212995Y-40930D02*
X213948Y-41883D01*
X212995Y-40930D02*
Y-31415D01*
X212043Y-30463D02*
X212995Y-31415D01*
X210138Y-30463D02*
X212043D01*
X209185Y-31415D02*
X210138Y-30463D01*
X209185Y-46433D02*
Y-31415D01*
X208233Y-47385D02*
X209185Y-46433D01*
X206328Y-47385D02*
X208233D01*
X205375Y-46433D02*
X206328Y-47385D01*
X205375Y-46433D02*
Y-31701D01*
X204423Y-30748D02*
X205375Y-31701D01*
X202518Y-30748D02*
X204423D01*
X201565Y-31701D02*
X202518Y-30748D01*
X201565Y-46433D02*
Y-31701D01*
X200613Y-47385D02*
X201565Y-46433D01*
X198708Y-47385D02*
X200613D01*
X197755Y-46433D02*
X198708Y-47385D01*
X197755Y-46433D02*
Y-31701D01*
X196803Y-30748D02*
X197755Y-31701D01*
X194898Y-30748D02*
X196803D01*
X193945Y-31701D02*
X194898Y-30748D01*
X193945Y-46433D02*
Y-31701D01*
X192993Y-47385D02*
X193945Y-46433D01*
X191088Y-47385D02*
X192993D01*
X190135Y-46433D02*
X191088Y-47385D01*
X190135Y-46433D02*
Y-31701D01*
X189183Y-30748D02*
X190135Y-31701D01*
X187278Y-30748D02*
X189183D01*
X186325Y-31701D02*
X187278Y-30748D01*
X186325Y-46433D02*
Y-31701D01*
X185373Y-47385D02*
X186325Y-46433D01*
X183468Y-47385D02*
X185373D01*
X182515Y-46433D02*
X183468Y-47385D01*
X182515Y-46433D02*
Y-32952D01*
X181563Y-32000D02*
X182515Y-32952D01*
X178000Y-32000D02*
X181563D01*
X177118Y-32882D02*
X178000Y-32000D01*
X222143Y-36475D02*
X222500Y-36832D01*
X174000Y-36000D02*
X177118Y-32882D01*
X222500Y-62000D02*
Y-36832D01*
X179000Y-54000D02*
X203000D01*
X174000Y-49000D02*
Y-36000D01*
Y-49000D02*
X179000Y-54000D01*
X217020Y-20000D02*
X220000D01*
X216068Y-20952D02*
X217020Y-20000D01*
X216068Y-24209D02*
Y-20952D01*
X215115Y-25161D02*
X216068Y-24209D01*
X213210Y-25161D02*
X215115D01*
X212258Y-24209D02*
X213210Y-25161D01*
X212258Y-24209D02*
Y-2892D01*
X211305Y-1940D02*
X212258Y-2892D01*
X209400Y-1940D02*
X211305D01*
X208448Y-2892D02*
X209400Y-1940D01*
X208448Y-26533D02*
Y-2892D01*
X207495Y-27485D02*
X208448Y-26533D01*
X205590Y-27485D02*
X207495D01*
X204638Y-26533D02*
X205590Y-27485D01*
X204638Y-26533D02*
Y-2892D01*
X203685Y-1940D02*
X204638Y-2892D01*
X201780Y-1940D02*
X203685D01*
X200828Y-2892D02*
X201780Y-1940D01*
X200828Y-26533D02*
Y-2892D01*
X199875Y-27485D02*
X200828Y-26533D01*
X197970Y-27485D02*
X199875D01*
X197018Y-26533D02*
X197970Y-27485D01*
X197018Y-26533D02*
Y-2892D01*
X196065Y-1940D02*
X197018Y-2892D01*
X194160Y-1940D02*
X196065D01*
X193208Y-2892D02*
X194160Y-1940D01*
X193208Y-26533D02*
Y-2892D01*
X192255Y-27485D02*
X193208Y-26533D01*
X190350Y-27485D02*
X192255D01*
X189398Y-26533D02*
X190350Y-27485D01*
X189398Y-26533D02*
Y-8989D01*
X188445Y-8037D02*
X189398Y-8989D01*
X186540Y-8037D02*
X188445D01*
X185588Y-8989D02*
X186540Y-8037D01*
X185588Y-19047D02*
Y-8989D01*
X184635Y-20000D02*
X185588Y-19047D01*
X184000Y-20000D02*
X184635D01*
X220000D02*
X223000D01*
X181000D02*
X184000D01*
X248500Y-28000D02*
X282500Y-62000D01*
X231000Y-28000D02*
X248500D01*
X223000Y-20000D02*
X231000Y-28000D01*
X166230Y-34770D02*
X181000Y-20000D01*
X135000Y-34770D02*
X166230D01*
X133590Y-100000D02*
X139000D01*
X132638Y-99047D02*
X133590Y-100000D01*
X132638Y-99047D02*
Y-94981D01*
X131685Y-94029D02*
X132638Y-94981D01*
X129780Y-94029D02*
X131685D01*
X128828Y-94981D02*
X129780Y-94029D01*
X128828Y-100735D02*
Y-94981D01*
X127875Y-101687D02*
X128828Y-100735D01*
X125970Y-101687D02*
X127875D01*
X125018Y-100735D02*
X125970Y-101687D01*
X125018Y-100735D02*
Y-93507D01*
X124065Y-92555D02*
X125018Y-93507D01*
X122160Y-92555D02*
X124065D01*
X121208Y-93507D02*
X122160Y-92555D01*
X121208Y-100735D02*
Y-93507D01*
X120255Y-101687D02*
X121208Y-100735D01*
X118350Y-101687D02*
X120255D01*
X117398Y-100735D02*
X118350Y-101687D01*
X117398Y-100735D02*
Y-93507D01*
X116445Y-92555D02*
X117398Y-93507D01*
X114540Y-92555D02*
X116445D01*
X113588Y-93507D02*
X114540Y-92555D01*
X113588Y-99047D02*
Y-93507D01*
X112635Y-100000D02*
X113588Y-99047D01*
X112000Y-100000D02*
X112635D01*
X139000D02*
X212000D01*
X73000D02*
X112000D01*
X137400Y-106000D02*
X143000D01*
X136448Y-106952D02*
X137400Y-106000D01*
X136448Y-109416D02*
Y-106952D01*
X135495Y-110369D02*
X136448Y-109416D01*
X133590Y-110369D02*
X135495D01*
X132638Y-109416D02*
X133590Y-110369D01*
X132638Y-109416D02*
Y-105768D01*
X131685Y-104815D02*
X132638Y-105768D01*
X129780Y-104815D02*
X131685D01*
X128828Y-105768D02*
X129780Y-104815D01*
X128828Y-113432D02*
Y-105768D01*
X127875Y-114384D02*
X128828Y-113432D01*
X125970Y-114384D02*
X127875D01*
X125018Y-113432D02*
X125970Y-114384D01*
X125018Y-113432D02*
Y-105768D01*
X124065Y-104815D02*
X125018Y-105768D01*
X122160Y-104815D02*
X124065D01*
X121208Y-105768D02*
X122160Y-104815D01*
X121208Y-113432D02*
Y-105768D01*
X120255Y-114384D02*
X121208Y-113432D01*
X118350Y-114384D02*
X120255D01*
X117398Y-113432D02*
X118350Y-114384D01*
X117398Y-113432D02*
Y-106952D01*
X116445Y-106000D02*
X117398Y-106952D01*
X112000Y-106000D02*
X116445D01*
X143000D02*
X214000D01*
X70375D02*
X112000D01*
X109260Y-133000D02*
X165000D01*
X108308Y-133953D02*
X109260Y-133000D01*
X108308Y-134840D02*
Y-133953D01*
X107355Y-135792D02*
X108308Y-134840D01*
X105450Y-135792D02*
X107355D01*
X104498Y-134840D02*
X105450Y-135792D01*
X104498Y-134840D02*
Y-132305D01*
X103545Y-131353D02*
X104498Y-132305D01*
X101640Y-131353D02*
X103545D01*
X100688Y-132305D02*
X101640Y-131353D01*
X100688Y-138502D02*
Y-132305D01*
X99735Y-139454D02*
X100688Y-138502D01*
X97830Y-139454D02*
X99735D01*
X96878Y-138502D02*
X97830Y-139454D01*
X96878Y-138502D02*
Y-132305D01*
X95925Y-131353D02*
X96878Y-132305D01*
X94020Y-131353D02*
X95925D01*
X93068Y-132305D02*
X94020Y-131353D01*
X93068Y-138502D02*
Y-132305D01*
X92115Y-139454D02*
X93068Y-138502D01*
X90210Y-139454D02*
X92115D01*
X89258Y-138502D02*
X90210Y-139454D01*
X89258Y-138502D02*
Y-132305D01*
X88305Y-131353D02*
X89258Y-132305D01*
X86400Y-131353D02*
X88305D01*
X85448Y-132305D02*
X86400Y-131353D01*
X85448Y-138502D02*
Y-132305D01*
X84495Y-139454D02*
X85448Y-138502D01*
X82590Y-139454D02*
X84495D01*
X81638Y-138502D02*
X82590Y-139454D01*
X81638Y-138502D02*
Y-132305D01*
X80685Y-131353D02*
X81638Y-132305D01*
X78780Y-131353D02*
X80685D01*
X77828Y-132305D02*
X78780Y-131353D01*
X77828Y-138502D02*
Y-132305D01*
X76875Y-139454D02*
X77828Y-138502D01*
X74970Y-139454D02*
X76875D01*
X74018Y-138502D02*
X74970Y-139454D01*
X74018Y-138502D02*
Y-132305D01*
X73065Y-131353D02*
X74018Y-132305D01*
X71160Y-131353D02*
X73065D01*
X70208Y-132305D02*
X71160Y-131353D01*
X70208Y-138502D02*
Y-132305D01*
X69255Y-139454D02*
X70208Y-138502D01*
X67350Y-139454D02*
X69255D01*
X66398Y-138502D02*
X67350Y-139454D01*
X66398Y-138502D02*
Y-133953D01*
X65445Y-133000D02*
X66398Y-133953D01*
X61000Y-133000D02*
X65445D01*
X165000D02*
X222000D01*
X44449D02*
X61000D01*
X38225Y-126775D02*
X44449Y-133000D01*
X163500Y65000D02*
Y66374D01*
Y-16500D02*
Y65000D01*
X144500Y47500D02*
Y65000D01*
X129000Y32000D02*
X144500Y47500D01*
X129000Y-7000D02*
Y32000D01*
X120000Y-16000D02*
X129000Y-7000D01*
X154046Y-25954D02*
X163500Y-16500D01*
X141000Y-31000D02*
X158000D01*
X138000Y-28000D02*
X141000Y-31000D01*
X121000Y-28000D02*
X138000D01*
X108000Y-41000D02*
X121000Y-28000D01*
X158000Y-31000D02*
X212000Y23000D01*
X249000D02*
X263000Y9000D01*
X212000Y23000D02*
X249000D01*
X95000Y-41000D02*
X108000D01*
X59000Y-86000D02*
X73000Y-100000D01*
X-41000Y-86000D02*
X59000D01*
X237500Y-82500D02*
Y-66340D01*
X214000Y-106000D02*
X237500Y-82500D01*
X55634Y-91259D02*
X70375Y-106000D01*
X-44626Y-91259D02*
X55634D01*
X212000Y-100000D02*
X232500Y-79500D01*
Y-62000D01*
X222000Y-133000D02*
X272500Y-82500D01*
Y-62000D01*
D73*
X39000Y154000D02*
D03*
X112000Y135000D02*
D03*
X172000Y135000D02*
D03*
X152000Y135000D02*
D03*
X132000Y135000D02*
D03*
X54111Y132111D02*
D03*
X34000Y102000D02*
D03*
X-59000Y-79000D02*
D03*
X43240Y120342D02*
D03*
X65964Y97921D02*
D03*
X70606Y90405D02*
D03*
X-49000Y122000D02*
D03*
X-37721Y124410D02*
D03*
X11035Y127000D02*
D03*
X20000Y118995D02*
D03*
X-33000Y141000D02*
D03*
X120057Y-87057D02*
D03*
X158057Y-86057D02*
D03*
X150057Y-89057D02*
D03*
X54889Y118889D02*
D03*
X47889Y125889D02*
D03*
X61111Y125111D02*
D03*
X-56000Y133000D02*
D03*
X-73000D02*
D03*
X-76400Y122000D02*
D03*
X-67600D02*
D03*
X-56400Y122000D02*
D03*
X-5000Y140000D02*
D03*
X-137000Y82000D02*
D03*
X-151000Y114000D02*
D03*
X287250Y58000D02*
D03*
X-133000Y133000D02*
D03*
X-153000D02*
D03*
X304000Y63000D02*
D03*
Y57000D02*
D03*
X211000Y61600D02*
D03*
X191000Y69500D02*
D03*
X211000Y50400D02*
D03*
Y41600D02*
D03*
X232000Y70000D02*
D03*
X252000Y50400D02*
D03*
Y41600D02*
D03*
X252000Y61600D02*
D03*
X145000Y-18000D02*
D03*
X122192Y-42000D02*
D03*
X117342Y47565D02*
D03*
X113325Y52675D02*
D03*
X-47667Y-88651D02*
D03*
X78000Y57000D02*
D03*
X-30000Y-104000D02*
D03*
X-25000Y-109000D02*
D03*
X27000Y109000D02*
D03*
X-35000Y100210D02*
D03*
X-99000Y-109000D02*
D03*
Y-99000D02*
D03*
Y-119000D02*
D03*
Y-129000D02*
D03*
X203000Y-54000D02*
D03*
X167615Y-85878D02*
D03*
X38225Y-126775D02*
D03*
X33628Y-131372D02*
D03*
X145000Y15000D02*
D03*
X84000Y53000D02*
D03*
X135000Y-34770D02*
D03*
X151020Y70896D02*
D03*
X144500Y65000D02*
D03*
X163500D02*
D03*
X154046Y-25954D02*
D03*
X120000Y-16000D02*
D03*
X95000Y-41000D02*
D03*
X70066Y-114934D02*
D03*
X132500Y-86000D02*
D03*
X88889Y-82111D02*
D03*
X106000Y-76400D02*
D03*
X147000Y-25000D02*
D03*
X139000Y-11000D02*
D03*
Y10000D02*
D03*
X108621Y57161D02*
D03*
X-41000Y-86000D02*
D03*
X44814Y-124723D02*
D03*
X130058Y-58000D02*
D03*
X141750Y-48000D02*
D03*
X102000Y-34000D02*
D03*
X116000Y-53000D02*
D03*
X106000Y-67600D02*
D03*
X95000Y-76000D02*
D03*
X56889Y-113777D02*
D03*
X63111Y-107889D02*
D03*
X211000Y-64000D02*
D03*
X204000D02*
D03*
X207500Y-86000D02*
D03*
X21000Y-145000D02*
D03*
X240000Y2400D02*
D03*
X220000Y1500D02*
D03*
X240000Y-17600D02*
D03*
X246600Y13000D02*
D03*
X239499Y-5900D02*
D03*
X255000Y-5500D02*
D03*
X285000Y8000D02*
D03*
X263000Y9000D02*
D03*
X313000Y-72000D02*
D03*
X308000Y-66000D02*
D03*
X157500Y-66340D02*
D03*
X152500Y-62000D02*
D03*
X147500Y-66340D02*
D03*
X94000Y71000D02*
D03*
X177500Y-66340D02*
D03*
X187500D02*
D03*
X192500Y-62000D02*
D03*
X217500Y-66340D02*
D03*
X227500D02*
D03*
X222500Y-62000D02*
D03*
X237500Y-66340D02*
D03*
X232500Y-62000D02*
D03*
X247500Y-66340D02*
D03*
X242500Y-62000D02*
D03*
X252500D02*
D03*
X272500D02*
D03*
X282500D02*
D03*
X287500Y-66340D02*
D03*
X33000Y0D02*
D03*
X-35000D02*
D03*
X0Y36000D02*
D03*
X11000Y-12000D02*
D03*
X-9000Y11000D02*
D03*
X11000Y10000D02*
D03*
X-12000Y-12000D02*
D03*
X0Y-35000D02*
D03*
Y0D02*
D03*
X81000Y-56000D02*
D03*
X81000Y-90600D02*
D03*
X-15111Y-146111D02*
D03*
X-39400Y-138000D02*
D03*
X-50111Y-131111D02*
D03*
X-57111Y-124111D02*
D03*
X-73111Y-108889D02*
D03*
X-59889Y-108111D02*
D03*
X-66889Y-115112D02*
D03*
X-82111Y-99112D02*
D03*
X-89111Y-92112D02*
D03*
X-96223Y-85223D02*
D03*
X-103112Y-78111D02*
D03*
X-110112Y-71111D02*
D03*
X-117112Y-64111D02*
D03*
X-124111Y-57111D02*
D03*
X-131111Y-50111D02*
D03*
X-143223Y-39223D02*
D03*
X-150111Y-32111D02*
D03*
X-141223Y43223D02*
D03*
X-134223Y50223D02*
D03*
X-87111Y98111D02*
D03*
X-80111Y105111D02*
D03*
X101111Y90111D02*
D03*
X94111Y97112D02*
D03*
X76414Y97181D02*
D03*
X73586Y118819D02*
D03*
X-73889Y98889D02*
D03*
X-80889Y91889D02*
D03*
X-128000Y44000D02*
D03*
X-135000Y37000D02*
D03*
X-137000Y-33000D02*
D03*
X-143889Y-25889D02*
D03*
X-124889Y-43889D02*
D03*
X-117889Y-50889D02*
D03*
X-103889Y-64889D02*
D03*
X-110889Y-57889D02*
D03*
X-96889Y-71889D02*
D03*
X-90000Y-79000D02*
D03*
X-82780Y-85609D02*
D03*
X-75889Y-92889D02*
D03*
X-66111Y-101889D02*
D03*
X-50889Y-117889D02*
D03*
X-30600Y-138000D02*
D03*
X-43889Y-124888D02*
D03*
X133000Y83400D02*
D03*
X144500Y93000D02*
D03*
X124600Y94000D02*
D03*
M02*
