M48
;Layer_Color=9474304
;FILE_FORMAT=2:4
INCH,LZ
;TYPE=PLATED
T01F00S00C0.0079
%
T01
X012323Y-002835
X012126Y-002598
X011319Y-002612
X011122Y-002441
X010728
X009941
X009744Y-002612
X009547Y-002441
X00935Y-002612
X009154Y-002441
X008957Y-002612
X00876Y-002441
X008563Y-002612
X008307Y-00252
X008031
X007992Y-002126
X007579Y-002441
X007382Y-002612
X006988
X006201Y-002612
X006004Y-002441
X005807Y-002612
X005581Y-00189
X005315Y-001369
X004811Y-001654
X004567Y-002087
X00512Y-002283
X005217Y-003386
X004727Y-003427
X004173Y-003008
Y-002661
X00374Y-002992
X0035Y-003233
X003189Y-003567
X003189Y-002205
X00374Y-001614
X004016Y-001339
X004724Y-00063
X005472Y-000433
X005709Y-000709
X005787Y-000984
X006065Y-001022
X005472Y000394
X008661Y000059
X009449Y000094
X009429Y-000232
X009449Y-000693
X010039Y-000217
X010354Y000354
X01122Y000315
X008169Y-003386
X006599Y-003381
X006223Y-003388
X005908Y-003506
X002485Y-004248
X00224Y-004479
X002758Y-004525
X001764Y-00491
X001505Y-004991
X001324Y-005172
X000827Y-005709
X-000595Y-005752
X-001205Y-005433
X-001551
X-001973Y-005162
X-001728Y-004917
X-002248Y-004886
X-002003Y-004641
X-002358Y-004256
X-002603Y-004011
X-002878Y-004287
X-002633Y-004532
X-003233Y-003902
X-002988Y-003657
X-003259Y-00337
X-002323Y-00311
X-001877Y-00349
X-001614Y-003386
X-001181Y-004094
X-000984Y-004291
X0Y-001378
X000433Y-000472
Y000394
X-000354Y000433
X0Y0
X-000472Y-000472
X-001378Y0
X001299
X-004917Y-001728
X-005162Y-001973
X-004886Y-002248
X-004641Y-002003
X-004366Y-002279
X-004611Y-002524
X-004335Y-0028
X-00409Y-002555
X-00406Y-003075
X-003815Y-00283
X-003788Y-003355
X-003543Y-00311
X-003508Y-003626
X-003898Y-003898
Y-004291
Y-004685
Y-005079
X-005639Y-001544
X-005394Y-001299
X-00591Y-001264
X-005665Y-001019
X-005315Y001457
X-00556Y001702
X-005284Y001977
X-005039Y001732
X-005394Y003228
X-005945Y004488
X-006024Y005236
X-005236
X-00343Y003863
X-003185Y003618
X-003154Y004138
X-002909Y003893
X-003008Y004803
X-002661
X-00222Y004803
X-001929Y004803
X-001485Y004898
X-001299Y005551
X-000197Y005512
X000434Y005
X000787Y004685
X001063Y004291
X001339Y004016
X001702Y004738
X001885Y004956
X00213Y005201
X002161Y004681
X002406Y004926
X002897Y004678
X003008Y003826
X002597Y003855
X00278Y003559
X003705Y003823
X003981Y003548
X003701Y002795
X003307Y002087
X003071Y002244
X004276Y00225
X004462Y002074
X00462Y001873
X005689Y002559
X005946Y002791
X006437Y002559
X00752Y002736
X008307Y002425
Y001984
Y001638
X009921Y001638
Y001984
X009921Y002425
X009134Y002756
X011309Y002283
X011968Y002244
Y00248
X009709Y000512
X005709Y000591
X005689Y003661
X004906Y003701
X005236Y003283
X005197Y005315
X005984Y005315
X006772Y005315
X004409Y005315
X001535Y006063
X-002205Y005236
X-002874
X-001378Y003945
X0Y001417
M30
