G04*
G04 #@! TF.GenerationSoftware,Altium Limited,Altium Designer,24.5.2 (23)*
G04*
G04 Layer_Color=65535*
%FSLAX44Y44*%
%MOMM*%
G71*
G04*
G04 #@! TF.SameCoordinates,69858205-0F2E-4D39-B2D1-A8915E6FFAA9*
G04*
G04*
G04 #@! TF.FilePolarity,Positive*
G04*
G01*
G75*
%ADD10C,0.2000*%
%ADD11C,0.2500*%
%ADD12C,0.2540*%
%ADD13C,0.1000*%
%ADD14C,0.1500*%
%ADD15C,0.1270*%
%ADD16C,0.1524*%
G36*
X138500Y74000D02*
Y79000D01*
X140000D01*
X143000Y76000D01*
Y74000D01*
X138500D01*
D02*
G37*
G36*
X206500Y61000D02*
Y56000D01*
X205000D01*
X202000Y59000D01*
Y61000D01*
X206500D01*
D02*
G37*
G36*
X235500Y-7000D02*
Y-12000D01*
X234000D01*
X231000Y-9000D01*
Y-7000D01*
X235500D01*
D02*
G37*
G36*
X247500Y61000D02*
Y56000D01*
X246000D01*
X243000Y59000D01*
Y61000D01*
X247500D01*
D02*
G37*
D10*
X202000Y60500D02*
G03*
X206500Y56000I4500J0D01*
G01*
X243000Y60500D02*
G03*
X247500Y56000I4500J0D01*
G01*
X231000Y-7500D02*
G03*
X235500Y-12000I4500J0D01*
G01*
X143000Y74500D02*
G03*
X138500Y79000I-4500J0D01*
G01*
X272000Y156000D02*
X316000D01*
X263000Y96000D02*
X274000D01*
X263000Y81000D02*
Y96000D01*
X254000Y81000D02*
X263000D01*
X254000D02*
Y120000D01*
X314000Y96000D02*
X325000D01*
Y81000D02*
Y96000D01*
Y81000D02*
X334000D01*
Y120000D01*
X202000Y60500D02*
Y61000D01*
X206500Y51000D02*
Y61000D01*
X175500Y51000D02*
Y61000D01*
X206500D01*
X175500Y51000D02*
X206500D01*
X216500Y51000D02*
X247500D01*
X216500Y61000D02*
X247500D01*
X216500Y51000D02*
Y61000D01*
X247500Y51000D02*
Y61000D01*
X243000Y60500D02*
Y61000D01*
X204500Y-17000D02*
X235500D01*
X204500Y-7000D02*
X235500D01*
X204500Y-17000D02*
Y-7000D01*
X235500Y-17000D02*
Y-7000D01*
X231000Y-7500D02*
Y-7000D01*
X-106870Y-154320D02*
Y-146700D01*
X-136080Y-154320D02*
X-106870D01*
X-156400Y-141620D02*
Y-96140D01*
X-136080Y-83680D02*
X-106870D01*
Y-91300D02*
Y-83680D01*
X308000Y-25000D02*
Y1000D01*
X262000Y-25000D02*
Y1000D01*
X308000D01*
X262000Y-25000D02*
X308000D01*
X53787Y109414D02*
X73586Y129213D01*
X53787Y109414D02*
X76414Y86786D01*
X94799Y105171D01*
Y108000D01*
X73586Y129213D02*
X94799Y108000D01*
X143000Y74000D02*
Y74500D01*
X138500Y74000D02*
Y84000D01*
X169500Y74000D02*
Y84000D01*
X138500Y74000D02*
X169500D01*
X138500Y84000D02*
X169500D01*
D11*
X210000Y69500D02*
G03*
X210000Y69500I-1250J0D01*
G01*
X251000D02*
G03*
X251000Y69500I-1250J0D01*
G01*
X-8417Y142058D02*
G03*
X-8417Y142058I-1200J0D01*
G01*
X239000Y1500D02*
G03*
X239000Y1500I-1250J0D01*
G01*
X309250Y8000D02*
G03*
X309250Y8000I-1250J0D01*
G01*
X137500Y65500D02*
G03*
X137500Y65500I-1250J0D01*
G01*
D12*
X108000Y-76000D02*
G03*
X108000Y-76000I-1000J0D01*
G01*
X323460Y73540D02*
X313303D01*
X264540Y73618D02*
X274697D01*
X269618Y78697D02*
Y68540D01*
D13*
X98127Y106586D02*
G03*
X98127Y106586I-500J0D01*
G01*
X171167Y134666D02*
X170334Y135499D01*
X168668D01*
X167835Y134666D01*
Y133833D01*
X168668Y133000D01*
X170334D01*
X171167Y132167D01*
Y131334D01*
X170334Y130501D01*
X168668D01*
X167835Y131334D01*
X176165Y134666D02*
X175332Y135499D01*
X173666D01*
X172833Y134666D01*
Y133833D01*
X173666Y133000D01*
X175332D01*
X176165Y132167D01*
Y131334D01*
X175332Y130501D01*
X173666D01*
X172833Y131334D01*
X148668Y134666D02*
X147835Y135499D01*
X146169D01*
X145336Y134666D01*
Y133833D01*
X146169Y133000D01*
X147835D01*
X148668Y132167D01*
Y131334D01*
X147835Y130501D01*
X146169D01*
X145336Y131334D01*
X150334Y135499D02*
Y130501D01*
X152833D01*
X153666Y131334D01*
Y134666D01*
X152833Y135499D01*
X150334D01*
X157831D02*
X156165D01*
X155332Y134666D01*
Y131334D01*
X156165Y130501D01*
X157831D01*
X158665Y131334D01*
Y134666D01*
X157831Y135499D01*
X129501Y134666D02*
X128668Y135499D01*
X127002D01*
X126169Y134666D01*
Y133833D01*
X127002Y133000D01*
X128668D01*
X129501Y132167D01*
Y131334D01*
X128668Y130501D01*
X127002D01*
X126169Y131334D01*
X131167Y135499D02*
Y130501D01*
X133666D01*
X134499Y131334D01*
Y134666D01*
X133666Y135499D01*
X131167D01*
X136165D02*
X137831D01*
X136998D01*
Y130501D01*
X136165D01*
X137831D01*
X108668Y134666D02*
X107835Y135499D01*
X106169D01*
X105336Y134666D01*
Y133833D01*
X106169Y133000D01*
X107835D01*
X108668Y132167D01*
Y131334D01*
X107835Y130501D01*
X106169D01*
X105336Y131334D01*
X113666Y134666D02*
X112833Y135499D01*
X111167D01*
X110334Y134666D01*
Y131334D01*
X111167Y130501D01*
X112833D01*
X113666Y131334D01*
X115332Y135499D02*
Y130501D01*
Y132167D01*
X118665Y135499D01*
X116165Y133000D01*
X118665Y130501D01*
X86335D02*
Y135499D01*
X88835D01*
X89668Y134666D01*
Y133000D01*
X88835Y132167D01*
X86335D01*
X88002D02*
X89668Y130501D01*
X91334Y135499D02*
Y130501D01*
X93833D01*
X94666Y131334D01*
Y132167D01*
X93833Y133000D01*
X91334D01*
X93833D01*
X94666Y133833D01*
Y134666D01*
X93833Y135499D01*
X91334D01*
X96332D02*
X99664D01*
Y134666D01*
X96332Y131334D01*
Y130501D01*
X-12332Y151666D02*
X-13165Y152499D01*
X-14831D01*
X-15664Y151666D01*
Y148334D01*
X-14831Y147501D01*
X-13165D01*
X-12332Y148334D01*
Y150000D01*
X-13998D01*
X-10666Y147501D02*
Y152499D01*
X-7334Y147501D01*
Y152499D01*
X-5668D02*
Y147501D01*
X-3169D01*
X-2335Y148334D01*
Y151666D01*
X-3169Y152499D01*
X-5668D01*
X38167Y140499D02*
X34835D01*
Y138000D01*
X36501Y138833D01*
X37334D01*
X38167Y138000D01*
Y136334D01*
X37334Y135501D01*
X35668D01*
X34835Y136334D01*
X39833Y140499D02*
Y137167D01*
X41499Y135501D01*
X43165Y137167D01*
Y140499D01*
X65335Y130501D02*
Y135499D01*
X67835D01*
X68668Y134666D01*
Y133000D01*
X67835Y132167D01*
X65335D01*
X67002D02*
X68668Y130501D01*
X70334Y135499D02*
Y130501D01*
X72833D01*
X73666Y131334D01*
Y132167D01*
X72833Y133000D01*
X70334D01*
X72833D01*
X73666Y133833D01*
Y134666D01*
X72833Y135499D01*
X70334D01*
X75332Y131334D02*
X76165Y130501D01*
X77831D01*
X78664Y131334D01*
Y134666D01*
X77831Y135499D01*
X76165D01*
X75332Y134666D01*
Y133833D01*
X76165Y133000D01*
X78664D01*
X-134833Y84499D02*
X-138165D01*
Y82000D01*
X-136499Y82833D01*
X-135666D01*
X-134833Y82000D01*
Y80334D01*
X-135666Y79501D01*
X-137332D01*
X-138165Y80334D01*
X-133167Y84499D02*
Y81167D01*
X-131501Y79501D01*
X-129835Y81167D01*
Y84499D01*
X-135332Y103666D02*
X-136165Y104499D01*
X-137831D01*
X-138665Y103666D01*
Y100334D01*
X-137831Y99501D01*
X-136165D01*
X-135332Y100334D01*
Y102000D01*
X-136998D01*
X-133666Y99501D02*
Y104499D01*
X-130334Y99501D01*
Y104499D01*
X-128668D02*
Y99501D01*
X-126169D01*
X-125336Y100334D01*
Y103666D01*
X-126169Y104499D01*
X-128668D01*
X-78770Y130195D02*
Y133528D01*
X-77104Y135194D01*
X-75438Y133528D01*
Y130195D01*
Y132695D01*
X-78770D01*
X-73772Y130195D02*
Y135194D01*
X-70440Y130195D01*
Y135194D01*
X-68773Y130195D02*
X-67107D01*
X-67941D01*
Y135194D01*
X-68773Y134361D01*
X-43664Y131501D02*
Y134833D01*
X-41998Y136499D01*
X-40332Y134833D01*
Y131501D01*
Y134000D01*
X-43664D01*
X-38666Y131501D02*
Y136499D01*
X-35334Y131501D01*
Y136499D01*
X-33668Y135666D02*
X-32835Y136499D01*
X-31169D01*
X-30336Y135666D01*
Y134833D01*
X-31169Y134000D01*
X-32002D01*
X-31169D01*
X-30336Y133167D01*
Y132334D01*
X-31169Y131501D01*
X-32835D01*
X-33668Y132334D01*
X-61665Y130501D02*
Y133833D01*
X-59998Y135499D01*
X-58332Y133833D01*
Y130501D01*
Y133000D01*
X-61665D01*
X-56666Y130501D02*
Y135499D01*
X-53334Y130501D01*
Y135499D01*
X-48335Y130501D02*
X-51668D01*
X-48335Y133833D01*
Y134666D01*
X-49169Y135499D01*
X-50835D01*
X-51668Y134666D01*
X-97104Y130195D02*
Y135194D01*
X-94605D01*
X-93772Y134361D01*
Y132695D01*
X-94605Y131861D01*
X-97104D01*
X-95438D02*
X-93772Y130195D01*
X-92106Y135194D02*
X-88773Y130195D01*
Y135194D02*
X-92106Y130195D01*
X-117104Y135194D02*
X-113772D01*
X-115438D01*
Y130195D01*
X-112106Y135194D02*
X-108773Y130195D01*
Y135194D02*
X-112106Y130195D01*
X-133772Y135194D02*
X-137104D01*
Y132695D01*
X-135438Y133528D01*
X-134605D01*
X-133772Y132695D01*
Y131028D01*
X-134605Y130195D01*
X-136271D01*
X-137104Y131028D01*
X-132106Y135194D02*
Y131861D01*
X-130440Y130195D01*
X-128773Y131861D01*
Y135194D01*
X-156271Y134361D02*
X-157104Y135194D01*
X-158770D01*
X-159603Y134361D01*
Y131028D01*
X-158770Y130195D01*
X-157104D01*
X-156271Y131028D01*
Y132695D01*
X-157937D01*
X-154605Y130195D02*
Y135194D01*
X-151273Y130195D01*
Y135194D01*
X-149607D02*
Y130195D01*
X-147107D01*
X-146274Y131028D01*
Y134361D01*
X-147107Y135194D01*
X-149607D01*
D14*
X60193Y133950D02*
X61607Y132535D01*
X47464Y118393D02*
X61607Y132535D01*
X46050Y119807D02*
X47464Y118393D01*
X40393Y125464D02*
X41808Y124050D01*
X40393Y125464D02*
X54536Y139607D01*
X55950Y138192D01*
X67192Y126950D02*
X68607Y125536D01*
X54465Y111394D02*
X68607Y125536D01*
X53050Y112808D02*
X54465Y111394D01*
X47393Y118465D02*
X48808Y117051D01*
X47393Y118465D02*
X61536Y132607D01*
X62950Y131193D01*
X-42000Y117000D02*
Y119000D01*
X-62000Y117000D02*
X-42000D01*
X-62000D02*
Y119000D01*
Y125000D02*
Y127000D01*
X-42000D01*
Y125000D02*
Y127000D01*
X308000Y62000D02*
Y65000D01*
X280000D02*
X308000D01*
X280000Y62000D02*
Y65000D01*
Y51000D02*
Y54000D01*
Y51000D02*
X308000D01*
Y54000D01*
X294000Y51000D02*
Y65000D01*
X206000Y56000D02*
X208000D01*
X206000Y36000D02*
Y56000D01*
Y36000D02*
X208000D01*
X214000D02*
X216000D01*
Y56000D01*
X214000D02*
X216000D01*
X214000Y56000D02*
X216000D01*
Y76000D01*
X214000D02*
X216000D01*
X206000D02*
X208000D01*
X206000Y56000D02*
Y76000D01*
Y56000D02*
X208000D01*
X255000Y56000D02*
X257000D01*
Y76000D01*
X255000D02*
X257000D01*
X247000D02*
X249000D01*
X247000Y56000D02*
Y76000D01*
Y56000D02*
X249000D01*
X255000D02*
X257000D01*
Y36000D02*
Y56000D01*
X255000Y36000D02*
X257000D01*
X247000D02*
X249000D01*
X247000D02*
Y56000D01*
X249000D01*
X309000Y-25000D02*
X315000D01*
X309000D02*
Y1000D01*
X315000D01*
X325000D02*
X331000D01*
Y-25000D02*
Y1000D01*
X325000Y-25000D02*
X331000D01*
X311000Y-12000D02*
X329000D01*
X241000Y16000D02*
Y18000D01*
X261000D01*
Y16000D02*
Y18000D01*
Y8000D02*
Y10000D01*
X241000Y8000D02*
X261000D01*
X241000D02*
Y10000D01*
X235000Y-12000D02*
X237000D01*
X235000Y-32000D02*
Y-12000D01*
Y-32000D02*
X237000D01*
X243000D02*
X245000D01*
Y-12000D01*
X243000D02*
X245000D01*
X243000Y-12000D02*
X245000D01*
Y8000D01*
X243000D02*
X245000D01*
X235000D02*
X237000D01*
X235000Y-12000D02*
Y8000D01*
Y-12000D02*
X237000D01*
X-2808Y-138050D02*
X-1393Y-139465D01*
X-15536Y-153607D02*
X-1393Y-139465D01*
X-16950Y-152193D02*
X-15536Y-153607D01*
X-22607Y-146536D02*
X-21192Y-147950D01*
X-22607Y-146536D02*
X-8464Y-132394D01*
X-7050Y-133808D01*
X-45000Y-135000D02*
Y-133000D01*
X-25000D01*
Y-135000D02*
Y-133000D01*
Y-143000D02*
Y-141000D01*
X-45000Y-143000D02*
X-25000D01*
X-45000D02*
Y-141000D01*
X-35000Y-142920D02*
X-35000Y-153080D01*
X-46430Y-142920D02*
X-46430Y-144190D01*
X-46430Y-142920D02*
X-23570Y-142920D01*
Y-144190D02*
Y-142920D01*
Y-153080D02*
Y-151810D01*
X-46430Y-153080D02*
X-23570D01*
X-46430D02*
Y-151810D01*
X-58950Y-130192D02*
X-57536Y-131607D01*
X-43393Y-117464D01*
X-44808Y-116050D02*
X-43393Y-117464D01*
X-50464Y-110393D02*
X-49050Y-111807D01*
X-64607Y-124535D02*
X-50464Y-110393D01*
X-64607Y-124535D02*
X-63192Y-125950D01*
X235000Y-42000D02*
Y-40000D01*
Y-42000D02*
X255000D01*
Y-40000D01*
Y-34000D02*
Y-32000D01*
X235000D02*
X255000D01*
X235000Y-34000D02*
Y-32000D01*
X248000Y-12000D02*
X262000D01*
X248000Y-24700D02*
X249920D01*
X248000D02*
Y700D01*
X249920D01*
X260080D02*
X262000D01*
Y-24700D02*
Y700D01*
X260080Y-24700D02*
X262000D01*
X87050Y-88192D02*
X88464Y-89607D01*
X102607Y-75464D01*
X101192Y-74050D02*
X102607Y-75464D01*
X95535Y-68393D02*
X96950Y-69808D01*
X81393Y-82535D02*
X95535Y-68393D01*
X81393Y-82535D02*
X82808Y-83950D01*
X147430Y-44190D02*
Y-42920D01*
X124570D02*
X147430D01*
X124570Y-44190D02*
Y-42920D01*
Y-53080D02*
Y-51810D01*
Y-53080D02*
X147430D01*
Y-51810D01*
X136000Y-53080D02*
Y-42920D01*
X147430Y-54190D02*
Y-52920D01*
X124570D02*
X147430D01*
X124570Y-54190D02*
Y-52920D01*
Y-63080D02*
Y-61810D01*
Y-63080D02*
X147430D01*
Y-61810D01*
X136000Y-63080D02*
Y-52920D01*
X-43464Y-117394D02*
X-42050Y-118808D01*
X-57607Y-131536D02*
X-43464Y-117394D01*
X-57607Y-131536D02*
X-56192Y-132950D01*
X-51950Y-137192D02*
X-50536Y-138607D01*
X-36393Y-124465D01*
X-37808Y-123050D02*
X-36393Y-124465D01*
X60612Y-129776D02*
X61510Y-130674D01*
X77674Y-114510D01*
X76776Y-113612D02*
X77674Y-114510D01*
X70490Y-107326D02*
X71388Y-108224D01*
X54326Y-123490D02*
X70490Y-107326D01*
X54326Y-123490D02*
X55224Y-124388D01*
X62408Y-115408D02*
X69592Y-122592D01*
X63536Y-100393D02*
X64950Y-101808D01*
X49393Y-114536D02*
X63536Y-100393D01*
X49393Y-114536D02*
X50808Y-115950D01*
X55050Y-120193D02*
X56465Y-121607D01*
X70607Y-107465D01*
X69193Y-106050D02*
X70607Y-107465D01*
X-83950Y-105192D02*
X-82535Y-106607D01*
X-68393Y-92464D01*
X-69808Y-91050D02*
X-68393Y-92464D01*
X-75464Y-85393D02*
X-74050Y-86807D01*
X-89607Y-99535D02*
X-75464Y-85393D01*
X-89607Y-99535D02*
X-88192Y-100950D01*
X-132950Y-56192D02*
X-131536Y-57607D01*
X-117393Y-43464D01*
X-118808Y-42050D02*
X-117393Y-43464D01*
X-124465Y-36393D02*
X-123050Y-37807D01*
X-138607Y-50535D02*
X-124465Y-36393D01*
X-138607Y-50535D02*
X-137193Y-51950D01*
X-151950Y-38193D02*
X-150535Y-39607D01*
X-136393Y-25465D01*
X-137808Y-24051D02*
X-136393Y-25465D01*
X-143464Y-18394D02*
X-142050Y-19808D01*
X-157607Y-32536D02*
X-143464Y-18394D01*
X-157607Y-32536D02*
X-156192Y-33950D01*
X-145061Y-45304D02*
X-143647Y-46718D01*
X-129505Y-32576D01*
X-130919Y-31162D02*
X-129505Y-32576D01*
X-136576Y-25505D02*
X-135162Y-26919D01*
X-150718Y-39647D02*
X-136576Y-25505D01*
X-150718Y-39647D02*
X-149304Y-41061D01*
X-60808Y-116950D02*
X-59394Y-115535D01*
X-73536Y-101393D02*
X-59394Y-115535D01*
X-74950Y-102808D02*
X-73536Y-101393D01*
X-80607Y-108464D02*
X-79192Y-107050D01*
X-80607Y-108464D02*
X-66465Y-122606D01*
X-65050Y-121192D01*
X-125950Y-63192D02*
X-124535Y-64607D01*
X-110393Y-50464D01*
X-111807Y-49050D02*
X-110393Y-50464D01*
X-117464Y-43393D02*
X-116050Y-44808D01*
X-131607Y-57536D02*
X-117464Y-43393D01*
X-131607Y-57536D02*
X-130192Y-58950D01*
X-118950Y-70192D02*
X-117535Y-71606D01*
X-103393Y-57464D01*
X-104808Y-56050D02*
X-103393Y-57464D01*
X-110464Y-50393D02*
X-109050Y-51808D01*
X-124607Y-64535D02*
X-110464Y-50393D01*
X-124607Y-64535D02*
X-123192Y-65950D01*
X-104950Y-84192D02*
X-103535Y-85606D01*
X-89393Y-71464D01*
X-90808Y-70050D02*
X-89393Y-71464D01*
X-96464Y-64393D02*
X-95050Y-65808D01*
X-110606Y-78535D02*
X-96464Y-64393D01*
X-110606Y-78535D02*
X-109192Y-79950D01*
X-111950Y-77192D02*
X-110535Y-78607D01*
X-96393Y-64464D01*
X-97808Y-63050D02*
X-96393Y-64464D01*
X-103464Y-57393D02*
X-102050Y-58808D01*
X-117606Y-71536D02*
X-103464Y-57393D01*
X-117606Y-71536D02*
X-116192Y-72950D01*
X-141718Y50647D02*
X-140304Y52061D01*
X-141718Y50647D02*
X-127576Y36505D01*
X-126162Y37919D01*
X-121919Y42161D02*
X-120505Y43576D01*
X-134647Y57718D02*
X-120505Y43576D01*
X-136061Y56304D02*
X-134647Y57718D01*
X-94607Y98536D02*
X-93192Y99950D01*
X-94607Y98536D02*
X-80464Y84393D01*
X-79050Y85808D01*
X-74807Y90050D02*
X-73393Y91464D01*
X-87536Y105607D02*
X-73393Y91464D01*
X-88950Y104193D02*
X-87536Y105607D01*
X-148718Y43646D02*
X-147304Y45061D01*
X-148718Y43646D02*
X-134576Y29504D01*
X-133162Y30919D01*
X-128919Y35161D02*
X-127505Y36575D01*
X-141647Y50718D02*
X-127505Y36575D01*
X-143061Y49303D02*
X-141647Y50718D01*
X-87607Y105536D02*
X-86193Y106950D01*
X-87607Y105536D02*
X-73464Y91393D01*
X-72050Y92807D01*
X-67808Y97050D02*
X-66393Y98464D01*
X-80536Y112607D02*
X-66393Y98464D01*
X-81950Y111192D02*
X-80536Y112607D01*
X-90950Y-98192D02*
X-89536Y-99607D01*
X-75393Y-85464D01*
X-76808Y-84050D02*
X-75393Y-85464D01*
X-82464Y-78393D02*
X-81050Y-79808D01*
X-96607Y-92535D02*
X-82464Y-78393D01*
X-96607Y-92535D02*
X-95192Y-93950D01*
X-53808Y-109950D02*
X-52393Y-108535D01*
X-66536Y-94393D02*
X-52393Y-108535D01*
X-67950Y-95808D02*
X-66536Y-94393D01*
X-73607Y-101464D02*
X-72193Y-100050D01*
X-73607Y-101464D02*
X-59465Y-115606D01*
X-58050Y-114192D01*
X107920Y90430D02*
X109190D01*
X107920Y67570D02*
Y90430D01*
Y67570D02*
X109190D01*
X116810D02*
X118080D01*
Y90430D01*
X116810D02*
X118080D01*
X107920Y79000D02*
X118080D01*
X117920Y90430D02*
X119190D01*
X117920Y67570D02*
Y90430D01*
Y67570D02*
X119190D01*
X126810D02*
X128080D01*
Y90430D01*
X126810D02*
X128080D01*
X117920Y79000D02*
X128080D01*
X84000Y-105000D02*
X86000D01*
Y-85000D01*
X84000D02*
X86000D01*
X76000D02*
X78000D01*
X76000Y-105000D02*
Y-85000D01*
Y-105000D02*
X78000D01*
X109000Y-82000D02*
X111000D01*
Y-62000D01*
X109000D02*
X111000D01*
X101000D02*
X103000D01*
X101000Y-82000D02*
Y-62000D01*
Y-82000D02*
X103000D01*
X119000Y97000D02*
Y99000D01*
X139000D01*
Y97000D02*
Y99000D01*
Y89000D02*
Y91000D01*
X119000Y89000D02*
X139000D01*
X119000D02*
Y91000D01*
X-82000Y117000D02*
Y119000D01*
Y117000D02*
X-62000D01*
Y119000D01*
Y125000D02*
Y127000D01*
X-82000D02*
X-62000D01*
X-82000Y125000D02*
Y127000D01*
X107192Y91950D02*
X108607Y90536D01*
X94464Y76393D02*
X108607Y90536D01*
X93050Y77807D02*
X94464Y76393D01*
X87393Y83464D02*
X88807Y82050D01*
X87393Y83464D02*
X101536Y97607D01*
X102950Y96193D01*
X-98061Y-91304D02*
X-96646Y-92718D01*
X-82504Y-78576D01*
X-83919Y-77162D02*
X-82504Y-78576D01*
X-89575Y-71505D02*
X-88161Y-72919D01*
X-103717Y-85647D02*
X-89575Y-71505D01*
X-103717Y-85647D02*
X-102303Y-87061D01*
X100192Y98949D02*
X101607Y97535D01*
X87465Y83393D02*
X101607Y97535D01*
X86050Y84808D02*
X87465Y83393D01*
X80393Y90464D02*
X81808Y89050D01*
X80393Y90464D02*
X94536Y104606D01*
X95950Y103192D01*
X136000Y69000D02*
X138000D01*
Y89000D01*
X136000D02*
X138000D01*
X128000D02*
X130000D01*
X128000Y69000D02*
Y89000D01*
Y69000D02*
X130000D01*
X110920Y-47570D02*
X112190D01*
X110920Y-70430D02*
Y-47570D01*
Y-70430D02*
X112190D01*
X119810D02*
X121080D01*
Y-47570D01*
X119810D02*
X121080D01*
X110920Y-59000D02*
X121080D01*
X-157500Y-67503D02*
X-154168D01*
X-155834D01*
Y-77500D01*
X-157500D01*
X-154168D01*
X-142505Y-69169D02*
X-144171Y-67503D01*
X-147503D01*
X-149169Y-69169D01*
Y-75834D01*
X-147503Y-77500D01*
X-144171D01*
X-142505Y-75834D01*
X-132508Y-69169D02*
X-134174Y-67503D01*
X-137507D01*
X-139173Y-69169D01*
Y-70835D01*
X-137507Y-72502D01*
X-134174D01*
X-132508Y-74168D01*
Y-75834D01*
X-134174Y-77500D01*
X-137507D01*
X-139173Y-75834D01*
X-129176Y-77500D02*
Y-67503D01*
X-124178D01*
X-122511Y-69169D01*
Y-72502D01*
X-124178Y-74168D01*
X-129176D01*
D15*
X134068Y-7354D02*
X141421Y-0D01*
X134067Y7354D02*
X141421Y-0D01*
X0Y-141422D02*
X7354Y-134068D01*
X-7354D02*
X0Y-141422D01*
X-141421Y-0D02*
X-134067Y7354D01*
X-141421Y-0D02*
X-134067Y-7355D01*
X-7354Y134067D02*
X-2828Y138593D01*
X2828D01*
X7354Y134067D01*
X305000Y-47250D02*
X317000D01*
X305000Y-25250D02*
X317000D01*
X305000Y-47250D02*
Y-25250D01*
X317000Y-47250D02*
Y-25250D01*
D16*
X90064Y-133500D02*
Y-116990D01*
X330856Y-133500D02*
Y-116990D01*
X90064Y-133500D02*
X330856D01*
M02*
