G04*
G04 #@! TF.GenerationSoftware,Altium Limited,Altium Designer,22.10.1 (41)*
G04*
G04 Layer_Color=32768*
%FSLAX25Y25*%
%MOIN*%
G70*
G04*
G04 #@! TF.SameCoordinates,8BF85E7B-6BD0-4BB0-81CB-12CC6FA11C7D*
G04*
G04*
G04 #@! TF.FilePolarity,Positive*
G04*
G01*
G75*
%ADD17C,0.00500*%
D17*
X-51181Y64961D02*
X-52164Y64925D01*
X-53142Y64820D01*
X-54110Y64646D01*
X-55063Y64403D01*
X-55997Y64092D01*
X-56905Y63715D01*
X-57785Y63275D01*
X-58631Y62773D01*
X-59439Y62212D01*
X-60205Y61595D01*
X-60925Y60925D01*
X-61595Y60205D01*
X-62212Y59439D01*
X-62773Y58631D01*
X-63275Y57785D01*
X-63715Y56905D01*
X-64092Y55997D01*
X-64403Y55063D01*
X-64646Y54110D01*
X-64820Y53142D01*
X-64925Y52164D01*
X-64961Y51181D01*
X64961D02*
X64925Y52164D01*
X64820Y53142D01*
X64646Y54110D01*
X64403Y55063D01*
X64092Y55997D01*
X63715Y56905D01*
X63275Y57785D01*
X62773Y58631D01*
X62212Y59439D01*
X61595Y60205D01*
X60925Y60925D01*
X60205Y61595D01*
X59439Y62212D01*
X58631Y62773D01*
X57785Y63275D01*
X56905Y63715D01*
X55997Y64092D01*
X55063Y64403D01*
X54110Y64646D01*
X53142Y64820D01*
X52164Y64925D01*
X51181Y64961D01*
Y-64961D02*
X52164Y-64925D01*
X53142Y-64820D01*
X54110Y-64646D01*
X55063Y-64403D01*
X55997Y-64092D01*
X56905Y-63715D01*
X57785Y-63275D01*
X58631Y-62773D01*
X59439Y-62212D01*
X60205Y-61595D01*
X60925Y-60925D01*
X61595Y-60205D01*
X62212Y-59439D01*
X62773Y-58631D01*
X63275Y-57785D01*
X63715Y-56905D01*
X64092Y-55997D01*
X64403Y-55063D01*
X64646Y-54110D01*
X64820Y-53142D01*
X64925Y-52164D01*
X64961Y-51181D01*
X-64961D02*
X-64925Y-52164D01*
X-64820Y-53142D01*
X-64646Y-54110D01*
X-64403Y-55063D01*
X-64092Y-55997D01*
X-63715Y-56905D01*
X-63275Y-57785D01*
X-62773Y-58631D01*
X-62212Y-59439D01*
X-61595Y-60205D01*
X-60925Y-60925D01*
X-60205Y-61595D01*
X-59439Y-62212D01*
X-58631Y-62773D01*
X-57785Y-63275D01*
X-56905Y-63715D01*
X-55997Y-64092D01*
X-55063Y-64403D01*
X-54110Y-64646D01*
X-53142Y-64820D01*
X-52164Y-64925D01*
X-51181Y-64961D01*
Y-64961D02*
X51181D01*
X-64961Y-51181D02*
Y51181D01*
X64961Y-51181D02*
Y51181D01*
X-51181Y64961D02*
X51181D01*
X-51181Y64961D02*
X-52164Y64925D01*
X-53142Y64820D01*
X-54110Y64646D01*
X-55063Y64403D01*
X-55997Y64092D01*
X-56905Y63715D01*
X-57785Y63275D01*
X-58631Y62773D01*
X-59439Y62212D01*
X-60205Y61595D01*
X-60925Y60925D01*
X-61595Y60205D01*
X-62212Y59439D01*
X-62773Y58631D01*
X-63275Y57785D01*
X-63715Y56905D01*
X-64092Y55997D01*
X-64403Y55063D01*
X-64646Y54110D01*
X-64820Y53142D01*
X-64925Y52164D01*
X-64961Y51181D01*
X64961D02*
X64925Y52164D01*
X64820Y53142D01*
X64646Y54110D01*
X64403Y55063D01*
X64092Y55997D01*
X63715Y56905D01*
X63275Y57785D01*
X62773Y58631D01*
X62212Y59439D01*
X61595Y60205D01*
X60925Y60925D01*
X60205Y61595D01*
X59439Y62212D01*
X58631Y62773D01*
X57785Y63275D01*
X56905Y63715D01*
X55997Y64092D01*
X55063Y64403D01*
X54110Y64646D01*
X53142Y64820D01*
X52164Y64925D01*
X51181Y64961D01*
Y-64961D02*
X52164Y-64925D01*
X53142Y-64820D01*
X54110Y-64646D01*
X55063Y-64403D01*
X55997Y-64092D01*
X56905Y-63715D01*
X57785Y-63275D01*
X58631Y-62773D01*
X59439Y-62212D01*
X60205Y-61595D01*
X60925Y-60925D01*
X61595Y-60205D01*
X62212Y-59439D01*
X62773Y-58631D01*
X63275Y-57785D01*
X63715Y-56905D01*
X64092Y-55997D01*
X64403Y-55063D01*
X64646Y-54110D01*
X64820Y-53142D01*
X64925Y-52164D01*
X64961Y-51181D01*
X-64961D02*
X-64925Y-52164D01*
X-64820Y-53142D01*
X-64646Y-54110D01*
X-64403Y-55063D01*
X-64092Y-55997D01*
X-63715Y-56905D01*
X-63275Y-57785D01*
X-62773Y-58631D01*
X-62212Y-59439D01*
X-61595Y-60205D01*
X-60925Y-60925D01*
X-60205Y-61595D01*
X-59439Y-62212D01*
X-58631Y-62773D01*
X-57785Y-63275D01*
X-56905Y-63715D01*
X-55997Y-64092D01*
X-55063Y-64403D01*
X-54110Y-64646D01*
X-53142Y-64820D01*
X-52164Y-64925D01*
X-51181Y-64961D01*
Y-64961D02*
X51181D01*
X-64961Y-51181D02*
Y51181D01*
X64961Y-51181D02*
Y51181D01*
X-51181Y64961D02*
X51181D01*
M02*
