G04*
G04 #@! TF.GenerationSoftware,Altium Limited,Altium Designer,22.10.1 (41)*
G04*
G04 Layer_Color=65535*
%FSLAX25Y25*%
%MOIN*%
G70*
G04*
G04 #@! TF.SameCoordinates,8BF85E7B-6BD0-4BB0-81CB-12CC6FA11C7D*
G04*
G04*
G04 #@! TF.FilePolarity,Positive*
G04*
G01*
G75*
%ADD10C,0.00984*%
%ADD11C,0.00787*%
%ADD12C,0.00394*%
%ADD13C,0.00433*%
%ADD14C,0.00551*%
%ADD15C,0.03150*%
%ADD16C,0.00669*%
%ADD17C,0.00500*%
%ADD18C,0.00591*%
%ADD19C,0.00394*%
G36*
X-33228Y1378D02*
X-35197D01*
Y1969D01*
X-34016Y3150D01*
X-33228D01*
Y1378D01*
D02*
G37*
D10*
X-2756Y-10827D02*
X-3494Y-10401D01*
Y-11253D01*
X-2756Y-10827D01*
X-29390Y492D02*
X-30128Y918D01*
Y66D01*
X-29390Y492D01*
D11*
X22244Y-40157D02*
X21457D01*
X22244D01*
X-33425Y3150D02*
X-34311Y2912D01*
X-34960Y2264D01*
X-35197Y1378D01*
X17913Y-13976D02*
X17126D01*
X17913D01*
X5512Y-1378D02*
Y1378D01*
X-5512Y-1378D02*
Y1378D01*
X44437Y-13110D02*
Y-10110D01*
X55937D01*
X63937Y-33016D02*
Y-15110D01*
X44437Y-37921D02*
X55937D01*
X44437D02*
Y-34921D01*
X-44437Y-35559D02*
Y-32559D01*
X-55937Y-35559D02*
X-44437D01*
X-63937Y-30559D02*
Y-16622D01*
X-55937Y-11685D02*
X-44437D01*
Y-14685D02*
Y-11685D01*
X-37165Y1378D02*
Y13583D01*
X-33228Y1378D02*
Y13583D01*
X-37165D02*
X-33228D01*
X-37165Y1378D02*
X-33228D01*
X-33425Y3150D02*
X-33228D01*
X-4035Y50702D02*
X-1673D01*
X-4035Y33465D02*
X-1673D01*
X-4035D02*
Y50702D01*
X3248Y33465D02*
X5610D01*
Y50702D01*
X3248D02*
X5610D01*
X24803Y17978D02*
X26115Y15354D01*
X27427Y17978D01*
X31363Y19290D02*
X28739D01*
Y17322D01*
X30051Y17978D01*
X30707D01*
X31363Y17322D01*
Y16010D01*
X30707Y15354D01*
X29395D01*
X28739Y16010D01*
X32675Y15354D02*
Y16010D01*
X33331D01*
Y15354D01*
X32675D01*
X35954D02*
X37266D01*
X36610D01*
Y19290D01*
X35954Y18634D01*
X51773Y19291D02*
X56299D01*
Y22309D01*
X51773Y26835D02*
Y23817D01*
X56299D01*
Y26835D01*
X54036Y23817D02*
Y25326D01*
X51773Y28343D02*
X56299D01*
Y30607D01*
X55545Y31361D01*
X52527D01*
X51773Y30607D01*
Y28343D01*
X-52167Y32283D02*
Y30775D01*
Y31529D01*
X-56693D01*
Y32283D01*
Y30775D01*
X-52921Y25494D02*
X-52167Y26249D01*
Y27757D01*
X-52921Y28512D01*
X-55939D01*
X-56693Y27757D01*
Y26249D01*
X-55939Y25494D01*
X-52921Y20968D02*
X-52167Y21723D01*
Y23231D01*
X-52921Y23986D01*
X-53676D01*
X-54430Y23231D01*
Y21723D01*
X-55184Y20968D01*
X-55939D01*
X-56693Y21723D01*
Y23231D01*
X-55939Y23986D01*
X-56693Y19459D02*
X-52167D01*
Y17197D01*
X-52921Y16442D01*
X-54430D01*
X-55184Y17197D01*
Y19459D01*
X-32283Y51575D02*
Y56101D01*
X-30020D01*
X-29266Y55347D01*
Y53838D01*
X-30020Y53083D01*
X-32283D01*
X-30775D02*
X-29266Y51575D01*
X-24740Y56101D02*
X-27757D01*
Y53838D01*
X-26249D01*
X-27757D01*
Y51575D01*
X-60236Y-3742D02*
X-58728D01*
X-59482D01*
Y-8268D01*
X-60236D01*
X-58728D01*
X-53447D02*
X-56464D01*
X-53447Y-5250D01*
Y-4496D01*
X-54201Y-3742D01*
X-55710D01*
X-56464Y-4496D01*
X-48921D02*
X-49675Y-3742D01*
X-51184D01*
X-51938Y-4496D01*
Y-7513D01*
X-51184Y-8268D01*
X-49675D01*
X-48921Y-7513D01*
X50655Y-3315D02*
X49901Y-2561D01*
X48392D01*
X47638Y-3315D01*
Y-4069D01*
X48392Y-4824D01*
X49901D01*
X50655Y-5578D01*
Y-6332D01*
X49901Y-7087D01*
X48392D01*
X47638Y-6332D01*
X52164Y-7087D02*
Y-2561D01*
X54427D01*
X55181Y-3315D01*
Y-4824D01*
X54427Y-5578D01*
X52164D01*
X56690Y-2561D02*
X58199D01*
X57444D01*
Y-7087D01*
X56690D01*
X58199D01*
X50655Y-22606D02*
X49901Y-21852D01*
X48392D01*
X47638Y-22606D01*
Y-25624D01*
X48392Y-26378D01*
X49901D01*
X50655Y-25624D01*
Y-24115D01*
X49147D01*
X52164Y-26378D02*
Y-21852D01*
X54427D01*
X55181Y-22606D01*
Y-24115D01*
X54427Y-24869D01*
X52164D01*
X59707Y-22606D02*
X58953Y-21852D01*
X57444D01*
X56690Y-22606D01*
Y-23361D01*
X57444Y-24115D01*
X58953D01*
X59707Y-24869D01*
Y-25624D01*
X58953Y-26378D01*
X57444D01*
X56690Y-25624D01*
X-36353Y27688D02*
X-39764D01*
Y25130D01*
X-38058D01*
X-39764D01*
Y22572D01*
X-34647D02*
X-32942D01*
X-33795D01*
Y27688D01*
X-34647D01*
X-30384Y22572D02*
X-28678D01*
X-29531D01*
Y25983D01*
X-30384D01*
X-24414Y20866D02*
X-23562D01*
X-22709Y21719D01*
Y25983D01*
X-25267D01*
X-26120Y25130D01*
Y23424D01*
X-25267Y22572D01*
X-22709D01*
X-21003Y27688D02*
Y22572D01*
Y25130D01*
X-20151Y25983D01*
X-18445D01*
X-17593Y25130D01*
Y22572D01*
X-15034Y26835D02*
Y25983D01*
X-15887D01*
X-14182D01*
X-15034D01*
Y23424D01*
X-14182Y22572D01*
X-3096Y26835D02*
X-3949Y27688D01*
X-5654D01*
X-6507Y26835D01*
Y23424D01*
X-5654Y22572D01*
X-3949D01*
X-3096Y23424D01*
X-538Y22572D02*
X1168D01*
X2021Y23424D01*
Y25130D01*
X1168Y25983D01*
X-538D01*
X-1390Y25130D01*
Y23424D01*
X-538Y22572D01*
X3726D02*
Y25983D01*
X6284D01*
X7137Y25130D01*
Y22572D01*
X9695Y26835D02*
Y25983D01*
X8843D01*
X10548D01*
X9695D01*
Y23424D01*
X10548Y22572D01*
X13106Y25983D02*
Y22572D01*
Y24277D01*
X13959Y25130D01*
X14812Y25983D01*
X15664D01*
X19075Y22572D02*
X20781D01*
X21634Y23424D01*
Y25130D01*
X20781Y25983D01*
X19075D01*
X18223Y25130D01*
Y23424D01*
X19075Y22572D01*
X23339D02*
X25045D01*
X24192D01*
Y27688D01*
X23339D01*
X27603Y22572D02*
X29308D01*
X28456D01*
Y27688D01*
X27603D01*
X34425Y22572D02*
X32719D01*
X31867Y23424D01*
Y25130D01*
X32719Y25983D01*
X34425D01*
X35278Y25130D01*
Y24277D01*
X31867D01*
X36983Y25983D02*
Y22572D01*
Y24277D01*
X37836Y25130D01*
X38689Y25983D01*
X39541D01*
D12*
X-23819Y-59449D02*
D03*
D13*
X17146Y38976D02*
D03*
D14*
X-18032Y-27608D02*
X-18583D01*
X-18032D01*
D15*
X56693Y-51181D02*
X56604Y-50197D01*
X56341Y-49244D01*
X55913Y-48354D01*
X55332Y-47555D01*
X54618Y-46872D01*
X53793Y-46327D01*
X52884Y-45939D01*
X51921Y-45719D01*
X50934Y-45675D01*
X49955Y-45807D01*
X49015Y-46113D01*
X48145Y-46581D01*
X47372Y-47197D01*
X46722Y-47941D01*
X46215Y-48790D01*
X45868Y-49715D01*
X45691Y-50687D01*
Y-51675D01*
X45868Y-52648D01*
X46215Y-53573D01*
X46722Y-54421D01*
X47372Y-55165D01*
X48145Y-55781D01*
X49015Y-56249D01*
X49955Y-56555D01*
X50934Y-56687D01*
X51921Y-56643D01*
X52884Y-56423D01*
X53793Y-56035D01*
X54618Y-55490D01*
X55332Y-54808D01*
X55913Y-54008D01*
X56341Y-53118D01*
X56604Y-52165D01*
X56693Y-51181D01*
X-45669D02*
X-45758Y-50197D01*
X-46021Y-49244D01*
X-46450Y-48354D01*
X-47030Y-47555D01*
X-47745Y-46872D01*
X-48569Y-46327D01*
X-49478Y-45939D01*
X-50441Y-45719D01*
X-51428Y-45675D01*
X-52408Y-45807D01*
X-53347Y-46113D01*
X-54217Y-46581D01*
X-54990Y-47197D01*
X-55640Y-47941D01*
X-56147Y-48790D01*
X-56494Y-49715D01*
X-56671Y-50687D01*
Y-51675D01*
X-56494Y-52648D01*
X-56147Y-53573D01*
X-55640Y-54421D01*
X-54990Y-55165D01*
X-54217Y-55781D01*
X-53347Y-56249D01*
X-52408Y-56555D01*
X-51428Y-56687D01*
X-50441Y-56643D01*
X-49478Y-56423D01*
X-48569Y-56035D01*
X-47745Y-55490D01*
X-47030Y-54808D01*
X-46450Y-54008D01*
X-46021Y-53118D01*
X-45758Y-52165D01*
X-45669Y-51181D01*
X56693Y51181D02*
X56604Y52165D01*
X56341Y53118D01*
X55913Y54008D01*
X55332Y54808D01*
X54618Y55490D01*
X53793Y56035D01*
X52884Y56423D01*
X51921Y56643D01*
X50934Y56687D01*
X49955Y56555D01*
X49015Y56249D01*
X48145Y55781D01*
X47372Y55165D01*
X46722Y54421D01*
X46215Y53573D01*
X45868Y52647D01*
X45691Y51675D01*
Y50687D01*
X45868Y49715D01*
X46215Y48790D01*
X46722Y47941D01*
X47372Y47197D01*
X48145Y46581D01*
X49015Y46113D01*
X49955Y45807D01*
X50934Y45675D01*
X51921Y45719D01*
X52884Y45939D01*
X53793Y46327D01*
X54618Y46872D01*
X55332Y47555D01*
X55913Y48354D01*
X56341Y49244D01*
X56604Y50197D01*
X56693Y51181D01*
X-45669D02*
X-45758Y52165D01*
X-46021Y53118D01*
X-46450Y54008D01*
X-47030Y54808D01*
X-47745Y55490D01*
X-48569Y56035D01*
X-49478Y56423D01*
X-50441Y56643D01*
X-51428Y56687D01*
X-52408Y56555D01*
X-53347Y56249D01*
X-54217Y55781D01*
X-54990Y55165D01*
X-55640Y54421D01*
X-56147Y53573D01*
X-56494Y52647D01*
X-56671Y51675D01*
Y50687D01*
X-56494Y49715D01*
X-56147Y48790D01*
X-55640Y47941D01*
X-54990Y47197D01*
X-54217Y46581D01*
X-53347Y46113D01*
X-52408Y45807D01*
X-51428Y45675D01*
X-50441Y45719D01*
X-49478Y45939D01*
X-48569Y46327D01*
X-47745Y46872D01*
X-47030Y47555D01*
X-46450Y48354D01*
X-46021Y49244D01*
X-45758Y50197D01*
X-45669Y51181D01*
D16*
X44505Y36704D02*
X63915D01*
Y12850D02*
Y36704D01*
X44505Y12850D02*
X63915D01*
X44505D02*
Y36704D01*
X-44452Y10863D02*
Y38678D01*
X-63943Y10863D02*
X-44452D01*
X-63943D02*
Y38678D01*
X-44452D01*
X-40945Y63587D02*
X-17202D01*
Y44094D02*
Y63587D01*
X-40945Y44094D02*
X-17202D01*
X-40945D02*
Y63587D01*
D17*
X12598Y-51988D02*
Y-45079D01*
X41732Y-51988D02*
Y-45079D01*
X12598D02*
X13307D01*
X41024D02*
X41732D01*
X12598Y-62008D02*
Y-60945D01*
X41732Y-62008D02*
Y-60945D01*
X12598Y-62008D02*
X41732D01*
X17474Y-17913D02*
X18504D01*
Y-18943D02*
Y-17913D01*
X2756Y-18943D02*
Y-17913D01*
X3785D01*
X2756Y-33661D02*
X3785D01*
X2756D02*
Y-32632D01*
X18504Y-33661D02*
Y-32632D01*
X17474Y-33661D02*
X18504D01*
X-24409Y-36614D02*
Y-36447D01*
Y-28907D02*
Y-28740D01*
Y-36614D02*
X-23258D01*
X-17687D02*
X-16535D01*
Y-36447D01*
Y-28907D02*
Y-28740D01*
X-24409D02*
X-23258D01*
X-17687D02*
X-16535D01*
X-51181Y64961D02*
X-52164Y64925D01*
X-53142Y64820D01*
X-54110Y64646D01*
X-55063Y64403D01*
X-55997Y64092D01*
X-56905Y63715D01*
X-57785Y63275D01*
X-58631Y62773D01*
X-59439Y62212D01*
X-60205Y61595D01*
X-60925Y60925D01*
X-61595Y60205D01*
X-62212Y59439D01*
X-62773Y58631D01*
X-63275Y57785D01*
X-63715Y56905D01*
X-64092Y55997D01*
X-64403Y55063D01*
X-64646Y54110D01*
X-64820Y53142D01*
X-64925Y52164D01*
X-64961Y51181D01*
X64961D02*
X64925Y52164D01*
X64820Y53142D01*
X64646Y54110D01*
X64403Y55063D01*
X64092Y55997D01*
X63715Y56905D01*
X63275Y57785D01*
X62773Y58631D01*
X62212Y59439D01*
X61595Y60205D01*
X60925Y60925D01*
X60205Y61595D01*
X59439Y62212D01*
X58631Y62773D01*
X57785Y63275D01*
X56905Y63715D01*
X55997Y64092D01*
X55063Y64403D01*
X54110Y64646D01*
X53142Y64820D01*
X52164Y64925D01*
X51181Y64961D01*
Y-64961D02*
X52164Y-64925D01*
X53142Y-64820D01*
X54110Y-64646D01*
X55063Y-64403D01*
X55997Y-64092D01*
X56905Y-63715D01*
X57785Y-63275D01*
X58631Y-62773D01*
X59439Y-62212D01*
X60205Y-61595D01*
X60925Y-60925D01*
X61595Y-60205D01*
X62212Y-59439D01*
X62773Y-58631D01*
X63275Y-57785D01*
X63715Y-56905D01*
X64092Y-55997D01*
X64403Y-55063D01*
X64646Y-54110D01*
X64820Y-53142D01*
X64925Y-52164D01*
X64961Y-51181D01*
X-64961D02*
X-64925Y-52164D01*
X-64820Y-53142D01*
X-64646Y-54110D01*
X-64403Y-55063D01*
X-64092Y-55997D01*
X-63715Y-56905D01*
X-63275Y-57785D01*
X-62773Y-58631D01*
X-62212Y-59439D01*
X-61595Y-60205D01*
X-60925Y-60925D01*
X-60205Y-61595D01*
X-59439Y-62212D01*
X-58631Y-62773D01*
X-57785Y-63275D01*
X-56905Y-63715D01*
X-55997Y-64092D01*
X-55063Y-64403D01*
X-54110Y-64646D01*
X-53142Y-64820D01*
X-52164Y-64925D01*
X-51181Y-64961D01*
Y-64961D02*
X51181D01*
X-64961Y-51181D02*
Y51181D01*
X64961Y-51181D02*
Y51181D01*
X-51181Y64961D02*
X51181D01*
D18*
X-33622Y-3150D02*
Y-2362D01*
Y-3150D02*
X-25748D01*
Y-2362D01*
Y0D02*
Y787D01*
X-33622D02*
X-25748D01*
X-33622Y0D02*
Y787D01*
Y-7874D02*
Y-7087D01*
Y-7874D02*
X-25748D01*
Y-7087D01*
Y-4724D02*
Y-3937D01*
X-33622D02*
X-25748D01*
X-33622Y-4724D02*
Y-3937D01*
Y0D02*
Y787D01*
X-41496D02*
X-33622D01*
X-41496Y0D02*
Y787D01*
Y-3150D02*
Y-2362D01*
Y-3150D02*
X-33622D01*
Y-2362D01*
Y-4724D02*
Y-3937D01*
X-41496D02*
X-33622D01*
X-41496Y-4724D02*
Y-3937D01*
Y-7874D02*
Y-7087D01*
Y-7874D02*
X-33622D01*
Y-7087D01*
X-27354Y11980D02*
X-26854D01*
X-27354Y2980D02*
Y11980D01*
Y2980D02*
X-26854D01*
X-23854D02*
X-23354D01*
Y11980D01*
X-23854D02*
X-23354D01*
X-27354Y7480D02*
X-23354D01*
X11024Y57087D02*
X18110D01*
X11024Y63779D02*
X12598D01*
X11024Y50394D02*
Y63779D01*
Y50394D02*
X12598D01*
X16535D02*
X18110D01*
Y63779D01*
X16535D02*
X18110D01*
X-22835Y-48819D02*
X-22047D01*
X-22835Y-56693D02*
Y-48819D01*
Y-56693D02*
X-22047D01*
X-19685D02*
X-18898D01*
Y-48819D01*
X-19685D02*
X-18898D01*
X-31496Y-49606D02*
Y-48819D01*
Y-49606D02*
X-23622D01*
Y-48819D01*
Y-46457D02*
Y-45669D01*
X-31496D02*
X-23622D01*
X-31496Y-46457D02*
Y-45669D01*
X-33071Y-61024D02*
X-32283D01*
Y-53150D01*
X-33071D02*
X-32283D01*
X-36220D02*
X-35433D01*
X-36220Y-61024D02*
Y-53150D01*
Y-61024D02*
X-35433D01*
X18472Y51646D02*
X18972D01*
X18472Y42646D02*
Y51646D01*
Y42646D02*
X18972D01*
X21972D02*
X22472D01*
Y51646D01*
X21972D02*
X22472D01*
X18472Y47146D02*
X22472D01*
X18110Y62598D02*
X19291D01*
X18110Y51575D02*
Y62598D01*
Y51575D02*
X19291D01*
X22441D02*
X23622D01*
Y62598D01*
X22441D02*
X23622D01*
X18110Y57087D02*
X23622D01*
X27953Y44488D02*
X35039D01*
X33465Y37795D02*
X35039D01*
Y51181D01*
X33465D02*
X35039D01*
X27953D02*
X29528D01*
X27953Y37795D02*
Y51181D01*
Y37795D02*
X29528D01*
X22441Y49213D02*
X23622D01*
X22441Y38189D02*
Y49213D01*
Y38189D02*
X23622D01*
X26772D02*
X27953D01*
Y49213D01*
X26772D02*
X27953D01*
X22441Y43701D02*
X27953D01*
X6299Y35433D02*
Y36220D01*
Y35433D02*
X14173D01*
Y36220D01*
Y38583D02*
Y39370D01*
X6299D02*
X14173D01*
X6299Y38583D02*
Y39370D01*
X20866Y-32480D02*
X26378D01*
X25197Y-26969D02*
X26378D01*
Y-37992D02*
Y-26969D01*
X25197Y-37992D02*
X26378D01*
X20866D02*
X22047D01*
X20866D02*
Y-26969D01*
X22047D01*
X-1181Y-25000D02*
X-394D01*
Y-32874D02*
Y-25000D01*
X-1181Y-32874D02*
X-394D01*
X-4331D02*
X-3543D01*
X-4331D02*
Y-25000D01*
X-3543D01*
X-0Y-39567D02*
Y-34055D01*
X-5512Y-35236D02*
Y-34055D01*
X5512D01*
Y-35236D02*
Y-34055D01*
Y-39567D02*
Y-38386D01*
X-5512Y-39567D02*
X5512D01*
X-5512D02*
Y-38386D01*
X7087Y-36417D02*
Y-35630D01*
X14961D01*
Y-36417D02*
Y-35630D01*
Y-39567D02*
Y-38780D01*
X7087Y-39567D02*
X14961D01*
X7087D02*
Y-38780D01*
X-15354Y-36614D02*
X-14567D01*
X-15354D02*
Y-28740D01*
X-14567D01*
X-12205D02*
X-11417D01*
Y-36614D02*
Y-28740D01*
X-12205Y-36614D02*
X-11417D01*
X-11811Y-28346D02*
Y-27559D01*
X-19685Y-28346D02*
X-11811D01*
X-19685D02*
Y-27559D01*
Y-25197D02*
Y-24409D01*
X-11811D01*
Y-25197D02*
Y-24409D01*
D19*
X-25591Y-50787D02*
X-23622D01*
X-31496D02*
X-29528D01*
X-25591Y-58661D02*
X-23622D01*
X-31496D02*
X-29528D01*
M02*
