G04*
G04 #@! TF.GenerationSoftware,Altium Limited,Altium Designer,22.10.1 (41)*
G04*
G04 Layer_Color=16711935*
%FSLAX25Y25*%
%MOIN*%
G70*
G04*
G04 #@! TF.SameCoordinates,8BF85E7B-6BD0-4BB0-81CB-12CC6FA11C7D*
G04*
G04*
G04 #@! TF.FilePolarity,Negative*
G04*
G01*
G75*
%ADD17C,0.00500*%
%ADD21R,0.06902X0.03162*%
%ADD22R,0.07887X0.05524*%
%ADD25R,0.03162X0.03320*%
%ADD26R,0.03162X0.03753*%
%ADD28R,0.06312X0.05918*%
%ADD31R,0.03320X0.03162*%
%ADD38R,0.04343X0.04737*%
%ADD41O,0.05918X0.03359*%
%ADD42O,0.03851X0.06902*%
%ADD43C,0.04737*%
%ADD44C,0.06800*%
%ADD90R,0.04540X0.04147*%
%ADD91R,0.04147X0.04540*%
G04:AMPARAMS|DCode=92|XSize=18.24mil|YSize=41.86mil|CornerRadius=0mil|HoleSize=0mil|Usage=FLASHONLY|Rotation=315.000|XOffset=0mil|YOffset=0mil|HoleType=Round|Shape=Rectangle|*
%AMROTATEDRECTD92*
4,1,4,-0.02125,-0.00835,0.00835,0.02125,0.02125,0.00835,-0.00835,-0.02125,-0.02125,-0.00835,0.0*
%
%ADD92ROTATEDRECTD92*%

%ADD93R,0.03162X0.06902*%
%ADD94R,0.05524X0.07887*%
G04:AMPARAMS|DCode=95|XSize=39.5mil|YSize=43.43mil|CornerRadius=0mil|HoleSize=0mil|Usage=FLASHONLY|Rotation=135.000|XOffset=0mil|YOffset=0mil|HoleType=Round|Shape=Rectangle|*
%AMROTATEDRECTD95*
4,1,4,0.02932,0.00139,-0.00139,-0.02932,-0.02932,-0.00139,0.00139,0.02932,0.02932,0.00139,0.0*
%
%ADD95ROTATEDRECTD95*%

%ADD96R,0.03162X0.04737*%
%ADD97R,0.04343X0.03950*%
G04:AMPARAMS|DCode=98|XSize=33.2mil|YSize=31.62mil|CornerRadius=0mil|HoleSize=0mil|Usage=FLASHONLY|Rotation=135.000|XOffset=0mil|YOffset=0mil|HoleType=Round|Shape=Rectangle|*
%AMROTATEDRECTD98*
4,1,4,0.02292,-0.00056,0.00056,-0.02292,-0.02292,0.00056,-0.00056,0.02292,0.02292,-0.00056,0.0*
%
%ADD98ROTATEDRECTD98*%

%ADD99P,0.34538X4X360.0*%
G04:AMPARAMS|DCode=100|XSize=41.86mil|YSize=18.24mil|CornerRadius=0mil|HoleSize=0mil|Usage=FLASHONLY|Rotation=315.000|XOffset=0mil|YOffset=0mil|HoleType=Round|Shape=Rectangle|*
%AMROTATEDRECTD100*
4,1,4,-0.02125,0.00835,-0.00835,0.02125,0.02125,-0.00835,0.00835,-0.02125,-0.02125,0.00835,0.0*
%
%ADD100ROTATEDRECTD100*%

%ADD101R,0.03753X0.03162*%
G04:AMPARAMS|DCode=102|XSize=33.2mil|YSize=31.62mil|CornerRadius=0mil|HoleSize=0mil|Usage=FLASHONLY|Rotation=45.000|XOffset=0mil|YOffset=0mil|HoleType=Round|Shape=Rectangle|*
%AMROTATEDRECTD102*
4,1,4,-0.00056,-0.02292,-0.02292,-0.00056,0.00056,0.02292,0.02292,0.00056,-0.00056,-0.02292,0.0*
%
%ADD102ROTATEDRECTD102*%

%ADD103R,0.03950X0.04343*%
%ADD104R,0.02965X0.04737*%
G04:AMPARAMS|DCode=105|XSize=31.62mil|YSize=37.53mil|CornerRadius=0mil|HoleSize=0mil|Usage=FLASHONLY|Rotation=45.000|XOffset=0mil|YOffset=0mil|HoleType=Round|Shape=Rectangle|*
%AMROTATEDRECTD105*
4,1,4,0.00209,-0.02445,-0.02445,0.00209,-0.00209,0.02445,0.02445,-0.00209,0.00209,-0.02445,0.0*
%
%ADD105ROTATEDRECTD105*%

G04:AMPARAMS|DCode=106|XSize=31.62mil|YSize=37.53mil|CornerRadius=0mil|HoleSize=0mil|Usage=FLASHONLY|Rotation=315.000|XOffset=0mil|YOffset=0mil|HoleType=Round|Shape=Rectangle|*
%AMROTATEDRECTD106*
4,1,4,-0.02445,-0.00209,0.00209,0.02445,0.02445,0.00209,-0.00209,-0.02445,-0.02445,-0.00209,0.0*
%
%ADD106ROTATEDRECTD106*%

D17*
X-51181Y64961D02*
X-52164Y64925D01*
X-53142Y64820D01*
X-54110Y64646D01*
X-55063Y64403D01*
X-55997Y64092D01*
X-56905Y63715D01*
X-57785Y63275D01*
X-58631Y62773D01*
X-59439Y62212D01*
X-60205Y61595D01*
X-60925Y60925D01*
X-61595Y60205D01*
X-62212Y59439D01*
X-62773Y58631D01*
X-63275Y57785D01*
X-63715Y56905D01*
X-64092Y55997D01*
X-64403Y55063D01*
X-64646Y54110D01*
X-64820Y53142D01*
X-64925Y52164D01*
X-64961Y51181D01*
X64961D02*
X64925Y52164D01*
X64820Y53142D01*
X64646Y54110D01*
X64403Y55063D01*
X64092Y55997D01*
X63715Y56905D01*
X63275Y57785D01*
X62773Y58631D01*
X62212Y59439D01*
X61595Y60205D01*
X60925Y60925D01*
X60205Y61595D01*
X59439Y62212D01*
X58631Y62773D01*
X57785Y63275D01*
X56905Y63715D01*
X55997Y64092D01*
X55063Y64403D01*
X54110Y64646D01*
X53142Y64820D01*
X52164Y64925D01*
X51181Y64961D01*
Y-64961D02*
X52164Y-64925D01*
X53142Y-64820D01*
X54110Y-64646D01*
X55063Y-64403D01*
X55997Y-64092D01*
X56905Y-63715D01*
X57785Y-63275D01*
X58631Y-62773D01*
X59439Y-62212D01*
X60205Y-61595D01*
X60925Y-60925D01*
X61595Y-60205D01*
X62212Y-59439D01*
X62773Y-58631D01*
X63275Y-57785D01*
X63715Y-56905D01*
X64092Y-55997D01*
X64403Y-55063D01*
X64646Y-54110D01*
X64820Y-53142D01*
X64925Y-52164D01*
X64961Y-51181D01*
X-64961D02*
X-64925Y-52164D01*
X-64820Y-53142D01*
X-64646Y-54110D01*
X-64403Y-55063D01*
X-64092Y-55997D01*
X-63715Y-56905D01*
X-63275Y-57785D01*
X-62773Y-58631D01*
X-62212Y-59439D01*
X-61595Y-60205D01*
X-60925Y-60925D01*
X-60205Y-61595D01*
X-59439Y-62212D01*
X-58631Y-62773D01*
X-57785Y-63275D01*
X-56905Y-63715D01*
X-55997Y-64092D01*
X-55063Y-64403D01*
X-54110Y-64646D01*
X-53142Y-64820D01*
X-52164Y-64925D01*
X-51181Y-64961D01*
Y-64961D02*
X51181D01*
X-64961Y-51181D02*
Y51181D01*
X64961Y-51181D02*
Y51181D01*
X-51181Y64961D02*
X51181D01*
D21*
X45937Y-17717D02*
D03*
Y-29528D02*
D03*
Y-25591D02*
D03*
Y-21654D02*
D03*
X-45937Y16929D02*
D03*
Y24803D02*
D03*
Y28740D02*
D03*
Y32677D02*
D03*
Y20866D02*
D03*
X45937Y26772D02*
D03*
Y22835D02*
D03*
Y18898D02*
D03*
Y30709D02*
D03*
X-45937Y-29528D02*
D03*
Y-17717D02*
D03*
Y-21654D02*
D03*
Y-25591D02*
D03*
D22*
X61193Y-34646D02*
D03*
Y-12598D02*
D03*
X-61193Y11811D02*
D03*
Y37795D02*
D03*
X61193Y35827D02*
D03*
Y13780D02*
D03*
X-61193Y-12598D02*
D03*
Y-34646D02*
D03*
D25*
X-32520Y9843D02*
D03*
X-35984D02*
D03*
D26*
X18504Y32382D02*
D03*
Y36909D02*
D03*
D28*
X-5512Y36614D02*
D03*
Y30315D02*
D03*
D31*
X-29134Y32441D02*
D03*
Y28976D02*
D03*
X-24409Y32441D02*
D03*
Y28976D02*
D03*
Y36063D02*
D03*
Y39528D02*
D03*
X-29134Y36063D02*
D03*
Y39528D02*
D03*
D38*
X6398Y37402D02*
D03*
X11713D02*
D03*
D41*
X17323Y-45669D02*
D03*
X37008D02*
D03*
D42*
X13386Y-56299D02*
D03*
X40945D02*
D03*
D43*
X7500Y54980D02*
D03*
Y59980D02*
D03*
X2500Y54980D02*
D03*
X-2500D02*
D03*
X-7500D02*
D03*
X2500Y59980D02*
D03*
X-2500D02*
D03*
X-7500D02*
D03*
X7500Y-59980D02*
D03*
X2500D02*
D03*
X-2500D02*
D03*
X7500Y-54980D02*
D03*
X2500D02*
D03*
X-2500D02*
D03*
X-7500Y-59980D02*
D03*
Y-54980D02*
D03*
D44*
X51181Y-51181D02*
D03*
X-51181D02*
D03*
X51181Y51181D02*
D03*
X-51181D02*
D03*
D90*
X30709Y26181D02*
D03*
Y21063D02*
D03*
X36220Y26181D02*
D03*
Y21063D02*
D03*
X11811Y47835D02*
D03*
Y42717D02*
D03*
D91*
X47047Y-1969D02*
D03*
X41929D02*
D03*
X11614Y31890D02*
D03*
X6496D02*
D03*
D92*
X20002Y4691D02*
D03*
X18610Y6083D02*
D03*
X-22786Y-1907D02*
D03*
X-21394Y-3299D02*
D03*
X-20002Y-4691D02*
D03*
X-18610Y-6083D02*
D03*
X-17218Y-7475D02*
D03*
X-15826Y-8867D02*
D03*
X-14435Y-10259D02*
D03*
X-13043Y-11651D02*
D03*
X-11651Y-13043D02*
D03*
X-10259Y-14435D02*
D03*
X-8867Y-15826D02*
D03*
X-7475Y-17218D02*
D03*
X-6083Y-18610D02*
D03*
X-4691Y-20002D02*
D03*
X-3299Y-21394D02*
D03*
X-1907Y-22786D02*
D03*
X22786Y1907D02*
D03*
X21394Y3299D02*
D03*
X17218Y7475D02*
D03*
X15826Y8867D02*
D03*
X14435Y10259D02*
D03*
X13043Y11651D02*
D03*
X11651Y13043D02*
D03*
X10259Y14435D02*
D03*
X8867Y15826D02*
D03*
X7475Y17218D02*
D03*
X6083Y18610D02*
D03*
X4691Y20002D02*
D03*
X3299Y21394D02*
D03*
X1907Y22786D02*
D03*
D93*
X-31102Y45543D02*
D03*
X-27165D02*
D03*
X-23228D02*
D03*
X-35039D02*
D03*
D94*
X-40157Y60799D02*
D03*
X-18110D02*
D03*
D95*
X36937Y8037D02*
D03*
X33234Y11740D02*
D03*
X32120Y3221D02*
D03*
X28418Y6923D02*
D03*
D96*
X-37598Y-5906D02*
D03*
X-33858D02*
D03*
X-30118D02*
D03*
X-37598Y5118D02*
D03*
X-30118D02*
D03*
D97*
X23622Y29724D02*
D03*
Y37205D02*
D03*
X31496Y33465D02*
D03*
X52756Y-7283D02*
D03*
Y197D02*
D03*
X60630Y-3543D02*
D03*
D98*
X26728Y13342D02*
D03*
X29178Y15792D02*
D03*
X26816Y-5468D02*
D03*
X24366Y-7918D02*
D03*
X-18548Y12948D02*
D03*
X-16098Y15398D02*
D03*
D99*
X0Y0D02*
D03*
D100*
X1907Y-22786D02*
D03*
X3299Y-21394D02*
D03*
X4691Y-20002D02*
D03*
X6083Y-18610D02*
D03*
X7475Y-17218D02*
D03*
X8867Y-15826D02*
D03*
X10259Y-14435D02*
D03*
X11651Y-13043D02*
D03*
X13043Y-11651D02*
D03*
X14435Y-10259D02*
D03*
X15826Y-8867D02*
D03*
X17218Y-7475D02*
D03*
X18610Y-6083D02*
D03*
X20002Y-4691D02*
D03*
X21394Y-3299D02*
D03*
X22786Y-1907D02*
D03*
X-1907Y22786D02*
D03*
X-3299Y21394D02*
D03*
X-4691Y20002D02*
D03*
X-6083Y18610D02*
D03*
X-7475Y17218D02*
D03*
X-8867Y15826D02*
D03*
X-10259Y14435D02*
D03*
X-11651Y13043D02*
D03*
X-13043Y11651D02*
D03*
X-14435Y10259D02*
D03*
X-15826Y8867D02*
D03*
X-17218Y7475D02*
D03*
X-18610Y6083D02*
D03*
X-20002Y4691D02*
D03*
X-21394Y3299D02*
D03*
X-22786Y1907D02*
D03*
D101*
X35335Y54724D02*
D03*
X30807D02*
D03*
X47146Y-7480D02*
D03*
X42618D02*
D03*
X-14075Y44882D02*
D03*
X-9547D02*
D03*
D102*
X20910Y-17367D02*
D03*
X18460Y-14917D02*
D03*
X18154Y12948D02*
D03*
X15704Y15398D02*
D03*
X-24847Y17367D02*
D03*
X-22397Y14917D02*
D03*
X-18460Y-12248D02*
D03*
X-20910Y-9799D02*
D03*
X-14217Y-16492D02*
D03*
X-11767Y-18941D02*
D03*
X11067Y22397D02*
D03*
X8618Y24847D02*
D03*
D103*
X34646Y42520D02*
D03*
X38386Y50394D02*
D03*
X30906D02*
D03*
D104*
X-19488Y40354D02*
D03*
X-15748D02*
D03*
X-12008D02*
D03*
Y29724D02*
D03*
X-19488D02*
D03*
D105*
X31470Y-7061D02*
D03*
X34672Y-10262D02*
D03*
D106*
X31522Y-13754D02*
D03*
X28321Y-16955D02*
D03*
X-19317Y17691D02*
D03*
X-16116Y20892D02*
D03*
M02*
