M48
;Layer_Color=9474304
;FILE_FORMAT=4:4
METRIC,LZ
;TYPE=PLATED
T01F00S00C0.2000
%
T01
X-000567Y-0008375
Y-0007725
Y-0007075
Y-0006425
X-0005775Y-00057409
X-0005775Y-0005
Y-00042626
X-0005775Y-00036
X-000525Y-000285
X-00050509Y-00005885
X-00027Y000035
X-000255Y00025
Y000315
X-000395Y00031
Y000245
X-00044812Y00048312
X-000575Y00057
X-00023Y000545
X-00016521Y00052526
X-00012Y000475
X-00006979Y00043986
X-00008Y00054
X000035Y000515
X0001894Y00052285
X000185Y00059
X000235Y00056121
X00036Y00053
X000395Y000615
X0002698Y00035
Y00024239
Y00015929
X0002726Y00005875
X00028562Y00000254
X0001363Y-00003144
X000135Y-00008
X-00004Y-00006
X-00010914Y-00005691
X00003025Y00008249
X0001148Y0002502
Y00035644
X000155Y-00035
X00021
X0002301Y-00053404
X00021285Y-0005891
X000273Y-0006325
Y-0006975
Y-0007625
X00023624Y-0008185
X00026552Y-0009229
X00019
X0001852Y-0011575
X-00023Y-00115
Y-00109
Y-001025
X-0002648Y-000955
X-0001852Y-0009402
X-00023Y-000895
X-000147Y-0008375
Y-0007725
Y-0007075
Y-0006425
X-000215Y-0005798
X-00021582Y-0004771
X-0003079Y-000427
X000077Y-0004958
X000094Y-00058
X00027489Y-00049767
X0003621Y-00043
X0005775Y-000415
Y-00049981
Y-00056755
Y-0008837
Y-0002
Y-0001348
X000395Y00069
X00035Y00065
X000094Y00067
X-000085Y0007498
X000035Y0010075
X000135Y001004
X000225Y00097
X000305Y000975
X00031Y00105
X00022
X000415Y00104
X000485Y00097
X000555Y00104
Y0009
X000415
X-000485Y000895
Y000965
X-00048Y001035
X-000555Y001035
Y000895
M30
