G04*
G04 #@! TF.GenerationSoftware,Altium Limited,Altium Designer,24.4.1 (13)*
G04*
G04 Layer_Color=65535*
%FSLAX44Y44*%
%MOMM*%
G71*
G04*
G04 #@! TF.SameCoordinates,3A254B37-44D2-41AC-B17A-D77AFD25B485*
G04*
G04*
G04 #@! TF.FilePolarity,Positive*
G04*
G01*
G75*
%ADD10C,0.2000*%
%ADD11C,0.1530*%
D10*
X-35320Y10870D02*
X-27700D01*
X-35320D02*
Y40080D01*
X-22620Y60400D02*
X22860D01*
X35320Y10870D02*
Y40080D01*
X27700Y10870D02*
X35320D01*
D11*
X39473Y-29470D02*
X44804D01*
X47470Y-26804D01*
X44804Y-24138D01*
X39473D01*
X40806Y-16141D02*
X39473Y-17474D01*
Y-20140D01*
X40806Y-21473D01*
X46137D01*
X47470Y-20140D01*
Y-17474D01*
X46137Y-16141D01*
X40806Y-8144D02*
X39473Y-9476D01*
Y-12142D01*
X40806Y-13475D01*
X46137D01*
X47470Y-12142D01*
Y-9476D01*
X46137Y-8144D01*
X26589Y-24575D02*
X25256Y-25907D01*
Y-28573D01*
X26589Y-29906D01*
X31920D01*
X33253Y-28573D01*
Y-25907D01*
X31920Y-24575D01*
X29254D01*
Y-27240D01*
X33253Y-21909D02*
X25256D01*
X33253Y-16577D01*
X25256D01*
Y-13911D02*
X33253D01*
Y-9913D01*
X31920Y-8580D01*
X26589D01*
X25256Y-9913D01*
Y-13911D01*
X13253Y-29906D02*
X5256D01*
X7922Y-27240D01*
X5256Y-24575D01*
X13253D01*
X5256Y-21909D02*
Y-19243D01*
Y-20576D01*
X13253D01*
Y-21909D01*
Y-19243D01*
X6589Y-9913D02*
X5256Y-11246D01*
Y-13911D01*
X6589Y-15244D01*
X7922D01*
X9254Y-13911D01*
Y-11246D01*
X10587Y-9913D01*
X11920D01*
X13253Y-11246D01*
Y-13911D01*
X11920Y-15244D01*
X5256Y-3248D02*
Y-5914D01*
X6589Y-7247D01*
X11920D01*
X13253Y-5914D01*
Y-3248D01*
X11920Y-1915D01*
X6589D01*
X5256Y-3248D01*
X-6747Y-29906D02*
X-14744D01*
X-12078Y-27240D01*
X-14744Y-24575D01*
X-6747D01*
X-14744Y-17910D02*
Y-20576D01*
X-13411Y-21909D01*
X-8080D01*
X-6747Y-20576D01*
Y-17910D01*
X-8080Y-16577D01*
X-13411D01*
X-14744Y-17910D01*
X-13411Y-8580D02*
X-14744Y-9913D01*
Y-12579D01*
X-13411Y-13911D01*
X-12078D01*
X-10746Y-12579D01*
Y-9913D01*
X-9413Y-8580D01*
X-8080D01*
X-6747Y-9913D01*
Y-12579D01*
X-8080Y-13911D01*
X-14744Y-5914D02*
Y-3248D01*
Y-4581D01*
X-6747D01*
Y-5914D01*
Y-3248D01*
X-33411Y-24575D02*
X-34744Y-25907D01*
Y-28573D01*
X-33411Y-29906D01*
X-32078D01*
X-30746Y-28573D01*
Y-25907D01*
X-29413Y-24575D01*
X-28080D01*
X-26747Y-25907D01*
Y-28573D01*
X-28080Y-29906D01*
X-33411Y-16577D02*
X-34744Y-17910D01*
Y-20576D01*
X-33411Y-21909D01*
X-28080D01*
X-26747Y-20576D01*
Y-17910D01*
X-28080Y-16577D01*
X-34744Y-13911D02*
X-26747D01*
Y-8580D01*
X-34744Y-5914D02*
X-26747D01*
X-29413D01*
X-34744Y-582D01*
X-30746Y-4581D01*
X-26747Y-582D01*
X-48194Y-23138D02*
X-49527Y-24471D01*
Y-27137D01*
X-48194Y-28470D01*
X-42863D01*
X-41530Y-27137D01*
Y-24471D01*
X-42863Y-23138D01*
X-48194Y-15141D02*
X-49527Y-16474D01*
Y-19140D01*
X-48194Y-20473D01*
X-46862D01*
X-45529Y-19140D01*
Y-16474D01*
X-44196Y-15141D01*
X-42863D01*
X-41530Y-16474D01*
Y-19140D01*
X-42863Y-20473D01*
M02*
