G04*
G04 #@! TF.GenerationSoftware,Altium Limited,Altium Designer,21.6.4 (81)*
G04*
G04 Layer_Color=16711935*
%FSLAX25Y25*%
%MOIN*%
G70*
G04*
G04 #@! TF.SameCoordinates,78FA80CD-A9BF-463E-8246-B3BA63ED9FFF*
G04*
G04*
G04 #@! TF.FilePolarity,Negative*
G04*
G01*
G75*
%ADD21C,0.01000*%
%ADD29R,0.04343X0.04737*%
G04:AMPARAMS|DCode=35|XSize=47.37mil|YSize=43.43mil|CornerRadius=0mil|HoleSize=0mil|Usage=FLASHONLY|Rotation=140.000|XOffset=0mil|YOffset=0mil|HoleType=Round|Shape=Rectangle|*
%AMROTATEDRECTD35*
4,1,4,0.03210,0.00141,0.00418,-0.03186,-0.03210,-0.00141,-0.00418,0.03186,0.03210,0.00141,0.0*
%
%ADD35ROTATEDRECTD35*%

%ADD40R,0.04540X0.04147*%
%ADD42R,0.04737X0.04343*%
%ADD44R,0.04147X0.04540*%
G04:AMPARAMS|DCode=45|XSize=47.37mil|YSize=43.43mil|CornerRadius=0mil|HoleSize=0mil|Usage=FLASHONLY|Rotation=220.000|XOffset=0mil|YOffset=0mil|HoleType=Round|Shape=Rectangle|*
%AMROTATEDRECTD45*
4,1,4,0.00418,0.03186,0.03210,-0.00141,-0.00418,-0.03186,-0.03210,0.00141,0.00418,0.03186,0.0*
%
%ADD45ROTATEDRECTD45*%

G04:AMPARAMS|DCode=49|XSize=45.4mil|YSize=41.47mil|CornerRadius=0mil|HoleSize=0mil|Usage=FLASHONLY|Rotation=40.000|XOffset=0mil|YOffset=0mil|HoleType=Round|Shape=Rectangle|*
%AMROTATEDRECTD49*
4,1,4,-0.00406,-0.03047,-0.03072,0.00129,0.00406,0.03047,0.03072,-0.00129,-0.00406,-0.03047,0.0*
%
%ADD49ROTATEDRECTD49*%

%ADD53R,0.05918X0.06312*%
%ADD56C,0.07099*%
%ADD57C,0.06698*%
%ADD58P,0.09472X4X305.0*%
%ADD59C,0.00800*%
%ADD60P,0.08369X4X169.0*%
%ADD61C,0.05918*%
%ADD62P,0.10040X4X378.5*%
%ADD63P,0.10040X4X150.5*%
G04:AMPARAMS|DCode=64|XSize=90.68mil|YSize=67.06mil|CornerRadius=18.76mil|HoleSize=0mil|Usage=FLASHONLY|Rotation=350.000|XOffset=0mil|YOffset=0mil|HoleType=Round|Shape=RoundedRectangle|*
%AMROUNDEDRECTD64*
21,1,0.09068,0.02953,0,0,350.0*
21,1,0.05315,0.06706,0,0,350.0*
1,1,0.03753,0.02361,-0.01915*
1,1,0.03753,-0.02874,-0.00993*
1,1,0.03753,-0.02361,0.01915*
1,1,0.03753,0.02874,0.00993*
%
%ADD64ROUNDEDRECTD64*%
G04:AMPARAMS|DCode=65|XSize=90.68mil|YSize=67.06mil|CornerRadius=18.76mil|HoleSize=0mil|Usage=FLASHONLY|Rotation=80.000|XOffset=0mil|YOffset=0mil|HoleType=Round|Shape=RoundedRectangle|*
%AMROUNDEDRECTD65*
21,1,0.09068,0.02953,0,0,80.0*
21,1,0.05315,0.06706,0,0,80.0*
1,1,0.03753,0.01915,0.02361*
1,1,0.03753,0.00993,-0.02874*
1,1,0.03753,-0.01915,-0.02361*
1,1,0.03753,-0.00993,0.02874*
%
%ADD65ROUNDEDRECTD65*%
G04:AMPARAMS|DCode=66|XSize=67.06mil|YSize=106.42mil|CornerRadius=0mil|HoleSize=0mil|Usage=FLASHONLY|Rotation=10.000|XOffset=0mil|YOffset=0mil|HoleType=Round|Shape=Round|*
%AMOVALD66*
21,1,0.03937,0.06706,0.00000,0.00000,100.0*
1,1,0.06706,0.00342,-0.01939*
1,1,0.06706,-0.00342,0.01939*
%
%ADD66OVALD66*%

%ADD133C,0.07690*%
%ADD134R,0.05918X0.08280*%
%ADD135R,0.04737X0.11824*%
%ADD136R,0.04737X0.03950*%
%ADD137R,0.04737X0.05524*%
%ADD138R,0.03556X0.05524*%
G04:AMPARAMS|DCode=139|XSize=59.18mil|YSize=63.12mil|CornerRadius=0mil|HoleSize=0mil|Usage=FLASHONLY|Rotation=230.000|XOffset=0mil|YOffset=0mil|HoleType=Round|Shape=Rectangle|*
%AMROTATEDRECTD139*
4,1,4,-0.00516,0.04295,0.04320,0.00238,0.00516,-0.04295,-0.04320,-0.00238,-0.00516,0.04295,0.0*
%
%ADD139ROTATEDRECTD139*%

G04:AMPARAMS|DCode=140|XSize=45.4mil|YSize=41.47mil|CornerRadius=0mil|HoleSize=0mil|Usage=FLASHONLY|Rotation=320.000|XOffset=0mil|YOffset=0mil|HoleType=Round|Shape=Rectangle|*
%AMROTATEDRECTD140*
4,1,4,-0.03072,-0.00129,-0.00406,0.03047,0.03072,0.00129,0.00406,-0.03047,-0.03072,-0.00129,0.0*
%
%ADD140ROTATEDRECTD140*%

G04:AMPARAMS|DCode=141|XSize=59.18mil|YSize=63.12mil|CornerRadius=0mil|HoleSize=0mil|Usage=FLASHONLY|Rotation=320.000|XOffset=0mil|YOffset=0mil|HoleType=Round|Shape=Rectangle|*
%AMROTATEDRECTD141*
4,1,4,-0.04295,-0.00516,-0.00238,0.04320,0.04295,0.00516,0.00238,-0.04320,-0.04295,-0.00516,0.0*
%
%ADD141ROTATEDRECTD141*%

G04:AMPARAMS|DCode=142|XSize=45.4mil|YSize=41.47mil|CornerRadius=0mil|HoleSize=0mil|Usage=FLASHONLY|Rotation=50.000|XOffset=0mil|YOffset=0mil|HoleType=Round|Shape=Rectangle|*
%AMROTATEDRECTD142*
4,1,4,0.00129,-0.03072,-0.03047,-0.00406,-0.00129,0.03072,0.03047,0.00406,0.00129,-0.03072,0.0*
%
%ADD142ROTATEDRECTD142*%

G04:AMPARAMS|DCode=143|XSize=59.18mil|YSize=63.12mil|CornerRadius=0mil|HoleSize=0mil|Usage=FLASHONLY|Rotation=310.000|XOffset=0mil|YOffset=0mil|HoleType=Round|Shape=Rectangle|*
%AMROTATEDRECTD143*
4,1,4,-0.04320,0.00238,0.00516,0.04295,0.04320,-0.00238,-0.00516,-0.04295,-0.04320,0.00238,0.0*
%
%ADD143ROTATEDRECTD143*%

G04:AMPARAMS|DCode=144|XSize=47.37mil|YSize=43.43mil|CornerRadius=0mil|HoleSize=0mil|Usage=FLASHONLY|Rotation=310.000|XOffset=0mil|YOffset=0mil|HoleType=Round|Shape=Rectangle|*
%AMROTATEDRECTD144*
4,1,4,-0.03186,0.00418,0.00141,0.03210,0.03186,-0.00418,-0.00141,-0.03210,-0.03186,0.00418,0.0*
%
%ADD144ROTATEDRECTD144*%

G04:AMPARAMS|DCode=145|XSize=59.18mil|YSize=63.12mil|CornerRadius=0mil|HoleSize=0mil|Usage=FLASHONLY|Rotation=220.000|XOffset=0mil|YOffset=0mil|HoleType=Round|Shape=Rectangle|*
%AMROTATEDRECTD145*
4,1,4,0.00238,0.04320,0.04295,-0.00516,-0.00238,-0.04320,-0.04295,0.00516,0.00238,0.04320,0.0*
%
%ADD145ROTATEDRECTD145*%

G04:AMPARAMS|DCode=146|XSize=45.4mil|YSize=41.47mil|CornerRadius=0mil|HoleSize=0mil|Usage=FLASHONLY|Rotation=17.000|XOffset=0mil|YOffset=0mil|HoleType=Round|Shape=Rectangle|*
%AMROTATEDRECTD146*
4,1,4,-0.01565,-0.02646,-0.02777,0.01319,0.01565,0.02646,0.02777,-0.01319,-0.01565,-0.02646,0.0*
%
%ADD146ROTATEDRECTD146*%

%ADD147C,0.07887*%
%ADD148C,0.08674*%
D21*
X157480Y0D02*
X157477Y1001D01*
X157468Y2001D01*
X157452Y3001D01*
X157430Y4002D01*
X157401Y5002D01*
X157366Y6001D01*
X157325Y7001D01*
X157277Y8000D01*
X157223Y8999D01*
X157163Y9998D01*
X157096Y10996D01*
X157023Y11994D01*
X156944Y12991D01*
X156858Y13988D01*
X156766Y14985D01*
X156667Y15980D01*
X156563Y16975D01*
X156452Y17969D01*
X156334Y18963D01*
X156211Y19956D01*
X156081Y20948D01*
X155945Y21939D01*
X155802Y22929D01*
X155653Y23919D01*
X155498Y24907D01*
X155337Y25894D01*
X155169Y26881D01*
X154995Y27866D01*
X154815Y28850D01*
X154629Y29833D01*
X154436Y30815D01*
X154237Y31795D01*
X154032Y32775D01*
X153821Y33753D01*
X153603Y34729D01*
X153379Y35704D01*
X153149Y36678D01*
X152913Y37650D01*
X152671Y38621D01*
X152423Y39590D01*
X152168Y40558D01*
X151907Y41524D01*
X151640Y42488D01*
X151367Y43450D01*
X151088Y44411D01*
X150803Y45370D01*
X150512Y46327D01*
X150215Y47282D01*
X149911Y48236D01*
X149602Y49187D01*
X149286Y50137D01*
X148965Y51084D01*
X148637Y52029D01*
X148304Y52973D01*
X147964Y53914D01*
X147619Y54853D01*
X147267Y55789D01*
X146910Y56724D01*
X146546Y57656D01*
X146177Y58586D01*
X145802Y59513D01*
X145421Y60438D01*
X145034Y61361D01*
X144641Y62281D01*
X144243Y63199D01*
X143838Y64114D01*
X143428Y65026D01*
X143012Y65936D01*
X142590Y66844D01*
X142163Y67748D01*
X141729Y68650D01*
X141290Y69549D01*
X140846Y70445D01*
X140395Y71338D01*
X139939Y72229D01*
X139478Y73117D01*
X139010Y74001D01*
X138537Y74883D01*
X138059Y75761D01*
X137575Y76637D01*
X137085Y77509D01*
X136590Y78379D01*
X136089Y79245D01*
X135583Y80108D01*
X135071Y80968D01*
X134554Y81824D01*
X134032Y82677D01*
X133504Y83527D01*
X132970Y84374D01*
X132432Y85217D01*
X131888Y86056D01*
X131338Y86893D01*
X130784Y87725D01*
X130224Y88554D01*
X129658Y89380D01*
X129088Y90202D01*
X128512Y91020D01*
X127931Y91835D01*
X127345Y92646D01*
X126754Y93453D01*
X126158Y94256D01*
X125557Y95056D01*
X124950Y95851D01*
X124339Y96643D01*
X123722Y97431D01*
X123101Y98215D01*
X122474Y98995D01*
X121843Y99771D01*
X121207Y100543D01*
X120565Y101312D01*
X119919Y102075D01*
X119269Y102835D01*
X118613Y103591D01*
X117952Y104342D01*
X117287Y105089D01*
X116617Y105833D01*
X115942Y106571D01*
X115263Y107306D01*
X114579Y108036D01*
X113890Y108762D01*
X113197Y109483D01*
X112499Y110200D01*
X111797Y110912D01*
X111090Y111620D01*
X110379Y112324D01*
X109663Y113023D01*
X108942Y113717D01*
X108218Y114407D01*
X107489Y115092D01*
X106755Y115773D01*
X106018Y116449D01*
X105276Y117120D01*
X104530Y117786D01*
X103779Y118448D01*
X103025Y119105D01*
X102266Y119757D01*
X101503Y120404D01*
X100736Y121047D01*
X99965Y121684D01*
X99190Y122317D01*
X98411Y122944D01*
X97628Y123567D01*
X96841Y124185D01*
X96050Y124798D01*
X95255Y125405D01*
X94457Y126008D01*
X93654Y126605D01*
X92848Y127198D01*
X92038Y127785D01*
X91224Y128367D01*
X90407Y128944D01*
X89586Y129516D01*
X88761Y130083D01*
X87933Y130644D01*
X87101Y131200D01*
X86266Y131751D01*
X85427Y132296D01*
X84585Y132836D01*
X83740Y133371D01*
X82890Y133900D01*
X82038Y134424D01*
X81182Y134942D01*
X80324Y135455D01*
X79461Y135963D01*
X78596Y136465D01*
X77728Y136962D01*
X76856Y137453D01*
X75981Y137938D01*
X75103Y138418D01*
X74222Y138892D01*
X73338Y139361D01*
X72452Y139824D01*
X71562Y140282D01*
X70669Y140734D01*
X69774Y141180D01*
X68875Y141620D01*
X67974Y142055D01*
X67070Y142484D01*
X66164Y142907D01*
X65254Y143324D01*
X64343Y143736D01*
X63428Y144142D01*
X62511Y144542D01*
X61592Y144936D01*
X60670Y145325D01*
X59745Y145707D01*
X58818Y146084D01*
X57889Y146455D01*
X56957Y146819D01*
X56024Y147178D01*
X55087Y147531D01*
X54149Y147878D01*
X53208Y148219D01*
X52266Y148554D01*
X51321Y148883D01*
X50374Y149206D01*
X49425Y149523D01*
X48474Y149834D01*
X47521Y150139D01*
X46566Y150438D01*
X45610Y150731D01*
X44651Y151018D01*
X43691Y151298D01*
X42729Y151573D01*
X41765Y151841D01*
X40799Y152103D01*
X39832Y152360D01*
X38864Y152610D01*
X37893Y152853D01*
X36921Y153091D01*
X35948Y153323D01*
X34973Y153548D01*
X33997Y153767D01*
X33019Y153980D01*
X32041Y154186D01*
X31060Y154387D01*
X30079Y154581D01*
X29096Y154769D01*
X28112Y154951D01*
X27127Y155126D01*
X26141Y155296D01*
X25154Y155458D01*
X24166Y155615D01*
X23177Y155765D01*
X22187Y155910D01*
X21196Y156047D01*
X20204Y156179D01*
X19211Y156304D01*
X18218Y156423D01*
X17224Y156536D01*
X16229Y156642D01*
X15234Y156742D01*
X14238Y156835D01*
X13241Y156923D01*
X12244Y157004D01*
X11246Y157078D01*
X10248Y157147D01*
X9249Y157209D01*
X8250Y157264D01*
X7251Y157313D01*
X6251Y157356D01*
X5252Y157393D01*
X4252Y157423D01*
X3251Y157447D01*
X2251Y157464D01*
X1251Y157475D01*
X250Y157480D01*
X-750Y157478D01*
X-1751Y157471D01*
X-2751Y157456D01*
X-3751Y157436D01*
X-4752Y157409D01*
X-5751Y157375D01*
X-6751Y157335D01*
X-7751Y157290D01*
X-8750Y157237D01*
X-9748Y157178D01*
X-10747Y157113D01*
X-11745Y157042D01*
X-12742Y156964D01*
X-13739Y156880D01*
X-14736Y156789D01*
X-15731Y156693D01*
X-16727Y156589D01*
X-17721Y156480D01*
X-18715Y156364D01*
X-19708Y156242D01*
X-20700Y156114D01*
X-21691Y155979D01*
X-22682Y155838D01*
X-23672Y155691D01*
X-24660Y155537D01*
X-25648Y155378D01*
X-26634Y155212D01*
X-27620Y155039D01*
X-28604Y154861D01*
X-29588Y154676D01*
X-30570Y154485D01*
X-31550Y154287D01*
X-32530Y154084D01*
X-33508Y153874D01*
X-34485Y153658D01*
X-35461Y153436D01*
X-36435Y153208D01*
X-37407Y152973D01*
X-38379Y152732D01*
X-39348Y152485D01*
X-40316Y152232D01*
X-41282Y151973D01*
X-42247Y151708D01*
X-43210Y151436D01*
X-44171Y151159D01*
X-45131Y150875D01*
X-46088Y150585D01*
X-47044Y150289D01*
X-47998Y149987D01*
X-48950Y149680D01*
X-49900Y149366D01*
X-50848Y149046D01*
X-51793Y148720D01*
X-52737Y148387D01*
X-53679Y148049D01*
X-54618Y147705D01*
X-55556Y147355D01*
X-56491Y147000D01*
X-57423Y146638D01*
X-58354Y146270D01*
X-59282Y145896D01*
X-60208Y145517D01*
X-61131Y145131D01*
X-62052Y144740D01*
X-62970Y144343D01*
X-63886Y143940D01*
X-64799Y143531D01*
X-65709Y143116D01*
X-66617Y142696D01*
X-67523Y142270D01*
X-68425Y141838D01*
X-69325Y141401D01*
X-70222Y140957D01*
X-71116Y140508D01*
X-72007Y140054D01*
X-72895Y139593D01*
X-73781Y139128D01*
X-74663Y138656D01*
X-75542Y138179D01*
X-76419Y137696D01*
X-77292Y137208D01*
X-78162Y136714D01*
X-79029Y136215D01*
X-79893Y135710D01*
X-80753Y135199D01*
X-81611Y134684D01*
X-82465Y134163D01*
X-83315Y133636D01*
X-84163Y133104D01*
X-85007Y132567D01*
X-85847Y132024D01*
X-86684Y131476D01*
X-87518Y130922D01*
X-88348Y130364D01*
X-89174Y129800D01*
X-89997Y129231D01*
X-90816Y128656D01*
X-91632Y128077D01*
X-92444Y127492D01*
X-93252Y126902D01*
X-94056Y126307D01*
X-94857Y125707D01*
X-95653Y125102D01*
X-96446Y124492D01*
X-97235Y123877D01*
X-98020Y123256D01*
X-98801Y122631D01*
X-99578Y122001D01*
X-100351Y121366D01*
X-101120Y120726D01*
X-101885Y120081D01*
X-102646Y119431D01*
X-103403Y118777D01*
X-104155Y118117D01*
X-104903Y117453D01*
X-105648Y116785D01*
X-106387Y116111D01*
X-107123Y115433D01*
X-107854Y114750D01*
X-108581Y114062D01*
X-109303Y113370D01*
X-110021Y112674D01*
X-110735Y111972D01*
X-111444Y111267D01*
X-112149Y110556D01*
X-112849Y109842D01*
X-113544Y109123D01*
X-114235Y108399D01*
X-114921Y107671D01*
X-115603Y106939D01*
X-116280Y106202D01*
X-116953Y105462D01*
X-117620Y104716D01*
X-118283Y103967D01*
X-118941Y103214D01*
X-119595Y102456D01*
X-120243Y101694D01*
X-120887Y100928D01*
X-121525Y100158D01*
X-122159Y99384D01*
X-122788Y98606D01*
X-123412Y97824D01*
X-124031Y97038D01*
X-124645Y96248D01*
X-125254Y95454D01*
X-125858Y94656D01*
X-126457Y93855D01*
X-127050Y93050D01*
X-127639Y92241D01*
X-128222Y91428D01*
X-128801Y90611D01*
X-129374Y89791D01*
X-129941Y88968D01*
X-130504Y88140D01*
X-131061Y87309D01*
X-131614Y86475D01*
X-132160Y85637D01*
X-132702Y84796D01*
X-133238Y83951D01*
X-133768Y83103D01*
X-134293Y82252D01*
X-134813Y81397D01*
X-135328Y80539D01*
X-135837Y79677D01*
X-136340Y78813D01*
X-136838Y77945D01*
X-137330Y77074D01*
X-137817Y76200D01*
X-138299Y75323D01*
X-138774Y74443D01*
X-139244Y73560D01*
X-139709Y72674D01*
X-140168Y71785D01*
X-140621Y70893D01*
X-141069Y69998D01*
X-141510Y69100D01*
X-141947Y68200D01*
X-142377Y67297D01*
X-142802Y66391D01*
X-143220Y65482D01*
X-143634Y64571D01*
X-144041Y63657D01*
X-144442Y62741D01*
X-144838Y61822D01*
X-145228Y60901D01*
X-145612Y59977D01*
X-145990Y59051D01*
X-146362Y58122D01*
X-146729Y57191D01*
X-147089Y56258D01*
X-147443Y55322D01*
X-147792Y54384D01*
X-148134Y53444D01*
X-148471Y52502D01*
X-148801Y51558D01*
X-149126Y50611D01*
X-149444Y49663D01*
X-149757Y48713D01*
X-150063Y47760D01*
X-150364Y46806D01*
X-150658Y45850D01*
X-150946Y44892D01*
X-151228Y43932D01*
X-151505Y42970D01*
X-151774Y42007D01*
X-152038Y41042D01*
X-152296Y40075D01*
X-152547Y39107D01*
X-152793Y38137D01*
X-153032Y37165D01*
X-153265Y36192D01*
X-153492Y35218D01*
X-153712Y34242D01*
X-153927Y33265D01*
X-154135Y32286D01*
X-154337Y31306D01*
X-154533Y30325D01*
X-154722Y29343D01*
X-154906Y28359D01*
X-155083Y27375D01*
X-155254Y26389D01*
X-155418Y25402D01*
X-155576Y24414D01*
X-155728Y23425D01*
X-155874Y22436D01*
X-156013Y21445D01*
X-156146Y20453D01*
X-156273Y19461D01*
X-156394Y18468D01*
X-156508Y17474D01*
X-156616Y16479D01*
X-156717Y15484D01*
X-156813Y14488D01*
X-156901Y13491D01*
X-156984Y12494D01*
X-157060Y11497D01*
X-157130Y10499D01*
X-157194Y9500D01*
X-157251Y8501D01*
X-157301Y7502D01*
X-157346Y6503D01*
X-157384Y5503D01*
X-157416Y4503D01*
X-157441Y3503D01*
X-157460Y2503D01*
X-157473Y1502D01*
X-157480Y502D01*
X-157480Y-499D01*
X-157473Y-1499D01*
X-157460Y-2499D01*
X-157441Y-3500D01*
X-157416Y-4500D01*
X-157384Y-5500D01*
X-157346Y-6499D01*
X-157302Y-7499D01*
X-157251Y-8498D01*
X-157194Y-9497D01*
X-157130Y-10496D01*
X-157060Y-11494D01*
X-156984Y-12491D01*
X-156902Y-13488D01*
X-156813Y-14485D01*
X-156718Y-15481D01*
X-156616Y-16476D01*
X-156508Y-17470D01*
X-156394Y-18464D01*
X-156274Y-19458D01*
X-156147Y-20450D01*
X-156014Y-21442D01*
X-155874Y-22432D01*
X-155729Y-23422D01*
X-155577Y-24411D01*
X-155419Y-25399D01*
X-155254Y-26386D01*
X-155083Y-27371D01*
X-154906Y-28356D01*
X-154723Y-29340D01*
X-154534Y-30322D01*
X-154338Y-31303D01*
X-154136Y-32283D01*
X-153928Y-33262D01*
X-153713Y-34239D01*
X-153493Y-35215D01*
X-153266Y-36189D01*
X-153033Y-37162D01*
X-152794Y-38133D01*
X-152548Y-39103D01*
X-152297Y-40072D01*
X-152039Y-41039D01*
X-151775Y-42004D01*
X-151505Y-42967D01*
X-151229Y-43929D01*
X-150947Y-44888D01*
X-150659Y-45847D01*
X-150365Y-46803D01*
X-150064Y-47757D01*
X-149758Y-48709D01*
X-149445Y-49660D01*
X-149127Y-50608D01*
X-148802Y-51555D01*
X-148472Y-52499D01*
X-148135Y-53441D01*
X-147793Y-54381D01*
X-147444Y-55319D01*
X-147090Y-56254D01*
X-146730Y-57188D01*
X-146363Y-58119D01*
X-145991Y-59047D01*
X-145613Y-59974D01*
X-145229Y-60898D01*
X-144839Y-61819D01*
X-144444Y-62738D01*
X-144042Y-63654D01*
X-143635Y-64568D01*
X-143222Y-65479D01*
X-142803Y-66388D01*
X-142378Y-67294D01*
X-141948Y-68197D01*
X-141512Y-69097D01*
X-141070Y-69995D01*
X-140622Y-70890D01*
X-140169Y-71782D01*
X-139710Y-72671D01*
X-139246Y-73557D01*
X-138776Y-74440D01*
X-138300Y-75320D01*
X-137819Y-76197D01*
X-137332Y-77071D01*
X-136840Y-77942D01*
X-136342Y-78810D01*
X-135838Y-79674D01*
X-135329Y-80536D01*
X-134815Y-81394D01*
X-134295Y-82249D01*
X-133770Y-83100D01*
X-133239Y-83948D01*
X-132703Y-84793D01*
X-132162Y-85634D01*
X-131615Y-86472D01*
X-131063Y-87307D01*
X-130506Y-88138D01*
X-129943Y-88965D01*
X-129376Y-89789D01*
X-128803Y-90609D01*
X-128224Y-91425D01*
X-127641Y-92238D01*
X-127052Y-93047D01*
X-126459Y-93852D01*
X-125860Y-94654D01*
X-125256Y-95451D01*
X-124647Y-96245D01*
X-124033Y-97035D01*
X-123414Y-97821D01*
X-122790Y-98603D01*
X-122161Y-99381D01*
X-121528Y-100155D01*
X-120889Y-100926D01*
X-120245Y-101691D01*
X-119597Y-102453D01*
X-118943Y-103211D01*
X-118285Y-103965D01*
X-117622Y-104714D01*
X-116955Y-105459D01*
X-116282Y-106200D01*
X-115605Y-106937D01*
X-114924Y-107669D01*
X-114237Y-108397D01*
X-113547Y-109120D01*
X-112851Y-109839D01*
X-112151Y-110554D01*
X-111446Y-111264D01*
X-110737Y-111970D01*
X-110024Y-112671D01*
X-109306Y-113368D01*
X-108583Y-114060D01*
X-107856Y-114748D01*
X-107125Y-115431D01*
X-106390Y-116109D01*
X-105650Y-116782D01*
X-104906Y-117451D01*
X-104158Y-118115D01*
X-103405Y-118775D01*
X-102648Y-119429D01*
X-101888Y-120079D01*
X-101123Y-120724D01*
X-100354Y-121364D01*
X-99581Y-121999D01*
X-98804Y-122629D01*
X-98023Y-123254D01*
X-97238Y-123874D01*
X-96449Y-124490D01*
X-95656Y-125100D01*
X-94859Y-125705D01*
X-94059Y-126305D01*
X-93254Y-126900D01*
X-92446Y-127490D01*
X-91635Y-128075D01*
X-90819Y-128654D01*
X-90000Y-129229D01*
X-89177Y-129798D01*
X-88351Y-130362D01*
X-87521Y-130921D01*
X-86687Y-131474D01*
X-85850Y-132022D01*
X-85010Y-132565D01*
X-84166Y-133102D01*
X-83319Y-133634D01*
X-82468Y-134161D01*
X-81614Y-134682D01*
X-80757Y-135198D01*
X-79896Y-135708D01*
X-79032Y-136213D01*
X-78166Y-136712D01*
X-77295Y-137206D01*
X-76422Y-137694D01*
X-75546Y-138177D01*
X-74667Y-138654D01*
X-73784Y-139126D01*
X-72899Y-139592D01*
X-72010Y-140052D01*
X-71119Y-140506D01*
X-70225Y-140955D01*
X-69328Y-141399D01*
X-68429Y-141836D01*
X-67526Y-142268D01*
X-66621Y-142694D01*
X-65713Y-143115D01*
X-64803Y-143529D01*
X-63889Y-143938D01*
X-62974Y-144341D01*
X-62055Y-144738D01*
X-61135Y-145130D01*
X-60211Y-145515D01*
X-59286Y-145895D01*
X-58358Y-146268D01*
X-57427Y-146636D01*
X-56495Y-146998D01*
X-55560Y-147354D01*
X-54622Y-147704D01*
X-53683Y-148048D01*
X-52741Y-148386D01*
X-51798Y-148718D01*
X-50852Y-149044D01*
X-49904Y-149364D01*
X-48954Y-149678D01*
X-48002Y-149986D01*
X-47048Y-150288D01*
X-46093Y-150584D01*
X-45135Y-150874D01*
X-44175Y-151157D01*
X-43214Y-151435D01*
X-42251Y-151707D01*
X-41287Y-151972D01*
X-40321Y-152231D01*
X-39353Y-152484D01*
X-38383Y-152731D01*
X-37412Y-152972D01*
X-36439Y-153207D01*
X-35465Y-153435D01*
X-34490Y-153657D01*
X-33513Y-153873D01*
X-32535Y-154083D01*
X-31555Y-154287D01*
X-30574Y-154484D01*
X-29592Y-154675D01*
X-28609Y-154860D01*
X-27624Y-155038D01*
X-26639Y-155211D01*
X-25652Y-155377D01*
X-24665Y-155537D01*
X-23676Y-155690D01*
X-22686Y-155838D01*
X-21696Y-155979D01*
X-20704Y-156113D01*
X-19712Y-156242D01*
X-18719Y-156364D01*
X-17725Y-156480D01*
X-16731Y-156589D01*
X-15736Y-156692D01*
X-14740Y-156789D01*
X-13743Y-156879D01*
X-12746Y-156964D01*
X-11749Y-157041D01*
X-10751Y-157113D01*
X-9753Y-157178D01*
X-8754Y-157237D01*
X-7755Y-157289D01*
X-6755Y-157335D01*
X-5756Y-157375D01*
X-4756Y-157408D01*
X-3755Y-157436D01*
X-2755Y-157456D01*
X-1755Y-157471D01*
X-754Y-157478D01*
X246Y-157480D01*
X1247Y-157475D01*
X2247Y-157464D01*
X3248Y-157447D01*
X4248Y-157423D01*
X5248Y-157393D01*
X6248Y-157356D01*
X7247Y-157314D01*
X8247Y-157264D01*
X9245Y-157209D01*
X10244Y-157147D01*
X11242Y-157079D01*
X12240Y-157004D01*
X13237Y-156923D01*
X14234Y-156836D01*
X15230Y-156742D01*
X16226Y-156642D01*
X17220Y-156536D01*
X18215Y-156423D01*
X19208Y-156305D01*
X20201Y-156179D01*
X21192Y-156048D01*
X22184Y-155910D01*
X23174Y-155766D01*
X24163Y-155616D01*
X25151Y-155459D01*
X26138Y-155296D01*
X27124Y-155127D01*
X28109Y-154951D01*
X29093Y-154770D01*
X30076Y-154582D01*
X31057Y-154387D01*
X32037Y-154187D01*
X33016Y-153980D01*
X33994Y-153768D01*
X34970Y-153549D01*
X35945Y-153323D01*
X36918Y-153092D01*
X37890Y-152854D01*
X38861Y-152610D01*
X39829Y-152360D01*
X40797Y-152104D01*
X41762Y-151842D01*
X42726Y-151574D01*
X43688Y-151299D01*
X44648Y-151019D01*
X45607Y-150732D01*
X46564Y-150439D01*
X47518Y-150140D01*
X48471Y-149835D01*
X49422Y-149524D01*
X50371Y-149207D01*
X51318Y-148884D01*
X52263Y-148555D01*
X53206Y-148220D01*
X54146Y-147879D01*
X55085Y-147532D01*
X56021Y-147179D01*
X56955Y-146820D01*
X57886Y-146455D01*
X58816Y-146085D01*
X59743Y-145708D01*
X60667Y-145326D01*
X61589Y-144937D01*
X62509Y-144543D01*
X63426Y-144143D01*
X64340Y-143737D01*
X65252Y-143325D01*
X66162Y-142908D01*
X67068Y-142485D01*
X67972Y-142056D01*
X68873Y-141621D01*
X69771Y-141181D01*
X70667Y-140735D01*
X71560Y-140283D01*
X72449Y-139825D01*
X73336Y-139362D01*
X74220Y-138893D01*
X75101Y-138419D01*
X75979Y-137939D01*
X76854Y-137454D01*
X77726Y-136963D01*
X78594Y-136466D01*
X79460Y-135964D01*
X80322Y-135456D01*
X81181Y-134943D01*
X82037Y-134425D01*
X82889Y-133901D01*
X83738Y-133372D01*
X84584Y-132837D01*
X85426Y-132297D01*
X86265Y-131752D01*
X87100Y-131201D01*
X87932Y-130645D01*
X88760Y-130084D01*
X89584Y-129517D01*
X90406Y-128945D01*
X91223Y-128368D01*
X92037Y-127786D01*
X92847Y-127199D01*
X93653Y-126606D01*
X94455Y-126009D01*
X95254Y-125406D01*
X96049Y-124799D01*
X96840Y-124186D01*
X97627Y-123568D01*
X98410Y-122945D01*
X99189Y-122318D01*
X99964Y-121685D01*
X100735Y-121047D01*
X101502Y-120405D01*
X102265Y-119758D01*
X103024Y-119106D01*
X103779Y-118449D01*
X104529Y-117787D01*
X105275Y-117120D01*
X106017Y-116449D01*
X106755Y-115773D01*
X107488Y-115093D01*
X108217Y-114408D01*
X108942Y-113718D01*
X109662Y-113023D01*
X110378Y-112324D01*
X111089Y-111621D01*
X111796Y-110913D01*
X112499Y-110200D01*
X113197Y-109483D01*
X113890Y-108762D01*
X114578Y-108036D01*
X115263Y-107306D01*
X115942Y-106572D01*
X116617Y-105833D01*
X117287Y-105090D01*
X117952Y-104343D01*
X118613Y-103591D01*
X119268Y-102835D01*
X119919Y-102076D01*
X120565Y-101312D01*
X121206Y-100544D01*
X121843Y-99772D01*
X122474Y-98996D01*
X123101Y-98215D01*
X123722Y-97431D01*
X124339Y-96643D01*
X124950Y-95851D01*
X125557Y-95056D01*
X126158Y-94256D01*
X126754Y-93453D01*
X127346Y-92646D01*
X127931Y-91835D01*
X128512Y-91020D01*
X129088Y-90202D01*
X129658Y-89380D01*
X130224Y-88554D01*
X130784Y-87725D01*
X131338Y-86892D01*
X131888Y-86056D01*
X132432Y-85216D01*
X132971Y-84373D01*
X133504Y-83527D01*
X134032Y-82677D01*
X134554Y-81824D01*
X135072Y-80967D01*
X135583Y-80108D01*
X136090Y-79245D01*
X136590Y-78378D01*
X137085Y-77509D01*
X137575Y-76637D01*
X138059Y-75761D01*
X138538Y-74882D01*
X139011Y-74001D01*
X139478Y-73116D01*
X139940Y-72228D01*
X140396Y-71338D01*
X140846Y-70445D01*
X141291Y-69548D01*
X141730Y-68649D01*
X142163Y-67747D01*
X142591Y-66843D01*
X143012Y-65935D01*
X143428Y-65026D01*
X143839Y-64113D01*
X144243Y-63198D01*
X144642Y-62280D01*
X145034Y-61360D01*
X145421Y-60437D01*
X145802Y-59512D01*
X146177Y-58585D01*
X146547Y-57655D01*
X146910Y-56723D01*
X147267Y-55788D01*
X147619Y-54852D01*
X147965Y-53913D01*
X148304Y-52971D01*
X148638Y-52028D01*
X148965Y-51083D01*
X149287Y-50135D01*
X149602Y-49186D01*
X149912Y-48234D01*
X150215Y-47281D01*
X150512Y-46326D01*
X150804Y-45368D01*
X151089Y-44409D01*
X151368Y-43449D01*
X151641Y-42486D01*
X151908Y-41522D01*
X152169Y-40556D01*
X152423Y-39588D01*
X152672Y-38619D01*
X152914Y-37648D01*
X153150Y-36676D01*
X153380Y-35702D01*
X153604Y-34727D01*
X153821Y-33751D01*
X154032Y-32773D01*
X154237Y-31794D01*
X154436Y-30813D01*
X154629Y-29831D01*
X154815Y-28848D01*
X154996Y-27864D01*
X155169Y-26879D01*
X155337Y-25892D01*
X155499Y-24905D01*
X155654Y-23917D01*
X155802Y-22927D01*
X155945Y-21937D01*
X156081Y-20946D01*
X156211Y-19954D01*
X156335Y-18961D01*
X156452Y-17967D01*
X156563Y-16973D01*
X156668Y-15978D01*
X156766Y-14982D01*
X156858Y-13986D01*
X156944Y-12989D01*
X157023Y-11992D01*
X157096Y-10994D01*
X157163Y-9996D01*
X157223Y-8997D01*
X157277Y-7998D01*
X157325Y-6999D01*
X157366Y-5999D01*
X157401Y-4999D01*
X157430Y-3999D01*
X157452Y-2999D01*
X157468Y-1998D01*
X157477Y-998D01*
X157480Y0D01*
D29*
X-123524Y11811D02*
D03*
X-118209D02*
D03*
D35*
X-74480Y40866D02*
D03*
X-71064Y44938D02*
D03*
X-86846Y51242D02*
D03*
X-83429Y55314D02*
D03*
X-58243Y27755D02*
D03*
X-54826Y31827D02*
D03*
D40*
X-88976Y-89567D02*
D03*
Y-84449D02*
D03*
X-133071Y-19882D02*
D03*
Y-14764D02*
D03*
D42*
X33071Y-115453D02*
D03*
Y-120768D02*
D03*
D44*
X75783Y-5717D02*
D03*
X80901D02*
D03*
D45*
X83640Y32530D02*
D03*
X80224Y36601D02*
D03*
D49*
X48096Y45490D02*
D03*
X44806Y49411D02*
D03*
X69381Y71573D02*
D03*
X66091Y75494D02*
D03*
X88808Y50871D02*
D03*
X85518Y54791D02*
D03*
X59446Y28289D02*
D03*
X56156Y32210D02*
D03*
D53*
X94095Y-5512D02*
D03*
X87795D02*
D03*
D56*
X40645Y0D02*
D03*
X-40645D02*
D03*
X0Y-40645D02*
D03*
Y40645D02*
D03*
X-41012Y-139501D02*
D03*
X-49962Y-135039D02*
D03*
X-67861Y-126116D02*
D03*
X-76810Y-121653D02*
D03*
X-58911Y-130577D02*
D03*
X-149201Y-13311D02*
D03*
X-146528Y-22947D02*
D03*
X-141183Y-42220D02*
D03*
X-138511Y-51856D02*
D03*
X-143856Y-32583D02*
D03*
D57*
X-143307Y40157D02*
D03*
X-147751Y14956D02*
D03*
X-130303Y11879D02*
D03*
D58*
X-125860Y37081D02*
D03*
D59*
X-102362Y102362D02*
D03*
Y-102362D02*
D03*
X102362D02*
D03*
Y102362D02*
D03*
X22271Y-22271D02*
D03*
X-22271Y22271D02*
D03*
X26447Y26447D02*
D03*
X-26447Y-26447D02*
D03*
X0Y0D02*
D03*
D60*
X-118038Y-88811D02*
D03*
D61*
X-122441Y-82284D02*
D03*
X-126844Y-75756D02*
D03*
D62*
X-85759Y-117192D02*
D03*
D63*
X-135839Y-61492D02*
D03*
D64*
X18785Y99208D02*
D03*
X22887Y122471D02*
D03*
D65*
X2613Y114052D02*
D03*
D66*
X-36435Y143225D02*
D03*
X-13171Y147327D02*
D03*
X-20926Y145959D02*
D03*
X-28680Y144592D02*
D03*
D133*
X-31890Y8661D02*
D03*
D134*
X-28937Y-150295D02*
D03*
D135*
X23622Y-148327D02*
D03*
D136*
X24213Y-132185D02*
D03*
D137*
X23622Y-107776D02*
D03*
X-20276Y-90847D02*
D03*
D138*
X19882D02*
D03*
X16142Y-90847D02*
D03*
X11811Y-90846D02*
D03*
X7480D02*
D03*
X3150Y-90846D02*
D03*
X-1181Y-90847D02*
D03*
X-5512Y-90847D02*
D03*
X-9843Y-90847D02*
D03*
X-14173Y-90847D02*
D03*
D139*
X-61389Y77293D02*
D03*
X-68728Y68546D02*
D03*
X-49024Y66917D02*
D03*
X-56363Y58171D02*
D03*
X-36659Y56541D02*
D03*
X-43997Y47795D02*
D03*
D140*
X-63005Y31880D02*
D03*
X-59715Y35801D02*
D03*
X-72229Y76624D02*
D03*
X-75519Y72703D02*
D03*
X-75953Y48912D02*
D03*
X-79243Y44991D02*
D03*
X-59864Y66248D02*
D03*
X-63154Y62327D02*
D03*
X-88318Y59287D02*
D03*
X-91608Y55367D02*
D03*
X-47752Y55571D02*
D03*
X-51042Y51650D02*
D03*
D141*
X-74542Y26399D02*
D03*
X-65796Y19060D02*
D03*
X-90225Y39559D02*
D03*
X-81479Y32220D02*
D03*
X-105908Y52718D02*
D03*
X-97162Y45379D02*
D03*
D142*
X-105842Y42384D02*
D03*
X-101921Y39094D02*
D03*
X-91064Y29984D02*
D03*
X-87143Y26694D02*
D03*
X-77794Y18849D02*
D03*
X-73873Y15559D02*
D03*
D143*
X44089Y38016D02*
D03*
X36750Y46762D02*
D03*
X76425Y75428D02*
D03*
X69086Y84174D02*
D03*
X71589Y29742D02*
D03*
X78928Y20995D02*
D03*
D144*
X63562Y18637D02*
D03*
X67633Y22053D02*
D03*
D145*
X87806Y26646D02*
D03*
X96552Y33985D02*
D03*
D146*
X-127205Y-58353D02*
D03*
X-128701Y-53458D02*
D03*
D147*
X-65121Y54470D02*
D03*
X-77486Y64846D02*
D03*
X-52756Y44094D02*
D03*
D148*
X79103Y66112D02*
D03*
X57087Y47638D02*
D03*
M02*
