G04*
G04 #@! TF.GenerationSoftware,Altium Limited,Altium Designer,21.6.4 (81)*
G04*
G04 Layer_Color=65535*
%FSLAX25Y25*%
%MOIN*%
G70*
G04*
G04 #@! TF.SameCoordinates,78FA80CD-A9BF-463E-8246-B3BA63ED9FFF*
G04*
G04*
G04 #@! TF.FilePolarity,Positive*
G04*
G01*
G75*
%ADD10C,0.02953*%
%ADD11C,0.00500*%
%ADD12C,0.00787*%
%ADD13C,0.00984*%
%ADD14C,0.04528*%
%ADD15C,0.01968*%
%ADD16C,0.00197*%
%ADD17C,0.02803*%
%ADD18C,0.00591*%
%ADD19C,0.00394*%
%ADD20C,0.00602*%
%ADD21C,0.01000*%
%ADD22R,0.02657X0.02165*%
G36*
X81388Y75302D02*
X80376Y76509D01*
X80136Y76307D01*
X79847Y75752D01*
X79792Y75128D01*
X79980Y74530D01*
X80182Y74290D01*
D01*
X81388Y75302D01*
D02*
G37*
G36*
X115561Y42851D02*
Y44820D01*
X116152Y44820D01*
X117333Y43639D01*
X117333Y42851D01*
X115561D01*
D02*
G37*
D10*
X48563Y-59981D02*
X48071Y-59129D01*
X47087D01*
X46595Y-59981D01*
X47087Y-60834D01*
X48071D01*
X48563Y-59981D01*
D11*
X-129896Y26018D02*
X-129970Y27024D01*
X-130189Y28009D01*
X-130549Y28951D01*
X-131043Y29831D01*
X-131659Y30629D01*
X-132386Y31329D01*
X-133206Y31916D01*
X-134103Y32377D01*
X-135058Y32703D01*
X-136050Y32886D01*
X-137058Y32923D01*
X-138060Y32813D01*
X-139036Y32558D01*
X-139965Y32163D01*
X-140826Y31638D01*
X-141601Y30992D01*
X-142274Y30241D01*
X-142831Y29400D01*
X-143259Y28487D01*
X-143549Y27521D01*
X-143696Y26523D01*
Y25514D01*
X-143549Y24516D01*
X-143259Y23550D01*
X-142831Y22637D01*
X-142274Y21795D01*
X-141601Y21044D01*
X-140826Y20399D01*
X-139965Y19873D01*
X-139036Y19479D01*
X-138060Y19224D01*
X-137058Y19114D01*
X-136050Y19150D01*
X-135058Y19334D01*
X-134103Y19659D01*
X-133206Y20121D01*
X-132386Y20707D01*
X-131659Y21408D01*
X-131043Y22206D01*
X-130549Y23086D01*
X-130189Y24028D01*
X-129970Y25012D01*
X-129896Y26018D01*
X-126560Y16217D02*
X-123826Y31725D01*
X-142730Y15090D02*
X-134976Y13723D01*
X-149785Y20312D02*
X-147050Y35820D01*
X-138635Y38314D02*
X-130880Y36947D01*
X-90755Y2655D02*
X-89920Y3490D01*
X-114975Y-21565D02*
X-114140Y-20729D01*
X-65701Y-22400D02*
X-64865Y-21565D01*
X-89920Y-46619D02*
X-89085Y-45784D01*
X-89920Y3490D02*
X-89085Y2655D01*
X-114975Y-21565D02*
X-114140Y-22400D01*
X-65701Y-20729D02*
X-64865Y-21565D01*
X-90755Y-45784D02*
X-89920Y-46619D01*
X-93024Y31629D02*
X-90987Y34057D01*
X-83976Y24037D02*
X-81939Y26465D01*
X-87469Y38249D02*
X-85432Y40677D01*
X-78422Y30657D02*
X-76385Y33085D01*
X-108115Y44281D02*
X-106078Y46709D01*
X-99067Y36689D02*
X-97030Y39117D01*
X-102560Y50901D02*
X-100523Y53329D01*
X-93512Y43309D02*
X-91475Y45737D01*
X-88057Y61895D02*
X-85843Y64534D01*
X-93814Y55034D02*
X-91600Y57673D01*
X-84314Y47062D02*
X-82100Y49701D01*
X-78557Y53923D02*
X-76343Y56562D01*
X-75692Y51519D02*
X-73478Y54158D01*
X-81449Y44658D02*
X-79235Y47297D01*
X-71949Y36687D02*
X-69735Y39325D01*
X-66192Y43548D02*
X-63977Y46187D01*
X-72873Y79991D02*
X-70659Y82630D01*
X-78630Y73129D02*
X-76416Y75768D01*
X-69130Y65158D02*
X-66916Y67797D01*
X-63373Y72019D02*
X-61159Y74658D01*
X-77956Y18975D02*
X-75919Y21403D01*
X-68908Y11383D02*
X-66871Y13811D01*
X-72401Y25595D02*
X-70364Y28023D01*
X-63353Y18003D02*
X-61316Y20430D01*
X-63327Y41144D02*
X-61112Y43783D01*
X-69084Y34282D02*
X-66869Y36921D01*
X-59584Y26311D02*
X-57369Y28950D01*
X-53826Y33172D02*
X-51612Y35811D01*
X-60508Y69615D02*
X-58293Y72254D01*
X-66265Y62754D02*
X-64051Y65393D01*
X-56765Y54782D02*
X-54551Y57421D01*
X-51008Y61643D02*
X-48793Y64282D01*
X-48143Y59239D02*
X-45928Y61878D01*
X-53900Y52378D02*
X-51686Y55017D01*
X-44400Y44406D02*
X-42185Y47045D01*
X-38642Y51268D02*
X-36428Y53907D01*
X77808Y57702D02*
X80023Y55063D01*
X83565Y50840D02*
X85780Y48201D01*
X74065Y42869D02*
X76280Y40230D01*
X68308Y49730D02*
X70522Y47091D01*
X62624Y75797D02*
X64838Y73158D01*
X68382Y68936D02*
X70596Y66297D01*
X58881Y60964D02*
X61096Y58325D01*
X53124Y67826D02*
X55338Y65187D01*
X50259Y65421D02*
X52473Y62783D01*
X56016Y58560D02*
X58231Y55921D01*
X46516Y50589D02*
X48730Y47950D01*
X40759Y57450D02*
X42973Y54811D01*
X73283Y28336D02*
X75320Y25908D01*
X64235Y20744D02*
X66272Y18316D01*
X78838Y21716D02*
X80875Y19288D01*
X69790Y14124D02*
X71827Y11696D01*
X65443Y47326D02*
X67657Y44687D01*
X71200Y40465D02*
X73414Y37826D01*
X61700Y32493D02*
X63914Y29854D01*
X55943Y39354D02*
X58157Y36715D01*
X93678Y45450D02*
X95715Y43022D01*
X84630Y37857D02*
X86667Y35430D01*
X99233Y38829D02*
X101270Y36402D01*
X90185Y31238D02*
X92222Y28810D01*
D12*
X-124562Y42207D02*
X-125350D01*
X-124562D01*
X-94384Y4172D02*
X-95172D01*
X-94384D01*
X-95172D01*
X-94384D01*
X-74865Y34427D02*
X-75652D01*
X-74865D01*
X-89955Y47079D02*
X-90743D01*
X-89955D01*
X-75523Y59674D02*
X-76310D01*
X-75523D01*
X-63157Y49298D02*
X-63945D01*
X-63157D01*
X-60338Y77769D02*
X-61126D01*
X-60338D01*
X-59796Y21773D02*
X-60584D01*
X-59796D01*
X-50792Y38922D02*
X-51579D01*
X-50792D01*
X-47973Y67393D02*
X-48761D01*
X-47973D01*
X-35608Y57018D02*
X-36395D01*
X-35608D01*
X80376Y76509D02*
X79828Y75517D01*
X80087Y74415D01*
X117333Y43048D02*
X117095Y43934D01*
X116447Y44582D01*
X115561Y44820D01*
X75212Y58662D02*
X74424D01*
X75212D01*
X60028Y76757D02*
X59241D01*
X60028D01*
X47663Y66382D02*
X46875D01*
X47663D01*
X72550Y29678D02*
X71763D01*
X72550D01*
X62847Y48286D02*
X62059D01*
X62847D01*
X92946Y46792D02*
X92158D01*
X92946D01*
X50256Y-136614D02*
X76634Y-136614D01*
X-23760Y-136614D02*
Y-126378D01*
Y-136614D02*
X-20217Y-136614D01*
X-23760Y-75984D02*
Y-65748D01*
X-20217D01*
X50256Y-65748D02*
X76634Y-65748D01*
Y-136614D02*
Y-65748D01*
X-26870Y57874D02*
Y60039D01*
X-29528D02*
X-26870D01*
X-14075D02*
X-11417D01*
X-14075Y57874D02*
Y60039D01*
Y87795D02*
X-11417D01*
X-14075Y57874D02*
X-11417D01*
X-29528Y87795D02*
X-26870D01*
X-29528Y57874D02*
X-26870D01*
X-11417D02*
Y87795D01*
X-29528Y57874D02*
Y87795D01*
X-119510Y-99302D02*
X-103843Y-88735D01*
X-121455Y-62623D02*
X-103843Y-88735D01*
X-137122Y-73190D02*
X-121455Y-62623D01*
X-137122Y-73190D02*
X-119510Y-99302D01*
X14075Y57874D02*
Y60039D01*
X11417Y60039D02*
X14075Y60039D01*
X26870D02*
X29528D01*
X26870Y57874D02*
Y60039D01*
Y87795D02*
X29528Y87795D01*
X26870Y57874D02*
X29528Y57874D01*
X11417Y87795D02*
X14075Y87795D01*
X11417Y57874D02*
X14075Y57874D01*
X29528Y57874D02*
Y87795D01*
X11417Y57874D02*
Y87795D01*
X74770Y79514D02*
X79478Y73904D01*
X76580Y81033D02*
X81287Y75422D01*
X74770Y79514D02*
X76580Y81033D01*
X79478Y73904D02*
X81287Y75422D01*
X117333Y42851D02*
X117333Y43048D01*
X115561Y46788D02*
X115561Y42851D01*
X127766Y46788D02*
X127766Y42851D01*
X115561D02*
X127766D01*
X115561Y46788D02*
X127766D01*
X-38372Y-146735D02*
X-33647Y-137257D01*
X-88400Y-109958D02*
X-33647Y-137257D01*
X-93125Y-119436D02*
X-88400Y-109958D01*
X-93125Y-119436D02*
X-38372Y-146735D01*
X-155797Y-9339D02*
X-145592Y-6509D01*
X-155797Y-9339D02*
X-139447Y-68295D01*
X-129242Y-65465D01*
X-145592Y-6509D02*
X-129242Y-65465D01*
X89119Y-6049D02*
X91482D01*
X89119Y-23286D02*
X91482D01*
X89119D02*
Y-6049D01*
X96403Y-23286D02*
X98765D01*
Y-6049D01*
X96403D02*
X98765D01*
X24122Y95468D02*
X35656Y93434D01*
X36118Y96051D01*
X45501Y149266D01*
X-789Y99861D02*
X12878Y97451D01*
X-789Y99861D02*
X698Y108294D01*
X2715Y119731D02*
X9055Y155692D01*
X45501Y149266D01*
X-45351Y148449D02*
X-6579Y155285D01*
X-3503Y137838D01*
X-42275Y131001D02*
X-3503Y137838D01*
X-45351Y148449D02*
X-42275Y131001D01*
X110236Y-6563D02*
X110892Y-5907D01*
X112204D01*
X112860Y-6563D01*
Y-7219D01*
X112204Y-7875D01*
X111548D01*
X112204D01*
X112860Y-8531D01*
Y-9187D01*
X112204Y-9843D01*
X110892D01*
X110236Y-9187D01*
X114172Y-9843D02*
Y-9187D01*
X114828D01*
Y-9843D01*
X114172D01*
X117452Y-6563D02*
X118108Y-5907D01*
X119420D01*
X120076Y-6563D01*
Y-7219D01*
X119420Y-7875D01*
X118764D01*
X119420D01*
X120076Y-8531D01*
Y-9187D01*
X119420Y-9843D01*
X118108D01*
X117452Y-9187D01*
X121388Y-5907D02*
Y-8531D01*
X122699Y-9843D01*
X124011Y-8531D01*
Y-5907D01*
D13*
X-26969Y55315D02*
X-27707Y55741D01*
Y54889D01*
X-26969Y55315D01*
X13976D02*
X13238Y55741D01*
Y54889D01*
X13976Y55315D01*
X84751Y76169D02*
X84013Y76595D01*
Y75743D01*
X84751Y76169D01*
X115167Y39505D02*
X114429Y39931D01*
Y39079D01*
X115167Y39505D01*
D14*
X110630Y102362D02*
X110570Y103359D01*
X110390Y104341D01*
X110093Y105294D01*
X109683Y106204D01*
X109166Y107059D01*
X108551Y107845D01*
X107845Y108551D01*
X107059Y109167D01*
X106204Y109683D01*
X105294Y110093D01*
X104341Y110390D01*
X103359Y110570D01*
X102362Y110630D01*
X101365Y110570D01*
X100383Y110390D01*
X99430Y110093D01*
X98520Y109683D01*
X97666Y109167D01*
X96880Y108551D01*
X96174Y107845D01*
X95558Y107059D01*
X95041Y106204D01*
X94632Y105294D01*
X94335Y104341D01*
X94155Y103359D01*
X94094Y102362D01*
X94155Y101366D01*
X94335Y100384D01*
X94632Y99431D01*
X95041Y98520D01*
X95558Y97666D01*
X96174Y96880D01*
X96880Y96174D01*
X97666Y95558D01*
X98520Y95042D01*
X99430Y94632D01*
X100383Y94335D01*
X101366Y94155D01*
X102362Y94095D01*
X103359Y94155D01*
X104341Y94335D01*
X105294Y94632D01*
X106204Y95042D01*
X107059Y95558D01*
X107845Y96174D01*
X108551Y96880D01*
X109166Y97666D01*
X109683Y98520D01*
X110093Y99431D01*
X110390Y100384D01*
X110570Y101366D01*
X110630Y102362D01*
X-94095Y-102362D02*
X-94155Y-101365D01*
X-94335Y-100383D01*
X-94632Y-99430D01*
X-95042Y-98520D01*
X-95558Y-97666D01*
X-96174Y-96880D01*
X-96880Y-96174D01*
X-97666Y-95558D01*
X-98520Y-95041D01*
X-99431Y-94632D01*
X-100384Y-94335D01*
X-101366Y-94155D01*
X-102362Y-94094D01*
X-103359Y-94155D01*
X-104341Y-94335D01*
X-105294Y-94632D01*
X-106204Y-95041D01*
X-107059Y-95558D01*
X-107845Y-96174D01*
X-108551Y-96880D01*
X-109167Y-97666D01*
X-109683Y-98520D01*
X-110093Y-99430D01*
X-110390Y-100383D01*
X-110570Y-101365D01*
X-110630Y-102362D01*
X-110570Y-103359D01*
X-110390Y-104341D01*
X-110093Y-105294D01*
X-109683Y-106204D01*
X-109167Y-107059D01*
X-108551Y-107845D01*
X-107845Y-108551D01*
X-107059Y-109166D01*
X-106204Y-109683D01*
X-105294Y-110093D01*
X-104341Y-110390D01*
X-103359Y-110570D01*
X-102362Y-110630D01*
X-101366Y-110570D01*
X-100384Y-110390D01*
X-99431Y-110093D01*
X-98520Y-109683D01*
X-97666Y-109166D01*
X-96880Y-108551D01*
X-96174Y-107845D01*
X-95558Y-107059D01*
X-95042Y-106204D01*
X-94632Y-105294D01*
X-94335Y-104341D01*
X-94155Y-103359D01*
X-94095Y-102362D01*
X110630Y-102362D02*
X110570Y-101365D01*
X110390Y-100383D01*
X110093Y-99430D01*
X109683Y-98520D01*
X109166Y-97666D01*
X108551Y-96880D01*
X107845Y-96174D01*
X107059Y-95558D01*
X106204Y-95041D01*
X105294Y-94632D01*
X104341Y-94335D01*
X103359Y-94155D01*
X102362Y-94094D01*
X101365Y-94155D01*
X100383Y-94335D01*
X99430Y-94632D01*
X98520Y-95041D01*
X97666Y-95558D01*
X96880Y-96174D01*
X96174Y-96880D01*
X95558Y-97666D01*
X95041Y-98520D01*
X94632Y-99430D01*
X94335Y-100383D01*
X94155Y-101365D01*
X94094Y-102362D01*
X94155Y-103359D01*
X94335Y-104341D01*
X94632Y-105294D01*
X95041Y-106204D01*
X95558Y-107059D01*
X96174Y-107845D01*
X96880Y-108551D01*
X97666Y-109166D01*
X98520Y-109683D01*
X99430Y-110093D01*
X100383Y-110390D01*
X101366Y-110570D01*
X102362Y-110630D01*
X103359Y-110570D01*
X104341Y-110390D01*
X105294Y-110093D01*
X106204Y-109683D01*
X107059Y-109166D01*
X107845Y-108551D01*
X108551Y-107845D01*
X109166Y-107059D01*
X109683Y-106204D01*
X110093Y-105294D01*
X110390Y-104341D01*
X110570Y-103359D01*
X110630Y-102362D01*
X-94095Y102362D02*
X-94155Y103359D01*
X-94335Y104341D01*
X-94632Y105294D01*
X-95042Y106204D01*
X-95558Y107059D01*
X-96174Y107845D01*
X-96880Y108551D01*
X-97666Y109167D01*
X-98520Y109683D01*
X-99431Y110093D01*
X-100384Y110390D01*
X-101366Y110570D01*
X-102362Y110630D01*
X-103359Y110570D01*
X-104341Y110390D01*
X-105294Y110093D01*
X-106204Y109683D01*
X-107059Y109167D01*
X-107845Y108551D01*
X-108551Y107845D01*
X-109167Y107059D01*
X-109683Y106204D01*
X-110093Y105294D01*
X-110390Y104341D01*
X-110570Y103359D01*
X-110630Y102362D01*
X-110570Y101366D01*
X-110390Y100384D01*
X-110093Y99431D01*
X-109683Y98520D01*
X-109167Y97666D01*
X-108551Y96880D01*
X-107845Y96174D01*
X-107059Y95558D01*
X-106204Y95042D01*
X-105294Y94632D01*
X-104341Y94335D01*
X-103359Y94155D01*
X-102362Y94095D01*
X-101366Y94155D01*
X-100384Y94335D01*
X-99431Y94632D01*
X-98520Y95042D01*
X-97666Y95558D01*
X-96880Y96174D01*
X-96174Y96880D01*
X-95558Y97666D01*
X-95042Y98520D01*
X-94632Y99431D01*
X-94335Y100384D01*
X-94155Y101366D01*
X-94095Y102362D01*
X-18179Y-26447D02*
X-18240Y-25450D01*
X-18419Y-24468D01*
X-18717Y-23515D01*
X-19126Y-22605D01*
X-19643Y-21750D01*
X-20258Y-20964D01*
X-20965Y-20258D01*
X-21750Y-19643D01*
X-22605Y-19126D01*
X-23515Y-18717D01*
X-24468Y-18419D01*
X-25451Y-18239D01*
X-26447Y-18179D01*
X-27444Y-18239D01*
X-28426Y-18419D01*
X-29379Y-18717D01*
X-30289Y-19126D01*
X-31144Y-19643D01*
X-31929Y-20258D01*
X-32636Y-20964D01*
X-33251Y-21750D01*
X-33768Y-22605D01*
X-34178Y-23515D01*
X-34475Y-24468D01*
X-34655Y-25450D01*
X-34715Y-26447D01*
X-34655Y-27444D01*
X-34475Y-28425D01*
X-34178Y-29379D01*
X-33768Y-30289D01*
X-33251Y-31144D01*
X-32636Y-31929D01*
X-31929Y-32635D01*
X-31144Y-33251D01*
X-30289Y-33768D01*
X-29379Y-34177D01*
X-28426Y-34474D01*
X-27444Y-34654D01*
X-26447Y-34715D01*
X-25451Y-34654D01*
X-24468Y-34474D01*
X-23515Y-34177D01*
X-22605Y-33768D01*
X-21750Y-33251D01*
X-20965Y-32635D01*
X-20258Y-31929D01*
X-19643Y-31144D01*
X-19126Y-30289D01*
X-18717Y-29379D01*
X-18420Y-28425D01*
X-18240Y-27444D01*
X-18179Y-26447D01*
X30539Y-22271D02*
X30478Y-21274D01*
X30298Y-20292D01*
X30001Y-19339D01*
X29592Y-18429D01*
X29075Y-17574D01*
X28459Y-16789D01*
X27753Y-16083D01*
X26968Y-15467D01*
X26113Y-14950D01*
X25203Y-14541D01*
X24250Y-14244D01*
X23268Y-14064D01*
X22271Y-14003D01*
X21274Y-14064D01*
X20292Y-14244D01*
X19339Y-14541D01*
X18429Y-14950D01*
X17574Y-15467D01*
X16788Y-16083D01*
X16082Y-16789D01*
X15467Y-17574D01*
X14950Y-18429D01*
X14540Y-19339D01*
X14243Y-20292D01*
X14063Y-21274D01*
X14003Y-22271D01*
X14063Y-23268D01*
X14243Y-24250D01*
X14540Y-25203D01*
X14950Y-26113D01*
X15467Y-26968D01*
X16082Y-27754D01*
X16789Y-28460D01*
X17574Y-29075D01*
X18429Y-29592D01*
X19339Y-30002D01*
X20292Y-30299D01*
X21274Y-30479D01*
X22271Y-30539D01*
X23268Y-30479D01*
X24250Y-30299D01*
X25203Y-30002D01*
X26113Y-29592D01*
X26968Y-29075D01*
X27753Y-28460D01*
X28459Y-27754D01*
X29075Y-26968D01*
X29592Y-26113D01*
X30001Y-25203D01*
X30298Y-24250D01*
X30478Y-23268D01*
X30539Y-22271D01*
X-14004Y22271D02*
X-14064Y23268D01*
X-14244Y24250D01*
X-14541Y25203D01*
X-14951Y26113D01*
X-15467Y26968D01*
X-16083Y27754D01*
X-16789Y28460D01*
X-17575Y29075D01*
X-18429Y29592D01*
X-19339Y30002D01*
X-20293Y30299D01*
X-21275Y30479D01*
X-22271Y30539D01*
X-23268Y30479D01*
X-24250Y30299D01*
X-25203Y30002D01*
X-26113Y29592D01*
X-26968Y29075D01*
X-27754Y28460D01*
X-28460Y27754D01*
X-29075Y26968D01*
X-29592Y26113D01*
X-30002Y25203D01*
X-30299Y24250D01*
X-30479Y23268D01*
X-30539Y22271D01*
X-30479Y21274D01*
X-30299Y20292D01*
X-30002Y19339D01*
X-29592Y18429D01*
X-29075Y17574D01*
X-28460Y16789D01*
X-27754Y16083D01*
X-26968Y15467D01*
X-26113Y14950D01*
X-25203Y14541D01*
X-24250Y14244D01*
X-23268Y14064D01*
X-22271Y14003D01*
X-21275Y14064D01*
X-20293Y14244D01*
X-19339Y14541D01*
X-18429Y14950D01*
X-17575Y15467D01*
X-16789Y16083D01*
X-16083Y16789D01*
X-15467Y17574D01*
X-14951Y18429D01*
X-14541Y19339D01*
X-14244Y20292D01*
X-14064Y21274D01*
X-14004Y22271D01*
X34714Y26447D02*
X34654Y27444D01*
X34474Y28425D01*
X34177Y29379D01*
X33768Y30289D01*
X33251Y31144D01*
X32635Y31929D01*
X31929Y32635D01*
X31143Y33251D01*
X30289Y33768D01*
X29379Y34177D01*
X28425Y34474D01*
X27443Y34654D01*
X26447Y34715D01*
X25450Y34654D01*
X24468Y34474D01*
X23515Y34177D01*
X22605Y33768D01*
X21750Y33251D01*
X20964Y32635D01*
X20258Y31929D01*
X19643Y31144D01*
X19126Y30289D01*
X18716Y29379D01*
X18419Y28425D01*
X18239Y27444D01*
X18179Y26447D01*
X18239Y25450D01*
X18419Y24468D01*
X18716Y23515D01*
X19126Y22605D01*
X19643Y21750D01*
X20258Y20964D01*
X20964Y20258D01*
X21750Y19643D01*
X22605Y19126D01*
X23515Y18716D01*
X24468Y18419D01*
X25450Y18239D01*
X26447Y18179D01*
X27443Y18239D01*
X28425Y18419D01*
X29379Y18717D01*
X30289Y19126D01*
X31143Y19643D01*
X31929Y20258D01*
X32635Y20964D01*
X33251Y21750D01*
X33768Y22605D01*
X34177Y23515D01*
X34474Y24468D01*
X34654Y25450D01*
X34714Y26447D01*
D15*
X51181Y0D02*
X51171Y999D01*
X51142Y1997D01*
X51093Y2994D01*
X51025Y3991D01*
X50938Y4986D01*
X50831Y5979D01*
X50704Y6969D01*
X50559Y7957D01*
X50394Y8942D01*
X50210Y9924D01*
X50007Y10902D01*
X49784Y11875D01*
X49543Y12844D01*
X49283Y13808D01*
X49004Y14767D01*
X48707Y15721D01*
X48391Y16668D01*
X48056Y17609D01*
X47704Y18543D01*
X47333Y19471D01*
X46944Y20391D01*
X46537Y21303D01*
X46112Y22207D01*
X45670Y23102D01*
X45211Y23989D01*
X44734Y24866D01*
X44241Y25735D01*
X43730Y26593D01*
X43203Y27441D01*
X42659Y28279D01*
X42099Y29106D01*
X41523Y29922D01*
X40932Y30726D01*
X40324Y31519D01*
X39702Y32300D01*
X39064Y33068D01*
X38411Y33824D01*
X37744Y34567D01*
X37062Y35297D01*
X36367Y36013D01*
X35657Y36716D01*
X34934Y37405D01*
X34197Y38080D01*
X33448Y38739D01*
X32686Y39385D01*
X31911Y40015D01*
X31124Y40630D01*
X30325Y41230D01*
X29515Y41813D01*
X28694Y42381D01*
X27861Y42933D01*
X27018Y43469D01*
X26165Y43988D01*
X25302Y44490D01*
X24429Y44975D01*
X23547Y45443D01*
X22655Y45894D01*
X21756Y46327D01*
X20848Y46743D01*
X19932Y47141D01*
X19008Y47521D01*
X18077Y47882D01*
X17139Y48226D01*
X16195Y48551D01*
X15245Y48858D01*
X14289Y49146D01*
X13327Y49415D01*
X12360Y49666D01*
X11389Y49898D01*
X10413Y50111D01*
X9433Y50304D01*
X8450Y50479D01*
X7463Y50634D01*
X6474Y50770D01*
X5482Y50887D01*
X4488Y50984D01*
X3493Y51062D01*
X2496Y51120D01*
X1498Y51159D01*
X499Y51179D01*
X-499D01*
X-1498Y51159D01*
X-2496Y51120D01*
X-3493Y51062D01*
X-4488Y50984D01*
X-5482Y50887D01*
X-6474Y50770D01*
X-7464Y50634D01*
X-8450Y50479D01*
X-9433Y50304D01*
X-10413Y50111D01*
X-11389Y49898D01*
X-12360Y49666D01*
X-13327Y49416D01*
X-14289Y49146D01*
X-15245Y48858D01*
X-16195Y48551D01*
X-17140Y48226D01*
X-18077Y47882D01*
X-19008Y47521D01*
X-19932Y47141D01*
X-20848Y46743D01*
X-21756Y46327D01*
X-22656Y45894D01*
X-23547Y45443D01*
X-24429Y44975D01*
X-25302Y44490D01*
X-26165Y43988D01*
X-27018Y43469D01*
X-27861Y42933D01*
X-28694Y42381D01*
X-29515Y41813D01*
X-30325Y41230D01*
X-31124Y40630D01*
X-31911Y40015D01*
X-32686Y39385D01*
X-33448Y38739D01*
X-34197Y38080D01*
X-34934Y37405D01*
X-35657Y36716D01*
X-36367Y36014D01*
X-37062Y35297D01*
X-37744Y34567D01*
X-38411Y33824D01*
X-39064Y33068D01*
X-39702Y32300D01*
X-40325Y31519D01*
X-40932Y30726D01*
X-41524Y29922D01*
X-42099Y29106D01*
X-42659Y28279D01*
X-43203Y27441D01*
X-43730Y26593D01*
X-44241Y25735D01*
X-44734Y24867D01*
X-45211Y23989D01*
X-45671Y23102D01*
X-46113Y22207D01*
X-46537Y21303D01*
X-46944Y20391D01*
X-47333Y19471D01*
X-47704Y18544D01*
X-48057Y17609D01*
X-48391Y16668D01*
X-48707Y15721D01*
X-49004Y14768D01*
X-49283Y13809D01*
X-49543Y12844D01*
X-49784Y11875D01*
X-50007Y10902D01*
X-50210Y9924D01*
X-50394Y8942D01*
X-50559Y7957D01*
X-50704Y6969D01*
X-50831Y5979D01*
X-50938Y4986D01*
X-51025Y3991D01*
X-51094Y2994D01*
X-51142Y1997D01*
X-51171Y999D01*
X-51181Y0D01*
X-51171Y-998D01*
X-51142Y-1997D01*
X-51094Y-2994D01*
X-51025Y-3991D01*
X-50938Y-4985D01*
X-50831Y-5978D01*
X-50704Y-6969D01*
X-50559Y-7957D01*
X-50394Y-8942D01*
X-50210Y-9924D01*
X-50007Y-10901D01*
X-49784Y-11875D01*
X-49543Y-12844D01*
X-49283Y-13808D01*
X-49005Y-14767D01*
X-48707Y-15721D01*
X-48391Y-16668D01*
X-48057Y-17609D01*
X-47704Y-18543D01*
X-47333Y-19471D01*
X-46944Y-20391D01*
X-46537Y-21303D01*
X-46113Y-22207D01*
X-45671Y-23102D01*
X-45211Y-23989D01*
X-44735Y-24866D01*
X-44241Y-25734D01*
X-43730Y-26593D01*
X-43203Y-27441D01*
X-42660Y-28279D01*
X-42100Y-29106D01*
X-41524Y-29922D01*
X-40932Y-30726D01*
X-40325Y-31519D01*
X-39702Y-32300D01*
X-39064Y-33068D01*
X-38412Y-33824D01*
X-37744Y-34567D01*
X-37063Y-35297D01*
X-36367Y-36013D01*
X-35657Y-36716D01*
X-34934Y-37405D01*
X-34198Y-38079D01*
X-33448Y-38739D01*
X-32686Y-39385D01*
X-31911Y-40015D01*
X-31124Y-40630D01*
X-30326Y-41230D01*
X-29515Y-41813D01*
X-28694Y-42381D01*
X-27861Y-42933D01*
X-27018Y-43468D01*
X-26165Y-43987D01*
X-25302Y-44490D01*
X-24429Y-44975D01*
X-23547Y-45443D01*
X-22656Y-45894D01*
X-21756Y-46327D01*
X-20848Y-46743D01*
X-19932Y-47140D01*
X-19008Y-47520D01*
X-18078Y-47882D01*
X-17140Y-48226D01*
X-16196Y-48551D01*
X-15245Y-48858D01*
X-14289Y-49146D01*
X-13327Y-49415D01*
X-12361Y-49666D01*
X-11389Y-49898D01*
X-10413Y-50111D01*
X-9434Y-50304D01*
X-8450Y-50479D01*
X-7464Y-50634D01*
X-6474Y-50770D01*
X-5483Y-50887D01*
X-4489Y-50984D01*
X-3493Y-51062D01*
X-2496Y-51120D01*
X-1498Y-51159D01*
X-500Y-51179D01*
X499Y-51179D01*
X1498Y-51159D01*
X2496Y-51120D01*
X3492Y-51062D01*
X4488Y-50984D01*
X5482Y-50887D01*
X6474Y-50770D01*
X7463Y-50634D01*
X8450Y-50479D01*
X9433Y-50304D01*
X10413Y-50111D01*
X11389Y-49898D01*
X12360Y-49666D01*
X13327Y-49416D01*
X14288Y-49146D01*
X15245Y-48858D01*
X16195Y-48551D01*
X17139Y-48226D01*
X18077Y-47882D01*
X19008Y-47521D01*
X19931Y-47141D01*
X20847Y-46743D01*
X21755Y-46327D01*
X22655Y-45894D01*
X23546Y-45443D01*
X24429Y-44975D01*
X25301Y-44490D01*
X26165Y-43988D01*
X27018Y-43469D01*
X27861Y-42933D01*
X28693Y-42382D01*
X29515Y-41813D01*
X30325Y-41230D01*
X31124Y-40630D01*
X31911Y-40015D01*
X32685Y-39385D01*
X33448Y-38740D01*
X34197Y-38080D01*
X34934Y-37405D01*
X35657Y-36716D01*
X36366Y-36014D01*
X37062Y-35297D01*
X37744Y-34567D01*
X38411Y-33824D01*
X39064Y-33068D01*
X39702Y-32300D01*
X40324Y-31519D01*
X40931Y-30726D01*
X41523Y-29922D01*
X42099Y-29106D01*
X42659Y-28279D01*
X43203Y-27441D01*
X43730Y-26593D01*
X44240Y-25735D01*
X44734Y-24867D01*
X45211Y-23989D01*
X45670Y-23102D01*
X46112Y-22207D01*
X46537Y-21303D01*
X46944Y-20391D01*
X47333Y-19471D01*
X47703Y-18544D01*
X48056Y-17609D01*
X48391Y-16668D01*
X48707Y-15721D01*
X49004Y-14768D01*
X49283Y-13809D01*
X49543Y-12844D01*
X49784Y-11875D01*
X50007Y-10902D01*
X50210Y-9924D01*
X50394Y-8942D01*
X50559Y-7957D01*
X50704Y-6969D01*
X50831Y-5979D01*
X50938Y-4986D01*
X51025Y-3991D01*
X51093Y-2995D01*
X51142Y-1997D01*
X51171Y-999D01*
X51181Y-0D01*
D16*
X85871Y-11671D02*
X85084D01*
X85871D01*
D17*
X-125591Y-58661D02*
X-126035Y-57738D01*
X-127034Y-57510D01*
X-127836Y-58149D01*
Y-59174D01*
X-127034Y-59813D01*
X-126035Y-59585D01*
X-125591Y-58661D01*
D18*
X-105492Y-42894D02*
X-101595Y-38996D01*
Y-46791D02*
X-100759Y-45956D01*
X-109389Y-38996D02*
X-101595Y-46791D01*
X-109389Y-38996D02*
X-108554Y-38161D01*
X-106327Y-35934D02*
X-105492Y-35099D01*
X-97697Y-42894D01*
X-98532Y-43729D02*
X-97697Y-42894D01*
X-113988Y-34676D02*
X-110091Y-30778D01*
X-114823Y-27716D02*
X-113988Y-26881D01*
X-106193Y-34676D01*
X-107029Y-35511D02*
X-106193Y-34676D01*
X-110091Y-38573D02*
X-109256Y-37738D01*
X-117886Y-30778D02*
X-110091Y-38573D01*
X-117886Y-30778D02*
X-117051Y-29943D01*
X90945Y-3937D02*
Y1575D01*
X85433Y394D02*
Y1575D01*
X96457D01*
Y394D02*
Y1575D01*
Y-3937D02*
Y-2756D01*
X85433Y-3937D02*
X96457D01*
X85433D02*
Y-2756D01*
X-105118Y5512D02*
Y6693D01*
X-116142Y6693D02*
X-105118Y6693D01*
X-116142Y5512D02*
Y6693D01*
Y1181D02*
Y2362D01*
Y1181D02*
X-105118D01*
Y2362D01*
X-110630Y1181D02*
X-110630Y6693D01*
X-111434Y-7586D02*
X-107537Y-3688D01*
X-107537Y-11483D02*
X-106702Y-10648D01*
X-115332Y-3688D02*
X-107537Y-11483D01*
X-115332Y-3688D02*
X-114497Y-2853D01*
X-112269Y-626D02*
X-111434Y209D01*
X-103639Y-7586D01*
X-104475Y-8421D02*
X-103639Y-7586D01*
X-70854Y-1234D02*
X-66957Y-5132D01*
X-63895Y-399D02*
X-63060Y-1234D01*
X-70854Y-9029D02*
X-63060Y-1234D01*
X-71690Y-8194D02*
X-70854Y-9029D01*
X-74752Y-5132D02*
X-73917Y-5967D01*
X-74752Y-5132D02*
X-66957Y2663D01*
X-66122Y1828D01*
X-74080Y-38681D02*
X-70183Y-42579D01*
X-77978D02*
X-77142Y-43414D01*
X-77978Y-42579D02*
X-70183Y-34784D01*
X-69348Y-35619D01*
X-67120Y-37846D02*
X-66285Y-38681D01*
X-74080Y-46476D02*
X-66285Y-38681D01*
X-74915Y-45641D02*
X-74080Y-46476D01*
X-76745Y30818D02*
X-72523Y27275D01*
X-80288Y26595D02*
X-79383Y25836D01*
X-80288Y26595D02*
X-73202Y35040D01*
X-72297Y34281D01*
X-69885Y32256D02*
X-68980Y31497D01*
X-76066Y23052D02*
X-68980Y31497D01*
X-76970Y23812D02*
X-76066Y23052D01*
X-98208Y71937D02*
X-88406Y63713D01*
X-92197Y79100D02*
X-91066Y78151D01*
X-104218Y64775D02*
X-92197Y79100D01*
X-104218Y64775D02*
X-103087Y63826D01*
X-95547Y57499D02*
X-94416Y56550D01*
X-82395Y70875D01*
X-83526Y71824D02*
X-82395Y70875D01*
X-91825Y43471D02*
X-87602Y39928D01*
X-95368Y39249D02*
X-94463Y38489D01*
X-95368Y39249D02*
X-88282Y47693D01*
X-87377Y46934D01*
X-84964Y44910D02*
X-84059Y44150D01*
X-91145Y35706D02*
X-84059Y44150D01*
X-92050Y36465D02*
X-91145Y35706D01*
X-60763Y10447D02*
X-59858Y9688D01*
X-52772Y18133D01*
X-53677Y18892D02*
X-52772Y18133D01*
X-56994Y21676D02*
X-56090Y20917D01*
X-64080Y13231D02*
X-56994Y21676D01*
X-64080Y13231D02*
X-63176Y12472D01*
X-60537Y17454D02*
X-56315Y13911D01*
X133703Y40016D02*
X134459D01*
X134459Y50016D02*
X134459Y40016D01*
X133703Y50016D02*
X134459Y50016D01*
X128947D02*
X129703Y50016D01*
X128947Y50016D02*
X128947Y40016D01*
X129703D01*
X128947Y45017D02*
X134459Y45017D01*
X128947Y38993D02*
X129703D01*
X128947Y28993D02*
Y38993D01*
Y28993D02*
X129703Y28993D01*
X133703Y28993D02*
X134459Y28993D01*
Y38993D01*
X133703D02*
X134459D01*
X128947Y33993D02*
X134459Y33993D01*
X108475Y44918D02*
X113986Y44918D01*
X108475Y39406D02*
X109656D01*
X108475D02*
Y50430D01*
X109656Y50430D01*
X112805Y50430D02*
X113986D01*
Y39406D02*
Y50430D01*
X112805Y39406D02*
X113986Y39406D01*
X87309Y61691D02*
X97111Y69916D01*
X81299Y68854D02*
X82430Y69803D01*
X81299Y68854D02*
X93320Y54528D01*
X94450Y55477D01*
X101990Y61804D02*
X103121Y62753D01*
X91101Y77078D02*
X103121Y62753D01*
X89970Y76129D02*
X91101Y77078D01*
X119498Y31237D02*
Y36749D01*
X113986Y36749D02*
X113986Y35568D01*
X113986Y36749D02*
X125010D01*
X125010Y35568D02*
X125010Y36749D01*
X125010Y32418D02*
X125010Y31237D01*
X113986D02*
X125010D01*
X113986D02*
Y32418D01*
X126860Y57646D02*
Y58402D01*
X116860D02*
X126860D01*
X116860Y57646D02*
Y58402D01*
Y52890D02*
Y53646D01*
Y52890D02*
X126860Y52890D01*
X126860Y53646D01*
X121860Y52890D02*
X121860Y58402D01*
X104022Y42309D02*
X104927Y43068D01*
X97841Y51513D02*
X104927Y43068D01*
X96937Y50753D02*
X97841Y51513D01*
X93619Y47970D02*
X94524Y48729D01*
X93619Y47970D02*
X100705Y39525D01*
X101610Y40284D01*
X97162Y43747D02*
X101384Y47290D01*
X70793Y63765D02*
X75349Y58336D01*
X79970Y63241D02*
X80476Y62638D01*
X70222Y54034D02*
X80476Y62638D01*
X69715Y54637D02*
X70222Y54034D01*
X75920Y68067D02*
X76427Y67464D01*
X65666Y59462D02*
X75920Y68067D01*
X65666Y59462D02*
X66172Y58859D01*
X81220Y84123D02*
X85442Y87665D01*
X80995Y91129D02*
X81899Y91888D01*
X88985Y83443D01*
X88081Y82684D02*
X88985Y83443D01*
X84763Y79900D02*
X85668Y80660D01*
X77677Y88345D02*
X84763Y79900D01*
X77677Y88345D02*
X78582Y89104D01*
X84640Y23989D02*
X85544Y24748D01*
X78458Y33193D02*
X85544Y24748D01*
X77554Y32434D02*
X78458Y33193D01*
X74236Y29650D02*
X75141Y30409D01*
X74236Y29650D02*
X81322Y21205D01*
X82227Y21964D01*
X77779Y25427D02*
X82001Y28970D01*
X62096Y12268D02*
X66319Y15811D01*
X62526Y19155D02*
X63105Y19641D01*
X69533Y11981D01*
X68953Y11495D02*
X69533Y11981D01*
X65310Y8438D02*
X65889Y8924D01*
X58882Y16098D02*
X65310Y8438D01*
X58882Y16098D02*
X59461Y16584D01*
X82604Y29476D02*
X86827Y33019D01*
X83034Y36364D02*
X83613Y36850D01*
X90041Y29189D01*
X89462Y28703D02*
X90041Y29189D01*
X85818Y25646D02*
X86397Y26132D01*
X79391Y33307D02*
X85818Y25646D01*
X79391Y33307D02*
X79970Y33793D01*
X-120846Y-16909D02*
X-116949Y-13012D01*
X-117311Y-20445D02*
X-116776Y-19910D01*
X-124382Y-13374D02*
X-117311Y-20445D01*
X-124382Y-13374D02*
X-123847Y-12839D01*
X-121019Y-10011D02*
X-120484Y-9476D01*
X-113413Y-16547D01*
X-113948Y-17082D02*
X-113413Y-16547D01*
X-116122Y-12185D02*
X-112224Y-8287D01*
X-112586Y-15721D02*
X-112052Y-15186D01*
X-119658Y-8649D02*
X-112586Y-15721D01*
X-119658Y-8649D02*
X-119123Y-8115D01*
X-116295Y-5286D02*
X-115760Y-4752D01*
X-108689Y-11823D01*
X-109223Y-12358D02*
X-108689Y-11823D01*
X-148425Y-4134D02*
X-148425Y-5512D01*
Y0D02*
X-148425Y-1378D01*
X-154425Y-3756D02*
X-153925Y-3756D01*
X-154425Y-3756D02*
X-154425Y-5512D01*
X-153925Y-5512D01*
X-154425Y-1756D02*
X-153925D01*
X-154425D02*
Y-0D01*
X-153925Y0D01*
X-142425Y-5512D02*
X-142425Y-4756D01*
X-154331Y-5512D02*
X-142425Y-5512D01*
X-153925Y-3756D02*
X-153925Y-5512D01*
Y-1756D02*
Y0D01*
X-154331Y0D02*
X-142425Y-0D01*
X-142425Y-756D01*
X-142425Y6299D02*
X-142425Y5543D01*
X-154331Y6299D02*
X-142425Y6299D01*
X-153925Y4543D02*
Y6299D01*
X-153925Y787D02*
X-153925Y2543D01*
X-154331Y787D02*
X-142425Y787D01*
Y1543D01*
X-154425Y6299D02*
X-153925D01*
X-154425Y4543D02*
Y6299D01*
Y4543D02*
X-153925Y4543D01*
X-154425Y787D02*
X-153925Y787D01*
X-154425Y787D02*
Y2543D01*
X-153925Y2543D01*
X-148425Y4921D02*
X-148425Y6299D01*
Y787D02*
X-148425Y2165D01*
X32677Y-57874D02*
Y-56693D01*
X21654D02*
X32677D01*
X21654Y-57874D02*
Y-56693D01*
Y-62205D02*
Y-61024D01*
Y-62205D02*
X32677D01*
Y-61024D01*
X27165Y-62205D02*
Y-56693D01*
X51968Y-50787D02*
X53150D01*
X51968Y-61811D02*
Y-50787D01*
Y-61811D02*
X53150D01*
X56299D02*
X57480D01*
Y-50787D01*
X56299D02*
X57480D01*
X51968Y-56299D02*
X57480D01*
X58661D02*
X65748D01*
X58661Y-49606D02*
X60236D01*
X58661Y-62992D02*
Y-49606D01*
Y-62992D02*
X60236D01*
X64173D02*
X65748D01*
Y-49606D01*
X64173D02*
X65748D01*
X34252Y-57087D02*
X39764D01*
X34252Y-62087D02*
X35008D01*
X34252D02*
Y-52087D01*
X35008D01*
X39008D02*
X39764D01*
Y-62087D02*
Y-52087D01*
X39008Y-62087D02*
X39764D01*
X71501Y-37852D02*
Y-30766D01*
X78194Y-32341D02*
Y-30766D01*
X64808D02*
X78194D01*
X64808Y-32341D02*
Y-30766D01*
Y-37852D02*
Y-36278D01*
Y-37852D02*
X78194D01*
Y-36278D01*
X116929Y-13189D02*
Y-11811D01*
Y-17323D02*
Y-15945D01*
X122429Y-13567D02*
X122929D01*
Y-11811D01*
X122429D02*
X122929D01*
X122429Y-15567D02*
X122929D01*
Y-17323D02*
Y-15567D01*
X122429Y-17323D02*
X122929D01*
X110929Y-12567D02*
Y-11811D01*
X122835D01*
X122429Y-13567D02*
Y-11811D01*
Y-17323D02*
Y-15567D01*
X110929Y-17323D02*
X122835D01*
X110929D02*
Y-16567D01*
X71108Y-23679D02*
Y-18168D01*
X66108Y-18923D02*
Y-18168D01*
X76108D01*
Y-18923D02*
Y-18168D01*
Y-23679D02*
Y-22923D01*
X66108Y-23679D02*
X76108D01*
X66108D02*
Y-22923D01*
X99921Y-17323D02*
Y-16567D01*
Y-17323D02*
X109921D01*
Y-16567D01*
Y-12567D02*
Y-11811D01*
X99921D02*
X109921D01*
X99921Y-12567D02*
Y-11811D01*
X104921Y-17323D02*
Y-11811D01*
X71108Y-17380D02*
Y-11868D01*
X66108Y-12624D02*
Y-11868D01*
X76108D01*
Y-12624D02*
Y-11868D01*
Y-17380D02*
Y-16624D01*
X66108Y-17380D02*
X76108D01*
X66108D02*
Y-16624D01*
X82525Y-23679D02*
Y-18168D01*
X77525Y-18923D02*
Y-18168D01*
X87525D01*
Y-18923D02*
Y-18168D01*
Y-23679D02*
Y-22923D01*
X77525Y-23679D02*
X87525D01*
X77525D02*
Y-22923D01*
X77013Y-29978D02*
Y-28797D01*
Y-29978D02*
X88037D01*
Y-28797D01*
Y-25648D02*
Y-24467D01*
X77013D02*
X88037D01*
X77013Y-25648D02*
Y-24467D01*
X82525Y-29978D02*
Y-24467D01*
X65202Y-29978D02*
Y-28797D01*
Y-29978D02*
X76226D01*
Y-28797D01*
Y-25648D02*
Y-24467D01*
X65202D02*
X76226D01*
X65202Y-25648D02*
Y-24467D01*
X70714Y-29978D02*
Y-24467D01*
X88037Y-13049D02*
Y-11868D01*
X77013D02*
X88037D01*
X77013Y-13049D02*
Y-11868D01*
Y-17380D02*
Y-16199D01*
Y-17380D02*
X88037D01*
Y-16199D01*
X82525Y-17380D02*
Y-11868D01*
X-47782Y-127593D02*
X-46846Y-125715D01*
X-47314Y-126654D01*
X-44496Y-128059D01*
X-46378Y-124775D02*
X-42623Y-124302D01*
X-45441Y-122897D02*
X-43560Y-126180D01*
X-53914Y-124536D02*
X-56732Y-123131D01*
X-56029Y-121722D01*
X-55326Y-121487D01*
X-54386Y-121955D01*
X-54151Y-122659D01*
X-54853Y-124068D01*
X-54385Y-123129D02*
X-52977Y-122658D01*
X-55327Y-120313D02*
X-51573Y-119840D01*
X-54390Y-118435D02*
X-52509Y-121718D01*
X-74630Y-114207D02*
X-74162Y-113268D01*
X-74396Y-113738D01*
X-71579Y-115143D01*
X-71813Y-115612D01*
X-71345Y-114673D01*
X-72757Y-110450D02*
X-73226Y-111390D01*
X-72990Y-112093D01*
X-71112Y-113030D01*
X-70408Y-112794D01*
X-69940Y-111855D01*
X-70175Y-111151D01*
X-72054Y-110215D01*
X-72757Y-110450D01*
X-71585Y-109275D02*
X-71821Y-108572D01*
X-71352Y-107632D01*
X-70649Y-107397D01*
X-68770Y-108334D01*
X-68535Y-109037D01*
X-69003Y-109977D01*
X-69707Y-110212D01*
X-71585Y-109275D01*
X-82643Y-107867D02*
X-83580Y-109745D01*
X-80762Y-111150D01*
X-79826Y-109272D01*
X-82171Y-110448D02*
X-81703Y-109509D01*
X-79357Y-108332D02*
X-82175Y-106928D01*
X-78421Y-106454D01*
X-81238Y-105049D01*
X-64275Y-117025D02*
X-64979Y-117260D01*
X-65447Y-118200D01*
X-65212Y-118903D01*
X-63333Y-119840D01*
X-62629Y-119605D01*
X-62161Y-118665D01*
X-62397Y-117962D01*
X-63336Y-117493D01*
X-63804Y-118432D01*
X-61458Y-117256D02*
X-64276Y-115851D01*
X-60522Y-115378D01*
X-63340Y-113973D01*
X-62871Y-113034D02*
X-60054Y-114439D01*
X-59351Y-113030D01*
X-59587Y-112326D01*
X-61465Y-111389D01*
X-62169Y-111625D01*
X-62871Y-113034D01*
X-105007Y-79131D02*
X-105736Y-78989D01*
X-106606Y-79576D01*
X-106747Y-80304D01*
X-105573Y-82045D01*
X-104845Y-82186D01*
X-103975Y-81599D01*
X-103833Y-80871D01*
X-104420Y-80001D01*
X-105290Y-80588D01*
X-102670Y-80719D02*
X-104430Y-78109D01*
X-100930Y-79545D01*
X-102690Y-76935D01*
X-101820Y-76348D02*
X-100059Y-78958D01*
X-98754Y-78078D01*
X-98613Y-77350D01*
X-99787Y-75609D01*
X-100515Y-75468D01*
X-101820Y-76348D01*
X-111444Y-73342D02*
X-109683Y-75952D01*
X-108378Y-75072D01*
X-108236Y-74343D01*
X-109410Y-72603D01*
X-110139Y-72461D01*
X-111444Y-73342D01*
X-107073Y-74191D02*
X-106203Y-73604D01*
X-106638Y-73898D01*
X-107812Y-72158D01*
X-108247Y-72451D01*
X-104898Y-72724D02*
X-106071Y-70984D01*
X-104766Y-70103D01*
X-104038Y-70245D01*
X-103157Y-71550D01*
X-116168Y-65861D02*
X-114408Y-68471D01*
X-113102Y-67591D01*
X-112961Y-66863D01*
X-114135Y-65122D01*
X-114863Y-64981D01*
X-116168Y-65861D01*
X-111362Y-66417D02*
X-110492Y-65830D01*
X-110351Y-65102D01*
X-110937Y-64232D01*
X-111666Y-64090D01*
X-112536Y-64677D01*
X-112678Y-65406D01*
X-112091Y-66276D01*
X-111362Y-66417D01*
X-110361Y-63210D02*
X-109480Y-64515D01*
X-108752Y-64657D01*
X-107447Y-63776D01*
X-108621Y-62036D01*
X-107609Y-60721D02*
X-107315Y-61156D01*
X-107750Y-61449D01*
X-106880Y-60862D01*
X-107315Y-61156D01*
X-106435Y-62461D01*
X-105707Y-62603D01*
X-131786Y-48713D02*
X-131421Y-48067D01*
X-130409Y-47787D01*
X-129763Y-48152D01*
X-129623Y-48658D01*
X-129989Y-49304D01*
X-130494Y-49444D01*
X-129989Y-49304D01*
X-129343Y-49669D01*
X-129202Y-50175D01*
X-129568Y-50821D01*
X-130579Y-51101D01*
X-131225Y-50736D01*
X-128892Y-47366D02*
X-128331Y-49389D01*
X-127039Y-50120D01*
X-126309Y-48828D01*
X-126869Y-46805D01*
X-125718Y-47030D02*
X-125352Y-46385D01*
X-124341Y-46104D01*
X-123695Y-46469D01*
X-123555Y-46975D01*
X-123920Y-47621D01*
X-124426Y-47761D01*
X-123920Y-47621D01*
X-123274Y-47987D01*
X-123134Y-48492D01*
X-123500Y-49138D01*
X-124511Y-49419D01*
X-125157Y-49053D01*
X-132913Y-38704D02*
X-133559Y-38338D01*
X-134570Y-38618D01*
X-134936Y-39264D01*
X-134375Y-41287D01*
X-133729Y-41653D01*
X-132717Y-41372D01*
X-132352Y-40726D01*
X-132632Y-39715D01*
X-133644Y-39995D01*
X-131200Y-40951D02*
X-132042Y-37917D01*
X-129178Y-40390D01*
X-130019Y-37356D01*
X-129008Y-37076D02*
X-128166Y-40110D01*
X-126649Y-39689D01*
X-126284Y-39043D01*
X-126845Y-37021D01*
X-127491Y-36655D01*
X-129008Y-37076D01*
D19*
X-149114Y-2756D02*
X-147736Y-1772D01*
X-147736Y-2756D01*
X-149114D02*
X-149114Y-1870D01*
X-149114Y-3642D02*
Y-2756D01*
X-147736Y-3740D02*
X-147736Y-2756D01*
X-149114D02*
X-147736Y-3740D01*
X-149114Y3543D02*
X-147736Y2559D01*
Y3543D01*
X-149114Y2657D02*
X-149114Y3543D01*
Y4429D01*
X-147736Y3543D02*
X-147736Y4528D01*
X-149114Y3543D02*
X-147736Y4528D01*
X116240Y-15551D02*
X117618Y-14567D01*
X116240Y-15551D02*
Y-14567D01*
X117618Y-15453D02*
Y-14567D01*
Y-13681D01*
X116240Y-14567D02*
Y-13583D01*
X117618Y-14567D01*
D20*
X-139031Y-1892D02*
X-139556Y-1367D01*
X-140605D01*
X-141130Y-1892D01*
Y-3991D01*
X-140605Y-4516D01*
X-139556D01*
X-139031Y-3991D01*
X-137457Y-4516D02*
X-136407D01*
X-135882Y-3991D01*
Y-2942D01*
X-136407Y-2417D01*
X-137457D01*
X-137981Y-2942D01*
Y-3991D01*
X-137457Y-4516D01*
X-134833D02*
X-133783D01*
X-134308D01*
Y-2417D01*
X-134833D01*
X-132209Y-4516D02*
X-131159D01*
X-131684D01*
Y-1367D01*
X-132209D01*
X-140736Y1784D02*
Y4932D01*
X-139687Y3883D01*
X-138637Y4932D01*
Y1784D01*
X-137063D02*
X-136013D01*
X-135489Y2308D01*
Y3358D01*
X-136013Y3883D01*
X-137063D01*
X-137588Y3358D01*
Y2308D01*
X-137063Y1784D01*
X-133914Y4407D02*
Y3883D01*
X-134439D01*
X-133389D01*
X-133914D01*
Y2308D01*
X-133389Y1784D01*
X-131290D02*
X-130241D01*
X-129716Y2308D01*
Y3358D01*
X-130241Y3883D01*
X-131290D01*
X-131815Y3358D01*
Y2308D01*
X-131290Y1784D01*
X-128667Y3883D02*
Y1784D01*
Y2833D01*
X-128142Y3358D01*
X-127617Y3883D01*
X-127092D01*
D21*
X55392Y87101D02*
X54393Y88100D01*
X52393D01*
X51394Y87101D01*
Y83102D01*
X52393Y82102D01*
X54393D01*
X55392Y83102D01*
X58391Y82102D02*
X60391D01*
X61391Y83102D01*
Y85101D01*
X60391Y86101D01*
X58391D01*
X57392Y85101D01*
Y83102D01*
X58391Y82102D01*
X63390D02*
X65389D01*
X64389D01*
Y86101D01*
X63390D01*
X68388Y82102D02*
X70388D01*
X69388D01*
Y88100D01*
X68388D01*
X-81283Y91250D02*
Y85252D01*
X-78284D01*
X-77285Y86252D01*
Y87251D01*
X-78284Y88251D01*
X-81283D01*
X-78284D01*
X-77285Y89251D01*
Y90250D01*
X-78284Y91250D01*
X-81283D01*
X-75285D02*
Y85252D01*
X-71287D01*
X-69287Y91250D02*
Y85252D01*
X-66288D01*
X-65289Y86252D01*
Y90250D01*
X-66288Y91250D01*
X-69287D01*
X-59291Y90250D02*
X-60290Y91250D01*
X-62290D01*
X-63289Y90250D01*
Y86252D01*
X-62290Y85252D01*
X-60290D01*
X-59291Y86252D01*
X157480Y0D02*
X157477Y1001D01*
X157468Y2001D01*
X157452Y3001D01*
X157430Y4002D01*
X157401Y5002D01*
X157366Y6001D01*
X157325Y7001D01*
X157277Y8000D01*
X157223Y8999D01*
X157163Y9998D01*
X157096Y10996D01*
X157023Y11994D01*
X156944Y12991D01*
X156858Y13988D01*
X156766Y14985D01*
X156667Y15980D01*
X156563Y16975D01*
X156452Y17969D01*
X156334Y18963D01*
X156211Y19956D01*
X156081Y20948D01*
X155945Y21939D01*
X155802Y22929D01*
X155653Y23919D01*
X155498Y24907D01*
X155337Y25894D01*
X155169Y26881D01*
X154995Y27866D01*
X154815Y28850D01*
X154629Y29833D01*
X154436Y30815D01*
X154237Y31795D01*
X154032Y32775D01*
X153821Y33753D01*
X153603Y34729D01*
X153379Y35704D01*
X153149Y36678D01*
X152913Y37650D01*
X152671Y38621D01*
X152423Y39590D01*
X152168Y40558D01*
X151907Y41524D01*
X151640Y42488D01*
X151367Y43450D01*
X151088Y44411D01*
X150803Y45370D01*
X150512Y46327D01*
X150215Y47282D01*
X149911Y48236D01*
X149602Y49187D01*
X149286Y50137D01*
X148965Y51084D01*
X148637Y52029D01*
X148304Y52973D01*
X147964Y53914D01*
X147619Y54853D01*
X147267Y55789D01*
X146910Y56724D01*
X146546Y57656D01*
X146177Y58586D01*
X145802Y59513D01*
X145421Y60438D01*
X145034Y61361D01*
X144641Y62281D01*
X144243Y63199D01*
X143838Y64114D01*
X143428Y65026D01*
X143012Y65936D01*
X142590Y66844D01*
X142163Y67748D01*
X141729Y68650D01*
X141290Y69549D01*
X140846Y70445D01*
X140395Y71338D01*
X139939Y72229D01*
X139478Y73117D01*
X139010Y74001D01*
X138537Y74883D01*
X138059Y75761D01*
X137575Y76637D01*
X137085Y77509D01*
X136590Y78379D01*
X136089Y79245D01*
X135583Y80108D01*
X135071Y80968D01*
X134554Y81824D01*
X134032Y82677D01*
X133504Y83527D01*
X132970Y84374D01*
X132432Y85217D01*
X131888Y86056D01*
X131338Y86893D01*
X130784Y87725D01*
X130224Y88554D01*
X129658Y89380D01*
X129088Y90202D01*
X128512Y91020D01*
X127931Y91835D01*
X127345Y92646D01*
X126754Y93453D01*
X126158Y94256D01*
X125557Y95056D01*
X124950Y95851D01*
X124339Y96643D01*
X123722Y97431D01*
X123101Y98215D01*
X122474Y98995D01*
X121843Y99771D01*
X121207Y100543D01*
X120565Y101312D01*
X119919Y102075D01*
X119269Y102835D01*
X118613Y103591D01*
X117952Y104342D01*
X117287Y105089D01*
X116617Y105833D01*
X115942Y106571D01*
X115263Y107306D01*
X114579Y108036D01*
X113890Y108762D01*
X113197Y109483D01*
X112499Y110200D01*
X111797Y110912D01*
X111090Y111620D01*
X110379Y112324D01*
X109663Y113023D01*
X108942Y113717D01*
X108218Y114407D01*
X107489Y115092D01*
X106755Y115773D01*
X106018Y116449D01*
X105276Y117120D01*
X104530Y117786D01*
X103779Y118448D01*
X103025Y119105D01*
X102266Y119757D01*
X101503Y120404D01*
X100736Y121047D01*
X99965Y121684D01*
X99190Y122317D01*
X98411Y122944D01*
X97628Y123567D01*
X96841Y124185D01*
X96050Y124798D01*
X95255Y125405D01*
X94457Y126008D01*
X93654Y126605D01*
X92848Y127198D01*
X92038Y127785D01*
X91224Y128367D01*
X90407Y128944D01*
X89586Y129516D01*
X88761Y130083D01*
X87933Y130644D01*
X87101Y131200D01*
X86266Y131751D01*
X85427Y132296D01*
X84585Y132836D01*
X83740Y133371D01*
X82890Y133900D01*
X82038Y134424D01*
X81182Y134942D01*
X80324Y135455D01*
X79461Y135963D01*
X78596Y136465D01*
X77728Y136962D01*
X76856Y137453D01*
X75981Y137938D01*
X75103Y138418D01*
X74222Y138892D01*
X73338Y139361D01*
X72452Y139824D01*
X71562Y140282D01*
X70669Y140734D01*
X69774Y141180D01*
X68875Y141620D01*
X67974Y142055D01*
X67070Y142484D01*
X66164Y142907D01*
X65254Y143324D01*
X64343Y143736D01*
X63428Y144142D01*
X62511Y144542D01*
X61592Y144936D01*
X60670Y145325D01*
X59745Y145707D01*
X58818Y146084D01*
X57889Y146455D01*
X56957Y146819D01*
X56024Y147178D01*
X55087Y147531D01*
X54149Y147878D01*
X53208Y148219D01*
X52266Y148554D01*
X51321Y148883D01*
X50374Y149206D01*
X49425Y149523D01*
X48474Y149834D01*
X47521Y150139D01*
X46566Y150438D01*
X45610Y150731D01*
X44651Y151018D01*
X43691Y151298D01*
X42729Y151573D01*
X41765Y151841D01*
X40799Y152103D01*
X39832Y152360D01*
X38864Y152610D01*
X37893Y152853D01*
X36921Y153091D01*
X35948Y153323D01*
X34973Y153548D01*
X33997Y153767D01*
X33019Y153980D01*
X32041Y154186D01*
X31060Y154387D01*
X30079Y154581D01*
X29096Y154769D01*
X28112Y154951D01*
X27127Y155126D01*
X26141Y155296D01*
X25154Y155458D01*
X24166Y155615D01*
X23177Y155765D01*
X22187Y155910D01*
X21196Y156047D01*
X20204Y156179D01*
X19211Y156304D01*
X18218Y156423D01*
X17224Y156536D01*
X16229Y156642D01*
X15234Y156742D01*
X14238Y156835D01*
X13241Y156923D01*
X12244Y157004D01*
X11246Y157078D01*
X10248Y157147D01*
X9249Y157209D01*
X8250Y157264D01*
X7251Y157313D01*
X6251Y157356D01*
X5252Y157393D01*
X4252Y157423D01*
X3251Y157447D01*
X2251Y157464D01*
X1251Y157475D01*
X250Y157480D01*
X-750Y157478D01*
X-1751Y157471D01*
X-2751Y157456D01*
X-3751Y157436D01*
X-4752Y157409D01*
X-5751Y157375D01*
X-6751Y157335D01*
X-7751Y157290D01*
X-8750Y157237D01*
X-9748Y157178D01*
X-10747Y157113D01*
X-11745Y157042D01*
X-12742Y156964D01*
X-13739Y156880D01*
X-14736Y156789D01*
X-15731Y156693D01*
X-16727Y156589D01*
X-17721Y156480D01*
X-18715Y156364D01*
X-19708Y156242D01*
X-20700Y156114D01*
X-21691Y155979D01*
X-22682Y155838D01*
X-23672Y155691D01*
X-24660Y155537D01*
X-25648Y155378D01*
X-26634Y155212D01*
X-27620Y155039D01*
X-28604Y154861D01*
X-29588Y154676D01*
X-30570Y154485D01*
X-31550Y154287D01*
X-32530Y154084D01*
X-33508Y153874D01*
X-34485Y153658D01*
X-35461Y153436D01*
X-36435Y153208D01*
X-37407Y152973D01*
X-38379Y152732D01*
X-39348Y152485D01*
X-40316Y152232D01*
X-41282Y151973D01*
X-42247Y151708D01*
X-43210Y151436D01*
X-44171Y151159D01*
X-45131Y150875D01*
X-46088Y150585D01*
X-47044Y150289D01*
X-47998Y149987D01*
X-48950Y149680D01*
X-49900Y149366D01*
X-50848Y149046D01*
X-51793Y148720D01*
X-52737Y148387D01*
X-53679Y148049D01*
X-54618Y147705D01*
X-55556Y147355D01*
X-56491Y147000D01*
X-57423Y146638D01*
X-58354Y146270D01*
X-59282Y145896D01*
X-60208Y145517D01*
X-61131Y145131D01*
X-62052Y144740D01*
X-62970Y144343D01*
X-63886Y143940D01*
X-64799Y143531D01*
X-65709Y143116D01*
X-66617Y142696D01*
X-67523Y142270D01*
X-68425Y141838D01*
X-69325Y141401D01*
X-70222Y140957D01*
X-71116Y140508D01*
X-72007Y140054D01*
X-72895Y139593D01*
X-73781Y139128D01*
X-74663Y138656D01*
X-75542Y138179D01*
X-76419Y137696D01*
X-77292Y137208D01*
X-78162Y136714D01*
X-79029Y136215D01*
X-79893Y135710D01*
X-80753Y135199D01*
X-81611Y134684D01*
X-82465Y134163D01*
X-83315Y133636D01*
X-84163Y133104D01*
X-85007Y132567D01*
X-85847Y132024D01*
X-86684Y131476D01*
X-87518Y130922D01*
X-88348Y130364D01*
X-89174Y129800D01*
X-89997Y129231D01*
X-90816Y128656D01*
X-91632Y128077D01*
X-92444Y127492D01*
X-93252Y126902D01*
X-94056Y126307D01*
X-94857Y125707D01*
X-95653Y125102D01*
X-96446Y124492D01*
X-97235Y123877D01*
X-98020Y123256D01*
X-98801Y122631D01*
X-99578Y122001D01*
X-100351Y121366D01*
X-101120Y120726D01*
X-101885Y120081D01*
X-102646Y119431D01*
X-103403Y118777D01*
X-104155Y118117D01*
X-104903Y117453D01*
X-105648Y116785D01*
X-106387Y116111D01*
X-107123Y115433D01*
X-107854Y114750D01*
X-108581Y114062D01*
X-109303Y113370D01*
X-110021Y112674D01*
X-110735Y111972D01*
X-111444Y111267D01*
X-112149Y110556D01*
X-112849Y109842D01*
X-113544Y109123D01*
X-114235Y108399D01*
X-114921Y107671D01*
X-115603Y106939D01*
X-116280Y106202D01*
X-116953Y105462D01*
X-117620Y104716D01*
X-118283Y103967D01*
X-118941Y103214D01*
X-119595Y102456D01*
X-120243Y101694D01*
X-120887Y100928D01*
X-121525Y100158D01*
X-122159Y99384D01*
X-122788Y98606D01*
X-123412Y97824D01*
X-124031Y97038D01*
X-124645Y96248D01*
X-125254Y95454D01*
X-125858Y94656D01*
X-126457Y93855D01*
X-127050Y93050D01*
X-127639Y92241D01*
X-128222Y91428D01*
X-128801Y90611D01*
X-129374Y89791D01*
X-129941Y88968D01*
X-130504Y88140D01*
X-131061Y87309D01*
X-131614Y86475D01*
X-132160Y85637D01*
X-132702Y84796D01*
X-133238Y83951D01*
X-133768Y83103D01*
X-134293Y82252D01*
X-134813Y81397D01*
X-135328Y80539D01*
X-135837Y79677D01*
X-136340Y78813D01*
X-136838Y77945D01*
X-137330Y77074D01*
X-137817Y76200D01*
X-138299Y75323D01*
X-138774Y74443D01*
X-139244Y73560D01*
X-139709Y72674D01*
X-140168Y71785D01*
X-140621Y70893D01*
X-141069Y69998D01*
X-141510Y69100D01*
X-141947Y68200D01*
X-142377Y67297D01*
X-142802Y66391D01*
X-143220Y65482D01*
X-143634Y64571D01*
X-144041Y63657D01*
X-144442Y62741D01*
X-144838Y61822D01*
X-145228Y60901D01*
X-145612Y59977D01*
X-145990Y59051D01*
X-146362Y58122D01*
X-146729Y57191D01*
X-147089Y56258D01*
X-147443Y55322D01*
X-147792Y54384D01*
X-148134Y53444D01*
X-148471Y52502D01*
X-148801Y51558D01*
X-149126Y50611D01*
X-149444Y49663D01*
X-149757Y48713D01*
X-150063Y47760D01*
X-150364Y46806D01*
X-150658Y45850D01*
X-150946Y44892D01*
X-151228Y43932D01*
X-151505Y42970D01*
X-151774Y42007D01*
X-152038Y41042D01*
X-152296Y40075D01*
X-152547Y39107D01*
X-152793Y38137D01*
X-153032Y37165D01*
X-153265Y36192D01*
X-153492Y35218D01*
X-153712Y34242D01*
X-153927Y33265D01*
X-154135Y32286D01*
X-154337Y31306D01*
X-154533Y30325D01*
X-154722Y29343D01*
X-154906Y28359D01*
X-155083Y27375D01*
X-155254Y26389D01*
X-155418Y25402D01*
X-155576Y24414D01*
X-155728Y23425D01*
X-155874Y22436D01*
X-156013Y21445D01*
X-156146Y20453D01*
X-156273Y19461D01*
X-156394Y18468D01*
X-156508Y17474D01*
X-156616Y16479D01*
X-156717Y15484D01*
X-156813Y14488D01*
X-156901Y13491D01*
X-156984Y12494D01*
X-157060Y11497D01*
X-157130Y10499D01*
X-157194Y9500D01*
X-157251Y8501D01*
X-157301Y7502D01*
X-157346Y6503D01*
X-157384Y5503D01*
X-157416Y4503D01*
X-157441Y3503D01*
X-157460Y2503D01*
X-157473Y1502D01*
X-157480Y502D01*
X-157480Y-499D01*
X-157473Y-1499D01*
X-157460Y-2499D01*
X-157441Y-3500D01*
X-157416Y-4500D01*
X-157384Y-5500D01*
X-157346Y-6499D01*
X-157302Y-7499D01*
X-157251Y-8498D01*
X-157194Y-9497D01*
X-157130Y-10496D01*
X-157060Y-11494D01*
X-156984Y-12491D01*
X-156902Y-13488D01*
X-156813Y-14485D01*
X-156718Y-15481D01*
X-156616Y-16476D01*
X-156508Y-17470D01*
X-156394Y-18464D01*
X-156274Y-19458D01*
X-156147Y-20450D01*
X-156014Y-21442D01*
X-155874Y-22432D01*
X-155729Y-23422D01*
X-155577Y-24411D01*
X-155419Y-25399D01*
X-155254Y-26386D01*
X-155083Y-27371D01*
X-154906Y-28356D01*
X-154723Y-29340D01*
X-154534Y-30322D01*
X-154338Y-31303D01*
X-154136Y-32283D01*
X-153928Y-33262D01*
X-153713Y-34239D01*
X-153493Y-35215D01*
X-153266Y-36189D01*
X-153033Y-37162D01*
X-152794Y-38133D01*
X-152548Y-39103D01*
X-152297Y-40072D01*
X-152039Y-41039D01*
X-151775Y-42004D01*
X-151505Y-42967D01*
X-151229Y-43929D01*
X-150947Y-44888D01*
X-150659Y-45847D01*
X-150365Y-46803D01*
X-150064Y-47757D01*
X-149758Y-48709D01*
X-149445Y-49660D01*
X-149127Y-50608D01*
X-148802Y-51555D01*
X-148472Y-52499D01*
X-148135Y-53441D01*
X-147793Y-54381D01*
X-147444Y-55319D01*
X-147090Y-56254D01*
X-146730Y-57188D01*
X-146363Y-58119D01*
X-145991Y-59047D01*
X-145613Y-59974D01*
X-145229Y-60898D01*
X-144839Y-61819D01*
X-144444Y-62738D01*
X-144042Y-63654D01*
X-143635Y-64568D01*
X-143222Y-65479D01*
X-142803Y-66388D01*
X-142378Y-67294D01*
X-141948Y-68197D01*
X-141512Y-69097D01*
X-141070Y-69995D01*
X-140622Y-70890D01*
X-140169Y-71782D01*
X-139710Y-72671D01*
X-139246Y-73557D01*
X-138776Y-74440D01*
X-138300Y-75320D01*
X-137819Y-76197D01*
X-137332Y-77071D01*
X-136840Y-77942D01*
X-136342Y-78810D01*
X-135838Y-79674D01*
X-135329Y-80536D01*
X-134815Y-81394D01*
X-134295Y-82249D01*
X-133770Y-83100D01*
X-133239Y-83948D01*
X-132703Y-84793D01*
X-132162Y-85634D01*
X-131615Y-86472D01*
X-131063Y-87307D01*
X-130506Y-88138D01*
X-129943Y-88965D01*
X-129376Y-89789D01*
X-128803Y-90609D01*
X-128224Y-91425D01*
X-127641Y-92238D01*
X-127052Y-93047D01*
X-126459Y-93852D01*
X-125860Y-94654D01*
X-125256Y-95451D01*
X-124647Y-96245D01*
X-124033Y-97035D01*
X-123414Y-97821D01*
X-122790Y-98603D01*
X-122161Y-99381D01*
X-121528Y-100155D01*
X-120889Y-100926D01*
X-120245Y-101691D01*
X-119597Y-102453D01*
X-118943Y-103211D01*
X-118285Y-103965D01*
X-117622Y-104714D01*
X-116955Y-105459D01*
X-116282Y-106200D01*
X-115605Y-106937D01*
X-114924Y-107669D01*
X-114237Y-108397D01*
X-113547Y-109120D01*
X-112851Y-109839D01*
X-112151Y-110554D01*
X-111446Y-111264D01*
X-110737Y-111970D01*
X-110024Y-112671D01*
X-109306Y-113368D01*
X-108583Y-114060D01*
X-107856Y-114748D01*
X-107125Y-115431D01*
X-106390Y-116109D01*
X-105650Y-116782D01*
X-104906Y-117451D01*
X-104158Y-118115D01*
X-103405Y-118775D01*
X-102648Y-119429D01*
X-101888Y-120079D01*
X-101123Y-120724D01*
X-100354Y-121364D01*
X-99581Y-121999D01*
X-98804Y-122629D01*
X-98023Y-123254D01*
X-97238Y-123874D01*
X-96449Y-124490D01*
X-95656Y-125100D01*
X-94859Y-125705D01*
X-94059Y-126305D01*
X-93254Y-126900D01*
X-92446Y-127490D01*
X-91635Y-128075D01*
X-90819Y-128654D01*
X-90000Y-129229D01*
X-89177Y-129798D01*
X-88351Y-130362D01*
X-87521Y-130921D01*
X-86687Y-131474D01*
X-85850Y-132022D01*
X-85010Y-132565D01*
X-84166Y-133102D01*
X-83319Y-133634D01*
X-82468Y-134161D01*
X-81614Y-134682D01*
X-80757Y-135198D01*
X-79896Y-135708D01*
X-79032Y-136213D01*
X-78166Y-136712D01*
X-77295Y-137206D01*
X-76422Y-137694D01*
X-75546Y-138177D01*
X-74667Y-138654D01*
X-73784Y-139126D01*
X-72899Y-139592D01*
X-72010Y-140052D01*
X-71119Y-140506D01*
X-70225Y-140955D01*
X-69328Y-141399D01*
X-68429Y-141836D01*
X-67526Y-142268D01*
X-66621Y-142694D01*
X-65713Y-143115D01*
X-64803Y-143529D01*
X-63889Y-143938D01*
X-62974Y-144341D01*
X-62055Y-144738D01*
X-61135Y-145130D01*
X-60211Y-145515D01*
X-59286Y-145895D01*
X-58358Y-146268D01*
X-57427Y-146636D01*
X-56495Y-146998D01*
X-55560Y-147354D01*
X-54622Y-147704D01*
X-53683Y-148048D01*
X-52741Y-148386D01*
X-51798Y-148718D01*
X-50852Y-149044D01*
X-49904Y-149364D01*
X-48954Y-149678D01*
X-48002Y-149986D01*
X-47048Y-150288D01*
X-46093Y-150584D01*
X-45135Y-150874D01*
X-44175Y-151157D01*
X-43214Y-151435D01*
X-42251Y-151707D01*
X-41287Y-151972D01*
X-40321Y-152231D01*
X-39353Y-152484D01*
X-38383Y-152731D01*
X-37412Y-152972D01*
X-36439Y-153207D01*
X-35465Y-153435D01*
X-34490Y-153657D01*
X-33513Y-153873D01*
X-32535Y-154083D01*
X-31555Y-154287D01*
X-30574Y-154484D01*
X-29592Y-154675D01*
X-28609Y-154860D01*
X-27624Y-155038D01*
X-26639Y-155211D01*
X-25652Y-155377D01*
X-24665Y-155537D01*
X-23676Y-155690D01*
X-22686Y-155838D01*
X-21696Y-155979D01*
X-20704Y-156113D01*
X-19712Y-156242D01*
X-18719Y-156364D01*
X-17725Y-156480D01*
X-16731Y-156589D01*
X-15736Y-156692D01*
X-14740Y-156789D01*
X-13743Y-156879D01*
X-12746Y-156964D01*
X-11749Y-157041D01*
X-10751Y-157113D01*
X-9753Y-157178D01*
X-8754Y-157237D01*
X-7755Y-157289D01*
X-6755Y-157335D01*
X-5756Y-157375D01*
X-4756Y-157408D01*
X-3755Y-157436D01*
X-2755Y-157456D01*
X-1755Y-157471D01*
X-754Y-157478D01*
X246Y-157480D01*
X1247Y-157475D01*
X2247Y-157464D01*
X3248Y-157447D01*
X4248Y-157423D01*
X5248Y-157393D01*
X6248Y-157356D01*
X7247Y-157314D01*
X8247Y-157264D01*
X9245Y-157209D01*
X10244Y-157147D01*
X11242Y-157079D01*
X12240Y-157004D01*
X13237Y-156923D01*
X14234Y-156836D01*
X15230Y-156742D01*
X16226Y-156642D01*
X17220Y-156536D01*
X18215Y-156423D01*
X19208Y-156305D01*
X20201Y-156179D01*
X21192Y-156048D01*
X22184Y-155910D01*
X23174Y-155766D01*
X24163Y-155616D01*
X25151Y-155459D01*
X26138Y-155296D01*
X27124Y-155127D01*
X28109Y-154951D01*
X29093Y-154770D01*
X30076Y-154582D01*
X31057Y-154387D01*
X32037Y-154187D01*
X33016Y-153980D01*
X33994Y-153768D01*
X34970Y-153549D01*
X35945Y-153323D01*
X36918Y-153092D01*
X37890Y-152854D01*
X38861Y-152610D01*
X39829Y-152360D01*
X40797Y-152104D01*
X41762Y-151842D01*
X42726Y-151574D01*
X43688Y-151299D01*
X44648Y-151019D01*
X45607Y-150732D01*
X46564Y-150439D01*
X47518Y-150140D01*
X48471Y-149835D01*
X49422Y-149524D01*
X50371Y-149207D01*
X51318Y-148884D01*
X52263Y-148555D01*
X53206Y-148220D01*
X54146Y-147879D01*
X55085Y-147532D01*
X56021Y-147179D01*
X56955Y-146820D01*
X57886Y-146455D01*
X58816Y-146085D01*
X59743Y-145708D01*
X60667Y-145326D01*
X61589Y-144937D01*
X62509Y-144543D01*
X63426Y-144143D01*
X64340Y-143737D01*
X65252Y-143325D01*
X66162Y-142908D01*
X67068Y-142485D01*
X67972Y-142056D01*
X68873Y-141621D01*
X69771Y-141181D01*
X70667Y-140735D01*
X71560Y-140283D01*
X72449Y-139825D01*
X73336Y-139362D01*
X74220Y-138893D01*
X75101Y-138419D01*
X75979Y-137939D01*
X76854Y-137454D01*
X77726Y-136963D01*
X78594Y-136466D01*
X79460Y-135964D01*
X80322Y-135456D01*
X81181Y-134943D01*
X82037Y-134425D01*
X82889Y-133901D01*
X83738Y-133372D01*
X84584Y-132837D01*
X85426Y-132297D01*
X86265Y-131752D01*
X87100Y-131201D01*
X87932Y-130645D01*
X88760Y-130084D01*
X89584Y-129517D01*
X90406Y-128945D01*
X91223Y-128368D01*
X92037Y-127786D01*
X92847Y-127199D01*
X93653Y-126606D01*
X94455Y-126009D01*
X95254Y-125406D01*
X96049Y-124799D01*
X96840Y-124186D01*
X97627Y-123568D01*
X98410Y-122945D01*
X99189Y-122318D01*
X99964Y-121685D01*
X100735Y-121047D01*
X101502Y-120405D01*
X102265Y-119758D01*
X103024Y-119106D01*
X103779Y-118449D01*
X104529Y-117787D01*
X105275Y-117120D01*
X106017Y-116449D01*
X106755Y-115773D01*
X107488Y-115093D01*
X108217Y-114408D01*
X108942Y-113718D01*
X109662Y-113023D01*
X110378Y-112324D01*
X111089Y-111621D01*
X111796Y-110913D01*
X112499Y-110200D01*
X113197Y-109483D01*
X113890Y-108762D01*
X114578Y-108036D01*
X115263Y-107306D01*
X115942Y-106572D01*
X116617Y-105833D01*
X117287Y-105090D01*
X117952Y-104343D01*
X118613Y-103591D01*
X119268Y-102835D01*
X119919Y-102076D01*
X120565Y-101312D01*
X121206Y-100544D01*
X121843Y-99772D01*
X122474Y-98996D01*
X123101Y-98215D01*
X123722Y-97431D01*
X124339Y-96643D01*
X124950Y-95851D01*
X125557Y-95056D01*
X126158Y-94256D01*
X126754Y-93453D01*
X127346Y-92646D01*
X127931Y-91835D01*
X128512Y-91020D01*
X129088Y-90202D01*
X129658Y-89380D01*
X130224Y-88554D01*
X130784Y-87725D01*
X131338Y-86892D01*
X131888Y-86056D01*
X132432Y-85216D01*
X132971Y-84373D01*
X133504Y-83527D01*
X134032Y-82677D01*
X134554Y-81824D01*
X135072Y-80967D01*
X135583Y-80108D01*
X136090Y-79245D01*
X136590Y-78378D01*
X137085Y-77509D01*
X137575Y-76637D01*
X138059Y-75761D01*
X138538Y-74882D01*
X139011Y-74001D01*
X139478Y-73116D01*
X139940Y-72228D01*
X140396Y-71338D01*
X140846Y-70445D01*
X141291Y-69548D01*
X141730Y-68649D01*
X142163Y-67747D01*
X142591Y-66843D01*
X143012Y-65935D01*
X143428Y-65026D01*
X143839Y-64113D01*
X144243Y-63198D01*
X144642Y-62280D01*
X145034Y-61360D01*
X145421Y-60437D01*
X145802Y-59512D01*
X146177Y-58585D01*
X146547Y-57655D01*
X146910Y-56723D01*
X147267Y-55788D01*
X147619Y-54852D01*
X147965Y-53913D01*
X148304Y-52971D01*
X148638Y-52028D01*
X148965Y-51083D01*
X149287Y-50135D01*
X149602Y-49186D01*
X149912Y-48234D01*
X150215Y-47281D01*
X150512Y-46326D01*
X150804Y-45368D01*
X151089Y-44409D01*
X151368Y-43449D01*
X151641Y-42486D01*
X151908Y-41522D01*
X152169Y-40556D01*
X152423Y-39588D01*
X152672Y-38619D01*
X152914Y-37648D01*
X153150Y-36676D01*
X153380Y-35702D01*
X153604Y-34727D01*
X153821Y-33751D01*
X154032Y-32773D01*
X154237Y-31794D01*
X154436Y-30813D01*
X154629Y-29831D01*
X154815Y-28848D01*
X154996Y-27864D01*
X155169Y-26879D01*
X155337Y-25892D01*
X155499Y-24905D01*
X155654Y-23917D01*
X155802Y-22927D01*
X155945Y-21937D01*
X156081Y-20946D01*
X156211Y-19954D01*
X156335Y-18961D01*
X156452Y-17967D01*
X156563Y-16973D01*
X156668Y-15978D01*
X156766Y-14982D01*
X156858Y-13986D01*
X156944Y-12989D01*
X157023Y-11992D01*
X157096Y-10994D01*
X157163Y-9996D01*
X157223Y-8997D01*
X157277Y-7998D01*
X157325Y-6999D01*
X157366Y-5999D01*
X157401Y-4999D01*
X157430Y-3999D01*
X157452Y-2999D01*
X157468Y-1998D01*
X157477Y-998D01*
X157480Y0D01*
D22*
X-28199Y58957D02*
D03*
X-12746Y58956D02*
D03*
X12746Y58956D02*
D03*
X28199Y58957D02*
D03*
M02*
