M48
;Layer_Color=9474304
;FILE_FORMAT=2:4
INCH,TZ
;TYPE=PLATED
T1F00S00C0.0138
T2F00S00C0.0276
T3F00S00C0.0315
T4F00S00C0.0390
T5F00S00C0.0394
T7F00S00C0.0433
;TYPE=NON_PLATED
T8F00S00C0.1181
T9F00S00C0.3150
%
T01
X-1535Y-11850
X-1614Y-8386
X1035Y-9724
X1035Y-10447
X1758
X2480
Y-9724
X1758
X2480Y-9002
X-8898Y-9370
X-8992Y-3398
Y-2157
X-10240
X-10752Y-761
X-11136Y-376
X-10394Y0
X-8992Y-839
X-8501Y1668
X-8342Y2409
X-9217Y3142
X-9858Y2807
X-9714Y3714
X-9615Y5301
X-9331Y5089
X-9887Y5529
X-10755Y4433
X-8285Y4314
X-8034Y4000
X-8558Y6377
X-10528Y-3893
X-10166Y-4282
X-11016Y-3461
X-11392Y-3085
X-7653Y-3810
X-7415Y-4237
X-7025Y-3875
X-7681Y-2157
X-6890Y-1142
X-6732Y-787
X-7078Y-506
X-6142Y197
X-5827Y472
X-6022Y1355
X-5668Y1730
X-6328Y2543
X-6580Y2794
X-6871Y2999
X-7763Y3773
X-7739Y1902
X-6835Y1143
X-6085Y4302
X-7322Y5340
X-5803Y7149
X-5201Y7071
X-4930Y6843
X-4567Y6112
X-3965Y6033
X-3693Y5805
X-3504Y7205
X-3898
X3543Y7323
X3937
X4135Y6578
X4337Y6337
X4609Y6565
X4406Y6806
X5422Y6820
X5544Y7349
X6005Y6554
X6283Y6223
X6645Y6526
X6367Y6858
X5130Y5820
X5409Y5489
X5047Y5185
X4769Y5517
X4185Y5783
X5704Y3973
X6058Y4286
X6330Y4514
X6679Y4036
X6957Y3704
X6257Y3682
X6535Y3350
X6729Y2690
X6312Y2392
X6040Y2164
X7638Y1024
X6811Y-572
X2559Y-591
X2165
Y-197
X2559
Y197
X2165
Y591
X2559
X591Y2165
Y2559
X197
Y2165
X-197
Y2559
X-591
Y2165
X-2165Y591
X-2559
Y197
X-2165
Y-197
X-2559
Y-591
X-2165
X-591Y-2165
Y-2559
X-197
Y-2165
X197
Y-2559
X591
Y-2165
X-5118Y-2323
X-5433Y-1969
X-4373Y-6021
X-4094Y-6299
X-3816Y-6021
X-4094Y-5742
X-4651Y-6299
X-4373Y-6578
X-4651Y-6856
X-4930Y-6578
X-3673Y-7643
X-3394Y-7922
Y-7365
X-3116Y-7643
X-3116Y-7087
X-2837Y-7365
X-2559Y-7087
X-2837Y-6808
X-1260Y-7441
X-945Y-7835
X3710Y-5965
X6940Y5011
X7295Y5324
X7566Y5551
X7493Y4719
X7772Y4388
X8194Y4742
X7915Y5074
X8016Y3668
X8518Y3781
X8579Y4217
X10173Y3730
X9685Y1890
X9409Y2165
X8209Y1723
X8031Y1063
X8829Y-118
X9360
X8740Y-1024
X9394Y-1964
X9244Y-2697
Y-3288
X8653
X8102
X8031Y-5236
Y-5630
X8425
Y-5236
X8819
Y-5630
X9213
Y-5236
X10906Y-5236
X11299
Y-4843
X10906
Y-5630
X11299
Y-6024
X10906
X12216Y3399
X12186Y4462
X8465Y7480
X8504Y8386
X5613Y7818
X5815Y7577
X5341Y7590
X3937Y7717
X3543
Y8110
X3937
Y8504
X3543
X2362Y8780
X1732
X2047Y8435
X1732Y8110
X2362
X-1732Y8150
X-2362
X-2047Y8474
X-2362Y8819
X-1732
X-3504Y8386
X-3898
Y7992
X-3504
Y7598
X-3898
X-6136Y7855
X-6438Y8108
X-7010Y8162
X-669Y14528
Y15000
X-118
Y14528
X433
Y15000
T02
X-3643Y14322
X-2868Y14459
X-2093Y14596
X-1317Y14733
T03
X-11804Y-8881
X-12244Y-8228
X-12684Y-7576
T04
X-14775Y1496
X-13030Y1188
X-12586Y3708
X-14331Y4016
T05
X-7749Y6485
X-6512Y5447
X-5276Y4409
X5709Y4764
X7910Y6611
T07
X-7681Y-12165
X-6786Y-12612
X-5891Y-13058
X-4996Y-13504
X-4101Y-13950
X-8576Y-11719
X-13584Y-6149
X-13851Y-5186
X-14118Y-4222
X-14386Y-3258
X-14653Y-2295
X-14920Y-1331
X-4064Y0
X0Y-4064
X4064Y0
X0Y4064
T08
X10236Y-10236
X-10236
X-2645Y-2645
X2227Y-2227
X2645Y2645
X-2227Y2227
X10236Y10236
X-10236
T09
X0Y0
M30
