G04*
G04 #@! TF.GenerationSoftware,Altium Limited,Altium Designer,24.4.1 (13)*
G04*
G04 Layer_Color=16711935*
%FSLAX44Y44*%
%MOMM*%
G71*
G04*
G04 #@! TF.SameCoordinates,1D3D786A-4C35-496E-9A10-02EDD5D57B8C*
G04*
G04*
G04 #@! TF.FilePolarity,Negative*
G04*
G01*
G75*
%ADD43C,1.2000*%
%ADD46R,1.1032X1.2032*%
%ADD52R,1.0532X1.1532*%
%ADD54R,1.2032X1.1032*%
%ADD67C,1.5032*%
%ADD68R,1.5032X1.5032*%
%ADD69C,0.2032*%
%ADD70C,1.8032*%
%ADD71R,1.8032X1.8032*%
%ADD72R,1.5032X1.5032*%
%ADD73C,1.2032*%
G04:AMPARAMS|DCode=74|XSize=2.3432mm|YSize=1.2732mm|CornerRadius=0mm|HoleSize=0mm|Usage=FLASHONLY|Rotation=330.000|XOffset=0mm|YOffset=0mm|HoleType=Round|Shape=Round|*
%AMOVALD74*
21,1,1.0700,1.2732,0.0000,0.0000,330.0*
1,1,1.2732,-0.4633,0.2675*
1,1,1.2732,0.4633,-0.2675*
%
%ADD74OVALD74*%

%ADD75O,1.2732X2.3432*%
G04:AMPARAMS|DCode=76|XSize=2.3432mm|YSize=1.2732mm|CornerRadius=0mm|HoleSize=0mm|Usage=FLASHONLY|Rotation=210.000|XOffset=0mm|YOffset=0mm|HoleType=Round|Shape=Round|*
%AMOVALD76*
21,1,1.0700,1.2732,0.0000,0.0000,210.0*
1,1,1.2732,0.4633,0.2675*
1,1,1.2732,-0.4633,-0.2675*
%
%ADD76OVALD76*%

%ADD77C,0.9032*%
%ADD92R,3.8532X1.8032*%
D43*
X171000Y380000D02*
G03*
X171000Y380000I-21000J0D01*
G01*
X-129000D02*
G03*
X-129000Y380000I-21000J0D01*
G01*
D46*
X-186750Y207000D02*
D03*
X-173250D02*
D03*
X-187750Y-7000D02*
D03*
X-174250D02*
D03*
D52*
X-132500Y228000D02*
D03*
X-119500D02*
D03*
D54*
X209000Y-143750D02*
D03*
Y-130250D02*
D03*
X-9000Y-144750D02*
D03*
Y-131250D02*
D03*
D67*
X-68000Y258000D02*
D03*
X-88000D02*
D03*
X348000Y-78000D02*
D03*
X-190500Y-30000D02*
D03*
Y-50000D02*
D03*
X-170500Y-30000D02*
D03*
Y-50000D02*
D03*
X-190500Y-70000D02*
D03*
Y270000D02*
D03*
Y250000D02*
D03*
X-170500Y270000D02*
D03*
Y250000D02*
D03*
X-190500Y230000D02*
D03*
X270000Y-126300D02*
D03*
X250000D02*
D03*
X270000Y-146300D02*
D03*
X250000D02*
D03*
X230000Y-126300D02*
D03*
X-30000D02*
D03*
X-50000D02*
D03*
X-30000Y-146300D02*
D03*
X-50000D02*
D03*
X-70000Y-126300D02*
D03*
D68*
X-108000Y258000D02*
D03*
X368000Y-78000D02*
D03*
X230000Y-146300D02*
D03*
X-70000D02*
D03*
D69*
X0Y0D02*
D03*
X-150000Y380000D02*
D03*
X150000D02*
D03*
X420000Y0D02*
D03*
X370000Y370000D02*
D03*
X0Y420000D02*
D03*
Y-95000D02*
D03*
Y95000D02*
D03*
X-80000Y0D02*
D03*
X80000D02*
D03*
D70*
X-148500Y316000D02*
D03*
X-123100D02*
D03*
X-72300D02*
D03*
X-46900D02*
D03*
X-97700D02*
D03*
D71*
X-21500D02*
D03*
D72*
X-170500Y-70000D02*
D03*
Y230000D02*
D03*
D73*
X164000Y-30000D02*
D03*
X272000D02*
D03*
X218000D02*
D03*
D74*
X136250Y-64001D02*
D03*
X123550Y-85998D02*
D03*
X129900Y-75000D02*
D03*
D75*
X-0Y150000D02*
D03*
X12700D02*
D03*
X-12700D02*
D03*
D76*
X-129900Y-75000D02*
D03*
X-136250Y-64001D02*
D03*
X-123550Y-85998D02*
D03*
D77*
X65000Y295000D02*
D03*
X33000Y273000D02*
D03*
Y247000D02*
D03*
Y295000D02*
D03*
D92*
X357000Y256250D02*
D03*
Y319750D02*
D03*
M02*
