G04*
G04 #@! TF.GenerationSoftware,Altium Limited,Altium Designer,24.4.1 (13)*
G04*
G04 Layer_Color=65535*
%FSLAX44Y44*%
%MOMM*%
G71*
G04*
G04 #@! TF.SameCoordinates,1D3D786A-4C35-496E-9A10-02EDD5D57B8C*
G04*
G04*
G04 #@! TF.FilePolarity,Positive*
G04*
G01*
G75*
%ADD10C,0.2500*%
%ADD11C,0.7120*%
%ADD12C,0.2540*%
%ADD13C,0.3000*%
%ADD14C,0.2000*%
%ADD15C,1.1500*%
%ADD16C,0.5000*%
%ADD17C,0.1500*%
%ADD18C,0.1270*%
%ADD19C,0.1000*%
%ADD20C,0.1530*%
%ADD21C,0.1600*%
G36*
X88875Y172500D02*
X93875D01*
Y171000D01*
X90875Y168000D01*
X88875D01*
Y172500D01*
D02*
G37*
G36*
X159000Y158000D02*
X155000D01*
Y157204D01*
X155609Y155734D01*
X156734Y154609D01*
X158204Y154000D01*
X159000D01*
D01*
X159000Y158000D01*
D02*
G37*
G36*
X198000D02*
X194000D01*
Y157204D01*
X194609Y155734D01*
X195734Y154609D01*
X197204Y154000D01*
X198000D01*
D01*
X198000Y158000D01*
D02*
G37*
G36*
X237000D02*
X233000D01*
Y157204D01*
X233609Y155734D01*
X234734Y154609D01*
X236204Y154000D01*
X237000D01*
D01*
X237000Y158000D01*
D02*
G37*
D10*
X-78315Y168495D02*
G03*
X-78315Y168495I-100J0D01*
G01*
X81625Y174750D02*
G03*
X81625Y174750I-1250J0D01*
G01*
X241250Y165000D02*
G03*
X241250Y165000I-1250J0D01*
G01*
X202250D02*
G03*
X202250Y165000I-1250J0D01*
G01*
X163250D02*
G03*
X163250Y165000I-1250J0D01*
G01*
D11*
X-19000Y346000D02*
G03*
X-19000Y346000I-3000J0D01*
G01*
D12*
X222082Y-170527D02*
G03*
X-205324Y190373I-222082J170527D01*
G01*
X170238Y-30000D02*
G03*
X170238Y-30000I-6238J0D01*
G01*
X278238D02*
G03*
X278238Y-30000I-6238J0D01*
G01*
X224238D02*
G03*
X224238Y-30000I-6238J0D01*
G01*
X394540Y-66225D02*
Y-76382D01*
X399618Y-81460D01*
X404697Y-76382D01*
Y-66225D01*
X409775Y-73843D02*
X419932D01*
X414853Y-68764D02*
Y-78921D01*
X212540Y-3225D02*
Y-18460D01*
X220158D01*
X222697Y-15921D01*
Y-13382D01*
X220158Y-10842D01*
X212540D01*
X220158D01*
X222697Y-8303D01*
Y-5764D01*
X220158Y-3225D01*
X212540D01*
X276697Y-5764D02*
X274158Y-3225D01*
X269079D01*
X266540Y-5764D01*
Y-15921D01*
X269079Y-18460D01*
X274158D01*
X276697Y-15921D01*
X158540Y-18460D02*
Y-8303D01*
X163618Y-3225D01*
X168697Y-8303D01*
Y-18460D01*
Y-10842D01*
X158540D01*
D13*
X339882Y-169941D02*
G03*
X-203819Y320715I-339882J169941D01*
G01*
D14*
X89375Y168000D02*
G03*
X93875Y172500I0J4500D01*
G01*
X156700Y55500D02*
G03*
X156700Y55500I-1000J0D01*
G01*
X306700D02*
G03*
X306700Y55500I-1000J0D01*
G01*
X231700D02*
G03*
X231700Y55500I-1000J0D01*
G01*
X233000Y158000D02*
G03*
X236602Y154020I4000J0D01*
G01*
X279000Y-94000D02*
G03*
X279000Y-94000I-1000J0D01*
G01*
X235000Y-94000D02*
G03*
X235000Y-94000I-1000J0D01*
G01*
X191000Y-94000D02*
G03*
X191000Y-94000I-1000J0D01*
G01*
X289000Y-42000D02*
G03*
X289000Y-42000I-1000J0D01*
G01*
X235000Y-42000D02*
G03*
X235000Y-42000I-1000J0D01*
G01*
X181000Y-42000D02*
G03*
X181000Y-42000I-1000J0D01*
G01*
X214250Y283500D02*
G03*
X214250Y283500I-1000J0D01*
G01*
X111950Y233500D02*
G03*
X111950Y233500I-1000J0D01*
G01*
D02*
G03*
X111950Y233500I-1000J0D01*
G01*
X194000Y158000D02*
G03*
X197602Y154020I4000J0D01*
G01*
X155000Y158000D02*
G03*
X158602Y154020I4000J0D01*
G01*
X-120000Y268750D02*
X-56000D01*
Y247250D02*
Y268750D01*
X-120000Y247250D02*
X-56000D01*
X-120000D02*
Y268750D01*
X-101115Y170695D02*
X-81115D01*
X-101115Y191695D02*
X-81115D01*
X328000Y-96000D02*
X388000D01*
X328000D02*
Y-48000D01*
X388000D01*
Y-96000D02*
Y-48000D01*
X-162700Y302550D02*
Y329450D01*
Y302550D02*
X-7300D01*
Y329450D01*
X-162700D02*
X-7300D01*
X88875Y168000D02*
X89375D01*
X88875Y172500D02*
X98875D01*
X88875Y141500D02*
X98875D01*
X88875D02*
Y172500D01*
X98875Y141500D02*
Y172500D01*
X218000Y152000D02*
X236602D01*
X218000Y158000D02*
X236602D01*
X218000Y152000D02*
Y158000D01*
X236602Y152000D02*
Y158000D01*
X-201250Y-83500D02*
X-159750D01*
Y-16500D01*
X-201250D02*
X-159750D01*
X-201250Y-83500D02*
Y-16500D01*
Y216500D02*
X-159750D01*
Y283500D01*
X-201250D02*
X-159750D01*
X-201250Y216500D02*
Y283500D01*
X219000Y-161300D02*
Y-119300D01*
Y-161300D02*
X281000D01*
Y-119300D01*
X219000D02*
X281000D01*
X232505Y-195318D02*
Y-161318D01*
X247000Y-195300D02*
Y-161300D01*
X252000Y-195300D02*
Y-161300D01*
X267656Y-195373D02*
Y-161373D01*
X272656Y-195373D02*
Y-161373D01*
X272001Y-199300D02*
X272656Y-195373D01*
X268310Y-199300D02*
X272001D01*
X267656Y-195373D02*
X268310Y-199300D01*
X231841D02*
X232505Y-195318D01*
X228169Y-199300D02*
X231841D01*
X227505Y-195318D02*
Y-161318D01*
Y-195318D02*
X228169Y-199300D01*
X251333D02*
X252000Y-195300D01*
X247000Y-195300D02*
X247667Y-199300D01*
X251333D01*
X-81000Y-161300D02*
Y-119300D01*
Y-161300D02*
X-19000D01*
Y-119300D01*
X-81000D02*
X-19000D01*
X-67495Y-195318D02*
Y-161318D01*
X-53000Y-195300D02*
Y-161300D01*
X-48000Y-195300D02*
Y-161300D01*
X-32344Y-195373D02*
Y-161373D01*
X-27344Y-195373D02*
Y-161373D01*
X-27999Y-199300D02*
X-27344Y-195373D01*
X-31690Y-199300D02*
X-27999D01*
X-32344Y-195373D02*
X-31690Y-199300D01*
X-68159D02*
X-67495Y-195318D01*
X-71831Y-199300D02*
X-68159D01*
X-72495Y-195318D02*
Y-161318D01*
Y-195318D02*
X-71831Y-199300D01*
X-48667D02*
X-48000Y-195300D01*
X-53000Y-195300D02*
X-52333Y-199300D01*
X-48667D01*
X197602Y152000D02*
Y158000D01*
X179000Y152000D02*
Y158000D01*
X197602D01*
X179000Y152000D02*
X197602D01*
X158602D02*
Y158000D01*
X140000Y152000D02*
Y158000D01*
X158602D01*
X140000Y152000D02*
X158602D01*
X9000Y203331D02*
X10666Y204997D01*
X13998D01*
X15664Y203331D01*
Y201665D01*
X13998Y199998D01*
X12332D01*
X13998D01*
X15664Y198332D01*
Y196666D01*
X13998Y195000D01*
X10666D01*
X9000Y196666D01*
X18997Y204997D02*
Y198332D01*
X22329Y195000D01*
X25661Y198332D01*
Y204997D01*
X28994Y203331D02*
X30660Y204997D01*
X33992D01*
X35658Y203331D01*
Y201665D01*
X33992Y199998D01*
X32326D01*
X33992D01*
X35658Y198332D01*
Y196666D01*
X33992Y195000D01*
X30660D01*
X28994Y196666D01*
D15*
X21750Y420000D02*
G03*
X21750Y420000I-21750J0D01*
G01*
X391750Y370000D02*
G03*
X391750Y370000I-21750J0D01*
G01*
X441750Y-0D02*
G03*
X441750Y-0I-21750J0D01*
G01*
X21750Y-95000D02*
G03*
X21750Y-95000I-21750J0D01*
G01*
X101750Y-0D02*
G03*
X101750Y-0I-21750J0D01*
G01*
X-58250D02*
G03*
X-58250Y-0I-21750J0D01*
G01*
X21750Y95000D02*
G03*
X21750Y95000I-21750J0D01*
G01*
D16*
X120000Y-0D02*
G03*
X120000Y-0I-120000J0D01*
G01*
D17*
X-40000Y170000D02*
X-22000D01*
X-40000Y187000D02*
X-36000D01*
X-40000Y153000D02*
Y187000D01*
Y153000D02*
X-36000D01*
X-26000D02*
X-22000D01*
Y187000D01*
X-26000D02*
X-22000D01*
X-106000Y194000D02*
Y197000D01*
Y194000D02*
X-78000D01*
Y197000D01*
Y205000D02*
Y208000D01*
X-106000D02*
X-78000D01*
X-106000Y205000D02*
Y208000D01*
X-92000Y194000D02*
Y208000D01*
X-141000Y178000D02*
X-123000D01*
X-141000Y195000D02*
X-137000D01*
X-141000Y161000D02*
Y195000D01*
Y161000D02*
X-137000D01*
X-127000D02*
X-123000D01*
Y195000D01*
X-127000D02*
X-123000D01*
X383750Y-26250D02*
Y-22500D01*
X336250Y-26250D02*
X383750D01*
X336250D02*
Y-22500D01*
Y2500D02*
Y6250D01*
X383750D01*
Y2500D02*
Y6250D01*
X360000Y-26250D02*
Y6250D01*
X121750Y-51750D02*
X125500D01*
X121750D02*
Y-4250D01*
X125500D01*
X150500D02*
X154250D01*
Y-51750D02*
Y-4250D01*
X150500Y-51750D02*
X154250D01*
X121750Y-28000D02*
X154250D01*
X-32920Y210300D02*
X-31000Y210300D01*
Y235700D01*
X-32920D02*
X-31000D01*
X-45000D02*
X-43080Y235700D01*
X-45000Y235700D02*
X-45000Y210300D01*
X-43080D01*
X-45000Y223000D02*
X-31000D01*
X-920Y210300D02*
X1000D01*
Y235700D01*
X-920Y235700D02*
X1000Y235700D01*
X-13000Y235700D02*
X-11080D01*
X-13000Y210300D02*
Y235700D01*
Y210300D02*
X-11080D01*
X-13000Y223000D02*
X1000D01*
X103300Y172000D02*
Y173920D01*
Y172000D02*
X128700D01*
Y173920D01*
Y184080D02*
Y186000D01*
X103300D02*
X128700D01*
X103300Y184080D02*
Y186000D01*
X116000Y172000D02*
Y186000D01*
X167000Y25000D02*
X170000D01*
Y53000D01*
X167000D02*
X170000D01*
X156000D02*
X159000D01*
X156000Y25000D02*
Y53000D01*
Y25000D02*
X159000D01*
X156000Y39000D02*
X170000D01*
X140000Y103700D02*
X141920D01*
X140000Y78300D02*
Y103700D01*
Y78300D02*
X141920D01*
X152080D02*
X154000D01*
Y103700D01*
X152080D02*
X154000D01*
X140000Y91000D02*
X154000D01*
X172000Y51700D02*
X173920D01*
X172000Y26300D02*
Y51700D01*
Y26300D02*
X173920D01*
X184080D02*
X186000D01*
Y51700D01*
X184080D02*
X186000D01*
X172000Y39000D02*
X186000D01*
X188000Y92700D02*
X189920D01*
X188000Y67300D02*
Y92700D01*
Y67300D02*
X189920D01*
X200080D02*
X202000D01*
Y92700D01*
X200080D02*
X202000D01*
X188000Y80000D02*
X202000D01*
X140000Y76000D02*
X143000D01*
X140000Y48000D02*
Y76000D01*
Y48000D02*
X143000D01*
X151000D02*
X154000D01*
Y76000D01*
X151000D02*
X154000D01*
X140000Y62000D02*
X154000D01*
X290000Y76000D02*
X293000D01*
X290000Y48000D02*
Y76000D01*
Y48000D02*
X293000D01*
X301000D02*
X304000D01*
Y76000D01*
X301000D02*
X304000D01*
X290000Y62000D02*
X304000D01*
X316999Y25000D02*
X320000D01*
Y53000D01*
X316999D02*
X320000D01*
X306000D02*
X309000D01*
X306000Y25000D02*
Y53000D01*
Y25000D02*
X309000D01*
X306000Y39000D02*
X320000D01*
X338000Y92700D02*
X339920D01*
X338000Y67300D02*
Y92700D01*
Y67300D02*
X339920D01*
X350080D02*
X352000D01*
Y92700D01*
X350080D02*
X352000D01*
X338000Y80000D02*
X352000D01*
X322000Y51700D02*
X323920D01*
X322000Y26300D02*
Y51700D01*
Y26300D02*
X323920D01*
X334080D02*
X336000D01*
Y51700D01*
X334080D02*
X336000D01*
X322000Y39000D02*
X336000D01*
X290000Y103700D02*
X291920D01*
X290000Y78300D02*
Y103700D01*
Y78300D02*
X291920D01*
X302080D02*
X304000D01*
Y103700D01*
X302080D02*
X304000D01*
X290000Y91000D02*
X304000D01*
X215000Y103700D02*
X216920D01*
X215000Y78300D02*
Y103700D01*
Y78300D02*
X216920D01*
X227080D02*
X229000D01*
Y103700D01*
X227080D02*
X229000D01*
X215000Y91000D02*
X229000D01*
X247000Y51700D02*
X248920D01*
X247000Y26300D02*
Y51700D01*
Y26300D02*
X248920D01*
X259080D02*
X261000D01*
Y51700D01*
X259080D02*
X261000D01*
X247000Y39000D02*
X261000D01*
X242000Y25000D02*
X245000D01*
Y53000D01*
X242000D02*
X245000D01*
X231000D02*
X234000D01*
X231000Y25000D02*
Y53000D01*
Y25000D02*
X234000D01*
X231000Y39000D02*
X245000D01*
X6300Y325000D02*
Y326920D01*
Y325000D02*
X31700D01*
Y326920D01*
Y337080D02*
Y339000D01*
X6300D02*
X31700D01*
X6300Y337080D02*
Y339000D01*
X19000Y325000D02*
Y339000D01*
X59000Y205000D02*
Y219000D01*
X73000Y205000D02*
Y208000D01*
X45000Y205000D02*
X73000D01*
X45000D02*
Y208000D01*
Y216000D02*
Y219000D01*
X73000D01*
Y216000D02*
Y219000D01*
X213000Y273000D02*
Y276000D01*
X185000D02*
X213000D01*
X185000Y273000D02*
Y276000D01*
Y262000D02*
Y265000D01*
Y262000D02*
X213000D01*
Y265000D01*
X199000Y262000D02*
Y276000D01*
X174000Y257000D02*
X177000D01*
Y285000D01*
X174000D02*
X177000D01*
X163000D02*
X166000D01*
X163000Y257000D02*
Y285000D01*
Y257000D02*
X166000D01*
X163000Y271000D02*
X177000D01*
X147000Y290700D02*
X148920D01*
X147000Y265300D02*
Y290700D01*
Y265300D02*
X148920D01*
X159080D02*
X161000D01*
Y290700D01*
X159080D02*
X161000D01*
X147000Y278000D02*
X161000D01*
X-10000Y276000D02*
X4000D01*
X1000Y290000D02*
X4000D01*
Y262000D02*
Y290000D01*
X1000Y262000D02*
X4000D01*
X-10000D02*
X-7000D01*
X-10000D02*
Y290000D01*
X-7000D01*
X344000Y-44000D02*
Y-41000D01*
Y-44000D02*
X372000D01*
Y-41000D01*
Y-33000D02*
Y-30000D01*
X344000D02*
X372000D01*
X344000Y-33000D02*
Y-30000D01*
X358000Y-44000D02*
Y-30000D01*
X-120000Y192000D02*
X-117000D01*
X-120000Y164000D02*
Y192000D01*
Y164000D02*
X-117000D01*
X-109000D02*
X-106000D01*
Y192000D01*
X-109000D02*
X-106000D01*
X-120000Y178000D02*
X-106000D01*
X-143000Y-48000D02*
Y-34000D01*
X-129000Y-48000D02*
Y-45000D01*
X-157000Y-48000D02*
X-129000D01*
X-157000D02*
Y-45000D01*
Y-37000D02*
Y-34000D01*
X-129000D01*
Y-37000D02*
Y-34000D01*
X177000Y-52000D02*
Y-38000D01*
X193000Y-52000D02*
Y-50080D01*
X161000Y-52000D02*
X193000D01*
X161000D02*
Y-50080D01*
Y-39920D02*
Y-38000D01*
X193000D01*
Y-39920D02*
Y-38000D01*
X215000Y62000D02*
X229000D01*
X226000Y76000D02*
X229000D01*
Y48000D02*
Y76000D01*
X226000Y48000D02*
X229000D01*
X215000D02*
X218000D01*
X215000D02*
Y76000D01*
X218000D01*
X263000Y80000D02*
X277000D01*
X275080Y92700D02*
X277000D01*
Y67300D02*
Y92700D01*
X275080Y67300D02*
X277000D01*
X263000D02*
X264920D01*
X263000D02*
Y92700D01*
X264920D01*
X141000Y-93000D02*
X141000Y-96000D01*
X169000Y-96000D01*
X169000Y-93000D01*
Y-85000D02*
Y-82000D01*
X141000D02*
X169000D01*
X141000Y-85000D02*
Y-82000D01*
X155000Y-96000D02*
X155000Y-82000D01*
X283000Y-52000D02*
Y-38000D01*
X299000Y-52000D02*
Y-50080D01*
X267000Y-52000D02*
X299000D01*
X267000D02*
Y-50080D01*
Y-39920D02*
Y-38000D01*
X299000D01*
Y-39920D02*
Y-38000D01*
X245000Y-39920D02*
Y-38000D01*
X213000D02*
X245000D01*
X213000Y-39920D02*
Y-38000D01*
Y-52000D02*
Y-50080D01*
Y-52000D02*
X245000D01*
Y-50080D01*
X229000Y-52000D02*
Y-38000D01*
X-48700Y281000D02*
Y282920D01*
Y281000D02*
X-23300D01*
Y282920D01*
Y293080D02*
Y295000D01*
X-48700D02*
X-23300D01*
X-48700Y293080D02*
Y295000D01*
X-36000Y281000D02*
Y295000D01*
X-48700Y265000D02*
Y266920D01*
Y265000D02*
X-23300D01*
Y266920D01*
Y277080D02*
Y279000D01*
X-48700D02*
X-23300D01*
X-48700Y277080D02*
Y279000D01*
X-36000Y265000D02*
Y279000D01*
X131000Y231700D02*
X132920D01*
X131000Y206300D02*
Y231700D01*
Y206300D02*
X132920D01*
X143080D02*
X145000D01*
Y231700D01*
X143080D02*
X145000D01*
X131000Y219000D02*
X145000D01*
X128000Y234000D02*
Y237000D01*
Y234000D02*
X156000D01*
Y237000D01*
Y245000D02*
Y248000D01*
X128000D02*
X156000D01*
X128000Y245000D02*
Y248000D01*
X142000Y234000D02*
Y248000D01*
X-29000Y223000D02*
X-15000D01*
X-16920Y235700D02*
X-15000D01*
Y210300D02*
Y235700D01*
X-16920Y210300D02*
X-15000D01*
X-29000D02*
X-27080D01*
X-29000D02*
Y235700D01*
X-27080D01*
X23000Y144000D02*
X37000D01*
X23000Y130000D02*
X26000D01*
X23000D02*
Y158000D01*
X26000D01*
X34000D02*
X37000D01*
Y130000D02*
Y158000D01*
X34000Y130000D02*
X37000D01*
X-6000Y177000D02*
Y191000D01*
X-18700Y189080D02*
Y191000D01*
X6700D01*
Y189080D02*
Y191000D01*
Y177000D02*
Y178920D01*
X-18700Y177000D02*
X6700D01*
X-18700D02*
Y178920D01*
X8760Y177000D02*
Y178920D01*
Y177000D02*
X39000D01*
X37970D02*
Y181460D01*
Y186540D02*
Y191000D01*
X8760D02*
X39000D01*
X8760Y189080D02*
Y191000D01*
X37970Y177000D02*
X39240D01*
Y181460D01*
X37970D02*
X39240D01*
X37970Y191000D02*
X39240D01*
Y186540D02*
Y191000D01*
X37970Y186540D02*
X39240D01*
X24000Y177000D02*
Y180500D01*
Y187500D02*
Y191000D01*
X34000Y325000D02*
Y328000D01*
Y325000D02*
X62000D01*
Y328000D01*
Y336000D02*
Y339000D01*
X34000D02*
X62000D01*
X34000Y336000D02*
Y339000D01*
X48000Y325000D02*
Y339000D01*
X109000Y291000D02*
X112000D01*
X109000Y263000D02*
Y291000D01*
Y263000D02*
X112000D01*
X120000D02*
X123000D01*
Y291000D01*
X120000D02*
X123000D01*
X109000Y277000D02*
X123000D01*
X92000Y336000D02*
Y339000D01*
X64000D02*
X92000D01*
X64000Y336000D02*
Y339000D01*
Y325000D02*
Y328000D01*
Y325000D02*
X92000D01*
Y328000D01*
X78000Y325000D02*
Y339000D01*
X127080Y144300D02*
X129000D01*
Y169700D01*
X127080D02*
X129000D01*
X115000D02*
X116920D01*
X115000Y144300D02*
Y169700D01*
Y144300D02*
X116920D01*
X115000Y157000D02*
X129000D01*
X58000Y181000D02*
X61000D01*
X58000Y153000D02*
Y181000D01*
Y153000D02*
X61000D01*
X69000D02*
X72000D01*
Y181000D01*
X69000D02*
X72000D01*
X58000Y167000D02*
X72000D01*
X53000Y153000D02*
X56000D01*
Y181000D01*
X53000D02*
X56000D01*
X42000D02*
X45000D01*
X42000Y153000D02*
Y181000D01*
Y153000D02*
X45000D01*
X42000Y167000D02*
X56000D01*
X120000Y115000D02*
X123000D01*
Y143000D01*
X120000D02*
X123000D01*
X109000D02*
X112000D01*
X109000Y115000D02*
Y143000D01*
Y115000D02*
X112000D01*
X109000Y129000D02*
X123000D01*
X80675Y124000D02*
Y125920D01*
Y124000D02*
X106075D01*
Y125920D01*
Y136080D02*
Y138000D01*
X80675D02*
X106075D01*
X80675Y136080D02*
Y138000D01*
X93375Y124000D02*
Y138000D01*
X237000Y183000D02*
Y186000D01*
X209000D02*
X237000D01*
X209000Y183000D02*
Y186000D01*
Y172000D02*
Y175000D01*
Y172000D02*
X237000D01*
Y175000D01*
X223000Y172000D02*
Y186000D01*
X198000Y183000D02*
Y186000D01*
X170000D02*
X198000D01*
X170000Y183000D02*
Y186000D01*
Y172000D02*
Y175000D01*
Y172000D02*
X198000D01*
Y175000D01*
X184000Y172000D02*
Y186000D01*
X159000Y183000D02*
Y186000D01*
X131000D02*
X159000D01*
X131000Y183000D02*
Y186000D01*
Y172000D02*
Y175000D01*
Y172000D02*
X159000D01*
Y175000D01*
X145000Y172000D02*
Y186000D01*
X-92000Y151000D02*
Y154000D01*
Y151000D02*
X-64000D01*
Y154000D01*
Y162000D02*
Y165000D01*
X-92000D02*
X-64000D01*
X-92000Y162000D02*
Y165000D01*
X-78000Y151000D02*
Y165000D01*
X-70000Y184000D02*
X-52000D01*
X-72000Y197000D02*
X-66000D01*
X-72000Y171000D02*
Y197000D01*
Y171000D02*
X-66000D01*
X-56000D02*
X-50000D01*
Y197000D01*
X-56000D02*
X-50000D01*
D18*
X186500Y59500D02*
Y90500D01*
X155500Y59500D02*
Y90500D01*
X183800Y59500D02*
X186500D01*
X183800Y90500D02*
X186500D01*
X155500Y59500D02*
X158200D01*
X155500Y90500D02*
X158200D01*
X336500Y59500D02*
Y90500D01*
X305500Y59500D02*
Y90500D01*
X333800Y59500D02*
X336500D01*
X333800Y90500D02*
X336500D01*
X305500Y59500D02*
X308200D01*
X305500Y90500D02*
X308200D01*
X261500Y59500D02*
Y90500D01*
X230500Y59500D02*
Y90500D01*
X258800Y59500D02*
X261500D01*
X258800Y90500D02*
X261500D01*
X230500Y59500D02*
X233200D01*
X230500Y90500D02*
X233200D01*
X304750Y-86750D02*
Y-78000D01*
Y-64000D02*
Y-55250D01*
X273250Y-64000D02*
Y-55250D01*
Y-86750D02*
Y-78000D01*
X260750Y-86750D02*
Y-78000D01*
Y-64000D02*
Y-55250D01*
X229250Y-64000D02*
Y-55250D01*
Y-86750D02*
Y-78000D01*
X216750Y-86750D02*
Y-78000D01*
Y-64000D02*
Y-55250D01*
X185250Y-64000D02*
Y-55250D01*
Y-86750D02*
Y-78000D01*
X314750Y-34750D02*
Y-26000D01*
Y-12000D02*
Y-3250D01*
X283250Y-12000D02*
Y-3250D01*
Y-34750D02*
Y-26000D01*
X260750Y-34750D02*
Y-26000D01*
Y-12000D02*
Y-3250D01*
X229250Y-12000D02*
Y-3250D01*
Y-34750D02*
Y-26000D01*
X206750Y-34750D02*
Y-26000D01*
Y-12000D02*
Y-3250D01*
X175250Y-12000D02*
Y-3250D01*
Y-34750D02*
Y-26000D01*
X184000Y303100D02*
X204000D01*
X184000Y278900D02*
X204000D01*
X101000Y226000D02*
Y229000D01*
Y313000D02*
Y316000D01*
X11000Y226000D02*
Y229000D01*
Y313000D02*
Y316000D01*
X98000Y226000D02*
X101000D01*
X98000Y316000D02*
X101000D01*
X11000Y226000D02*
X14000D01*
X11000Y316000D02*
X14000D01*
D19*
X22250Y186500D02*
X25750Y184000D01*
X22250D02*
Y186500D01*
X25750Y184000D02*
Y186250D01*
Y181750D02*
Y184000D01*
X22250Y181500D02*
Y184000D01*
Y181500D02*
X25750Y184000D01*
D20*
X-74194Y339862D02*
X-75527Y338529D01*
Y335863D01*
X-74194Y334530D01*
X-68863D01*
X-67530Y335863D01*
Y338529D01*
X-68863Y339862D01*
X-71529D01*
Y337196D01*
X-67530Y342527D02*
X-75527D01*
X-67530Y347859D01*
X-75527D01*
Y350525D02*
X-67530D01*
Y354524D01*
X-68863Y355857D01*
X-74194D01*
X-75527Y354524D01*
Y350525D01*
X-49194Y334530D02*
X-50527Y335863D01*
Y338529D01*
X-49194Y339862D01*
X-47862D01*
X-46529Y338529D01*
Y337196D01*
Y338529D01*
X-45196Y339862D01*
X-43863D01*
X-42530Y338529D01*
Y335863D01*
X-43863Y334530D01*
X-50527Y342527D02*
X-45196D01*
X-42530Y345193D01*
X-45196Y347859D01*
X-50527D01*
X-49194Y350525D02*
X-50527Y351858D01*
Y354524D01*
X-49194Y355857D01*
X-47862D01*
X-46529Y354524D01*
Y353191D01*
Y354524D01*
X-45196Y355857D01*
X-43863D01*
X-42530Y354524D01*
Y351858D01*
X-43863Y350525D01*
X-92528Y277530D02*
X-84530D01*
Y281529D01*
X-85863Y282862D01*
X-91195D01*
X-92528Y281529D01*
Y277530D01*
Y285527D02*
Y288193D01*
Y286860D01*
X-84530D01*
Y285527D01*
Y288193D01*
Y292192D02*
X-92528D01*
X-84530Y297524D01*
X-92528D01*
X-71527Y280529D02*
Y277863D01*
X-70195Y276530D01*
X-64863D01*
X-63530Y277863D01*
Y280529D01*
X-64863Y281862D01*
X-70195D01*
X-71527Y280529D01*
Y284527D02*
X-64863D01*
X-63530Y285860D01*
Y288526D01*
X-64863Y289859D01*
X-71527D01*
Y292525D02*
Y297857D01*
Y295191D01*
X-63530D01*
X-113195Y281862D02*
X-114527Y280529D01*
Y277863D01*
X-113195Y276530D01*
X-107863D01*
X-106530Y277863D01*
Y280529D01*
X-107863Y281862D01*
X-110529D01*
Y279196D01*
X-106530Y284527D02*
X-114527D01*
X-106530Y289859D01*
X-114527D01*
Y292525D02*
X-106530D01*
Y296524D01*
X-107863Y297857D01*
X-113195D01*
X-114527Y296524D01*
Y292525D01*
D21*
X347000Y-104002D02*
X353665D01*
X350332Y-100669D02*
Y-107334D01*
X368000Y-103666D02*
X374664D01*
M02*
