M48
;Layer_Color=9474304
;FILE_FORMAT=2:4
INCH,LZ
;TYPE=PLATED
T01F00S00C0.0138
T02F00S00C0.0197
T03F00S00C0.0295
T04F00S00C0.0315
T05F00S00C0.0433
;TYPE=NON_PLATED
T06F00S00C0.1220
T07F00S00C0.3150
%
T01
X007913Y-001772
X008228Y-001417
X00878Y-002602
X010512Y-002602
X010354Y-001417
X009975Y-001694
X011929Y-001772
X01252Y-002087
X012638Y-001457
X013071
Y-001024
Y-000591
Y-000197
X012638
Y-000591
Y-001024
X012244Y-002598
X012323Y000866
X012953
X011614Y000906
X01Y000866
X00937
X008661Y000906
X008583Y004803
X009016
X007756
X007913Y005945
X008346
X008189Y006535
X009685Y004134
X010039Y003937
X012598Y004173
X012992Y003937
X011813Y007205
X006654Y006535
X005315Y006496
X00563Y004764
X006024
X006142Y005276
X006752Y004114
X007087Y003937
X00748Y004291
X007047Y000866
X006417
X005709Y000906
X-001063Y007598
X-001457
Y007953
X-001063
X-000906Y009567
X-000512Y009488
X000236Y008819
X001142Y008425
X001535Y008228
X001299Y009724
Y010748
Y011614
X002559
X004594Y011546
X004764Y011968
X004409Y01223
X004685Y01252
X004331Y012806
X005906Y013346
X004685Y010197
X004409Y009724
X004724Y00937
X004882Y008386
X004291Y008071
X004016Y007756
X004213Y008701
X-002913Y007992
X-005Y008071
X-005354
Y008425
X-005
X-005157Y010551
X-005551Y010433
X-005433Y010827
X-005787
X-003268Y014921
X0Y013071
X008671Y007729
X01378Y010236
X014331
Y012559
X01378
T02
X008583Y-001181
X010709
X006457
T03
X-004864Y-003386
X-005114Y-002953
X-005364Y-00252
X005364Y-00252
X005114Y-002953
X004864Y-003386
X0005Y005906
X-0
X-0005
T04
X009055Y-00576
X009843
Y-004972
X01063
Y-00576
X009055Y-004972
X013701Y-003071
X014488
X-001181Y-004972
X-001969
Y-00576
X-001181
X-002756
Y-004972
X-006713Y-002756
Y-001969
X-0075
Y-001181
X-006713
X-0075Y-002756
Y009055
Y009843
Y01063
X-006713
Y009843
Y009055
X-004252Y010157
X-003465
X-002677
T05
X-005846Y012441
X-004846
X-003846
X-002846
X-001846
X-000846
T06
X016535Y0
X00315
X-00315
X0Y00374
Y-00374
Y016535
X-005906Y014961
X005906
X014567Y014567
T07
X0Y0
M30
