G04*
G04 #@! TF.GenerationSoftware,Altium Limited,Altium Designer,24.4.1 (13)*
G04*
G04 Layer_Color=32896*
%FSLAX44Y44*%
%MOMM*%
G71*
G04*
G04 #@! TF.SameCoordinates,1D3D786A-4C35-496E-9A10-02EDD5D57B8C*
G04*
G04*
G04 #@! TF.FilePolarity,Positive*
G04*
G01*
G75*
%ADD12C,0.2540*%
%ADD13C,0.3000*%
%ADD14C,0.2000*%
%ADD16C,0.5000*%
%ADD17C,0.1500*%
%ADD18C,0.1270*%
D12*
X170238Y-30000D02*
G03*
X170238Y-30000I-6238J0D01*
G01*
X278238D02*
G03*
X278238Y-30000I-6238J0D01*
G01*
X224238D02*
G03*
X224238Y-30000I-6238J0D01*
G01*
X222460Y-3225D02*
Y-18460D01*
X214842D01*
X212303Y-15921D01*
Y-13382D01*
X214842Y-10842D01*
X222460D01*
X214842D01*
X212303Y-8303D01*
Y-5764D01*
X214842Y-3225D01*
X222460D01*
X266303Y-5764D02*
X268842Y-3225D01*
X273921D01*
X276460Y-5764D01*
Y-15921D01*
X273921Y-18460D01*
X268842D01*
X266303Y-15921D01*
X168460Y-18460D02*
Y-8303D01*
X163382Y-3225D01*
X158303Y-8303D01*
Y-18460D01*
Y-10842D01*
X168460D01*
D13*
X339682Y-170342D02*
G03*
X-203558Y320880I-339682J170342D01*
G01*
X222306Y-170235D02*
G03*
X-203867Y191933I-222306J170235D01*
G01*
X113295Y-90986D02*
G03*
X113295Y-90986I-707J0D01*
G01*
X23207Y143000D02*
G03*
X23207Y143000I-707J0D01*
G01*
X-134381Y-52014D02*
G03*
X-134381Y-52014I-707J0D01*
G01*
X127000Y348000D02*
X337000D01*
X127000Y323000D02*
X337000D01*
X127000Y253000D02*
X337000D01*
X127000Y228000D02*
X337000D01*
X47000Y257000D02*
X92000D01*
X47000Y343000D02*
X92000D01*
X47000Y319000D02*
X92000D01*
X-78000Y303000D02*
X42000D01*
X-78000Y273000D02*
X42000D01*
X47000Y233000D02*
X92000D01*
X42000Y228000D02*
Y348000D01*
X97000Y257000D02*
X127000D01*
X97000Y343000D02*
X127000D01*
X97000Y319000D02*
X127000D01*
X97000Y233000D02*
X127000D01*
X42000Y348000D02*
X47000D01*
X42000Y228000D02*
X47000D01*
X337000D02*
Y348000D01*
X127000Y228000D02*
Y348000D01*
Y228000D02*
Y253000D01*
Y323000D02*
Y348000D01*
X92000Y228000D02*
Y348000D01*
X97000Y228000D02*
Y348000D01*
X47000Y228000D02*
Y348000D01*
X-78000Y273000D02*
Y303000D01*
X92000Y348000D02*
X97000D01*
X92000Y228000D02*
X97000D01*
D14*
X369500Y245000D02*
X377500D01*
Y331000D01*
X369500D02*
X377500D01*
X336500D02*
X344500D01*
X336500Y245000D02*
Y331000D01*
Y245000D02*
X344500D01*
X336500Y288000D02*
X377500D01*
D16*
X120000Y-0D02*
G03*
X120000Y-0I-120000J0D01*
G01*
D17*
X-113300Y221000D02*
Y222920D01*
X-138700Y221000D02*
X-113300D01*
X-138700D02*
Y222920D01*
Y233080D02*
Y235000D01*
X-113300D01*
Y233080D02*
Y235000D01*
X-126000Y221000D02*
Y235000D01*
X-194000Y211000D02*
Y214000D01*
X-166000D01*
Y211000D02*
Y214000D01*
Y200000D02*
Y203000D01*
X-194000Y200000D02*
X-166000D01*
X-194000D02*
Y203000D01*
X-180000Y200000D02*
Y214000D01*
X202000Y-151000D02*
X205000D01*
X202000D02*
Y-123000D01*
X205000D01*
X213000D02*
X216000D01*
Y-151000D02*
Y-123000D01*
X213000Y-151000D02*
X216000D01*
X202000Y-137000D02*
X216000D01*
X-16000Y-138000D02*
X-2000D01*
X-16000Y-124000D02*
X-13000D01*
X-16000Y-152000D02*
Y-124000D01*
Y-152000D02*
X-13000D01*
X-5000D02*
X-2000D01*
Y-124000D01*
X-5000D02*
X-2000D01*
X-181000Y-14000D02*
Y0D01*
X-167000Y-3000D02*
Y0D01*
X-195000D02*
X-167000D01*
X-195000Y-3000D02*
Y0D01*
Y-14000D02*
Y-11000D01*
Y-14000D02*
X-167000D01*
Y-11000D01*
D18*
X138245Y-56146D02*
X144848Y-59959D01*
X117745Y-91653D02*
X124348Y-95466D01*
X20500Y147800D02*
Y155425D01*
X-20500Y147800D02*
Y155425D01*
X-144848Y-59959D02*
X-138245Y-56146D01*
X-124348Y-95466D02*
X-117745Y-91653D01*
M02*
