G04*
G04 #@! TF.GenerationSoftware,Altium Limited,Altium Designer,24.4.1 (13)*
G04*
G04 Layer_Physical_Order=2*
G04 Layer_Color=16711680*
%FSLAX44Y44*%
%MOMM*%
G71*
G04*
G04 #@! TF.SameCoordinates,1D3D786A-4C35-496E-9A10-02EDD5D57B8C*
G04*
G04*
G04 #@! TF.FilePolarity,Positive*
G04*
G01*
G75*
%ADD11C,0.7120*%
%ADD12C,0.2540*%
%ADD23R,0.9000X1.0000*%
%ADD29R,0.8500X0.9500*%
%ADD31R,1.0000X0.9000*%
%ADD78C,1.0000*%
%ADD80C,0.5080*%
%ADD81C,1.3000*%
%ADD82R,1.3000X1.3000*%
%ADD83C,1.6000*%
%ADD84R,1.6000X1.6000*%
%ADD85R,1.3000X1.3000*%
%ADD86C,1.0000*%
G04:AMPARAMS|DCode=87|XSize=2.14mm|YSize=1.07mm|CornerRadius=0mm|HoleSize=0mm|Usage=FLASHONLY|Rotation=330.000|XOffset=0mm|YOffset=0mm|HoleType=Round|Shape=Round|*
%AMOVALD87*
21,1,1.0700,1.0700,0.0000,0.0000,330.0*
1,1,1.0700,-0.4633,0.2675*
1,1,1.0700,0.4633,-0.2675*
%
%ADD87OVALD87*%

%ADD88O,1.0700X2.1400*%
G04:AMPARAMS|DCode=89|XSize=2.14mm|YSize=1.07mm|CornerRadius=0mm|HoleSize=0mm|Usage=FLASHONLY|Rotation=210.000|XOffset=0mm|YOffset=0mm|HoleType=Round|Shape=Round|*
%AMOVALD89*
21,1,1.0700,1.0700,0.0000,0.0000,210.0*
1,1,1.0700,0.4633,0.2675*
1,1,1.0700,-0.4633,-0.2675*
%
%ADD89OVALD89*%

%ADD90C,0.7000*%
%ADD91R,3.6500X1.6000*%
G36*
X-175018Y278000D02*
X-175099Y277966D01*
X-177004Y276504D01*
X-178466Y274599D01*
X-179385Y272381D01*
X-179699Y270000D01*
X-179385Y267619D01*
X-178466Y265401D01*
X-177004Y263496D01*
Y256504D01*
X-178466Y254599D01*
X-179385Y252381D01*
X-179699Y250000D01*
X-179385Y247619D01*
X-178731Y246040D01*
X-179540Y239040D01*
X-179540D01*
Y231205D01*
X-179699Y230000D01*
X-179540Y228795D01*
Y220960D01*
X-179540D01*
X-180290Y214540D01*
X-180290D01*
X-180290Y214271D01*
Y199460D01*
X-166210D01*
Y207527D01*
X-165715Y208268D01*
X-165320Y210250D01*
X-165320Y210250D01*
Y220960D01*
X-161460D01*
Y228795D01*
X-161301Y230000D01*
X-161460Y231205D01*
Y239040D01*
X-161460Y239040D01*
X-162269Y246040D01*
X-161615Y247619D01*
X-161301Y250000D01*
X-161615Y252381D01*
X-162534Y254599D01*
X-163995Y256504D01*
Y263496D01*
X-162534Y265401D01*
X-161615Y267619D01*
X-161301Y270000D01*
X-161519Y271656D01*
X-151000Y282175D01*
X-144000Y279276D01*
Y219000D01*
X-122000D01*
Y199000D01*
X-144000D01*
Y127494D01*
X-152250Y119244D01*
X-153092Y117983D01*
X-153388Y116497D01*
Y-74896D01*
X-153092Y-76382D01*
X-152250Y-77642D01*
X-144000Y-85892D01*
Y-95000D01*
X-132899D01*
X-132162Y-95565D01*
X-130243Y-96361D01*
X-128183Y-96632D01*
X-126124Y-96360D01*
X-124204Y-95565D01*
X-123225Y-95000D01*
X-69183D01*
X-20720D01*
X-20720Y-95000D01*
X-20322Y-99042D01*
X-19143Y-102929D01*
X-17228Y-106511D01*
X-14651Y-109651D01*
X-11511Y-112228D01*
X-7929Y-114143D01*
X-4042Y-115322D01*
X0Y-115720D01*
X4042Y-115322D01*
X7929Y-114143D01*
X11511Y-112228D01*
X14651Y-109651D01*
X17228Y-106511D01*
X19143Y-102929D01*
X20322Y-99042D01*
X20720Y-95000D01*
X20720Y-95000D01*
X122541Y-95000D01*
X123225D01*
X124204Y-95565D01*
X126124Y-96360D01*
X128183Y-96632D01*
X130243Y-96360D01*
X132162Y-95565D01*
X132899Y-95000D01*
X291000D01*
X312432Y-73568D01*
X313670Y-72330D01*
X314465Y-72001D01*
X315900Y-70900D01*
X317001Y-69465D01*
X317693Y-67793D01*
X317929Y-66000D01*
X317957Y-63640D01*
X319328Y-60692D01*
X321465Y-59001D01*
X322900Y-57900D01*
X324001Y-56465D01*
X324693Y-54793D01*
X324929Y-53000D01*
X324693Y-51207D01*
X324001Y-49535D01*
X322900Y-48100D01*
X321465Y-46999D01*
X319793Y-46307D01*
X318000Y-46071D01*
X317575Y-39261D01*
Y0D01*
X347000Y-0D01*
X347000Y-0D01*
X357000Y-10000D01*
X357000Y-113000D01*
X306820Y-163180D01*
X-196780D01*
X-196780Y285000D01*
X-176411D01*
X-175018Y278000D01*
D02*
G37*
%LPC*%
G36*
X-167210Y540D02*
X-181290D01*
Y-14540D01*
X-175679D01*
Y-22479D01*
X-177004Y-23496D01*
X-178466Y-25401D01*
X-179385Y-27619D01*
X-179699Y-30000D01*
X-179385Y-32381D01*
X-178466Y-34599D01*
X-177004Y-36504D01*
Y-43496D01*
X-178466Y-45401D01*
X-179385Y-47619D01*
X-179699Y-50000D01*
X-179385Y-52381D01*
X-178731Y-53960D01*
X-179540Y-60960D01*
X-179540D01*
Y-68795D01*
X-179699Y-70000D01*
X-179540Y-71205D01*
Y-79040D01*
X-171705D01*
X-170500Y-79199D01*
X-169295Y-79040D01*
X-161460D01*
Y-71205D01*
X-161301Y-70000D01*
X-161460Y-68795D01*
Y-60960D01*
X-161460Y-60960D01*
X-162269Y-53960D01*
X-161615Y-52381D01*
X-161301Y-50000D01*
X-161615Y-47619D01*
X-162534Y-45401D01*
X-163995Y-43496D01*
Y-36504D01*
X-162534Y-34599D01*
X-161615Y-32381D01*
X-161301Y-30000D01*
X-161615Y-27619D01*
X-162534Y-25401D01*
X-163995Y-23496D01*
X-165320Y-22479D01*
Y-11250D01*
X-165320Y-11250D01*
X-165715Y-9268D01*
X-166838Y-7588D01*
X-167210Y-7215D01*
Y540D01*
D02*
G37*
G36*
X270000Y-117101D02*
X267619Y-117415D01*
X265401Y-118334D01*
X263799Y-119563D01*
X261869Y-119796D01*
X258131D01*
X256201Y-119563D01*
X254599Y-118334D01*
X252381Y-117415D01*
X250000Y-117101D01*
X247619Y-117415D01*
X245401Y-118334D01*
X243799Y-119563D01*
X241869Y-119796D01*
X238131D01*
X236201Y-119563D01*
X234599Y-118334D01*
X232381Y-117415D01*
X230000Y-117101D01*
X227619Y-117415D01*
X225401Y-118334D01*
X223496Y-119796D01*
X222709Y-120821D01*
X213750D01*
X211768Y-121215D01*
X210088Y-122338D01*
X210088Y-122338D01*
X209215Y-123210D01*
X201460D01*
Y-137290D01*
X216540D01*
Y-134862D01*
X223496Y-132804D01*
X225401Y-134266D01*
X227619Y-135185D01*
X230000Y-135499D01*
X232381Y-135185D01*
X234599Y-134266D01*
X236201Y-133037D01*
X238131Y-132804D01*
X241869D01*
X243799Y-133037D01*
X245401Y-134266D01*
X247619Y-135185D01*
X250000Y-135499D01*
X252381Y-135185D01*
X254599Y-134266D01*
X256201Y-133037D01*
X258131Y-132804D01*
X261869D01*
X263799Y-133037D01*
X265401Y-134266D01*
X267619Y-135185D01*
X270000Y-135499D01*
X272381Y-135185D01*
X274599Y-134266D01*
X276504Y-132804D01*
X277966Y-130899D01*
X278885Y-128681D01*
X279199Y-126300D01*
X278885Y-123919D01*
X277966Y-121701D01*
X276504Y-119796D01*
X274599Y-118334D01*
X272381Y-117415D01*
X270000Y-117101D01*
D02*
G37*
G36*
X-30000D02*
X-32381Y-117415D01*
X-34599Y-118334D01*
X-36201Y-119563D01*
X-38131Y-119796D01*
X-41869D01*
X-43799Y-119563D01*
X-45401Y-118334D01*
X-47619Y-117415D01*
X-50000Y-117101D01*
X-52381Y-117415D01*
X-54599Y-118334D01*
X-56201Y-119563D01*
X-58131Y-119796D01*
X-61869D01*
X-63799Y-119563D01*
X-65401Y-118334D01*
X-67619Y-117415D01*
X-70000Y-117101D01*
X-72381Y-117415D01*
X-74599Y-118334D01*
X-76505Y-119796D01*
X-77966Y-121701D01*
X-78885Y-123919D01*
X-79199Y-126300D01*
X-78885Y-128681D01*
X-77966Y-130899D01*
X-76505Y-132804D01*
X-74599Y-134266D01*
X-72381Y-135185D01*
X-70000Y-135499D01*
X-67619Y-135185D01*
X-65401Y-134266D01*
X-63799Y-133037D01*
X-61869Y-132804D01*
X-58131D01*
X-56201Y-133037D01*
X-54599Y-134266D01*
X-52381Y-135185D01*
X-50000Y-135499D01*
X-47619Y-135185D01*
X-45401Y-134266D01*
X-43799Y-133037D01*
X-41869Y-132804D01*
X-38131D01*
X-36201Y-133037D01*
X-34599Y-134266D01*
X-32381Y-135185D01*
X-30000Y-135499D01*
X-27619Y-135185D01*
X-25401Y-134266D01*
X-23496Y-132804D01*
X-16540Y-134303D01*
Y-138290D01*
X-1460D01*
Y-124210D01*
X-9201D01*
X-10773Y-122638D01*
X-12454Y-121515D01*
X-14436Y-121121D01*
X-22479D01*
X-23496Y-119796D01*
X-25401Y-118334D01*
X-27619Y-117415D01*
X-30000Y-117101D01*
D02*
G37*
%LPD*%
D11*
X208530Y-144220D02*
X209000Y-143750D01*
X208060Y-144690D02*
X208530Y-144220D01*
X-8530Y-145220D02*
X-8060Y-145690D01*
X-9000Y-144750D02*
X-8530Y-145220D01*
X-187690Y207940D02*
X-186750Y207000D01*
X-187690Y207940D02*
Y208440D01*
D12*
X197310Y62690D02*
Y121690D01*
X197000Y122000D02*
X197310Y121690D01*
Y62690D02*
X238000Y22000D01*
X190000Y-2000D02*
X218000Y-30000D01*
X190000Y-2000D02*
Y109000D01*
X171500Y104500D02*
Y124500D01*
X187000Y140000D01*
X150000Y339000D02*
Y360000D01*
Y360207D01*
X-132500Y218707D02*
Y228000D01*
X-136000Y215207D02*
X-132500Y218707D01*
X-136000Y214000D02*
Y215207D01*
X-119500Y228000D02*
X-99000D01*
X-74000Y203000D01*
X-149503Y116497D02*
X-23000Y243000D01*
X208530Y-144220D02*
X210610Y-146300D01*
X-9610D02*
X-8530Y-145220D01*
X313690Y-47483D02*
Y6690D01*
X329000Y22000D01*
X303000Y-45000D02*
Y12000D01*
X313000Y22000D01*
X318000Y-53000D02*
Y-51793D01*
X313690Y-47483D02*
X318000Y-51793D01*
X179000Y-6000D02*
Y22000D01*
Y-6000D02*
X209000Y-36000D01*
X295000Y-50000D02*
Y23000D01*
Y-50000D02*
X311000Y-66000D01*
X218000Y73406D02*
Y122000D01*
Y73406D02*
X272000Y19406D01*
Y-30000D02*
Y19406D01*
X238000Y-27662D02*
Y22000D01*
Y-27662D02*
X253358Y-43021D01*
X254000Y-27000D02*
Y22000D01*
Y-27000D02*
X263000Y-36000D01*
X220000Y-20000D02*
Y23000D01*
Y-20000D02*
X266101Y-66101D01*
X267000D01*
X143000Y49612D02*
Y121000D01*
Y49612D02*
X152310Y40302D01*
Y-18310D02*
Y40302D01*
Y-18310D02*
X164000Y-30000D01*
X163000Y-7000D02*
Y35000D01*
Y-7000D02*
X201000Y-45000D01*
X145000Y-22696D02*
Y23000D01*
Y-22696D02*
X188405Y-66101D01*
X223000D01*
X-130000Y379000D02*
X-47000D01*
X-130230D02*
X-130000D01*
X-47000D02*
X0Y332000D01*
X-131230Y380000D02*
X-130230Y379000D01*
X150000Y360207D02*
X151023Y361230D01*
X266000Y153000D02*
Y208000D01*
X313000Y106000D02*
X320000D01*
X266000Y153000D02*
X313000Y106000D01*
X239000Y247000D02*
X275000Y211000D01*
Y164000D02*
X330000Y109000D01*
X275000Y164000D02*
Y211000D01*
X236000Y238000D02*
X266000Y208000D01*
X233000Y229000D02*
X257000Y205000D01*
X255000Y101207D02*
X257000Y103207D01*
X255000Y100000D02*
Y101207D01*
X257000Y103207D02*
Y205000D01*
X231000Y220000D02*
X248000Y203000D01*
X246000Y105000D02*
Y106207D01*
X248000Y108207D01*
Y203000D01*
X211338Y140000D02*
X232000Y160662D01*
X187000Y140000D02*
X211338D01*
X240000Y146000D02*
Y200000D01*
X229000Y211000D02*
X240000Y200000D01*
X225000Y131000D02*
X240000Y146000D01*
X232000Y160662D02*
Y197000D01*
X188388Y204000D02*
X225000D01*
X232000Y197000D01*
X181388Y197000D02*
X188388Y204000D01*
X109000Y205000D02*
X166000D01*
X172000Y211000D02*
X229000D01*
X166000Y205000D02*
X172000Y211000D01*
X124000Y213000D02*
X157000D01*
X164000Y220000D02*
X231000D01*
X157000Y213000D02*
X164000Y220000D01*
X107000Y221000D02*
X141000D01*
X149000Y229000D02*
X233000D01*
X141000Y221000D02*
X149000Y229000D01*
X-149503Y-74896D02*
Y116497D01*
Y-74896D02*
X-137287Y-87112D01*
X-124664D01*
X-123550Y-85998D01*
X102000Y197000D02*
X181388D01*
X133575Y-61326D02*
X136250Y-64001D01*
X133575Y-61326D02*
Y96425D01*
X6000Y224000D02*
X133575Y96425D01*
X330000Y100000D02*
Y109000D01*
X332000Y-5000D02*
X346000Y9000D01*
X300060Y183000D02*
X346000Y137060D01*
Y9000D02*
Y137060D01*
X282000Y53000D02*
X313000Y22000D01*
X259000Y53000D02*
X282000D01*
X229000Y83000D02*
Y122000D01*
Y83000D02*
X259000Y53000D01*
X193000Y131000D02*
X225000D01*
X180000Y118000D02*
X193000Y131000D01*
X180000Y100000D02*
Y118000D01*
X153000Y45000D02*
X163000Y35000D01*
X153000Y45000D02*
Y121000D01*
X112000Y247000D02*
X239000D01*
X120000Y238000D02*
X236000D01*
X81000Y160000D02*
X107000Y134000D01*
X156000D01*
X87000Y165000D02*
X101000Y151000D01*
X201000D01*
X93000Y171000D02*
X106310Y157690D01*
X135000Y165000D02*
X135500Y165500D01*
X106310Y157690D02*
X181331D01*
X183641Y160000D01*
X208000Y184063D02*
X220243Y196306D01*
X135500Y165500D02*
X168500D01*
X169000Y166000D02*
X208000D01*
X183641Y160000D02*
X202999D01*
X168500Y165500D02*
X169000Y166000D01*
X208000D02*
Y184063D01*
X93000Y269589D02*
X116681Y293270D01*
X202999Y160000D02*
X212000Y151000D01*
X93000Y171000D02*
Y269589D01*
X108972Y317962D02*
X118962D01*
X74413Y283403D02*
X108972Y317962D01*
X74413Y244413D02*
Y283403D01*
X39000Y209000D02*
X74413Y244413D01*
X114052Y336948D02*
X128310Y322690D01*
X-20800Y318000D02*
X40517D01*
X59465Y336948D01*
X114052D01*
X128310Y268310D02*
Y322690D01*
X118962Y317962D02*
X119000Y317999D01*
X70000Y255000D02*
Y289000D01*
X109235Y324507D02*
X110000Y325272D01*
X105507Y324507D02*
X109235D01*
X70000Y289000D02*
X105507Y324507D01*
X110793Y310652D02*
X112000D01*
X116220Y303147D02*
X120147D01*
X87000Y273927D02*
X116220Y303147D01*
X120147D02*
X121000Y304000D01*
X108838Y308697D02*
X110793Y310652D01*
X108697Y308697D02*
X108838D01*
X81000Y281000D02*
X108697Y308697D01*
X81000Y160000D02*
Y281000D01*
X29000Y214000D02*
X70000Y255000D01*
X87000Y165000D02*
Y273927D01*
X356000Y318750D02*
X357000Y319750D01*
X-20800Y318000D02*
X-14070Y324730D01*
X-13000Y241000D02*
X-12850Y240850D01*
Y150150D02*
Y240850D01*
Y150150D02*
X-12700Y150000D01*
X119000Y259000D02*
X128310Y268310D01*
X210610Y-146300D02*
X230000D01*
X-30000D02*
X-9610D01*
X-190500Y-9750D02*
X-187750Y-7000D01*
X-190500Y-30000D02*
Y-9750D01*
Y230000D02*
X-189980Y229480D01*
Y210230D02*
Y229480D01*
Y210230D02*
X-187690Y207940D01*
D23*
X-186750Y207000D02*
D03*
X-173250D02*
D03*
X-187750Y-7000D02*
D03*
X-174250D02*
D03*
D29*
X-132500Y228000D02*
D03*
X-119500D02*
D03*
D31*
X209000Y-143750D02*
D03*
Y-130250D02*
D03*
X-9000Y-144750D02*
D03*
Y-131250D02*
D03*
D78*
X170000Y380000D02*
G03*
X150000Y360000I-20000J0D01*
G01*
D02*
G03*
X170000Y380000I0J20000D01*
G01*
X-130000D02*
G03*
X-130000Y380000I-20000J0D01*
G01*
D80*
X-72000Y296000D02*
Y320300D01*
X-92000Y153000D02*
X-43000D01*
X11625Y135976D02*
Y148925D01*
X8649Y133000D02*
X11625Y135976D01*
X-23000Y133000D02*
X8649D01*
X25670Y146330D02*
X124000Y48000D01*
X103000Y-59000D02*
X124000Y-38000D01*
Y48000D01*
X367000Y-77000D02*
X368000Y-78000D01*
X-145500Y295000D02*
X33000D01*
X-72000Y320300D02*
X-71300Y321000D01*
X-170500Y270000D02*
X-145500Y295000D01*
X-30000Y-126300D02*
X-28014D01*
X-50000D02*
X-30000D01*
X-170500Y-30000D02*
Y-11250D01*
Y-50000D02*
Y-30000D01*
X33000Y273000D02*
Y295000D01*
X-170500Y250000D02*
Y270000D01*
X229700Y-126000D02*
X230000Y-126300D01*
X209000Y-130250D02*
X209500D01*
X213750Y-126000D01*
X229700D01*
X230000Y-126300D02*
X250000D01*
X270000D01*
X-28014Y-126300D02*
X-14436D01*
X-11460Y-129276D01*
X-9500Y-131250D02*
X-9000D01*
X-11460Y-129290D02*
Y-129276D01*
Y-129290D02*
X-9500Y-131250D01*
X-70000Y-126300D02*
X-50000D01*
X-170500Y230000D02*
X-170500Y230000D01*
X-170500Y210250D02*
Y230000D01*
X-173250Y207500D02*
X-170500Y210250D01*
X-173250Y207000D02*
Y207500D01*
X-170500Y230000D02*
Y250000D01*
X-174250Y-7500D02*
Y-7000D01*
Y-7500D02*
X-170500Y-11250D01*
Y-70000D02*
Y-50000D01*
X33000Y247000D02*
Y273000D01*
Y295000D02*
X65000D01*
X112999Y-80998D02*
X114850D01*
X103000Y-71000D02*
X112999Y-80998D01*
X103000Y-71000D02*
Y-59000D01*
X15296Y146330D02*
X25670D01*
X12700Y148926D02*
X15296Y146330D01*
X-127000Y118000D02*
X-92000Y153000D01*
X-43000D02*
X-23000Y133000D01*
X11625Y148925D02*
X12700Y150000D01*
X-127000Y-54752D02*
Y118000D01*
X-136250Y-64001D02*
X-135813D01*
X-130541Y-58730D01*
Y-58293D01*
X-127000Y-54752D01*
D81*
X-68000Y258000D02*
D03*
X-88000D02*
D03*
X348000Y-78000D02*
D03*
X-190500Y-30000D02*
D03*
Y-50000D02*
D03*
X-170500Y-30000D02*
D03*
Y-50000D02*
D03*
X-190500Y-70000D02*
D03*
Y270000D02*
D03*
Y250000D02*
D03*
X-170500Y270000D02*
D03*
Y250000D02*
D03*
X-190500Y230000D02*
D03*
X270000Y-126300D02*
D03*
X250000D02*
D03*
X270000Y-146300D02*
D03*
X250000D02*
D03*
X230000Y-126300D02*
D03*
X-30000D02*
D03*
X-50000D02*
D03*
X-30000Y-146300D02*
D03*
X-50000D02*
D03*
X-70000Y-126300D02*
D03*
D82*
X-108000Y258000D02*
D03*
X368000Y-78000D02*
D03*
X230000Y-146300D02*
D03*
X-70000D02*
D03*
D83*
X-148500Y316000D02*
D03*
X-123100D02*
D03*
X-72300D02*
D03*
X-46900D02*
D03*
X-97700D02*
D03*
D84*
X-21500D02*
D03*
D85*
X-170500Y-70000D02*
D03*
Y230000D02*
D03*
D86*
X164000Y-30000D02*
D03*
X272000D02*
D03*
X218000D02*
D03*
D87*
X136250Y-64001D02*
D03*
X123550Y-85998D02*
D03*
X129900Y-75000D02*
D03*
D88*
X-0Y150000D02*
D03*
X12700D02*
D03*
X-12700D02*
D03*
D89*
X-129900Y-75000D02*
D03*
X-136250Y-64001D02*
D03*
X-123550Y-85998D02*
D03*
D90*
X197000Y122000D02*
D03*
X190000Y109000D02*
D03*
X171500Y104500D02*
D03*
X-37000Y193000D02*
D03*
Y202000D02*
D03*
X-27000Y193000D02*
D03*
Y202000D02*
D03*
X-136000Y214000D02*
D03*
Y205000D02*
D03*
X-127000D02*
D03*
Y214000D02*
D03*
X-74000Y203000D02*
D03*
X364000Y260000D02*
D03*
Y319000D02*
D03*
X350000D02*
D03*
Y260000D02*
D03*
X223000Y-66101D02*
D03*
X267000Y-66101D02*
D03*
X-83000Y379000D02*
D03*
X150000Y339000D02*
D03*
X-23000Y243000D02*
D03*
X107000Y221000D02*
D03*
X109000Y205000D02*
D03*
X124000Y213000D02*
D03*
X320000Y106000D02*
D03*
X246000Y105000D02*
D03*
X229000Y122000D02*
D03*
X218000D02*
D03*
X153000Y121000D02*
D03*
X143000D02*
D03*
X156000Y134000D02*
D03*
X135000Y165000D02*
D03*
X330000Y100000D02*
D03*
X329000Y22000D02*
D03*
X295000Y23000D02*
D03*
X313000Y22000D02*
D03*
X255000Y100000D02*
D03*
X254000Y22000D02*
D03*
X220000Y23000D02*
D03*
X238000Y22000D02*
D03*
X180000Y100000D02*
D03*
X332000Y-15000D02*
D03*
X321000Y-37000D02*
D03*
X332000Y-5000D02*
D03*
Y-26000D02*
D03*
Y-37000D02*
D03*
X321000Y-26000D02*
D03*
Y-15000D02*
D03*
Y-5000D02*
D03*
X209000Y-36000D02*
D03*
X179000Y22000D02*
D03*
X163000D02*
D03*
X300060Y183000D02*
D03*
X145000Y23000D02*
D03*
X220243Y196306D02*
D03*
X169000Y166000D02*
D03*
X212000Y151000D02*
D03*
X0Y332000D02*
D03*
X119000Y317999D02*
D03*
X110000Y325272D02*
D03*
X112000Y310652D02*
D03*
X29000Y214000D02*
D03*
X39000Y209000D02*
D03*
X102000Y197000D02*
D03*
X-13000Y241000D02*
D03*
X65000Y295000D02*
D03*
X33000Y273000D02*
D03*
Y247000D02*
D03*
Y295000D02*
D03*
X-138000Y275000D02*
D03*
X-147000D02*
D03*
X-141000Y265000D02*
D03*
X-131000Y268000D02*
D03*
X201000Y151000D02*
D03*
X208000Y166000D02*
D03*
X253358Y-43021D02*
D03*
X263000Y-36000D02*
D03*
X201000Y-45000D02*
D03*
X311000Y-66000D02*
D03*
X303000Y-45000D02*
D03*
X318000Y-53000D02*
D03*
X121000Y304000D02*
D03*
X120000Y238000D02*
D03*
X112000Y247000D02*
D03*
X116681Y293270D02*
D03*
X6000Y224000D02*
D03*
X119000Y259000D02*
D03*
D91*
X357000Y256250D02*
D03*
Y319750D02*
D03*
M02*
