G04*
G04 #@! TF.GenerationSoftware,Altium Limited,Altium Designer,22.11.1 (43)*
G04*
G04 Layer_Color=16711935*
%FSLAX25Y25*%
%MOIN*%
G70*
G04*
G04 #@! TF.SameCoordinates,068BE47B-EC71-4F73-AC5B-A776348265D8*
G04*
G04*
G04 #@! TF.FilePolarity,Negative*
G04*
G01*
G75*
%ADD15C,0.00500*%
%ADD19R,0.03753X0.03162*%
%ADD20R,0.03320X0.03162*%
%ADD21R,0.03162X0.03320*%
%ADD24R,0.03162X0.03753*%
%ADD25R,0.04934X0.03950*%
%ADD26R,0.03359X0.03950*%
%ADD31R,0.03950X0.02139*%
%ADD32R,0.03398X0.02454*%
%ADD34R,0.06312X0.05918*%
%ADD36R,0.05918X0.06312*%
%ADD42C,0.04934*%
%ADD43C,0.06800*%
%ADD87C,0.03300*%
G04:AMPARAMS|DCode=88|XSize=43.43mil|YSize=70.99mil|CornerRadius=4.89mil|HoleSize=0mil|Usage=FLASHONLY|Rotation=0.000|XOffset=0mil|YOffset=0mil|HoleType=Round|Shape=RoundedRectangle|*
%AMROUNDEDRECTD88*
21,1,0.04343,0.06122,0,0,0.0*
21,1,0.03366,0.07099,0,0,0.0*
1,1,0.00977,0.01683,-0.03061*
1,1,0.00977,-0.01683,-0.03061*
1,1,0.00977,-0.01683,0.03061*
1,1,0.00977,0.01683,0.03061*
%
%ADD88ROUNDEDRECTD88*%
G04:AMPARAMS|DCode=89|XSize=27.69mil|YSize=17.84mil|CornerRadius=5.23mil|HoleSize=0mil|Usage=FLASHONLY|Rotation=0.000|XOffset=0mil|YOffset=0mil|HoleType=Round|Shape=RoundedRectangle|*
%AMROUNDEDRECTD89*
21,1,0.02769,0.00738,0,0,0.0*
21,1,0.01722,0.01784,0,0,0.0*
1,1,0.01046,0.00861,-0.00369*
1,1,0.01046,-0.00861,-0.00369*
1,1,0.01046,-0.00861,0.00369*
1,1,0.01046,0.00861,0.00369*
%
%ADD89ROUNDEDRECTD89*%
%ADD90R,0.02764X0.01583*%
%ADD91R,0.01583X0.02764*%
%ADD92R,0.02762X0.01581*%
%ADD93R,0.13983X0.13983*%
%ADD94R,0.01581X0.02762*%
%ADD95R,0.05328X0.06115*%
G36*
X-54987Y-30587D02*
X-54936Y-30597D01*
X-54886Y-30614D01*
X-54839Y-30637D01*
X-54795Y-30666D01*
X-54756Y-30701D01*
X-54721Y-30740D01*
X-54692Y-30784D01*
X-54669Y-30831D01*
X-54652Y-30880D01*
X-54642Y-30932D01*
X-54638Y-30984D01*
Y-32729D01*
X-54331D01*
X-54278Y-32732D01*
X-54227Y-32743D01*
X-54177Y-32760D01*
X-54130Y-32783D01*
X-54087Y-32812D01*
X-54047Y-32847D01*
X-54013Y-32886D01*
X-53984Y-32930D01*
X-53960Y-32976D01*
X-53944Y-33026D01*
X-53933Y-33078D01*
X-53930Y-33130D01*
Y-42461D01*
X-53933Y-42513D01*
X-53944Y-42564D01*
X-53960Y-42614D01*
X-53984Y-42661D01*
X-54013Y-42705D01*
X-54047Y-42744D01*
X-54087Y-42779D01*
X-54130Y-42808D01*
X-54177Y-42831D01*
X-54227Y-42848D01*
X-54278Y-42858D01*
X-54331Y-42862D01*
X-54638D01*
Y-44606D01*
X-54642Y-44659D01*
X-54652Y-44710D01*
X-54669Y-44760D01*
X-54692Y-44807D01*
X-54721Y-44850D01*
X-54756Y-44890D01*
X-54795Y-44924D01*
X-54839Y-44953D01*
X-54886Y-44977D01*
X-54936Y-44993D01*
X-54987Y-45004D01*
X-55039Y-45007D01*
X-57284D01*
X-57336Y-45004D01*
X-57387Y-44993D01*
X-57437Y-44977D01*
X-57484Y-44953D01*
X-57528Y-44924D01*
X-57567Y-44890D01*
X-57601Y-44850D01*
X-57631Y-44807D01*
X-57654Y-44760D01*
X-57671Y-44710D01*
X-57681Y-44659D01*
X-57684Y-44606D01*
Y-42862D01*
X-63386D01*
X-63438Y-42858D01*
X-63490Y-42848D01*
X-63539Y-42831D01*
X-63586Y-42808D01*
X-63630Y-42779D01*
X-63669Y-42744D01*
X-63704Y-42705D01*
X-63733Y-42661D01*
X-63756Y-42614D01*
X-63773Y-42564D01*
X-63783Y-42513D01*
X-63787Y-42461D01*
Y-40807D01*
X-63783Y-40755D01*
X-63773Y-40703D01*
X-63756Y-40654D01*
X-63733Y-40607D01*
X-63704Y-40563D01*
X-63669Y-40524D01*
X-63630Y-40489D01*
X-63586Y-40460D01*
X-63539Y-40437D01*
X-63490Y-40420D01*
X-63438Y-40410D01*
X-63386Y-40406D01*
X-61936D01*
Y-40302D01*
X-63386D01*
X-63438Y-40299D01*
X-63490Y-40289D01*
X-63539Y-40272D01*
X-63586Y-40249D01*
X-63630Y-40220D01*
X-63669Y-40185D01*
X-63704Y-40146D01*
X-63733Y-40102D01*
X-63756Y-40055D01*
X-63773Y-40005D01*
X-63783Y-39954D01*
X-63787Y-39902D01*
Y-38248D01*
X-63783Y-38196D01*
X-63773Y-38144D01*
X-63756Y-38095D01*
X-63733Y-38048D01*
X-63704Y-38004D01*
X-63669Y-37965D01*
X-63630Y-37930D01*
X-63586Y-37901D01*
X-63539Y-37878D01*
X-63490Y-37861D01*
X-63438Y-37851D01*
X-63386Y-37847D01*
X-61936D01*
Y-37743D01*
X-63386D01*
X-63438Y-37740D01*
X-63490Y-37730D01*
X-63539Y-37713D01*
X-63586Y-37690D01*
X-63630Y-37661D01*
X-63669Y-37626D01*
X-63704Y-37587D01*
X-63733Y-37543D01*
X-63756Y-37496D01*
X-63773Y-37446D01*
X-63783Y-37395D01*
X-63787Y-37343D01*
Y-35689D01*
X-63783Y-35637D01*
X-63773Y-35585D01*
X-63756Y-35536D01*
X-63733Y-35489D01*
X-63704Y-35445D01*
X-63669Y-35405D01*
X-63630Y-35371D01*
X-63586Y-35342D01*
X-63539Y-35319D01*
X-63490Y-35302D01*
X-63438Y-35292D01*
X-63386Y-35288D01*
X-61936D01*
Y-35184D01*
X-63386D01*
X-63438Y-35181D01*
X-63490Y-35171D01*
X-63539Y-35154D01*
X-63586Y-35131D01*
X-63630Y-35102D01*
X-63669Y-35067D01*
X-63704Y-35028D01*
X-63733Y-34984D01*
X-63756Y-34937D01*
X-63773Y-34887D01*
X-63783Y-34836D01*
X-63787Y-34784D01*
Y-33130D01*
X-63783Y-33078D01*
X-63773Y-33026D01*
X-63756Y-32976D01*
X-63733Y-32930D01*
X-63704Y-32886D01*
X-63669Y-32847D01*
X-63630Y-32812D01*
X-63586Y-32783D01*
X-63539Y-32760D01*
X-63490Y-32743D01*
X-63438Y-32732D01*
X-63386Y-32729D01*
X-57684D01*
Y-30984D01*
X-57681Y-30932D01*
X-57671Y-30880D01*
X-57654Y-30831D01*
X-57631Y-30784D01*
X-57601Y-30740D01*
X-57567Y-30701D01*
X-57528Y-30666D01*
X-57484Y-30637D01*
X-57437Y-30614D01*
X-57387Y-30597D01*
X-57336Y-30587D01*
X-57284Y-30583D01*
X-55039D01*
X-54987Y-30587D01*
D02*
G37*
G36*
Y-16020D02*
X-54936Y-16030D01*
X-54886Y-16047D01*
X-54839Y-16070D01*
X-54795Y-16099D01*
X-54756Y-16134D01*
X-54721Y-16173D01*
X-54692Y-16217D01*
X-54669Y-16264D01*
X-54652Y-16314D01*
X-54642Y-16365D01*
X-54638Y-16417D01*
Y-18162D01*
X-54331D01*
X-54278Y-18166D01*
X-54227Y-18176D01*
X-54177Y-18193D01*
X-54130Y-18216D01*
X-54087Y-18245D01*
X-54047Y-18280D01*
X-54013Y-18319D01*
X-53984Y-18363D01*
X-53960Y-18410D01*
X-53944Y-18459D01*
X-53933Y-18511D01*
X-53930Y-18563D01*
Y-27894D01*
X-53933Y-27946D01*
X-53944Y-27997D01*
X-53960Y-28047D01*
X-53984Y-28094D01*
X-54013Y-28138D01*
X-54047Y-28177D01*
X-54087Y-28212D01*
X-54130Y-28241D01*
X-54177Y-28264D01*
X-54227Y-28281D01*
X-54278Y-28291D01*
X-54331Y-28295D01*
X-54638D01*
Y-30039D01*
X-54642Y-30092D01*
X-54652Y-30143D01*
X-54669Y-30193D01*
X-54692Y-30240D01*
X-54721Y-30283D01*
X-54756Y-30323D01*
X-54795Y-30357D01*
X-54839Y-30386D01*
X-54886Y-30410D01*
X-54936Y-30427D01*
X-54987Y-30437D01*
X-55039Y-30440D01*
X-57284D01*
X-57336Y-30437D01*
X-57387Y-30427D01*
X-57437Y-30410D01*
X-57484Y-30386D01*
X-57528Y-30357D01*
X-57567Y-30323D01*
X-57601Y-30283D01*
X-57631Y-30240D01*
X-57654Y-30193D01*
X-57671Y-30143D01*
X-57681Y-30092D01*
X-57684Y-30039D01*
Y-28295D01*
X-63386D01*
X-63438Y-28291D01*
X-63490Y-28281D01*
X-63539Y-28264D01*
X-63586Y-28241D01*
X-63630Y-28212D01*
X-63669Y-28177D01*
X-63704Y-28138D01*
X-63733Y-28094D01*
X-63756Y-28047D01*
X-63773Y-27997D01*
X-63783Y-27946D01*
X-63787Y-27894D01*
Y-26240D01*
X-63783Y-26188D01*
X-63773Y-26136D01*
X-63756Y-26087D01*
X-63733Y-26040D01*
X-63704Y-25996D01*
X-63669Y-25957D01*
X-63630Y-25922D01*
X-63586Y-25893D01*
X-63539Y-25870D01*
X-63490Y-25853D01*
X-63438Y-25843D01*
X-63386Y-25839D01*
X-61936D01*
Y-25736D01*
X-63386D01*
X-63438Y-25732D01*
X-63490Y-25722D01*
X-63539Y-25705D01*
X-63586Y-25682D01*
X-63630Y-25653D01*
X-63669Y-25618D01*
X-63704Y-25579D01*
X-63733Y-25535D01*
X-63756Y-25488D01*
X-63773Y-25438D01*
X-63783Y-25387D01*
X-63787Y-25335D01*
Y-23681D01*
X-63783Y-23629D01*
X-63773Y-23577D01*
X-63756Y-23528D01*
X-63733Y-23481D01*
X-63704Y-23437D01*
X-63669Y-23398D01*
X-63630Y-23363D01*
X-63586Y-23334D01*
X-63539Y-23311D01*
X-63490Y-23294D01*
X-63438Y-23284D01*
X-63386Y-23280D01*
X-61936D01*
Y-23176D01*
X-63386D01*
X-63438Y-23173D01*
X-63490Y-23163D01*
X-63539Y-23146D01*
X-63586Y-23123D01*
X-63630Y-23094D01*
X-63669Y-23059D01*
X-63704Y-23020D01*
X-63733Y-22976D01*
X-63756Y-22929D01*
X-63773Y-22879D01*
X-63783Y-22828D01*
X-63787Y-22776D01*
Y-21122D01*
X-63783Y-21070D01*
X-63773Y-21018D01*
X-63756Y-20969D01*
X-63733Y-20922D01*
X-63704Y-20878D01*
X-63669Y-20839D01*
X-63630Y-20804D01*
X-63586Y-20775D01*
X-63539Y-20752D01*
X-63490Y-20735D01*
X-63438Y-20725D01*
X-63386Y-20721D01*
X-61936D01*
Y-20617D01*
X-63386D01*
X-63438Y-20614D01*
X-63490Y-20604D01*
X-63539Y-20587D01*
X-63586Y-20564D01*
X-63630Y-20535D01*
X-63669Y-20500D01*
X-63704Y-20461D01*
X-63733Y-20417D01*
X-63756Y-20370D01*
X-63773Y-20320D01*
X-63783Y-20269D01*
X-63787Y-20216D01*
Y-18563D01*
X-63783Y-18511D01*
X-63773Y-18459D01*
X-63756Y-18410D01*
X-63733Y-18363D01*
X-63704Y-18319D01*
X-63669Y-18280D01*
X-63630Y-18245D01*
X-63586Y-18216D01*
X-63539Y-18193D01*
X-63490Y-18176D01*
X-63438Y-18166D01*
X-63386Y-18162D01*
X-57684D01*
Y-16417D01*
X-57681Y-16365D01*
X-57671Y-16314D01*
X-57654Y-16264D01*
X-57631Y-16217D01*
X-57601Y-16173D01*
X-57567Y-16134D01*
X-57528Y-16099D01*
X-57484Y-16070D01*
X-57437Y-16047D01*
X-57387Y-16030D01*
X-57336Y-16020D01*
X-57284Y-16016D01*
X-55039D01*
X-54987Y-16020D01*
D02*
G37*
G36*
Y-1453D02*
X-54936Y-1463D01*
X-54886Y-1480D01*
X-54839Y-1503D01*
X-54795Y-1532D01*
X-54756Y-1567D01*
X-54721Y-1606D01*
X-54692Y-1650D01*
X-54669Y-1697D01*
X-54652Y-1747D01*
X-54642Y-1798D01*
X-54638Y-1850D01*
Y-3595D01*
X-54331D01*
X-54278Y-3599D01*
X-54227Y-3609D01*
X-54177Y-3626D01*
X-54130Y-3649D01*
X-54087Y-3678D01*
X-54047Y-3713D01*
X-54013Y-3752D01*
X-53984Y-3796D01*
X-53960Y-3843D01*
X-53944Y-3892D01*
X-53933Y-3944D01*
X-53930Y-3996D01*
Y-13327D01*
X-53933Y-13379D01*
X-53944Y-13431D01*
X-53960Y-13480D01*
X-53984Y-13527D01*
X-54013Y-13571D01*
X-54047Y-13610D01*
X-54087Y-13645D01*
X-54130Y-13674D01*
X-54177Y-13697D01*
X-54227Y-13714D01*
X-54278Y-13724D01*
X-54331Y-13728D01*
X-54638D01*
Y-15472D01*
X-54642Y-15525D01*
X-54652Y-15576D01*
X-54669Y-15626D01*
X-54692Y-15673D01*
X-54721Y-15717D01*
X-54756Y-15756D01*
X-54795Y-15790D01*
X-54839Y-15820D01*
X-54886Y-15843D01*
X-54936Y-15860D01*
X-54987Y-15870D01*
X-55039Y-15873D01*
X-57284D01*
X-57336Y-15870D01*
X-57387Y-15860D01*
X-57437Y-15843D01*
X-57484Y-15820D01*
X-57528Y-15790D01*
X-57567Y-15756D01*
X-57601Y-15717D01*
X-57631Y-15673D01*
X-57654Y-15626D01*
X-57671Y-15576D01*
X-57681Y-15525D01*
X-57684Y-15472D01*
Y-13728D01*
X-63386D01*
X-63438Y-13724D01*
X-63490Y-13714D01*
X-63539Y-13697D01*
X-63586Y-13674D01*
X-63630Y-13645D01*
X-63669Y-13610D01*
X-63704Y-13571D01*
X-63733Y-13527D01*
X-63756Y-13480D01*
X-63773Y-13431D01*
X-63783Y-13379D01*
X-63787Y-13327D01*
Y-11673D01*
X-63783Y-11621D01*
X-63773Y-11569D01*
X-63756Y-11520D01*
X-63733Y-11473D01*
X-63704Y-11429D01*
X-63669Y-11390D01*
X-63630Y-11355D01*
X-63586Y-11326D01*
X-63539Y-11303D01*
X-63490Y-11286D01*
X-63438Y-11276D01*
X-63386Y-11272D01*
X-61936D01*
Y-11169D01*
X-63386D01*
X-63438Y-11165D01*
X-63490Y-11155D01*
X-63539Y-11138D01*
X-63586Y-11115D01*
X-63630Y-11086D01*
X-63669Y-11051D01*
X-63704Y-11012D01*
X-63733Y-10968D01*
X-63756Y-10921D01*
X-63773Y-10871D01*
X-63783Y-10820D01*
X-63787Y-10768D01*
Y-9114D01*
X-63783Y-9062D01*
X-63773Y-9010D01*
X-63756Y-8961D01*
X-63733Y-8914D01*
X-63704Y-8870D01*
X-63669Y-8831D01*
X-63630Y-8796D01*
X-63586Y-8767D01*
X-63539Y-8744D01*
X-63490Y-8727D01*
X-63438Y-8717D01*
X-63386Y-8713D01*
X-61936D01*
Y-8609D01*
X-63386D01*
X-63438Y-8606D01*
X-63490Y-8596D01*
X-63539Y-8579D01*
X-63586Y-8556D01*
X-63630Y-8527D01*
X-63669Y-8492D01*
X-63704Y-8453D01*
X-63733Y-8409D01*
X-63756Y-8362D01*
X-63773Y-8312D01*
X-63783Y-8261D01*
X-63787Y-8209D01*
Y-6555D01*
X-63783Y-6503D01*
X-63773Y-6451D01*
X-63756Y-6402D01*
X-63733Y-6355D01*
X-63704Y-6311D01*
X-63669Y-6272D01*
X-63630Y-6237D01*
X-63586Y-6208D01*
X-63539Y-6185D01*
X-63490Y-6168D01*
X-63438Y-6158D01*
X-63386Y-6154D01*
X-61936D01*
Y-6050D01*
X-63386D01*
X-63438Y-6047D01*
X-63490Y-6037D01*
X-63539Y-6020D01*
X-63586Y-5997D01*
X-63630Y-5968D01*
X-63669Y-5933D01*
X-63704Y-5894D01*
X-63733Y-5850D01*
X-63756Y-5803D01*
X-63773Y-5753D01*
X-63783Y-5702D01*
X-63787Y-5650D01*
Y-3996D01*
X-63783Y-3944D01*
X-63773Y-3892D01*
X-63756Y-3843D01*
X-63733Y-3796D01*
X-63704Y-3752D01*
X-63669Y-3713D01*
X-63630Y-3678D01*
X-63586Y-3649D01*
X-63539Y-3626D01*
X-63490Y-3609D01*
X-63438Y-3599D01*
X-63386Y-3595D01*
X-57684D01*
Y-1850D01*
X-57681Y-1798D01*
X-57671Y-1747D01*
X-57654Y-1697D01*
X-57631Y-1650D01*
X-57601Y-1606D01*
X-57567Y-1567D01*
X-57528Y-1532D01*
X-57484Y-1503D01*
X-57437Y-1480D01*
X-57387Y-1463D01*
X-57336Y-1453D01*
X-57284Y-1450D01*
X-55039D01*
X-54987Y-1453D01*
D02*
G37*
G36*
Y15870D02*
X-54936Y15860D01*
X-54886Y15843D01*
X-54839Y15820D01*
X-54795Y15790D01*
X-54756Y15756D01*
X-54721Y15717D01*
X-54692Y15673D01*
X-54669Y15626D01*
X-54652Y15576D01*
X-54642Y15525D01*
X-54638Y15472D01*
Y13728D01*
X-54331D01*
X-54278Y13724D01*
X-54227Y13714D01*
X-54177Y13697D01*
X-54130Y13674D01*
X-54087Y13645D01*
X-54047Y13610D01*
X-54013Y13571D01*
X-53984Y13527D01*
X-53960Y13480D01*
X-53944Y13431D01*
X-53933Y13379D01*
X-53930Y13327D01*
Y3996D01*
X-53933Y3944D01*
X-53944Y3892D01*
X-53960Y3843D01*
X-53984Y3796D01*
X-54013Y3752D01*
X-54047Y3713D01*
X-54087Y3678D01*
X-54130Y3649D01*
X-54177Y3626D01*
X-54227Y3609D01*
X-54278Y3599D01*
X-54331Y3595D01*
X-54638D01*
Y1850D01*
X-54642Y1798D01*
X-54652Y1747D01*
X-54669Y1697D01*
X-54692Y1650D01*
X-54721Y1606D01*
X-54756Y1567D01*
X-54795Y1532D01*
X-54839Y1503D01*
X-54886Y1480D01*
X-54936Y1463D01*
X-54987Y1453D01*
X-55039Y1450D01*
X-57284D01*
X-57336Y1453D01*
X-57387Y1463D01*
X-57437Y1480D01*
X-57484Y1503D01*
X-57528Y1532D01*
X-57567Y1567D01*
X-57601Y1606D01*
X-57631Y1650D01*
X-57654Y1697D01*
X-57671Y1747D01*
X-57681Y1798D01*
X-57684Y1850D01*
Y3595D01*
X-63386D01*
X-63438Y3599D01*
X-63490Y3609D01*
X-63539Y3626D01*
X-63586Y3649D01*
X-63630Y3678D01*
X-63669Y3713D01*
X-63704Y3752D01*
X-63733Y3796D01*
X-63756Y3843D01*
X-63773Y3892D01*
X-63783Y3944D01*
X-63787Y3996D01*
Y5650D01*
X-63783Y5702D01*
X-63773Y5753D01*
X-63756Y5803D01*
X-63733Y5850D01*
X-63704Y5894D01*
X-63669Y5933D01*
X-63630Y5968D01*
X-63586Y5997D01*
X-63539Y6020D01*
X-63490Y6037D01*
X-63438Y6047D01*
X-63386Y6050D01*
X-61936D01*
Y6154D01*
X-63386D01*
X-63438Y6158D01*
X-63490Y6168D01*
X-63539Y6185D01*
X-63586Y6208D01*
X-63630Y6237D01*
X-63669Y6272D01*
X-63704Y6311D01*
X-63733Y6355D01*
X-63756Y6402D01*
X-63773Y6451D01*
X-63783Y6503D01*
X-63787Y6555D01*
Y8209D01*
X-63783Y8261D01*
X-63773Y8312D01*
X-63756Y8362D01*
X-63733Y8409D01*
X-63704Y8453D01*
X-63669Y8492D01*
X-63630Y8527D01*
X-63586Y8556D01*
X-63539Y8579D01*
X-63490Y8596D01*
X-63438Y8606D01*
X-63386Y8609D01*
X-61936D01*
Y8713D01*
X-63386D01*
X-63438Y8717D01*
X-63490Y8727D01*
X-63539Y8744D01*
X-63586Y8767D01*
X-63630Y8796D01*
X-63669Y8831D01*
X-63704Y8870D01*
X-63733Y8914D01*
X-63756Y8961D01*
X-63773Y9010D01*
X-63783Y9062D01*
X-63787Y9114D01*
Y10768D01*
X-63783Y10820D01*
X-63773Y10871D01*
X-63756Y10921D01*
X-63733Y10968D01*
X-63704Y11012D01*
X-63669Y11051D01*
X-63630Y11086D01*
X-63586Y11115D01*
X-63539Y11138D01*
X-63490Y11155D01*
X-63438Y11165D01*
X-63386Y11169D01*
X-61936D01*
Y11272D01*
X-63386D01*
X-63438Y11276D01*
X-63490Y11286D01*
X-63539Y11303D01*
X-63586Y11326D01*
X-63630Y11355D01*
X-63669Y11390D01*
X-63704Y11429D01*
X-63733Y11473D01*
X-63756Y11520D01*
X-63773Y11569D01*
X-63783Y11621D01*
X-63787Y11673D01*
Y13327D01*
X-63783Y13379D01*
X-63773Y13431D01*
X-63756Y13480D01*
X-63733Y13527D01*
X-63704Y13571D01*
X-63669Y13610D01*
X-63630Y13645D01*
X-63586Y13674D01*
X-63539Y13697D01*
X-63490Y13714D01*
X-63438Y13724D01*
X-63386Y13728D01*
X-57684D01*
Y15472D01*
X-57681Y15525D01*
X-57671Y15576D01*
X-57654Y15626D01*
X-57631Y15673D01*
X-57601Y15717D01*
X-57567Y15756D01*
X-57528Y15790D01*
X-57484Y15820D01*
X-57437Y15843D01*
X-57387Y15860D01*
X-57336Y15870D01*
X-57284Y15873D01*
X-55039D01*
X-54987Y15870D01*
D02*
G37*
G36*
Y30437D02*
X-54936Y30427D01*
X-54886Y30410D01*
X-54839Y30386D01*
X-54795Y30357D01*
X-54756Y30323D01*
X-54721Y30283D01*
X-54692Y30240D01*
X-54669Y30193D01*
X-54652Y30143D01*
X-54642Y30092D01*
X-54638Y30039D01*
Y28295D01*
X-54331D01*
X-54278Y28291D01*
X-54227Y28281D01*
X-54177Y28264D01*
X-54130Y28241D01*
X-54087Y28212D01*
X-54047Y28177D01*
X-54013Y28138D01*
X-53984Y28094D01*
X-53960Y28047D01*
X-53944Y27997D01*
X-53933Y27946D01*
X-53930Y27894D01*
Y18563D01*
X-53933Y18511D01*
X-53944Y18459D01*
X-53960Y18410D01*
X-53984Y18363D01*
X-54013Y18319D01*
X-54047Y18280D01*
X-54087Y18245D01*
X-54130Y18216D01*
X-54177Y18193D01*
X-54227Y18176D01*
X-54278Y18166D01*
X-54331Y18162D01*
X-54638D01*
Y16417D01*
X-54642Y16365D01*
X-54652Y16314D01*
X-54669Y16264D01*
X-54692Y16217D01*
X-54721Y16173D01*
X-54756Y16134D01*
X-54795Y16099D01*
X-54839Y16070D01*
X-54886Y16047D01*
X-54936Y16030D01*
X-54987Y16020D01*
X-55039Y16016D01*
X-57284D01*
X-57336Y16020D01*
X-57387Y16030D01*
X-57437Y16047D01*
X-57484Y16070D01*
X-57528Y16099D01*
X-57567Y16134D01*
X-57601Y16173D01*
X-57631Y16217D01*
X-57654Y16264D01*
X-57671Y16314D01*
X-57681Y16365D01*
X-57684Y16417D01*
Y18162D01*
X-63386D01*
X-63438Y18166D01*
X-63490Y18176D01*
X-63539Y18193D01*
X-63586Y18216D01*
X-63630Y18245D01*
X-63669Y18280D01*
X-63704Y18319D01*
X-63733Y18363D01*
X-63756Y18410D01*
X-63773Y18459D01*
X-63783Y18511D01*
X-63787Y18563D01*
Y20216D01*
X-63783Y20269D01*
X-63773Y20320D01*
X-63756Y20370D01*
X-63733Y20417D01*
X-63704Y20461D01*
X-63669Y20500D01*
X-63630Y20535D01*
X-63586Y20564D01*
X-63539Y20587D01*
X-63490Y20604D01*
X-63438Y20614D01*
X-63386Y20617D01*
X-61936D01*
Y20721D01*
X-63386D01*
X-63438Y20725D01*
X-63490Y20735D01*
X-63539Y20752D01*
X-63586Y20775D01*
X-63630Y20804D01*
X-63669Y20839D01*
X-63704Y20878D01*
X-63733Y20922D01*
X-63756Y20969D01*
X-63773Y21018D01*
X-63783Y21070D01*
X-63787Y21122D01*
Y22776D01*
X-63783Y22828D01*
X-63773Y22879D01*
X-63756Y22929D01*
X-63733Y22976D01*
X-63704Y23020D01*
X-63669Y23059D01*
X-63630Y23094D01*
X-63586Y23123D01*
X-63539Y23146D01*
X-63490Y23163D01*
X-63438Y23173D01*
X-63386Y23176D01*
X-61936D01*
Y23280D01*
X-63386D01*
X-63438Y23284D01*
X-63490Y23294D01*
X-63539Y23311D01*
X-63586Y23334D01*
X-63630Y23363D01*
X-63669Y23398D01*
X-63704Y23437D01*
X-63733Y23481D01*
X-63756Y23528D01*
X-63773Y23577D01*
X-63783Y23629D01*
X-63787Y23681D01*
Y25335D01*
X-63783Y25387D01*
X-63773Y25438D01*
X-63756Y25488D01*
X-63733Y25535D01*
X-63704Y25579D01*
X-63669Y25618D01*
X-63630Y25653D01*
X-63586Y25682D01*
X-63539Y25705D01*
X-63490Y25722D01*
X-63438Y25732D01*
X-63386Y25736D01*
X-61936D01*
Y25839D01*
X-63386D01*
X-63438Y25843D01*
X-63490Y25853D01*
X-63539Y25870D01*
X-63586Y25893D01*
X-63630Y25922D01*
X-63669Y25957D01*
X-63704Y25996D01*
X-63733Y26040D01*
X-63756Y26087D01*
X-63773Y26136D01*
X-63783Y26188D01*
X-63787Y26240D01*
Y27894D01*
X-63783Y27946D01*
X-63773Y27997D01*
X-63756Y28047D01*
X-63733Y28094D01*
X-63704Y28138D01*
X-63669Y28177D01*
X-63630Y28212D01*
X-63586Y28241D01*
X-63539Y28264D01*
X-63490Y28281D01*
X-63438Y28291D01*
X-63386Y28295D01*
X-57684D01*
Y30039D01*
X-57681Y30092D01*
X-57671Y30143D01*
X-57654Y30193D01*
X-57631Y30240D01*
X-57601Y30283D01*
X-57567Y30323D01*
X-57528Y30357D01*
X-57484Y30386D01*
X-57437Y30410D01*
X-57387Y30427D01*
X-57336Y30437D01*
X-57284Y30440D01*
X-55039D01*
X-54987Y30437D01*
D02*
G37*
G36*
Y45004D02*
X-54936Y44993D01*
X-54886Y44977D01*
X-54839Y44953D01*
X-54795Y44924D01*
X-54756Y44890D01*
X-54721Y44850D01*
X-54692Y44807D01*
X-54669Y44760D01*
X-54652Y44710D01*
X-54642Y44659D01*
X-54638Y44606D01*
Y42862D01*
X-54331D01*
X-54278Y42858D01*
X-54227Y42848D01*
X-54177Y42831D01*
X-54130Y42808D01*
X-54087Y42779D01*
X-54047Y42744D01*
X-54013Y42705D01*
X-53984Y42661D01*
X-53960Y42614D01*
X-53944Y42564D01*
X-53933Y42513D01*
X-53930Y42461D01*
Y33130D01*
X-53933Y33078D01*
X-53944Y33026D01*
X-53960Y32976D01*
X-53984Y32930D01*
X-54013Y32886D01*
X-54047Y32847D01*
X-54087Y32812D01*
X-54130Y32783D01*
X-54177Y32760D01*
X-54227Y32743D01*
X-54278Y32732D01*
X-54331Y32729D01*
X-54638D01*
Y30984D01*
X-54642Y30932D01*
X-54652Y30880D01*
X-54669Y30831D01*
X-54692Y30784D01*
X-54721Y30740D01*
X-54756Y30701D01*
X-54795Y30666D01*
X-54839Y30637D01*
X-54886Y30614D01*
X-54936Y30597D01*
X-54987Y30587D01*
X-55039Y30583D01*
X-57284D01*
X-57336Y30587D01*
X-57387Y30597D01*
X-57437Y30614D01*
X-57484Y30637D01*
X-57528Y30666D01*
X-57567Y30701D01*
X-57601Y30740D01*
X-57631Y30784D01*
X-57654Y30831D01*
X-57671Y30880D01*
X-57681Y30932D01*
X-57684Y30984D01*
Y32729D01*
X-63386D01*
X-63438Y32732D01*
X-63490Y32743D01*
X-63539Y32760D01*
X-63586Y32783D01*
X-63630Y32812D01*
X-63669Y32847D01*
X-63704Y32886D01*
X-63733Y32930D01*
X-63756Y32976D01*
X-63773Y33026D01*
X-63783Y33078D01*
X-63787Y33130D01*
Y34784D01*
X-63783Y34836D01*
X-63773Y34887D01*
X-63756Y34937D01*
X-63733Y34984D01*
X-63704Y35028D01*
X-63669Y35067D01*
X-63630Y35102D01*
X-63586Y35131D01*
X-63539Y35154D01*
X-63490Y35171D01*
X-63438Y35181D01*
X-63386Y35184D01*
X-61936D01*
Y35288D01*
X-63386D01*
X-63438Y35292D01*
X-63490Y35302D01*
X-63539Y35319D01*
X-63586Y35342D01*
X-63630Y35371D01*
X-63669Y35405D01*
X-63704Y35445D01*
X-63733Y35489D01*
X-63756Y35536D01*
X-63773Y35585D01*
X-63783Y35637D01*
X-63787Y35689D01*
Y37343D01*
X-63783Y37395D01*
X-63773Y37446D01*
X-63756Y37496D01*
X-63733Y37543D01*
X-63704Y37587D01*
X-63669Y37626D01*
X-63630Y37661D01*
X-63586Y37690D01*
X-63539Y37713D01*
X-63490Y37730D01*
X-63438Y37740D01*
X-63386Y37743D01*
X-61936D01*
Y37847D01*
X-63386D01*
X-63438Y37851D01*
X-63490Y37861D01*
X-63539Y37878D01*
X-63586Y37901D01*
X-63630Y37930D01*
X-63669Y37965D01*
X-63704Y38004D01*
X-63733Y38048D01*
X-63756Y38095D01*
X-63773Y38144D01*
X-63783Y38196D01*
X-63787Y38248D01*
Y39902D01*
X-63783Y39954D01*
X-63773Y40005D01*
X-63756Y40055D01*
X-63733Y40102D01*
X-63704Y40146D01*
X-63669Y40185D01*
X-63630Y40220D01*
X-63586Y40249D01*
X-63539Y40272D01*
X-63490Y40289D01*
X-63438Y40299D01*
X-63386Y40302D01*
X-61936D01*
Y40406D01*
X-63386D01*
X-63438Y40410D01*
X-63490Y40420D01*
X-63539Y40437D01*
X-63586Y40460D01*
X-63630Y40489D01*
X-63669Y40524D01*
X-63704Y40563D01*
X-63733Y40607D01*
X-63756Y40654D01*
X-63773Y40703D01*
X-63783Y40755D01*
X-63787Y40807D01*
Y42461D01*
X-63783Y42513D01*
X-63773Y42564D01*
X-63756Y42614D01*
X-63733Y42661D01*
X-63704Y42705D01*
X-63669Y42744D01*
X-63630Y42779D01*
X-63586Y42808D01*
X-63539Y42831D01*
X-63490Y42848D01*
X-63438Y42858D01*
X-63386Y42862D01*
X-57684D01*
Y44606D01*
X-57681Y44659D01*
X-57671Y44710D01*
X-57654Y44760D01*
X-57631Y44807D01*
X-57601Y44850D01*
X-57567Y44890D01*
X-57528Y44924D01*
X-57484Y44953D01*
X-57437Y44977D01*
X-57387Y44993D01*
X-57336Y45004D01*
X-57284Y45007D01*
X-55039D01*
X-54987Y45004D01*
D02*
G37*
G36*
X57336Y-30587D02*
X57387Y-30597D01*
X57437Y-30614D01*
X57484Y-30637D01*
X57528Y-30666D01*
X57567Y-30701D01*
X57601Y-30740D01*
X57631Y-30784D01*
X57654Y-30831D01*
X57671Y-30880D01*
X57681Y-30932D01*
X57684Y-30984D01*
Y-32729D01*
X63386D01*
X63438Y-32732D01*
X63490Y-32743D01*
X63539Y-32760D01*
X63586Y-32783D01*
X63630Y-32812D01*
X63669Y-32847D01*
X63704Y-32886D01*
X63733Y-32930D01*
X63756Y-32976D01*
X63773Y-33026D01*
X63783Y-33078D01*
X63787Y-33130D01*
Y-34784D01*
X63783Y-34836D01*
X63773Y-34887D01*
X63756Y-34937D01*
X63733Y-34984D01*
X63704Y-35028D01*
X63669Y-35067D01*
X63630Y-35102D01*
X63586Y-35131D01*
X63539Y-35154D01*
X63490Y-35171D01*
X63438Y-35181D01*
X63386Y-35184D01*
X61936D01*
Y-35288D01*
X63386D01*
X63438Y-35292D01*
X63490Y-35302D01*
X63539Y-35319D01*
X63586Y-35342D01*
X63630Y-35371D01*
X63669Y-35405D01*
X63704Y-35445D01*
X63733Y-35489D01*
X63756Y-35536D01*
X63773Y-35585D01*
X63783Y-35637D01*
X63787Y-35689D01*
Y-37343D01*
X63783Y-37395D01*
X63773Y-37446D01*
X63756Y-37496D01*
X63733Y-37543D01*
X63704Y-37587D01*
X63669Y-37626D01*
X63630Y-37661D01*
X63586Y-37690D01*
X63539Y-37713D01*
X63490Y-37730D01*
X63438Y-37740D01*
X63386Y-37743D01*
X61936D01*
Y-37847D01*
X63386D01*
X63438Y-37851D01*
X63490Y-37861D01*
X63539Y-37878D01*
X63586Y-37901D01*
X63630Y-37930D01*
X63669Y-37965D01*
X63704Y-38004D01*
X63733Y-38048D01*
X63756Y-38095D01*
X63773Y-38144D01*
X63783Y-38196D01*
X63787Y-38248D01*
Y-39902D01*
X63783Y-39954D01*
X63773Y-40005D01*
X63756Y-40055D01*
X63733Y-40102D01*
X63704Y-40146D01*
X63669Y-40185D01*
X63630Y-40220D01*
X63586Y-40249D01*
X63539Y-40272D01*
X63490Y-40289D01*
X63438Y-40299D01*
X63386Y-40302D01*
X61936D01*
Y-40406D01*
X63386D01*
X63438Y-40410D01*
X63490Y-40420D01*
X63539Y-40437D01*
X63586Y-40460D01*
X63630Y-40489D01*
X63669Y-40524D01*
X63704Y-40563D01*
X63733Y-40607D01*
X63756Y-40654D01*
X63773Y-40703D01*
X63783Y-40755D01*
X63787Y-40807D01*
Y-42461D01*
X63783Y-42513D01*
X63773Y-42564D01*
X63756Y-42614D01*
X63733Y-42661D01*
X63704Y-42705D01*
X63669Y-42744D01*
X63630Y-42779D01*
X63586Y-42808D01*
X63539Y-42831D01*
X63490Y-42848D01*
X63438Y-42858D01*
X63386Y-42862D01*
X57684D01*
Y-44606D01*
X57681Y-44659D01*
X57671Y-44710D01*
X57654Y-44760D01*
X57631Y-44807D01*
X57601Y-44850D01*
X57567Y-44890D01*
X57528Y-44924D01*
X57484Y-44953D01*
X57437Y-44977D01*
X57387Y-44993D01*
X57336Y-45004D01*
X57284Y-45007D01*
X55039D01*
X54987Y-45004D01*
X54936Y-44993D01*
X54886Y-44977D01*
X54839Y-44953D01*
X54795Y-44924D01*
X54756Y-44890D01*
X54721Y-44850D01*
X54692Y-44807D01*
X54669Y-44760D01*
X54652Y-44710D01*
X54642Y-44659D01*
X54638Y-44606D01*
Y-42862D01*
X54331D01*
X54278Y-42858D01*
X54227Y-42848D01*
X54177Y-42831D01*
X54130Y-42808D01*
X54087Y-42779D01*
X54047Y-42744D01*
X54013Y-42705D01*
X53984Y-42661D01*
X53960Y-42614D01*
X53944Y-42564D01*
X53933Y-42513D01*
X53930Y-42461D01*
Y-33130D01*
X53933Y-33078D01*
X53944Y-33026D01*
X53960Y-32976D01*
X53984Y-32930D01*
X54013Y-32886D01*
X54047Y-32847D01*
X54087Y-32812D01*
X54130Y-32783D01*
X54177Y-32760D01*
X54227Y-32743D01*
X54278Y-32732D01*
X54331Y-32729D01*
X54638D01*
Y-30984D01*
X54642Y-30932D01*
X54652Y-30880D01*
X54669Y-30831D01*
X54692Y-30784D01*
X54721Y-30740D01*
X54756Y-30701D01*
X54795Y-30666D01*
X54839Y-30637D01*
X54886Y-30614D01*
X54936Y-30597D01*
X54987Y-30587D01*
X55039Y-30583D01*
X57284D01*
X57336Y-30587D01*
D02*
G37*
G36*
Y-16020D02*
X57387Y-16030D01*
X57437Y-16047D01*
X57484Y-16070D01*
X57528Y-16099D01*
X57567Y-16134D01*
X57601Y-16173D01*
X57631Y-16217D01*
X57654Y-16264D01*
X57671Y-16314D01*
X57681Y-16365D01*
X57684Y-16417D01*
Y-18162D01*
X63386D01*
X63438Y-18166D01*
X63490Y-18176D01*
X63539Y-18193D01*
X63586Y-18216D01*
X63630Y-18245D01*
X63669Y-18280D01*
X63704Y-18319D01*
X63733Y-18363D01*
X63756Y-18410D01*
X63773Y-18459D01*
X63783Y-18511D01*
X63787Y-18563D01*
Y-20216D01*
X63783Y-20269D01*
X63773Y-20320D01*
X63756Y-20370D01*
X63733Y-20417D01*
X63704Y-20461D01*
X63669Y-20500D01*
X63630Y-20535D01*
X63586Y-20564D01*
X63539Y-20587D01*
X63490Y-20604D01*
X63438Y-20614D01*
X63386Y-20617D01*
X61936D01*
Y-20721D01*
X63386D01*
X63438Y-20725D01*
X63490Y-20735D01*
X63539Y-20752D01*
X63586Y-20775D01*
X63630Y-20804D01*
X63669Y-20839D01*
X63704Y-20878D01*
X63733Y-20922D01*
X63756Y-20969D01*
X63773Y-21018D01*
X63783Y-21070D01*
X63787Y-21122D01*
Y-22776D01*
X63783Y-22828D01*
X63773Y-22879D01*
X63756Y-22929D01*
X63733Y-22976D01*
X63704Y-23020D01*
X63669Y-23059D01*
X63630Y-23094D01*
X63586Y-23123D01*
X63539Y-23146D01*
X63490Y-23163D01*
X63438Y-23173D01*
X63386Y-23176D01*
X61936D01*
Y-23280D01*
X63386D01*
X63438Y-23284D01*
X63490Y-23294D01*
X63539Y-23311D01*
X63586Y-23334D01*
X63630Y-23363D01*
X63669Y-23398D01*
X63704Y-23437D01*
X63733Y-23481D01*
X63756Y-23528D01*
X63773Y-23577D01*
X63783Y-23629D01*
X63787Y-23681D01*
Y-25335D01*
X63783Y-25387D01*
X63773Y-25438D01*
X63756Y-25488D01*
X63733Y-25535D01*
X63704Y-25579D01*
X63669Y-25618D01*
X63630Y-25653D01*
X63586Y-25682D01*
X63539Y-25705D01*
X63490Y-25722D01*
X63438Y-25732D01*
X63386Y-25736D01*
X61936D01*
Y-25839D01*
X63386D01*
X63438Y-25843D01*
X63490Y-25853D01*
X63539Y-25870D01*
X63586Y-25893D01*
X63630Y-25922D01*
X63669Y-25957D01*
X63704Y-25996D01*
X63733Y-26040D01*
X63756Y-26087D01*
X63773Y-26136D01*
X63783Y-26188D01*
X63787Y-26240D01*
Y-27894D01*
X63783Y-27946D01*
X63773Y-27997D01*
X63756Y-28047D01*
X63733Y-28094D01*
X63704Y-28138D01*
X63669Y-28177D01*
X63630Y-28212D01*
X63586Y-28241D01*
X63539Y-28264D01*
X63490Y-28281D01*
X63438Y-28291D01*
X63386Y-28295D01*
X57684D01*
Y-30039D01*
X57681Y-30092D01*
X57671Y-30143D01*
X57654Y-30193D01*
X57631Y-30240D01*
X57601Y-30283D01*
X57567Y-30323D01*
X57528Y-30357D01*
X57484Y-30386D01*
X57437Y-30410D01*
X57387Y-30427D01*
X57336Y-30437D01*
X57284Y-30440D01*
X55039D01*
X54987Y-30437D01*
X54936Y-30427D01*
X54886Y-30410D01*
X54839Y-30386D01*
X54795Y-30357D01*
X54756Y-30323D01*
X54721Y-30283D01*
X54692Y-30240D01*
X54669Y-30193D01*
X54652Y-30143D01*
X54642Y-30092D01*
X54638Y-30039D01*
Y-28295D01*
X54331D01*
X54278Y-28291D01*
X54227Y-28281D01*
X54177Y-28264D01*
X54130Y-28241D01*
X54087Y-28212D01*
X54047Y-28177D01*
X54013Y-28138D01*
X53984Y-28094D01*
X53960Y-28047D01*
X53944Y-27997D01*
X53933Y-27946D01*
X53930Y-27894D01*
Y-18563D01*
X53933Y-18511D01*
X53944Y-18459D01*
X53960Y-18410D01*
X53984Y-18363D01*
X54013Y-18319D01*
X54047Y-18280D01*
X54087Y-18245D01*
X54130Y-18216D01*
X54177Y-18193D01*
X54227Y-18176D01*
X54278Y-18166D01*
X54331Y-18162D01*
X54638D01*
Y-16417D01*
X54642Y-16365D01*
X54652Y-16314D01*
X54669Y-16264D01*
X54692Y-16217D01*
X54721Y-16173D01*
X54756Y-16134D01*
X54795Y-16099D01*
X54839Y-16070D01*
X54886Y-16047D01*
X54936Y-16030D01*
X54987Y-16020D01*
X55039Y-16016D01*
X57284D01*
X57336Y-16020D01*
D02*
G37*
G36*
Y-1453D02*
X57387Y-1463D01*
X57437Y-1480D01*
X57484Y-1503D01*
X57528Y-1532D01*
X57567Y-1567D01*
X57601Y-1606D01*
X57631Y-1650D01*
X57654Y-1697D01*
X57671Y-1747D01*
X57681Y-1798D01*
X57684Y-1850D01*
Y-3595D01*
X63386D01*
X63438Y-3599D01*
X63490Y-3609D01*
X63539Y-3626D01*
X63586Y-3649D01*
X63630Y-3678D01*
X63669Y-3713D01*
X63704Y-3752D01*
X63733Y-3796D01*
X63756Y-3843D01*
X63773Y-3892D01*
X63783Y-3944D01*
X63787Y-3996D01*
Y-5650D01*
X63783Y-5702D01*
X63773Y-5753D01*
X63756Y-5803D01*
X63733Y-5850D01*
X63704Y-5894D01*
X63669Y-5933D01*
X63630Y-5968D01*
X63586Y-5997D01*
X63539Y-6020D01*
X63490Y-6037D01*
X63438Y-6047D01*
X63386Y-6050D01*
X61936D01*
Y-6154D01*
X63386D01*
X63438Y-6158D01*
X63490Y-6168D01*
X63539Y-6185D01*
X63586Y-6208D01*
X63630Y-6237D01*
X63669Y-6272D01*
X63704Y-6311D01*
X63733Y-6355D01*
X63756Y-6402D01*
X63773Y-6451D01*
X63783Y-6503D01*
X63787Y-6555D01*
Y-8209D01*
X63783Y-8261D01*
X63773Y-8312D01*
X63756Y-8362D01*
X63733Y-8409D01*
X63704Y-8453D01*
X63669Y-8492D01*
X63630Y-8527D01*
X63586Y-8556D01*
X63539Y-8579D01*
X63490Y-8596D01*
X63438Y-8606D01*
X63386Y-8609D01*
X61936D01*
Y-8713D01*
X63386D01*
X63438Y-8717D01*
X63490Y-8727D01*
X63539Y-8744D01*
X63586Y-8767D01*
X63630Y-8796D01*
X63669Y-8831D01*
X63704Y-8870D01*
X63733Y-8914D01*
X63756Y-8961D01*
X63773Y-9010D01*
X63783Y-9062D01*
X63787Y-9114D01*
Y-10768D01*
X63783Y-10820D01*
X63773Y-10871D01*
X63756Y-10921D01*
X63733Y-10968D01*
X63704Y-11012D01*
X63669Y-11051D01*
X63630Y-11086D01*
X63586Y-11115D01*
X63539Y-11138D01*
X63490Y-11155D01*
X63438Y-11165D01*
X63386Y-11169D01*
X61936D01*
Y-11272D01*
X63386D01*
X63438Y-11276D01*
X63490Y-11286D01*
X63539Y-11303D01*
X63586Y-11326D01*
X63630Y-11355D01*
X63669Y-11390D01*
X63704Y-11429D01*
X63733Y-11473D01*
X63756Y-11520D01*
X63773Y-11569D01*
X63783Y-11621D01*
X63787Y-11673D01*
Y-13327D01*
X63783Y-13379D01*
X63773Y-13431D01*
X63756Y-13480D01*
X63733Y-13527D01*
X63704Y-13571D01*
X63669Y-13610D01*
X63630Y-13645D01*
X63586Y-13674D01*
X63539Y-13697D01*
X63490Y-13714D01*
X63438Y-13724D01*
X63386Y-13728D01*
X57684D01*
Y-15472D01*
X57681Y-15525D01*
X57671Y-15576D01*
X57654Y-15626D01*
X57631Y-15673D01*
X57601Y-15717D01*
X57567Y-15756D01*
X57528Y-15790D01*
X57484Y-15820D01*
X57437Y-15843D01*
X57387Y-15860D01*
X57336Y-15870D01*
X57284Y-15873D01*
X55039D01*
X54987Y-15870D01*
X54936Y-15860D01*
X54886Y-15843D01*
X54839Y-15820D01*
X54795Y-15790D01*
X54756Y-15756D01*
X54721Y-15717D01*
X54692Y-15673D01*
X54669Y-15626D01*
X54652Y-15576D01*
X54642Y-15525D01*
X54638Y-15472D01*
Y-13728D01*
X54331D01*
X54278Y-13724D01*
X54227Y-13714D01*
X54177Y-13697D01*
X54130Y-13674D01*
X54087Y-13645D01*
X54047Y-13610D01*
X54013Y-13571D01*
X53984Y-13527D01*
X53960Y-13480D01*
X53944Y-13431D01*
X53933Y-13379D01*
X53930Y-13327D01*
Y-3996D01*
X53933Y-3944D01*
X53944Y-3892D01*
X53960Y-3843D01*
X53984Y-3796D01*
X54013Y-3752D01*
X54047Y-3713D01*
X54087Y-3678D01*
X54130Y-3649D01*
X54177Y-3626D01*
X54227Y-3609D01*
X54278Y-3599D01*
X54331Y-3595D01*
X54638D01*
Y-1850D01*
X54642Y-1798D01*
X54652Y-1747D01*
X54669Y-1697D01*
X54692Y-1650D01*
X54721Y-1606D01*
X54756Y-1567D01*
X54795Y-1532D01*
X54839Y-1503D01*
X54886Y-1480D01*
X54936Y-1463D01*
X54987Y-1453D01*
X55039Y-1450D01*
X57284D01*
X57336Y-1453D01*
D02*
G37*
G36*
Y15870D02*
X57387Y15860D01*
X57437Y15843D01*
X57484Y15820D01*
X57528Y15790D01*
X57567Y15756D01*
X57601Y15717D01*
X57631Y15673D01*
X57654Y15626D01*
X57671Y15576D01*
X57681Y15525D01*
X57684Y15472D01*
Y13728D01*
X63386D01*
X63438Y13724D01*
X63490Y13714D01*
X63539Y13697D01*
X63586Y13674D01*
X63630Y13645D01*
X63669Y13610D01*
X63704Y13571D01*
X63733Y13527D01*
X63756Y13480D01*
X63773Y13431D01*
X63783Y13379D01*
X63787Y13327D01*
Y11673D01*
X63783Y11621D01*
X63773Y11569D01*
X63756Y11520D01*
X63733Y11473D01*
X63704Y11429D01*
X63669Y11390D01*
X63630Y11355D01*
X63586Y11326D01*
X63539Y11303D01*
X63490Y11286D01*
X63438Y11276D01*
X63386Y11272D01*
X61936D01*
Y11169D01*
X63386D01*
X63438Y11165D01*
X63490Y11155D01*
X63539Y11138D01*
X63586Y11115D01*
X63630Y11086D01*
X63669Y11051D01*
X63704Y11012D01*
X63733Y10968D01*
X63756Y10921D01*
X63773Y10871D01*
X63783Y10820D01*
X63787Y10768D01*
Y9114D01*
X63783Y9062D01*
X63773Y9010D01*
X63756Y8961D01*
X63733Y8914D01*
X63704Y8870D01*
X63669Y8831D01*
X63630Y8796D01*
X63586Y8767D01*
X63539Y8744D01*
X63490Y8727D01*
X63438Y8717D01*
X63386Y8713D01*
X61936D01*
Y8609D01*
X63386D01*
X63438Y8606D01*
X63490Y8596D01*
X63539Y8579D01*
X63586Y8556D01*
X63630Y8527D01*
X63669Y8492D01*
X63704Y8453D01*
X63733Y8409D01*
X63756Y8362D01*
X63773Y8312D01*
X63783Y8261D01*
X63787Y8209D01*
Y6555D01*
X63783Y6503D01*
X63773Y6451D01*
X63756Y6402D01*
X63733Y6355D01*
X63704Y6311D01*
X63669Y6272D01*
X63630Y6237D01*
X63586Y6208D01*
X63539Y6185D01*
X63490Y6168D01*
X63438Y6158D01*
X63386Y6154D01*
X61936D01*
Y6050D01*
X63386D01*
X63438Y6047D01*
X63490Y6037D01*
X63539Y6020D01*
X63586Y5997D01*
X63630Y5968D01*
X63669Y5933D01*
X63704Y5894D01*
X63733Y5850D01*
X63756Y5803D01*
X63773Y5753D01*
X63783Y5702D01*
X63787Y5650D01*
Y3996D01*
X63783Y3944D01*
X63773Y3892D01*
X63756Y3843D01*
X63733Y3796D01*
X63704Y3752D01*
X63669Y3713D01*
X63630Y3678D01*
X63586Y3649D01*
X63539Y3626D01*
X63490Y3609D01*
X63438Y3599D01*
X63386Y3595D01*
X57684D01*
Y1850D01*
X57681Y1798D01*
X57671Y1747D01*
X57654Y1697D01*
X57631Y1650D01*
X57601Y1606D01*
X57567Y1567D01*
X57528Y1532D01*
X57484Y1503D01*
X57437Y1480D01*
X57387Y1463D01*
X57336Y1453D01*
X57284Y1450D01*
X55039D01*
X54987Y1453D01*
X54936Y1463D01*
X54886Y1480D01*
X54839Y1503D01*
X54795Y1532D01*
X54756Y1567D01*
X54721Y1606D01*
X54692Y1650D01*
X54669Y1697D01*
X54652Y1747D01*
X54642Y1798D01*
X54638Y1850D01*
Y3595D01*
X54331D01*
X54278Y3599D01*
X54227Y3609D01*
X54177Y3626D01*
X54130Y3649D01*
X54087Y3678D01*
X54047Y3713D01*
X54013Y3752D01*
X53984Y3796D01*
X53960Y3843D01*
X53944Y3892D01*
X53933Y3944D01*
X53930Y3996D01*
Y13327D01*
X53933Y13379D01*
X53944Y13431D01*
X53960Y13480D01*
X53984Y13527D01*
X54013Y13571D01*
X54047Y13610D01*
X54087Y13645D01*
X54130Y13674D01*
X54177Y13697D01*
X54227Y13714D01*
X54278Y13724D01*
X54331Y13728D01*
X54638D01*
Y15472D01*
X54642Y15525D01*
X54652Y15576D01*
X54669Y15626D01*
X54692Y15673D01*
X54721Y15717D01*
X54756Y15756D01*
X54795Y15790D01*
X54839Y15820D01*
X54886Y15843D01*
X54936Y15860D01*
X54987Y15870D01*
X55039Y15873D01*
X57284D01*
X57336Y15870D01*
D02*
G37*
G36*
Y30437D02*
X57387Y30427D01*
X57437Y30410D01*
X57484Y30386D01*
X57528Y30357D01*
X57567Y30323D01*
X57601Y30283D01*
X57631Y30240D01*
X57654Y30193D01*
X57671Y30143D01*
X57681Y30092D01*
X57684Y30039D01*
Y28295D01*
X63386D01*
X63438Y28291D01*
X63490Y28281D01*
X63539Y28264D01*
X63586Y28241D01*
X63630Y28212D01*
X63669Y28177D01*
X63704Y28138D01*
X63733Y28094D01*
X63756Y28047D01*
X63773Y27997D01*
X63783Y27946D01*
X63787Y27894D01*
Y26240D01*
X63783Y26188D01*
X63773Y26136D01*
X63756Y26087D01*
X63733Y26040D01*
X63704Y25996D01*
X63669Y25957D01*
X63630Y25922D01*
X63586Y25893D01*
X63539Y25870D01*
X63490Y25853D01*
X63438Y25843D01*
X63386Y25839D01*
X61936D01*
Y25736D01*
X63386D01*
X63438Y25732D01*
X63490Y25722D01*
X63539Y25705D01*
X63586Y25682D01*
X63630Y25653D01*
X63669Y25618D01*
X63704Y25579D01*
X63733Y25535D01*
X63756Y25488D01*
X63773Y25438D01*
X63783Y25387D01*
X63787Y25335D01*
Y23681D01*
X63783Y23629D01*
X63773Y23577D01*
X63756Y23528D01*
X63733Y23481D01*
X63704Y23437D01*
X63669Y23398D01*
X63630Y23363D01*
X63586Y23334D01*
X63539Y23311D01*
X63490Y23294D01*
X63438Y23284D01*
X63386Y23280D01*
X61936D01*
Y23176D01*
X63386D01*
X63438Y23173D01*
X63490Y23163D01*
X63539Y23146D01*
X63586Y23123D01*
X63630Y23094D01*
X63669Y23059D01*
X63704Y23020D01*
X63733Y22976D01*
X63756Y22929D01*
X63773Y22879D01*
X63783Y22828D01*
X63787Y22776D01*
Y21122D01*
X63783Y21070D01*
X63773Y21018D01*
X63756Y20969D01*
X63733Y20922D01*
X63704Y20878D01*
X63669Y20839D01*
X63630Y20804D01*
X63586Y20775D01*
X63539Y20752D01*
X63490Y20735D01*
X63438Y20725D01*
X63386Y20721D01*
X61936D01*
Y20617D01*
X63386D01*
X63438Y20614D01*
X63490Y20604D01*
X63539Y20587D01*
X63586Y20564D01*
X63630Y20535D01*
X63669Y20500D01*
X63704Y20461D01*
X63733Y20417D01*
X63756Y20370D01*
X63773Y20320D01*
X63783Y20269D01*
X63787Y20216D01*
Y18563D01*
X63783Y18511D01*
X63773Y18459D01*
X63756Y18410D01*
X63733Y18363D01*
X63704Y18319D01*
X63669Y18280D01*
X63630Y18245D01*
X63586Y18216D01*
X63539Y18193D01*
X63490Y18176D01*
X63438Y18166D01*
X63386Y18162D01*
X57684D01*
Y16417D01*
X57681Y16365D01*
X57671Y16314D01*
X57654Y16264D01*
X57631Y16217D01*
X57601Y16173D01*
X57567Y16134D01*
X57528Y16099D01*
X57484Y16070D01*
X57437Y16047D01*
X57387Y16030D01*
X57336Y16020D01*
X57284Y16016D01*
X55039D01*
X54987Y16020D01*
X54936Y16030D01*
X54886Y16047D01*
X54839Y16070D01*
X54795Y16099D01*
X54756Y16134D01*
X54721Y16173D01*
X54692Y16217D01*
X54669Y16264D01*
X54652Y16314D01*
X54642Y16365D01*
X54638Y16417D01*
Y18162D01*
X54331D01*
X54278Y18166D01*
X54227Y18176D01*
X54177Y18193D01*
X54130Y18216D01*
X54087Y18245D01*
X54047Y18280D01*
X54013Y18319D01*
X53984Y18363D01*
X53960Y18410D01*
X53944Y18459D01*
X53933Y18511D01*
X53930Y18563D01*
Y27894D01*
X53933Y27946D01*
X53944Y27997D01*
X53960Y28047D01*
X53984Y28094D01*
X54013Y28138D01*
X54047Y28177D01*
X54087Y28212D01*
X54130Y28241D01*
X54177Y28264D01*
X54227Y28281D01*
X54278Y28291D01*
X54331Y28295D01*
X54638D01*
Y30039D01*
X54642Y30092D01*
X54652Y30143D01*
X54669Y30193D01*
X54692Y30240D01*
X54721Y30283D01*
X54756Y30323D01*
X54795Y30357D01*
X54839Y30386D01*
X54886Y30410D01*
X54936Y30427D01*
X54987Y30437D01*
X55039Y30440D01*
X57284D01*
X57336Y30437D01*
D02*
G37*
G36*
Y45004D02*
X57387Y44993D01*
X57437Y44977D01*
X57484Y44953D01*
X57528Y44924D01*
X57567Y44890D01*
X57601Y44850D01*
X57631Y44807D01*
X57654Y44760D01*
X57671Y44710D01*
X57681Y44659D01*
X57684Y44606D01*
Y42862D01*
X63386D01*
X63438Y42858D01*
X63490Y42848D01*
X63539Y42831D01*
X63586Y42808D01*
X63630Y42779D01*
X63669Y42744D01*
X63704Y42705D01*
X63733Y42661D01*
X63756Y42614D01*
X63773Y42564D01*
X63783Y42513D01*
X63787Y42461D01*
Y40807D01*
X63783Y40755D01*
X63773Y40703D01*
X63756Y40654D01*
X63733Y40607D01*
X63704Y40563D01*
X63669Y40524D01*
X63630Y40489D01*
X63586Y40460D01*
X63539Y40437D01*
X63490Y40420D01*
X63438Y40410D01*
X63386Y40406D01*
X61936D01*
Y40302D01*
X63386D01*
X63438Y40299D01*
X63490Y40289D01*
X63539Y40272D01*
X63586Y40249D01*
X63630Y40220D01*
X63669Y40185D01*
X63704Y40146D01*
X63733Y40102D01*
X63756Y40055D01*
X63773Y40005D01*
X63783Y39954D01*
X63787Y39902D01*
Y38248D01*
X63783Y38196D01*
X63773Y38144D01*
X63756Y38095D01*
X63733Y38048D01*
X63704Y38004D01*
X63669Y37965D01*
X63630Y37930D01*
X63586Y37901D01*
X63539Y37878D01*
X63490Y37861D01*
X63438Y37851D01*
X63386Y37847D01*
X61936D01*
Y37743D01*
X63386D01*
X63438Y37740D01*
X63490Y37730D01*
X63539Y37713D01*
X63586Y37690D01*
X63630Y37661D01*
X63669Y37626D01*
X63704Y37587D01*
X63733Y37543D01*
X63756Y37496D01*
X63773Y37446D01*
X63783Y37395D01*
X63787Y37343D01*
Y35689D01*
X63783Y35637D01*
X63773Y35585D01*
X63756Y35536D01*
X63733Y35489D01*
X63704Y35445D01*
X63669Y35405D01*
X63630Y35371D01*
X63586Y35342D01*
X63539Y35319D01*
X63490Y35302D01*
X63438Y35292D01*
X63386Y35288D01*
X61936D01*
Y35184D01*
X63386D01*
X63438Y35181D01*
X63490Y35171D01*
X63539Y35154D01*
X63586Y35131D01*
X63630Y35102D01*
X63669Y35067D01*
X63704Y35028D01*
X63733Y34984D01*
X63756Y34937D01*
X63773Y34887D01*
X63783Y34836D01*
X63787Y34784D01*
Y33130D01*
X63783Y33078D01*
X63773Y33026D01*
X63756Y32976D01*
X63733Y32930D01*
X63704Y32886D01*
X63669Y32847D01*
X63630Y32812D01*
X63586Y32783D01*
X63539Y32760D01*
X63490Y32743D01*
X63438Y32732D01*
X63386Y32729D01*
X57684D01*
Y30984D01*
X57681Y30932D01*
X57671Y30880D01*
X57654Y30831D01*
X57631Y30784D01*
X57601Y30740D01*
X57567Y30701D01*
X57528Y30666D01*
X57484Y30637D01*
X57437Y30614D01*
X57387Y30597D01*
X57336Y30587D01*
X57284Y30583D01*
X55039D01*
X54987Y30587D01*
X54936Y30597D01*
X54886Y30614D01*
X54839Y30637D01*
X54795Y30666D01*
X54756Y30701D01*
X54721Y30740D01*
X54692Y30784D01*
X54669Y30831D01*
X54652Y30880D01*
X54642Y30932D01*
X54638Y30984D01*
Y32729D01*
X54331D01*
X54278Y32732D01*
X54227Y32743D01*
X54177Y32760D01*
X54130Y32783D01*
X54087Y32812D01*
X54047Y32847D01*
X54013Y32886D01*
X53984Y32930D01*
X53960Y32976D01*
X53944Y33026D01*
X53933Y33078D01*
X53930Y33130D01*
Y42461D01*
X53933Y42513D01*
X53944Y42564D01*
X53960Y42614D01*
X53984Y42661D01*
X54013Y42705D01*
X54047Y42744D01*
X54087Y42779D01*
X54130Y42808D01*
X54177Y42831D01*
X54227Y42848D01*
X54278Y42858D01*
X54331Y42862D01*
X54638D01*
Y44606D01*
X54642Y44659D01*
X54652Y44710D01*
X54669Y44760D01*
X54692Y44807D01*
X54721Y44850D01*
X54756Y44890D01*
X54795Y44924D01*
X54839Y44953D01*
X54886Y44977D01*
X54936Y44993D01*
X54987Y45004D01*
X55039Y45007D01*
X57284D01*
X57336Y45004D01*
D02*
G37*
D15*
X-64961Y-51181D02*
X-64925Y-52164D01*
X-64820Y-53142D01*
X-64646Y-54110D01*
X-64403Y-55063D01*
X-64092Y-55997D01*
X-63715Y-56905D01*
X-63275Y-57785D01*
X-62773Y-58631D01*
X-62212Y-59439D01*
X-61595Y-60205D01*
X-60925Y-60925D01*
X-60205Y-61595D01*
X-59439Y-62212D01*
X-58631Y-62773D01*
X-57785Y-63275D01*
X-56905Y-63715D01*
X-55997Y-64092D01*
X-55063Y-64403D01*
X-54110Y-64646D01*
X-53142Y-64820D01*
X-52164Y-64925D01*
X-51181Y-64961D01*
X51181D02*
X52164Y-64925D01*
X53142Y-64820D01*
X54110Y-64646D01*
X55063Y-64403D01*
X55997Y-64092D01*
X56905Y-63715D01*
X57785Y-63275D01*
X58631Y-62773D01*
X59439Y-62212D01*
X60205Y-61595D01*
X60925Y-60925D01*
X61595Y-60205D01*
X62212Y-59439D01*
X62773Y-58631D01*
X63275Y-57785D01*
X63715Y-56905D01*
X64092Y-55997D01*
X64403Y-55063D01*
X64646Y-54110D01*
X64820Y-53142D01*
X64925Y-52164D01*
X64961Y-51181D01*
Y51181D02*
X64925Y52164D01*
X64820Y53142D01*
X64646Y54110D01*
X64403Y55063D01*
X64092Y55997D01*
X63715Y56905D01*
X63275Y57785D01*
X62773Y58631D01*
X62212Y59439D01*
X61595Y60205D01*
X60925Y60925D01*
X60205Y61595D01*
X59439Y62212D01*
X58631Y62773D01*
X57785Y63275D01*
X56905Y63715D01*
X55997Y64092D01*
X55063Y64403D01*
X54110Y64646D01*
X53142Y64820D01*
X52164Y64925D01*
X51181Y64961D01*
X-51181D02*
X-52164Y64925D01*
X-53142Y64820D01*
X-54110Y64646D01*
X-55063Y64403D01*
X-55997Y64092D01*
X-56905Y63715D01*
X-57785Y63275D01*
X-58631Y62773D01*
X-59439Y62212D01*
X-60205Y61595D01*
X-60925Y60925D01*
X-61595Y60205D01*
X-62212Y59439D01*
X-62773Y58631D01*
X-63275Y57785D01*
X-63715Y56905D01*
X-64092Y55997D01*
X-64403Y55063D01*
X-64646Y54110D01*
X-64820Y53142D01*
X-64925Y52164D01*
X-64961Y51181D01*
X-51181Y64961D02*
X51181D01*
X64961Y-51181D02*
Y51181D01*
X-51181Y-64961D02*
X51181D01*
X-64960Y-51181D02*
Y51181D01*
D19*
X-38681Y57874D02*
D03*
X-43209D02*
D03*
X-35531Y-53937D02*
D03*
X-40059D02*
D03*
X35925Y-52362D02*
D03*
X40453D02*
D03*
X-35531Y-61811D02*
D03*
X-40059D02*
D03*
X35925D02*
D03*
X40453D02*
D03*
X-35531Y-57874D02*
D03*
X-40059D02*
D03*
X35925D02*
D03*
X40453D02*
D03*
X39469Y61811D02*
D03*
X43996D02*
D03*
X-39469D02*
D03*
X-43996D02*
D03*
X689Y-23622D02*
D03*
X-3839D02*
D03*
X492Y-41339D02*
D03*
X5020D02*
D03*
X39075Y57874D02*
D03*
X43602D02*
D03*
X689Y-19685D02*
D03*
X-3839D02*
D03*
X98Y-45276D02*
D03*
X4626D02*
D03*
X37500Y53937D02*
D03*
X42028D02*
D03*
X-37500D02*
D03*
X-42028D02*
D03*
X689Y-15748D02*
D03*
X-3839D02*
D03*
X492Y-49213D02*
D03*
X5020D02*
D03*
D20*
X-24016Y-10866D02*
D03*
Y-14331D02*
D03*
X25984Y12441D02*
D03*
Y15905D02*
D03*
X-27165Y11496D02*
D03*
Y14961D02*
D03*
X6299Y-21811D02*
D03*
Y-18347D02*
D03*
X29921Y15905D02*
D03*
Y12441D02*
D03*
X-29528Y43937D02*
D03*
Y47402D02*
D03*
D21*
X12441Y-14567D02*
D03*
X15905D02*
D03*
X-16772Y-17323D02*
D03*
X-20236D02*
D03*
X7638Y46063D02*
D03*
X4173D02*
D03*
X-6850Y18898D02*
D03*
X-3386D02*
D03*
X-6850Y-45669D02*
D03*
X-3386D02*
D03*
X18346Y-48031D02*
D03*
X21811D02*
D03*
D24*
X17323Y56791D02*
D03*
Y61319D02*
D03*
X-17323Y56791D02*
D03*
Y61319D02*
D03*
X25197Y55610D02*
D03*
Y60138D02*
D03*
X-25197Y55610D02*
D03*
Y60138D02*
D03*
X33071Y53642D02*
D03*
Y58169D02*
D03*
X-33071Y53642D02*
D03*
Y58169D02*
D03*
X13386Y56791D02*
D03*
Y61319D02*
D03*
X-13386Y56791D02*
D03*
Y61319D02*
D03*
X21260Y55610D02*
D03*
Y60138D02*
D03*
X-21260Y55610D02*
D03*
Y60138D02*
D03*
X29134Y53642D02*
D03*
Y58169D02*
D03*
X-29134Y53642D02*
D03*
Y58169D02*
D03*
D25*
X-40059Y45276D02*
D03*
X44980Y-44488D02*
D03*
D26*
X-44193Y45276D02*
D03*
X40846Y-44488D02*
D03*
D31*
X-61417Y-41634D02*
D03*
Y-39075D02*
D03*
Y-36516D02*
D03*
Y-33957D02*
D03*
X61417Y-33957D02*
D03*
Y-36516D02*
D03*
Y-39075D02*
D03*
Y-41634D02*
D03*
Y41634D02*
D03*
Y39075D02*
D03*
Y36516D02*
D03*
Y33957D02*
D03*
X-61417Y33957D02*
D03*
Y36516D02*
D03*
Y39075D02*
D03*
Y41634D02*
D03*
Y-27067D02*
D03*
Y-24508D02*
D03*
Y-21949D02*
D03*
Y-19390D02*
D03*
X61417Y-19390D02*
D03*
Y-21949D02*
D03*
Y-24508D02*
D03*
Y-27067D02*
D03*
Y27067D02*
D03*
Y24508D02*
D03*
Y21949D02*
D03*
Y19390D02*
D03*
X-61417Y19390D02*
D03*
Y21949D02*
D03*
Y24508D02*
D03*
Y27067D02*
D03*
Y-12500D02*
D03*
Y-9941D02*
D03*
Y-7382D02*
D03*
Y-4823D02*
D03*
X61417Y-4823D02*
D03*
Y-7382D02*
D03*
Y-9941D02*
D03*
Y-12500D02*
D03*
Y12500D02*
D03*
Y9941D02*
D03*
Y7382D02*
D03*
Y4823D02*
D03*
X-61417Y4823D02*
D03*
Y7382D02*
D03*
Y9941D02*
D03*
Y12500D02*
D03*
D32*
X-50512Y-39075D02*
D03*
Y-36516D02*
D03*
Y-41634D02*
D03*
Y-33957D02*
D03*
X50512Y-36516D02*
D03*
Y-39075D02*
D03*
Y-33957D02*
D03*
Y-41634D02*
D03*
Y39075D02*
D03*
Y36516D02*
D03*
Y41634D02*
D03*
Y33957D02*
D03*
X-50512Y36516D02*
D03*
Y39075D02*
D03*
Y33957D02*
D03*
Y41634D02*
D03*
Y-24508D02*
D03*
Y-21949D02*
D03*
Y-27067D02*
D03*
Y-19390D02*
D03*
X50512Y-21949D02*
D03*
Y-24508D02*
D03*
Y-19390D02*
D03*
Y-27067D02*
D03*
Y24508D02*
D03*
Y21949D02*
D03*
Y27067D02*
D03*
Y19390D02*
D03*
X-50512Y21949D02*
D03*
Y24508D02*
D03*
Y19390D02*
D03*
Y27067D02*
D03*
Y-9941D02*
D03*
Y-7382D02*
D03*
Y-12500D02*
D03*
Y-4823D02*
D03*
X50512Y-7382D02*
D03*
Y-9941D02*
D03*
Y-4823D02*
D03*
Y-12500D02*
D03*
Y9941D02*
D03*
Y7382D02*
D03*
Y12500D02*
D03*
Y4823D02*
D03*
X-50512Y7382D02*
D03*
Y9941D02*
D03*
Y4823D02*
D03*
Y12500D02*
D03*
D34*
X41732Y43701D02*
D03*
Y37402D02*
D03*
X-41732Y-43307D02*
D03*
Y-37008D02*
D03*
X15748Y-59842D02*
D03*
Y-53543D02*
D03*
X22835Y-59842D02*
D03*
Y-53543D02*
D03*
X29921Y-59842D02*
D03*
Y-53543D02*
D03*
X-21654Y-53543D02*
D03*
Y-59842D02*
D03*
X-14567Y-53543D02*
D03*
Y-59842D02*
D03*
X2362Y-3543D02*
D03*
Y-9843D02*
D03*
Y3543D02*
D03*
Y9843D02*
D03*
X-28740Y-53543D02*
D03*
Y-59842D02*
D03*
D36*
X38583Y-38189D02*
D03*
X44882D02*
D03*
X38583Y-4331D02*
D03*
X44882D02*
D03*
X-38583Y-30315D02*
D03*
X-44882D02*
D03*
X38583D02*
D03*
X44882D02*
D03*
X38583Y4331D02*
D03*
X44882D02*
D03*
X-38583Y-4331D02*
D03*
X-44882D02*
D03*
X-38583Y30315D02*
D03*
X-44882D02*
D03*
X-38583Y4331D02*
D03*
X-44882D02*
D03*
X-38583Y38976D02*
D03*
X-44882D02*
D03*
X38583Y30315D02*
D03*
X44882D02*
D03*
D42*
X7500Y-54980D02*
D03*
Y-59980D02*
D03*
X2500Y-54980D02*
D03*
X-2500D02*
D03*
X-7500D02*
D03*
X2500Y-59980D02*
D03*
X-2500D02*
D03*
X-7500D02*
D03*
Y54980D02*
D03*
Y59980D02*
D03*
X-2500Y54980D02*
D03*
X2500D02*
D03*
X7500D02*
D03*
X-2500Y59980D02*
D03*
X2500D02*
D03*
X7500D02*
D03*
D43*
X-51181Y51181D02*
D03*
Y-51181D02*
D03*
X51181D02*
D03*
Y51181D02*
D03*
D87*
X-20866Y19291D02*
D03*
X-25197D02*
D03*
Y-44882D02*
D03*
X25984Y-18898D02*
D03*
X25197Y44882D02*
D03*
X-20866Y-44882D02*
D03*
X21654Y-18898D02*
D03*
X20866Y44882D02*
D03*
D88*
X-14961Y-7874D02*
D03*
X14961D02*
D03*
Y7874D02*
D03*
X-14961D02*
D03*
D89*
X-11220Y-10827D02*
D03*
Y-8858D02*
D03*
Y-6890D02*
D03*
Y-4921D02*
D03*
X-18701D02*
D03*
Y-6890D02*
D03*
Y-8858D02*
D03*
Y-10827D02*
D03*
X18701D02*
D03*
Y-8858D02*
D03*
Y-6890D02*
D03*
Y-4921D02*
D03*
X11220D02*
D03*
Y-6890D02*
D03*
Y-8858D02*
D03*
Y-10827D02*
D03*
Y10827D02*
D03*
Y8858D02*
D03*
Y6890D02*
D03*
Y4921D02*
D03*
X18701D02*
D03*
Y6890D02*
D03*
Y8858D02*
D03*
Y10827D02*
D03*
X-18701D02*
D03*
Y8858D02*
D03*
Y6890D02*
D03*
Y4921D02*
D03*
X-11220D02*
D03*
Y6890D02*
D03*
Y8858D02*
D03*
Y10827D02*
D03*
D90*
X-26575Y-25000D02*
D03*
X-8071D02*
D03*
Y-38780D02*
D03*
X-26575D02*
D03*
X26575D02*
D03*
X8071D02*
D03*
Y-25000D02*
D03*
X26575D02*
D03*
Y25000D02*
D03*
X8071D02*
D03*
Y38780D02*
D03*
X26575D02*
D03*
X-26575Y38780D02*
D03*
X-8071D02*
D03*
Y25000D02*
D03*
X-26575D02*
D03*
D91*
X-24213Y-22638D02*
D03*
X-10433D02*
D03*
Y-41142D02*
D03*
X-24213D02*
D03*
X24213D02*
D03*
X10433D02*
D03*
Y-22638D02*
D03*
X24213D02*
D03*
Y22638D02*
D03*
X10433D02*
D03*
Y41142D02*
D03*
X24213D02*
D03*
X-24213Y41142D02*
D03*
X-10433D02*
D03*
Y22638D02*
D03*
X-24213D02*
D03*
D92*
X-26575Y-36811D02*
D03*
X-8071Y-32874D02*
D03*
Y-28937D02*
D03*
Y-34843D02*
D03*
Y-36811D02*
D03*
Y-30906D02*
D03*
Y-26969D02*
D03*
X-26575Y-32874D02*
D03*
Y-34843D02*
D03*
Y-26969D02*
D03*
Y-28937D02*
D03*
Y-30906D02*
D03*
X26575Y-26969D02*
D03*
X8071Y-30906D02*
D03*
Y-34843D02*
D03*
Y-28937D02*
D03*
Y-26969D02*
D03*
Y-32874D02*
D03*
Y-36811D02*
D03*
X26575Y-30906D02*
D03*
Y-28937D02*
D03*
Y-36811D02*
D03*
Y-34843D02*
D03*
Y-32874D02*
D03*
Y36811D02*
D03*
X8071Y32874D02*
D03*
Y28937D02*
D03*
Y34843D02*
D03*
Y36811D02*
D03*
Y30906D02*
D03*
Y26969D02*
D03*
X26575Y32874D02*
D03*
Y34843D02*
D03*
Y26969D02*
D03*
Y28937D02*
D03*
Y30906D02*
D03*
X-26575Y26969D02*
D03*
X-8071Y30906D02*
D03*
Y34843D02*
D03*
Y28937D02*
D03*
Y26969D02*
D03*
Y32874D02*
D03*
Y36811D02*
D03*
X-26575Y30906D02*
D03*
Y28937D02*
D03*
Y36811D02*
D03*
Y34843D02*
D03*
Y32874D02*
D03*
D93*
X-17323Y-31890D02*
D03*
X17323D02*
D03*
Y31890D02*
D03*
X-17323Y31890D02*
D03*
D94*
X-16339Y-22638D02*
D03*
X-22244D02*
D03*
X-12402D02*
D03*
X-14370D02*
D03*
X-20276D02*
D03*
X-12402Y-41142D02*
D03*
X-22244D02*
D03*
X-16339D02*
D03*
X-20276D02*
D03*
X-14370D02*
D03*
X-18307Y-22638D02*
D03*
Y-41142D02*
D03*
X16339D02*
D03*
X22244D02*
D03*
X12402D02*
D03*
X14370D02*
D03*
X20276D02*
D03*
X12402Y-22638D02*
D03*
X22244D02*
D03*
X16339D02*
D03*
X20276D02*
D03*
X14370D02*
D03*
X18307Y-41142D02*
D03*
Y-22638D02*
D03*
X16339Y22638D02*
D03*
X22244D02*
D03*
X12402D02*
D03*
X14370D02*
D03*
X20276D02*
D03*
X12402Y41142D02*
D03*
X22244D02*
D03*
X16339D02*
D03*
X20276D02*
D03*
X14370D02*
D03*
X18307Y22638D02*
D03*
Y41142D02*
D03*
X-16339Y41142D02*
D03*
X-22244D02*
D03*
X-12402D02*
D03*
X-14370D02*
D03*
X-20276D02*
D03*
X-12402Y22638D02*
D03*
X-22244D02*
D03*
X-16339D02*
D03*
X-20276D02*
D03*
X-14370D02*
D03*
X-18307Y41142D02*
D03*
Y22638D02*
D03*
D95*
X-38287Y-21654D02*
D03*
X-45177D02*
D03*
X38287D02*
D03*
X45177D02*
D03*
X38287Y21654D02*
D03*
X45177D02*
D03*
X-38287D02*
D03*
X-45177D02*
D03*
X-38287Y-12992D02*
D03*
X-45177D02*
D03*
X38287D02*
D03*
X45177D02*
D03*
X38287Y12992D02*
D03*
X45177D02*
D03*
X-38287D02*
D03*
X-45177D02*
D03*
M02*
