G04*
G04 #@! TF.GenerationSoftware,Altium Limited,Altium Designer,21.6.4 (81)*
G04*
G04 Layer_Color=32896*
%FSLAX25Y25*%
%MOIN*%
G70*
G04*
G04 #@! TF.SameCoordinates,56C2A621-3926-4038-B8DF-95CCF77FC333*
G04*
G04*
G04 #@! TF.FilePolarity,Positive*
G04*
G01*
G75*
%ADD10C,0.01000*%
%ADD81C,0.00504*%
%ADD82C,0.00787*%
%ADD83C,0.00984*%
%ADD84C,0.02953*%
%ADD85C,0.02803*%
%ADD86C,0.00394*%
%ADD87C,0.00591*%
%ADD88C,0.00500*%
%ADD89C,0.00827*%
G36*
X-140945Y-7283D02*
X-142913D01*
Y-7874D01*
X-141732Y-9055D01*
X-140945D01*
Y-7283D01*
D02*
G37*
D10*
X-17767Y-35133D02*
X-16869Y-35573D01*
X-15960Y-35990D01*
X-15041Y-36384D01*
X-14113Y-36754D01*
X-13175Y-37100D01*
X-12229Y-37423D01*
X-11274Y-37721D01*
X-10313Y-37995D01*
X-9345Y-38245D01*
X-8371Y-38470D01*
X-7391Y-38670D01*
X-6407Y-38845D01*
X-5418Y-38996D01*
X-4426Y-39121D01*
X-3432Y-39220D01*
X-2434Y-39295D01*
X-1436Y-39344D01*
X-436Y-39368D01*
X563Y-39366D01*
X1563Y-39339D01*
X2561Y-39287D01*
X3558Y-39209D01*
X4552Y-39106D01*
X5544Y-38978D01*
X6532Y-38824D01*
X7516Y-38646D01*
X8495Y-38443D01*
X9468Y-38215D01*
X10435Y-37962D01*
X11396Y-37685D01*
X12349Y-37383D01*
X13295Y-37058D01*
X14231Y-36708D01*
X15159Y-36335D01*
X16076Y-35938D01*
X16984Y-35518D01*
X17880Y-35076D01*
X-35133Y17767D02*
X-35573Y16869D01*
X-35990Y15960D01*
X-36384Y15041D01*
X-36754Y14113D01*
X-37100Y13175D01*
X-37423Y12229D01*
X-37721Y11274D01*
X-37995Y10313D01*
X-38245Y9345D01*
X-38470Y8371D01*
X-38670Y7391D01*
X-38845Y6407D01*
X-38996Y5418D01*
X-39121Y4426D01*
X-39220Y3432D01*
X-39295Y2434D01*
X-39344Y1436D01*
X-39368Y436D01*
X-39366Y-563D01*
X-39339Y-1563D01*
X-39287Y-2561D01*
X-39209Y-3558D01*
X-39106Y-4552D01*
X-38978Y-5544D01*
X-38824Y-6532D01*
X-38646Y-7516D01*
X-38443Y-8495D01*
X-38215Y-9468D01*
X-37962Y-10435D01*
X-37685Y-11396D01*
X-37383Y-12349D01*
X-37058Y-13295D01*
X-36708Y-14231D01*
X-36335Y-15159D01*
X-35938Y-16076D01*
X-35518Y-16984D01*
X-35076Y-17880D01*
X17767Y35133D02*
X16869Y35573D01*
X15960Y35990D01*
X15041Y36384D01*
X14113Y36754D01*
X13175Y37100D01*
X12229Y37423D01*
X11274Y37721D01*
X10313Y37995D01*
X9345Y38245D01*
X8371Y38470D01*
X7391Y38670D01*
X6407Y38845D01*
X5418Y38996D01*
X4426Y39121D01*
X3432Y39220D01*
X2434Y39295D01*
X1436Y39344D01*
X436Y39368D01*
X-563Y39366D01*
X-1563Y39339D01*
X-2561Y39287D01*
X-3558Y39209D01*
X-4552Y39106D01*
X-5544Y38978D01*
X-6532Y38824D01*
X-7516Y38646D01*
X-8495Y38443D01*
X-9468Y38215D01*
X-10435Y37962D01*
X-11396Y37685D01*
X-12349Y37383D01*
X-13295Y37058D01*
X-14231Y36708D01*
X-15159Y36335D01*
X-16076Y35938D01*
X-16984Y35518D01*
X-17880Y35076D01*
X-35076Y-17880D02*
X-35822Y-18562D01*
X-36510Y-19304D01*
X-37133Y-20099D01*
X-37689Y-20944D01*
X-38173Y-21832D01*
X-38582Y-22757D01*
X-38913Y-23712D01*
X-39163Y-24692D01*
X-39332Y-25689D01*
X-39418Y-26696D01*
X-39420Y-27707D01*
X-39338Y-28715D01*
X-39173Y-29713D01*
X-38926Y-30693D01*
X-38599Y-31650D01*
X-38193Y-32576D01*
X-37713Y-33466D01*
X-37160Y-34312D01*
X-36539Y-35111D01*
X-35854Y-35855D01*
X-35111Y-36539D01*
X-34312Y-37160D01*
X-33466Y-37713D01*
X-32576Y-38193D01*
X-31650Y-38599D01*
X-30693Y-38926D01*
X-29713Y-39173D01*
X-28715Y-39338D01*
X-27707Y-39420D01*
X-26696Y-39418D01*
X-25689Y-39332D01*
X-24692Y-39163D01*
X-23712Y-38913D01*
X-22757Y-38582D01*
X-21832Y-38173D01*
X-20944Y-37689D01*
X-20099Y-37133D01*
X-19304Y-36510D01*
X-18562Y-35822D01*
X-17880Y-35076D01*
X17964Y-35033D02*
X18653Y-35759D01*
X19399Y-36427D01*
X20198Y-37031D01*
X21043Y-37568D01*
X21929Y-38033D01*
X22851Y-38425D01*
X23801Y-38739D01*
X24775Y-38975D01*
X25764Y-39130D01*
X26762Y-39203D01*
X27763Y-39195D01*
X28760Y-39104D01*
X29747Y-38932D01*
X30716Y-38680D01*
X31661Y-38349D01*
X32575Y-37941D01*
X33454Y-37460D01*
X34289Y-36909D01*
X35077Y-36291D01*
X35812Y-35611D01*
X36488Y-34872D01*
X37101Y-34081D01*
X37648Y-33242D01*
X38124Y-32362D01*
X38526Y-31444D01*
X38852Y-30498D01*
X39099Y-29527D01*
X39265Y-28540D01*
X39350Y-27543D01*
X39353Y-26541D01*
X39274Y-25543D01*
X39114Y-24555D01*
X38873Y-23583D01*
X38553Y-22634D01*
X38156Y-21715D01*
X37685Y-20831D01*
X37144Y-19989D01*
X36535Y-19194D01*
X35864Y-18452D01*
X35133Y-17767D01*
X-17880Y35076D02*
X-18562Y35822D01*
X-19304Y36510D01*
X-20099Y37133D01*
X-20944Y37689D01*
X-21832Y38173D01*
X-22757Y38582D01*
X-23712Y38913D01*
X-24692Y39163D01*
X-25689Y39332D01*
X-26696Y39418D01*
X-27707Y39420D01*
X-28715Y39338D01*
X-29713Y39173D01*
X-30693Y38926D01*
X-31650Y38599D01*
X-32576Y38193D01*
X-33466Y37713D01*
X-34312Y37160D01*
X-35111Y36539D01*
X-35855Y35855D01*
X-36539Y35111D01*
X-37160Y34312D01*
X-37713Y33466D01*
X-38193Y32576D01*
X-38599Y31650D01*
X-38926Y30693D01*
X-39173Y29713D01*
X-39338Y28715D01*
X-39420Y27707D01*
X-39418Y26696D01*
X-39332Y25689D01*
X-39163Y24692D01*
X-38913Y23712D01*
X-38582Y22757D01*
X-38173Y21832D01*
X-37689Y20944D01*
X-37133Y20099D01*
X-36510Y19304D01*
X-35822Y18562D01*
X-35076Y17880D01*
X35076D02*
X35822Y18562D01*
X36510Y19304D01*
X37133Y20099D01*
X37689Y20944D01*
X38173Y21832D01*
X38582Y22757D01*
X38913Y23712D01*
X39163Y24692D01*
X39332Y25689D01*
X39418Y26696D01*
X39420Y27707D01*
X39338Y28715D01*
X39173Y29713D01*
X38926Y30693D01*
X38599Y31650D01*
X38193Y32576D01*
X37713Y33466D01*
X37160Y34312D01*
X36539Y35111D01*
X35854Y35855D01*
X35111Y36539D01*
X34312Y37160D01*
X33466Y37713D01*
X32576Y38193D01*
X31650Y38599D01*
X30693Y38926D01*
X29713Y39173D01*
X28715Y39338D01*
X27707Y39420D01*
X26696Y39418D01*
X25689Y39332D01*
X24692Y39163D01*
X23712Y38913D01*
X22757Y38582D01*
X21832Y38173D01*
X20944Y37689D01*
X20099Y37133D01*
X19304Y36510D01*
X18562Y35822D01*
X17880Y35076D01*
X35133Y-17767D02*
X35573Y-16869D01*
X35990Y-15960D01*
X36384Y-15041D01*
X36754Y-14113D01*
X37100Y-13175D01*
X37423Y-12229D01*
X37721Y-11274D01*
X37995Y-10313D01*
X38245Y-9345D01*
X38470Y-8371D01*
X38670Y-7391D01*
X38845Y-6407D01*
X38996Y-5418D01*
X39121Y-4426D01*
X39220Y-3432D01*
X39295Y-2434D01*
X39344Y-1436D01*
X39368Y-436D01*
X39366Y563D01*
X39339Y1563D01*
X39287Y2561D01*
X39209Y3558D01*
X39106Y4552D01*
X38978Y5544D01*
X38824Y6532D01*
X38646Y7516D01*
X38443Y8495D01*
X38215Y9468D01*
X37962Y10435D01*
X37685Y11396D01*
X37383Y12349D01*
X37058Y13295D01*
X36708Y14231D01*
X36335Y15159D01*
X35938Y16076D01*
X35518Y16984D01*
X35076Y17880D01*
X-106229Y44459D02*
X-106613Y43532D01*
X-106988Y42601D01*
X-107355Y41668D01*
X-107714Y40731D01*
X-108064Y39791D01*
X-108407Y38848D01*
X-108741Y37902D01*
X-109067Y36954D01*
X-109385Y36002D01*
X-109695Y35048D01*
X-109996Y34091D01*
X-110289Y33132D01*
X-110573Y32169D01*
X-110849Y31205D01*
X-111117Y30238D01*
X-111376Y29269D01*
X-111627Y28298D01*
X-111869Y27324D01*
X-112103Y26349D01*
X-112328Y25371D01*
X-112545Y24392D01*
X-112753Y23410D01*
X-112952Y22427D01*
X-113144Y21442D01*
X-113326Y20456D01*
X-113500Y19468D01*
X-113665Y18478D01*
X-113822Y17488D01*
X-113970Y16495D01*
X-114109Y15502D01*
X-114240Y14507D01*
X-114362Y13511D01*
X-114475Y12515D01*
X-114580Y11517D01*
X-114676Y10518D01*
X-114763Y9519D01*
X-114842Y8519D01*
X-114912Y7518D01*
X-114973Y6517D01*
X-115025Y5515D01*
X-115069Y4513D01*
X-115104Y3510D01*
X-115130Y2507D01*
X-115148Y1504D01*
X-115156Y501D01*
Y-502D01*
X-115148Y-1505D01*
X-115130Y-2508D01*
X-115104Y-3511D01*
X-115069Y-4514D01*
X-115025Y-5516D01*
X-114973Y-6518D01*
X-114912Y-7519D01*
X-114842Y-8520D01*
X-114763Y-9520D01*
X-114676Y-10519D01*
X-114580Y-11518D01*
X-114475Y-12516D01*
X-114362Y-13512D01*
X-114240Y-14508D01*
X-114109Y-15503D01*
X-113970Y-16496D01*
X-113822Y-17488D01*
X-113665Y-18479D01*
X-113500Y-19469D01*
X-113326Y-20457D01*
X-113143Y-21443D01*
X-112952Y-22428D01*
X-112753Y-23411D01*
X-112545Y-24392D01*
X-112328Y-25372D01*
X-112102Y-26349D01*
X-111869Y-27325D01*
X-111626Y-28299D01*
X-111376Y-29270D01*
X-111116Y-30239D01*
X-110849Y-31206D01*
X-110573Y-32170D01*
X-110288Y-33132D01*
X-109995Y-34092D01*
X-109694Y-35049D01*
X-109385Y-36003D01*
X-109067Y-36955D01*
X-108741Y-37903D01*
X-108407Y-38849D01*
X-108064Y-39792D01*
X-107713Y-40732D01*
X-107354Y-41669D01*
X-106987Y-42602D01*
X-106612Y-43533D01*
X-106229Y-44459D01*
X106229Y-44459D02*
X106613Y-43532D01*
X106988Y-42601D01*
X107355Y-41668D01*
X107714Y-40731D01*
X108064Y-39791D01*
X108407Y-38848D01*
X108741Y-37903D01*
X109067Y-36954D01*
X109385Y-36002D01*
X109695Y-35048D01*
X109996Y-34091D01*
X110288Y-33132D01*
X110573Y-32170D01*
X110849Y-31205D01*
X111117Y-30239D01*
X111376Y-29269D01*
X111626Y-28298D01*
X111869Y-27325D01*
X112102Y-26349D01*
X112328Y-25372D01*
X112545Y-24392D01*
X112753Y-23411D01*
X112952Y-22428D01*
X113144Y-21443D01*
X113326Y-20457D01*
X113500Y-19469D01*
X113665Y-18479D01*
X113822Y-17488D01*
X113970Y-16496D01*
X114109Y-15503D01*
X114240Y-14508D01*
X114362Y-13512D01*
X114475Y-12516D01*
X114580Y-11518D01*
X114676Y-10519D01*
X114763Y-9520D01*
X114842Y-8520D01*
X114912Y-7519D01*
X114973Y-6518D01*
X115025Y-5516D01*
X115069Y-4514D01*
X115104Y-3511D01*
X115130Y-2509D01*
X115148Y-1506D01*
X115156Y-502D01*
X115156Y501D01*
X115148Y1504D01*
X115130Y2507D01*
X115104Y3510D01*
X115069Y4512D01*
X115025Y5514D01*
X114973Y6516D01*
X114912Y7517D01*
X114842Y8518D01*
X114763Y9518D01*
X114676Y10518D01*
X114580Y11516D01*
X114476Y12514D01*
X114362Y13510D01*
X114240Y14506D01*
X114110Y15501D01*
X113970Y16494D01*
X113822Y17486D01*
X113665Y18477D01*
X113500Y19467D01*
X113326Y20455D01*
X113144Y21441D01*
X112953Y22426D01*
X112753Y23409D01*
X112545Y24390D01*
X112328Y25370D01*
X112103Y26347D01*
X111869Y27323D01*
X111627Y28296D01*
X111376Y29268D01*
X111117Y30237D01*
X110849Y31204D01*
X110573Y32168D01*
X110289Y33130D01*
X109996Y34089D01*
X109695Y35046D01*
X109386Y36001D01*
X109068Y36952D01*
X108742Y37901D01*
X108407Y38847D01*
X108065Y39790D01*
X107714Y40729D01*
X107355Y41666D01*
X106988Y42600D01*
X106613Y43530D01*
X106230Y44457D01*
X-383858Y44488D02*
X383858D01*
X-383858Y-44488D02*
Y44488D01*
Y-44488D02*
X383858D01*
Y44488D01*
D81*
X-250905Y-11417D02*
X-251044Y-10452D01*
X-251449Y-9566D01*
X-252088Y-8829D01*
X-252908Y-8302D01*
X-253843Y-8027D01*
X-254818D01*
X-255754Y-8302D01*
X-256574Y-8829D01*
X-257212Y-9566D01*
X-257617Y-10452D01*
X-257756Y-11417D01*
X-257617Y-12382D01*
X-257212Y-13269D01*
X-256574Y-14006D01*
X-255754Y-14533D01*
X-254818Y-14808D01*
X-253843D01*
X-252908Y-14533D01*
X-252088Y-14006D01*
X-251449Y-13269D01*
X-251044Y-12382D01*
X-250905Y-11417D01*
X214843Y7480D02*
X214704Y8445D01*
X214299Y9332D01*
X213660Y10069D01*
X212840Y10596D01*
X211905Y10871D01*
X210930D01*
X209994Y10596D01*
X209174Y10069D01*
X208536Y9332D01*
X208131Y8445D01*
X207992Y7480D01*
X208131Y6515D01*
X208536Y5629D01*
X209174Y4892D01*
X209994Y4365D01*
X210930Y4090D01*
X211905D01*
X212840Y4365D01*
X213660Y4892D01*
X214299Y5629D01*
X214704Y6515D01*
X214843Y7480D01*
Y-8268D02*
X214704Y-7303D01*
X214299Y-6416D01*
X213660Y-5679D01*
X212840Y-5152D01*
X211905Y-4877D01*
X210930D01*
X209994Y-5152D01*
X209174Y-5679D01*
X208536Y-6416D01*
X208131Y-7303D01*
X207992Y-8268D01*
X208131Y-9233D01*
X208536Y-10120D01*
X209174Y-10856D01*
X209994Y-11383D01*
X210930Y-11658D01*
X211905D01*
X212840Y-11383D01*
X213660Y-10856D01*
X214299Y-10120D01*
X214704Y-9233D01*
X214843Y-8268D01*
X-257992Y-22047D02*
X-258131Y-21082D01*
X-258536Y-20195D01*
X-259174Y-19459D01*
X-259995Y-18932D01*
X-260930Y-18657D01*
X-261905D01*
X-262840Y-18932D01*
X-263660Y-19459D01*
X-264299Y-20195D01*
X-264704Y-21082D01*
X-264843Y-22047D01*
X-264704Y-23012D01*
X-264299Y-23899D01*
X-263660Y-24636D01*
X-262840Y-25163D01*
X-261905Y-25438D01*
X-260930D01*
X-259995Y-25163D01*
X-259174Y-24636D01*
X-258536Y-23899D01*
X-258131Y-23012D01*
X-257992Y-22047D01*
X214843Y-394D02*
X214704Y571D01*
X214299Y1458D01*
X213660Y2195D01*
X212840Y2722D01*
X211905Y2997D01*
X210930D01*
X209994Y2722D01*
X209174Y2195D01*
X208536Y1458D01*
X208131Y571D01*
X207992Y-394D01*
X208131Y-1359D01*
X208536Y-2245D01*
X209174Y-2982D01*
X209994Y-3509D01*
X210930Y-3784D01*
X211905D01*
X212840Y-3509D01*
X213660Y-2982D01*
X214299Y-2245D01*
X214704Y-1359D01*
X214843Y-394D01*
X-250905Y-29134D02*
X-251044Y-28169D01*
X-251449Y-27282D01*
X-252088Y-26545D01*
X-252908Y-26018D01*
X-253843Y-25743D01*
X-254818D01*
X-255754Y-26018D01*
X-256574Y-26545D01*
X-257212Y-27282D01*
X-257617Y-28169D01*
X-257756Y-29134D01*
X-257617Y-30099D01*
X-257212Y-30986D01*
X-256574Y-31722D01*
X-255754Y-32250D01*
X-254818Y-32524D01*
X-253843D01*
X-252908Y-32250D01*
X-252088Y-31722D01*
X-251449Y-30986D01*
X-251044Y-30099D01*
X-250905Y-29134D01*
X-246969Y13780D02*
X-247107Y14744D01*
X-247512Y15631D01*
X-248151Y16368D01*
X-248971Y16895D01*
X-249906Y17170D01*
X-250881D01*
X-251817Y16895D01*
X-252637Y16368D01*
X-253275Y15631D01*
X-253680Y14744D01*
X-253819Y13780D01*
X-253680Y12814D01*
X-253275Y11928D01*
X-252637Y11191D01*
X-251817Y10664D01*
X-250881Y10389D01*
X-249906D01*
X-248971Y10664D01*
X-248151Y11191D01*
X-247512Y11928D01*
X-247107Y12814D01*
X-246969Y13780D01*
D82*
X162264Y21910D02*
X161476D01*
X162264D01*
X-142913Y-7283D02*
X-142676Y-8169D01*
X-142028Y-8818D01*
X-141142Y-9055D01*
X-164193Y4921D02*
X-164980D01*
X-164193D01*
X-164980D01*
X-164193D01*
X146063Y-37402D02*
X154724D01*
X146063D02*
Y-15748D01*
X150394Y-11417D01*
X154724D01*
X163386Y-37402D02*
X172047D01*
Y-15748D01*
X167717Y-11417D02*
X172047Y-15748D01*
X163386Y-11417D02*
X167717D01*
X146063Y41339D02*
X151181D01*
X146063Y12205D02*
Y41339D01*
X151181Y40748D02*
Y41339D01*
X146063Y40748D02*
X151181D01*
X155118D02*
X160236D01*
X155118D02*
Y41339D01*
X146063Y12205D02*
X147343D01*
X155118Y41339D02*
X160236D01*
X158957Y12205D02*
X160236D01*
Y41339D01*
X151181Y27953D02*
X155118D01*
X153150D02*
X154724Y25197D01*
X151181D02*
X153150Y27953D01*
X151181Y25197D02*
X154724D01*
X153150Y27953D02*
Y28740D01*
Y24016D02*
Y25197D01*
X221772Y-17894D02*
Y-7303D01*
X226102D02*
Y15236D01*
X227362Y16024D01*
X228622Y15236D01*
Y-7303D02*
Y15236D01*
X236102Y-7303D02*
Y15236D01*
X237362Y16024D01*
X238622Y15236D01*
Y-7303D02*
Y15236D01*
X246102Y-7303D02*
Y15236D01*
X247362Y16024D01*
X248622Y15236D01*
Y-7303D02*
Y15236D01*
X221772Y-7303D02*
X282953D01*
X221772Y-17894D02*
X282953D01*
X256102Y-7303D02*
Y15236D01*
X257362Y16024D01*
X258622Y15236D01*
Y-7303D02*
Y15236D01*
X266102Y-7303D02*
Y15236D01*
X267362Y16024D01*
X268622Y15236D01*
Y-7303D02*
Y15236D01*
X276102Y-7303D02*
Y15236D01*
X277362Y16024D01*
X278622Y15236D01*
Y-7303D02*
Y15236D01*
X282953Y-17894D02*
Y-7303D01*
X-144882Y-19488D02*
Y-7283D01*
X-140945Y-19488D02*
Y-7283D01*
X-144882Y-19488D02*
X-140945D01*
X-144882Y-7283D02*
X-140945D01*
X-141142Y-9055D02*
X-140945D01*
X-383071Y-35433D02*
X-356693D01*
X-282677D02*
Y-25197D01*
X-286221Y-35433D02*
X-282677D01*
Y25197D02*
Y35433D01*
X-286221D02*
X-282677D01*
X-383071D02*
X-356693D01*
X-383071Y-35433D02*
Y35433D01*
X137795Y-5906D02*
Y-4724D01*
Y-1969D02*
Y-1181D01*
X135827Y-4724D02*
X139370D01*
X135827D02*
X137795Y-1969D01*
X139370Y-4724D01*
X135827Y-1969D02*
X139764D01*
X144882Y-17717D02*
Y11417D01*
X143602Y-17717D02*
X144882D01*
X139764Y11417D02*
X144882D01*
X130709Y-17717D02*
X131988D01*
X139764Y10827D02*
Y11417D01*
Y10827D02*
X144882D01*
X130709D02*
X135827D01*
Y11417D01*
X130709Y-17717D02*
Y11417D01*
X135827D01*
X123228Y-1575D02*
Y-394D01*
Y-5118D02*
Y-4331D01*
X121653Y-1575D02*
X125197D01*
X123228Y-4331D02*
X125197Y-1575D01*
X121653D02*
X123228Y-4331D01*
X121260D02*
X125197D01*
X116142Y-17717D02*
Y11417D01*
X117421D01*
X116142Y-17717D02*
X121260D01*
X129035Y11417D02*
X130315D01*
X121260Y-17717D02*
Y-17126D01*
X116142D02*
X121260D01*
X125197D02*
X130315D01*
X125197Y-17717D02*
Y-17126D01*
X130315Y-17717D02*
Y11417D01*
X125197Y-17717D02*
X130315D01*
X137795Y27559D02*
Y28740D01*
Y24016D02*
Y24803D01*
X136221Y27559D02*
X139764D01*
X137795Y24803D02*
X139764Y27559D01*
X136221D02*
X137795Y24803D01*
X135827D02*
X139764D01*
X130709Y11417D02*
Y40551D01*
X131988D01*
X130709Y11417D02*
X135827D01*
X143602Y40551D02*
X144882D01*
X135827Y11417D02*
Y12008D01*
X130709D02*
X135827D01*
X139764D02*
X144882D01*
X139764Y11417D02*
Y12008D01*
X144882Y11417D02*
Y40551D01*
X139764Y11417D02*
X144882D01*
X123228Y23622D02*
Y24803D01*
Y27559D02*
Y28346D01*
X121260Y24803D02*
X124803D01*
X121260D02*
X123228Y27559D01*
X124803Y24803D01*
X121260Y27559D02*
X125197D01*
X130315Y11811D02*
Y40945D01*
X129035Y11811D02*
X130315D01*
X125197Y40945D02*
X130315D01*
X116142Y11811D02*
X117421D01*
X125197Y40354D02*
Y40945D01*
Y40354D02*
X130315D01*
X116142D02*
X121260D01*
Y40945D01*
X116142Y11811D02*
Y40945D01*
X121260D01*
X287913Y7303D02*
Y17894D01*
X292244Y-15236D02*
Y7303D01*
Y-15236D02*
X293504Y-16024D01*
X294764Y-15236D01*
Y7303D01*
X302244Y-15236D02*
Y7303D01*
Y-15236D02*
X303504Y-16024D01*
X304764Y-15236D01*
Y7303D01*
X312244Y-15236D02*
Y7303D01*
Y-15236D02*
X313504Y-16024D01*
X314764Y-15236D01*
Y7303D01*
X287913Y17894D02*
X349095D01*
X287913Y7303D02*
X349095D01*
X322244Y-15236D02*
Y7303D01*
Y-15236D02*
X323504Y-16024D01*
X324764Y-15236D01*
Y7303D01*
X332244Y-15236D02*
Y7303D01*
Y-15236D02*
X333504Y-16024D01*
X334764Y-15236D01*
Y7303D01*
X342244Y-15236D02*
Y7303D01*
Y-15236D02*
X343504Y-16024D01*
X344764Y-15236D01*
Y7303D01*
X349095D02*
Y17894D01*
D83*
X-137106Y-6398D02*
X-137845Y-5971D01*
Y-6824D01*
X-137106Y-6398D01*
D84*
X-353031Y41200D02*
X-353524Y42052D01*
X-354508D01*
X-355000Y41200D01*
X-354508Y40348D01*
X-353524D01*
X-353031Y41200D01*
D85*
X278597Y20702D02*
X278153Y21625D01*
X277153Y21854D01*
X276352Y21215D01*
Y20190D01*
X277153Y19551D01*
X278153Y19779D01*
X278597Y20702D01*
X344882Y-20472D02*
X344437Y-19549D01*
X343438Y-19321D01*
X342637Y-19960D01*
Y-20985D01*
X343438Y-21624D01*
X344437Y-21396D01*
X344882Y-20472D01*
D86*
X-173524Y19882D02*
X-172146Y18898D01*
X-173524D02*
Y19882D01*
X-172146Y18898D02*
Y19783D01*
Y18012D02*
Y18898D01*
X-173524Y17913D02*
Y18898D01*
Y17913D02*
X-172146Y18898D01*
D87*
X-172835Y16142D02*
Y17520D01*
Y20276D02*
Y21654D01*
X-167335Y17898D02*
X-166835D01*
Y16142D02*
Y17898D01*
X-167335Y16142D02*
X-166835D01*
X-167335Y19898D02*
X-166835D01*
Y21654D01*
X-167335D02*
X-166835D01*
X-178835Y16142D02*
Y16898D01*
Y16142D02*
X-166929D01*
X-167335D02*
Y17898D01*
Y19898D02*
Y21654D01*
X-178835D02*
X-166929D01*
X-178835Y20898D02*
Y21654D01*
X-172835Y9843D02*
Y15354D01*
X-167835Y14598D02*
Y15354D01*
X-177835D02*
X-167835D01*
X-177835Y14598D02*
Y15354D01*
Y9843D02*
Y10598D01*
Y9843D02*
X-167835D01*
Y10598D01*
X-262598Y-2756D02*
Y2756D01*
X-257087Y1575D02*
Y2756D01*
X-268110D02*
X-257087D01*
X-268110Y1575D02*
Y2756D01*
Y-2756D02*
Y-1575D01*
Y-2756D02*
X-257087D01*
Y-1575D01*
X-275197Y16535D02*
X-268110D01*
X-275197Y23228D02*
X-274410D01*
X-275197Y9843D02*
Y23228D01*
Y9843D02*
X-274410D01*
X-268898Y23228D02*
X-268110D01*
Y9843D02*
Y23228D01*
X-268898Y9843D02*
X-268110D01*
X-166142Y-6299D02*
X-160630D01*
X-161811Y-11811D02*
X-160630D01*
Y-787D01*
X-161811D02*
X-160630D01*
X-166142D02*
X-164961D01*
X-166142Y-11811D02*
Y-787D01*
Y-11811D02*
X-164961D01*
X-123228Y0D02*
X-117717D01*
X-118898Y-5512D02*
X-117717D01*
Y5512D01*
X-118898D02*
X-117717D01*
X-123228D02*
X-122047D01*
X-123228Y-5512D02*
Y5512D01*
Y-5512D02*
X-122047D01*
X214961Y0D02*
X220472D01*
X219291Y-5512D02*
X220472D01*
Y5512D01*
X219291D02*
X220472D01*
X214961D02*
X216142D01*
X214961Y-5512D02*
Y5512D01*
Y-5512D02*
X216142D01*
X351575Y394D02*
X357087D01*
X355906Y-5118D02*
X357087D01*
Y5906D01*
X355906D02*
X357087D01*
X351575D02*
X352756D01*
X351575Y-5118D02*
Y5906D01*
Y-5118D02*
X352756D01*
X188583Y24016D02*
X194095D01*
X188583Y29528D02*
X189764D01*
X188583Y18504D02*
Y29528D01*
Y18504D02*
X189764D01*
X192913D02*
X194095D01*
Y29528D01*
X192913D02*
X194095D01*
X182283Y18622D02*
X183039D01*
X182283D02*
Y28622D01*
X183039D01*
X187039D02*
X187795D01*
Y18622D02*
Y28622D01*
X187039Y18622D02*
X187795D01*
X182283Y23622D02*
X187795D01*
X187402Y12205D02*
Y17717D01*
X192402Y16961D02*
Y17717D01*
X182402D02*
X192402D01*
X182402Y16961D02*
Y17717D01*
Y12205D02*
Y12961D01*
Y12205D02*
X192402D01*
Y12961D01*
X156693Y-10630D02*
Y-9449D01*
X145669Y-10630D02*
X156693D01*
X145669D02*
Y-9449D01*
Y-6299D02*
Y-5118D01*
X156693D01*
Y-6299D02*
Y-5118D01*
X151181Y-10630D02*
Y-5118D01*
X158071Y-4626D02*
X159547D01*
Y14075D01*
X158071D02*
X159547D01*
X146752D02*
X148228D01*
X146752Y-4626D02*
Y14075D01*
Y-4626D02*
X148228D01*
X146752Y4724D02*
X159547D01*
X173228Y-21260D02*
X174409D01*
X173228D02*
Y-10236D01*
X174409D01*
X177559D02*
X178740D01*
Y-21260D02*
Y-10236D01*
X177559Y-21260D02*
X178740D01*
X173228Y-15748D02*
X178740D01*
X177953Y-27559D02*
Y-22047D01*
X182953Y-22803D02*
Y-22047D01*
X172953D02*
X182953D01*
X172953Y-22803D02*
Y-22047D01*
Y-27559D02*
Y-26803D01*
Y-27559D02*
X182953D01*
Y-26803D01*
X188583Y-6299D02*
X194095D01*
X192913Y-11811D02*
X194095D01*
Y-787D01*
X192913D02*
X194095D01*
X188583D02*
X189764D01*
X188583Y-11811D02*
Y-787D01*
Y-11811D02*
X189764D01*
X182283Y-10905D02*
X183039D01*
X182283D02*
Y-905D01*
X183039D01*
X187039D02*
X187795D01*
Y-10905D02*
Y-905D01*
X187039Y-10905D02*
X187795D01*
X182283Y-5906D02*
X187795D01*
X187402Y6299D02*
Y11811D01*
X182402Y6299D02*
Y7055D01*
Y6299D02*
X192402D01*
Y7055D01*
Y11055D02*
Y11811D01*
X182402D02*
X192402D01*
X182402Y11055D02*
Y11811D01*
X193307Y0D02*
Y1181D01*
X182283Y0D02*
X193307D01*
X182283D02*
Y1181D01*
Y4331D02*
Y5512D01*
X193307D01*
Y4331D02*
Y5512D01*
X187795Y0D02*
Y5512D01*
X-160630Y-21929D02*
X-159874D01*
X-160630D02*
Y-11929D01*
X-159874D01*
X-155874D02*
X-155118D01*
Y-21929D02*
Y-11929D01*
X-155874Y-21929D02*
X-155118D01*
X-160630Y-16929D02*
X-155118D01*
X201575Y10236D02*
Y17323D01*
X194882Y15748D02*
Y17323D01*
X208268D01*
Y15748D02*
Y17323D01*
Y10236D02*
Y11811D01*
X194882Y10236D02*
X208268D01*
X194882D02*
Y11811D01*
X201575Y18110D02*
Y25197D01*
X194882Y23622D02*
Y25197D01*
X208268D01*
Y23622D02*
Y25197D01*
Y18110D02*
Y19685D01*
X194882Y18110D02*
X208268D01*
X194882D02*
Y19685D01*
X-151969Y-20472D02*
Y-19291D01*
X-140945D01*
Y-20472D02*
Y-19291D01*
Y-24803D02*
Y-23622D01*
X-151969Y-24803D02*
X-140945D01*
X-151969D02*
Y-23622D01*
X-146457Y-24803D02*
Y-19291D01*
X-134252Y-18386D02*
X-133496D01*
X-134252D02*
Y-8386D01*
X-133496D01*
X-129496D02*
X-128740D01*
Y-18386D02*
Y-8386D01*
X-129496Y-18386D02*
X-128740D01*
X-134252Y-13386D02*
X-128740D01*
X-279134Y-7480D02*
X-272047D01*
X-279134Y-787D02*
X-278346D01*
X-279134Y-14173D02*
Y-787D01*
Y-14173D02*
X-278346D01*
X-272835Y-787D02*
X-272047D01*
Y-14173D02*
Y-787D01*
X-272835Y-14173D02*
X-272047D01*
X-233071Y33071D02*
X-227559D01*
X-228315Y28071D02*
X-227559D01*
Y38071D01*
X-228315D02*
X-227559D01*
X-233071D02*
X-232315D01*
X-233071Y28071D02*
Y38071D01*
Y28071D02*
X-232315D01*
X-199606Y28346D02*
X-198819D01*
X-199606Y14961D02*
Y28346D01*
Y14961D02*
X-198819D01*
X-193307Y28346D02*
X-192520D01*
Y14961D02*
Y28346D01*
X-193307Y14961D02*
X-192520D01*
X-199606Y21654D02*
X-192520D01*
X-229921Y24016D02*
Y24803D01*
X-243307D02*
X-229921D01*
X-243307Y24016D02*
Y24803D01*
X-229921Y17717D02*
Y18504D01*
X-243307Y17717D02*
X-229921D01*
X-243307D02*
Y18504D01*
X-236614Y17717D02*
Y24803D01*
X-208268Y12992D02*
Y20079D01*
X-201575Y19291D02*
Y20079D01*
X-214961D02*
X-201575D01*
X-214961Y19291D02*
Y20079D01*
X-201575Y12992D02*
Y13780D01*
X-214961Y12992D02*
X-201575D01*
X-214961D02*
Y13780D01*
X-139370Y-6299D02*
Y-787D01*
X-144882Y-6299D02*
Y-5118D01*
Y-6299D02*
X-133858D01*
Y-5118D01*
Y-1969D02*
Y-787D01*
X-144882D02*
X-133858D01*
X-144882Y-1969D02*
Y-787D01*
X195669Y30315D02*
Y35827D01*
X201181Y34646D02*
Y35827D01*
X190157D02*
X201181D01*
X190157Y34646D02*
Y35827D01*
Y30315D02*
Y31496D01*
Y30315D02*
X201181D01*
Y31496D01*
X-157480Y-2362D02*
X-151969D01*
X-157480Y3150D02*
X-156299D01*
X-157480Y-7874D02*
Y3150D01*
Y-7874D02*
X-156299D01*
X-153150D02*
X-151969D01*
Y3150D01*
X-153150D02*
X-151969D01*
X-151181Y-2362D02*
X-145669D01*
X-146850Y-7874D02*
X-145669D01*
Y3150D01*
X-146850D02*
X-145669D01*
X-151181D02*
X-150000D01*
X-151181Y-7874D02*
Y3150D01*
Y-7874D02*
X-150000D01*
X116831Y-28740D02*
X125689D01*
X116831Y-19390D02*
X117815D01*
X116831Y-38091D02*
Y-19390D01*
Y-38091D02*
X117815D01*
X124705D02*
X125689D01*
Y-19390D01*
X124705D02*
X125689D01*
X126279Y-28740D02*
X135138D01*
X126279Y-19390D02*
X127264D01*
X126279Y-38091D02*
Y-19390D01*
Y-38091D02*
X127264D01*
X134153D02*
X135138D01*
Y-19390D01*
X134153D02*
X135138D01*
X135728Y-28740D02*
X144587D01*
X135728Y-19390D02*
X136713D01*
X135728Y-38091D02*
Y-19390D01*
Y-38091D02*
X136713D01*
X143602D02*
X144587D01*
Y-19390D01*
X143602D02*
X144587D01*
X-267717Y35433D02*
X-262205D01*
X-262961Y30433D02*
X-262205D01*
Y40433D01*
X-262961D02*
X-262205D01*
X-267717D02*
X-266961D01*
X-267717Y30433D02*
Y40433D01*
Y30433D02*
X-266961D01*
X-253150Y31496D02*
X-247638D01*
X-253150Y36496D02*
X-252394D01*
X-253150Y26496D02*
Y36496D01*
Y26496D02*
X-252394D01*
X-248394D02*
X-247638D01*
Y36496D01*
X-248394D02*
X-247638D01*
X-222736Y-6693D02*
Y-5906D01*
Y-6693D02*
X-209350D01*
Y-5906D01*
X-222736Y-394D02*
Y394D01*
X-209350D01*
Y-394D02*
Y394D01*
X-216043Y-6693D02*
Y394D01*
X-247638Y31496D02*
Y32283D01*
Y31496D02*
X-234252D01*
Y32283D01*
X-247638Y37795D02*
Y38583D01*
X-234252D01*
Y37795D02*
Y38583D01*
X-240945Y31496D02*
Y38583D01*
X-253937Y24016D02*
Y25197D01*
X-264961Y24016D02*
X-253937D01*
X-264961D02*
Y25197D01*
Y28346D02*
Y29528D01*
X-253937D01*
Y28346D02*
Y29528D01*
X-259449Y24016D02*
Y29528D01*
X-275590Y34252D02*
X-268504D01*
X-270079Y40945D02*
X-268504D01*
Y27559D02*
Y40945D01*
X-270079Y27559D02*
X-268504D01*
X-275590D02*
X-274016D01*
X-275590D02*
Y40945D01*
X-274016D01*
X-277559D02*
X-276378D01*
Y29921D02*
Y40945D01*
X-277559Y29921D02*
X-276378D01*
X-281890D02*
X-280709D01*
X-281890D02*
Y40945D01*
X-280709D01*
X-281890Y35433D02*
X-276378D01*
X-146063Y-36614D02*
X-144882D01*
X-146063D02*
Y-25591D01*
X-144882D01*
X-141732D02*
X-140551D01*
Y-36614D02*
Y-25591D01*
X-141732Y-36614D02*
X-140551D01*
X-146063Y-31102D02*
X-140551D01*
X-170866Y-35039D02*
Y-33858D01*
X-181890Y-35039D02*
X-170866D01*
X-181890D02*
Y-33858D01*
Y-30709D02*
Y-29528D01*
X-170866D01*
Y-30709D02*
Y-29528D01*
X-176378Y-35039D02*
Y-29528D01*
X-193701Y-30709D02*
Y-29528D01*
X-182677D01*
Y-30709D02*
Y-29528D01*
Y-35039D02*
Y-33858D01*
X-193701Y-35039D02*
X-182677D01*
X-193701D02*
Y-33858D01*
X-188189Y-35039D02*
Y-29528D01*
X-187402Y21260D02*
X-186221D01*
Y10236D02*
Y21260D01*
X-187402Y10236D02*
X-186221D01*
X-191732D02*
X-190551D01*
X-191732D02*
Y21260D01*
X-190551D01*
X-191732Y15748D02*
X-186221D01*
X-181102Y21260D02*
X-179921D01*
Y10236D02*
Y21260D01*
X-181102Y10236D02*
X-179921D01*
X-185433D02*
X-184252D01*
X-185433D02*
Y21260D01*
X-184252D01*
X-185433Y15748D02*
X-179921D01*
X-212992Y-20866D02*
X-211811D01*
X-212992D02*
Y-9843D01*
X-211811D01*
X-208661D02*
X-207480D01*
Y-20866D02*
Y-9843D01*
X-208661Y-20866D02*
X-207480D01*
X-212992Y-15354D02*
X-207480D01*
X344816Y37206D02*
X343766D01*
X344291D01*
Y39830D01*
X343766Y40354D01*
X343241D01*
X342717Y39830D01*
X345865Y37206D02*
Y40354D01*
X347964D01*
X351113Y37731D02*
X350588Y37206D01*
X349538D01*
X349014Y37731D01*
Y39830D01*
X349538Y40354D01*
X350588D01*
X351113Y39830D01*
X354261Y37206D02*
X353212D01*
X353737D01*
Y39830D01*
X353212Y40354D01*
X352687D01*
X352162Y39830D01*
X355311Y37206D02*
Y40354D01*
X357410D01*
X360559Y37731D02*
X360034Y37206D01*
X358984D01*
X358459Y37731D01*
Y39830D01*
X358984Y40354D01*
X360034D01*
X360559Y39830D01*
X363707Y37206D02*
X362658D01*
X363182D01*
Y39830D01*
X362658Y40354D01*
X362133D01*
X361608Y39830D01*
X364757Y37206D02*
Y40354D01*
X366856D01*
X370004Y37731D02*
X369479Y37206D01*
X368430D01*
X367905Y37731D01*
Y39830D01*
X368430Y40354D01*
X369479D01*
X370004Y39830D01*
X373153Y37206D02*
X372103D01*
X372628D01*
Y39830D01*
X372103Y40354D01*
X371579D01*
X371054Y39830D01*
X374202Y37206D02*
Y40354D01*
X376302D01*
X379450Y37731D02*
X378925Y37206D01*
X377876D01*
X377351Y37731D01*
Y39830D01*
X377876Y40354D01*
X378925D01*
X379450Y39830D01*
X-270550Y6422D02*
X-271469D01*
X-271009D01*
Y8718D01*
X-271469Y9177D01*
X-271928D01*
X-272387Y8718D01*
X-274487Y-17594D02*
X-275406D01*
X-274946D01*
Y-15298D01*
X-275406Y-14839D01*
X-275865D01*
X-276324Y-15298D01*
X-240000Y27588D02*
X-240918D01*
X-240459D01*
Y29884D01*
X-240918Y30343D01*
X-241378D01*
X-241837Y29884D01*
X-235733Y13700D02*
X-236652D01*
X-236192D01*
Y15996D01*
X-236652Y16455D01*
X-237111D01*
X-237570Y15996D01*
X-195604Y29725D02*
X-196523D01*
X-196063D01*
Y32021D01*
X-196523Y32480D01*
X-196982D01*
X-197441Y32021D01*
X-207809Y21064D02*
X-208727D01*
X-208268D01*
Y23360D01*
X-208727Y23819D01*
X-209187D01*
X-209646Y23360D01*
X-215289Y-10826D02*
X-216208D01*
X-215749D01*
Y-8530D01*
X-216208Y-8071D01*
X-216667D01*
X-217126Y-8530D01*
X-260925Y-12679D02*
X-261384Y-13138D01*
X-262302D01*
X-262761Y-12679D01*
Y-10842D01*
X-262302Y-10383D01*
X-261384D01*
X-260925Y-10842D01*
X-260006Y-13138D02*
X-259088D01*
X-259547D01*
Y-10383D01*
X-260006D01*
X-259088D01*
X-258934Y12411D02*
Y15166D01*
X-257557D01*
X-257098Y14707D01*
Y12870D01*
X-257557Y12411D01*
X-258934D01*
X-256179D02*
X-255261D01*
X-255720D01*
Y15166D01*
X-256179D01*
X-255261D01*
X-269117Y-23163D02*
X-270954D01*
Y-21786D01*
X-270036Y-22245D01*
X-269577D01*
X-269117Y-21786D01*
Y-20868D01*
X-269577Y-20408D01*
X-270495D01*
X-270954Y-20868D01*
X-268199Y-23163D02*
Y-21327D01*
X-267281Y-20408D01*
X-266362Y-21327D01*
Y-23163D01*
X-264590Y-30412D02*
X-265049Y-30871D01*
X-265967D01*
X-266426Y-30412D01*
Y-28575D01*
X-265967Y-28116D01*
X-265049D01*
X-264590Y-28575D01*
Y-29494D01*
X-265508D01*
X-263671Y-28116D02*
Y-30871D01*
X-261835Y-28116D01*
Y-30871D01*
X-260916D02*
Y-28116D01*
X-259539D01*
X-259080Y-28575D01*
Y-30412D01*
X-259539Y-30871D01*
X-260916D01*
D88*
X161221Y41339D02*
X182874D01*
X161221Y19291D02*
X182874D01*
X161752Y-4331D02*
Y14567D01*
X181555Y-4331D02*
Y14567D01*
X-168504Y6693D02*
Y7874D01*
Y-27559D02*
Y-26378D01*
X-203937Y6693D02*
Y7874D01*
Y-27559D02*
Y-26378D01*
X-169685Y7874D02*
X-168504D01*
X-169685Y-27559D02*
X-168504D01*
X-203937Y7874D02*
X-202756D01*
X-203937Y-27559D02*
X-202756D01*
D89*
X335919Y-18072D02*
X338543D01*
Y-22008D01*
X335919D01*
X338543Y-20040D02*
X337231D01*
X331984Y-18728D02*
X332640Y-18072D01*
X333952D01*
X334608Y-18728D01*
Y-19384D01*
X333952Y-20040D01*
X332640D01*
X331984Y-20696D01*
Y-21352D01*
X332640Y-22008D01*
X333952D01*
X334608Y-21352D01*
X330672Y-22008D02*
Y-18072D01*
X328704D01*
X328048Y-18728D01*
Y-20040D01*
X328704Y-20696D01*
X330672D01*
X326736Y-18728D02*
X326080Y-18072D01*
X324768D01*
X324112Y-18728D01*
Y-19384D01*
X324768Y-20040D01*
X325424D01*
X324768D01*
X324112Y-20696D01*
Y-21352D01*
X324768Y-22008D01*
X326080D01*
X326736Y-21352D01*
X320177Y-22008D02*
X322800D01*
X320177Y-19384D01*
Y-18728D01*
X320832Y-18072D01*
X322144D01*
X322800Y-18728D01*
X201482Y-10668D02*
X198858D01*
Y-8700D01*
X200170Y-9356D01*
X200826D01*
X201482Y-8700D01*
Y-7388D01*
X200826Y-6732D01*
X199514D01*
X198858Y-7388D01*
X202794Y-10668D02*
Y-8044D01*
X204106Y-6732D01*
X205418Y-8044D01*
Y-10668D01*
X198361Y-1567D02*
X197705Y-2223D01*
X196393D01*
X195737Y-1567D01*
Y1057D01*
X196393Y1713D01*
X197705D01*
X198361Y1057D01*
Y-255D01*
X197049D01*
X199673Y1713D02*
Y-2223D01*
X202297Y1713D01*
Y-2223D01*
X203609D02*
Y1713D01*
X205576D01*
X206232Y1057D01*
Y-1567D01*
X205576Y-2223D01*
X203609D01*
X197896Y4848D02*
X196584D01*
X195928Y5504D01*
Y8128D01*
X196584Y8784D01*
X197896D01*
X198552Y8128D01*
Y5504D01*
X197896Y4848D01*
X199864D02*
Y8128D01*
X200520Y8784D01*
X201832D01*
X202488Y8128D01*
Y4848D01*
X203800D02*
X206423D01*
X205112D01*
Y8784D01*
X239016Y22795D02*
Y18859D01*
X240984D01*
X241640Y19515D01*
Y20827D01*
X240984Y21483D01*
X239016D01*
X242951Y18859D02*
X244263D01*
X243607D01*
Y22795D01*
X242951D01*
X244263D01*
X248855Y19515D02*
X248199Y18859D01*
X246887D01*
X246231Y19515D01*
Y22139D01*
X246887Y22795D01*
X248199D01*
X248855Y22139D01*
X250167Y19515D02*
X250823Y18859D01*
X252135D01*
X252791Y19515D01*
Y20172D01*
X252135Y20827D01*
X251479D01*
X252135D01*
X252791Y21483D01*
Y22139D01*
X252135Y22795D01*
X250823D01*
X250167Y22139D01*
X256727Y22795D02*
X254103D01*
X256727Y20172D01*
Y19515D01*
X256071Y18859D01*
X254759D01*
X254103Y19515D01*
X258038Y22795D02*
Y18859D01*
X259350Y20172D01*
X260662Y18859D01*
Y22795D01*
X261974Y18859D02*
X264598D01*
Y19515D01*
X261974Y22139D01*
Y22795D01*
X264598D01*
M02*
