M48
;Layer_Color=9474304
;FILE_FORMAT=2:4
INCH,TZ
;TYPE=PLATED
T1F00S00C0.0138
T2F00S00C0.1181
%
T01
X-33110Y709
X-32402
X-31693
X-29488Y1929
X-29685Y2598
X-29314Y2621
X-27677Y1339
X-26614Y1693
X-25748Y2087
X-25315
X-25039Y2480
X-26496Y3287
X-26181Y630
Y-630
X-25748Y-1850
X-27559Y-1102
X-34358Y3346
X-22638Y2520
X-18898Y1309
X-18268
X-16457Y1890
X-16339Y827
X-15394
X-14882
X-14370
X-13858
X-12047Y709
Y-709
X-12638
Y-1102
X-13150
Y-709
X-10472
X-14843Y-3543
X-15866Y-3504
Y-3110
Y-2717
X-5787Y-709
Y709
X-1850
Y-709
X2087
Y709
X6024
Y-709
X9961
Y709
X12126
X12520
Y1142
X12126
X15039Y1024
X15551
X16772Y709
X17165
X17559
X18996Y1496
X20472Y1378
X20866
Y2165
X20472
X21142Y2913
X21772Y748
Y-709
X21378Y-1417
X20118Y-984
Y-669
X19646
Y-984
X19134
X23756Y-2362
X24756
X25756
X27756
X27559Y-709
Y709
X31496
Y-709
X31370Y2362
X30370
X33370
X34370
X35433Y748
Y-709
T02
X-2722Y-2722
Y2722
X2722Y2722
X2722Y-2722
M30
