G04*
G04 #@! TF.GenerationSoftware,Altium Limited,Altium Designer,21.6.4 (81)*
G04*
G04 Layer_Color=16711935*
%FSLAX25Y25*%
%MOIN*%
G70*
G04*
G04 #@! TF.SameCoordinates,56C2A621-3926-4038-B8DF-95CCF77FC333*
G04*
G04*
G04 #@! TF.FilePolarity,Negative*
G04*
G01*
G75*
%ADD10C,0.01000*%
%ADD14O,0.00800X0.06800*%
%ADD54R,0.03950X0.03950*%
%ADD55R,0.04147X0.04540*%
%ADD56R,0.04343X0.04737*%
%ADD57R,0.06115X0.05328*%
%ADD58C,0.07690*%
%ADD59R,0.04737X0.04343*%
%ADD60R,0.04540X0.04147*%
%ADD61R,0.07099X0.13398*%
%ADD62R,0.05721X0.19304*%
%ADD63R,0.09265X0.10446*%
%ADD64R,0.11430X0.05918*%
G04:AMPARAMS|DCode=65|XSize=71.39mil|YSize=30.84mil|CornerRadius=6.85mil|HoleSize=0mil|Usage=FLASHONLY|Rotation=270.000|XOffset=0mil|YOffset=0mil|HoleType=Round|Shape=RoundedRectangle|*
%AMROUNDEDRECTD65*
21,1,0.07139,0.01713,0,0,270.0*
21,1,0.05768,0.03084,0,0,270.0*
1,1,0.01371,-0.00856,-0.02884*
1,1,0.01371,-0.00856,0.02884*
1,1,0.01371,0.00856,0.02884*
1,1,0.01371,0.00856,-0.02884*
%
%ADD65ROUNDEDRECTD65*%
%ADD66R,0.13398X0.10249*%
G04:AMPARAMS|DCode=67|XSize=67.06mil|YSize=106.42mil|CornerRadius=18.76mil|HoleSize=0mil|Usage=FLASHONLY|Rotation=180.000|XOffset=0mil|YOffset=0mil|HoleType=Round|Shape=RoundedRectangle|*
%AMROUNDEDRECTD67*
21,1,0.06706,0.06890,0,0,180.0*
21,1,0.02953,0.10642,0,0,180.0*
1,1,0.03753,-0.01476,0.03445*
1,1,0.03753,0.01476,0.03445*
1,1,0.03753,0.01476,-0.03445*
1,1,0.03753,-0.01476,-0.03445*
%
%ADD67ROUNDEDRECTD67*%
%ADD68R,0.05918X0.06312*%
%ADD69R,0.04737X0.02965*%
%ADD70R,0.05630X0.05630*%
G04:AMPARAMS|DCode=71|XSize=82.68mil|YSize=39.37mil|CornerRadius=3.74mil|HoleSize=0mil|Usage=FLASHONLY|Rotation=180.000|XOffset=0mil|YOffset=0mil|HoleType=Round|Shape=RoundedRectangle|*
%AMROUNDEDRECTD71*
21,1,0.08268,0.03189,0,0,180.0*
21,1,0.07520,0.03937,0,0,180.0*
1,1,0.00748,-0.03760,0.01595*
1,1,0.00748,0.03760,0.01595*
1,1,0.00748,0.03760,-0.01595*
1,1,0.00748,-0.03760,-0.01595*
%
%ADD71ROUNDEDRECTD71*%
G04:AMPARAMS|DCode=72|XSize=82.68mil|YSize=39.37mil|CornerRadius=3.74mil|HoleSize=0mil|Usage=FLASHONLY|Rotation=270.000|XOffset=0mil|YOffset=0mil|HoleType=Round|Shape=RoundedRectangle|*
%AMROUNDEDRECTD72*
21,1,0.08268,0.03189,0,0,270.0*
21,1,0.07520,0.03937,0,0,270.0*
1,1,0.00748,-0.01595,-0.03760*
1,1,0.00748,-0.01595,0.03760*
1,1,0.00748,0.01595,0.03760*
1,1,0.00748,0.01595,-0.03760*
%
%ADD72ROUNDEDRECTD72*%
%ADD73R,0.03937X0.08268*%
%ADD74R,0.05630X0.05630*%
%ADD75R,0.05328X0.06115*%
%ADD76R,0.07887X0.05918*%
%ADD77R,0.24422X0.24422*%
%ADD78R,0.04186X0.01824*%
%ADD79R,0.01824X0.04186*%
%ADD80R,0.06312X0.05918*%
D10*
X-383858Y44488D02*
X383858D01*
X-383858Y-44488D02*
Y44488D01*
Y-44488D02*
X383858D01*
Y44488D01*
D14*
X-27224Y27224D02*
D03*
Y-27224D02*
D03*
X27224D02*
D03*
X27223Y27223D02*
D03*
D54*
X-175787Y18898D02*
D03*
X-169882D02*
D03*
D55*
X-170276Y12598D02*
D03*
X-175394D02*
D03*
X189961Y14961D02*
D03*
X184843D02*
D03*
X180512Y-24803D02*
D03*
X175394D02*
D03*
X184843Y9055D02*
D03*
X189961D02*
D03*
D56*
X-265256Y0D02*
D03*
X-259941D02*
D03*
X153839Y-7874D02*
D03*
X148524D02*
D03*
X190453Y2756D02*
D03*
X185138D02*
D03*
X-149114Y-22047D02*
D03*
X-143799D02*
D03*
X-136713Y-3543D02*
D03*
X-142028D02*
D03*
X193012Y33071D02*
D03*
X198327D02*
D03*
X-256791Y26772D02*
D03*
X-262106D02*
D03*
X-173721Y-32283D02*
D03*
X-179035D02*
D03*
X-190847D02*
D03*
X-185531D02*
D03*
D57*
X-271654Y19980D02*
D03*
Y13091D02*
D03*
X-275590Y-4035D02*
D03*
Y-10925D02*
D03*
X-196063Y25098D02*
D03*
Y18209D02*
D03*
D58*
X-254331Y-11417D02*
D03*
X211417Y7480D02*
D03*
Y-8268D02*
D03*
X-261417Y-22047D02*
D03*
X211417Y-394D02*
D03*
X-254331Y-29134D02*
D03*
X-250394Y13780D02*
D03*
D59*
X-163386Y-3642D02*
D03*
Y-8957D02*
D03*
X-120472Y2657D02*
D03*
Y-2657D02*
D03*
X217717Y2657D02*
D03*
Y-2657D02*
D03*
X354331Y3051D02*
D03*
Y-2264D02*
D03*
X191339Y21358D02*
D03*
Y26673D02*
D03*
X175984Y-18406D02*
D03*
Y-13091D02*
D03*
X191339Y-3642D02*
D03*
Y-8957D02*
D03*
X-154724Y-5020D02*
D03*
Y295D02*
D03*
X-148425D02*
D03*
Y-5020D02*
D03*
X-279134Y38091D02*
D03*
Y32776D02*
D03*
X-143307Y-33760D02*
D03*
Y-28445D02*
D03*
X-188976Y18406D02*
D03*
Y13091D02*
D03*
X-182677Y18406D02*
D03*
Y13091D02*
D03*
X-210236Y-18012D02*
D03*
Y-12697D02*
D03*
D60*
X185039Y26181D02*
D03*
Y21063D02*
D03*
Y-3346D02*
D03*
Y-8465D02*
D03*
X-157874Y-14370D02*
D03*
Y-19488D02*
D03*
X-131496Y-10827D02*
D03*
Y-15945D02*
D03*
X-230315Y30512D02*
D03*
Y35630D02*
D03*
X-264961Y32874D02*
D03*
Y37992D02*
D03*
X-250394Y34055D02*
D03*
Y28937D02*
D03*
D61*
X159055Y-34252D02*
D03*
Y-14567D02*
D03*
D62*
X178445Y30315D02*
D03*
X165650D02*
D03*
D63*
X153150Y34843D02*
D03*
Y17913D02*
D03*
X137795Y-12008D02*
D03*
Y4921D02*
D03*
X123228Y5709D02*
D03*
Y-11220D02*
D03*
X137795Y34843D02*
D03*
Y17913D02*
D03*
X123228Y17520D02*
D03*
Y34449D02*
D03*
D64*
X153150Y10236D02*
D03*
Y-787D02*
D03*
D65*
X164154Y15571D02*
D03*
X169153D02*
D03*
X174153D02*
D03*
X179154D02*
D03*
Y-5335D02*
D03*
X174153D02*
D03*
X169153D02*
D03*
X164154D02*
D03*
D66*
X171653Y5118D02*
D03*
D67*
X257362Y-23504D02*
D03*
X267362D02*
D03*
X277362D02*
D03*
X247362D02*
D03*
X237362D02*
D03*
X227362D02*
D03*
X343504Y23504D02*
D03*
X333504D02*
D03*
X323504D02*
D03*
X293504D02*
D03*
X303504D02*
D03*
X313504D02*
D03*
D68*
X204724Y13780D02*
D03*
X198425D02*
D03*
X204724Y21654D02*
D03*
X198425D02*
D03*
D69*
X-137598Y-9646D02*
D03*
Y-13386D02*
D03*
Y-17126D02*
D03*
X-148228Y-9646D02*
D03*
Y-17126D02*
D03*
D70*
X-316791Y11161D02*
D03*
Y3937D02*
D03*
Y-3287D02*
D03*
X-324016Y3937D02*
D03*
X-331240Y3937D02*
D03*
Y11161D02*
D03*
Y-3287D02*
D03*
D71*
X-284646Y-12500D02*
D03*
Y7500D02*
D03*
Y2500D02*
D03*
Y-2500D02*
D03*
Y-7500D02*
D03*
Y-17500D02*
D03*
Y-22500D02*
D03*
Y12500D02*
D03*
Y17500D02*
D03*
Y22500D02*
D03*
D72*
X-288583Y-33465D02*
D03*
X-293583D02*
D03*
X-298583D02*
D03*
X-303583D02*
D03*
X-308583D02*
D03*
X-313583D02*
D03*
X-333583Y33465D02*
D03*
X-338583D02*
D03*
X-343583D02*
D03*
X-348583D02*
D03*
X-353583D02*
D03*
X-298583D02*
D03*
X-303583D02*
D03*
X-308583D02*
D03*
X-313583D02*
D03*
X-328583D02*
D03*
X-293583D02*
D03*
X-318583D02*
D03*
X-323583D02*
D03*
X-288583D02*
D03*
D73*
X-318583Y-33465D02*
D03*
X-323583D02*
D03*
X-328583D02*
D03*
X-333583D02*
D03*
X-338583D02*
D03*
X-343583D02*
D03*
X-348583D02*
D03*
X-353583D02*
D03*
D74*
X-324016Y-3287D02*
D03*
Y11161D02*
D03*
D75*
X-233169Y21260D02*
D03*
X-240059D02*
D03*
X-204823Y16535D02*
D03*
X-211713D02*
D03*
X-219488Y-3150D02*
D03*
X-212598D02*
D03*
X-244390Y35039D02*
D03*
X-237500D02*
D03*
D76*
X121260Y-34449D02*
D03*
Y-23031D02*
D03*
X130709Y-34449D02*
D03*
Y-23031D02*
D03*
X140157Y-34449D02*
D03*
Y-23031D02*
D03*
D77*
X-186221Y-9843D02*
D03*
D78*
X-203681Y4921D02*
D03*
Y2953D02*
D03*
Y984D02*
D03*
Y-984D02*
D03*
Y-2953D02*
D03*
Y-4921D02*
D03*
Y-6890D02*
D03*
Y-8858D02*
D03*
Y-10827D02*
D03*
Y-12795D02*
D03*
Y-14764D02*
D03*
Y-16732D02*
D03*
Y-18701D02*
D03*
Y-20669D02*
D03*
Y-22638D02*
D03*
Y-24606D02*
D03*
X-168760D02*
D03*
Y-22638D02*
D03*
Y-20669D02*
D03*
Y-18701D02*
D03*
Y-16732D02*
D03*
Y-14764D02*
D03*
Y-12795D02*
D03*
Y-10827D02*
D03*
Y-8858D02*
D03*
Y-6890D02*
D03*
Y-4921D02*
D03*
Y-2953D02*
D03*
Y-984D02*
D03*
Y984D02*
D03*
Y2953D02*
D03*
Y4921D02*
D03*
D79*
X-171457Y7618D02*
D03*
X-173425D02*
D03*
X-175394D02*
D03*
X-177362D02*
D03*
X-179331D02*
D03*
X-181299D02*
D03*
X-183268D02*
D03*
X-185236D02*
D03*
X-187205D02*
D03*
X-189173D02*
D03*
X-191142D02*
D03*
X-193110D02*
D03*
X-195079D02*
D03*
X-197047D02*
D03*
X-199016D02*
D03*
X-200984D02*
D03*
Y-27303D02*
D03*
X-199016D02*
D03*
X-197047D02*
D03*
X-195079D02*
D03*
X-193110D02*
D03*
X-191142D02*
D03*
X-189173D02*
D03*
X-187205D02*
D03*
X-185236D02*
D03*
X-183268D02*
D03*
X-181299D02*
D03*
X-179331D02*
D03*
X-177362D02*
D03*
X-175394D02*
D03*
X-173425D02*
D03*
X-171457D02*
D03*
D80*
X-272047Y31102D02*
D03*
Y37402D02*
D03*
M02*
