G04*
G04 #@! TF.GenerationSoftware,Altium Limited,Altium Designer,21.6.4 (81)*
G04*
G04 Layer_Physical_Order=2*
G04 Layer_Color=16711680*
%FSLAX25Y25*%
%MOIN*%
G70*
G04*
G04 #@! TF.SameCoordinates,56C2A621-3926-4038-B8DF-95CCF77FC333*
G04*
G04*
G04 #@! TF.FilePolarity,Positive*
G04*
G01*
G75*
%ADD10C,0.01000*%
%ADD18C,0.02756*%
%ADD19C,0.02756*%
%ADD20R,0.03150X0.03150*%
%ADD21R,0.03347X0.03740*%
%ADD22R,0.03543X0.03937*%
%ADD23R,0.05315X0.04528*%
%ADD24C,0.06890*%
%ADD25R,0.03937X0.03543*%
%ADD26R,0.03740X0.03347*%
%ADD27R,0.06299X0.12598*%
%ADD28R,0.04921X0.18504*%
%ADD29R,0.08465X0.09646*%
%ADD30R,0.10630X0.05118*%
G04:AMPARAMS|DCode=31|XSize=63.39mil|YSize=22.84mil|CornerRadius=2.85mil|HoleSize=0mil|Usage=FLASHONLY|Rotation=270.000|XOffset=0mil|YOffset=0mil|HoleType=Round|Shape=RoundedRectangle|*
%AMROUNDEDRECTD31*
21,1,0.06339,0.01713,0,0,270.0*
21,1,0.05768,0.02284,0,0,270.0*
1,1,0.00571,-0.00856,-0.02884*
1,1,0.00571,-0.00856,0.02884*
1,1,0.00571,0.00856,0.02884*
1,1,0.00571,0.00856,-0.02884*
%
%ADD31ROUNDEDRECTD31*%
%ADD32R,0.12598X0.09449*%
G04:AMPARAMS|DCode=33|XSize=59.06mil|YSize=98.43mil|CornerRadius=14.76mil|HoleSize=0mil|Usage=FLASHONLY|Rotation=180.000|XOffset=0mil|YOffset=0mil|HoleType=Round|Shape=RoundedRectangle|*
%AMROUNDEDRECTD33*
21,1,0.05906,0.06890,0,0,180.0*
21,1,0.02953,0.09843,0,0,180.0*
1,1,0.02953,-0.01476,0.03445*
1,1,0.02953,0.01476,0.03445*
1,1,0.02953,0.01476,-0.03445*
1,1,0.02953,-0.01476,-0.03445*
%
%ADD33ROUNDEDRECTD33*%
%ADD34R,0.05118X0.05512*%
%ADD35R,0.03937X0.02165*%
%ADD36R,0.05236X0.05236*%
G04:AMPARAMS|DCode=37|XSize=78.74mil|YSize=35.43mil|CornerRadius=1.77mil|HoleSize=0mil|Usage=FLASHONLY|Rotation=180.000|XOffset=0mil|YOffset=0mil|HoleType=Round|Shape=RoundedRectangle|*
%AMROUNDEDRECTD37*
21,1,0.07874,0.03189,0,0,180.0*
21,1,0.07520,0.03543,0,0,180.0*
1,1,0.00354,-0.03760,0.01595*
1,1,0.00354,0.03760,0.01595*
1,1,0.00354,0.03760,-0.01595*
1,1,0.00354,-0.03760,-0.01595*
%
%ADD37ROUNDEDRECTD37*%
G04:AMPARAMS|DCode=38|XSize=78.74mil|YSize=35.43mil|CornerRadius=1.77mil|HoleSize=0mil|Usage=FLASHONLY|Rotation=270.000|XOffset=0mil|YOffset=0mil|HoleType=Round|Shape=RoundedRectangle|*
%AMROUNDEDRECTD38*
21,1,0.07874,0.03189,0,0,270.0*
21,1,0.07520,0.03543,0,0,270.0*
1,1,0.00354,-0.01595,-0.03760*
1,1,0.00354,-0.01595,0.03760*
1,1,0.00354,0.01595,0.03760*
1,1,0.00354,0.01595,-0.03760*
%
%ADD38ROUNDEDRECTD38*%
%ADD39R,0.03543X0.07874*%
%ADD40R,0.05236X0.05236*%
%ADD41R,0.04528X0.05315*%
%ADD42R,0.07087X0.05118*%
%ADD43R,0.23622X0.23622*%
%ADD44R,0.03386X0.01024*%
%ADD45R,0.01024X0.03386*%
%ADD46R,0.05512X0.05118*%
%ADD47C,0.02016*%
%ADD48C,0.04724*%
%ADD49C,0.07874*%
%ADD50C,0.07087*%
%ADD51C,0.08268*%
%ADD52C,0.03150*%
%ADD53R,0.23622X0.23622*%
G36*
X180608Y40652D02*
X180417Y40190D01*
X175591D01*
X175289Y40065D01*
X175164Y39764D01*
X175164Y20472D01*
X175289Y20171D01*
X176911Y18549D01*
X176944Y18536D01*
X176962Y18506D01*
X177090Y18475D01*
X177213Y18424D01*
X177356Y18322D01*
X177605Y17975D01*
Y12687D01*
X177633Y12546D01*
X177342Y12129D01*
X176874Y12112D01*
X175702Y13283D01*
Y18455D01*
X175650Y18720D01*
X175499Y18944D01*
X175275Y19094D01*
X175010Y19147D01*
X173297D01*
X173032Y19094D01*
X172808Y18944D01*
X172658Y18720D01*
X172605Y18455D01*
Y12687D01*
X172658Y12422D01*
X172808Y12197D01*
X173032Y12047D01*
X173297Y11995D01*
X174414D01*
X175947Y10461D01*
X176243Y10263D01*
X176592Y10194D01*
X179462D01*
X181245Y8411D01*
X181541Y8213D01*
X181890Y8144D01*
X182776D01*
Y7218D01*
X182664Y7171D01*
X182544Y7149D01*
X182518Y7111D01*
X182474Y7093D01*
X182428Y6981D01*
X182359Y6881D01*
X182261Y6421D01*
X182269Y6375D01*
X182251Y6332D01*
Y5496D01*
X182304Y5367D01*
X182342Y5233D01*
X182637Y4856D01*
X182661Y4842D01*
X182671Y4817D01*
X182800Y4764D01*
X182921Y4695D01*
X182947Y4702D01*
X182973Y4692D01*
X186877D01*
Y820D01*
X185951D01*
X185649Y695D01*
X185524Y394D01*
Y-1280D01*
X185649Y-1581D01*
X185951Y-1706D01*
X186877D01*
Y-2238D01*
X187002Y-2540D01*
X187303Y-2664D01*
X188976D01*
X189278Y-2540D01*
X189402Y-2238D01*
Y-1902D01*
X193275D01*
Y-5381D01*
X189402D01*
Y-4061D01*
X189278Y-3760D01*
X188976Y-3635D01*
X187303D01*
X187002Y-3760D01*
X186877Y-4061D01*
Y-4987D01*
X182776D01*
X182664Y-5034D01*
X182544Y-5056D01*
X182518Y-5094D01*
X182474Y-5112D01*
X182428Y-5224D01*
X182359Y-5324D01*
X182261Y-5783D01*
X182269Y-5829D01*
X182251Y-5873D01*
Y-6380D01*
X180702D01*
Y-2451D01*
X180650Y-2186D01*
X180499Y-1961D01*
X180275Y-1811D01*
X180010Y-1758D01*
X178297D01*
X178032Y-1811D01*
X177808Y-1961D01*
X177657Y-2186D01*
X177605Y-2451D01*
Y-8101D01*
X177509Y-8294D01*
X177164Y-8565D01*
X176645D01*
X175702Y-7622D01*
Y-2451D01*
X175650Y-2186D01*
X175499Y-1961D01*
X175275Y-1811D01*
X175010Y-1758D01*
X173297D01*
X173032Y-1811D01*
X172808Y-1961D01*
X172658Y-2186D01*
X172605Y-2451D01*
Y-8219D01*
X172658Y-8484D01*
X172808Y-8708D01*
X173032Y-8858D01*
X173297Y-8911D01*
X174414D01*
X175623Y-10121D01*
X175919Y-10318D01*
X176268Y-10387D01*
X176562D01*
X176588Y-10425D01*
X176320Y-10925D01*
X173622D01*
X173622Y-14890D01*
Y-14925D01*
D01*
X173622Y-14933D01*
X173569Y-14955D01*
X173122Y-15141D01*
X170065Y-12083D01*
Y-8900D01*
X170275Y-8858D01*
X170500Y-8708D01*
X170650Y-8484D01*
X170702Y-8219D01*
Y-2451D01*
X170650Y-2186D01*
X170500Y-1961D01*
X170275Y-1811D01*
X170010Y-1758D01*
X168297D01*
X168032Y-1811D01*
X167808Y-1961D01*
X167657Y-2186D01*
X167605Y-2451D01*
Y-8219D01*
X167657Y-8484D01*
X167808Y-8708D01*
X168032Y-8858D01*
X168242Y-8900D01*
Y-12461D01*
X168312Y-12809D01*
X168509Y-13105D01*
X173182Y-17778D01*
X173478Y-17976D01*
X173622Y-18004D01*
Y-20571D01*
X178347D01*
Y-16240D01*
X174801D01*
X174713Y-16223D01*
X174204D01*
X173738Y-15756D01*
X173945Y-15256D01*
X173953Y-15256D01*
Y-15256D01*
X173988Y-15256D01*
X178347D01*
Y-12391D01*
X178808Y-12199D01*
X179215Y-12606D01*
Y-22539D01*
X178445D01*
Y-27067D01*
X182579D01*
Y-22539D01*
X181037D01*
Y-12228D01*
X180968Y-11880D01*
X180770Y-11584D01*
X178597Y-9411D01*
X178804Y-8911D01*
X180010D01*
X180275Y-8858D01*
X180499Y-8708D01*
X180650Y-8484D01*
X180702Y-8219D01*
Y-8202D01*
X182776D01*
Y-10105D01*
X182664Y-10152D01*
X182544Y-10174D01*
X182518Y-10212D01*
X182474Y-10230D01*
X182428Y-10342D01*
X182359Y-10442D01*
X182261Y-10901D01*
X182269Y-10948D01*
X182251Y-10991D01*
Y-12992D01*
X182251Y-12992D01*
X182376Y-13294D01*
X182376Y-13294D01*
X185525Y-16443D01*
X185827Y-16568D01*
X199213D01*
X199213Y-16568D01*
X199517Y-16860D01*
X199521Y-17409D01*
X179134Y-37795D01*
X150394D01*
X139045Y-26446D01*
X139236Y-25984D01*
X144095D01*
Y-20079D01*
X141756D01*
Y-17224D01*
X142421D01*
Y-6791D01*
X133169D01*
Y-7266D01*
X127854D01*
Y-6004D01*
X118602D01*
X118504Y-5545D01*
Y22441D01*
X125295Y29232D01*
X127854D01*
Y29882D01*
X133169D01*
Y29626D01*
X142421D01*
Y40059D01*
X136775D01*
X136584Y40521D01*
X138496Y42433D01*
X178827D01*
X180608Y40652D01*
D02*
G37*
G36*
X196161Y32185D02*
Y30709D01*
X197638D01*
X202662Y25684D01*
Y24803D01*
X201772D01*
Y18504D01*
X202662D01*
Y16929D01*
X201772D01*
Y10630D01*
X203150D01*
Y-12205D01*
X199213Y-16142D01*
X185827D01*
X182677Y-12992D01*
Y-10991D01*
X182776Y-10531D01*
X187303D01*
Y-6398D01*
X184151D01*
X184063Y-6380D01*
X182677D01*
Y-5873D01*
X182776Y-5413D01*
X187303D01*
Y-4061D01*
X188976D01*
Y-5807D01*
X193701D01*
Y-1476D01*
X188976D01*
Y-2238D01*
X187303D01*
Y-1280D01*
X185951D01*
Y394D01*
X187303D01*
Y5118D01*
X182973D01*
X182677Y5496D01*
Y6332D01*
X182776Y6791D01*
X186909D01*
Y11319D01*
X182776D01*
X182677Y11778D01*
Y12238D01*
X182776Y12697D01*
X186909D01*
Y17224D01*
X185754D01*
Y18996D01*
X187303D01*
Y19758D01*
X188976D01*
Y19193D01*
X193701D01*
Y23524D01*
X188976D01*
Y21580D01*
X187303D01*
Y23130D01*
X182776D01*
Y18996D01*
X183931D01*
Y17224D01*
X182776D01*
Y16482D01*
X180702D01*
Y18455D01*
X180650Y18720D01*
X180499Y18944D01*
X180275Y19094D01*
X180010Y19147D01*
X178297D01*
X178032Y19094D01*
X177808Y18944D01*
X177213Y18850D01*
X175591Y20472D01*
X175591Y39764D01*
X188583D01*
X196161Y32185D01*
D02*
G37*
G36*
X-135827Y-361D02*
X-138189D01*
X-138490Y-486D01*
X-138490Y-486D01*
X-140065Y-2061D01*
X-140190Y-2362D01*
Y-5512D01*
X-143701D01*
X-146063Y-3150D01*
Y-2854D01*
X-146358D01*
X-147638Y-1575D01*
X-156693D01*
Y10630D01*
X-135827D01*
Y-361D01*
D02*
G37*
G36*
X-118504Y-8661D02*
X-122835Y-12992D01*
X-133465D01*
X-135433Y-11024D01*
X-139764D01*
Y-2362D01*
X-138189Y-787D01*
X-118504D01*
X-118504Y-8661D01*
D02*
G37*
%LPC*%
G36*
X168504Y40190D02*
X148819D01*
X148518Y40065D01*
X148393Y39764D01*
Y25197D01*
X148518Y24895D01*
X148518Y24895D01*
X149699Y23714D01*
X150000Y23590D01*
X157304D01*
X159810Y21083D01*
X159810Y13386D01*
X159810Y13386D01*
X159935Y13084D01*
X162297Y10722D01*
X162598Y10598D01*
X167725D01*
X168026Y10722D01*
X168151Y11024D01*
Y12322D01*
X168103Y12437D01*
X168079Y12559D01*
X168059Y12588D01*
X168031Y12729D01*
Y18413D01*
X168059Y18553D01*
X168115Y18637D01*
X168199Y18693D01*
X168339Y18721D01*
X168504D01*
X168805Y18846D01*
X168930Y19147D01*
Y39764D01*
X168805Y40065D01*
X168504Y40190D01*
D02*
G37*
G36*
X142520Y23261D02*
X133465D01*
X133163Y23136D01*
X133038Y22835D01*
Y0D01*
X133163Y-301D01*
X133465Y-426D01*
X143918D01*
X146549Y-3057D01*
X146549Y-3057D01*
X149305Y-5813D01*
X149606Y-5938D01*
X150263D01*
Y-6594D01*
X150263Y-6594D01*
X150388Y-6896D01*
X151149Y-7657D01*
X151149Y-9843D01*
X151274Y-10144D01*
X154298Y-13169D01*
Y-20866D01*
X154423Y-21168D01*
X154423Y-21168D01*
X155998Y-22742D01*
X156299Y-22867D01*
X162917D01*
X166096Y-26046D01*
X166392Y-26243D01*
X166740Y-26313D01*
X173327D01*
Y-27067D01*
X177461D01*
Y-22539D01*
X173327D01*
Y-24490D01*
X167118D01*
X164331Y-21704D01*
X166837Y-19199D01*
X166962Y-18898D01*
Y-2756D01*
X166962Y-2756D01*
X166837Y-2455D01*
X166837Y-2455D01*
X159356Y5026D01*
X159055Y5150D01*
X148602D01*
X142946Y10806D01*
Y22835D01*
X142821Y23136D01*
X142520Y23261D01*
D02*
G37*
%LPD*%
G36*
X168504Y19147D02*
X168297D01*
X168032Y19094D01*
X167808Y18944D01*
X167657Y18720D01*
X167605Y18455D01*
Y12687D01*
X167657Y12422D01*
X167725Y12322D01*
Y11024D01*
X162598D01*
X160236Y13386D01*
X160236Y21260D01*
X157480Y24016D01*
X150000D01*
X148819Y25197D01*
Y39764D01*
X168504D01*
Y19147D01*
D02*
G37*
G36*
X142520Y10630D02*
X148425Y4724D01*
X159055D01*
X166535Y-2756D01*
Y-18898D01*
X162992Y-22441D01*
X156299D01*
X154724Y-20866D01*
Y-12992D01*
X151575Y-9843D01*
X151575Y-7480D01*
X150689Y-6594D01*
Y-5512D01*
X149606D01*
X146850Y-2756D01*
X144095Y0D01*
X133465D01*
Y22835D01*
X142520D01*
Y10630D01*
D02*
G37*
%LPC*%
G36*
X192028Y17224D02*
X187894D01*
Y12697D01*
X192028D01*
Y17224D01*
D02*
G37*
G36*
Y11319D02*
X187894D01*
Y6791D01*
X189049D01*
Y5118D01*
X188287D01*
Y394D01*
X192618D01*
Y5118D01*
X190872D01*
Y6791D01*
X192028D01*
Y11319D01*
D02*
G37*
%LPD*%
D10*
X-143799Y-22047D02*
X-143307Y-22539D01*
Y-28445D02*
Y-22539D01*
X-146752Y-33760D02*
X-143307D01*
X-148425Y-35433D02*
X-146752Y-33760D01*
X-158268Y-35039D02*
Y-34646D01*
X-153092Y-36163D02*
X-147283Y-41973D01*
X250862D01*
X-169882Y18898D02*
X-164567D01*
X-175394Y12598D02*
Y18504D01*
X-175787Y18898D02*
X-175394Y18504D01*
X-170861Y8811D02*
X-170276Y9397D01*
X-171457Y8799D02*
X-171445Y8811D01*
X-171457Y7618D02*
Y8799D01*
X-170276Y9397D02*
Y12598D01*
X-171445Y8811D02*
X-170861D01*
X-200984Y7204D02*
Y7618D01*
X-256404Y7192D02*
X-200996D01*
X-257874Y8661D02*
X-256404Y7192D01*
X-200996D02*
X-200984Y7204D01*
X-255634Y10752D02*
X-254323Y9441D01*
X-266807Y10752D02*
X-255634D01*
X-254323Y9441D02*
X-223693D01*
X-265024Y8661D02*
X-257874D01*
X-273433Y252D02*
X-265024Y8661D01*
X-258104Y-9055D02*
X-244128Y4921D01*
X-270839Y-9055D02*
X-258104D01*
X-272394Y-7500D02*
X-270839Y-9055D01*
X-265256Y197D02*
X-262032Y3421D01*
Y6079D01*
X-261811Y6299D01*
X-261213Y-5226D02*
Y-1272D01*
X-261811Y-6299D02*
Y-5824D01*
X-261213Y-5226D01*
Y-1272D02*
X-259941Y0D01*
X-265256D02*
Y197D01*
X-273433Y-2272D02*
Y252D01*
X-284646Y2500D02*
X-275059D01*
X-266807Y10752D01*
X-275197Y-4035D02*
X-273433Y-2272D01*
X-275590Y-4035D02*
X-275197D01*
X-156504Y-24598D02*
Y-20661D01*
X-155512Y-31890D02*
Y-25591D01*
X-156504Y-24598D02*
X-155512Y-25591D01*
X-200000Y-11417D02*
Y2362D01*
X-203670Y-12784D02*
X-201366D01*
X-200000Y-11417D01*
X-203681Y-12795D02*
X-203670Y-12784D01*
X-204331Y-32283D02*
X-190847D01*
X-208268Y-28346D02*
X-204331Y-32283D01*
X-208268Y-28346D02*
Y-24803D01*
X-206114Y-22650D02*
X-203693D01*
X-203681Y-22638D01*
X-208268Y-24803D02*
X-206114Y-22650D01*
X-187205Y-10827D02*
X-186221Y-11811D01*
X-197047Y-20669D02*
X-187205Y-10827D01*
X-203681Y-20669D02*
X-197047D01*
X-183268Y-6890D02*
X-181299Y-4921D01*
X-186221Y-9843D02*
X-183268Y-6890D01*
X-168760D01*
X-158268Y-34646D02*
X-155512Y-31890D01*
X-157413Y-19752D02*
X-156504Y-20661D01*
X-175394Y-27303D02*
Y-26122D01*
Y-30413D02*
Y-27303D01*
X-189173D02*
Y-26122D01*
Y-30413D02*
Y-27303D01*
X-173721Y-32283D02*
Y-32087D01*
X-212598Y-3150D02*
X-207953D01*
X-207756Y-2953D01*
X-203681D01*
X-246063Y-3150D02*
X-219488D01*
X-254331Y-11417D02*
X-246063Y-3150D01*
X-262992Y13780D02*
X-248912D01*
X-266478Y16593D02*
X-266142Y16929D01*
X-267757Y16593D02*
X-266478D01*
X-266142Y16929D02*
X-262992Y13780D01*
X-271260Y13091D02*
X-267757Y16593D01*
X-272047Y19980D02*
X-271654D01*
X-289497Y-12078D02*
X-282902D01*
X-291732Y-9843D02*
X-289497Y-12078D01*
X-291732Y-9843D02*
Y23228D01*
X-288976Y25984D02*
X-278051D01*
X-291732Y23228D02*
X-288976Y25984D01*
X-278051D02*
X-272047Y19980D01*
X-271654Y13091D02*
X-271260D01*
X-248912Y13780D02*
X-246157Y16535D01*
X-261417Y-22047D02*
X-261221D01*
X-257677Y-18504D02*
X-257480D01*
X-261221Y-22047D02*
X-257677Y-18504D01*
X-246362Y-21165D02*
X-213575D01*
X-187205Y-27303D02*
Y-10827D01*
X-275098Y-11024D02*
X-273433Y-12689D01*
X-257861Y-13386D02*
X-255893Y-11417D01*
X-273433Y-12800D02*
Y-12689D01*
Y-12800D02*
X-272847Y-13386D01*
X-254823Y-11417D02*
X-254331D01*
X-272847Y-13386D02*
X-257861D01*
X-255893Y-11417D02*
X-254823D01*
X-272866Y27378D02*
X-263992Y18504D01*
X-242421D01*
X-240059Y20866D01*
X-229172Y27990D02*
X-226378Y25197D01*
X-196161D01*
X-196063Y25098D01*
X-233169Y21654D02*
X-231405Y23417D01*
X-228633D01*
X-226853Y25197D01*
X-233169Y21260D02*
Y21654D01*
X-226853Y25197D02*
X-226378D01*
X-240059Y20866D02*
Y21260D01*
X-163386Y-3642D02*
Y8268D01*
X-168760Y-8858D02*
X-163484D01*
X-168748Y-6878D02*
X-166767D01*
X-164854Y-4966D01*
Y-4913D01*
X-163673Y-3732D01*
X-163484Y-8858D02*
X-163386Y-8957D01*
X-168760Y-6890D02*
X-168748Y-6878D01*
X-166720Y-10839D02*
X-162992Y-14567D01*
X-167567Y-10839D02*
X-166720D01*
X-162992Y-16594D02*
Y-14567D01*
X-200205Y14378D02*
X-197059Y11232D01*
X-203059Y14378D02*
X-200205D01*
X-197059Y7630D02*
Y11232D01*
Y7630D02*
X-197047Y7618D01*
X-204823Y16142D02*
Y16535D01*
Y16142D02*
X-203059Y14378D01*
X-220626Y12508D02*
X-201484D01*
X-199028Y10051D01*
Y7630D02*
Y10051D01*
X-223693Y9441D02*
X-220626Y12508D01*
X-199028Y7630D02*
X-199016Y7618D01*
X-196063Y13114D02*
X-195079Y12130D01*
Y7618D02*
Y12130D01*
X-196063Y13114D02*
Y18209D01*
X-162992Y-16594D02*
X-160658Y-18928D01*
X-158434D01*
X-157874Y-19488D01*
Y-14370D02*
Y-9646D01*
X267323Y-25512D02*
Y-23622D01*
X250862Y-41973D02*
X267323Y-25512D01*
X-159055Y-27165D02*
Y-26772D01*
X-161419Y-30766D02*
X-158604D01*
X-158268Y-31102D01*
X237362Y-23504D02*
X237480Y-23622D01*
X237559D01*
X-167579Y-24606D02*
X-161419Y-30766D01*
X-168760Y-22638D02*
X-163189D01*
X-159055Y-26772D01*
X-168760Y-24606D02*
X-167579D01*
X-182480Y18406D02*
X-179331Y15256D01*
X-182677Y18406D02*
X-182480D01*
X-179331Y7618D02*
Y15256D01*
X-191154Y7630D02*
Y9657D01*
X-192126Y10630D02*
X-191154Y9657D01*
X-192126Y10630D02*
Y15453D01*
X-189173Y18406D01*
X-188976D01*
X-189173Y12402D02*
X-188583Y12992D01*
X-189173Y-6890D02*
Y7618D01*
X-177362Y-27303D02*
Y-18701D01*
X-186221Y-9843D02*
X-177362Y-18701D01*
X-189173Y7618D02*
Y12402D01*
X-182677Y13091D02*
X-182571D01*
X-181299Y11819D01*
Y7618D02*
Y11819D01*
Y-4921D02*
Y7618D01*
X-198425Y3937D02*
X-192913D01*
X-200000Y2362D02*
X-198425Y3937D01*
X-192913D02*
X-191154Y5697D01*
X-238600Y-8858D02*
X-203681D01*
X-245498Y-15756D02*
X-238600Y-8858D01*
X-279224Y-15756D02*
X-245498D01*
X-282902Y-12078D02*
X-279224Y-15756D01*
X-288583Y31299D02*
Y33465D01*
Y31299D02*
X-284661Y27378D01*
X-272866D01*
X-246157Y16535D02*
X-211713D01*
X-244128Y4921D02*
X-203681D01*
X-284646Y-7500D02*
X-272394D01*
X-254331Y-29134D02*
X-246362Y-21165D01*
X-149114Y-22047D02*
X-148446Y-21379D01*
Y-17343D01*
X-148425Y-17323D01*
X-131496Y-11024D02*
Y-10827D01*
X-137197Y-9653D02*
X-132669D01*
X-131496Y-10827D01*
X-136713Y-17126D02*
X-136130Y-16543D01*
X-135552D02*
X-135544Y-16535D01*
X-132087D02*
X-131496Y-15945D01*
X-136130Y-16543D02*
X-135552D01*
X-135544Y-16535D02*
X-132087D01*
X-137598Y-17126D02*
X-136713D01*
X130709Y-11811D02*
X130709Y-11811D01*
X138976Y-23228D02*
Y-23031D01*
X137795Y-12008D02*
X138976Y-13189D01*
X123228Y-23622D02*
Y-23031D01*
X122835Y-24016D02*
X123228Y-23622D01*
X-275590Y-11024D02*
X-275098D01*
X-311811Y-22047D02*
X-304499Y-14735D01*
Y18336D01*
X-296850Y25984D01*
X-293752Y25130D02*
X-293143Y25739D01*
X-300086Y18418D02*
X-293752Y24752D01*
X-300086Y-19377D02*
Y18418D01*
X-293143Y25739D02*
Y26214D01*
X-293752Y24752D02*
Y25130D01*
X-306693Y-25984D02*
X-300086Y-19377D01*
X315354Y7087D02*
Y7480D01*
X354331D01*
X217323D02*
X217717D01*
X315354D02*
X323504Y15630D01*
Y23504D01*
X211417Y29134D02*
X211614Y28937D01*
Y7677D02*
Y28937D01*
X211417Y7480D02*
X211614Y7677D01*
X205118Y-14567D02*
Y-4724D01*
X200787Y-18898D02*
X205118Y-14567D01*
X193307Y-18898D02*
X200787D01*
X205118Y-4724D02*
X207937Y-1906D01*
X209824Y-394D02*
X211417D01*
X207937Y-1906D02*
X208311D01*
X209824Y-394D01*
X213779Y-14173D02*
Y-13698D01*
X212544Y-12463D02*
X213779Y-13698D01*
X212544Y-12463D02*
Y-9395D01*
X211417Y-8268D02*
X212544Y-9395D01*
X208268Y21654D02*
X208661Y21260D01*
X159449Y-33858D02*
X248976D01*
X159055Y-34252D02*
X159449Y-33858D01*
X257559Y-25276D02*
Y-23622D01*
X248976Y-33858D02*
X257559Y-25276D01*
X169153Y-12461D02*
X173827Y-17134D01*
X169153Y-12461D02*
Y-5335D01*
X173827Y-17134D02*
X174713D01*
X175984Y-18406D01*
X180126Y-24417D02*
Y-12228D01*
X177374Y-9476D02*
X180126Y-12228D01*
X176268Y-9476D02*
X177374D01*
X174153Y-7362D02*
X176268Y-9476D01*
X180126Y-24417D02*
X180512Y-24803D01*
X174153Y-7362D02*
Y-5335D01*
X166740Y-25402D02*
X174795D01*
X175394Y-24803D01*
X159055Y-17717D02*
Y-14567D01*
Y-17717D02*
X166740Y-25402D01*
X190650Y20669D02*
X191339Y21358D01*
X185433Y20669D02*
X190650D01*
X185039Y21063D02*
X185433Y20669D01*
X184843Y14961D02*
Y15571D01*
Y20866D01*
X185039Y21063D01*
X137795Y34449D02*
Y34646D01*
X184429Y15571D02*
X184646Y15354D01*
X179154Y15571D02*
X184429D01*
X190354Y14961D02*
Y15551D01*
X189961Y2559D02*
Y9055D01*
X189764Y2362D02*
X189961Y2559D01*
X174016Y13681D02*
X176592Y11105D01*
X179840D02*
X181890Y9055D01*
X176592Y11105D02*
X179840D01*
X181890Y9055D02*
X184843D01*
X172441Y2362D02*
X172835Y2756D01*
X185138D01*
X185039Y-3150D02*
Y2362D01*
Y-3346D02*
Y-3150D01*
X190847D01*
X191339Y-3642D01*
X169153Y4468D02*
X169685Y3937D01*
X169153Y15571D02*
X169334Y15751D01*
X179795Y-7291D02*
X184063D01*
X184646Y-7874D01*
X179154Y-6650D02*
Y-5335D01*
Y-6650D02*
X179795Y-7291D01*
X-191154Y7630D02*
X-191142Y7618D01*
X-189185Y-26110D02*
X-189173Y-26122D01*
X-175394D02*
X-175382Y-26110D01*
X-148310Y-9564D02*
X-148228Y-9646D01*
X-179331Y7618D02*
X-179319Y7606D01*
X-206693Y-13780D02*
X-205720Y-12807D01*
X-206693Y-16535D02*
Y-13780D01*
X-205720Y-12807D02*
X-203693D01*
X-207353Y-17196D02*
X-206693Y-16535D01*
X-210236Y-18012D02*
X-209420Y-17196D01*
X-207353D01*
X-191154Y7606D02*
X-191142Y7618D01*
X-191154Y5697D02*
Y7606D01*
X-175394Y-30413D02*
X-173721Y-32087D01*
X-190847D02*
X-189173Y-30413D01*
X-190847Y-32283D02*
Y-32087D01*
X343504Y23504D02*
X343583D01*
X313583D02*
X313701Y23622D01*
X313504Y23504D02*
X313583D01*
X303504D02*
X303583D01*
X303701Y23622D01*
X343583Y23504D02*
X343701Y23622D01*
X247362Y-23504D02*
X247441D01*
X247559Y-23622D01*
X-319685Y7874D02*
X-316929D01*
X-331102D02*
X-319685D01*
X-331102D02*
X-330709Y7480D01*
X-187205Y-10827D02*
X-186221Y-9843D01*
X-277126Y-2500D02*
X-275590Y-4035D01*
X-284646Y-2500D02*
X-277126D01*
X-189173Y-6890D02*
X-186221Y-9843D01*
X-250394Y24803D02*
Y28937D01*
X-332602Y-22047D02*
X-311811D01*
X-338583Y-33465D02*
Y-28028D01*
X-332602Y-22047D01*
X-331539Y-25984D02*
X-306693D01*
X-294882Y-19133D02*
X-288583Y-25432D01*
X-294882Y-19133D02*
Y19291D01*
X-333583Y-33465D02*
Y-28028D01*
X-331539Y-25984D01*
X-288583Y-33465D02*
Y-25432D01*
X-330709Y7480D02*
Y7480D01*
X-229172Y27990D02*
Y29368D01*
X-230315Y30512D02*
X-229172Y29368D01*
X-186803Y-33555D02*
X-185531Y-32283D01*
X-186803Y-34441D02*
Y-33555D01*
X-210236Y-12697D02*
X-209752Y-12213D01*
X-211508Y-13969D02*
X-210236Y-12697D01*
X-212598Y-21654D02*
X-208268D01*
X-262106Y26575D02*
Y26772D01*
X-264272Y24409D02*
X-262106Y26575D01*
X-265158Y24409D02*
X-264272D01*
X-263787Y31701D02*
X-261524D01*
X-256791Y26969D01*
X-264961Y32874D02*
X-263787Y31701D01*
X-256791Y26772D02*
Y26969D01*
X-213575Y-20677D02*
X-212598Y-21654D01*
X-208268D02*
X-207283Y-20669D01*
X-203681D01*
X-213575Y-20677D02*
Y-14554D01*
X-212989Y-13969D01*
X-211508D01*
X-209752Y-12213D02*
Y-11425D01*
X-206988Y-10827D02*
X-203681D01*
X-207587Y-11425D02*
X-206988Y-10827D01*
X-209752Y-11425D02*
X-207587D01*
X-187205Y-30413D02*
Y-27303D01*
X-185531Y-32283D02*
X-179035D01*
Y-32087D02*
X-177362Y-30413D01*
X-179035Y-32283D02*
Y-32087D01*
X-177362Y-30413D02*
Y-27303D01*
X-187205Y-30413D02*
X-185531Y-32087D01*
Y-32283D02*
Y-32087D01*
X-383858Y44488D02*
X383858D01*
X-383858Y-44488D02*
Y44488D01*
Y-44488D02*
X383858D01*
Y44488D01*
D18*
X-265158Y24409D02*
X-261614Y20866D01*
X-257480D01*
X-120472Y-7087D02*
Y-2657D01*
Y2657D02*
Y7087D01*
X217717Y7480D02*
X315354D01*
X314961Y-7087D02*
X354331D01*
X275590D02*
X314961D01*
X217717D02*
X275590D01*
X354331Y3051D02*
Y7480D01*
Y-7087D02*
Y-2264D01*
X217717Y2657D02*
Y7480D01*
Y-7087D02*
Y-2657D01*
X204469Y14035D02*
Y21909D01*
Y14035D02*
X204724Y13780D01*
X198917Y32480D02*
X204469Y26929D01*
Y21909D02*
Y26929D01*
Y21909D02*
X204724Y21654D01*
X208268D01*
X198327Y32874D02*
Y33071D01*
X198721Y32480D02*
X198917D01*
X198327Y32874D02*
X198721Y32480D01*
X204724Y13780D02*
X208661D01*
X-271850Y31102D02*
X-265158Y24409D01*
X-278937Y32776D02*
X-277264Y31102D01*
X-272047D01*
X-279134Y32776D02*
X-278937D01*
X-272047Y31102D02*
X-271850D01*
X-257480Y20866D02*
X-253150D01*
D19*
X-148425Y-35433D02*
D03*
X-164567Y18898D02*
D03*
X-261811Y6299D02*
D03*
Y-6299D02*
D03*
X-182677Y13091D02*
D03*
X-188976D02*
D03*
X-266142Y16929D02*
D03*
X-257480Y-18504D02*
D03*
X-163386Y8268D02*
D03*
X-158661Y-35039D02*
D03*
X237559Y-23622D02*
D03*
X-158661Y-31102D02*
D03*
Y-27165D02*
D03*
X-138583Y8268D02*
D03*
X-143701D02*
D03*
X-153937D02*
D03*
X-148819D02*
D03*
X-131496Y-11024D02*
D03*
X-126378D02*
D03*
Y-7087D02*
D03*
X-131496D02*
D03*
X-276772Y13386D02*
D03*
X-296850Y25984D02*
D03*
X-293143Y26214D02*
D03*
X-120472Y-7087D02*
D03*
Y7087D02*
D03*
X354331Y7480D02*
D03*
X217717D02*
D03*
Y-7087D02*
D03*
X211417Y29134D02*
D03*
X213779Y-14173D02*
D03*
X208661Y13780D02*
D03*
Y21654D02*
D03*
X204724Y13780D02*
D03*
Y21654D02*
D03*
X201181Y-6693D02*
D03*
X196457D02*
D03*
X201181Y-9843D02*
D03*
X196457D02*
D03*
X191339D02*
D03*
X189961Y14961D02*
D03*
X125197Y11417D02*
D03*
X121260D02*
D03*
X125197Y7087D02*
D03*
X121260D02*
D03*
X155512Y10236D02*
D03*
X150394D02*
D03*
X167717Y7087D02*
D03*
X175591D02*
D03*
X171653D02*
D03*
X354331Y-7087D02*
D03*
X275590Y7087D02*
D03*
X314961D02*
D03*
Y-7087D02*
D03*
X343701Y23622D02*
D03*
X333701D02*
D03*
X313701D02*
D03*
X303701D02*
D03*
X277559Y-23622D02*
D03*
X257559D02*
D03*
X247559D02*
D03*
X-275590Y-11024D02*
D03*
X99606Y-7087D02*
D03*
X-250394Y24803D02*
D03*
X-343583Y33465D02*
D03*
X-226378Y25197D02*
D03*
X275590Y-7087D02*
D03*
X-104724D02*
D03*
X-294882Y19291D02*
D03*
X-257480Y20866D02*
D03*
X-253150D02*
D03*
X-264961Y32874D02*
D03*
X-316929Y7087D02*
D03*
X-324016D02*
D03*
X-331102D02*
D03*
X-57874D02*
D03*
X20866Y-7087D02*
D03*
X-18504D02*
D03*
X-57874D02*
D03*
X-18504Y7087D02*
D03*
X20866D02*
D03*
X60236Y-7087D02*
D03*
Y7087D02*
D03*
X99606D02*
D03*
D20*
X-175787Y18898D02*
D03*
X-169882D02*
D03*
D21*
X-170276Y12598D02*
D03*
X-175394D02*
D03*
X189961Y14961D02*
D03*
X184843D02*
D03*
X180512Y-24803D02*
D03*
X175394D02*
D03*
X184843Y9055D02*
D03*
X189961D02*
D03*
D22*
X-265256Y0D02*
D03*
X-259941D02*
D03*
X153839Y-7874D02*
D03*
X148524D02*
D03*
X190453Y2756D02*
D03*
X185138D02*
D03*
X-149114Y-22047D02*
D03*
X-143799D02*
D03*
X-136713Y-3543D02*
D03*
X-142028D02*
D03*
X193012Y33071D02*
D03*
X198327D02*
D03*
X-256791Y26772D02*
D03*
X-262106D02*
D03*
X-173721Y-32283D02*
D03*
X-179035D02*
D03*
X-190847D02*
D03*
X-185531D02*
D03*
D23*
X-271654Y19980D02*
D03*
Y13091D02*
D03*
X-275590Y-4035D02*
D03*
Y-10925D02*
D03*
X-196063Y25098D02*
D03*
Y18209D02*
D03*
D24*
X-254331Y-11417D02*
D03*
X211417Y7480D02*
D03*
Y-8268D02*
D03*
X-261417Y-22047D02*
D03*
X211417Y-394D02*
D03*
X-254331Y-29134D02*
D03*
X-250394Y13780D02*
D03*
D25*
X-163386Y-3642D02*
D03*
Y-8957D02*
D03*
X-120472Y2657D02*
D03*
Y-2657D02*
D03*
X217717Y2657D02*
D03*
Y-2657D02*
D03*
X354331Y3051D02*
D03*
Y-2264D02*
D03*
X191339Y21358D02*
D03*
Y26673D02*
D03*
X175984Y-18406D02*
D03*
Y-13091D02*
D03*
X191339Y-3642D02*
D03*
Y-8957D02*
D03*
X-154724Y-5020D02*
D03*
Y295D02*
D03*
X-148425D02*
D03*
Y-5020D02*
D03*
X-279134Y38091D02*
D03*
Y32776D02*
D03*
X-143307Y-33760D02*
D03*
Y-28445D02*
D03*
X-188976Y18406D02*
D03*
Y13091D02*
D03*
X-182677Y18406D02*
D03*
Y13091D02*
D03*
X-210236Y-18012D02*
D03*
Y-12697D02*
D03*
D26*
X185039Y26181D02*
D03*
Y21063D02*
D03*
Y-3346D02*
D03*
Y-8465D02*
D03*
X-157874Y-14370D02*
D03*
Y-19488D02*
D03*
X-131496Y-10827D02*
D03*
Y-15945D02*
D03*
X-230315Y30512D02*
D03*
Y35630D02*
D03*
X-264961Y32874D02*
D03*
Y37992D02*
D03*
X-250394Y34055D02*
D03*
Y28937D02*
D03*
D27*
X159055Y-34252D02*
D03*
Y-14567D02*
D03*
D28*
X178445Y30315D02*
D03*
X165650D02*
D03*
D29*
X153150Y34843D02*
D03*
Y17913D02*
D03*
X137795Y-12008D02*
D03*
Y4921D02*
D03*
X123228Y5709D02*
D03*
Y-11220D02*
D03*
X137795Y34843D02*
D03*
Y17913D02*
D03*
X123228Y17520D02*
D03*
Y34449D02*
D03*
D30*
X153150Y10236D02*
D03*
Y-787D02*
D03*
D31*
X164154Y15571D02*
D03*
X169153D02*
D03*
X174153D02*
D03*
X179154D02*
D03*
Y-5335D02*
D03*
X174153D02*
D03*
X169153D02*
D03*
X164154D02*
D03*
D32*
X171653Y5118D02*
D03*
D33*
X257362Y-23504D02*
D03*
X267362D02*
D03*
X277362D02*
D03*
X247362D02*
D03*
X237362D02*
D03*
X227362D02*
D03*
X343504Y23504D02*
D03*
X333504D02*
D03*
X323504D02*
D03*
X293504D02*
D03*
X303504D02*
D03*
X313504D02*
D03*
D34*
X204724Y13780D02*
D03*
X198425D02*
D03*
X204724Y21654D02*
D03*
X198425D02*
D03*
D35*
X-137598Y-9646D02*
D03*
Y-13386D02*
D03*
Y-17126D02*
D03*
X-148228Y-9646D02*
D03*
Y-17126D02*
D03*
D36*
X-316791Y11161D02*
D03*
Y3937D02*
D03*
Y-3287D02*
D03*
X-324016Y3937D02*
D03*
X-331240Y3937D02*
D03*
Y11161D02*
D03*
Y-3287D02*
D03*
D37*
X-284646Y-12500D02*
D03*
Y7500D02*
D03*
Y2500D02*
D03*
Y-2500D02*
D03*
Y-7500D02*
D03*
Y-17500D02*
D03*
Y-22500D02*
D03*
Y12500D02*
D03*
Y17500D02*
D03*
Y22500D02*
D03*
D38*
X-288583Y-33465D02*
D03*
X-293583D02*
D03*
X-298583D02*
D03*
X-303583D02*
D03*
X-308583D02*
D03*
X-313583D02*
D03*
X-333583Y33465D02*
D03*
X-338583D02*
D03*
X-343583D02*
D03*
X-348583D02*
D03*
X-353583D02*
D03*
X-298583D02*
D03*
X-303583D02*
D03*
X-308583D02*
D03*
X-313583D02*
D03*
X-328583D02*
D03*
X-293583D02*
D03*
X-318583D02*
D03*
X-323583D02*
D03*
X-288583D02*
D03*
D39*
X-318583Y-33465D02*
D03*
X-323583D02*
D03*
X-328583D02*
D03*
X-333583D02*
D03*
X-338583D02*
D03*
X-343583D02*
D03*
X-348583D02*
D03*
X-353583D02*
D03*
D40*
X-324016Y-3287D02*
D03*
Y11161D02*
D03*
D41*
X-233169Y21260D02*
D03*
X-240059D02*
D03*
X-204823Y16535D02*
D03*
X-211713D02*
D03*
X-219488Y-3150D02*
D03*
X-212598D02*
D03*
X-244390Y35039D02*
D03*
X-237500D02*
D03*
D42*
X121260Y-34449D02*
D03*
Y-23031D02*
D03*
X130709Y-34449D02*
D03*
Y-23031D02*
D03*
X140157Y-34449D02*
D03*
Y-23031D02*
D03*
D43*
X-186221Y-9843D02*
D03*
D44*
X-203681Y4921D02*
D03*
Y2953D02*
D03*
Y984D02*
D03*
Y-984D02*
D03*
Y-2953D02*
D03*
Y-4921D02*
D03*
Y-6890D02*
D03*
Y-8858D02*
D03*
Y-10827D02*
D03*
Y-12795D02*
D03*
Y-14764D02*
D03*
Y-16732D02*
D03*
Y-18701D02*
D03*
Y-20669D02*
D03*
Y-22638D02*
D03*
Y-24606D02*
D03*
X-168760D02*
D03*
Y-22638D02*
D03*
Y-20669D02*
D03*
Y-18701D02*
D03*
Y-16732D02*
D03*
Y-14764D02*
D03*
Y-12795D02*
D03*
Y-10827D02*
D03*
Y-8858D02*
D03*
Y-6890D02*
D03*
Y-4921D02*
D03*
Y-2953D02*
D03*
Y-984D02*
D03*
Y984D02*
D03*
Y2953D02*
D03*
Y4921D02*
D03*
D45*
X-171457Y7618D02*
D03*
X-173425D02*
D03*
X-175394D02*
D03*
X-177362D02*
D03*
X-179331D02*
D03*
X-181299D02*
D03*
X-183268D02*
D03*
X-185236D02*
D03*
X-187205D02*
D03*
X-189173D02*
D03*
X-191142D02*
D03*
X-193110D02*
D03*
X-195079D02*
D03*
X-197047D02*
D03*
X-199016D02*
D03*
X-200984D02*
D03*
Y-27303D02*
D03*
X-199016D02*
D03*
X-197047D02*
D03*
X-195079D02*
D03*
X-193110D02*
D03*
X-191142D02*
D03*
X-189173D02*
D03*
X-187205D02*
D03*
X-185236D02*
D03*
X-183268D02*
D03*
X-181299D02*
D03*
X-179331D02*
D03*
X-177362D02*
D03*
X-175394D02*
D03*
X-173425D02*
D03*
X-171457D02*
D03*
D46*
X-272047Y31102D02*
D03*
Y37402D02*
D03*
D47*
X-153092Y-36163D02*
Y-9646D01*
X-186028Y27760D02*
X-165162D01*
X-159055Y-9646D02*
Y21654D01*
X-165162Y27760D02*
X-159055Y21654D01*
X-190847Y-36319D02*
X-187795Y-39370D01*
X-156299D02*
X-153092Y-36163D01*
X-187795Y-39370D02*
X-156299D01*
X-190847Y-36319D02*
Y-32283D01*
X-173721Y-38189D02*
Y-32283D01*
X-148425Y-5020D02*
X-148310D01*
X-154724D02*
X-148425D01*
X-148310Y-9564D02*
Y-5020D01*
X-159055Y-9646D02*
X-157874D01*
X-162697D02*
X-159055D01*
X-230315Y35039D02*
X-193307D01*
X-237500D02*
X-230315D01*
X-153092Y-9646D02*
X-148310D01*
X-157874D02*
X-153092D01*
X-142527Y-20776D02*
Y-4043D01*
X-159055Y-9646D02*
X-159055Y-9646D01*
X-163386Y-8957D02*
X-162697Y-9646D01*
X-230315Y35039D02*
Y35630D01*
X-186221Y18406D02*
X-182677D01*
X-188976D02*
X-186221D01*
X-186028Y18598D02*
Y27760D01*
X-186221Y18406D02*
X-186028Y18598D01*
X-193307Y35039D02*
X-186028Y27760D01*
X-143799Y-22047D02*
X-142527Y-20776D01*
X-188976Y13091D02*
X-182677D01*
X-142520Y-13386D02*
Y-13386D01*
X-137598D01*
X-142527Y-4043D02*
X-142028Y-3543D01*
X-276772Y13386D02*
Y20079D01*
X-279193Y22500D02*
X-276772Y20079D01*
X169153Y4468D02*
Y15571D01*
X-253728Y35039D02*
X-244390D01*
X-284646Y22500D02*
X-279193D01*
X-347819Y34228D02*
Y38977D01*
X-346638Y40157D02*
X-275764D01*
X-272244Y37402D02*
X-272047D01*
X-273795Y38953D02*
X-272244Y37402D01*
X-275740Y40134D02*
X-274976D01*
X-273795Y38953D02*
Y38953D01*
X-275764Y40157D02*
X-275740Y40134D01*
X-274976D02*
X-273795Y38953D01*
X-347819Y38977D02*
X-346638Y40157D01*
X-348583Y33465D02*
X-347819Y34228D01*
X-256681Y37992D02*
X-253728Y35039D01*
X-264961Y37992D02*
X-256681D01*
X-272047Y37402D02*
X-271752Y37697D01*
X-265256D01*
X-264961Y37992D01*
D48*
X130709Y-23031D02*
Y-11811D01*
X138976Y-23031D02*
X139961D01*
X130709D02*
X138976D01*
X139961D02*
X140157Y-22835D01*
X138976Y-23031D02*
Y-13189D01*
X123228Y-23031D02*
Y-11220D01*
Y-23031D02*
X130709D01*
X121260D02*
X123228D01*
D49*
X123642Y-11634D02*
X137422D01*
D50*
X130709Y-34449D02*
X140157D01*
X118307D02*
X130709D01*
X112205Y-28346D02*
X118307Y-34449D01*
X112205Y-28346D02*
Y27165D01*
X118209Y33169D01*
X122539D01*
X123228Y33858D02*
Y34449D01*
X122539Y33169D02*
X123228Y33858D01*
D51*
Y34449D02*
X137795D01*
D52*
X-319685Y6693D02*
Y7874D01*
X-353583Y26024D02*
X-338720Y11161D01*
X-331240D01*
X-353583Y-33465D02*
Y-19724D01*
X-337146Y-3287D01*
X-331240D01*
X-324016D01*
X-353583Y26024D02*
Y33465D01*
X-319685Y7874D02*
Y8270D01*
D53*
X-324016Y3940D02*
D03*
M02*
