G04*
G04 #@! TF.GenerationSoftware,Altium Limited,Altium Designer,21.6.4 (81)*
G04*
G04 Layer_Physical_Order=1*
G04 Layer_Color=255*
%FSLAX25Y25*%
%MOIN*%
G70*
G04*
G04 #@! TF.SameCoordinates,56C2A621-3926-4038-B8DF-95CCF77FC333*
G04*
G04*
G04 #@! TF.FilePolarity,Positive*
G04*
G01*
G75*
%ADD10C,0.01000*%
%ADD15R,0.01181X0.02165*%
%ADD16R,0.01181X0.03150*%
%ADD17R,0.01772X0.02165*%
%ADD18C,0.02756*%
%ADD19C,0.02756*%
G36*
X372835Y12598D02*
Y4740D01*
X372547D01*
Y2165D01*
X371547D01*
Y4740D01*
X370457D01*
Y4134D01*
X368110Y4134D01*
Y4134D01*
X368110D01*
Y4134D01*
X365764D01*
Y4740D01*
X364673D01*
Y2165D01*
X363673D01*
Y4740D01*
X362583D01*
Y4134D01*
X360236Y4134D01*
Y4134D01*
X360236D01*
Y4134D01*
X357890D01*
Y4740D01*
X356799D01*
Y2165D01*
X355799D01*
Y4740D01*
X354709D01*
Y4134D01*
X352362Y4134D01*
Y4134D01*
X352362D01*
Y4134D01*
X350016D01*
Y4740D01*
X348925D01*
Y2165D01*
X347925D01*
Y4740D01*
X346835D01*
Y4134D01*
X344488Y4134D01*
Y4134D01*
X344488D01*
Y4134D01*
X342142D01*
Y4740D01*
X341051D01*
Y2165D01*
X340051D01*
Y4740D01*
X338961D01*
Y4134D01*
X336614Y4134D01*
Y4134D01*
X336614D01*
Y4134D01*
X334268D01*
Y4740D01*
X333177D01*
Y2165D01*
X332177D01*
Y4740D01*
X331087D01*
Y4134D01*
X328740Y4134D01*
Y4134D01*
X328740D01*
Y4134D01*
X326394D01*
Y4740D01*
X325303D01*
Y2165D01*
X324303D01*
Y4740D01*
X323213D01*
Y4134D01*
X320866Y4134D01*
Y4134D01*
X320866D01*
Y4134D01*
X318520D01*
Y4740D01*
X317429D01*
Y2165D01*
X316429D01*
Y4740D01*
X315339D01*
Y4134D01*
X312992Y4134D01*
Y4134D01*
X312992D01*
Y4134D01*
X310645D01*
Y4740D01*
X309555D01*
Y2165D01*
X308555D01*
Y4740D01*
X307464D01*
Y4134D01*
X305118Y4134D01*
Y4134D01*
X305118D01*
Y4134D01*
X302771D01*
Y4740D01*
X301681D01*
Y2165D01*
X300681D01*
Y4740D01*
X299590D01*
Y4134D01*
X297244Y4134D01*
Y4134D01*
X297244D01*
Y4134D01*
X294897D01*
Y4740D01*
X293807D01*
Y2165D01*
X292807D01*
Y4740D01*
X291716D01*
Y4134D01*
X289370Y4134D01*
Y4134D01*
X289370D01*
Y4134D01*
X287023D01*
Y4740D01*
X285933D01*
Y2165D01*
X284933D01*
Y4740D01*
X283842D01*
Y4134D01*
X281496Y4134D01*
Y4134D01*
X281496D01*
Y4134D01*
X279149D01*
Y4740D01*
X278059D01*
Y2165D01*
X277059D01*
Y4740D01*
X275968D01*
Y4134D01*
X273622Y4134D01*
Y4134D01*
X273622D01*
Y4134D01*
X271275D01*
Y4740D01*
X270184D01*
Y2165D01*
X269184D01*
Y4740D01*
X268094D01*
Y4134D01*
X265748Y4134D01*
Y4134D01*
X265747D01*
Y4134D01*
X263401D01*
Y4740D01*
X262311D01*
Y2165D01*
X261311D01*
Y4740D01*
X260220D01*
Y4134D01*
X257874Y4134D01*
Y4134D01*
X257874D01*
Y4134D01*
X255527D01*
Y4740D01*
X254437D01*
Y2165D01*
X253437D01*
Y4740D01*
X252346D01*
Y4134D01*
X250000Y4134D01*
Y4134D01*
X249999D01*
Y4134D01*
X247653D01*
Y4740D01*
X246563D01*
Y2165D01*
X245563D01*
Y4740D01*
X244472D01*
Y4134D01*
X242126Y4134D01*
Y4134D01*
X242126D01*
Y4134D01*
X239779D01*
Y4740D01*
X238688D01*
Y2165D01*
X237688D01*
Y4740D01*
X236598D01*
Y4134D01*
X234251Y4134D01*
Y4134D01*
X234251D01*
Y4134D01*
X231905D01*
Y4740D01*
X230815D01*
Y2165D01*
X229815D01*
Y4740D01*
X228724D01*
Y4134D01*
X226378Y4134D01*
Y4134D01*
X226378D01*
Y4134D01*
X224031D01*
Y4740D01*
X222940D01*
Y2165D01*
X221940D01*
Y4740D01*
X220850D01*
Y4134D01*
X218503Y4134D01*
Y4134D01*
X218503D01*
Y4134D01*
X216157D01*
Y4740D01*
X215067D01*
Y2165D01*
X214067D01*
Y4740D01*
X212976D01*
Y4134D01*
X210630Y4134D01*
Y4134D01*
X210630D01*
Y4134D01*
X208283D01*
Y4740D01*
X207192D01*
Y2165D01*
X206192D01*
Y4740D01*
X205102D01*
Y4134D01*
X202755Y4134D01*
Y4134D01*
X202755D01*
Y4134D01*
X200409D01*
Y4740D01*
X199319D01*
Y2165D01*
X198319D01*
Y4740D01*
X197228D01*
Y4134D01*
X194881Y4134D01*
Y4134D01*
X194881D01*
Y4134D01*
X192535D01*
Y4740D01*
X191445D01*
Y2165D01*
X190445D01*
Y4740D01*
X189354D01*
Y4134D01*
X187007Y4134D01*
Y4134D01*
X187007D01*
Y4134D01*
X184661D01*
Y4740D01*
X183570D01*
Y2165D01*
X182570D01*
Y4740D01*
X181480D01*
Y4134D01*
X179133Y4134D01*
Y4134D01*
X179133D01*
Y4134D01*
X176787D01*
Y4740D01*
X175696D01*
Y2165D01*
X174696D01*
Y4740D01*
X173606D01*
Y4134D01*
X171259Y4134D01*
Y4134D01*
X171259D01*
Y4134D01*
X168913D01*
Y4740D01*
X167822D01*
Y2165D01*
X166822D01*
Y4740D01*
X165732D01*
Y4134D01*
X163385Y4134D01*
Y4134D01*
X163385D01*
Y4134D01*
X161039D01*
Y4740D01*
X159949D01*
Y2165D01*
X158949D01*
Y4740D01*
X157858D01*
Y4134D01*
X155511Y4134D01*
Y4134D01*
X155511D01*
Y4134D01*
X153165D01*
Y4740D01*
X152075D01*
Y2165D01*
X151075D01*
Y4740D01*
X149984D01*
Y4134D01*
X147637Y4134D01*
Y4134D01*
X147637D01*
Y4134D01*
X145291D01*
Y4740D01*
X144200D01*
Y2165D01*
X143200D01*
Y4740D01*
X142110D01*
Y4134D01*
X139763Y4134D01*
Y4134D01*
X139763D01*
Y4134D01*
X137417D01*
Y4740D01*
X136326D01*
Y2165D01*
X135326D01*
Y4740D01*
X134236D01*
Y4134D01*
X131889Y4134D01*
Y4134D01*
X131889D01*
Y4134D01*
X129543D01*
Y4740D01*
X128452D01*
Y2165D01*
X127452D01*
Y4740D01*
X126362D01*
Y4134D01*
X124015Y4134D01*
Y4134D01*
X124015D01*
Y4134D01*
X121669D01*
Y4740D01*
X120578D01*
Y2165D01*
X119578D01*
Y4740D01*
X118488D01*
Y4134D01*
X116141Y4134D01*
Y4134D01*
X116141D01*
Y4134D01*
X113795D01*
Y4740D01*
X112704D01*
Y2165D01*
X111704D01*
Y4740D01*
X110614D01*
Y4134D01*
X108267Y4134D01*
Y4134D01*
X108267D01*
Y4134D01*
X105921D01*
Y4740D01*
X104830D01*
Y2165D01*
X103830D01*
Y4740D01*
X102740D01*
Y4134D01*
X100393Y4134D01*
Y4134D01*
X100393D01*
Y4134D01*
X98047D01*
Y4740D01*
X96956D01*
Y2165D01*
X95956D01*
Y4740D01*
X94866D01*
Y4134D01*
X92519Y4134D01*
Y4134D01*
X92519D01*
Y4134D01*
X90173D01*
Y4740D01*
X89082D01*
Y2165D01*
X88082D01*
Y4740D01*
X86992D01*
Y4134D01*
X84645Y4134D01*
Y4134D01*
X84645D01*
Y4134D01*
X82299D01*
Y4740D01*
X81208D01*
Y2165D01*
X80208D01*
Y4740D01*
X79118D01*
Y4134D01*
X76771Y4134D01*
Y4134D01*
X76771D01*
Y4134D01*
X74425D01*
Y4740D01*
X73334D01*
Y2165D01*
X72334D01*
Y4740D01*
X71244D01*
Y4134D01*
X68897Y4134D01*
Y4134D01*
X68897D01*
Y4134D01*
X66551D01*
Y4740D01*
X65460D01*
Y2165D01*
X64460D01*
Y4740D01*
X63370D01*
Y4134D01*
X58677D01*
Y4740D01*
X57587D01*
Y2165D01*
X56587D01*
Y4740D01*
X55496D01*
Y4134D01*
X53150Y4134D01*
Y4134D01*
X53150D01*
Y4134D01*
X50803D01*
Y4740D01*
X49713D01*
Y2165D01*
X48713D01*
Y4740D01*
X47622D01*
Y4134D01*
X45276Y4134D01*
Y4134D01*
X45275D01*
Y4134D01*
X42929D01*
Y4740D01*
X41838D01*
Y2165D01*
X40838D01*
Y4740D01*
X39748D01*
Y4134D01*
X37401Y4134D01*
Y4134D01*
X37401D01*
Y4134D01*
X35055D01*
Y4740D01*
X33964D01*
Y2165D01*
X32964D01*
Y4740D01*
X31874D01*
Y4134D01*
X29527Y4134D01*
Y4134D01*
X29527D01*
Y4134D01*
X27181D01*
Y4740D01*
X26090D01*
Y2165D01*
X25090D01*
Y4740D01*
X24000D01*
Y4134D01*
X21653Y4134D01*
Y4134D01*
X21653D01*
Y4134D01*
X19307D01*
Y4740D01*
X18216D01*
Y2165D01*
X17216D01*
Y4740D01*
X16126D01*
Y4134D01*
X13779Y4134D01*
Y4134D01*
X13779D01*
Y4134D01*
X11433D01*
Y4740D01*
X10342D01*
Y2165D01*
X9342D01*
Y4740D01*
X8252D01*
Y4134D01*
X5905Y4134D01*
Y4134D01*
X5905D01*
Y4134D01*
X3559D01*
Y4740D01*
X2468D01*
Y2165D01*
X1468D01*
Y4740D01*
X378D01*
Y4134D01*
X-1969Y4134D01*
Y4134D01*
X-1969D01*
Y4134D01*
X-4315D01*
Y4740D01*
X-5406D01*
Y2165D01*
X-6406D01*
Y4740D01*
X-7496D01*
Y4134D01*
X-9843Y4134D01*
Y4134D01*
X-9843D01*
Y4134D01*
X-12189D01*
Y4740D01*
X-13280D01*
Y2165D01*
X-14280D01*
Y4740D01*
X-15370D01*
Y4134D01*
X-17717Y4134D01*
Y4134D01*
X-17717D01*
Y4134D01*
X-20063D01*
Y4740D01*
X-21154D01*
Y2165D01*
X-22154D01*
Y4740D01*
X-23244D01*
Y4134D01*
X-25591Y4134D01*
Y4134D01*
X-25591D01*
Y4134D01*
X-27937D01*
Y4740D01*
X-29028D01*
Y2165D01*
X-30028D01*
Y4740D01*
X-31118D01*
Y4134D01*
X-33465Y4134D01*
Y4134D01*
X-33465D01*
Y4134D01*
X-35811D01*
Y4740D01*
X-36902D01*
Y2165D01*
X-37902D01*
Y4740D01*
X-38992D01*
Y4134D01*
X-41339Y4134D01*
Y4134D01*
X-41339D01*
Y4134D01*
X-43685D01*
Y4740D01*
X-44776D01*
Y2165D01*
X-45776D01*
Y4740D01*
X-46866D01*
Y4134D01*
X-49213Y4134D01*
Y4134D01*
X-49213D01*
Y4134D01*
X-51559D01*
Y4740D01*
X-52650D01*
Y2165D01*
X-53650D01*
Y4740D01*
X-54740D01*
Y4134D01*
X-57087Y4134D01*
Y4134D01*
X-57087D01*
Y4134D01*
X-59433D01*
Y4740D01*
X-60524D01*
Y2165D01*
X-61524D01*
Y4740D01*
X-62614D01*
Y4134D01*
X-64961Y4134D01*
Y4134D01*
X-64961D01*
Y4134D01*
X-67307D01*
Y4740D01*
X-68398D01*
Y2165D01*
X-69398D01*
Y4740D01*
X-70488D01*
Y4134D01*
X-72835Y4134D01*
Y4134D01*
X-72835D01*
Y4134D01*
X-75181D01*
Y4740D01*
X-76272D01*
Y2165D01*
X-77272D01*
Y4740D01*
X-78362D01*
Y4134D01*
X-80709Y4134D01*
Y4134D01*
X-80709D01*
Y4134D01*
X-83055D01*
Y4740D01*
X-84146D01*
Y2165D01*
X-85146D01*
Y4740D01*
X-86236D01*
Y4134D01*
X-88583Y4134D01*
Y4134D01*
X-88583D01*
Y4134D01*
X-90929D01*
Y4740D01*
X-92020D01*
Y2165D01*
X-93020D01*
Y4740D01*
X-94110D01*
Y4134D01*
X-96457Y4134D01*
Y4134D01*
X-96457D01*
Y4134D01*
X-98803D01*
Y4740D01*
X-99894D01*
Y2165D01*
X-100894D01*
Y4740D01*
X-101985D01*
Y4134D01*
X-104331Y4134D01*
Y4134D01*
X-104331D01*
Y4134D01*
X-106677D01*
Y4740D01*
X-107768D01*
Y2165D01*
X-108768D01*
Y4740D01*
X-109859D01*
Y4134D01*
X-112205Y4134D01*
Y4134D01*
X-112205D01*
Y4134D01*
X-114551D01*
Y4740D01*
X-115642D01*
Y2165D01*
X-116642D01*
Y4740D01*
X-117733D01*
Y4134D01*
X-120079Y4134D01*
Y4134D01*
X-120079D01*
Y4134D01*
X-122425D01*
Y4740D01*
X-123516D01*
Y2165D01*
X-124516D01*
Y4740D01*
X-125607D01*
Y4134D01*
X-127953Y4134D01*
Y4134D01*
X-127953D01*
Y4134D01*
X-130299D01*
Y4740D01*
X-131390D01*
Y2165D01*
X-132390D01*
Y4740D01*
X-133481D01*
Y4134D01*
X-135827Y4134D01*
Y4134D01*
X-135827D01*
Y4134D01*
X-138173D01*
Y4740D01*
X-139264D01*
Y2165D01*
X-140264D01*
Y4740D01*
X-141355D01*
Y4134D01*
X-143701Y4134D01*
Y4134D01*
X-143701D01*
Y4134D01*
X-146047D01*
Y4740D01*
X-147138D01*
Y2165D01*
X-148138D01*
Y4740D01*
X-149229D01*
Y4134D01*
X-151575Y4134D01*
Y4134D01*
X-151575D01*
Y4134D01*
X-153921D01*
Y4740D01*
X-155012D01*
Y2165D01*
X-156012D01*
Y4740D01*
X-157103D01*
Y4134D01*
X-159449Y4134D01*
Y4134D01*
X-159449D01*
Y4134D01*
X-161795D01*
Y4740D01*
X-162886D01*
Y2165D01*
X-163886D01*
Y4740D01*
X-164977D01*
Y4134D01*
X-167323Y4134D01*
Y4134D01*
X-167323D01*
Y4134D01*
X-169669D01*
Y4740D01*
X-170760D01*
Y2165D01*
X-171760D01*
Y4740D01*
X-172851D01*
Y4134D01*
X-175197Y4134D01*
Y4134D01*
X-175197D01*
Y4134D01*
X-177543D01*
Y4740D01*
X-178634D01*
Y2165D01*
X-179634D01*
Y4740D01*
X-180725D01*
Y4134D01*
X-183071Y4134D01*
Y4134D01*
X-183071D01*
Y4134D01*
X-185417D01*
Y4740D01*
X-186508D01*
Y2165D01*
X-187508D01*
Y4740D01*
X-188599D01*
Y4134D01*
X-190945Y4134D01*
Y4134D01*
X-190945D01*
Y4134D01*
X-193291D01*
Y4740D01*
X-194382D01*
Y2165D01*
X-195382D01*
Y4740D01*
X-196473D01*
Y4134D01*
X-198819Y4134D01*
Y4134D01*
X-198819D01*
Y4134D01*
X-201166D01*
Y4740D01*
X-202256D01*
Y2165D01*
X-203256D01*
Y4740D01*
X-204347D01*
Y4134D01*
X-206693Y4134D01*
Y4134D01*
X-206693D01*
Y4134D01*
X-209039D01*
Y4740D01*
X-210130D01*
Y2165D01*
X-211130D01*
Y4740D01*
X-212221D01*
Y4134D01*
X-214567Y4134D01*
Y4134D01*
X-214567D01*
Y4134D01*
X-216914D01*
Y4740D01*
X-218004D01*
Y2165D01*
X-219004D01*
Y4740D01*
X-220095D01*
Y4134D01*
X-222441Y4134D01*
Y4134D01*
X-222441D01*
Y4134D01*
X-224787D01*
Y4740D01*
X-225878D01*
Y2165D01*
X-226878D01*
Y4740D01*
X-227969D01*
Y4134D01*
X-230315Y4134D01*
Y4134D01*
X-230315D01*
Y4134D01*
X-232662D01*
Y4740D01*
X-233752D01*
Y2165D01*
X-234752D01*
Y4740D01*
X-235843D01*
Y4134D01*
X-238189Y4134D01*
Y4134D01*
X-238189D01*
Y4134D01*
X-240535D01*
Y4740D01*
X-241626D01*
Y2165D01*
X-242626D01*
Y4740D01*
X-243717D01*
Y4134D01*
X-246063Y4134D01*
Y4134D01*
X-246063D01*
Y4134D01*
X-248410D01*
Y4740D01*
X-249500D01*
Y2165D01*
X-250500D01*
Y4740D01*
X-251591D01*
Y4134D01*
X-253937Y4134D01*
Y4134D01*
X-253937D01*
Y4134D01*
X-256284D01*
Y4740D01*
X-257374D01*
Y2165D01*
X-258374D01*
Y4740D01*
X-259465D01*
Y4134D01*
X-261811Y4134D01*
Y4134D01*
X-261811D01*
Y4134D01*
X-264158D01*
Y4740D01*
X-265248D01*
Y2165D01*
X-266248D01*
Y4740D01*
X-267339D01*
Y4134D01*
X-269685Y4134D01*
Y4134D01*
X-269685D01*
Y4134D01*
X-272032D01*
Y4740D01*
X-273122D01*
Y2165D01*
X-274122D01*
Y4740D01*
X-275213D01*
Y4134D01*
X-277559Y4134D01*
Y4134D01*
X-277559D01*
Y4134D01*
X-279906D01*
Y4740D01*
X-280996D01*
Y2165D01*
X-281996D01*
Y4740D01*
X-283087D01*
Y4134D01*
X-285433Y4134D01*
Y4134D01*
X-285433D01*
Y4134D01*
X-287780D01*
Y4740D01*
X-288870D01*
Y2165D01*
X-289870D01*
Y4740D01*
X-290961D01*
Y4134D01*
X-293307Y4134D01*
Y4134D01*
X-293307D01*
Y4134D01*
X-295654D01*
Y4740D01*
X-296744D01*
Y2165D01*
X-297744D01*
Y4740D01*
X-298835D01*
Y4134D01*
X-301181Y4134D01*
Y4134D01*
X-301181D01*
Y4134D01*
X-303528D01*
Y4740D01*
X-304618D01*
Y2165D01*
X-305618D01*
Y4740D01*
X-306709D01*
Y4134D01*
X-311402D01*
Y4740D01*
X-312492D01*
Y2165D01*
X-313492D01*
Y4740D01*
X-314583D01*
Y4134D01*
X-316929Y4134D01*
Y4134D01*
X-316929D01*
Y4134D01*
X-319276D01*
Y4740D01*
X-320366D01*
Y2165D01*
X-321366D01*
Y4740D01*
X-322457D01*
Y4134D01*
X-324803Y4134D01*
Y4134D01*
X-324803D01*
Y4134D01*
X-327150D01*
Y4740D01*
X-328240D01*
Y2165D01*
X-329240D01*
Y4740D01*
X-330331D01*
Y4134D01*
X-332677Y4134D01*
Y4134D01*
X-332677D01*
Y4134D01*
X-335024D01*
Y4740D01*
X-336114D01*
Y2165D01*
X-337114D01*
Y4740D01*
X-338205D01*
Y4134D01*
X-340551Y4134D01*
Y4134D01*
X-340551D01*
Y4134D01*
X-342898D01*
Y4740D01*
X-343988D01*
Y2165D01*
X-344988D01*
Y4740D01*
X-346079D01*
Y4134D01*
X-348425Y4134D01*
Y4134D01*
X-348425D01*
Y4134D01*
X-350772D01*
Y4740D01*
X-351862D01*
Y2165D01*
X-352862D01*
Y4740D01*
X-353953D01*
Y4740D01*
X-355906Y4778D01*
X-355906Y12598D01*
X-346850Y21654D01*
X-302076D01*
X-296707Y16285D01*
X-296412Y16087D01*
X-296063Y16018D01*
X-294180D01*
X-294180Y16018D01*
Y16018D01*
X-289857D01*
X-287889Y16018D01*
X-267682D01*
X-267644Y15926D01*
X-267644Y15926D01*
X-267617Y15899D01*
X-267145Y15427D01*
X-266494Y15157D01*
X-265789D01*
X-265138Y15427D01*
X-264640Y15926D01*
X-264370Y16577D01*
Y17281D01*
X-264640Y17933D01*
X-265138Y18431D01*
X-265789Y18701D01*
X-266494D01*
X-267145Y18431D01*
X-267617Y17959D01*
X-267644Y17933D01*
X-267644Y17933D01*
X-267682Y17840D01*
X-287536D01*
X-288351Y19809D01*
X-286507Y21654D01*
X-54832D01*
X-47101Y13923D01*
X-46805Y13725D01*
X-46457Y13656D01*
X40157D01*
X40506Y13725D01*
X40802Y13923D01*
X48533Y21654D01*
X299499D01*
X300931Y20222D01*
X301226Y20024D01*
X301575Y19955D01*
X330945D01*
X331294Y20024D01*
X331589Y20222D01*
X333021Y21654D01*
X363780D01*
X372835Y12598D01*
D02*
G37*
G36*
X356799Y-4740D02*
X357890D01*
Y-4134D01*
X359736D01*
X360236Y-4134D01*
Y-4134D01*
X360236D01*
Y-4134D01*
X362583D01*
Y-4740D01*
X363673D01*
Y-2657D01*
X364673D01*
Y-4740D01*
X365764D01*
Y-4134D01*
X367610D01*
X368110Y-4134D01*
Y-4134D01*
X368110D01*
Y-4134D01*
X370457D01*
Y-4740D01*
X371547D01*
Y-2657D01*
X372547D01*
Y-4740D01*
X372835D01*
X372835Y-12598D01*
X363779Y-21654D01*
X30225Y-21654D01*
X30208Y-21642D01*
X29062Y-21167D01*
X27845Y-20925D01*
X26604D01*
X25387Y-21167D01*
X24241Y-21642D01*
X24224Y-21654D01*
X15434D01*
X-24224D01*
X-24241Y-21642D01*
X-25387Y-21167D01*
X-26604Y-20925D01*
X-27845D01*
X-29062Y-21167D01*
X-30208Y-21642D01*
X-30225Y-21654D01*
X-284278Y-21654D01*
X-284470Y-21192D01*
X-276035Y-12757D01*
X-275943Y-12795D01*
X-275238D01*
X-274587Y-12526D01*
X-274089Y-12027D01*
X-273819Y-11376D01*
Y-10671D01*
X-274089Y-10020D01*
X-274587Y-9522D01*
X-275238Y-9252D01*
X-275943D01*
X-276594Y-9522D01*
X-277093Y-10020D01*
X-277362Y-10671D01*
Y-11376D01*
X-277324Y-11468D01*
X-287509Y-21654D01*
X-349213D01*
X-355906Y-14961D01*
X-355906Y-4134D01*
X-353953D01*
Y-4740D01*
X-352862D01*
Y-2657D01*
X-351862D01*
Y-4740D01*
X-350772D01*
Y-4134D01*
X-348925D01*
X-348425Y-4134D01*
Y-4134D01*
X-348425D01*
Y-4134D01*
X-346079D01*
Y-4740D01*
X-344988D01*
Y-2657D01*
X-343988D01*
Y-4740D01*
X-342898D01*
Y-4134D01*
X-341051D01*
X-340551Y-4134D01*
Y-4134D01*
X-340551D01*
Y-4134D01*
X-338205D01*
Y-4740D01*
X-337114D01*
Y-2657D01*
X-336114D01*
Y-4740D01*
X-335024D01*
Y-4134D01*
X-333177D01*
X-332677Y-4134D01*
Y-4134D01*
X-332677D01*
Y-4134D01*
X-330331D01*
Y-4740D01*
X-329240D01*
Y-2657D01*
X-328240D01*
Y-4740D01*
X-327150D01*
Y-4134D01*
X-325303D01*
X-324803Y-4134D01*
Y-4134D01*
X-324803D01*
Y-4134D01*
X-322457D01*
Y-4740D01*
X-321366D01*
Y-2657D01*
X-320366D01*
Y-4740D01*
X-319276D01*
Y-4134D01*
X-317429D01*
X-316929Y-4134D01*
Y-4134D01*
X-316929D01*
Y-4134D01*
X-314583D01*
Y-4740D01*
X-313492D01*
Y-2657D01*
X-312492D01*
Y-4740D01*
X-311402D01*
Y-4134D01*
X-306709D01*
Y-4740D01*
X-305618D01*
Y-2657D01*
X-304618D01*
Y-4740D01*
X-303528D01*
Y-4134D01*
X-301681D01*
X-301181Y-4134D01*
Y-4134D01*
X-301181D01*
Y-4134D01*
X-298835D01*
Y-4740D01*
X-297744D01*
Y-2657D01*
X-296744D01*
Y-4740D01*
X-295654D01*
Y-4134D01*
X-293807D01*
X-293307Y-4134D01*
Y-4134D01*
X-293307D01*
Y-4134D01*
X-290961D01*
Y-4740D01*
X-289870D01*
Y-2657D01*
X-288870D01*
Y-4740D01*
X-287780D01*
Y-4134D01*
X-285933D01*
X-285433Y-4134D01*
Y-4134D01*
X-285433D01*
Y-4134D01*
X-283087D01*
Y-4740D01*
X-281996D01*
Y-2657D01*
X-280996D01*
Y-4740D01*
X-279906D01*
Y-4134D01*
X-278059D01*
X-277559Y-4134D01*
Y-4134D01*
X-277559D01*
Y-4134D01*
X-275213D01*
Y-4740D01*
X-274122D01*
Y-2657D01*
X-273122D01*
Y-4740D01*
X-272032D01*
Y-4134D01*
X-270185D01*
X-269685Y-4134D01*
Y-4134D01*
X-269685D01*
Y-4134D01*
X-267339D01*
Y-4740D01*
X-266248D01*
Y-2657D01*
X-265248D01*
Y-4740D01*
X-264158D01*
Y-4134D01*
X-262311D01*
X-261811Y-4134D01*
Y-4134D01*
X-261811D01*
Y-4134D01*
X-259465D01*
Y-4740D01*
X-258374D01*
Y-2657D01*
X-257374D01*
Y-4740D01*
X-256284D01*
Y-4134D01*
X-254437D01*
X-253937Y-4134D01*
Y-4134D01*
X-253937D01*
Y-4134D01*
X-251591D01*
Y-4740D01*
X-250500D01*
Y-2657D01*
X-249500D01*
Y-4740D01*
X-248410D01*
Y-4134D01*
X-246563D01*
X-246063Y-4134D01*
Y-4134D01*
X-246063D01*
Y-4134D01*
X-243717D01*
Y-4740D01*
X-242626D01*
Y-2657D01*
X-241626D01*
Y-4740D01*
X-240535D01*
Y-4134D01*
X-238689D01*
X-238189Y-4134D01*
Y-4134D01*
X-238189D01*
Y-4134D01*
X-235843D01*
Y-4740D01*
X-234752D01*
Y-2657D01*
X-233752D01*
Y-4740D01*
X-232662D01*
Y-4134D01*
X-230815D01*
X-230315Y-4134D01*
Y-4134D01*
X-230315D01*
Y-4134D01*
X-227969D01*
Y-4740D01*
X-226878D01*
Y-2657D01*
X-225878D01*
Y-4740D01*
X-224787D01*
Y-4134D01*
X-222941D01*
X-222441Y-4134D01*
Y-4134D01*
X-222441D01*
Y-4134D01*
X-220095D01*
Y-4740D01*
X-219004D01*
Y-2657D01*
X-218004D01*
Y-4740D01*
X-216914D01*
Y-4134D01*
X-215067D01*
X-214567Y-4134D01*
Y-4134D01*
X-214567D01*
Y-4134D01*
X-212221D01*
Y-4740D01*
X-211130D01*
Y-2657D01*
X-210130D01*
Y-4740D01*
X-209039D01*
Y-4134D01*
X-207193D01*
X-206693Y-4134D01*
Y-4134D01*
X-206693D01*
Y-4134D01*
X-204347D01*
Y-4740D01*
X-203256D01*
Y-2657D01*
X-202256D01*
Y-4740D01*
X-201166D01*
Y-4134D01*
X-199319D01*
X-198819Y-4134D01*
Y-4134D01*
X-198819D01*
Y-4134D01*
X-196473D01*
Y-4740D01*
X-195382D01*
Y-2657D01*
X-194382D01*
Y-4740D01*
X-193291D01*
Y-4134D01*
X-191445D01*
X-190945Y-4134D01*
Y-4134D01*
X-190945D01*
Y-4134D01*
X-188599D01*
Y-4740D01*
X-187508D01*
Y-2657D01*
X-186508D01*
Y-4740D01*
X-185417D01*
Y-4134D01*
X-183571D01*
X-183071Y-4134D01*
Y-4134D01*
X-183071D01*
Y-4134D01*
X-180725D01*
Y-4740D01*
X-179634D01*
Y-2657D01*
X-178634D01*
Y-4740D01*
X-177543D01*
Y-4134D01*
X-175697D01*
X-175197Y-4134D01*
Y-4134D01*
X-175197D01*
Y-4134D01*
X-172851D01*
Y-4740D01*
X-171760D01*
Y-2657D01*
X-170760D01*
Y-4740D01*
X-169669D01*
Y-4134D01*
X-167823D01*
X-167323Y-4134D01*
Y-4134D01*
X-167323D01*
Y-4134D01*
X-164977D01*
Y-4740D01*
X-163886D01*
Y-2657D01*
X-162886D01*
Y-4740D01*
X-161795D01*
Y-4134D01*
X-159949D01*
X-159449Y-4134D01*
Y-4134D01*
X-159449D01*
Y-4134D01*
X-157103D01*
Y-4740D01*
X-156012D01*
Y-2657D01*
X-155012D01*
Y-4740D01*
X-153921D01*
Y-4134D01*
X-152075D01*
X-151575Y-4134D01*
Y-4134D01*
X-151575D01*
Y-4134D01*
X-149229D01*
Y-4740D01*
X-148138D01*
Y-2657D01*
X-147138D01*
Y-4740D01*
X-146047D01*
Y-4134D01*
X-144201D01*
X-143701Y-4134D01*
Y-4134D01*
X-143701D01*
Y-4134D01*
X-141355D01*
Y-4740D01*
X-140264D01*
Y-2657D01*
X-139264D01*
Y-4740D01*
X-138173D01*
Y-4134D01*
X-136327D01*
X-135827Y-4134D01*
Y-4134D01*
X-135827D01*
Y-4134D01*
X-133481D01*
Y-4740D01*
X-132390D01*
Y-2657D01*
X-131390D01*
Y-4740D01*
X-130299D01*
Y-4134D01*
X-128453D01*
X-127953Y-4134D01*
Y-4134D01*
X-127953D01*
Y-4134D01*
X-125607D01*
Y-4740D01*
X-124516D01*
Y-2657D01*
X-123516D01*
Y-4740D01*
X-122425D01*
Y-4134D01*
X-120579D01*
X-120079Y-4134D01*
Y-4134D01*
X-120079D01*
Y-4134D01*
X-117733D01*
Y-4740D01*
X-116642D01*
Y-2657D01*
X-115642D01*
Y-4740D01*
X-114551D01*
Y-4134D01*
X-112705D01*
X-112205Y-4134D01*
Y-4134D01*
X-112205D01*
Y-4134D01*
X-109859D01*
Y-4740D01*
X-108768D01*
Y-2657D01*
X-107768D01*
Y-4740D01*
X-106677D01*
Y-4134D01*
X-104831D01*
X-104331Y-4134D01*
Y-4134D01*
X-104331D01*
Y-4134D01*
X-101985D01*
Y-4740D01*
X-100894D01*
Y-2657D01*
X-99894D01*
Y-4740D01*
X-98803D01*
Y-4134D01*
X-96957D01*
X-96457Y-4134D01*
Y-4134D01*
X-96457D01*
Y-4134D01*
X-94110D01*
Y-4740D01*
X-93020D01*
Y-2657D01*
X-92020D01*
Y-4740D01*
X-90929D01*
Y-4134D01*
X-89083D01*
X-88583Y-4134D01*
Y-4134D01*
X-88583D01*
Y-4134D01*
X-86236D01*
Y-4740D01*
X-85146D01*
Y-2657D01*
X-84146D01*
Y-4740D01*
X-83055D01*
Y-4134D01*
X-81209D01*
X-80709Y-4134D01*
Y-4134D01*
X-80709D01*
Y-4134D01*
X-78362D01*
Y-4740D01*
X-77272D01*
Y-2657D01*
X-76272D01*
Y-4740D01*
X-75181D01*
Y-4134D01*
X-73335D01*
X-72835Y-4134D01*
Y-4134D01*
X-72835D01*
Y-4134D01*
X-70488D01*
Y-4740D01*
X-69398D01*
Y-2657D01*
X-68398D01*
Y-4740D01*
X-67307D01*
Y-4134D01*
X-65461D01*
X-64961Y-4134D01*
Y-4134D01*
X-64961D01*
Y-4134D01*
X-62614D01*
Y-4740D01*
X-61524D01*
Y-2657D01*
X-60524D01*
Y-4740D01*
X-59433D01*
Y-4134D01*
X-57587D01*
X-57087Y-4134D01*
Y-4134D01*
X-57087D01*
Y-4134D01*
X-54740D01*
Y-4740D01*
X-53650D01*
Y-2657D01*
X-52650D01*
Y-4740D01*
X-51559D01*
Y-4134D01*
X-49713D01*
X-49213Y-4134D01*
Y-4134D01*
X-49213D01*
Y-4134D01*
X-46866D01*
Y-4740D01*
X-45776D01*
Y-2657D01*
X-44776D01*
Y-4740D01*
X-43685D01*
Y-4134D01*
X-41839D01*
X-41339Y-4134D01*
Y-4134D01*
X-41339D01*
Y-4134D01*
X-38992D01*
Y-4740D01*
X-37902D01*
Y-2657D01*
X-36902D01*
Y-4740D01*
X-35811D01*
Y-4134D01*
X-33965D01*
X-33465Y-4134D01*
Y-4134D01*
X-33465D01*
Y-4134D01*
X-31118D01*
Y-4740D01*
X-30028D01*
Y-2657D01*
X-29028D01*
Y-4740D01*
X-27937D01*
Y-4134D01*
X-26091D01*
X-25591Y-4134D01*
Y-4134D01*
X-25591D01*
Y-4134D01*
X-23244D01*
Y-4740D01*
X-22154D01*
Y-2657D01*
X-21154D01*
Y-4740D01*
X-20063D01*
Y-4134D01*
X-18217D01*
X-17717Y-4134D01*
Y-4134D01*
X-17717D01*
Y-4134D01*
X-15370D01*
Y-4740D01*
X-14280D01*
Y-2657D01*
X-13280D01*
Y-4740D01*
X-12189D01*
Y-4134D01*
X-10343D01*
X-9843Y-4134D01*
Y-4134D01*
X-9843D01*
Y-4134D01*
X-7496D01*
Y-4740D01*
X-6406D01*
Y-2657D01*
X-5406D01*
Y-4740D01*
X-4315D01*
Y-4134D01*
X-2469D01*
X-1969Y-4134D01*
Y-4134D01*
X-1969D01*
Y-4134D01*
X378D01*
Y-4740D01*
X1468D01*
Y-2657D01*
X2468D01*
Y-4740D01*
X3559D01*
Y-4134D01*
X5405D01*
X5905Y-4134D01*
Y-4134D01*
X5905D01*
Y-4134D01*
X8252D01*
Y-4740D01*
X9342D01*
Y-2657D01*
X10342D01*
Y-4740D01*
X11433D01*
Y-4134D01*
X13279D01*
X13779Y-4134D01*
Y-4134D01*
X13779D01*
Y-4134D01*
X16126D01*
Y-4740D01*
X17216D01*
Y-2657D01*
X18216D01*
Y-4740D01*
X19307D01*
Y-4134D01*
X21153D01*
X21653Y-4134D01*
Y-4134D01*
X21653D01*
Y-4134D01*
X24000D01*
Y-4740D01*
X25090D01*
Y-2657D01*
X26090D01*
Y-4740D01*
X27181D01*
Y-4134D01*
X29027D01*
X29527Y-4134D01*
Y-4134D01*
X29527D01*
Y-4134D01*
X31874D01*
Y-4740D01*
X32964D01*
Y-2657D01*
X33964D01*
Y-4740D01*
X35055D01*
Y-4134D01*
X36901D01*
X37401Y-4134D01*
Y-4134D01*
X37401D01*
Y-4134D01*
X39748D01*
Y-4740D01*
X40838D01*
Y-2657D01*
X41838D01*
Y-4740D01*
X42929D01*
Y-4134D01*
X44776D01*
X45275Y-4134D01*
Y-4134D01*
X45276D01*
Y-4134D01*
X47622D01*
Y-4740D01*
X48713D01*
Y-2657D01*
X49713D01*
Y-4740D01*
X50803D01*
Y-4134D01*
X52650D01*
X53150Y-4134D01*
Y-4134D01*
X53150D01*
Y-4134D01*
X55496D01*
Y-4740D01*
X56587D01*
Y-2657D01*
X57587D01*
Y-4740D01*
X58677D01*
Y-4134D01*
X63370D01*
Y-4740D01*
X64460D01*
Y-2657D01*
X65460D01*
Y-4740D01*
X66551D01*
Y-4134D01*
X68397D01*
X68897Y-4134D01*
Y-4134D01*
X68897D01*
Y-4134D01*
X71244D01*
Y-4740D01*
X72334D01*
Y-2657D01*
X73334D01*
Y-4740D01*
X74425D01*
Y-4134D01*
X76271D01*
X76771Y-4134D01*
Y-4134D01*
X76771D01*
Y-4134D01*
X79118D01*
Y-4740D01*
X80208D01*
Y-2657D01*
X81208D01*
Y-4740D01*
X82299D01*
Y-4134D01*
X84145D01*
X84645Y-4134D01*
Y-4134D01*
X84645D01*
Y-4134D01*
X86992D01*
Y-4740D01*
X88082D01*
Y-2657D01*
X89082D01*
Y-4740D01*
X90173D01*
Y-4134D01*
X92019D01*
X92519Y-4134D01*
Y-4134D01*
X92519D01*
Y-4134D01*
X94866D01*
Y-4740D01*
X95956D01*
Y-2657D01*
X96956D01*
Y-4740D01*
X98047D01*
Y-4134D01*
X99893D01*
X100393Y-4134D01*
Y-4134D01*
X100393D01*
Y-4134D01*
X102740D01*
Y-4740D01*
X103830D01*
Y-2657D01*
X104830D01*
Y-4740D01*
X105921D01*
Y-4134D01*
X107767D01*
X108267Y-4134D01*
Y-4134D01*
X108267D01*
Y-4134D01*
X110614D01*
Y-4740D01*
X111704D01*
Y-2657D01*
X112704D01*
Y-4740D01*
X113795D01*
Y-4134D01*
X115641D01*
X116141Y-4134D01*
Y-4134D01*
X116141D01*
Y-4134D01*
X118488D01*
Y-4740D01*
X119578D01*
Y-2657D01*
X120578D01*
Y-4740D01*
X121669D01*
Y-4134D01*
X123515D01*
X124015Y-4134D01*
Y-4134D01*
X124015D01*
Y-4134D01*
X126362D01*
Y-4740D01*
X127452D01*
Y-2657D01*
X128452D01*
Y-4740D01*
X129543D01*
Y-4134D01*
X131389D01*
X131889Y-4134D01*
Y-4134D01*
X131889D01*
Y-4134D01*
X134236D01*
Y-4740D01*
X135326D01*
Y-2657D01*
X136326D01*
Y-4740D01*
X137417D01*
Y-4134D01*
X139263D01*
X139763Y-4134D01*
Y-4134D01*
X139763D01*
Y-4134D01*
X142110D01*
Y-4740D01*
X143200D01*
Y-2657D01*
X144200D01*
Y-4740D01*
X145291D01*
Y-4134D01*
X147137D01*
X147637Y-4134D01*
Y-4134D01*
X147637D01*
Y-4134D01*
X149984D01*
Y-4740D01*
X151075D01*
Y-2657D01*
X152075D01*
Y-4740D01*
X153165D01*
Y-4134D01*
X155011D01*
X155511Y-4134D01*
Y-4134D01*
X155511D01*
Y-4134D01*
X157858D01*
Y-4740D01*
X158949D01*
Y-2657D01*
X159949D01*
Y-4740D01*
X161039D01*
Y-4134D01*
X162885D01*
X163385Y-4134D01*
Y-4134D01*
X163385D01*
Y-4134D01*
X165732D01*
Y-4740D01*
X166822D01*
Y-2657D01*
X167822D01*
Y-4740D01*
X168913D01*
Y-4134D01*
X170759D01*
X171259Y-4134D01*
Y-4134D01*
X171259D01*
Y-4134D01*
X173606D01*
Y-4740D01*
X174696D01*
Y-2657D01*
X175696D01*
Y-4740D01*
X176787D01*
Y-4134D01*
X178633D01*
X179133Y-4134D01*
Y-4134D01*
X179133D01*
Y-4134D01*
X181480D01*
Y-4740D01*
X182570D01*
Y-2657D01*
X183570D01*
Y-4740D01*
X184661D01*
Y-4134D01*
X186507D01*
X187007Y-4134D01*
Y-4134D01*
X187007D01*
Y-4134D01*
X189354D01*
Y-4740D01*
X190445D01*
Y-2657D01*
X191445D01*
Y-4740D01*
X192535D01*
Y-4134D01*
X194381D01*
X194881Y-4134D01*
Y-4134D01*
X194881D01*
Y-4134D01*
X197228D01*
Y-4740D01*
X198319D01*
Y-2657D01*
X199319D01*
Y-4740D01*
X200409D01*
Y-4134D01*
X202256D01*
X202755Y-4134D01*
Y-4134D01*
X202755D01*
Y-4134D01*
X205102D01*
Y-4740D01*
X206192D01*
Y-2657D01*
X207192D01*
Y-4740D01*
X208283D01*
Y-4134D01*
X210129D01*
X210630Y-4134D01*
Y-4134D01*
X210630D01*
Y-4134D01*
X212976D01*
Y-4740D01*
X214067D01*
Y-2657D01*
X215067D01*
Y-4740D01*
X216157D01*
Y-4134D01*
X218004D01*
X218503Y-4134D01*
Y-4134D01*
X218503D01*
Y-4134D01*
X220850D01*
Y-4740D01*
X221940D01*
Y-2657D01*
X222940D01*
Y-4740D01*
X224031D01*
Y-4134D01*
X225877D01*
X226378Y-4134D01*
Y-4134D01*
X226378D01*
Y-4134D01*
X228724D01*
Y-4740D01*
X229815D01*
Y-2657D01*
X230815D01*
Y-4740D01*
X231905D01*
Y-4134D01*
X233752D01*
X234251Y-4134D01*
Y-4134D01*
X234251D01*
Y-4134D01*
X236598D01*
Y-4740D01*
X237688D01*
Y-2657D01*
X238688D01*
Y-4740D01*
X239779D01*
Y-4134D01*
X241625D01*
X242126Y-4134D01*
Y-4134D01*
X242126D01*
Y-4134D01*
X244472D01*
Y-4740D01*
X245563D01*
Y-2657D01*
X246563D01*
Y-4740D01*
X247653D01*
Y-4134D01*
X249500D01*
X249999Y-4134D01*
Y-4134D01*
X250000D01*
Y-4134D01*
X252346D01*
Y-4740D01*
X253437D01*
Y-2657D01*
X254437D01*
Y-4740D01*
X255527D01*
Y-4134D01*
X257374D01*
X257874Y-4134D01*
Y-4134D01*
X257874D01*
Y-4134D01*
X260220D01*
Y-4740D01*
X261311D01*
Y-2657D01*
X262311D01*
Y-4740D01*
X263401D01*
Y-4134D01*
X265248D01*
X265747Y-4134D01*
Y-4134D01*
X265748D01*
Y-4134D01*
X268094D01*
Y-4740D01*
X269184D01*
Y-2657D01*
X270184D01*
Y-4740D01*
X271275D01*
Y-4134D01*
X273122D01*
X273622Y-4134D01*
Y-4134D01*
X273622D01*
Y-4134D01*
X275968D01*
Y-4740D01*
X277059D01*
Y-2657D01*
X278059D01*
Y-4740D01*
X279149D01*
Y-4134D01*
X280996D01*
X281496Y-4134D01*
Y-4134D01*
X281496D01*
Y-4134D01*
X283842D01*
Y-4740D01*
X284933D01*
Y-2657D01*
X285933D01*
Y-4740D01*
X287023D01*
Y-4134D01*
X288870D01*
X289370Y-4134D01*
Y-4134D01*
X289370D01*
Y-4134D01*
X291716D01*
Y-4740D01*
X292807D01*
Y-2657D01*
X293807D01*
Y-4740D01*
X294897D01*
Y-4134D01*
X296744D01*
X297244Y-4134D01*
Y-4134D01*
X297244D01*
Y-4134D01*
X299590D01*
Y-4740D01*
X300681D01*
Y-2657D01*
X301681D01*
Y-4740D01*
X302771D01*
Y-4134D01*
X304618D01*
X305118Y-4134D01*
Y-4134D01*
X305118D01*
Y-4134D01*
X307464D01*
Y-4740D01*
X308555D01*
Y-2657D01*
X309555D01*
Y-4740D01*
X310645D01*
Y-4134D01*
X312492D01*
X312992Y-4134D01*
Y-4134D01*
X312992D01*
Y-4134D01*
X315339D01*
Y-4740D01*
X316429D01*
Y-2657D01*
X317429D01*
Y-4740D01*
X318520D01*
Y-4134D01*
X320366D01*
X320866Y-4134D01*
Y-4134D01*
X320866D01*
Y-4134D01*
X323213D01*
Y-4740D01*
X324303D01*
Y-2657D01*
X325303D01*
Y-4740D01*
X326394D01*
Y-4134D01*
X328240D01*
X328740Y-4134D01*
Y-4134D01*
X328740D01*
Y-4134D01*
X331087D01*
Y-4740D01*
X332177D01*
Y-2657D01*
X333177D01*
Y-4740D01*
X334268D01*
Y-4134D01*
X336114D01*
X336614Y-4134D01*
Y-4134D01*
X336614D01*
Y-4134D01*
X338961D01*
Y-4740D01*
X340051D01*
Y-2657D01*
X341051D01*
Y-4740D01*
X342142D01*
Y-4134D01*
X343988D01*
X344488Y-4134D01*
Y-4134D01*
X344488D01*
Y-4134D01*
X346835D01*
Y-4740D01*
X347925D01*
Y-2657D01*
X348925D01*
Y-4740D01*
X350016D01*
Y-4134D01*
X351862D01*
X352362Y-4134D01*
Y-4134D01*
X352362D01*
Y-4134D01*
X354709D01*
Y-4740D01*
X355799D01*
Y-2657D01*
X356799D01*
Y-4740D01*
D02*
G37*
D10*
X-148425Y-35433D02*
X-141886Y-41973D01*
X-148622Y-35236D02*
X-148425Y-35433D01*
X-136221Y-38583D02*
X222598D01*
X-158661Y-27165D02*
X-147638D01*
X-136221Y-38583D01*
X-158539Y-31224D02*
X-147909D01*
X-138976Y-40157D01*
X231024D01*
X-141886Y-41973D02*
X259209D01*
X-158661Y-35039D02*
X-158465Y-35236D01*
X-148622D01*
X201476Y2657D02*
X204035D01*
X201476Y-2657D02*
X204035D01*
X193602Y2657D02*
X196161D01*
X193602Y-2657D02*
X196161D01*
X-302362Y23228D02*
X-296063Y16929D01*
X-266142D01*
X-257480Y-18504D02*
Y-11417D01*
X-253543Y-7480D01*
X222598Y-38583D02*
X237402Y-23779D01*
X231024Y-40157D02*
X247559Y-23622D01*
X259209Y-41973D02*
X277559Y-23622D01*
X237402Y-23779D02*
Y-23622D01*
X-158661Y-31102D02*
X-158539Y-31224D01*
X-378642Y5610D02*
X-361024Y23228D01*
X-378642Y2657D02*
Y5610D01*
X-361024Y23228D02*
X-302362D01*
X-286221Y27559D02*
X-240554D01*
X-293701Y22835D02*
X-290945D01*
X-286221Y27559D01*
X-296850Y25984D02*
X-293701Y22835D01*
X-261725Y29220D02*
X-259055Y31890D01*
X-290137Y29220D02*
X-261725D01*
X-293143Y26214D02*
X-290137Y29220D01*
X-287402Y-22835D02*
X-275590Y-11024D01*
X-378642Y-5240D02*
X-361047Y-22835D01*
X-287402D01*
X-46457Y14567D02*
X40157D01*
X48819Y23228D01*
X-54724Y22835D02*
X-46457Y14567D01*
X-53543Y25197D02*
X-44488Y16142D01*
X38583D02*
X51575Y29134D01*
X-44488Y16142D02*
X38583D01*
X-243701Y24803D02*
X-241732Y22835D01*
X-54724D01*
X51575Y29134D02*
X211417D01*
X199213Y23228D02*
X201969Y25984D01*
X48819Y23228D02*
X199213D01*
X201969Y25984D02*
X296457D01*
X301575Y20866D01*
X330945D01*
X333701Y23622D01*
X-360630Y7087D02*
X-353937D01*
X-368110D02*
X-360630D01*
X-360236Y2165D02*
Y6693D01*
X-360630Y7087D02*
X-360236Y6693D01*
X-373228Y7087D02*
X-368110D01*
Y2165D02*
Y7087D01*
X-375924Y2226D02*
Y4391D01*
X-373228Y7087D01*
X-375984Y2165D02*
X-375924Y2226D01*
X-368110Y-7480D02*
X-360236D01*
X-373228D02*
X-368110D01*
Y-2657D01*
X-360236Y-7480D02*
X-352756D01*
X-360236D02*
Y-2657D01*
X-352756Y-7480D02*
X-352362Y-7087D01*
X-375984Y-2657D02*
X-375894Y-2748D01*
Y-4815D02*
Y-2748D01*
Y-4815D02*
X-373228Y-7480D01*
X358957Y-2657D02*
X361516D01*
X366831D02*
X369390D01*
X366831Y2657D02*
X369390D01*
X358957D02*
X361516D01*
X-267532Y24803D02*
X-250394D01*
X-255862Y41973D02*
X325350D01*
X297165Y40157D02*
X313701Y23622D01*
X325350Y41973D02*
X343701Y23622D01*
X-149440Y38189D02*
X289134D01*
X-250394Y24803D02*
X-243701D01*
X-151969Y40157D02*
X297165D01*
X289134Y38189D02*
X303701Y23622D01*
X-253543Y-7480D02*
X-235039D01*
X-378642Y-5240D02*
Y-2657D01*
X106988D02*
X109547D01*
X99114D02*
X101673D01*
X106988Y2657D02*
X109547D01*
X99114D02*
X101673D01*
X-310236Y-2756D02*
Y-2657D01*
X-307776D01*
X-310236Y2657D02*
Y2756D01*
Y2657D02*
X-307776D01*
X-331496Y-2657D02*
Y-2362D01*
X-333957Y-2657D02*
X-331496D01*
Y2657D02*
Y2756D01*
X-333957Y2657D02*
X-331496D01*
X-284252Y25197D02*
X-267925D01*
X-267532Y24803D01*
X-343583Y33465D02*
X-343287Y33169D01*
X-265256D01*
X-373228Y-2756D02*
X-373130Y-2657D01*
X-370768D01*
X-373228Y2756D02*
X-373130Y2657D01*
X-370768D01*
X-365453Y-2657D02*
X-362894D01*
X-365650D02*
X-365453D01*
X-365748Y-2756D02*
X-365650Y-2657D01*
X-365354Y2370D02*
X-365067Y2657D01*
X-365354Y2362D02*
Y2370D01*
X-365067Y2657D02*
X-362894D01*
X248720Y-2657D02*
X251279D01*
X232972D02*
X235531D01*
X-74114Y2657D02*
X-71555D01*
X-58366D02*
X-55807D01*
X248720D02*
X251279D01*
X-11122D02*
X-8563D01*
X327461Y-2657D02*
X330020D01*
X-294587D02*
X-292028D01*
X288090D02*
X290649D01*
X59744Y2657D02*
X62303D01*
X-160729Y-2657D02*
X-158169D01*
X-97736Y2657D02*
X-95177D01*
X-26870D02*
X-24311D01*
X-160729D02*
X-158169D01*
X-137107Y-2657D02*
X-134547D01*
X-247343D02*
X-244784D01*
X43996D02*
X46555D01*
X343209Y2657D02*
X345768D01*
X319587D02*
X322146D01*
X295964D02*
X298523D01*
X288090D02*
X290649D01*
X130610Y-2657D02*
X133169D01*
X232972Y2657D02*
X235531D01*
X-152855Y-2657D02*
X-150295D01*
X-42618D02*
X-40059D01*
X12500Y2657D02*
X15059D01*
X280216Y-2657D02*
X282775D01*
X-66240Y2657D02*
X-63681D01*
X146358D02*
X148917D01*
X264468Y-2657D02*
X267027D01*
X-223721D02*
X-221162D01*
X-286713Y2657D02*
X-284154D01*
X225098Y-2657D02*
X227657D01*
X-207973D02*
X-205414D01*
X138484D02*
X141043D01*
X59744D02*
X62303D01*
X91240Y2657D02*
X93799D01*
X-318209Y-2657D02*
X-315650D01*
X-357579Y2657D02*
X-355020D01*
X154232D02*
X156791D01*
X-215847D02*
X-213287D01*
X-255217D02*
X-252658D01*
X-286713Y-2657D02*
X-284154D01*
X-129233Y2657D02*
X-126673D01*
X51870Y-2657D02*
X54429D01*
X303838D02*
X306397D01*
X-176477Y2657D02*
X-173917D01*
X154232Y-2657D02*
X156791D01*
X75492D02*
X78051D01*
X256594Y2657D02*
X259153D01*
X-341831D02*
X-339272D01*
X177854D02*
X180413D01*
X311712D02*
X314272D01*
X272342Y-2657D02*
X274901D01*
X-66240D02*
X-63681D01*
X162106D02*
X164665D01*
X343209D02*
X345768D01*
X-357579D02*
X-355020D01*
X36122D02*
X38681D01*
X91240D02*
X93799D01*
X-239469D02*
X-236910D01*
X4626Y2657D02*
X7185D01*
X-34744Y-2657D02*
X-32185D01*
X-263091Y2657D02*
X-260532D01*
X-270965D02*
X-268406D01*
X-137107D02*
X-134547D01*
X-121358Y-2657D02*
X-118799D01*
X-239469Y2657D02*
X-236910D01*
X-81988Y-2657D02*
X-79429D01*
X28248D02*
X30807D01*
X114862D02*
X117421D01*
X75492Y2657D02*
X78051D01*
X264468D02*
X267027D01*
X185728Y-2657D02*
X188287D01*
X83366Y2657D02*
X85925D01*
X130610D02*
X133169D01*
X-89862Y-2657D02*
X-87303D01*
X-184351Y2657D02*
X-181791D01*
X4626Y-2657D02*
X7185D01*
X209350Y2657D02*
X211909D01*
X-50492Y-2657D02*
X-47933D01*
X-223721Y2657D02*
X-221162D01*
X217224Y-2657D02*
X219783D01*
X-129233D02*
X-126673D01*
X-326083Y2657D02*
X-323524D01*
X-105610Y-2657D02*
X-103051D01*
X-302461D02*
X-299902D01*
X-121358Y2657D02*
X-118799D01*
X169980Y-2657D02*
X172539D01*
X36122Y2657D02*
X38681D01*
X138484D02*
X141043D01*
X-302461D02*
X-299902D01*
X-207973D02*
X-205414D01*
X-255217Y-2657D02*
X-252658D01*
X-18996D02*
X-16437D01*
X-278839Y2657D02*
X-276280D01*
X-58366Y-2657D02*
X-55807D01*
X272342Y2657D02*
X274901D01*
X-349705D02*
X-347146D01*
X-278839Y-2657D02*
X-276280D01*
X-341831D02*
X-339272D01*
X335335D02*
X337894D01*
X311712D02*
X314272D01*
X209350D02*
X211909D01*
X43996Y2657D02*
X46555D01*
X67618D02*
X70177D01*
X-34744D02*
X-32185D01*
X122736Y-2657D02*
X125295D01*
X-192225Y2657D02*
X-189665D01*
X169980D02*
X172539D01*
X162106D02*
X164665D01*
X-247343D02*
X-244784D01*
X-176477Y-2657D02*
X-173917D01*
X-168603D02*
X-166043D01*
X-200099Y2657D02*
X-197539D01*
X-26870Y-2657D02*
X-24311D01*
X185728Y2657D02*
X188287D01*
X-152855D02*
X-150295D01*
X-113484D02*
X-110925D01*
X-105610D02*
X-103051D01*
X-318209D02*
X-315650D01*
X-74114Y-2657D02*
X-71555D01*
X-192225D02*
X-189665D01*
X-184351D02*
X-181791D01*
X-11122D02*
X-8563D01*
X20374Y2657D02*
X22933D01*
X-144981D02*
X-142421D01*
X20374Y-2657D02*
X22933D01*
X-270965D02*
X-268406D01*
X240846D02*
X243405D01*
X-3248D02*
X-689D01*
X51870Y2657D02*
X54429D01*
X114862D02*
X117421D01*
X-168603D02*
X-166043D01*
X240846D02*
X243405D01*
X351083D02*
X353642D01*
X28248D02*
X30807D01*
X335335D02*
X337894D01*
X122736D02*
X125295D01*
X225098D02*
X227657D01*
X-349705Y-2657D02*
X-347146D01*
X280216Y2657D02*
X282775D01*
X217224D02*
X219783D01*
X177854Y-2657D02*
X180413D01*
X67618D02*
X70177D01*
X-113484D02*
X-110925D01*
X295964D02*
X298523D01*
X-81988Y2657D02*
X-79429D01*
X-144981Y-2657D02*
X-142421D01*
X83366D02*
X85925D01*
X-97736D02*
X-95177D01*
X-231595Y2657D02*
X-229035D01*
X-200099Y-2657D02*
X-197539D01*
X-3248Y2657D02*
X-689D01*
X351083Y-2657D02*
X353642D01*
X-42618Y2657D02*
X-40059D01*
X-263091Y-2657D02*
X-260532D01*
X-326083D02*
X-323524D01*
X-50492Y2657D02*
X-47933D01*
X-231595Y-2657D02*
X-229035D01*
X-215847D02*
X-213287D01*
X-89862Y2657D02*
X-87303D01*
X-294587D02*
X-292028D01*
X319587Y-2657D02*
X322146D01*
X146358D02*
X148917D01*
X327461Y2657D02*
X330020D01*
X12500Y-2657D02*
X15059D01*
X256594D02*
X259153D01*
X303838Y2657D02*
X306397D01*
X-18996D02*
X-16437D01*
X-290158Y19291D02*
X-284252Y25197D01*
X-226378D02*
X-53543D01*
X-239766Y28346D02*
X-159282D01*
X-259055Y31890D02*
X-160236D01*
X-264961Y32874D02*
X-255862Y41973D01*
X-240554Y27559D02*
X-239766Y28346D01*
X-294882Y19291D02*
X-290158D01*
X-159282Y28346D02*
X-149440Y38189D01*
X-160236Y31890D02*
X-151969Y40157D01*
X-265256Y33169D02*
X-264961Y32874D01*
X-383858Y44488D02*
X383858D01*
X-383858Y-44488D02*
Y44488D01*
Y-44488D02*
X383858D01*
Y44488D01*
D15*
X198819Y-2657D02*
D03*
X364173D02*
D03*
X104330D02*
D03*
X372047D02*
D03*
X356299D02*
D03*
X348425D02*
D03*
X340551D02*
D03*
X332677D02*
D03*
X324803D02*
D03*
X316929D02*
D03*
X309055D02*
D03*
X301181D02*
D03*
X293307D02*
D03*
X285433D02*
D03*
X277559D02*
D03*
X269685D02*
D03*
X261811D02*
D03*
X253937D02*
D03*
X246062D02*
D03*
X238189D02*
D03*
X230314D02*
D03*
X222441D02*
D03*
X214566D02*
D03*
X206693D02*
D03*
X190945D02*
D03*
X183071D02*
D03*
X175197D02*
D03*
X167322D02*
D03*
X159448D02*
D03*
X151574D02*
D03*
X143700D02*
D03*
X135826D02*
D03*
X127952D02*
D03*
X120078D02*
D03*
X112204D02*
D03*
X96456D02*
D03*
X88582D02*
D03*
X80708D02*
D03*
X72834D02*
D03*
X64960D02*
D03*
X57087D02*
D03*
X49213D02*
D03*
X41338D02*
D03*
X33464D02*
D03*
X25590D02*
D03*
X17716D02*
D03*
X9842D02*
D03*
X1968D02*
D03*
X-5906D02*
D03*
X-13780D02*
D03*
X-21654D02*
D03*
X-29528D02*
D03*
X-37402D02*
D03*
X-45276D02*
D03*
X-53150D02*
D03*
X-61024D02*
D03*
X-68898D02*
D03*
X-76772D02*
D03*
X-84646D02*
D03*
X-92520D02*
D03*
X-100394D02*
D03*
X-108268D02*
D03*
X-116142D02*
D03*
X-124016D02*
D03*
X-131890D02*
D03*
X-139764D02*
D03*
X-147638D02*
D03*
X-155512D02*
D03*
X-163386D02*
D03*
X-171260D02*
D03*
X-179134D02*
D03*
X-187008D02*
D03*
X-194882D02*
D03*
X-202756D02*
D03*
X-210630D02*
D03*
X-218504D02*
D03*
X-226378D02*
D03*
X-234252D02*
D03*
X-242126D02*
D03*
X-250000D02*
D03*
X-257874D02*
D03*
X-265748D02*
D03*
X-273622D02*
D03*
X-281496D02*
D03*
X-289370D02*
D03*
X-297244D02*
D03*
X-305118D02*
D03*
X-312992D02*
D03*
X-320866D02*
D03*
X-328740D02*
D03*
X-336614D02*
D03*
X-344488D02*
D03*
X-352362D02*
D03*
X-360236D02*
D03*
X-368110D02*
D03*
X-375984D02*
D03*
D16*
X198819Y2165D02*
D03*
X364173D02*
D03*
X104330D02*
D03*
X372047D02*
D03*
X356299D02*
D03*
X348425D02*
D03*
X340551D02*
D03*
X332677D02*
D03*
X324803D02*
D03*
X316929D02*
D03*
X309055D02*
D03*
X301181D02*
D03*
X293307D02*
D03*
X285433D02*
D03*
X277559D02*
D03*
X269685D02*
D03*
X261811D02*
D03*
X253937D02*
D03*
X246062D02*
D03*
X238189D02*
D03*
X230314D02*
D03*
X222441D02*
D03*
X214566D02*
D03*
X206693D02*
D03*
X190945D02*
D03*
X183071D02*
D03*
X175197D02*
D03*
X167322D02*
D03*
X159448D02*
D03*
X151574D02*
D03*
X143700D02*
D03*
X135826D02*
D03*
X127952D02*
D03*
X120078D02*
D03*
X112204D02*
D03*
X96456D02*
D03*
X88582D02*
D03*
X80708D02*
D03*
X72834D02*
D03*
X64960D02*
D03*
X57087D02*
D03*
X49213D02*
D03*
X41338D02*
D03*
X33464D02*
D03*
X25590D02*
D03*
X17716D02*
D03*
X9842D02*
D03*
X1968D02*
D03*
X-5906D02*
D03*
X-13780D02*
D03*
X-21654D02*
D03*
X-29528D02*
D03*
X-37402D02*
D03*
X-45276D02*
D03*
X-53150D02*
D03*
X-61024D02*
D03*
X-68898D02*
D03*
X-76772D02*
D03*
X-84646D02*
D03*
X-92520D02*
D03*
X-100394D02*
D03*
X-108268D02*
D03*
X-116142D02*
D03*
X-124016D02*
D03*
X-131890D02*
D03*
X-139764D02*
D03*
X-147638D02*
D03*
X-155512D02*
D03*
X-163386D02*
D03*
X-171260D02*
D03*
X-179134D02*
D03*
X-187008D02*
D03*
X-194882D02*
D03*
X-202756D02*
D03*
X-210630D02*
D03*
X-218504D02*
D03*
X-226378D02*
D03*
X-234252D02*
D03*
X-242126D02*
D03*
X-250000D02*
D03*
X-257874D02*
D03*
X-265748D02*
D03*
X-273622D02*
D03*
X-281496D02*
D03*
X-289370D02*
D03*
X-297244D02*
D03*
X-305118D02*
D03*
X-312992D02*
D03*
X-320866D02*
D03*
X-328740D02*
D03*
X-336614D02*
D03*
X-344488D02*
D03*
X-352362D02*
D03*
X-360236D02*
D03*
X-368110D02*
D03*
X-375984D02*
D03*
D17*
X196161Y-2657D02*
D03*
Y2657D02*
D03*
X201476D02*
D03*
Y-2657D02*
D03*
X361516D02*
D03*
Y2657D02*
D03*
X366831D02*
D03*
Y-2657D02*
D03*
X106988D02*
D03*
Y2657D02*
D03*
X101673D02*
D03*
Y-2657D02*
D03*
X374705D02*
D03*
Y2657D02*
D03*
X369390D02*
D03*
Y-2657D02*
D03*
X358957D02*
D03*
Y2657D02*
D03*
X353642D02*
D03*
Y-2657D02*
D03*
X351083D02*
D03*
Y2657D02*
D03*
X345768D02*
D03*
Y-2657D02*
D03*
X343209D02*
D03*
Y2657D02*
D03*
X337894D02*
D03*
Y-2657D02*
D03*
X335335D02*
D03*
Y2657D02*
D03*
X330020D02*
D03*
Y-2657D02*
D03*
X327461D02*
D03*
Y2657D02*
D03*
X322146D02*
D03*
Y-2657D02*
D03*
X319587D02*
D03*
Y2657D02*
D03*
X314272D02*
D03*
Y-2657D02*
D03*
X311712D02*
D03*
Y2657D02*
D03*
X306397D02*
D03*
Y-2657D02*
D03*
X303838D02*
D03*
Y2657D02*
D03*
X298523D02*
D03*
Y-2657D02*
D03*
X295964D02*
D03*
Y2657D02*
D03*
X290649D02*
D03*
Y-2657D02*
D03*
X288090D02*
D03*
Y2657D02*
D03*
X282775D02*
D03*
Y-2657D02*
D03*
X280216D02*
D03*
Y2657D02*
D03*
X274901D02*
D03*
Y-2657D02*
D03*
X272342D02*
D03*
Y2657D02*
D03*
X267027D02*
D03*
Y-2657D02*
D03*
X264468D02*
D03*
Y2657D02*
D03*
X259153D02*
D03*
Y-2657D02*
D03*
X256594D02*
D03*
Y2657D02*
D03*
X251279D02*
D03*
Y-2657D02*
D03*
X248720D02*
D03*
Y2657D02*
D03*
X243405D02*
D03*
Y-2657D02*
D03*
X240846D02*
D03*
Y2657D02*
D03*
X235531D02*
D03*
Y-2657D02*
D03*
X232972D02*
D03*
Y2657D02*
D03*
X227657D02*
D03*
Y-2657D02*
D03*
X225098D02*
D03*
Y2657D02*
D03*
X219783D02*
D03*
Y-2657D02*
D03*
X217224D02*
D03*
Y2657D02*
D03*
X211909D02*
D03*
Y-2657D02*
D03*
X209350D02*
D03*
Y2657D02*
D03*
X204035D02*
D03*
Y-2657D02*
D03*
X193602D02*
D03*
Y2657D02*
D03*
X188287D02*
D03*
Y-2657D02*
D03*
X185728D02*
D03*
Y2657D02*
D03*
X180413D02*
D03*
Y-2657D02*
D03*
X177854D02*
D03*
Y2657D02*
D03*
X172539D02*
D03*
Y-2657D02*
D03*
X169980D02*
D03*
Y2657D02*
D03*
X164665D02*
D03*
Y-2657D02*
D03*
X162106D02*
D03*
Y2657D02*
D03*
X156791D02*
D03*
Y-2657D02*
D03*
X154232D02*
D03*
Y2657D02*
D03*
X148917D02*
D03*
Y-2657D02*
D03*
X146358D02*
D03*
Y2657D02*
D03*
X141043D02*
D03*
Y-2657D02*
D03*
X138484D02*
D03*
Y2657D02*
D03*
X133169D02*
D03*
Y-2657D02*
D03*
X130610D02*
D03*
Y2657D02*
D03*
X125295D02*
D03*
Y-2657D02*
D03*
X122736D02*
D03*
Y2657D02*
D03*
X117421D02*
D03*
Y-2657D02*
D03*
X114862D02*
D03*
Y2657D02*
D03*
X109547D02*
D03*
Y-2657D02*
D03*
X99114D02*
D03*
Y2657D02*
D03*
X93799D02*
D03*
Y-2657D02*
D03*
X91240D02*
D03*
Y2657D02*
D03*
X85925D02*
D03*
Y-2657D02*
D03*
X83366D02*
D03*
Y2657D02*
D03*
X78051D02*
D03*
Y-2657D02*
D03*
X75492D02*
D03*
Y2657D02*
D03*
X70177D02*
D03*
Y-2657D02*
D03*
X67618D02*
D03*
Y2657D02*
D03*
X62303D02*
D03*
Y-2657D02*
D03*
X59744D02*
D03*
Y2657D02*
D03*
X54429D02*
D03*
Y-2657D02*
D03*
X51870D02*
D03*
Y2657D02*
D03*
X46555D02*
D03*
Y-2657D02*
D03*
X43996D02*
D03*
Y2657D02*
D03*
X38681D02*
D03*
Y-2657D02*
D03*
X36122D02*
D03*
Y2657D02*
D03*
X30807D02*
D03*
Y-2657D02*
D03*
X28248D02*
D03*
Y2657D02*
D03*
X22933D02*
D03*
Y-2657D02*
D03*
X20374D02*
D03*
Y2657D02*
D03*
X15059D02*
D03*
Y-2657D02*
D03*
X12500D02*
D03*
Y2657D02*
D03*
X7185D02*
D03*
Y-2657D02*
D03*
X4626D02*
D03*
Y2657D02*
D03*
X-689D02*
D03*
Y-2657D02*
D03*
X-3248D02*
D03*
Y2657D02*
D03*
X-8563D02*
D03*
Y-2657D02*
D03*
X-11122D02*
D03*
Y2657D02*
D03*
X-16437D02*
D03*
Y-2657D02*
D03*
X-18996D02*
D03*
Y2657D02*
D03*
X-24311D02*
D03*
Y-2657D02*
D03*
X-26870D02*
D03*
Y2657D02*
D03*
X-32185D02*
D03*
Y-2657D02*
D03*
X-34744D02*
D03*
Y2657D02*
D03*
X-40059D02*
D03*
Y-2657D02*
D03*
X-42618D02*
D03*
Y2657D02*
D03*
X-47933D02*
D03*
Y-2657D02*
D03*
X-50492D02*
D03*
Y2657D02*
D03*
X-55807D02*
D03*
Y-2657D02*
D03*
X-58366D02*
D03*
Y2657D02*
D03*
X-63681D02*
D03*
Y-2657D02*
D03*
X-66240D02*
D03*
Y2657D02*
D03*
X-71555D02*
D03*
Y-2657D02*
D03*
X-74114D02*
D03*
Y2657D02*
D03*
X-79429D02*
D03*
Y-2657D02*
D03*
X-81988D02*
D03*
Y2657D02*
D03*
X-87303D02*
D03*
Y-2657D02*
D03*
X-89862D02*
D03*
Y2657D02*
D03*
X-95177D02*
D03*
Y-2657D02*
D03*
X-97736D02*
D03*
Y2657D02*
D03*
X-103051D02*
D03*
Y-2657D02*
D03*
X-105610D02*
D03*
Y2657D02*
D03*
X-110925D02*
D03*
Y-2657D02*
D03*
X-113484D02*
D03*
Y2657D02*
D03*
X-118799D02*
D03*
Y-2657D02*
D03*
X-121358D02*
D03*
Y2657D02*
D03*
X-126673D02*
D03*
Y-2657D02*
D03*
X-129233D02*
D03*
Y2657D02*
D03*
X-134547D02*
D03*
Y-2657D02*
D03*
X-137107D02*
D03*
Y2657D02*
D03*
X-142421D02*
D03*
Y-2657D02*
D03*
X-144981D02*
D03*
Y2657D02*
D03*
X-150295D02*
D03*
Y-2657D02*
D03*
X-152855D02*
D03*
Y2657D02*
D03*
X-158169D02*
D03*
Y-2657D02*
D03*
X-160729D02*
D03*
Y2657D02*
D03*
X-166043D02*
D03*
Y-2657D02*
D03*
X-168603D02*
D03*
Y2657D02*
D03*
X-173917D02*
D03*
Y-2657D02*
D03*
X-176477D02*
D03*
Y2657D02*
D03*
X-181791D02*
D03*
Y-2657D02*
D03*
X-184351D02*
D03*
Y2657D02*
D03*
X-189665D02*
D03*
Y-2657D02*
D03*
X-192225D02*
D03*
Y2657D02*
D03*
X-197539D02*
D03*
Y-2657D02*
D03*
X-200099D02*
D03*
Y2657D02*
D03*
X-205414D02*
D03*
Y-2657D02*
D03*
X-207973D02*
D03*
Y2657D02*
D03*
X-213287D02*
D03*
Y-2657D02*
D03*
X-215847D02*
D03*
Y2657D02*
D03*
X-221162D02*
D03*
Y-2657D02*
D03*
X-223721D02*
D03*
Y2657D02*
D03*
X-229035D02*
D03*
Y-2657D02*
D03*
X-231595D02*
D03*
Y2657D02*
D03*
X-236910D02*
D03*
Y-2657D02*
D03*
X-239469D02*
D03*
Y2657D02*
D03*
X-244784D02*
D03*
Y-2657D02*
D03*
X-247343D02*
D03*
Y2657D02*
D03*
X-252658D02*
D03*
Y-2657D02*
D03*
X-255217D02*
D03*
Y2657D02*
D03*
X-260532D02*
D03*
Y-2657D02*
D03*
X-263091D02*
D03*
Y2657D02*
D03*
X-268406D02*
D03*
Y-2657D02*
D03*
X-270965D02*
D03*
Y2657D02*
D03*
X-276280D02*
D03*
Y-2657D02*
D03*
X-278839D02*
D03*
Y2657D02*
D03*
X-284154D02*
D03*
Y-2657D02*
D03*
X-286713D02*
D03*
Y2657D02*
D03*
X-292028D02*
D03*
Y-2657D02*
D03*
X-294587D02*
D03*
Y2657D02*
D03*
X-299902D02*
D03*
Y-2657D02*
D03*
X-302461D02*
D03*
Y2657D02*
D03*
X-307776D02*
D03*
Y-2657D02*
D03*
X-310335D02*
D03*
Y2657D02*
D03*
X-315650D02*
D03*
Y-2657D02*
D03*
X-318209D02*
D03*
Y2657D02*
D03*
X-323524D02*
D03*
Y-2657D02*
D03*
X-326083D02*
D03*
Y2657D02*
D03*
X-331398D02*
D03*
Y-2657D02*
D03*
X-333957D02*
D03*
Y2657D02*
D03*
X-339272D02*
D03*
Y-2657D02*
D03*
X-341831D02*
D03*
Y2657D02*
D03*
X-347146D02*
D03*
Y-2657D02*
D03*
X-349705D02*
D03*
Y2657D02*
D03*
X-355020D02*
D03*
Y-2657D02*
D03*
X-357579D02*
D03*
Y2657D02*
D03*
X-362894D02*
D03*
Y-2657D02*
D03*
X-365453D02*
D03*
Y2657D02*
D03*
X-370768D02*
D03*
Y-2657D02*
D03*
X-373327D02*
D03*
Y2657D02*
D03*
X-378642D02*
D03*
Y-2657D02*
D03*
D18*
X-253150Y20866D02*
X-244882D01*
X-257480D02*
X-253150D01*
X-240945Y6693D02*
X-240551Y7087D01*
Y16535D01*
X-244882Y20866D02*
X-240551Y16535D01*
D19*
X-148425Y-35433D02*
D03*
X-164567Y18898D02*
D03*
X-261811Y6299D02*
D03*
Y-6299D02*
D03*
X-182677Y13091D02*
D03*
X-188976D02*
D03*
X-266142Y16929D02*
D03*
X-257480Y-18504D02*
D03*
X-163386Y8268D02*
D03*
X-158661Y-35039D02*
D03*
X237559Y-23622D02*
D03*
X-158661Y-31102D02*
D03*
Y-27165D02*
D03*
X-138583Y8268D02*
D03*
X-143701D02*
D03*
X-153937D02*
D03*
X-148819D02*
D03*
X-131496Y-11024D02*
D03*
X-126378D02*
D03*
Y-7087D02*
D03*
X-131496D02*
D03*
X-276772Y13386D02*
D03*
X-296850Y25984D02*
D03*
X-293143Y26214D02*
D03*
X-120472Y-7087D02*
D03*
Y7087D02*
D03*
X354331Y7480D02*
D03*
X217717D02*
D03*
Y-7087D02*
D03*
X211417Y29134D02*
D03*
X213779Y-14173D02*
D03*
X208661Y13780D02*
D03*
Y21654D02*
D03*
X204724Y13780D02*
D03*
Y21654D02*
D03*
X201181Y-6693D02*
D03*
X196457D02*
D03*
X201181Y-9843D02*
D03*
X196457D02*
D03*
X191339D02*
D03*
X189961Y14961D02*
D03*
X125197Y11417D02*
D03*
X121260D02*
D03*
X125197Y7087D02*
D03*
X121260D02*
D03*
X155512Y10236D02*
D03*
X150394D02*
D03*
X167717Y7087D02*
D03*
X175591D02*
D03*
X171653D02*
D03*
X354331Y-7087D02*
D03*
X275590Y7087D02*
D03*
X314961D02*
D03*
Y-7087D02*
D03*
X343701Y23622D02*
D03*
X333701D02*
D03*
X313701D02*
D03*
X303701D02*
D03*
X277559Y-23622D02*
D03*
X257559D02*
D03*
X247559D02*
D03*
X-275590Y-11024D02*
D03*
X99606Y-7087D02*
D03*
X-250394Y24803D02*
D03*
X-343583Y33465D02*
D03*
X-226378Y25197D02*
D03*
X275590Y-7087D02*
D03*
X-104724D02*
D03*
X-294882Y19291D02*
D03*
X-257480Y20866D02*
D03*
X-253150D02*
D03*
X-264961Y32874D02*
D03*
X-316929Y7087D02*
D03*
X-324016D02*
D03*
X-331102D02*
D03*
X-57874D02*
D03*
X20866Y-7087D02*
D03*
X-18504D02*
D03*
X-57874D02*
D03*
X-18504Y7087D02*
D03*
X20866D02*
D03*
X60236Y-7087D02*
D03*
Y7087D02*
D03*
X99606D02*
D03*
M02*
