%TF.GenerationSoftware,Altium Limited,Altium Designer,24.6.1 (21)*%
G04 Layer_Color=8388736*
%FSLAX26Y26*%
%MOIN*%
%TF.SameCoordinates,E3325630-42F2-41CE-953C-F4D0AC061200*%
%TF.FilePolarity,Negative*%
%TF.FileFunction,Soldermask,Top*%
%TF.Part,Single*%
G01*
G75*
%TA.AperFunction,SMDPad,CuDef*%
%ADD76R,0.070992X0.161543*%
%ADD77R,0.037528X0.031622*%
%ADD78R,0.039496X0.039496*%
%ADD79R,0.031622X0.033197*%
%ADD80R,0.126110X0.126110*%
%ADD81R,0.033197X0.031622*%
%ADD82R,0.031622X0.037528*%
G04:AMPARAMS|DCode=83|XSize=33.197mil|YSize=31.622mil|CornerRadius=0mil|HoleSize=0mil|Usage=FLASHONLY|Rotation=225.000|XOffset=0mil|YOffset=0mil|HoleType=Round|Shape=Rectangle|*
%AMROTATEDRECTD83*
4,1,4,0.000557,0.022917,0.022917,0.000557,-0.000557,-0.022917,-0.022917,-0.000557,0.000557,0.022917,0.0*
%
%ADD83ROTATEDRECTD83*%

G04:AMPARAMS|DCode=84|XSize=57.213mil|YSize=126.11mil|CornerRadius=16.303mil|HoleSize=0mil|Usage=FLASHONLY|Rotation=0.000|XOffset=0mil|YOffset=0mil|HoleType=Round|Shape=RoundedRectangle|*
%AMROUNDEDRECTD84*
21,1,0.057213,0.093504,0,0,0.0*
21,1,0.024606,0.126110,0,0,0.0*
1,1,0.032606,0.012303,-0.046752*
1,1,0.032606,-0.012303,-0.046752*
1,1,0.032606,-0.012303,0.046752*
1,1,0.032606,0.012303,0.046752*
%
%ADD84ROUNDEDRECTD84*%
G04:AMPARAMS|DCode=85|XSize=33.197mil|YSize=31.622mil|CornerRadius=0mil|HoleSize=0mil|Usage=FLASHONLY|Rotation=135.000|XOffset=0mil|YOffset=0mil|HoleType=Round|Shape=Rectangle|*
%AMROTATEDRECTD85*
4,1,4,0.022917,-0.000557,0.000557,-0.022917,-0.022917,0.000557,-0.000557,0.022917,0.022917,-0.000557,0.0*
%
%ADD85ROTATEDRECTD85*%

%ADD86P,0.345380X4X180.0*%
G04:AMPARAMS|DCode=87|XSize=41.858mil|YSize=18.236mil|CornerRadius=0mil|HoleSize=0mil|Usage=FLASHONLY|Rotation=135.000|XOffset=0mil|YOffset=0mil|HoleType=Round|Shape=Rectangle|*
%AMROTATEDRECTD87*
4,1,4,0.021247,-0.008352,0.008352,-0.021247,-0.021247,0.008352,-0.008352,0.021247,0.021247,-0.008352,0.0*
%
%ADD87ROTATEDRECTD87*%

G04:AMPARAMS|DCode=88|XSize=18.236mil|YSize=41.858mil|CornerRadius=0mil|HoleSize=0mil|Usage=FLASHONLY|Rotation=135.000|XOffset=0mil|YOffset=0mil|HoleType=Round|Shape=Rectangle|*
%AMROTATEDRECTD88*
4,1,4,0.021247,0.008352,-0.008352,-0.021247,-0.021247,-0.008352,0.008352,0.021247,0.021247,0.008352,0.0*
%
%ADD88ROTATEDRECTD88*%

G04:AMPARAMS|DCode=89|XSize=67.055mil|YSize=47.37mil|CornerRadius=13.842mil|HoleSize=0mil|Usage=FLASHONLY|Rotation=0.000|XOffset=0mil|YOffset=0mil|HoleType=Round|Shape=RoundedRectangle|*
%AMROUNDEDRECTD89*
21,1,0.067055,0.019685,0,0,0.0*
21,1,0.039370,0.047370,0,0,0.0*
1,1,0.027685,0.019685,-0.009843*
1,1,0.027685,-0.019685,-0.009843*
1,1,0.027685,-0.019685,0.009843*
1,1,0.027685,0.019685,0.009843*
%
%ADD89ROUNDEDRECTD89*%
%ADD90R,0.059181X0.114299*%
G04:AMPARAMS|DCode=91|XSize=70.992mil|YSize=86.74mil|CornerRadius=5.575mil|HoleSize=0mil|Usage=FLASHONLY|Rotation=180.000|XOffset=0mil|YOffset=0mil|HoleType=Round|Shape=RoundedRectangle|*
%AMROUNDEDRECTD91*
21,1,0.070992,0.075591,0,0,180.0*
21,1,0.059843,0.086740,0,0,180.0*
1,1,0.011150,-0.029921,0.037795*
1,1,0.011150,0.029921,0.037795*
1,1,0.011150,0.029921,-0.037795*
1,1,0.011150,-0.029921,-0.037795*
%
%ADD91ROUNDEDRECTD91*%
G04:AMPARAMS|DCode=92|XSize=31.622mil|YSize=17.843mil|CornerRadius=5.23mil|HoleSize=0mil|Usage=FLASHONLY|Rotation=180.000|XOffset=0mil|YOffset=0mil|HoleType=Round|Shape=RoundedRectangle|*
%AMROUNDEDRECTD92*
21,1,0.031622,0.007382,0,0,180.0*
21,1,0.021161,0.017843,0,0,180.0*
1,1,0.010461,-0.010581,0.003691*
1,1,0.010461,0.010581,0.003691*
1,1,0.010461,0.010581,-0.003691*
1,1,0.010461,-0.010581,-0.003691*
%
%ADD92ROUNDEDRECTD92*%
%TA.AperFunction,ConnectorPad*%
%ADD93R,0.070992X0.161543*%
%ADD94R,0.031622X0.069024*%
%ADD95R,0.055244X0.078866*%
%TA.AperFunction,SMDPad,CuDef*%
%ADD96R,0.021386X0.039496*%
%ADD97R,0.024535X0.033984*%
%ADD98R,0.114299X0.059181*%
%ADD99R,0.033984X0.024535*%
%ADD100R,0.039496X0.021386*%
G04:AMPARAMS|DCode=101|XSize=31.622mil|YSize=37.528mil|CornerRadius=0mil|HoleSize=0mil|Usage=FLASHONLY|Rotation=315.000|XOffset=0mil|YOffset=0mil|HoleType=Round|Shape=Rectangle|*
%AMROTATEDRECTD101*
4,1,4,-0.024448,-0.002088,0.002088,0.024448,0.024448,0.002088,-0.002088,-0.024448,-0.024448,-0.002088,0.0*
%
%ADD101ROTATEDRECTD101*%

%TA.AperFunction,ConnectorPad*%
%ADD102R,0.069024X0.031622*%
%ADD103R,0.078866X0.055244*%
G36*
X456625Y471297D02*
X457140Y471195D01*
X457636Y471026D01*
X458107Y470794D01*
X458543Y470503D01*
X458937Y470157D01*
X459283Y469763D01*
X459574Y469327D01*
X459806Y468857D01*
X459974Y468360D01*
X460077Y467846D01*
X460111Y467323D01*
Y410308D01*
X477559D01*
X478082Y410274D01*
X478596Y410171D01*
X479093Y410003D01*
X479563Y409771D01*
X479999Y409479D01*
X480394Y409134D01*
X480739Y408740D01*
X481031Y408304D01*
X481262Y407833D01*
X481431Y407337D01*
X481533Y406822D01*
X481568Y406299D01*
Y383858D01*
X481533Y383335D01*
X481431Y382821D01*
X481262Y382324D01*
X481031Y381854D01*
X480739Y381418D01*
X480394Y381024D01*
X479999Y380678D01*
X479563Y380387D01*
X479093Y380155D01*
X478596Y379986D01*
X478082Y379884D01*
X477559Y379850D01*
X460111D01*
Y376772D01*
X460077Y376249D01*
X459974Y375734D01*
X459806Y375238D01*
X459574Y374767D01*
X459283Y374332D01*
X458937Y373937D01*
X458543Y373592D01*
X458107Y373300D01*
X457636Y373068D01*
X457140Y372900D01*
X456625Y372798D01*
X456102Y372763D01*
X362795D01*
X362272Y372798D01*
X361758Y372900D01*
X361261Y373068D01*
X360791Y373300D01*
X360355Y373592D01*
X359961Y373937D01*
X359615Y374332D01*
X359324Y374767D01*
X359092Y375238D01*
X358923Y375734D01*
X358821Y376249D01*
X358787Y376772D01*
Y379850D01*
X341339D01*
X340815Y379884D01*
X340301Y379986D01*
X339805Y380155D01*
X339334Y380387D01*
X338898Y380678D01*
X338504Y381024D01*
X338158Y381418D01*
X337867Y381854D01*
X337635Y382324D01*
X337467Y382821D01*
X337364Y383335D01*
X337330Y383858D01*
Y406299D01*
X337364Y406822D01*
X337467Y407337D01*
X337635Y407833D01*
X337867Y408304D01*
X338158Y408740D01*
X338504Y409134D01*
X338898Y409479D01*
X339334Y409771D01*
X339805Y410003D01*
X340301Y410171D01*
X340815Y410274D01*
X341339Y410308D01*
X358787D01*
Y467323D01*
X358821Y467846D01*
X358923Y468360D01*
X359092Y468857D01*
X359324Y469327D01*
X359615Y469763D01*
X359961Y470157D01*
X360355Y470503D01*
X360791Y470794D01*
X361261Y471026D01*
X361758Y471195D01*
X362272Y471297D01*
X362795Y471332D01*
X379331D01*
X379854Y471297D01*
X380368Y471195D01*
X380865Y471026D01*
X381335Y470794D01*
X381771Y470503D01*
X382165Y470157D01*
X382511Y469763D01*
X382802Y469327D01*
X383034Y468857D01*
X383203Y468360D01*
X383305Y467846D01*
X383339Y467323D01*
Y452828D01*
X384377D01*
Y467323D01*
X384411Y467846D01*
X384514Y468360D01*
X384682Y468857D01*
X384914Y469327D01*
X385206Y469763D01*
X385551Y470157D01*
X385945Y470503D01*
X386382Y470794D01*
X386852Y471026D01*
X387348Y471195D01*
X387863Y471297D01*
X388386Y471332D01*
X404921D01*
X405444Y471297D01*
X405959Y471195D01*
X406455Y471026D01*
X406925Y470794D01*
X407361Y470503D01*
X407756Y470157D01*
X408101Y469763D01*
X408393Y469327D01*
X408625Y468857D01*
X408793Y468360D01*
X408896Y467846D01*
X408930Y467323D01*
Y452828D01*
X409968D01*
Y467323D01*
X410002Y467846D01*
X410104Y468360D01*
X410273Y468857D01*
X410505Y469327D01*
X410796Y469763D01*
X411142Y470157D01*
X411536Y470503D01*
X411972Y470794D01*
X412442Y471026D01*
X412939Y471195D01*
X413453Y471297D01*
X413976Y471332D01*
X430512D01*
X431035Y471297D01*
X431549Y471195D01*
X432046Y471026D01*
X432516Y470794D01*
X432952Y470503D01*
X433346Y470157D01*
X433692Y469763D01*
X433983Y469327D01*
X434215Y468857D01*
X434384Y468360D01*
X434486Y467846D01*
X434520Y467323D01*
Y452828D01*
X435558D01*
Y467323D01*
X435593Y467846D01*
X435695Y468360D01*
X435863Y468857D01*
X436095Y469327D01*
X436387Y469763D01*
X436732Y470157D01*
X437127Y470503D01*
X437563Y470794D01*
X438033Y471026D01*
X438529Y471195D01*
X439044Y471297D01*
X439567Y471332D01*
X456102D01*
X456625Y471297D01*
D02*
G37*
G36*
X295208D02*
X295723Y471195D01*
X296219Y471026D01*
X296689Y470794D01*
X297125Y470503D01*
X297519Y470157D01*
X297865Y469763D01*
X298156Y469327D01*
X298389Y468857D01*
X298557Y468360D01*
X298659Y467846D01*
X298694Y467323D01*
Y410308D01*
X316142D01*
X316665Y410274D01*
X317179Y410171D01*
X317676Y410003D01*
X318146Y409771D01*
X318582Y409479D01*
X318976Y409134D01*
X319322Y408740D01*
X319613Y408304D01*
X319845Y407833D01*
X320014Y407337D01*
X320116Y406822D01*
X320150Y406299D01*
Y383858D01*
X320116Y383335D01*
X320014Y382821D01*
X319845Y382324D01*
X319613Y381854D01*
X319322Y381418D01*
X318976Y381024D01*
X318582Y380678D01*
X318146Y380387D01*
X317676Y380155D01*
X317179Y379986D01*
X316665Y379884D01*
X316142Y379850D01*
X298694D01*
Y376772D01*
X298659Y376249D01*
X298557Y375734D01*
X298389Y375238D01*
X298156Y374767D01*
X297865Y374332D01*
X297519Y373937D01*
X297125Y373592D01*
X296689Y373300D01*
X296219Y373068D01*
X295723Y372900D01*
X295208Y372798D01*
X294685Y372763D01*
X201378D01*
X200855Y372798D01*
X200340Y372900D01*
X199844Y373068D01*
X199374Y373300D01*
X198938Y373592D01*
X198543Y373937D01*
X198198Y374332D01*
X197906Y374767D01*
X197674Y375238D01*
X197506Y375734D01*
X197404Y376249D01*
X197369Y376772D01*
Y379850D01*
X179921D01*
X179398Y379884D01*
X178884Y379986D01*
X178387Y380155D01*
X177917Y380387D01*
X177481Y380678D01*
X177087Y381024D01*
X176741Y381418D01*
X176450Y381854D01*
X176218Y382324D01*
X176049Y382821D01*
X175947Y383335D01*
X175913Y383858D01*
Y406299D01*
X175947Y406822D01*
X176049Y407337D01*
X176218Y407833D01*
X176450Y408304D01*
X176741Y408740D01*
X177087Y409134D01*
X177481Y409479D01*
X177917Y409771D01*
X178387Y410003D01*
X178884Y410171D01*
X179398Y410274D01*
X179921Y410308D01*
X197369D01*
Y467323D01*
X197404Y467846D01*
X197506Y468360D01*
X197674Y468857D01*
X197906Y469327D01*
X198198Y469763D01*
X198543Y470157D01*
X198938Y470503D01*
X199374Y470794D01*
X199844Y471026D01*
X200340Y471195D01*
X200855Y471297D01*
X201378Y471332D01*
X217913D01*
X218437Y471297D01*
X218951Y471195D01*
X219447Y471026D01*
X219918Y470794D01*
X220354Y470503D01*
X220748Y470157D01*
X221094Y469763D01*
X221385Y469327D01*
X221617Y468857D01*
X221785Y468360D01*
X221888Y467846D01*
X221922Y467323D01*
Y452828D01*
X222960D01*
Y467323D01*
X222994Y467846D01*
X223096Y468360D01*
X223265Y468857D01*
X223497Y469327D01*
X223788Y469763D01*
X224134Y470157D01*
X224528Y470503D01*
X224964Y470794D01*
X225435Y471026D01*
X225931Y471195D01*
X226445Y471297D01*
X226969Y471332D01*
X243504D01*
X244027Y471297D01*
X244541Y471195D01*
X245038Y471026D01*
X245508Y470794D01*
X245944Y470503D01*
X246338Y470157D01*
X246684Y469763D01*
X246975Y469327D01*
X247207Y468857D01*
X247376Y468360D01*
X247478Y467846D01*
X247512Y467323D01*
Y452828D01*
X248550D01*
Y467323D01*
X248585Y467846D01*
X248687Y468360D01*
X248856Y468857D01*
X249088Y469327D01*
X249379Y469763D01*
X249725Y470157D01*
X250119Y470503D01*
X250555Y470794D01*
X251025Y471026D01*
X251522Y471195D01*
X252036Y471297D01*
X252559Y471332D01*
X269094D01*
X269618Y471297D01*
X270132Y471195D01*
X270628Y471026D01*
X271099Y470794D01*
X271535Y470503D01*
X271929Y470157D01*
X272275Y469763D01*
X272566Y469327D01*
X272798Y468857D01*
X272966Y468360D01*
X273069Y467846D01*
X273103Y467323D01*
Y452828D01*
X274141D01*
Y467323D01*
X274175Y467846D01*
X274278Y468360D01*
X274446Y468857D01*
X274678Y469327D01*
X274969Y469763D01*
X275315Y470157D01*
X275709Y470503D01*
X276145Y470794D01*
X276616Y471026D01*
X277112Y471195D01*
X277626Y471297D01*
X278150Y471332D01*
X294685D01*
X295208Y471297D01*
D02*
G37*
G36*
X133791D02*
X134305Y471195D01*
X134802Y471026D01*
X135272Y470794D01*
X135708Y470503D01*
X136102Y470157D01*
X136448Y469763D01*
X136739Y469327D01*
X136971Y468857D01*
X137140Y468360D01*
X137242Y467846D01*
X137276Y467323D01*
Y410308D01*
X154725D01*
X155248Y410274D01*
X155762Y410171D01*
X156259Y410003D01*
X156729Y409771D01*
X157165Y409479D01*
X157559Y409134D01*
X157905Y408740D01*
X158196Y408304D01*
X158428Y407833D01*
X158597Y407337D01*
X158699Y406822D01*
X158733Y406299D01*
Y383858D01*
X158699Y383335D01*
X158597Y382821D01*
X158428Y382324D01*
X158196Y381854D01*
X157905Y381418D01*
X157559Y381024D01*
X157165Y380678D01*
X156729Y380387D01*
X156259Y380155D01*
X155762Y379986D01*
X155248Y379884D01*
X154725Y379850D01*
X137276D01*
Y376772D01*
X137242Y376249D01*
X137140Y375734D01*
X136971Y375238D01*
X136739Y374767D01*
X136448Y374332D01*
X136102Y373937D01*
X135708Y373592D01*
X135272Y373300D01*
X134802Y373068D01*
X134305Y372900D01*
X133791Y372798D01*
X133268Y372763D01*
X39961D01*
X39438Y372798D01*
X38923Y372900D01*
X38427Y373068D01*
X37957Y373300D01*
X37521Y373592D01*
X37126Y373937D01*
X36781Y374332D01*
X36489Y374767D01*
X36257Y375238D01*
X36089Y375734D01*
X35987Y376249D01*
X35952Y376772D01*
Y379850D01*
X18504D01*
X17981Y379884D01*
X17467Y379986D01*
X16970Y380155D01*
X16500Y380387D01*
X16064Y380678D01*
X15670Y381024D01*
X15324Y381418D01*
X15033Y381854D01*
X14801Y382324D01*
X14632Y382821D01*
X14530Y383335D01*
X14496Y383858D01*
Y406299D01*
X14530Y406822D01*
X14632Y407337D01*
X14801Y407833D01*
X15033Y408304D01*
X15324Y408740D01*
X15670Y409134D01*
X16064Y409479D01*
X16500Y409771D01*
X16970Y410003D01*
X17467Y410171D01*
X17981Y410274D01*
X18504Y410308D01*
X35952D01*
Y467323D01*
X35987Y467846D01*
X36089Y468360D01*
X36257Y468857D01*
X36489Y469327D01*
X36781Y469763D01*
X37126Y470157D01*
X37521Y470503D01*
X37957Y470794D01*
X38427Y471026D01*
X38923Y471195D01*
X39438Y471297D01*
X39961Y471332D01*
X56496D01*
X57020Y471297D01*
X57534Y471195D01*
X58030Y471026D01*
X58501Y470794D01*
X58937Y470503D01*
X59331Y470157D01*
X59676Y469763D01*
X59968Y469327D01*
X60200Y468857D01*
X60368Y468360D01*
X60471Y467846D01*
X60505Y467323D01*
Y452828D01*
X61543D01*
Y467323D01*
X61577Y467846D01*
X61679Y468360D01*
X61848Y468857D01*
X62080Y469327D01*
X62371Y469763D01*
X62717Y470157D01*
X63111Y470503D01*
X63547Y470794D01*
X64017Y471026D01*
X64514Y471195D01*
X65028Y471297D01*
X65551Y471332D01*
X82087D01*
X82610Y471297D01*
X83124Y471195D01*
X83621Y471026D01*
X84091Y470794D01*
X84527Y470503D01*
X84921Y470157D01*
X85267Y469763D01*
X85558Y469327D01*
X85790Y468857D01*
X85959Y468360D01*
X86061Y467846D01*
X86095Y467323D01*
Y452828D01*
X87133D01*
Y467323D01*
X87168Y467846D01*
X87270Y468360D01*
X87439Y468857D01*
X87671Y469327D01*
X87962Y469763D01*
X88308Y470157D01*
X88702Y470503D01*
X89138Y470794D01*
X89608Y471026D01*
X90105Y471195D01*
X90619Y471297D01*
X91142Y471332D01*
X107677D01*
X108201Y471297D01*
X108715Y471195D01*
X109211Y471026D01*
X109682Y470794D01*
X110118Y470503D01*
X110512Y470157D01*
X110858Y469763D01*
X111149Y469327D01*
X111381Y468857D01*
X111549Y468360D01*
X111652Y467846D01*
X111686Y467323D01*
Y452828D01*
X112724D01*
Y467323D01*
X112758Y467846D01*
X112861Y468360D01*
X113029Y468857D01*
X113261Y469327D01*
X113552Y469763D01*
X113898Y470157D01*
X114292Y470503D01*
X114728Y470794D01*
X115198Y471026D01*
X115695Y471195D01*
X116209Y471297D01*
X116733Y471332D01*
X133268D01*
X133791Y471297D01*
D02*
G37*
G36*
X422571Y300431D02*
X423085Y300329D01*
X423582Y300160D01*
X424052Y299928D01*
X424488Y299637D01*
X424882Y299291D01*
X425228Y298897D01*
X425519Y298461D01*
X425751Y297991D01*
X425920Y297494D01*
X426022Y296980D01*
X426056Y296457D01*
Y279009D01*
X429134D01*
X429657Y278974D01*
X430172Y278872D01*
X430668Y278704D01*
X431139Y278472D01*
X431575Y278180D01*
X431969Y277835D01*
X432314Y277440D01*
X432606Y277004D01*
X432838Y276534D01*
X433006Y276038D01*
X433108Y275523D01*
X433143Y275000D01*
Y181693D01*
X433108Y181170D01*
X433006Y180656D01*
X432838Y180159D01*
X432606Y179689D01*
X432314Y179253D01*
X431969Y178859D01*
X431575Y178513D01*
X431139Y178222D01*
X430668Y177990D01*
X430172Y177821D01*
X429657Y177719D01*
X429134Y177685D01*
X426056D01*
Y160236D01*
X426022Y159713D01*
X425920Y159199D01*
X425751Y158702D01*
X425519Y158232D01*
X425228Y157796D01*
X424882Y157402D01*
X424488Y157056D01*
X424052Y156765D01*
X423582Y156533D01*
X423085Y156364D01*
X422571Y156262D01*
X422048Y156228D01*
X399607D01*
X399084Y156262D01*
X398569Y156364D01*
X398073Y156533D01*
X397602Y156765D01*
X397166Y157056D01*
X396772Y157402D01*
X396426Y157796D01*
X396135Y158232D01*
X395903Y158702D01*
X395735Y159199D01*
X395632Y159713D01*
X395598Y160236D01*
Y177685D01*
X338583D01*
X338060Y177719D01*
X337546Y177821D01*
X337049Y177990D01*
X336579Y178222D01*
X336143Y178513D01*
X335749Y178859D01*
X335403Y179253D01*
X335112Y179689D01*
X334880Y180159D01*
X334711Y180656D01*
X334609Y181170D01*
X334575Y181693D01*
Y198228D01*
X334609Y198752D01*
X334711Y199266D01*
X334880Y199762D01*
X335112Y200233D01*
X335403Y200669D01*
X335749Y201063D01*
X336143Y201409D01*
X336579Y201700D01*
X337049Y201932D01*
X337546Y202101D01*
X338060Y202203D01*
X338583Y202237D01*
X353078D01*
Y203275D01*
X338583D01*
X338060Y203309D01*
X337546Y203412D01*
X337049Y203580D01*
X336579Y203812D01*
X336143Y204103D01*
X335749Y204449D01*
X335403Y204843D01*
X335112Y205279D01*
X334880Y205750D01*
X334711Y206246D01*
X334609Y206760D01*
X334575Y207284D01*
Y223819D01*
X334609Y224342D01*
X334711Y224857D01*
X334880Y225353D01*
X335112Y225823D01*
X335403Y226259D01*
X335749Y226654D01*
X336143Y226999D01*
X336579Y227291D01*
X337049Y227523D01*
X337546Y227691D01*
X338060Y227793D01*
X338583Y227828D01*
X353078D01*
Y228866D01*
X338583D01*
X338060Y228900D01*
X337546Y229002D01*
X337049Y229171D01*
X336579Y229403D01*
X336143Y229694D01*
X335749Y230040D01*
X335403Y230434D01*
X335112Y230870D01*
X334880Y231340D01*
X334711Y231837D01*
X334609Y232351D01*
X334575Y232874D01*
Y249410D01*
X334609Y249933D01*
X334711Y250447D01*
X334880Y250944D01*
X335112Y251414D01*
X335403Y251850D01*
X335749Y252244D01*
X336143Y252590D01*
X336579Y252881D01*
X337049Y253113D01*
X337546Y253282D01*
X338060Y253384D01*
X338583Y253418D01*
X353078D01*
Y254456D01*
X338583D01*
X338060Y254490D01*
X337546Y254593D01*
X337049Y254761D01*
X336579Y254993D01*
X336143Y255285D01*
X335749Y255630D01*
X335403Y256024D01*
X335112Y256460D01*
X334880Y256931D01*
X334711Y257427D01*
X334609Y257942D01*
X334575Y258465D01*
Y275000D01*
X334609Y275523D01*
X334711Y276038D01*
X334880Y276534D01*
X335112Y277004D01*
X335403Y277440D01*
X335749Y277835D01*
X336143Y278180D01*
X336579Y278472D01*
X337049Y278704D01*
X337546Y278872D01*
X338060Y278974D01*
X338583Y279009D01*
X395598D01*
Y296457D01*
X395632Y296980D01*
X395735Y297494D01*
X395903Y297991D01*
X396135Y298461D01*
X396426Y298897D01*
X396772Y299291D01*
X397166Y299637D01*
X397602Y299928D01*
X398073Y300160D01*
X398569Y300329D01*
X399084Y300431D01*
X399607Y300465D01*
X422048D01*
X422571Y300431D01*
D02*
G37*
G36*
X261153D02*
X261668Y300329D01*
X262164Y300160D01*
X262634Y299928D01*
X263070Y299637D01*
X263465Y299291D01*
X263810Y298897D01*
X264102Y298461D01*
X264334Y297991D01*
X264502Y297494D01*
X264604Y296980D01*
X264639Y296457D01*
Y279009D01*
X267717D01*
X268240Y278974D01*
X268754Y278872D01*
X269251Y278704D01*
X269721Y278472D01*
X270157Y278180D01*
X270551Y277835D01*
X270897Y277440D01*
X271188Y277004D01*
X271420Y276534D01*
X271589Y276038D01*
X271691Y275523D01*
X271725Y275000D01*
Y181693D01*
X271691Y181170D01*
X271589Y180656D01*
X271420Y180159D01*
X271188Y179689D01*
X270897Y179253D01*
X270551Y178859D01*
X270157Y178513D01*
X269721Y178222D01*
X269251Y177990D01*
X268754Y177821D01*
X268240Y177719D01*
X267717Y177685D01*
X264639D01*
Y160236D01*
X264604Y159713D01*
X264502Y159199D01*
X264334Y158702D01*
X264102Y158232D01*
X263810Y157796D01*
X263465Y157402D01*
X263070Y157056D01*
X262634Y156765D01*
X262164Y156533D01*
X261668Y156364D01*
X261153Y156262D01*
X260630Y156228D01*
X238189D01*
X237666Y156262D01*
X237152Y156364D01*
X236655Y156533D01*
X236185Y156765D01*
X235749Y157056D01*
X235355Y157402D01*
X235009Y157796D01*
X234718Y158232D01*
X234486Y158702D01*
X234317Y159199D01*
X234215Y159713D01*
X234181Y160236D01*
Y177685D01*
X177166D01*
X176642Y177719D01*
X176128Y177821D01*
X175632Y177990D01*
X175161Y178222D01*
X174725Y178513D01*
X174331Y178859D01*
X173985Y179253D01*
X173694Y179689D01*
X173462Y180159D01*
X173294Y180656D01*
X173191Y181170D01*
X173157Y181693D01*
Y198228D01*
X173191Y198752D01*
X173294Y199266D01*
X173462Y199762D01*
X173694Y200233D01*
X173985Y200669D01*
X174331Y201063D01*
X174725Y201409D01*
X175161Y201700D01*
X175632Y201932D01*
X176128Y202101D01*
X176642Y202203D01*
X177166Y202237D01*
X191661D01*
Y203275D01*
X177166D01*
X176642Y203309D01*
X176128Y203412D01*
X175632Y203580D01*
X175161Y203812D01*
X174725Y204103D01*
X174331Y204449D01*
X173985Y204843D01*
X173694Y205279D01*
X173462Y205750D01*
X173294Y206246D01*
X173191Y206760D01*
X173157Y207284D01*
Y223819D01*
X173191Y224342D01*
X173294Y224857D01*
X173462Y225353D01*
X173694Y225823D01*
X173985Y226259D01*
X174331Y226654D01*
X174725Y226999D01*
X175161Y227291D01*
X175632Y227523D01*
X176128Y227691D01*
X176642Y227793D01*
X177166Y227828D01*
X191661D01*
Y228866D01*
X177166D01*
X176642Y228900D01*
X176128Y229002D01*
X175632Y229171D01*
X175161Y229403D01*
X174725Y229694D01*
X174331Y230040D01*
X173985Y230434D01*
X173694Y230870D01*
X173462Y231340D01*
X173294Y231837D01*
X173191Y232351D01*
X173157Y232874D01*
Y249410D01*
X173191Y249933D01*
X173294Y250447D01*
X173462Y250944D01*
X173694Y251414D01*
X173985Y251850D01*
X174331Y252244D01*
X174725Y252590D01*
X175161Y252881D01*
X175632Y253113D01*
X176128Y253282D01*
X176642Y253384D01*
X177166Y253418D01*
X191661D01*
Y254456D01*
X177166D01*
X176642Y254490D01*
X176128Y254593D01*
X175632Y254761D01*
X175161Y254993D01*
X174725Y255285D01*
X174331Y255630D01*
X173985Y256024D01*
X173694Y256460D01*
X173462Y256931D01*
X173294Y257427D01*
X173191Y257942D01*
X173157Y258465D01*
Y275000D01*
X173191Y275523D01*
X173294Y276038D01*
X173462Y276534D01*
X173694Y277004D01*
X173985Y277440D01*
X174331Y277835D01*
X174725Y278180D01*
X175161Y278472D01*
X175632Y278704D01*
X176128Y278872D01*
X176642Y278974D01*
X177166Y279009D01*
X234181D01*
Y296457D01*
X234215Y296980D01*
X234317Y297494D01*
X234486Y297991D01*
X234718Y298461D01*
X235009Y298897D01*
X235355Y299291D01*
X235749Y299637D01*
X236185Y299928D01*
X236655Y300160D01*
X237152Y300329D01*
X237666Y300431D01*
X238189Y300465D01*
X260630D01*
X261153Y300431D01*
D02*
G37*
G36*
X99736D02*
X100250Y300329D01*
X100747Y300160D01*
X101217Y299928D01*
X101653Y299637D01*
X102047Y299291D01*
X102393Y298897D01*
X102684Y298461D01*
X102916Y297991D01*
X103085Y297494D01*
X103187Y296980D01*
X103221Y296457D01*
Y279009D01*
X106299D01*
X106823Y278974D01*
X107337Y278872D01*
X107833Y278704D01*
X108304Y278472D01*
X108740Y278180D01*
X109134Y277835D01*
X109480Y277440D01*
X109771Y277004D01*
X110003Y276534D01*
X110171Y276038D01*
X110274Y275523D01*
X110308Y275000D01*
Y181693D01*
X110274Y181170D01*
X110171Y180656D01*
X110003Y180159D01*
X109771Y179689D01*
X109480Y179253D01*
X109134Y178859D01*
X108740Y178513D01*
X108304Y178222D01*
X107833Y177990D01*
X107337Y177821D01*
X106823Y177719D01*
X106299Y177685D01*
X103221D01*
Y160236D01*
X103187Y159713D01*
X103085Y159199D01*
X102916Y158702D01*
X102684Y158232D01*
X102393Y157796D01*
X102047Y157402D01*
X101653Y157056D01*
X101217Y156765D01*
X100747Y156533D01*
X100250Y156364D01*
X99736Y156262D01*
X99213Y156228D01*
X76772D01*
X76249Y156262D01*
X75734Y156364D01*
X75238Y156533D01*
X74768Y156765D01*
X74332Y157056D01*
X73937Y157402D01*
X73592Y157796D01*
X73300Y158232D01*
X73068Y158702D01*
X72900Y159199D01*
X72798Y159713D01*
X72763Y160236D01*
Y177685D01*
X15748D01*
X15225Y177719D01*
X14711Y177821D01*
X14214Y177990D01*
X13744Y178222D01*
X13308Y178513D01*
X12914Y178859D01*
X12568Y179253D01*
X12277Y179689D01*
X12045Y180159D01*
X11876Y180656D01*
X11774Y181170D01*
X11740Y181693D01*
Y198228D01*
X11774Y198752D01*
X11876Y199266D01*
X12045Y199762D01*
X12277Y200233D01*
X12568Y200669D01*
X12914Y201063D01*
X13308Y201409D01*
X13744Y201700D01*
X14214Y201932D01*
X14711Y202101D01*
X15225Y202203D01*
X15748Y202237D01*
X30244D01*
Y203275D01*
X15748D01*
X15225Y203309D01*
X14711Y203412D01*
X14214Y203580D01*
X13744Y203812D01*
X13308Y204103D01*
X12914Y204449D01*
X12568Y204843D01*
X12277Y205279D01*
X12045Y205750D01*
X11876Y206246D01*
X11774Y206760D01*
X11740Y207284D01*
Y223819D01*
X11774Y224342D01*
X11876Y224857D01*
X12045Y225353D01*
X12277Y225823D01*
X12568Y226259D01*
X12914Y226654D01*
X13308Y226999D01*
X13744Y227291D01*
X14214Y227523D01*
X14711Y227691D01*
X15225Y227793D01*
X15748Y227828D01*
X30244D01*
Y228866D01*
X15748D01*
X15225Y228900D01*
X14711Y229002D01*
X14214Y229171D01*
X13744Y229403D01*
X13308Y229694D01*
X12914Y230040D01*
X12568Y230434D01*
X12277Y230870D01*
X12045Y231340D01*
X11876Y231837D01*
X11774Y232351D01*
X11740Y232874D01*
Y249410D01*
X11774Y249933D01*
X11876Y250447D01*
X12045Y250944D01*
X12277Y251414D01*
X12568Y251850D01*
X12914Y252244D01*
X13308Y252590D01*
X13744Y252881D01*
X14214Y253113D01*
X14711Y253282D01*
X15225Y253384D01*
X15748Y253418D01*
X30244D01*
Y254456D01*
X15748D01*
X15225Y254490D01*
X14711Y254593D01*
X14214Y254761D01*
X13744Y254993D01*
X13308Y255285D01*
X12914Y255630D01*
X12568Y256024D01*
X12277Y256460D01*
X12045Y256931D01*
X11876Y257427D01*
X11774Y257942D01*
X11740Y258465D01*
Y275000D01*
X11774Y275523D01*
X11876Y276038D01*
X12045Y276534D01*
X12277Y277004D01*
X12568Y277440D01*
X12914Y277835D01*
X13308Y278180D01*
X13744Y278472D01*
X14214Y278704D01*
X14711Y278872D01*
X15225Y278974D01*
X15748Y279009D01*
X72763D01*
Y296457D01*
X72798Y296980D01*
X72900Y297494D01*
X73068Y297991D01*
X73300Y298461D01*
X73592Y298897D01*
X73937Y299291D01*
X74332Y299637D01*
X74768Y299928D01*
X75238Y300160D01*
X75734Y300329D01*
X76249Y300431D01*
X76772Y300465D01*
X99213D01*
X99736Y300431D01*
D02*
G37*
D76*
X511811Y1381890D02*
D03*
D77*
X556102Y1216535D02*
D03*
X601378D02*
D03*
X89567Y807087D02*
D03*
X44291D02*
D03*
X510827Y1145669D02*
D03*
X465551D02*
D03*
X654528Y1204724D02*
D03*
X699803D02*
D03*
X229331Y1192913D02*
D03*
X274606D02*
D03*
X376969Y1255906D02*
D03*
X331693D02*
D03*
X422244Y1224409D02*
D03*
X467520D02*
D03*
Y1185040D02*
D03*
X422244D02*
D03*
X558071Y614173D02*
D03*
X512795D02*
D03*
X599409D02*
D03*
X644685D02*
D03*
X731299D02*
D03*
X686024D02*
D03*
D78*
X41339Y759842D02*
D03*
X100394D02*
D03*
X604331Y1263779D02*
D03*
X545275D02*
D03*
D79*
X92913Y1279528D02*
D03*
X127559D02*
D03*
X462205Y1263780D02*
D03*
X427559D02*
D03*
X359843Y1216535D02*
D03*
X325197D02*
D03*
X611811Y854331D02*
D03*
X577165D02*
D03*
X135433Y1078740D02*
D03*
X100787D02*
D03*
D80*
X66929Y1409449D02*
D03*
X228346D02*
D03*
X413386Y74803D02*
D03*
X251969D02*
D03*
X90551D02*
D03*
D81*
X551181Y1182677D02*
D03*
Y1148032D02*
D03*
D82*
X511811Y1186024D02*
D03*
Y1231299D02*
D03*
X562992Y524606D02*
D03*
Y569882D02*
D03*
X641732D02*
D03*
Y524606D02*
D03*
X720472Y569882D02*
D03*
Y524606D02*
D03*
X523622D02*
D03*
Y569882D02*
D03*
X602362Y524606D02*
D03*
Y569882D02*
D03*
X681102Y524606D02*
D03*
Y569882D02*
D03*
D83*
X465005Y1090113D02*
D03*
X440507Y1114611D02*
D03*
X168767Y762857D02*
D03*
X144269Y787355D02*
D03*
X548768Y1006447D02*
D03*
X524270Y1030945D02*
D03*
D84*
X783465Y1397638D02*
D03*
X641732D02*
D03*
X712598D02*
D03*
D85*
X472003Y775153D02*
D03*
X496501Y799651D02*
D03*
D86*
X311442Y930029D02*
D03*
D87*
X83581Y949098D02*
D03*
X97500Y963018D02*
D03*
X111420Y976937D02*
D03*
X125339Y990857D02*
D03*
X139259Y1004776D02*
D03*
X153178Y1018696D02*
D03*
X167098Y1032615D02*
D03*
X181017Y1046534D02*
D03*
X194936Y1060454D02*
D03*
X208856Y1074373D02*
D03*
X222775Y1088293D02*
D03*
X236695Y1102212D02*
D03*
X250614Y1116132D02*
D03*
X264534Y1130051D02*
D03*
X278453Y1143970D02*
D03*
X292372Y1157890D02*
D03*
X525384Y897040D02*
D03*
X511464Y883120D02*
D03*
X497545Y869201D02*
D03*
X483625Y855282D02*
D03*
X469706Y841362D02*
D03*
X455786Y827443D02*
D03*
X441867Y813523D02*
D03*
X427948Y799604D02*
D03*
X414028Y785684D02*
D03*
X400109Y771765D02*
D03*
X386189Y757846D02*
D03*
X372270Y743926D02*
D03*
X358351Y730007D02*
D03*
X344431Y716087D02*
D03*
X330512Y702168D02*
D03*
X539303Y910959D02*
D03*
D88*
X292372Y702168D02*
D03*
X278453Y716087D02*
D03*
X264534Y730007D02*
D03*
X250614Y743926D02*
D03*
X236695Y757846D02*
D03*
X222775Y771765D02*
D03*
X208856Y785684D02*
D03*
X194936Y799604D02*
D03*
X181017Y813523D02*
D03*
X167098Y827443D02*
D03*
X153178Y841362D02*
D03*
X139259Y855282D02*
D03*
X125339Y869201D02*
D03*
X111420Y883120D02*
D03*
X97500Y897040D02*
D03*
X83581Y910959D02*
D03*
X330512Y1157890D02*
D03*
X344431Y1143970D02*
D03*
X358351Y1130051D02*
D03*
X372270Y1116132D02*
D03*
X386189Y1102212D02*
D03*
X414028Y1074373D02*
D03*
X427948Y1060454D02*
D03*
X441867Y1046534D02*
D03*
X455786Y1032615D02*
D03*
X469706Y1018696D02*
D03*
X483625Y1004776D02*
D03*
X497545Y990857D02*
D03*
X511464Y976937D02*
D03*
X525384Y963018D02*
D03*
X539303Y949098D02*
D03*
X400109Y1088293D02*
D03*
D89*
X783465Y263779D02*
D03*
Y318897D02*
D03*
Y374016D02*
D03*
Y429134D02*
D03*
Y484252D02*
D03*
D90*
X149606Y1161417D02*
D03*
X39370D02*
D03*
D91*
X236220Y1275591D02*
D03*
D92*
X181102Y1246063D02*
D03*
Y1265748D02*
D03*
Y1285433D02*
D03*
Y1305118D02*
D03*
X291339D02*
D03*
Y1285433D02*
D03*
Y1265748D02*
D03*
Y1246063D02*
D03*
D93*
X360236Y1381890D02*
D03*
X474409D02*
D03*
D94*
X582677Y205984D02*
D03*
X661417D02*
D03*
X700787D02*
D03*
X740157D02*
D03*
X622047D02*
D03*
D95*
X531496Y53425D02*
D03*
X791338D02*
D03*
D96*
X125001Y447639D02*
D03*
X99411D02*
D03*
X73819D02*
D03*
X48229D02*
D03*
X209646D02*
D03*
X235236D02*
D03*
X260828D02*
D03*
X286418D02*
D03*
X371063D02*
D03*
X396653D02*
D03*
X422245D02*
D03*
X447835D02*
D03*
D97*
X99410Y338583D02*
D03*
X73819D02*
D03*
X125000D02*
D03*
X48229D02*
D03*
X209646D02*
D03*
X286417D02*
D03*
X235236D02*
D03*
X260827D02*
D03*
X371063D02*
D03*
X447835D02*
D03*
X396654D02*
D03*
X422244D02*
D03*
D98*
X673228Y338583D02*
D03*
Y448819D02*
D03*
X86614Y622047D02*
D03*
Y511811D02*
D03*
X543307Y338583D02*
D03*
Y448819D02*
D03*
X409449Y622047D02*
D03*
Y511811D02*
D03*
X248031Y622047D02*
D03*
Y511811D02*
D03*
D99*
X144488Y215551D02*
D03*
X305906Y189961D02*
D03*
Y266732D02*
D03*
Y215551D02*
D03*
Y241142D02*
D03*
X144488Y189961D02*
D03*
X144488Y266732D02*
D03*
X144488Y241142D02*
D03*
X467323Y189961D02*
D03*
Y266732D02*
D03*
Y215551D02*
D03*
Y241142D02*
D03*
D100*
X196850Y189961D02*
D03*
Y215551D02*
D03*
Y241143D02*
D03*
Y266733D02*
D03*
X35432Y189961D02*
D03*
Y215551D02*
D03*
Y241143D02*
D03*
Y266733D02*
D03*
X358267Y189961D02*
D03*
Y215551D02*
D03*
Y241143D02*
D03*
Y266733D02*
D03*
D101*
X551440Y799472D02*
D03*
X519426Y767457D02*
D03*
D102*
X632598Y972441D02*
D03*
Y1090551D02*
D03*
Y1051181D02*
D03*
Y1011811D02*
D03*
Y933071D02*
D03*
D103*
X785158Y1141732D02*
D03*
Y881890D02*
D03*
%TF.MD5,625fc28ef88658556cd0f221a4a53c4d*%
M02*
