%TF.GenerationSoftware,Altium Limited,Altium Designer,24.6.1 (21)*%
G04 Layer_Color=16711935*
%FSLAX26Y26*%
%MOIN*%
%TF.SameCoordinates,E3325630-42F2-41CE-953C-F4D0AC061200*%
%TF.FilePolarity,Negative*%
%TF.FileFunction,Soldermask,Bot*%
%TF.Part,Single*%
G01*
G75*
%TA.AperFunction,SMDPad,CuDef*%
%ADD77R,0.037528X0.031622*%
%ADD79R,0.031622X0.033197*%
%ADD80R,0.126110X0.126110*%
%ADD81R,0.033197X0.031622*%
%ADD82R,0.031622X0.037528*%
G04:AMPARAMS|DCode=84|XSize=57.213mil|YSize=126.11mil|CornerRadius=16.303mil|HoleSize=0mil|Usage=FLASHONLY|Rotation=0.000|XOffset=0mil|YOffset=0mil|HoleType=Round|Shape=RoundedRectangle|*
%AMROUNDEDRECTD84*
21,1,0.057213,0.093504,0,0,0.0*
21,1,0.024606,0.126110,0,0,0.0*
1,1,0.032606,0.012303,-0.046752*
1,1,0.032606,-0.012303,-0.046752*
1,1,0.032606,-0.012303,0.046752*
1,1,0.032606,0.012303,0.046752*
%
%ADD84ROUNDEDRECTD84*%
G04:AMPARAMS|DCode=89|XSize=67.055mil|YSize=47.37mil|CornerRadius=13.842mil|HoleSize=0mil|Usage=FLASHONLY|Rotation=0.000|XOffset=0mil|YOffset=0mil|HoleType=Round|Shape=RoundedRectangle|*
%AMROUNDEDRECTD89*
21,1,0.067055,0.019685,0,0,0.0*
21,1,0.039370,0.047370,0,0,0.0*
1,1,0.027685,0.019685,-0.009843*
1,1,0.027685,-0.019685,-0.009843*
1,1,0.027685,-0.019685,0.009843*
1,1,0.027685,0.019685,0.009843*
%
%ADD89ROUNDEDRECTD89*%
%ADD90R,0.059181X0.114299*%
%ADD96R,0.021386X0.039496*%
%ADD97R,0.024535X0.033984*%
%ADD98R,0.114299X0.059181*%
%ADD104R,0.072961X0.055244*%
%ADD105R,0.023748X0.035559*%
%ADD106R,0.021779X0.025323*%
%ADD107R,0.025323X0.021779*%
%ADD108R,0.021779X0.041465*%
%ADD109R,0.035559X0.023748*%
G04:AMPARAMS|DCode=110|XSize=41.071mil|YSize=18.236mil|CornerRadius=5.279mil|HoleSize=0mil|Usage=FLASHONLY|Rotation=180.000|XOffset=0mil|YOffset=0mil|HoleType=Round|Shape=RoundedRectangle|*
%AMROUNDEDRECTD110*
21,1,0.041071,0.007677,0,0,180.0*
21,1,0.030512,0.018236,0,0,180.0*
1,1,0.010559,-0.015256,0.003839*
1,1,0.010559,0.015256,0.003839*
1,1,0.010559,0.015256,-0.003839*
1,1,0.010559,-0.015256,-0.003839*
%
%ADD110ROUNDEDRECTD110*%
G04:AMPARAMS|DCode=111|XSize=41.071mil|YSize=18.236mil|CornerRadius=5.279mil|HoleSize=0mil|Usage=FLASHONLY|Rotation=90.000|XOffset=0mil|YOffset=0mil|HoleType=Round|Shape=RoundedRectangle|*
%AMROUNDEDRECTD111*
21,1,0.041071,0.007677,0,0,90.0*
21,1,0.030512,0.018236,0,0,90.0*
1,1,0.010559,0.003839,0.015256*
1,1,0.010559,0.003839,-0.015256*
1,1,0.010559,-0.003839,-0.015256*
1,1,0.010559,-0.003839,0.015256*
%
%ADD111ROUNDEDRECTD111*%
G04:AMPARAMS|DCode=112|XSize=27.685mil|YSize=17.843mil|CornerRadius=5.23mil|HoleSize=0mil|Usage=FLASHONLY|Rotation=270.000|XOffset=0mil|YOffset=0mil|HoleType=Round|Shape=RoundedRectangle|*
%AMROUNDEDRECTD112*
21,1,0.027685,0.007382,0,0,270.0*
21,1,0.017224,0.017843,0,0,270.0*
1,1,0.010461,-0.003691,-0.008612*
1,1,0.010461,-0.003691,0.008612*
1,1,0.010461,0.003691,0.008612*
1,1,0.010461,0.003691,-0.008612*
%
%ADD112ROUNDEDRECTD112*%
%ADD113P,0.033964X4X180.0*%
G04:AMPARAMS|DCode=114|XSize=27.685mil|YSize=17.843mil|CornerRadius=5.23mil|HoleSize=0mil|Usage=FLASHONLY|Rotation=180.000|XOffset=0mil|YOffset=0mil|HoleType=Round|Shape=RoundedRectangle|*
%AMROUNDEDRECTD114*
21,1,0.027685,0.007382,0,0,180.0*
21,1,0.017224,0.017843,0,0,180.0*
1,1,0.010461,-0.008612,0.003691*
1,1,0.010461,0.008612,0.003691*
1,1,0.010461,0.008612,-0.003691*
1,1,0.010461,-0.008612,-0.003691*
%
%ADD114ROUNDEDRECTD114*%
G04:AMPARAMS|DCode=115|XSize=43.433mil|YSize=70.992mil|CornerRadius=4.886mil|HoleSize=0mil|Usage=FLASHONLY|Rotation=180.000|XOffset=0mil|YOffset=0mil|HoleType=Round|Shape=RoundedRectangle|*
%AMROUNDEDRECTD115*
21,1,0.043433,0.061221,0,0,180.0*
21,1,0.033661,0.070992,0,0,180.0*
1,1,0.009772,-0.016831,0.030610*
1,1,0.009772,0.016831,0.030610*
1,1,0.009772,0.016831,-0.030610*
1,1,0.009772,-0.016831,-0.030610*
%
%ADD115ROUNDEDRECTD115*%
%ADD116R,0.061150X0.031622*%
%ADD117R,0.059181X0.063118*%
%ADD118R,0.076898X0.055244*%
G04:AMPARAMS|DCode=119|XSize=43.433mil|YSize=70.992mil|CornerRadius=4.886mil|HoleSize=0mil|Usage=FLASHONLY|Rotation=270.000|XOffset=0mil|YOffset=0mil|HoleType=Round|Shape=RoundedRectangle|*
%AMROUNDEDRECTD119*
21,1,0.043433,0.061221,0,0,270.0*
21,1,0.033661,0.070992,0,0,270.0*
1,1,0.009772,-0.030610,-0.016831*
1,1,0.009772,-0.030610,0.016831*
1,1,0.009772,0.030610,0.016831*
1,1,0.009772,0.030610,-0.016831*
%
%ADD119ROUNDEDRECTD119*%
%ADD120R,0.061150X0.053276*%
G36*
X421192Y1433108D02*
X421707Y1433006D01*
X422203Y1432837D01*
X422673Y1432605D01*
X423110Y1432314D01*
X423504Y1431968D01*
X423849Y1431574D01*
X424141Y1431138D01*
X424373Y1430668D01*
X424541Y1430171D01*
X424644Y1429657D01*
X424678Y1429134D01*
Y1372119D01*
X442126D01*
X442649Y1372084D01*
X443163Y1371982D01*
X443660Y1371814D01*
X444130Y1371582D01*
X444566Y1371290D01*
X444960Y1370945D01*
X445306Y1370551D01*
X445597Y1370114D01*
X445829Y1369644D01*
X445998Y1369148D01*
X446100Y1368633D01*
X446135Y1368110D01*
Y1345669D01*
X446100Y1345146D01*
X445998Y1344632D01*
X445829Y1344135D01*
X445597Y1343665D01*
X445306Y1343229D01*
X444960Y1342835D01*
X444566Y1342489D01*
X444130Y1342198D01*
X443660Y1341966D01*
X443163Y1341797D01*
X442649Y1341695D01*
X442126Y1341661D01*
X424678D01*
Y1338583D01*
X424644Y1338060D01*
X424541Y1337545D01*
X424373Y1337049D01*
X424141Y1336578D01*
X423849Y1336142D01*
X423504Y1335748D01*
X423110Y1335402D01*
X422673Y1335111D01*
X422203Y1334879D01*
X421707Y1334711D01*
X421192Y1334608D01*
X420669Y1334574D01*
X327362D01*
X326839Y1334608D01*
X326325Y1334711D01*
X325828Y1334879D01*
X325358Y1335111D01*
X324922Y1335402D01*
X324528Y1335748D01*
X324182Y1336142D01*
X323891Y1336578D01*
X323659Y1337049D01*
X323490Y1337545D01*
X323388Y1338060D01*
X323354Y1338583D01*
Y1341661D01*
X305906D01*
X305382Y1341695D01*
X304868Y1341797D01*
X304372Y1341966D01*
X303901Y1342198D01*
X303465Y1342489D01*
X303071Y1342835D01*
X302725Y1343229D01*
X302434Y1343665D01*
X302202Y1344135D01*
X302034Y1344632D01*
X301931Y1345146D01*
X301897Y1345669D01*
Y1368110D01*
X301931Y1368633D01*
X302034Y1369148D01*
X302202Y1369644D01*
X302434Y1370114D01*
X302725Y1370551D01*
X303071Y1370945D01*
X303465Y1371290D01*
X303901Y1371582D01*
X304372Y1371814D01*
X304868Y1371982D01*
X305382Y1372084D01*
X305906Y1372119D01*
X323354D01*
Y1429134D01*
X323388Y1429657D01*
X323490Y1430171D01*
X323659Y1430668D01*
X323891Y1431138D01*
X324182Y1431574D01*
X324528Y1431968D01*
X324922Y1432314D01*
X325358Y1432605D01*
X325828Y1432837D01*
X326325Y1433006D01*
X326839Y1433108D01*
X327362Y1433142D01*
X343898D01*
X344421Y1433108D01*
X344935Y1433006D01*
X345432Y1432837D01*
X345902Y1432605D01*
X346338Y1432314D01*
X346732Y1431968D01*
X347078Y1431574D01*
X347369Y1431138D01*
X347601Y1430668D01*
X347770Y1430171D01*
X347872Y1429657D01*
X347906Y1429134D01*
Y1414639D01*
X348944D01*
Y1429134D01*
X348978Y1429657D01*
X349081Y1430171D01*
X349249Y1430668D01*
X349481Y1431138D01*
X349772Y1431574D01*
X350118Y1431968D01*
X350512Y1432314D01*
X350948Y1432605D01*
X351419Y1432837D01*
X351915Y1433006D01*
X352430Y1433108D01*
X352953Y1433142D01*
X369488D01*
X370011Y1433108D01*
X370526Y1433006D01*
X371022Y1432837D01*
X371492Y1432605D01*
X371928Y1432314D01*
X372323Y1431968D01*
X372668Y1431574D01*
X372960Y1431138D01*
X373192Y1430668D01*
X373360Y1430171D01*
X373462Y1429657D01*
X373497Y1429134D01*
Y1414639D01*
X374535D01*
Y1429134D01*
X374569Y1429657D01*
X374671Y1430171D01*
X374840Y1430668D01*
X375072Y1431138D01*
X375363Y1431574D01*
X375709Y1431968D01*
X376103Y1432314D01*
X376539Y1432605D01*
X377009Y1432837D01*
X377506Y1433006D01*
X378020Y1433108D01*
X378543Y1433142D01*
X395079D01*
X395602Y1433108D01*
X396116Y1433006D01*
X396613Y1432837D01*
X397083Y1432605D01*
X397519Y1432314D01*
X397913Y1431968D01*
X398259Y1431574D01*
X398550Y1431138D01*
X398782Y1430668D01*
X398951Y1430171D01*
X399053Y1429657D01*
X399087Y1429134D01*
Y1414639D01*
X400125D01*
Y1429134D01*
X400159Y1429657D01*
X400262Y1430171D01*
X400430Y1430668D01*
X400662Y1431138D01*
X400954Y1431574D01*
X401299Y1431968D01*
X401693Y1432314D01*
X402130Y1432605D01*
X402600Y1432837D01*
X403096Y1433006D01*
X403611Y1433108D01*
X404134Y1433142D01*
X420669D01*
X421192Y1433108D01*
D02*
G37*
G36*
X619693Y908441D02*
X620085Y908347D01*
X620457Y908193D01*
X620800Y907982D01*
X621106Y907721D01*
X621368Y907414D01*
X621579Y907071D01*
X621733Y906699D01*
X621827Y906307D01*
X621858Y905905D01*
Y891732D01*
X621827Y891331D01*
X621733Y890939D01*
X621579Y890567D01*
X621368Y890223D01*
X621106Y889917D01*
X620800Y889656D01*
X620457Y889445D01*
X620085Y889291D01*
X619693Y889197D01*
X619291Y889165D01*
X618110D01*
X617850Y889186D01*
X617712Y889197D01*
X617711Y889197D01*
X617709Y889197D01*
X617500Y889247D01*
X617320Y889290D01*
X617318Y889291D01*
X617317Y889291D01*
X617151Y889360D01*
X616947Y889444D01*
X616946Y889445D01*
X616945Y889445D01*
X616819Y889522D01*
X616604Y889654D01*
X616602Y889655D01*
X616601Y889656D01*
X616513Y889731D01*
X616297Y889915D01*
X609196Y897001D01*
X609194Y897002D01*
X609194Y897003D01*
X609113Y897097D01*
X608934Y897307D01*
X608932Y897308D01*
X608932Y897309D01*
X608869Y897411D01*
X608723Y897650D01*
X608722Y897651D01*
X608721Y897652D01*
X608652Y897822D01*
X608568Y898022D01*
X608568Y898023D01*
X608567Y898025D01*
X608514Y898245D01*
X608474Y898413D01*
X608474Y898414D01*
X608473Y898416D01*
X608452Y898689D01*
X608442Y898815D01*
X608442Y898816D01*
X608442Y898818D01*
Y905905D01*
X608473Y906307D01*
X608567Y906699D01*
X608721Y907071D01*
X608932Y907414D01*
X609194Y907721D01*
X609500Y907982D01*
X609843Y908193D01*
X610216Y908347D01*
X610607Y908441D01*
X611009Y908472D01*
X619291D01*
X619693Y908441D01*
D02*
G37*
G36*
X594117D02*
X594509Y908347D01*
X594881Y908193D01*
X595225Y907982D01*
X595531Y907721D01*
X595793Y907414D01*
X596003Y907071D01*
X596157Y906699D01*
X596251Y906307D01*
X596283Y905905D01*
Y898818D01*
X596283Y898816D01*
X596283Y898815D01*
X596273Y898689D01*
X596251Y898416D01*
X596251Y898414D01*
X596251Y898413D01*
X596210Y898245D01*
X596157Y898025D01*
X596157Y898023D01*
X596156Y898022D01*
X596073Y897822D01*
X596003Y897652D01*
X596002Y897651D01*
X596002Y897650D01*
X595855Y897411D01*
X595793Y897309D01*
X595792Y897308D01*
X595791Y897307D01*
X595611Y897097D01*
X595531Y897003D01*
X595530Y897002D01*
X595529Y897001D01*
X588427Y889915D01*
X588211Y889731D01*
X588123Y889656D01*
X588122Y889655D01*
X588121Y889654D01*
X587905Y889522D01*
X587780Y889445D01*
X587779Y889445D01*
X587777Y889444D01*
X587573Y889360D01*
X587408Y889291D01*
X587406Y889291D01*
X587405Y889290D01*
X587225Y889247D01*
X587016Y889197D01*
X587014Y889197D01*
X587013Y889197D01*
X586875Y889186D01*
X586614Y889165D01*
X585433D01*
X585032Y889197D01*
X584640Y889291D01*
X584268Y889445D01*
X583924Y889656D01*
X583618Y889917D01*
X583356Y890223D01*
X583146Y890567D01*
X582992Y890939D01*
X582898Y891331D01*
X582866Y891732D01*
Y905905D01*
X582898Y906307D01*
X582992Y906699D01*
X583146Y907071D01*
X583356Y907414D01*
X583618Y907721D01*
X583924Y907982D01*
X584268Y908193D01*
X584640Y908347D01*
X585032Y908441D01*
X585433Y908472D01*
X593716D01*
X594117Y908441D01*
D02*
G37*
G36*
X619693Y874583D02*
X620085Y874489D01*
X620457Y874335D01*
X620800Y874124D01*
X621106Y873862D01*
X621368Y873556D01*
X621579Y873213D01*
X621733Y872841D01*
X621827Y872449D01*
X621858Y872047D01*
Y857874D01*
X621827Y857472D01*
X621733Y857081D01*
X621579Y856709D01*
X621368Y856365D01*
X621106Y856059D01*
X620800Y855797D01*
X620457Y855587D01*
X620085Y855433D01*
X619693Y855339D01*
X619291Y855307D01*
X611009D01*
X610607Y855339D01*
X610216Y855433D01*
X609843Y855587D01*
X609500Y855797D01*
X609194Y856059D01*
X608932Y856365D01*
X608721Y856709D01*
X608567Y857081D01*
X608473Y857472D01*
X608442Y857874D01*
Y864962D01*
X608442Y864964D01*
X608442Y864965D01*
X608452Y865091D01*
X608473Y865363D01*
X608474Y865365D01*
X608474Y865366D01*
X608514Y865535D01*
X608567Y865755D01*
X608568Y865756D01*
X608568Y865758D01*
X608652Y865958D01*
X608721Y866127D01*
X608722Y866128D01*
X608723Y866130D01*
X608869Y866368D01*
X608932Y866471D01*
X608932Y866471D01*
X608934Y866473D01*
X609113Y866683D01*
X609194Y866777D01*
X609194Y866778D01*
X609196Y866779D01*
X616297Y873865D01*
X616513Y874049D01*
X616601Y874124D01*
X616602Y874124D01*
X616604Y874126D01*
X616819Y874257D01*
X616945Y874335D01*
X616946Y874335D01*
X616947Y874336D01*
X617151Y874420D01*
X617317Y874489D01*
X617318Y874489D01*
X617320Y874490D01*
X617500Y874533D01*
X617709Y874583D01*
X617711Y874583D01*
X617712Y874583D01*
X617850Y874594D01*
X618110Y874614D01*
X619291D01*
X619693Y874583D01*
D02*
G37*
G36*
X586875Y874594D02*
X587013Y874583D01*
X587014Y874583D01*
X587016Y874583D01*
X587225Y874533D01*
X587405Y874490D01*
X587406Y874489D01*
X587408Y874489D01*
X587573Y874420D01*
X587777Y874336D01*
X587779Y874335D01*
X587780Y874335D01*
X587905Y874257D01*
X588121Y874126D01*
X588122Y874124D01*
X588123Y874124D01*
X588211Y874049D01*
X588427Y873865D01*
X595529Y866779D01*
X595530Y866778D01*
X595531Y866777D01*
X595611Y866683D01*
X595791Y866473D01*
X595792Y866471D01*
X595793Y866471D01*
X595855Y866368D01*
X596002Y866130D01*
X596002Y866128D01*
X596003Y866127D01*
X596073Y865958D01*
X596156Y865758D01*
X596157Y865756D01*
X596157Y865755D01*
X596210Y865535D01*
X596251Y865366D01*
X596251Y865365D01*
X596251Y865363D01*
X596273Y865091D01*
X596283Y864965D01*
X596283Y864964D01*
X596283Y864962D01*
Y857874D01*
X596251Y857472D01*
X596157Y857081D01*
X596003Y856709D01*
X595793Y856365D01*
X595531Y856059D01*
X595225Y855797D01*
X594881Y855587D01*
X594509Y855433D01*
X594117Y855339D01*
X593716Y855307D01*
X585433D01*
X585032Y855339D01*
X584640Y855433D01*
X584268Y855587D01*
X583924Y855797D01*
X583618Y856059D01*
X583356Y856365D01*
X583146Y856709D01*
X582992Y857081D01*
X582898Y857472D01*
X582866Y857874D01*
Y872047D01*
X582898Y872449D01*
X582992Y872841D01*
X583146Y873213D01*
X583356Y873556D01*
X583618Y873862D01*
X583924Y874124D01*
X584268Y874335D01*
X584640Y874489D01*
X585032Y874583D01*
X585433Y874614D01*
X586614D01*
X586875Y874594D01*
D02*
G37*
G36*
X448425Y627165D02*
X433465D01*
Y656299D01*
X448425D01*
Y627165D01*
D02*
G37*
G36*
X428740D02*
X413780D01*
Y656299D01*
X428740D01*
Y627165D01*
D02*
G37*
G36*
X409055D02*
X394095D01*
Y656299D01*
X409055D01*
Y627165D01*
D02*
G37*
G36*
X389370D02*
X374409D01*
Y656299D01*
X389370D01*
Y627165D01*
D02*
G37*
G36*
X369685D02*
X354724D01*
Y656299D01*
X369685D01*
Y627165D01*
D02*
G37*
G36*
X287008D02*
X272047D01*
Y656299D01*
X287008D01*
Y627165D01*
D02*
G37*
G36*
X267323D02*
X252362D01*
Y656299D01*
X267323D01*
Y627165D01*
D02*
G37*
G36*
X247638D02*
X232677D01*
Y656299D01*
X247638D01*
Y627165D01*
D02*
G37*
G36*
X227953D02*
X212992D01*
Y656299D01*
X227953D01*
Y627165D01*
D02*
G37*
G36*
X208268D02*
X193307D01*
Y656299D01*
X208268D01*
Y627165D01*
D02*
G37*
G36*
X125591D02*
X110630D01*
Y656299D01*
X125591D01*
Y627165D01*
D02*
G37*
G36*
X105906D02*
X90945D01*
Y656299D01*
X105906D01*
Y627165D01*
D02*
G37*
G36*
X86221D02*
X71260D01*
Y656299D01*
X86221D01*
Y627165D01*
D02*
G37*
G36*
X66535D02*
X51575D01*
Y656299D01*
X66535D01*
Y627165D01*
D02*
G37*
G36*
X46850D02*
X31890D01*
Y656299D01*
X46850D01*
Y627165D01*
D02*
G37*
G36*
X451575Y604134D02*
X471260D01*
Y588780D01*
X451575D01*
Y584449D01*
X471260D01*
Y569095D01*
X451575D01*
Y551378D01*
X351575D01*
Y569095D01*
X331890D01*
Y584449D01*
X351575D01*
Y588780D01*
X331890D01*
Y604134D01*
X351575D01*
Y621850D01*
X451575D01*
Y604134D01*
D02*
G37*
G36*
X290158D02*
X309842D01*
Y588780D01*
X290158D01*
Y584449D01*
X309842D01*
Y569095D01*
X290158D01*
Y551378D01*
X190157D01*
Y569095D01*
X170472D01*
Y584449D01*
X190157D01*
Y588780D01*
X170472D01*
Y604134D01*
X190157D01*
Y621850D01*
X290158D01*
Y604134D01*
D02*
G37*
G36*
X128740D02*
X148425D01*
Y588780D01*
X128740D01*
Y584449D01*
X148425D01*
Y569095D01*
X128740D01*
Y551378D01*
X28740D01*
Y569095D01*
X9055D01*
Y584449D01*
X28740D01*
Y588780D01*
X9055D01*
Y604134D01*
X28740D01*
Y621850D01*
X128740D01*
Y604134D01*
D02*
G37*
G36*
X448425Y516929D02*
X433465D01*
Y546063D01*
X448425D01*
Y516929D01*
D02*
G37*
G36*
X428740D02*
X413780D01*
Y546063D01*
X428740D01*
Y516929D01*
D02*
G37*
G36*
X409055D02*
X394095D01*
Y546063D01*
X409055D01*
Y516929D01*
D02*
G37*
G36*
X389370D02*
X374409D01*
Y546063D01*
X389370D01*
Y516929D01*
D02*
G37*
G36*
X369685D02*
X354724D01*
Y546063D01*
X369685D01*
Y516929D01*
D02*
G37*
G36*
X287008D02*
X272047D01*
Y546063D01*
X287008D01*
Y516929D01*
D02*
G37*
G36*
X267323D02*
X252362D01*
Y546063D01*
X267323D01*
Y516929D01*
D02*
G37*
G36*
X247638D02*
X232677D01*
Y546063D01*
X247638D01*
Y516929D01*
D02*
G37*
G36*
X227953D02*
X212992D01*
Y546063D01*
X227953D01*
Y516929D01*
D02*
G37*
G36*
X208268D02*
X193307D01*
Y546063D01*
X208268D01*
Y516929D01*
D02*
G37*
G36*
X125591D02*
X110630D01*
Y546063D01*
X125591D01*
Y516929D01*
D02*
G37*
G36*
X105906D02*
X90945D01*
Y546063D01*
X105906D01*
Y516929D01*
D02*
G37*
G36*
X86221D02*
X71260D01*
Y546063D01*
X86221D01*
Y516929D01*
D02*
G37*
G36*
X66535D02*
X51575D01*
Y546063D01*
X66535D01*
Y516929D01*
D02*
G37*
G36*
X46850D02*
X31890D01*
Y546063D01*
X46850D01*
Y516929D01*
D02*
G37*
G36*
X556701Y333638D02*
X557092Y333544D01*
X557465Y333389D01*
X557808Y333179D01*
X558114Y332917D01*
X558376Y332611D01*
X558586Y332268D01*
X558740Y331896D01*
X558835Y331504D01*
X558866Y331102D01*
Y316929D01*
X558835Y316527D01*
X558740Y316136D01*
X558586Y315764D01*
X558376Y315420D01*
X558114Y315114D01*
X557808Y314852D01*
X557465Y314642D01*
X557092Y314488D01*
X556701Y314394D01*
X556299Y314362D01*
X555118D01*
X554857Y314383D01*
X554719Y314393D01*
X554718Y314394D01*
X554716Y314394D01*
X554508Y314444D01*
X554327Y314487D01*
X554326Y314487D01*
X554325Y314488D01*
X554159Y314556D01*
X553955Y314641D01*
X553954Y314641D01*
X553953Y314642D01*
X553827Y314719D01*
X553611Y314851D01*
X553610Y314852D01*
X553609Y314852D01*
X553521Y314928D01*
X553305Y315112D01*
X546203Y322197D01*
X546202Y322199D01*
X546201Y322200D01*
X546121Y322294D01*
X545941Y322503D01*
X545940Y322505D01*
X545940Y322506D01*
X545877Y322608D01*
X545731Y322847D01*
X545730Y322848D01*
X545729Y322849D01*
X545659Y323018D01*
X545576Y323219D01*
X545576Y323220D01*
X545575Y323221D01*
X545522Y323442D01*
X545481Y323610D01*
X545481Y323611D01*
X545481Y323613D01*
X545460Y323885D01*
X545449Y324012D01*
X545450Y324012D01*
X545449Y324015D01*
Y331102D01*
X545481Y331504D01*
X545575Y331896D01*
X545729Y332268D01*
X545940Y332611D01*
X546201Y332917D01*
X546508Y333179D01*
X546851Y333389D01*
X547223Y333544D01*
X547615Y333638D01*
X548016Y333669D01*
X556299D01*
X556701Y333638D01*
D02*
G37*
G36*
X531125D02*
X531517Y333544D01*
X531889Y333389D01*
X532232Y333179D01*
X532539Y332917D01*
X532800Y332611D01*
X533011Y332268D01*
X533165Y331896D01*
X533259Y331504D01*
X533291Y331102D01*
Y324015D01*
X533290Y324012D01*
X533290Y324012D01*
X533280Y323885D01*
X533259Y323613D01*
X533259Y323611D01*
X533259Y323610D01*
X533218Y323442D01*
X533165Y323221D01*
X533164Y323220D01*
X533164Y323219D01*
X533081Y323018D01*
X533011Y322849D01*
X533010Y322848D01*
X533010Y322847D01*
X532863Y322608D01*
X532800Y322506D01*
X532800Y322505D01*
X532799Y322503D01*
X532619Y322294D01*
X532539Y322200D01*
X532538Y322199D01*
X532537Y322197D01*
X525435Y315112D01*
X525219Y314928D01*
X525131Y314852D01*
X525130Y314852D01*
X525129Y314851D01*
X524913Y314719D01*
X524787Y314642D01*
X524786Y314641D01*
X524785Y314641D01*
X524581Y314556D01*
X524415Y314488D01*
X524414Y314487D01*
X524413Y314487D01*
X524232Y314444D01*
X524024Y314394D01*
X524022Y314394D01*
X524021Y314393D01*
X523883Y314383D01*
X523622Y314362D01*
X522441D01*
X522039Y314394D01*
X521648Y314488D01*
X521275Y314642D01*
X520932Y314852D01*
X520626Y315114D01*
X520364Y315420D01*
X520154Y315764D01*
X520000Y316136D01*
X519905Y316527D01*
X519874Y316929D01*
Y331102D01*
X519905Y331504D01*
X520000Y331896D01*
X520154Y332268D01*
X520364Y332611D01*
X520626Y332917D01*
X520932Y333179D01*
X521275Y333389D01*
X521648Y333544D01*
X522039Y333638D01*
X522441Y333669D01*
X530724D01*
X531125Y333638D01*
D02*
G37*
G36*
X556701Y299779D02*
X557092Y299685D01*
X557465Y299531D01*
X557808Y299321D01*
X558114Y299059D01*
X558376Y298753D01*
X558586Y298409D01*
X558740Y298037D01*
X558835Y297646D01*
X558866Y297244D01*
Y283071D01*
X558835Y282669D01*
X558740Y282278D01*
X558586Y281906D01*
X558376Y281562D01*
X558114Y281256D01*
X557808Y280994D01*
X557465Y280784D01*
X557092Y280630D01*
X556701Y280536D01*
X556299Y280504D01*
X548016D01*
X547615Y280536D01*
X547223Y280630D01*
X546851Y280784D01*
X546508Y280994D01*
X546201Y281256D01*
X545940Y281562D01*
X545729Y281906D01*
X545575Y282278D01*
X545481Y282669D01*
X545449Y283071D01*
Y290159D01*
X545450Y290161D01*
X545449Y290161D01*
X545460Y290288D01*
X545481Y290560D01*
X545481Y290562D01*
X545481Y290563D01*
X545522Y290731D01*
X545575Y290952D01*
X545576Y290953D01*
X545576Y290955D01*
X545659Y291155D01*
X545729Y291324D01*
X545730Y291325D01*
X545731Y291327D01*
X545877Y291565D01*
X545940Y291667D01*
X545940Y291668D01*
X545941Y291670D01*
X546121Y291880D01*
X546201Y291974D01*
X546202Y291974D01*
X546203Y291976D01*
X553305Y299061D01*
X553521Y299245D01*
X553609Y299321D01*
X553610Y299321D01*
X553611Y299323D01*
X553827Y299454D01*
X553953Y299531D01*
X553954Y299532D01*
X553955Y299533D01*
X554159Y299617D01*
X554325Y299685D01*
X554326Y299686D01*
X554327Y299686D01*
X554508Y299729D01*
X554716Y299779D01*
X554718Y299780D01*
X554719Y299780D01*
X554857Y299791D01*
X555118Y299811D01*
X556299D01*
X556701Y299779D01*
D02*
G37*
G36*
X523883Y299791D02*
X524021Y299780D01*
X524022Y299780D01*
X524024Y299779D01*
X524232Y299729D01*
X524413Y299686D01*
X524414Y299686D01*
X524415Y299685D01*
X524581Y299617D01*
X524785Y299533D01*
X524786Y299532D01*
X524787Y299531D01*
X524913Y299454D01*
X525129Y299323D01*
X525130Y299321D01*
X525131Y299321D01*
X525219Y299245D01*
X525435Y299061D01*
X532537Y291976D01*
X532538Y291974D01*
X532539Y291974D01*
X532619Y291880D01*
X532799Y291670D01*
X532800Y291668D01*
X532800Y291667D01*
X532863Y291565D01*
X533010Y291327D01*
X533010Y291325D01*
X533011Y291324D01*
X533081Y291155D01*
X533164Y290955D01*
X533164Y290953D01*
X533165Y290952D01*
X533218Y290731D01*
X533259Y290563D01*
X533259Y290562D01*
X533259Y290560D01*
X533280Y290288D01*
X533290Y290161D01*
X533290Y290161D01*
X533291Y290159D01*
Y283071D01*
X533259Y282669D01*
X533165Y282278D01*
X533011Y281906D01*
X532800Y281562D01*
X532539Y281256D01*
X532232Y280994D01*
X531889Y280784D01*
X531517Y280630D01*
X531125Y280536D01*
X530724Y280504D01*
X522441D01*
X522039Y280536D01*
X521648Y280630D01*
X521275Y280784D01*
X520932Y280994D01*
X520626Y281256D01*
X520364Y281562D01*
X520154Y281906D01*
X520000Y282278D01*
X519905Y282669D01*
X519874Y283071D01*
Y297244D01*
X519905Y297646D01*
X520000Y298037D01*
X520154Y298409D01*
X520364Y298753D01*
X520626Y299059D01*
X520932Y299321D01*
X521275Y299531D01*
X521648Y299685D01*
X522039Y299779D01*
X522441Y299811D01*
X523622D01*
X523883Y299791D01*
D02*
G37*
D77*
X172244Y874016D02*
D03*
X126969D02*
D03*
X752953Y251969D02*
D03*
X798228D02*
D03*
X623032Y192913D02*
D03*
X668307D02*
D03*
X491142Y1251968D02*
D03*
X445866D02*
D03*
X491142Y1212598D02*
D03*
X445866D02*
D03*
X581693Y366142D02*
D03*
X536417D02*
D03*
X749016Y1196850D02*
D03*
X794291D02*
D03*
X644685Y940945D02*
D03*
X599409D02*
D03*
X758858Y51181D02*
D03*
X713583D02*
D03*
X589567D02*
D03*
X544291D02*
D03*
D79*
X72441Y818898D02*
D03*
X37795D02*
D03*
X159842Y1051181D02*
D03*
X194488D02*
D03*
X485827Y1173228D02*
D03*
X451181D02*
D03*
X632283Y586614D02*
D03*
X666929D02*
D03*
X545669Y248031D02*
D03*
X580315D02*
D03*
X640157Y1000000D02*
D03*
X674803D02*
D03*
X659842Y1196850D02*
D03*
X694488D02*
D03*
X640157Y1039370D02*
D03*
X674803D02*
D03*
X608661Y822835D02*
D03*
X643307D02*
D03*
X37795Y299213D02*
D03*
X72441D02*
D03*
X304724Y456693D02*
D03*
X270079D02*
D03*
X304724Y496063D02*
D03*
X270079D02*
D03*
X143307Y456693D02*
D03*
X108662D02*
D03*
X466142D02*
D03*
X431496D02*
D03*
X143307Y496063D02*
D03*
X108662D02*
D03*
X466142D02*
D03*
X431496D02*
D03*
X395276Y299213D02*
D03*
X360630D02*
D03*
X233858D02*
D03*
X199213D02*
D03*
D80*
X228346Y1409449D02*
D03*
X66929D02*
D03*
X413386Y74803D02*
D03*
X251969D02*
D03*
X90551D02*
D03*
D81*
X771654Y328346D02*
D03*
Y293701D02*
D03*
X712598Y261417D02*
D03*
Y226772D02*
D03*
X515748Y608661D02*
D03*
Y643307D02*
D03*
X692913Y694488D02*
D03*
Y659843D02*
D03*
Y738583D02*
D03*
Y773228D02*
D03*
X350394Y191339D02*
D03*
X582677Y324409D02*
D03*
Y289764D02*
D03*
X350394Y225984D02*
D03*
X716535Y1037008D02*
D03*
Y1002362D02*
D03*
X799213Y998425D02*
D03*
Y1033071D02*
D03*
X645669Y899213D02*
D03*
Y864567D02*
D03*
X503937Y96850D02*
D03*
Y131496D02*
D03*
X673228Y127559D02*
D03*
Y92913D02*
D03*
X251969Y1100000D02*
D03*
Y1065354D02*
D03*
D82*
X531496Y491142D02*
D03*
Y445866D02*
D03*
X610236Y491142D02*
D03*
Y445866D02*
D03*
X570866Y491142D02*
D03*
Y445866D02*
D03*
X791339Y1282480D02*
D03*
Y1237205D02*
D03*
X759843Y1038386D02*
D03*
Y993110D02*
D03*
X629921Y132874D02*
D03*
Y87599D02*
D03*
X799212Y132874D02*
D03*
Y87599D02*
D03*
X409449Y355315D02*
D03*
Y400591D02*
D03*
X287402Y355315D02*
D03*
Y400591D02*
D03*
X248032Y355315D02*
D03*
Y400591D02*
D03*
X448819Y355315D02*
D03*
Y400591D02*
D03*
X125984Y355315D02*
D03*
Y400591D02*
D03*
X86614Y355315D02*
D03*
Y400591D02*
D03*
D84*
X783465Y1397638D02*
D03*
X712598D02*
D03*
X641732D02*
D03*
D89*
X783465Y771654D02*
D03*
Y661417D02*
D03*
Y716535D02*
D03*
D90*
X149606Y1145669D02*
D03*
X39370D02*
D03*
D96*
X335629Y1409450D02*
D03*
X361219D02*
D03*
X386811D02*
D03*
X412401D02*
D03*
D97*
X361220Y1300394D02*
D03*
X386811D02*
D03*
X335630D02*
D03*
X412401D02*
D03*
D98*
X287402Y818898D02*
D03*
Y708661D02*
D03*
X157480Y818898D02*
D03*
Y708661D02*
D03*
X417323Y818898D02*
D03*
Y708661D02*
D03*
X692913Y318898D02*
D03*
Y429134D02*
D03*
D104*
X62992Y1358268D02*
D03*
Y1248032D02*
D03*
D105*
X45276Y771654D02*
D03*
X72835D02*
D03*
X553150Y960630D02*
D03*
X525591D02*
D03*
X458661Y929134D02*
D03*
X431102D02*
D03*
X458661Y980315D02*
D03*
X431102D02*
D03*
X458661Y881890D02*
D03*
X431102D02*
D03*
X442913Y1055118D02*
D03*
X415354D02*
D03*
D106*
X118110Y1270669D02*
D03*
Y1296260D02*
D03*
D107*
X121063Y1322835D02*
D03*
X146654D02*
D03*
D108*
X147638Y1007874D02*
D03*
X173228D02*
D03*
X198819D02*
D03*
Y921260D02*
D03*
X147638D02*
D03*
X173228D02*
D03*
X592520Y90551D02*
D03*
X566929D02*
D03*
X541339D02*
D03*
Y177165D02*
D03*
X592520D02*
D03*
X566929D02*
D03*
X761811Y90551D02*
D03*
X736220D02*
D03*
X710630D02*
D03*
Y177165D02*
D03*
X761811D02*
D03*
X736220D02*
D03*
D109*
X488189Y1047244D02*
D03*
Y1019685D02*
D03*
X480315Y1116142D02*
D03*
Y1143701D02*
D03*
X531496Y820866D02*
D03*
Y793307D02*
D03*
D110*
X537992Y738189D02*
D03*
Y718504D02*
D03*
Y698819D02*
D03*
Y679134D02*
D03*
X650984D02*
D03*
Y698819D02*
D03*
Y718504D02*
D03*
Y738189D02*
D03*
D111*
X624016Y765158D02*
D03*
X604331D02*
D03*
X584646D02*
D03*
X564961D02*
D03*
Y652165D02*
D03*
X584646D02*
D03*
X604331D02*
D03*
X624016D02*
D03*
D112*
X383858Y171260D02*
D03*
X403543D02*
D03*
X423228D02*
D03*
X442913D02*
D03*
Y246063D02*
D03*
X423228D02*
D03*
X403543D02*
D03*
X383858D02*
D03*
D113*
X539370Y307087D02*
D03*
X602362Y881890D02*
D03*
D114*
X362205Y1110236D02*
D03*
Y1090551D02*
D03*
Y1070866D02*
D03*
Y1051181D02*
D03*
X287401D02*
D03*
Y1070866D02*
D03*
Y1090551D02*
D03*
Y1110236D02*
D03*
D115*
X324803Y1080709D02*
D03*
D116*
X654134D02*
D03*
Y1118110D02*
D03*
Y1155512D02*
D03*
X747441Y1080709D02*
D03*
Y1118110D02*
D03*
Y1155512D02*
D03*
D117*
X669291Y1251968D02*
D03*
X732284D02*
D03*
D118*
X574803Y1067913D02*
D03*
Y1168307D02*
D03*
D119*
X413386Y208661D02*
D03*
D120*
X74803Y178150D02*
D03*
Y247047D02*
D03*
X236220D02*
D03*
Y178150D02*
D03*
%TF.MD5,510eda8529dc2934bd45c636383f7071*%
M02*
