%TF.GenerationSoftware,Altium Limited,Altium Designer,24.6.1 (21)*%
G04 Layer_Color=65535*
%FSLAX26Y26*%
%MOIN*%
%TF.SameCoordinates,E3325630-42F2-41CE-953C-F4D0AC061200*%
%TF.FilePolarity,Positive*%
%TF.FileFunction,Legend,Top*%
%TF.Part,Single*%
G01*
G75*
%TA.AperFunction,NonConductor*%
%ADD66C,0.007874*%
%ADD67C,0.005906*%
%ADD68C,0.003937*%
%ADD69C,0.005000*%
%ADD70C,0.004724*%
%ADD71C,0.010000*%
G36*
X803150Y700787D02*
X591128D01*
Y825787D01*
X803150D01*
Y700787D01*
D02*
G37*
%LPC*%
G36*
X699673Y798553D02*
X698013D01*
X695566Y798466D01*
X693381Y798291D01*
X691370Y798029D01*
X689710Y797767D01*
X688923Y797592D01*
X688312Y797417D01*
X687700Y797242D01*
X687263Y797155D01*
X686913Y797067D01*
X686651Y796980D01*
X686476Y796893D01*
X686389D01*
X684641Y796193D01*
X683067Y795494D01*
X681669Y794795D01*
X680533Y794096D01*
X679572Y793572D01*
X678960Y793047D01*
X678523Y792697D01*
X678348Y792610D01*
X677299Y791561D01*
X676338Y790513D01*
X675551Y789551D01*
X674939Y788590D01*
X674415Y787716D01*
X674065Y787104D01*
X673890Y786667D01*
X673803Y786492D01*
X673366Y785181D01*
X673016Y783957D01*
X672754Y782821D01*
X672580Y781773D01*
X672492Y780899D01*
X672405Y780199D01*
Y779762D01*
Y779587D01*
X672492Y778102D01*
X672667Y776791D01*
X672842Y775654D01*
X673191Y774606D01*
X673453Y773732D01*
X673628Y773120D01*
X673803Y772770D01*
X673890Y772596D01*
X674502Y771547D01*
X675202Y770585D01*
X675901Y769711D01*
X676513Y769012D01*
X677124Y768400D01*
X677561Y767876D01*
X677911Y767614D01*
X677998Y767526D01*
X680009Y766040D01*
X680970Y765341D01*
X681844Y764817D01*
X682630Y764293D01*
X683242Y763943D01*
X683592Y763768D01*
X683767Y763681D01*
X686126Y762544D01*
X687263Y762020D01*
X688224Y761583D01*
X689098Y761234D01*
X689797Y760971D01*
X690147Y760797D01*
X690322Y760709D01*
X692769Y759748D01*
X693818Y759311D01*
X694866Y758874D01*
X695653Y758611D01*
X696352Y758349D01*
X696702Y758174D01*
X696877Y758087D01*
X698013Y757563D01*
X699149Y757126D01*
X700111Y756601D01*
X700985Y756164D01*
X701684Y755815D01*
X702208Y755465D01*
X702558Y755290D01*
X702645Y755203D01*
X703519Y754591D01*
X704393Y754067D01*
X705092Y753455D01*
X705617Y752931D01*
X706141Y752406D01*
X706491Y752057D01*
X706665Y751794D01*
X706753Y751707D01*
X707277Y750920D01*
X707627Y750134D01*
X707976Y749347D01*
X708151Y748648D01*
X708239Y747949D01*
X708326Y747424D01*
Y747075D01*
Y746987D01*
Y746026D01*
X708151Y745239D01*
X708064Y744453D01*
X707889Y743754D01*
X707714Y743229D01*
X707539Y742792D01*
X707452Y742530D01*
X707365Y742442D01*
X706928Y741743D01*
X706491Y741044D01*
X705966Y740520D01*
X705529Y739995D01*
X705092Y739558D01*
X704743Y739296D01*
X704481Y739121D01*
X704393Y739034D01*
X703606Y738510D01*
X702732Y738160D01*
X701859Y737723D01*
X700985Y737461D01*
X700285Y737198D01*
X699673Y737111D01*
X699324Y736936D01*
X699149D01*
X697926Y736674D01*
X696615Y736499D01*
X695391Y736412D01*
X694167Y736324D01*
X693119Y736237D01*
X689273D01*
X687175Y736324D01*
X685253Y736499D01*
X683592Y736674D01*
X682281Y736761D01*
X681669Y736849D01*
X681232Y736936D01*
X680883D01*
X680620Y737024D01*
X680358D01*
X678610Y737373D01*
X676949Y737723D01*
X675376Y738160D01*
X674153Y738510D01*
X673016Y738859D01*
X672230Y739121D01*
X671706Y739296D01*
X671618Y739384D01*
X671531D01*
Y730381D01*
X672929Y730032D01*
X674153Y729682D01*
X674677Y729595D01*
X675114Y729507D01*
X675376Y729420D01*
X675464D01*
X677124Y729158D01*
X677911Y729070D01*
X678610Y728983D01*
X679309Y728895D01*
X679746D01*
X680096Y728808D01*
X680183D01*
X682106Y728546D01*
X682980Y728458D01*
X683767D01*
X684466Y728371D01*
X684990Y728284D01*
X685427D01*
X687438Y728109D01*
X688312D01*
X689186Y728021D01*
X690846D01*
X693031Y728109D01*
X695129Y728196D01*
X696964Y728371D01*
X698625Y728633D01*
X699936Y728808D01*
X700548Y728895D01*
X700985Y728983D01*
X701334Y729070D01*
X701596D01*
X701771Y729158D01*
X701859D01*
X703694Y729682D01*
X705355Y730294D01*
X706840Y730818D01*
X708064Y731430D01*
X709113Y731955D01*
X709899Y732391D01*
X710336Y732741D01*
X710511Y732828D01*
X711822Y733790D01*
X712871Y734839D01*
X713832Y735800D01*
X714619Y736849D01*
X715318Y737635D01*
X715755Y738335D01*
X716017Y738772D01*
X716105Y738947D01*
X716804Y740345D01*
X717241Y741831D01*
X717591Y743229D01*
X717853Y744628D01*
X718028Y745764D01*
X718115Y746725D01*
Y747512D01*
X718028Y748997D01*
X717853Y750396D01*
X717591Y751532D01*
X717328Y752581D01*
X717066Y753455D01*
X716804Y754067D01*
X716629Y754416D01*
X716542Y754591D01*
X715930Y755640D01*
X715231Y756689D01*
X714532Y757563D01*
X713920Y758262D01*
X713308Y758874D01*
X712871Y759398D01*
X712521Y759660D01*
X712434Y759748D01*
X710424Y761321D01*
X709462Y762020D01*
X708588Y762544D01*
X707802Y763069D01*
X707190Y763418D01*
X706840Y763593D01*
X706665Y763681D01*
X704306Y764817D01*
X703169Y765341D01*
X702208Y765778D01*
X701334Y766128D01*
X700722Y766390D01*
X700285Y766565D01*
X700111Y766652D01*
X697663Y767614D01*
X696615Y768138D01*
X695566Y768488D01*
X694779Y768837D01*
X694080Y769100D01*
X693730Y769187D01*
X693556Y769274D01*
X692419Y769799D01*
X691283Y770323D01*
X690322Y770760D01*
X689448Y771197D01*
X688749Y771634D01*
X688224Y771896D01*
X687875Y772071D01*
X687787Y772159D01*
X686913Y772770D01*
X686039Y773382D01*
X685340Y773994D01*
X684816Y774518D01*
X684291Y775043D01*
X683942Y775392D01*
X683767Y775654D01*
X683679Y775742D01*
X683155Y776529D01*
X682805Y777315D01*
X682543Y778189D01*
X682368Y778888D01*
X682281Y779587D01*
X682193Y780112D01*
Y780462D01*
Y780549D01*
X682281Y781336D01*
X682368Y782122D01*
X682805Y783520D01*
X683417Y784744D01*
X684116Y785793D01*
X684728Y786667D01*
X685340Y787191D01*
X685777Y787628D01*
X685952Y787716D01*
X686738Y788153D01*
X687525Y788590D01*
X689360Y789289D01*
X691370Y789726D01*
X693293Y790076D01*
X695041Y790250D01*
X695740Y790338D01*
X696440Y790425D01*
X697751D01*
X700635Y790338D01*
X701946Y790250D01*
X703169Y790163D01*
X704131Y789988D01*
X704918Y789901D01*
X705442Y789813D01*
X705617D01*
X707102Y789551D01*
X708588Y789289D01*
X709987Y789027D01*
X711210Y788677D01*
X712259Y788502D01*
X713046Y788240D01*
X713570Y788153D01*
X713658Y788065D01*
X713745D01*
Y796456D01*
X712434Y796718D01*
X711210Y796980D01*
X710686Y797067D01*
X710249D01*
X709987Y797155D01*
X709899D01*
X708413Y797417D01*
X707714Y797592D01*
X707102Y797679D01*
X706578Y797767D01*
X706141D01*
X705879Y797854D01*
X705792D01*
X704306Y798116D01*
X703606Y798204D01*
X702995Y798291D01*
X702470D01*
X702033Y798379D01*
X701684D01*
X700285Y798466D01*
X699673Y798553D01*
D02*
G37*
G36*
X761990Y798466D02*
X760242D01*
X757707Y798379D01*
X755347Y798116D01*
X753162Y797679D01*
X751327Y797242D01*
X750453Y796980D01*
X749754Y796718D01*
X749142Y796543D01*
X748530Y796368D01*
X748181Y796193D01*
X747831Y796019D01*
X747656Y795931D01*
X747569D01*
X745558Y794883D01*
X743636Y793746D01*
X741975Y792523D01*
X740577Y791386D01*
X739441Y790338D01*
X738567Y789464D01*
X738304Y789114D01*
X738042Y788852D01*
X737955Y788764D01*
X737867Y788677D01*
X736469Y786842D01*
X735245Y785006D01*
X734197Y783083D01*
X733322Y781336D01*
X732623Y779762D01*
X732361Y779063D01*
X732186Y778539D01*
X732011Y778014D01*
X731837Y777665D01*
X731749Y777490D01*
Y777403D01*
X731050Y774868D01*
X730526Y772246D01*
X730176Y769799D01*
X729914Y767439D01*
X729827Y766390D01*
X729739Y765429D01*
Y764555D01*
X729652Y763856D01*
Y762457D01*
X729739Y759398D01*
X730001Y756514D01*
X730351Y753804D01*
X730875Y751270D01*
X731487Y748997D01*
X732099Y746900D01*
X732798Y744977D01*
X733585Y743229D01*
X734284Y741743D01*
X734983Y740432D01*
X735595Y739296D01*
X736207Y738422D01*
X736731Y737723D01*
X737081Y737198D01*
X737343Y736849D01*
X737430Y736761D01*
X739004Y735276D01*
X740664Y733877D01*
X742412Y732741D01*
X744160Y731780D01*
X746083Y730906D01*
X747918Y730207D01*
X749754Y729682D01*
X751502Y729158D01*
X753162Y728808D01*
X754736Y728546D01*
X756134Y728371D01*
X757357Y728284D01*
X758319Y728196D01*
X759106Y728109D01*
X759717D01*
X763038Y728284D01*
X766185Y728633D01*
X769157Y729158D01*
X770467Y729507D01*
X771779Y729857D01*
X772915Y730119D01*
X773963Y730469D01*
X774837Y730731D01*
X775624Y730993D01*
X776236Y731168D01*
X776673Y731343D01*
X776935Y731518D01*
X777023D01*
Y740345D01*
X774226Y739121D01*
X772915Y738597D01*
X771691Y738247D01*
X770730Y737898D01*
X769943Y737635D01*
X769419Y737548D01*
X769331Y737461D01*
X769244D01*
X767758Y737111D01*
X766185Y736936D01*
X764787Y736761D01*
X763476Y736587D01*
X762427D01*
X761553Y736499D01*
X760766D01*
X758843Y736587D01*
X757095Y736761D01*
X755435Y737111D01*
X753949Y737548D01*
X752463Y738072D01*
X751152Y738597D01*
X750016Y739209D01*
X748967Y739908D01*
X748006Y740520D01*
X747219Y741131D01*
X746520Y741656D01*
X745995Y742180D01*
X745558Y742617D01*
X745209Y742967D01*
X745034Y743142D01*
X744947Y743229D01*
X743985Y744540D01*
X743199Y746026D01*
X742500Y747599D01*
X741888Y749260D01*
X741363Y750920D01*
X740926Y752581D01*
X740314Y755815D01*
X740052Y757388D01*
X739878Y758786D01*
X739790Y760010D01*
X739703Y761146D01*
X739615Y762020D01*
Y762719D01*
Y763156D01*
Y763331D01*
X739703Y765691D01*
X739878Y767788D01*
X740052Y769711D01*
X740314Y771372D01*
X740577Y772683D01*
X740664Y773295D01*
X740839Y773732D01*
X740926Y774081D01*
Y774343D01*
X741014Y774518D01*
Y774606D01*
X741625Y776441D01*
X742325Y778014D01*
X743024Y779413D01*
X743636Y780636D01*
X744247Y781685D01*
X744772Y782384D01*
X745121Y782821D01*
X745209Y782996D01*
X746258Y784220D01*
X747394Y785269D01*
X748530Y786230D01*
X749579Y787016D01*
X750453Y787541D01*
X751240Y787978D01*
X751677Y788240D01*
X751851Y788327D01*
X753337Y788939D01*
X754910Y789376D01*
X756309Y789726D01*
X757707Y789901D01*
X758843Y790076D01*
X759805Y790163D01*
X760591D01*
X762339Y790076D01*
X763913Y789988D01*
X765398Y789813D01*
X766709Y789639D01*
X767758Y789376D01*
X768545Y789202D01*
X769069Y789114D01*
X769244Y789027D01*
X770730Y788590D01*
X772128Y788153D01*
X773439Y787628D01*
X774663Y787104D01*
X775624Y786667D01*
X776411Y786317D01*
X776848Y786055D01*
X777023Y785968D01*
Y795145D01*
X774138Y796193D01*
X772827Y796630D01*
X771604Y796980D01*
X770555Y797242D01*
X769768Y797417D01*
X769244Y797592D01*
X769069D01*
X766010Y798116D01*
X764524Y798291D01*
X763126Y798379D01*
X761990Y798466D01*
D02*
G37*
G36*
X656236Y797592D02*
X617255D01*
Y728983D01*
X656236D01*
Y736936D01*
X626607D01*
Y760622D01*
X655012D01*
Y768488D01*
X626607D01*
Y789726D01*
X656236D01*
Y797592D01*
D02*
G37*
%LPD*%
D66*
X363958Y672659D02*
G03*
X363958Y672659I-3937J0D01*
G01*
D02*
G03*
X363958Y672659I-3937J0D01*
G01*
X401575Y1303150D02*
X433071D01*
X401575Y1460630D02*
X433071D01*
X522362Y220984D02*
X552362D01*
X522362Y105984D02*
Y220984D01*
X571417Y25984D02*
X750472D01*
X800472Y105984D02*
Y220984D01*
X770472D02*
X800472D01*
X617598Y1120866D02*
Y1150866D01*
X732598D01*
X812598Y921811D02*
Y1100866D01*
X617598Y872756D02*
X732598D01*
X617598D02*
Y902756D01*
D67*
X305512Y1224409D02*
G03*
X305512Y1224409I-2362J0D01*
G01*
X533740Y1196535D02*
Y1201535D01*
Y1196535D02*
X623740D01*
Y1201535D01*
Y1231535D02*
Y1236535D01*
X533740D02*
X623740D01*
X533740Y1231535D02*
Y1236535D01*
X578740Y1196535D02*
Y1236535D01*
X111929Y822087D02*
Y827087D01*
X21929D02*
X111929D01*
X21929Y822087D02*
Y827087D01*
Y787087D02*
Y792087D01*
Y787087D02*
X111929D01*
Y792087D01*
X66929Y787087D02*
Y827087D01*
X70866Y773622D02*
Y787402D01*
Y732283D02*
Y746063D01*
X125866Y769842D02*
X130866D01*
Y787402D01*
X125866D02*
X130866D01*
X125866Y749842D02*
X130866D01*
Y732283D02*
Y749842D01*
X125866Y732283D02*
X130866D01*
X10866Y779842D02*
Y787402D01*
X129921D01*
X125866Y769842D02*
Y787402D01*
Y732283D02*
Y749842D01*
X10866Y732283D02*
X129921D01*
X10866D02*
Y739842D01*
X574803Y1236220D02*
Y1250000D01*
Y1277559D02*
Y1291339D01*
X514803Y1253779D02*
X519803D01*
X514803Y1236220D02*
Y1253779D01*
Y1236220D02*
X519803D01*
X514803Y1273779D02*
X519803D01*
X514803D02*
Y1291339D01*
X519803D01*
X634803Y1236220D02*
Y1243779D01*
X515748Y1236220D02*
X634803D01*
X519803D02*
Y1253779D01*
Y1273779D02*
Y1291339D01*
X515748D02*
X634803D01*
Y1283779D02*
Y1291339D01*
X70866Y1291339D02*
Y1299213D01*
X149606D01*
Y1291339D02*
Y1299213D01*
Y1259843D02*
Y1267717D01*
X70866Y1259843D02*
X149606D01*
X70866D02*
Y1267717D01*
X562992Y1125984D02*
X570866D01*
Y1204724D01*
X562992D02*
X570866D01*
X531496D02*
X539370D01*
X531496Y1125984D02*
Y1204724D01*
Y1125984D02*
X539370D01*
X533189Y1160669D02*
Y1165669D01*
X443189D02*
X533189D01*
X443189Y1160669D02*
Y1165669D01*
Y1125669D02*
Y1130669D01*
Y1125669D02*
X533189D01*
Y1130669D01*
X488189Y1125669D02*
Y1165669D01*
X526811Y1163661D02*
X531811D01*
Y1253661D01*
X526811D02*
X531811D01*
X491811D02*
X496811D01*
X491811Y1163661D02*
Y1253661D01*
Y1163661D02*
X496811D01*
X491811Y1208661D02*
X531811D01*
X466675Y1060604D02*
X472243Y1066172D01*
X410998Y1116282D02*
X466675Y1060604D01*
X410998Y1116282D02*
X416565Y1121849D01*
X433269Y1138553D02*
X438837Y1144120D01*
X494514Y1088443D01*
X488946Y1082875D02*
X494514Y1088443D01*
X442494Y773482D02*
X448062Y767914D01*
X442494Y773482D02*
X498171Y829160D01*
X503739Y823592D01*
X520442Y806889D02*
X526010Y801321D01*
X470332Y745643D02*
X526010Y801321D01*
X464765Y751211D02*
X470332Y745643D01*
X405512Y1244094D02*
Y1251968D01*
Y1244094D02*
X484252D01*
Y1251968D01*
Y1275591D02*
Y1283465D01*
X405512D02*
X484252D01*
X405512Y1275591D02*
Y1283465D01*
X303150Y1196850D02*
Y1204724D01*
Y1196850D02*
X381890D01*
Y1204724D01*
Y1228346D02*
Y1236220D01*
X303150D02*
X381890D01*
X303150Y1228346D02*
Y1236220D01*
X94488Y1097441D02*
Y1225394D01*
X187992Y1210630D02*
Y1225394D01*
X984D02*
X187992D01*
X984Y1210630D02*
Y1225394D01*
Y1097441D02*
Y1112205D01*
Y1097441D02*
X187992D01*
Y1112205D01*
X632165Y1184724D02*
Y1189724D01*
Y1184724D02*
X722165D01*
Y1189724D01*
Y1219724D02*
Y1224724D01*
X632165D02*
X722165D01*
X632165Y1219724D02*
Y1224724D01*
X677165Y1184724D02*
Y1224724D01*
X206969Y1172913D02*
Y1177913D01*
Y1172913D02*
X296969D01*
Y1177913D01*
Y1207913D02*
Y1212913D01*
X206969D02*
X296969D01*
X206969Y1207913D02*
Y1212913D01*
X251969Y1172913D02*
Y1212913D01*
X399331Y1270906D02*
Y1275906D01*
X309331D02*
X399331D01*
X309331Y1270906D02*
Y1275906D01*
Y1235906D02*
Y1240906D01*
Y1235906D02*
X399331D01*
Y1240906D01*
X354331Y1235906D02*
Y1275906D01*
X399882Y1204409D02*
Y1209409D01*
Y1204409D02*
X489882D01*
Y1209409D01*
Y1239409D02*
Y1244409D01*
X399882D02*
X489882D01*
X399882Y1239409D02*
Y1244409D01*
X444882Y1204409D02*
Y1244409D01*
X489882Y1200040D02*
Y1205040D01*
X399882D02*
X489882D01*
X399882Y1200040D02*
Y1205040D01*
Y1165040D02*
Y1170040D01*
Y1165040D02*
X489882D01*
Y1170040D01*
X444882Y1165040D02*
Y1205040D01*
X609252Y393701D02*
X737205D01*
X722441Y300197D02*
X737205D01*
Y487205D01*
X722441D02*
X737205D01*
X609252D02*
X624016D01*
X609252Y300197D02*
Y487205D01*
Y300197D02*
X624016D01*
X22638Y566929D02*
X150591D01*
X22638Y660433D02*
X37402D01*
X22638Y473425D02*
Y660433D01*
Y473425D02*
X37402D01*
X135827D02*
X150591D01*
Y660433D01*
X135827D02*
X150591D01*
X479331Y393701D02*
X607284D01*
X592520Y300197D02*
X607284D01*
Y487205D01*
X592520D02*
X607284D01*
X479331D02*
X494094D01*
X479331Y300197D02*
Y487205D01*
Y300197D02*
X494094D01*
X345472Y566929D02*
X473425D01*
X345472Y660433D02*
X360236D01*
X345472Y473425D02*
Y660433D01*
Y473425D02*
X360236D01*
X458661D02*
X473425D01*
Y660433D01*
X458661D02*
X473425D01*
X184055Y566929D02*
X312008D01*
X184055Y660433D02*
X198819D01*
X184055Y473425D02*
Y660433D01*
Y473425D02*
X198819D01*
X297244D02*
X312008D01*
Y660433D01*
X297244D02*
X312008D01*
X542992Y547244D02*
X582992D01*
X577992Y592244D02*
X582992D01*
Y502244D02*
Y592244D01*
X577992Y502244D02*
X582992D01*
X542992D02*
X547992D01*
X542992D02*
Y592244D01*
X547992D01*
X535433Y594173D02*
Y634173D01*
X490433Y629173D02*
Y634173D01*
X580433D01*
Y629173D02*
Y634173D01*
Y594173D02*
Y599173D01*
X490433Y594173D02*
X580433D01*
X490433D02*
Y599173D01*
X553111Y829427D02*
X556646Y825891D01*
X489471Y765787D02*
X553111Y829427D01*
X489471Y765787D02*
X493007Y762251D01*
X514220Y741038D02*
X517755Y737503D01*
X581395Y801142D01*
X577860Y804678D02*
X581395Y801142D01*
X521291Y797607D02*
X549575Y769322D01*
X555118Y834646D02*
Y842520D01*
Y834646D02*
X633858Y834646D01*
Y842520D01*
Y866142D02*
Y874016D01*
X555118Y874016D02*
X633858Y874016D01*
X555118Y866142D02*
Y874016D01*
X114760Y789025D02*
X120328Y794593D01*
X114760Y789025D02*
X170438Y733347D01*
X176005Y738915D01*
X192708Y755619D02*
X198276Y761186D01*
X142599Y816864D02*
X198276Y761186D01*
X137031Y811296D02*
X142599Y816864D01*
X78740Y1059055D02*
Y1066929D01*
Y1059055D02*
X157480Y1059055D01*
Y1066929D01*
Y1090551D02*
Y1098425D01*
X78740Y1098425D02*
X157480Y1098425D01*
X78740Y1090551D02*
Y1098425D01*
X494761Y1032615D02*
X500329Y1038183D01*
X494761Y1032615D02*
X550438Y976938D01*
X556006Y982505D01*
X572710Y999208D02*
X578277Y1004776D01*
X522600Y1060454D02*
X578277Y1004776D01*
X517032Y1054886D02*
X522600Y1060454D01*
X621732Y592244D02*
X626732D01*
X621732Y502244D02*
Y592244D01*
Y502244D02*
X626732D01*
X656732D02*
X661732D01*
Y592244D01*
X656732D02*
X661732D01*
X621732Y547244D02*
X661732D01*
X577047Y594173D02*
Y599173D01*
Y594173D02*
X667047D01*
Y599173D01*
Y629173D02*
Y634173D01*
X577047D02*
X667047D01*
X577047Y629173D02*
Y634173D01*
X622047Y594173D02*
Y634173D01*
X700472Y592244D02*
X705472D01*
X700472Y502244D02*
Y592244D01*
Y502244D02*
X705472D01*
X735472D02*
X740472D01*
Y592244D01*
X735472D02*
X740472D01*
X700472Y547244D02*
X740472D01*
X753661Y629173D02*
Y634173D01*
X663661D02*
X753661D01*
X663661Y629173D02*
Y634173D01*
Y594173D02*
Y599173D01*
Y594173D02*
X753661D01*
Y599173D01*
X708661Y594173D02*
Y634173D01*
X538622Y502244D02*
X543622D01*
Y592244D01*
X538622D02*
X543622D01*
X503622D02*
X508622D01*
X503622Y502244D02*
Y592244D01*
Y502244D02*
X508622D01*
X503622Y547244D02*
X543622D01*
X617362Y502244D02*
X622362D01*
Y592244D01*
X617362D02*
X622362D01*
X582362D02*
X587362D01*
X582362Y502244D02*
Y592244D01*
Y502244D02*
X587362D01*
X582362Y547244D02*
X622362D01*
X696102Y502244D02*
X701102D01*
Y592244D01*
X696102D02*
X701102D01*
X661102D02*
X666102D01*
X661102Y502244D02*
Y592244D01*
Y502244D02*
X666102D01*
X661102Y547244D02*
X701102D01*
X643701Y677816D02*
X652884Y659449D01*
X662067Y677816D01*
X671251Y682407D02*
X675843Y686999D01*
X685026D01*
X689618Y682407D01*
Y677816D01*
X685026Y673224D01*
X680434D01*
X685026D01*
X689618Y668632D01*
Y664040D01*
X685026Y659449D01*
X675843D01*
X671251Y664040D01*
X698801Y659449D02*
Y664040D01*
X703393D01*
Y659449D01*
X698801D01*
X721760Y682407D02*
X726351Y686999D01*
X735535D01*
X740126Y682407D01*
Y664040D01*
X735535Y659449D01*
X726351D01*
X721760Y664040D01*
Y682407D01*
D68*
X63976Y750000D02*
X77756Y759842D01*
X63976Y750000D02*
Y759842D01*
X77756Y750984D02*
Y759842D01*
Y768701D01*
X63976Y759842D02*
Y769685D01*
X77756Y759842D01*
X567913Y1263779D02*
X581693Y1273622D01*
Y1263779D02*
Y1273622D01*
X567913Y1263779D02*
Y1272638D01*
Y1254921D02*
Y1263779D01*
X581693Y1253937D02*
Y1263779D01*
X567913D02*
X581693Y1253937D01*
D69*
X311442Y679479D02*
X319794Y687831D01*
X553640Y921677D02*
X561992Y930029D01*
X60892D02*
X69244Y938381D01*
X303090Y1172227D02*
X311442Y1180579D01*
X303090Y687831D02*
X311442Y679479D01*
X553640Y938381D02*
X561992Y930029D01*
X60892D02*
X69244Y921677D01*
X311442Y1180579D02*
X319794Y1172227D01*
X24607Y334449D02*
Y368898D01*
Y424016D02*
Y458465D01*
X148622Y424016D02*
Y458465D01*
Y334449D02*
Y368898D01*
X275591Y290354D02*
X310040D01*
X186024D02*
X220473D01*
X186024Y166339D02*
X220473D01*
X275591D02*
X310040D01*
X114174Y290354D02*
X148622D01*
X24607D02*
X59055D01*
X24607Y166339D02*
X59055D01*
X114174D02*
X148622D01*
X310039Y334449D02*
Y368898D01*
Y424016D02*
Y458465D01*
X186024Y424016D02*
Y458465D01*
Y334449D02*
Y368898D01*
X471457Y334449D02*
Y368898D01*
Y424016D02*
Y458465D01*
X347441Y424016D02*
Y458465D01*
Y334449D02*
Y368898D01*
X437008Y290354D02*
X471457D01*
X347441D02*
X381890D01*
X347441Y166339D02*
X381890D01*
X437008D02*
X471457D01*
D70*
X733278Y274484D02*
X728687Y279076D01*
X719503D01*
X714912Y274484D01*
Y256118D01*
X719503Y251526D01*
X728687D01*
X733278Y256118D01*
Y265301D01*
X724095D01*
X766938Y1280315D02*
Y1298682D01*
Y1289498D01*
X794488D01*
X766938Y1307865D02*
X794488Y1326232D01*
X766938D02*
X794488Y1307865D01*
X723622Y1280315D02*
X696072D01*
Y1294090D01*
X700663Y1298682D01*
X709847D01*
X714438Y1294090D01*
Y1280315D01*
Y1289498D02*
X723622Y1298682D01*
X696072Y1307865D02*
X723622Y1326232D01*
X696072D02*
X723622Y1307865D01*
X633734Y1318367D02*
X629143Y1313775D01*
Y1304592D01*
X633734Y1300000D01*
X652101D01*
X656693Y1304592D01*
Y1313775D01*
X652101Y1318367D01*
X642918D01*
Y1309184D01*
D71*
X210787Y1317087D02*
X243585D01*
X53307Y1317737D02*
X86105D01*
X69706Y1334136D02*
Y1301339D01*
%TF.MD5,a87c2d8c1c4550146ecf926e005d835d*%
M02*
