%TF.GenerationSoftware,Altium Limited,Altium Designer,24.6.1 (21)*%
G04 Layer_Physical_Order=3*
G04 Layer_Color=36540*
%FSLAX26Y26*%
%MOIN*%
%TF.SameCoordinates,E3325630-42F2-41CE-953C-F4D0AC061200*%
%TF.FilePolarity,Positive*%
%TF.FileFunction,Copper,L3,Inr,Signal*%
%TF.Part,Single*%
G01*
G75*
%TA.AperFunction,SMDPad,CuDef*%
%ADD14R,0.118110X0.118110*%
%TA.AperFunction,Conductor*%
%ADD38C,0.005000*%
%ADD39C,0.010000*%
%TA.AperFunction,ViaPad*%
%ADD40C,0.017716*%
G36*
X821360Y854916D02*
X816360Y852845D01*
X814937Y854268D01*
X809843Y856378D01*
X804330D01*
X799237Y854268D01*
X795338Y850370D01*
X793228Y845276D01*
Y839763D01*
X793312Y839560D01*
X766857Y813104D01*
X765199Y810623D01*
X764617Y807697D01*
Y625825D01*
X750121Y611329D01*
X745157Y613437D01*
Y616930D01*
X743048Y622023D01*
X739149Y625922D01*
X738946Y626006D01*
Y851378D01*
X738946Y851378D01*
X738364Y854304D01*
X736706Y856785D01*
X670124Y923368D01*
X672956Y927607D01*
X674212Y927087D01*
X679725D01*
X684818Y929197D01*
X688717Y933095D01*
X690827Y938188D01*
Y943702D01*
X688717Y948795D01*
X685773Y951739D01*
X685205Y954724D01*
X685773Y957710D01*
X688717Y960654D01*
X690827Y965747D01*
Y971260D01*
X688717Y976354D01*
X684818Y980252D01*
X679725Y982362D01*
X674212D01*
X669119Y980252D01*
X665220Y976354D01*
X663110Y971260D01*
Y965747D01*
X665220Y960654D01*
X668164Y957710D01*
X668732Y954724D01*
X668164Y951739D01*
X665220Y948795D01*
X663110Y943702D01*
Y938188D01*
X663631Y936932D01*
X659392Y934100D01*
X532966Y1060525D01*
X530486Y1062183D01*
X527559Y1062765D01*
X519707D01*
X519622Y1062968D01*
X515724Y1066866D01*
X515543Y1067774D01*
X517669Y1069900D01*
X519779Y1074994D01*
Y1080507D01*
X517669Y1085600D01*
X513771Y1089499D01*
X508678Y1091609D01*
X508042D01*
X505971Y1096609D01*
X507811Y1098449D01*
X509921Y1103543D01*
Y1109056D01*
X507811Y1114149D01*
X503913Y1118048D01*
X498820Y1120157D01*
X493306D01*
X488213Y1118048D01*
X484315Y1114149D01*
X482205Y1109056D01*
Y1103543D01*
X484315Y1098449D01*
X488213Y1094551D01*
X493306Y1092441D01*
X493942D01*
X496013Y1087441D01*
X494173Y1085600D01*
X492063Y1080507D01*
Y1074994D01*
X494173Y1069900D01*
X498071Y1066002D01*
X498252Y1065094D01*
X496126Y1062968D01*
X494016Y1057875D01*
Y1052361D01*
X496126Y1047268D01*
X500024Y1043370D01*
X505117Y1041260D01*
X510631D01*
X515724Y1043370D01*
X519622Y1047268D01*
X519707Y1047471D01*
X524392D01*
X546558Y1025305D01*
X546355Y1023451D01*
X544933Y1019858D01*
X540918Y1018195D01*
X537020Y1014297D01*
X534910Y1009203D01*
Y1003690D01*
X537020Y998597D01*
X540918Y994698D01*
X546012Y992588D01*
X551525D01*
X556618Y994698D01*
X560517Y998597D01*
X562180Y1002612D01*
X565772Y1004034D01*
X567626Y1004236D01*
X723652Y848211D01*
Y833406D01*
X722693Y832706D01*
X718652Y831532D01*
X603222Y946962D01*
X600741Y948620D01*
X597815Y949202D01*
X548342D01*
X545416Y948620D01*
X542935Y946962D01*
X443412Y847439D01*
X441754Y844958D01*
X441172Y842032D01*
Y771675D01*
X440969Y771591D01*
X437070Y767692D01*
X434961Y762599D01*
Y757086D01*
X437070Y751992D01*
X440969Y748094D01*
X446062Y745984D01*
X451575D01*
X456669Y748094D01*
X460567Y751992D01*
X462677Y757086D01*
Y762599D01*
X460567Y767692D01*
X456669Y771591D01*
X456466Y771675D01*
Y838864D01*
X537076Y919475D01*
X542974Y918302D01*
X543370Y917347D01*
X547268Y913448D01*
X552362Y911339D01*
X557875D01*
X558078Y911423D01*
X637038Y832462D01*
Y742066D01*
X633884Y740741D01*
X632038Y740533D01*
X628539Y744032D01*
X623446Y746142D01*
X617932D01*
X612839Y744032D01*
X608941Y740134D01*
X606831Y735040D01*
Y729527D01*
X608941Y724433D01*
X612839Y720535D01*
X617932Y718425D01*
X623446D01*
X628539Y720535D01*
X632038Y724034D01*
X633884Y723826D01*
X637038Y722501D01*
Y626006D01*
X636835Y625922D01*
X632937Y622023D01*
X630827Y616930D01*
Y611417D01*
X632937Y606323D01*
X636835Y602425D01*
X637962Y601958D01*
X636968Y596958D01*
X565788D01*
X564793Y601958D01*
X565921Y602425D01*
X569819Y606323D01*
X571929Y611417D01*
Y616930D01*
X571845Y617133D01*
X576250Y621538D01*
X577907Y624019D01*
X578490Y626945D01*
Y691858D01*
X583490Y695199D01*
X584444Y694803D01*
X589957D01*
X595051Y696913D01*
X598949Y700811D01*
X601059Y705905D01*
Y711418D01*
X598949Y716511D01*
X598255Y717206D01*
X595111Y720472D01*
X598255Y723739D01*
X598949Y724433D01*
X601059Y729527D01*
Y735040D01*
X598949Y740134D01*
X595051Y744032D01*
X589957Y746142D01*
X584444D01*
X583490Y745746D01*
X578490Y749087D01*
Y866165D01*
X577907Y869092D01*
X576250Y871572D01*
X568892Y878930D01*
X568976Y879133D01*
Y884646D01*
X566866Y889740D01*
X562968Y893638D01*
X557875Y895748D01*
X552361D01*
X547268Y893638D01*
X543370Y889740D01*
X541260Y884646D01*
Y879133D01*
X543370Y874040D01*
X541638Y868700D01*
X541241Y868536D01*
X537343Y864638D01*
X535733Y860752D01*
X533077Y859100D01*
X530233Y858513D01*
X526281Y860150D01*
X520768D01*
X515674Y858040D01*
X511776Y854142D01*
X509666Y849048D01*
Y848748D01*
X506694Y844567D01*
X505046Y844567D01*
X501180D01*
X496087Y842457D01*
X492189Y838559D01*
X490079Y833465D01*
Y827952D01*
X492189Y822859D01*
X496087Y818960D01*
X501180Y816850D01*
X506694D01*
X511787Y818960D01*
X515686Y822859D01*
X517795Y827952D01*
X522689Y828509D01*
X523849Y828139D01*
Y625025D01*
X519230Y623112D01*
X491909Y650433D01*
X493980Y655433D01*
X494883D01*
X499976Y657543D01*
X503874Y661441D01*
X505984Y666535D01*
Y672048D01*
X503874Y677141D01*
X499976Y681040D01*
X494883Y683149D01*
X489369D01*
X484276Y681040D01*
X480378Y677141D01*
X478268Y672048D01*
Y671145D01*
X473268Y669074D01*
X129532Y1012809D01*
Y1019053D01*
X129735Y1019137D01*
X133634Y1023036D01*
X135744Y1028129D01*
Y1033642D01*
X135348Y1034597D01*
X138689Y1039597D01*
X212598D01*
X215525Y1040179D01*
X218006Y1041837D01*
X294506Y1118337D01*
X381260D01*
X384186Y1118919D01*
X386667Y1120577D01*
X394363Y1128273D01*
X394566Y1128189D01*
X399528D01*
Y1123228D01*
X401637Y1118134D01*
X405536Y1114236D01*
X410629Y1112126D01*
X416142D01*
X421236Y1114236D01*
X421649Y1114649D01*
X426649Y1112578D01*
Y1111855D01*
X428758Y1106761D01*
X432657Y1102863D01*
X437750Y1100753D01*
X443263D01*
X448357Y1102863D01*
X452255Y1106761D01*
X454365Y1111855D01*
Y1117368D01*
X452255Y1122461D01*
X448357Y1126360D01*
X443263Y1128469D01*
X437750D01*
X432657Y1126360D01*
X432244Y1125947D01*
X427478Y1127921D01*
X426147Y1132638D01*
X428814Y1136475D01*
X428988Y1136600D01*
X432714D01*
X437807Y1138710D01*
X441706Y1142609D01*
X443816Y1147702D01*
Y1153215D01*
X441706Y1158308D01*
X444020Y1163066D01*
X471789D01*
X486719Y1148136D01*
X489200Y1146478D01*
X492126Y1145896D01*
X744094D01*
X747021Y1146478D01*
X749502Y1148136D01*
X813104Y1211738D01*
X813104Y1211739D01*
X814762Y1214220D01*
X815344Y1217146D01*
X815344Y1217146D01*
Y1306476D01*
X814762Y1309403D01*
X813104Y1311883D01*
X809050Y1315938D01*
X809134Y1316141D01*
Y1321654D01*
X807024Y1326748D01*
X803126Y1330646D01*
X798032Y1332756D01*
X792519D01*
X787426Y1330646D01*
X783527Y1326748D01*
X781417Y1321654D01*
Y1316141D01*
X783527Y1311048D01*
X787426Y1307149D01*
X792519Y1305039D01*
X798032D01*
X800050Y1300463D01*
Y1220313D01*
X740927Y1161190D01*
X681540D01*
X679469Y1166190D01*
X754049Y1240770D01*
X755707Y1243251D01*
X756289Y1246177D01*
Y1274605D01*
X756289Y1274606D01*
X755707Y1277532D01*
X754049Y1280013D01*
X743867Y1290195D01*
Y1307065D01*
X744071Y1307149D01*
X747969Y1311048D01*
X750079Y1316141D01*
Y1321654D01*
X747969Y1326748D01*
X744071Y1330646D01*
X738977Y1332756D01*
X733464D01*
X728370Y1330646D01*
X724472Y1326748D01*
X722362Y1321654D01*
Y1316141D01*
X724472Y1311048D01*
X728370Y1307149D01*
X728574Y1307065D01*
Y1287027D01*
X729156Y1284101D01*
X730813Y1281620D01*
X740995Y1271438D01*
Y1249344D01*
X668589Y1176938D01*
X511042D01*
X493951Y1194029D01*
X491470Y1195686D01*
X488544Y1196268D01*
X380731D01*
X380647Y1196472D01*
X376748Y1200370D01*
X371655Y1202480D01*
X366142D01*
X361048Y1200370D01*
X357150Y1196472D01*
X355040Y1191378D01*
Y1185865D01*
X357150Y1180772D01*
X361048Y1176873D01*
X365716Y1174940D01*
X366698Y1172869D01*
X367610Y1169763D01*
X359647Y1161801D01*
X313687D01*
X313603Y1162004D01*
X309705Y1165902D01*
X304611Y1168012D01*
X299098D01*
X294005Y1165902D01*
X290106Y1162004D01*
X287996Y1156910D01*
Y1151397D01*
X288392Y1150442D01*
X285051Y1145442D01*
X283465D01*
X280538Y1144860D01*
X278057Y1143203D01*
X200945Y1066090D01*
X167641D01*
X165292Y1070812D01*
X167401Y1075905D01*
Y1081418D01*
X165292Y1086511D01*
X161393Y1090410D01*
X156300Y1092520D01*
X150787D01*
X145693Y1090410D01*
X141795Y1086511D01*
X139685Y1081418D01*
Y1075905D01*
X141795Y1070812D01*
X139446Y1066090D01*
X102510D01*
X102465Y1066120D01*
X99538Y1066702D01*
X59055D01*
X56129Y1066120D01*
X53648Y1064462D01*
X14278Y1025092D01*
X12620Y1022611D01*
X12038Y1019685D01*
Y751969D01*
X12620Y749042D01*
X14278Y746561D01*
X53005Y707835D01*
X50934Y702835D01*
X48425D01*
X43331Y700725D01*
X39433Y696826D01*
X37323Y691733D01*
Y686220D01*
X39433Y681126D01*
X43331Y677228D01*
X44005Y673840D01*
X43370Y673204D01*
X41260Y668111D01*
Y662598D01*
X43370Y657504D01*
X47268Y653606D01*
X52361Y651496D01*
X57875D01*
X62968Y653606D01*
X63663Y654301D01*
X66929Y657444D01*
X70196Y654301D01*
X70890Y653606D01*
X75984Y651496D01*
X81497D01*
X86590Y653606D01*
X90489Y657504D01*
X92180Y661588D01*
X95656Y662991D01*
X97598Y663241D01*
X169518Y591321D01*
Y532755D01*
X168537Y532190D01*
X164518Y531222D01*
X161472Y534268D01*
X156379Y536378D01*
X150865D01*
X145772Y534268D01*
X141874Y530370D01*
X139764Y525276D01*
Y519763D01*
X141874Y514670D01*
X145772Y510771D01*
X150865Y508662D01*
X156379D01*
X161472Y510771D01*
X164518Y513818D01*
X168537Y512850D01*
X169518Y512285D01*
Y488189D01*
X170101Y485263D01*
X171758Y482782D01*
X313490Y341050D01*
X313490Y341050D01*
X315971Y339392D01*
X318898Y338810D01*
X390461D01*
X427003Y302267D01*
X426919Y302064D01*
Y296551D01*
X429029Y291457D01*
X432928Y287559D01*
X438021Y285449D01*
X443534D01*
X448627Y287559D01*
X449695Y287457D01*
X453984Y285844D01*
X455575Y282005D01*
X457216Y280363D01*
X455145Y275363D01*
X318084D01*
X316013Y280363D01*
X317654Y282005D01*
X319764Y287098D01*
Y292611D01*
X317654Y297705D01*
X313755Y301603D01*
X308662Y303713D01*
X303149D01*
X298055Y301603D01*
X294157Y297705D01*
X292047Y292611D01*
Y287098D01*
X294157Y282005D01*
X295798Y280363D01*
X293727Y275363D01*
X279528D01*
X279527Y275363D01*
X276601Y274781D01*
X274120Y273124D01*
X266216Y265220D01*
X260318Y266393D01*
X259780Y267692D01*
X255881Y271591D01*
X250788Y273701D01*
X245275D01*
X240181Y271591D01*
X239487Y270896D01*
X236220Y267753D01*
X232954Y270896D01*
X232259Y271591D01*
X227166Y273701D01*
X221653D01*
X216559Y271591D01*
X212661Y267692D01*
X210551Y262599D01*
Y257086D01*
X212661Y251993D01*
X213356Y251298D01*
X216499Y248031D01*
X213356Y244765D01*
X212661Y244071D01*
X210551Y238977D01*
Y233464D01*
X212661Y228370D01*
X216559Y224472D01*
X221653Y222362D01*
X227166D01*
X232259Y224472D01*
X232954Y225167D01*
X236220Y228310D01*
X239487Y225167D01*
X240181Y224472D01*
X245275Y222362D01*
X250788D01*
X255881Y224472D01*
X259780Y228370D01*
X261890Y233464D01*
Y238977D01*
X261806Y239180D01*
X282685Y260060D01*
X287226Y259625D01*
X288993Y255225D01*
X274120Y240352D01*
X272463Y237871D01*
X271881Y234945D01*
Y185061D01*
X271678Y184977D01*
X267779Y181078D01*
X265669Y175985D01*
Y170472D01*
X267779Y165378D01*
X269034Y164123D01*
X266963Y159123D01*
X143030D01*
X131884Y170269D01*
X131968Y170472D01*
Y175985D01*
X129859Y181078D01*
X125960Y184977D01*
X120867Y187087D01*
X115354D01*
X110260Y184977D01*
X106362Y181078D01*
X105966Y180124D01*
X100068Y178950D01*
X94261Y184758D01*
Y221435D01*
X94464Y221519D01*
X98362Y225418D01*
X100472Y230511D01*
Y236024D01*
X98362Y241118D01*
X97668Y241812D01*
X94524Y245079D01*
X97668Y248345D01*
X98362Y249040D01*
X100472Y254133D01*
Y259646D01*
X98362Y264740D01*
X94464Y268638D01*
X89371Y270748D01*
X83857D01*
X78764Y268638D01*
X78069Y267944D01*
X74803Y264800D01*
X71537Y267944D01*
X70842Y268638D01*
X65749Y270748D01*
X60235D01*
X55142Y268638D01*
X51243Y264740D01*
X49134Y259646D01*
Y254133D01*
X51243Y249040D01*
X51938Y248345D01*
X55081Y245079D01*
X51938Y241812D01*
X51243Y241118D01*
X49134Y236024D01*
Y230511D01*
X51243Y225418D01*
X55142Y221519D01*
X60235Y219410D01*
X65749D01*
X70842Y221519D01*
X71537Y222214D01*
X74803Y225357D01*
X78069Y222214D01*
X78764Y221519D01*
X78967Y221435D01*
Y181590D01*
X79549Y178664D01*
X81207Y176183D01*
X113912Y143478D01*
X111999Y138858D01*
X26496D01*
Y10748D01*
X154606D01*
Y133830D01*
X187913D01*
Y10748D01*
X316024D01*
Y133830D01*
X349331D01*
Y10748D01*
X477441D01*
Y133830D01*
X491870D01*
X494797Y134412D01*
X497277Y136069D01*
X520494Y159286D01*
X522151Y161766D01*
X522733Y164693D01*
Y165059D01*
X523598Y165417D01*
X527496Y169315D01*
X529606Y174409D01*
Y179922D01*
X527496Y185015D01*
X526802Y185710D01*
X523658Y188976D01*
X526802Y192243D01*
X527496Y192937D01*
X529606Y198031D01*
Y203544D01*
X527496Y208637D01*
X523598Y212536D01*
X518505Y214646D01*
X512991D01*
X507898Y212536D01*
X504000Y208637D01*
X501890Y203544D01*
Y198031D01*
X501974Y197828D01*
X486719Y182573D01*
X485061Y180092D01*
X484479Y177165D01*
Y167514D01*
X476089Y159123D01*
X367197D01*
X363856Y164124D01*
X364252Y165078D01*
Y170591D01*
X362142Y175685D01*
X358244Y179583D01*
X353150Y181693D01*
X347637D01*
X342544Y179583D01*
X338645Y175685D01*
X336536Y170591D01*
Y165078D01*
X336931Y164124D01*
X333590Y159123D01*
X292092D01*
X290021Y164123D01*
X291276Y165378D01*
X293386Y170472D01*
Y175985D01*
X291276Y181078D01*
X287378Y184977D01*
X287175Y185061D01*
Y231778D01*
X303656Y248259D01*
X487133D01*
X490474Y243258D01*
X490079Y242304D01*
Y236791D01*
X492189Y231697D01*
X496087Y227799D01*
X501180Y225689D01*
X506694D01*
X511787Y227799D01*
X514731Y230743D01*
X517717Y231311D01*
X520702Y230743D01*
X523646Y227799D01*
X528740Y225689D01*
X534253D01*
X539346Y227799D01*
X543245Y231697D01*
X543962Y233428D01*
X549860Y234602D01*
X644612Y139849D01*
X647093Y138191D01*
X650020Y137609D01*
X650020Y137609D01*
X705903D01*
X708685Y134826D01*
X713779Y132717D01*
X719292D01*
X724385Y134826D01*
X728284Y138725D01*
X730394Y143818D01*
Y149331D01*
X728284Y154425D01*
X724385Y158323D01*
X719292Y160433D01*
X713779D01*
X708685Y158323D01*
X707454Y157092D01*
X704656Y158161D01*
X702835Y159543D01*
Y164371D01*
X700725Y169464D01*
X696826Y173363D01*
X691733Y175472D01*
X686220D01*
X681126Y173363D01*
X677228Y169464D01*
X677144Y169261D01*
X652577D01*
X578466Y243373D01*
X580651Y248259D01*
X591321D01*
X608273Y231306D01*
X608189Y231103D01*
Y225590D01*
X610299Y220496D01*
X614197Y216598D01*
X619291Y214488D01*
X624804D01*
X629897Y216598D01*
X633796Y220496D01*
X635487Y224580D01*
X638963Y225983D01*
X640905Y226233D01*
X643537Y223601D01*
X643538Y223601D01*
X646019Y221943D01*
X648945Y221361D01*
X649311D01*
X649669Y220496D01*
X653567Y216598D01*
X658661Y214488D01*
X664174D01*
X669267Y216598D01*
X673166Y220496D01*
X675275Y225590D01*
Y231103D01*
X673166Y236196D01*
X669870Y239492D01*
X673587Y243209D01*
X675697Y248302D01*
Y253816D01*
X673587Y258909D01*
X669689Y262807D01*
X664595Y264917D01*
X659082D01*
X658879Y264833D01*
X630903Y292809D01*
X628423Y294466D01*
X625496Y295048D01*
X589782D01*
X473072Y411759D01*
X474702Y417200D01*
X477811Y418488D01*
X481709Y422386D01*
X483819Y427479D01*
Y432993D01*
X481709Y438086D01*
X477811Y441985D01*
X472717Y444094D01*
X467204D01*
X462111Y441985D01*
X458212Y438086D01*
X456925Y434977D01*
X451483Y433347D01*
X385600Y499231D01*
Y547244D01*
X385018Y550170D01*
X383360Y552651D01*
X330481Y605530D01*
Y627022D01*
X332219Y628274D01*
X335481Y629615D01*
X339684Y627874D01*
X345198D01*
X350291Y629984D01*
X354189Y633882D01*
X356299Y638976D01*
Y644489D01*
X354189Y649582D01*
X350291Y653481D01*
X346153Y655195D01*
X345490Y658664D01*
X345656Y660401D01*
X347043Y660975D01*
X350941Y664874D01*
X353051Y669967D01*
Y675480D01*
X350941Y680574D01*
X347043Y684472D01*
X341950Y686582D01*
X336436D01*
X331343Y684472D01*
X330654Y683783D01*
X323718Y683648D01*
X265738Y741628D01*
X263257Y743285D01*
X260331Y743867D01*
X173749D01*
X173407Y744379D01*
X175291Y750559D01*
X176617Y751108D01*
X180516Y755007D01*
X182625Y760100D01*
Y765613D01*
X180516Y770707D01*
X176617Y774605D01*
X171524Y776715D01*
X166011D01*
X160917Y774605D01*
X157019Y770707D01*
X154909Y765613D01*
Y764551D01*
X149909Y762480D01*
X127279Y785110D01*
Y856745D01*
X127279Y856746D01*
X126697Y859672D01*
X125039Y862153D01*
X125039Y862153D01*
X84117Y903075D01*
X85290Y908973D01*
X86590Y909511D01*
X90489Y913410D01*
X92598Y918503D01*
Y920929D01*
X97598Y923000D01*
X99276Y921322D01*
X104369Y919213D01*
X109883D01*
X114976Y921322D01*
X118874Y925221D01*
X118959Y925424D01*
X158250D01*
X399461Y684212D01*
X399212Y682270D01*
X397808Y678794D01*
X393725Y677103D01*
X393030Y676408D01*
X389764Y673265D01*
X386497Y676408D01*
X385803Y677103D01*
X380709Y679212D01*
X375196D01*
X370103Y677103D01*
X366204Y673204D01*
X364095Y668111D01*
Y662598D01*
X366204Y657504D01*
X370103Y653606D01*
X375196Y651496D01*
X380709D01*
X385803Y653606D01*
X386497Y654301D01*
X389764Y657444D01*
X393030Y654301D01*
X393725Y653606D01*
X398818Y651496D01*
X404331D01*
X409425Y653606D01*
X413323Y657504D01*
X415015Y661588D01*
X418490Y662991D01*
X420433Y663241D01*
X541226Y542448D01*
X541227Y542447D01*
X543707Y540790D01*
X546634Y540207D01*
X546634Y540208D01*
X552373D01*
X553995Y535208D01*
X551244Y532456D01*
X549134Y527363D01*
Y521850D01*
X551244Y516756D01*
X555142Y512858D01*
X560236Y510748D01*
X565749D01*
X570842Y512858D01*
X574740Y516756D01*
X576850Y521850D01*
Y527363D01*
X574740Y532456D01*
X571989Y535208D01*
X573611Y540208D01*
X631113D01*
X632735Y535208D01*
X629984Y532456D01*
X627874Y527363D01*
Y521850D01*
X629984Y516756D01*
X633882Y512858D01*
X638976Y510748D01*
X644489D01*
X649582Y512858D01*
X653481Y516756D01*
X655591Y521850D01*
Y527363D01*
X653481Y532456D01*
X650729Y535208D01*
X652352Y540208D01*
X709853D01*
X711475Y535208D01*
X708724Y532456D01*
X706614Y527363D01*
Y521850D01*
X708724Y516756D01*
X712622Y512858D01*
X717716Y510748D01*
X723229D01*
X728322Y512858D01*
X732221Y516756D01*
X734331Y521850D01*
Y523375D01*
X739331Y525446D01*
X744322Y520455D01*
Y425197D01*
X744904Y422270D01*
X746561Y419790D01*
X789375Y376975D01*
X789291Y376772D01*
Y371259D01*
X791401Y366166D01*
X795300Y362267D01*
X800393Y360158D01*
X805906D01*
X811000Y362267D01*
X814898Y366166D01*
X816360Y369696D01*
X821360Y368701D01*
Y324212D01*
X816360Y323218D01*
X814898Y326748D01*
X811000Y330646D01*
X805906Y332756D01*
X800393D01*
X795300Y330646D01*
X791401Y326748D01*
X789291Y321654D01*
Y316141D01*
X791401Y311048D01*
X795300Y307149D01*
X800393Y305039D01*
X805906D01*
X811000Y307149D01*
X814898Y311048D01*
X816360Y314577D01*
X821360Y313583D01*
Y5412D01*
X5412D01*
Y386069D01*
X10412Y388140D01*
X12662Y385889D01*
X17755Y383780D01*
X23268D01*
X28362Y385889D01*
X32260Y389788D01*
X34370Y394881D01*
Y400394D01*
X32260Y405488D01*
X28362Y409386D01*
X23268Y411496D01*
X17755D01*
X12662Y409386D01*
X10412Y407136D01*
X5412Y409207D01*
Y432486D01*
X10412Y434557D01*
X11835Y433134D01*
X16928Y431024D01*
X22442D01*
X27535Y433134D01*
X31433Y437032D01*
X33543Y442125D01*
Y447639D01*
X31433Y452732D01*
X27535Y456630D01*
X22442Y458740D01*
X16928D01*
X11835Y456630D01*
X10412Y455207D01*
X5412Y457278D01*
Y483667D01*
X10412Y485738D01*
X11835Y484315D01*
X16928Y482205D01*
X22442D01*
X27535Y484315D01*
X31433Y488213D01*
X33543Y493306D01*
Y498820D01*
X31433Y503913D01*
X27535Y507811D01*
X22442Y509921D01*
X16928D01*
X11835Y507811D01*
X10412Y506388D01*
X5412Y508459D01*
Y533874D01*
X10412Y535595D01*
X13093Y532913D01*
X18186Y530803D01*
X23700D01*
X28793Y532913D01*
X32691Y536812D01*
X34801Y541905D01*
Y547418D01*
X32691Y552511D01*
X28793Y556410D01*
X23700Y558520D01*
X18186D01*
X13093Y556410D01*
X10412Y553728D01*
X5412Y555449D01*
Y1470967D01*
X821360D01*
Y854916D01*
D02*
G37*
G36*
X82740Y989738D02*
X86638Y985840D01*
X91732Y983730D01*
X97245D01*
X102338Y985840D01*
X106237Y989738D01*
X106321Y989941D01*
X113418D01*
X157641Y945718D01*
X155570Y940718D01*
X118959D01*
X118874Y940921D01*
X114976Y944819D01*
X109883Y946929D01*
X104369D01*
X99276Y944819D01*
X95378Y940921D01*
X93268Y935827D01*
Y933402D01*
X88268Y931331D01*
X86590Y933008D01*
X81497Y935118D01*
X75984D01*
X70890Y933008D01*
X66992Y929110D01*
X66453Y927810D01*
X60555Y926637D01*
X50954Y936238D01*
Y961463D01*
X55954Y963760D01*
X59744Y962189D01*
X65257D01*
X70351Y964299D01*
X74249Y968198D01*
X76359Y973291D01*
Y978804D01*
X74249Y983898D01*
X73068Y985079D01*
X73275Y986940D01*
X74695Y990523D01*
X76665Y991339D01*
X82740Y989738D01*
D02*
G37*
G36*
X563196Y844223D02*
Y632315D01*
X560827Y628031D01*
X555314D01*
X550221Y625922D01*
X546323Y622023D01*
X540496Y621024D01*
X539143Y622005D01*
Y837004D01*
X538561Y839931D01*
X538772Y840333D01*
X541587Y844402D01*
X542382Y844566D01*
X546334Y842929D01*
X551848D01*
X556941Y845039D01*
X558196Y846294D01*
X563196Y844223D01*
D02*
G37*
G36*
X821360Y830124D02*
Y717701D01*
X816360Y714360D01*
X815670Y714646D01*
X810157D01*
X805064Y712536D01*
X801165Y708637D01*
X799056Y703544D01*
Y698031D01*
X801165Y692937D01*
X805064Y689039D01*
X810157Y686929D01*
X815670D01*
X816360Y687215D01*
X821360Y683874D01*
Y489567D01*
X816360Y488572D01*
X814898Y492102D01*
X811000Y496000D01*
X805906Y498110D01*
X800393D01*
X800190Y498026D01*
X783237Y514979D01*
Y535433D01*
X782655Y538359D01*
X780998Y540840D01*
X741628Y580210D01*
X739147Y581868D01*
X739773Y586841D01*
X744095D01*
X747021Y587423D01*
X749502Y589081D01*
X777671Y617250D01*
X779329Y619731D01*
X779911Y622658D01*
Y804529D01*
X804127Y828746D01*
X804330Y828662D01*
X809843D01*
X814937Y830771D01*
X816360Y832195D01*
X821360Y830124D01*
D02*
G37*
G36*
X706625Y821931D02*
Y748637D01*
X701625Y745304D01*
X699606Y746140D01*
X694092D01*
X688999Y744030D01*
X685101Y740132D01*
X682991Y735039D01*
Y729525D01*
X685101Y724432D01*
X688999Y720534D01*
X694092Y718424D01*
X699606D01*
X701625Y719260D01*
X706625Y715927D01*
Y600689D01*
X707207Y597762D01*
X708865Y595282D01*
X715065Y589081D01*
X717546Y587423D01*
X716920Y582450D01*
X672186D01*
X670115Y587450D01*
X683064Y600399D01*
X683267Y600315D01*
X688780D01*
X693874Y602425D01*
X697772Y606323D01*
X699882Y611417D01*
Y616930D01*
X697772Y622023D01*
X693874Y625922D01*
X688780Y628031D01*
X683267D01*
X678174Y625922D01*
X674275Y622023D01*
X672165Y616930D01*
Y611417D01*
X672250Y611213D01*
X657994Y596958D01*
X652402D01*
X651408Y601958D01*
X652535Y602425D01*
X656433Y606323D01*
X658543Y611417D01*
Y616930D01*
X656433Y622023D01*
X652535Y625922D01*
X652332Y626006D01*
Y835630D01*
X651750Y838556D01*
X650092Y841037D01*
X568892Y922237D01*
X568976Y922440D01*
Y927953D01*
X568581Y928908D01*
X571922Y933908D01*
X594648D01*
X706625Y821931D01*
D02*
G37*
G36*
X72690Y892874D02*
X72440Y890931D01*
X71037Y887456D01*
X66953Y885764D01*
X63055Y881866D01*
X60945Y876772D01*
Y871259D01*
X61029Y871056D01*
X59408Y869435D01*
X57750Y866954D01*
X57168Y864027D01*
Y797390D01*
X57750Y794464D01*
X59408Y791983D01*
X115997Y735394D01*
X115761Y733560D01*
X113121Y729632D01*
X108617Y731020D01*
X107856Y732288D01*
X106237Y736197D01*
X102338Y740095D01*
X97245Y742205D01*
X91732D01*
X86638Y740095D01*
X82740Y736197D01*
X80630Y731103D01*
Y728594D01*
X75630Y726523D01*
X39143Y763010D01*
Y919888D01*
X43762Y921801D01*
X72690Y892874D01*
D02*
G37*
G36*
X103981Y713862D02*
X104743Y712594D01*
X106362Y708685D01*
X110260Y704787D01*
X115354Y702677D01*
X120867D01*
X125960Y704787D01*
X129859Y708685D01*
X131550Y712769D01*
X135026Y714172D01*
X136968Y714422D01*
X150150Y701240D01*
X152631Y699583D01*
X155557Y699001D01*
X254752D01*
X264207Y689546D01*
X263034Y683648D01*
X262079Y683252D01*
X258181Y679354D01*
X257766Y678352D01*
X251944Y677103D01*
X246851Y679212D01*
X241338D01*
X236244Y677103D01*
X233300Y674159D01*
X230315Y673591D01*
X227329Y674159D01*
X224385Y677103D01*
X219292Y679212D01*
X213779D01*
X208685Y677103D01*
X204787Y673204D01*
X202677Y668111D01*
Y662598D01*
X204787Y657504D01*
X208685Y653606D01*
X213779Y651496D01*
X219292D01*
X224385Y653606D01*
X227329Y656550D01*
X230315Y657118D01*
X233300Y656550D01*
X236244Y653606D01*
X241338Y651496D01*
X246851D01*
X251944Y653606D01*
X255843Y657504D01*
X256258Y658506D01*
X262079Y659755D01*
X267172Y657646D01*
X272686D01*
X277779Y659755D01*
X281677Y663654D01*
X282073Y664609D01*
X287971Y665782D01*
X291566Y662187D01*
Y594488D01*
X292148Y591562D01*
X293805Y589081D01*
X346684Y536203D01*
Y480315D01*
X347266Y477389D01*
X348923Y474908D01*
X452917Y370915D01*
X450846Y365915D01*
X343843D01*
X341522Y370915D01*
X343074Y374662D01*
Y380175D01*
X342022Y382716D01*
X345050Y387717D01*
X346103D01*
X351197Y389826D01*
X355095Y393725D01*
X357205Y398818D01*
Y404331D01*
X355095Y409425D01*
X351197Y413323D01*
X346103Y415433D01*
X340590D01*
X335497Y413323D01*
X331598Y409425D01*
X329488Y404331D01*
Y398818D01*
X330541Y396277D01*
X327513Y391277D01*
X326459D01*
X321366Y389167D01*
X317468Y385269D01*
X317072Y384314D01*
X311174Y383141D01*
X195904Y498411D01*
Y603081D01*
X195904Y603081D01*
X195322Y606008D01*
X193665Y608489D01*
X193664Y608489D01*
X179279Y622874D01*
X181350Y627874D01*
X183780D01*
X188874Y629984D01*
X192772Y633882D01*
X194882Y638976D01*
Y644489D01*
X192772Y649582D01*
X188874Y653481D01*
X183780Y655591D01*
X181975D01*
X178634Y660591D01*
X179213Y661987D01*
Y667501D01*
X177103Y672594D01*
X173204Y676492D01*
X168111Y678602D01*
X162598D01*
X157504Y676492D01*
X153606Y672594D01*
X151496Y667501D01*
Y661987D01*
X153606Y656894D01*
X157504Y652996D01*
X162598Y650886D01*
X164403D01*
X167215Y646678D01*
X166150Y642439D01*
X161368Y640785D01*
X92665Y709488D01*
X94736Y714488D01*
X97245D01*
X99252Y715320D01*
X103981Y713862D01*
D02*
G37*
%LPC*%
G36*
X30316Y1462677D02*
X24802D01*
X19709Y1460567D01*
X15811Y1456669D01*
X13701Y1451575D01*
Y1446062D01*
X15811Y1440969D01*
X19709Y1437071D01*
X24802Y1434961D01*
X30316D01*
X35409Y1437071D01*
X39307Y1440969D01*
X41417Y1446062D01*
Y1451575D01*
X39307Y1456669D01*
X35409Y1460567D01*
X30316Y1462677D01*
D02*
G37*
G36*
X109056Y1462677D02*
X103543D01*
X98449Y1460567D01*
X94551Y1456669D01*
X92441Y1451575D01*
Y1446062D01*
X94551Y1440969D01*
X98449Y1437070D01*
X103543Y1434961D01*
X109056D01*
X114149Y1437070D01*
X118048Y1440969D01*
X120157Y1446062D01*
Y1451575D01*
X118048Y1456669D01*
X114149Y1460567D01*
X109056Y1462677D01*
D02*
G37*
G36*
X69686D02*
X64172D01*
X59079Y1460567D01*
X55181Y1456669D01*
X53071Y1451575D01*
Y1446062D01*
X55181Y1440969D01*
X59079Y1437070D01*
X64172Y1434961D01*
X69686D01*
X74779Y1437070D01*
X78677Y1440969D01*
X80787Y1446062D01*
Y1451575D01*
X78677Y1456669D01*
X74779Y1460567D01*
X69686Y1462677D01*
D02*
G37*
G36*
X376772Y1439055D02*
X371259D01*
X366166Y1436945D01*
X363222Y1434001D01*
X360236Y1433433D01*
X357251Y1434001D01*
X354307Y1436945D01*
X349213Y1439055D01*
X343700D01*
X338607Y1436945D01*
X334708Y1433047D01*
X332599Y1427954D01*
Y1422440D01*
X334708Y1417347D01*
X337652Y1414403D01*
X338220Y1411417D01*
X337652Y1408432D01*
X334708Y1405488D01*
X332599Y1400394D01*
Y1394881D01*
X334708Y1389788D01*
X337652Y1386844D01*
X338220Y1383858D01*
X337652Y1380873D01*
X334708Y1377929D01*
X332599Y1372835D01*
Y1367322D01*
X334708Y1362229D01*
X336899Y1360039D01*
X334827Y1355039D01*
X270039D01*
X266138Y1354262D01*
X262830Y1352052D01*
X239871Y1329093D01*
X212885D01*
X209474Y1332505D01*
X206166Y1334715D01*
X205204Y1334906D01*
X201590Y1338520D01*
X196497Y1340630D01*
X190983D01*
X185890Y1338520D01*
X181992Y1334622D01*
X179882Y1329528D01*
Y1327853D01*
X179882Y1327536D01*
X174882Y1326542D01*
X174672Y1327048D01*
X173166Y1330685D01*
X169267Y1334583D01*
X164174Y1336693D01*
X158661D01*
X153567Y1334583D01*
X149669Y1330685D01*
X147559Y1325591D01*
Y1320078D01*
X149669Y1314985D01*
X151484Y1313169D01*
X150509Y1307353D01*
X149025Y1306738D01*
X145127Y1302840D01*
X143017Y1297747D01*
Y1292234D01*
X145127Y1287140D01*
X149025Y1283242D01*
X154118Y1281132D01*
X159632D01*
X164725Y1283242D01*
X166563Y1285080D01*
X253635D01*
X257537Y1285856D01*
X260844Y1288066D01*
X282897Y1310118D01*
X285092D01*
X290186Y1312228D01*
X293794Y1315836D01*
X294364Y1316146D01*
X299655Y1316509D01*
X301928Y1314236D01*
X307021Y1312126D01*
X312534D01*
X317628Y1314236D01*
X321526Y1318134D01*
X323636Y1323228D01*
Y1328741D01*
X323261Y1329647D01*
X326602Y1334647D01*
X334731D01*
X338607Y1330771D01*
X343700Y1328661D01*
X349213D01*
X354307Y1330771D01*
X357251Y1333715D01*
X360236Y1334283D01*
X363222Y1333715D01*
X366166Y1330771D01*
X371259Y1328661D01*
X376772D01*
X381866Y1330771D01*
X385764Y1334670D01*
X387874Y1339763D01*
Y1345276D01*
X385764Y1350370D01*
X382820Y1353314D01*
X382252Y1356299D01*
X382820Y1359285D01*
X385764Y1362229D01*
X387874Y1367322D01*
Y1372835D01*
X385764Y1377929D01*
X382820Y1380873D01*
X382252Y1383858D01*
X382820Y1386844D01*
X385764Y1389788D01*
X387874Y1394881D01*
Y1400394D01*
X385764Y1405488D01*
X382820Y1408432D01*
X382252Y1411417D01*
X382820Y1414403D01*
X385764Y1417347D01*
X387874Y1422440D01*
Y1427954D01*
X385764Y1433047D01*
X381866Y1436945D01*
X376772Y1439055D01*
D02*
G37*
G36*
X490945D02*
X485432D01*
X480339Y1436945D01*
X479644Y1436251D01*
X476378Y1433107D01*
X473111Y1436251D01*
X472417Y1436945D01*
X467324Y1439055D01*
X461810D01*
X456717Y1436945D01*
X452818Y1433047D01*
X450709Y1427954D01*
Y1422440D01*
X452818Y1417347D01*
X455762Y1414403D01*
X456330Y1411417D01*
X455762Y1408432D01*
X452818Y1405488D01*
X450709Y1400394D01*
Y1394881D01*
X452818Y1389788D01*
X455762Y1386844D01*
X456330Y1383858D01*
X455762Y1380873D01*
X452818Y1377929D01*
X450709Y1372835D01*
Y1367322D01*
X452818Y1362229D01*
X455762Y1359285D01*
X456330Y1356299D01*
X455762Y1353314D01*
X452818Y1350370D01*
X450709Y1345276D01*
Y1339763D01*
X452818Y1334670D01*
X456717Y1330771D01*
X461810Y1328661D01*
X467324D01*
X472417Y1330771D01*
X473111Y1331466D01*
X476378Y1334609D01*
X479644Y1331466D01*
X480339Y1330771D01*
X485432Y1328661D01*
X490945D01*
X496039Y1330771D01*
X499937Y1334670D01*
X502047Y1339763D01*
Y1345276D01*
X499937Y1350370D01*
X496993Y1353314D01*
X496425Y1356299D01*
X496993Y1359285D01*
X499937Y1362229D01*
X502047Y1367322D01*
Y1372835D01*
X499937Y1377929D01*
X496993Y1380873D01*
X496425Y1383858D01*
X496993Y1386844D01*
X499937Y1389788D01*
X502047Y1394881D01*
Y1400394D01*
X499937Y1405488D01*
X496993Y1408432D01*
X496425Y1411417D01*
X496993Y1414403D01*
X499937Y1417347D01*
X502047Y1422440D01*
Y1427954D01*
X499937Y1433047D01*
X496039Y1436945D01*
X490945Y1439055D01*
D02*
G37*
G36*
X109056Y1423307D02*
X103543D01*
X98449Y1421197D01*
X94551Y1417299D01*
X92441Y1412205D01*
Y1406692D01*
X94551Y1401599D01*
X98449Y1397700D01*
X103543Y1395591D01*
X109056D01*
X114149Y1397700D01*
X118047Y1401599D01*
X120157Y1406692D01*
Y1412205D01*
X118047Y1417299D01*
X114149Y1421197D01*
X109056Y1423307D01*
D02*
G37*
G36*
X69686D02*
X64172D01*
X59079Y1421197D01*
X55181Y1417299D01*
X53071Y1412205D01*
Y1406692D01*
X55181Y1401599D01*
X59079Y1397700D01*
X64172Y1395591D01*
X69686D01*
X74779Y1397700D01*
X78677Y1401599D01*
X80787Y1406692D01*
Y1412205D01*
X78677Y1417299D01*
X74779Y1421197D01*
X69686Y1423307D01*
D02*
G37*
G36*
X30316D02*
X24802D01*
X19709Y1421197D01*
X15811Y1417299D01*
X13701Y1412205D01*
Y1406692D01*
X15811Y1401599D01*
X19709Y1397700D01*
X24802Y1395591D01*
X30316D01*
X35409Y1397700D01*
X39307Y1401599D01*
X41417Y1406692D01*
Y1412205D01*
X39307Y1417299D01*
X35409Y1421197D01*
X30316Y1423307D01*
D02*
G37*
G36*
X69686Y1383937D02*
X64172D01*
X59079Y1381827D01*
X55181Y1377929D01*
X53071Y1372835D01*
Y1367322D01*
X55181Y1362229D01*
X59079Y1358330D01*
X64172Y1356221D01*
X69686D01*
X74779Y1358330D01*
X78677Y1362229D01*
X80787Y1367322D01*
Y1372835D01*
X78677Y1377929D01*
X74779Y1381827D01*
X69686Y1383937D01*
D02*
G37*
G36*
X30316D02*
X24802D01*
X19709Y1381827D01*
X15811Y1377929D01*
X13701Y1372835D01*
Y1367322D01*
X15811Y1362229D01*
X19709Y1358330D01*
X24802Y1356221D01*
X30316D01*
X35409Y1358330D01*
X39307Y1362229D01*
X41417Y1367322D01*
Y1372835D01*
X39307Y1377929D01*
X35409Y1381827D01*
X30316Y1383937D01*
D02*
G37*
G36*
X109056Y1383937D02*
X103543D01*
X98449Y1381827D01*
X94551Y1377929D01*
X92441Y1372835D01*
Y1367322D01*
X94551Y1362229D01*
X98449Y1358330D01*
X103543Y1356220D01*
X109056D01*
X114149Y1358330D01*
X118047Y1362229D01*
X120157Y1367322D01*
Y1372835D01*
X118047Y1377929D01*
X114149Y1381827D01*
X109056Y1383937D01*
D02*
G37*
G36*
X53938Y1324882D02*
X48425D01*
X43331Y1322772D01*
X42636Y1322078D01*
X39370Y1318934D01*
X36104Y1322078D01*
X35409Y1322772D01*
X30316Y1324882D01*
X24802D01*
X19709Y1322772D01*
X15811Y1318874D01*
X13701Y1313780D01*
Y1308267D01*
X15811Y1303174D01*
X18755Y1300230D01*
X19323Y1297244D01*
X18755Y1294259D01*
X15811Y1291315D01*
X13701Y1286221D01*
Y1280708D01*
X15811Y1275615D01*
X18755Y1272671D01*
X19323Y1269685D01*
X18755Y1266700D01*
X15811Y1263756D01*
X13701Y1258662D01*
Y1253149D01*
X15811Y1248056D01*
X18755Y1245112D01*
X19323Y1242126D01*
X18755Y1239140D01*
X15811Y1236197D01*
X13701Y1231103D01*
Y1225590D01*
X15811Y1220496D01*
X18755Y1217553D01*
X19323Y1214567D01*
X18755Y1211581D01*
X15811Y1208637D01*
X13701Y1203544D01*
Y1198031D01*
X15811Y1192937D01*
X18755Y1189993D01*
X19323Y1187008D01*
X18755Y1184022D01*
X15811Y1181078D01*
X13701Y1175985D01*
Y1170472D01*
X15811Y1165378D01*
X18755Y1162434D01*
X19323Y1159449D01*
X18755Y1156463D01*
X15811Y1153519D01*
X13701Y1148426D01*
Y1142913D01*
X15811Y1137819D01*
X16505Y1137125D01*
X19649Y1133858D01*
X16505Y1130592D01*
X15811Y1129897D01*
X13701Y1124804D01*
Y1119291D01*
X15811Y1114197D01*
X19709Y1110299D01*
X24802Y1108189D01*
X30316D01*
X35409Y1110299D01*
X36104Y1110993D01*
X39370Y1114137D01*
X42636Y1110993D01*
X43331Y1110299D01*
X48425Y1108189D01*
X53938D01*
X59031Y1110299D01*
X62929Y1114197D01*
X65039Y1119291D01*
Y1124804D01*
X62929Y1129897D01*
X62235Y1130592D01*
X59092Y1133858D01*
X62235Y1137125D01*
X62929Y1137819D01*
X65039Y1142913D01*
Y1148426D01*
X62929Y1153519D01*
X59986Y1156463D01*
X59418Y1159449D01*
X59986Y1162434D01*
X62929Y1165378D01*
X65039Y1170472D01*
Y1175985D01*
X62929Y1181078D01*
X59986Y1184022D01*
X59418Y1187008D01*
X59986Y1189993D01*
X62929Y1192937D01*
X65039Y1198031D01*
Y1203544D01*
X62929Y1208637D01*
X59986Y1211581D01*
X59418Y1214567D01*
X59986Y1217553D01*
X62929Y1220496D01*
X63276Y1221333D01*
X69099Y1222326D01*
X70890Y1220535D01*
X75984Y1218425D01*
X81497D01*
X86590Y1220535D01*
X90489Y1224434D01*
X92598Y1229527D01*
Y1235040D01*
X90489Y1240134D01*
X89794Y1240828D01*
X86651Y1244095D01*
X89794Y1247361D01*
X90489Y1248056D01*
X92598Y1253149D01*
Y1258662D01*
X90489Y1263756D01*
X86590Y1267654D01*
X81497Y1269764D01*
X75984D01*
X70890Y1267654D01*
X67946Y1264710D01*
X64961Y1264142D01*
X61975Y1264710D01*
X59986Y1266700D01*
X59418Y1269685D01*
X59986Y1272671D01*
X62929Y1275615D01*
X65039Y1280708D01*
Y1286221D01*
X62929Y1291315D01*
X59986Y1294259D01*
X59418Y1297244D01*
X59986Y1300230D01*
X62929Y1303174D01*
X65039Y1308267D01*
Y1313780D01*
X62929Y1318874D01*
X59031Y1322772D01*
X53938Y1324882D01*
D02*
G37*
G36*
X408347Y1338583D02*
X402834D01*
X397741Y1336473D01*
X393842Y1332574D01*
X391732Y1327481D01*
Y1321968D01*
X393842Y1316874D01*
X397740Y1312976D01*
X398067Y1307429D01*
X397700Y1307063D01*
X395591Y1301969D01*
Y1296456D01*
X397700Y1291363D01*
X401599Y1287464D01*
X406692Y1285354D01*
X412205D01*
X417299Y1287464D01*
X421197Y1291363D01*
X423307Y1296456D01*
Y1301969D01*
X421197Y1307063D01*
X417299Y1310961D01*
X416973Y1316508D01*
X417339Y1316874D01*
X419449Y1321968D01*
Y1327481D01*
X417339Y1332574D01*
X413441Y1336473D01*
X408347Y1338583D01*
D02*
G37*
G36*
X683859Y1281575D02*
X678346D01*
X673252Y1279465D01*
X672558Y1278770D01*
X669291Y1275627D01*
X666025Y1278770D01*
X665330Y1279465D01*
X660237Y1281575D01*
X654724D01*
X649630Y1279465D01*
X645732Y1275566D01*
X643622Y1270473D01*
Y1264960D01*
X645732Y1259867D01*
X649630Y1255968D01*
X652753Y1254675D01*
Y1249262D01*
X649630Y1247969D01*
X645732Y1244070D01*
X643622Y1238977D01*
Y1233464D01*
X645732Y1228370D01*
X649630Y1224472D01*
X654724Y1222362D01*
X660237D01*
X665330Y1224472D01*
X666025Y1225167D01*
X669291Y1228310D01*
X672558Y1225167D01*
X673252Y1224472D01*
X678346Y1222362D01*
X683859D01*
X688952Y1224472D01*
X692851Y1228370D01*
X694961Y1233464D01*
Y1238977D01*
X692851Y1244070D01*
X688952Y1247969D01*
X685829Y1249262D01*
Y1254675D01*
X688952Y1255968D01*
X692851Y1259867D01*
X694961Y1264960D01*
Y1270473D01*
X692851Y1275566D01*
X688952Y1279465D01*
X683859Y1281575D01*
D02*
G37*
G36*
X363005Y1282933D02*
X357492D01*
X352398Y1280823D01*
X348500Y1276925D01*
X346390Y1271831D01*
Y1266318D01*
X348500Y1261225D01*
X352398Y1257326D01*
X357492Y1255217D01*
X363005D01*
X363110Y1255146D01*
Y1253149D01*
X365220Y1248055D01*
X369118Y1244157D01*
X374212Y1242047D01*
X379725D01*
X384818Y1244157D01*
X388717Y1248055D01*
X390827Y1253149D01*
Y1258662D01*
X388717Y1263755D01*
X384818Y1267654D01*
X379725Y1269764D01*
X374212D01*
X374106Y1269834D01*
Y1271831D01*
X371997Y1276925D01*
X368098Y1280823D01*
X363005Y1282933D01*
D02*
G37*
G36*
X120867Y1265827D02*
X115354D01*
X110260Y1263717D01*
X106362Y1259819D01*
X104252Y1254725D01*
Y1249212D01*
X106362Y1244119D01*
X110260Y1240220D01*
X115354Y1238110D01*
X120867D01*
X125960Y1240220D01*
X129859Y1244119D01*
X131968Y1249212D01*
Y1254725D01*
X129859Y1259819D01*
X125960Y1263717D01*
X120867Y1265827D01*
D02*
G37*
G36*
X558859Y1230393D02*
X553346D01*
X548252Y1228284D01*
X544354Y1224385D01*
X542244Y1219292D01*
Y1213779D01*
X544354Y1208685D01*
X548252Y1204787D01*
X553346Y1202677D01*
X558859D01*
X563952Y1204787D01*
X567851Y1208685D01*
X569961Y1213779D01*
Y1219292D01*
X567851Y1224385D01*
X563952Y1228284D01*
X558859Y1230393D01*
D02*
G37*
G36*
X662599Y1211496D02*
X657086D01*
X651992Y1209386D01*
X648094Y1205488D01*
X645984Y1200394D01*
Y1194881D01*
X648094Y1189788D01*
X651992Y1185889D01*
X657086Y1183780D01*
X662599D01*
X667692Y1185889D01*
X671591Y1189788D01*
X673701Y1194881D01*
Y1200394D01*
X671591Y1205488D01*
X667692Y1209386D01*
X662599Y1211496D01*
D02*
G37*
G36*
X735039Y1131966D02*
X729525D01*
X724432Y1129856D01*
X720534Y1125958D01*
X718424Y1120864D01*
Y1115351D01*
X720534Y1110258D01*
X724432Y1106360D01*
X729525Y1104250D01*
X735039D01*
X740132Y1106360D01*
X744030Y1110258D01*
X746140Y1115351D01*
Y1120864D01*
X744030Y1125958D01*
X740132Y1129856D01*
X735039Y1131966D01*
D02*
G37*
G36*
X715965Y982362D02*
X710452D01*
X705359Y980252D01*
X701460Y976354D01*
X699351Y971260D01*
Y965747D01*
X701460Y960654D01*
X705359Y956755D01*
X710452Y954646D01*
X715965D01*
X721059Y956755D01*
X724957Y960654D01*
X727067Y965747D01*
Y971260D01*
X724957Y976354D01*
X721059Y980252D01*
X715965Y982362D01*
D02*
G37*
G36*
X611418Y836693D02*
X605905D01*
X600811Y834583D01*
X596913Y830685D01*
X594803Y825591D01*
Y820078D01*
X596913Y814985D01*
X600811Y811086D01*
X605905Y808976D01*
X611418D01*
X616511Y811086D01*
X620410Y814985D01*
X622519Y820078D01*
Y825591D01*
X620410Y830685D01*
X616511Y834583D01*
X611418Y836693D01*
D02*
G37*
G36*
X495847Y810957D02*
X490334D01*
X485240Y808847D01*
X481342Y804948D01*
X479232Y799855D01*
Y794342D01*
X481342Y789249D01*
X485240Y785350D01*
X490334Y783240D01*
X495847D01*
X500940Y785350D01*
X504839Y789249D01*
X506949Y794342D01*
Y799855D01*
X504839Y804948D01*
X500940Y808847D01*
X495847Y810957D01*
D02*
G37*
G36*
X479213Y536378D02*
X473700D01*
X468607Y534268D01*
X464708Y530370D01*
X462599Y525276D01*
Y519763D01*
X464708Y514670D01*
X468607Y510771D01*
X473700Y508662D01*
X479213D01*
X484307Y510771D01*
X488205Y514670D01*
X490315Y519763D01*
Y525276D01*
X488205Y530370D01*
X484307Y534268D01*
X479213Y536378D01*
D02*
G37*
G36*
X612993Y505000D02*
X607480D01*
X602386Y502890D01*
X598488Y498992D01*
X596378Y493898D01*
Y488385D01*
X598488Y483292D01*
X602386Y479393D01*
X607480Y477284D01*
X612993D01*
X618086Y479393D01*
X621985Y483292D01*
X624094Y488385D01*
Y493898D01*
X621985Y498992D01*
X618086Y502890D01*
X612993Y505000D01*
D02*
G37*
G36*
X573623D02*
X568110D01*
X563016Y502890D01*
X559118Y498992D01*
X557008Y493898D01*
Y488385D01*
X559118Y483292D01*
X563016Y479393D01*
X568110Y477284D01*
X573623D01*
X578716Y479393D01*
X582615Y483292D01*
X584724Y488385D01*
Y493898D01*
X582615Y498992D01*
X578716Y502890D01*
X573623Y505000D01*
D02*
G37*
G36*
X534253D02*
X528740D01*
X523646Y502890D01*
X519748Y498992D01*
X517638Y493898D01*
Y488385D01*
X519748Y483292D01*
X523646Y479393D01*
X528740Y477284D01*
X534253D01*
X539346Y479393D01*
X543245Y483292D01*
X545354Y488385D01*
Y493898D01*
X543245Y498992D01*
X539346Y502890D01*
X534253Y505000D01*
D02*
G37*
G36*
X149883Y444094D02*
X144370D01*
X139276Y441985D01*
X135378Y438086D01*
X133268Y432993D01*
Y427479D01*
X135378Y422386D01*
X139276Y418488D01*
X144370Y416378D01*
X149883D01*
X154976Y418488D01*
X158875Y422386D01*
X160984Y427479D01*
Y432993D01*
X158875Y438086D01*
X154976Y441985D01*
X149883Y444094D01*
D02*
G37*
G36*
X719292Y458740D02*
X713779D01*
X708685Y456630D01*
X704787Y452732D01*
X702677Y447639D01*
Y442125D01*
X704787Y437032D01*
X708685Y433134D01*
X711808Y431840D01*
Y426428D01*
X708685Y425134D01*
X704787Y421236D01*
X702677Y416142D01*
Y410629D01*
X704787Y405536D01*
X708685Y401637D01*
X713779Y399528D01*
X719292D01*
X724385Y401637D01*
X728284Y405536D01*
X730394Y410629D01*
Y416142D01*
X728284Y421236D01*
X724385Y425134D01*
X721262Y426428D01*
Y431840D01*
X724385Y433134D01*
X728284Y437032D01*
X730394Y442125D01*
Y447639D01*
X728284Y452732D01*
X724385Y456630D01*
X719292Y458740D01*
D02*
G37*
G36*
X675985D02*
X670472D01*
X665378Y456630D01*
X661480Y452732D01*
X659370Y447639D01*
Y442125D01*
X661480Y437032D01*
X665378Y433134D01*
X668501Y431840D01*
Y426428D01*
X665378Y425134D01*
X661480Y421236D01*
X659370Y416142D01*
Y410629D01*
X661480Y405536D01*
X665378Y401637D01*
X670472Y399528D01*
X675985D01*
X681078Y401637D01*
X684977Y405536D01*
X687087Y410629D01*
Y416142D01*
X684977Y421236D01*
X681078Y425134D01*
X677955Y426428D01*
Y431840D01*
X681078Y433134D01*
X684977Y437032D01*
X687087Y442125D01*
Y447639D01*
X684977Y452732D01*
X681078Y456630D01*
X675985Y458740D01*
D02*
G37*
G36*
X526379Y423228D02*
X520865D01*
X515772Y421118D01*
X511874Y417220D01*
X509764Y412127D01*
Y406613D01*
X511874Y401520D01*
X515772Y397622D01*
X520865Y395512D01*
X526379D01*
X531472Y397622D01*
X535370Y401520D01*
X537480Y406613D01*
Y412127D01*
X535370Y417220D01*
X531472Y421118D01*
X526379Y423228D01*
D02*
G37*
G36*
X223223Y413323D02*
X217710D01*
X212617Y411213D01*
X208718Y407315D01*
X206608Y402221D01*
Y396708D01*
X208718Y391615D01*
X212617Y387716D01*
X217710Y385606D01*
X223223D01*
X228316Y387716D01*
X232215Y391615D01*
X234325Y396708D01*
Y402221D01*
X232215Y407315D01*
X228316Y411213D01*
X223223Y413323D01*
D02*
G37*
G36*
X61812Y411496D02*
X56298D01*
X51205Y409386D01*
X47307Y405488D01*
X45197Y400394D01*
Y394881D01*
X47307Y389788D01*
X51205Y385889D01*
X56298Y383780D01*
X61812D01*
X66905Y385889D01*
X70803Y389788D01*
X72913Y394881D01*
Y400394D01*
X70803Y405488D01*
X66905Y409386D01*
X61812Y411496D01*
D02*
G37*
G36*
X183859Y415433D02*
X178346D01*
X173252Y413323D01*
X169354Y409425D01*
X167244Y404331D01*
Y398818D01*
X168167Y396591D01*
X164955Y391591D01*
X164444D01*
X159351Y389481D01*
X155452Y385583D01*
X153343Y380490D01*
Y374976D01*
X155452Y369883D01*
X159351Y365985D01*
X164444Y363875D01*
X169958D01*
X175051Y365985D01*
X178949Y369883D01*
X181059Y374976D01*
Y380490D01*
X180137Y382716D01*
X183349Y387717D01*
X183859D01*
X188952Y389826D01*
X192851Y393725D01*
X194961Y398818D01*
Y404331D01*
X192851Y409425D01*
X188952Y413323D01*
X183859Y415433D01*
D02*
G37*
G36*
X308662Y336693D02*
X303149D01*
X298055Y334583D01*
X294157Y330685D01*
X292047Y325591D01*
Y320078D01*
X294157Y314985D01*
X298055Y311086D01*
X303149Y308976D01*
X308662D01*
X313755Y311086D01*
X317654Y314985D01*
X319764Y320078D01*
Y325591D01*
X317654Y330685D01*
X313755Y334583D01*
X308662Y336693D01*
D02*
G37*
G36*
X147245D02*
X141732D01*
X136638Y334583D01*
X132740Y330685D01*
X130630Y325591D01*
Y320078D01*
X132740Y314985D01*
X136638Y311086D01*
X141732Y308976D01*
X147245D01*
X152338Y311086D01*
X156237Y314985D01*
X158346Y320078D01*
Y325591D01*
X156237Y330685D01*
X152338Y334583D01*
X147245Y336693D01*
D02*
G37*
G36*
X363387Y313071D02*
X357873D01*
X352780Y310961D01*
X348882Y307063D01*
X346772Y301969D01*
Y296456D01*
X348882Y291363D01*
X352780Y287464D01*
X357873Y285354D01*
X363387D01*
X368480Y287464D01*
X372378Y291363D01*
X374488Y296456D01*
Y301969D01*
X372378Y307063D01*
X368480Y310961D01*
X363387Y313071D01*
D02*
G37*
G36*
X201969D02*
X196456D01*
X191363Y310961D01*
X187464Y307063D01*
X185355Y301969D01*
Y296456D01*
X187464Y291363D01*
X191363Y287464D01*
X196456Y285354D01*
X201969D01*
X207063Y287464D01*
X210961Y291363D01*
X213071Y296456D01*
Y301969D01*
X210961Y307063D01*
X207063Y310961D01*
X201969Y313071D01*
D02*
G37*
G36*
X40552D02*
X35039D01*
X29945Y310961D01*
X26047Y307063D01*
X23937Y301969D01*
Y296456D01*
X26047Y291363D01*
X29945Y287464D01*
X35039Y285354D01*
X40552D01*
X45645Y287464D01*
X49544Y291363D01*
X51654Y296456D01*
Y301969D01*
X49544Y307063D01*
X45645Y310961D01*
X40552Y313071D01*
D02*
G37*
G36*
X147245Y303713D02*
X141732D01*
X136638Y301603D01*
X132740Y297705D01*
X130630Y292611D01*
Y287098D01*
X132740Y282005D01*
X136638Y278106D01*
X141732Y275997D01*
X147245D01*
X152338Y278106D01*
X156237Y282005D01*
X158346Y287098D01*
Y292611D01*
X156237Y297705D01*
X152338Y301603D01*
X147245Y303713D01*
D02*
G37*
G36*
X588962Y391890D02*
X583448D01*
X578355Y389780D01*
X574457Y385882D01*
X572347Y380788D01*
Y375275D01*
X574457Y370182D01*
X578355Y366283D01*
X583448Y364173D01*
X588962D01*
X594055Y366283D01*
X595608Y367836D01*
X636541D01*
X729962Y274415D01*
Y217159D01*
X728409Y215606D01*
X726299Y210513D01*
Y204999D01*
X728409Y199906D01*
X732308Y196008D01*
X737401Y193898D01*
X742914D01*
X748008Y196008D01*
X751906Y199906D01*
X754016Y204999D01*
Y210513D01*
X751906Y215606D01*
X750353Y217159D01*
Y278638D01*
X749577Y282540D01*
X747367Y285848D01*
X647974Y385241D01*
X644666Y387451D01*
X640764Y388228D01*
X595608D01*
X594055Y389780D01*
X588962Y391890D01*
D02*
G37*
G36*
X785316Y201929D02*
X779803D01*
X774709Y199819D01*
X770811Y195921D01*
X768701Y190827D01*
Y185314D01*
X770811Y180221D01*
X774709Y176322D01*
X779803Y174213D01*
X785316D01*
X790409Y176322D01*
X794308Y180221D01*
X796417Y185314D01*
Y190827D01*
X794308Y195921D01*
X790409Y199819D01*
X785316Y201929D01*
D02*
G37*
G36*
X597245Y155590D02*
X591732D01*
X586638Y153481D01*
X582740Y149582D01*
X580630Y144489D01*
Y138976D01*
X582740Y133882D01*
X586638Y129984D01*
X591732Y127874D01*
X597245D01*
X602338Y129984D01*
X606237Y133882D01*
X608346Y138976D01*
Y144489D01*
X606237Y149582D01*
X602338Y153481D01*
X597245Y155590D01*
D02*
G37*
G36*
X502757Y116220D02*
X497243D01*
X492150Y114111D01*
X488252Y110212D01*
X486142Y105119D01*
Y99606D01*
X488252Y94512D01*
X492150Y90614D01*
X497243Y88504D01*
X502757D01*
X507850Y90614D01*
X511748Y94512D01*
X513858Y99606D01*
Y105119D01*
X511748Y110212D01*
X507850Y114111D01*
X502757Y116220D01*
D02*
G37*
G36*
X675985Y106772D02*
X670472D01*
X665378Y104662D01*
X661480Y100763D01*
X659370Y95670D01*
Y90157D01*
X661480Y85064D01*
X665378Y81165D01*
X670472Y79055D01*
X675985D01*
X681078Y81165D01*
X684977Y85064D01*
X687086Y90157D01*
Y95670D01*
X684977Y100763D01*
X681078Y104662D01*
X675985Y106772D01*
D02*
G37*
G36*
X317796Y536378D02*
X312283D01*
X307189Y534268D01*
X303291Y530370D01*
X301181Y525276D01*
Y519763D01*
X303291Y514670D01*
X307189Y510771D01*
X312283Y508662D01*
X317796D01*
X322889Y510771D01*
X326788Y514670D01*
X328898Y519763D01*
Y525276D01*
X326788Y530370D01*
X322889Y534268D01*
X317796Y536378D01*
D02*
G37*
G36*
X311300Y444094D02*
X305787D01*
X300693Y441985D01*
X296795Y438086D01*
X294685Y432993D01*
Y427479D01*
X296795Y422386D01*
X300693Y418488D01*
X305787Y416378D01*
X311300D01*
X316394Y418488D01*
X320292Y422386D01*
X322402Y427479D01*
Y432993D01*
X320292Y438086D01*
X316394Y441985D01*
X311300Y444094D01*
D02*
G37*
G36*
X385363Y413823D02*
X379849D01*
X374756Y411713D01*
X370858Y407815D01*
X368748Y402721D01*
Y397208D01*
X370858Y392115D01*
X374756Y388216D01*
X379849Y386106D01*
X385363D01*
X390456Y388216D01*
X394354Y392115D01*
X396464Y397208D01*
Y402721D01*
X394354Y407815D01*
X390456Y411713D01*
X385363Y413823D01*
D02*
G37*
%LPD*%
D14*
X413386Y74803D02*
D03*
X251969D02*
D03*
X90551D02*
D03*
D38*
X714272Y600689D02*
X720472Y594488D01*
X597815Y941555D02*
X714272Y825098D01*
Y600689D02*
Y825098D01*
X720472Y594488D02*
X744095D01*
X772264Y622658D01*
Y807697D01*
X807087Y842520D01*
X548342Y941555D02*
X597815D01*
X448819Y842032D02*
X548342Y941555D01*
X448819Y759842D02*
Y842032D01*
X204112Y1058443D02*
X283465Y1137795D01*
X100151Y1058443D02*
X204112D01*
X99538Y1059055D02*
X100151Y1058443D01*
X59055Y1059055D02*
X99538D01*
X64815Y797390D02*
X155557Y706648D01*
X64815Y864027D02*
X74803Y874016D01*
X64815Y797390D02*
Y864027D01*
X107126Y933071D02*
X161417D01*
X43307D02*
Y1000000D01*
X70866Y1027559D01*
X94488D01*
X31496Y759843D02*
Y1011811D01*
X66929Y1047244D02*
X212598D01*
X31496Y1011811D02*
X66929Y1047244D01*
X19685Y1019685D02*
X59055Y1059055D01*
X19685Y751969D02*
Y1019685D01*
X43307Y933071D02*
X119632Y856746D01*
Y781943D02*
Y856746D01*
X19685Y751969D02*
X177165Y594488D01*
X31496Y759843D02*
X188257Y603081D01*
X301855Y1154154D02*
X362815D01*
X379374Y1170713D02*
X474957D01*
X362815Y1154154D02*
X379374Y1170713D01*
X474957D02*
X492126Y1153543D01*
X283465Y1137795D02*
X369937D01*
X390547Y1158405D01*
X404099D02*
X413681Y1148823D01*
Y1126279D02*
Y1148823D01*
X390547Y1158405D02*
X404099D01*
X413386Y1125984D02*
X413681Y1126279D01*
X212598Y1047244D02*
X291339Y1125984D01*
X381260D02*
X397323Y1142047D01*
X291339Y1125984D02*
X381260D01*
X368898Y1188622D02*
X488544D01*
X507874Y1055118D02*
X527559D01*
X555457Y881551D02*
X570843Y866165D01*
Y626945D02*
Y866165D01*
X86614Y850392D02*
X91528D01*
Y790362D02*
Y850392D01*
X161417Y933071D02*
X546634Y547855D01*
X94488Y997588D02*
X116585D01*
X555118Y559055D01*
X775591Y511811D02*
Y535433D01*
Y511811D02*
X803150Y484252D01*
X736220Y574803D02*
X775591Y535433D01*
X764220Y468063D02*
X803150Y429134D01*
X764220Y468063D02*
Y527118D01*
X751968Y425197D02*
X803150Y374016D01*
X556724Y574803D02*
X736220D01*
X555118Y559055D02*
X732284D01*
X764220Y527118D01*
X546634Y547855D02*
X727736D01*
X751968Y425197D02*
Y523622D01*
X727736Y547855D02*
X751968Y523622D01*
X121885Y1009642D02*
X556724Y574803D01*
X121885Y1009642D02*
Y1030886D01*
X119632Y781943D02*
X165354Y736221D01*
X488544Y1188622D02*
X507874Y1169291D01*
X671756D01*
X748642Y1246177D01*
X736221Y1287027D02*
X748642Y1274606D01*
Y1246177D02*
Y1274606D01*
X736221Y1287027D02*
Y1318898D01*
X492126Y1153543D02*
X744094D01*
X807697Y1217146D01*
Y1306476D01*
X795276Y1318898D02*
X807697Y1306476D01*
X177165Y488189D02*
X318898Y346457D01*
X393628D01*
X177165Y488189D02*
Y594488D01*
X188257Y495243D02*
Y603081D01*
Y495243D02*
X325233Y358268D01*
X456693D01*
X393628Y346457D02*
X440777Y299308D01*
X498063Y293276D02*
Y316898D01*
X456693Y358268D02*
X498063Y316898D01*
X118110Y173228D02*
X139862Y151476D01*
X479256D01*
X492126Y164346D01*
X491870Y141476D02*
X515087Y164693D01*
X126728Y141476D02*
X491870D01*
X86614Y181590D02*
X126728Y141476D01*
X492126Y164346D02*
Y177165D01*
X300488Y255905D02*
X539370D01*
X650020Y145256D02*
X715216D01*
X539370Y255905D02*
X650020Y145256D01*
X279527Y267716D02*
X543307D01*
X649410Y161614D02*
X688976D01*
X543307Y267716D02*
X649410Y161614D01*
X715216Y145256D02*
X716535Y146575D01*
X515087Y164693D02*
Y176504D01*
X515748Y177165D01*
X492126D02*
X515748Y200787D01*
X248031Y236220D02*
X279527Y267716D01*
X279528Y173228D02*
Y234945D01*
X300488Y255905D01*
X86614Y181590D02*
Y233268D01*
X625496Y287402D02*
X661839Y251059D01*
X594488Y255905D02*
X622047Y228346D01*
X578740Y255905D02*
X594488D01*
X606299Y271654D02*
X648945Y229008D01*
X366142Y488189D02*
X582677Y271654D01*
X606299D01*
X648945Y229008D02*
X660756D01*
X661417Y228346D01*
X366142Y488189D02*
Y543307D01*
X311024Y598425D02*
X366142Y543307D01*
X311024Y598425D02*
Y671386D01*
X261937Y720472D02*
X311024Y671386D01*
X161418Y720472D02*
X261937D01*
X91528Y790362D02*
X161418Y720472D01*
X155557Y706648D02*
X257919D01*
X299213Y665354D01*
Y594488D02*
Y665354D01*
Y594488D02*
X354331Y539370D01*
Y480315D02*
Y539370D01*
Y480315D02*
X578740Y255905D01*
X165354Y736221D02*
X260331D01*
X322835Y673717D01*
Y602362D02*
Y673717D01*
Y602362D02*
X377953Y547244D01*
Y496063D02*
Y547244D01*
Y496063D02*
X586614Y287402D01*
X625496D01*
X527559Y1055118D02*
X731299Y851378D01*
Y614173D02*
Y851378D01*
X558071Y614173D02*
X570843Y626945D01*
X523524Y844976D02*
X531496Y837004D01*
X523524Y844976D02*
Y846292D01*
X531496Y614173D02*
Y837004D01*
Y614173D02*
X556358Y589311D01*
X661161D01*
X644685Y614173D02*
X644685Y614173D01*
Y835630D01*
X661161Y589311D02*
X686024Y614173D01*
X555118Y925197D02*
X644685Y835630D01*
D39*
X156875Y1294990D02*
X157161Y1295276D01*
X253635D01*
X202264Y1325295D02*
X208661Y1318898D01*
X195217Y1325295D02*
X202264D01*
X193740Y1326772D02*
X195217Y1325295D01*
X208661Y1318898D02*
X244094D01*
X270039Y1344843D01*
X740158Y207756D02*
Y278638D01*
X640764Y378032D02*
X740158Y278638D01*
X586205Y378032D02*
X640764D01*
X270039Y1344843D02*
X342046D01*
X344369Y1342520D02*
X346457D01*
X342046Y1344843D02*
X344369Y1342520D01*
X253635Y1295276D02*
X282336Y1323976D01*
D40*
X448819Y759842D02*
D03*
X812914Y700787D02*
D03*
X807087Y842520D02*
D03*
X551181Y1251968D02*
D03*
X556102Y1216535D02*
D03*
X153543Y1078661D02*
D03*
X697914Y778228D02*
D03*
X194591Y825983D02*
D03*
X338583Y818898D02*
D03*
X429957Y1150458D02*
D03*
X78740Y751968D02*
D03*
Y921260D02*
D03*
X62501Y976048D02*
D03*
X70866Y1003937D02*
D03*
X107126Y933071D02*
D03*
X594488Y141732D02*
D03*
X782559Y188071D02*
D03*
X94488Y1027559D02*
D03*
X118110Y1251968D02*
D03*
X161417Y1322835D02*
D03*
X156875Y1294990D02*
D03*
X193740Y1326772D02*
D03*
X301855Y1154154D02*
D03*
X376969Y1255906D02*
D03*
X413386Y1125984D02*
D03*
X368898Y1188622D02*
D03*
X397323Y1142047D02*
D03*
X466535Y1146653D02*
D03*
X492126Y1279528D02*
D03*
X78740Y1255906D02*
D03*
Y1232284D02*
D03*
X27559Y1311024D02*
D03*
X51181D02*
D03*
X27559Y1283465D02*
D03*
X51181D02*
D03*
X27559Y1255906D02*
D03*
X51181D02*
D03*
X27559Y1228347D02*
D03*
X51181D02*
D03*
Y1122047D02*
D03*
X27559D02*
D03*
Y1145669D02*
D03*
X51181D02*
D03*
Y1173228D02*
D03*
X27559D02*
D03*
X51181Y1200787D02*
D03*
X27559D02*
D03*
X527559Y1287402D02*
D03*
X590551Y1118110D02*
D03*
X559055D02*
D03*
X590551Y1437008D02*
D03*
X496063Y1106299D02*
D03*
X505921Y1077750D02*
D03*
X507874Y1055118D02*
D03*
X440507Y1114611D02*
D03*
X465005Y1090113D02*
D03*
X763779Y582677D02*
D03*
X803150Y586614D02*
D03*
X755905Y665354D02*
D03*
X716535Y901575D02*
D03*
X669291Y834646D02*
D03*
X644488Y863386D02*
D03*
X493827Y752579D02*
D03*
X100787Y1078740D02*
D03*
X555118Y881890D02*
D03*
X339193Y672724D02*
D03*
X269929Y671504D02*
D03*
X165354Y664744D02*
D03*
X94488Y728346D02*
D03*
X492126Y669291D02*
D03*
X118110Y716535D02*
D03*
X86614Y850392D02*
D03*
X74803Y874016D02*
D03*
X464567Y1425197D02*
D03*
Y1342520D02*
D03*
Y1397638D02*
D03*
Y1370079D02*
D03*
X472003Y775153D02*
D03*
X493091Y797098D02*
D03*
X503937Y830709D02*
D03*
X94488Y997588D02*
D03*
X696849Y732282D02*
D03*
X620689Y732284D02*
D03*
X587201D02*
D03*
Y708661D02*
D03*
X558071Y614173D02*
D03*
X783472Y224401D02*
D03*
X121885Y1030886D02*
D03*
X803150Y318898D02*
D03*
Y374016D02*
D03*
Y429134D02*
D03*
Y484252D02*
D03*
X409449Y1299213D02*
D03*
X374016Y1397638D02*
D03*
X346457D02*
D03*
X374016Y1370079D02*
D03*
X346457Y1342520D02*
D03*
X374016D02*
D03*
X346457Y1425197D02*
D03*
X374016D02*
D03*
X346457Y1370079D02*
D03*
X169291Y1208661D02*
D03*
X161417Y1122047D02*
D03*
X137795Y1196850D02*
D03*
X161417Y1169291D02*
D03*
X137795Y1141732D02*
D03*
X712598Y279528D02*
D03*
X685039D02*
D03*
X657480D02*
D03*
X716535Y444882D02*
D03*
X673228D02*
D03*
Y413386D02*
D03*
X716535D02*
D03*
X282336Y1323976D02*
D03*
X309778Y1325984D02*
D03*
X488189Y1425197D02*
D03*
Y1342520D02*
D03*
Y1370079D02*
D03*
Y1397638D02*
D03*
X657480Y1267716D02*
D03*
X681102Y1236220D02*
D03*
Y1267716D02*
D03*
X657480Y1236220D02*
D03*
X360248Y1269075D02*
D03*
X405591Y1324724D02*
D03*
X629921Y132874D02*
D03*
X799212D02*
D03*
X586205Y378032D02*
D03*
X676968Y940945D02*
D03*
X713209Y968504D02*
D03*
X676968D02*
D03*
X732284Y1252953D02*
D03*
X791339Y1282480D02*
D03*
X763779Y1303150D02*
D03*
X712598Y1299213D02*
D03*
X688976Y1314961D02*
D03*
X795276Y1318898D02*
D03*
X736221D02*
D03*
X503937Y239547D02*
D03*
X531496D02*
D03*
X675659Y1072860D02*
D03*
X608661Y822835D02*
D03*
X523622Y409370D02*
D03*
X610236Y491142D02*
D03*
X570866D02*
D03*
X531496D02*
D03*
X350394Y167835D02*
D03*
X614173Y1011811D02*
D03*
X677165Y1039370D02*
D03*
X674803Y1000000D02*
D03*
X659842Y1197638D02*
D03*
X732282Y1118108D02*
D03*
X740158Y207756D02*
D03*
X228346Y1409449D02*
D03*
X188976Y1448819D02*
D03*
X188976Y1370079D02*
D03*
X267716Y1370079D02*
D03*
X267717Y1448819D02*
D03*
X188976Y1409449D02*
D03*
X228346Y1370079D02*
D03*
X267716Y1409449D02*
D03*
X228346Y1448819D02*
D03*
X66929D02*
D03*
X106299Y1409449D02*
D03*
X66929Y1370079D02*
D03*
X27559Y1409449D02*
D03*
X106299Y1448819D02*
D03*
X106299Y1370079D02*
D03*
X27559Y1370079D02*
D03*
X27559Y1448819D02*
D03*
X66929Y1409449D02*
D03*
X413386Y74803D02*
D03*
X377953Y110236D02*
D03*
Y39370D02*
D03*
X448819D02*
D03*
Y110236D02*
D03*
X377953Y74803D02*
D03*
X413386Y39370D02*
D03*
X448819Y74803D02*
D03*
X413386Y110236D02*
D03*
X498063Y293276D02*
D03*
X440777Y299308D02*
D03*
X505661Y132134D02*
D03*
X673228Y127559D02*
D03*
Y92913D02*
D03*
X500000Y102362D02*
D03*
X716535Y146575D02*
D03*
X688976Y161614D02*
D03*
X279528Y173228D02*
D03*
X118110D02*
D03*
X515748Y200787D02*
D03*
Y177165D02*
D03*
X661417Y228346D02*
D03*
X622047D02*
D03*
X661839Y251059D02*
D03*
X224409Y259842D02*
D03*
Y236220D02*
D03*
X248031D02*
D03*
Y259842D02*
D03*
X62992Y256890D02*
D03*
Y233268D02*
D03*
X86614D02*
D03*
Y256890D02*
D03*
X251969Y74803D02*
D03*
X216535Y110236D02*
D03*
Y39370D02*
D03*
X287402D02*
D03*
Y110236D02*
D03*
X216535Y74803D02*
D03*
X251969Y39370D02*
D03*
X287402Y74803D02*
D03*
X251969Y110236D02*
D03*
X90551D02*
D03*
X125984Y74803D02*
D03*
X90551Y39370D02*
D03*
X55118Y74803D02*
D03*
X125984Y110236D02*
D03*
Y39370D02*
D03*
X55118D02*
D03*
Y110236D02*
D03*
X90551Y74803D02*
D03*
X37795Y299213D02*
D03*
X310547Y1009187D02*
D03*
X390601Y930924D02*
D03*
X312337Y850870D02*
D03*
X232284Y929134D02*
D03*
X311442Y930029D02*
D03*
X168767Y762857D02*
D03*
X144269Y787355D02*
D03*
X548768Y1006447D02*
D03*
X524270Y1030945D02*
D03*
X167201Y377733D02*
D03*
X329216Y377419D02*
D03*
X20943Y544662D02*
D03*
X382606Y399964D02*
D03*
X220466Y399464D02*
D03*
X51181Y688976D02*
D03*
X476457Y499803D02*
D03*
X315039D02*
D03*
X153622D02*
D03*
X147126Y430236D02*
D03*
X475086Y452367D02*
D03*
X313669D02*
D03*
X150919Y452634D02*
D03*
X343346Y401575D02*
D03*
X19685Y496063D02*
D03*
Y444882D02*
D03*
X20512Y397638D02*
D03*
X181102Y401575D02*
D03*
X59055Y397638D02*
D03*
X720472Y524606D02*
D03*
X562992D02*
D03*
X641732D02*
D03*
X731299Y614173D02*
D03*
X686024D02*
D03*
X644685D02*
D03*
X342441Y641732D02*
D03*
X181024D02*
D03*
X437008Y606299D02*
D03*
X413386D02*
D03*
X389764D02*
D03*
X366142D02*
D03*
X469961Y430236D02*
D03*
X476457Y522520D02*
D03*
X308543Y430236D02*
D03*
X315039Y522520D02*
D03*
X153622D02*
D03*
X78740Y665354D02*
D03*
X244094D02*
D03*
X55118D02*
D03*
X377953D02*
D03*
X401575D02*
D03*
X216535D02*
D03*
X549091Y856788D02*
D03*
X204724Y606299D02*
D03*
X228346D02*
D03*
X251969D02*
D03*
X275591D02*
D03*
X114173D02*
D03*
X90551D02*
D03*
X66929D02*
D03*
X43307D02*
D03*
X523524Y846292D02*
D03*
X555118Y925197D02*
D03*
X360630Y299213D02*
D03*
X199213D02*
D03*
X144488Y322835D02*
D03*
X467323Y289855D02*
D03*
Y322835D02*
D03*
X305906Y289855D02*
D03*
Y322835D02*
D03*
X144488Y289855D02*
D03*
X467323Y238189D02*
D03*
Y206693D02*
D03*
X472063Y176458D02*
D03*
X305906Y238189D02*
D03*
Y206693D02*
D03*
X310646Y176458D02*
D03*
X149229D02*
D03*
X144488Y206693D02*
D03*
Y238189D02*
D03*
%TF.MD5,191d616d014dcea88ced4808f37304b5*%
M02*
