%TF.GenerationSoftware,Altium Limited,Altium Designer,24.6.1 (21)*%
G04 Layer_Color=0*
%FSLAX26Y26*%
%MOIN*%
%TF.SameCoordinates,E3325630-42F2-41CE-953C-F4D0AC061200*%
%TF.FilePolarity,Positive*%
%TF.FileFunction,Plated,1,8,PTH,Drill*%
%TF.Part,Single*%
G01*
G75*
%TA.AperFunction,ViaDrill,NotFilled*%
%ADD122C,0.011811*%
D122*
X448819Y759842D02*
D03*
X812914Y700787D02*
D03*
X807087Y842520D02*
D03*
X551181Y1251968D02*
D03*
X556102Y1216535D02*
D03*
X153543Y1078661D02*
D03*
X697914Y778228D02*
D03*
X194591Y825983D02*
D03*
X338583Y818898D02*
D03*
X429957Y1150458D02*
D03*
X78740Y751968D02*
D03*
Y921260D02*
D03*
X62501Y976048D02*
D03*
X70866Y1003937D02*
D03*
X107126Y933071D02*
D03*
X594488Y141732D02*
D03*
X782559Y188071D02*
D03*
X94488Y1027559D02*
D03*
X118110Y1251968D02*
D03*
X161417Y1322835D02*
D03*
X156875Y1294990D02*
D03*
X193740Y1326772D02*
D03*
X301855Y1154154D02*
D03*
X376969Y1255906D02*
D03*
X413386Y1125984D02*
D03*
X368898Y1188622D02*
D03*
X397323Y1142047D02*
D03*
X466535Y1146653D02*
D03*
X492126Y1279528D02*
D03*
X78740Y1255906D02*
D03*
Y1232284D02*
D03*
X27559Y1311024D02*
D03*
X51181D02*
D03*
X27559Y1283465D02*
D03*
X51181D02*
D03*
X27559Y1255906D02*
D03*
X51181D02*
D03*
X27559Y1228347D02*
D03*
X51181D02*
D03*
Y1122047D02*
D03*
X27559D02*
D03*
Y1145669D02*
D03*
X51181D02*
D03*
Y1173228D02*
D03*
X27559D02*
D03*
X51181Y1200787D02*
D03*
X27559D02*
D03*
X527559Y1287402D02*
D03*
X590551Y1118110D02*
D03*
X559055D02*
D03*
X590551Y1437008D02*
D03*
X496063Y1106299D02*
D03*
X505921Y1077750D02*
D03*
X507874Y1055118D02*
D03*
X440507Y1114611D02*
D03*
X465005Y1090113D02*
D03*
X763779Y582677D02*
D03*
X803150Y586614D02*
D03*
X755905Y665354D02*
D03*
X716535Y901575D02*
D03*
X669291Y834646D02*
D03*
X644488Y863386D02*
D03*
X493827Y752579D02*
D03*
X100787Y1078740D02*
D03*
X555118Y881890D02*
D03*
X339193Y672724D02*
D03*
X269929Y671504D02*
D03*
X165354Y664744D02*
D03*
X94488Y728346D02*
D03*
X492126Y669291D02*
D03*
X118110Y716535D02*
D03*
X86614Y850392D02*
D03*
X74803Y874016D02*
D03*
X464567Y1425197D02*
D03*
Y1342520D02*
D03*
Y1397638D02*
D03*
Y1370079D02*
D03*
X472003Y775153D02*
D03*
X493091Y797098D02*
D03*
X503937Y830709D02*
D03*
X94488Y997588D02*
D03*
X696849Y732282D02*
D03*
X620689Y732284D02*
D03*
X587201D02*
D03*
Y708661D02*
D03*
X558071Y614173D02*
D03*
X783472Y224401D02*
D03*
X121885Y1030886D02*
D03*
X803150Y318898D02*
D03*
Y374016D02*
D03*
Y429134D02*
D03*
Y484252D02*
D03*
X409449Y1299213D02*
D03*
X374016Y1397638D02*
D03*
X346457D02*
D03*
X374016Y1370079D02*
D03*
X346457Y1342520D02*
D03*
X374016D02*
D03*
X346457Y1425197D02*
D03*
X374016D02*
D03*
X346457Y1370079D02*
D03*
X169291Y1208661D02*
D03*
X161417Y1122047D02*
D03*
X137795Y1196850D02*
D03*
X161417Y1169291D02*
D03*
X137795Y1141732D02*
D03*
X712598Y279528D02*
D03*
X685039D02*
D03*
X657480D02*
D03*
X716535Y444882D02*
D03*
X673228D02*
D03*
Y413386D02*
D03*
X716535D02*
D03*
X282336Y1323976D02*
D03*
X309778Y1325984D02*
D03*
X488189Y1425197D02*
D03*
Y1342520D02*
D03*
Y1370079D02*
D03*
Y1397638D02*
D03*
X657480Y1267716D02*
D03*
X681102Y1236220D02*
D03*
Y1267716D02*
D03*
X657480Y1236220D02*
D03*
X360248Y1269075D02*
D03*
X405591Y1324724D02*
D03*
X629921Y132874D02*
D03*
X799212D02*
D03*
X586205Y378032D02*
D03*
X676968Y940945D02*
D03*
X713209Y968504D02*
D03*
X676968D02*
D03*
X732284Y1252953D02*
D03*
X791339Y1282480D02*
D03*
X763779Y1303150D02*
D03*
X712598Y1299213D02*
D03*
X688976Y1314961D02*
D03*
X795276Y1318898D02*
D03*
X736221D02*
D03*
X503937Y239547D02*
D03*
X531496D02*
D03*
X675659Y1072860D02*
D03*
X608661Y822835D02*
D03*
X523622Y409370D02*
D03*
X610236Y491142D02*
D03*
X570866D02*
D03*
X531496D02*
D03*
X350394Y167835D02*
D03*
X614173Y1011811D02*
D03*
X677165Y1039370D02*
D03*
X674803Y1000000D02*
D03*
X659842Y1197638D02*
D03*
X732282Y1118108D02*
D03*
X740158Y207756D02*
D03*
X228346Y1409449D02*
D03*
X188976Y1448819D02*
D03*
X188976Y1370079D02*
D03*
X267716Y1370079D02*
D03*
X267717Y1448819D02*
D03*
X188976Y1409449D02*
D03*
X228346Y1370079D02*
D03*
X267716Y1409449D02*
D03*
X228346Y1448819D02*
D03*
X66929D02*
D03*
X106299Y1409449D02*
D03*
X66929Y1370079D02*
D03*
X27559Y1409449D02*
D03*
X106299Y1448819D02*
D03*
X106299Y1370079D02*
D03*
X27559Y1370079D02*
D03*
X27559Y1448819D02*
D03*
X66929Y1409449D02*
D03*
X413386Y74803D02*
D03*
X377953Y110236D02*
D03*
Y39370D02*
D03*
X448819D02*
D03*
Y110236D02*
D03*
X377953Y74803D02*
D03*
X413386Y39370D02*
D03*
X448819Y74803D02*
D03*
X413386Y110236D02*
D03*
X498063Y293276D02*
D03*
X440777Y299308D02*
D03*
X505661Y132134D02*
D03*
X673228Y127559D02*
D03*
Y92913D02*
D03*
X500000Y102362D02*
D03*
X716535Y146575D02*
D03*
X688976Y161614D02*
D03*
X279528Y173228D02*
D03*
X118110D02*
D03*
X515748Y200787D02*
D03*
Y177165D02*
D03*
X661417Y228346D02*
D03*
X622047D02*
D03*
X661839Y251059D02*
D03*
X224409Y259842D02*
D03*
Y236220D02*
D03*
X248031D02*
D03*
Y259842D02*
D03*
X62992Y256890D02*
D03*
Y233268D02*
D03*
X86614D02*
D03*
Y256890D02*
D03*
X251969Y74803D02*
D03*
X216535Y110236D02*
D03*
Y39370D02*
D03*
X287402D02*
D03*
Y110236D02*
D03*
X216535Y74803D02*
D03*
X251969Y39370D02*
D03*
X287402Y74803D02*
D03*
X251969Y110236D02*
D03*
X90551D02*
D03*
X125984Y74803D02*
D03*
X90551Y39370D02*
D03*
X55118Y74803D02*
D03*
X125984Y110236D02*
D03*
Y39370D02*
D03*
X55118D02*
D03*
Y110236D02*
D03*
X90551Y74803D02*
D03*
X37795Y299213D02*
D03*
X310547Y1009187D02*
D03*
X390601Y930924D02*
D03*
X312337Y850870D02*
D03*
X232284Y929134D02*
D03*
X311442Y930029D02*
D03*
X168767Y762857D02*
D03*
X144269Y787355D02*
D03*
X548768Y1006447D02*
D03*
X524270Y1030945D02*
D03*
X167201Y377733D02*
D03*
X329216Y377419D02*
D03*
X20943Y544662D02*
D03*
X382606Y399964D02*
D03*
X220466Y399464D02*
D03*
X51181Y688976D02*
D03*
X476457Y499803D02*
D03*
X315039D02*
D03*
X153622D02*
D03*
X147126Y430236D02*
D03*
X475086Y452367D02*
D03*
X313669D02*
D03*
X150919Y452634D02*
D03*
X343346Y401575D02*
D03*
X19685Y496063D02*
D03*
Y444882D02*
D03*
X20512Y397638D02*
D03*
X181102Y401575D02*
D03*
X59055Y397638D02*
D03*
X720472Y524606D02*
D03*
X562992D02*
D03*
X641732D02*
D03*
X731299Y614173D02*
D03*
X686024D02*
D03*
X644685D02*
D03*
X342441Y641732D02*
D03*
X181024D02*
D03*
X437008Y606299D02*
D03*
X413386D02*
D03*
X389764D02*
D03*
X366142D02*
D03*
X469961Y430236D02*
D03*
X476457Y522520D02*
D03*
X308543Y430236D02*
D03*
X315039Y522520D02*
D03*
X153622D02*
D03*
X78740Y665354D02*
D03*
X244094D02*
D03*
X55118D02*
D03*
X377953D02*
D03*
X401575D02*
D03*
X216535D02*
D03*
X549091Y856788D02*
D03*
X204724Y606299D02*
D03*
X228346D02*
D03*
X251969D02*
D03*
X275591D02*
D03*
X114173D02*
D03*
X90551D02*
D03*
X66929D02*
D03*
X43307D02*
D03*
X523524Y846292D02*
D03*
X555118Y925197D02*
D03*
X360630Y299213D02*
D03*
X199213D02*
D03*
X144488Y322835D02*
D03*
X467323Y289855D02*
D03*
Y322835D02*
D03*
X305906Y289855D02*
D03*
Y322835D02*
D03*
X144488Y289855D02*
D03*
X467323Y238189D02*
D03*
Y206693D02*
D03*
X472063Y176458D02*
D03*
X305906Y238189D02*
D03*
Y206693D02*
D03*
X310646Y176458D02*
D03*
X149229D02*
D03*
X144488Y206693D02*
D03*
Y238189D02*
D03*
%TF.MD5,7979c5e051125a06ea4db8a8703049cf*%
M02*
