M48
;Layer_Color=9474304
;FILE_FORMAT=2:4
INCH,TZ
;TYPE=PLATED
T01F00S00C0.0118
%
T01
X551Y394
X906
X1260
Y748
Y1102
X906
X551
Y748
X906
X1181Y1732
X1492Y1765
X1445Y2067
Y2382
Y2899
Y3228
X1672Y3777
X1811Y4016
X2205Y3995
X1471Y4302
X1509Y4526
X1536Y4998
Y5225
X1142Y6063
X906
X669
X433
X551Y6654
X787
X512Y6890
X945Y7283
X1181Y7165
X787Y7520
X1688Y7629
X1443Y7874
X1946Y8260
X866Y8504
X748Y8740
X787Y9213
X1071Y9331
X945Y9976
X709Y10039
X625Y9760
X2323Y9291
X3114Y9300
X3105Y10092
X3906Y9309
X3123Y8509
X3386Y8189
X3392Y6727
X3424Y6417
X3661Y6063
X3898
X4134
X4370
X4016Y6654
X3780
X2699Y6715
X2441Y6654
X2165
X1654Y6647
X1810Y6417
X2047Y6063
X2283
X2520
X2756
X3150Y5225
Y4998
X3137Y4524
X3085Y4302
X3433Y4016
X3292Y3774
X3826Y4000
X4700Y4302
X4751Y4524
X4765Y4998
X4765Y5225
X5315Y4911
X5709
X6102
X6417Y5246
X7205
X7165Y4449
Y4134
X6732
Y4449
X8031Y4291
Y4843
Y5866
X7638Y5827
X7313Y6142
X6860
X6447
X5581
X5630Y5246
X5236Y4094
X5862Y3780
X6575Y2795
X6850
X7126
X6618Y2511
X6614Y2283
X6220
X5315Y2395
X5039
X4673Y2382
Y2067
X4721Y1765
X5157Y1772
Y2008
X5057Y1321
X5000Y1024
X4488Y1102
Y748
X4134
X3780
Y1102
X4134
Y394
X3780
X4488
X2874
X2520
Y748
X2165
Y1102
X2520
X2874
Y748
X2795Y1732
X3106Y1765
X3059Y2067
Y2382
Y2899
Y3228
X3606Y2992
X4408Y2993
X4673Y2899
Y3228
X4981Y2933
X5945Y1417
X6299Y1329
X6732Y1276
Y929
X6890Y1616
X7165Y1466
X7402Y2078
X7835Y2244
X7826Y1881
X7992Y1329
X8031Y3189
Y3740
X8129Y7008
X7559Y6654
X6968Y7323
X6979Y7782
X6693Y8346
X6445Y8634
X6087Y8228
X5491Y8568
X5551Y8819
X5551Y9252
X5488Y10064
X6142Y10118
X6748Y10000
X6770Y9685
Y9409
X7132Y9685
X7165Y9016
X8071Y8425
X5235Y8463
X5039Y8307
X4931Y7971
X4720Y7752
X4488Y7598
X4938Y7526
X4921Y6693
X5872Y7087
Y7323
X6207
X209Y5447
X197Y4961
Y4449
X205Y3976
X591
X378Y2992
X630Y2569
Y2333
X866
Y2569
X2244Y2598
Y2362
X2480
Y2598
X1992Y2992
X2165Y394
X3504Y1678
X4134Y11260
X3973Y11420
X4300Y11505
X4665Y11467
X4405Y11146
X4650Y10901
X4961Y11063
X5059Y10777
X5079Y10551
X5243Y10309
X5591Y11181
X5906
X6757Y10729
X6772Y10394
X7323Y11181
X7323Y12530
X6811Y12677
X6575
Y12362
X6811
X6598Y11976
X5561Y12165
X5512Y12520
X5276Y12874
X4921Y12795
X4882Y13425
X4646
Y13701
X4882
Y13976
X4646
Y14252
X4882
X3740
X3465
Y13976
X3740
Y13701
X3465
Y13425
X3740
X4056Y13247
X4094Y12992
X3770Y12559
X3602Y12691
X3689Y11886
X3019Y11542
X1614Y11693
X1693Y12087
X1378Y11968
Y11417
X1614Y11220
X1535Y10787
X1008Y10787
X945Y10276
X1219Y10309
X512Y11220
X276
Y11457
X512
Y11732
X276
Y12008
X512
Y12283
X276
Y12559
X512
X787
Y12323
X1181Y12520
X1569Y12950
X1614Y13228
X1937Y13268
X1890Y13701
X1890Y14094
X2283
Y13701
X2677Y13701
Y14094
X2677Y14488
X2283
X1890Y14488
X1063Y14488
X669
Y14094
X1063
Y13701
X669Y13701
X276
X276Y14094
Y14488
Y13110
X512
Y12835
X276
X2823Y13240
X3098Y13260
X6890Y13150
X7126Y12992
X7362Y13189
X7638Y13032
X7953Y13189
X7913Y12825
X5906Y14370
M30
