%TF.GenerationSoftware,Altium Limited,Altium Designer,24.6.1 (21)*%
G04 Layer_Physical_Order=1*
G04 Layer_Color=255*
%FSLAX26Y26*%
%MOIN*%
%TF.SameCoordinates,E3325630-42F2-41CE-953C-F4D0AC061200*%
%TF.FilePolarity,Positive*%
%TF.FileFunction,Copper,L1,Top,Signal*%
%TF.Part,Single*%
G01*
G75*
%TA.AperFunction,SMDPad,CuDef*%
%ADD10R,0.062992X0.153543*%
%ADD11R,0.029528X0.023622*%
%ADD12R,0.031496X0.031496*%
%ADD13R,0.023622X0.025197*%
%ADD14R,0.118110X0.118110*%
%ADD15R,0.025197X0.023622*%
%ADD16R,0.023622X0.029528*%
G04:AMPARAMS|DCode=17|XSize=25.197mil|YSize=23.622mil|CornerRadius=0mil|HoleSize=0mil|Usage=FLASHONLY|Rotation=225.000|XOffset=0mil|YOffset=0mil|HoleType=Round|Shape=Rectangle|*
%AMROTATEDRECTD17*
4,1,4,0.000557,0.017260,0.017260,0.000557,-0.000557,-0.017260,-0.017260,-0.000557,0.000557,0.017260,0.0*
%
%ADD17ROTATEDRECTD17*%

G04:AMPARAMS|DCode=18|XSize=49.213mil|YSize=118.11mil|CornerRadius=12.303mil|HoleSize=0mil|Usage=FLASHONLY|Rotation=0.000|XOffset=0mil|YOffset=0mil|HoleType=Round|Shape=RoundedRectangle|*
%AMROUNDEDRECTD18*
21,1,0.049213,0.093504,0,0,0.0*
21,1,0.024606,0.118110,0,0,0.0*
1,1,0.024606,0.012303,-0.046752*
1,1,0.024606,-0.012303,-0.046752*
1,1,0.024606,-0.012303,0.046752*
1,1,0.024606,0.012303,0.046752*
%
%ADD18ROUNDEDRECTD18*%
G04:AMPARAMS|DCode=19|XSize=25.197mil|YSize=23.622mil|CornerRadius=0mil|HoleSize=0mil|Usage=FLASHONLY|Rotation=135.000|XOffset=0mil|YOffset=0mil|HoleType=Round|Shape=Rectangle|*
%AMROTATEDRECTD19*
4,1,4,0.017260,-0.000557,0.000557,-0.017260,-0.017260,0.000557,-0.000557,0.017260,0.017260,-0.000557,0.0*
%
%ADD19ROTATEDRECTD19*%

%ADD20P,0.334066X4X180.0*%
G04:AMPARAMS|DCode=21|XSize=33.858mil|YSize=10.236mil|CornerRadius=0mil|HoleSize=0mil|Usage=FLASHONLY|Rotation=135.000|XOffset=0mil|YOffset=0mil|HoleType=Round|Shape=Rectangle|*
%AMROTATEDRECTD21*
4,1,4,0.015590,-0.008352,0.008352,-0.015590,-0.015590,0.008352,-0.008352,0.015590,0.015590,-0.008352,0.0*
%
%ADD21ROTATEDRECTD21*%

G04:AMPARAMS|DCode=22|XSize=10.236mil|YSize=33.858mil|CornerRadius=0mil|HoleSize=0mil|Usage=FLASHONLY|Rotation=135.000|XOffset=0mil|YOffset=0mil|HoleType=Round|Shape=Rectangle|*
%AMROTATEDRECTD22*
4,1,4,0.015590,0.008352,-0.008352,-0.015590,-0.015590,-0.008352,0.008352,0.015590,0.015590,0.008352,0.0*
%
%ADD22ROTATEDRECTD22*%

G04:AMPARAMS|DCode=23|XSize=59.055mil|YSize=39.37mil|CornerRadius=9.842mil|HoleSize=0mil|Usage=FLASHONLY|Rotation=0.000|XOffset=0mil|YOffset=0mil|HoleType=Round|Shape=RoundedRectangle|*
%AMROUNDEDRECTD23*
21,1,0.059055,0.019685,0,0,0.0*
21,1,0.039370,0.039370,0,0,0.0*
1,1,0.019685,0.019685,-0.009843*
1,1,0.019685,-0.019685,-0.009843*
1,1,0.019685,-0.019685,0.009843*
1,1,0.019685,0.019685,0.009843*
%
%ADD23ROUNDEDRECTD23*%
%ADD24R,0.051181X0.106299*%
G04:AMPARAMS|DCode=25|XSize=62.992mil|YSize=78.74mil|CornerRadius=1.575mil|HoleSize=0mil|Usage=FLASHONLY|Rotation=180.000|XOffset=0mil|YOffset=0mil|HoleType=Round|Shape=RoundedRectangle|*
%AMROUNDEDRECTD25*
21,1,0.062992,0.075591,0,0,180.0*
21,1,0.059843,0.078740,0,0,180.0*
1,1,0.003150,-0.029921,0.037795*
1,1,0.003150,0.029921,0.037795*
1,1,0.003150,0.029921,-0.037795*
1,1,0.003150,-0.029921,-0.037795*
%
%ADD25ROUNDEDRECTD25*%
G04:AMPARAMS|DCode=26|XSize=23.622mil|YSize=9.842mil|CornerRadius=1.23mil|HoleSize=0mil|Usage=FLASHONLY|Rotation=180.000|XOffset=0mil|YOffset=0mil|HoleType=Round|Shape=RoundedRectangle|*
%AMROUNDEDRECTD26*
21,1,0.023622,0.007382,0,0,180.0*
21,1,0.021161,0.009842,0,0,180.0*
1,1,0.002461,-0.010581,0.003691*
1,1,0.002461,0.010581,0.003691*
1,1,0.002461,0.010581,-0.003691*
1,1,0.002461,-0.010581,-0.003691*
%
%ADD26ROUNDEDRECTD26*%
%TA.AperFunction,ConnectorPad*%
%ADD27R,0.062992X0.153543*%
%ADD28R,0.023622X0.061024*%
%ADD29R,0.047244X0.070866*%
%TA.AperFunction,SMDPad,CuDef*%
%ADD30R,0.013386X0.031496*%
%ADD31R,0.016535X0.025984*%
%ADD32R,0.106299X0.051181*%
%ADD33R,0.025984X0.016535*%
%ADD34R,0.031496X0.013386*%
G04:AMPARAMS|DCode=35|XSize=23.622mil|YSize=29.528mil|CornerRadius=0mil|HoleSize=0mil|Usage=FLASHONLY|Rotation=315.000|XOffset=0mil|YOffset=0mil|HoleType=Round|Shape=Rectangle|*
%AMROTATEDRECTD35*
4,1,4,-0.018791,-0.002088,0.002088,0.018791,0.018791,0.002088,-0.002088,-0.018791,-0.018791,-0.002088,0.0*
%
%ADD35ROTATEDRECTD35*%

%TA.AperFunction,ConnectorPad*%
%ADD36R,0.061024X0.023622*%
%ADD37R,0.070866X0.047244*%
%TA.AperFunction,Conductor*%
%ADD38C,0.005000*%
%ADD39C,0.010000*%
%TA.AperFunction,ViaPad*%
%ADD40C,0.017716*%
G36*
X821360Y1170354D02*
X744725D01*
Y1170354D01*
X739929Y1170848D01*
Y1172246D01*
X739347Y1175172D01*
X737689Y1177653D01*
X719661Y1195681D01*
X719567Y1196152D01*
Y1221535D01*
X693087D01*
X691016Y1226535D01*
X692851Y1228370D01*
X694961Y1233464D01*
Y1238977D01*
X692851Y1244070D01*
X691298Y1245623D01*
Y1258314D01*
X692851Y1259867D01*
X694961Y1264960D01*
Y1270473D01*
X692851Y1275566D01*
X688952Y1279465D01*
X683859Y1281575D01*
X678346D01*
X673252Y1279465D01*
X671700Y1277912D01*
X666883D01*
X665330Y1279465D01*
X660237Y1281575D01*
X654724D01*
X649630Y1279465D01*
X645732Y1275566D01*
X643622Y1270473D01*
Y1264960D01*
X645732Y1259867D01*
X648466Y1257133D01*
Y1246804D01*
X645732Y1244070D01*
X643622Y1238977D01*
Y1233464D01*
X645732Y1228370D01*
X647567Y1226535D01*
X646296Y1221535D01*
X634764D01*
Y1187913D01*
X649968D01*
X651992Y1185889D01*
X657086Y1183780D01*
X662599D01*
X667692Y1185889D01*
X669716Y1187913D01*
X674291D01*
Y1213639D01*
X678779Y1217651D01*
X679291Y1217725D01*
X680039Y1217125D01*
Y1187913D01*
X706085D01*
X706660Y1187053D01*
X724635Y1169078D01*
Y1129940D01*
X724432Y1129856D01*
X720534Y1125958D01*
X718424Y1120864D01*
Y1115351D01*
X720534Y1110258D01*
X724432Y1106360D01*
X729525Y1104250D01*
X735039D01*
X740132Y1106360D01*
X744030Y1110258D01*
X745212Y1113110D01*
X821360D01*
Y910512D01*
X744725D01*
Y853268D01*
X791703D01*
X794468Y848268D01*
X793228Y845276D01*
Y839763D01*
X795338Y834670D01*
X799237Y830771D01*
X804330Y828662D01*
X809843D01*
X814937Y830771D01*
X816360Y832195D01*
X821360Y830124D01*
Y717701D01*
X816360Y714360D01*
X815670Y714646D01*
X810157D01*
X805064Y712536D01*
X801165Y708637D01*
X799056Y703544D01*
Y698031D01*
X801165Y692937D01*
X805064Y689039D01*
X810157Y686929D01*
X815670D01*
X816360Y687215D01*
X821360Y683874D01*
Y502302D01*
X816360Y501039D01*
X813851Y504795D01*
X808941Y508076D01*
X803150Y509228D01*
X763780D01*
X757988Y508076D01*
X753079Y504795D01*
X749798Y499886D01*
X748646Y494094D01*
Y474409D01*
X749798Y468618D01*
X753079Y463709D01*
X757988Y460428D01*
X763780Y459276D01*
X803150D01*
X808941Y460428D01*
X813851Y463709D01*
X816360Y467465D01*
X821360Y466202D01*
Y447184D01*
X816360Y445921D01*
X813851Y449677D01*
X808941Y452958D01*
X803150Y454110D01*
X763780D01*
X757988Y452958D01*
X753079Y449677D01*
X749798Y444768D01*
X748646Y438976D01*
Y419291D01*
X749798Y413500D01*
X753079Y408591D01*
X757988Y405310D01*
X763780Y404158D01*
X803150D01*
X808941Y405310D01*
X813851Y408591D01*
X816360Y412347D01*
X821360Y411084D01*
Y392066D01*
X816360Y390803D01*
X813851Y394559D01*
X808941Y397839D01*
X803150Y398991D01*
X763780D01*
X757988Y397839D01*
X753079Y394559D01*
X749798Y389649D01*
X748646Y383858D01*
Y364173D01*
X749798Y358382D01*
X753079Y353472D01*
X757988Y350192D01*
X763780Y349040D01*
X803150D01*
X808941Y350192D01*
X813851Y353472D01*
X816360Y357228D01*
X821360Y355966D01*
Y336948D01*
X816360Y335685D01*
X813851Y339441D01*
X808941Y342721D01*
X803150Y343873D01*
X763780D01*
X757988Y342721D01*
X753079Y339441D01*
X749798Y334531D01*
X748646Y328740D01*
Y309055D01*
X749798Y303264D01*
X753079Y298354D01*
X754921Y297123D01*
X755181Y296005D01*
X754579Y291338D01*
X749474Y287927D01*
X745088Y281364D01*
X743548Y273622D01*
Y268779D01*
X783465D01*
Y263779D01*
X788465D01*
Y233706D01*
X803150D01*
X810892Y235246D01*
X816360Y238899D01*
X821360Y237161D01*
Y98278D01*
X819960Y93858D01*
X816360Y93858D01*
X762716D01*
Y12992D01*
X816591Y12992D01*
X819425Y7992D01*
X817982Y5412D01*
X481199D01*
X479128Y10412D01*
X481268Y12551D01*
X482853Y16378D01*
X482853Y16378D01*
Y94480D01*
X487853Y95475D01*
X488252Y94512D01*
X492150Y90614D01*
X497243Y88504D01*
X502757D01*
X502874Y88425D01*
Y12992D01*
X560118D01*
Y93858D01*
X516889D01*
X513549Y98858D01*
X513858Y99606D01*
Y105119D01*
X511748Y110212D01*
X507850Y114111D01*
X502757Y116220D01*
X497243D01*
X492150Y114111D01*
X488252Y110212D01*
X487853Y109250D01*
X482853Y110244D01*
Y142362D01*
X482853Y142362D01*
X481268Y146189D01*
X460383Y167074D01*
X462242Y171562D01*
X449156Y184648D01*
Y247640D01*
X454981Y253465D01*
X485315D01*
X485315Y253465D01*
Y253464D01*
X489177Y250926D01*
X492447Y247656D01*
X492189Y247397D01*
X490079Y242304D01*
Y236791D01*
X492189Y231697D01*
X492463Y231423D01*
Y227389D01*
X495315Y228571D01*
X496087Y227799D01*
X501180Y225689D01*
X506694D01*
X511787Y227799D01*
X514731Y230743D01*
X517717Y231311D01*
X520702Y230743D01*
X523646Y227799D01*
X528740Y225689D01*
X534253D01*
X539346Y227799D01*
X543245Y231697D01*
X545354Y236791D01*
Y242304D01*
X543245Y247397D01*
X539346Y251296D01*
X534253Y253405D01*
X528740D01*
X523646Y251296D01*
X520702Y248352D01*
X517716Y247784D01*
X514731Y248352D01*
X511787Y251296D01*
X506694Y253405D01*
X501180D01*
X496087Y251296D01*
X495315Y250524D01*
X490315Y252595D01*
Y259410D01*
X485315D01*
Y279354D01*
X489308Y282432D01*
X490213Y281527D01*
X495306Y279417D01*
X500820D01*
X505913Y281527D01*
X509811Y285426D01*
X511921Y290519D01*
Y296032D01*
X511109Y297992D01*
X514450Y302992D01*
X538307D01*
Y338583D01*
X548307D01*
Y302992D01*
X606457D01*
Y302992D01*
X610079D01*
Y302992D01*
X668228D01*
Y338583D01*
X673228D01*
Y343583D01*
X736378D01*
Y367665D01*
X736689Y368133D01*
X737595Y372758D01*
X737486Y373293D01*
X737696Y373798D01*
Y480315D01*
X736110Y484142D01*
X732284Y485727D01*
X625870D01*
X624094Y488385D01*
Y493898D01*
X623703Y494842D01*
X624173Y499842D01*
X624173Y499843D01*
X624875Y504552D01*
X624921Y504842D01*
X629173Y504842D01*
X658543Y504842D01*
X659291Y500152D01*
Y499842D01*
X676102D01*
Y524606D01*
X686102D01*
Y499842D01*
X702913D01*
Y500152D01*
X703662Y504842D01*
X707913Y504842D01*
X737283D01*
Y544370D01*
X709281Y544370D01*
X707221Y547820D01*
X708779Y550118D01*
X737283D01*
Y589646D01*
X703661D01*
Y577529D01*
X697913D01*
Y589646D01*
X693670D01*
Y597362D01*
X705787D01*
Y614181D01*
X710787Y616854D01*
X711535Y616354D01*
Y597362D01*
X751063D01*
Y630984D01*
X722350D01*
X710131Y643202D01*
X707651Y644860D01*
X704724Y645442D01*
X539370D01*
X536444Y644860D01*
X533963Y643202D01*
X521745Y630984D01*
X493031D01*
Y597362D01*
X532559D01*
Y616354D01*
X533307Y616854D01*
X538307Y614181D01*
Y597362D01*
X550424D01*
Y589646D01*
X546181D01*
Y577529D01*
X540433D01*
Y589646D01*
X506811D01*
Y558328D01*
X501811Y555647D01*
X501114Y556111D01*
Y562992D01*
X499529Y566819D01*
X495702Y568404D01*
X64467D01*
Y586457D01*
X81614D01*
Y622047D01*
X86614D01*
Y627047D01*
X149764D01*
Y654099D01*
X154764Y655736D01*
X157504Y652996D01*
X162598Y650886D01*
X164403D01*
X167744Y645886D01*
X167165Y644489D01*
Y638976D01*
X169275Y633882D01*
X173174Y629984D01*
X178267Y627874D01*
X183780D01*
X184882Y627138D01*
Y627047D01*
X311181D01*
Y657638D01*
X282732D01*
X280661Y662638D01*
X281677Y663654D01*
X283787Y668747D01*
Y674260D01*
X283615Y674675D01*
X284021Y679507D01*
X311442Y706928D01*
X331767Y686604D01*
X331343Y684472D01*
X327445Y680574D01*
X325335Y675480D01*
Y669967D01*
X327445Y664874D01*
X331343Y660975D01*
X335481Y659261D01*
X336144Y655792D01*
X335978Y654055D01*
X334591Y653481D01*
X330693Y649582D01*
X328583Y644489D01*
Y638976D01*
X330693Y633882D01*
X334591Y629984D01*
X339684Y627874D01*
X345197D01*
X346299Y627138D01*
Y627047D01*
X472598D01*
Y657638D01*
X417878D01*
X415101Y661795D01*
X415433Y662598D01*
Y668111D01*
X413323Y673204D01*
X409425Y677103D01*
X409222Y677187D01*
Y686783D01*
X408640Y689709D01*
X412599Y692782D01*
X421812Y683569D01*
X421812Y683569D01*
X424293Y681912D01*
X427220Y681329D01*
X427220Y681330D01*
X477495D01*
X478787Y679452D01*
X480041Y676330D01*
X478268Y672048D01*
Y666535D01*
X480378Y661441D01*
X484276Y657543D01*
X489369Y655433D01*
X494883D01*
X499976Y657543D01*
X503874Y661441D01*
X505984Y666535D01*
Y672048D01*
X504211Y676330D01*
X505465Y679452D01*
X506757Y681330D01*
X594488D01*
X597415Y681912D01*
X599895Y683569D01*
X626096Y709770D01*
X627754Y712251D01*
X628336Y715177D01*
Y720451D01*
X628539Y720535D01*
X632437Y724433D01*
X634547Y729527D01*
Y735040D01*
X632437Y740134D01*
X628539Y744032D01*
X623446Y746142D01*
X617932D01*
X612839Y744032D01*
X608941Y740134D01*
X606831Y735040D01*
Y729527D01*
X608941Y724433D01*
X612839Y720535D01*
X610769Y716072D01*
X605678Y710981D01*
X600469Y712843D01*
X598949Y716511D01*
X598255Y717206D01*
X595111Y720472D01*
X598255Y723739D01*
X598949Y724433D01*
X601059Y729527D01*
Y735040D01*
X598949Y740134D01*
X595051Y744032D01*
X589957Y746142D01*
X584444D01*
X579351Y744032D01*
X575452Y740134D01*
X575368Y739930D01*
X570866D01*
X567940Y739348D01*
X565459Y737691D01*
X555888Y728119D01*
X533406D01*
X531335Y733119D01*
X554759Y756543D01*
X554760Y756544D01*
X556417Y759024D01*
X556999Y761951D01*
Y781256D01*
X577303Y801560D01*
X570823Y808040D01*
X572336Y809553D01*
X573994Y812034D01*
X574576Y814961D01*
Y836732D01*
X590000D01*
Y831732D01*
X591935D01*
X595276Y826732D01*
X594803Y825591D01*
Y820078D01*
X596913Y814985D01*
X600811Y811086D01*
X605905Y808976D01*
X611418D01*
X616511Y811086D01*
X620410Y814985D01*
X622519Y820078D01*
Y825591D01*
X622047Y826732D01*
X625388Y831732D01*
X633622D01*
Y849331D01*
X611811D01*
Y859331D01*
X633622D01*
Y876929D01*
X614749D01*
X612835Y881549D01*
X629152Y897865D01*
X665354D01*
X668281Y898447D01*
X670761Y900105D01*
X702258Y931601D01*
X703915Y934082D01*
X704497Y937008D01*
Y951700D01*
X709497Y955041D01*
X710452Y954646D01*
X715965D01*
X721059Y956755D01*
X724957Y960654D01*
X727067Y965747D01*
Y971260D01*
X724957Y976354D01*
X721059Y980252D01*
X715965Y982362D01*
X710452D01*
X709497Y981967D01*
X704497Y985308D01*
Y1074803D01*
X703915Y1077730D01*
X702258Y1080210D01*
X686510Y1095958D01*
X684029Y1097616D01*
X681103Y1098198D01*
X668110D01*
Y1107362D01*
X597087D01*
Y1073740D01*
X668110D01*
Y1082904D01*
X677935D01*
X689203Y1071636D01*
Y982938D01*
X686903Y981529D01*
X684203Y980507D01*
X679725Y982362D01*
X674212D01*
X673342Y982002D01*
X669438Y984767D01*
X670076Y989566D01*
X672800Y990000D01*
X673110D01*
Y1006811D01*
X632598D01*
Y1016811D01*
X673110D01*
Y1033622D01*
X672800D01*
X668110Y1034370D01*
X668110Y1038622D01*
Y1067992D01*
X597087D01*
Y1054961D01*
X587087D01*
X583185Y1054185D01*
X579877Y1051975D01*
X560301Y1032398D01*
X555672Y1031502D01*
X543785Y1043389D01*
X527805Y1027409D01*
X520734Y1034480D01*
X536714Y1050460D01*
X524827Y1062347D01*
X524481Y1062002D01*
X519622Y1062968D01*
X515724Y1066866D01*
X515543Y1067774D01*
X517669Y1069900D01*
X519779Y1074994D01*
Y1080507D01*
X517669Y1085600D01*
X513771Y1089499D01*
X508678Y1091609D01*
X508042D01*
X505971Y1096609D01*
X507811Y1098449D01*
X509921Y1103543D01*
Y1109056D01*
X507811Y1114149D01*
X503913Y1118048D01*
X501917Y1118874D01*
X500744Y1124772D01*
X503970Y1127998D01*
X504545Y1128858D01*
X528583D01*
Y1126220D01*
X546181D01*
Y1148032D01*
X551181D01*
Y1153032D01*
X573779D01*
Y1169842D01*
X568779D01*
X568780Y1199488D01*
X573682Y1199724D01*
X575866D01*
Y1233346D01*
X571784D01*
X571024Y1238031D01*
X571024Y1238346D01*
Y1258780D01*
X545275D01*
X519528D01*
Y1251063D01*
X495000D01*
Y1241987D01*
X480962D01*
X479016Y1246181D01*
Y1281378D01*
X472401D01*
Y1300118D01*
X548307D01*
Y1463661D01*
X437913D01*
Y1300118D01*
X452009D01*
Y1284914D01*
X448473Y1281378D01*
X445394D01*
X440394Y1281378D01*
X418987D01*
X418248Y1281525D01*
X416026D01*
X415031Y1286525D01*
X417299Y1287464D01*
X421197Y1291363D01*
X423307Y1296456D01*
Y1301969D01*
X421197Y1307063D01*
X417299Y1310961D01*
X416973Y1316508D01*
X417339Y1316874D01*
X419449Y1321968D01*
Y1327481D01*
X417339Y1332574D01*
X413441Y1336473D01*
X408347Y1338583D01*
X402834D01*
X401732Y1338126D01*
X396732Y1341467D01*
Y1463661D01*
X323740D01*
Y1338691D01*
X318740Y1336620D01*
X317628Y1337733D01*
X312534Y1339842D01*
X307021D01*
X301928Y1337733D01*
X298319Y1334124D01*
X297750Y1333815D01*
X294800Y1333613D01*
X292603Y1335397D01*
X295356Y1340394D01*
X297402D01*
Y1404449D01*
X159291D01*
Y1340394D01*
X157408Y1336174D01*
X153567Y1334583D01*
X149669Y1330685D01*
X147559Y1325591D01*
Y1320078D01*
X149669Y1314985D01*
X151484Y1313169D01*
X150509Y1307353D01*
X149025Y1306738D01*
X145127Y1302840D01*
X143017Y1297747D01*
Y1297126D01*
X110748D01*
X107774Y1300894D01*
Y1338583D01*
X107024Y1340394D01*
X109738Y1345394D01*
X130984D01*
Y1470967D01*
X159291D01*
Y1414449D01*
X297402D01*
Y1470967D01*
X623090D01*
X623583Y1465967D01*
X620727Y1465399D01*
X613350Y1460469D01*
X608420Y1453092D01*
X606689Y1444390D01*
Y1402638D01*
X676775D01*
Y1444390D01*
X675044Y1453092D01*
X670115Y1460469D01*
X662738Y1465399D01*
X659882Y1465967D01*
X660374Y1470967D01*
X821360D01*
Y1170354D01*
D02*
G37*
G36*
X241220Y1224332D02*
X242446Y1221374D01*
X231885Y1210814D01*
X231157Y1209724D01*
X209567D01*
Y1176102D01*
X249095D01*
Y1195369D01*
X249843Y1195869D01*
X254843Y1193196D01*
Y1176102D01*
X273040D01*
X274953Y1171483D01*
X265988Y1162518D01*
X244628D01*
X240727Y1161742D01*
X237419Y1159532D01*
X189816Y1111929D01*
X185197Y1113843D01*
Y1156417D01*
X149606D01*
X114016D01*
Y1101339D01*
X105788D01*
Y1078740D01*
X95788D01*
Y1101339D01*
X80215D01*
Y1174924D01*
X106189Y1200898D01*
X107774Y1204724D01*
X107774Y1204725D01*
Y1222088D01*
X114016D01*
Y1166417D01*
X144606D01*
Y1224567D01*
X138869D01*
X136797Y1229567D01*
X143098Y1235867D01*
X181102D01*
X181870Y1236020D01*
X191683D01*
X194114Y1236503D01*
X195232Y1234103D01*
X195396Y1233279D01*
X197954Y1229450D01*
X201783Y1226892D01*
X206299Y1225994D01*
X231220D01*
Y1275591D01*
X241220D01*
Y1224332D01*
D02*
G37*
G36*
X116988Y846540D02*
X132265Y831263D01*
X115735Y814734D01*
X109331D01*
Y823898D01*
X69803D01*
Y790276D01*
X73885D01*
X74646Y785590D01*
X74646D01*
Y764842D01*
X100394D01*
X126142D01*
Y766990D01*
X130761Y768904D01*
X143712Y755953D01*
X147248Y759488D01*
X168210Y738525D01*
X193098Y763413D01*
X196673Y766855D01*
X200504Y763024D01*
X212246Y751282D01*
X212933Y745255D01*
X212808Y744773D01*
X168595Y700560D01*
X128266D01*
X127533Y701904D01*
X126734Y705560D01*
X129859Y708685D01*
X131968Y713779D01*
Y719292D01*
X129859Y724385D01*
X125960Y728284D01*
X124003Y729095D01*
X124998Y734095D01*
X126142D01*
Y754842D01*
X100394D01*
X74646D01*
Y734095D01*
X78631D01*
X80630Y731103D01*
Y725590D01*
X82740Y720496D01*
X86638Y716598D01*
X91732Y714488D01*
X97245D01*
X99252Y715320D01*
X103981Y713862D01*
X104743Y712594D01*
X106362Y708685D01*
X109487Y705560D01*
X108687Y701904D01*
X107954Y700560D01*
X82678D01*
X82677Y700560D01*
X79751Y699978D01*
X77270Y698321D01*
X77270Y698320D01*
X70039Y691090D01*
X68097Y691340D01*
X64621Y692743D01*
X62929Y696826D01*
X62467Y697288D01*
X62882Y702111D01*
X63494Y703590D01*
X64372Y704928D01*
X64264Y705448D01*
X64467Y705938D01*
Y739095D01*
X62882Y742921D01*
X62087Y743251D01*
Y780591D01*
X48985D01*
Y790276D01*
X64055D01*
Y822903D01*
X64467Y823898D01*
Y856553D01*
X68958Y859449D01*
X70650Y858753D01*
X72806Y853271D01*
X72756Y853149D01*
Y847635D01*
X74866Y842542D01*
X78764Y838644D01*
X83857Y836534D01*
X89371D01*
X94464Y838644D01*
X98362Y842542D01*
X100472Y847635D01*
Y853149D01*
X98362Y858242D01*
X102002Y861526D01*
X116988Y846540D01*
D02*
G37*
G36*
X102362Y1242479D02*
X78740D01*
X74838Y1241703D01*
X71531Y1239493D01*
X69320Y1236185D01*
X68544Y1232284D01*
X69320Y1228382D01*
X71531Y1225074D01*
X74838Y1222864D01*
X78740Y1222088D01*
X102362D01*
Y1204724D01*
X74803Y1177165D01*
Y1035433D01*
X59055Y1019685D01*
Y1011205D01*
X57812Y1009344D01*
X56736Y1003937D01*
X57812Y998530D01*
X59055Y996669D01*
Y989492D01*
X57094Y989102D01*
X52510Y986039D01*
X49447Y981455D01*
X48371Y976048D01*
X49447Y970640D01*
X52510Y966057D01*
X57094Y962994D01*
X59055Y962603D01*
Y823898D01*
X24527D01*
Y790276D01*
X33692D01*
Y780591D01*
X20590D01*
Y739095D01*
X59055D01*
Y705938D01*
X54055Y702534D01*
X51181Y703106D01*
X45774Y702030D01*
X41190Y698968D01*
X38127Y694384D01*
X37051Y688976D01*
X38127Y683569D01*
X41190Y678985D01*
X41752Y678610D01*
X45127Y675346D01*
X42064Y670761D01*
X40988Y665354D01*
X42064Y659947D01*
X43607Y657638D01*
X40934Y652638D01*
X28465D01*
Y591457D01*
X59055D01*
Y562992D01*
X495702D01*
Y552973D01*
X496284Y550047D01*
X497942Y547566D01*
X500000Y545508D01*
Y480315D01*
X522724D01*
X523646Y479393D01*
X528740Y477284D01*
X534253D01*
X539346Y479393D01*
X540268Y480315D01*
X562094D01*
X563016Y479393D01*
X568110Y477284D01*
X573623D01*
X578716Y479393D01*
X579638Y480315D01*
X601465D01*
X602386Y479393D01*
X607480Y477284D01*
X612993D01*
X618086Y479393D01*
X619008Y480315D01*
X732284D01*
Y373798D01*
X731378Y369173D01*
X615079D01*
Y366142D01*
X605201D01*
X601457Y369173D01*
D01*
X599607Y374173D01*
X600063Y375275D01*
Y380788D01*
X597953Y385882D01*
X594055Y389780D01*
X588962Y391890D01*
X583448D01*
X578355Y389780D01*
X574457Y385882D01*
X572347Y380788D01*
Y375275D01*
X572803Y374173D01*
X569462Y369173D01*
X485158D01*
Y366142D01*
X5412D01*
Y562992D01*
Y1338583D01*
X102362D01*
Y1242479D01*
D02*
G37*
G36*
X273150Y356575D02*
Y320591D01*
X275591D01*
Y186598D01*
X271678Y184977D01*
X267779Y181078D01*
X265669Y175985D01*
Y170472D01*
X267779Y165378D01*
X267921Y165236D01*
X265850Y160236D01*
X173228D01*
Y326771D01*
X204724Y358268D01*
X268851D01*
X273150Y356575D01*
D02*
G37*
G36*
X111733D02*
Y320591D01*
X114173D01*
Y186598D01*
X110260Y184977D01*
X106362Y181078D01*
X104252Y175985D01*
Y170472D01*
X106362Y165378D01*
X106504Y165236D01*
X104433Y160236D01*
X11811D01*
Y326772D01*
X43307Y358268D01*
X107434D01*
X111733Y356575D01*
D02*
G37*
G36*
X323898Y253465D02*
Y253464D01*
X327760Y250926D01*
X330297Y248389D01*
Y179819D01*
X330709Y178825D01*
Y177748D01*
X331046Y177411D01*
Y173072D01*
X333170Y174200D01*
X336947Y171585D01*
X336536Y170591D01*
Y165078D01*
X338645Y159985D01*
X342544Y156086D01*
X345380Y154912D01*
X343779Y151048D01*
Y149971D01*
X343367Y148977D01*
X343779Y147982D01*
Y146905D01*
X344541Y146144D01*
X344952Y145150D01*
X346045Y144058D01*
Y16378D01*
X346044Y16378D01*
X347630Y12551D01*
X348243Y10186D01*
X345215Y5412D01*
X5412D01*
Y152449D01*
X10412Y155404D01*
X11811Y154824D01*
X104433D01*
X105427Y155236D01*
X106504D01*
X107265Y155998D01*
X108260Y156410D01*
X108497Y156983D01*
X111743Y160866D01*
X115354Y159370D01*
X120867D01*
X125960Y161480D01*
X129859Y165378D01*
X131968Y170472D01*
Y171693D01*
X139276D01*
X126321Y184648D01*
Y247640D01*
X132146Y253465D01*
X162480D01*
X162480Y253465D01*
Y253464D01*
X166342Y250926D01*
X167816Y249452D01*
Y166832D01*
Y160236D01*
X169401Y156410D01*
X173228Y154824D01*
X265850D01*
X266844Y155236D01*
X267921D01*
X268682Y155998D01*
X269677Y156410D01*
X269914Y156983D01*
X273160Y160866D01*
X276771Y159370D01*
X282284D01*
X287378Y161480D01*
X291276Y165378D01*
X293386Y170472D01*
Y171693D01*
X300693D01*
X287738Y184648D01*
Y247640D01*
X293563Y253465D01*
X323898D01*
X323898Y253465D01*
D02*
G37*
G36*
X434134Y354961D02*
Y311556D01*
X432928Y311056D01*
X429029Y307158D01*
X426919Y302064D01*
Y296551D01*
X429029Y291457D01*
X432928Y287559D01*
X434134Y287059D01*
Y185669D01*
X477441Y142362D01*
Y16378D01*
X473504Y12441D01*
X355394D01*
X351457Y16378D01*
Y146299D01*
X348779Y148977D01*
X350850Y153977D01*
X353150D01*
X358244Y156086D01*
X362142Y159985D01*
X364252Y165078D01*
Y170591D01*
X362142Y175685D01*
X358244Y179583D01*
X353150Y181693D01*
X347637D01*
X342544Y179583D01*
X340709Y177748D01*
X335709Y179819D01*
Y331339D01*
X363268Y358898D01*
X430197D01*
X434134Y354961D01*
D02*
G37*
%LPC*%
G36*
X676775Y1392638D02*
X646732D01*
Y1328146D01*
X654035D01*
X662738Y1329877D01*
X670115Y1334806D01*
X675044Y1342184D01*
X676775Y1350886D01*
Y1392638D01*
D02*
G37*
G36*
X636732D02*
X606689D01*
Y1350886D01*
X608420Y1342184D01*
X613350Y1334806D01*
X620727Y1329877D01*
X629429Y1328146D01*
X636732D01*
Y1392638D01*
D02*
G37*
G36*
X795768Y1462032D02*
X771162D01*
X764410Y1460689D01*
X758687Y1456865D01*
X754862Y1451141D01*
X753519Y1444390D01*
Y1350886D01*
X754862Y1344134D01*
X758687Y1338411D01*
X764410Y1334587D01*
X771162Y1333244D01*
X784943D01*
X785023Y1328244D01*
X783527Y1326748D01*
X781417Y1321654D01*
Y1316141D01*
X783527Y1311048D01*
X787426Y1307149D01*
X792519Y1305039D01*
X798032D01*
X803126Y1307149D01*
X807024Y1311048D01*
X809134Y1316141D01*
Y1321654D01*
X807024Y1326748D01*
X805471Y1328300D01*
Y1336559D01*
X808243Y1338411D01*
X812067Y1344134D01*
X813410Y1350886D01*
Y1444390D01*
X812067Y1451141D01*
X808243Y1456865D01*
X802519Y1460689D01*
X795768Y1462032D01*
D02*
G37*
G36*
X724902D02*
X700295D01*
X693544Y1460689D01*
X687820Y1456865D01*
X683996Y1451141D01*
X682653Y1444390D01*
Y1350886D01*
X683996Y1344134D01*
X687820Y1338411D01*
X693544Y1334587D01*
X700295Y1333244D01*
X713284D01*
Y1331638D01*
X714060Y1327736D01*
X716270Y1324429D01*
X722362Y1318337D01*
Y1316141D01*
X724472Y1311048D01*
X728370Y1307149D01*
X733464Y1305039D01*
X738977D01*
X744071Y1307149D01*
X747969Y1311048D01*
X750079Y1316141D01*
Y1321654D01*
X747969Y1326748D01*
X744071Y1330646D01*
X738977Y1332756D01*
X737280Y1337494D01*
X737376Y1338411D01*
X741201Y1344134D01*
X742544Y1350886D01*
Y1444390D01*
X741201Y1451141D01*
X737376Y1456865D01*
X731653Y1460689D01*
X724902Y1462032D01*
D02*
G37*
G36*
X571024Y1289527D02*
X550275D01*
Y1268780D01*
X571024D01*
Y1289527D01*
D02*
G37*
G36*
X540275D02*
X519528D01*
Y1268780D01*
X540275D01*
Y1289527D01*
D02*
G37*
G36*
X625079Y1284527D02*
X583583D01*
Y1243031D01*
X593731D01*
Y1233346D01*
X581614D01*
Y1199724D01*
X621142D01*
Y1233346D01*
X609025D01*
Y1243031D01*
X625079D01*
Y1284527D01*
D02*
G37*
G36*
X573779Y1143032D02*
X556181D01*
Y1126220D01*
X573779D01*
Y1143032D01*
D02*
G37*
G36*
X699606Y746140D02*
X694092D01*
X688999Y744030D01*
X685101Y740132D01*
X682991Y735039D01*
Y729525D01*
X685101Y724432D01*
X688999Y720534D01*
X694092Y718424D01*
X699606D01*
X704699Y720534D01*
X708597Y724432D01*
X710707Y729525D01*
Y735039D01*
X708597Y740132D01*
X704699Y744030D01*
X699606Y746140D01*
D02*
G37*
G36*
X472598Y617047D02*
X414449D01*
Y586457D01*
X472598D01*
Y617047D01*
D02*
G37*
G36*
X404449D02*
X346299D01*
Y586457D01*
X404449D01*
Y617047D01*
D02*
G37*
G36*
X311181D02*
X253031D01*
Y586457D01*
X311181D01*
Y617047D01*
D02*
G37*
G36*
X243031D02*
X184882D01*
Y586457D01*
X243031D01*
Y617047D01*
D02*
G37*
G36*
X149764D02*
X91614D01*
Y586457D01*
X149764D01*
Y617047D01*
D02*
G37*
G36*
X736378Y333583D02*
X678228D01*
Y302992D01*
X736378D01*
Y333583D01*
D02*
G37*
G36*
X664595Y264917D02*
X659082D01*
X653989Y262807D01*
X650090Y258909D01*
X650006Y258706D01*
X609051D01*
X606125Y258124D01*
X603644Y256466D01*
X588674Y241496D01*
X565866D01*
Y170472D01*
X599488D01*
Y226866D01*
X600236Y227365D01*
X605236Y224693D01*
Y170472D01*
X638858D01*
Y236935D01*
X641732Y238595D01*
X644606Y236935D01*
Y170472D01*
X672234D01*
X675574Y165472D01*
X675118Y164371D01*
Y158858D01*
X677228Y153764D01*
X681126Y149866D01*
X686220Y147756D01*
X691733D01*
X696826Y149866D01*
X698058Y151097D01*
X700855Y150028D01*
X702677Y148645D01*
Y143818D01*
X704787Y138725D01*
X708685Y134826D01*
X713779Y132717D01*
X719292D01*
X724385Y134826D01*
X728284Y138725D01*
X730394Y143818D01*
Y149331D01*
X728284Y154425D01*
X724385Y158323D01*
X719292Y160433D01*
X713779D01*
X708685Y158323D01*
X707454Y157092D01*
X704656Y158161D01*
X702835Y159543D01*
Y164371D01*
X703571Y165472D01*
X722598D01*
Y165782D01*
X723346Y170472D01*
X727598Y170472D01*
X756968D01*
Y231120D01*
X760833Y234292D01*
X763780Y233706D01*
X778465D01*
Y258779D01*
X743548D01*
Y253937D01*
X745028Y246496D01*
X745029Y245624D01*
X742462Y241496D01*
X723346Y241496D01*
X722598Y246186D01*
Y246496D01*
X705787D01*
Y205984D01*
X695787D01*
Y246496D01*
X680316D01*
X678248Y247305D01*
X675697Y250138D01*
Y253816D01*
X673587Y258909D01*
X669689Y262807D01*
X664595Y264917D01*
D02*
G37*
G36*
X785316Y201929D02*
X779803D01*
X774709Y199819D01*
X770811Y195921D01*
X768701Y190827D01*
Y185314D01*
X770811Y180221D01*
X774709Y176322D01*
X779803Y174213D01*
X785316D01*
X790409Y176322D01*
X794308Y180221D01*
X796417Y185314D01*
Y190827D01*
X794308Y195921D01*
X790409Y199819D01*
X785316Y201929D01*
D02*
G37*
G36*
X518505Y214646D02*
X512991D01*
X507898Y212536D01*
X504000Y208637D01*
X501890Y203544D01*
Y198031D01*
X504000Y192937D01*
X504694Y192243D01*
X507838Y188976D01*
X504694Y185710D01*
X504000Y185015D01*
X501890Y179922D01*
Y174409D01*
X504000Y169315D01*
X507898Y165417D01*
X512991Y163307D01*
X518505D01*
X523598Y165417D01*
X527496Y169315D01*
X529606Y174409D01*
Y179922D01*
X527496Y185015D01*
X526802Y185710D01*
X523658Y188976D01*
X526802Y192243D01*
X527496Y192937D01*
X529606Y198031D01*
Y203544D01*
X527496Y208637D01*
X523598Y212536D01*
X518505Y214646D01*
D02*
G37*
G36*
X597245Y155590D02*
X591732D01*
X586638Y153481D01*
X582740Y149582D01*
X580630Y144489D01*
Y138976D01*
X582740Y133882D01*
X586638Y129984D01*
X591732Y127874D01*
X597245D01*
X602338Y129984D01*
X606237Y133882D01*
X608346Y138976D01*
Y144489D01*
X606237Y149582D01*
X602338Y153481D01*
X597245Y155590D01*
D02*
G37*
G36*
X675985Y106772D02*
X670472D01*
X665378Y104662D01*
X661480Y100763D01*
X659370Y95670D01*
Y90157D01*
X661480Y85064D01*
X665378Y81165D01*
X670472Y79055D01*
X675985D01*
X681078Y81165D01*
X684977Y85064D01*
X687086Y90157D01*
Y95670D01*
X684977Y100763D01*
X681078Y104662D01*
X675985Y106772D01*
D02*
G37*
G36*
X185197Y1224567D02*
X154606D01*
Y1166417D01*
X185197D01*
Y1224567D01*
D02*
G37*
G36*
X479213Y536378D02*
X473700D01*
X468607Y534268D01*
X464708Y530370D01*
X462599Y525276D01*
Y519763D01*
X464708Y514670D01*
X468217Y511162D01*
X464708Y507653D01*
X462599Y502560D01*
Y497047D01*
X464708Y491953D01*
X468607Y488055D01*
X473700Y485945D01*
X479213D01*
X484307Y488055D01*
X488205Y491953D01*
X490315Y497047D01*
Y502560D01*
X488205Y507653D01*
X484697Y511161D01*
X488205Y514670D01*
X490315Y519763D01*
Y525276D01*
X488205Y530370D01*
X484307Y534268D01*
X479213Y536378D01*
D02*
G37*
G36*
X317796D02*
X312283D01*
X307189Y534268D01*
X303291Y530370D01*
X301181Y525276D01*
Y519763D01*
X303291Y514670D01*
X306799Y511161D01*
X303291Y507653D01*
X301181Y502560D01*
Y497047D01*
X303291Y491953D01*
X307189Y488055D01*
X312283Y485945D01*
X317796D01*
X322889Y488055D01*
X326788Y491953D01*
X328898Y497047D01*
Y502560D01*
X326788Y507653D01*
X323279Y511161D01*
X326788Y514670D01*
X328898Y519763D01*
Y525276D01*
X326788Y530370D01*
X322889Y534268D01*
X317796Y536378D01*
D02*
G37*
G36*
X156379D02*
X150865D01*
X145772Y534268D01*
X141874Y530370D01*
X139764Y525276D01*
Y519763D01*
X141874Y514670D01*
X145382Y511161D01*
X141874Y507653D01*
X139764Y502560D01*
Y497047D01*
X141874Y491953D01*
X145772Y488055D01*
X150865Y485945D01*
X156379D01*
X161472Y488055D01*
X165370Y491953D01*
X167480Y497047D01*
Y502560D01*
X165370Y507653D01*
X161862Y511161D01*
X165370Y514670D01*
X167480Y519763D01*
Y525276D01*
X165370Y530370D01*
X161472Y534268D01*
X156379Y536378D01*
D02*
G37*
G36*
X477843Y466225D02*
X472329D01*
X467236Y464115D01*
X463338Y460217D01*
X461228Y455123D01*
Y449610D01*
X462338Y446930D01*
X462111Y441984D01*
X458212Y438086D01*
X456103Y432993D01*
Y427479D01*
X458212Y422386D01*
X462111Y418488D01*
X467204Y416378D01*
X472717D01*
X477811Y418488D01*
X481709Y422386D01*
X483819Y427479D01*
Y432993D01*
X482709Y435673D01*
X482936Y440618D01*
X486834Y444517D01*
X488944Y449610D01*
Y455123D01*
X486834Y460217D01*
X482936Y464115D01*
X477843Y466225D01*
D02*
G37*
G36*
X316425D02*
X310912D01*
X305819Y464115D01*
X301920Y460217D01*
X299811Y455123D01*
Y449610D01*
X300723Y447409D01*
X300693Y441984D01*
X296795Y438086D01*
X294685Y432993D01*
Y427479D01*
X296795Y422386D01*
X300693Y418488D01*
X305787Y416378D01*
X311300D01*
X316394Y418488D01*
X320292Y422386D01*
X322402Y427479D01*
Y432993D01*
X321490Y435194D01*
X321519Y440618D01*
X325417Y444517D01*
X327527Y449610D01*
Y455123D01*
X325417Y460217D01*
X321519Y464115D01*
X316425Y466225D01*
D02*
G37*
G36*
X153675Y466492D02*
X148162D01*
X143069Y464382D01*
X139171Y460484D01*
X137061Y455390D01*
Y449877D01*
X138262Y446976D01*
X139276Y441984D01*
X135378Y438086D01*
X133268Y432993D01*
Y427479D01*
X135378Y422386D01*
X139276Y418488D01*
X144370Y416378D01*
X149883D01*
X154976Y418488D01*
X158875Y422386D01*
X160984Y427479D01*
Y432993D01*
X159783Y435893D01*
X158769Y440885D01*
X162667Y444784D01*
X164777Y449877D01*
Y455390D01*
X162667Y460484D01*
X158769Y464382D01*
X153675Y466492D01*
D02*
G37*
G36*
X526379Y423228D02*
X520865D01*
X515772Y421118D01*
X511874Y417220D01*
X509764Y412127D01*
Y406613D01*
X511874Y401520D01*
X515772Y397622D01*
X520865Y395512D01*
X526379D01*
X531472Y397622D01*
X535370Y401520D01*
X537480Y406613D01*
Y412127D01*
X535370Y417220D01*
X531472Y421118D01*
X526379Y423228D01*
D02*
G37*
G36*
X316024Y138858D02*
X187913D01*
Y10748D01*
X316024D01*
Y138858D01*
D02*
G37*
G36*
X154606D02*
X26496D01*
Y10748D01*
X154606D01*
Y138858D01*
D02*
G37*
%LPD*%
D10*
X511811Y1381890D02*
D03*
D11*
X556102Y1216535D02*
D03*
X601378D02*
D03*
X89567Y807087D02*
D03*
X44291D02*
D03*
X510827Y1145669D02*
D03*
X465551D02*
D03*
X654528Y1204724D02*
D03*
X699803D02*
D03*
X229331Y1192913D02*
D03*
X274606D02*
D03*
X376969Y1255906D02*
D03*
X331693D02*
D03*
X422244Y1224409D02*
D03*
X467520D02*
D03*
Y1185040D02*
D03*
X422244D02*
D03*
X558071Y614173D02*
D03*
X512795D02*
D03*
X599409D02*
D03*
X644685D02*
D03*
X731299D02*
D03*
X686024D02*
D03*
D12*
X41339Y759842D02*
D03*
X100394D02*
D03*
X604331Y1263779D02*
D03*
X545275D02*
D03*
D13*
X92913Y1279528D02*
D03*
X127559D02*
D03*
X462205Y1263780D02*
D03*
X427559D02*
D03*
X359843Y1216535D02*
D03*
X325197D02*
D03*
X611811Y854331D02*
D03*
X577165D02*
D03*
X135433Y1078740D02*
D03*
X100787D02*
D03*
D14*
X66929Y1409449D02*
D03*
X228346D02*
D03*
X413386Y74803D02*
D03*
X251969D02*
D03*
X90551D02*
D03*
D15*
X551181Y1182677D02*
D03*
Y1148032D02*
D03*
D16*
X511811Y1186024D02*
D03*
Y1231299D02*
D03*
X562992Y524606D02*
D03*
Y569882D02*
D03*
X641732D02*
D03*
Y524606D02*
D03*
X720472Y569882D02*
D03*
Y524606D02*
D03*
X523622D02*
D03*
Y569882D02*
D03*
X602362Y524606D02*
D03*
Y569882D02*
D03*
X681102Y524606D02*
D03*
Y569882D02*
D03*
D17*
X465005Y1090113D02*
D03*
X440507Y1114611D02*
D03*
X168767Y762857D02*
D03*
X144269Y787355D02*
D03*
X548768Y1006447D02*
D03*
X524270Y1030945D02*
D03*
D18*
X783465Y1397638D02*
D03*
X641732D02*
D03*
X712598D02*
D03*
D19*
X472003Y775153D02*
D03*
X496501Y799651D02*
D03*
D20*
X311442Y930029D02*
D03*
D21*
X83581Y949098D02*
D03*
X97500Y963018D02*
D03*
X111420Y976937D02*
D03*
X125339Y990857D02*
D03*
X139259Y1004776D02*
D03*
X153178Y1018696D02*
D03*
X167098Y1032615D02*
D03*
X181017Y1046534D02*
D03*
X194936Y1060454D02*
D03*
X208856Y1074373D02*
D03*
X222775Y1088293D02*
D03*
X236695Y1102212D02*
D03*
X250614Y1116132D02*
D03*
X264534Y1130051D02*
D03*
X278453Y1143970D02*
D03*
X292372Y1157890D02*
D03*
X525384Y897040D02*
D03*
X511464Y883120D02*
D03*
X497545Y869201D02*
D03*
X483625Y855282D02*
D03*
X469706Y841362D02*
D03*
X455786Y827443D02*
D03*
X441867Y813523D02*
D03*
X427948Y799604D02*
D03*
X414028Y785684D02*
D03*
X400109Y771765D02*
D03*
X386189Y757846D02*
D03*
X372270Y743926D02*
D03*
X358351Y730007D02*
D03*
X344431Y716087D02*
D03*
X330512Y702168D02*
D03*
X539303Y910959D02*
D03*
D22*
X292372Y702168D02*
D03*
X278453Y716087D02*
D03*
X264534Y730007D02*
D03*
X250614Y743926D02*
D03*
X236695Y757846D02*
D03*
X222775Y771765D02*
D03*
X208856Y785684D02*
D03*
X194936Y799604D02*
D03*
X181017Y813523D02*
D03*
X167098Y827443D02*
D03*
X153178Y841362D02*
D03*
X139259Y855282D02*
D03*
X125339Y869201D02*
D03*
X111420Y883120D02*
D03*
X97500Y897040D02*
D03*
X83581Y910959D02*
D03*
X330512Y1157890D02*
D03*
X344431Y1143970D02*
D03*
X358351Y1130051D02*
D03*
X372270Y1116132D02*
D03*
X386189Y1102212D02*
D03*
X414028Y1074373D02*
D03*
X427948Y1060454D02*
D03*
X441867Y1046534D02*
D03*
X455786Y1032615D02*
D03*
X469706Y1018696D02*
D03*
X483625Y1004776D02*
D03*
X497545Y990857D02*
D03*
X511464Y976937D02*
D03*
X525384Y963018D02*
D03*
X539303Y949098D02*
D03*
X400109Y1088293D02*
D03*
D23*
X783465Y263779D02*
D03*
Y318897D02*
D03*
Y374016D02*
D03*
Y429134D02*
D03*
Y484252D02*
D03*
D24*
X149606Y1161417D02*
D03*
X39370D02*
D03*
D25*
X236220Y1275591D02*
D03*
D26*
X181102Y1246063D02*
D03*
Y1265748D02*
D03*
Y1285433D02*
D03*
Y1305118D02*
D03*
X291339D02*
D03*
Y1285433D02*
D03*
Y1265748D02*
D03*
Y1246063D02*
D03*
D27*
X360236Y1381890D02*
D03*
X474409D02*
D03*
D28*
X582677Y205984D02*
D03*
X661417D02*
D03*
X700787D02*
D03*
X740157D02*
D03*
X622047D02*
D03*
D29*
X531496Y53425D02*
D03*
X791338D02*
D03*
D30*
X125001Y447639D02*
D03*
X99411D02*
D03*
X73819D02*
D03*
X48229D02*
D03*
X209646D02*
D03*
X235236D02*
D03*
X260828D02*
D03*
X286418D02*
D03*
X371063D02*
D03*
X396653D02*
D03*
X422245D02*
D03*
X447835D02*
D03*
D31*
X99410Y338583D02*
D03*
X73819D02*
D03*
X125000D02*
D03*
X48229D02*
D03*
X209646D02*
D03*
X286417D02*
D03*
X235236D02*
D03*
X260827D02*
D03*
X371063D02*
D03*
X447835D02*
D03*
X396654D02*
D03*
X422244D02*
D03*
D32*
X673228Y338583D02*
D03*
Y448819D02*
D03*
X86614Y622047D02*
D03*
Y511811D02*
D03*
X543307Y338583D02*
D03*
Y448819D02*
D03*
X409449Y622047D02*
D03*
Y511811D02*
D03*
X248031Y622047D02*
D03*
Y511811D02*
D03*
D33*
X144488Y215551D02*
D03*
X305906Y189961D02*
D03*
Y266732D02*
D03*
Y215551D02*
D03*
Y241142D02*
D03*
X144488Y189961D02*
D03*
X144488Y266732D02*
D03*
X144488Y241142D02*
D03*
X467323Y189961D02*
D03*
Y266732D02*
D03*
Y215551D02*
D03*
Y241142D02*
D03*
D34*
X196850Y189961D02*
D03*
Y215551D02*
D03*
Y241143D02*
D03*
Y266733D02*
D03*
X35432Y189961D02*
D03*
Y215551D02*
D03*
Y241143D02*
D03*
Y266733D02*
D03*
X358267Y189961D02*
D03*
Y215551D02*
D03*
Y241143D02*
D03*
Y266733D02*
D03*
D35*
X551440Y799472D02*
D03*
X519426Y767457D02*
D03*
D36*
X632598Y972441D02*
D03*
Y1090551D02*
D03*
Y1051181D02*
D03*
Y1011811D02*
D03*
Y933071D02*
D03*
D37*
X785158Y1141732D02*
D03*
Y881890D02*
D03*
D38*
X447243Y761419D02*
X448819Y759842D01*
X447243Y761419D02*
Y780309D01*
X427948Y799604D02*
X447243Y780309D01*
X425197Y751968D02*
Y770813D01*
Y751968D02*
X440945Y736221D01*
X414028Y781982D02*
X425197Y770813D01*
X414028Y781982D02*
Y785684D01*
X440945Y736221D02*
X523622D01*
X400109Y769023D02*
Y771765D01*
Y769023D02*
X413386Y755746D01*
Y748032D02*
X440945Y720472D01*
X413386Y748032D02*
Y755746D01*
X440945Y720472D02*
X559055D01*
X422244Y1185040D02*
Y1258465D01*
X427559Y1263780D01*
X405748Y1274350D02*
X406220Y1273878D01*
X418248D01*
X427559Y1264567D01*
Y1263780D02*
Y1264567D01*
X402815Y1274350D02*
X405748D01*
X391732Y1285433D02*
X402815Y1274350D01*
X291339Y1285433D02*
X391732D01*
X601378Y1216535D02*
Y1260827D01*
X604331Y1263779D01*
X365815Y1165354D02*
X411620D01*
X344431Y1143970D02*
X365815Y1165354D01*
X411620D02*
X426516Y1150458D01*
X429957D01*
X41339Y804134D02*
X44291Y807087D01*
X41339Y759842D02*
Y804134D01*
X118903Y807087D02*
X153178Y841362D01*
X89567Y807087D02*
X118903D01*
X104693Y935504D02*
X107126Y933071D01*
X119513Y1014528D02*
X120913Y1013128D01*
X107520Y1014528D02*
X119513D01*
X120913Y1013128D02*
X130907D01*
X139259Y1004776D01*
X94488Y1027559D02*
X107520Y1014528D01*
X292372Y1157890D02*
X296109Y1154154D01*
X301855D01*
X411674Y1125984D02*
X413386D01*
X366465Y1186188D02*
X368898Y1188622D01*
X397323Y1141616D02*
Y1142047D01*
X547835Y1186024D02*
X551181Y1182677D01*
X511811Y1186024D02*
X547835D01*
X489765Y1102462D02*
Y1124608D01*
Y1080316D02*
Y1102462D01*
X493602Y1106299D01*
X496063D01*
X505921Y1077543D02*
Y1077750D01*
X486047Y1057669D02*
X505921Y1077543D01*
X486047Y1036903D02*
Y1057669D01*
X511811Y1146653D02*
Y1186024D01*
X510827Y1145669D02*
X511811Y1146653D01*
X489765Y1124608D02*
X498563Y1133406D01*
X507874Y1145669D02*
X510827D01*
X498563Y1136358D02*
X507874Y1145669D01*
X498563Y1133406D02*
Y1136358D01*
X469896Y1060447D02*
X489765Y1080316D01*
X455786Y1032615D02*
Y1034524D01*
X469896Y1048634D02*
Y1060447D01*
X455786Y1034524D02*
X469896Y1048634D01*
X469706Y1020561D02*
X486047Y1036903D01*
X469706Y1018696D02*
Y1020561D01*
X507874Y1054657D02*
Y1055118D01*
X387902Y1102212D02*
X411674Y1125984D01*
X541803Y884323D02*
X552685D01*
X555118Y881890D01*
X525384Y897040D02*
X529086D01*
X541803Y884323D01*
X86614Y850392D02*
X89047Y852825D01*
Y860748D01*
X111420Y883120D01*
X74803Y874016D02*
Y874179D01*
X523622Y736221D02*
X549352Y761951D01*
Y797384D01*
X570866Y732284D02*
X587201D01*
X559055Y720472D02*
X570866Y732284D01*
X549352Y797384D02*
X551440Y799472D01*
X594488Y688976D02*
X620689Y715177D01*
X372270Y743926D02*
X427220Y688976D01*
X594488D01*
X435374Y708661D02*
X587201D01*
X386189Y757846D02*
X435374Y708661D01*
X503937Y830709D02*
Y832839D01*
X483625Y853151D02*
Y855282D01*
Y853151D02*
X503937Y832839D01*
X87284Y949098D02*
X100878Y935504D01*
X83581Y949098D02*
X87284D01*
X499080Y869201D02*
X521989Y846292D01*
X497545Y869201D02*
X499080D01*
X372270Y1116563D02*
X397323Y1141616D01*
X187790Y681102D02*
X250614Y743926D01*
X94488Y681102D02*
X187790D01*
X78740Y665354D02*
X94488Y681102D01*
X377953Y665354D02*
X377953Y665354D01*
Y682565D01*
X344431Y716087D02*
X377953Y682565D01*
X244094Y681729D02*
X278453Y716087D01*
X244094Y665354D02*
Y681729D01*
X74803Y874179D02*
X97500Y896876D01*
X627273Y977766D02*
X632598Y972441D01*
X535961Y977766D02*
X627273D01*
X372270Y1116132D02*
Y1116563D01*
X535961Y977298D02*
Y977766D01*
X525384Y966720D02*
X535961Y977298D01*
X525384Y963018D02*
Y966720D01*
X496047Y1042830D02*
X507874Y1054657D01*
X496047Y1020900D02*
Y1042830D01*
X483625Y1008479D02*
X496047Y1020900D01*
X483625Y1004776D02*
Y1008479D01*
X579673Y933071D02*
X632598D01*
X555294Y957450D02*
X579673Y933071D01*
X547655Y957450D02*
X555294D01*
X539303Y949098D02*
X547655Y957450D01*
X401575Y665354D02*
Y686783D01*
X358351Y730007D02*
X401575Y686783D01*
X94488Y995729D02*
Y997588D01*
Y995729D02*
X111420Y978797D01*
Y976937D02*
Y978797D01*
X521989Y846292D02*
X523524D01*
X532475Y866047D02*
X539301Y859221D01*
X330512Y1157890D02*
X358810Y1186188D01*
X138195Y1030886D02*
X150385Y1018696D01*
X555118Y925197D02*
X555118D01*
X150385Y1018696D02*
X153178D01*
X216535Y682009D02*
X264534Y730007D01*
X539301Y859221D02*
X546658D01*
X386189Y1102212D02*
X387902D01*
X511464Y883120D02*
X511865D01*
X97500Y896876D02*
Y897040D01*
X546658Y859221D02*
X549091Y856788D01*
X540881Y910959D02*
X555118Y925197D01*
X216535Y665354D02*
Y682009D01*
X528939Y866047D02*
X532475D01*
X358810Y1186188D02*
X366465D01*
X171762Y692913D02*
X236695Y757846D01*
X82677Y692913D02*
X171762D01*
X539303Y910959D02*
X540881D01*
X121885Y1030886D02*
X138195D01*
X55118Y665354D02*
X82677Y692913D01*
X511865Y883120D02*
X528939Y866047D01*
X100878Y935504D02*
X104693D01*
X620689Y715177D02*
Y732284D01*
X566929Y814961D02*
Y846457D01*
X551440Y799472D02*
X566929Y814961D01*
Y846457D02*
X625984Y905512D01*
X632598Y1090551D02*
X681103D01*
X696850Y1074803D01*
Y937008D02*
Y1074803D01*
X665354Y905512D02*
X696850Y937008D01*
X625984Y905512D02*
X665354D01*
X510638Y786290D02*
Y786290D01*
X712067Y1192461D02*
X732282Y1172246D01*
Y1118108D02*
Y1172246D01*
X712067Y1192461D02*
Y1195413D01*
X702756Y1204724D02*
X712067Y1195413D01*
X699803Y1204724D02*
X702756D01*
X514311Y536870D02*
Y542011D01*
Y536870D02*
X523622Y527559D01*
X503349Y552973D02*
X514311Y542011D01*
X503349Y552973D02*
Y576901D01*
X602362Y546870D02*
X661791D01*
X542933D02*
X602362D01*
X602362Y524606D02*
Y546870D01*
X602362Y546870D01*
X681102Y524606D02*
Y527559D01*
X661791Y546870D02*
X681102Y527559D01*
X523622D02*
X542933Y546870D01*
X523622Y524606D02*
Y527559D01*
X582677Y224685D02*
X609051Y251059D01*
X582677Y205984D02*
Y224685D01*
X622047Y228346D02*
X622047Y228346D01*
X609051Y251059D02*
X661839D01*
X622047Y205984D02*
Y228346D01*
X598425Y637795D02*
X704724D01*
X539370D02*
X598425D01*
X599409Y614173D02*
Y636811D01*
X598425Y637795D02*
X599409Y636811D01*
X704724Y637795D02*
X728346Y614173D01*
X731299D01*
X515748D02*
X539370Y637795D01*
X512795Y614173D02*
X515748D01*
X681102Y569882D02*
X686024Y574803D01*
Y614173D01*
X644685Y572835D02*
Y614173D01*
X641732Y569882D02*
X644685Y572835D01*
X558071Y574803D02*
Y614173D01*
Y574803D02*
X562992Y569882D01*
X681102D02*
X720472D01*
X602362D02*
X641732D01*
X523622D02*
X562992D01*
D39*
X467520Y1224409D02*
Y1258465D01*
X462205Y1263780D02*
X467520Y1258465D01*
X462205Y1340158D02*
X464567Y1342520D01*
X462205Y1337205D02*
Y1340158D01*
Y1263780D02*
Y1337205D01*
X467520Y1342520D01*
Y1224409D02*
X470473D01*
X477854Y1231791D01*
X511319D01*
X511811Y1231299D01*
X466535Y1184055D02*
X467520Y1185040D01*
X466535Y1146653D02*
Y1184055D01*
X467520Y1342520D02*
Y1375000D01*
X172444Y1080138D02*
X201687Y1109381D01*
X153543Y1078740D02*
X154941Y1080138D01*
X135433Y1078740D02*
X135472Y1078701D01*
X153504D02*
X153543Y1078661D01*
X154941Y1080138D02*
X172444D01*
X135472Y1078701D02*
X153504D01*
X201687Y1109381D02*
X244628Y1152322D01*
X201687Y1109381D02*
X222775Y1088293D01*
X180850Y1046534D02*
X181017D01*
X169180Y1058205D02*
X180850Y1046534D01*
X153449Y1058205D02*
X169180D01*
X151187Y1055943D02*
X153449Y1058205D01*
X119679Y1055943D02*
X151187D01*
X113622Y1062000D02*
X119679Y1055943D01*
X113622Y1062000D02*
Y1065118D01*
X100787Y1077953D02*
X113622Y1065118D01*
X100787Y1077953D02*
Y1078740D01*
X92520Y751968D02*
X100394Y759842D01*
X78740Y751968D02*
X92520D01*
X125095Y1232284D02*
X138874Y1246063D01*
X181102D01*
X78740Y1232284D02*
X125095D01*
X153266Y1271929D02*
X159369Y1265827D01*
X134370Y1271929D02*
X153266D01*
X127559Y1278740D02*
X134370Y1271929D01*
X127559Y1278740D02*
Y1279528D01*
X181024Y1265827D02*
X181102Y1265748D01*
X159369Y1265827D02*
X181024D01*
X187913Y1318857D02*
X193740Y1324684D01*
X187913Y1305197D02*
Y1318857D01*
X181102Y1305118D02*
X187835D01*
X187913Y1305197D01*
X193740Y1324684D02*
Y1326772D01*
X156875Y1294990D02*
X158963D01*
X168441Y1285512D01*
X181024D01*
X181102Y1285433D01*
X376969Y1233661D02*
Y1255906D01*
X353032Y1202911D02*
Y1210512D01*
X344057Y1193937D02*
X353032Y1202911D01*
X309244Y1193937D02*
X344057D01*
X465770Y1145669D02*
X472581Y1138858D01*
X465005Y1099745D02*
X472581Y1107321D01*
X465005Y1090113D02*
Y1099745D01*
X472581Y1107321D02*
Y1138858D01*
X465551Y1145669D02*
X465770D01*
X414028Y1074373D02*
X439950Y1100295D01*
Y1114054D02*
X440507Y1114611D01*
X439950Y1100295D02*
Y1114054D01*
X457607Y1090113D02*
X465005D01*
X427948Y1060454D02*
X427948D01*
X457607Y1090113D01*
X486131Y797098D02*
X493091D01*
X488108Y799075D02*
X489611Y800578D01*
X484321Y799075D02*
X488108D01*
X455953Y827443D02*
X484321Y799075D01*
X455786Y827443D02*
X455953D01*
X496501Y797098D02*
X499831D01*
X441867Y813523D02*
X472003Y783387D01*
Y775153D02*
Y783387D01*
X499831Y797098D02*
X519633Y777297D01*
X430867Y852362D02*
X455786Y827443D01*
X244628Y1150123D02*
X264534Y1130218D01*
X523713Y1017025D02*
Y1030388D01*
X497545Y990857D02*
X523713Y1017025D01*
X264534Y1130051D02*
Y1130218D01*
X540973Y1006447D02*
X548768D01*
X511464Y976937D02*
X540973Y1006447D01*
X155405Y787912D02*
X181017Y813523D01*
X144826Y787912D02*
X155405D01*
X144269Y787355D02*
X144826Y787912D01*
X488189Y953662D02*
X511464Y976937D01*
X220472Y825140D02*
Y826772D01*
X270101Y1152322D02*
X278453Y1143970D01*
X246107Y1064961D02*
X250000D01*
X194936Y799604D02*
X220472Y825140D01*
X387795Y1053150D02*
X392637D01*
X413861Y1074373D01*
X222775Y1088293D02*
X246107Y1064961D01*
X244628Y1152322D02*
X270101D01*
X488189Y952756D02*
Y953662D01*
X413861Y1074373D02*
X414028D01*
X427165Y852362D02*
X430867D01*
X244628Y1150123D02*
Y1152322D01*
X169324Y773991D02*
X194936Y799604D01*
X169324Y763413D02*
Y773991D01*
X168767Y762857D02*
X169324Y763413D01*
X523713Y1030388D02*
X524270Y1030945D01*
X519633Y767664D02*
Y777297D01*
X519426Y767457D02*
X519633Y767664D01*
X783472Y224401D02*
Y263771D01*
X783465Y263779D02*
X783472Y263771D01*
X740157Y205984D02*
X740158D01*
X783465Y318898D02*
X803150D01*
X783465Y318897D02*
X783465Y318898D01*
X783465Y374016D02*
X803150D01*
X783465Y429134D02*
X803150D01*
X783465Y484252D02*
X803150D01*
X783465Y1397638D02*
X795276Y1385827D01*
X723480Y1331638D02*
Y1386756D01*
X712598Y1397638D02*
X723480Y1386756D01*
Y1331638D02*
X736221Y1318898D01*
X359843Y1217323D02*
X366654Y1224134D01*
X367441D02*
X376969Y1233661D01*
X366654Y1224134D02*
X367441D01*
X359843Y1216535D02*
Y1217323D01*
X275729Y1194036D02*
X309144D01*
X274606Y1192913D02*
X275729Y1194036D01*
X309144D02*
X309244Y1193937D01*
X229331Y1193840D02*
X233210D01*
X239095Y1199724D01*
Y1203604D02*
X254634Y1219143D01*
X239095Y1199724D02*
Y1203604D01*
X254634Y1219143D02*
X284498D01*
X291339Y1225984D01*
X318386Y1224134D02*
X325197Y1217323D01*
X317598Y1224134D02*
X318386D01*
X291339Y1225984D02*
X315748D01*
X325197Y1216535D02*
Y1217323D01*
X315748Y1225984D02*
X317598Y1224134D01*
X291339Y1225984D02*
Y1246063D01*
X467520Y1375000D02*
X474409Y1381890D01*
X795276Y1318898D02*
Y1385827D01*
X711535Y423228D02*
X716535Y418228D01*
X711519Y423228D02*
X711535D01*
X685929Y448819D02*
X711519Y423228D01*
X673228Y444882D02*
X673228Y444882D01*
X712598Y448819D02*
X716535Y444882D01*
Y413386D02*
Y418228D01*
X673228Y413386D02*
Y448819D01*
X673228Y448819D02*
X712598D01*
X673228D02*
X685929D01*
X673228Y444882D02*
Y448819D01*
X673228Y413386D02*
X716535D01*
X658661Y1198819D02*
Y1236220D01*
Y1266535D01*
X681102Y1236220D02*
Y1267716D01*
X658661Y1236220D02*
X681102D01*
X657480D02*
X658661D01*
X657480Y1267716D02*
X681102D01*
X658661Y1198819D02*
X659842Y1197638D01*
X657480Y1267716D02*
X658661Y1266535D01*
X318897Y1265748D02*
X328740Y1255906D01*
X291339Y1265748D02*
X318897D01*
X328740Y1255906D02*
X331693D01*
X259842Y1362205D02*
X267716Y1370079D01*
X259842Y1302244D02*
X262717Y1305118D01*
X236220Y1278622D02*
X259842Y1302244D01*
Y1299213D02*
Y1302244D01*
Y1362205D01*
X236220Y1275591D02*
X259842Y1299213D01*
X212598Y1393701D02*
X228346Y1409449D01*
X212598Y1299213D02*
Y1393701D01*
Y1299213D02*
X236220Y1275591D01*
Y1278622D02*
Y1362205D01*
Y1275591D02*
Y1278622D01*
X228346Y1370079D02*
X236220Y1362205D01*
X262717Y1305118D02*
X291339D01*
X626182Y1044765D02*
X632598Y1051181D01*
X548768Y1006447D02*
X587087Y1044765D01*
X626182D01*
X740158Y205984D02*
Y207756D01*
X543307Y338583D02*
X673228D01*
X220472Y826772D02*
X299213Y748032D01*
X125984Y921260D02*
X220472Y826772D01*
X427165Y852362D02*
X496063Y921260D01*
X322835Y748032D02*
X427165Y852362D01*
X488189Y952756D02*
X496063Y944882D01*
X387795Y1053150D02*
X488189Y952756D01*
X326772Y1114173D02*
X387795Y1053150D01*
X250000Y1064961D02*
X299212Y1114173D01*
X125984Y940945D02*
X250000Y1064961D01*
X299212Y1114173D02*
X326772D01*
X299213Y748032D02*
X322835D01*
X496063Y921260D02*
Y944882D01*
X125984Y921260D02*
Y940945D01*
X139589Y322982D02*
X144336D01*
X131981Y330591D02*
X139589Y322982D01*
X125000Y333858D02*
X128268Y330591D01*
X125000Y333858D02*
Y338583D01*
X128268Y330591D02*
X131981D01*
X467757Y289421D02*
X468191Y289855D01*
X467757Y267166D02*
Y289421D01*
X467323Y266732D02*
X467757Y267166D01*
X447835Y333858D02*
Y338583D01*
Y333858D02*
X451103Y330591D01*
X462424Y322982D02*
X467171D01*
X454815Y330591D02*
X462424Y322982D01*
X451103Y330591D02*
X454815D01*
X306340Y289421D02*
X306774Y289855D01*
X306340Y267166D02*
Y289421D01*
X305906Y266732D02*
X306340Y267166D01*
X286418Y333858D02*
Y338583D01*
Y333858D02*
X289685Y330591D01*
X301007Y322982D02*
X305753D01*
X293398Y330591D02*
X301007Y322982D01*
X289685Y330591D02*
X293398D01*
X144488Y266732D02*
X144922Y267166D01*
Y289421D01*
X145356Y289855D01*
D40*
X448819Y759842D02*
D03*
X812914Y700787D02*
D03*
X807087Y842520D02*
D03*
X551181Y1251968D02*
D03*
X556102Y1216535D02*
D03*
X153543Y1078661D02*
D03*
X697914Y778228D02*
D03*
X194591Y825983D02*
D03*
X338583Y818898D02*
D03*
X429957Y1150458D02*
D03*
X78740Y751968D02*
D03*
Y921260D02*
D03*
X62501Y976048D02*
D03*
X70866Y1003937D02*
D03*
X107126Y933071D02*
D03*
X594488Y141732D02*
D03*
X782559Y188071D02*
D03*
X94488Y1027559D02*
D03*
X118110Y1251968D02*
D03*
X161417Y1322835D02*
D03*
X156875Y1294990D02*
D03*
X193740Y1326772D02*
D03*
X301855Y1154154D02*
D03*
X376969Y1255906D02*
D03*
X413386Y1125984D02*
D03*
X368898Y1188622D02*
D03*
X397323Y1142047D02*
D03*
X466535Y1146653D02*
D03*
X492126Y1279528D02*
D03*
X78740Y1255906D02*
D03*
Y1232284D02*
D03*
X27559Y1311024D02*
D03*
X51181D02*
D03*
X27559Y1283465D02*
D03*
X51181D02*
D03*
X27559Y1255906D02*
D03*
X51181D02*
D03*
X27559Y1228347D02*
D03*
X51181D02*
D03*
Y1122047D02*
D03*
X27559D02*
D03*
Y1145669D02*
D03*
X51181D02*
D03*
Y1173228D02*
D03*
X27559D02*
D03*
X51181Y1200787D02*
D03*
X27559D02*
D03*
X527559Y1287402D02*
D03*
X590551Y1118110D02*
D03*
X559055D02*
D03*
X590551Y1437008D02*
D03*
X496063Y1106299D02*
D03*
X505921Y1077750D02*
D03*
X507874Y1055118D02*
D03*
X440507Y1114611D02*
D03*
X465005Y1090113D02*
D03*
X763779Y582677D02*
D03*
X803150Y586614D02*
D03*
X755905Y665354D02*
D03*
X716535Y901575D02*
D03*
X669291Y834646D02*
D03*
X644488Y863386D02*
D03*
X493827Y752579D02*
D03*
X100787Y1078740D02*
D03*
X555118Y881890D02*
D03*
X339193Y672724D02*
D03*
X269929Y671504D02*
D03*
X165354Y664744D02*
D03*
X94488Y728346D02*
D03*
X492126Y669291D02*
D03*
X118110Y716535D02*
D03*
X86614Y850392D02*
D03*
X74803Y874016D02*
D03*
X464567Y1425197D02*
D03*
Y1342520D02*
D03*
Y1397638D02*
D03*
Y1370079D02*
D03*
X472003Y775153D02*
D03*
X493091Y797098D02*
D03*
X503937Y830709D02*
D03*
X94488Y997588D02*
D03*
X696849Y732282D02*
D03*
X620689Y732284D02*
D03*
X587201D02*
D03*
Y708661D02*
D03*
X558071Y614173D02*
D03*
X783472Y224401D02*
D03*
X121885Y1030886D02*
D03*
X803150Y318898D02*
D03*
Y374016D02*
D03*
Y429134D02*
D03*
Y484252D02*
D03*
X409449Y1299213D02*
D03*
X374016Y1397638D02*
D03*
X346457D02*
D03*
X374016Y1370079D02*
D03*
X346457Y1342520D02*
D03*
X374016D02*
D03*
X346457Y1425197D02*
D03*
X374016D02*
D03*
X346457Y1370079D02*
D03*
X169291Y1208661D02*
D03*
X161417Y1122047D02*
D03*
X137795Y1196850D02*
D03*
X161417Y1169291D02*
D03*
X137795Y1141732D02*
D03*
X712598Y279528D02*
D03*
X685039D02*
D03*
X657480D02*
D03*
X716535Y444882D02*
D03*
X673228D02*
D03*
Y413386D02*
D03*
X716535D02*
D03*
X282336Y1323976D02*
D03*
X309778Y1325984D02*
D03*
X488189Y1425197D02*
D03*
Y1342520D02*
D03*
Y1370079D02*
D03*
Y1397638D02*
D03*
X657480Y1267716D02*
D03*
X681102Y1236220D02*
D03*
Y1267716D02*
D03*
X657480Y1236220D02*
D03*
X360248Y1269075D02*
D03*
X405591Y1324724D02*
D03*
X629921Y132874D02*
D03*
X799212D02*
D03*
X586205Y378032D02*
D03*
X676968Y940945D02*
D03*
X713209Y968504D02*
D03*
X676968D02*
D03*
X732284Y1252953D02*
D03*
X791339Y1282480D02*
D03*
X763779Y1303150D02*
D03*
X712598Y1299213D02*
D03*
X688976Y1314961D02*
D03*
X795276Y1318898D02*
D03*
X736221D02*
D03*
X503937Y239547D02*
D03*
X531496D02*
D03*
X675659Y1072860D02*
D03*
X608661Y822835D02*
D03*
X523622Y409370D02*
D03*
X610236Y491142D02*
D03*
X570866D02*
D03*
X531496D02*
D03*
X350394Y167835D02*
D03*
X614173Y1011811D02*
D03*
X677165Y1039370D02*
D03*
X674803Y1000000D02*
D03*
X659842Y1197638D02*
D03*
X732282Y1118108D02*
D03*
X740158Y207756D02*
D03*
X228346Y1409449D02*
D03*
X188976Y1448819D02*
D03*
X188976Y1370079D02*
D03*
X267716Y1370079D02*
D03*
X267717Y1448819D02*
D03*
X188976Y1409449D02*
D03*
X228346Y1370079D02*
D03*
X267716Y1409449D02*
D03*
X228346Y1448819D02*
D03*
X66929D02*
D03*
X106299Y1409449D02*
D03*
X66929Y1370079D02*
D03*
X27559Y1409449D02*
D03*
X106299Y1448819D02*
D03*
X106299Y1370079D02*
D03*
X27559Y1370079D02*
D03*
X27559Y1448819D02*
D03*
X66929Y1409449D02*
D03*
X413386Y74803D02*
D03*
X377953Y110236D02*
D03*
Y39370D02*
D03*
X448819D02*
D03*
Y110236D02*
D03*
X377953Y74803D02*
D03*
X413386Y39370D02*
D03*
X448819Y74803D02*
D03*
X413386Y110236D02*
D03*
X498063Y293276D02*
D03*
X440777Y299308D02*
D03*
X505661Y132134D02*
D03*
X673228Y127559D02*
D03*
Y92913D02*
D03*
X500000Y102362D02*
D03*
X716535Y146575D02*
D03*
X688976Y161614D02*
D03*
X279528Y173228D02*
D03*
X118110D02*
D03*
X515748Y200787D02*
D03*
Y177165D02*
D03*
X661417Y228346D02*
D03*
X622047D02*
D03*
X661839Y251059D02*
D03*
X224409Y259842D02*
D03*
Y236220D02*
D03*
X248031D02*
D03*
Y259842D02*
D03*
X62992Y256890D02*
D03*
Y233268D02*
D03*
X86614D02*
D03*
Y256890D02*
D03*
X251969Y74803D02*
D03*
X216535Y110236D02*
D03*
Y39370D02*
D03*
X287402D02*
D03*
Y110236D02*
D03*
X216535Y74803D02*
D03*
X251969Y39370D02*
D03*
X287402Y74803D02*
D03*
X251969Y110236D02*
D03*
X90551D02*
D03*
X125984Y74803D02*
D03*
X90551Y39370D02*
D03*
X55118Y74803D02*
D03*
X125984Y110236D02*
D03*
Y39370D02*
D03*
X55118D02*
D03*
Y110236D02*
D03*
X90551Y74803D02*
D03*
X37795Y299213D02*
D03*
X310547Y1009187D02*
D03*
X390601Y930924D02*
D03*
X312337Y850870D02*
D03*
X232284Y929134D02*
D03*
X311442Y930029D02*
D03*
X168767Y762857D02*
D03*
X144269Y787355D02*
D03*
X548768Y1006447D02*
D03*
X524270Y1030945D02*
D03*
X167201Y377733D02*
D03*
X329216Y377419D02*
D03*
X20943Y544662D02*
D03*
X382606Y399964D02*
D03*
X220466Y399464D02*
D03*
X51181Y688976D02*
D03*
X476457Y499803D02*
D03*
X315039D02*
D03*
X153622D02*
D03*
X147126Y430236D02*
D03*
X475086Y452367D02*
D03*
X313669D02*
D03*
X150919Y452634D02*
D03*
X343346Y401575D02*
D03*
X19685Y496063D02*
D03*
Y444882D02*
D03*
X20512Y397638D02*
D03*
X181102Y401575D02*
D03*
X59055Y397638D02*
D03*
X720472Y524606D02*
D03*
X562992D02*
D03*
X641732D02*
D03*
X731299Y614173D02*
D03*
X686024D02*
D03*
X644685D02*
D03*
X342441Y641732D02*
D03*
X181024D02*
D03*
X437008Y606299D02*
D03*
X413386D02*
D03*
X389764D02*
D03*
X366142D02*
D03*
X469961Y430236D02*
D03*
X476457Y522520D02*
D03*
X308543Y430236D02*
D03*
X315039Y522520D02*
D03*
X153622D02*
D03*
X78740Y665354D02*
D03*
X244094D02*
D03*
X55118D02*
D03*
X377953D02*
D03*
X401575D02*
D03*
X216535D02*
D03*
X549091Y856788D02*
D03*
X204724Y606299D02*
D03*
X228346D02*
D03*
X251969D02*
D03*
X275591D02*
D03*
X114173D02*
D03*
X90551D02*
D03*
X66929D02*
D03*
X43307D02*
D03*
X523524Y846292D02*
D03*
X555118Y925197D02*
D03*
X360630Y299213D02*
D03*
X199213D02*
D03*
X144488Y322835D02*
D03*
X467323Y289855D02*
D03*
Y322835D02*
D03*
X305906Y289855D02*
D03*
Y322835D02*
D03*
X144488Y289855D02*
D03*
X467323Y238189D02*
D03*
Y206693D02*
D03*
X472063Y176458D02*
D03*
X305906Y238189D02*
D03*
Y206693D02*
D03*
X310646Y176458D02*
D03*
X149229D02*
D03*
X144488Y206693D02*
D03*
Y238189D02*
D03*
%TF.MD5,84c0f59bf8ec61d866fabfe17e43e918*%
M02*
