%TF.GenerationSoftware,Altium Limited,Altium Designer,24.6.1 (21)*%
G04 Layer_Physical_Order=5*
G04 Layer_Color=8388736*
%FSLAX26Y26*%
%MOIN*%
%TF.SameCoordinates,E3325630-42F2-41CE-953C-F4D0AC061200*%
%TF.FilePolarity,Positive*%
%TF.FileFunction,Copper,L5,Inr,Signal*%
%TF.Part,Single*%
G01*
G75*
%TA.AperFunction,SMDPad,CuDef*%
%ADD14R,0.118110X0.118110*%
%TA.AperFunction,ViaPad*%
%ADD40C,0.017716*%
G36*
X821360Y854916D02*
X816360Y852845D01*
X814937Y854268D01*
X809843Y856378D01*
X804330D01*
X799237Y854268D01*
X795338Y850370D01*
X793228Y845276D01*
Y839763D01*
X795338Y834670D01*
X799237Y830771D01*
X804330Y828662D01*
X809843D01*
X814937Y830771D01*
X816360Y832195D01*
X821360Y830124D01*
Y717701D01*
X816360Y714360D01*
X815670Y714646D01*
X810157D01*
X805064Y712536D01*
X801165Y708637D01*
X799056Y703544D01*
Y698031D01*
X801165Y692937D01*
X805064Y689039D01*
X810157Y686929D01*
X815670D01*
X816360Y687215D01*
X821360Y683874D01*
Y489567D01*
X816360Y488572D01*
X814898Y492102D01*
X811000Y496000D01*
X805906Y498110D01*
X800393D01*
X795300Y496000D01*
X791401Y492102D01*
X789291Y487009D01*
Y481495D01*
X791401Y476402D01*
X795300Y472504D01*
X800393Y470394D01*
X805906D01*
X811000Y472504D01*
X814898Y476402D01*
X816360Y479932D01*
X821360Y478937D01*
Y434449D01*
X816360Y433454D01*
X814898Y436984D01*
X811000Y440882D01*
X805906Y442992D01*
X800393D01*
X795300Y440882D01*
X791401Y436984D01*
X789291Y431890D01*
Y426377D01*
X791401Y421284D01*
X795300Y417385D01*
X800393Y415276D01*
X805906D01*
X811000Y417385D01*
X814898Y421284D01*
X816360Y424814D01*
X821360Y423819D01*
Y379330D01*
X816360Y378336D01*
X814898Y381866D01*
X811000Y385764D01*
X805906Y387874D01*
X800393D01*
X795300Y385764D01*
X791401Y381866D01*
X789291Y376772D01*
Y371259D01*
X791401Y366166D01*
X795300Y362267D01*
X800393Y360158D01*
X805906D01*
X811000Y362267D01*
X814898Y366166D01*
X816360Y369696D01*
X821360Y368701D01*
Y324212D01*
X816360Y323218D01*
X814898Y326748D01*
X811000Y330646D01*
X805906Y332756D01*
X800393D01*
X795300Y330646D01*
X791401Y326748D01*
X789291Y321654D01*
Y316141D01*
X791401Y311048D01*
X795300Y307149D01*
X800393Y305039D01*
X805906D01*
X811000Y307149D01*
X814898Y311048D01*
X816360Y314577D01*
X821360Y313583D01*
Y5412D01*
X5412D01*
Y386069D01*
X10412Y388140D01*
X12662Y385889D01*
X17755Y383780D01*
X23268D01*
X28362Y385889D01*
X32260Y389788D01*
X34370Y394881D01*
Y400394D01*
X32260Y405488D01*
X28362Y409386D01*
X23268Y411496D01*
X17755D01*
X12662Y409386D01*
X10412Y407136D01*
X5412Y409207D01*
Y432486D01*
X10412Y434557D01*
X11835Y433134D01*
X16928Y431024D01*
X22442D01*
X27535Y433134D01*
X31433Y437032D01*
X33543Y442125D01*
Y447639D01*
X31433Y452732D01*
X27535Y456630D01*
X22442Y458740D01*
X16928D01*
X11835Y456630D01*
X10412Y455207D01*
X5412Y457278D01*
Y483667D01*
X10412Y485738D01*
X11835Y484315D01*
X16928Y482205D01*
X22442D01*
X27535Y484315D01*
X31433Y488213D01*
X33543Y493306D01*
Y498820D01*
X31433Y503913D01*
X27535Y507811D01*
X22442Y509921D01*
X16928D01*
X11835Y507811D01*
X10412Y506388D01*
X5412Y508459D01*
Y533874D01*
X10412Y535595D01*
X13093Y532913D01*
X18186Y530803D01*
X23700D01*
X28793Y532913D01*
X32691Y536812D01*
X34801Y541905D01*
Y547418D01*
X32691Y552511D01*
X28793Y556410D01*
X23700Y558520D01*
X18186D01*
X13093Y556410D01*
X10412Y553728D01*
X5412Y555449D01*
Y1470967D01*
X821360D01*
Y854916D01*
D02*
G37*
%LPC*%
G36*
X30316Y1462677D02*
X24802D01*
X19709Y1460567D01*
X15811Y1456669D01*
X13701Y1451575D01*
Y1446062D01*
X15811Y1440969D01*
X19709Y1437071D01*
X24802Y1434961D01*
X30316D01*
X35409Y1437071D01*
X39307Y1440969D01*
X41417Y1446062D01*
Y1451575D01*
X39307Y1456669D01*
X35409Y1460567D01*
X30316Y1462677D01*
D02*
G37*
G36*
X109056Y1462677D02*
X103543D01*
X98449Y1460567D01*
X94551Y1456669D01*
X92441Y1451575D01*
Y1446062D01*
X94551Y1440969D01*
X98449Y1437070D01*
X103543Y1434961D01*
X109056D01*
X114149Y1437070D01*
X118048Y1440969D01*
X120157Y1446062D01*
Y1451575D01*
X118048Y1456669D01*
X114149Y1460567D01*
X109056Y1462677D01*
D02*
G37*
G36*
X69686D02*
X64172D01*
X59079Y1460567D01*
X55181Y1456669D01*
X53071Y1451575D01*
Y1446062D01*
X55181Y1440969D01*
X59079Y1437070D01*
X64172Y1434961D01*
X69686D01*
X74779Y1437070D01*
X78677Y1440969D01*
X80787Y1446062D01*
Y1451575D01*
X78677Y1456669D01*
X74779Y1460567D01*
X69686Y1462677D01*
D02*
G37*
G36*
X376772Y1439055D02*
X371259D01*
X366166Y1436945D01*
X363222Y1434001D01*
X360236Y1433433D01*
X357251Y1434001D01*
X354307Y1436945D01*
X349213Y1439055D01*
X343700D01*
X338607Y1436945D01*
X334708Y1433047D01*
X332599Y1427954D01*
Y1422440D01*
X334708Y1417347D01*
X337652Y1414403D01*
X338220Y1411417D01*
X337652Y1408432D01*
X334708Y1405488D01*
X332599Y1400394D01*
Y1394881D01*
X334708Y1389788D01*
X337652Y1386844D01*
X338220Y1383858D01*
X337652Y1380873D01*
X334708Y1377929D01*
X332599Y1372835D01*
Y1367322D01*
X334708Y1362229D01*
X337652Y1359285D01*
X338220Y1356299D01*
X337652Y1353314D01*
X334708Y1350370D01*
X332599Y1345276D01*
Y1339763D01*
X334708Y1334670D01*
X338607Y1330771D01*
X343700Y1328661D01*
X349213D01*
X354307Y1330771D01*
X357251Y1333715D01*
X360236Y1334283D01*
X363222Y1333715D01*
X366166Y1330771D01*
X371259Y1328661D01*
X376772D01*
X381866Y1330771D01*
X385764Y1334670D01*
X387874Y1339763D01*
Y1345276D01*
X385764Y1350370D01*
X382820Y1353314D01*
X382252Y1356299D01*
X382820Y1359285D01*
X385764Y1362229D01*
X387874Y1367322D01*
Y1372835D01*
X385764Y1377929D01*
X382820Y1380873D01*
X382252Y1383858D01*
X382820Y1386844D01*
X385764Y1389788D01*
X387874Y1394881D01*
Y1400394D01*
X385764Y1405488D01*
X382820Y1408432D01*
X382252Y1411417D01*
X382820Y1414403D01*
X385764Y1417347D01*
X387874Y1422440D01*
Y1427954D01*
X385764Y1433047D01*
X381866Y1436945D01*
X376772Y1439055D01*
D02*
G37*
G36*
X490945D02*
X485432D01*
X480339Y1436945D01*
X479644Y1436251D01*
X476378Y1433107D01*
X473111Y1436251D01*
X472417Y1436945D01*
X467324Y1439055D01*
X461810D01*
X456717Y1436945D01*
X452818Y1433047D01*
X450709Y1427954D01*
Y1422440D01*
X452818Y1417347D01*
X455762Y1414403D01*
X456330Y1411417D01*
X455762Y1408432D01*
X452818Y1405488D01*
X450709Y1400394D01*
Y1394881D01*
X452818Y1389788D01*
X455762Y1386844D01*
X456330Y1383858D01*
X455762Y1380873D01*
X452818Y1377929D01*
X450709Y1372835D01*
Y1367322D01*
X452818Y1362229D01*
X455762Y1359285D01*
X456330Y1356299D01*
X455762Y1353314D01*
X452818Y1350370D01*
X450709Y1345276D01*
Y1339763D01*
X452818Y1334670D01*
X456717Y1330771D01*
X461810Y1328661D01*
X467324D01*
X472417Y1330771D01*
X473111Y1331466D01*
X476378Y1334609D01*
X479644Y1331466D01*
X480339Y1330771D01*
X485432Y1328661D01*
X490945D01*
X496039Y1330771D01*
X499937Y1334670D01*
X502047Y1339763D01*
Y1345276D01*
X499937Y1350370D01*
X496993Y1353314D01*
X496425Y1356299D01*
X496993Y1359285D01*
X499937Y1362229D01*
X502047Y1367322D01*
Y1372835D01*
X499937Y1377929D01*
X496993Y1380873D01*
X496425Y1383858D01*
X496993Y1386844D01*
X499937Y1389788D01*
X502047Y1394881D01*
Y1400394D01*
X499937Y1405488D01*
X496993Y1408432D01*
X496425Y1411417D01*
X496993Y1414403D01*
X499937Y1417347D01*
X502047Y1422440D01*
Y1427954D01*
X499937Y1433047D01*
X496039Y1436945D01*
X490945Y1439055D01*
D02*
G37*
G36*
X109056Y1423307D02*
X103543D01*
X98449Y1421197D01*
X94551Y1417299D01*
X92441Y1412205D01*
Y1406692D01*
X94551Y1401599D01*
X98449Y1397700D01*
X103543Y1395591D01*
X109056D01*
X114149Y1397700D01*
X118047Y1401599D01*
X120157Y1406692D01*
Y1412205D01*
X118047Y1417299D01*
X114149Y1421197D01*
X109056Y1423307D01*
D02*
G37*
G36*
X69686D02*
X64172D01*
X59079Y1421197D01*
X55181Y1417299D01*
X53071Y1412205D01*
Y1406692D01*
X55181Y1401599D01*
X59079Y1397700D01*
X64172Y1395591D01*
X69686D01*
X74779Y1397700D01*
X78677Y1401599D01*
X80787Y1406692D01*
Y1412205D01*
X78677Y1417299D01*
X74779Y1421197D01*
X69686Y1423307D01*
D02*
G37*
G36*
X30316D02*
X24802D01*
X19709Y1421197D01*
X15811Y1417299D01*
X13701Y1412205D01*
Y1406692D01*
X15811Y1401599D01*
X19709Y1397700D01*
X24802Y1395591D01*
X30316D01*
X35409Y1397700D01*
X39307Y1401599D01*
X41417Y1406692D01*
Y1412205D01*
X39307Y1417299D01*
X35409Y1421197D01*
X30316Y1423307D01*
D02*
G37*
G36*
X69686Y1383937D02*
X64172D01*
X59079Y1381827D01*
X55181Y1377929D01*
X53071Y1372835D01*
Y1367322D01*
X55181Y1362229D01*
X59079Y1358330D01*
X64172Y1356221D01*
X69686D01*
X74779Y1358330D01*
X78677Y1362229D01*
X80787Y1367322D01*
Y1372835D01*
X78677Y1377929D01*
X74779Y1381827D01*
X69686Y1383937D01*
D02*
G37*
G36*
X30316D02*
X24802D01*
X19709Y1381827D01*
X15811Y1377929D01*
X13701Y1372835D01*
Y1367322D01*
X15811Y1362229D01*
X19709Y1358330D01*
X24802Y1356221D01*
X30316D01*
X35409Y1358330D01*
X39307Y1362229D01*
X41417Y1367322D01*
Y1372835D01*
X39307Y1377929D01*
X35409Y1381827D01*
X30316Y1383937D01*
D02*
G37*
G36*
X109056Y1383937D02*
X103543D01*
X98449Y1381827D01*
X94551Y1377929D01*
X92441Y1372835D01*
Y1367322D01*
X94551Y1362229D01*
X98449Y1358330D01*
X103543Y1356220D01*
X109056D01*
X114149Y1358330D01*
X118047Y1362229D01*
X120157Y1367322D01*
Y1372835D01*
X118047Y1377929D01*
X114149Y1381827D01*
X109056Y1383937D01*
D02*
G37*
G36*
X312534Y1339842D02*
X307021D01*
X301928Y1337733D01*
X298319Y1334124D01*
X297750Y1333815D01*
X292459Y1333452D01*
X290186Y1335725D01*
X285092Y1337835D01*
X279579D01*
X274486Y1335725D01*
X270587Y1331826D01*
X268478Y1326733D01*
Y1321220D01*
X270587Y1316127D01*
X274486Y1312228D01*
X279579Y1310118D01*
X285092D01*
X290186Y1312228D01*
X293794Y1315836D01*
X294364Y1316146D01*
X299655Y1316509D01*
X301928Y1314236D01*
X307021Y1312126D01*
X312534D01*
X317628Y1314236D01*
X321526Y1318134D01*
X323636Y1323228D01*
Y1328741D01*
X321526Y1333834D01*
X317628Y1337733D01*
X312534Y1339842D01*
D02*
G37*
G36*
X196497Y1340630D02*
X190983D01*
X185890Y1338520D01*
X181992Y1334622D01*
X179882Y1329528D01*
Y1327853D01*
X179882Y1327536D01*
X174882Y1326542D01*
X174672Y1327048D01*
X173166Y1330685D01*
X169267Y1334583D01*
X164174Y1336693D01*
X158661D01*
X153567Y1334583D01*
X149669Y1330685D01*
X147559Y1325591D01*
Y1320078D01*
X149669Y1314985D01*
X151484Y1313169D01*
X150509Y1307353D01*
X149025Y1306738D01*
X145127Y1302840D01*
X143017Y1297747D01*
Y1292234D01*
X145127Y1287140D01*
X149025Y1283242D01*
X154118Y1281132D01*
X159632D01*
X164725Y1283242D01*
X168623Y1287140D01*
X170733Y1292234D01*
Y1297747D01*
X168623Y1302840D01*
X166808Y1304656D01*
X167784Y1310472D01*
X169267Y1311086D01*
X173166Y1314985D01*
X175275Y1320078D01*
Y1321753D01*
X175276Y1322070D01*
X180275Y1323065D01*
X180485Y1322558D01*
X181992Y1318922D01*
X185890Y1315023D01*
X190983Y1312914D01*
X196497D01*
X201590Y1315023D01*
X205488Y1318922D01*
X207598Y1324015D01*
Y1329528D01*
X205488Y1334622D01*
X201590Y1338520D01*
X196497Y1340630D01*
D02*
G37*
G36*
X53938Y1324882D02*
X48425D01*
X43331Y1322772D01*
X42636Y1322078D01*
X39370Y1318934D01*
X36104Y1322078D01*
X35409Y1322772D01*
X30316Y1324882D01*
X24802D01*
X19709Y1322772D01*
X15811Y1318874D01*
X13701Y1313780D01*
Y1308267D01*
X15811Y1303174D01*
X18755Y1300230D01*
X19323Y1297244D01*
X18755Y1294259D01*
X15811Y1291315D01*
X13701Y1286221D01*
Y1280708D01*
X15811Y1275615D01*
X18755Y1272671D01*
X19323Y1269685D01*
X18755Y1266700D01*
X15811Y1263756D01*
X13701Y1258662D01*
Y1253149D01*
X15811Y1248056D01*
X18755Y1245112D01*
X19323Y1242126D01*
X18755Y1239140D01*
X15811Y1236197D01*
X13701Y1231103D01*
Y1225590D01*
X15811Y1220496D01*
X18755Y1217553D01*
X19323Y1214567D01*
X18755Y1211581D01*
X15811Y1208637D01*
X13701Y1203544D01*
Y1198031D01*
X15811Y1192937D01*
X18755Y1189993D01*
X19323Y1187008D01*
X18755Y1184022D01*
X15811Y1181078D01*
X13701Y1175985D01*
Y1170472D01*
X15811Y1165378D01*
X18755Y1162434D01*
X19323Y1159449D01*
X18755Y1156463D01*
X15811Y1153519D01*
X13701Y1148426D01*
Y1142913D01*
X15811Y1137819D01*
X16505Y1137125D01*
X19649Y1133858D01*
X16505Y1130592D01*
X15811Y1129897D01*
X13701Y1124804D01*
Y1119291D01*
X15811Y1114197D01*
X19709Y1110299D01*
X24802Y1108189D01*
X30316D01*
X35409Y1110299D01*
X36104Y1110993D01*
X39370Y1114137D01*
X42636Y1110993D01*
X43331Y1110299D01*
X48425Y1108189D01*
X53938D01*
X59031Y1110299D01*
X62929Y1114197D01*
X65039Y1119291D01*
Y1124804D01*
X62929Y1129897D01*
X62235Y1130592D01*
X59092Y1133858D01*
X62235Y1137125D01*
X62929Y1137819D01*
X65039Y1142913D01*
Y1148426D01*
X62929Y1153519D01*
X59986Y1156463D01*
X59418Y1159449D01*
X59986Y1162434D01*
X62929Y1165378D01*
X65039Y1170472D01*
Y1175985D01*
X62929Y1181078D01*
X59986Y1184022D01*
X59418Y1187008D01*
X59986Y1189993D01*
X62929Y1192937D01*
X65039Y1198031D01*
Y1203544D01*
X62929Y1208637D01*
X59986Y1211581D01*
X59418Y1214567D01*
X59986Y1217553D01*
X62929Y1220496D01*
X63276Y1221333D01*
X69099Y1222326D01*
X70890Y1220535D01*
X75984Y1218425D01*
X81497D01*
X86590Y1220535D01*
X90489Y1224434D01*
X92598Y1229527D01*
Y1235040D01*
X90489Y1240134D01*
X89794Y1240828D01*
X86651Y1244095D01*
X89794Y1247361D01*
X90489Y1248056D01*
X92598Y1253149D01*
Y1258662D01*
X90489Y1263756D01*
X86590Y1267654D01*
X81497Y1269764D01*
X75984D01*
X70890Y1267654D01*
X67946Y1264710D01*
X64961Y1264142D01*
X61975Y1264710D01*
X59986Y1266700D01*
X59418Y1269685D01*
X59986Y1272671D01*
X62929Y1275615D01*
X65039Y1280708D01*
Y1286221D01*
X62929Y1291315D01*
X59986Y1294259D01*
X59418Y1297244D01*
X59986Y1300230D01*
X62929Y1303174D01*
X65039Y1308267D01*
Y1313780D01*
X62929Y1318874D01*
X59031Y1322772D01*
X53938Y1324882D01*
D02*
G37*
G36*
X798032Y1332756D02*
X792519D01*
X787426Y1330646D01*
X783527Y1326748D01*
X781417Y1321654D01*
Y1316141D01*
X783527Y1311048D01*
X787426Y1307149D01*
X792519Y1305039D01*
X798032D01*
X803126Y1307149D01*
X807024Y1311048D01*
X809134Y1316141D01*
Y1321654D01*
X807024Y1326748D01*
X803126Y1330646D01*
X798032Y1332756D01*
D02*
G37*
G36*
X738977D02*
X733464D01*
X728370Y1330646D01*
X724472Y1326748D01*
X722362Y1321654D01*
Y1316141D01*
X724472Y1311048D01*
X728370Y1307149D01*
X733464Y1305039D01*
X738977D01*
X744071Y1307149D01*
X747969Y1311048D01*
X750079Y1316141D01*
Y1321654D01*
X747969Y1326748D01*
X744071Y1330646D01*
X738977Y1332756D01*
D02*
G37*
G36*
X408347Y1338583D02*
X402834D01*
X397741Y1336473D01*
X393842Y1332574D01*
X391732Y1327481D01*
Y1321968D01*
X393842Y1316874D01*
X397740Y1312976D01*
X398067Y1307429D01*
X397700Y1307063D01*
X395591Y1301969D01*
Y1296456D01*
X397700Y1291363D01*
X401599Y1287464D01*
X406692Y1285354D01*
X412205D01*
X417299Y1287464D01*
X421197Y1291363D01*
X423307Y1296456D01*
Y1301969D01*
X421197Y1307063D01*
X417299Y1310961D01*
X416973Y1316508D01*
X417339Y1316874D01*
X419449Y1321968D01*
Y1327481D01*
X417339Y1332574D01*
X413441Y1336473D01*
X408347Y1338583D01*
D02*
G37*
G36*
X683859Y1281575D02*
X678346D01*
X673252Y1279465D01*
X672558Y1278770D01*
X669291Y1275627D01*
X666025Y1278770D01*
X665330Y1279465D01*
X660237Y1281575D01*
X654724D01*
X649630Y1279465D01*
X645732Y1275566D01*
X643622Y1270473D01*
Y1264960D01*
X645732Y1259867D01*
X649630Y1255968D01*
X652753Y1254675D01*
Y1249262D01*
X649630Y1247969D01*
X645732Y1244070D01*
X643622Y1238977D01*
Y1233464D01*
X645732Y1228370D01*
X649630Y1224472D01*
X654724Y1222362D01*
X660237D01*
X665330Y1224472D01*
X666025Y1225167D01*
X669291Y1228310D01*
X672558Y1225167D01*
X673252Y1224472D01*
X678346Y1222362D01*
X683859D01*
X688952Y1224472D01*
X692851Y1228370D01*
X694961Y1233464D01*
Y1238977D01*
X692851Y1244070D01*
X688952Y1247969D01*
X685829Y1249262D01*
Y1254675D01*
X688952Y1255968D01*
X692851Y1259867D01*
X694961Y1264960D01*
Y1270473D01*
X692851Y1275566D01*
X688952Y1279465D01*
X683859Y1281575D01*
D02*
G37*
G36*
X363005Y1282933D02*
X357492D01*
X352398Y1280823D01*
X348500Y1276925D01*
X346390Y1271831D01*
Y1266318D01*
X348500Y1261225D01*
X352398Y1257326D01*
X357492Y1255217D01*
X363005D01*
X363110Y1255146D01*
Y1253149D01*
X365220Y1248055D01*
X369118Y1244157D01*
X374212Y1242047D01*
X379725D01*
X384818Y1244157D01*
X388717Y1248055D01*
X390827Y1253149D01*
Y1258662D01*
X388717Y1263755D01*
X384818Y1267654D01*
X379725Y1269764D01*
X374212D01*
X374106Y1269834D01*
Y1271831D01*
X371997Y1276925D01*
X368098Y1280823D01*
X363005Y1282933D01*
D02*
G37*
G36*
X120867Y1265827D02*
X115354D01*
X110260Y1263717D01*
X106362Y1259819D01*
X104252Y1254725D01*
Y1249212D01*
X106362Y1244119D01*
X110260Y1240220D01*
X115354Y1238110D01*
X120867D01*
X125960Y1240220D01*
X129859Y1244119D01*
X131968Y1249212D01*
Y1254725D01*
X129859Y1259819D01*
X125960Y1263717D01*
X120867Y1265827D01*
D02*
G37*
G36*
X558859Y1230393D02*
X553346D01*
X548252Y1228284D01*
X544354Y1224385D01*
X542244Y1219292D01*
Y1213779D01*
X544354Y1208685D01*
X548252Y1204787D01*
X553346Y1202677D01*
X558859D01*
X563952Y1204787D01*
X567851Y1208685D01*
X569961Y1213779D01*
Y1219292D01*
X567851Y1224385D01*
X563952Y1228284D01*
X558859Y1230393D01*
D02*
G37*
G36*
X662599Y1211496D02*
X657086D01*
X651992Y1209386D01*
X648094Y1205488D01*
X645984Y1200394D01*
Y1194881D01*
X648094Y1189788D01*
X651992Y1185889D01*
X657086Y1183780D01*
X662599D01*
X667692Y1185889D01*
X671591Y1189788D01*
X673701Y1194881D01*
Y1200394D01*
X671591Y1205488D01*
X667692Y1209386D01*
X662599Y1211496D01*
D02*
G37*
G36*
X371655Y1202480D02*
X366142D01*
X361048Y1200370D01*
X357150Y1196472D01*
X355040Y1191378D01*
Y1185865D01*
X357150Y1180772D01*
X361048Y1176873D01*
X366142Y1174763D01*
X371655D01*
X376748Y1176873D01*
X380647Y1180772D01*
X382757Y1185865D01*
Y1191378D01*
X380647Y1196472D01*
X376748Y1200370D01*
X371655Y1202480D01*
D02*
G37*
G36*
X432714Y1164317D02*
X427201D01*
X422107Y1162207D01*
X418209Y1158309D01*
X416099Y1153215D01*
Y1147702D01*
X416143Y1147597D01*
X412418Y1143524D01*
X411181Y1143911D01*
Y1144804D01*
X409071Y1149897D01*
X405173Y1153796D01*
X400079Y1155905D01*
X394566D01*
X389473Y1153796D01*
X385574Y1149897D01*
X383465Y1144804D01*
Y1139291D01*
X385574Y1134197D01*
X389473Y1130299D01*
X394566Y1128189D01*
X399528D01*
Y1123228D01*
X401637Y1118134D01*
X405536Y1114236D01*
X410629Y1112126D01*
X416142D01*
X421236Y1114236D01*
X421649Y1114649D01*
X426649Y1112578D01*
Y1111855D01*
X428758Y1106761D01*
X432657Y1102863D01*
X437750Y1100753D01*
X443263D01*
X448357Y1102863D01*
X452255Y1106761D01*
X454365Y1111855D01*
Y1117368D01*
X452255Y1122461D01*
X448357Y1126360D01*
X443263Y1128469D01*
X437750D01*
X432657Y1126360D01*
X432244Y1125947D01*
X427478Y1127921D01*
X426147Y1132638D01*
X428814Y1136475D01*
X428988Y1136600D01*
X432714D01*
X437807Y1138710D01*
X441706Y1142609D01*
X443816Y1147702D01*
Y1153215D01*
X441706Y1158309D01*
X437807Y1162207D01*
X432714Y1164317D01*
D02*
G37*
G36*
X304611Y1168012D02*
X299098D01*
X294005Y1165902D01*
X290106Y1162004D01*
X287996Y1156910D01*
Y1151397D01*
X290106Y1146304D01*
X294005Y1142405D01*
X299098Y1140295D01*
X304611D01*
X309705Y1142405D01*
X313603Y1146304D01*
X315713Y1151397D01*
Y1156910D01*
X313603Y1162004D01*
X309705Y1165902D01*
X304611Y1168012D01*
D02*
G37*
G36*
X735039Y1131966D02*
X729525D01*
X724432Y1129856D01*
X720534Y1125958D01*
X718424Y1120864D01*
Y1115351D01*
X720534Y1110258D01*
X724432Y1106360D01*
X729525Y1104250D01*
X735039D01*
X740132Y1106360D01*
X744030Y1110258D01*
X746140Y1115351D01*
Y1120864D01*
X744030Y1125958D01*
X740132Y1129856D01*
X735039Y1131966D01*
D02*
G37*
G36*
X156300Y1092520D02*
X150787D01*
X145693Y1090410D01*
X141795Y1086511D01*
X139685Y1081418D01*
Y1075905D01*
X141795Y1070811D01*
X145693Y1066913D01*
X150787Y1064803D01*
X156300D01*
X161393Y1066913D01*
X165292Y1070811D01*
X167401Y1075905D01*
Y1081418D01*
X165292Y1086511D01*
X161393Y1090410D01*
X156300Y1092520D01*
D02*
G37*
G36*
X498820Y1120157D02*
X493306D01*
X488213Y1118048D01*
X484315Y1114149D01*
X482205Y1109056D01*
Y1103543D01*
X484315Y1098449D01*
X488213Y1094551D01*
X493306Y1092441D01*
X493942D01*
X496013Y1087441D01*
X494173Y1085600D01*
X492063Y1080507D01*
Y1074994D01*
X494173Y1069900D01*
X498071Y1066002D01*
X498252Y1065094D01*
X496126Y1062968D01*
X494016Y1057875D01*
Y1052361D01*
X496126Y1047268D01*
X500024Y1043370D01*
X505117Y1041260D01*
X510631D01*
X515724Y1043370D01*
X519622Y1047268D01*
X521732Y1052361D01*
Y1057875D01*
X519622Y1062968D01*
X515724Y1066866D01*
X515543Y1067774D01*
X517669Y1069900D01*
X519779Y1074994D01*
Y1080507D01*
X517669Y1085600D01*
X513771Y1089499D01*
X508678Y1091609D01*
X508042D01*
X505971Y1096609D01*
X507811Y1098449D01*
X509921Y1103543D01*
Y1109056D01*
X507811Y1114149D01*
X503913Y1118048D01*
X498820Y1120157D01*
D02*
G37*
G36*
X124642Y1044744D02*
X119129D01*
X114035Y1042634D01*
X110137Y1038736D01*
X109998Y1038400D01*
X104193Y1037452D01*
X102338Y1039307D01*
X97245Y1041417D01*
X91732D01*
X86638Y1039307D01*
X82740Y1035409D01*
X80630Y1030316D01*
Y1024803D01*
X82740Y1019709D01*
X85281Y1017168D01*
X84869Y1014713D01*
X80547Y1013855D01*
X78716Y1015685D01*
X73623Y1017795D01*
X68109D01*
X63016Y1015685D01*
X59118Y1011787D01*
X57008Y1006694D01*
Y1001180D01*
X59118Y996087D01*
X60299Y994906D01*
X60092Y993045D01*
X58672Y989462D01*
X54651Y987796D01*
X50752Y983898D01*
X48643Y978804D01*
Y973291D01*
X50752Y968198D01*
X54651Y964299D01*
X59744Y962189D01*
X65257D01*
X70351Y964299D01*
X74249Y968198D01*
X76359Y973291D01*
Y978804D01*
X74249Y983898D01*
X73068Y985079D01*
X73275Y986940D01*
X74695Y990523D01*
X76665Y991339D01*
X82740Y989738D01*
X86638Y985840D01*
X91732Y983730D01*
X97245D01*
X102338Y985840D01*
X106237Y989738D01*
X108346Y994832D01*
Y1000345D01*
X106237Y1005438D01*
X102338Y1009337D01*
X101056Y1009868D01*
Y1015280D01*
X102338Y1015811D01*
X106237Y1019709D01*
X106376Y1020045D01*
X112180Y1020992D01*
X114035Y1019137D01*
X119129Y1017028D01*
X124642D01*
X129735Y1019137D01*
X133634Y1023036D01*
X135744Y1028129D01*
Y1033642D01*
X133634Y1038736D01*
X129735Y1042634D01*
X124642Y1044744D01*
D02*
G37*
G36*
X551525Y1020305D02*
X546012D01*
X540918Y1018195D01*
X537020Y1014297D01*
X534910Y1009203D01*
Y1003690D01*
X537020Y998597D01*
X540918Y994698D01*
X546012Y992588D01*
X551525D01*
X556618Y994698D01*
X560517Y998597D01*
X562626Y1003690D01*
Y1009203D01*
X560517Y1014297D01*
X556618Y1018195D01*
X551525Y1020305D01*
D02*
G37*
G36*
X715965Y982362D02*
X710452D01*
X705359Y980252D01*
X701460Y976354D01*
X699351Y971260D01*
Y965747D01*
X701460Y960654D01*
X705359Y956755D01*
X710452Y954646D01*
X715965D01*
X721059Y956755D01*
X724957Y960654D01*
X727067Y965747D01*
Y971260D01*
X724957Y976354D01*
X721059Y980252D01*
X715965Y982362D01*
D02*
G37*
G36*
X109883Y946929D02*
X104369D01*
X99276Y944819D01*
X95378Y940921D01*
X93268Y935827D01*
Y933402D01*
X88268Y931331D01*
X86590Y933008D01*
X81497Y935118D01*
X75984D01*
X70890Y933008D01*
X66992Y929110D01*
X64882Y924016D01*
Y918503D01*
X66992Y913410D01*
X70890Y909511D01*
X75984Y907402D01*
X81497D01*
X86590Y909511D01*
X90489Y913410D01*
X92598Y918503D01*
Y920929D01*
X97598Y923000D01*
X99276Y921322D01*
X104369Y919213D01*
X109883D01*
X114976Y921322D01*
X118874Y925221D01*
X120984Y930314D01*
Y935827D01*
X118874Y940921D01*
X114976Y944819D01*
X109883Y946929D01*
D02*
G37*
G36*
X679725Y982362D02*
X674212D01*
X669119Y980252D01*
X665220Y976354D01*
X663110Y971260D01*
Y965747D01*
X665220Y960654D01*
X668164Y957710D01*
X668732Y954724D01*
X668164Y951739D01*
X665220Y948795D01*
X663110Y943702D01*
Y938188D01*
X665220Y933095D01*
X669119Y929197D01*
X674212Y927087D01*
X679725D01*
X684818Y929197D01*
X688717Y933095D01*
X690827Y938188D01*
Y943702D01*
X688717Y948795D01*
X685773Y951739D01*
X685205Y954724D01*
X685773Y957710D01*
X688717Y960654D01*
X690827Y965747D01*
Y971260D01*
X688717Y976354D01*
X684818Y980252D01*
X679725Y982362D01*
D02*
G37*
G36*
X557875Y939055D02*
X552362D01*
X547268Y936945D01*
X543370Y933047D01*
X541260Y927953D01*
Y922440D01*
X543370Y917347D01*
X547268Y913448D01*
X552362Y911339D01*
X557875D01*
X562968Y913448D01*
X566867Y917347D01*
X568976Y922440D01*
Y927953D01*
X566867Y933047D01*
X562968Y936945D01*
X557875Y939055D01*
D02*
G37*
G36*
X557875Y895748D02*
X552361D01*
X547268Y893638D01*
X543370Y889740D01*
X541260Y884646D01*
Y879133D01*
X543370Y874040D01*
X541638Y868700D01*
X541241Y868536D01*
X537343Y864638D01*
X535733Y860752D01*
X533077Y859100D01*
X530233Y858513D01*
X526281Y860150D01*
X520768D01*
X515674Y858040D01*
X511776Y854142D01*
X509666Y849048D01*
Y848748D01*
X506694Y844567D01*
X505046Y844567D01*
X501180D01*
X496087Y842457D01*
X492189Y838559D01*
X490079Y833465D01*
Y827952D01*
X492189Y822859D01*
X496087Y818960D01*
X501180Y816850D01*
X506694D01*
X511787Y818960D01*
X515686Y822859D01*
X517795Y827952D01*
Y828253D01*
X520768Y832433D01*
X522415Y832433D01*
X526281D01*
X531374Y834543D01*
X535273Y838442D01*
X536882Y842327D01*
X539538Y843980D01*
X542382Y844566D01*
X546334Y842929D01*
X551848D01*
X556941Y845039D01*
X560839Y848938D01*
X562949Y854031D01*
Y859544D01*
X560839Y864638D01*
X562571Y869977D01*
X562968Y870141D01*
X566866Y874040D01*
X568976Y879133D01*
Y884646D01*
X566866Y889740D01*
X562968Y893638D01*
X557875Y895748D01*
D02*
G37*
G36*
X77560Y887874D02*
X72047D01*
X66953Y885764D01*
X63055Y881866D01*
X60945Y876772D01*
Y871259D01*
X63055Y866166D01*
X66953Y862267D01*
X70862Y860648D01*
X72130Y859886D01*
X73588Y855158D01*
X72756Y853149D01*
Y847635D01*
X74866Y842542D01*
X78764Y838644D01*
X83857Y836534D01*
X89371D01*
X94464Y838644D01*
X98362Y842542D01*
X100472Y847635D01*
Y853149D01*
X98362Y858242D01*
X94464Y862140D01*
X90555Y863760D01*
X89287Y864522D01*
X87829Y869250D01*
X88661Y871259D01*
Y876772D01*
X86552Y881866D01*
X82653Y885764D01*
X77560Y887874D01*
D02*
G37*
G36*
X611418Y836693D02*
X605905D01*
X600811Y834583D01*
X596913Y830685D01*
X594803Y825591D01*
Y820078D01*
X596913Y814985D01*
X600811Y811086D01*
X605905Y808976D01*
X611418D01*
X616511Y811086D01*
X620410Y814985D01*
X622519Y820078D01*
Y825591D01*
X620410Y830685D01*
X616511Y834583D01*
X611418Y836693D01*
D02*
G37*
G36*
X495847Y810957D02*
X490334D01*
X485240Y808847D01*
X481342Y804948D01*
X479232Y799855D01*
Y794342D01*
X481342Y789249D01*
X485240Y785350D01*
X490334Y783240D01*
X495847D01*
X500940Y785350D01*
X504839Y789249D01*
X506949Y794342D01*
Y799855D01*
X504839Y804948D01*
X500940Y808847D01*
X495847Y810957D01*
D02*
G37*
G36*
X171524Y776715D02*
X166011D01*
X160917Y774605D01*
X157019Y770707D01*
X154909Y765613D01*
Y760100D01*
X157019Y755007D01*
X160917Y751108D01*
X166011Y748998D01*
X171524D01*
X176617Y751108D01*
X180516Y755007D01*
X182625Y760100D01*
Y765613D01*
X180516Y770707D01*
X176617Y774605D01*
X171524Y776715D01*
D02*
G37*
G36*
X451575Y773701D02*
X446062D01*
X440969Y771591D01*
X437070Y767692D01*
X434961Y762599D01*
Y757086D01*
X437070Y751992D01*
X440969Y748094D01*
X446062Y745984D01*
X451575D01*
X456669Y748094D01*
X460567Y751992D01*
X462677Y757086D01*
Y762599D01*
X460567Y767692D01*
X456669Y771591D01*
X451575Y773701D01*
D02*
G37*
G36*
X623446Y746142D02*
X617932D01*
X612839Y744032D01*
X608941Y740134D01*
X606831Y735040D01*
Y729527D01*
X608941Y724433D01*
X612839Y720535D01*
X617932Y718425D01*
X623446D01*
X628539Y720535D01*
X632437Y724433D01*
X634547Y729527D01*
Y735040D01*
X632437Y740134D01*
X628539Y744032D01*
X623446Y746142D01*
D02*
G37*
G36*
X699606Y746140D02*
X694092D01*
X688999Y744030D01*
X685101Y740132D01*
X682991Y735039D01*
Y729525D01*
X685101Y724432D01*
X688999Y720534D01*
X694092Y718424D01*
X699606D01*
X704699Y720534D01*
X708597Y724432D01*
X710707Y729525D01*
Y735039D01*
X708597Y740132D01*
X704699Y744030D01*
X699606Y746140D01*
D02*
G37*
G36*
X97245Y742205D02*
X91732D01*
X86638Y740095D01*
X82740Y736197D01*
X80630Y731103D01*
Y725590D01*
X82740Y720496D01*
X86638Y716598D01*
X91732Y714488D01*
X97245D01*
X99252Y715320D01*
X103981Y713862D01*
X104743Y712594D01*
X106362Y708685D01*
X110260Y704787D01*
X115354Y702677D01*
X120867D01*
X125960Y704787D01*
X129859Y708685D01*
X131968Y713779D01*
Y719292D01*
X129859Y724385D01*
X125960Y728284D01*
X120867Y730394D01*
X115354D01*
X113346Y729562D01*
X108617Y731020D01*
X107856Y732288D01*
X106237Y736197D01*
X102338Y740095D01*
X97245Y742205D01*
D02*
G37*
G36*
X589957Y746142D02*
X584444D01*
X579351Y744032D01*
X575452Y740134D01*
X573343Y735040D01*
Y729527D01*
X575452Y724433D01*
X576147Y723739D01*
X579290Y720472D01*
X576147Y717206D01*
X575452Y716511D01*
X573343Y711418D01*
Y705905D01*
X575452Y700811D01*
X579351Y696913D01*
X584444Y694803D01*
X589957D01*
X595051Y696913D01*
X598949Y700811D01*
X601059Y705905D01*
Y711418D01*
X598949Y716511D01*
X598255Y717206D01*
X595111Y720472D01*
X598255Y723739D01*
X598949Y724433D01*
X601059Y729527D01*
Y735040D01*
X598949Y740134D01*
X595051Y744032D01*
X589957Y746142D01*
D02*
G37*
G36*
X272686Y685362D02*
X267172D01*
X262079Y683252D01*
X258181Y679354D01*
X257766Y678352D01*
X251944Y677103D01*
X246851Y679212D01*
X241338D01*
X236244Y677103D01*
X233300Y674159D01*
X230315Y673591D01*
X227329Y674159D01*
X224385Y677103D01*
X219292Y679212D01*
X213779D01*
X208685Y677103D01*
X204787Y673204D01*
X202677Y668111D01*
Y662598D01*
X204787Y657504D01*
X208685Y653606D01*
X213779Y651496D01*
X219292D01*
X224385Y653606D01*
X227329Y656550D01*
X230315Y657118D01*
X233300Y656550D01*
X236244Y653606D01*
X241338Y651496D01*
X246851D01*
X251944Y653606D01*
X255843Y657504D01*
X256258Y658506D01*
X262079Y659755D01*
X267172Y657646D01*
X272686D01*
X277779Y659755D01*
X281677Y663654D01*
X283787Y668747D01*
Y674260D01*
X281677Y679354D01*
X277779Y683252D01*
X272686Y685362D01*
D02*
G37*
G36*
X404331Y679212D02*
X398818D01*
X393725Y677103D01*
X393030Y676408D01*
X389764Y673265D01*
X386497Y676408D01*
X385803Y677103D01*
X380709Y679212D01*
X375196D01*
X370103Y677103D01*
X366204Y673204D01*
X364095Y668111D01*
Y662598D01*
X366204Y657504D01*
X370103Y653606D01*
X375196Y651496D01*
X380709D01*
X385803Y653606D01*
X386497Y654301D01*
X389764Y657444D01*
X393030Y654301D01*
X393725Y653606D01*
X398818Y651496D01*
X404331D01*
X409425Y653606D01*
X413323Y657504D01*
X415433Y662598D01*
Y668111D01*
X413323Y673204D01*
X409425Y677103D01*
X404331Y679212D01*
D02*
G37*
G36*
X494883Y683149D02*
X489369D01*
X484276Y681040D01*
X480378Y677141D01*
X478268Y672048D01*
Y666535D01*
X480378Y661441D01*
X484276Y657543D01*
X489369Y655433D01*
X494883D01*
X499976Y657543D01*
X503874Y661441D01*
X505984Y666535D01*
Y672048D01*
X503874Y677141D01*
X499976Y681040D01*
X494883Y683149D01*
D02*
G37*
G36*
X53938Y702835D02*
X48425D01*
X43331Y700725D01*
X39433Y696826D01*
X37323Y691733D01*
Y686220D01*
X39433Y681126D01*
X43331Y677228D01*
X44005Y673840D01*
X43370Y673204D01*
X41260Y668111D01*
Y662598D01*
X43370Y657504D01*
X47268Y653606D01*
X52361Y651496D01*
X57875D01*
X62968Y653606D01*
X63663Y654301D01*
X66929Y657444D01*
X70196Y654301D01*
X70890Y653606D01*
X75984Y651496D01*
X81497D01*
X86590Y653606D01*
X90489Y657504D01*
X92598Y662598D01*
Y668111D01*
X90489Y673204D01*
X86590Y677103D01*
X81497Y679212D01*
X75984D01*
X70890Y677103D01*
X70196Y676408D01*
X68316Y674599D01*
X63726Y677122D01*
X62929Y681126D01*
X65039Y686220D01*
Y691733D01*
X62929Y696826D01*
X59031Y700725D01*
X53938Y702835D01*
D02*
G37*
G36*
X341950Y686582D02*
X336436D01*
X331343Y684472D01*
X327445Y680574D01*
X325335Y675480D01*
Y669967D01*
X327445Y664874D01*
X331343Y660975D01*
X335481Y659261D01*
X336144Y655792D01*
X335978Y654055D01*
X334591Y653481D01*
X330693Y649582D01*
X328583Y644489D01*
Y638976D01*
X330693Y633882D01*
X334591Y629984D01*
X339684Y627874D01*
X345198D01*
X350291Y629984D01*
X354189Y633882D01*
X356299Y638976D01*
Y644489D01*
X354189Y649582D01*
X350291Y653481D01*
X346153Y655195D01*
X345490Y658664D01*
X345656Y660401D01*
X347043Y660975D01*
X350941Y664874D01*
X353051Y669967D01*
Y675480D01*
X350941Y680574D01*
X347043Y684472D01*
X341950Y686582D01*
D02*
G37*
G36*
X168111Y678602D02*
X162598D01*
X157504Y676492D01*
X153606Y672594D01*
X151496Y667501D01*
Y661987D01*
X153606Y656894D01*
X157504Y652996D01*
X162598Y650886D01*
X164403D01*
X167744Y645886D01*
X167165Y644489D01*
Y638976D01*
X169275Y633882D01*
X173174Y629984D01*
X178267Y627874D01*
X183780D01*
X188874Y629984D01*
X192772Y633882D01*
X194882Y638976D01*
Y644489D01*
X192772Y649582D01*
X188874Y653481D01*
X183780Y655591D01*
X181975D01*
X178634Y660591D01*
X179213Y661987D01*
Y667501D01*
X177103Y672594D01*
X173204Y676492D01*
X168111Y678602D01*
D02*
G37*
G36*
X734056Y628031D02*
X728543D01*
X723449Y625922D01*
X719551Y622023D01*
X717441Y616930D01*
Y611417D01*
X719551Y606323D01*
X723449Y602425D01*
X728543Y600315D01*
X734056D01*
X739149Y602425D01*
X743048Y606323D01*
X745157Y611417D01*
Y616930D01*
X743048Y622023D01*
X739149Y625922D01*
X734056Y628031D01*
D02*
G37*
G36*
X688780D02*
X683267D01*
X678174Y625922D01*
X674275Y622023D01*
X672165Y616930D01*
Y611417D01*
X674275Y606323D01*
X678174Y602425D01*
X683267Y600315D01*
X688780D01*
X693874Y602425D01*
X697772Y606323D01*
X699882Y611417D01*
Y616930D01*
X697772Y622023D01*
X693874Y625922D01*
X688780Y628031D01*
D02*
G37*
G36*
X647442D02*
X641928D01*
X636835Y625922D01*
X632937Y622023D01*
X630827Y616930D01*
Y611417D01*
X632937Y606323D01*
X636835Y602425D01*
X641928Y600315D01*
X647442D01*
X652535Y602425D01*
X656433Y606323D01*
X658543Y611417D01*
Y616930D01*
X656433Y622023D01*
X652535Y625922D01*
X647442Y628031D01*
D02*
G37*
G36*
X560827D02*
X555314D01*
X550221Y625922D01*
X546322Y622023D01*
X544213Y616930D01*
Y611417D01*
X546322Y606323D01*
X550221Y602425D01*
X555314Y600315D01*
X560827D01*
X565921Y602425D01*
X569819Y606323D01*
X571929Y611417D01*
Y616930D01*
X569819Y622023D01*
X565921Y625922D01*
X560827Y628031D01*
D02*
G37*
G36*
X723229Y538465D02*
X717716D01*
X712622Y536355D01*
X708724Y532456D01*
X706614Y527363D01*
Y521850D01*
X708724Y516756D01*
X712622Y512858D01*
X717716Y510748D01*
X723229D01*
X728322Y512858D01*
X732221Y516756D01*
X734331Y521850D01*
Y527363D01*
X732221Y532456D01*
X728322Y536355D01*
X723229Y538465D01*
D02*
G37*
G36*
X644489D02*
X638976D01*
X633882Y536355D01*
X629984Y532456D01*
X627874Y527363D01*
Y521850D01*
X629984Y516756D01*
X633882Y512858D01*
X638976Y510748D01*
X644489D01*
X649582Y512858D01*
X653481Y516756D01*
X655591Y521850D01*
Y527363D01*
X653481Y532456D01*
X649582Y536355D01*
X644489Y538465D01*
D02*
G37*
G36*
X565749D02*
X560236D01*
X555142Y536355D01*
X551244Y532456D01*
X549134Y527363D01*
Y521850D01*
X551244Y516756D01*
X555142Y512858D01*
X560236Y510748D01*
X565749D01*
X570842Y512858D01*
X574740Y516756D01*
X576850Y521850D01*
Y527363D01*
X574740Y532456D01*
X570842Y536355D01*
X565749Y538465D01*
D02*
G37*
G36*
X479213Y536378D02*
X473700D01*
X468607Y534268D01*
X464708Y530370D01*
X462599Y525276D01*
Y519763D01*
X464708Y514670D01*
X468607Y510771D01*
X473700Y508662D01*
X479213D01*
X484307Y510771D01*
X488205Y514670D01*
X490315Y519763D01*
Y525276D01*
X488205Y530370D01*
X484307Y534268D01*
X479213Y536378D01*
D02*
G37*
G36*
X317796D02*
X312283D01*
X307189Y534268D01*
X303291Y530370D01*
X301181Y525276D01*
Y519763D01*
X303291Y514670D01*
X307189Y510771D01*
X312283Y508662D01*
X317796D01*
X322889Y510771D01*
X326788Y514670D01*
X328898Y519763D01*
Y525276D01*
X326788Y530370D01*
X322889Y534268D01*
X317796Y536378D01*
D02*
G37*
G36*
X156379D02*
X150865D01*
X145772Y534268D01*
X141874Y530370D01*
X139764Y525276D01*
Y519763D01*
X141874Y514670D01*
X145772Y510771D01*
X150865Y508662D01*
X156379D01*
X161472Y510771D01*
X165370Y514670D01*
X167480Y519763D01*
Y525276D01*
X165370Y530370D01*
X161472Y534268D01*
X156379Y536378D01*
D02*
G37*
G36*
X612993Y505000D02*
X607480D01*
X602386Y502890D01*
X598488Y498992D01*
X596378Y493898D01*
Y488385D01*
X598488Y483292D01*
X602386Y479393D01*
X607480Y477284D01*
X612993D01*
X618086Y479393D01*
X621985Y483292D01*
X624094Y488385D01*
Y493898D01*
X621985Y498992D01*
X618086Y502890D01*
X612993Y505000D01*
D02*
G37*
G36*
X573623D02*
X568110D01*
X563016Y502890D01*
X559118Y498992D01*
X557008Y493898D01*
Y488385D01*
X559118Y483292D01*
X563016Y479393D01*
X568110Y477284D01*
X573623D01*
X578716Y479393D01*
X582615Y483292D01*
X584724Y488385D01*
Y493898D01*
X582615Y498992D01*
X578716Y502890D01*
X573623Y505000D01*
D02*
G37*
G36*
X534253D02*
X528740D01*
X523646Y502890D01*
X519748Y498992D01*
X517638Y493898D01*
Y488385D01*
X519748Y483292D01*
X523646Y479393D01*
X528740Y477284D01*
X534253D01*
X539346Y479393D01*
X543245Y483292D01*
X545354Y488385D01*
Y493898D01*
X543245Y498992D01*
X539346Y502890D01*
X534253Y505000D01*
D02*
G37*
G36*
X472717Y444094D02*
X467204D01*
X462111Y441985D01*
X458212Y438086D01*
X456103Y432993D01*
Y427479D01*
X458212Y422386D01*
X462111Y418488D01*
X467204Y416378D01*
X472717D01*
X477811Y418488D01*
X481709Y422386D01*
X483819Y427479D01*
Y432993D01*
X481709Y438086D01*
X477811Y441985D01*
X472717Y444094D01*
D02*
G37*
G36*
X311300D02*
X305787D01*
X300693Y441985D01*
X296795Y438086D01*
X294685Y432993D01*
Y427479D01*
X296795Y422386D01*
X300693Y418488D01*
X305787Y416378D01*
X311300D01*
X316394Y418488D01*
X320292Y422386D01*
X322402Y427479D01*
Y432993D01*
X320292Y438086D01*
X316394Y441985D01*
X311300Y444094D01*
D02*
G37*
G36*
X149883D02*
X144370D01*
X139276Y441985D01*
X135378Y438086D01*
X133268Y432993D01*
Y427479D01*
X135378Y422386D01*
X139276Y418488D01*
X144370Y416378D01*
X149883D01*
X154976Y418488D01*
X158875Y422386D01*
X160984Y427479D01*
Y432993D01*
X158875Y438086D01*
X154976Y441985D01*
X149883Y444094D01*
D02*
G37*
G36*
X719292Y458740D02*
X713779D01*
X708685Y456630D01*
X704787Y452732D01*
X702677Y447639D01*
Y442125D01*
X704787Y437032D01*
X708685Y433134D01*
X711808Y431840D01*
Y426428D01*
X708685Y425134D01*
X704787Y421236D01*
X702677Y416142D01*
Y410629D01*
X704787Y405536D01*
X708685Y401637D01*
X713779Y399528D01*
X719292D01*
X724385Y401637D01*
X728284Y405536D01*
X730394Y410629D01*
Y416142D01*
X728284Y421236D01*
X724385Y425134D01*
X721262Y426428D01*
Y431840D01*
X724385Y433134D01*
X728284Y437032D01*
X730394Y442125D01*
Y447639D01*
X728284Y452732D01*
X724385Y456630D01*
X719292Y458740D01*
D02*
G37*
G36*
X675985D02*
X670472D01*
X665378Y456630D01*
X661480Y452732D01*
X659370Y447639D01*
Y442125D01*
X661480Y437032D01*
X665378Y433134D01*
X668501Y431840D01*
Y426428D01*
X665378Y425134D01*
X661480Y421236D01*
X659370Y416142D01*
Y410629D01*
X661480Y405536D01*
X665378Y401637D01*
X670472Y399528D01*
X675985D01*
X681078Y401637D01*
X684977Y405536D01*
X687087Y410629D01*
Y416142D01*
X684977Y421236D01*
X681078Y425134D01*
X677955Y426428D01*
Y431840D01*
X681078Y433134D01*
X684977Y437032D01*
X687087Y442125D01*
Y447639D01*
X684977Y452732D01*
X681078Y456630D01*
X675985Y458740D01*
D02*
G37*
G36*
X526379Y423228D02*
X520865D01*
X515772Y421118D01*
X511874Y417220D01*
X509764Y412127D01*
Y406613D01*
X511874Y401520D01*
X515772Y397622D01*
X520865Y395512D01*
X526379D01*
X531472Y397622D01*
X535370Y401520D01*
X537480Y406613D01*
Y412127D01*
X535370Y417220D01*
X531472Y421118D01*
X526379Y423228D01*
D02*
G37*
G36*
X385363Y413823D02*
X379849D01*
X374756Y411713D01*
X370858Y407815D01*
X368748Y402721D01*
Y397208D01*
X370858Y392115D01*
X374756Y388216D01*
X379849Y386106D01*
X385363D01*
X390456Y388216D01*
X394354Y392115D01*
X396464Y397208D01*
Y402721D01*
X394354Y407815D01*
X390456Y411713D01*
X385363Y413823D01*
D02*
G37*
G36*
X223223Y413323D02*
X217710D01*
X212617Y411213D01*
X208718Y407315D01*
X206608Y402221D01*
Y396708D01*
X208718Y391615D01*
X212617Y387716D01*
X217710Y385606D01*
X223223D01*
X228316Y387716D01*
X232215Y391615D01*
X234325Y396708D01*
Y402221D01*
X232215Y407315D01*
X228316Y411213D01*
X223223Y413323D01*
D02*
G37*
G36*
X61812Y411496D02*
X56298D01*
X51205Y409386D01*
X47307Y405488D01*
X45197Y400394D01*
Y394881D01*
X47307Y389788D01*
X51205Y385889D01*
X56298Y383780D01*
X61812D01*
X66905Y385889D01*
X70803Y389788D01*
X72913Y394881D01*
Y400394D01*
X70803Y405488D01*
X66905Y409386D01*
X61812Y411496D01*
D02*
G37*
G36*
X588962Y391890D02*
X583448D01*
X578355Y389780D01*
X574457Y385882D01*
X572347Y380788D01*
Y375275D01*
X574457Y370182D01*
X578355Y366283D01*
X583448Y364173D01*
X588962D01*
X594055Y366283D01*
X597953Y370182D01*
X600063Y375275D01*
Y380788D01*
X597953Y385882D01*
X594055Y389780D01*
X588962Y391890D01*
D02*
G37*
G36*
X183859Y415433D02*
X178346D01*
X173252Y413323D01*
X169354Y409425D01*
X167244Y404331D01*
Y398818D01*
X168167Y396591D01*
X164955Y391591D01*
X164444D01*
X159351Y389481D01*
X155452Y385583D01*
X153343Y380490D01*
Y374976D01*
X155452Y369883D01*
X159351Y365985D01*
X164444Y363875D01*
X169958D01*
X175051Y365985D01*
X178949Y369883D01*
X181059Y374976D01*
Y380490D01*
X180137Y382716D01*
X183349Y387717D01*
X183859D01*
X188952Y389826D01*
X192851Y393725D01*
X194961Y398818D01*
Y404331D01*
X192851Y409425D01*
X188952Y413323D01*
X183859Y415433D01*
D02*
G37*
G36*
X346103D02*
X340590D01*
X335497Y413323D01*
X331598Y409425D01*
X329488Y404331D01*
Y398818D01*
X330541Y396277D01*
X327513Y391277D01*
X326459D01*
X321366Y389167D01*
X317468Y385269D01*
X315358Y380175D01*
Y374662D01*
X317468Y369569D01*
X321366Y365670D01*
X326459Y363560D01*
X331973D01*
X337066Y365670D01*
X340964Y369569D01*
X343074Y374662D01*
Y380175D01*
X342022Y382716D01*
X345050Y387717D01*
X346103D01*
X351197Y389826D01*
X355095Y393725D01*
X357205Y398818D01*
Y404331D01*
X355095Y409425D01*
X351197Y413323D01*
X346103Y415433D01*
D02*
G37*
G36*
X470080Y336693D02*
X464566D01*
X459473Y334583D01*
X455575Y330685D01*
X453465Y325591D01*
Y320078D01*
X455575Y314985D01*
X459473Y311086D01*
X464566Y308976D01*
X470080D01*
X475173Y311086D01*
X479071Y314985D01*
X481181Y320078D01*
Y325591D01*
X479071Y330685D01*
X475173Y334583D01*
X470080Y336693D01*
D02*
G37*
G36*
X308662D02*
X303149D01*
X298055Y334583D01*
X294157Y330685D01*
X292047Y325591D01*
Y320078D01*
X294157Y314985D01*
X298055Y311086D01*
X303149Y308976D01*
X308662D01*
X313755Y311086D01*
X317654Y314985D01*
X319764Y320078D01*
Y325591D01*
X317654Y330685D01*
X313755Y334583D01*
X308662Y336693D01*
D02*
G37*
G36*
X147245D02*
X141732D01*
X136638Y334583D01*
X132740Y330685D01*
X130630Y325591D01*
Y320078D01*
X132740Y314985D01*
X136638Y311086D01*
X141732Y308976D01*
X147245D01*
X152338Y311086D01*
X156237Y314985D01*
X158346Y320078D01*
Y325591D01*
X156237Y330685D01*
X152338Y334583D01*
X147245Y336693D01*
D02*
G37*
G36*
X363387Y313071D02*
X357873D01*
X352780Y310961D01*
X348882Y307063D01*
X346772Y301969D01*
Y296456D01*
X348882Y291363D01*
X352780Y287464D01*
X357873Y285354D01*
X363387D01*
X368480Y287464D01*
X372378Y291363D01*
X374488Y296456D01*
Y301969D01*
X372378Y307063D01*
X368480Y310961D01*
X363387Y313071D01*
D02*
G37*
G36*
X201969D02*
X196456D01*
X191363Y310961D01*
X187464Y307063D01*
X185355Y301969D01*
Y296456D01*
X187464Y291363D01*
X191363Y287464D01*
X196456Y285354D01*
X201969D01*
X207063Y287464D01*
X210961Y291363D01*
X213071Y296456D01*
Y301969D01*
X210961Y307063D01*
X207063Y310961D01*
X201969Y313071D01*
D02*
G37*
G36*
X40552D02*
X35039D01*
X29945Y310961D01*
X26047Y307063D01*
X23937Y301969D01*
Y296456D01*
X26047Y291363D01*
X29945Y287464D01*
X35039Y285354D01*
X40552D01*
X45645Y287464D01*
X49544Y291363D01*
X51654Y296456D01*
Y301969D01*
X49544Y307063D01*
X45645Y310961D01*
X40552Y313071D01*
D02*
G37*
G36*
X443534Y313166D02*
X438021D01*
X432928Y311056D01*
X429029Y307158D01*
X426919Y302064D01*
Y296551D01*
X429029Y291457D01*
X432928Y287559D01*
X438021Y285449D01*
X443534D01*
X448627Y287559D01*
X449695Y287457D01*
X453984Y285844D01*
X455575Y282005D01*
X459473Y278106D01*
X464566Y275997D01*
X470080D01*
X475173Y278106D01*
X479071Y282005D01*
X480695Y285925D01*
X485006Y286551D01*
X485901Y286423D01*
X486315Y285426D01*
X490213Y281527D01*
X495306Y279417D01*
X500820D01*
X505913Y281527D01*
X509811Y285426D01*
X511921Y290519D01*
Y296032D01*
X509811Y301126D01*
X505913Y305024D01*
X500820Y307134D01*
X495306D01*
X490213Y305024D01*
X486315Y301126D01*
X484690Y297205D01*
X480380Y296579D01*
X479484Y296708D01*
X479071Y297705D01*
X475173Y301603D01*
X470080Y303713D01*
X464566D01*
X459473Y301603D01*
X458405Y301705D01*
X454116Y303318D01*
X452526Y307158D01*
X448627Y311056D01*
X443534Y313166D01*
D02*
G37*
G36*
X308662Y303713D02*
X303149D01*
X298055Y301603D01*
X294157Y297705D01*
X292047Y292611D01*
Y287098D01*
X294157Y282005D01*
X298055Y278106D01*
X303149Y275997D01*
X308662D01*
X313755Y278106D01*
X317654Y282005D01*
X319764Y287098D01*
Y292611D01*
X317654Y297705D01*
X313755Y301603D01*
X308662Y303713D01*
D02*
G37*
G36*
X147245D02*
X141732D01*
X136638Y301603D01*
X132740Y297705D01*
X130630Y292611D01*
Y287098D01*
X132740Y282005D01*
X136638Y278106D01*
X141732Y275997D01*
X147245D01*
X152338Y278106D01*
X156237Y282005D01*
X158346Y287098D01*
Y292611D01*
X156237Y297705D01*
X152338Y301603D01*
X147245Y303713D01*
D02*
G37*
G36*
X250788Y273701D02*
X245275D01*
X240181Y271591D01*
X239487Y270896D01*
X236220Y267753D01*
X232954Y270896D01*
X232259Y271591D01*
X227166Y273701D01*
X221653D01*
X216559Y271591D01*
X212661Y267692D01*
X210551Y262599D01*
Y257086D01*
X212661Y251993D01*
X213356Y251298D01*
X216499Y248031D01*
X213356Y244765D01*
X212661Y244071D01*
X210551Y238977D01*
Y233464D01*
X212661Y228370D01*
X216559Y224472D01*
X221653Y222362D01*
X227166D01*
X232259Y224472D01*
X232954Y225167D01*
X236220Y228310D01*
X239487Y225167D01*
X240181Y224472D01*
X245275Y222362D01*
X250788D01*
X255881Y224472D01*
X259780Y228370D01*
X261890Y233464D01*
Y238977D01*
X259780Y244071D01*
X259085Y244765D01*
X255942Y248031D01*
X259085Y251298D01*
X259780Y251993D01*
X261890Y257086D01*
Y262599D01*
X259780Y267692D01*
X255881Y271591D01*
X250788Y273701D01*
D02*
G37*
G36*
X89371Y270748D02*
X83857D01*
X78764Y268638D01*
X78069Y267944D01*
X74803Y264800D01*
X71537Y267944D01*
X70842Y268638D01*
X65749Y270748D01*
X60235D01*
X55142Y268638D01*
X51243Y264740D01*
X49134Y259646D01*
Y254133D01*
X51243Y249040D01*
X51938Y248345D01*
X55081Y245079D01*
X51938Y241812D01*
X51243Y241118D01*
X49134Y236024D01*
Y230511D01*
X51243Y225418D01*
X55142Y221519D01*
X60235Y219410D01*
X65749D01*
X70842Y221519D01*
X71537Y222214D01*
X74803Y225357D01*
X78069Y222214D01*
X78764Y221519D01*
X83857Y219410D01*
X89371D01*
X94464Y221519D01*
X98362Y225418D01*
X100472Y230511D01*
Y236024D01*
X98362Y241118D01*
X97668Y241812D01*
X94524Y245079D01*
X97668Y248345D01*
X98362Y249040D01*
X100472Y254133D01*
Y259646D01*
X98362Y264740D01*
X94464Y268638D01*
X89371Y270748D01*
D02*
G37*
G36*
X534253Y253405D02*
X528740D01*
X523646Y251296D01*
X520702Y248352D01*
X517716Y247784D01*
X514731Y248352D01*
X511787Y251296D01*
X506694Y253405D01*
X501180D01*
X496087Y251296D01*
X492189Y247397D01*
X490079Y242304D01*
Y236791D01*
X492189Y231697D01*
X496087Y227799D01*
X501180Y225689D01*
X506694D01*
X511787Y227799D01*
X514731Y230743D01*
X517717Y231311D01*
X520702Y230743D01*
X523646Y227799D01*
X528740Y225689D01*
X534253D01*
X539346Y227799D01*
X543245Y231697D01*
X545354Y236791D01*
Y242304D01*
X543245Y247397D01*
X539346Y251296D01*
X534253Y253405D01*
D02*
G37*
G36*
X664595Y264917D02*
X659082D01*
X653989Y262807D01*
X650090Y258909D01*
X647981Y253816D01*
Y248302D01*
X650090Y243209D01*
X653386Y239913D01*
X649669Y236196D01*
X647559Y231103D01*
Y225590D01*
X649669Y220496D01*
X653567Y216598D01*
X658661Y214488D01*
X664174D01*
X669267Y216598D01*
X673166Y220496D01*
X675275Y225590D01*
Y231103D01*
X673166Y236196D01*
X669870Y239492D01*
X673587Y243209D01*
X675697Y248302D01*
Y253816D01*
X673587Y258909D01*
X669689Y262807D01*
X664595Y264917D01*
D02*
G37*
G36*
X624804Y242205D02*
X619291D01*
X614197Y240095D01*
X610299Y236196D01*
X608189Y231103D01*
Y225590D01*
X610299Y220496D01*
X614197Y216598D01*
X619291Y214488D01*
X624804D01*
X629897Y216598D01*
X633796Y220496D01*
X635905Y225590D01*
Y231103D01*
X633796Y236196D01*
X629897Y240095D01*
X624804Y242205D01*
D02*
G37*
G36*
X742914Y221614D02*
X737401D01*
X732308Y219504D01*
X728409Y215606D01*
X726299Y210513D01*
Y204999D01*
X728409Y199906D01*
X732308Y196008D01*
X737401Y193898D01*
X742914D01*
X748008Y196008D01*
X751906Y199906D01*
X754016Y204999D01*
Y210513D01*
X751906Y215606D01*
X748008Y219504D01*
X742914Y221614D01*
D02*
G37*
G36*
X785316Y201929D02*
X779803D01*
X774709Y199819D01*
X770811Y195921D01*
X768701Y190827D01*
Y185314D01*
X770811Y180221D01*
X774709Y176322D01*
X779803Y174213D01*
X785316D01*
X790409Y176322D01*
X794308Y180221D01*
X796417Y185314D01*
Y190827D01*
X794308Y195921D01*
X790409Y199819D01*
X785316Y201929D01*
D02*
G37*
G36*
X518505Y214646D02*
X512991D01*
X507898Y212536D01*
X504000Y208637D01*
X501890Y203544D01*
Y198031D01*
X504000Y192937D01*
X504694Y192243D01*
X507838Y188976D01*
X504694Y185710D01*
X504000Y185015D01*
X501890Y179922D01*
Y174409D01*
X504000Y169315D01*
X507898Y165417D01*
X512991Y163307D01*
X518505D01*
X523598Y165417D01*
X527496Y169315D01*
X529606Y174409D01*
Y179922D01*
X527496Y185015D01*
X526802Y185710D01*
X523658Y188976D01*
X526802Y192243D01*
X527496Y192937D01*
X529606Y198031D01*
Y203544D01*
X527496Y208637D01*
X523598Y212536D01*
X518505Y214646D01*
D02*
G37*
G36*
X282284Y187087D02*
X276771D01*
X271678Y184977D01*
X267779Y181078D01*
X265669Y175985D01*
Y170472D01*
X267779Y165378D01*
X271678Y161480D01*
X276771Y159370D01*
X282284D01*
X287378Y161480D01*
X291276Y165378D01*
X293386Y170472D01*
Y175985D01*
X291276Y181078D01*
X287378Y184977D01*
X282284Y187087D01*
D02*
G37*
G36*
X120867D02*
X115354D01*
X110260Y184977D01*
X106362Y181078D01*
X104252Y175985D01*
Y170472D01*
X106362Y165378D01*
X110260Y161480D01*
X115354Y159370D01*
X120867D01*
X125960Y161480D01*
X129859Y165378D01*
X131968Y170472D01*
Y175985D01*
X129859Y181078D01*
X125960Y184977D01*
X120867Y187087D01*
D02*
G37*
G36*
X353150Y181693D02*
X347637D01*
X342544Y179583D01*
X338645Y175685D01*
X336536Y170591D01*
Y165078D01*
X338645Y159985D01*
X342544Y156086D01*
X347637Y153977D01*
X353150D01*
X358244Y156086D01*
X362142Y159985D01*
X364252Y165078D01*
Y170591D01*
X362142Y175685D01*
X358244Y179583D01*
X353150Y181693D01*
D02*
G37*
G36*
X691733Y175472D02*
X686220D01*
X681126Y173363D01*
X677228Y169464D01*
X675118Y164371D01*
Y158858D01*
X677228Y153764D01*
X681126Y149866D01*
X686220Y147756D01*
X691733D01*
X696826Y149866D01*
X698058Y151097D01*
X700855Y150028D01*
X702677Y148645D01*
Y143818D01*
X704787Y138725D01*
X708685Y134826D01*
X713779Y132717D01*
X719292D01*
X724385Y134826D01*
X728284Y138725D01*
X730394Y143818D01*
Y149331D01*
X728284Y154425D01*
X724385Y158323D01*
X719292Y160433D01*
X713779D01*
X708685Y158323D01*
X707454Y157092D01*
X704656Y158161D01*
X702835Y159543D01*
Y164371D01*
X700725Y169464D01*
X696826Y173363D01*
X691733Y175472D01*
D02*
G37*
G36*
X597245Y155590D02*
X591732D01*
X586638Y153481D01*
X582740Y149582D01*
X580630Y144489D01*
Y138976D01*
X582740Y133882D01*
X586638Y129984D01*
X591732Y127874D01*
X597245D01*
X602338Y129984D01*
X606237Y133882D01*
X608346Y138976D01*
Y144489D01*
X606237Y149582D01*
X602338Y153481D01*
X597245Y155590D01*
D02*
G37*
G36*
X502757Y116220D02*
X497243D01*
X492150Y114111D01*
X488252Y110212D01*
X486142Y105119D01*
Y99606D01*
X488252Y94512D01*
X492150Y90614D01*
X497243Y88504D01*
X502757D01*
X507850Y90614D01*
X511748Y94512D01*
X513858Y99606D01*
Y105119D01*
X511748Y110212D01*
X507850Y114111D01*
X502757Y116220D01*
D02*
G37*
G36*
X675985Y106772D02*
X670472D01*
X665378Y104662D01*
X661480Y100763D01*
X659370Y95670D01*
Y90157D01*
X661480Y85064D01*
X665378Y81165D01*
X670472Y79055D01*
X675985D01*
X681078Y81165D01*
X684977Y85064D01*
X687086Y90157D01*
Y95670D01*
X684977Y100763D01*
X681078Y104662D01*
X675985Y106772D01*
D02*
G37*
G36*
X477441Y138858D02*
X349331D01*
Y10748D01*
X477441D01*
Y138858D01*
D02*
G37*
G36*
X316024D02*
X187913D01*
Y10748D01*
X316024D01*
Y138858D01*
D02*
G37*
G36*
X154606D02*
X26496D01*
Y10748D01*
X154606D01*
Y138858D01*
D02*
G37*
%LPD*%
D14*
X413386Y74803D02*
D03*
X251969D02*
D03*
X90551D02*
D03*
D40*
X448819Y759842D02*
D03*
X812914Y700787D02*
D03*
X807087Y842520D02*
D03*
X551181Y1251968D02*
D03*
X556102Y1216535D02*
D03*
X153543Y1078661D02*
D03*
X697914Y778228D02*
D03*
X194591Y825983D02*
D03*
X338583Y818898D02*
D03*
X429957Y1150458D02*
D03*
X78740Y751968D02*
D03*
Y921260D02*
D03*
X62501Y976048D02*
D03*
X70866Y1003937D02*
D03*
X107126Y933071D02*
D03*
X594488Y141732D02*
D03*
X782559Y188071D02*
D03*
X94488Y1027559D02*
D03*
X118110Y1251968D02*
D03*
X161417Y1322835D02*
D03*
X156875Y1294990D02*
D03*
X193740Y1326772D02*
D03*
X301855Y1154154D02*
D03*
X376969Y1255906D02*
D03*
X413386Y1125984D02*
D03*
X368898Y1188622D02*
D03*
X397323Y1142047D02*
D03*
X466535Y1146653D02*
D03*
X492126Y1279528D02*
D03*
X78740Y1255906D02*
D03*
Y1232284D02*
D03*
X27559Y1311024D02*
D03*
X51181D02*
D03*
X27559Y1283465D02*
D03*
X51181D02*
D03*
X27559Y1255906D02*
D03*
X51181D02*
D03*
X27559Y1228347D02*
D03*
X51181D02*
D03*
Y1122047D02*
D03*
X27559D02*
D03*
Y1145669D02*
D03*
X51181D02*
D03*
Y1173228D02*
D03*
X27559D02*
D03*
X51181Y1200787D02*
D03*
X27559D02*
D03*
X527559Y1287402D02*
D03*
X590551Y1118110D02*
D03*
X559055D02*
D03*
X590551Y1437008D02*
D03*
X496063Y1106299D02*
D03*
X505921Y1077750D02*
D03*
X507874Y1055118D02*
D03*
X440507Y1114611D02*
D03*
X465005Y1090113D02*
D03*
X763779Y582677D02*
D03*
X803150Y586614D02*
D03*
X755905Y665354D02*
D03*
X716535Y901575D02*
D03*
X669291Y834646D02*
D03*
X644488Y863386D02*
D03*
X493827Y752579D02*
D03*
X100787Y1078740D02*
D03*
X555118Y881890D02*
D03*
X339193Y672724D02*
D03*
X269929Y671504D02*
D03*
X165354Y664744D02*
D03*
X94488Y728346D02*
D03*
X492126Y669291D02*
D03*
X118110Y716535D02*
D03*
X86614Y850392D02*
D03*
X74803Y874016D02*
D03*
X464567Y1425197D02*
D03*
Y1342520D02*
D03*
Y1397638D02*
D03*
Y1370079D02*
D03*
X472003Y775153D02*
D03*
X493091Y797098D02*
D03*
X503937Y830709D02*
D03*
X94488Y997588D02*
D03*
X696849Y732282D02*
D03*
X620689Y732284D02*
D03*
X587201D02*
D03*
Y708661D02*
D03*
X558071Y614173D02*
D03*
X783472Y224401D02*
D03*
X121885Y1030886D02*
D03*
X803150Y318898D02*
D03*
Y374016D02*
D03*
Y429134D02*
D03*
Y484252D02*
D03*
X409449Y1299213D02*
D03*
X374016Y1397638D02*
D03*
X346457D02*
D03*
X374016Y1370079D02*
D03*
X346457Y1342520D02*
D03*
X374016D02*
D03*
X346457Y1425197D02*
D03*
X374016D02*
D03*
X346457Y1370079D02*
D03*
X169291Y1208661D02*
D03*
X161417Y1122047D02*
D03*
X137795Y1196850D02*
D03*
X161417Y1169291D02*
D03*
X137795Y1141732D02*
D03*
X712598Y279528D02*
D03*
X685039D02*
D03*
X657480D02*
D03*
X716535Y444882D02*
D03*
X673228D02*
D03*
Y413386D02*
D03*
X716535D02*
D03*
X282336Y1323976D02*
D03*
X309778Y1325984D02*
D03*
X488189Y1425197D02*
D03*
Y1342520D02*
D03*
Y1370079D02*
D03*
Y1397638D02*
D03*
X657480Y1267716D02*
D03*
X681102Y1236220D02*
D03*
Y1267716D02*
D03*
X657480Y1236220D02*
D03*
X360248Y1269075D02*
D03*
X405591Y1324724D02*
D03*
X629921Y132874D02*
D03*
X799212D02*
D03*
X586205Y378032D02*
D03*
X676968Y940945D02*
D03*
X713209Y968504D02*
D03*
X676968D02*
D03*
X732284Y1252953D02*
D03*
X791339Y1282480D02*
D03*
X763779Y1303150D02*
D03*
X712598Y1299213D02*
D03*
X688976Y1314961D02*
D03*
X795276Y1318898D02*
D03*
X736221D02*
D03*
X503937Y239547D02*
D03*
X531496D02*
D03*
X675659Y1072860D02*
D03*
X608661Y822835D02*
D03*
X523622Y409370D02*
D03*
X610236Y491142D02*
D03*
X570866D02*
D03*
X531496D02*
D03*
X350394Y167835D02*
D03*
X614173Y1011811D02*
D03*
X677165Y1039370D02*
D03*
X674803Y1000000D02*
D03*
X659842Y1197638D02*
D03*
X732282Y1118108D02*
D03*
X740158Y207756D02*
D03*
X228346Y1409449D02*
D03*
X188976Y1448819D02*
D03*
X188976Y1370079D02*
D03*
X267716Y1370079D02*
D03*
X267717Y1448819D02*
D03*
X188976Y1409449D02*
D03*
X228346Y1370079D02*
D03*
X267716Y1409449D02*
D03*
X228346Y1448819D02*
D03*
X66929D02*
D03*
X106299Y1409449D02*
D03*
X66929Y1370079D02*
D03*
X27559Y1409449D02*
D03*
X106299Y1448819D02*
D03*
X106299Y1370079D02*
D03*
X27559Y1370079D02*
D03*
X27559Y1448819D02*
D03*
X66929Y1409449D02*
D03*
X413386Y74803D02*
D03*
X377953Y110236D02*
D03*
Y39370D02*
D03*
X448819D02*
D03*
Y110236D02*
D03*
X377953Y74803D02*
D03*
X413386Y39370D02*
D03*
X448819Y74803D02*
D03*
X413386Y110236D02*
D03*
X498063Y293276D02*
D03*
X440777Y299308D02*
D03*
X505661Y132134D02*
D03*
X673228Y127559D02*
D03*
Y92913D02*
D03*
X500000Y102362D02*
D03*
X716535Y146575D02*
D03*
X688976Y161614D02*
D03*
X279528Y173228D02*
D03*
X118110D02*
D03*
X515748Y200787D02*
D03*
Y177165D02*
D03*
X661417Y228346D02*
D03*
X622047D02*
D03*
X661839Y251059D02*
D03*
X224409Y259842D02*
D03*
Y236220D02*
D03*
X248031D02*
D03*
Y259842D02*
D03*
X62992Y256890D02*
D03*
Y233268D02*
D03*
X86614D02*
D03*
Y256890D02*
D03*
X251969Y74803D02*
D03*
X216535Y110236D02*
D03*
Y39370D02*
D03*
X287402D02*
D03*
Y110236D02*
D03*
X216535Y74803D02*
D03*
X251969Y39370D02*
D03*
X287402Y74803D02*
D03*
X251969Y110236D02*
D03*
X90551D02*
D03*
X125984Y74803D02*
D03*
X90551Y39370D02*
D03*
X55118Y74803D02*
D03*
X125984Y110236D02*
D03*
Y39370D02*
D03*
X55118D02*
D03*
Y110236D02*
D03*
X90551Y74803D02*
D03*
X37795Y299213D02*
D03*
X310547Y1009187D02*
D03*
X390601Y930924D02*
D03*
X312337Y850870D02*
D03*
X232284Y929134D02*
D03*
X311442Y930029D02*
D03*
X168767Y762857D02*
D03*
X144269Y787355D02*
D03*
X548768Y1006447D02*
D03*
X524270Y1030945D02*
D03*
X167201Y377733D02*
D03*
X329216Y377419D02*
D03*
X20943Y544662D02*
D03*
X382606Y399964D02*
D03*
X220466Y399464D02*
D03*
X51181Y688976D02*
D03*
X476457Y499803D02*
D03*
X315039D02*
D03*
X153622D02*
D03*
X147126Y430236D02*
D03*
X475086Y452367D02*
D03*
X313669D02*
D03*
X150919Y452634D02*
D03*
X343346Y401575D02*
D03*
X19685Y496063D02*
D03*
Y444882D02*
D03*
X20512Y397638D02*
D03*
X181102Y401575D02*
D03*
X59055Y397638D02*
D03*
X720472Y524606D02*
D03*
X562992D02*
D03*
X641732D02*
D03*
X731299Y614173D02*
D03*
X686024D02*
D03*
X644685D02*
D03*
X342441Y641732D02*
D03*
X181024D02*
D03*
X437008Y606299D02*
D03*
X413386D02*
D03*
X389764D02*
D03*
X366142D02*
D03*
X469961Y430236D02*
D03*
X476457Y522520D02*
D03*
X308543Y430236D02*
D03*
X315039Y522520D02*
D03*
X153622D02*
D03*
X78740Y665354D02*
D03*
X244094D02*
D03*
X55118D02*
D03*
X377953D02*
D03*
X401575D02*
D03*
X216535D02*
D03*
X549091Y856788D02*
D03*
X204724Y606299D02*
D03*
X228346D02*
D03*
X251969D02*
D03*
X275591D02*
D03*
X114173D02*
D03*
X90551D02*
D03*
X66929D02*
D03*
X43307D02*
D03*
X523524Y846292D02*
D03*
X555118Y925197D02*
D03*
X360630Y299213D02*
D03*
X199213D02*
D03*
X144488Y322835D02*
D03*
X467323Y289855D02*
D03*
Y322835D02*
D03*
X305906Y289855D02*
D03*
Y322835D02*
D03*
X144488Y289855D02*
D03*
X467323Y238189D02*
D03*
Y206693D02*
D03*
X472063Y176458D02*
D03*
X305906Y238189D02*
D03*
Y206693D02*
D03*
X310646Y176458D02*
D03*
X149229D02*
D03*
X144488Y206693D02*
D03*
Y238189D02*
D03*
%TF.MD5,8702ab05a450078adb3d7eabb9fbc9fb*%
M02*
