%TF.GenerationSoftware,Altium Limited,Altium Designer,24.6.1 (21)*%
G04 Layer_Color=8421504*
%FSLAX26Y26*%
%MOIN*%
%TF.SameCoordinates,E3325630-42F2-41CE-953C-F4D0AC061200*%
%TF.FilePolarity,Positive*%
%TF.FileFunction,Paste,Top*%
%TF.Part,Single*%
G01*
G75*
%TA.AperFunction,SMDPad,CuDef*%
%ADD10R,0.062992X0.153543*%
%ADD11R,0.029528X0.023622*%
%ADD12R,0.031496X0.031496*%
%ADD13R,0.023622X0.025197*%
%ADD14R,0.118110X0.118110*%
%ADD15R,0.025197X0.023622*%
%ADD16R,0.023622X0.029528*%
G04:AMPARAMS|DCode=17|XSize=25.197mil|YSize=23.622mil|CornerRadius=0mil|HoleSize=0mil|Usage=FLASHONLY|Rotation=225.000|XOffset=0mil|YOffset=0mil|HoleType=Round|Shape=Rectangle|*
%AMROTATEDRECTD17*
4,1,4,0.000557,0.017260,0.017260,0.000557,-0.000557,-0.017260,-0.017260,-0.000557,0.000557,0.017260,0.0*
%
%ADD17ROTATEDRECTD17*%

G04:AMPARAMS|DCode=18|XSize=49.213mil|YSize=118.11mil|CornerRadius=12.303mil|HoleSize=0mil|Usage=FLASHONLY|Rotation=0.000|XOffset=0mil|YOffset=0mil|HoleType=Round|Shape=RoundedRectangle|*
%AMROUNDEDRECTD18*
21,1,0.049213,0.093504,0,0,0.0*
21,1,0.024606,0.118110,0,0,0.0*
1,1,0.024606,0.012303,-0.046752*
1,1,0.024606,-0.012303,-0.046752*
1,1,0.024606,-0.012303,0.046752*
1,1,0.024606,0.012303,0.046752*
%
%ADD18ROUNDEDRECTD18*%
G04:AMPARAMS|DCode=19|XSize=25.197mil|YSize=23.622mil|CornerRadius=0mil|HoleSize=0mil|Usage=FLASHONLY|Rotation=135.000|XOffset=0mil|YOffset=0mil|HoleType=Round|Shape=Rectangle|*
%AMROTATEDRECTD19*
4,1,4,0.017260,-0.000557,0.000557,-0.017260,-0.017260,0.000557,-0.000557,0.017260,0.017260,-0.000557,0.0*
%
%ADD19ROTATEDRECTD19*%

%ADD20P,0.334066X4X180.0*%
G04:AMPARAMS|DCode=21|XSize=33.858mil|YSize=10.236mil|CornerRadius=0mil|HoleSize=0mil|Usage=FLASHONLY|Rotation=135.000|XOffset=0mil|YOffset=0mil|HoleType=Round|Shape=Rectangle|*
%AMROTATEDRECTD21*
4,1,4,0.015590,-0.008352,0.008352,-0.015590,-0.015590,0.008352,-0.008352,0.015590,0.015590,-0.008352,0.0*
%
%ADD21ROTATEDRECTD21*%

G04:AMPARAMS|DCode=22|XSize=10.236mil|YSize=33.858mil|CornerRadius=0mil|HoleSize=0mil|Usage=FLASHONLY|Rotation=135.000|XOffset=0mil|YOffset=0mil|HoleType=Round|Shape=Rectangle|*
%AMROTATEDRECTD22*
4,1,4,0.015590,0.008352,-0.008352,-0.015590,-0.015590,-0.008352,0.008352,0.015590,0.015590,0.008352,0.0*
%
%ADD22ROTATEDRECTD22*%

G04:AMPARAMS|DCode=23|XSize=59.055mil|YSize=39.37mil|CornerRadius=9.842mil|HoleSize=0mil|Usage=FLASHONLY|Rotation=0.000|XOffset=0mil|YOffset=0mil|HoleType=Round|Shape=RoundedRectangle|*
%AMROUNDEDRECTD23*
21,1,0.059055,0.019685,0,0,0.0*
21,1,0.039370,0.039370,0,0,0.0*
1,1,0.019685,0.019685,-0.009843*
1,1,0.019685,-0.019685,-0.009843*
1,1,0.019685,-0.019685,0.009843*
1,1,0.019685,0.019685,0.009843*
%
%ADD23ROUNDEDRECTD23*%
%ADD24R,0.051181X0.106299*%
G04:AMPARAMS|DCode=26|XSize=23.622mil|YSize=9.842mil|CornerRadius=1.23mil|HoleSize=0mil|Usage=FLASHONLY|Rotation=180.000|XOffset=0mil|YOffset=0mil|HoleType=Round|Shape=RoundedRectangle|*
%AMROUNDEDRECTD26*
21,1,0.023622,0.007382,0,0,180.0*
21,1,0.021161,0.009842,0,0,180.0*
1,1,0.002461,-0.010581,0.003691*
1,1,0.002461,0.010581,0.003691*
1,1,0.002461,0.010581,-0.003691*
1,1,0.002461,-0.010581,-0.003691*
%
%ADD26ROUNDEDRECTD26*%
%TA.AperFunction,ConnectorPad*%
%ADD27R,0.062992X0.153543*%
%ADD28R,0.023622X0.061024*%
%ADD29R,0.047244X0.070866*%
%TA.AperFunction,SMDPad,CuDef*%
%ADD30R,0.013386X0.031496*%
%ADD31R,0.016535X0.025984*%
%ADD32R,0.106299X0.051181*%
%ADD33R,0.025984X0.016535*%
%ADD34R,0.031496X0.013386*%
G04:AMPARAMS|DCode=35|XSize=23.622mil|YSize=29.528mil|CornerRadius=0mil|HoleSize=0mil|Usage=FLASHONLY|Rotation=315.000|XOffset=0mil|YOffset=0mil|HoleType=Round|Shape=Rectangle|*
%AMROTATEDRECTD35*
4,1,4,-0.018791,-0.002088,0.002088,0.018791,0.018791,0.002088,-0.002088,-0.018791,-0.018791,-0.002088,0.0*
%
%ADD35ROTATEDRECTD35*%

%TA.AperFunction,ConnectorPad*%
%ADD36R,0.061024X0.023622*%
%ADD37R,0.070866X0.047244*%
G36*
X364336Y1013545D02*
X311442Y960652D01*
X258548Y1013545D01*
X311442Y1066439D01*
X364336Y1013545D01*
D02*
G37*
G36*
X447852Y930029D02*
X394959Y877135D01*
X342065Y930029D01*
X394959Y982923D01*
X447852Y930029D01*
D02*
G37*
G36*
X280820D02*
X227925Y877135D01*
X175032Y930029D01*
X227925Y982923D01*
X280820Y930029D01*
D02*
G37*
G36*
X364336Y846512D02*
X311442Y793619D01*
X258548Y846512D01*
X311442Y899406D01*
X364336Y846512D01*
D02*
G37*
G36*
X456102Y406299D02*
X477559D01*
Y383858D01*
X456102D01*
Y376772D01*
X362795D01*
Y383858D01*
X341339D01*
Y406299D01*
X362795D01*
Y467323D01*
X379331D01*
Y448819D01*
X388386D01*
Y467323D01*
X404921D01*
Y448819D01*
X413976D01*
Y467323D01*
X430512D01*
Y448819D01*
X439567D01*
Y467323D01*
X456102D01*
Y406299D01*
D02*
G37*
G36*
X294685D02*
X316142D01*
Y383858D01*
X294685D01*
Y376772D01*
X201378D01*
Y383858D01*
X179921D01*
Y406299D01*
X201378D01*
Y467323D01*
X217913D01*
Y448819D01*
X226969D01*
Y467323D01*
X243504D01*
Y448819D01*
X252559D01*
Y467323D01*
X269094D01*
Y448819D01*
X278150D01*
Y467323D01*
X294685D01*
Y406299D01*
D02*
G37*
G36*
X133268D02*
X154725D01*
Y383858D01*
X133268D01*
Y376772D01*
X39961D01*
Y383858D01*
X18504D01*
Y406299D01*
X39961D01*
Y467323D01*
X56496D01*
Y448819D01*
X65551D01*
Y467323D01*
X82087D01*
Y448819D01*
X91142D01*
Y467323D01*
X107677D01*
Y448819D01*
X116733D01*
Y467323D01*
X133268D01*
Y406299D01*
D02*
G37*
G36*
X422048Y275000D02*
X429134D01*
Y181693D01*
X422048D01*
Y160236D01*
X399607D01*
Y181693D01*
X338583D01*
Y198228D01*
X357087D01*
Y207284D01*
X338583D01*
Y223819D01*
X357087D01*
Y232874D01*
X338583D01*
Y249410D01*
X357087D01*
Y258465D01*
X338583D01*
Y275000D01*
X399607D01*
Y296457D01*
X422048D01*
Y275000D01*
D02*
G37*
G36*
X260630D02*
X267717D01*
Y181693D01*
X260630D01*
Y160236D01*
X238189D01*
Y181693D01*
X177166D01*
Y198228D01*
X195669D01*
Y207284D01*
X177166D01*
Y223819D01*
X195669D01*
Y232874D01*
X177166D01*
Y249410D01*
X195669D01*
Y258465D01*
X177166D01*
Y275000D01*
X238189D01*
Y296457D01*
X260630D01*
Y275000D01*
D02*
G37*
G36*
X99213D02*
X106299D01*
Y181693D01*
X99213D01*
Y160236D01*
X76772D01*
Y181693D01*
X15748D01*
Y198228D01*
X34252D01*
Y207284D01*
X15748D01*
Y223819D01*
X34252D01*
Y232874D01*
X15748D01*
Y249410D01*
X34252D01*
Y258465D01*
X15748D01*
Y275000D01*
X76772D01*
Y296457D01*
X99213D01*
Y275000D01*
D02*
G37*
D10*
X511811Y1381890D02*
D03*
D11*
X556102Y1216535D02*
D03*
X601378D02*
D03*
X89567Y807087D02*
D03*
X44291D02*
D03*
X510827Y1145669D02*
D03*
X465551D02*
D03*
X654528Y1204724D02*
D03*
X699803D02*
D03*
X229331Y1192913D02*
D03*
X274606D02*
D03*
X376969Y1255906D02*
D03*
X331693D02*
D03*
X422244Y1224409D02*
D03*
X467520D02*
D03*
Y1185040D02*
D03*
X422244D02*
D03*
X558071Y614173D02*
D03*
X512795D02*
D03*
X599409D02*
D03*
X644685D02*
D03*
X731299D02*
D03*
X686024D02*
D03*
D12*
X41339Y759842D02*
D03*
X100394D02*
D03*
X604331Y1263779D02*
D03*
X545275D02*
D03*
D13*
X92913Y1279528D02*
D03*
X127559D02*
D03*
X462205Y1263780D02*
D03*
X427559D02*
D03*
X359843Y1216535D02*
D03*
X325197D02*
D03*
X611811Y854331D02*
D03*
X577165D02*
D03*
X135433Y1078740D02*
D03*
X100787D02*
D03*
D14*
X66929Y1409449D02*
D03*
X228346D02*
D03*
D15*
X551181Y1182677D02*
D03*
Y1148032D02*
D03*
D16*
X511811Y1186024D02*
D03*
Y1231299D02*
D03*
X562992Y524606D02*
D03*
Y569882D02*
D03*
X641732D02*
D03*
Y524606D02*
D03*
X720472Y569882D02*
D03*
Y524606D02*
D03*
X523622D02*
D03*
Y569882D02*
D03*
X602362Y524606D02*
D03*
Y569882D02*
D03*
X681102Y524606D02*
D03*
Y569882D02*
D03*
D17*
X465005Y1090113D02*
D03*
X440507Y1114611D02*
D03*
X168767Y762857D02*
D03*
X144269Y787355D02*
D03*
X548768Y1006447D02*
D03*
X524270Y1030945D02*
D03*
D18*
X783465Y1397638D02*
D03*
X641732D02*
D03*
X712598D02*
D03*
D19*
X472003Y775153D02*
D03*
X496501Y799651D02*
D03*
D20*
X311442Y930029D02*
D03*
D21*
X83581Y949098D02*
D03*
X97500Y963018D02*
D03*
X111420Y976937D02*
D03*
X125339Y990857D02*
D03*
X139259Y1004776D02*
D03*
X153178Y1018696D02*
D03*
X167098Y1032615D02*
D03*
X181017Y1046534D02*
D03*
X194936Y1060454D02*
D03*
X208856Y1074373D02*
D03*
X222775Y1088293D02*
D03*
X236695Y1102212D02*
D03*
X250614Y1116132D02*
D03*
X264534Y1130051D02*
D03*
X278453Y1143970D02*
D03*
X292372Y1157890D02*
D03*
X525384Y897040D02*
D03*
X511464Y883120D02*
D03*
X497545Y869201D02*
D03*
X483625Y855282D02*
D03*
X469706Y841362D02*
D03*
X455786Y827443D02*
D03*
X441867Y813523D02*
D03*
X427948Y799604D02*
D03*
X414028Y785684D02*
D03*
X400109Y771765D02*
D03*
X386189Y757846D02*
D03*
X372270Y743926D02*
D03*
X358351Y730007D02*
D03*
X344431Y716087D02*
D03*
X330512Y702168D02*
D03*
X539303Y910959D02*
D03*
D22*
X292372Y702168D02*
D03*
X278453Y716087D02*
D03*
X264534Y730007D02*
D03*
X250614Y743926D02*
D03*
X236695Y757846D02*
D03*
X222775Y771765D02*
D03*
X208856Y785684D02*
D03*
X194936Y799604D02*
D03*
X181017Y813523D02*
D03*
X167098Y827443D02*
D03*
X153178Y841362D02*
D03*
X139259Y855282D02*
D03*
X125339Y869201D02*
D03*
X111420Y883120D02*
D03*
X97500Y897040D02*
D03*
X83581Y910959D02*
D03*
X330512Y1157890D02*
D03*
X344431Y1143970D02*
D03*
X358351Y1130051D02*
D03*
X372270Y1116132D02*
D03*
X386189Y1102212D02*
D03*
X414028Y1074373D02*
D03*
X427948Y1060454D02*
D03*
X441867Y1046534D02*
D03*
X455786Y1032615D02*
D03*
X469706Y1018696D02*
D03*
X483625Y1004776D02*
D03*
X497545Y990857D02*
D03*
X511464Y976937D02*
D03*
X525384Y963018D02*
D03*
X539303Y949098D02*
D03*
X400109Y1088293D02*
D03*
D23*
X783465Y263779D02*
D03*
Y318897D02*
D03*
Y374016D02*
D03*
Y429134D02*
D03*
Y484252D02*
D03*
D24*
X149606Y1161417D02*
D03*
X39370D02*
D03*
D26*
X181102Y1246063D02*
D03*
Y1265748D02*
D03*
Y1285433D02*
D03*
Y1305118D02*
D03*
X291339D02*
D03*
Y1285433D02*
D03*
Y1265748D02*
D03*
Y1246063D02*
D03*
D27*
X360236Y1381890D02*
D03*
X474409D02*
D03*
D28*
X582677Y205984D02*
D03*
X661417D02*
D03*
X700787D02*
D03*
X740157D02*
D03*
X622047D02*
D03*
D29*
X531496Y53425D02*
D03*
X791338D02*
D03*
D30*
X125001Y447639D02*
D03*
X99411D02*
D03*
X73819D02*
D03*
X48229D02*
D03*
X209646D02*
D03*
X235236D02*
D03*
X260828D02*
D03*
X286418D02*
D03*
X371063D02*
D03*
X396653D02*
D03*
X422245D02*
D03*
X447835D02*
D03*
D31*
X99410Y338583D02*
D03*
X73819D02*
D03*
X125000D02*
D03*
X48229D02*
D03*
X209646D02*
D03*
X286417D02*
D03*
X235236D02*
D03*
X260827D02*
D03*
X371063D02*
D03*
X447835D02*
D03*
X396654D02*
D03*
X422244D02*
D03*
D32*
X673228Y338583D02*
D03*
Y448819D02*
D03*
X86614Y622047D02*
D03*
Y511811D02*
D03*
X543307Y338583D02*
D03*
Y448819D02*
D03*
X409449Y622047D02*
D03*
Y511811D02*
D03*
X248031Y622047D02*
D03*
Y511811D02*
D03*
D33*
X144488Y215551D02*
D03*
X305906Y189961D02*
D03*
Y266732D02*
D03*
Y215551D02*
D03*
Y241142D02*
D03*
X144488Y189961D02*
D03*
X144488Y266732D02*
D03*
X144488Y241142D02*
D03*
X467323Y189961D02*
D03*
Y266732D02*
D03*
Y215551D02*
D03*
Y241142D02*
D03*
D34*
X196850Y189961D02*
D03*
Y215551D02*
D03*
Y241143D02*
D03*
Y266733D02*
D03*
X35432Y189961D02*
D03*
Y215551D02*
D03*
Y241143D02*
D03*
Y266733D02*
D03*
X358267Y189961D02*
D03*
Y215551D02*
D03*
Y241143D02*
D03*
Y266733D02*
D03*
D35*
X551440Y799472D02*
D03*
X519426Y767457D02*
D03*
D36*
X632598Y972441D02*
D03*
Y1090551D02*
D03*
Y1051181D02*
D03*
Y1011811D02*
D03*
Y933071D02*
D03*
D37*
X785158Y1141732D02*
D03*
Y881890D02*
D03*
%TF.MD5,26995d36ad0e38e353ef5398fc9d2a02*%
M02*
