G04*
G04 #@! TF.GenerationSoftware,Altium Limited,Altium Designer,21.6.4 (81)*
G04*
G04 Layer_Physical_Order=1*
G04 Layer_Color=255*
%FSLAX25Y25*%
%MOIN*%
G70*
G04*
G04 #@! TF.SameCoordinates,39ED8DF4-1AB1-48CE-A144-1D3AFD55C284*
G04*
G04*
G04 #@! TF.FilePolarity,Positive*
G04*
G01*
G75*
%ADD11C,0.01000*%
%ADD16R,0.01772X0.02165*%
%ADD17R,0.01181X0.03150*%
%ADD18R,0.01181X0.02165*%
%ADD19R,0.02165X0.01772*%
%ADD20C,0.01575*%
G36*
X589532Y3854D02*
X589239D01*
X589189Y3864D01*
Y4740D01*
X585417D01*
Y575D01*
X587288D01*
Y83D01*
X589532D01*
Y0D01*
X1020D01*
Y83D01*
X3264D01*
Y575D01*
X5134D01*
Y4740D01*
X1362D01*
Y3854D01*
X1020D01*
Y6854D01*
X589532D01*
Y3854D01*
D02*
G37*
G36*
X585417Y-4740D02*
X589189D01*
X589532Y-5098D01*
Y-6854D01*
X1020D01*
Y-5098D01*
X1362Y-4740D01*
X5134D01*
Y-1020D01*
X6677D01*
Y-4740D01*
X12955D01*
Y-1020D01*
X14498D01*
Y-4740D01*
X20776D01*
Y-1020D01*
X22319D01*
Y-4740D01*
X28596D01*
Y-1020D01*
X30139D01*
Y-4740D01*
X36417D01*
Y-1020D01*
X37960D01*
Y-4740D01*
X44238D01*
Y-1020D01*
X45781D01*
Y-4740D01*
X52059D01*
Y-1020D01*
X53602D01*
Y-4740D01*
X59879D01*
Y-1020D01*
X61423D01*
Y-4740D01*
X67700D01*
Y-1020D01*
X69244D01*
Y-4740D01*
X75521D01*
Y-1020D01*
X77065D01*
Y-4740D01*
X83342D01*
Y-1020D01*
X84885D01*
Y-4740D01*
X91163D01*
Y-1020D01*
X92706D01*
Y-4740D01*
X98984D01*
Y-1020D01*
X100527D01*
Y-4740D01*
X106804D01*
Y-1020D01*
X108348D01*
Y-4740D01*
X114625D01*
Y-1020D01*
X116168D01*
Y-4740D01*
X122446D01*
Y-1020D01*
X123989D01*
Y-4740D01*
X130267D01*
Y-1020D01*
X131810D01*
Y-4740D01*
X138088D01*
Y-1020D01*
X139631D01*
Y-4740D01*
X145908D01*
Y-1020D01*
X147452D01*
Y-4740D01*
X153729D01*
Y-1020D01*
X155272D01*
Y-4740D01*
X161550D01*
Y-1020D01*
X163093D01*
Y-4740D01*
X169371D01*
Y-1020D01*
X170914D01*
Y-4740D01*
X177192D01*
Y-1020D01*
X178735D01*
Y-4740D01*
X185013D01*
Y-1020D01*
X186556D01*
Y-4740D01*
X192833D01*
Y-1020D01*
X194377D01*
Y-4740D01*
X200654D01*
Y-1020D01*
X202198D01*
Y-4740D01*
X208475D01*
Y-1020D01*
X210018D01*
Y-4740D01*
X216296D01*
Y-1020D01*
X217839D01*
Y-4740D01*
X224117D01*
Y-1020D01*
X225660D01*
Y-4740D01*
X231937D01*
Y-1020D01*
X233481D01*
Y-4740D01*
X239758D01*
Y-1020D01*
X241301D01*
Y-4740D01*
X247579D01*
Y-1020D01*
X249122D01*
Y-4740D01*
X255400D01*
Y-1020D01*
X256943D01*
Y-4740D01*
X263221D01*
Y-1020D01*
X264764D01*
Y-4740D01*
X271041D01*
Y-1020D01*
X272585D01*
Y-4740D01*
X278862D01*
Y-1020D01*
X280405D01*
Y-4740D01*
X286683D01*
Y-1020D01*
X288226D01*
Y-4740D01*
X294504D01*
Y-1020D01*
X296047D01*
Y-4740D01*
X302325D01*
Y-1020D01*
X303868D01*
Y-4740D01*
X310145D01*
Y-1020D01*
X311689D01*
Y-4740D01*
X317966D01*
Y-1020D01*
X319510D01*
Y-4740D01*
X325787D01*
Y-1020D01*
X327330D01*
Y-4740D01*
X333608D01*
Y-1020D01*
X335151D01*
Y-4740D01*
X341429D01*
Y-1020D01*
X342972D01*
Y-4740D01*
X349250D01*
Y-1020D01*
X350793D01*
Y-4740D01*
X357070D01*
Y-1020D01*
X358614D01*
Y-4740D01*
X364891D01*
Y-1020D01*
X366435D01*
Y-4740D01*
X372712D01*
Y-1020D01*
X374255D01*
Y-4740D01*
X380533D01*
Y-1020D01*
X382076D01*
Y-4740D01*
X388353D01*
Y-1020D01*
X389897D01*
Y-4740D01*
X396174D01*
Y-1020D01*
X397718D01*
Y-4740D01*
X403995D01*
Y-1020D01*
X405539D01*
Y-4740D01*
X411816D01*
Y-1020D01*
X413359D01*
Y-4740D01*
X419637D01*
Y-1020D01*
X421180D01*
Y-4740D01*
X427458D01*
Y-1020D01*
X429001D01*
Y-4740D01*
X435278D01*
Y-1020D01*
X436822D01*
Y-4740D01*
X443099D01*
Y-1020D01*
X444642D01*
Y-4740D01*
X450920D01*
Y-1020D01*
X452463D01*
Y-4740D01*
X458741D01*
Y-1020D01*
X460284D01*
Y-4740D01*
X466562D01*
Y-1020D01*
X468105D01*
Y-4740D01*
X474382D01*
Y-1020D01*
X475926D01*
Y-4740D01*
X482203D01*
Y-1020D01*
X483746D01*
Y-4740D01*
X490024D01*
Y-1020D01*
X491567D01*
Y-4740D01*
X497845D01*
Y-1020D01*
X499388D01*
Y-4740D01*
X505666D01*
Y-1020D01*
X507209D01*
Y-4740D01*
X513486D01*
Y-1020D01*
X515030D01*
Y-4740D01*
X521307D01*
Y-1020D01*
X522851D01*
Y-4740D01*
X529128D01*
Y-1020D01*
X530672D01*
Y-4740D01*
X536949D01*
Y-1020D01*
X538492D01*
Y-4740D01*
X544770D01*
Y-1020D01*
X546313D01*
Y-4740D01*
X552591D01*
Y-1020D01*
X554134D01*
Y-4740D01*
X560411D01*
Y-1020D01*
X561955D01*
Y-4740D01*
X568232D01*
Y-1020D01*
X569775D01*
Y-4740D01*
X576053D01*
Y-1020D01*
X577596D01*
Y-4740D01*
X583874D01*
Y-1020D01*
X585417D01*
Y-4740D01*
D02*
G37*
%LPC*%
G36*
X583874Y4740D02*
X577596D01*
Y575D01*
X583874D01*
Y4740D01*
D02*
G37*
G36*
X576053D02*
X569775D01*
Y575D01*
X576053D01*
Y4740D01*
D02*
G37*
G36*
X568232D02*
X561955D01*
Y575D01*
X568232D01*
Y4740D01*
D02*
G37*
G36*
X560411D02*
X554134D01*
Y575D01*
X560411D01*
Y4740D01*
D02*
G37*
G36*
X552591D02*
X546313D01*
Y575D01*
X552591D01*
Y4740D01*
D02*
G37*
G36*
X544770D02*
X538492D01*
Y575D01*
X544770D01*
Y4740D01*
D02*
G37*
G36*
X536949D02*
X530672D01*
Y575D01*
X536949D01*
Y4740D01*
D02*
G37*
G36*
X529128D02*
X522851D01*
Y575D01*
X529128D01*
Y4740D01*
D02*
G37*
G36*
X521307D02*
X515030D01*
Y575D01*
X521307D01*
Y4740D01*
D02*
G37*
G36*
X513486D02*
X507209D01*
Y575D01*
X513486D01*
Y4740D01*
D02*
G37*
G36*
X505666D02*
X499388D01*
Y575D01*
X505666D01*
Y4740D01*
D02*
G37*
G36*
X497845D02*
X491567D01*
Y575D01*
X497845D01*
Y4740D01*
D02*
G37*
G36*
X490024D02*
X483746D01*
Y575D01*
X490024D01*
Y4740D01*
D02*
G37*
G36*
X482203D02*
X475926D01*
Y575D01*
X482203D01*
Y4740D01*
D02*
G37*
G36*
X474382D02*
X468105D01*
Y575D01*
X474382D01*
Y4740D01*
D02*
G37*
G36*
X466562D02*
X460284D01*
Y575D01*
X466562D01*
Y4740D01*
D02*
G37*
G36*
X458741D02*
X452463D01*
Y575D01*
X458741D01*
Y4740D01*
D02*
G37*
G36*
X450920D02*
X444642D01*
Y575D01*
X450920D01*
Y4740D01*
D02*
G37*
G36*
X443099D02*
X436822D01*
Y575D01*
X443099D01*
Y4740D01*
D02*
G37*
G36*
X435278D02*
X429001D01*
Y575D01*
X435278D01*
Y4740D01*
D02*
G37*
G36*
X427458D02*
X421180D01*
Y575D01*
X427458D01*
Y4740D01*
D02*
G37*
G36*
X419637D02*
X413359D01*
Y575D01*
X419637D01*
Y4740D01*
D02*
G37*
G36*
X411816D02*
X405539D01*
Y575D01*
X411816D01*
Y4740D01*
D02*
G37*
G36*
X403995D02*
X397718D01*
Y575D01*
X403995D01*
Y4740D01*
D02*
G37*
G36*
X396174D02*
X389897D01*
Y575D01*
X396174D01*
Y4740D01*
D02*
G37*
G36*
X388353D02*
X382076D01*
Y575D01*
X388353D01*
Y4740D01*
D02*
G37*
G36*
X380533D02*
X374255D01*
Y575D01*
X380533D01*
Y4740D01*
D02*
G37*
G36*
X372712D02*
X366435D01*
Y575D01*
X372712D01*
Y4740D01*
D02*
G37*
G36*
X364891D02*
X358614D01*
Y575D01*
X364891D01*
Y4740D01*
D02*
G37*
G36*
X357070D02*
X350793D01*
Y575D01*
X357070D01*
Y4740D01*
D02*
G37*
G36*
X349250D02*
X342972D01*
Y575D01*
X349250D01*
Y4740D01*
D02*
G37*
G36*
X341429D02*
X335151D01*
Y575D01*
X341429D01*
Y4740D01*
D02*
G37*
G36*
X333608D02*
X327330D01*
Y575D01*
X333608D01*
Y4740D01*
D02*
G37*
G36*
X325787D02*
X319510D01*
Y575D01*
X325787D01*
Y4740D01*
D02*
G37*
G36*
X317966D02*
X311689D01*
Y575D01*
X317966D01*
Y4740D01*
D02*
G37*
G36*
X310145D02*
X303868D01*
Y575D01*
X310145D01*
Y4740D01*
D02*
G37*
G36*
X302325D02*
X296047D01*
Y575D01*
X302325D01*
Y4740D01*
D02*
G37*
G36*
X294504D02*
X288226D01*
Y575D01*
X294504D01*
Y4740D01*
D02*
G37*
G36*
X286683D02*
X280405D01*
Y575D01*
X286683D01*
Y4740D01*
D02*
G37*
G36*
X278862D02*
X272585D01*
Y575D01*
X278862D01*
Y4740D01*
D02*
G37*
G36*
X271041D02*
X264764D01*
Y575D01*
X271041D01*
Y4740D01*
D02*
G37*
G36*
X263221D02*
X256943D01*
Y575D01*
X263221D01*
Y4740D01*
D02*
G37*
G36*
X255400D02*
X249122D01*
Y575D01*
X255400D01*
Y4740D01*
D02*
G37*
G36*
X247579D02*
X241301D01*
Y575D01*
X247579D01*
Y4740D01*
D02*
G37*
G36*
X239758D02*
X233481D01*
Y575D01*
X239758D01*
Y4740D01*
D02*
G37*
G36*
X231937D02*
X225660D01*
Y575D01*
X231937D01*
Y4740D01*
D02*
G37*
G36*
X224117D02*
X217839D01*
Y575D01*
X224117D01*
Y4740D01*
D02*
G37*
G36*
X216296D02*
X210018D01*
Y575D01*
X216296D01*
Y4740D01*
D02*
G37*
G36*
X208475D02*
X202198D01*
Y575D01*
X208475D01*
Y4740D01*
D02*
G37*
G36*
X200654D02*
X194377D01*
Y575D01*
X200654D01*
Y4740D01*
D02*
G37*
G36*
X192833D02*
X186556D01*
Y575D01*
X192833D01*
Y4740D01*
D02*
G37*
G36*
X185013D02*
X178735D01*
Y575D01*
X185013D01*
Y4740D01*
D02*
G37*
G36*
X177192D02*
X170914D01*
Y575D01*
X177192D01*
Y4740D01*
D02*
G37*
G36*
X169371D02*
X163093D01*
Y575D01*
X169371D01*
Y4740D01*
D02*
G37*
G36*
X161550D02*
X155272D01*
Y575D01*
X161550D01*
Y4740D01*
D02*
G37*
G36*
X153729D02*
X147452D01*
Y575D01*
X153729D01*
Y4740D01*
D02*
G37*
G36*
X145908D02*
X139631D01*
Y575D01*
X145908D01*
Y4740D01*
D02*
G37*
G36*
X138088D02*
X131810D01*
Y575D01*
X138088D01*
Y4740D01*
D02*
G37*
G36*
X130267D02*
X123989D01*
Y575D01*
X130267D01*
Y4740D01*
D02*
G37*
G36*
X122446D02*
X116168D01*
Y575D01*
X122446D01*
Y4740D01*
D02*
G37*
G36*
X114625D02*
X108348D01*
Y575D01*
X114625D01*
Y4740D01*
D02*
G37*
G36*
X106804D02*
X100527D01*
Y575D01*
X106804D01*
Y4740D01*
D02*
G37*
G36*
X98984D02*
X92706D01*
Y575D01*
X98984D01*
Y4740D01*
D02*
G37*
G36*
X91163D02*
X84885D01*
Y575D01*
X91163D01*
Y4740D01*
D02*
G37*
G36*
X83342D02*
X77065D01*
Y575D01*
X83342D01*
Y4740D01*
D02*
G37*
G36*
X75521D02*
X69244D01*
Y575D01*
X75521D01*
Y4740D01*
D02*
G37*
G36*
X67700D02*
X61423D01*
Y575D01*
X67700D01*
Y4740D01*
D02*
G37*
G36*
X59879D02*
X53602D01*
Y575D01*
X59879D01*
Y4740D01*
D02*
G37*
G36*
X52059D02*
X45781D01*
Y575D01*
X52059D01*
Y4740D01*
D02*
G37*
G36*
X44238D02*
X37960D01*
Y575D01*
X44238D01*
Y4740D01*
D02*
G37*
G36*
X36417D02*
X30139D01*
Y575D01*
X36417D01*
Y4740D01*
D02*
G37*
G36*
X28596D02*
X22319D01*
Y575D01*
X28596D01*
Y4740D01*
D02*
G37*
G36*
X20776D02*
X14498D01*
Y575D01*
X20776D01*
Y4740D01*
D02*
G37*
G36*
X12955D02*
X6677D01*
Y575D01*
X12955D01*
Y4740D01*
D02*
G37*
%LPD*%
D11*
X587689Y-2354D02*
X588787D01*
X589370Y-1969D01*
X587303Y-2657D02*
X587689Y-2354D01*
X587303Y2657D02*
X587689Y2362D01*
X589051D01*
X383962Y2657D02*
X386468D01*
X376141D02*
X378647D01*
X368320D02*
X370826D01*
X360500D02*
X363005D01*
X352679D02*
X355185D01*
X344858D02*
X347364D01*
X337037D02*
X339543D01*
X329216D02*
X331722D01*
X321395D02*
X323901D01*
X313575D02*
X316080D01*
X305754D02*
X308260D01*
X297933D02*
X300439D01*
X290112D02*
X292618D01*
X282291D02*
X284797D01*
X274470D02*
X276976D01*
X266650D02*
X269156D01*
X258829D02*
X261335D01*
X251008D02*
X253514D01*
X243187D02*
X245693D01*
X235367D02*
X237872D01*
X227546D02*
X230051D01*
X219725D02*
X222231D01*
X211904D02*
X214410D01*
X204083D02*
X206589D01*
X196263D02*
X198768D01*
X188442D02*
X190947D01*
X180621D02*
X183127D01*
X172800D02*
X175306D01*
X164979D02*
X167485D01*
X157158D02*
X159664D01*
X149337D02*
X151843D01*
X141517D02*
X144023D01*
X133696D02*
X136202D01*
X125875D02*
X128381D01*
X118054D02*
X120560D01*
X110233D02*
X112739D01*
X102413D02*
X104919D01*
X94592D02*
X97098D01*
X86771D02*
X89277D01*
X78950D02*
X81456D01*
X71130D02*
X73635D01*
X63309D02*
X65815D01*
X55488D02*
X57994D01*
X47667D02*
X50173D01*
X39846D02*
X42352D01*
X32025D02*
X34531D01*
X24205D02*
X26711D01*
X16384D02*
X18890D01*
X8563D02*
X11069D01*
X1181Y1969D02*
X1764Y2354D01*
X2862D01*
X3248Y2657D01*
X383962Y-2657D02*
X386468D01*
X376141D02*
X378647D01*
X368320D02*
X370826D01*
X360500D02*
X363005D01*
X352679D02*
X355185D01*
X344858D02*
X347364D01*
X337037D02*
X339543D01*
X329216D02*
X331722D01*
X321395D02*
X323901D01*
X313575D02*
X316080D01*
X305754D02*
X308260D01*
X297933D02*
X300439D01*
X290112D02*
X292618D01*
X282291D02*
X284797D01*
X274470D02*
X276976D01*
X266650D02*
X269156D01*
X258829D02*
X261335D01*
X251008D02*
X253514D01*
X243187D02*
X245693D01*
X235367D02*
X237872D01*
X227546D02*
X230051D01*
X219725D02*
X222231D01*
X211904D02*
X214410D01*
X204083D02*
X206589D01*
X196263D02*
X198768D01*
X188442D02*
X190947D01*
X180621D02*
X183127D01*
X172800D02*
X175306D01*
X164979D02*
X167485D01*
X157158D02*
X159664D01*
X149337D02*
X151843D01*
X141517D02*
X144023D01*
X133696D02*
X136202D01*
X125875D02*
X128381D01*
X118054D02*
X120560D01*
X110233D02*
X112739D01*
X102413D02*
X104919D01*
X94592D02*
X97098D01*
X86771D02*
X89277D01*
X78950D02*
X81456D01*
X71130D02*
X73635D01*
X63309D02*
X65815D01*
X55488D02*
X57994D01*
X47667D02*
X50173D01*
X39846D02*
X42352D01*
X32025D02*
X34531D01*
X24205D02*
X26711D01*
X16384D02*
X18890D01*
X8563D02*
X11069D01*
X1181Y-1969D02*
X1764Y-2354D01*
X2862D01*
X3248Y-2657D01*
X391783D02*
X394288D01*
X399604D02*
X402109D01*
X407424D02*
X409930D01*
X415245D02*
X417751D01*
X423066D02*
X425572D01*
X430887D02*
X433392D01*
X438707D02*
X441213D01*
X446528D02*
X449034D01*
X454349D02*
X456855D01*
X462170D02*
X464676D01*
X469991D02*
X472497D01*
X477811D02*
X480317D01*
X485632D02*
X488138D01*
X493453D02*
X495959D01*
X501274D02*
X503780D01*
X391783Y2657D02*
X394288D01*
X399604D02*
X402109D01*
X407424D02*
X409930D01*
X415245D02*
X417751D01*
X423066D02*
X425572D01*
X430887D02*
X433392D01*
X438707D02*
X441213D01*
X446528D02*
X449034D01*
X454349D02*
X456855D01*
X462170D02*
X464676D01*
X469991D02*
X472497D01*
X477811D02*
X480317D01*
X485632D02*
X488138D01*
X493453D02*
X495959D01*
X501274D02*
X503780D01*
X509095Y-2657D02*
X511601D01*
X516916D02*
X519421D01*
X524736D02*
X527242D01*
X532557D02*
X535063D01*
X540378D02*
X542884D01*
X548199D02*
X550705D01*
X556020D02*
X558526D01*
X563840D02*
X566346D01*
X571661D02*
X574167D01*
X579482D02*
X581988D01*
X509095Y2657D02*
X511601D01*
X516916D02*
X519421D01*
X524736D02*
X527242D01*
X532557D02*
X535063D01*
X540378D02*
X542884D01*
X548199D02*
X550705D01*
X556020D02*
X558526D01*
X563840D02*
X566346D01*
X571661D02*
X574167D01*
X579482D02*
X581988D01*
X590551Y-7874D02*
Y7874D01*
X-0Y-7874D02*
X590551D01*
X-0D02*
Y7874D01*
X590551D01*
D16*
X587303Y-2657D02*
D03*
Y2657D02*
D03*
X581988D02*
D03*
Y-2657D02*
D03*
X579482D02*
D03*
Y2657D02*
D03*
X574167D02*
D03*
Y-2657D02*
D03*
X571661D02*
D03*
Y2657D02*
D03*
X566346D02*
D03*
Y-2657D02*
D03*
X563840D02*
D03*
Y2657D02*
D03*
X558526D02*
D03*
Y-2657D02*
D03*
X556020D02*
D03*
Y2657D02*
D03*
X550705D02*
D03*
Y-2657D02*
D03*
X548199D02*
D03*
Y2657D02*
D03*
X542884D02*
D03*
Y-2657D02*
D03*
X540378D02*
D03*
Y2657D02*
D03*
X535063D02*
D03*
Y-2657D02*
D03*
X532557D02*
D03*
Y2657D02*
D03*
X527242D02*
D03*
Y-2657D02*
D03*
X524736D02*
D03*
Y2657D02*
D03*
X519421D02*
D03*
Y-2657D02*
D03*
X516916D02*
D03*
Y2657D02*
D03*
X511601D02*
D03*
Y-2657D02*
D03*
X509095D02*
D03*
Y2657D02*
D03*
X503780D02*
D03*
Y-2657D02*
D03*
X501274D02*
D03*
Y2657D02*
D03*
X495959D02*
D03*
Y-2657D02*
D03*
X493453D02*
D03*
Y2657D02*
D03*
X488138D02*
D03*
Y-2657D02*
D03*
X485632D02*
D03*
Y2657D02*
D03*
X480317D02*
D03*
Y-2657D02*
D03*
X477811D02*
D03*
Y2657D02*
D03*
X472497D02*
D03*
Y-2657D02*
D03*
X469991D02*
D03*
Y2657D02*
D03*
X464676D02*
D03*
Y-2657D02*
D03*
X462170D02*
D03*
Y2657D02*
D03*
X456855D02*
D03*
Y-2657D02*
D03*
X454349D02*
D03*
Y2657D02*
D03*
X449034D02*
D03*
Y-2657D02*
D03*
X446528D02*
D03*
Y2657D02*
D03*
X441213D02*
D03*
Y-2657D02*
D03*
X438707D02*
D03*
Y2657D02*
D03*
X433392D02*
D03*
Y-2657D02*
D03*
X430887D02*
D03*
Y2657D02*
D03*
X425572D02*
D03*
Y-2657D02*
D03*
X423066D02*
D03*
Y2657D02*
D03*
X417751D02*
D03*
Y-2657D02*
D03*
X415245D02*
D03*
Y2657D02*
D03*
X409930D02*
D03*
Y-2657D02*
D03*
X407424D02*
D03*
Y2657D02*
D03*
X402109D02*
D03*
Y-2657D02*
D03*
X399604D02*
D03*
Y2657D02*
D03*
X394288D02*
D03*
Y-2657D02*
D03*
X3248D02*
D03*
X8563D02*
D03*
X11069D02*
D03*
X16384D02*
D03*
X18890D02*
D03*
X24205D02*
D03*
X26711D02*
D03*
X32025D02*
D03*
X34531D02*
D03*
X39846D02*
D03*
X42352D02*
D03*
X47667D02*
D03*
X50173D02*
D03*
X55488D02*
D03*
X57994D02*
D03*
X63309D02*
D03*
X65815D02*
D03*
X71130D02*
D03*
X73635D02*
D03*
X78950D02*
D03*
X81456D02*
D03*
X86771D02*
D03*
X89277D02*
D03*
X94592D02*
D03*
X97098D02*
D03*
X102413D02*
D03*
X104919D02*
D03*
X110233D02*
D03*
X112739D02*
D03*
X118054D02*
D03*
X120560D02*
D03*
X125875D02*
D03*
X128381D02*
D03*
X133696D02*
D03*
X136202D02*
D03*
X141517D02*
D03*
X144023D02*
D03*
X149337D02*
D03*
X151843D02*
D03*
X157158D02*
D03*
X159664D02*
D03*
X164979D02*
D03*
X167485D02*
D03*
X172800D02*
D03*
X175306D02*
D03*
X180621D02*
D03*
X183127D02*
D03*
X188442D02*
D03*
X190947D02*
D03*
X196263D02*
D03*
X198768D02*
D03*
X204083D02*
D03*
X206589D02*
D03*
X211904D02*
D03*
X214410D02*
D03*
X222231D02*
D03*
X219725D02*
D03*
X227546D02*
D03*
X230051D02*
D03*
X235367D02*
D03*
X237872D02*
D03*
X243187D02*
D03*
X245693D02*
D03*
X251008D02*
D03*
X253514D02*
D03*
X258829D02*
D03*
X261335D02*
D03*
X266650D02*
D03*
X269156D02*
D03*
X274470D02*
D03*
X276976D02*
D03*
X282291D02*
D03*
X284797D02*
D03*
X290112D02*
D03*
X292618D02*
D03*
X297933D02*
D03*
X300439D02*
D03*
X305754D02*
D03*
X308260D02*
D03*
X313575D02*
D03*
X316080D02*
D03*
X321395D02*
D03*
X323901D02*
D03*
X329216D02*
D03*
X331722D02*
D03*
X337037D02*
D03*
X339543D02*
D03*
X344858D02*
D03*
X347364D02*
D03*
X352679D02*
D03*
X355185D02*
D03*
X360500D02*
D03*
X363005D02*
D03*
X368320D02*
D03*
X370826D02*
D03*
X376141D02*
D03*
X378647D02*
D03*
X383962D02*
D03*
X386468D02*
D03*
X391783D02*
D03*
X3248Y2657D02*
D03*
X8563D02*
D03*
X11069D02*
D03*
X16384D02*
D03*
X18890D02*
D03*
X24205D02*
D03*
X26711D02*
D03*
X32025D02*
D03*
X34531D02*
D03*
X39846D02*
D03*
X42352D02*
D03*
X47667D02*
D03*
X50173D02*
D03*
X55488D02*
D03*
X57994D02*
D03*
X63309D02*
D03*
X65815D02*
D03*
X71130D02*
D03*
X73635D02*
D03*
X78950D02*
D03*
X81456D02*
D03*
X86771D02*
D03*
X89277D02*
D03*
X94592D02*
D03*
X97098D02*
D03*
X102413D02*
D03*
X104919D02*
D03*
X110233D02*
D03*
X112739D02*
D03*
X118054D02*
D03*
X120560D02*
D03*
X125875D02*
D03*
X128381D02*
D03*
X133696D02*
D03*
X136202D02*
D03*
X141517D02*
D03*
X144023D02*
D03*
X149337D02*
D03*
X151843D02*
D03*
X157158D02*
D03*
X159664D02*
D03*
X164979D02*
D03*
X167485D02*
D03*
X172800D02*
D03*
X175306D02*
D03*
X180621D02*
D03*
X183127D02*
D03*
X188442D02*
D03*
X190947D02*
D03*
X196263D02*
D03*
X198768D02*
D03*
X204083D02*
D03*
X206589D02*
D03*
X211904D02*
D03*
X214410D02*
D03*
X222231D02*
D03*
X219725D02*
D03*
X227546D02*
D03*
X230051D02*
D03*
X235367D02*
D03*
X237872D02*
D03*
X243187D02*
D03*
X245693D02*
D03*
X251008D02*
D03*
X253514D02*
D03*
X258829D02*
D03*
X261335D02*
D03*
X266650D02*
D03*
X269156D02*
D03*
X274470D02*
D03*
X276976D02*
D03*
X282291D02*
D03*
X284797D02*
D03*
X290112D02*
D03*
X292618D02*
D03*
X297933D02*
D03*
X300439D02*
D03*
X305754D02*
D03*
X308260D02*
D03*
X313575D02*
D03*
X316080D02*
D03*
X321395D02*
D03*
X323901D02*
D03*
X329216D02*
D03*
X331722D02*
D03*
X337037D02*
D03*
X339543D02*
D03*
X344858D02*
D03*
X347364D02*
D03*
X352679D02*
D03*
X355185D02*
D03*
X360500D02*
D03*
X363005D02*
D03*
X368320D02*
D03*
X370826D02*
D03*
X376141D02*
D03*
X378647D02*
D03*
X383962D02*
D03*
X386468D02*
D03*
X391783D02*
D03*
D17*
X584646Y2165D02*
D03*
X576825D02*
D03*
X569004D02*
D03*
X561183D02*
D03*
X553362D02*
D03*
X545541D02*
D03*
X537720D02*
D03*
X529900D02*
D03*
X522079D02*
D03*
X514258D02*
D03*
X506437D02*
D03*
X498617D02*
D03*
X490796D02*
D03*
X482975D02*
D03*
X475154D02*
D03*
X467333D02*
D03*
X459513D02*
D03*
X451692D02*
D03*
X443871D02*
D03*
X436050D02*
D03*
X428229D02*
D03*
X420408D02*
D03*
X412588D02*
D03*
X404767D02*
D03*
X396946D02*
D03*
X389125D02*
D03*
X381304D02*
D03*
X373483D02*
D03*
X365663D02*
D03*
X357842D02*
D03*
X350021D02*
D03*
X342200D02*
D03*
X334380D02*
D03*
X326559D02*
D03*
X318738D02*
D03*
X310917D02*
D03*
X303096D02*
D03*
X295275D02*
D03*
X287455D02*
D03*
X279634D02*
D03*
X271813D02*
D03*
X263992D02*
D03*
X256171D02*
D03*
X248351D02*
D03*
X240530D02*
D03*
X232709D02*
D03*
X224888D02*
D03*
X217067D02*
D03*
X209246D02*
D03*
X201426D02*
D03*
X193605D02*
D03*
X185784D02*
D03*
X177963D02*
D03*
X170142D02*
D03*
X162322D02*
D03*
X13726D02*
D03*
X45009D02*
D03*
X146680D02*
D03*
X138859D02*
D03*
X131038D02*
D03*
X123218D02*
D03*
X115397D02*
D03*
X107576D02*
D03*
X99755D02*
D03*
X91934D02*
D03*
X84114D02*
D03*
X76293D02*
D03*
X68472D02*
D03*
X60651D02*
D03*
X52830D02*
D03*
X37189D02*
D03*
X29368D02*
D03*
X21547D02*
D03*
X5906D02*
D03*
X154501D02*
D03*
D18*
X584646Y-2657D02*
D03*
X576825D02*
D03*
X569004D02*
D03*
X561183D02*
D03*
X553362D02*
D03*
X545541D02*
D03*
X537720D02*
D03*
X529900D02*
D03*
X522079D02*
D03*
X514258D02*
D03*
X506437D02*
D03*
X498617D02*
D03*
X490796D02*
D03*
X482975D02*
D03*
X475154D02*
D03*
X467333D02*
D03*
X459513D02*
D03*
X451692D02*
D03*
X443871D02*
D03*
X436050D02*
D03*
X428229D02*
D03*
X420408D02*
D03*
X412588D02*
D03*
X404767D02*
D03*
X396946D02*
D03*
X389125D02*
D03*
X381304D02*
D03*
X373483D02*
D03*
X365663D02*
D03*
X357842D02*
D03*
X350021D02*
D03*
X342200D02*
D03*
X334380D02*
D03*
X326559D02*
D03*
X318738D02*
D03*
X310917D02*
D03*
X303096D02*
D03*
X295275D02*
D03*
X287455D02*
D03*
X279634D02*
D03*
X271813D02*
D03*
X263992D02*
D03*
X256171D02*
D03*
X248351D02*
D03*
X240530D02*
D03*
X232709D02*
D03*
X224888D02*
D03*
X217067D02*
D03*
X209246D02*
D03*
X201426D02*
D03*
X193605D02*
D03*
X185784D02*
D03*
X177963D02*
D03*
X170142D02*
D03*
X162322D02*
D03*
X13726D02*
D03*
X45009D02*
D03*
X146680D02*
D03*
X138859D02*
D03*
X131038D02*
D03*
X123218D02*
D03*
X115397D02*
D03*
X107576D02*
D03*
X99755D02*
D03*
X91934D02*
D03*
X84114D02*
D03*
X76293D02*
D03*
X68472D02*
D03*
X60651D02*
D03*
X52830D02*
D03*
X37189D02*
D03*
X29368D02*
D03*
X21547D02*
D03*
X5906D02*
D03*
X154501D02*
D03*
D19*
X589370Y-5906D02*
D03*
Y-1969D02*
D03*
Y1969D02*
D03*
Y5906D02*
D03*
X1181Y-5906D02*
D03*
Y-1969D02*
D03*
Y1969D02*
D03*
Y5906D02*
D03*
D20*
X5906Y-5906D02*
D03*
X584645D02*
D03*
X576825D02*
D03*
X569004D02*
D03*
X561183D02*
D03*
X553362D02*
D03*
X545541D02*
D03*
X537721D02*
D03*
X529900D02*
D03*
X522079D02*
D03*
X514258D02*
D03*
X506437D02*
D03*
X498617D02*
D03*
X490796D02*
D03*
X482975D02*
D03*
X475154D02*
D03*
X467333D02*
D03*
X459513D02*
D03*
X451692D02*
D03*
X443871D02*
D03*
X436050D02*
D03*
X428229D02*
D03*
X420408D02*
D03*
X412588D02*
D03*
X404767D02*
D03*
X396946D02*
D03*
X389125D02*
D03*
X381304D02*
D03*
X373484D02*
D03*
X365663D02*
D03*
X357842D02*
D03*
X350021D02*
D03*
X342200D02*
D03*
X334380D02*
D03*
X326559D02*
D03*
X318738D02*
D03*
X310917D02*
D03*
X303096D02*
D03*
X295275D02*
D03*
X287455D02*
D03*
X279634D02*
D03*
X271813D02*
D03*
X263992D02*
D03*
X256171D02*
D03*
X248351D02*
D03*
X240530D02*
D03*
X232709D02*
D03*
X224888D02*
D03*
X217067D02*
D03*
X209247D02*
D03*
X201426D02*
D03*
X193605D02*
D03*
X185784D02*
D03*
X177963D02*
D03*
X170142D02*
D03*
X162322D02*
D03*
X154501D02*
D03*
X146680D02*
D03*
X138859D02*
D03*
X131038D02*
D03*
X123218D02*
D03*
X115397D02*
D03*
X107576D02*
D03*
X99755D02*
D03*
X91934D02*
D03*
X84114D02*
D03*
X76293D02*
D03*
X68472D02*
D03*
X60651D02*
D03*
X52830D02*
D03*
X45010D02*
D03*
X37189D02*
D03*
X29368D02*
D03*
X21547D02*
D03*
X13726D02*
D03*
Y5906D02*
D03*
X21547D02*
D03*
X29368D02*
D03*
X37189D02*
D03*
X45010D02*
D03*
X52830D02*
D03*
X60651D02*
D03*
X68472D02*
D03*
X76293D02*
D03*
X84114D02*
D03*
X91934D02*
D03*
X99755D02*
D03*
X107576D02*
D03*
X115397D02*
D03*
X123218D02*
D03*
X131038D02*
D03*
X138859D02*
D03*
X146680D02*
D03*
X154501D02*
D03*
X162322D02*
D03*
X170142D02*
D03*
X177963D02*
D03*
X185784D02*
D03*
X193605D02*
D03*
X201426D02*
D03*
X209247D02*
D03*
X217067D02*
D03*
X224888D02*
D03*
X232709D02*
D03*
X240530D02*
D03*
X248351D02*
D03*
X256171D02*
D03*
X263992D02*
D03*
X271813D02*
D03*
X279634D02*
D03*
X287455D02*
D03*
X295275D02*
D03*
X303096D02*
D03*
X310917D02*
D03*
X318738D02*
D03*
X326559D02*
D03*
X334380D02*
D03*
X342200D02*
D03*
X350021D02*
D03*
X357842D02*
D03*
X365663D02*
D03*
X373484D02*
D03*
X381304D02*
D03*
X389125D02*
D03*
X396946D02*
D03*
X404767D02*
D03*
X412588D02*
D03*
X420408D02*
D03*
X428229D02*
D03*
X436050D02*
D03*
X443871D02*
D03*
X451692D02*
D03*
X459513D02*
D03*
X467333D02*
D03*
X475154D02*
D03*
X482975D02*
D03*
X490796D02*
D03*
X498617D02*
D03*
X506437D02*
D03*
X514258D02*
D03*
X522079D02*
D03*
X529900D02*
D03*
X537721D02*
D03*
X545541D02*
D03*
X553362D02*
D03*
X561183D02*
D03*
X569004D02*
D03*
X576825D02*
D03*
X584645D02*
D03*
X5906D02*
D03*
M02*
