M48
;Layer_Color=9474304
;FILE_FORMAT=2:5
INCH,TZ
;TYPE=PLATED
T1F00S00C0.00787
%
T01
X553362Y-5906
X561183
X569004
X576825
X584645
Y5906
X576825
X569004
X561183
X553362
X545541
X537721
X529900
X522079
X514258
X506437
X498617
X490796
X482975
X475154
X467333
X459513
X451692
X443871
X436050
X428229
X420408
X412588
X404767
X396946
Y-5906
X404767
X412588
X420408
X428229
X436050
X443871
X451692
X459513
X467333
X475154
X482975
X490796
X498617
X506437
X514258
X522079
X529900
X537721
X545541
X389125
X381304
X373484
X365663
X357842
X350021
X342200
X334380
X326559
X318738
X310917
X303096
X295275
X287455
X279634
X271813
X263992
X256171
X248351
X240530
Y5906
X248351
X256171
X263992
X271813
X279634
X287455
X295275
X303096
X310917
X318738
X326559
X334380
X342200
X350021
X357842
X365663
X373484
X381304
X389125
X232709
X224888
X217067
X209247
X201426
X193605
X185784
X177963
X170142
X162322
X154501
X146680
X138859
X131038
X123218
X115397
X107576
X99755
X91934
X84114
Y-5906
X91934
X99755
X107576
X115397
X123218
X131038
X138859
X146680
X154501
X162322
X170142
X177963
X185784
X193605
X201426
X209247
X217067
X224888
X232709
X76293
X68472
X60651
X52830
X45010
X37189
X29368
X21547
X13726
X5906
Y5906
X13726
X21547
X29368
X37189
X45010
X52830
X60651
X68472
X76293
M30
